g _SM_Wep_Shotgun_Slide_01
v 0.01419429 -0.004290468 -0.001643045
v 0.01419429 -0.004290468 0.01292176
v 0.01419429 0.002658652 0.01292176
v 0.01419429 0.002658652 -0.001643045
v -0.02009221 -0.004290468 -0.00164366
v -0.02009221 -0.004290468 0.01292179
v -0.02009221 0.002658652 0.01292179
v -0.02009221 0.002658652 -0.00164366
v -0.003704806 0.002658652 0.01292177
v -0.003704806 0.002658652 -0.001643047
v -0.003704806 -0.004290468 -0.001643047
v -0.003704806 -0.004290468 0.01292177
v -0.007230693 0.006908759 0.01292178
v -0.007230693 0.006908759 -0.001643665
v -0.01655629 0.006908759 -0.001643648
v -0.01655629 0.006908759 0.01292178
v 0.007714376 0.01690979 -0.07102252
v 0.01156035 0.02246181 -0.066819
v 0.007714376 0.01690979 0.0710225
v 0.01156039 0.02246181 0.06681946
v 0.007714376 -0.006801148 0.0710225
v 0.007714376 -0.006801148 -0.07102252
v 0.01624625 0.01690979 -0.07102249
v 0.02009223 0.02246181 -0.066819
v 0.01624625 0.01690979 0.07102253
v 0.02009223 0.02246181 0.06681948
v 0.01624625 -0.006801148 -0.07102249
v 0.01624625 -0.006801148 0.07102253
v -0.02009221 -0.004290468 -0.00164366
v -0.02009221 -0.004290468 0.01292179
v -0.003704806 -0.004290468 0.01292177
v -0.02009221 -0.004290468 0.01292179
v -0.02009221 0.002658652 0.01292179
v -0.02009221 0.002658652 -0.00164366
v -0.02009221 -0.004290468 -0.00164366
v -0.003704806 -0.004290468 -0.001643047
v -0.003704806 0.002658652 0.01292177
v -0.003704806 0.002658652 -0.001643047
v 0.01419429 0.002658652 -0.001643045
v 0.01419429 -0.004290468 -0.001643045
v 0.01419429 -0.004290468 0.01292176
v 0.01419429 0.002658652 0.01292176
v -0.003704806 0.002658652 0.01292177
v -0.007230693 0.006908759 0.01292178
v -0.007230693 0.006908759 -0.001643665
v -0.003704806 0.002658652 -0.001643047
v -0.007230693 0.006908759 -0.001643665
v -0.01655629 0.006908759 -0.001643648
v -0.02009221 0.002658652 -0.00164366
v -0.01655629 0.006908759 -0.001643648
v -0.01655629 0.006908759 0.01292178
v -0.02009221 0.002658652 0.01292179
v -0.01655629 0.006908759 0.01292178
v -0.007230693 0.006908759 0.01292178
v 0.01624625 0.01690979 -0.07102249
v 0.01624625 0.01690979 0.07102253
v 0.007714376 0.01690979 -0.07102252
v 0.007714376 0.01690979 0.0710225
v 0.01156035 0.02246181 -0.066819
v 0.007714376 0.01690979 -0.07102252
v 0.01624625 0.01690979 -0.07102249
v 0.02009223 0.02246181 -0.066819
v 0.007714376 0.01690979 0.0710225
v 0.01156039 0.02246181 0.06681946
v 0.02009223 0.02246181 0.06681948
v 0.01624625 0.01690979 0.07102253
v 0.01156039 0.02246181 0.06681946
v 0.01156035 0.02246181 -0.066819
v 0.02009223 0.02246181 -0.066819
v 0.02009223 0.02246181 0.06681948
v 0.007714376 0.01690979 -0.07102252
v 0.007714376 -0.006801148 -0.07102252
v 0.01624625 -0.006801148 -0.07102249
v 0.01624625 0.01690979 -0.07102249
v 0.007714376 -0.006801148 -0.07102252
v 0.007714376 -0.006801148 0.0710225
v 0.01624625 -0.006801148 0.07102253
v 0.01624625 -0.006801148 -0.07102249
v 0.007714376 -0.006801148 0.0710225
v 0.007714376 0.01690979 0.0710225
v 0.01624625 0.01690979 0.07102253
v 0.01624625 -0.006801148 0.07102253
vt 0.1339111 0.3034668
vt 0.1339111 0.3034668
vt 0.1339111 0.3034668
vt 0.1339111 0.3034668
vt 0.1339111 0.3034668
vt 0.1339111 0.3034668
vt 0.1339111 0.3034668
vt 0.1339111 0.3034668
vt 0.1339111 0.3034668
vt 0.1339111 0.3034668
vt 0.1339111 0.3034668
vt 0.1339111 0.3034668
vt 0.1339111 0.3034668
vt 0.1339111 0.3034668
vt 0.1339111 0.3034668
vt 0.1339111 0.3034668
vt 0.1339111 0.3034668
vt 0.1339111 0.3034668
vt 0.1339111 0.3034668
vt 0.1339111 0.3034668
vt 0.1339111 0.3034668
vt 0.1339111 0.3034668
vt 0.1339111 0.3034668
vt 0.1339111 0.3034668
vt 0.1339111 0.3034668
vt 0.1339111 0.3034668
vt 0.1339111 0.3034668
vt 0.1339111 0.3034668
vt 0.1339111 0.3034668
vt 0.1339111 0.3034668
vt 0.1339111 0.3034668
vt 0.1339111 0.3034668
vt 0.1339111 0.3034668
vt 0.1339111 0.3034668
vt 0.1339111 0.3034668
vt 0.1339111 0.3034668
vt 0.1339111 0.3034668
vt 0.1339111 0.3034668
vt 0.1339111 0.3034668
vt 0.1339111 0.3034668
vt 0.1339111 0.3034668
vt 0.1339111 0.3034668
vt 0.1339111 0.3034668
vt 0.1339111 0.3034668
vt 0.1339111 0.3034668
vt 0.1339111 0.3034668
vt 0.1339111 0.3034668
vt 0.1339111 0.3034668
vt 0.1339111 0.3034668
vt 0.1339111 0.3034668
vt 0.1339111 0.3034668
vt 0.1339111 0.3034668
vt 0.1339111 0.3034668
vt 0.1339111 0.3034668
vt 0.1339111 0.3034668
vt 0.1339111 0.3034668
vt 0.1339111 0.3034668
vt 0.1339111 0.3034668
vt 0.1339111 0.3034668
vt 0.1339111 0.3034668
vt 0.1339111 0.3034668
vt 0.1339111 0.3034668
vt 0.1339111 0.3034668
vt 0.1339111 0.3034668
vt 0.1339111 0.3034668
vt 0.1339111 0.3034668
vt 0.1339111 0.3034668
vt 0.1339111 0.3034668
vt 0.1339111 0.3034668
vt 0.1339111 0.3034668
vt 0.1339111 0.3034668
vt 0.1339111 0.3034668
vt 0.1339111 0.3034668
vt 0.1339111 0.3034668
vt 0.1339111 0.3034668
vt 0.1339111 0.3034668
vt 0.1339111 0.3034668
vt 0.1339111 0.3034668
vt 0.1339111 0.3034668
vt 0.1339111 0.3034668
vt 0.1339111 0.3034668
vt 0.1339111 0.3034668
vn 0 0 -1
vn 0 -1 0
vn 0 1 0
vn 0 1 0
vn -1 0 0
vn -1 0 0
vn -1 0 0
vn -1 0 0
vn 0 0 1
vn 2.020597E-05 -2.378225E-05 -1
vn 0 -1 0
vn 0 -1 0
vn 0 1 0
vn 0 1 0
vn 0 1 0
vn 0 1 0
vn -0.8222656 0.5693359 0
vn -0.8222656 0.5693359 0
vn -0.8222656 0.5693359 0
vn -0.8222656 0.5693359 0
vn -1 0 0
vn -1 0 0
vn 0.8222656 -0.5693359 0
vn 0.8222656 -0.5693359 0
vn 0.8222656 -0.5693359 0
vn 0.8222656 -0.5693359 0
vn 1 0 0
vn 1 0 0
vn 0 -1 0
vn 0 -1 0
vn 0 0 1
vn 0 0 1
vn 0 0 1
vn 3.027916E-05 -3.564358E-05 -1
vn 3.737211E-05 0 -1
vn 1.871586E-05 0 -1
vn 0 1 0
vn 0 1 0
vn 0 0 -1
vn 0 -1 0
vn 0 0 1
vn 0 0 1
vn 0.7695313 0.6386719 0
vn 0.7695313 0.6386719 0
vn 0.7695313 0.6386719 0
vn 0.7695313 0.6386719 0
vn 2.318621E-05 -7.128716E-05 -1
vn 2.318621E-05 -7.128716E-05 -1
vn -0.7685547 0.6396484 0
vn -0.7685547 0.6396484 0
vn -0.7685547 0.6396484 0
vn -0.7685547 0.6396484 0
vn 0 0 1
vn 0 0 1
vn 1 0 0
vn 1 0 0
vn -1 0 0
vn -1 0 0
vn 0 0.6035156 -0.7973633
vn 0 0.6035156 -0.7973633
vn 0 0.6035156 -0.7973633
vn 0 0.6035156 -0.7973633
vn 0 0.6035156 0.7973633
vn 0 0.6035156 0.7973633
vn 0 0.6035156 0.7973633
vn 0 0.6035156 0.7973633
vn 0 1 0
vn 0 1 0
vn 0 1 0
vn 0 1 0
vn 0 0 -1
vn 0 0 -1
vn 0 0 -1
vn 0 0 -1
vn 0 -1 0
vn 0 -1 0
vn 0 -1 0
vn 0 -1 0
vn 0 0 1
vn 0 0 1
vn 0 0 1
vn 0 0 1
g _SM_Wep_Shotgun_Slide_01_0
f 7/7/7 8/8/8 5/5/5
f 6/6/6 7/7/7 5/5/5
f 30/30/30 29/29/29 11/11/11
f 12/12/12 30/30/30 11/11/11
f 12/12/12 11/11/11 40/40/40
f 2/2/2 12/12/12 40/40/40
f 33/33/33 32/32/32 31/31/31
f 9/9/9 33/33/33 31/31/31
f 9/9/9 31/31/31 41/41/41
f 42/42/42 9/9/9 41/41/41
f 9/9/9 54/54/54 33/33/33
f 54/54/54 53/53/53 33/33/33
f 15/15/15 16/16/16 13/13/13
f 14/14/14 15/15/15 13/13/13
f 38/38/38 37/37/37 3/3/3
f 4/4/4 38/38/38 3/3/3
f 1/1/1 36/36/36 39/39/39
f 36/36/36 10/10/10 39/39/39
f 36/36/36 35/35/35 10/10/10
f 35/35/35 34/34/34 10/10/10
f 34/34/34 48/48/48 10/10/10
f 48/48/48 47/47/47 10/10/10
f 45/45/45 44/44/44 43/43/43
f 46/46/46 45/45/45 43/43/43
f 51/51/51 50/50/50 49/49/49
f 52/52/52 51/51/51 49/49/49
f 25/25/25 23/23/23 24/24/24
f 26/26/26 25/25/25 24/24/24
f 28/28/28 27/27/27 55/55/55
f 56/56/56 28/28/28 55/55/55
f 19/19/19 20/20/20 18/18/18
f 17/17/17 19/19/19 18/18/18
f 21/21/21 58/58/58 57/57/57
f 22/22/22 21/21/21 57/57/57
f 61/61/61 60/60/60 59/59/59
f 62/62/62 61/61/61 59/59/59
f 65/65/65 64/64/64 63/63/63
f 66/66/66 65/65/65 63/63/63
f 69/69/69 68/68/68 67/67/67
f 70/70/70 69/69/69 67/67/67
f 73/73/73 72/72/72 71/71/71
f 74/74/74 73/73/73 71/71/71
f 77/77/77 76/76/76 75/75/75
f 78/78/78 77/77/77 75/75/75
f 81/81/81 80/80/80 79/79/79
f 82/82/82 81/81/81 79/79/79
