g Armor_Mid
v -2.1371 60.0523 30.8671
v -4.1107 59.9918 51.4425
v -4.073 60.0236 30.8496
v -2.1371 60.049 51.4425
v -0.2012 60.0236 30.8496
v -4.073 60.0236 72.0353
v -0.1635 59.9918 51.4425
v -2.1371 60.0523 72.0178
v -0.2012 60.0236 72.0353
v -4.073 60.0236 30.8496
v -4.0788 30.3169 30.8603
v -2.1371 30.3086 30.8616
v -2.1371 60.0523 30.8671
v -0.1954 30.3169 30.8603
v -0.2012 60.0236 30.8496
v -4.0788 30.3169 72.0246
v -4.073 60.0236 72.0353
v -2.1371 60.0523 72.0178
v -2.1371 30.3086 72.0233
v -0.2012 60.0236 72.0353
v -0.1954 30.3169 72.0246
v -2.1371 30.3086 30.8616
v -4.0788 30.3169 30.8603
v -4.0987 30.3166 51.4425
v -2.1371 30.2879 51.4425
v -0.1954 30.3169 30.8603
v -4.0788 30.3169 72.0246
v -0.1755 30.3166 51.4425
v -2.1371 30.3086 72.0233
v -0.1954 30.3169 72.0246
v -4.0987 30.3166 51.4425
v -4.0788 30.3169 30.8603
v -4.073 60.0236 30.8496
v -4.1107 59.9918 51.4425
v -4.0788 30.3169 72.0246
v -4.073 60.0236 72.0353
v -0.1954 30.3169 30.8603
v -0.1635 59.9918 51.4425
v -0.2012 60.0236 30.8496
v -0.1755 30.3166 51.4425
v -0.2012 60.0236 72.0353
v -0.1954 30.3169 72.0246
vt 0.7280273 0.0008001328
vt 0.7607422 0.3457031
vt 0.7602539 0.0005002022
vt 0.7280273 0.3457031
vt 0.6953125 0.0005002022
vt 0.7602539 0.690918
vt 0.6948242 0.3457031
vt 0.7280273 0.6904297
vt 0.6953125 0.690918
vt 0.8325195 0.001000404
vt 0.8325195 0.4987793
vt 0.8652344 0.4990234
vt 0.8652344 0.0005002022
vt 0.8974609 0.4987793
vt 0.8974609 0.001000404
vt 0.9667969 0.4987793
vt 0.9667969 0.001000404
vt 0.934082 0.0005002022
vt 0.934082 0.4990234
vt 0.9018555 0.001000404
vt 0.9013672 0.4987793
vt 0.796875 0.6904297
vt 0.8291016 0.6904297
vt 0.8295898 0.345459
vt 0.7963867 0.345459
vt 0.7641602 0.6904297
vt 0.8291016 0.0005002022
vt 0.7636719 0.345459
vt 0.7963867 0.0005002022
vt 0.7641602 0.0005002022
vt 0.3457031 0.5014648
vt 0.0006999969 0.5014648
vt 0.0005002022 0.9995117
vt 0.3457031 0.9990234
vt 0.6904297 0.5014648
vt 0.690918 0.9995117
vt 0.6904297 0.0005002022
vt 0.3457031 0.4978027
vt 0.690918 0.498291
vt 0.3457031 0.0005002022
vt 0.0005002022 0.498291
vt 0.0006999969 0.0005002022
vn 0 0.7124023 -0.7016602
vn -0.7182617 0.6958008 0
vn -0.578125 0.5727539 -0.5810547
vn 0 1 0
vn 0.578125 0.5727539 -0.5810547
vn -0.578125 0.5727539 0.5810547
vn 0.7182617 0.6958008 0
vn 0 0.7124023 0.7016602
vn 0.578125 0.5727539 0.5810547
vn -0.578125 0.5727539 -0.5810547
vn -0.578125 -0.5761719 -0.578125
vn 0 -0.7080078 -0.706543
vn 0 0.7124023 -0.7016602
vn 0.578125 -0.5761719 -0.578125
vn 0.578125 0.5727539 -0.5810547
vn -0.578125 -0.5761719 0.578125
vn -0.578125 0.5727539 0.5810547
vn 0 0.7124023 0.7016602
vn 0 -0.7080078 0.706543
vn 0.578125 0.5727539 0.5810547
vn 0.578125 -0.5761719 0.578125
vn 0 -0.7080078 -0.706543
vn -0.578125 -0.5761719 -0.578125
vn -0.7124023 -0.7016602 0
vn 0 -1 0
vn 0.578125 -0.5761719 -0.578125
vn -0.578125 -0.5761719 0.578125
vn 0.7124023 -0.7016602 0
vn 0 -0.7080078 0.706543
vn 0.578125 -0.5761719 0.578125
vn -0.7124023 -0.7016602 0
vn -0.578125 -0.5761719 -0.578125
vn -0.578125 0.5727539 -0.5810547
vn -0.7182617 0.6958008 0
vn -0.578125 -0.5761719 0.578125
vn -0.578125 0.5727539 0.5810547
vn 0.578125 -0.5761719 -0.578125
vn 0.7182617 0.6958008 0
vn 0.578125 0.5727539 -0.5810547
vn 0.7124023 -0.7016602 0
vn 0.578125 0.5727539 0.5810547
vn 0.578125 -0.5761719 0.578125
g Armor_Mid_0
f 3/3/3 2/2/2 1/1/1
f 2/2/2 4/4/4 1/1/1
f 5/5/5 1/1/1 4/4/4
f 2/2/2 6/6/6 4/4/4
f 7/7/7 5/5/5 4/4/4
f 6/6/6 8/8/8 4/4/4
f 7/7/7 4/4/4 8/8/8
f 9/9/9 7/7/7 8/8/8
f 12/12/12 11/11/11 10/10/10
f 13/13/13 12/12/12 10/10/10
f 12/12/12 13/13/13 14/14/14
f 13/13/13 15/15/15 14/14/14
f 18/18/18 17/17/17 16/16/16
f 19/19/19 18/18/18 16/16/16
f 18/18/18 19/19/19 20/20/20
f 19/19/19 21/21/21 20/20/20
f 24/24/24 23/23/23 22/22/22
f 25/25/25 24/24/24 22/22/22
f 25/25/25 22/22/22 26/26/26
f 24/24/24 25/25/25 27/27/27
f 28/28/28 25/25/25 26/26/26
f 25/25/25 29/29/29 27/27/27
f 25/25/25 28/28/28 29/29/29
f 28/28/28 30/30/30 29/29/29
f 33/33/33 32/32/32 31/31/31
f 34/34/34 33/33/33 31/31/31
f 34/34/34 31/31/31 35/35/35
f 36/36/36 34/34/34 35/35/35
f 39/39/39 38/38/38 37/37/37
f 38/38/38 40/40/40 37/37/37
f 38/38/38 41/41/41 40/40/40
f 41/41/41 42/42/42 40/40/40
