g arrow_chevron_V2_L0
v 0.09471437 -1.844157E-08 -0.02400001
v 1.168243E-08 0.05999998 -0.024
v 1.168243E-08 0.05999998 0.024
v 0.09471437 -1.844157E-08 0.02400001
v -0.09471437 1.844157E-08 -0.02399999
v -0.09471435 0.06 -0.02399999
v -0.09471435 0.06 0.02399999
v -0.09471437 1.844157E-08 0.02399999
v -0.09471439 -0.12 -0.02399999
v -0.09471438 -0.05999999 -0.02399999
v -0.09471438 -0.05999999 0.02399999
v -0.09471439 -0.12 0.02399999
v 0.09471434 -0.12 -0.02400001
v -1.168243E-08 -0.06000001 -0.024
v -1.168243E-08 -0.06000001 0.024
v 0.09471434 -0.12 0.02400001
v -0.09471435 0.06 -0.02399999
v 2.336486E-08 0.12 -0.024
v 2.336486E-08 0.12 0.024
v -0.09471435 0.06 0.02399999
v -1.168243E-08 -0.06000001 -0.024
v -0.09471439 -0.12 -0.02399999
v -0.09471439 -0.12 0.02399999
v -1.168243E-08 -0.06000001 0.024
v 0.09471435 -0.06000003 -0.02400001
v 0.09471434 -0.12 -0.02400001
v 0.09471434 -0.12 0.02400001
v 0.09471435 -0.06000003 0.02400001
v 1.168243E-08 0.05999998 -0.024
v -0.09471437 1.844157E-08 -0.02399999
v -0.09471437 1.844157E-08 0.02399999
v 1.168243E-08 0.05999998 0.024
v 0 0 -0.024
v 0.09471435 -0.06000003 -0.02400001
v 0.09471435 -0.06000003 0.02400001
v 0 0 0.024
v 0.09471438 0.05999996 -0.02400001
v 0.09471437 -1.844157E-08 -0.02400001
v 0.09471437 -1.844157E-08 0.02400001
v 0.09471438 0.05999996 0.02400001
v -0.09471438 -0.05999999 -0.02399999
v 0 0 -0.024
v 0 0 0.024
v -0.09471438 -0.05999999 0.02399999
v 2.336486E-08 0.12 0.024
v 2.208116E-08 0.1128974 0.03
v -0.08871435 0.0566983 0.02999999
v -0.09471435 0.06 0.02399999
v -0.09471435 0.06 0.02399999
v -0.08871435 0.0566983 0.02999999
v -0.08871436 0.01090351 0.02999999
v -0.09471437 1.844157E-08 0.02399999
v -0.09471437 1.844157E-08 0.02399999
v -0.08871436 0.01090351 0.02999999
v 1.306535E-08 0.06710257 0.03
v 1.168243E-08 0.05999998 0.024
v 1.168243E-08 0.05999998 0.024
v 1.306535E-08 0.06710257 0.03
v 0.08871437 0.01090348 0.03000001
v 0.09471437 -1.844157E-08 0.02400001
v 0.09471437 -1.844157E-08 0.02400001
v 0.08871437 0.01090348 0.03000001
v 0.08871438 0.05669827 0.03000001
v 0.09471438 0.05999996 0.02400001
v 0.09471438 0.05999996 0.02400001
v 0.08871438 0.05669827 0.03000001
v 2.208116E-08 0.1128974 0.03
v 2.336486E-08 0.12 0.024
v -0.08871435 0.0566983 0.02999999
v 1.306535E-08 0.06710257 0.03
v -0.08871436 0.01090351 0.02999999
v 2.208116E-08 0.1128974 0.03
v 0.08871438 0.05669827 0.03000001
v 0.08871437 0.01090348 0.03000001
v 0 0 0.024
v -1.501936E-09 -0.007102595 0.03
v -0.08871438 -0.06330168 0.02999999
v -0.09471438 -0.05999999 0.02399999
v -0.09471438 -0.05999999 0.02399999
v -0.08871438 -0.06330168 0.02999999
v -0.08871438 -0.1090965 0.02999999
v -0.09471439 -0.12 0.02399999
v -0.09471439 -0.12 0.02399999
v -0.08871438 -0.1090965 0.02999999
v -1.052331E-08 -0.05289742 0.03
v -1.168243E-08 -0.06000001 0.024
v -1.168243E-08 -0.06000001 0.024
v -1.052331E-08 -0.05289742 0.03
v 0.08871435 -0.1090965 0.03000001
v 0.09471434 -0.12 0.02400001
v 0.09471434 -0.12 0.02400001
v 0.08871435 -0.1090965 0.03000001
v 0.08871435 -0.06330172 0.03000001
v 0.09471435 -0.06000003 0.02400001
v 0.09471435 -0.06000003 0.02400001
v 0.08871435 -0.06330172 0.03000001
v -1.501936E-09 -0.007102595 0.03
v 0 0 0.024
v -0.08871438 -0.06330168 0.02999999
v -1.052331E-08 -0.05289742 0.03
v -0.08871438 -0.1090965 0.02999999
v -1.501936E-09 -0.007102595 0.03
v 0.08871435 -0.06330172 0.03000001
v 0.08871435 -0.1090965 0.03000001
v 2.336486E-08 0.12 -0.024
v -0.09471435 0.06 -0.02399999
v -0.08871435 0.0566983 -0.02999999
v 2.208116E-08 0.1128974 -0.03
v -0.09471435 0.06 -0.02399999
v -0.09471437 1.844157E-08 -0.02399999
v -0.08871436 0.01090351 -0.02999999
v -0.08871435 0.0566983 -0.02999999
v -0.09471437 1.844157E-08 -0.02399999
v 1.168243E-08 0.05999998 -0.024
v 1.306535E-08 0.06710257 -0.03
v -0.08871436 0.01090351 -0.02999999
v 1.168243E-08 0.05999998 -0.024
v 0.09471437 -1.844157E-08 -0.02400001
v 0.08871437 0.01090348 -0.03000001
v 1.306535E-08 0.06710257 -0.03
v 0.09471437 -1.844157E-08 -0.02400001
v 0.09471438 0.05999996 -0.02400001
v 0.08871438 0.05669827 -0.03000001
v 0.08871437 0.01090348 -0.03000001
v 0.09471438 0.05999996 -0.02400001
v 2.336486E-08 0.12 -0.024
v 2.208116E-08 0.1128974 -0.03
v 0.08871438 0.05669827 -0.03000001
v -0.08871435 0.0566983 -0.02999999
v -0.08871436 0.01090351 -0.02999999
v 1.306535E-08 0.06710257 -0.03
v 2.208116E-08 0.1128974 -0.03
v 0.08871438 0.05669827 -0.03000001
v 0.08871437 0.01090348 -0.03000001
v 0 0 -0.024
v -0.09471438 -0.05999999 -0.02399999
v -0.08871438 -0.06330168 -0.02999999
v -1.501936E-09 -0.007102595 -0.03
v -0.09471438 -0.05999999 -0.02399999
v -0.09471439 -0.12 -0.02399999
v -0.08871438 -0.1090965 -0.02999999
v -0.08871438 -0.06330168 -0.02999999
v -0.09471439 -0.12 -0.02399999
v -1.168243E-08 -0.06000001 -0.024
v -1.052331E-08 -0.05289742 -0.03
v -0.08871438 -0.1090965 -0.02999999
v -1.168243E-08 -0.06000001 -0.024
v 0.09471434 -0.12 -0.02400001
v 0.08871435 -0.1090965 -0.03000001
v -1.052331E-08 -0.05289742 -0.03
v 0.09471434 -0.12 -0.02400001
v 0.09471435 -0.06000003 -0.02400001
v 0.08871435 -0.06330172 -0.03000001
v 0.08871435 -0.1090965 -0.03000001
v 0.09471435 -0.06000003 -0.02400001
v 0 0 -0.024
v -1.501936E-09 -0.007102595 -0.03
v 0.08871435 -0.06330172 -0.03000001
v -0.08871438 -0.06330168 -0.02999999
v -0.08871438 -0.1090965 -0.02999999
v -1.052331E-08 -0.05289742 -0.03
v -1.501936E-09 -0.007102595 -0.03
v 0.08871435 -0.06330172 -0.03000001
v 0.08871435 -0.1090965 -0.03000001
v 2.336486E-08 0.12 -0.024
v 0.09471438 0.05999996 -0.02400001
v 0.09471438 0.05999996 0.02400001
v 2.336486E-08 0.12 0.024
vt 0.866479 0.7541848
vt 0.6129372 0.754185
vt 0.6129372 0.8627298
vt 0.866479 0.8627298
vt 0.4829248 0.2996797
vt 0.4829248 0.4353606
vt 0.5914696 0.4353606
vt 0.5914696 0.2996797
vt 0.7399662 0.2996745
vt 0.7399661 0.4353555
vt 0.8485109 0.4353556
vt 0.8485109 0.2996745
vt 0.9900108 0.03995341
vt 0.7364689 0.03995353
vt 0.7364689 0.1484984
vt 0.9900108 0.1484983
vt 0.4829248 0.4353606
vt 0.4829247 0.6889026
vt 0.5914696 0.6889026
vt 0.5914696 0.4353606
vt 0.7364689 0.03995353
vt 0.4829271 0.03995353
vt 0.4829271 0.1484984
vt 0.7364689 0.1484984
vt 0.7199904 0.435353
vt 0.7199904 0.2996719
vt 0.6114454 0.2996719
vt 0.6114455 0.435353
vt 0.6129372 0.754185
vt 0.3593954 0.7541848
vt 0.3593954 0.8627297
vt 0.6129372 0.8627298
vt 0.7199904 0.6888948
vt 0.7199904 0.435353
vt 0.6114455 0.435353
vt 0.6114455 0.6888948
vt 0.7364679 0.2783572
vt 0.8721491 0.2783571
vt 0.8721491 0.1698122
vt 0.7364679 0.1698122
vt 0.7399661 0.4353555
vt 0.7399659 0.6888974
vt 0.8485109 0.6888974
vt 0.8485109 0.4353556
vt 0.2364705 0.2985393
vt 0.2364705 0.2815559
vt 0.02434088 0.1471754
vt 0.009993995 0.1550702
vt 0.009993995 0.1550702
vt 0.02434088 0.1471754
vt 0.02434088 0.03767302
vt 0.009993935 0.01160114
vt 0.009993935 0.01160114
vt 0.02434088 0.03767302
vt 0.2364705 0.1720536
vt 0.2364705 0.1550702
vt 0.2364705 0.1550702
vt 0.2364705 0.1720536
vt 0.4486 0.03767296
vt 0.4629469 0.01160108
vt 0.4629469 0.01160108
vt 0.4486 0.03767296
vt 0.4486 0.1471752
vt 0.4629469 0.1550701
vt 0.4629469 0.1550701
vt 0.4486 0.1471752
vt 0.2364705 0.2815559
vt 0.2364705 0.2985393
vt 0.02434088 0.1471754
vt 0.2364705 0.1720536
vt 0.02434088 0.03767302
vt 0.2364705 0.2815559
vt 0.4486 0.1471752
vt 0.4486 0.03767296
vt 0.2364704 0.4683542
vt 0.2364704 0.4513708
vt 0.02434088 0.3169903
vt 0.009993935 0.3248851
vt 0.009993935 0.3248851
vt 0.02434088 0.3169903
vt 0.02434088 0.2074879
vt 0.009993935 0.181416
vt 0.009993935 0.181416
vt 0.02434088 0.2074879
vt 0.2364704 0.3418684
vt 0.2364704 0.324885
vt 0.2364704 0.324885
vt 0.2364704 0.3418684
vt 0.4485998 0.2074878
vt 0.4629467 0.1814159
vt 0.4629467 0.1814159
vt 0.4485998 0.2074878
vt 0.4485998 0.3169902
vt 0.4629467 0.324885
vt 0.4629467 0.324885
vt 0.4485998 0.3169902
vt 0.2364704 0.4513708
vt 0.2364704 0.4683542
vt 0.02434088 0.3169903
vt 0.2364704 0.3418684
vt 0.02434088 0.2074879
vt 0.2364704 0.4513708
vt 0.4485998 0.3169902
vt 0.4485998 0.2074878
vt 0.2364704 0.6381706
vt 0.4629468 0.4947016
vt 0.4485999 0.4868067
vt 0.2364704 0.6211871
vt 0.4629468 0.4947016
vt 0.4629468 0.3512325
vt 0.4485999 0.3773044
vt 0.4485999 0.4868067
vt 0.4629468 0.3512325
vt 0.2364704 0.4947015
vt 0.2364704 0.5116848
vt 0.4485999 0.3773044
vt 0.2364704 0.4947015
vt 0.00999406 0.3512323
vt 0.02434096 0.3773043
vt 0.2364704 0.5116848
vt 0.00999406 0.3512323
vt 0.00999406 0.4947015
vt 0.0243409 0.4868066
vt 0.02434096 0.3773043
vt 0.00999406 0.4947015
vt 0.2364704 0.6381706
vt 0.2364704 0.6211871
vt 0.0243409 0.4868066
vt 0.4485999 0.4868067
vt 0.4485999 0.3773044
vt 0.2364704 0.5116848
vt 0.2364704 0.6211871
vt 0.0243409 0.4868066
vt 0.02434096 0.3773043
vt 0.2364703 0.8079855
vt 0.4629467 0.6645164
vt 0.4485998 0.6566216
vt 0.2364703 0.7910021
vt 0.4629467 0.6645164
vt 0.4629467 0.5210473
vt 0.4485998 0.5471193
vt 0.4485998 0.6566216
vt 0.4629467 0.5210473
vt 0.2364703 0.6645164
vt 0.2364703 0.6814997
vt 0.4485998 0.5471193
vt 0.2364703 0.6645164
vt 0.00999397 0.5210472
vt 0.02434084 0.5471191
vt 0.2364703 0.6814997
vt 0.00999397 0.5210472
vt 0.00999397 0.6645163
vt 0.02434084 0.6566215
vt 0.02434084 0.5471191
vt 0.00999397 0.6645163
vt 0.2364703 0.8079855
vt 0.2364703 0.7910021
vt 0.02434084 0.6566215
vt 0.4485998 0.6566216
vt 0.4485998 0.5471193
vt 0.2364703 0.6814997
vt 0.2364703 0.7910021
vt 0.02434084 0.6566215
vt 0.02434084 0.5471191
vt 0.4829261 0.2783572
vt 0.7364679 0.2783572
vt 0.7364679 0.1698122
vt 0.4829262 0.1698123
vn -0.5351428 -0.8447616 0
vn -0.5351428 -0.8447616 0
vn -0.5351428 -0.8447616 0
vn -0.5351428 -0.8447616 0
vn -1 0 0
vn -1 0 0
vn -1 0 0
vn -1 0 0
vn -1 0 0
vn -1 0 0
vn -1 0 0
vn -1 0 0
vn -0.5351427 -0.8447616 0
vn -0.5351427 -0.8447616 0
vn -0.5351427 -0.8447616 0
vn -0.5351427 -0.8447616 0
vn -0.5351427 0.8447617 0
vn -0.5351427 0.8447617 0
vn -0.5351427 0.8447617 0
vn -0.5351427 0.8447617 0
vn 0.5351425 -0.8447618 0
vn 0.5351425 -0.8447618 0
vn 0.5351425 -0.8447618 0
vn 0.5351425 -0.8447618 0
vn 1 0 0
vn 1 0 0
vn 1 0 0
vn 1 0 0
vn 0.5351424 -0.8447619 0
vn 0.5351424 -0.8447619 0
vn 0.5351424 -0.8447619 0
vn 0.5351424 -0.8447619 0
vn 0.535143 0.8447616 0
vn 0.535143 0.8447616 0
vn 0.535143 0.8447616 0
vn 0.535143 0.8447616 0
vn 1 0 0
vn 1 0 0
vn 1 0 0
vn 1 0 0
vn -0.5351425 0.8447617 0
vn -0.5351425 0.8447617 0
vn -0.5351425 0.8447617 0
vn -0.5351425 0.8447617 0
vn -0.378403 0.5973367 0.7071066
vn -0.378403 0.5973367 0.7071066
vn -0.378403 0.5973367 0.7071066
vn -0.378403 0.5973367 0.7071066
vn -0.7071076 0 0.7071059
vn -0.7071076 0 0.7071059
vn -0.7071076 0 0.7071059
vn -0.7071076 0 0.7071059
vn 0.3784027 -0.5973369 0.7071068
vn 0.3784027 -0.5973369 0.7071068
vn 0.3784027 -0.5973369 0.7071068
vn 0.3784027 -0.5973369 0.7071068
vn -0.3784031 -0.5973366 0.7071066
vn -0.3784031 -0.5973366 0.7071066
vn -0.3784031 -0.5973366 0.7071066
vn -0.3784031 -0.5973366 0.7071066
vn 0.7071066 0 0.7071069
vn 0.7071066 0 0.7071069
vn 0.7071066 0 0.7071069
vn 0.7071066 0 0.7071069
vn 0.3784033 0.5973368 0.7071065
vn 0.3784033 0.5973368 0.7071065
vn 0.3784033 0.5973368 0.7071065
vn 0.3784033 0.5973368 0.7071065
vn 0 0 1
vn 0 0 1
vn 0 0 1
vn 0 0 1
vn 0 0 1
vn 0 0 1
vn -0.378403 0.5973369 0.7071066
vn -0.378403 0.5973369 0.7071066
vn -0.378403 0.5973369 0.7071066
vn -0.378403 0.5973369 0.7071066
vn -0.7071067 0 0.7071068
vn -0.7071067 0 0.7071068
vn -0.7071067 0 0.7071068
vn -0.7071067 0 0.7071068
vn 0.3784027 -0.5973372 0.7071065
vn 0.3784027 -0.5973372 0.7071065
vn 0.3784027 -0.5973372 0.7071065
vn 0.3784027 -0.5973372 0.7071065
vn -0.3784032 -0.5973364 0.7071069
vn -0.3784032 -0.5973364 0.7071069
vn -0.3784032 -0.5973364 0.7071069
vn -0.3784032 -0.5973364 0.7071069
vn 0.7071066 0 0.7071068
vn 0.7071066 0 0.7071068
vn 0.7071066 0 0.7071068
vn 0.7071066 0 0.7071068
vn 0.3784031 0.5973366 0.7071066
vn 0.3784031 0.5973366 0.7071066
vn 0.3784031 0.5973366 0.7071066
vn 0.3784031 0.5973366 0.7071066
vn 0 0 1
vn 0 0 1
vn 0 0 1
vn 0 0 1
vn 0 0 1
vn 0 0 1
vn -0.378403 0.5973367 -0.7071066
vn -0.378403 0.5973367 -0.7071066
vn -0.378403 0.5973367 -0.7071066
vn -0.378403 0.5973367 -0.7071066
vn -0.7071075 0 -0.707106
vn -0.7071075 0 -0.707106
vn -0.7071075 0 -0.707106
vn -0.7071075 0 -0.707106
vn 0.3784026 -0.5973368 -0.7071068
vn 0.3784026 -0.5973368 -0.7071068
vn 0.3784026 -0.5973368 -0.7071068
vn 0.3784026 -0.5973368 -0.7071068
vn -0.3784031 -0.5973366 -0.7071067
vn -0.3784031 -0.5973366 -0.7071067
vn -0.3784031 -0.5973366 -0.7071067
vn -0.3784031 -0.5973366 -0.7071067
vn 0.7071066 0 -0.7071068
vn 0.7071066 0 -0.7071068
vn 0.7071066 0 -0.7071068
vn 0.7071066 0 -0.7071068
vn 0.3784033 0.5973367 -0.7071066
vn 0.3784033 0.5973367 -0.7071066
vn 0.3784033 0.5973367 -0.7071066
vn 0.3784033 0.5973367 -0.7071066
vn 0 0 -1
vn 0 0 -1
vn 0 0 -1
vn 0 0 -1
vn 0 0 -1
vn 0 0 -1
vn -0.378403 0.5973369 -0.7071066
vn -0.378403 0.5973369 -0.7071066
vn -0.378403 0.5973369 -0.7071066
vn -0.378403 0.5973369 -0.7071066
vn -0.7071066 0 -0.7071069
vn -0.7071066 0 -0.7071069
vn -0.7071066 0 -0.7071069
vn -0.7071066 0 -0.7071069
vn 0.3784028 -0.5973372 -0.7071065
vn 0.3784028 -0.5973372 -0.7071065
vn 0.3784028 -0.5973372 -0.7071065
vn 0.3784028 -0.5973372 -0.7071065
vn -0.3784032 -0.5973364 -0.7071069
vn -0.3784032 -0.5973364 -0.7071069
vn -0.3784032 -0.5973364 -0.7071069
vn -0.3784032 -0.5973364 -0.7071069
vn 0.7071066 0 -0.7071069
vn 0.7071066 0 -0.7071069
vn 0.7071066 0 -0.7071069
vn 0.7071066 0 -0.7071069
vn 0.3784031 0.5973366 -0.7071067
vn 0.3784031 0.5973366 -0.7071067
vn 0.3784031 0.5973366 -0.7071067
vn 0.3784031 0.5973366 -0.7071067
vn 0 0 -1
vn 0 0 -1
vn 0 0 -1
vn 0 0 -1
vn 0 0 -1
vn 0 0 -1
vn 0.535143 0.8447616 0
vn 0.535143 0.8447616 0
vn 0.535143 0.8447616 0
vn 0.535143 0.8447616 0
g arrow_chevron_V2_L0_0
f 3/3/3 2/2/2 1/1/1
f 4/4/4 3/3/3 1/1/1
f 7/7/7 6/6/6 5/5/5
f 8/8/8 7/7/7 5/5/5
f 11/11/11 10/10/10 9/9/9
f 12/12/12 11/11/11 9/9/9
f 15/15/15 14/14/14 13/13/13
f 16/16/16 15/15/15 13/13/13
f 19/19/19 18/18/18 17/17/17
f 20/20/20 19/19/19 17/17/17
f 23/23/23 22/22/22 21/21/21
f 24/24/24 23/23/23 21/21/21
f 27/27/27 26/26/26 25/25/25
f 28/28/28 27/27/27 25/25/25
f 31/31/31 30/30/30 29/29/29
f 32/32/32 31/31/31 29/29/29
f 35/35/35 34/34/34 33/33/33
f 36/36/36 35/35/35 33/33/33
f 39/39/39 38/38/38 37/37/37
f 40/40/40 39/39/39 37/37/37
f 43/43/43 42/42/42 41/41/41
f 44/44/44 43/43/43 41/41/41
f 47/47/47 46/46/46 45/45/45
f 48/48/48 47/47/47 45/45/45
f 51/51/51 50/50/50 49/49/49
f 52/52/52 51/51/51 49/49/49
f 55/55/55 54/54/54 53/53/53
f 56/56/56 55/55/55 53/53/53
f 59/59/59 58/58/58 57/57/57
f 60/60/60 59/59/59 57/57/57
f 63/63/63 62/62/62 61/61/61
f 64/64/64 63/63/63 61/61/61
f 67/67/67 66/66/66 65/65/65
f 68/68/68 67/67/67 65/65/65
f 71/71/71 70/70/70 69/69/69
f 70/70/70 72/72/72 69/69/69
f 73/73/73 72/72/72 70/70/70
f 74/74/74 73/73/73 70/70/70
f 77/77/77 76/76/76 75/75/75
f 78/78/78 77/77/77 75/75/75
f 81/81/81 80/80/80 79/79/79
f 82/82/82 81/81/81 79/79/79
f 85/85/85 84/84/84 83/83/83
f 86/86/86 85/85/85 83/83/83
f 89/89/89 88/88/88 87/87/87
f 90/90/90 89/89/89 87/87/87
f 93/93/93 92/92/92 91/91/91
f 94/94/94 93/93/93 91/91/91
f 97/97/97 96/96/96 95/95/95
f 98/98/98 97/97/97 95/95/95
f 101/101/101 100/100/100 99/99/99
f 100/100/100 102/102/102 99/99/99
f 103/103/103 102/102/102 100/100/100
f 104/104/104 103/103/103 100/100/100
f 107/107/107 106/106/106 105/105/105
f 108/108/108 107/107/107 105/105/105
f 111/111/111 110/110/110 109/109/109
f 112/112/112 111/111/111 109/109/109
f 115/115/115 114/114/114 113/113/113
f 116/116/116 115/115/115 113/113/113
f 119/119/119 118/118/118 117/117/117
f 120/120/120 119/119/119 117/117/117
f 123/123/123 122/122/122 121/121/121
f 124/124/124 123/123/123 121/121/121
f 127/127/127 126/126/126 125/125/125
f 128/128/128 127/127/127 125/125/125
f 131/131/131 130/130/130 129/129/129
f 132/132/132 131/131/131 129/129/129
f 132/132/132 133/133/133 131/131/131
f 133/133/133 134/134/134 131/131/131
f 137/137/137 136/136/136 135/135/135
f 138/138/138 137/137/137 135/135/135
f 141/141/141 140/140/140 139/139/139
f 142/142/142 141/141/141 139/139/139
f 145/145/145 144/144/144 143/143/143
f 146/146/146 145/145/145 143/143/143
f 149/149/149 148/148/148 147/147/147
f 150/150/150 149/149/149 147/147/147
f 153/153/153 152/152/152 151/151/151
f 154/154/154 153/153/153 151/151/151
f 157/157/157 156/156/156 155/155/155
f 158/158/158 157/157/157 155/155/155
f 161/161/161 160/160/160 159/159/159
f 162/162/162 161/161/161 159/159/159
f 162/162/162 163/163/163 161/161/161
f 163/163/163 164/164/164 161/161/161
f 167/167/167 166/166/166 165/165/165
f 168/168/168 167/167/167 165/165/165
