g arrow_V3_L0
v 0.09 0.04499999 -0.02399999
v 0.045 0.04499999 -0.024
v 0.045 0.04499999 0.024
v 0.09 0.04499999 0.02399999
v -0.045 0.04499999 -0.024
v -0.09 0.04499999 -0.02399999
v -0.09 0.04499999 0.02399999
v -0.045 0.04499999 0.024
v -0.045 -0.135 -0.024
v -0.045 0.04499999 -0.024
v -0.045 0.04499999 0.024
v -0.045 -0.135 0.024
v 0.045 0.04499999 -0.024
v 0.045 -0.135 -0.024
v 0.045 -0.135 0.024
v 0.045 0.04499999 0.024
v 0.045 -0.135 -0.024
v -0.045 -0.135 -0.024
v -0.045 -0.135 0.024
v 0.045 -0.135 0.024
v 0 0.135 -0.024
v 0.09 0.04499999 -0.02399999
v 0.09 0.04499999 0.02399999
v 0 0.135 0.024
v 0.045 0.04499999 0.024
v 0.039 0.05099998 0.03
v 0.07551472 0.05099998 0.02999999
v 0.09 0.04499999 0.02399999
v 0.09 0.04499999 0.02399999
v 0.07551472 0.05099998 0.02999999
v 0 0.1265147 0.03
v 0 0.135 0.024
v 0 0.135 0.024
v 0 0.1265147 0.03
v -0.07551472 0.05099998 0.02999999
v -0.09 0.04499999 0.02399999
v -0.09 0.04499999 0.02399999
v -0.07551472 0.05099998 0.02999999
v -0.039 0.05099998 0.03
v -0.045 0.04499999 0.024
v -0.045 0.04499999 0.024
v -0.039 0.05099998 0.03
v -0.039 -0.129 0.03
v -0.045 -0.135 0.024
v -0.045 -0.135 0.024
v -0.039 -0.129 0.03
v 0.039 -0.129 0.03
v 0.045 -0.135 0.024
v 0.045 -0.135 0.024
v 0.039 -0.129 0.03
v 0.039 0.05099998 0.03
v 0.045 0.04499999 0.024
v 0 0.1265147 0.03
v -0.039 0.05099998 0.03
v -0.07551472 0.05099998 0.02999999
v 0.039 0.05099998 0.03
v 0.07551472 0.05099998 0.02999999
v 0.039 -0.129 0.03
v -0.039 -0.129 0.03
v 0.045 0.04499999 -0.024
v 0.09 0.04499999 -0.02399999
v 0.07551472 0.05099998 -0.02999999
v 0.039 0.05099998 -0.03
v 0.09 0.04499999 -0.02399999
v 0 0.135 -0.024
v 0 0.1265147 -0.03
v 0.07551472 0.05099998 -0.02999999
v 0 0.135 -0.024
v -0.09 0.04499999 -0.02399999
v -0.07551472 0.05099998 -0.02999999
v 0 0.1265147 -0.03
v -0.09 0.04499999 -0.02399999
v -0.045 0.04499999 -0.024
v -0.039 0.05099998 -0.03
v -0.07551472 0.05099998 -0.02999999
v -0.045 0.04499999 -0.024
v -0.045 -0.135 -0.024
v -0.039 -0.129 -0.03
v -0.039 0.05099998 -0.03
v -0.045 -0.135 -0.024
v 0.045 -0.135 -0.024
v 0.039 -0.129 -0.03
v -0.039 -0.129 -0.03
v 0.045 -0.135 -0.024
v 0.045 0.04499999 -0.024
v 0.039 0.05099998 -0.03
v 0.039 -0.129 -0.03
v 0 0.1265147 -0.03
v -0.07551472 0.05099998 -0.02999999
v -0.039 0.05099998 -0.03
v 0.039 0.05099998 -0.03
v 0.07551472 0.05099998 -0.02999999
v 0.039 -0.129 -0.03
v -0.039 -0.129 -0.03
v -0.09 0.04499999 -0.02399999
v 0 0.135 -0.024
v 0 0.135 0.024
v -0.09 0.04499999 0.02399999
vt 0.6654483 0.865002
vt 0.76391 0.865002
vt 0.7639101 0.7599762
vt 0.6654484 0.7599761
vt 0.01000172 0.865002
vt 0.1084637 0.865002
vt 0.1084636 0.759976
vt 0.01000169 0.759976
vt 0.666792 0.009996243
vt 0.6667923 0.4038436
vt 0.7718182 0.4038436
vt 0.7718182 0.009996214
vt 0.4038455 0.8849719
vt 0.009997861 0.884972
vt 0.009997818 0.9899979
vt 0.4038455 0.9899979
vt 0.9887391 0.01000411
vt 0.7918155 0.01000423
vt 0.7918155 0.1150302
vt 0.9887391 0.1150302
vt 0.3869562 0.8650019
vt 0.6654483 0.865002
vt 0.6654484 0.7599761
vt 0.3869562 0.7599761
vt 0.3184413 0.4188645
vt 0.3048126 0.432493
vt 0.3877537 0.4324931
vt 0.4206562 0.4188645
vt 0.4206562 0.4188645
vt 0.3877537 0.4324931
vt 0.2162264 0.6040206
vt 0.2162263 0.6232944
vt 0.2162263 0.6232944
vt 0.2162264 0.6040206
vt 0.04469895 0.4324931
vt 0.01179644 0.4188645
vt 0.01179644 0.4188645
vt 0.04469895 0.4324931
vt 0.1276401 0.4324931
vt 0.1140114 0.4188645
vt 0.1140114 0.4188645
vt 0.1276401 0.4324931
vt 0.1276401 0.02363326
vt 0.1140114 0.01000461
vt 0.1140114 0.01000461
vt 0.1276401 0.02363326
vt 0.3048126 0.02363326
vt 0.3184413 0.01000464
vt 0.3184413 0.01000464
vt 0.3048126 0.02363326
vt 0.3048126 0.432493
vt 0.3184413 0.4188645
vt 0.2162264 0.6040206
vt 0.1276401 0.4324931
vt 0.04469895 0.4324931
vt 0.3048126 0.432493
vt 0.3877537 0.4324931
vt 0.3048126 0.02363326
vt 0.1276401 0.02363326
vt 0.4423597 0.5338537
vt 0.3401448 0.5338537
vt 0.3730473 0.5474823
vt 0.4559884 0.5474823
vt 0.3401448 0.5338537
vt 0.5445747 0.7382835
vt 0.5445746 0.7190097
vt 0.3730473 0.5474823
vt 0.5445747 0.7382835
vt 0.7490045 0.5338537
vt 0.716102 0.5474823
vt 0.5445746 0.7190097
vt 0.7490045 0.5338537
vt 0.6467897 0.5338537
vt 0.6331609 0.5474823
vt 0.716102 0.5474823
vt 0.6467897 0.5338537
vt 0.6467897 0.1249938
vt 0.6331609 0.1386225
vt 0.6331609 0.5474823
vt 0.6467897 0.1249938
vt 0.4423597 0.1249939
vt 0.4559884 0.1386225
vt 0.6331609 0.1386225
vt 0.4423597 0.1249939
vt 0.4423597 0.5338537
vt 0.4559884 0.5474823
vt 0.4559884 0.1386225
vt 0.5445746 0.7190097
vt 0.716102 0.5474823
vt 0.6331609 0.5474823
vt 0.4559884 0.5474823
vt 0.3730473 0.5474823
vt 0.4559884 0.1386225
vt 0.6331609 0.1386225
vt 0.1084637 0.865002
vt 0.3869562 0.8650019
vt 0.3869562 0.7599761
vt 0.1084636 0.759976
vn 0 -1 0
vn 0 -1 0
vn 0 -1 0
vn 0 -1 0
vn 0 -1 0
vn 0 -1 0
vn 0 -1 0
vn 0 -1 0
vn -1 0 0
vn -1 0 0
vn -1 0 0
vn -1 0 0
vn 1 0 0
vn 1 0 0
vn 1 0 0
vn 1 0 0
vn 0 -1 0
vn 0 -1 0
vn 0 -1 0
vn 0 -1 0
vn 0.7071068 0.7071068 0
vn 0.7071068 0.7071068 0
vn 0.7071068 0.7071068 0
vn 0.7071068 0.7071068 0
vn 0 -0.7071065 0.7071069
vn 0 -0.7071065 0.7071069
vn 0 -0.7071065 0.7071069
vn 0 -0.7071065 0.7071069
vn 0.4999999 0.4999996 0.707107
vn 0.4999999 0.4999996 0.707107
vn 0.4999999 0.4999996 0.707107
vn 0.4999999 0.4999996 0.707107
vn -0.4999999 0.4999996 0.707107
vn -0.4999999 0.4999996 0.707107
vn -0.4999999 0.4999996 0.707107
vn -0.4999999 0.4999996 0.707107
vn 0 -0.7071066 0.7071069
vn 0 -0.7071066 0.7071069
vn 0 -0.7071066 0.7071069
vn 0 -0.7071066 0.7071069
vn -0.7071068 0 0.7071068
vn -0.7071068 0 0.7071068
vn -0.7071068 0 0.7071068
vn -0.7071068 0 0.7071068
vn 0 -0.7071068 0.7071067
vn 0 -0.7071068 0.7071067
vn 0 -0.7071068 0.7071067
vn 0 -0.7071068 0.7071067
vn 0.7071068 0 0.7071068
vn 0.7071068 0 0.7071068
vn 0.7071068 0 0.7071068
vn 0.7071068 0 0.7071068
vn 0 0 1
vn 0 0 1
vn 0 0 1
vn 0 0 1
vn 0 0 1
vn 0 0 1
vn 0 0 1
vn 0 -0.7071065 -0.7071069
vn 0 -0.7071065 -0.7071069
vn 0 -0.7071065 -0.7071069
vn 0 -0.7071065 -0.7071069
vn 0.4999999 0.4999996 -0.707107
vn 0.4999999 0.4999996 -0.707107
vn 0.4999999 0.4999996 -0.707107
vn 0.4999999 0.4999996 -0.707107
vn -0.4999999 0.4999996 -0.707107
vn -0.4999999 0.4999996 -0.707107
vn -0.4999999 0.4999996 -0.707107
vn -0.4999999 0.4999996 -0.707107
vn 0 -0.7071066 -0.7071069
vn 0 -0.7071066 -0.7071069
vn 0 -0.7071066 -0.7071069
vn 0 -0.7071066 -0.7071069
vn -0.7071067 0 -0.7071068
vn -0.7071067 0 -0.7071068
vn -0.7071067 0 -0.7071068
vn -0.7071067 0 -0.7071068
vn 0 -0.7071068 -0.7071068
vn 0 -0.7071068 -0.7071068
vn 0 -0.7071068 -0.7071068
vn 0 -0.7071068 -0.7071068
vn 0.7071068 0 -0.7071067
vn 0.7071068 0 -0.7071067
vn 0.7071068 0 -0.7071067
vn 0.7071068 0 -0.7071067
vn 0 0 -1
vn 0 0 -1
vn 0 0 -1
vn 0 0 -1
vn 0 0 -1
vn 0 0 -1
vn 0 0 -1
vn -0.7071068 0.7071068 0
vn -0.7071068 0.7071068 0
vn -0.7071068 0.7071068 0
vn -0.7071068 0.7071068 0
g arrow_V3_L0_0
f 3/3/3 2/2/2 1/1/1
f 4/4/4 3/3/3 1/1/1
f 7/7/7 6/6/6 5/5/5
f 8/8/8 7/7/7 5/5/5
f 11/11/11 10/10/10 9/9/9
f 12/12/12 11/11/11 9/9/9
f 15/15/15 14/14/14 13/13/13
f 16/16/16 15/15/15 13/13/13
f 19/19/19 18/18/18 17/17/17
f 20/20/20 19/19/19 17/17/17
f 23/23/23 22/22/22 21/21/21
f 24/24/24 23/23/23 21/21/21
f 27/27/27 26/26/26 25/25/25
f 28/28/28 27/27/27 25/25/25
f 31/31/31 30/30/30 29/29/29
f 32/32/32 31/31/31 29/29/29
f 35/35/35 34/34/34 33/33/33
f 36/36/36 35/35/35 33/33/33
f 39/39/39 38/38/38 37/37/37
f 40/40/40 39/39/39 37/37/37
f 43/43/43 42/42/42 41/41/41
f 44/44/44 43/43/43 41/41/41
f 47/47/47 46/46/46 45/45/45
f 48/48/48 47/47/47 45/45/45
f 51/51/51 50/50/50 49/49/49
f 52/52/52 51/51/51 49/49/49
f 55/55/55 54/54/54 53/53/53
f 53/53/53 54/54/54 56/56/56
f 57/57/57 53/53/53 56/56/56
f 58/58/58 56/56/56 54/54/54
f 59/59/59 58/58/58 54/54/54
f 62/62/62 61/61/61 60/60/60
f 63/63/63 62/62/62 60/60/60
f 66/66/66 65/65/65 64/64/64
f 67/67/67 66/66/66 64/64/64
f 70/70/70 69/69/69 68/68/68
f 71/71/71 70/70/70 68/68/68
f 74/74/74 73/73/73 72/72/72
f 75/75/75 74/74/74 72/72/72
f 78/78/78 77/77/77 76/76/76
f 79/79/79 78/78/78 76/76/76
f 82/82/82 81/81/81 80/80/80
f 83/83/83 82/82/82 80/80/80
f 86/86/86 85/85/85 84/84/84
f 87/87/87 86/86/86 84/84/84
f 90/90/90 89/89/89 88/88/88
f 90/90/90 88/88/88 91/91/91
f 88/88/88 92/92/92 91/91/91
f 91/91/91 93/93/93 90/90/90
f 93/93/93 94/94/94 90/90/90
f 97/97/97 96/96/96 95/95/95
f 98/98/98 97/97/97 95/95/95
