g arrow_chevron_V1_L0
v 1.168243E-08 0.06000001 -0.024
v 0.09471437 -1.844157E-08 -0.02400001
v 0.09471437 -1.844157E-08 0.02400001
v 1.168243E-08 0.06000001 0.024
v -0.09471437 -0.05999997 -0.02399999
v -0.09471436 1.844157E-08 -0.02399999
v -0.09471436 1.844157E-08 0.02399999
v -0.09471437 -0.05999997 0.02399999
v 0.09471437 -1.844157E-08 -0.02400001
v 0.09471436 -0.06000001 -0.02400001
v 0.09471436 -0.06000001 0.02400001
v 0.09471437 -1.844157E-08 0.02400001
v 0 0 -0.024
v -0.09471437 -0.05999997 -0.02399999
v -0.09471437 -0.05999997 0.02399999
v 0 0 0.024
v -0.09471436 1.844157E-08 -0.02399999
v 1.168243E-08 0.06000001 -0.024
v 1.168243E-08 0.06000001 0.024
v -0.09471436 1.844157E-08 0.02399999
v 1.168243E-08 0.06000001 0.024
v 1.041544E-08 0.05289742 0.03
v -0.08871437 -0.003301676 0.02999999
v -0.09471436 1.844157E-08 0.02399999
v -0.09471436 1.844157E-08 0.02399999
v -0.08871437 -0.003301676 0.02999999
v -0.08871438 -0.04909647 0.02999999
v -0.09471437 -0.05999997 0.02399999
v -0.09471437 -0.05999997 0.02399999
v -0.08871438 -0.04909647 0.02999999
v 1.266993E-09 0.007102595 0.03
v 0 0 0.024
v 0 0 0.024
v 1.266993E-09 0.007102595 0.03
v 0.08871436 -0.04909651 0.03000001
v 0.09471436 -0.06000001 0.02400001
v 0.09471436 -0.06000001 0.02400001
v 0.08871436 -0.04909651 0.03000001
v 0.08871437 -0.00330171 0.03000001
v 0.09471437 -1.844157E-08 0.02400001
v 0.09471437 -1.844157E-08 0.02400001
v 0.08871437 -0.00330171 0.03000001
v 1.041544E-08 0.05289742 0.03
v 1.168243E-08 0.06000001 0.024
v 1.266993E-09 0.007102595 0.03
v 0.08871437 -0.00330171 0.03000001
v 0.08871436 -0.04909651 0.03000001
v 1.041544E-08 0.05289742 0.03
v -0.08871437 -0.003301676 0.02999999
v -0.08871438 -0.04909647 0.02999999
v 1.168243E-08 0.06000001 -0.024
v -0.09471436 1.844157E-08 -0.02399999
v -0.08871437 -0.003301676 -0.02999999
v 1.041544E-08 0.05289742 -0.03
v -0.09471436 1.844157E-08 -0.02399999
v -0.09471437 -0.05999997 -0.02399999
v -0.08871438 -0.04909647 -0.02999999
v -0.08871437 -0.003301676 -0.02999999
v -0.09471437 -0.05999997 -0.02399999
v 0 0 -0.024
v 1.266993E-09 0.007102595 -0.03
v -0.08871438 -0.04909647 -0.02999999
v 0 0 -0.024
v 0.09471436 -0.06000001 -0.02400001
v 0.08871436 -0.04909651 -0.03000001
v 1.266993E-09 0.007102595 -0.03
v 0.09471436 -0.06000001 -0.02400001
v 0.09471437 -1.844157E-08 -0.02400001
v 0.08871437 -0.00330171 -0.03000001
v 0.08871436 -0.04909651 -0.03000001
v 0.09471437 -1.844157E-08 -0.02400001
v 1.168243E-08 0.06000001 -0.024
v 1.041544E-08 0.05289742 -0.03
v 0.08871437 -0.00330171 -0.03000001
v 1.266993E-09 0.007102595 -0.03
v 0.08871436 -0.04909651 -0.03000001
v 0.08871437 -0.00330171 -0.03000001
v 1.041544E-08 0.05289742 -0.03
v -0.08871437 -0.003301676 -0.02999999
v -0.08871438 -0.04909647 -0.02999999
v 0.09471436 -0.06000001 -0.02400001
v 0 0 -0.024
v 0 0 0.024
v 0.09471436 -0.06000001 0.02400001
vt 0.9892274 0.5541075
vt 0.9892276 0.2001804
vt 0.8377063 0.2001804
vt 0.8377063 0.5541075
vt 0.6646308 0.01077892
vt 0.6646308 0.2001804
vt 0.816152 0.2001804
vt 0.816152 0.01077892
vt 0.9892276 0.2001804
vt 0.9892274 0.01077895
vt 0.8377063 0.01077898
vt 0.8377063 0.2001804
vt 0.3647014 0.6628399
vt 0.01077433 0.6628399
vt 0.01077439 0.8143612
vt 0.3647014 0.8143611
vt 0.6646308 0.2001804
vt 0.6646308 0.5541075
vt 0.816152 0.5541075
vt 0.816152 0.2001804
vt 0.3269231 0.4130613
vt 0.326923 0.3893537
vt 0.03080477 0.2017676
vt 0.01077751 0.2127883
vt 0.01077751 0.2127883
vt 0.03080477 0.2017676
vt 0.03080477 0.04890988
vt 0.01077744 0.01251529
vt 0.01077744 0.01251529
vt 0.03080477 0.04890988
vt 0.326923 0.2364958
vt 0.326923 0.2127882
vt 0.326923 0.2127882
vt 0.326923 0.2364958
vt 0.6230413 0.04890975
vt 0.6430686 0.01251513
vt 0.6430686 0.01251513
vt 0.6230413 0.04890975
vt 0.6230413 0.2017674
vt 0.6430686 0.2127882
vt 0.6430686 0.2127882
vt 0.6230413 0.2017674
vt 0.326923 0.3893537
vt 0.3269231 0.4130613
vt 0.326923 0.2364958
vt 0.6230413 0.2017674
vt 0.6230413 0.04890975
vt 0.326923 0.3893537
vt 0.03080477 0.2017676
vt 0.03080477 0.04890988
vt 0.326923 0.6393958
vt 0.6430686 0.4391228
vt 0.6230413 0.4281021
vt 0.326923 0.6156882
vt 0.6430686 0.4391228
vt 0.6430686 0.2388498
vt 0.6230413 0.2752444
vt 0.6230413 0.4281021
vt 0.6430686 0.2388498
vt 0.326923 0.4391227
vt 0.326923 0.4628303
vt 0.6230413 0.2752444
vt 0.326923 0.4391227
vt 0.01077753 0.2388497
vt 0.03080481 0.2752443
vt 0.326923 0.4628303
vt 0.01077753 0.2388497
vt 0.01077753 0.4391227
vt 0.03080481 0.428102
vt 0.03080481 0.2752443
vt 0.01077753 0.4391227
vt 0.326923 0.6393958
vt 0.326923 0.6156882
vt 0.03080481 0.428102
vt 0.326923 0.4628303
vt 0.03080481 0.2752443
vt 0.03080481 0.428102
vt 0.326923 0.6156882
vt 0.6230413 0.4281021
vt 0.6230413 0.2752444
vt 0.7186284 0.6628398
vt 0.3647014 0.6628399
vt 0.3647014 0.8143611
vt 0.7186284 0.8143612
vn 0.5351429 0.8447616 0
vn 0.5351429 0.8447616 0
vn 0.5351429 0.8447616 0
vn 0.5351429 0.8447616 0
vn -1 0 0
vn -1 0 0
vn -1 0 0
vn -1 0 0
vn 1 0 0
vn 1 0 0
vn 1 0 0
vn 1 0 0
vn 0.5351425 -0.8447618 0
vn 0.5351425 -0.8447618 0
vn 0.5351425 -0.8447618 0
vn 0.5351425 -0.8447618 0
vn -0.5351427 0.8447617 0
vn -0.5351427 0.8447617 0
vn -0.5351427 0.8447617 0
vn -0.5351427 0.8447617 0
vn -0.3784032 0.5973369 0.7071065
vn -0.3784032 0.5973369 0.7071065
vn -0.3784032 0.5973369 0.7071065
vn -0.3784032 0.5973369 0.7071065
vn -0.7071072 0 0.7071064
vn -0.7071072 0 0.7071064
vn -0.7071072 0 0.7071064
vn -0.7071072 0 0.7071064
vn 0.3784027 -0.5973369 0.7071068
vn 0.3784027 -0.5973369 0.7071068
vn 0.3784027 -0.5973369 0.7071068
vn 0.3784027 -0.5973369 0.7071068
vn -0.3784031 -0.5973364 0.7071069
vn -0.3784031 -0.5973364 0.7071069
vn -0.3784031 -0.5973364 0.7071069
vn -0.3784031 -0.5973364 0.7071069
vn 0.7071059 0 0.7071076
vn 0.7071059 0 0.7071076
vn 0.7071059 0 0.7071076
vn 0.7071059 0 0.7071076
vn 0.378403 0.5973365 0.7071069
vn 0.378403 0.5973365 0.7071069
vn 0.378403 0.5973365 0.7071069
vn 0.378403 0.5973365 0.7071069
vn 0 0 1
vn 0 0 1
vn 0 0 1
vn 0 0 1
vn 0 0 1
vn 0 0 1
vn -0.3784032 0.5973369 -0.7071064
vn -0.3784032 0.5973369 -0.7071064
vn -0.3784032 0.5973369 -0.7071064
vn -0.3784032 0.5973369 -0.7071064
vn -0.7071069 0 -0.7071066
vn -0.7071069 0 -0.7071066
vn -0.7071069 0 -0.7071066
vn -0.7071069 0 -0.7071066
vn 0.3784027 -0.5973368 -0.7071068
vn 0.3784027 -0.5973368 -0.7071068
vn 0.3784027 -0.5973368 -0.7071068
vn 0.3784027 -0.5973368 -0.7071068
vn -0.3784031 -0.5973364 -0.7071069
vn -0.3784031 -0.5973364 -0.7071069
vn -0.3784031 -0.5973364 -0.7071069
vn -0.3784031 -0.5973364 -0.7071069
vn 0.7071059 0 -0.7071075
vn 0.7071059 0 -0.7071075
vn 0.7071059 0 -0.7071075
vn 0.7071059 0 -0.7071075
vn 0.378403 0.5973365 -0.7071069
vn 0.378403 0.5973365 -0.7071069
vn 0.378403 0.5973365 -0.7071069
vn 0.378403 0.5973365 -0.7071069
vn 0 0 -1
vn 0 0 -1
vn 0 0 -1
vn 0 0 -1
vn 0 0 -1
vn 0 0 -1
vn -0.5351427 -0.8447617 0
vn -0.5351427 -0.8447617 0
vn -0.5351427 -0.8447617 0
vn -0.5351427 -0.8447617 0
g arrow_chevron_V1_L0_0
f 3/3/3 2/2/2 1/1/1
f 4/4/4 3/3/3 1/1/1
f 7/7/7 6/6/6 5/5/5
f 8/8/8 7/7/7 5/5/5
f 11/11/11 10/10/10 9/9/9
f 12/12/12 11/11/11 9/9/9
f 15/15/15 14/14/14 13/13/13
f 16/16/16 15/15/15 13/13/13
f 19/19/19 18/18/18 17/17/17
f 20/20/20 19/19/19 17/17/17
f 23/23/23 22/22/22 21/21/21
f 24/24/24 23/23/23 21/21/21
f 27/27/27 26/26/26 25/25/25
f 28/28/28 27/27/27 25/25/25
f 31/31/31 30/30/30 29/29/29
f 32/32/32 31/31/31 29/29/29
f 35/35/35 34/34/34 33/33/33
f 36/36/36 35/35/35 33/33/33
f 39/39/39 38/38/38 37/37/37
f 40/40/40 39/39/39 37/37/37
f 43/43/43 42/42/42 41/41/41
f 44/44/44 43/43/43 41/41/41
f 47/47/47 46/46/46 45/45/45
f 46/46/46 48/48/48 45/45/45
f 45/45/45 48/48/48 49/49/49
f 50/50/50 45/45/45 49/49/49
f 53/53/53 52/52/52 51/51/51
f 54/54/54 53/53/53 51/51/51
f 57/57/57 56/56/56 55/55/55
f 58/58/58 57/57/57 55/55/55
f 61/61/61 60/60/60 59/59/59
f 62/62/62 61/61/61 59/59/59
f 65/65/65 64/64/64 63/63/63
f 66/66/66 65/65/65 63/63/63
f 69/69/69 68/68/68 67/67/67
f 70/70/70 69/69/69 67/67/67
f 73/73/73 72/72/72 71/71/71
f 74/74/74 73/73/73 71/71/71
f 77/77/77 76/76/76 75/75/75
f 78/78/78 77/77/77 75/75/75
f 78/78/78 75/75/75 79/79/79
f 75/75/75 80/80/80 79/79/79
f 83/83/83 82/82/82 81/81/81
f 84/84/84 83/83/83 81/81/81
