g Audio_Mark
v 0.3 -1.072884E-07 0.2999997
v -0.5596004 -1.072884E-07 0.3440763
v -0.5482463 -1.072884E-07 0.2999997
v 0.311354 -1.072884E-07 0.3440763
v -0.5596004 -1.072884E-07 -0.4879433
v 0.3 -1.072884E-07 -0.4438668
v -0.5482463 -1.072884E-07 -0.4438668
v 0.311354 -1.072884E-07 -0.4879433
vt 0.1691895 0.5595703
vt 0.112854 0.5585938
vt 0.1136475 0.5595703
vt 0.1699219 0.5585938
vt 0.1131592 0.5795898
vt 0.1694336 0.5786133
vt 0.1138916 0.5786133
vt 0.1702881 0.5795898
vn 0 1 0
vn 0 1 0
vn 0 1 0
vn 0 1 0
vn 0 1 0
vn 0 1 0
vn 0 1 0
vn 0 1 0
g Audio_Mark_0
f 3/3/3 2/2/2 1/1/1
f 2/2/2 4/4/4 1/1/1
f 5/5/5 2/2/2 3/3/3
f 1/1/1 4/4/4 6/6/6
f 7/7/7 5/5/5 3/3/3
f 4/4/4 8/8/8 6/6/6
f 8/8/8 5/5/5 7/7/7
f 6/6/6 8/8/8 7/7/7
