g Backplate
v -0.001181207 0.006872149 -0.003967638
v -0.001181207 0.005611087 -0.005611087
v -0.002457719 0.005001285 -0.005001286
v -0.001181206 0.003967637 -0.006872149
v -0.002457719 0.006125297 -0.003536443
v -0.001181208 0.007664886 -0.0020538
v -0.002457719 0.003536442 -0.006125298
v -0.001181206 0.0020538 -0.007664886
v -0.002907334 0.003675499 -0.0036755
v -0.00245772 0.006831881 -0.001830597
v -0.002907334 0.004501548 -0.002598971
v -0.00306323 -5.238989E-10 -4.92036E-10
v -0.002907333 0.002598969 -0.004501549
v -0.002457718 0.001830597 -0.006831882
v -0.00245772 0.007072884 -4.580638E-10
v -0.001181208 0.007935274 -2.807565E-10
v -0.002907335 0.005020824 -0.001345326
v -0.002907335 0.00519794 -5.661797E-10
v -0.002457721 0.006831883 0.001830595
v -0.001181209 0.007664888 0.002053798
v -0.001181209 0.006872149 0.003967637
v -0.002907335 0.005020825 0.001345324
v -0.002907333 0.001345325 -0.005020825
v -0.002907333 -7.090129E-10 -0.005197941
v -0.002907335 0.004501548 0.00259897
v -0.002907335 0.003675499 0.003675499
v -0.002457721 0.006125297 0.003536442
v -0.002457721 0.005001285 0.005001286
v -0.001181209 0.005611087 0.005611088
v -0.001181209 0.003967636 0.006872149
v -0.002457721 0.003536441 0.006125297
v -0.002457718 -6.630629E-10 -0.007072885
v -0.001181205 -5.341785E-10 -0.007935274
v -0.002457717 -0.001830598 -0.006831883
v -0.001181205 -0.0020538 -0.007664886
v -0.002907333 -0.001345326 -0.005020825
v -0.002457717 -0.003536443 -0.006125298
v -0.001181205 -0.003967638 -0.006872149
v -0.002907335 0.002598969 0.004501548
v -0.002457721 0.001830597 0.006831881
v -0.001181209 0.0020538 0.007664886
v -0.002907335 0.001345325 0.005020824
v -0.00245772 -2.69554E-10 0.007072884
v -0.001181209 -9.268955E-11 0.007935274
v -0.002907335 -4.19819E-10 0.00519794
v -0.002907333 -0.002598971 -0.004501549
v -0.002907335 -0.001345326 0.005020825
v -0.002907333 -0.0036755 -0.0036755
v -0.002907335 -0.00259897 0.004501548
v -0.00245772 -0.001830598 0.006831883
v -0.001181208 -0.0020538 0.007664888
v -0.001181208 -0.003967636 0.006872149
v -0.00245772 -0.003536442 0.006125297
v -0.002907334 -0.0036755 0.003675499
v -0.002457719 -0.005001286 0.005001285
v -0.001181207 -0.005611087 0.005611087
v -0.001181207 -0.006872149 0.003967637
v -0.002457719 -0.006125298 0.003536441
v -0.001181206 -0.007664886 0.0020538
v -0.002907334 -0.004501549 0.002598969
v -0.002907333 -0.005020825 0.001345326
v -0.002457718 -0.006831883 0.001830597
v -0.002457718 -0.007072885 1.602678E-10
v -0.001181206 -0.007935274 4.129676E-10
v -0.001181205 -0.007664886 -0.002053801
v -0.002907333 -0.005197941 -1.11761E-10
v -0.002457718 -0.006831882 -0.001830598
v -0.002907333 -0.005020825 -0.001345327
v -0.002907333 -0.004501549 -0.002598971
v -0.002457717 -0.006125298 -0.003536443
v -0.001181205 -0.006872149 -0.003967638
v -0.002457717 -0.005001286 -0.005001286
v -0.001181205 -0.005611087 -0.005611087
vt 0.6121217 0.03757168
vt 0.5716756 0.04840918
vt 0.5825605 0.07443094
vt 0.5354126 0.06934563
vt 0.6159008 0.06552399
vt 0.6539946 0.03757169
vt 0.5526615 0.09166351
vt 0.5058041 0.09895425
vt 0.5956336 0.1059132
vt 0.6504103 0.06554964
vt 0.6203802 0.09931712
vt 0.6330581 0.1965997
vt 0.5734374 0.1186895
vt 0.5282415 0.1160473
vt 0.6837373 0.07450613
vt 0.6944407 0.04840918
vt 0.6459907 0.09935064
vt 0.67072 0.1060115
vt 0.7136106 0.09178306
vt 0.7307037 0.06934559
vt 0.7603123 0.09895423
vt 0.6928826 0.1188458
vt 0.5553043 0.1367752
vt 0.5424699 0.1589379
vt 0.7109684 0.136979
vt 0.7237446 0.1591751
vt 0.7379944 0.1162031
vt 0.755227 0.1461021
vt 0.7812487 0.1352172
vt 0.7920862 0.1756633
vt 0.7641339 0.1794424
vt 0.5109646 0.1459206
vt 0.4848676 0.1352172
vt 0.5020081 0.1792476
vt 0.4740301 0.1756633
vt 0.535809 0.1836672
vt 0.5019824 0.2137571
vt 0.4740301 0.2175362
vt 0.7303407 0.1839217
vt 0.7641082 0.2139519
vt 0.7920862 0.2175362
vt 0.7303072 0.2095323
vt 0.7551517 0.2472789
vt 0.7812487 0.2579823
vt 0.7236463 0.2342616
vt 0.5357755 0.2092777
vt 0.710812 0.2564242
vt 0.5423717 0.2340243
vt 0.6926789 0.2745099
vt 0.7378748 0.2771522
vt 0.7603123 0.2942452
vt 0.7307037 0.3238538
vt 0.7134547 0.3015359
vt 0.6704828 0.2872862
vt 0.6835558 0.3187685
vt 0.6944407 0.3447903
vt 0.6539946 0.3556277
vt 0.6502155 0.3276755
vt 0.6121217 0.3556277
vt 0.6457362 0.2938823
vt 0.6201256 0.2938488
vt 0.615706 0.3276498
vt 0.582379 0.3186933
vt 0.5716757 0.3447903
vt 0.5354127 0.3238538
vt 0.5953963 0.2871879
vt 0.5525057 0.3014164
vt 0.5732337 0.2743536
vt 0.5551479 0.2562205
vt 0.5281219 0.2769963
vt 0.5058041 0.2942452
vt 0.5108894 0.2470974
vt 0.4848676 0.2579823
vn 0.5598189 -0.7176047 0.414302
vn 0.5598029 -0.5859269 0.5859269
vn 0.8079345 -0.4166785 0.4166785
vn 0.5598189 -0.414302 0.7176047
vn 0.8079284 -0.510338 0.2946301
vn 0.5598085 -0.8003891 0.2144564
vn 0.8079284 -0.2946301 0.510338
vn 0.5598085 -0.2144564 0.8003891
vn 0.9900642 -0.09943064 0.09943064
vn 0.8079266 -0.5692078 0.1525029
vn 0.9900608 -0.1218006 0.07031535
vn 1 0 0
vn 0.9900608 -0.07031535 0.1218006
vn 0.8079266 -0.1525029 0.5692078
vn 0.8079382 -0.5892672 0
vn 0.5598098 -0.8286211 0
vn 0.9900628 -0.1358395 0.0363785
vn 0.9900621 -0.1406309 0
vn 0.8079266 -0.5692078 -0.1525029
vn 0.5598085 -0.8003891 -0.2144564
vn 0.5598189 -0.7176047 -0.414302
vn 0.9900628 -0.1358395 -0.0363785
vn 0.9900628 -0.0363785 0.1358395
vn 0.9900621 0 0.1406309
vn 0.9900608 -0.1218006 -0.07031535
vn 0.9900642 -0.09943064 -0.09943064
vn 0.8079284 -0.510338 -0.2946301
vn 0.8079345 -0.4166785 -0.4166785
vn 0.5598029 -0.5859269 -0.5859269
vn 0.5598189 -0.414302 -0.7176047
vn 0.8079284 -0.2946301 -0.510338
vn 0.8079382 0 0.5892672
vn 0.5598098 0 0.8286211
vn 0.8079266 0.1525029 0.5692078
vn 0.5598085 0.2144564 0.8003891
vn 0.9900628 0.0363785 0.1358395
vn 0.8079284 0.2946301 0.510338
vn 0.5598189 0.414302 0.7176047
vn 0.9900608 -0.07031535 -0.1218006
vn 0.8079266 -0.1525029 -0.5692078
vn 0.5598085 -0.2144564 -0.8003891
vn 0.9900628 -0.0363785 -0.1358395
vn 0.8079382 0 -0.5892672
vn 0.5598098 0 -0.8286211
vn 0.9900621 0 -0.1406309
vn 0.9900608 0.07031535 0.1218006
vn 0.9900628 0.0363785 -0.1358395
vn 0.9900642 0.09943064 0.09943064
vn 0.9900608 0.07031535 -0.1218006
vn 0.8079266 0.1525029 -0.5692078
vn 0.5598085 0.2144564 -0.8003891
vn 0.5598189 0.414302 -0.7176047
vn 0.8079284 0.2946301 -0.510338
vn 0.9900642 0.09943064 -0.09943064
vn 0.8079345 0.4166785 -0.4166785
vn 0.5598029 0.5859269 -0.5859269
vn 0.5598189 0.7176047 -0.414302
vn 0.8079284 0.510338 -0.2946301
vn 0.5598085 0.8003891 -0.2144564
vn 0.9900608 0.1218006 -0.07031535
vn 0.9900628 0.1358395 -0.0363785
vn 0.8079266 0.5692078 -0.1525029
vn 0.8079382 0.5892672 0
vn 0.5598098 0.8286211 0
vn 0.5598085 0.8003891 0.2144564
vn 0.9900621 0.1406309 0
vn 0.8079266 0.5692078 0.1525029
vn 0.9900628 0.1358395 0.0363785
vn 0.9900608 0.1218006 0.07031535
vn 0.8079284 0.510338 0.2946301
vn 0.5598189 0.7176047 0.414302
vn 0.8079345 0.4166785 0.4166785
vn 0.5598029 0.5859269 0.5859269
g Backplate_0
f 3/3/3 2/2/2 1/1/1
f 2/2/2 3/3/3 4/4/4
f 5/5/5 3/3/3 1/1/1
f 5/5/5 1/1/1 6/6/6
f 3/3/3 7/7/7 4/4/4
f 4/4/4 7/7/7 8/8/8
f 9/9/9 3/3/3 5/5/5
f 3/3/3 9/9/9 7/7/7
f 10/10/10 5/5/5 6/6/6
f 11/11/11 9/9/9 5/5/5
f 11/11/11 5/5/5 10/10/10
f 11/11/11 12/12/12 9/9/9
f 9/9/9 13/13/13 7/7/7
f 9/9/9 12/12/12 13/13/13
f 7/7/7 14/14/14 8/8/8
f 7/7/7 13/13/13 14/14/14
f 15/15/15 10/10/10 6/6/6
f 16/16/16 15/15/15 6/6/6
f 17/17/17 11/11/11 10/10/10
f 17/17/17 12/12/12 11/11/11
f 18/18/18 17/17/17 10/10/10
f 15/15/15 18/18/18 10/10/10
f 18/18/18 12/12/12 17/17/17
f 19/19/19 15/15/15 16/16/16
f 20/20/20 19/19/19 16/16/16
f 19/19/19 20/20/20 21/21/21
f 22/22/22 18/18/18 15/15/15
f 19/19/19 22/22/22 15/15/15
f 22/22/22 12/12/12 18/18/18
f 13/13/13 12/12/12 23/23/23
f 13/13/13 23/23/23 14/14/14
f 23/23/23 12/12/12 24/24/24
f 23/23/23 24/24/24 14/14/14
f 25/25/25 12/12/12 22/22/22
f 26/26/26 12/12/12 25/25/25
f 22/22/22 19/19/19 27/27/27
f 25/25/25 22/22/22 27/27/27
f 27/27/27 19/19/19 21/21/21
f 26/26/26 25/25/25 27/27/27
f 28/28/28 27/27/27 21/21/21
f 28/28/28 26/26/26 27/27/27
f 29/29/29 28/28/28 21/21/21
f 28/28/28 29/29/29 30/30/30
f 26/26/26 28/28/28 31/31/31
f 31/31/31 28/28/28 30/30/30
f 24/24/24 32/32/32 14/14/14
f 14/14/14 32/32/32 8/8/8
f 32/32/32 33/33/33 8/8/8
f 32/32/32 34/34/34 33/33/33
f 32/32/32 24/24/24 34/34/34
f 34/34/34 35/35/35 33/33/33
f 24/24/24 36/36/36 34/34/34
f 24/24/24 12/12/12 36/36/36
f 34/34/34 37/37/37 35/35/35
f 34/34/34 36/36/36 37/37/37
f 37/37/37 38/38/38 35/35/35
f 39/39/39 12/12/12 26/26/26
f 39/39/39 26/26/26 31/31/31
f 40/40/40 31/31/31 30/30/30
f 41/41/41 40/40/40 30/30/30
f 42/42/42 39/39/39 31/31/31
f 42/42/42 12/12/12 39/39/39
f 40/40/40 42/42/42 31/31/31
f 43/43/43 40/40/40 41/41/41
f 44/44/44 43/43/43 41/41/41
f 45/45/45 42/42/42 40/40/40
f 45/45/45 12/12/12 42/42/42
f 43/43/43 45/45/45 40/40/40
f 36/36/36 12/12/12 46/46/46
f 36/36/36 46/46/46 37/37/37
f 47/47/47 12/12/12 45/45/45
f 47/47/47 45/45/45 43/43/43
f 46/46/46 12/12/12 48/48/48
f 46/46/46 48/48/48 37/37/37
f 49/49/49 12/12/12 47/47/47
f 50/50/50 43/43/43 44/44/44
f 50/50/50 47/47/47 43/43/43
f 51/51/51 50/50/50 44/44/44
f 50/50/50 51/51/51 52/52/52
f 47/47/47 50/50/50 53/53/53
f 49/49/49 47/47/47 53/53/53
f 53/53/53 50/50/50 52/52/52
f 54/54/54 49/49/49 53/53/53
f 54/54/54 12/12/12 49/49/49
f 55/55/55 53/53/53 52/52/52
f 55/55/55 54/54/54 53/53/53
f 56/56/56 55/55/55 52/52/52
f 55/55/55 56/56/56 57/57/57
f 58/58/58 55/55/55 57/57/57
f 54/54/54 55/55/55 58/58/58
f 58/58/58 57/57/57 59/59/59
f 60/60/60 12/12/12 54/54/54
f 60/60/60 54/54/54 58/58/58
f 61/61/61 60/60/60 58/58/58
f 61/61/61 12/12/12 60/60/60
f 62/62/62 58/58/58 59/59/59
f 62/62/62 61/61/61 58/58/58
f 63/63/63 62/62/62 59/59/59
f 64/64/64 63/63/63 59/59/59
f 63/63/63 64/64/64 65/65/65
f 66/66/66 61/61/61 62/62/62
f 63/63/63 66/66/66 62/62/62
f 66/66/66 12/12/12 61/61/61
f 67/67/67 63/63/63 65/65/65
f 66/66/66 63/63/63 67/67/67
f 68/68/68 12/12/12 66/66/66
f 68/68/68 66/66/66 67/67/67
f 69/69/69 12/12/12 68/68/68
f 69/69/69 68/68/68 67/67/67
f 48/48/48 12/12/12 69/69/69
f 70/70/70 67/67/67 65/65/65
f 70/70/70 69/69/69 67/67/67
f 48/48/48 69/69/69 70/70/70
f 71/71/71 70/70/70 65/65/65
f 72/72/72 48/48/48 70/70/70
f 72/72/72 70/70/70 71/71/71
f 48/48/48 72/72/72 37/37/37
f 73/73/73 72/72/72 71/71/71
f 37/37/37 72/72/72 38/38/38
f 72/72/72 73/73/73 38/38/38
