g BakePrep.038_low
v -2.090499 2.270945 4.719126
v -2.190118 2.270967 4.718981
v -2.190152 2.181427 4.874003
v -2.090533 2.181427 4.874003
v -2.055101 2.261439 4.874003
v -2.055101 2.310939 4.788399
v -1.771914 2.310939 4.788531
v -2.090499 2.270945 5.028881
v -2.190118 2.270967 5.029026
v -2.190118 2.449911 5.029026
v -1.765188 2.261439 4.874003
v -1.660354 2.310939 4.771663
v -2.055101 2.310939 4.959608
v -2.090499 2.449933 5.028881
v -2.190152 2.539452 4.874003
v -1.63386 2.261439 4.853203
v -1.565781 2.310939 4.723476
v -1.758461 2.310939 4.959476
v -2.055101 2.409939 4.959608
v -2.090533 2.539452 4.874003
v -2.090499 2.449933 4.719126
v -2.190118 2.449911 4.718981
v -2.190118 2.270967 4.718981
v -2.090499 2.270945 4.719126
v -2.055101 2.310939 4.788399
v -2.055101 2.459439 4.874003
v -2.055101 2.409939 4.788399
v -1.771914 2.409939 4.788531
v -1.771914 2.310939 4.788531
v -1.765188 2.459439 4.874003
v -1.660354 2.409939 4.771663
v -1.660354 2.310939 4.771663
v -1.758461 2.409939 4.959476
v -1.565781 2.409939 4.723476
v -1.565781 2.310939 4.723476
v -1.63386 2.459439 4.853203
v -1.607365 2.310939 4.934743
v -1.607365 2.409939 4.934743
v -1.515387 2.261439 4.792838
v -1.464992 2.310939 4.862201
v -1.421366 2.261439 4.698818
v -1.490728 2.310939 4.648423
v -1.515387 2.459439 4.792838
v -1.490728 2.409939 4.648423
v -1.490728 2.310939 4.648423
v -1.464992 2.409939 4.862201
v -1.421366 2.459439 4.698818
v -1.442541 2.409939 4.553851
v -1.442541 2.310939 4.553851
v -1.352004 2.310939 4.749213
v -1.361001 2.261439 4.580345
v -1.442541 2.310939 4.553851
v -1.352004 2.409939 4.749213
v -1.279461 2.310939 4.606839
v -1.361001 2.459439 4.580345
v -1.279461 2.409939 4.606839
v -1.425673 2.409939 4.442289
v -1.425673 2.310939 4.442289
v -1.340201 2.261439 4.449017
v -1.425673 2.310939 4.442289
v -1.254728 2.310939 4.455744
v -1.340201 2.459439 4.449017
v -1.254728 2.409939 4.455744
v -1.425684 2.409939 4.243557
v -1.425684 2.310939 4.243557
v -1.477862 2.440023 4.223586
v -1.477862 2.280855 4.223586
v -1.477895 2.280856 3.696189
v -1.340201 2.459439 4.243557
v -1.254716 2.310939 4.243557
v -1.254716 2.409939 4.243557
v -1.202538 2.440023 4.223586
v -1.340201 2.261439 4.243557
v -1.425684 2.310939 4.243557
v -1.477862 2.280855 4.223586
v -1.202538 2.280855 4.223586
v -1.340201 2.201209 4.223584
v -1.340201 2.201209 3.696188
v -1.477895 2.280856 3.696189
v -1.202506 2.280856 3.696189
v -1.340201 2.261439 3.676213
v -1.425716 2.310939 3.676213
v -1.340201 2.261439 0.8781761
v -1.425872 2.310939 0.8781761
v -1.478037 2.28083 0.8582045
v -1.254685 2.310939 3.676213
v -1.202506 2.440022 3.696189
v -1.254685 2.409939 3.676213
v -1.340201 2.519669 3.696188
v -1.340201 2.459439 3.676213
v -1.340201 2.459439 0.8781761
v -1.254529 2.409939 0.8781761
v -1.254529 2.310939 0.8781761
v -1.202364 2.440048 0.8582045
v -1.202364 2.28083 0.8582045
v -1.340201 2.201209 0.8582029
v -1.340201 2.201209 0.3308067
v -1.478069 2.280831 0.330808
v -1.340201 2.261439 0.3108315
v -1.425904 2.310939 0.3108315
v -1.340201 2.261439 0.1053723
v -1.425916 2.310939 0.1053723
v -1.495194 2.270941 0.06805801
v -1.202332 2.280831 0.330808
v -1.202332 2.440047 0.330808
v -1.254497 2.310939 0.3108315
v -1.340201 2.181439 0.06805131
v -1.340201 2.181439 -0.005156726
v -1.495218 2.270945 -0.00515002
v -1.185207 2.270941 0.06805801
v -1.185183 2.270945 -0.00515002
v -1.185207 2.449937 0.06805801
v -1.185183 2.449933 -0.00515002
v -1.340201 2.539439 -0.005156726
v -1.254485 2.310939 0.1053723
v -1.254497 2.409939 0.3108315
v -1.254485 2.409939 0.1053723
v -1.340201 2.459439 0.1053723
v -1.340201 2.539439 0.06805131
v -1.495194 2.449937 0.06805801
v -1.495218 2.449933 -0.00515002
v -1.340201 2.459439 0.3108315
v -1.495194 2.270941 0.06805801
v -1.495218 2.270945 -0.00515002
v -1.425916 2.310939 0.1053723
v -1.425916 2.409939 0.1053723
v -1.425904 2.310939 0.3108315
v -1.425904 2.409939 0.3108315
v -1.478069 2.440047 0.330808
v -1.478069 2.280831 0.330808
v -1.478037 2.28083 0.8582045
v -1.340201 2.519669 0.3308067
v -1.478037 2.440048 0.8582045
v -1.340201 2.519669 0.8582029
v -1.425872 2.409939 0.8781761
v -1.425872 2.310939 0.8781761
v -1.425716 2.409939 3.676213
v -1.425716 2.310939 3.676213
v -1.477895 2.440022 3.696189
v -1.340201 2.519669 4.223584
v -1.340201 2.539439 -0.005156726
v -1.340201 2.360439 -0.005152255
v -1.185183 2.449933 -0.00515002
v -1.495218 2.449933 -0.00515002
v -1.185183 2.270945 -0.00515002
v -1.495218 2.270945 -0.00515002
v -1.340201 2.181439 -0.005156726
v -2.190118 2.449911 5.029026
v -2.19013 2.360439 4.874003
v -2.190152 2.539452 4.874003
v -2.190118 2.270967 5.029026
v -2.190118 2.449911 4.718981
v -2.190152 2.181427 4.874003
v -2.190118 2.270967 4.718981
vt 0.8896484 0.008285522
vt 0.8896484 0.0003795624
vt 0.8823242 0.0003795624
vt 0.8823242 0.008285522
vt 0.8823242 0.01522827
vt 0.8896484 0.01522827
vt 0.8896484 0.03823853
vt 0.875 0.008285522
vt 0.875 0.0003795624
vt 0.8671875 0.0003795624
vt 0.8823242 0.03823853
vt 0.8896484 0.04879761
vt 0.875 0.01522827
vt 0.8671875 0.008285522
vt 0.8598633 0.0003795624
vt 0.8823242 0.04879761
vt 0.8896484 0.05932617
vt 0.875 0.03823853
vt 0.8671875 0.01522827
vt 0.8598633 0.008285522
vt 0.8525391 0.008285522
vt 0.8525391 0.0003795624
vt 0.8452148 0.0003795624
vt 0.8452148 0.008285522
vt 0.8452148 0.01522827
vt 0.8598633 0.01522827
vt 0.8525391 0.01522827
vt 0.8525391 0.03823853
vt 0.8452148 0.03823853
vt 0.8598633 0.03823853
vt 0.8525391 0.04879761
vt 0.8452148 0.04879761
vt 0.8671875 0.03823853
vt 0.8525391 0.05932617
vt 0.8452148 0.05932617
vt 0.8598633 0.04879761
vt 0.875 0.04879761
vt 0.8671875 0.04879761
vt 0.8823242 0.05932617
vt 0.875 0.05932617
vt 0.8823242 0.06988525
vt 0.8896484 0.06988525
vt 0.8598633 0.05932617
vt 0.8525391 0.06988525
vt 0.8452148 0.06988525
vt 0.8671875 0.05932617
vt 0.8598633 0.06988525
vt 0.8525391 0.08044434
vt 0.8452148 0.08044434
vt 0.875 0.06988525
vt 0.8823242 0.08044434
vt 0.8896484 0.08044434
vt 0.8671875 0.06988525
vt 0.875 0.08044434
vt 0.8598633 0.08044434
vt 0.8671875 0.08044434
vt 0.8525391 0.09100342
vt 0.8452148 0.09100342
vt 0.8823242 0.09100342
vt 0.8896484 0.09100342
vt 0.875 0.09100342
vt 0.8598633 0.09100342
vt 0.8671875 0.09100342
vt 0.8525391 0.1072998
vt 0.8452148 0.1072998
vt 0.8525391 0.1123657
vt 0.8452148 0.1123657
vt 0.8452148 0.1541748
vt 0.8598633 0.1072998
vt 0.875 0.1072998
vt 0.8671875 0.1072998
vt 0.8671875 0.1123657
vt 0.8823242 0.1072998
vt 0.8896484 0.1072998
vt 0.8896484 0.1123657
vt 0.875 0.1123657
vt 0.8823242 0.1123657
vt 0.8823242 0.1541748
vt 0.8896484 0.1541748
vt 0.875 0.1541748
vt 0.8823242 0.1591797
vt 0.8896484 0.1591797
vt 0.8823242 0.3813477
vt 0.8896484 0.3813477
vt 0.8896484 0.3862305
vt 0.875 0.1591797
vt 0.8671875 0.1541748
vt 0.8671875 0.1591797
vt 0.8598633 0.1541748
vt 0.8598633 0.1591797
vt 0.8598633 0.3813477
vt 0.8671875 0.3813477
vt 0.875 0.3813477
vt 0.8671875 0.3862305
vt 0.875 0.3862305
vt 0.8823242 0.3862305
vt 0.8823242 0.4282227
vt 0.8896484 0.4282227
vt 0.8823242 0.4331055
vt 0.8896484 0.4331055
vt 0.8823242 0.4494629
vt 0.8896484 0.4494629
vt 0.8896484 0.456543
vt 0.875 0.4282227
vt 0.8671875 0.4282227
vt 0.875 0.4331055
vt 0.8823242 0.456543
vt 0.8823242 0.4624023
vt 0.8896484 0.4624023
vt 0.875 0.456543
vt 0.875 0.4624023
vt 0.8671875 0.456543
vt 0.8671875 0.4624023
vt 0.8598633 0.4624023
vt 0.875 0.4494629
vt 0.8671875 0.4331055
vt 0.8671875 0.4494629
vt 0.8598633 0.4494629
vt 0.8598633 0.456543
vt 0.8525391 0.456543
vt 0.8525391 0.4624023
vt 0.8598633 0.4331055
vt 0.8452148 0.456543
vt 0.8452148 0.4624023
vt 0.8452148 0.4494629
vt 0.8525391 0.4494629
vt 0.8452148 0.4331055
vt 0.8525391 0.4331055
vt 0.8525391 0.4282227
vt 0.8452148 0.4282227
vt 0.8452148 0.3862305
vt 0.8598633 0.4282227
vt 0.8525391 0.3862305
vt 0.8598633 0.3862305
vt 0.8525391 0.3813477
vt 0.8452148 0.3813477
vt 0.8525391 0.1591797
vt 0.8452148 0.1591797
vt 0.8525391 0.1541748
vt 0.8598633 0.1123657
vt 0.7055664 0.4484863
vt 0.7167969 0.4421387
vt 0.7055664 0.4355469
vt 0.7167969 0.454834
vt 0.7167969 0.4291992
vt 0.7275391 0.4484863
vt 0.7275391 0.4355469
vt 0.7055664 0.4750977
vt 0.7167969 0.4685059
vt 0.7055664 0.4621582
vt 0.7167969 0.4814453
vt 0.7167969 0.4558105
vt 0.7275391 0.4750977
vt 0.7275391 0.4621582
vn 0.4787598 -0.4389648 -0.7602539
vn -0.609375 -0.3959961 -0.6865234
vn -0.6098633 -0.7924805 0
vn 0.4780273 -0.878418 0
vn 0.6435547 -0.7651367 -3.504753E-05
vn 0.6435547 -0.3823242 -0.6630859
vn -0.06427002 -0.5107422 -0.8574219
vn 0.4787598 -0.4389648 0.7602539
vn -0.609375 -0.3959961 0.6865234
vn -0.609375 0.3959961 0.6865234
vn 0.002471924 -0.9995117 0.02438354
vn -0.2609863 -0.5239258 -0.8110352
vn 0.6435547 -0.3823242 0.6630859
vn 0.4787598 0.4389648 0.7602539
vn -0.6098633 0.7924805 0
vn 0.01585388 -0.9985352 0.04690552
vn -0.5009766 -0.5229492 -0.6894531
vn 0.07043457 -0.4887695 0.8696289
vn 0.6435547 0.3823242 0.6630859
vn 0.4780273 0.878418 0
vn 0.4787598 0.4389648 -0.7602539
vn -0.609375 0.3959961 -0.6865234
vn -0.609375 -0.3959961 -0.6865234
vn 0.4787598 -0.4389648 -0.7602539
vn 0.6435547 -0.3823242 -0.6630859
vn 0.6435547 0.7651367 -3.421307E-05
vn 0.6435547 0.3823242 -0.6630859
vn -0.06427002 0.5107422 -0.8574219
vn -0.06427002 -0.5107422 -0.8574219
vn 0.002471924 0.9995117 0.02438354
vn -0.2609863 0.5239258 -0.8110352
vn -0.2609863 -0.5239258 -0.8110352
vn 0.07043457 0.4887695 0.8696289
vn -0.5009766 0.5229492 -0.6894531
vn -0.5009766 -0.5229492 -0.6894531
vn 0.01585388 0.9985352 0.04690552
vn 0.2731934 -0.4799805 0.8334961
vn 0.2731934 0.4799805 0.8334961
vn 0.02932739 -0.9985352 0.04034424
vn 0.515625 -0.4794922 0.7099609
vn 0.04034424 -0.9985352 0.02932739
vn -0.6894531 -0.5229492 -0.5009766
vn 0.02932739 0.9985352 0.04034424
vn -0.6894531 0.5229492 -0.5009766
vn -0.6894531 -0.5229492 -0.5009766
vn 0.515625 0.4794922 0.7099609
vn 0.04034424 0.9985352 0.02932739
vn -0.8110352 0.5239258 -0.2609863
vn -0.8110352 -0.5239258 -0.2609863
vn 0.7099609 -0.4794922 0.515625
vn 0.04690552 -0.9985352 0.01585388
vn -0.8110352 -0.5239258 -0.2609863
vn 0.7099609 0.4794922 0.515625
vn 0.8334961 -0.4799805 0.2731934
vn 0.04690552 0.9985352 0.01585388
vn 0.8334961 0.4799805 0.2731934
vn -0.8574219 0.5107422 -0.06439209
vn -0.8574219 -0.5107422 -0.06439209
vn 0.02442932 -0.9995117 0.002422333
vn -0.8574219 -0.5107422 -0.06439209
vn 0.8696289 -0.4887695 0.07025146
vn 0.02442932 0.9995117 0.00242424
vn 0.8696289 0.4887695 0.0703125
vn -0.6235352 0.3596191 0.6938477
vn -0.6235352 -0.3596191 0.6938477
vn -0.7451172 0.4296875 0.5102539
vn -0.7451172 -0.4296875 0.5102539
vn -0.7451172 -0.4296875 -0.5102539
vn 0 0.7192383 0.6943359
vn 0.6235352 -0.3596191 0.6938477
vn 0.6235352 0.3596191 0.6938477
vn 0.7451172 0.4296875 0.5102539
vn 0 -0.7192383 0.6943359
vn -0.6235352 -0.3596191 0.6938477
vn -0.7451172 -0.4296875 0.5102539
vn 0.7451172 -0.4296875 0.5102539
vn 0 -0.8598633 0.5102539
vn 0 -0.8598633 -0.5102539
vn -0.7451172 -0.4296875 -0.5102539
vn 0.7451172 -0.4296875 -0.5102539
vn 0 -0.7197266 -0.6943359
vn -0.6235352 -0.3596191 -0.6938477
vn 0 -0.7197266 0.6943359
vn -0.6235352 -0.3598633 0.6943359
vn -0.7446289 -0.4299316 0.5102539
vn 0.6235352 -0.3596191 -0.6938477
vn 0.7451172 0.4296875 -0.5102539
vn 0.6235352 0.3596191 -0.6938477
vn 0 0.8598633 -0.5102539
vn 0 0.7197266 -0.6943359
vn 0 0.7197266 0.6943359
vn 0.6235352 0.3598633 0.6943359
vn 0.6235352 -0.3598633 0.6943359
vn 0.7446289 0.4299316 0.5102539
vn 0.7446289 -0.4299316 0.5102539
vn 0 -0.8598633 0.5102539
vn 0 -0.8598633 -0.5102539
vn -0.7446289 -0.4299316 -0.5102539
vn 0 -0.7197266 -0.6943359
vn -0.6235352 -0.3598633 -0.6943359
vn 0 -0.7744141 0.6328125
vn -0.6704102 -0.387207 0.6328125
vn -0.7636719 -0.440918 0.4716797
vn 0.7446289 -0.4299316 -0.5102539
vn 0.7446289 0.4299316 -0.5102539
vn 0.6235352 -0.3598633 -0.6943359
vn 0 -0.8818359 0.4714355
vn 0 -0.7924805 -0.6098633
vn -0.6865234 -0.3962402 -0.6098633
vn 0.7636719 -0.440918 0.4716797
vn 0.6865234 -0.3962402 -0.6098633
vn 0.7636719 0.440918 0.4716797
vn 0.6865234 0.3962402 -0.6098633
vn 0 0.7924805 -0.6098633
vn 0.6704102 -0.387207 0.6328125
vn 0.6235352 0.3598633 -0.6943359
vn 0.6704102 0.387207 0.6328125
vn 0 0.7744141 0.6328125
vn 0 0.8818359 0.4714355
vn -0.7636719 0.440918 0.4716797
vn -0.6865234 0.3962402 -0.6098633
vn 0 0.7197266 -0.6943359
vn -0.7636719 -0.440918 0.4716797
vn -0.6865234 -0.3962402 -0.6098633
vn -0.6704102 -0.387207 0.6328125
vn -0.6704102 0.387207 0.6328125
vn -0.6235352 -0.3598633 -0.6943359
vn -0.6235352 0.3598633 -0.6943359
vn -0.7446289 0.4299316 -0.5102539
vn -0.7446289 -0.4299316 -0.5102539
vn -0.7446289 -0.4299316 0.5102539
vn 0 0.8598633 -0.5102539
vn -0.7446289 0.4299316 0.5102539
vn 0 0.8598633 0.5102539
vn -0.6235352 0.3598633 0.6943359
vn -0.6235352 -0.3598633 0.6943359
vn -0.6235352 0.3596191 -0.6938477
vn -0.6235352 -0.3596191 -0.6938477
vn -0.7451172 0.4296875 -0.5102539
vn 0 0.8598633 0.5102539
vn 0 0.7924805 -0.6098633
vn 0 0 -1
vn 0.6865234 0.3962402 -0.6098633
vn -0.6865234 0.3962402 -0.6098633
vn 0.6865234 -0.3962402 -0.6098633
vn -0.6865234 -0.3962402 -0.6098633
vn 0 -0.7924805 -0.6098633
vn -0.609375 0.3959961 0.6865234
vn -1 0 0
vn -0.6098633 0.7924805 0
vn -0.609375 -0.3959961 0.6865234
vn -0.609375 0.3959961 -0.6865234
vn -0.6098633 -0.7924805 0
vn -0.609375 -0.3959961 -0.6865234
g BakePrep.038_low_0
f 3/3/3 2/2/2 1/1/1
f 4/4/4 3/3/3 1/1/1
f 4/4/4 1/1/1 5/5/5
f 1/1/1 6/6/6 5/5/5
f 5/5/5 6/6/6 7/7/7
f 4/4/4 8/8/8 3/3/3
f 8/8/8 4/4/4 5/5/5
f 8/8/8 9/9/9 3/3/3
f 10/10/10 9/9/9 8/8/8
f 11/11/11 5/5/5 7/7/7
f 11/11/11 7/7/7 12/12/12
f 13/13/13 8/8/8 5/5/5
f 13/13/13 5/5/5 11/11/11
f 14/14/14 10/10/10 8/8/8
f 14/14/14 8/8/8 13/13/13
f 15/15/15 10/10/10 14/14/14
f 16/16/16 11/11/11 12/12/12
f 16/16/16 12/12/12 17/17/17
f 18/18/18 13/13/13 11/11/11
f 18/18/18 11/11/11 16/16/16
f 19/19/19 14/14/14 13/13/13
f 19/19/19 13/13/13 18/18/18
f 20/20/20 15/15/15 14/14/14
f 20/20/20 21/21/21 15/15/15
f 21/21/21 22/22/22 15/15/15
f 23/23/23 22/22/22 21/21/21
f 24/24/24 23/23/23 21/21/21
f 24/24/24 21/21/21 25/25/25
f 20/20/20 14/14/14 26/26/26
f 21/21/21 20/20/20 26/26/26
f 14/14/14 19/19/19 26/26/26
f 21/21/21 27/27/27 25/25/25
f 27/27/27 21/21/21 26/26/26
f 25/25/25 27/27/27 28/28/28
f 28/28/28 27/27/27 26/26/26
f 29/29/29 25/25/25 28/28/28
f 30/30/30 26/26/26 19/19/19
f 30/30/30 28/28/28 26/26/26
f 29/29/29 28/28/28 31/31/31
f 31/31/31 28/28/28 30/30/30
f 32/32/32 29/29/29 31/31/31
f 33/33/33 30/30/30 19/19/19
f 33/33/33 19/19/19 18/18/18
f 32/32/32 31/31/31 34/34/34
f 35/35/35 32/32/32 34/34/34
f 36/36/36 31/31/31 30/30/30
f 36/36/36 30/30/30 33/33/33
f 34/34/34 31/31/31 36/36/36
f 33/33/33 18/18/18 37/37/37
f 37/37/37 18/18/18 16/16/16
f 38/38/38 36/36/36 33/33/33
f 38/38/38 33/33/33 37/37/37
f 37/37/37 16/16/16 39/39/39
f 39/39/39 16/16/16 17/17/17
f 40/40/40 37/37/37 39/39/39
f 38/38/38 37/37/37 40/40/40
f 41/41/41 39/39/39 17/17/17
f 40/40/40 39/39/39 41/41/41
f 42/42/42 41/41/41 17/17/17
f 43/43/43 36/36/36 38/38/38
f 43/43/43 34/34/34 36/36/36
f 35/35/35 34/34/34 44/44/44
f 45/45/45 35/35/35 44/44/44
f 46/46/46 38/38/38 40/40/40
f 46/46/46 43/43/43 38/38/38
f 34/34/34 43/43/43 47/47/47
f 44/44/44 34/34/34 47/47/47
f 47/47/47 43/43/43 46/46/46
f 45/45/45 44/44/44 48/48/48
f 49/49/49 45/45/45 48/48/48
f 46/46/46 40/40/40 50/50/50
f 50/50/50 40/40/40 41/41/41
f 51/51/51 41/41/41 42/42/42
f 52/52/52 51/51/51 42/42/42
f 53/53/53 46/46/46 50/50/50
f 53/53/53 47/47/47 46/46/46
f 54/54/54 50/50/50 41/41/41
f 53/53/53 50/50/50 54/54/54
f 51/51/51 54/54/54 41/41/41
f 44/44/44 47/47/47 55/55/55
f 48/48/48 44/44/44 55/55/55
f 47/47/47 53/53/53 56/56/56
f 56/56/56 53/53/53 54/54/54
f 55/55/55 47/47/47 56/56/56
f 49/49/49 48/48/48 57/57/57
f 58/58/58 49/49/49 57/57/57
f 59/59/59 51/51/51 52/52/52
f 60/60/60 59/59/59 52/52/52
f 61/61/61 54/54/54 51/51/51
f 56/56/56 54/54/54 61/61/61
f 59/59/59 61/61/61 51/51/51
f 48/48/48 55/55/55 62/62/62
f 57/57/57 48/48/48 62/62/62
f 55/55/55 56/56/56 63/63/63
f 63/63/63 56/56/56 61/61/61
f 62/62/62 55/55/55 63/63/63
f 58/58/58 57/57/57 64/64/64
f 65/65/65 58/58/58 64/64/64
f 64/64/64 66/66/66 65/65/65
f 66/66/66 67/67/67 65/65/65
f 68/68/68 67/67/67 66/66/66
f 64/64/64 57/57/57 69/69/69
f 57/57/57 62/62/62 69/69/69
f 66/66/66 64/64/64 69/69/69
f 70/70/70 61/61/61 59/59/59
f 63/63/63 61/61/61 70/70/70
f 62/62/62 63/63/63 71/71/71
f 69/69/69 62/62/62 71/71/71
f 71/71/71 63/63/63 70/70/70
f 71/71/71 72/72/72 69/69/69
f 72/72/72 71/71/71 70/70/70
f 73/73/73 70/70/70 59/59/59
f 73/73/73 59/59/59 60/60/60
f 74/74/74 73/73/73 60/60/60
f 74/74/74 75/75/75 73/73/73
f 76/76/76 70/70/70 73/73/73
f 76/76/76 72/72/72 70/70/70
f 75/75/75 77/77/77 73/73/73
f 77/77/77 76/76/76 73/73/73
f 78/78/78 77/77/77 75/75/75
f 77/77/77 78/78/78 76/76/76
f 79/79/79 78/78/78 75/75/75
f 78/78/78 80/80/80 76/76/76
f 76/76/76 80/80/80 72/72/72
f 78/78/78 79/79/79 81/81/81
f 80/80/80 78/78/78 81/81/81
f 79/79/79 82/82/82 81/81/81
f 81/81/81 82/82/82 83/83/83
f 82/82/82 84/84/84 83/83/83
f 84/84/84 85/85/85 83/83/83
f 86/86/86 80/80/80 81/81/81
f 86/86/86 81/81/81 83/83/83
f 80/80/80 87/87/87 72/72/72
f 80/80/80 86/86/86 88/88/88
f 87/87/87 80/80/80 88/88/88
f 87/87/87 89/89/89 72/72/72
f 87/87/87 88/88/88 90/90/90
f 89/89/89 87/87/87 90/90/90
f 90/90/90 88/88/88 91/91/91
f 88/88/88 86/86/86 92/92/92
f 88/88/88 92/92/92 91/91/91
f 86/86/86 93/93/93 92/92/92
f 93/93/93 86/86/86 83/83/83
f 94/94/94 92/92/92 93/93/93
f 92/92/92 94/94/94 91/91/91
f 95/95/95 93/93/93 83/83/83
f 95/95/95 94/94/94 93/93/93
f 85/85/85 96/96/96 83/83/83
f 96/96/96 95/95/95 83/83/83
f 96/96/96 85/85/85 97/97/97
f 95/95/95 96/96/96 97/97/97
f 85/85/85 98/98/98 97/97/97
f 97/97/97 98/98/98 99/99/99
f 98/98/98 100/100/100 99/99/99
f 101/101/101 99/99/99 100/100/100
f 102/102/102 101/101/101 100/100/100
f 102/102/102 103/103/103 101/101/101
f 104/104/104 95/95/95 97/97/97
f 104/104/104 97/97/97 99/99/99
f 95/95/95 104/104/104 105/105/105
f 94/94/94 95/95/95 105/105/105
f 106/106/106 104/104/104 99/99/99
f 106/106/106 99/99/99 101/101/101
f 105/105/105 104/104/104 106/106/106
f 103/103/103 107/107/107 101/101/101
f 108/108/108 107/107/107 103/103/103
f 109/109/109 108/108/108 103/103/103
f 110/110/110 107/107/107 108/108/108
f 107/107/107 110/110/110 101/101/101
f 111/111/111 110/110/110 108/108/108
f 112/112/112 110/110/110 111/111/111
f 113/113/113 112/112/112 111/111/111
f 113/113/113 114/114/114 112/112/112
f 110/110/110 115/115/115 101/101/101
f 115/115/115 106/106/106 101/101/101
f 110/110/110 112/112/112 115/115/115
f 116/116/116 106/106/106 115/115/115
f 116/116/116 105/105/105 106/106/106
f 112/112/112 117/117/117 115/115/115
f 117/117/117 116/116/116 115/115/115
f 117/117/117 112/112/112 118/118/118
f 117/117/117 118/118/118 116/116/116
f 114/114/114 119/119/119 112/112/112
f 112/112/112 119/119/119 118/118/118
f 120/120/120 119/119/119 114/114/114
f 119/119/119 120/120/120 118/118/118
f 121/121/121 120/120/120 114/114/114
f 105/105/105 116/116/116 122/122/122
f 118/118/118 122/122/122 116/116/116
f 123/123/123 120/120/120 121/121/121
f 124/124/124 123/123/123 121/121/121
f 120/120/120 123/123/123 125/125/125
f 126/126/126 120/120/120 125/125/125
f 120/120/120 126/126/126 118/118/118
f 125/125/125 127/127/127 126/126/126
f 126/126/126 128/128/128 118/118/118
f 127/127/127 128/128/128 126/126/126
f 128/128/128 122/122/122 118/118/118
f 129/129/129 128/128/128 127/127/127
f 128/128/128 129/129/129 122/122/122
f 130/130/130 129/129/129 127/127/127
f 130/130/130 131/131/131 129/129/129
f 132/132/132 105/105/105 122/122/122
f 129/129/129 132/132/132 122/122/122
f 94/94/94 105/105/105 132/132/132
f 131/131/131 133/133/133 129/129/129
f 129/129/129 133/133/133 132/132/132
f 134/134/134 94/94/94 132/132/132
f 133/133/133 134/134/134 132/132/132
f 94/94/94 134/134/134 91/91/91
f 134/134/134 133/133/133 91/91/91
f 133/133/133 131/131/131 135/135/135
f 133/133/133 135/135/135 91/91/91
f 131/131/131 136/136/136 135/135/135
f 135/135/135 137/137/137 91/91/91
f 137/137/137 135/135/135 136/136/136
f 137/137/137 90/90/90 91/91/91
f 138/138/138 137/137/137 136/136/136
f 137/137/137 139/139/139 90/90/90
f 139/139/139 137/137/137 138/138/138
f 68/68/68 139/139/139 138/138/138
f 139/139/139 89/89/89 90/90/90
f 139/139/139 68/68/68 66/66/66
f 89/89/89 139/139/139 66/66/66
f 140/140/140 89/89/89 66/66/66
f 140/140/140 66/66/66 69/69/69
f 89/89/89 140/140/140 72/72/72
f 72/72/72 140/140/140 69/69/69
f 143/143/143 142/142/142 141/141/141
f 141/141/141 142/142/142 144/144/144
f 145/145/145 142/142/142 143/143/143
f 144/144/144 142/142/142 146/146/146
f 147/147/147 142/142/142 145/145/145
f 146/146/146 142/142/142 147/147/147
f 150/150/150 149/149/149 148/148/148
f 148/148/148 149/149/149 151/151/151
f 152/152/152 149/149/149 150/150/150
f 151/151/151 149/149/149 153/153/153
f 154/154/154 149/149/149 152/152/152
f 153/153/153 149/149/149 154/154/154
