g bar
v 111.0392 -1.147069 -0.9168257
v 111.0392 -2.6778 -1.2213
v -114.6408 -2.67779 -1.22139
v -114.6408 -1.147059 -0.9169163
v 111.0392 0.3836623 -1.221299
v -114.6408 0.3836722 -1.22139
v 111.0392 1.681361 -2.088395
v -114.6408 1.681371 -2.088486
v 111.0392 2.548443 -3.386094
v -114.6408 2.548452 -3.386184
v 111.0392 2.852932 -4.916825
v -114.6408 2.852942 -4.916915
v 111.0392 -2.6778 -1.2213
v -114.6408 -3.975489 -2.088487
v -114.6408 -2.67779 -1.22139
v 111.0392 -3.975499 -2.088396
v -114.6408 -4.842569 -3.386186
v 111.0392 -4.842579 -3.386095
v -114.6408 -5.147058 -4.916917
v 111.0392 -5.147068 -4.916827
v 111.0392 -5.147068 -4.916827
v -114.6408 -4.842569 -6.447648
v -114.6408 -5.147058 -4.916917
v 111.0392 -4.842579 -6.447558
v -114.6408 -3.975488 -7.745347
v 111.0392 -3.975498 -7.745256
v -114.6408 -2.677789 -8.612443
v 111.0392 -2.677799 -8.612352
v -114.6408 -1.147058 -8.916916
v 111.0392 -1.147068 -8.916825
v -114.6408 0.3836735 -8.612442
v 111.0392 0.3836637 -8.612351
v 111.0392 0.3836637 -8.612351
v -114.6408 1.681372 -7.745346
v -114.6408 0.3836735 -8.612442
v 111.0392 1.681363 -7.745255
v -114.6408 2.548453 -6.447647
v 111.0392 2.548443 -6.447556
v -114.6408 2.852942 -4.916915
v 111.0392 2.852932 -4.916825
v -114.6408 -4.842569 -3.386186
v -114.6408 -5.147058 -4.916917
v -114.6408 -4.842569 -6.447648
v -114.6408 -3.975489 -2.088487
v -114.6408 -3.975488 -7.745347
v -114.6408 -2.67779 -1.22139
v -114.6408 -2.677789 -8.612443
v -114.6408 -1.147059 -0.9169163
v -114.6408 -1.147058 -8.916916
v -114.6408 0.3836722 -1.22139
v -114.6408 0.3836735 -8.612442
v -114.6408 1.681371 -2.088486
v -114.6408 1.681372 -7.745346
v -114.6408 2.548452 -3.386184
v -114.6408 2.548453 -6.447647
v -114.6408 2.852942 -4.916915
v 111.0392 -4.842579 -6.447558
v 111.0392 -5.147068 -4.916827
v 111.0392 -4.842579 -3.386095
v 111.0392 -3.975499 -2.088396
v 111.0392 -3.975498 -7.745256
v 111.0392 -2.6778 -1.2213
v 111.0392 -2.677799 -8.612352
v 111.0392 -1.147069 -0.9168257
v 111.0392 -1.147068 -8.916825
v 111.0392 0.3836623 -1.221299
v 111.0392 0.3836637 -8.612351
v 111.0392 1.681361 -2.088395
v 111.0392 1.681363 -7.745255
v 111.0392 2.548443 -3.386094
v 111.0392 2.548443 -6.447556
v 111.0392 2.852932 -4.916825
vt 0.2581774 0
vt 0.2214383 2.704498E-07
vt 0.2214408 0.9999997
vt 0.2581772 0.9999995
vt 0.3061787 2.704498E-07
vt 0.3061797 1
vt 0.3581349 0
vt 0.358137 0.9999995
vt 0.4061357 5.408996E-07
vt 0.4061379 1
vt 0.4428753 5.408996E-07
vt 0.4428748 1
vt 0.4428753 0.9999997
vt 0.490876 0
vt 0.4428763 2.704498E-07
vt 0.4908771 0.9999997
vt 0.5428338 0
vt 0.5428338 0.9999992
vt 0.5908356 2.704498E-07
vt 0.5908356 0.9999992
vt 1.015932E-06 0.9999995
vt 0.03673888 2.704498E-07
vt 0 0
vt 0.0367404 0.9999992
vt 0.08474063 2.704498E-07
vt 0.08474063 0.9999995
vt 0.1366974 2.704498E-07
vt 0.1366979 0.9999995
vt 0.1846992 0
vt 0.1846992 0.9999992
vt 0.2214378 0
vt 0.2214383 0.9999995
vt 0.7387959 2.704498E-07
vt 0.6907941 0.9999992
vt 0.7387959 0.9999992
vt 0.6907921 0
vt 0.6388363 0.9999992
vt 0.6388373 2.704498E-07
vt 0.5908356 0.9999992
vt 0.5908356 2.704498E-07
vt 0.7954188 0.03212078
vt 0.8434196 0.03476727
vt 0.8953773 0.03476727
vt 0.7586797 0.02723071
vt 0.9433791 0.03212071
vt 0.7387959 0.02084147
vt 0.9801172 0.02723051
vt 0.7387969 0.01392587
vt 1 0.0208414
vt 0.7586787 0.007536624
vt 1 0.01392573
vt 0.7954178 0.002646487
vt 0.9801172 0.007536489
vt 0.8434185 0
vt 0.9433781 0.002646487
vt 0.8953753 0
vt 0.7387959 0.05560881
vt 0.7586787 0.06199791
vt 0.7954178 0.06688805
vt 0.8434185 0.06953467
vt 0.7387959 0.04869313
vt 0.8953753 0.06953467
vt 0.7586797 0.04230403
vt 0.9433771 0.06688818
vt 0.7954188 0.03741389
vt 0.9801162 0.06199818
vt 0.8434196 0.0347674
vt 0.999999 0.05560881
vt 0.8953753 0.03476727
vt 0.999999 0.04869313
vt 0.9433771 0.03741375
vt 0.9801162 0.04230389
vn 0 0 1
vn 0 -0.3826817 0.9238802
vn 0 -0.3826817 0.9238802
vn 0 0 1
vn 0 0.3826814 0.9238803
vn 0 0.3826815 0.9238803
vn 0 0.7071077 0.7071058
vn 0 0.7071095 0.707104
vn 0 0.923879 0.3826848
vn 0 0.92388 0.3826824
vn 0 1 0
vn 0 1 0
vn 0 -0.3826817 0.9238802
vn 0 -0.7071099 0.7071036
vn 0 -0.3826817 0.9238802
vn 0 -0.7071081 0.7071055
vn 0 -0.9238801 0.382682
vn 0 -0.9238791 0.3826844
vn 0 -1 0
vn 0 -1 0
vn 0 -1 0
vn 0 -0.9238799 -0.3826825
vn 0 -1 0
vn 0 -0.9238799 -0.3826824
vn 0 -0.7071095 -0.707104
vn 0 -0.7071096 -0.7071039
vn 0 -0.3826813 -0.9238805
vn 0 -0.3826814 -0.9238805
vn 0 0 -1
vn 0 0 -1
vn 0 0.3826816 -0.9238802
vn 0 0.3826816 -0.9238802
vn 0 0.3826816 -0.9238802
vn 0 0.7071097 -0.7071038
vn 0 0.3826816 -0.9238802
vn 0 0.7071097 -0.7071038
vn 0 0.92388 -0.3826822
vn 0 0.92388 -0.3826821
vn 0 1 0
vn 0 1 0
vn -1 0 0
vn -1 0 0
vn -1 0 0
vn -1 0 0
vn -1 0 0
vn -1 0 0
vn -1 0 0
vn -1 0 0
vn -1 0 0
vn -1 0 0
vn -1 0 0
vn -1 0 0
vn -1 0 0
vn -1 0 0
vn -1 0 0
vn -1 0 0
vn 1 0 0
vn 1 0 0
vn 1 0 0
vn 1 0 0
vn 1 0 0
vn 1 0 0
vn 1 0 0
vn 1 0 0
vn 1 0 0
vn 1 0 0
vn 1 0 0
vn 1 0 0
vn 1 0 0
vn 1 0 0
vn 1 0 0
vn 1 0 0
g bar_0
f 3/3/3 2/2/2 1/1/1
f 4/4/4 3/3/3 1/1/1
f 4/4/4 1/1/1 5/5/5
f 6/6/6 4/4/4 5/5/5
f 6/6/6 5/5/5 7/7/7
f 8/8/8 6/6/6 7/7/7
f 8/8/8 7/7/7 9/9/9
f 10/10/10 8/8/8 9/9/9
f 10/10/10 9/9/9 11/11/11
f 12/12/12 10/10/10 11/11/11
f 15/15/15 14/14/14 13/13/13
f 14/14/14 16/16/16 13/13/13
f 14/14/14 17/17/17 16/16/16
f 17/17/17 18/18/18 16/16/16
f 17/17/17 19/19/19 18/18/18
f 19/19/19 20/20/20 18/18/18
f 23/23/23 22/22/22 21/21/21
f 22/22/22 24/24/24 21/21/21
f 22/22/22 25/25/25 24/24/24
f 25/25/25 26/26/26 24/24/24
f 25/25/25 27/27/27 26/26/26
f 27/27/27 28/28/28 26/26/26
f 27/27/27 29/29/29 28/28/28
f 29/29/29 30/30/30 28/28/28
f 29/29/29 31/31/31 30/30/30
f 31/31/31 32/32/32 30/30/30
f 35/35/35 34/34/34 33/33/33
f 34/34/34 36/36/36 33/33/33
f 34/34/34 37/37/37 36/36/36
f 37/37/37 38/38/38 36/36/36
f 37/37/37 39/39/39 38/38/38
f 39/39/39 40/40/40 38/38/38
f 43/43/43 42/42/42 41/41/41
f 41/41/41 44/44/44 43/43/43
f 44/44/44 45/45/45 43/43/43
f 44/44/44 46/46/46 45/45/45
f 46/46/46 47/47/47 45/45/45
f 46/46/46 48/48/48 47/47/47
f 48/48/48 49/49/49 47/47/47
f 48/48/48 50/50/50 49/49/49
f 50/50/50 51/51/51 49/49/49
f 50/50/50 52/52/52 51/51/51
f 52/52/52 53/53/53 51/51/51
f 52/52/52 54/54/54 53/53/53
f 54/54/54 55/55/55 53/53/53
f 54/54/54 56/56/56 55/55/55
f 59/59/59 58/58/58 57/57/57
f 57/57/57 60/60/60 59/59/59
f 57/57/57 61/61/61 60/60/60
f 61/61/61 62/62/62 60/60/60
f 61/61/61 63/63/63 62/62/62
f 63/63/63 64/64/64 62/62/62
f 63/63/63 65/65/65 64/64/64
f 65/65/65 66/66/66 64/64/64
f 65/65/65 67/67/67 66/66/66
f 67/67/67 68/68/68 66/66/66
f 67/67/67 69/69/69 68/68/68
f 69/69/69 70/70/70 68/68/68
f 69/69/69 71/71/71 70/70/70
f 71/71/71 72/72/72 70/70/70
