g base_low
v 0.3033268 -0.3545697 -1.13716
v 0.3290615 -0.3458975 -1.089688
v 0.3318793 -0.3488605 -1.13716
v 0.3490133 -0.3317265 -1.13716
v 0.3460503 -0.3289087 -1.089688
v 0.3547225 -0.303174 -1.13716
v 0.3517121 -0.3005967 -1.089691
v 0.3547225 0.3035684 -1.13716
v 0.3007495 -0.3515593 -1.089691
v -0.3008383 -0.3515593 -1.089691
v -0.3034156 -0.3545697 -1.13716
v -0.3291502 -0.3458975 -1.089688
v -0.331968 -0.3488605 -1.13716
v -0.346139 -0.3289087 -1.089688
v -0.3491021 -0.3317265 -1.13716
v -0.3548112 -0.303174 -1.13716
v 0.3270622 -0.3425939 -1.080774
v 0.2999702 -0.3480117 -1.080775
v -0.3000589 -0.3480117 -1.080775
v -0.3271509 -0.3425939 -1.080774
v -0.3428354 -0.3269094 -1.080774
v 0.3427467 -0.3269094 -1.080774
v -0.3518008 -0.3005967 -1.089691
v -0.3482532 -0.2998174 -1.080775
v -0.3518008 0.3009911 -1.089691
v -0.3548112 0.3035684 -1.13716
v -0.3482532 0.3002117 -1.080775
v -0.3391181 0.2991646 -1.077803
v -0.3391181 -0.2987703 -1.077803
v -0.3344083 -0.3223223 -1.077803
v -0.346139 0.329303 -1.089688
v -0.3491021 0.3321208 -1.13716
v -0.3428354 0.3273037 -1.080774
v -0.3225638 -0.3341667 -1.077803
v -0.2990118 -0.3388766 -1.077803
v -0.3291502 0.3462918 -1.089688
v -0.331968 0.3492548 -1.13716
v -0.3034156 0.354964 -1.13716
v 0.298923 -0.3388766 -1.077803
v 0.3390294 -0.2987703 -1.077803
v 0.3224751 -0.3341667 -1.077803
v 0.3343195 -0.3223223 -1.077803
v 0.3481645 -0.2998174 -1.080775
v 0.3390294 0.2991646 -1.077803
v 0.3517121 0.3009911 -1.089691
v 0.3481645 0.3002117 -1.080775
v 0.3460503 0.329303 -1.089688
v 0.3490133 0.3321208 -1.13716
v 0.3318793 0.3492548 -1.13716
v 0.3427467 0.3273037 -1.080774
v 0.3290615 0.3462918 -1.089688
v 0.3033268 0.354964 -1.13716
v 0.3007495 0.3519536 -1.089691
v 0.3270622 0.3429882 -1.080774
v 0.3343195 0.3227166 -1.077803
v -0.3008383 0.3519536 -1.089691
v 0.298923 0.3392709 -1.077803
v 0.2999702 0.348406 -1.080775
v 0.3224751 0.3345611 -1.077803
v -0.3000589 0.348406 -1.080775
v -0.3271509 0.3429882 -1.080774
v -0.2990118 0.3392709 -1.077803
v -0.3225638 0.3345611 -1.077803
v -0.3344083 0.3227166 -1.077803
vt 0.9643555 0.1067505
vt 0.9643555 0.1246948
vt 0.9746094 0.112915
vt 0.980957 0.1199341
vt 0.96875 0.1292725
vt 0.9868164 0.130249
vt 0.9716797 0.1373291
vt 0.9838867 0.3166504
vt 0.956543 0.121521
vt 0.7875977 0.1187744
vt 0.7802734 0.1036987
vt 0.7797852 0.121582
vt 0.7705078 0.1094971
vt 0.7749023 0.1260986
vt 0.7631836 0.1159668
vt 0.7573242 0.1262207
vt 0.9628906 0.1268311
vt 0.9560547 0.1245117
vt 0.7880859 0.1217041
vt 0.78125 0.1237183
vt 0.7773438 0.1275635
vt 0.9667969 0.1307373
vt 0.7719727 0.1340332
vt 0.7749023 0.1346436
vt 0.7695313 0.3051758
vt 0.7543945 0.3125
vt 0.7724609 0.3046875
vt 0.7753906 0.3041992
vt 0.777832 0.1351318
vt 0.7792969 0.1289063
vt 0.7719727 0.3132324
vt 0.7602539 0.3225098
vt 0.7744141 0.3120117
vt 0.7822266 0.1259766
vt 0.7885742 0.1245728
vt 0.7768555 0.3178711
vt 0.7666016 0.3295898
vt 0.7763672 0.3359375
vt 0.9555664 0.1273193
vt 0.9658203 0.1383057
vt 0.9614258 0.1289063
vt 0.9643555 0.131958
vt 0.96875 0.1379395
vt 0.9628906 0.3076172
vt 0.96875 0.3088379
vt 0.9658203 0.3081055
vt 0.9658203 0.3166504
vt 0.9775391 0.3269043
vt 0.9707031 0.333252
vt 0.9638672 0.3151855
vt 0.9609375 0.3212891
vt 0.9604492 0.3391113
vt 0.953125 0.3239746
vt 0.9599609 0.3190918
vt 0.9614258 0.3139648
vt 0.784668 0.3210449
vt 0.9521484 0.3183594
vt 0.9526367 0.3210449
vt 0.9584961 0.3168945
vt 0.7851563 0.3181152
vt 0.7783203 0.315918
vt 0.7856445 0.3154297
vt 0.7792969 0.3137207
vt 0.7768555 0.3105469
vn 0.1012573 -0.9926758 0.06842041
vn 0.4577637 -0.8569336 0.2363281
vn 0.473877 -0.8769531 0.08282471
vn 0.8769531 -0.473877 0.08282471
vn 0.8569336 -0.4577637 0.2363281
vn 0.9926758 -0.1012573 0.06842041
vn 0.9702148 -0.09576416 0.22229
vn 0.9926758 0.1012573 0.06842041
vn 0.09576416 -0.9702148 0.22229
vn -0.09576416 -0.9702148 0.22229
vn -0.1012573 -0.9926758 0.06842041
vn -0.4577637 -0.8569336 0.2363281
vn -0.473877 -0.8769531 0.08282471
vn -0.8569336 -0.4577637 0.2363281
vn -0.8769531 -0.473877 0.08282471
vn -0.9926758 -0.1012573 0.06842041
vn 0.331543 -0.6245117 0.7075195
vn 0.06707764 -0.6918945 0.71875
vn -0.06707764 -0.6918945 0.71875
vn -0.331543 -0.6245117 0.7075195
vn -0.6245117 -0.331543 0.7075195
vn 0.6245117 -0.331543 0.7075195
vn -0.9702148 -0.09576416 0.22229
vn -0.6918945 -0.06707764 0.71875
vn -0.9702148 0.09576416 0.22229
vn -0.9926758 0.1012573 0.06842041
vn -0.6918945 0.06707764 0.71875
vn -0.1644287 0.01611328 0.9863281
vn -0.1644287 -0.01611328 0.9863281
vn -0.1560059 -0.08312988 0.984375
vn -0.8569336 0.4577637 0.2363281
vn -0.8769531 0.473877 0.08282471
vn -0.6245117 0.331543 0.7075195
vn -0.08312988 -0.1560059 0.984375
vn -0.01611328 -0.1644287 0.9863281
vn -0.4577637 0.8569336 0.2363281
vn -0.473877 0.8769531 0.08282471
vn -0.1012573 0.9926758 0.06842041
vn 0.01611328 -0.1644287 0.9863281
vn 0.1644287 -0.01611328 0.9863281
vn 0.08312988 -0.1560059 0.984375
vn 0.1560059 -0.08312988 0.984375
vn 0.6918945 -0.06707764 0.71875
vn 0.1644287 0.01611328 0.9863281
vn 0.9702148 0.09576416 0.22229
vn 0.6918945 0.06707764 0.71875
vn 0.8569336 0.4577637 0.2363281
vn 0.8769531 0.473877 0.08282471
vn 0.473877 0.8769531 0.08282471
vn 0.6245117 0.331543 0.7075195
vn 0.4577637 0.8569336 0.2363281
vn 0.1012573 0.9926758 0.06842041
vn 0.09576416 0.9702148 0.22229
vn 0.331543 0.6245117 0.7075195
vn 0.1560059 0.08312988 0.984375
vn -0.09576416 0.9702148 0.22229
vn 0.01611328 0.1644287 0.9863281
vn 0.06707764 0.6918945 0.71875
vn 0.08312988 0.1560059 0.984375
vn -0.06707764 0.6918945 0.71875
vn -0.331543 0.6245117 0.7075195
vn -0.01611328 0.1644287 0.9863281
vn -0.08312988 0.1560059 0.984375
vn -0.1560059 0.08312988 0.984375
g base_low_0
f 3/3/3 2/2/2 1/1/1
f 2/2/2 3/3/3 4/4/4
f 5/5/5 2/2/2 4/4/4
f 5/5/5 4/4/4 6/6/6
f 7/7/7 5/5/5 6/6/6
f 6/6/6 8/8/8 7/7/7
f 2/2/2 9/9/9 1/1/1
f 1/1/1 9/9/9 10/10/10
f 11/11/11 1/1/1 10/10/10
f 11/11/11 10/10/10 12/12/12
f 13/13/13 11/11/11 12/12/12
f 13/13/13 12/12/12 14/14/14
f 15/15/15 13/13/13 14/14/14
f 16/16/16 15/15/15 14/14/14
f 17/17/17 2/2/2 5/5/5
f 18/18/18 9/9/9 2/2/2
f 17/17/17 18/18/18 2/2/2
f 19/19/19 10/10/10 9/9/9
f 18/18/18 19/19/19 9/9/9
f 20/20/20 12/12/12 10/10/10
f 19/19/19 20/20/20 10/10/10
f 21/21/21 14/14/14 12/12/12
f 20/20/20 21/21/21 12/12/12
f 22/22/22 17/17/17 5/5/5
f 22/22/22 5/5/5 7/7/7
f 23/23/23 16/16/16 14/14/14
f 21/21/21 24/24/24 14/14/14
f 24/24/24 23/23/23 14/14/14
f 16/16/16 23/23/23 25/25/25
f 26/26/26 16/16/16 25/25/25
f 24/24/24 27/27/27 23/23/23
f 27/27/27 25/25/25 23/23/23
f 28/28/28 27/27/27 24/24/24
f 29/29/29 24/24/24 21/21/21
f 29/29/29 28/28/28 24/24/24
f 30/30/30 21/21/21 20/20/20
f 30/30/30 29/29/29 21/21/21
f 25/25/25 31/31/31 26/26/26
f 31/31/31 32/32/32 26/26/26
f 27/27/27 33/33/33 25/25/25
f 33/33/33 31/31/31 25/25/25
f 34/34/34 30/30/30 20/20/20
f 34/34/34 20/20/20 19/19/19
f 30/30/30 34/34/34 35/35/35
f 35/35/35 34/34/34 19/19/19
f 29/29/29 30/30/30 35/35/35
f 35/35/35 19/19/19 18/18/18
f 31/31/31 36/36/36 32/32/32
f 36/36/36 37/37/37 32/32/32
f 37/37/37 36/36/36 38/38/38
f 39/39/39 35/35/35 18/18/18
f 39/39/39 18/18/18 17/17/17
f 40/40/40 29/29/29 35/35/35
f 39/39/39 40/40/40 35/35/35
f 41/41/41 39/39/39 17/17/17
f 41/41/41 17/17/17 22/22/22
f 39/39/39 41/41/41 42/42/42
f 42/42/42 41/41/41 22/22/22
f 40/40/40 39/39/39 42/42/42
f 42/42/42 22/22/22 43/43/43
f 40/40/40 42/42/42 43/43/43
f 43/43/43 22/22/22 7/7/7
f 40/40/40 44/44/44 29/29/29
f 44/44/44 28/28/28 29/29/29
f 43/43/43 7/7/7 45/45/45
f 8/8/8 45/45/45 7/7/7
f 40/40/40 43/43/43 46/46/46
f 46/46/46 43/43/43 45/45/45
f 44/44/44 40/40/40 46/46/46
f 47/47/47 45/45/45 8/8/8
f 46/46/46 45/45/45 47/47/47
f 48/48/48 47/47/47 8/8/8
f 47/47/47 48/48/48 49/49/49
f 50/50/50 46/46/46 47/47/47
f 44/44/44 46/46/46 50/50/50
f 51/51/51 47/47/47 49/49/49
f 50/50/50 47/47/47 51/51/51
f 51/51/51 49/49/49 52/52/52
f 53/53/53 51/51/51 52/52/52
f 52/52/52 38/38/38 53/53/53
f 54/54/54 50/50/50 51/51/51
f 54/54/54 51/51/51 53/53/53
f 55/55/55 44/44/44 50/50/50
f 55/55/55 50/50/50 54/54/54
f 38/38/38 56/56/56 53/53/53
f 36/36/36 56/56/56 38/38/38
f 44/44/44 55/55/55 57/57/57
f 44/44/44 57/57/57 28/28/28
f 58/58/58 54/54/54 53/53/53
f 58/58/58 53/53/53 56/56/56
f 59/59/59 55/55/55 54/54/54
f 55/55/55 59/59/59 57/57/57
f 59/59/59 54/54/54 58/58/58
f 57/57/57 59/59/59 58/58/58
f 60/60/60 58/58/58 56/56/56
f 60/60/60 56/56/56 36/36/36
f 57/57/57 58/58/58 60/60/60
f 61/61/61 60/60/60 36/36/36
f 61/61/61 36/36/36 31/31/31
f 33/33/33 61/61/61 31/31/31
f 62/62/62 57/57/57 60/60/60
f 62/62/62 60/60/60 61/61/61
f 57/57/57 62/62/62 28/28/28
f 63/63/63 62/62/62 61/61/61
f 63/63/63 61/61/61 33/33/33
f 62/62/62 63/63/63 28/28/28
f 64/64/64 63/63/63 33/33/33
f 63/63/63 64/64/64 28/28/28
f 64/64/64 33/33/33 27/27/27
f 28/28/28 64/64/64 27/27/27
