g BeardLowBaseUpper01
v 0.4544387 -0.006409823 -0.4959399
v 0.06152898 0.08734551 -0.8002853
v 0.5148906 0.1662934 -0.441561
v -0.5931004 0.1695584 -0.8165217
v -0.6277856 -0.03113817 -1.060564
v -0.6523004 0.1800925 -1.021543
v -0.5789175 -0.124137 -0.8725176
v -0.5308138 -0.2195545 -1.062283
v -0.5134743 0.1258376 -0.4714067
v -0.5730871 0.3027366 -0.3991038
v -0.5258486 -0.2968553 -0.8525053
v -0.4299782 -0.06247198 -0.5091869
v -0.5120286 0.3315129 -0.3220053
v -0.5191836 -0.4239086 -1.060407
v -0.580674 -0.224112 -1.156412
v -0.610974 -0.4942362 -1.168505
v -0.4668302 -0.3959221 -0.8099408
v -0.4574083 -0.5067982 -1.008712
v -0.3681709 0.09791066 -0.3957687
v -0.2742259 0.1770508 -0.3534935
v -0.3553275 -0.4352332 -0.7149613
v -0.1089142 -0.04014849 -0.3360483
v -0.1668793 0.289607 -0.3427677
v -0.2615162 -0.2114345 -0.4630523
v 0.0060845 0.1283366 -0.3191833
v 0.1131544 0.3390942 -0.3535396
v 0.2162815 0.2263899 -0.3426494
v 0.09997234 -0.03222203 -0.3354436
v 0.3485951 0.1029328 -0.3852945
v -0.02103158 -0.2437268 -0.4087414
v 0.1940061 -0.2100016 -0.4288082
v -0.161048 -0.4325905 -0.6075816
v -0.1267877 -0.5950698 -0.760441
v 0.1601015 -0.7010013 -0.7874901
v 0.07104547 -0.461866 -0.6186426
v 0.3290561 -0.1804302 -0.4926447
v 0.4544387 -0.006409823 -0.4959399
v 0.2157713 -0.423803 -0.6262854
v 0.2510622 -0.7017317 -0.8506228
v 0.4367972 -0.4318072 -0.7953206
v 0.5148906 0.1662934 -0.441561
v 0.5381349 -0.2492478 -0.8398685
v 0.5861505 -0.1071003 -0.9041556
v 0.5347981 -0.2327626 -1.051242
v 0.5050555 -0.4010993 -1.036614
v 0.4434207 -0.5205472 -0.9609382
v 0.4654772 -0.6197688 -1.02489
v 0.3929918 -0.8025256 -0.9850565
v 0.3001299 -0.8678814 -0.8191846
v 0.6101497 -0.813977 -1.034808
v 0.6438925 -0.6517686 -1.13702
v 0.6150215 -0.8178186 -1.059762
v 0.6512445 -0.6429223 -1.211079
v 0.6015603 -0.7702297 -1.169074
v 0.4130103 -0.9144925 -1.208118
v 0.6044331 -0.8362781 -1.03998
v 0.1533353 -0.8585136 -0.7940732
v 0.2401023 -0.9381998 -0.8392851
v 0.3946395 -0.8940383 -1.049266
v 0.5241384 -0.89097 -1.12613
v 0.3926215 -0.9421009 -1.075513
v 0.3060742 -0.8009381 -1.158419
v 0.2793248 -1.056294 -0.9051766
v 0.1986175 -1.070343 -0.956773
v 0.1589939 -1.089683 -0.9123857
v 0.1642349 -0.9634737 -0.9450576
v 0.2529441 -0.7554615 -1.046979
v 0.001833872 -0.7914197 -0.8356732
v 0.0568193 -0.8993039 -0.8955603
v 0.08236288 -0.7082009 -0.955085
v 0.4727172 -0.6425681 -0.7449371
v -0.3835512 -0.6522367 -0.7550551
v 0.07446754 -0.9069678 -0.9120459
v -0.06002706 -0.7398636 -0.939795
v -0.06208791 -0.9037431 -0.892894
v -0.2271591 -0.7430941 -1.005479
v -0.3290316 -0.7557681 -1.11563
v -0.07897843 -0.9067649 -0.9237776
v -0.2061004 -1.072973 -0.9510735
v -0.1635 -1.085459 -0.9222407
v -0.2570619 -0.9414322 -0.8457506
v -0.3719965 -1.013426 -1.006992
v -0.3660895 -0.7945808 -1.141528
v -0.2952646 -1.062045 -0.9080727
v -0.3858134 -0.7951797 -1.028811
v -0.4377187 -0.9049725 -1.068693
v -0.1707091 -0.792428 -0.7816347
v -0.316023 -0.8147982 -0.7976449
v -0.4557619 -0.9471784 -1.097845
v -0.2704138 -0.7128814 -0.8256024
v -0.2632497 -0.5427698 -0.799732
v -0.3801598 -0.6943983 -1.020355
v -0.6345102 -0.6833895 -1.151098
v -0.6108024 -0.8654816 -1.061304
v -0.6343774 -0.8464161 -1.110748
v -0.6389825 -0.7093428 -1.217675
v -0.5172269 -0.8555667 -1.160528
v -0.431962 -0.7493806 -1.23691
v 0.5148906 0.1662934 -0.441561
v 0.06152898 0.08734551 -0.8002853
v 0.5861505 -0.1071003 -0.9041556
v 0.5347981 -0.2327626 -1.051242
v 0.5050555 -0.4010993 -1.036614
v 0.4110112 -0.4930489 -1.303794
v 0.4654772 -0.6197688 -1.02489
v 0.6438925 -0.6517686 -1.13702
v 0.6512445 -0.6429223 -1.211079
v 0.6015603 -0.7702297 -1.169074
v 0.4130103 -0.9144925 -1.208118
v 0.3060742 -0.8009381 -1.158419
v 0.2529441 -0.7554615 -1.046979
v 0.4727172 -0.5085815 -0.8079877
v 0.4727172 -0.6425681 -0.7449371
v -0.3835512 -0.5182502 -0.8181051
v -0.3835512 -0.6522367 -0.7550551
v -0.4969301 -0.4594291 -1.318481
v -0.3290316 -0.7557681 -1.11563
v -0.3660895 -0.7945808 -1.141528
v -0.431962 -0.7493806 -1.23691
v -0.6389825 -0.7093428 -1.217675
v -0.6345102 -0.6833895 -1.151098
v -0.610974 -0.4942362 -1.168505
v -0.580674 -0.224112 -1.156412
v -0.5308138 -0.2195545 -1.062283
v -0.6277856 -0.03113817 -1.060564
v -0.6523004 0.1800925 -1.021543
v -0.5931004 0.1695584 -0.8165217
v -0.5730871 0.3027366 -0.3991038
v -0.5120286 0.3315129 -0.3220053
v -0.2742259 0.1770508 -0.3534935
v -0.1668793 0.289607 -0.3427677
v 0.1131544 0.3390942 -0.3535396
v 0.2162815 0.2263899 -0.3426494
v 0.3485951 0.1029328 -0.3852945
v 0.4544387 -0.006409823 -0.4959399
vt 1.426662 4.456682
vt 2.002945 4.083654
vt 1.401592 4.680607
vt 2.18736 4.953
vt 1.85694 4.89576
vt 2.01654 5.06478
vt 1.96236 4.72464
vt 1.75662 4.7091
vt 2.41692 4.71018
vt 2.5806 4.82856
vt 1.88142 4.5507
vt 2.27958 4.53474
vt 2.64804 4.75338
vt 1.64976 4.52868
vt 1.68522 4.75782
vt 1.50972 4.55694
vt 1.86264 4.42152
vt 1.65786 4.39986
vt 2.47056 4.53714
vt 2.5773 4.48122
vt 1.92558 4.27908
vt 2.45502 4.25616
vt 2.71182 4.4268
vt 2.23668 4.30482
vt 2.6268 4.22496
vt 2.82606 4.2144
vt 2.75268 4.0857
vt 2.5266 4.08174
vt 2.69802 3.91218
vt 2.3115 4.08576
vt 2.41308 3.91182
vt 2.04432 4.09398
vt 1.87926 3.95844
vt 1.94622 3.61824
vt 2.1252 3.85494
vt 2.4807 3.7878
vt 2.65572 3.7392
vt 2.2215 3.73668
vt 2.02002 3.50142
vt 2.34432 3.4656
vt 2.80038 3.7599
vt 2.55804 3.40452
vt 2.72454 3.35028
vt 2.6241 3.23322
vt 2.4462 3.24222
vt 2.2827 3.31692
vt 2.21574 3.25656
vt 1.98858 3.27402
vt 1.90158 3.43212
vt 2.08572 3.10602
vt 2.2656 3.03312
vt 2.07258 3.04986
vt 2.22978 2.90868
vt 2.094 2.94228
vt 1.77798 2.96472
vt 2.03382 3.0918
vt 1.80336 3.55488
vt 1.82532 3.43038
vt 1.87566 3.17634
vt 1.90776 3.0351
vt 1.7784 3.12294
vt 1.5258 3.12048
vt 1.75986 3.33252
vt 1.66704 3.34938
vt 1.6743 3.408
vt 1.58382 3.3996
vt 1.449 3.23496
vt 1.7487 3.69264
vt 1.62432 3.56412
vt 1.3632 3.40578
vt 1.30476 3.25992
vt 1.13898 3.63258
vt 1.56396 3.51072
vt 1.33104 3.5472
vt 1.5789 3.67266
vt 1.21278 3.69576
vt 1.13772 3.84084
vt 1.48374 3.64314
vt 1.42098 3.81264
vt 1.47234 3.78756
vt 1.56558 3.8988
vt 1.35264 3.98058
vt 1.13628 3.95646
vt 1.4511 3.90372
vt 1.51194 4.16274
vt 1.38714 4.1043
vt 1.71888 3.87402
vt 1.64568 3.99816
vt 1.28886 4.06746
vt 1.72326 4.05438
vt 1.83732 4.1439
vt 1.5759 4.22682
vt 1.35996 4.41756
vt 1.33614 4.22862
vt 1.2882 4.26588
vt 1.2288 4.40076
vt 1.19232 4.16268
vt 1.07136 4.18596
vt 1.401592 4.680607
vt 2.002945 4.083654
vt 1.244128 4.149321
vt 1.271069 3.922976
vt 1.261047 3.750363
vt 1.34744 3.479949
vt 1.249142 3.521742
vt 1.029879 3.46622
vt 1.023569 3.434603
vt 1.048099 3.315431
vt 1.23206 3.099629
vt 1.388788 3.220426
vt 1.463722 3.318898
vt 1.644018 3.50277
vt 1.608086 3.40043
vt 2.056069 3.404533
vt 2.020138 3.302193
vt 2.428598 3.293118
vt 2.150866 3.142566
vt 2.184217 3.078884
vt 2.274124 3.055425
vt 2.52932 3.059247
vt 2.531 3.125322
vt 2.553933 3.316403
vt 2.590593 3.609702
vt 2.532938 3.68012
vt 2.697975 3.85312
vt 2.78357 4.088115
vt 2.710838 4.208744
vt 2.72292 4.59059
vt 2.658536 4.678904
vt 2.336305 4.55699
vt 2.239729 4.704702
vt 1.922323 4.815425
vt 1.770321 4.729373
vt 1.580971 4.608345
vt 1.426662 4.456682
vn 0.5335163 -0.199067 0.8220295
vn 0.1706687 0.66549 -0.7266327
vn 0.3615573 0.6234149 0.693275
vn -0.72326 0.6860405 0.07901417
vn -0.7335121 0.09656064 -0.6727823
vn -0.6162291 0.605732 -0.5033394
vn -0.9580226 -0.2421884 0.1534188
vn -0.8844022 0.2129147 -0.4153314
vn -0.8647311 -0.3761207 0.3328266
vn -0.822342 0.5292761 0.208855
vn -0.9292125 -0.304727 0.209059
vn -0.6130079 -0.4235366 0.666962
vn -0.3007125 0.6594828 0.6889517
vn -0.8737571 -0.1527536 0.461752
vn -0.4322162 0.8704377 -0.2356422
vn -0.9967391 0.03040037 0.07474634
vn -0.7449144 -0.5318227 0.402824
vn -0.7453841 -0.4216585 0.5163397
vn -0.3076919 -0.3562526 0.8822753
vn -0.06052182 0.4108192 0.9097059
vn -0.5306165 -0.6367147 0.5595002
vn -0.1678049 -0.2342448 0.9575861
vn -0.4709011 0.7816236 0.4090438
vn -0.4137833 -0.4795036 0.7738601
vn -0.00179235 0.02086606 0.9997807
vn 0.2867122 0.8952177 0.3411473
vn 0.626417 0.5464628 0.5558597
vn 0.1539098 -0.2218806 0.9628503
vn 0.7468782 0.4216885 0.5141515
vn -0.03683831 -0.5356573 0.8436316
vn 0.3117214 -0.4879087 0.8153372
vn -0.2372563 -0.6591449 0.7136087
vn -0.2068386 -0.4680457 0.8591572
vn 0.1839107 -0.3113538 0.9323281
vn 0.07405997 -0.6156266 0.7845502
vn 0.5282114 -0.4543579 0.7173225
vn 0.5335163 -0.199067 0.8220295
vn 0.2889872 -0.5827978 0.7594953
vn 0.6654429 -0.1165295 0.7372968
vn 0.7438435 -0.4861244 0.4586719
vn 0.3615573 0.6234149 0.693275
vn 0.9220784 -0.3171776 0.2217427
vn 0.8571514 0.3852729 -0.3418423
vn 0.4858418 0.1078652 -0.8673654
vn 0.947204 0.06734282 -0.3134796
vn 0.828011 -0.3514367 0.4369097
vn 0.7237011 0.2912127 0.6256611
vn 0.5831625 -0.2016287 0.7869353
vn 0.6629957 -0.2584202 0.7026064
vn 0.6878356 -0.07644664 0.7218298
vn 0.818554 0.4460097 0.362001
vn 0.8901746 -0.4474349 -0.08597124
vn 0.8088223 0.2431096 -0.5354477
vn 0.6205406 -0.4764311 -0.6228504
vn -0.1130046 -0.7179055 -0.6869074
vn 0.6116927 -0.6678033 0.4241117
vn -0.1633252 -0.2839793 0.9448178
vn 0.3853185 -0.4372555 0.8126114
vn 0.5941185 -0.4644195 0.6567631
vn 0.7638132 -0.4386421 -0.4734793
vn 0.3640391 -0.9295847 -0.05786073
vn -0.7431449 -0.179858 -0.644505
vn 0.5646636 -0.7106919 0.4196094
vn -0.2298482 -0.7426143 -0.629042
vn -0.4795255 -0.8728248 0.09073134
vn -0.6089574 -0.1669973 -0.7754244
vn -0.7760216 0.4289005 -0.4624227
vn -0.01801843 -0.4005238 0.9161093
vn -0.3348544 -0.72548 0.6012914
vn -0.1757597 0.5821603 -0.7938501
vn -0.5709251 0.4788004 -0.6669292
vn 0.5245264 0.420769 -0.7401522
vn -0.442616 -0.373608 -0.8151736
vn 0.009082782 0.3608607 -0.9325755
vn 0.3176065 -0.7685305 0.555416
vn 0.4278191 0.6093486 -0.6675816
vn 0.8057259 0.1047281 -0.5829561
vn 0.4585803 -0.3863653 -0.8002661
vn 0.1477581 -0.7297448 -0.6675628
vn 0.5262631 -0.8478223 0.06514966
vn -0.3225841 -0.4081441 0.8540245
vn -0.6040148 -0.7473564 -0.2768115
vn 0.6216724 -0.3688708 -0.6909832
vn -0.4941597 -0.723768 0.4816285
vn -0.6635912 0.01361726 0.7479714
vn -0.447569 -0.241945 0.8608975
vn 0.115128 -0.2867215 0.9510711
vn -0.6890129 -0.09898366 0.7179579
vn -0.1424642 -0.960488 -0.2390957
vn -0.7677103 0.2478336 0.590931
vn -0.5729995 -0.5374139 0.6187552
vn -0.7389264 -0.1180073 0.6633718
vn -0.8605661 0.2613008 0.4372046
vn -0.6133646 -0.4014671 0.6801528
vn -0.875104 -0.4643875 -0.136152
vn -0.7914927 -0.103067 -0.6024256
vn -0.09357949 -0.6040146 -0.7914602
vn 0.4075101 -0.3518087 -0.8427136
vn 0.3615573 0.6234149 0.693275
vn 0.1706687 0.66549 -0.7266327
vn 0.8571514 0.3852729 -0.3418423
vn 0.4858418 0.1078652 -0.8673654
vn 0.947204 0.06734282 -0.3134796
vn -0.2682826 0.6030279 -0.7512534
vn 0.7237011 0.2912127 0.6256611
vn 0.818554 0.4460097 0.362001
vn 0.8088223 0.2431096 -0.5354477
vn 0.6205406 -0.4764311 -0.6228504
vn -0.1130046 -0.7179055 -0.6869074
vn -0.7431449 -0.179858 -0.644505
vn -0.7760216 0.4289005 -0.4624227
vn -0.8394454 -0.1287861 -0.5279637
vn -0.5709251 0.4788004 -0.6669292
vn 0.7344084 -0.2014991 -0.6481067
vn 0.5245264 0.420769 -0.7401522
vn 0.1299115 0.1064582 -0.985794
vn 0.8057259 0.1047281 -0.5829561
vn 0.6216724 -0.3688708 -0.6909832
vn 0.4075101 -0.3518087 -0.8427136
vn -0.7914927 -0.103067 -0.6024256
vn -0.8605661 0.2613008 0.4372046
vn -0.9967391 0.03040037 0.07474634
vn -0.4322162 0.8704377 -0.2356422
vn -0.8844022 0.2129147 -0.4153314
vn -0.7335121 0.09656064 -0.6727823
vn -0.6162291 0.605732 -0.5033394
vn -0.72326 0.6860405 0.07901417
vn -0.822342 0.5292761 0.208855
vn -0.3007125 0.6594828 0.6889517
vn -0.06052182 0.4108192 0.9097059
vn -0.4709011 0.7816236 0.4090438
vn 0.2867122 0.8952177 0.3411473
vn 0.626417 0.5464628 0.5558597
vn 0.7468782 0.4216885 0.5141515
vn 0.5335163 -0.199067 0.8220295
g BeardLowBaseUpper01_0
f 3/3/3 2/2/2 1/1/1
f 6/6/6 5/5/5 4/4/4
f 4/4/4 5/5/5 7/7/7
f 5/5/5 8/8/8 7/7/7
f 4/4/4 7/7/7 9/9/9
f 10/10/10 4/4/4 9/9/9
f 7/7/7 8/8/8 11/11/11
f 9/9/9 7/7/7 11/11/11
f 10/10/10 9/9/9 12/12/12
f 12/12/12 13/13/13 10/10/10
f 8/8/8 14/14/14 11/11/11
f 8/8/8 15/15/15 14/14/14
f 16/16/16 14/14/14 15/15/15
f 17/17/17 9/9/9 11/11/11
f 17/17/17 11/11/11 14/14/14
f 12/12/12 9/9/9 17/17/17
f 17/17/17 14/14/14 18/18/18
f 16/16/16 18/18/18 14/14/14
f 12/12/12 19/19/19 13/13/13
f 13/13/13 19/19/19 20/20/20
f 12/12/12 17/17/17 21/21/21
f 21/21/21 17/17/17 18/18/18
f 19/19/19 22/22/22 20/20/20
f 20/20/20 22/22/22 23/23/23
f 12/12/12 24/24/24 19/19/19
f 24/24/24 12/12/12 21/21/21
f 24/24/24 22/22/22 19/19/19
f 23/23/23 22/22/22 25/25/25
f 23/23/23 25/25/25 26/26/26
f 26/26/26 25/25/25 27/27/27
f 25/25/25 28/28/28 27/27/27
f 22/22/22 28/28/28 25/25/25
f 28/28/28 29/29/29 27/27/27
f 24/24/24 30/30/30 22/22/22
f 22/22/22 30/30/30 28/28/28
f 29/29/29 28/28/28 31/31/31
f 31/31/31 28/28/28 30/30/30
f 30/30/30 24/24/24 32/32/32
f 24/24/24 21/21/21 32/32/32
f 33/33/33 32/32/32 21/21/21
f 32/32/32 33/33/33 34/34/34
f 30/30/30 32/32/32 35/35/35
f 35/35/35 31/31/31 30/30/30
f 35/35/35 32/32/32 34/34/34
f 31/31/31 36/36/36 29/29/29
f 37/37/37 29/29/29 36/36/36
f 38/38/38 31/31/31 35/35/35
f 35/35/35 34/34/34 38/38/38
f 36/36/36 31/31/31 38/38/38
f 39/39/39 36/36/36 38/38/38
f 39/39/39 38/38/38 34/34/34
f 40/40/40 37/37/37 36/36/36
f 40/40/40 36/36/36 39/39/39
f 40/40/40 41/41/41 37/37/37
f 42/42/42 41/41/41 40/40/40
f 42/42/42 43/43/43 41/41/41
f 42/42/42 44/44/44 43/43/43
f 45/45/45 44/44/44 42/42/42
f 46/46/46 42/42/42 40/40/40
f 45/45/45 42/42/42 46/46/46
f 39/39/39 46/46/46 40/40/40
f 47/47/47 45/45/45 46/46/46
f 47/47/47 46/46/46 39/39/39
f 47/47/47 39/39/39 48/48/48
f 39/39/39 34/34/34 49/49/49
f 49/49/49 48/48/48 39/39/39
f 47/47/47 48/48/48 50/50/50
f 51/51/51 47/47/47 50/50/50
f 50/50/50 52/52/52 51/51/51
f 52/52/52 53/53/53 51/51/51
f 52/52/52 54/54/54 53/53/53
f 55/55/55 54/54/54 52/52/52
f 56/56/56 52/52/52 50/50/50
f 48/48/48 56/56/56 50/50/50
f 55/55/55 52/52/52 56/56/56
f 57/57/57 49/49/49 34/34/34
f 49/49/49 58/58/58 48/48/48
f 57/57/57 58/58/58 49/49/49
f 48/48/48 59/59/59 56/56/56
f 59/59/59 48/48/48 58/58/58
f 56/56/56 60/60/60 55/55/55
f 56/56/56 59/59/59 60/60/60
f 55/55/55 60/60/60 61/61/61
f 60/60/60 59/59/59 61/61/61
f 55/55/55 61/61/61 62/62/62
f 63/63/63 59/59/59 58/58/58
f 63/63/63 61/61/61 59/59/59
f 61/61/61 64/64/64 62/62/62
f 63/63/63 64/64/64 61/61/61
f 65/65/65 63/63/63 58/58/58
f 65/65/65 64/64/64 63/63/63
f 65/65/65 58/58/58 57/57/57
f 62/62/62 64/64/64 66/66/66
f 64/64/64 65/65/65 66/66/66
f 62/62/62 66/66/66 67/67/67
f 68/68/68 57/57/57 34/34/34
f 33/33/33 68/68/68 34/34/34
f 69/69/69 65/65/65 57/57/57
f 69/69/69 57/57/57 68/68/68
f 70/70/70 67/67/67 66/66/66
f 70/70/70 71/71/71 67/67/67
f 72/72/72 71/71/71 70/70/70
f 73/73/73 66/66/66 65/65/65
f 69/69/69 73/73/73 65/65/65
f 70/70/70 66/66/66 73/73/73
f 74/74/74 72/72/72 70/70/70
f 70/70/70 73/73/73 74/74/74
f 75/75/75 73/73/73 69/69/69
f 69/69/69 68/68/68 75/75/75
f 76/76/76 72/72/72 74/74/74
f 72/72/72 76/76/76 77/77/77
f 73/73/73 78/78/78 74/74/74
f 74/74/74 78/78/78 76/76/76
f 75/75/75 78/78/78 73/73/73
f 76/76/76 79/79/79 77/77/77
f 76/76/76 78/78/78 79/79/79
f 80/80/80 78/78/78 75/75/75
f 78/78/78 80/80/80 79/79/79
f 75/75/75 68/68/68 81/81/81
f 80/80/80 75/75/75 81/81/81
f 79/79/79 82/82/82 77/77/77
f 77/77/77 82/82/82 83/83/83
f 84/84/84 79/79/79 80/80/80
f 81/81/81 84/84/84 80/80/80
f 82/82/82 79/79/79 84/84/84
f 81/81/81 85/85/85 84/84/84
f 84/84/84 85/85/85 86/86/86
f 82/82/82 84/84/84 86/86/86
f 68/68/68 87/87/87 81/81/81
f 87/87/87 68/68/68 33/33/33
f 88/88/88 81/81/81 87/87/87
f 88/88/88 85/85/85 81/81/81
f 88/88/88 87/87/87 33/33/33
f 89/89/89 83/83/83 82/82/82
f 82/82/82 86/86/86 89/89/89
f 90/90/90 88/88/88 33/33/33
f 90/90/90 85/85/85 88/88/88
f 90/90/90 33/33/33 91/91/91
f 91/91/91 33/33/33 21/21/21
f 91/91/91 21/21/21 18/18/18
f 91/91/91 92/92/92 90/90/90
f 92/92/92 91/91/91 18/18/18
f 92/92/92 85/85/85 90/90/90
f 16/16/16 92/92/92 18/18/18
f 85/85/85 92/92/92 16/16/16
f 16/16/16 93/93/93 85/85/85
f 85/85/85 94/94/94 86/86/86
f 93/93/93 94/94/94 85/85/85
f 94/94/94 89/89/89 86/86/86
f 93/93/93 95/95/95 94/94/94
f 94/94/94 95/95/95 89/89/89
f 93/93/93 96/96/96 95/95/95
f 89/89/89 95/95/95 97/97/97
f 96/96/96 97/97/97 95/95/95
f 83/83/83 89/89/89 97/97/97
f 98/98/98 97/97/97 96/96/96
f 97/97/97 98/98/98 83/83/83
f 101/101/101 100/100/100 99/99/99
f 102/102/102 100/100/100 101/101/101
f 103/103/103 100/100/100 102/102/102
f 104/104/104 100/100/100 103/103/103
f 105/105/105 104/104/104 103/103/103
f 106/106/106 104/104/104 105/105/105
f 107/107/107 104/104/104 106/106/106
f 108/108/108 104/104/104 107/107/107
f 109/109/109 104/104/104 108/108/108
f 110/110/110 104/104/104 109/109/109
f 111/111/111 104/104/104 110/110/110
f 112/112/112 104/104/104 111/111/111
f 112/112/112 100/100/100 104/104/104
f 113/113/113 112/112/112 111/111/111
f 114/114/114 112/112/112 113/113/113
f 114/114/114 100/100/100 112/112/112
f 115/115/115 114/114/114 113/113/113
f 116/116/116 114/114/114 115/115/115
f 116/116/116 100/100/100 114/114/114
f 117/117/117 116/116/116 115/115/115
f 118/118/118 116/116/116 117/117/117
f 119/119/119 116/116/116 118/118/118
f 120/120/120 116/116/116 119/119/119
f 121/121/121 116/116/116 120/120/120
f 122/122/122 116/116/116 121/121/121
f 123/123/123 116/116/116 122/122/122
f 124/124/124 116/116/116 123/123/123
f 100/100/100 116/116/116 124/124/124
f 125/125/125 100/100/100 124/124/124
f 126/126/126 100/100/100 125/125/125
f 127/127/127 100/100/100 126/126/126
f 128/128/128 100/100/100 127/127/127
f 129/129/129 100/100/100 128/128/128
f 130/130/130 100/100/100 129/129/129
f 131/131/131 100/100/100 130/130/130
f 132/132/132 100/100/100 131/131/131
f 133/133/133 100/100/100 132/132/132
f 134/134/134 100/100/100 133/133/133
f 135/135/135 100/100/100 134/134/134
