g BeardSwirlsUpper01
v 0.02948466 -0.8114268 -0.7456677
v 0.1383412 -0.7866842 -0.6345639
v 0.1708077 -0.8372682 -0.6561434
v 0.06726294 -0.8628085 -0.7713769
v 0.203469 -0.9136297 -0.670688
v 0.1280143 -0.960472 -0.7910686
v 0.2548168 -0.9856169 -0.6678454
v 0.2268428 -1.06584 -0.786299
v 0.3046598 -1.030404 -0.6550408
v 0.321887 -1.128333 -0.7624036
v 0.3439212 -1.055851 -0.6382412
v 0.4001698 -1.16185 -0.7298906
v 0.3813114 -1.062964 -0.609796
v 0.4519328 -1.170265 -0.6942343
v -0.1637583 -0.7830228 -0.7424929
v -0.008269927 -0.8012485 -0.7252869
v -0.03251727 -0.8783699 -0.7434132
v -0.1690782 -0.8341124 -0.7188875
v -0.08238447 -0.9669185 -0.7657883
v -0.1834832 -0.8897167 -0.7000735
v -0.1381005 -1.031837 -0.7709957
v -0.2103241 -0.9329048 -0.6854946
v -0.1983102 -1.075145 -0.7701278
v -0.2424343 -0.960781 -0.6818416
v -0.2751168 -1.097213 -0.766391
v -0.281292 -0.9738377 -0.680905
v -0.3516767 -1.105016 -0.7584713
v -0.3266886 -0.9791397 -0.6770585
v -0.4136312 -1.100956 -0.7470607
v -0.377535 -0.9753797 -0.6675305
v 0.6114007 -0.7133454 -1.071321
v 0.6465195 -0.5838776 -0.9888018
v 0.6846794 -0.5836137 -1.005245
v 0.7013096 -0.6923628 -1.096958
v 0.7604916 -0.5525759 -0.9857323
v 0.8409077 -0.6309856 -1.080324
v 0.8508073 -0.4936881 -0.938024
v 0.935055 -0.5740287 -1.032735
v 0.941123 -0.4348004 -0.8903143
v 1.029202 -0.5170717 -0.9851468
v 0.5073639 -0.9587271 -0.937999
v 0.6332949 -0.8786234 -1.02668
v 0.5644938 -0.8769389 -1.059866
v 0.5738983 -0.9779038 -0.9265198
v 0.7635965 -0.8947312 -0.933871
v 0.6858287 -1.003994 -0.8653135
v 0.8713257 -0.9216137 -0.8422065
v 0.7804449 -1.029739 -0.794166
v 0.9440583 -0.9467264 -0.7719091
v 0.8490125 -1.052277 -0.7350307
v 0.9892204 -0.9686 -0.7212291
v 0.8942983 -1.072834 -0.6869463
v 0.04895586 -0.7187575 -0.933899
v 0.1853203 -0.7920724 -0.9628025
v 0.1528021 -0.8445698 -0.9790884
v 0.01446669 -0.7739578 -0.9560739
v 0.1127578 -0.9187269 -0.9816486
v -0.03146181 -0.879724 -0.9739818
v 0.09484455 -1.004945 -0.9901507
v -0.04951931 -1.020043 -1.00359
v 0.09828522 -1.071934 -1.002593
v -0.03165229 -1.130081 -1.036489
v 0.1113676 -1.118856 -1.012512
v 0.002459564 -1.210185 -1.063478
v 0.1424875 -1.153556 -1.02174
v 0.043313 -1.256184 -1.078859
v -0.2160376 -0.8609587 -1.144318
v -0.1792521 -0.7635071 -0.9831354
v -0.1048945 -0.8304254 -0.9595883
v -0.2030522 -0.9105981 -1.093073
v -0.02365252 -0.9232498 -0.952796
v -0.1836524 -0.9685229 -1.049851
v 0.01851969 -1.009934 -0.9561386
v -0.1727069 -1.025284 -1.029864
v 0.0357635 -1.086737 -0.9751313
v -0.1632416 -1.070882 -1.034047
v 0.02867689 -1.161834 -1.022344
v -0.1642834 -1.109876 -1.057212
v 0.005800866 -1.228053 -1.076977
v -0.1763824 -1.149307 -1.08973
v -0.02639877 -1.276059 -1.125287
v -0.2033245 -1.188458 -1.129583
v 0.2100311 -0.9377593 -0.8560333
v 0.2925754 -0.8345941 -0.7703147
v 0.3160315 -0.8434576 -0.7976227
v 0.2695755 -0.9126274 -0.9131085
v 0.3421406 -0.8498948 -0.8039947
v 0.3543733 -0.8866472 -0.9381834
v 0.4086572 -0.8295527 -0.779899
v 0.4674521 -0.8411072 -0.9117186
v 0.47447 -0.8036944 -0.7478054
v 0.5675699 -0.7940502 -0.858932
v 0.5207279 -0.783847 -0.7162982
v 0.6390498 -0.7560569 -0.799606
v 0.5502896 -0.7672004 -0.672206
v 0.6768847 -0.7327628 -0.7429674
v -0.2758943 -0.9512666 -0.8630528
v -0.1122537 -0.9382559 -0.8144192
v -0.1680124 -0.9288169 -0.91036
v -0.2615262 -0.9433205 -0.888415
v -0.3052177 -0.9215135 -0.9698192
v -0.3120615 -0.9186939 -0.8820097
v -0.4703507 -0.9040337 -0.9613664
v -0.4197284 -0.8749739 -0.8340253
v -0.6147168 -0.8804308 -0.9267471
v -0.5352423 -0.821325 -0.7843517
v -0.6697623 -0.8585672 -0.9163691
v -0.6116931 -0.769031 -0.7817696
v -0.7248071 -0.8367032 -0.905991
v -0.6881455 -0.7167362 -0.7791863
vt 0.8755 0.5
vt 0.813 0.5
vt 0.813 0.4338789
vt 0.8755 0.4338789
vt 0.813 0.3336647
vt 0.8755 0.3336647
vt 0.813 0.2174953
vt 0.8755 0.2174953
vt 0.813 0.1255343
vt 0.8755 0.1255343
vt 0.813 0.05530503
vt 0.8755 0.05530503
vt 0.813 0
vt 0.8755 0
vt 0.8755 0.5
vt 0.813 0.5
vt 0.813 0.4241313
vt 0.8755 0.4241313
vt 0.813 0.3345896
vt 0.8755 0.3345895
vt 0.813 0.2591431
vt 0.8755 0.2591431
vt 0.813 0.1955377
vt 0.8755 0.1955377
vt 0.813 0.1296719
vt 0.8755 0.1296719
vt 0.813 0.06259471
vt 0.8755 0.06259471
vt 0.813 2.980232E-08
vt 0.8755 2.980232E-08
vt 0.8755 0.5
vt 0.813 0.5
vt 0.813 0.4192459
vt 0.8755 0.4192459
vt 0.813 0.2795659
vt 0.8755 0.2795659
vt 0.813 0.1397829
vt 0.8755 0.1397829
vt 0.813 2.980232E-08
vt 0.8755 2.980232E-08
vt 0.8755 0.5
vt 0.813 0.4295731
vt 0.813 0.5
vt 0.8755 0.4295731
vt 0.813 0.2897714
vt 0.8755 0.2897714
vt 0.813 0.1623969
vt 0.8755 0.1623969
vt 0.813 0.06749815
vt 0.8755 0.06749815
vt 0.813 0
vt 0.8755 0
vt 0.8755 0.5
vt 0.813 0.5
vt 0.813 0.4338789
vt 0.8755 0.4338789
vt 0.813 0.3336647
vt 0.8755 0.3336647
vt 0.813 0.2174953
vt 0.8755 0.2174953
vt 0.813 0.1255343
vt 0.8755 0.1255343
vt 0.813 0.05530503
vt 0.8755 0.05530503
vt 0.813 0
vt 0.8755 0
vt 0.8755 0.5
vt 0.813 0.5
vt 0.813 0.4241313
vt 0.8755 0.4241313
vt 0.813 0.3345896
vt 0.8755 0.3345895
vt 0.813 0.2591431
vt 0.8755 0.2591431
vt 0.813 0.1955377
vt 0.8755 0.1955377
vt 0.813 0.1296719
vt 0.8755 0.1296719
vt 0.813 0.06259471
vt 0.8755 0.06259471
vt 0.813 2.980232E-08
vt 0.8755 2.980232E-08
vt 0.8755 0.5
vt 0.813 0.5
vt 0.813 0.433642
vt 0.8755 0.433642
vt 0.813 0.3691669
vt 0.8755 0.3691669
vt 0.813 0.2624137
vt 0.8755 0.2624137
vt 0.813 0.1546551
vt 0.8755 0.1546551
vt 0.813 0.06868339
vt 0.8755 0.06868339
vt 0.813 0
vt 0.8755 0
vt 0.8755 0.5
vt 0.813 0.5
vt 0.813 0.4425624
vt 0.8755 0.4425624
vt 0.813 0.3588721
vt 0.8755 0.3588721
vt 0.813 0.2404152
vt 0.8755 0.2404152
vt 0.813 0.1239703
vt 0.8755 0.1239703
vt 0.813 0.06198516
vt 0.8755 0.06198516
vt 0.813 0
vt 0.8755 0
vn -0.4925119 -0.6362405 0.5938267
vn -0.5056952 -0.5922039 0.627349
vn -0.5723525 -0.5089239 0.6429688
vn -0.5620334 -0.5666721 0.6024957
vn -0.6495215 -0.4471687 0.6149488
vn -0.6353613 -0.5174594 0.5731944
vn -0.6451993 -0.5305972 0.5497131
vn -0.6048181 -0.6001809 0.5234291
vn -0.6100194 -0.6118672 0.5034826
vn -0.5426924 -0.6740122 0.501191
vn -0.5519516 -0.6744604 0.4903596
vn -0.4913589 -0.7083081 0.5068197
vn -0.5018812 -0.7047303 0.5014684
vn -0.4713288 -0.7157395 0.515331
vn 0.1574425 0.2073936 0.9655049
vn -0.1297706 -0.1880199 0.9735544
vn 0.01648778 -0.1729611 0.9847906
vn 0.3559578 0.175425 0.9178889
vn 0.2734791 -0.2725368 0.9224603
vn 0.5867439 -0.04950516 0.808258
vn 0.3709923 -0.3880753 0.8436601
vn 0.5551324 -0.2957703 0.7773982
vn 0.2790659 -0.5058154 0.8162555
vn 0.3404248 -0.489797 0.8026268
vn 0.1687971 -0.5550648 0.8145002
vn 0.1728784 -0.5541339 0.8142781
vn 0.1268445 -0.5569775 0.8207841
vn 0.1248697 -0.5559442 0.8217868
vn 0.1148716 -0.5553127 0.8236701
vn 0.1134485 -0.5546621 0.8243054
vn 0.3423165 -0.5727291 0.7448494
vn 0.3286342 -0.5694098 0.7535064
vn 0.2019719 -0.6099141 0.7662978
vn 0.2583322 -0.6151072 0.7449211
vn 0.123099 -0.6859931 0.7171193
vn 0.1477306 -0.6931962 0.7054465
vn 0.09855853 -0.7164541 0.6906371
vn 0.08798052 -0.7171595 0.6913334
vn 0.09120508 -0.7140362 0.6941425
vn 0.0809327 -0.7144526 0.6949874
vn 0.01116383 -0.7498692 -0.6614919
vn 0.2220411 -0.7964141 -0.5625142
vn 0.2085473 -0.8545154 -0.4757222
vn 0.1085492 -0.7076051 -0.6982206
vn 0.3324326 -0.6897185 -0.6432549
vn 0.3092788 -0.6406003 -0.7028356
vn 0.3919513 -0.6411541 -0.6597694
vn 0.3810577 -0.6151639 -0.6901944
vn 0.4212253 -0.6215701 -0.6604694
vn 0.4143477 -0.6069614 -0.6781694
vn 0.4328473 -0.6168404 -0.657382
vn 0.4297021 -0.6102193 -0.6655738
vn -0.01274645 -0.3473115 0.9376632
vn 0.0321505 -0.3142517 0.9487951
vn 0.06559918 -0.2149664 0.9744158
vn 0.007208493 -0.2551116 0.9668847
vn 0.04988137 -0.1149891 0.9921136
vn -0.01470699 -0.1666995 0.985898
vn -0.04330041 -0.1650255 0.9853383
vn -0.08671728 -0.235585 0.9679772
vn -0.110255 -0.2364451 0.9653692
vn -0.1220411 -0.3232518 0.9384105
vn -0.1338831 -0.3154053 0.9394651
vn -0.1184479 -0.3812636 0.9168468
vn -0.1242865 -0.37096 0.9202942
vn -0.1089739 -0.4009413 0.9095991
vn -0.8546259 -0.02650352 0.5185675
vn -0.6632375 -0.5637686 0.4922206
vn -0.6572952 -0.4305702 0.6185243
vn -0.766049 0.1809812 0.6167777
vn -0.5151581 -0.2557889 0.8180368
vn -0.4952075 0.2579375 0.829601
vn -0.3758755 -0.2329888 0.8969024
vn -0.3441537 0.0515221 0.9374987
vn -0.3027284 -0.3868206 0.8710485
vn -0.2911912 -0.3149202 0.9033454
vn -0.2860323 -0.5182378 0.8059869
vn -0.2866653 -0.518854 0.8053654
vn -0.2946294 -0.558466 0.7754413
vn -0.297356 -0.5620567 0.7717978
vn -0.2999389 -0.5695823 0.7652533
vn -0.3010608 -0.5705779 0.7640702
vn 0.5365565 -0.7888145 0.299798
vn 0.3617229 -0.7497824 0.5540603
vn 0.2167512 -0.8275983 0.5177838
vn 0.4401289 -0.8520546 0.2833541
vn 0.1262636 -0.9185342 0.3746365
vn 0.3174194 -0.9125122 0.2580047
vn 0.2610325 -0.9382318 0.2271197
vn 0.3149251 -0.9254418 0.2106645
vn 0.2949843 -0.9376011 0.1840877
vn 0.3301019 -0.925694 0.1847247
vn 0.3139957 -0.936478 0.1562554
vn 0.3379554 -0.9268643 0.1634279
vn 0.3244699 -0.9348256 0.1442927
vn 0.3391008 -0.9278775 0.1550939
vn 0.1107132 -0.9717038 -0.2086487
vn 0.1284174 -0.9769108 -0.170746
vn 0.1124862 -0.9711177 -0.2104216
vn -0.02967228 -0.9751341 -0.2196198
vn -0.1382414 -0.9882934 -0.06453866
vn -0.277281 -0.9568242 0.08719292
vn -0.1354252 -0.9634571 0.2311069
vn -0.1931616 -0.9189938 0.3437132
vn -0.2012047 -0.8787583 0.4327823
vn -0.2932498 -0.7926639 0.5344983
vn -0.2503677 -0.7847437 0.5670038
vn -0.3904225 -0.6525331 0.6494389
vn -0.255317 -0.7322324 0.6313865
vn -0.392975 -0.6085625 0.6893637
g BeardSwirlsUpper01_0
f 3/3/3 2/2/2 1/1/1
f 4/4/4 3/3/3 1/1/1
f 5/5/5 3/3/3 4/4/4
f 6/6/6 5/5/5 4/4/4
f 7/7/7 5/5/5 6/6/6
f 8/8/8 7/7/7 6/6/6
f 9/9/9 7/7/7 8/8/8
f 10/10/10 9/9/9 8/8/8
f 11/11/11 9/9/9 10/10/10
f 12/12/12 11/11/11 10/10/10
f 13/13/13 11/11/11 12/12/12
f 14/14/14 13/13/13 12/12/12
f 17/17/17 16/16/16 15/15/15
f 18/18/18 17/17/17 15/15/15
f 19/19/19 17/17/17 18/18/18
f 20/20/20 19/19/19 18/18/18
f 21/21/21 19/19/19 20/20/20
f 22/22/22 21/21/21 20/20/20
f 23/23/23 21/21/21 22/22/22
f 24/24/24 23/23/23 22/22/22
f 25/25/25 23/23/23 24/24/24
f 26/26/26 25/25/25 24/24/24
f 27/27/27 25/25/25 26/26/26
f 28/28/28 27/27/27 26/26/26
f 29/29/29 27/27/27 28/28/28
f 30/30/30 29/29/29 28/28/28
f 33/33/33 32/32/32 31/31/31
f 34/34/34 33/33/33 31/31/31
f 35/35/35 33/33/33 34/34/34
f 36/36/36 35/35/35 34/34/34
f 37/37/37 35/35/35 36/36/36
f 38/38/38 37/37/37 36/36/36
f 39/39/39 37/37/37 38/38/38
f 40/40/40 39/39/39 38/38/38
f 43/43/43 42/42/42 41/41/41
f 42/42/42 44/44/44 41/41/41
f 42/42/42 45/45/45 44/44/44
f 45/45/45 46/46/46 44/44/44
f 45/45/45 47/47/47 46/46/46
f 47/47/47 48/48/48 46/46/46
f 47/47/47 49/49/49 48/48/48
f 49/49/49 50/50/50 48/48/48
f 49/49/49 51/51/51 50/50/50
f 51/51/51 52/52/52 50/50/50
f 55/55/55 54/54/54 53/53/53
f 56/56/56 55/55/55 53/53/53
f 57/57/57 55/55/55 56/56/56
f 58/58/58 57/57/57 56/56/56
f 59/59/59 57/57/57 58/58/58
f 60/60/60 59/59/59 58/58/58
f 61/61/61 59/59/59 60/60/60
f 62/62/62 61/61/61 60/60/60
f 63/63/63 61/61/61 62/62/62
f 64/64/64 63/63/63 62/62/62
f 65/65/65 63/63/63 64/64/64
f 66/66/66 65/65/65 64/64/64
f 69/69/69 68/68/68 67/67/67
f 70/70/70 69/69/69 67/67/67
f 71/71/71 69/69/69 70/70/70
f 72/72/72 71/71/71 70/70/70
f 73/73/73 71/71/71 72/72/72
f 74/74/74 73/73/73 72/72/72
f 75/75/75 73/73/73 74/74/74
f 76/76/76 75/75/75 74/74/74
f 77/77/77 75/75/75 76/76/76
f 78/78/78 77/77/77 76/76/76
f 79/79/79 77/77/77 78/78/78
f 80/80/80 79/79/79 78/78/78
f 81/81/81 79/79/79 80/80/80
f 82/82/82 81/81/81 80/80/80
f 85/85/85 84/84/84 83/83/83
f 86/86/86 85/85/85 83/83/83
f 87/87/87 85/85/85 86/86/86
f 88/88/88 87/87/87 86/86/86
f 89/89/89 87/87/87 88/88/88
f 90/90/90 89/89/89 88/88/88
f 91/91/91 89/89/89 90/90/90
f 92/92/92 91/91/91 90/90/90
f 93/93/93 91/91/91 92/92/92
f 94/94/94 93/93/93 92/92/92
f 95/95/95 93/93/93 94/94/94
f 96/96/96 95/95/95 94/94/94
f 99/99/99 98/98/98 97/97/97
f 100/100/100 99/99/99 97/97/97
f 101/101/101 99/99/99 100/100/100
f 102/102/102 101/101/101 100/100/100
f 103/103/103 101/101/101 102/102/102
f 104/104/104 103/103/103 102/102/102
f 105/105/105 103/103/103 104/104/104
f 106/106/106 105/105/105 104/104/104
f 107/107/107 105/105/105 106/106/106
f 108/108/108 107/107/107 106/106/106
f 109/109/109 107/107/107 108/108/108
f 110/110/110 109/109/109 108/108/108
