g BeardOutlyersUpper01
v 0.3911481 -0.6897187 -0.893884
v 0.4652107 -0.8123835 -0.7762696
v 0.5126869 -0.8084134 -0.7707353
v 0.524528 -0.6844921 -0.8757305
v 0.6176636 -0.8424072 -0.7095085
v 0.6838999 -0.7201927 -0.8060275
v 0.7209833 -0.881078 -0.6506974
v 0.8034063 -0.7531899 -0.7418068
v 0.7597396 -0.8946596 -0.6297175
v 0.8601665 -0.7765593 -0.7109324
v 0.7984962 -0.9082411 -0.6087364
v 0.9169254 -0.7999216 -0.6800594
v 0.2406456 -1.029382 -0.7809431
v 0.1800106 -1.04262 -0.9708791
v 0.1387428 -0.9994546 -0.9328733
v 0.278471 -1.065578 -0.8215102
v 0.296825 -1.106205 -1.022825
v 0.3415058 -1.103297 -0.8589187
v 0.4797049 -1.186813 -1.01888
v 0.4442452 -1.15828 -0.8643208
v 0.6277548 -1.24528 -0.9614698
v 0.5271925 -1.200583 -0.8432609
v 0.7276448 -1.28429 -0.876054
v 0.5885309 -1.229871 -0.7963343
v 0.7835293 -1.30853 -0.765412
v 0.634312 -1.251508 -0.7015182
v -0.3446175 -1.003915 -1.019035
v -0.2055312 -0.9464881 -0.9107667
v -0.1770408 -0.9487596 -1.000926
v -0.3139379 -1.006698 -1.024949
v -0.1932749 -0.9744402 -1.097494
v -0.2991083 -1.040451 -1.018765
v -0.2445092 -1.015712 -1.168237
v -0.3044804 -1.066748 -1.031593
v -0.3048375 -1.062684 -1.20631
v -0.327468 -1.087247 -1.038077
v -0.3938707 -1.120413 -1.224037
v -0.3884049 -1.117689 -1.052832
v -0.5195621 -1.187176 -1.193058
v -0.4544548 -1.143937 -1.048966
v -0.6274844 -1.243273 -1.125862
v -0.5144873 -1.167377 -1.020004
v -0.6665491 -1.267105 -1.066849
v -0.549096 -1.186799 -0.9669739
v -0.7056223 -1.29093 -1.007842
v -0.5837045 -1.206221 -0.9139442
v -0.02215375 -0.9367104 -0.8379752
v 0.1008638 -1.074681 -0.8240252
v 0.06765775 -1.102459 -0.8569486
v -0.02235957 -0.9956207 -0.9368824
v 0.06050591 -1.17292 -0.8933449
v 0.0242815 -1.116153 -1.034507
v 0.0745067 -1.248829 -0.9142986
v 0.09147319 -1.223026 -1.078997
v 0.1248023 -1.328887 -0.9074033
v 0.1774323 -1.307641 -1.075184
v 0.1935863 -1.402378 -0.8878312
v 0.2626756 -1.373211 -1.055113
v 0.232828 -1.426331 -0.8733348
v 0.3173224 -1.409866 -1.033632
v 0.2720621 -1.450285 -0.8588479
v 0.371968 -1.446514 -1.012147
v -0.3426136 -0.7392208 -0.783853
v -0.1842683 -0.7723688 -0.7591316
v -0.1646737 -0.6896718 -0.7681731
v -0.303685 -0.7634769 -0.845845
v -0.2470349 -0.8543512 -0.754858
v -0.3091863 -0.8234628 -0.8960501
v -0.3144328 -0.9038944 -0.7555928
v -0.3634525 -0.8968192 -0.9195183
v -0.3932449 -0.9336954 -0.735511
v -0.4617622 -0.9524701 -0.8977118
v -0.480292 -0.9736879 -0.694426
v -0.5678794 -1.006557 -0.8490863
v -0.5492252 -1.032853 -0.6515229
v -0.6254116 -1.04974 -0.8118439
v -0.6181583 -1.092018 -0.6086126
v -0.6829362 -1.092923 -0.7745961
v -0.127569 -0.8842409 -0.7730391
v -0.135862 -0.7671643 -0.7440532
v -0.1779702 -0.7589558 -0.770964
v -0.0983886 -0.8723986 -0.771431
v -0.1199694 -0.7975644 -0.7167919
v -0.07928158 -0.8826174 -0.7634537
v -0.1279882 -0.8194381 -0.6977801
v -0.09152601 -0.8972252 -0.7478448
v -0.1481473 -0.847649 -0.6772823
v -0.09669586 -0.909683 -0.7355937
v -0.1695186 -0.8828785 -0.6642127
v -0.1006122 -0.9460179 -0.7198256
v -0.1966751 -0.9133847 -0.6569659
v -0.1124216 -0.9932584 -0.697938
v -0.2253451 -0.9439706 -0.6597921
v -0.1371637 -1.03711 -0.6797158
v -0.2845654 -1.004976 -0.6792324
v -0.1948686 -1.076489 -0.7031126
v -0.3444124 -1.089627 -0.6908106
v -0.2422641 -1.099404 -0.7442097
v -0.3626091 -1.153767 -0.6931013
v -0.2532978 -1.130834 -0.7634193
vt 1 0.5
vt 0.9375 0.5
vt 0.9375 0.406867
vt 1 0.406867
vt 0.9375 0.251998
vt 1 0.2519979
vt 0.9375 0.117077
vt 1 0.117077
vt 0.9375 0.05853847
vt 1 0.05853847
vt 0.9375 0
vt 1 -5.960464E-08
vt 1 0.5
vt 0.9375 0.450959
vt 0.9375 0.5
vt 1 0.450959
vt 0.9375 0.370346
vt 1 0.370346
vt 0.9375 0.2570495
vt 1 0.2570495
vt 0.9375 0.1623145
vt 1 0.1623145
vt 0.9375 0.0836795
vt 1 0.08367947
vt 0.9375 0
vt 1 0
vt 1 0.5
vt 0.9375 0.5
vt 0.9375 0.454802
vt 1 0.454802
vt 0.9375 0.4050595
vt 1 0.4050595
vt 0.9375 0.359722
vt 1 0.359722
vt 0.9375 0.3177765
vt 1 0.3177765
vt 0.9375 0.2541605
vt 1 0.2541605
vt 0.9375 0.1763515
vt 1 0.1763515
vt 0.9375 0.101131
vt 1 0.101131
vt 0.9375 0.05056551
vt 1 0.05056548
vt 0.9375 0
vt 1 0
vt 1 0.4999999
vt 0.9375 0.5
vt 0.9375 0.4341545
vt 1 0.4341545
vt 0.9375 0.340308
vt 1 0.340308
vt 0.9375 0.257248
vt 1 0.2572479
vt 0.9375 0.173549
vt 1 0.1735489
vt 0.9375 0.09122297
vt 1 0.09122294
vt 0.9375 0.04561147
vt 1 0.04561144
vt 0.9375 -5.960464E-08
vt 1 -5.960464E-08
vt 1 0.4999999
vt 0.9375 0.4384004
vt 0.9375 0.4999999
vt 1 0.4384004
vt 0.9375 0.3695344
vt 1 0.3695344
vt 0.9375 0.302146
vt 1 0.3021459
vt 0.9375 0.2257394
vt 1 0.2257394
vt 0.9375 0.1375079
vt 1 0.1375079
vt 0.9375 0.06875345
vt 1 0.06875342
vt 0.9375 -5.960464E-08
vt 1 -5.960464E-08
vt 1 0.4999999
vt 0.9375 0.4577675
vt 0.9375 0.5
vt 1 0.4577674
vt 0.9375 0.4233829
vt 1 0.4233829
vt 0.9375 0.3952684
vt 1 0.3952684
vt 0.9375 0.3652005
vt 1 0.3652005
vt 0.9375 0.3225319
vt 1 0.3225319
vt 0.9375 0.2737769
vt 1 0.2737769
vt 0.9375 0.224665
vt 1 0.2246649
vt 0.9375 0.141979
vt 1 0.1419789
vt 0.9375 0.05404696
vt 1 0.05404693
vt 0.9375 -5.960464E-08
vt 1 -5.960464E-08
vn 0.130247 -0.6465284 -0.7516892
vn 0.1415646 -0.639257 -0.7558505
vn 0.1826435 -0.6435154 -0.7433233
vn 0.1544815 -0.6524581 -0.7419124
vn 0.1772212 -0.6609129 -0.7292372
vn 0.1804398 -0.6620756 -0.7273908
vn 0.1811378 -0.6518205 -0.7364231
vn 0.1816455 -0.6483471 -0.7393584
vn 0.1702698 -0.6480216 -0.742345
vn 0.1456707 -0.6450251 -0.7501485
vn 0.1642295 -0.6516348 -0.7405409
vn 0.1409791 -0.6473458 -0.749045
vn -0.547775 -0.8041275 0.2309146
vn -0.5065281 -0.8401793 0.1937216
vn -0.5866008 -0.7731405 0.2411496
vn -0.4875858 -0.85339 0.184352
vn -0.4170209 -0.8990296 0.1335634
vn -0.4392734 -0.8906567 0.1173439
vn -0.4094649 -0.9080459 0.0882671
vn -0.4460518 -0.8940057 0.04232805
vn -0.3937193 -0.9186999 0.0312344
vn -0.4225649 -0.9057521 -0.03243737
vn -0.3776311 -0.9259132 -0.008920856
vn -0.3831895 -0.9225779 -0.04489668
vn -0.3709866 -0.9283758 -0.02207692
vn -0.3692889 -0.9287062 -0.03362319
vn 0.2223425 -0.8387402 0.4970701
vn 0.2988831 -0.9469281 0.1183047
vn 0.3202561 -0.9309793 0.1752534
vn 0.2875412 -0.4007073 0.8699159
vn 0.5062063 -0.8373559 0.206374
vn 0.79501 -0.1826721 0.5784376
vn 0.6264809 -0.7785879 0.03636615
vn 0.8047425 -0.580948 0.1220202
vn 0.5866559 -0.8090878 -0.03481079
vn 0.5819339 -0.8130314 -0.0182429
vn 0.4970948 -0.8675042 -0.01824929
vn 0.4349239 -0.9001 0.02571229
vn 0.4660048 -0.8840376 0.03629044
vn 0.408787 -0.9058545 0.1109991
vn 0.5128915 -0.8572457 0.04552054
vn 0.4803308 -0.8694504 0.1154917
vn 0.5458439 -0.8374749 0.02626992
vn 0.5420188 -0.8392629 0.04305089
vn 0.5479012 -0.8359496 0.03150455
vn 0.5444099 -0.8374103 0.04859841
vn -0.7787566 -0.4695868 0.4159645
vn -0.4901878 -0.356649 0.7953095
vn -0.7095487 -0.3219981 0.6267837
vn -0.8631361 -0.4294972 0.2655717
vn -0.9284534 -0.2774425 0.2469814
vn -0.9123584 -0.4093797 -0.003244822
vn -0.8934938 -0.4424336 -0.07694975
vn -0.7932301 -0.569613 -0.2152373
vn -0.7140005 -0.6503361 -0.2593573
vn -0.6141725 -0.7234817 -0.3152241
vn -0.509227 -0.7995602 -0.31842
vn -0.4769408 -0.8127826 -0.3345321
vn -0.4125908 -0.8559999 -0.311501
vn -0.4383248 -0.8425441 -0.3130348
vn -0.4183853 -0.8551382 -0.3060924
vn -0.4428066 -0.8415859 -0.3092823
vn 0.2526481 0.7839909 -0.5670337
vn 0.3331416 -0.0901612 -0.9385561
vn 0.1247413 -0.1369963 -0.9826859
vn 0.7198789 0.4956499 -0.4859069
vn 0.645032 -0.4966493 -0.5807523
vn 0.8803034 -0.316614 -0.3533007
vn 0.5054323 -0.8208156 -0.2660827
vn 0.6170338 -0.7653072 -0.1832322
vn 0.3846678 -0.9183325 -0.09325388
vn 0.4450845 -0.8922663 -0.07589807
vn 0.4937085 -0.8630562 -0.1067047
vn 0.4938664 -0.8623458 -0.111605
vn 0.5689346 -0.8037192 -0.1742088
vn 0.5258217 -0.8323248 -0.1753479
vn 0.5528623 -0.8116541 -0.188576
vn 0.5061061 -0.8406152 -0.1929319
vn 0.1008011 0.2458231 -0.9640592
vn 0.6844815 0.3070838 -0.6611994
vn 0.5555476 0.2366944 -0.7970838
vn 0.3875312 0.4742679 -0.7904996
vn 0.9459767 0.3072779 0.1034818
vn 0.9350167 0.31111 0.1701597
vn 0.8097382 0.0288809 0.5860803
vn 0.8071845 0.05472319 0.5877573
vn 0.7193177 -0.08586811 0.6893539
vn 0.7726531 0.1574182 0.6150014
vn 0.5881018 -0.1431152 0.7960241
vn 0.641301 0.164558 0.7494355
vn 0.3659854 -0.1916584 0.9106711
vn 0.4573688 0.1410094 0.8780262
vn 0.1065847 -0.2129287 0.9712369
vn 0.1524111 -0.1099392 0.9821835
vn 0.01617121 -0.2570212 0.9662704
vn 0.003708389 -0.5226874 0.8525163
vn 0.3182449 -0.3003325 0.8991777
vn 0.3184116 -0.7535118 0.5751817
vn 0.4735496 -0.2560266 0.8427343
vn 0.5256832 -0.570311 0.6311913
g BeardOutlyersUpper01_0
f 3/3/3 2/2/2 1/1/1
f 4/4/4 3/3/3 1/1/1
f 5/5/5 3/3/3 4/4/4
f 6/6/6 5/5/5 4/4/4
f 7/7/7 5/5/5 6/6/6
f 8/8/8 7/7/7 6/6/6
f 9/9/9 7/7/7 8/8/8
f 10/10/10 9/9/9 8/8/8
f 11/11/11 9/9/9 10/10/10
f 12/12/12 11/11/11 10/10/10
f 15/15/15 14/14/14 13/13/13
f 14/14/14 16/16/16 13/13/13
f 14/14/14 17/17/17 16/16/16
f 17/17/17 18/18/18 16/16/16
f 17/17/17 19/19/19 18/18/18
f 19/19/19 20/20/20 18/18/18
f 19/19/19 21/21/21 20/20/20
f 21/21/21 22/22/22 20/20/20
f 21/21/21 23/23/23 22/22/22
f 23/23/23 24/24/24 22/22/22
f 23/23/23 25/25/25 24/24/24
f 25/25/25 26/26/26 24/24/24
f 29/29/29 28/28/28 27/27/27
f 30/30/30 29/29/29 27/27/27
f 31/31/31 29/29/29 30/30/30
f 32/32/32 31/31/31 30/30/30
f 33/33/33 31/31/31 32/32/32
f 34/34/34 33/33/33 32/32/32
f 35/35/35 33/33/33 34/34/34
f 36/36/36 35/35/35 34/34/34
f 37/37/37 35/35/35 36/36/36
f 38/38/38 37/37/37 36/36/36
f 39/39/39 37/37/37 38/38/38
f 40/40/40 39/39/39 38/38/38
f 41/41/41 39/39/39 40/40/40
f 42/42/42 41/41/41 40/40/40
f 43/43/43 41/41/41 42/42/42
f 44/44/44 43/43/43 42/42/42
f 45/45/45 43/43/43 44/44/44
f 46/46/46 45/45/45 44/44/44
f 49/49/49 48/48/48 47/47/47
f 50/50/50 49/49/49 47/47/47
f 51/51/51 49/49/49 50/50/50
f 52/52/52 51/51/51 50/50/50
f 53/53/53 51/51/51 52/52/52
f 54/54/54 53/53/53 52/52/52
f 55/55/55 53/53/53 54/54/54
f 56/56/56 55/55/55 54/54/54
f 57/57/57 55/55/55 56/56/56
f 58/58/58 57/57/57 56/56/56
f 59/59/59 57/57/57 58/58/58
f 60/60/60 59/59/59 58/58/58
f 61/61/61 59/59/59 60/60/60
f 62/62/62 61/61/61 60/60/60
f 65/65/65 64/64/64 63/63/63
f 64/64/64 66/66/66 63/63/63
f 64/64/64 67/67/67 66/66/66
f 67/67/67 68/68/68 66/66/66
f 67/67/67 69/69/69 68/68/68
f 69/69/69 70/70/70 68/68/68
f 69/69/69 71/71/71 70/70/70
f 71/71/71 72/72/72 70/70/70
f 71/71/71 73/73/73 72/72/72
f 73/73/73 74/74/74 72/72/72
f 73/73/73 75/75/75 74/74/74
f 75/75/75 76/76/76 74/74/74
f 75/75/75 77/77/77 76/76/76
f 77/77/77 78/78/78 76/76/76
f 81/81/81 80/80/80 79/79/79
f 80/80/80 82/82/82 79/79/79
f 80/80/80 83/83/83 82/82/82
f 83/83/83 84/84/84 82/82/82
f 83/83/83 85/85/85 84/84/84
f 85/85/85 86/86/86 84/84/84
f 85/85/85 87/87/87 86/86/86
f 87/87/87 88/88/88 86/86/86
f 87/87/87 89/89/89 88/88/88
f 89/89/89 90/90/90 88/88/88
f 89/89/89 91/91/91 90/90/90
f 91/91/91 92/92/92 90/90/90
f 91/91/91 93/93/93 92/92/92
f 93/93/93 94/94/94 92/92/92
f 93/93/93 95/95/95 94/94/94
f 95/95/95 96/96/96 94/94/94
f 95/95/95 97/97/97 96/96/96
f 97/97/97 98/98/98 96/96/96
f 97/97/97 99/99/99 98/98/98
f 99/99/99 100/100/100 98/98/98
