g Book
v 0.08309086 -0.569936 1.167515
v 0.1384847 -0.5463277 1.167515
v 0.1384847 -0.5463274 -0.02213663
v 0.08309087 -0.5699357 -0.02213663
v 0.02769697 -0.5800539 1.167515
v 0.02769698 -0.5800535 -0.02213663
v -0.02769691 -0.5800539 1.167515
v -0.02769691 -0.5800535 -0.02213663
v -0.0830908 -0.569936 1.167515
v -0.08309079 -0.5699357 -0.02213663
v -0.1384847 -0.5463277 1.167515
v -0.1384847 -0.5463274 -0.02213663
v 0.1384848 -0.47637 1.167515
v 0.1384848 0.5487279 1.167515
v 0.1384848 0.5487283 -0.02213663
v 0.1384848 -0.4763696 -0.02213663
v 0.1272296 -0.5149154 1.167515
v 0.1272296 -0.514915 -0.02213663
v -0.1384847 -0.4763696 -0.02213663
v -0.1384846 0.5487283 -0.02213663
v -0.1384846 0.5487279 1.167515
v -0.1384847 -0.47637 1.167515
v -0.1272295 -0.514915 -0.02213663
v -0.1272295 -0.5149154 1.167515
v 0.1384847 -0.5463277 1.167515
v 0.1272296 -0.5149154 1.167515
v 0.1272296 -0.514915 -0.02213663
v 0.1384847 -0.5463274 -0.02213663
v -0.1384847 -0.5463274 -0.02213663
v -0.1272295 -0.514915 -0.02213663
v -0.1272295 -0.5149154 1.167515
v -0.1384847 -0.5463277 1.167515
v 0.07733813 -0.5507814 1.167515
v 0.1201578 -0.5383199 -0.02213663
v 0.1201578 -0.5383202 1.167515
v 0.07733814 -0.5507811 -0.02213663
v 0.02589333 -0.5601357 1.167515
v 0.02589334 -0.5601353 -0.02213663
v -0.02589327 -0.5601357 1.167515
v -0.02589326 -0.5601353 -0.02213663
v -0.07733806 -0.5507814 1.167515
v -0.07733805 -0.5507811 -0.02213663
v -0.1201577 -0.5383202 1.167515
v -0.1201577 -0.5383199 -0.02213663
v 0.1186868 -0.4735391 1.167515
v 0.1184848 0.5487283 -0.02213663
v 0.1184848 0.5487279 1.167515
v 0.1186868 -0.4735387 -0.02213663
v 0.1072387 -0.5155148 1.167515
v 0.1072387 -0.5155144 -0.02213663
v -0.1186867 -0.4735387 -0.02213663
v -0.1184846 0.5487279 1.167515
v -0.1184846 0.5487283 -0.02213663
v -0.1186867 -0.4735391 1.167515
v -0.1072387 -0.5155144 -0.02213663
v -0.1072387 -0.5155148 1.167515
v 0.1201578 -0.5383202 1.167515
v 0.1201578 -0.5383199 -0.02213663
v 0.1072387 -0.5155144 -0.02213663
v 0.1072387 -0.5155148 1.167515
v -0.1201577 -0.5383199 -0.02213663
v -0.1201577 -0.5383202 1.167515
v -0.1072387 -0.5155148 1.167515
v -0.1072387 -0.5155144 -0.02213663
v -0.1384847 -0.5463277 1.167515
v -0.1201577 -0.5383202 1.167515
v -0.07733806 -0.5507814 1.167515
v -0.0830908 -0.569936 1.167515
v -0.02589327 -0.5601357 1.167515
v -0.02769691 -0.5800539 1.167515
v 0.02589333 -0.5601357 1.167515
v 0.02769697 -0.5800539 1.167515
v 0.07733813 -0.5507814 1.167515
v 0.08309086 -0.569936 1.167515
v 0.1201578 -0.5383202 1.167515
v 0.1384847 -0.5463277 1.167515
v 0.1384847 -0.5463274 -0.02213663
v 0.1201578 -0.5383199 -0.02213663
v 0.07733814 -0.5507811 -0.02213663
v 0.08309087 -0.5699357 -0.02213663
v 0.02589334 -0.5601353 -0.02213663
v 0.02769698 -0.5800535 -0.02213663
v -0.02589326 -0.5601353 -0.02213663
v -0.02769691 -0.5800535 -0.02213663
v -0.07733805 -0.5507811 -0.02213663
v -0.08309079 -0.5699357 -0.02213663
v -0.1201577 -0.5383199 -0.02213663
v -0.1384847 -0.5463274 -0.02213663
v -0.1384846 0.5487283 -0.02213663
v -0.1184846 0.5487283 -0.02213663
v -0.1184846 0.5487279 1.167515
v -0.1384846 0.5487279 1.167515
v 0.1384848 0.5487279 1.167515
v 0.1184848 0.5487279 1.167515
v 0.1184848 0.5487283 -0.02213663
v 0.1384848 0.5487283 -0.02213663
v 0.1384848 0.5487283 -0.02213663
v 0.1184848 0.5487283 -0.02213663
v 0.1186868 -0.4735387 -0.02213663
v 0.1384848 -0.4763696 -0.02213663
v 0.1072387 -0.5155144 -0.02213663
v 0.1272296 -0.514915 -0.02213663
v 0.1201578 -0.5383199 -0.02213663
v 0.1384847 -0.5463274 -0.02213663
v 0.1384847 -0.5463277 1.167515
v 0.1201578 -0.5383202 1.167515
v 0.1072387 -0.5155148 1.167515
v 0.1272296 -0.5149154 1.167515
v 0.1186868 -0.4735391 1.167515
v 0.1384848 -0.47637 1.167515
v 0.1184848 0.5487279 1.167515
v 0.1384848 0.5487279 1.167515
v -0.1384846 0.5487279 1.167515
v -0.1184846 0.5487279 1.167515
v -0.1186867 -0.4735391 1.167515
v -0.1384847 -0.47637 1.167515
v -0.1072387 -0.5155148 1.167515
v -0.1272295 -0.5149154 1.167515
v -0.1201577 -0.5383202 1.167515
v -0.1384847 -0.5463277 1.167515
v -0.1384847 -0.5463274 -0.02213663
v -0.1201577 -0.5383199 -0.02213663
v -0.1072387 -0.5155144 -0.02213663
v -0.1272295 -0.514915 -0.02213663
v -0.1186867 -0.4735387 -0.02213663
v -0.1384847 -0.4763696 -0.02213663
v -0.1184846 0.5487283 -0.02213663
v -0.1384846 0.5487283 -0.02213663
v -0.1158941 0.5404282 0
v 0.1158941 0.5404282 0
v 0.1158941 0.5404282 1.145378
v -0.1158941 0.5404282 1.145378
v 0.1158941 0.5404282 0
v 0.1158941 -0.5404282 0
v 0.1158941 -0.5404282 1.145378
v 0.1158941 0.5404282 1.145378
v 0.1158941 -0.5404282 0
v -0.1158941 -0.5404282 0
v -0.1158941 -0.5404282 1.145378
v 0.1158941 -0.5404282 1.145378
v -0.1158941 -0.5404282 0
v -0.1158941 0.5404282 0
v -0.1158941 0.5404282 1.145378
v -0.1158941 -0.5404282 1.145378
v 0.1158941 0.5404282 0
v -0.1158941 0.5404282 0
v -0.1158941 -0.5404282 0
v 0.1158941 -0.5404282 0
v 0.1158941 -0.5404282 1.145378
v -0.1158941 -0.5404282 1.145378
v -0.1158941 0.5404282 1.145378
v 0.1158941 0.5404282 1.145378
v -0.1043471 0.5288812 0.01154698
v -0.1043471 0.5288812 1.133831
v 0.1043471 0.5288812 1.133831
v 0.1043471 0.5288812 0.01154698
v 0.1043471 0.5288812 0.01154698
v 0.1043471 0.5288812 1.133831
v 0.1043471 -0.5288812 1.133831
v 0.1043471 -0.5288812 0.01154698
v 0.1043471 -0.5288812 0.01154698
v 0.1043471 -0.5288812 1.133831
v -0.1043471 -0.5288812 1.133831
v -0.1043471 -0.5288812 0.01154698
v -0.1043471 -0.5288812 0.01154698
v -0.1043471 -0.5288812 1.133831
v -0.1043471 0.5288812 1.133831
v -0.1043471 0.5288812 0.01154698
v 0.1043471 0.5288812 0.01154698
v 0.1043471 -0.5288812 0.01154698
v -0.1043471 -0.5288812 0.01154698
v -0.1043471 0.5288812 0.01154698
v 0.1043471 -0.5288812 1.133831
v 0.1043471 0.5288812 1.133831
v -0.1043471 0.5288812 1.133831
v -0.1043471 -0.5288812 1.133831
vt 0.1011904 1
vt 0.126488 1
vt 0.126488 0.5000001
vt 0.1011904 0.5000001
vt 0.07589281 1
vt 0.07589282 0.5000001
vt 0.05059521 1
vt 0.05059522 0.5000001
vt 0.0252976 1
vt 0.02529762 0.5000001
vt 0 1
vt 1.36103E-08 0.5000001
vt 0.4680575 5.01026E-08
vt 5.444119E-08 1.002052E-07
vt 0 0.5000001
vt 0.4680574 0.5
vt 0.4855563 0
vt 0.4855562 0.5
vt 0.9680574 1.017709E-07
vt 0.5000001 0
vt 0.5000001 0.4999999
vt 0.9680575 0.5000001
vt 0.9855562 1.095994E-07
vt 0.9855562 0.5
vt 0.5000001 0
vt 0.4855563 0
vt 0.4855562 0.5
vt 0.5 0.5
vt 1 1.088166E-07
vt 0.9855562 1.095994E-07
vt 0.9855562 0.5
vt 1 0.5000001
vt 0.1011904 1
vt 0.126488 0.5000001
vt 0.126488 1
vt 0.1011904 0.5000001
vt 0.07589281 1
vt 0.07589282 0.5000001
vt 0.05059521 1
vt 0.05059522 0.5000001
vt 0.0252976 1
vt 0.02529762 0.5000001
vt 0 1
vt 1.36103E-08 0.5000001
vt 0.4680575 5.01026E-08
vt 0 0.5000001
vt 5.444119E-08 1.002052E-07
vt 0.4680574 0.5
vt 0.4855563 0
vt 0.4855562 0.5
vt 0.9680574 1.017709E-07
vt 0.5000001 0.4999999
vt 0.5000001 0
vt 0.9680575 0.5000001
vt 0.9855562 1.095994E-07
vt 0.9855562 0.5
vt 0.5000001 0
vt 0.5 0.5
vt 0.4855562 0.5
vt 0.4855563 0
vt 1 1.088166E-07
vt 1 0.5000001
vt 0.9855562 0.5
vt 0.9855562 1.095994E-07
vt 0 1
vt 0 1
vt 0.0252976 1
vt 0.0252976 1
vt 0.05059521 1
vt 0.05059521 1
vt 0.07589281 1
vt 0.07589281 1
vt 0.1011904 1
vt 0.1011904 1
vt 0.126488 1
vt 0.126488 1
vt 0.126488 0.5000001
vt 0.126488 0.5000001
vt 0.1011904 0.5000001
vt 0.1011904 0.5000001
vt 0.07589282 0.5000001
vt 0.07589282 0.5000001
vt 0.05059522 0.5000001
vt 0.05059522 0.5000001
vt 0.02529762 0.5000001
vt 0.02529762 0.5000001
vt 1.36103E-08 0.5000001
vt 1.36103E-08 0.5000001
vt 0.5000001 0
vt 0.5000001 0
vt 0.5000001 0.4999999
vt 0.5000001 0.4999999
vt 5.444119E-08 1.002052E-07
vt 5.444119E-08 1.002052E-07
vt 0 0.5000001
vt 0 0.5000001
vt 0 0.5000001
vt 0 0.5000001
vt 0.4680574 0.5
vt 0.4680574 0.5
vt 0.4855562 0.5
vt 0.4855562 0.5
vt 0.5 0.5
vt 0.5 0.5
vt 0.5000001 0
vt 0.5000001 0
vt 0.4855563 0
vt 0.4855563 0
vt 0.4680575 5.01026E-08
vt 0.4680575 5.01026E-08
vt 5.444119E-08 1.002052E-07
vt 5.444119E-08 1.002052E-07
vt 0.5000001 0.4999999
vt 0.5000001 0.4999999
vt 0.9680575 0.5000001
vt 0.9680575 0.5000001
vt 0.9855562 0.5
vt 0.9855562 0.5
vt 1 0.5000001
vt 1 0.5000001
vt 1 1.088166E-07
vt 1 1.088166E-07
vt 0.9855562 1.095994E-07
vt 0.9855562 1.095994E-07
vt 0.9680574 1.017709E-07
vt 0.9680574 1.017709E-07
vt 0.5000001 0
vt 0.5000001 0
vt 8.131135E-08 1
vt 0.1011842 1
vt 0.1011841 0.5000001
vt 0 0.5000001
vt 7.80589E-08 0.5000001
vt 0.4718339 0.4999999
vt 0.4718338 0
vt 0 0
vt 0.2023683 0.5000001
vt 0.1011842 0.5000001
vt 0.1011842 1
vt 0.2023683 1
vt 0.471834 0.5
vt 0.9436679 0.5
vt 0.9436678 0
vt 0.4718339 0
vt 0.471834 0.9718338
vt 0.5730181 0.9718338
vt 0.5730181 0.5000001
vt 0.4718339 0.5000001
vt 0.3035524 0.5000001
vt 0.2023683 0.5000001
vt 0.2023684 0.9718338
vt 0.3035525 0.9718338
vt 8.131135E-08 1
vt 0 0.5000001
vt 0.1011841 0.5000001
vt 0.1011842 1
vt 7.80589E-08 0.5000001
vt 0 0
vt 0.4718338 0
vt 0.4718339 0.4999999
vt 0.2023683 0.5000001
vt 0.2023683 1
vt 0.1011842 1
vt 0.1011842 0.5000001
vt 0.471834 0.5
vt 0.4718339 0
vt 0.9436678 0
vt 0.9436679 0.5
vt 0.471834 0.9718338
vt 0.4718339 0.5000001
vt 0.5730181 0.5000001
vt 0.5730181 0.9718338
vt 0.3035524 0.5000001
vt 0.3035525 0.9718338
vt 0.2023684 0.9718338
vt 0.2023683 0.5000001
vn 0.2876475 -0.9577364 0
vn 0.3920678 -0.9199362 0
vn 0.3920678 -0.9199362 0
vn 0.2876475 -0.9577364 0
vn 0.09020766 -0.9959229 0
vn 0.09020766 -0.9959229 0
vn -0.09020767 -0.9959229 0
vn -0.09020767 -0.9959229 0
vn -0.2876474 -0.9577364 0
vn -0.2876475 -0.9577364 0
vn -0.3920677 -0.9199364 0
vn -0.3920677 -0.9199364 0
vn 0.9899278 -0.1415727 0
vn 1 0 0
vn 1 0 0
vn 0.9899278 -0.1415726 0
vn 0.9599143 -0.2802934 0
vn 0.9599143 -0.2802934 0
vn -0.9899279 -0.141572 0
vn -1 0 0
vn -1 0 0
vn -0.9899279 -0.141572 0
vn -0.9599147 -0.2802922 0
vn -0.9599147 -0.2802922 0
vn 0.941395 0.3373063 0
vn 0.941395 0.3373063 0
vn 0.941395 0.3373063 0
vn 0.941395 0.3373063 0
vn -0.941395 0.3373063 0
vn -0.941395 0.3373063 0
vn -0.941395 0.3373063 0
vn -0.941395 0.3373063 0
vn -0.2294667 0.9733165 0
vn -0.2794237 0.9601678 0
vn -0.2794237 0.9601678 0
vn -0.2294667 0.9733165 0
vn -0.08981153 0.9959587 0
vn -0.08981153 0.9959587 0
vn 0.08981155 0.9959587 0
vn 0.08981153 0.9959587 0
vn 0.2294666 0.9733165 0
vn 0.2294666 0.9733165 0
vn 0.2794237 0.9601679 0
vn 0.2794237 0.9601679 0
vn -0.9911647 0.1326368 0
vn -1 -0.000197589 0
vn -1 -0.000197589 0
vn -0.9911647 0.1326367 0
vn -0.964763 0.2631204 0
vn -0.964763 0.2631204 0
vn 0.9911647 0.1326364 0
vn 1 -0.0001976747 0
vn 1 -0.0001976747 0
vn 0.9911647 0.1326365 0
vn 0.9647632 0.2631198 0
vn 0.9647632 0.2631198 0
vn -0.8700883 -0.4928958 0
vn -0.8700883 -0.4928958 0
vn -0.8700883 -0.4928958 0
vn -0.8700883 -0.4928958 0
vn 0.8700883 -0.4928958 0
vn 0.8700883 -0.4928958 0
vn 0.8700883 -0.4928958 0
vn 0.8700883 -0.4928958 0
vn 0 0 1
vn 0 0 1
vn 0 0 1
vn 0 0 1
vn 0 0 1
vn 0 0 1
vn 0 0 1
vn 0 0 1
vn 0 0 1
vn 0 0 1
vn 0 0 1
vn 0 0 1
vn 0 0 -1
vn 0 0 -1
vn 0 0 -1
vn 0 0 -1
vn 0 0 -1
vn 0 0 -1
vn 0 0 -1
vn 0 0 -1
vn 0 0 -1
vn 0 0 -1
vn 0 0 -1
vn 0 0 -1
vn 0 1 0
vn 0 1 0
vn 0 1 0
vn 0 1 0
vn 0 1 0
vn 0 1 0
vn 0 1 0
vn 0 1 0
vn 0 0 -1
vn 0 0 -1
vn 0 0 -1
vn 0 0 -1
vn 0 0 -1
vn 0 0 -1
vn 0 0 -1
vn 0 0 -1
vn 0 0 1
vn 0 0 1
vn 0 0 1
vn 0 0 1
vn 0 0 1
vn 0 0 1
vn 0 0 1
vn 0 0 1
vn 0 0 1
vn 0 0 1
vn 0 0 1
vn 0 0 1
vn 0 0 1
vn 0 0 1
vn 0 0 1
vn 0 0 1
vn 0 0 -1
vn 0 0 -1
vn 0 0 -1
vn 0 0 -1
vn 0 0 -1
vn 0 0 -1
vn 0 0 -1
vn 0 0 -1
vn 0 1 0
vn 0 1 0
vn 0 1 0
vn 0 1 0
vn 1 0 0
vn 1 0 0
vn 1 0 0
vn 1 0 0
vn 0 -1 0
vn 0 -1 0
vn 0 -1 0
vn 0 -1 0
vn -1 0 0
vn -1 0 0
vn -1 0 0
vn -1 0 0
vn 0 0 -1
vn 0 0 -1
vn 0 0 -1
vn 0 0 -1
vn 0 0 1
vn 0 0 1
vn 0 0 1
vn 0 0 1
vn 0 -1 0
vn 0 -1 0
vn 0 -1 0
vn 0 -1 0
vn -1 0 0
vn -1 0 0
vn -1 0 0
vn -1 0 0
vn 0 1 0
vn 0 1 0
vn 0 1 0
vn 0 1 0
vn 1 0 0
vn 1 0 0
vn 1 0 0
vn 1 0 0
vn 0 0 1
vn 0 0 1
vn 0 0 1
vn 0 0 1
vn 0 0 -1
vn 0 0 -1
vn 0 0 -1
vn 0 0 -1
g Book_0
f 3/3/3 2/2/2 1/1/1
f 4/4/4 3/3/3 1/1/1
f 4/4/4 1/1/1 5/5/5
f 6/6/6 4/4/4 5/5/5
f 6/6/6 5/5/5 7/7/7
f 8/8/8 6/6/6 7/7/7
f 8/8/8 7/7/7 9/9/9
f 10/10/10 8/8/8 9/9/9
f 10/10/10 9/9/9 11/11/11
f 12/12/12 10/10/10 11/11/11
f 15/15/15 14/14/14 13/13/13
f 16/16/16 15/15/15 13/13/13
f 16/16/16 13/13/13 17/17/17
f 18/18/18 16/16/16 17/17/17
f 21/21/21 20/20/20 19/19/19
f 22/22/22 21/21/21 19/19/19
f 22/22/22 19/19/19 23/23/23
f 24/24/24 22/22/22 23/23/23
f 27/27/27 26/26/26 25/25/25
f 28/28/28 27/27/27 25/25/25
f 31/31/31 30/30/30 29/29/29
f 32/32/32 31/31/31 29/29/29
f 35/35/35 34/34/34 33/33/33
f 34/34/34 36/36/36 33/33/33
f 33/33/33 36/36/36 37/37/37
f 36/36/36 38/38/38 37/37/37
f 37/37/37 38/38/38 39/39/39
f 38/38/38 40/40/40 39/39/39
f 39/39/39 40/40/40 41/41/41
f 40/40/40 42/42/42 41/41/41
f 41/41/41 42/42/42 43/43/43
f 42/42/42 44/44/44 43/43/43
f 47/47/47 46/46/46 45/45/45
f 46/46/46 48/48/48 45/45/45
f 45/45/45 48/48/48 49/49/49
f 48/48/48 50/50/50 49/49/49
f 53/53/53 52/52/52 51/51/51
f 52/52/52 54/54/54 51/51/51
f 51/51/51 54/54/54 55/55/55
f 54/54/54 56/56/56 55/55/55
f 59/59/59 58/58/58 57/57/57
f 60/60/60 59/59/59 57/57/57
f 63/63/63 62/62/62 61/61/61
f 64/64/64 63/63/63 61/61/61
f 67/67/67 66/66/66 65/65/65
f 68/68/68 67/67/67 65/65/65
f 69/69/69 67/67/67 68/68/68
f 70/70/70 69/69/69 68/68/68
f 71/71/71 69/69/69 70/70/70
f 72/72/72 71/71/71 70/70/70
f 73/73/73 71/71/71 72/72/72
f 74/74/74 73/73/73 72/72/72
f 75/75/75 73/73/73 74/74/74
f 76/76/76 75/75/75 74/74/74
f 79/79/79 78/78/78 77/77/77
f 80/80/80 79/79/79 77/77/77
f 81/81/81 79/79/79 80/80/80
f 82/82/82 81/81/81 80/80/80
f 83/83/83 81/81/81 82/82/82
f 84/84/84 83/83/83 82/82/82
f 85/85/85 83/83/83 84/84/84
f 86/86/86 85/85/85 84/84/84
f 87/87/87 85/85/85 86/86/86
f 88/88/88 87/87/87 86/86/86
f 91/91/91 90/90/90 89/89/89
f 92/92/92 91/91/91 89/89/89
f 95/95/95 94/94/94 93/93/93
f 96/96/96 95/95/95 93/93/93
f 99/99/99 98/98/98 97/97/97
f 100/100/100 99/99/99 97/97/97
f 101/101/101 99/99/99 100/100/100
f 102/102/102 101/101/101 100/100/100
f 103/103/103 101/101/101 102/102/102
f 104/104/104 103/103/103 102/102/102
f 107/107/107 106/106/106 105/105/105
f 108/108/108 107/107/107 105/105/105
f 109/109/109 107/107/107 108/108/108
f 110/110/110 109/109/109 108/108/108
f 111/111/111 109/109/109 110/110/110
f 112/112/112 111/111/111 110/110/110
f 115/115/115 114/114/114 113/113/113
f 116/116/116 115/115/115 113/113/113
f 117/117/117 115/115/115 116/116/116
f 118/118/118 117/117/117 116/116/116
f 119/119/119 117/117/117 118/118/118
f 120/120/120 119/119/119 118/118/118
f 123/123/123 122/122/122 121/121/121
f 124/124/124 123/123/123 121/121/121
f 125/125/125 123/123/123 124/124/124
f 126/126/126 125/125/125 124/124/124
f 127/127/127 125/125/125 126/126/126
f 128/128/128 127/127/127 126/126/126
g Book_1
f 131/131/131 130/130/130 129/129/129
f 132/132/132 131/131/131 129/129/129
f 135/135/135 134/134/134 133/133/133
f 136/136/136 135/135/135 133/133/133
f 139/139/139 138/138/138 137/137/137
f 140/140/140 139/139/139 137/137/137
f 143/143/143 142/142/142 141/141/141
f 144/144/144 143/143/143 141/141/141
f 147/147/147 146/146/146 145/145/145
f 148/148/148 147/147/147 145/145/145
f 151/151/151 150/150/150 149/149/149
f 152/152/152 151/151/151 149/149/149
f 155/155/155 154/154/154 153/153/153
f 156/156/156 155/155/155 153/153/153
f 159/159/159 158/158/158 157/157/157
f 160/160/160 159/159/159 157/157/157
f 163/163/163 162/162/162 161/161/161
f 164/164/164 163/163/163 161/161/161
f 167/167/167 166/166/166 165/165/165
f 168/168/168 167/167/167 165/165/165
f 171/171/171 170/170/170 169/169/169
f 172/172/172 171/171/171 169/169/169
f 175/175/175 174/174/174 173/173/173
f 176/176/176 175/175/175 173/173/173
