g bot_cyl
v 6.391676E-07 -1.196927 -1.261583
v 5.875043E-07 -1.320261 -1.181493
v 0.4521385 -1.320261 -1.091557
v 0.4827875 -1.196927 -1.16555
v 0.8354423 -1.320261 -0.8354415
v 0.4433987 -1.043213 -1.070457
v 5.870203E-07 -1.043213 -1.158655
v 0.8920742 -1.196927 -0.8920733
v 1.091558 -1.320261 -0.4521374
v 0.4738767 -0.8894989 -1.144038
v 6.273707E-07 -0.8894989 -1.238298
v 5.696603E-07 -0.7720529 -1.149483
v 0.4398888 -0.7720529 -1.061984
v 0.8756095 -0.8894989 -0.8756084
v 0.8128079 -0.7720529 -0.8128068
v 0.8192934 -1.043213 -0.8192924
v 1.144038 -0.8894989 -0.4738755
v 1.061984 -0.7720529 -0.4398876
v 1.165551 -1.196927 -0.4827862
v 1.181493 -1.320261 -1.984753E-08
v 1.070458 -1.043213 -0.4433975
v 1.238298 -0.8894989 2.442668E-09
v 1.149483 -0.7720529 -3.075984E-08
v 1.261583 -1.196927 1.748727E-09
v 1.091558 -1.320261 0.4521379
v 1.158655 -1.043213 4.816212E-09
v 1.144038 -0.8894989 0.4738761
v 1.061984 -0.7720529 0.4398883
v 1.16555 -1.196927 0.4827868
v 0.8354418 -1.320261 0.8354419
v 1.070458 -1.043213 0.4433981
v 0.8756088 -0.8894989 0.8756091
v 0.8128073 -0.7720529 0.8128075
v 0.8920738 -1.196927 0.8920738
v 0.4521378 -1.320261 1.091558
v 0.8192928 -1.043213 0.8192929
v 0.4738759 -0.8894989 1.144038
v 0.4398881 -0.7720529 1.061984
v 0.4827868 -1.196927 1.16555
v -1.705458E-07 -1.320261 1.181493
v 0.443398 -1.043213 1.070458
v -1.845208E-07 -0.8894989 1.238298
v -1.780977E-07 -0.7720529 1.149483
v -1.879905E-07 -1.196927 1.261583
v -0.4521381 -1.320261 1.091557
v -1.726531E-07 -1.043213 1.158655
v -0.482787 -1.196927 1.16555
v -0.8354423 -1.320261 0.8354417
v -0.4738764 -0.8894989 1.144038
v -0.4398884 -0.7720529 1.061984
v -0.4433983 -1.043213 1.070458
v -0.8756092 -0.8894989 0.8756087
v -0.8128077 -0.7720529 0.8128073
v -0.8920741 -1.196927 0.8920735
v -1.091558 -1.320261 0.4521375
v -0.8192931 -1.043213 0.8192927
v -1.144038 -0.8894989 0.4738758
v -1.061984 -0.7720529 0.4398879
v -1.165551 -1.196927 0.4827864
v -1.181493 -1.320261 -4.314275E-07
v -1.070458 -1.043213 0.4433977
v -1.238298 -0.8894989 -4.404072E-07
v -1.149483 -0.7720529 -4.172986E-07
v -1.261583 -1.196927 -4.494285E-07
v -1.091558 -1.320261 -0.4521383
v -1.158655 -1.043213 -4.095511E-07
v -1.144038 -0.8894989 -0.4738767
v -1.061984 -0.7720529 -0.4398886
v -1.16555 -1.196927 -0.4827873
v -0.8354416 -1.320261 -0.8354423
v -1.070458 -1.043213 -0.4433986
v -0.8756087 -0.8894989 -0.8756095
v -0.8128071 -0.7720529 -0.8128078
v -0.8920734 -1.196927 -0.8920742
v -0.4521374 -1.320261 -1.091558
v -0.8192927 -1.043213 -0.8192934
v -0.4738756 -0.8894989 -1.144038
v -0.4398877 -0.7720529 -1.061984
v -0.4827862 -1.196927 -1.165551
v 5.875043E-07 -1.320261 -1.181493
v 6.391676E-07 -1.196927 -1.261583
v 5.870203E-07 -1.043213 -1.158655
v -0.4433976 -1.043213 -1.070458
v 6.273707E-07 -0.8894989 -1.238298
v 5.696603E-07 -0.7720529 -1.149483
v 0.4398888 -0.7720529 -1.061984
v 0.8128079 -0.7720529 -0.8128068
v 5.696603E-07 -0.7720529 -1.149483
v -0.4398877 -0.7720529 -1.061984
v -0.8128071 -0.7720529 -0.8128078
v -1.061984 -0.7720529 -0.4398886
v -1.149483 -0.7720529 -4.172986E-07
v -1.061984 -0.7720529 0.4398879
v -0.8128077 -0.7720529 0.8128073
v -0.4398884 -0.7720529 1.061984
v -1.780977E-07 -0.7720529 1.149483
v 0.4398881 -0.7720529 1.061984
v 0.8128073 -0.7720529 0.8128075
v 1.061984 -0.7720529 0.4398883
v 1.149483 -0.7720529 -3.075984E-08
v 1.061984 -0.7720529 -0.4398876
vt 0.8916016 0.06585693
vt 0.8916016 0.05133057
vt 0.8427734 0.05133057
vt 0.8427734 0.06585693
vt 0.7973633 0.05133057
vt 0.8427734 0.0838623
vt 0.8916016 0.0838623
vt 0.7973633 0.06585693
vt 0.7514648 0.05133057
vt 0.8427734 0.100769
vt 0.8916016 0.100769
vt 0.8916016 0.1149292
vt 0.8427734 0.1149292
vt 0.7973633 0.100769
vt 0.7973633 0.1149292
vt 0.7973633 0.0838623
vt 0.7514648 0.100769
vt 0.7514648 0.1149292
vt 0.7514648 0.06585693
vt 0.7055664 0.05133057
vt 0.7514648 0.0838623
vt 0.7055664 0.100769
vt 0.7055664 0.1149292
vt 0.7055664 0.06585693
vt 0.6601563 0.05133057
vt 0.7055664 0.0838623
vt 0.6601563 0.100769
vt 0.6601563 0.1149292
vt 0.6601563 0.06585693
vt 0.6142578 0.05133057
vt 0.6601563 0.0838623
vt 0.6142578 0.100769
vt 0.6142578 0.1149292
vt 0.6142578 0.06585693
vt 0.5683594 0.05133057
vt 0.6142578 0.0838623
vt 0.5683594 0.100769
vt 0.5683594 0.1149292
vt 0.5683594 0.06585693
vt 0.5224609 0.05133057
vt 0.5683594 0.0838623
vt 0.5224609 0.100769
vt 0.5224609 0.1149292
vt 0.5224609 0.06585693
vt 0.4768066 0.05133057
vt 0.5224609 0.0838623
vt 0.4768066 0.06585693
vt 0.4311523 0.05133057
vt 0.4768066 0.100769
vt 0.4768066 0.1149292
vt 0.4768066 0.0838623
vt 0.4311523 0.100769
vt 0.4311523 0.1149292
vt 0.4311523 0.06585693
vt 0.385498 0.05133057
vt 0.4311523 0.0838623
vt 0.385498 0.100769
vt 0.385498 0.1149292
vt 0.385498 0.06585693
vt 0.3398438 0.05133057
vt 0.385498 0.0838623
vt 0.3398438 0.100769
vt 0.3398438 0.1149292
vt 0.3398438 0.06585693
vt 0.2941895 0.05133057
vt 0.3398438 0.0838623
vt 0.2941895 0.100769
vt 0.2941895 0.1149292
vt 0.2941895 0.06585693
vt 0.2486572 0.05133057
vt 0.2941895 0.0838623
vt 0.2486572 0.100769
vt 0.2486572 0.1149292
vt 0.2486572 0.06585693
vt 0.2032471 0.05133057
vt 0.2486572 0.0838623
vt 0.2032471 0.100769
vt 0.2032471 0.1149292
vt 0.2032471 0.06585693
vt 0.1638184 0.05133057
vt 0.1638184 0.06585693
vt 0.1638184 0.0838623
vt 0.2032471 0.0838623
vt 0.1638184 0.100769
vt 0.1638184 0.1149292
vt 0.9389648 0.2915039
vt 0.9667969 0.2717285
vt 0.9052734 0.2993164
vt 0.871582 0.2937012
vt 0.8427734 0.2756348
vt 0.8227539 0.2478027
vt 0.8154297 0.2145996
vt 0.8208008 0.1807861
vt 0.8388672 0.1518555
vt 0.8666992 0.131958
vt 0.8999023 0.1242065
vt 0.9335938 0.1298828
vt 0.9628906 0.1479492
vt 0.9824219 0.1756592
vt 0.9902344 0.2089844
vt 0.9848633 0.2426758
vn -0.005741119 0.07995605 -0.996582
vn -0.004524231 -0.5444336 -0.8388672
vn 0.3166504 -0.5444336 -0.7763672
vn 0.3762207 0.07995605 -0.9233398
vn 0.5898438 -0.5444336 -0.5961914
vn 0.3806152 0.08099365 -0.9208984
vn -0.0007576942 0.08099365 -0.996582
vn 0.7006836 0.07995605 -0.7089844
vn 0.7729492 -0.5444336 -0.3251953
vn 0.3874512 0.02659607 -0.9213867
vn 0.005340576 0.02659607 -0.9995117
vn 0.004871368 0.6030273 -0.7973633
vn 0.3098145 0.6030273 -0.7348633
vn 0.7104492 0.02659607 -0.703125
vn 0.5673828 0.6030273 -0.5605469
vn 0.7041016 0.08099365 -0.7050781
vn 0.9257813 0.02659607 -0.3776855
vn 0.7387695 0.6030273 -0.3007813
vn 0.9189453 0.07995605 -0.3867188
vn 0.8388672 -0.5444336 -0.004524231
vn 0.9204102 0.08099365 -0.3820801
vn 0.9995117 0.02659607 0.005340576
vn 0.7973633 0.6030273 0.004871368
vn 0.996582 0.07995605 -0.005741119
vn 0.7763672 -0.5444336 0.3166504
vn 0.996582 0.08099365 -0.0007576942
vn 0.9213867 0.02659607 0.3874512
vn 0.7348633 0.6030273 0.3098145
vn 0.9233398 0.07995605 0.3762207
vn 0.5961914 -0.5444336 0.5898438
vn 0.9208984 0.08099365 0.3806152
vn 0.703125 0.02659607 0.7104492
vn 0.5605469 0.6030273 0.5673828
vn 0.7089844 0.07995605 0.7006836
vn 0.3251953 -0.5444336 0.7729492
vn 0.7050781 0.08099365 0.7041016
vn 0.3776855 0.02659607 0.9257813
vn 0.3007813 0.6030273 0.7387695
vn 0.3867188 0.07995605 0.9189453
vn 0.004524231 -0.5444336 0.8388672
vn 0.3820801 0.08099365 0.9204102
vn -0.002515793 0.03451538 0.9995117
vn -0.004871368 0.6030273 0.7973633
vn 0.002258301 0.08990479 0.9960938
vn -0.3166504 -0.5444336 0.7763672
vn 0 0.09844971 0.9951172
vn -0.3796387 0.06964111 0.9223633
vn -0.5898438 -0.5444336 0.5961914
vn -0.3847656 0.01889038 0.9228516
vn -0.3098145 0.6030273 0.7348633
vn -0.3818359 0.06335449 0.921875
vn -0.7104492 0.02659607 0.703125
vn -0.5673828 0.6030273 0.5605469
vn -0.7006836 0.07995605 0.7089844
vn -0.7729492 -0.5444336 0.3251953
vn -0.7041016 0.08099365 0.7050781
vn -0.9257813 0.02659607 0.3776855
vn -0.7387695 0.6030273 0.3007813
vn -0.9189453 0.07995605 0.3867188
vn -0.8388672 -0.5444336 0.004524231
vn -0.9204102 0.08099365 0.3820801
vn -0.9995117 0.02659607 -0.005336761
vn -0.7973633 0.6030273 -0.004871368
vn -0.996582 0.07995605 0.005741119
vn -0.7763672 -0.5444336 -0.3166504
vn -0.996582 0.08099365 0.0007581711
vn -0.9213867 0.02659607 -0.3874512
vn -0.7348633 0.6030273 -0.3098145
vn -0.9233398 0.07995605 -0.3762207
vn -0.5961914 -0.5444336 -0.5898438
vn -0.9208984 0.08099365 -0.3806152
vn -0.703125 0.02659607 -0.7104492
vn -0.5605469 0.6030273 -0.5673828
vn -0.7089844 0.07995605 -0.7006836
vn -0.3251953 -0.5444336 -0.7729492
vn -0.7050781 0.08099365 -0.7041016
vn -0.3776855 0.02659607 -0.9257813
vn -0.3007813 0.6030273 -0.7387695
vn -0.3867188 0.07995605 -0.9189453
vn -0.004524231 -0.5444336 -0.8388672
vn -0.005741119 0.07995605 -0.996582
vn -0.0007576942 0.08099365 -0.996582
vn -0.3820801 0.08099365 -0.9204102
vn 0.005340576 0.02659607 -0.9995117
vn 0.004871368 0.6030273 -0.7973633
vn 0 1 0
vn 0 1 0
vn 0 1 0
vn 0 1 0
vn 0 1 0
vn 0 1 0
vn 0 1 0
vn 0 1 0
vn 0 1 0
vn 0 1 0
vn 0 1 0
vn 0 1 0
vn 0 1 0
vn 0 1 0
vn 0 1 0
vn 0 1 0
g bot_cyl_0
f 3/3/3 2/2/2 1/1/1
f 3/3/3 1/1/1 4/4/4
f 5/5/5 3/3/3 4/4/4
f 6/6/6 4/4/4 1/1/1
f 6/6/6 1/1/1 7/7/7
f 5/5/5 4/4/4 8/8/8
f 9/9/9 5/5/5 8/8/8
f 10/10/10 6/6/6 7/7/7
f 10/10/10 7/7/7 11/11/11
f 10/10/10 11/11/11 12/12/12
f 10/10/10 12/12/12 13/13/13
f 14/14/14 10/10/10 13/13/13
f 14/14/14 6/6/6 10/10/10
f 14/14/14 13/13/13 15/15/15
f 16/16/16 4/4/4 6/6/6
f 14/14/14 16/16/16 6/6/6
f 16/16/16 8/8/8 4/4/4
f 17/17/17 14/14/14 15/15/15
f 17/17/17 16/16/16 14/14/14
f 17/17/17 15/15/15 18/18/18
f 9/9/9 8/8/8 19/19/19
f 19/19/19 20/20/20 9/9/9
f 21/21/21 8/8/8 16/16/16
f 17/17/17 21/21/21 16/16/16
f 21/21/21 19/19/19 8/8/8
f 18/18/18 22/22/22 17/17/17
f 22/22/22 21/21/21 17/17/17
f 18/18/18 23/23/23 22/22/22
f 19/19/19 24/24/24 20/20/20
f 25/25/25 20/20/20 24/24/24
f 26/26/26 19/19/19 21/21/21
f 22/22/22 26/26/26 21/21/21
f 26/26/26 24/24/24 19/19/19
f 27/27/27 22/22/22 23/23/23
f 27/27/27 26/26/26 22/22/22
f 27/27/27 23/23/23 28/28/28
f 25/25/25 24/24/24 29/29/29
f 30/30/30 25/25/25 29/29/29
f 31/31/31 24/24/24 26/26/26
f 27/27/27 31/31/31 26/26/26
f 31/31/31 29/29/29 24/24/24
f 32/32/32 27/27/27 28/28/28
f 32/32/32 31/31/31 27/27/27
f 32/32/32 28/28/28 33/33/33
f 30/30/30 29/29/29 34/34/34
f 35/35/35 30/30/30 34/34/34
f 36/36/36 29/29/29 31/31/31
f 32/32/32 36/36/36 31/31/31
f 36/36/36 34/34/34 29/29/29
f 37/37/37 32/32/32 33/33/33
f 37/37/37 36/36/36 32/32/32
f 37/37/37 33/33/33 38/38/38
f 35/35/35 34/34/34 39/39/39
f 40/40/40 35/35/35 39/39/39
f 41/41/41 34/34/34 36/36/36
f 37/37/37 41/41/41 36/36/36
f 41/41/41 39/39/39 34/34/34
f 42/42/42 37/37/37 38/38/38
f 42/42/42 41/41/41 37/37/37
f 42/42/42 38/38/38 43/43/43
f 40/40/40 39/39/39 44/44/44
f 45/45/45 40/40/40 44/44/44
f 46/46/46 39/39/39 41/41/41
f 46/46/46 44/44/44 39/39/39
f 42/42/42 46/46/46 41/41/41
f 45/45/45 44/44/44 47/47/47
f 47/47/47 44/44/44 46/46/46
f 48/48/48 45/45/45 47/47/47
f 49/49/49 42/42/42 43/43/43
f 49/49/49 43/43/43 50/50/50
f 51/51/51 46/46/46 42/42/42
f 51/51/51 42/42/42 49/49/49
f 47/47/47 46/46/46 51/51/51
f 52/52/52 49/49/49 50/50/50
f 52/52/52 51/51/51 49/49/49
f 52/52/52 50/50/50 53/53/53
f 48/48/48 47/47/47 54/54/54
f 55/55/55 48/48/48 54/54/54
f 56/56/56 47/47/47 51/51/51
f 52/52/52 56/56/56 51/51/51
f 56/56/56 54/54/54 47/47/47
f 57/57/57 52/52/52 53/53/53
f 57/57/57 56/56/56 52/52/52
f 57/57/57 53/53/53 58/58/58
f 55/55/55 54/54/54 59/59/59
f 60/60/60 55/55/55 59/59/59
f 61/61/61 54/54/54 56/56/56
f 57/57/57 61/61/61 56/56/56
f 61/61/61 59/59/59 54/54/54
f 62/62/62 57/57/57 58/58/58
f 62/62/62 61/61/61 57/57/57
f 62/62/62 58/58/58 63/63/63
f 60/60/60 59/59/59 64/64/64
f 65/65/65 60/60/60 64/64/64
f 66/66/66 59/59/59 61/61/61
f 62/62/62 66/66/66 61/61/61
f 66/66/66 64/64/64 59/59/59
f 67/67/67 62/62/62 63/63/63
f 67/67/67 66/66/66 62/62/62
f 67/67/67 63/63/63 68/68/68
f 65/65/65 64/64/64 69/69/69
f 70/70/70 65/65/65 69/69/69
f 71/71/71 64/64/64 66/66/66
f 67/67/67 71/71/71 66/66/66
f 71/71/71 69/69/69 64/64/64
f 72/72/72 67/67/67 68/68/68
f 72/72/72 71/71/71 67/67/67
f 72/72/72 68/68/68 73/73/73
f 70/70/70 69/69/69 74/74/74
f 75/75/75 70/70/70 74/74/74
f 76/76/76 69/69/69 71/71/71
f 72/72/72 76/76/76 71/71/71
f 76/76/76 74/74/74 69/69/69
f 77/77/77 72/72/72 73/73/73
f 77/77/77 76/76/76 72/72/72
f 77/77/77 73/73/73 78/78/78
f 75/75/75 74/74/74 79/79/79
f 80/80/80 75/75/75 79/79/79
f 80/80/80 79/79/79 81/81/81
f 82/82/82 81/81/81 79/79/79
f 83/83/83 74/74/74 76/76/76
f 83/83/83 79/79/79 74/74/74
f 82/82/82 79/79/79 83/83/83
f 77/77/77 83/83/83 76/76/76
f 84/84/84 82/82/82 83/83/83
f 84/84/84 83/83/83 77/77/77
f 84/84/84 77/77/77 78/78/78
f 84/84/84 78/78/78 85/85/85
f 88/88/88 87/87/87 86/86/86
f 89/89/89 87/87/87 88/88/88
f 90/90/90 87/87/87 89/89/89
f 91/91/91 87/87/87 90/90/90
f 92/92/92 87/87/87 91/91/91
f 93/93/93 87/87/87 92/92/92
f 94/94/94 87/87/87 93/93/93
f 95/95/95 87/87/87 94/94/94
f 96/96/96 87/87/87 95/95/95
f 97/97/97 87/87/87 96/96/96
f 98/98/98 87/87/87 97/97/97
f 99/99/99 87/87/87 98/98/98
f 100/100/100 87/87/87 99/99/99
f 101/101/101 87/87/87 100/100/100
