g boton_uv.003
v 1.25 0 2.300001
v 1.55 0 2.300001
v 1.55 -0.1 2.300001
v 1.25 -0.1 2.300001
v 1.25 -0.1 2.200001
v 1.25 0 2.200001
v 1.25 0 2.300001
v 1.55 -0.1 2.200001
v 1.25 0 2.200001
v 1.55 0 2.200001
v 1.55 0 2.300001
v 1.55 0 2.200001
v -1.25 0 2.300001
v -1.55 -0.1 2.300001
v -1.55 0 2.300001
v -1.25 -0.1 2.300001
v -1.25 -0.1 2.200001
v -1.25 0 2.200001
v -1.25 0 2.300001
v -1.55 -0.1 2.200001
v -1.25 0 2.200001
v -1.55 0 2.200001
v -1.55 0 2.300001
v -1.55 0 2.200001
v 1.25 0 2.300001
v 1.55 0.1 2.300001
v 1.55 0 2.300001
v 1.25 0.1 2.300001
v 1.25 0.1 2.200001
v 1.25 0 2.200001
v 1.25 0 2.300001
v 1.55 0.1 2.200001
v 1.25 0 2.200001
v 1.55 0 2.200001
v 1.55 0 2.300001
v 1.55 0 2.200001
v -1.25 0 2.300001
v -1.55 0 2.300001
v -1.55 0.1 2.300001
v -1.25 0.1 2.300001
v -1.25 0.1 2.200001
v -1.25 0 2.200001
v -1.25 0 2.300001
v -1.55 0.1 2.200001
v -1.25 0 2.200001
v -1.55 0 2.200001
v -1.55 0 2.300001
v -1.55 0 2.200001
vt 0.9580078 0.9433594
vt 0.9580078 0.8955078
vt 0.9418945 0.8955078
vt 0.9418945 0.9433594
vt 0.9257813 0.9433594
vt 0.9257813 0.9594727
vt 0.9418945 0.9594727
vt 0.9257813 0.8955078
vt 0.9101563 0.9433594
vt 0.9101563 0.8955078
vt 0.9418945 0.8798828
vt 0.9257813 0.8798828
vt 0.9580078 0.9433594
vt 0.9418945 0.8955078
vt 0.9580078 0.8955078
vt 0.9418945 0.9433594
vt 0.9257813 0.9433594
vt 0.9257813 0.9594727
vt 0.9418945 0.9594727
vt 0.9257813 0.8955078
vt 0.9101563 0.9433594
vt 0.9101563 0.8955078
vt 0.9418945 0.8798828
vt 0.9257813 0.8798828
vt 0.9580078 0.9433594
vt 0.9418945 0.8955078
vt 0.9580078 0.8955078
vt 0.9418945 0.9433594
vt 0.9257813 0.9433594
vt 0.9257813 0.9594727
vt 0.9418945 0.9594727
vt 0.9257813 0.8955078
vt 0.9101563 0.9433594
vt 0.9101563 0.8955078
vt 0.9418945 0.8798828
vt 0.9257813 0.8798828
vt 0.9580078 0.9433594
vt 0.9580078 0.8955078
vt 0.9418945 0.8955078
vt 0.9418945 0.9433594
vt 0.9257813 0.9433594
vt 0.9257813 0.9594727
vt 0.9418945 0.9594727
vt 0.9257813 0.8955078
vt 0.9101563 0.9433594
vt 0.9101563 0.8955078
vt 0.9418945 0.8798828
vt 0.9257813 0.8798828
vn -0.7070313 0 0.7070313
vn 0.7070313 0 0.7070313
vn 0.5771484 -0.5771484 0.5771484
vn -0.5771484 -0.5771484 0.5771484
vn -0.5771484 -0.5771484 -0.5771484
vn -0.7070313 0 -0.7070313
vn -0.7070313 0 0.7070313
vn 0.5771484 -0.5771484 -0.5771484
vn -0.7070313 0 -0.7070313
vn 0.7070313 0 -0.7070313
vn 0.7070313 0 0.7070313
vn 0.7070313 0 -0.7070313
vn 0.7070313 0 0.7070313
vn -0.5771484 -0.5771484 0.5771484
vn -0.7070313 0 0.7070313
vn 0.5771484 -0.5771484 0.5771484
vn 0.5771484 -0.5771484 -0.5771484
vn 0.7070313 0 -0.7070313
vn 0.7070313 0 0.7070313
vn -0.5771484 -0.5771484 -0.5771484
vn 0.7070313 0 -0.7070313
vn -0.7070313 0 -0.7070313
vn -0.7070313 0 0.7070313
vn -0.7070313 0 -0.7070313
vn -0.7070313 0 0.7070313
vn 0.5771484 0.5771484 0.5771484
vn 0.7070313 0 0.7070313
vn -0.5771484 0.5771484 0.5771484
vn -0.5771484 0.5771484 -0.5771484
vn -0.7070313 0 -0.7070313
vn -0.7070313 0 0.7070313
vn 0.5771484 0.5771484 -0.5771484
vn -0.7070313 0 -0.7070313
vn 0.7070313 0 -0.7070313
vn 0.7070313 0 0.7070313
vn 0.7070313 0 -0.7070313
vn 0.7070313 0 0.7070313
vn -0.7070313 0 0.7070313
vn -0.5771484 0.5771484 0.5771484
vn 0.5771484 0.5771484 0.5771484
vn 0.5771484 0.5771484 -0.5771484
vn 0.7070313 0 -0.7070313
vn 0.7070313 0 0.7070313
vn -0.5771484 0.5771484 -0.5771484
vn 0.7070313 0 -0.7070313
vn -0.7070313 0 -0.7070313
vn -0.7070313 0 0.7070313
vn -0.7070313 0 -0.7070313
g boton_uv.003_0
f 3/3/3 2/2/2 1/1/1
f 4/4/4 3/3/3 1/1/1
f 3/3/3 4/4/4 5/5/5
f 5/5/5 4/4/4 6/6/6
f 4/4/4 7/7/7 6/6/6
f 8/8/8 3/3/3 5/5/5
f 5/5/5 9/9/9 8/8/8
f 9/9/9 10/10/10 8/8/8
f 11/11/11 3/3/3 8/8/8
f 12/12/12 11/11/11 8/8/8
f 15/15/15 14/14/14 13/13/13
f 14/14/14 16/16/16 13/13/13
f 16/16/16 14/14/14 17/17/17
f 16/16/16 17/17/17 18/18/18
f 19/19/19 16/16/16 18/18/18
f 14/14/14 20/20/20 17/17/17
f 21/21/21 17/17/17 20/20/20
f 22/22/22 21/21/21 20/20/20
f 14/14/14 23/23/23 20/20/20
f 23/23/23 24/24/24 20/20/20
f 27/27/27 26/26/26 25/25/25
f 26/26/26 28/28/28 25/25/25
f 28/28/28 26/26/26 29/29/29
f 28/28/28 29/29/29 30/30/30
f 31/31/31 28/28/28 30/30/30
f 26/26/26 32/32/32 29/29/29
f 33/33/33 29/29/29 32/32/32
f 34/34/34 33/33/33 32/32/32
f 26/26/26 35/35/35 32/32/32
f 35/35/35 36/36/36 32/32/32
f 39/39/39 38/38/38 37/37/37
f 40/40/40 39/39/39 37/37/37
f 39/39/39 40/40/40 41/41/41
f 41/41/41 40/40/40 42/42/42
f 40/40/40 43/43/43 42/42/42
f 44/44/44 39/39/39 41/41/41
f 41/41/41 45/45/45 44/44/44
f 45/45/45 46/46/46 44/44/44
f 47/47/47 39/39/39 44/44/44
f 48/48/48 47/47/47 44/44/44
