g Box
v 0.6500015 0.3574257 0.9749985
v 0.6635895 0.3574257 0.9749985
v 0.6600037 0.1999998 0.9786987
v 0.6500015 0.1999998 0.9687043
v 0.6635895 0.6184959 0.631691
v 0.6635895 0.3574257 0.9749985
v 0.6500015 0.3574257 0.9749985
v 0.6500015 0.6184959 0.631691
v 0.6635895 0.8283004 0.3557968
v 0.6500015 0.8283004 0.3557968
v 0.65168 1.098869 1.145009E-17
v 0.6652679 1.098869 -1.523198E-17
v 0.6635895 0.8283004 -0.3557968
v 0.6500015 0.8283004 -0.3557968
v 0.6500015 0.6184959 -0.631691
v 0.6635895 0.6184959 -0.631691
v 0.6500015 0.3574257 -0.9749985
v 0.6635895 0.3574257 -0.9749985
v 0.6500015 0.3574257 -0.9749985
v 0.6500015 0.1999998 -0.9687043
v 0.6600037 0.1999998 -0.9786987
v 0.6635895 0.3574257 -0.9749985
v -0.6500014 0.3574257 0.9749985
v -0.6500014 0.1999998 0.9687042
v -0.6600035 0.1999998 0.9786987
v -0.6635894 0.3574257 0.9749985
v -0.6635894 0.6184959 0.631691
v -0.6500014 0.3574257 0.9749985
v -0.6635894 0.3574257 0.9749985
v -0.6500014 0.6184959 0.631691
v -0.6635894 0.8283004 0.3557968
v -0.6500014 0.8283004 0.3557968
v -0.6516799 1.098869 8.45233E-18
v -0.6652678 1.098869 -6.060415E-18
v -0.6635894 0.8283004 -0.3557968
v -0.6500014 0.8283004 -0.3557968
v -0.6500014 0.6184959 -0.631691
v -0.6635894 0.6184959 -0.631691
v -0.6500014 0.3574257 -0.9749985
v -0.6635894 0.3574257 -0.9749985
v -0.6600035 0.1999998 -0.9786987
v -0.6500014 0.1999998 -0.9687042
v 0.6538391 0.2006302 0.9842911
v 0.6600037 0.1999998 0.9786987
v 0.6600037 -0.003700249 0.9786987
v 0.6537018 -0.003700249 0.9850006
v -0.6537018 0.1999998 0.9850006
v 0.617826 0.3579178 0.9842911
v -0.617704 0.3572884 0.9850006
v 0.1157026 1.175003 0.9846497
v -0.6537018 -0.003700249 0.9850006
v -0.6600035 0.1999998 0.9786987
v -0.617704 0.3572884 0.9850006
v -0.6236555 0.3572884 0.9786987
v 0.1157026 1.175003 0.9846497
v 0.1157026 1.174682 0.9786987
v -0.6600037 -0.003700249 0.9786987
v -0.6537018 -0.01000022 0.9786987
v 0.6537018 -0.01000022 0.9786987
v 0.6600037 -0.003700249 0
v 0.6600037 0.1999998 -2.384186E-09
v 0.6600037 0.1999998 0.9786987
v 0.6635895 0.3574257 0.9749985
v 0.6537018 -0.01000022 0
v -0.6537018 -0.01000022 0
v 0.6610257 0.3574257 -4.720303E-17
v 0.6635895 0.6184959 0.631691
v 0.675499 0.6184959 -1.832535E-17
v 0.6635895 0.8283004 0.3557968
v 0.675499 0.8283004 -1.538275E-17
v 0.6652679 1.098869 -1.523198E-17
v 0.6635895 0.8283004 -0.3557968
v 0.6635895 0.6184959 -0.631691
v 0.6635895 0.3574257 -0.9749985
v 0.6600037 0.1999998 -0.9786987
v 0.6600037 -0.003700249 -0.9786987
v 0.6537018 -0.01000022 -0.9786987
v -0.6537018 -0.01000022 -0.9786987
v 0.6537018 -0.003700249 -0.9850006
v 0.6538391 0.2006302 -0.9842911
v 0.6600037 0.1999998 -0.9786987
v -0.6537018 0.1999998 -0.9850006
v 0.589547 0.3579178 -0.9842911
v -0.5894127 0.3572884 -0.9850006
v 0.1157026 1.175003 -0.9846497
v -0.6537018 -0.003700249 -0.9850006
v -0.6600035 0.1999998 -0.9786987
v -0.6600037 -0.003700249 -0.9786987
v -0.6600037 -0.003700249 0
v -0.6600035 0.1999998 -1.43516E-17
v -0.6600035 0.1999998 -0.9786987
v -0.6600035 0.1999998 0.9786987
v -0.6635894 0.3574257 -0.9749985
v -0.6635894 0.3574257 0.9749985
v -0.6754988 0.3574257 -3.187184E-17
v -0.6635894 0.6184959 -0.631691
v -0.6635894 0.6184959 0.631691
v -0.6754988 0.6184959 -1.645069E-17
v -0.6635894 0.8283004 -0.3557968
v -0.6635894 0.8283004 0.3557968
v -0.6754988 0.8283004 -1.22982E-17
v -0.6652678 1.098869 -6.060415E-18
v -0.6500014 0.1999998 0.9687042
v -0.6236555 0.3572884 0.9786987
v -0.6600035 0.1999998 0.9786987
v -0.6142095 0.3572884 0.9687042
v 0.1157026 1.174682 0.9786987
v 0.1157026 1.174682 0.9687042
v 0.6538391 0.2006302 0.9842911
v 0.6236555 0.3572884 0.9786987
v 0.6600037 0.1999998 0.9786987
v 0.617826 0.3579178 0.9842911
v 0.1157026 1.174682 0.9786987
v 0.1157026 1.175003 0.9846497
v 0.6600037 0.1999998 0.9786987
v 0.6141965 0.3572884 0.9687042
v 0.6500015 0.1999998 0.9687043
v 0.6236555 0.3572884 0.9786987
v 0.1157026 1.174682 0.9687042
v 0.1157026 1.174682 0.9786987
v 0.1157026 1.174682 0.9687042
v -0.6142095 0.3572884 0.9687042
v 0.6141965 0.3572884 0.9687042
v -0.6500014 0.1999998 0.9687042
v 0.6500015 0.1999998 0.9687043
v 0.6447393 -0.0006717891 0.9687042
v -0.6552637 -0.0006717891 0.9687042
v -0.6500015 7.450581E-09 0
v 0.6500015 7.450581E-09 0
v 0.6500015 0.1999998 0.9687043
v -0.6500014 0.1999998 1.315866E-17
v -0.6500014 0.1999998 0.9687042
v -0.6516799 0.3574257 1.921388E-18
v -0.6500014 0.3574257 0.9749985
v -0.6500014 0.6184959 0.631691
v -0.6516799 0.6184959 6.459685E-18
v -0.6500014 0.8283004 0.3557968
v -0.6516799 0.8283004 8.276041E-18
v -0.6516799 1.098869 8.45233E-18
v -0.6500014 0.8283004 -0.3557968
v -0.6500014 0.6184959 -0.631691
v -0.6500014 0.3574257 -0.9749985
v -0.6500014 0.1999998 -0.9687042
v -0.6500015 7.450581E-09 -0.9687042
v 0.6500015 7.450581E-09 -0.9687042
v -0.6500014 0.1999998 -0.9687042
v 0.6500015 0.1999998 -0.9687043
v 0.5860911 0.3572884 -0.9687042
v -0.5860738 0.3572884 -0.9687042
v 0.1157026 1.174682 -0.9687042
v 0.6500015 0.1999998 -0.9687043
v 0.6500015 0.1999998 -9.536743E-09
v 0.65168 0.3574257 1.586249E-17
v 0.6500015 0.3574257 -0.9749985
v 0.6500015 0.3574257 0.9749985
v 0.6500015 0.6184959 -0.631691
v 0.6500015 0.6184959 0.631691
v 0.65168 0.6184959 4.445361E-18
v 0.6500015 0.8283004 -0.3557968
v 0.6500015 0.8283004 0.3557968
v 0.65168 0.8283004 -1.951802E-18
v 0.65168 1.098869 1.145009E-17
v -0.6500014 0.1999998 -0.9687042
v -0.6600035 0.1999998 -0.9786987
v -0.5950994 0.3572884 -0.9786987
v -0.5860738 0.3572884 -0.9687042
v 0.1157026 1.174682 -0.9786987
v 0.1157026 1.174682 -0.9687042
v -0.6600035 0.1999998 -0.9786987
v -0.6537018 0.1999998 -0.9850006
v -0.5894127 0.3572884 -0.9850006
v -0.5950994 0.3572884 -0.9786987
v 0.1157026 1.175003 -0.9846497
v 0.1157026 1.174682 -0.9786987
v 0.6538391 0.2006302 -0.9842911
v 0.6600037 0.1999998 -0.9786987
v 0.5950994 0.3572884 -0.9786987
v 0.589547 0.3579178 -0.9842911
v 0.1157026 1.174682 -0.9786987
v 0.1157026 1.175003 -0.9846497
v 0.6600037 0.1999998 -0.9786987
v 0.6500015 0.1999998 -0.9687043
v 0.5860911 0.3572884 -0.9687042
v 0.5950994 0.3572884 -0.9786987
v 0.5950994 0.3572884 -0.9786987
v 0.5860911 0.3572884 -0.9687042
v 0.1157026 1.174682 -0.9687042
v 0.1157026 1.174682 -0.9786987
vt 0.09228516 0.4970703
vt 0.09594727 0.4975586
vt 0.1665039 0.5512695
vt 0.1652832 0.5551758
vt 0.1031494 0.3723145
vt 0.09594727 0.4975586
vt 0.09228516 0.4970703
vt 0.0994873 0.3720703
vt 0.1099854 0.2724609
vt 0.1062622 0.2717285
vt 0.1196289 0.1501465
vt 0.1226196 0.1525879
vt 0.2368164 0.1134644
vt 0.2353516 0.1099854
vt 0.3317871 0.08105469
vt 0.3327637 0.08453369
vt 0.4523926 0.04598999
vt 0.4536133 0.04949951
vt 0.4523926 0.04598999
vt 0.5258789 0.1047363
vt 0.5219727 0.1067505
vt 0.4536133 0.04949951
vt 0.5922852 0.8867188
vt 0.550293 0.8632813
vt 0.5537109 0.8618164
vt 0.5922852 0.8833008
vt 0.7211914 0.8735352
vt 0.5922852 0.8867188
vt 0.5922852 0.8833008
vt 0.7226563 0.8769531
vt 0.8183594 0.8413086
vt 0.8198242 0.8447266
vt 0.9384766 0.8056641
vt 0.9355469 0.8032227
vt 0.9467773 0.6806641
vt 0.9501953 0.6811523
vt 0.9599609 0.5791016
vt 0.956543 0.5786133
vt 0.9404297 0.449707
vt 0.9370117 0.4504395
vt 0.9082031 0.4187012
vt 0.9086914 0.4150391
vt 0.1693115 0.6313477
vt 0.1682129 0.6293945
vt 0.2139893 0.5869141
vt 0.2147217 0.5898438
vt 0.4772949 0.8720703
vt 0.1306152 0.6914063
vt 0.4309082 0.9174805
vt 0.1317139 0.9672852
vt 0.5053711 0.8232422
vt 0.4797363 0.8725586
vt 0.4309082 0.9174805
vt 0.4318848 0.9194336
vt 0.1317139 0.9672852
vt 0.1308594 0.9682617
vt 0.5083008 0.8232422
vt 0.5068359 0.8212891
vt 0.2163086 0.5878906
vt 0.3869629 0.3635254
vt 0.3413086 0.3269043
vt 0.1665039 0.5512695
vt 0.09594727 0.4975586
vt 0.3891602 0.3649902
vt 0.6860352 0.6044922
vt 0.2736816 0.2729492
vt 0.1031494 0.3723145
vt 0.2192383 0.2294922
vt 0.1099854 0.2724609
vt 0.1757813 0.1948242
vt 0.1226196 0.1525879
vt 0.2368164 0.1134644
vt 0.3327637 0.08453369
vt 0.4536133 0.04949951
vt 0.5219727 0.1067505
vt 0.5673828 0.1452637
vt 0.5688477 0.1473389
vt 0.8583984 0.3823242
vt 0.5703125 0.1452637
vt 0.6000977 0.0904541
vt 0.5976563 0.090271
vt 0.9003906 0.3422852
vt 0.6503906 0.03210449
vt 0.9428711 0.2607422
vt 0.8852539 0.01646423
vt 0.8598633 0.3803711
vt 0.9018555 0.3444824
vt 0.8608398 0.3833008
vt 0.6879883 0.605957
vt 0.7338867 0.6425781
vt 0.9082031 0.4187012
vt 0.5537109 0.8618164
vt 0.9370117 0.4504395
vt 0.5922852 0.8833008
vt 0.769043 0.6704102
vt 0.956543 0.5786133
vt 0.7211914 0.8735352
vt 0.8369141 0.7246094
vt 0.9467773 0.6806641
vt 0.8183594 0.8413086
vt 0.8798828 0.7587891
vt 0.9355469 0.8032227
vt 0.4831543 0.8740234
vt 0.4318848 0.9194336
vt 0.4797363 0.8725586
vt 0.4306641 0.9233398
vt 0.1308594 0.9682617
vt 0.1291504 0.9707031
vt 0.1693115 0.6313477
vt 0.1287842 0.690918
vt 0.1682129 0.6293945
vt 0.1306152 0.6914063
vt 0.1308594 0.9682617
vt 0.1317139 0.9672852
vt 0.1682129 0.6293945
vt 0.125 0.6923828
vt 0.166626 0.6254883
vt 0.1287842 0.690918
vt 0.1291504 0.9707031
vt 0.1308594 0.9682617
vt 0.1379395 0.9375
vt 0.4313965 0.9052734
vt 0.1580811 0.6831055
vt 0.4758301 0.8510742
vt 0.2023926 0.6289063
vt 0.237915 0.5874023
vt 0.5112305 0.8095703
vt 0.6757813 0.6049805
vt 0.4023438 0.3830566
vt 0.1954346 0.5532227
vt 0.7182617 0.6391602
vt 0.5537109 0.84375
vt 0.7524414 0.6665039
vt 0.5869141 0.8725586
vt 0.7114258 0.8535156
vt 0.8188477 0.7197266
vt 0.7993164 0.828125
vt 0.8598633 0.7529297
vt 0.9130859 0.7954102
vt 0.9204102 0.6777344
vt 0.9262695 0.5864258
vt 0.9179688 0.4606934
vt 0.8833008 0.4348145
vt 0.8413086 0.4008789
vt 0.5673828 0.1789551
vt 0.8754883 0.3586426
vt 0.6015625 0.1368408
vt 0.6420898 0.07623291
vt 0.9316406 0.2780762
vt 0.8461914 0.03585815
vt 0.5253906 0.1448975
vt 0.3601074 0.348877
vt 0.293457 0.2949219
vt 0.4592285 0.08929443
vt 0.1273193 0.5004883
vt 0.348877 0.1199951
vt 0.1340332 0.3864746
vt 0.2415771 0.2531738
vt 0.260498 0.1446533
vt 0.1394043 0.2946777
vt 0.1999512 0.2197266
vt 0.1500244 0.1793213
vt 0.9042969 0.347168
vt 0.9018555 0.3444824
vt 0.9443359 0.2612305
vt 0.9467773 0.2587891
vt 0.8857422 0.015625
vt 0.887207 0.0141983
vt 0.9018555 0.3444824
vt 0.9003906 0.3422852
vt 0.9428711 0.2607422
vt 0.9443359 0.2612305
vt 0.8852539 0.01646423
vt 0.8857422 0.015625
vt 0.6000977 0.0904541
vt 0.5976563 0.090271
vt 0.6494141 0.03053284
vt 0.6503906 0.03210449
vt 0.8857422 0.015625
vt 0.8852539 0.01646423
vt 0.5976563 0.090271
vt 0.59375 0.09082031
vt 0.6474609 0.0274353
vt 0.6494141 0.03053284
vt 0.6494141 0.03053284
vt 0.6523438 0.02761841
vt 0.887207 0.0141983
vt 0.8857422 0.015625
vn -0.3901022 -0.003142808 0.9207662
vn -0.3901022 -0.003142809 0.9207663
vn -0.3901022 -0.003142808 0.9207662
vn -0.3901022 -0.003142809 0.9207662
vn 0 0.7959875 0.605313
vn 0 0.795987 0.6053138
vn 0 0.795987 0.6053138
vn 0 0.7959875 0.605313
vn 0 0.795987 0.6053137
vn 0 0.795987 0.6053138
vn 0 1 0
vn 0 1 0
vn 0 0.795987 -0.6053138
vn 0 0.795987 -0.6053137
vn 0 0.7959875 -0.605313
vn 0 0.7959875 -0.605313
vn 0 0.795987 -0.6053138
vn 0 0.795987 -0.6053138
vn -0.3901022 -0.003142693 -0.9207662
vn -0.3901022 -0.003142693 -0.9207662
vn -0.3901022 -0.003142693 -0.9207662
vn -0.3901022 -0.003142693 -0.9207663
vn 0.3901022 -0.003142924 0.9207662
vn 0.3901022 -0.003142924 0.9207663
vn 0.3901022 -0.003142924 0.9207662
vn 0.3901022 -0.003142924 0.9207663
vn 0 0.7959875 0.605313
vn 0 0.795987 0.6053138
vn 0 0.795987 0.6053138
vn 0 0.7959875 0.605313
vn 0 0.795987 0.6053138
vn 0 0.795987 0.6053137
vn 0 1 0
vn 0 1 0
vn 0 0.795987 -0.6053137
vn 0 0.795987 -0.6053138
vn 0 0.7959875 -0.605313
vn 0 0.7959875 -0.605313
vn 0.1095947 0.6489794 -0.752871
vn 0.1083295 0.6509351 -0.7513642
vn 0.3901022 -0.003143039 -0.9207662
vn 0.3901022 -0.00314304 -0.9207663
vn 0.003017254 0.0010593 0.9999949
vn 0.999975 -0.006297091 0.003220777
vn 0.9995344 -0.02987234 0.006211885
vn 0.004689778 -0.02816199 0.9995924
vn -0.005010608 0.001623092 0.9999862
vn 0.0005676261 -5.061834E-05 0.9999999
vn 0.0005668449 -4.648417E-05 0.9999999
vn 0.0005742967 -8.591856E-05 0.9999999
vn -0.004430912 -0.02817941 0.9995931
vn -0.9996399 -0.02538503 0.008700856
vn -0.7167522 0.5877199 0.3753021
vn -0.7274448 0.5390273 0.4245865
vn -0.7027192 0.6330183 0.3247668
vn -0.7027193 0.6330183 0.3247668
vn -0.9995341 -0.02987031 0.006267703
vn -0.004775069 -0.9999683 0.006375383
vn 0.004775069 -0.9999683 0.006375383
vn 0.99955 -0.02999549 0
vn 0.9999797 -0.006379583 0
vn 0.999975 -0.006297091 0.003220777
vn 0.9998381 -0.01795132 0.001235495
vn 0.00479552 -0.9999886 0
vn -0.00479552 -0.9999886 0
vn 0.9998004 -0.01997958 0
vn 0.9997815 -0.01934951 0.007905737
vn 0.9999423 -0.01074454 0
vn 0.9995182 0.01822724 0.02512103
vn 0.9997397 0.02281445 0
vn 0.9992859 0.03778609 0
vn 0.9995182 0.01822724 -0.02512103
vn 0.9997815 -0.01934951 -0.007905737
vn 0.9998381 -0.0179514 -0.001235494
vn 0.999975 -0.006297147 -0.003220774
vn 0.9995344 -0.02987234 -0.006211879
vn 0.004775069 -0.9999683 -0.006375383
vn -0.004775069 -0.9999683 -0.006375383
vn 0.004689758 -0.02816199 -0.9995924
vn 0.003164511 0.001120793 -0.9999944
vn 0.999975 -0.006297147 -0.003220774
vn -0.002714715 0.001117195 -0.9999957
vn 0.0005884193 -5.102793E-05 -0.9999999
vn 0.0005868925 -4.662635E-05 -0.9999999
vn 0.0006018726 -8.981305E-05 -0.9999999
vn -0.004430936 -0.02817941 -0.9995931
vn -0.9996415 -0.02603047 -0.006265657
vn -0.9995341 -0.02987031 -0.006267702
vn -0.99955 -0.0299949 0
vn -0.9996529 -0.02634999 0
vn -0.9996415 -0.02603047 -0.006265657
vn -0.9996399 -0.02538503 0.008700856
vn -0.9993311 -0.03539081 -0.00920938
vn -0.9993311 -0.03539086 0.00920938
vn -0.9998006 -0.01996673 0
vn -0.9998193 0.01044365 -0.0158838
vn -0.9998193 0.01044371 0.0158838
vn -0.9999307 0.01176737 0
vn -0.9995183 0.01822712 -0.02512103
vn -0.9995183 0.01822712 0.02512103
vn -0.9997397 0.02281435 0
vn -0.9992859 0.03778609 0
vn -0.7072461 0.162189 -0.6881117
vn -0.7257221 0.5389343 -0.4276415
vn -0.7072462 0.162189 -0.6881116
vn -0.7152353 0.586485 -0.380097
vn -0.701679 0.6306342 -0.3315827
vn -0.701679 0.6306342 -0.3315827
vn 0.6823191 0.1569512 0.7140076
vn 0.7834884 0.4131597 0.4641605
vn 0.682319 0.1569512 0.7140077
vn 0.790472 0.4549819 0.4100554
vn 0.7935424 0.4903117 0.3603953
vn 0.7935424 0.4903117 0.3603953
vn 0.7070193 0.1621653 -0.6883504
vn 0.7884101 0.4477806 -0.4217846
vn 0.7070193 0.1621653 -0.6883504
vn 0.785362 0.4177129 -0.4568615
vn 0.7898445 0.4862614 -0.3737586
vn 0.7898445 0.4862614 -0.3737586
vn 0 0 -1
vn 0 0 -1
vn 0 0 -1
vn 0.627595 -0.003057461 -0.778534
vn 0 0 -1
vn -0.1482796 0.9679929 -0.2024918
vn 0.1500365 0.9687846 -0.1973462
vn 0.1521077 0.9883637 0.0005500963
vn -0.1523209 0.988331 0.0001350299
vn -0.9999516 0.009652869 -0.001885356
vn 0.9999989 -0.001315136 0.0007584629
vn 0.627595 -0.003057461 -0.778534
vn 0.9999989 0.001461516 0
vn 0.999995 0.002874675 -0.001314595
vn 0.9999964 -0.001472147 -0.002238925
vn 0.9999987 -0.001658525 0
vn 0.9999918 -0.001993381 -0.003541975
vn 0.9999988 -0.001526026 0
vn 1 0 0
vn 0.9999918 -0.001993381 0.003541975
vn 0.9999964 -0.001472021 0.002238925
vn 0.999995 0.002874764 0.001314595
vn 0.6528942 0.001562227 0.7574476
vn 0.1489864 0.9684147 0.19994
vn -0.1489864 0.9684147 0.19994
vn 0.6528942 0.001562227 0.7574476
vn -0.6528834 0.001562439 0.7574568
vn 0 0 1
vn 0 0 1
vn 0 0 1
vn -0.6528834 0.001562439 0.7574568
vn -0.9999815 0.006032369 -0.0007584585
vn -0.9999989 0.001461622 0
vn -0.999995 0.002874851 0.001314595
vn -0.999995 0.002874765 -0.001314595
vn -0.9999964 -0.001471928 0.002238925
vn -0.9999964 -0.001472038 -0.002238925
vn -0.9999987 -0.001658501 0
vn -0.9999918 -0.001993637 0.003541975
vn -0.9999918 -0.001993509 -0.003541975
vn -0.9999988 -0.001526173 0
vn -1 0 0
vn -0.6943995 0.2843857 0.6610098
vn -0.6943995 0.2843857 0.6610098
vn -0.7260947 0.5482304 0.4150058
vn -0.7218687 0.5872453 0.3661264
vn -0.7160239 0.6186962 0.3233034
vn -0.7160239 0.6186962 0.3233034
vn -0.6944818 0.2852122 -0.6605672
vn -0.6944818 0.2852123 -0.6605672
vn -0.7231222 0.5887406 -0.3612182
vn -0.7273977 0.5488105 -0.4119464
vn -0.7170509 0.6209958 -0.3165474
vn -0.7170509 0.6209958 -0.3165474
vn 0.6786408 0.2787151 -0.6795326
vn 0.6786408 0.2787151 -0.6795326
vn 0.7862238 0.4259124 -0.4477174
vn 0.8003948 0.4526155 -0.3930744
vn 0.8091071 0.4718004 -0.3503572
vn 0.8091071 0.4718003 -0.3503573
vn 0.6946841 0.2844625 0.6606777
vn 0.6946841 0.2844625 0.6606777
vn 0.7970931 0.4471037 0.4058827
vn 0.7879286 0.4276187 0.4430698
vn 0.7879286 0.4276187 0.4430698
vn 0.7970931 0.4471037 0.4058827
vn 0.8056567 0.4680721 0.3630782
vn 0.8056567 0.4680721 0.3630782
g Box_0
f 3/3/3 2/2/2 1/1/1
f 4/4/4 3/3/3 1/1/1
f 7/7/7 6/6/6 5/5/5
f 8/8/8 7/7/7 5/5/5
f 8/8/8 5/5/5 9/9/9
f 10/10/10 8/8/8 9/9/9
f 10/10/10 9/9/9 11/11/11
f 9/9/9 12/12/12 11/11/11
f 12/12/12 13/13/13 11/11/11
f 13/13/13 14/14/14 11/11/11
f 15/15/15 14/14/14 13/13/13
f 16/16/16 15/15/15 13/13/13
f 17/17/17 15/15/15 16/16/16
f 18/18/18 17/17/17 16/16/16
f 21/21/21 20/20/20 19/19/19
f 22/22/22 21/21/21 19/19/19
f 25/25/25 24/24/24 23/23/23
f 26/26/26 25/25/25 23/23/23
f 29/29/29 28/28/28 27/27/27
f 28/28/28 30/30/30 27/27/27
f 27/27/27 30/30/30 31/31/31
f 30/30/30 32/32/32 31/31/31
f 31/31/31 32/32/32 33/33/33
f 34/34/34 31/31/31 33/33/33
f 35/35/35 34/34/34 33/33/33
f 36/36/36 35/35/35 33/33/33
f 36/36/36 37/37/37 35/35/35
f 37/37/37 38/38/38 35/35/35
f 37/37/37 39/39/39 38/38/38
f 39/39/39 40/40/40 38/38/38
f 41/41/41 40/40/40 39/39/39
f 42/42/42 41/41/41 39/39/39
f 45/45/45 44/44/44 43/43/43
f 46/46/46 45/45/45 43/43/43
f 46/46/46 43/43/43 47/47/47
f 43/43/43 48/48/48 47/47/47
f 48/48/48 49/49/49 47/47/47
f 48/48/48 50/50/50 49/49/49
f 51/51/51 46/46/46 47/47/47
f 47/47/47 52/52/52 51/51/51
f 47/47/47 53/53/53 52/52/52
f 53/53/53 54/54/54 52/52/52
f 53/53/53 55/55/55 54/54/54
f 55/55/55 56/56/56 54/54/54
f 52/52/52 57/57/57 51/51/51
f 46/46/46 51/51/51 58/58/58
f 58/58/58 51/51/51 57/57/57
f 45/45/45 46/46/46 59/59/59
f 59/59/59 46/46/46 58/58/58
f 45/45/45 59/59/59 60/60/60
f 60/60/60 61/61/61 45/45/45
f 61/61/61 62/62/62 45/45/45
f 62/62/62 61/61/61 63/63/63
f 64/64/64 59/59/59 58/58/58
f 59/59/59 64/64/64 60/60/60
f 58/58/58 57/57/57 65/65/65
f 65/65/65 64/64/64 58/58/58
f 61/61/61 66/66/66 63/63/63
f 63/63/63 66/66/66 67/67/67
f 66/66/66 68/68/68 67/67/67
f 67/67/67 68/68/68 69/69/69
f 68/68/68 70/70/70 69/69/69
f 69/69/69 70/70/70 71/71/71
f 70/70/70 72/72/72 71/71/71
f 70/70/70 68/68/68 72/72/72
f 68/68/68 73/73/73 72/72/72
f 68/68/68 66/66/66 73/73/73
f 66/66/66 74/74/74 73/73/73
f 66/66/66 61/61/61 74/74/74
f 61/61/61 75/75/75 74/74/74
f 75/75/75 61/61/61 76/76/76
f 61/61/61 60/60/60 76/76/76
f 64/64/64 77/77/77 60/60/60
f 77/77/77 76/76/76 60/60/60
f 77/77/77 64/64/64 78/78/78
f 64/64/64 65/65/65 78/78/78
f 79/79/79 76/76/76 77/77/77
f 79/79/79 77/77/77 78/78/78
f 76/76/76 79/79/79 80/80/80
f 81/81/81 76/76/76 80/80/80
f 80/80/80 79/79/79 82/82/82
f 83/83/83 80/80/80 82/82/82
f 84/84/84 83/83/83 82/82/82
f 85/85/85 83/83/83 84/84/84
f 79/79/79 86/86/86 82/82/82
f 86/86/86 79/79/79 78/78/78
f 87/87/87 82/82/82 86/86/86
f 88/88/88 87/87/87 86/86/86
f 86/86/86 78/78/78 88/88/88
f 88/88/88 78/78/78 65/65/65
f 89/89/89 88/88/88 65/65/65
f 88/88/88 89/89/89 90/90/90
f 57/57/57 89/89/89 65/65/65
f 89/89/89 57/57/57 90/90/90
f 91/91/91 88/88/88 90/90/90
f 57/57/57 92/92/92 90/90/90
f 91/91/91 90/90/90 93/93/93
f 90/90/90 92/92/92 94/94/94
f 90/90/90 95/95/95 93/93/93
f 95/95/95 90/90/90 94/94/94
f 93/93/93 95/95/95 96/96/96
f 95/95/95 94/94/94 97/97/97
f 95/95/95 98/98/98 96/96/96
f 98/98/98 95/95/95 97/97/97
f 96/96/96 98/98/98 99/99/99
f 98/98/98 97/97/97 100/100/100
f 98/98/98 101/101/101 99/99/99
f 101/101/101 98/98/98 100/100/100
f 99/99/99 101/101/101 102/102/102
f 101/101/101 100/100/100 102/102/102
f 105/105/105 104/104/104 103/103/103
f 104/104/104 106/106/106 103/103/103
f 104/104/104 107/107/107 106/106/106
f 107/107/107 108/108/108 106/106/106
f 111/111/111 110/110/110 109/109/109
f 110/110/110 112/112/112 109/109/109
f 110/110/110 113/113/113 112/112/112
f 113/113/113 114/114/114 112/112/112
f 117/117/117 116/116/116 115/115/115
f 116/116/116 118/118/118 115/115/115
f 116/116/116 119/119/119 118/118/118
f 119/119/119 120/120/120 118/118/118
f 123/123/123 122/122/122 121/121/121
f 124/124/124 122/122/122 123/123/123
f 125/125/125 124/124/124 123/123/123
f 124/124/124 125/125/125 126/126/126
f 127/127/127 124/124/124 126/126/126
f 128/128/128 127/127/127 126/126/126
f 129/129/129 128/128/128 126/126/126
f 129/129/129 126/126/126 130/130/130
f 127/127/127 128/128/128 131/131/131
f 132/132/132 127/127/127 131/131/131
f 131/131/131 133/133/133 132/132/132
f 133/133/133 134/134/134 132/132/132
f 135/135/135 134/134/134 133/133/133
f 136/136/136 135/135/135 133/133/133
f 137/137/137 135/135/135 136/136/136
f 138/138/138 137/137/137 136/136/136
f 139/139/139 137/137/137 138/138/138
f 140/140/140 139/139/139 138/138/138
f 140/140/140 138/138/138 136/136/136
f 141/141/141 140/140/140 136/136/136
f 141/141/141 136/136/136 133/133/133
f 142/142/142 141/141/141 133/133/133
f 142/142/142 133/133/133 143/143/143
f 133/133/133 131/131/131 143/143/143
f 144/144/144 143/143/143 131/131/131
f 128/128/128 144/144/144 131/131/131
f 144/144/144 128/128/128 145/145/145
f 128/128/128 129/129/129 145/145/145
f 146/146/146 144/144/144 145/145/145
f 147/147/147 146/146/146 145/145/145
f 146/146/146 147/147/147 148/148/148
f 149/149/149 146/146/146 148/148/148
f 149/149/149 148/148/148 150/150/150
f 145/145/145 129/129/129 151/151/151
f 129/129/129 152/152/152 151/151/151
f 152/152/152 153/153/153 151/151/151
f 152/152/152 129/129/129 130/130/130
f 153/153/153 152/152/152 130/130/130
f 153/153/153 154/154/154 151/151/151
f 155/155/155 153/153/153 130/130/130
f 156/156/156 154/154/154 153/153/153
f 155/155/155 157/157/157 153/153/153
f 158/158/158 156/156/156 153/153/153
f 157/157/157 158/158/158 153/153/153
f 159/159/159 156/156/156 158/158/158
f 157/157/157 160/160/160 158/158/158
f 161/161/161 159/159/159 158/158/158
f 160/160/160 161/161/161 158/158/158
f 162/162/162 159/159/159 161/161/161
f 160/160/160 162/162/162 161/161/161
f 165/165/165 164/164/164 163/163/163
f 166/166/166 165/165/165 163/163/163
f 167/167/167 165/165/165 166/166/166
f 168/168/168 167/167/167 166/166/166
f 171/171/171 170/170/170 169/169/169
f 172/172/172 171/171/171 169/169/169
f 173/173/173 171/171/171 172/172/172
f 174/174/174 173/173/173 172/172/172
f 177/177/177 176/176/176 175/175/175
f 178/178/178 177/177/177 175/175/175
f 179/179/179 177/177/177 178/178/178
f 180/180/180 179/179/179 178/178/178
f 183/183/183 182/182/182 181/181/181
f 184/184/184 183/183/183 181/181/181
f 187/187/187 186/186/186 185/185/185
f 188/188/188 187/187/187 185/185/185
