g Box002
v -0.2177484 1.211166E-08 -0.3547211
v -0.04268686 -0.02908835 -0.4499688
v -0.05762724 0 -0.4523652
v -0.1612952 -0.1099123 -0.3456661
v 8.196518E-09 -0.04755086 -0.4523652
v -0.3441514 2.422333E-08 -0.2746045
v -3.354071E-09 -0.1796742 -0.3547211
v -0.254927 -0.1737165 -0.2602931
v 0.04268688 -0.02908835 -0.4499688
v 0.05762726 0 -0.4523652
v 0.1612952 -0.1099124 -0.3456661
v 0.2177485 -3.633499E-08 -0.3547211
v -1.247234E-08 -0.2839751 -0.2746045
v 0.254927 -0.1737165 -0.2602931
v 0.3441515 -2.422333E-08 -0.2746045
v 0.4588687 -6.055832E-08 0.01545824
v 0.3441514 -0.2839751 0.01545819
v 0.4588687 -8.478165E-08 0.2917078
v -0.3441515 -0.2839751 0.01545819
v -0.4588687 1.211166E-08 0.01545824
v -2.486549E-08 -0.4257362 0.01545819
v 0.3441514 -0.2839752 0.2917078
v 0.3219905 -8.478165E-08 0.4486939
v -0.3441515 -0.2839751 0.2917078
v -0.4588687 -1.211166E-08 0.2917078
v -2.48655E-08 -0.4257362 0.2917077
v 0.2414929 -0.2628319 0.4486939
v -0.2414929 -0.2628318 0.4486939
v -0.3219904 -3.633499E-08 0.4486939
v -0.2325431 -4.844665E-08 0.4874417
v -1.932028E-08 -0.3623063 0.4486939
v -0.1744073 -0.1898184 0.4874417
v -0.08772939 -7.266998E-08 0.5050738
v 0.1744073 -0.1898185 0.4874417
v 0.2325431 -9.689331E-08 0.4874417
v -1.052145E-08 -0.2616594 0.4874417
v -0.06579705 -0.07161113 0.5050738
v 0.08772942 -9.689331E-08 0.5050738
v 3.723701E-09 -0.09871391 0.5050738
v 0.06579706 -0.07161114 0.5050738
v 0.05762726 0 -0.4523652
v -0.04268686 -0.02908835 -0.4499688
v 8.196518E-09 -0.04755086 -0.4523652
v -0.05762724 0 -0.4523652
v -0.04268685 0.02908836 -0.4499688
v 0.05762726 0 -0.4523652
v 1.651058E-08 0.04755088 -0.4523652
v -0.05762724 0 -0.4523652
v -0.1612951 0.1099124 -0.3456661
v -0.05762724 0 -0.4523652
v -0.04268685 0.02908836 -0.4499688
v -0.2177484 1.211166E-08 -0.3547211
v 2.806116E-08 0.1796741 -0.354721
v 1.651058E-08 0.04755088 -0.4523652
v -0.254927 0.1737165 -0.2602931
v -0.3441514 2.422333E-08 -0.2746045
v 3.717944E-08 0.2839751 -0.2746044
v -0.3441514 0.2839751 0.01545826
v -0.4588687 1.211166E-08 0.01545824
v 4.957258E-08 0.4257361 0.01545826
v -0.3441514 0.2839751 0.2917078
v -0.4588687 -1.211166E-08 0.2917078
v 4.957258E-08 0.4257361 0.2917078
v -0.2414928 0.2628317 0.448694
v -0.3219904 -3.633499E-08 0.4486939
v 4.402736E-08 0.3623062 0.448694
v -0.1744073 0.1898183 0.4874417
v -0.2325431 -4.844665E-08 0.4874417
v 3.522852E-08 0.2616592 0.4874417
v -0.06579704 0.07161094 0.5050738
v -0.08772939 -7.266998E-08 0.5050738
v 2.098337E-08 0.0987137 0.5050738
v 0.06579708 0.07161094 0.5050738
v 0.08772942 -9.689331E-08 0.5050738
v 0.1744073 0.1898183 0.4874417
v 0.2325431 -9.689331E-08 0.4874417
v 0.2414929 0.2628317 0.448694
v 0.3219905 -8.478165E-08 0.4486939
v 0.3441515 0.283975 0.2917078
v 0.4588687 -8.478165E-08 0.2917078
v 0.3441515 0.283975 0.01545826
v 0.4588687 -6.055832E-08 0.01545824
v 0.254927 0.1737165 -0.2602931
v 0.3441515 -2.422333E-08 -0.2746045
v 0.1612952 0.1099123 -0.3456661
v 0.2177485 -3.633499E-08 -0.3547211
v 0.04268688 0.02908836 -0.4499688
v 0.05762726 0 -0.4523652
vt 0.3125 0.4077148
vt 0.286377 0.3918457
vt 0.2885742 0.3920898
vt 0.3041992 0.4069824
vt 0.2797852 0.3911133
vt 0.331543 0.4206543
vt 0.2797852 0.4040527
vt 0.3181152 0.4191895
vt 0.2734375 0.3918457
vt 0.2712402 0.3920898
vt 0.2556152 0.4069824
vt 0.2470703 0.4077148
vt 0.2797852 0.4145508
vt 0.2414551 0.4191895
vt 0.2281494 0.4206543
vt 0.2108154 0.467041
vt 0.2280273 0.4609375
vt 0.2108154 0.5112305
vt 0.331543 0.4609375
vt 0.348877 0.467041
vt 0.2797852 0.4580078
vt 0.2280273 0.5053711
vt 0.2314453 0.5361328
vt 0.331543 0.5053711
vt 0.348877 0.5112305
vt 0.2797852 0.5019531
vt 0.2435303 0.5307617
vt 0.3161621 0.5307617
vt 0.3283691 0.5361328
vt 0.3149414 0.5424805
vt 0.2797852 0.5288086
vt 0.3061523 0.5385742
vt 0.2929688 0.5454102
vt 0.2536621 0.5385742
vt 0.244873 0.5424805
vt 0.2797852 0.5371094
vt 0.2897949 0.5439453
vt 0.2666016 0.5454102
vt 0.2797852 0.543457
vt 0.2700195 0.5439453
vt 0.2712402 0.3920898
vt 0.286377 0.3918457
vt 0.2797852 0.3911133
vt 0.2885742 0.3920898
vt 0.1096802 0.5161133
vt 0.09393311 0.5166016
vt 0.1029663 0.515625
vt 0.1120605 0.5166016
vt 0.1282959 0.53125
vt 0.1120605 0.5166016
vt 0.1096802 0.5161133
vt 0.137207 0.5322266
vt 0.1028442 0.5283203
vt 0.1029663 0.515625
vt 0.1429443 0.543457
vt 0.1571045 0.5454102
vt 0.1027222 0.5390625
vt 0.1568604 0.5859375
vt 0.1751709 0.5917969
vt 0.1026001 0.5825195
vt 0.1568604 0.6303711
vt 0.1751709 0.6367188
vt 0.1026001 0.6274414
vt 0.1407471 0.65625
vt 0.1535645 0.6621094
vt 0.1026611 0.6538086
vt 0.130249 0.6640625
vt 0.1395264 0.668457
vt 0.1027222 0.6625977
vt 0.1132813 0.6694336
vt 0.1167603 0.6708984
vt 0.1029053 0.6689453
vt 0.09259033 0.6694336
vt 0.08917236 0.6708984
vt 0.07537842 0.6640625
vt 0.06640625 0.668457
vt 0.0647583 0.65625
vt 0.05236816 0.6621094
vt 0.0486145 0.6303711
vt 0.03083801 0.6367188
vt 0.0486145 0.5859375
vt 0.03083801 0.5922852
vt 0.06274414 0.5439453
vt 0.04888916 0.5454102
vt 0.07751465 0.53125
vt 0.06872559 0.5322266
vt 0.09625244 0.5161133
vt 0.09393311 0.5166016
vn -0.5296736 0 -0.8482015
vn -0.2483655 -0.3103024 -0.9176202
vn -0.3374772 0 -0.9413337
vn -0.4020854 -0.456564 -0.7936476
vn -0.007502265 -0.3703704 -0.9288539
vn -0.7778028 0 -0.6285084
vn 0 -0.6031404 -0.797635
vn -0.5400763 -0.582166 -0.6077831
vn 0.2869746 -0.3430944 -0.8943892
vn 0.347569 0 -0.9376544
vn 0.4020853 -0.4565641 -0.7936476
vn 0.5296736 0 -0.8482016
vn -0.006789896 -0.7888672 -0.6145262
vn 0.565295 -0.5677528 -0.5984131
vn 0.796324 0 -0.6048704
vn 0.9796473 0 -0.2007268
vn 0.6918454 -0.6884406 -0.2177141
vn 0.9453442 0 0.3260742
vn -0.6843661 -0.6974629 -0.2125762
vn -0.9837631 0 -0.1794718
vn -0.00352815 -0.9758902 -0.2182333
vn 0.7109516 -0.6536849 0.2593143
vn 0.6320974 0 0.774889
vn -0.7067627 -0.6634411 0.2456265
vn -0.9505512 0 0.3105682
vn 0 -0.9831725 0.1826795
vn 0.4860463 -0.5182915 0.7036569
vn -0.4726279 -0.525138 0.7077097
vn -0.6159372 0 0.7877952
vn -0.2867472 0 0.9580063
vn 0 -0.7448082 0.6672785
vn -0.2080079 -0.178903 0.9616269
vn -0.07193901 0 0.997409
vn 0.2080079 -0.178903 0.961627
vn 0.2867472 0 0.9580062
vn 0 -0.2653096 0.9641632
vn -0.05403227 -0.04535328 0.9975086
vn 0.07193895 0 0.997409
vn 0 -0.06720709 0.9977391
vn 0.05403225 -0.04535329 0.9975086
vn 0.347569 0 -0.9376544
vn -0.2483655 -0.3103024 -0.9176202
vn -0.007502265 -0.3703704 -0.9288539
vn -0.3374772 0 -0.9413337
vn -0.2483654 0.3103026 -0.9176202
vn 0.347569 0 -0.9376544
vn -0.007502398 0.3703707 -0.9288538
vn -0.3374772 0 -0.9413337
vn -0.4020853 0.4565642 -0.7936476
vn -0.3374772 0 -0.9413337
vn -0.2483654 0.3103026 -0.9176202
vn -0.5296736 0 -0.8482015
vn 0 0.6031404 -0.797635
vn -0.007502398 0.3703707 -0.9288538
vn -0.5400764 0.5821662 -0.607783
vn -0.7778028 0 -0.6285084
vn -0.006789715 0.7888673 -0.614526
vn -0.684366 0.6974631 -0.212576
vn -0.9837631 0 -0.1794718
vn -0.003527979 0.9758903 -0.2182332
vn -0.7067625 0.6634412 0.2456265
vn -0.9505512 0 0.3105682
vn 0 0.9831725 0.1826796
vn -0.4726278 0.5251377 0.7077099
vn -0.6159372 0 0.7877952
vn 0 0.7448082 0.6672785
vn -0.2080078 0.1789029 0.961627
vn -0.2867472 0 0.9580063
vn 0 0.2653093 0.9641632
vn -0.05403219 0.04535314 0.9975086
vn -0.07193901 0 0.997409
vn 0 0.0672069 0.9977391
vn 0.0540321 0.04535316 0.9975086
vn 0.07193895 0 0.997409
vn 0.2080079 0.1789028 0.961627
vn 0.2867472 0 0.9580062
vn 0.4860464 0.5182912 0.703657
vn 0.6320974 0 0.774889
vn 0.7109517 0.6536847 0.2593144
vn 0.9453442 0 0.3260742
vn 0.6918454 0.6884406 -0.217714
vn 0.9796473 0 -0.2007268
vn 0.5652951 0.5677528 -0.5984131
vn 0.796324 0 -0.6048704
vn 0.4020853 0.4565642 -0.7936476
vn 0.5296736 0 -0.8482016
vn 0.2869747 0.3430943 -0.8943892
vn 0.347569 0 -0.9376544
g Box002_0
f 3/3/3 2/2/2 1/1/1
f 4/4/4 1/1/1 2/2/2
f 2/2/2 5/5/5 4/4/4
f 1/1/1 4/4/4 6/6/6
f 7/7/7 4/4/4 5/5/5
f 8/8/8 6/6/6 4/4/4
f 4/4/4 7/7/7 8/8/8
f 5/5/5 9/9/9 7/7/7
f 9/9/9 5/5/5 10/10/10
f 9/9/9 10/10/10 11/11/11
f 11/11/11 7/7/7 9/9/9
f 12/12/12 11/11/11 10/10/10
f 7/7/7 11/11/11 13/13/13
f 13/13/13 8/8/8 7/7/7
f 11/11/11 12/12/12 14/14/14
f 14/14/14 13/13/13 11/11/11
f 15/15/15 14/14/14 12/12/12
f 15/15/15 16/16/16 14/14/14
f 17/17/17 14/14/14 16/16/16
f 14/14/14 17/17/17 13/13/13
f 16/16/16 18/18/18 17/17/17
f 8/8/8 19/19/19 6/6/6
f 20/20/20 6/6/6 19/19/19
f 13/13/13 21/21/21 8/8/8
f 21/21/21 13/13/13 17/17/17
f 19/19/19 8/8/8 21/21/21
f 22/22/22 17/17/17 18/18/18
f 17/17/17 22/22/22 21/21/21
f 18/18/18 23/23/23 22/22/22
f 19/19/19 24/24/24 20/20/20
f 25/25/25 20/20/20 24/24/24
f 21/21/21 26/26/26 19/19/19
f 26/26/26 21/21/21 22/22/22
f 24/24/24 19/19/19 26/26/26
f 27/27/27 22/22/22 23/23/23
f 22/22/22 27/27/27 26/26/26
f 24/24/24 28/28/28 25/25/25
f 29/29/29 25/25/25 28/28/28
f 29/29/29 28/28/28 30/30/30
f 26/26/26 31/31/31 24/24/24
f 28/28/28 24/24/24 31/31/31
f 31/31/31 26/26/26 27/27/27
f 32/32/32 30/30/30 28/28/28
f 28/28/28 31/31/31 32/32/32
f 30/30/30 32/32/32 33/33/33
f 27/27/27 23/23/23 34/34/34
f 35/35/35 34/34/34 23/23/23
f 31/31/31 27/27/27 36/36/36
f 36/36/36 32/32/32 31/31/31
f 34/34/34 36/36/36 27/27/27
f 37/37/37 33/33/33 32/32/32
f 32/32/32 36/36/36 37/37/37
f 37/37/37 38/38/38 33/33/33
f 39/39/39 37/37/37 36/36/36
f 36/36/36 34/34/34 39/39/39
f 39/39/39 38/38/38 37/37/37
f 38/38/38 40/40/40 35/35/35
f 34/34/34 35/35/35 40/40/40
f 40/40/40 39/39/39 34/34/34
f 40/40/40 38/38/38 39/39/39
f 43/43/43 42/42/42 41/41/41
f 41/41/41 42/42/42 44/44/44
f 47/47/47 46/46/46 45/45/45
f 45/45/45 46/46/46 48/48/48
f 51/51/51 50/50/50 49/49/49
f 52/52/52 49/49/49 50/50/50
f 49/49/49 53/53/53 51/51/51
f 54/54/54 51/51/51 53/53/53
f 49/49/49 52/52/52 55/55/55
f 56/56/56 55/55/55 52/52/52
f 53/53/53 49/49/49 57/57/57
f 55/55/55 57/57/57 49/49/49
f 55/55/55 56/56/56 58/58/58
f 59/59/59 58/58/58 56/56/56
f 57/57/57 55/55/55 60/60/60
f 58/58/58 60/60/60 55/55/55
f 58/58/58 59/59/59 61/61/61
f 62/62/62 61/61/61 59/59/59
f 60/60/60 58/58/58 63/63/63
f 61/61/61 63/63/63 58/58/58
f 61/61/61 62/62/62 64/64/64
f 65/65/65 64/64/64 62/62/62
f 63/63/63 61/61/61 66/66/66
f 64/64/64 66/66/66 61/61/61
f 64/64/64 65/65/65 67/67/67
f 68/68/68 67/67/67 65/65/65
f 66/66/66 64/64/64 69/69/69
f 67/67/67 69/69/69 64/64/64
f 67/67/67 68/68/68 70/70/70
f 71/71/71 70/70/70 68/68/68
f 70/70/70 72/72/72 67/67/67
f 69/69/69 67/67/67 72/72/72
f 71/71/71 73/73/73 70/70/70
f 70/70/70 73/73/73 72/72/72
f 72/72/72 73/73/73 69/69/69
f 74/74/74 73/73/73 71/71/71
f 75/75/75 69/69/69 73/73/73
f 73/73/73 74/74/74 75/75/75
f 69/69/69 75/75/75 66/66/66
f 76/76/76 75/75/75 74/74/74
f 77/77/77 66/66/66 75/75/75
f 75/75/75 76/76/76 77/77/77
f 66/66/66 77/77/77 63/63/63
f 78/78/78 77/77/77 76/76/76
f 79/79/79 63/63/63 77/77/77
f 77/77/77 78/78/78 79/79/79
f 63/63/63 79/79/79 60/60/60
f 80/80/80 79/79/79 78/78/78
f 81/81/81 60/60/60 79/79/79
f 79/79/79 80/80/80 81/81/81
f 60/60/60 81/81/81 57/57/57
f 82/82/82 81/81/81 80/80/80
f 83/83/83 57/57/57 81/81/81
f 81/81/81 82/82/82 83/83/83
f 57/57/57 83/83/83 53/53/53
f 84/84/84 83/83/83 82/82/82
f 85/85/85 53/53/53 83/83/83
f 83/83/83 84/84/84 85/85/85
f 53/53/53 85/85/85 54/54/54
f 86/86/86 85/85/85 84/84/84
f 87/87/87 54/54/54 85/85/85
f 85/85/85 86/86/86 87/87/87
f 87/87/87 88/88/88 54/54/54
f 88/88/88 87/87/87 86/86/86
