g Box002_lp
v -0.8 -0.8 0
v 0.8 -0.8 0
v 0.8 0.8 0
v -0.8 0.8 0
v -0.8 -0.8 1.6
v -0.8 0.8 1.6
v 0.8 0.8 1.6
v 0.8 -0.8 1.6
v -0.8 -0.8 0
v -0.8 -0.8 1.6
v 0.8 -0.8 1.6
v 0.8 -0.8 0
v 0.8 -0.8 0
v 0.8 -0.8 1.6
v 0.8 0.8 1.6
v 0.8 0.8 0
v 0.8 0.8 0
v 0.8 0.8 1.6
v -0.8 0.8 1.6
v -0.8 0.8 0
v -0.8 0.8 0
v -0.8 0.8 1.6
v -0.8 -0.8 1.6
v -0.8 -0.8 0
vt 0.5 0.4951172
vt 0.7392578 0.4951172
vt 0.7392578 0.2558594
vt 0.5 0.2558594
vt 0.2609863 0.4951172
vt 0.2609863 0.2558594
vt 0.02192688 0.2558594
vt 0.02192688 0.4951172
vt 0.5 0.4951172
vt 0.5 0.7338867
vt 0.7392578 0.7338867
vt 0.7392578 0.4951172
vt 0.7392578 0.4951172
vt 0.9780273 0.4951172
vt 0.9780273 0.2558594
vt 0.7392578 0.2558594
vt 0.7392578 0.2558594
vt 0.7392578 0.01693726
vt 0.5 0.01693726
vt 0.5 0.2558594
vt 0.5 0.2558594
vt 0.2609863 0.2558594
vt 0.2609863 0.4951172
vt 0.5 0.4951172
vn 0 0 -1
vn 0 0 -1
vn 0 0 -1
vn 0 0 -1
vn 0 0 1
vn 0 0 1
vn 0 0 1
vn 0 0 1
vn 0 -1 0
vn 0 -1 0
vn 0 -1 0
vn 0 -1 0
vn 1 0 0
vn 1 0 0
vn 1 0 0
vn 1 0 0
vn 0 1 0
vn 0 1 0
vn 0 1 0
vn 0 1 0
vn -1 0 0
vn -1 0 0
vn -1 0 0
vn -1 0 0
g Box002_lp_0
f 3/3/3 2/2/2 1/1/1
f 4/4/4 3/3/3 1/1/1
f 7/7/7 6/6/6 5/5/5
f 8/8/8 7/7/7 5/5/5
f 11/11/11 10/10/10 9/9/9
f 12/12/12 11/11/11 9/9/9
f 15/15/15 14/14/14 13/13/13
f 16/16/16 15/15/15 13/13/13
f 19/19/19 18/18/18 17/17/17
f 20/20/20 19/19/19 17/17/17
f 23/23/23 22/22/22 21/21/21
f 24/24/24 23/23/23 21/21/21
