g BranchRightBack02
v 0.6374024 -0.1653618 0.106979
v 0.638256 -0.1365281 0.09572898
v 0.6337049 -0.1652296 0.07997892
v 0.6464508 -0.1389249 0.109679
v 0.6215006 -0.1199863 0.104279
v 0.6505487 -0.1425549 0.120029
v 0.6469538 -0.1548472 0.128309
v 0.6487058 -0.1375618 0.126689
v 0.645579 -0.1435684 0.130919
v 0.6360568 -0.1495432 0.131459
v 0.6438988 -0.1376329 0.1293889
v 0.6111801 -0.1146787 0.1027489
v 0.517217 -0.1100545 0.05720899
v 0.6360568 -0.1495432 0.131459
v 0.6349688 -0.1062996 0.09356892
v 0.638256 -0.1365281 0.09572898
v 0.6324731 -0.1684275 0.1071589
v 0.6469538 -0.1548472 0.128309
v 0.6374024 -0.1653618 0.106979
v 0.6281762 -0.1691279 0.07484895
v 0.6337049 -0.1652296 0.07997892
v 0.5123694 -0.1385327 0.02417898
v 0.5292482 -0.1404979 -0.001021042
v 0.3835649 -0.125065 0.001498947
v 0.4041924 -0.1169297 0.03236898
v 0.3561127 -0.08730654 0.03713898
v 0.3527679 -0.1014808 -0.01740101
v 0.1303601 -0.05194389 0.03029896
v 0.258479 -0.06828304 -0.04512106
v 0.4357044 -0.06975216 0.05252894
v 0.1542197 -0.04837136 -0.01002103
v 0.1489609 -0.05274615 -0.04773105
v 0.1044034 -0.06207884 -0.06879102
v 0.5345138 -0.07149411 0.04190898
v 0.6297904 -0.09833281 0.08996893
v 0.6600518 -0.1239722 0.08096893
v 0.6597115 -0.1211209 0.07376898
v 0.6500499 -0.1460859 0.06989896
v 0.6337049 -0.1652296 0.07997892
v 0.6483977 -0.1471921 0.06170896
v 0.6309575 -0.1688443 0.07178896
v 0.6281762 -0.1691279 0.07484895
v 0.541168 -0.06541019 0.009508924
v 0.4877125 -0.05589097 -0.006871046
v 0.4312322 -0.04349444 0.04091896
v 0.5333726 -0.07809313 -0.01452101
v 0.5504528 -0.120777 -0.01560101
v 0.4772072 -0.07609595 -0.03261102
v 0.4187415 -0.09599764 -0.04917103
v 0.4370156 -0.04691773 -0.04548108
v 0.4316767 -0.0191611 -0.015781
v 0.3204146 0.02241091 -0.03729103
v 0.6409402 -0.1341227 0.05162896
v 0.6483977 -0.1471921 0.06170896
v 0.6217619 -0.1589195 0.04631896
v 0.6309575 -0.1688443 0.07178896
v 0.6281762 -0.1691279 0.07484895
v 0.5292482 -0.1404979 -0.001021042
v 0.3835649 -0.125065 0.001498947
v 0.3527679 -0.1014808 -0.01740101
v 0.258479 -0.06828304 -0.04512106
v 0.2944697 -0.01319335 -0.07248101
v 0.2814096 -0.05040722 -0.06843104
v 0.1489609 -0.05274615 -0.04773105
v 0.1504946 -0.04362878 -0.06852104
v 0.05088489 0.01201267 -0.09588103
v 0.1044034 -0.06207884 -0.06879102
v 0.1228801 0.03765983 -0.07464103
v 0.1431928 0.08665374 -0.01290104
v -0.05356083 -0.0496432 -0.073741
v -0.02548706 -0.09732148 -0.06258104
v -0.08929542 -0.1193495 -0.04035102
v -0.112012 -0.07671338 -0.02163101
v -0.1452127 -0.1399669 -0.03504106
v -0.1408451 -0.09473698 -0.02667103
v -0.07894295 -0.01958912 -0.06069105
v -0.1273039 -0.03223374 -0.03279106
v -0.1619392 -0.05310312 -0.03594104
v -0.03554268 0.06095797 -0.0004810381
v 0.305691 0.04001906 0.01472897
v 0.2589663 0.0240671 0.06134894
v 0.3173753 -0.05220192 0.05765895
v 0.2278317 -0.04388271 0.06854898
v 0.2142438 0.007072969 0.07853898
v 0.1630284 0.05801418 0.05288895
v 0.0392021 0.06404785 0.02372892
v 0.1120001 -0.02326731 0.06044896
v 0.05082965 0.02123295 0.06143898
v -0.04796449 0.06271094 0.04199897
v 0.07584742 -0.06771758 0.036869
v -0.1062437 0.04214962 0.01382895
v -0.2244598 -0.02023528 0.05900894
v -0.1228629 0.02892193 0.07448893
v -0.06154164 -0.003180009 0.1026589
v 0.06287682 -0.03768757 0.07088894
v 0.01564941 -0.1199441 -0.04665104
v -0.02548706 -0.09732148 -0.06258104
v -0.0311171 -0.15944 0.02786897
v 0.0106099 -0.1374599 0.06539895
v -0.08929542 -0.1193495 -0.04035102
v -0.02580918 -0.06932407 0.147839
v -0.004451165 -0.1151449 0.123719
v -0.0729489 -0.1568371 -0.007411008
v -0.1951747 -0.2232799 0.0004189396
v -0.1452127 -0.1399669 -0.03504106
v -0.2265939 -0.1873444 -0.05556104
v -0.2807514 -0.2295832 -0.045931
v -0.3081626 -0.2785354 0.01067897
v -0.3560301 -0.2609005 -0.032971
v -0.3680455 -0.2918252 0.02534893
v -0.4784374 -0.2712053 -0.04908099
v -0.08495545 -0.1821955 0.08627898
v -0.235823 -0.242302 0.09149899
v -0.4509517 -0.2934178 0.05945895
v -0.2964147 -0.2099567 0.1352389
v -0.2163381 -0.2499161 0.05441893
v -0.4543423 -0.2952373 -0.003181014
v -0.4851052 -0.2914294 0.01364897
v -0.5094678 -0.2626343 0.05513896
v -0.08891843 -0.1541356 0.145049
v -0.0847277 -0.09109787 0.165659
v -0.4950134 -0.2352933 0.09887896
v -0.5343629 -0.2035798 0.06764891
v -0.4672632 -0.2147883 0.123179
v -0.425221 -0.2360985 0.104819
v -0.2072073 -0.1221917 0.163589
v -0.3957413 -0.1711103 0.1319089
v -0.4741167 -0.1265303 0.09095894
v -0.2520832 -0.07364434 0.138479
v -0.5158516 -0.1096038 0.06161897
v -0.5477906 -0.1535369 0.04406895
v -0.5431254 -0.1133935 -0.01011103
v -0.4086643 -0.08093482 0.08600896
v -0.1428005 -0.0944676 0.1624189
v -0.2255915 -0.04014512 0.1097689
v -0.1062187 -0.06298821 0.128309
v -0.1536956 -0.03310846 0.120659
v -0.3070226 -0.03926918 0.07682893
v -0.3599365 -0.05444294 0.032729
v -0.4740233 -0.07873975 0.05162896
v -0.5019512 -0.0765736 -0.008761038
v -0.4334066 -0.08499046 -0.04710105
v -0.505891 -0.09702045 -0.03432103
v -0.5162849 -0.1405293 -0.08076101
v -0.4707281 -0.09853878 -0.07716106
v -0.3727306 -0.1055704 -0.07455108
v -0.451089 -0.1601125 -0.118831
v -0.5019001 -0.2119175 -0.09678105
v -0.1860987 -0.08876704 -0.05826101
v -0.1408451 -0.09473698 -0.02667103
v -0.1452127 -0.1399669 -0.03504106
v -0.2265939 -0.1873444 -0.05556104
v -0.4100188 -0.2327043 -0.09822103
v -0.2807514 -0.2295832 -0.045931
v -0.4568273 -0.2299625 -0.107671
v -0.427529 -0.2708584 -0.07320105
v -0.3560301 -0.2609005 -0.032971
v -0.4784374 -0.2712053 -0.04908099
v -0.4747148 -0.2637896 -0.07761102
vt 0.8834418 0.1415982
vt 0.8801026 0.140332
vt 0.881306 0.1436797
vt 0.8816951 0.1393072
vt 0.8783941 0.1366093
vt 0.8829823 0.1389457
vt 0.8847888 0.1393723
vt 0.8832016 0.1380865
vt 0.8840263 0.1381235
vt 0.8855571 0.1378876
vt 0.8832848 0.1375551
vt 0.8772857 0.1351959
vt 0.8687466 0.1231738
vt 0.8837588 0.1362225
vt 0.8762949 0.1386125
vt 0.8795834 0.1410642
vt 0.8850312 0.1326667
vt 0.8854098 0.1362729
vt 0.8856476 0.1330615
vt 0.8853153 0.1287532
vt 0.8860754 0.1296675
vt 0.872299 0.1181993
vt 0.8759768 0.1167634
vt 0.8630511 0.1037933
vt 0.8615825 0.1085266
vt 0.8554212 0.1038539
vt 0.8605821 0.09854082
vt 0.8339894 0.07954095
vt 0.8537727 0.08576501
vt 0.8578645 0.1154605
vt 0.8404497 0.07825371
vt 0.8439407 0.07444824
vt 0.8427515 0.06812652
vt 0.8646471 0.1279552
vt 0.8753309 0.1379357
vt 0.87623 0.1427858
vt 0.8753843 0.1433129
vt 0.8781908 0.1450194
vt 0.8813207 0.145218
vt 0.877975 0.1461129
vt 0.881417 0.1464472
vt 0.8818931 0.1462126
vt 0.8614188 0.13106
vt 0.8548125 0.1277286
vt 0.8542517 0.1171117
vt 0.8583256 0.1328977
vt 0.8586024 0.1387948
vt 0.8511441 0.1314988
vt 0.8428253 0.1333349
vt 0.8462281 0.1276226
vt 0.8478755 0.1227745
vt 0.8337145 0.1168235
vt 0.8715099 0.1441945
vt 0.8725433 0.1464277
vt 0.868347 0.1467274
vt 0.8700796 0.149973
vt 0.8697357 0.1504527
vt 0.8559631 0.1421338
vt 0.8373862 0.1404164
vt 0.8334087 0.1360162
vt 0.8211313 0.1287052
vt 0.8277 0.1215636
vt 0.8248844 0.12568
vt 0.8069799 0.1216025
vt 0.8081323 0.1187426
vt 0.8000829 0.1063442
vt 0.8002536 0.1180205
vt 0.8105176 0.1073009
vt 0.8176281 0.1004743
vt 0.7842428 0.1005273
vt 0.7820717 0.1074054
vt 0.7729797 0.1009763
vt 0.774806 0.09412182
vt 0.7658985 0.09675854
vt 0.7703257 0.09280074
vt 0.7846943 0.09479069
vt 0.778045 0.08861651
vt 0.7719159 0.08549393
vt 0.7988135 0.08918469
vt 0.8357276 0.1097401
vt 0.8359194 0.1009818
vt 0.8479824 0.1022938
vt 0.8395639 0.09268565
vt 0.8338502 0.09433604
vt 0.8245839 0.09590407
vt 0.8095227 0.08973843
vt 0.8271706 0.08251637
vt 0.8161078 0.08382198
vt 0.7999298 0.08459865
vt 0.8286203 0.07331379
vt 0.7902835 0.08409916
vt 0.7792469 0.069712
vt 0.792434 0.07691149
vt 0.8024106 0.07532286
vt 0.8222255 0.07719024
vt 0.8344446 0.05730122
vt 0.8371035 0.05103525
vt 0.8239207 0.05337824
vt 0.8222056 0.06162399
vt 0.831236 0.04277859
vt 0.8101731 0.06825707
vt 0.8153663 0.06425093
vt 0.8255219 0.04673001
vt 0.8128646 0.03362417
vt 0.8261696 0.03629824
vt 0.8185222 0.02560027
vt 0.8110659 0.02021982
vt 0.8016341 0.02231868
vt 0.8014612 0.01336715
vt 0.7945413 0.01867535
vt 0.7891349 0.001953125
vt 0.8134677 0.05192014
vt 0.800841 0.0370694
vt 0.7835352 0.01587445
vt 0.7909458 0.03846964
vt 0.8053475 0.03509559
vt 0.78734 0.009214232
vt 0.7824964 0.008621594
vt 0.7749268 0.01332186
vt 0.806995 0.05684564
vt 0.804176 0.06362393
vt 0.7736967 0.0204571
vt 0.7657269 0.01972606
vt 0.7750229 0.02538026
vt 0.7809778 0.02560263
vt 0.7930432 0.05411313
vt 0.7788023 0.03537212
vt 0.7670649 0.03391502
vt 0.7848667 0.05660015
vt 0.7609719 0.03236699
vt 0.759092 0.02525988
vt 0.7513794 0.03231854
vt 0.7694361 0.04432752
vt 0.7982045 0.06035524
vt 0.7838703 0.06362643
vt 0.7995555 0.06689069
vt 0.7925812 0.06747127
vt 0.7749261 0.05814922
vt 0.7669419 0.05473301
vt 0.7620033 0.03933071
vt 0.7542917 0.03913417
vt 0.7534891 0.04943943
vt 0.75066 0.03924449
vt 0.7421889 0.03997866
vt 0.7483163 0.04568152
vt 0.752552 0.05869982
vt 0.7411213 0.05012081
vt 0.7326834 0.04535795
vt 0.7644811 0.08278783
vt 0.7652804 0.08990051
vt 0.7586653 0.08996102
vt 0.7488189 0.0807634
vt 0.7351504 0.05846059
vt 0.7398253 0.07597464
vt 0.7333243 0.05228826
vt 0.7289855 0.05810906
vt 0.7306178 0.06862357
vt 0.7228435 0.05298479
vt 0.7271713 0.05249567
vn 0.6853839 -0.7255918 0.06136424
vn 0.9603484 0.05883326 0.2725243
vn 0.7665029 -0.6404381 0.04808736
vn 0.8839483 0.353172 -0.3064391
vn 0.4282277 0.7019364 0.5691276
vn 0.9829416 0.1254798 -0.1344642
vn 0.6273986 -0.5945061 0.502925
vn 0.7797348 0.5429402 0.3118166
vn 0.4150042 0.07220751 0.9069496
vn -0.2669818 -0.2618218 0.9274536
vn 0.1146851 0.5993857 0.792202
vn -0.1720354 0.5713254 0.8024906
vn -0.2830101 -0.1995584 0.9381267
vn -0.2669818 -0.2618218 0.9274536
vn 0.5030702 0.4883437 0.7130503
vn 0.9603484 0.05883326 0.2725243
vn -0.1103136 -0.9355155 0.3356215
vn 0.6273986 -0.5945061 0.502925
vn 0.6853839 -0.7255918 0.06136424
vn -0.01134768 -0.9995558 0.02755917
vn 0.7665029 -0.6404381 0.04808736
vn -0.2172858 -0.9276491 0.3037334
vn -0.01801714 -0.8864494 -0.4624747
vn -0.3675938 -0.9283617 -0.05494829
vn -0.2199517 -0.6894551 0.6901253
vn -0.2074767 -0.724647 0.6571454
vn -0.3040791 -0.927643 -0.2168281
vn 0.04899491 -0.9332839 0.3557818
vn -0.1792613 -0.8692452 -0.4607367
vn 0.01439997 0.05655093 0.9982958
vn -0.05176912 -0.9977913 -0.04162244
vn 0.08510171 -0.9881848 -0.12747
vn 0.2652903 -0.7315842 -0.6280171
vn 0.04369785 0.8300133 0.556029
vn 0.339028 0.8522038 0.398508
vn 0.9049254 0.03233393 0.42434
vn 0.91205 0.3420346 -0.2262236
vn 0.8562711 -0.4992117 0.1326175
vn 0.7665029 -0.6404381 0.04808736
vn 0.7887421 -0.4234926 -0.4455782
vn 0.4103601 -0.8927516 -0.1860085
vn -0.01134768 -0.9995558 0.02755917
vn 0.3611782 0.909789 -0.2045345
vn 0.3864413 0.8788062 -0.2799333
vn 0.3213255 0.7097254 0.6269289
vn 0.4215291 0.4963938 -0.758885
vn 0.3965372 -0.2421402 -0.8855091
vn 0.3667716 0.2927152 -0.8830609
vn 0.05073868 -0.4753229 -0.8783472
vn 0.389971 0.3774724 -0.8399031
vn 0.4457834 0.8892033 -0.1029303
vn 0.3626617 0.8000403 -0.4779247
vn 0.6455466 0.04373793 -0.7624674
vn 0.7887421 -0.4234926 -0.4455782
vn 0.3500901 -0.701224 -0.621065
vn 0.4103601 -0.8927516 -0.1860085
vn -0.01134768 -0.9995558 0.02755917
vn -0.01801714 -0.8864494 -0.4624747
vn -0.3675938 -0.9283617 -0.05494829
vn -0.3040791 -0.927643 -0.2168281
vn -0.1792613 -0.8692452 -0.4607367
vn 0.1576269 0.2537072 -0.9543514
vn -0.0364382 -0.4303975 -0.9019037
vn 0.08510171 -0.9881848 -0.12747
vn 0.105646 -0.6430035 -0.7585417
vn -0.1025812 0.3006855 -0.9481906
vn 0.2652903 -0.7315842 -0.6280171
vn 0.05796101 0.6403632 -0.7658823
vn 0.06595366 0.9873469 -0.144209
vn -0.3138848 -0.1190219 -0.9419714
vn -0.05034688 -0.4302669 -0.9012966
vn -0.1699191 -0.3099312 -0.9354518
vn -0.2275639 -0.05616309 -0.9721422
vn 0.2287132 -0.2127958 -0.9499516
vn 0.317037 0.0718279 -0.9456894
vn -0.5010247 0.3044703 -0.8101063
vn -0.3685942 0.2923083 -0.8824365
vn 0.02165783 0.5141986 -0.8573977
vn -0.2351898 0.8983239 -0.3710794
vn 0.3860839 0.9016473 0.1948624
vn 0.2495051 0.5814382 0.774388
vn 0.06506328 -0.2442105 0.967537
vn -0.05788142 -0.5259502 0.8485435
vn 0.04285938 0.1624488 0.9857858
vn 0.01753751 0.7032418 0.7107344
vn -0.03165251 0.8689229 0.4939342
vn 0.03332407 -0.3909329 0.9198157
vn 0.1461392 0.5030084 0.8518369
vn -0.08549684 0.9326715 0.3504486
vn 0.5420467 -0.7508102 0.3774512
vn -0.4269541 0.8212282 -0.3785426
vn -0.3294098 0.9422466 -0.06050356
vn -0.2570893 0.8388442 0.4798391
vn 0.03608596 0.6100118 0.7915702
vn 0.5411912 -0.1455064 0.8282149
vn 0.3388049 -0.7901068 -0.5108254
vn -0.05034688 -0.4302669 -0.9012966
vn 0.4456517 -0.8814031 -0.1565989
vn 0.6646092 -0.7351525 0.1335869
vn -0.1699191 -0.3099312 -0.9354518
vn 0.3624707 0.1913889 0.9121322
vn 0.6009614 -0.4662082 0.6492267
vn 0.2413407 -0.747496 -0.6188735
vn 0.3949471 -0.7604181 -0.5155398
vn 0.2287132 -0.2127958 -0.9499516
vn 0.3697504 -0.4108864 -0.8333408
vn 0.3252384 -0.6988764 -0.6370178
vn 0.2531847 -0.9338538 -0.2526155
vn 0.2108102 -0.8927162 -0.3982673
vn 0.1503226 -0.9878643 -0.03907851
vn -0.190389 -0.9340968 -0.3020185
vn 0.3777337 -0.8690693 0.3194304
vn 0.2279818 -0.8305249 0.5081857
vn -0.1330467 -0.8899862 0.436146
vn -0.004639704 -0.5005229 0.8657109
vn 0.3843753 -0.9176475 0.1008894
vn -0.008433526 -0.9589822 -0.2833408
vn -0.2882958 -0.9571329 0.02796503
vn -0.5405997 -0.6773434 0.4989568
vn 0.3330473 -0.6573954 0.6759518
vn 0.07990114 0.1777943 0.9808186
vn -0.5255601 -0.4329155 0.7323734
vn -0.6684064 0.01150684 0.7437072
vn -0.2816973 -0.1927148 0.9399508
vn -0.003175611 -0.5397119 0.8418438
vn -0.06564877 0.05698324 0.9962144
vn -0.1977925 0.03139611 0.979741
vn -0.3993461 0.3707403 0.8384953
vn -0.1247555 0.5440256 0.8297423
vn -0.6130604 0.5283827 0.5873404
vn -0.7491106 0.3109315 0.5849401
vn -0.7173342 0.6932269 -0.06977312
vn -0.2743521 0.7475132 0.604942
vn -0.06588624 0.4361318 0.8974676
vn -0.2033398 0.7482496 0.6314868
vn -0.07959389 0.5894651 0.803863
vn -0.06577411 0.5655592 0.8220807
vn -0.2599661 0.9152184 0.3078846
vn -0.1999747 0.976589 -0.0792729
vn -0.3278829 0.8580682 0.3952366
vn -0.4245224 0.8899221 -0.1667909
vn -0.05364394 0.9125557 -0.4054189
vn -0.4702364 0.7421563 -0.477579
vn -0.504278 0.4578 -0.7322041
vn -0.2282198 0.7691945 -0.5968713
vn 0.071454 0.5043453 -0.8605407
vn -0.00804606 0.1841161 -0.9828715
vn -0.4527795 -0.2005227 -0.8687816
vn 0.2779601 0.2007592 -0.9393795
vn 0.317037 0.0718279 -0.9456894
vn 0.2287132 -0.2127958 -0.9499516
vn 0.3697504 -0.4108864 -0.8333408
vn 0.2610087 -0.355032 -0.8976785
vn 0.3252384 -0.6988764 -0.6370178
vn -0.08934981 -0.3871882 -0.9176611
vn 0.1163259 -0.9050377 -0.409115
vn 0.2108102 -0.8927162 -0.3982673
vn -0.190389 -0.9340968 -0.3020185
vn -0.4301293 -0.7469581 -0.5069934
g BranchRightBack02_0
f 3/3/3 2/2/2 1/1/1
f 2/2/2 4/4/4 1/1/1
f 2/2/2 5/5/5 4/4/4
f 1/1/1 4/4/4 6/6/6
f 4/4/4 5/5/5 6/6/6
f 7/7/7 1/1/1 6/6/6
f 8/8/8 7/7/7 6/6/6
f 5/5/5 8/8/8 6/6/6
f 8/8/8 9/9/9 7/7/7
f 7/7/7 9/9/9 10/10/10
f 10/10/10 9/9/9 11/11/11
f 11/11/11 9/9/9 8/8/8
f 11/11/11 8/8/8 5/5/5
f 12/12/12 11/11/11 5/5/5
f 12/12/12 13/13/13 11/11/11
f 13/13/13 14/14/14 11/11/11
f 5/5/5 15/15/15 12/12/12
f 16/16/16 15/15/15 5/5/5
f 13/13/13 17/17/17 14/14/14
f 18/18/18 14/14/14 17/17/17
f 19/19/19 18/18/18 17/17/17
f 17/17/17 20/20/20 19/19/19
f 13/13/13 20/20/20 17/17/17
f 20/20/20 21/21/21 19/19/19
f 13/13/13 22/22/22 20/20/20
f 22/22/22 23/23/23 20/20/20
f 22/22/22 24/24/24 23/23/23
f 22/22/22 25/25/25 24/24/24
f 22/22/22 13/13/13 25/25/25
f 24/24/24 25/25/25 26/26/26
f 26/26/26 27/27/27 24/24/24
f 26/26/26 28/28/28 27/27/27
f 27/27/27 28/28/28 29/29/29
f 13/13/13 30/30/30 25/25/25
f 30/30/30 26/26/26 25/25/25
f 28/28/28 31/31/31 29/29/29
f 29/29/29 31/31/31 32/32/32
f 31/31/31 33/33/33 32/32/32
f 28/28/28 33/33/33 31/31/31
f 34/34/34 30/30/30 13/13/13
f 12/12/12 34/34/34 13/13/13
f 34/34/34 12/12/12 35/35/35
f 15/15/15 35/35/35 12/12/12
f 35/35/35 15/15/15 36/36/36
f 37/37/37 35/35/35 36/36/36
f 15/15/15 16/16/16 36/36/36
f 16/16/16 38/38/38 36/36/36
f 36/36/36 38/38/38 37/37/37
f 39/39/39 38/38/38 16/16/16
f 38/38/38 39/39/39 40/40/40
f 38/38/38 40/40/40 37/37/37
f 39/39/39 41/41/41 40/40/40
f 39/39/39 42/42/42 41/41/41
f 34/34/34 35/35/35 43/43/43
f 35/35/35 37/37/37 43/43/43
f 34/34/34 43/43/43 44/44/44
f 45/45/45 30/30/30 34/34/34
f 34/34/34 44/44/44 45/45/45
f 37/37/37 46/46/46 43/43/43
f 44/44/44 43/43/43 46/46/46
f 47/47/47 46/46/46 37/37/37
f 48/48/48 44/44/44 46/46/46
f 46/46/46 47/47/47 48/48/48
f 49/49/49 48/48/48 47/47/47
f 48/48/48 49/49/49 50/50/50
f 50/50/50 44/44/44 48/48/48
f 45/45/45 44/44/44 51/51/51
f 51/51/51 44/44/44 50/50/50
f 52/52/52 51/51/51 50/50/50
f 52/52/52 45/45/45 51/51/51
f 53/53/53 47/47/47 37/37/37
f 54/54/54 53/53/53 37/37/37
f 55/55/55 53/53/53 54/54/54
f 53/53/53 55/55/55 47/47/47
f 56/56/56 55/55/55 54/54/54
f 55/55/55 56/56/56 57/57/57
f 58/58/58 55/55/55 57/57/57
f 58/58/58 47/47/47 55/55/55
f 58/58/58 49/49/49 47/47/47
f 59/59/59 49/49/49 58/58/58
f 59/59/59 60/60/60 49/49/49
f 60/60/60 61/61/61 49/49/49
f 49/49/49 62/62/62 50/50/50
f 50/50/50 62/62/62 52/52/52
f 61/61/61 63/63/63 49/49/49
f 63/63/63 62/62/62 49/49/49
f 61/61/61 64/64/64 63/63/63
f 64/64/64 65/65/65 63/63/63
f 65/65/65 62/62/62 63/63/63
f 65/65/65 66/66/66 62/62/62
f 64/64/64 67/67/67 65/65/65
f 67/67/67 66/66/66 65/65/65
f 62/62/62 68/68/68 52/52/52
f 68/68/68 62/62/62 66/66/66
f 52/52/52 68/68/68 69/69/69
f 68/68/68 66/66/66 69/69/69
f 70/70/70 66/66/66 67/67/67
f 71/71/71 70/70/70 67/67/67
f 72/72/72 70/70/70 71/71/71
f 70/70/70 72/72/72 73/73/73
f 72/72/72 74/74/74 73/73/73
f 73/73/73 74/74/74 75/75/75
f 70/70/70 76/76/76 66/66/66
f 76/76/76 70/70/70 73/73/73
f 73/73/73 75/75/75 77/77/77
f 73/73/73 77/77/77 76/76/76
f 75/75/75 78/78/78 77/77/77
f 66/66/66 76/76/76 79/79/79
f 66/66/66 79/79/79 69/69/69
f 76/76/76 77/77/77 79/79/79
f 69/69/69 80/80/80 52/52/52
f 80/80/80 45/45/45 52/52/52
f 80/80/80 81/81/81 45/45/45
f 81/81/81 80/80/80 69/69/69
f 45/45/45 81/81/81 30/30/30
f 30/30/30 81/81/81 82/82/82
f 26/26/26 30/30/30 82/82/82
f 26/26/26 82/82/82 83/83/83
f 26/26/26 83/83/83 28/28/28
f 81/81/81 84/84/84 82/82/82
f 82/82/82 84/84/84 83/83/83
f 85/85/85 81/81/81 69/69/69
f 85/85/85 84/84/84 81/81/81
f 86/86/86 85/85/85 69/69/69
f 86/86/86 69/69/69 79/79/79
f 85/85/85 86/86/86 84/84/84
f 28/28/28 83/83/83 87/87/87
f 83/83/83 84/84/84 87/87/87
f 86/86/86 88/88/88 84/84/84
f 87/87/87 84/84/84 88/88/88
f 86/86/86 79/79/79 89/89/89
f 86/86/86 89/89/89 88/88/88
f 28/28/28 87/87/87 90/90/90
f 90/90/90 33/33/33 28/28/28
f 89/89/89 79/79/79 91/91/91
f 77/77/77 91/91/91 79/79/79
f 77/77/77 92/92/92 91/91/91
f 78/78/78 92/92/92 77/77/77
f 93/93/93 89/89/89 91/91/91
f 93/93/93 91/91/91 92/92/92
f 88/88/88 89/89/89 94/94/94
f 89/89/89 93/93/93 94/94/94
f 87/87/87 88/88/88 95/95/95
f 87/87/87 95/95/95 90/90/90
f 96/96/96 33/33/33 90/90/90
f 96/96/96 97/97/97 33/33/33
f 98/98/98 96/96/96 90/90/90
f 99/99/99 98/98/98 90/90/90
f 99/99/99 90/90/90 95/95/95
f 100/100/100 97/97/97 96/96/96
f 95/95/95 88/88/88 101/101/101
f 101/101/101 88/88/88 94/94/94
f 102/102/102 99/99/99 95/95/95
f 95/95/95 101/101/101 102/102/102
f 103/103/103 100/100/100 96/96/96
f 96/96/96 98/98/98 103/103/103
f 104/104/104 100/100/100 103/103/103
f 104/104/104 103/103/103 98/98/98
f 105/105/105 100/100/100 104/104/104
f 104/104/104 106/106/106 105/105/105
f 104/104/104 107/107/107 106/106/106
f 107/107/107 104/104/104 108/108/108
f 98/98/98 108/108/108 104/104/104
f 109/109/109 107/107/107 108/108/108
f 108/108/108 110/110/110 109/109/109
f 109/109/109 110/110/110 111/111/111
f 112/112/112 98/98/98 99/99/99
f 113/113/113 98/98/98 112/112/112
f 99/99/99 102/102/102 112/112/112
f 102/102/102 113/113/113 112/112/112
f 114/114/114 110/110/110 113/113/113
f 113/113/113 115/115/115 114/114/114
f 108/108/108 98/98/98 116/116/116
f 116/116/116 110/110/110 108/108/108
f 98/98/98 113/113/113 116/116/116
f 116/116/116 113/113/113 110/110/110
f 110/110/110 117/117/117 111/111/111
f 114/114/114 117/117/117 110/110/110
f 117/117/117 118/118/118 111/111/111
f 114/114/114 118/118/118 117/117/117
f 114/114/114 119/119/119 118/118/118
f 102/102/102 120/120/120 113/113/113
f 113/113/113 120/120/120 115/115/115
f 102/102/102 121/121/121 120/120/120
f 101/101/101 121/121/121 102/102/102
f 94/94/94 121/121/121 101/101/101
f 114/114/114 122/122/122 119/119/119
f 119/119/119 122/122/122 123/123/123
f 114/114/114 124/124/124 122/122/122
f 122/122/122 124/124/124 123/123/123
f 114/114/114 115/115/115 125/125/125
f 114/114/114 125/125/125 124/124/124
f 120/120/120 126/126/126 115/115/115
f 120/120/120 121/121/121 126/126/126
f 115/115/115 127/127/127 125/125/125
f 125/125/125 127/127/127 124/124/124
f 115/115/115 126/126/126 127/127/127
f 123/123/123 124/124/124 128/128/128
f 128/128/128 124/124/124 127/127/127
f 126/126/126 129/129/129 127/127/127
f 128/128/128 127/127/127 129/129/129
f 123/123/123 128/128/128 130/130/130
f 131/131/131 123/123/123 130/130/130
f 130/130/130 132/132/132 131/131/131
f 128/128/128 129/129/129 133/133/133
f 130/130/130 128/128/128 133/133/133
f 121/121/121 134/134/134 126/126/126
f 135/135/135 129/129/129 126/126/126
f 135/135/135 126/126/126 134/134/134
f 121/121/121 136/136/136 134/134/134
f 121/121/121 94/94/94 136/136/136
f 137/137/137 134/134/134 136/136/136
f 137/137/137 136/136/136 94/94/94
f 137/137/137 135/135/135 134/134/134
f 137/137/137 94/94/94 93/93/93
f 137/137/137 93/93/93 135/135/135
f 93/93/93 92/92/92 135/135/135
f 129/129/129 135/135/135 138/138/138
f 92/92/92 138/138/138 135/135/135
f 133/133/133 129/129/129 138/138/138
f 138/138/138 92/92/92 139/139/139
f 138/138/138 139/139/139 133/133/133
f 78/78/78 139/139/139 92/92/92
f 130/130/130 133/133/133 140/140/140
f 133/133/133 139/139/139 140/140/140
f 140/140/140 141/141/141 130/130/130
f 139/139/139 141/141/141 140/140/140
f 130/130/130 141/141/141 132/132/132
f 139/139/139 142/142/142 141/141/141
f 142/142/142 139/139/139 78/78/78
f 141/141/141 143/143/143 132/132/132
f 142/142/142 143/143/143 141/141/141
f 143/143/143 144/144/144 132/132/132
f 142/142/142 145/145/145 143/143/143
f 145/145/145 144/144/144 143/143/143
f 78/78/78 146/146/146 142/142/142
f 146/146/146 145/145/145 142/142/142
f 145/145/145 147/147/147 144/144/144
f 145/145/145 146/146/146 147/147/147
f 148/148/148 144/144/144 147/147/147
f 78/78/78 149/149/149 146/146/146
f 150/150/150 149/149/149 78/78/78
f 150/150/150 151/151/151 149/149/149
f 149/149/149 151/151/151 152/152/152
f 153/153/153 146/146/146 149/149/149
f 153/153/153 149/149/149 152/152/152
f 153/153/153 147/147/147 146/146/146
f 154/154/154 153/153/153 152/152/152
f 155/155/155 148/148/148 147/147/147
f 155/155/155 147/147/147 153/153/153
f 156/156/156 153/153/153 154/154/154
f 156/156/156 155/155/155 153/153/153
f 156/156/156 154/154/154 157/157/157
f 157/157/157 158/158/158 156/156/156
f 159/159/159 148/148/148 155/155/155
f 159/159/159 155/155/155 156/156/156
f 148/148/148 159/159/159 158/158/158
f 158/158/158 159/159/159 156/156/156
