g Branch-SetB-Tiny
v -0.1640107 0.09229638 0.06132339
v -0.1025238 0.02633539 0.04132263
v -0.1534767 0.08108239 0.07323311
v -0.1363558 0.05790739 0.04255961
v -0.1668209 0.08078538 0.05058215
v -0.2118773 0.08641038 0.04379097
v -0.08850121 0.03417439 0.02569027
v -0.05757933 0.02481439 0.02069147
v -0.06255672 0.0125204 0.02493881
v -0.1768215 0.05036539 0.05514352
v -0.2157404 0.06241639 0.04771373
v -0.2347261 0.08280138 0.04902965
v -0.2382616 0.06808639 0.05701224
v -0.2426068 0.08115439 0.06009448
v -0.2192229 0.06230839 0.06320719
v -0.2390142 0.07601539 0.06635002
v -0.1854896 0.04780038 0.06514275
v -0.1673637 0.03683839 0.06343237
v -0.1665929 0.04428139 0.05184737
v -0.2207625 0.07462938 0.0690454
v -0.2354679 0.09354739 0.06217585
v -0.2347261 0.08280138 0.04902965
v -0.1555596 0.05473939 0.04197806
v -0.218606 0.09877639 0.06476913
v -0.2206124 0.1005404 0.05550286
v -0.2118773 0.08641038 0.04379097
v -0.1640107 0.09229638 0.06132339
v -0.1534767 0.08108239 0.07323311
v -0.1641862 0.06892339 0.07793035
v -0.1336401 0.0384764 0.06789028
v -0.1025238 0.02633539 0.04132263
v -0.1465272 0.05086939 0.02599928
v -0.1062884 0.04381339 0.005557366
v -0.1597857 0.03936739 0.03187278
v -0.08011174 0.0222404 -0.0182871
v -0.04664471 0.0276044 0.005019472
v -0.1355093 0.02046739 0.04937957
v -0.1050559 0.0135014 0.0324383
v -0.1270774 0.0160304 0.02317797
v -0.07250375 -0.005560609 0.01297223
v -0.06255672 0.0125204 0.02493881
v -0.005916098 -0.0185116 0.0007446126
v -0.07000078 0.001549395 -0.02184845
v -0.06345871 -0.0126706 -0.01476656
v -0.0290328 -0.006397603 -0.024397
v 0.0223111 -0.001132604 -0.01061688
v 0.02693589 0.01326739 -0.00418232
v 0.02207857 0.02478739 0.0170819
v 0.01024446 0.02213239 0.03070128
v 0.004454232 6.439054E-05 0.02941537
v -0.005916098 -0.0185116 0.0007446126
v 0.03063404 0.00873139 0.02261507
v 0.02219686 -0.0126706 0.004270576
v 0.0223111 -0.001132604 -0.01061688
v 0.03718341 0.007831397 0.008143429
v 0.02693589 0.01326739 -0.00418232
vt 0.4546501 0.03383366
vt 0.454638 0.02216926
vt 0.4528069 0.03230355
vt 0.456 0.02806562
vt 0.4562879 0.03333353
vt 0.4559031 0.03878605
vt 0.4568663 0.0204394
vt 0.4574793 0.01592067
vt 0.4556721 0.01592686
vt 0.4602959 0.03375356
vt 0.4586221 0.03866661
vt 0.4571311 0.04187636
vt 0.4589211 0.04146208
vt 0.459284 0.04314698
vt 0.4601278 0.03934643
vt 0.4597663 0.04213834
vt 0.4616059 0.03515978
vt 0.4622924 0.03282379
vt 0.4605978 0.03204007
vt 0.4610957 0.0404253
vt 0.4610014 0.04337089
vt 0.4607607 0.04526275
vt 0.4582305 0.03036763
vt 0.4627879 0.04254382
vt 0.4630035 0.04361992
vt 0.4646847 0.04499087
vt 0.4681061 0.03900339
vt 0.4680431 0.03644901
vt 0.4658279 0.03593577
vt 0.466048 0.03107636
vt 0.4681773 0.02632915
vt 0.4587614 0.02806966
vt 0.4592442 0.02281355
vt 0.4603474 0.02956527
vt 0.4618858 0.01897937
vt 0.4598094 0.01484587
vt 0.4645055 0.02876849
vt 0.4666892 0.02502995
vt 0.4635684 0.02590047
vt 0.468107 0.02021999
vt 0.4708315 0.02074267
vt 0.4696261 0.01114334
vt 0.4643669 0.01785283
vt 0.4662678 0.01753852
vt 0.4660633 0.01345332
vt 0.4661914 0.007475491
vt 0.4641608 0.006561612
vt 0.4612638 0.006251396
vt 0.4593719 0.007620619
vt 0.4568344 0.007509171
vt 0.4528069 0.006405858
vt 0.4590599 0.00545825
vt 0.4561371 0.004267568
vt 0.4564477 0.001953125
vt 0.458895 0.003858821
vt 0.4593086 0.002337038
vn 0.3600987 0.9292047 -0.08311239
vn 0.511144 -0.03540094 0.8587657
vn 0.4940328 0.569416 0.6570365
vn 0.3497693 0.8460706 -0.4022757
vn 0.1030523 0.3849887 -0.9171499
vn 0.000917719 0.2831417 -0.9590777
vn 0.3669843 0.8245411 0.4306443
vn 0.1871566 0.7053108 0.6837465
vn 0.122045 -0.2598074 0.957917
vn -0.2924607 -0.4918547 -0.8200889
vn -0.2261902 -0.6473276 -0.7278771
vn -0.5647199 0.1708681 -0.8074005
vn -0.7114998 -0.6802782 -0.1760385
vn -0.9887223 0.1497115 0.003835943
vn -0.3325739 -0.812205 0.4792886
vn -0.6005307 -0.2072888 0.7722657
vn -0.3459305 -0.8587198 0.3780641
vn -0.4801646 -0.7798455 0.4016006
vn -0.7919732 -0.2226871 -0.5684971
vn -0.1540366 -0.1171957 0.9810901
vn -0.6566339 0.6919774 0.2999986
vn -0.5647199 0.1708681 -0.8074005
vn -0.5046698 0.4547113 -0.733857
vn -0.09949158 0.7367747 0.6687782
vn -0.1770048 0.9199153 -0.3498932
vn 0.000917719 0.2831417 -0.9590777
vn 0.3600987 0.9292047 -0.08311239
vn 0.4940328 0.569416 0.6570365
vn 0.00170263 0.01227451 0.9999232
vn 0.3573454 -0.2938911 0.8865283
vn 0.511144 -0.03540094 0.8587657
vn -0.392941 0.6460024 -0.6544298
vn 0.03630267 0.8750876 -0.4826012
vn -0.8205807 -0.1584956 -0.5491144
vn -0.1824319 0.42961 -0.8843946
vn 0.1362666 0.9825785 -0.1263757
vn -0.147461 -0.9055344 0.3978224
vn -0.004562928 -0.8034758 0.59532
vn -0.4738167 -0.8567811 -0.2035282
vn -0.1340311 -0.8573407 0.4969935
vn 0.122045 -0.2598074 0.957917
vn 0.0786062 -0.9968381 0.01160871
vn -0.3389895 -0.258596 -0.904552
vn -0.2878192 -0.8695267 -0.4013523
vn 0.1254923 -0.3057143 -0.943817
vn 0.504333 -0.2590527 -0.8237353
vn 0.5223775 0.5499089 -0.6517068
vn 0.4526966 0.8861778 0.09876554
vn 0.1783812 0.5574636 0.810811
vn 0.07861802 -0.5119789 0.8553928
vn 0.0786062 -0.9968381 0.01160871
vn 0.7290294 -0.08129008 0.6796382
vn 0.4991611 -0.8665092 -5.998334E-05
vn 0.504333 -0.2590527 -0.8237353
vn 0.9985605 0.02705546 -0.04631443
vn 0.5223775 0.5499089 -0.6517068
g Branch-SetB-Tiny_0
f 3/3/3 2/2/2 1/1/1
f 2/2/2 4/4/4 1/1/1
f 1/1/1 4/4/4 5/5/5
f 5/5/5 6/6/6 1/1/1
f 7/7/7 4/4/4 2/2/2
f 2/2/2 8/8/8 7/7/7
f 9/9/9 8/8/8 2/2/2
f 6/6/6 5/5/5 10/10/10
f 11/11/11 6/6/6 10/10/10
f 12/12/12 6/6/6 11/11/11
f 13/13/13 12/12/12 11/11/11
f 12/12/12 13/13/13 14/14/14
f 13/13/13 11/11/11 15/15/15
f 16/16/16 14/14/14 13/13/13
f 16/16/16 13/13/13 15/15/15
f 17/17/17 15/15/15 11/11/11
f 10/10/10 17/17/17 11/11/11
f 18/18/18 17/17/17 10/10/10
f 10/10/10 5/5/5 19/19/19
f 10/10/10 19/19/19 18/18/18
f 20/20/20 15/15/15 17/17/17
f 20/20/20 16/16/16 15/15/15
f 16/16/16 21/21/21 14/14/14
f 22/22/22 14/14/14 21/21/21
f 23/23/23 19/19/19 5/5/5
f 4/4/4 23/23/23 5/5/5
f 24/24/24 21/21/21 16/16/16
f 20/20/20 24/24/24 16/16/16
f 25/25/25 22/22/22 21/21/21
f 25/25/25 21/21/21 24/24/24
f 26/26/26 22/22/22 25/25/25
f 27/27/27 26/26/26 25/25/25
f 24/24/24 27/27/27 25/25/25
f 27/27/27 24/24/24 28/28/28
f 20/20/20 28/28/28 24/24/24
f 20/20/20 17/17/17 29/29/29
f 28/28/28 20/20/20 29/29/29
f 29/29/29 17/17/17 18/18/18
f 30/30/30 28/28/28 29/29/29
f 18/18/18 30/30/30 29/29/29
f 31/31/31 28/28/28 30/30/30
f 32/32/32 23/23/23 4/4/4
f 4/4/4 33/33/33 32/32/32
f 7/7/7 33/33/33 4/4/4
f 23/23/23 32/32/32 34/34/34
f 23/23/23 34/34/34 19/19/19
f 19/19/19 34/34/34 18/18/18
f 33/33/33 35/35/35 32/32/32
f 35/35/35 34/34/34 32/32/32
f 7/7/7 36/36/36 33/33/33
f 36/36/36 35/35/35 33/33/33
f 7/7/7 8/8/8 36/36/36
f 30/30/30 18/18/18 37/37/37
f 31/31/31 30/30/30 38/38/38
f 30/30/30 37/37/37 38/38/38
f 37/37/37 18/18/18 39/39/39
f 34/34/34 39/39/39 18/18/18
f 37/37/37 39/39/39 38/38/38
f 31/31/31 38/38/38 40/40/40
f 38/38/38 39/39/39 40/40/40
f 41/41/41 31/31/31 40/40/40
f 42/42/42 41/41/41 40/40/40
f 43/43/43 39/39/39 34/34/34
f 35/35/35 43/43/43 34/34/34
f 44/44/44 40/40/40 39/39/39
f 40/40/40 44/44/44 42/42/42
f 39/39/39 43/43/43 44/44/44
f 45/45/45 42/42/42 44/44/44
f 44/44/44 43/43/43 45/45/45
f 45/45/45 43/43/43 35/35/35
f 45/45/45 46/46/46 42/42/42
f 46/46/46 45/45/45 47/47/47
f 47/47/47 45/45/45 35/35/35
f 36/36/36 47/47/47 35/35/35
f 47/47/47 36/36/36 48/48/48
f 48/48/48 36/36/36 8/8/8
f 49/49/49 48/48/48 8/8/8
f 9/9/9 49/49/49 8/8/8
f 50/50/50 49/49/49 9/9/9
f 50/50/50 9/9/9 51/51/51
f 49/49/49 52/52/52 48/48/48
f 49/49/49 50/50/50 52/52/52
f 53/53/53 50/50/50 51/51/51
f 53/53/53 52/52/52 50/50/50
f 54/54/54 53/53/53 51/51/51
f 48/48/48 52/52/52 55/55/55
f 55/55/55 52/52/52 53/53/53
f 54/54/54 55/55/55 53/53/53
f 48/48/48 55/55/55 56/56/56
f 55/55/55 54/54/54 56/56/56
