g Branch-SetA-Medium
v -0.1729015 0.0005962365 -0.05318763
v -0.1368094 -0.009551238 -0.03716858
v -0.06585232 -0.00638496 -0.0460668
v -0.1662407 -0.008168068 -0.01523698
v -0.2343317 -0.002151692 -0.008056909
v -0.1774687 -0.0039017 0.003164996
v -0.2291046 0.001815837 0.02777763
v -0.2508906 0.006941251 0.0189406
v -0.2551796 0.04301175 0.07437765
v -0.2630996 0.05179342 0.06953374
v -0.2734278 0.04963028 0.1208725
v -0.2601091 0.01854757 0.01012044
v -0.2390916 0.0193515 -0.01761493
v -0.1474084 0.00973246 -0.06581458
v -0.2211022 0.03316996 -0.02965537
v -0.2508006 0.04026087 0.0003203958
v -0.080826 0.02610306 -0.06483826
v -0.0294004 0.0201032 -0.05074647
v -0.161392 0.03308998 -0.04876514
v -0.04664741 0.04206084 -0.04746613
v 0.01593037 0.02160817 -0.06146087
v -0.2648868 0.04348699 0.02834136
v -0.2126503 0.0489509 -0.01853945
v -0.04937703 0.07187661 -0.01413185
v 0.06134553 0.04620706 -0.0587622
v 0.03753709 -0.02602245 -0.03153087
v -0.2459538 0.05972431 0.02119171
v -0.2570711 0.06713673 0.06153467
v -0.1372108 0.04849348 -0.02420208
v 0.02472998 0.1032235 0.004192
v 0.1003309 0.01833377 -0.01594143
v 0.09604731 0.00689263 0.005486464
v 0.1159686 0.04097214 0.01321707
v 0.1076538 0.05124473 -0.02022153
v 0.1123022 0.06465287 0.01924281
v 0.07980806 0.09245045 -0.01457655
v 0.1028836 0.07706659 -0.005497645
v 0.09742355 0.08620803 0.01976337
v 0.07105616 0.1004228 0.01935558
v -0.04585258 0.07292773 0.02529435
v 0.03307299 0.09796457 0.04201504
v 0.08073539 0.08632149 0.04606278
v 0.09742355 0.08620803 0.01976337
v 0.1123022 0.06465287 0.01924281
v -0.09447399 0.06413984 0.01162872
v 0.03683441 0.07715866 0.06054978
v 0.09606855 0.04745035 0.05095311
v 0.1159686 0.04097214 0.01321707
v -0.09161119 0.04671208 0.03768948
v -0.1458808 0.04451104 0.0006578134
v 0.06765077 0.06319643 0.06437415
v 0.09943873 0.02404441 0.03692656
v 0.09604731 0.00689263 0.005486464
v -0.1751109 0.04629955 -0.003883635
v -0.1505884 0.01752186 0.01788927
v -0.1041889 0.01765273 0.04155983
v 0.03336328 0.0495543 0.06663802
v 0.05977844 0.03043856 0.06284311
v 0.0724142 0.01320287 0.05001765
v 0.07510289 -0.002716774 0.02316921
v 0.02747135 -0.03270958 -0.008242165
v 0.03753709 -0.02602245 -0.03153087
v -0.07122506 -0.0310355 0.03233158
v -0.03538622 -0.04801188 0.0006026053
v -0.1131484 -0.01684618 0.02849704
v -0.05472836 -0.03486071 -0.02604994
v 0.01593037 0.02160817 -0.06146087
v -0.0294004 0.0201032 -0.05074647
v -0.06585232 -0.00638496 -0.0460668
v -0.09384108 -0.0433595 0.001960545
v -0.1233827 -0.03007725 -0.01671415
v -0.1368094 -0.009551238 -0.03716858
v -0.1662407 -0.008168068 -0.01523698
v -0.149749 -0.01201036 0.004826377
v -0.1774687 -0.0039017 0.003164996
v -0.1681163 0.006706286 0.01365128
v -0.2291046 0.001815837 0.02777763
v -0.1723915 0.02665496 0.01350124
v -0.2075786 0.04175102 0.02415787
v -0.2123546 0.02216694 0.03186119
v -0.2182342 0.04115082 0.07245012
v -0.2551796 0.04301175 0.07437765
v -0.216709 0.0538079 0.01232115
v -0.2391681 0.07424604 0.05248009
v -0.2274517 0.07964701 0.09821291
v -0.2563407 0.08835678 0.1317186
v -0.2225834 0.06250254 0.1184347
v -0.2308396 0.04499568 0.110365
v -0.2728225 0.07850599 0.1200067
v -0.2388079 0.07723097 0.1378898
v -0.2607973 0.04670615 0.1365213
v -0.2734278 0.04963028 0.1208725
v -0.3143833 0.0394134 0.1384757
v -0.2400146 0.06431487 0.1489683
v -0.3030756 0.03746398 0.1591589
v -0.3324693 0.01434266 0.143815
v -0.3507046 0.002349002 0.1718713
v -0.2589198 0.07176926 0.163048
v -0.3028735 0.05009973 0.1692969
v -0.3587081 0.007087735 0.18696
v -0.3764997 -0.03572273 0.2056026
v -0.2932127 0.07492793 0.170026
v -0.3704816 0.0160026 0.1861969
v -0.3397076 0.05825537 0.1672233
v -0.295823 0.08137881 0.1551467
v -0.311233 0.07128113 0.1392856
v -0.3894348 -0.02337239 0.2091804
v -0.3897764 -0.04092176 0.2094394
v -0.3580036 0.04537185 0.1592145
v -0.2775978 0.06412978 0.1148458
v -0.3373786 0.04986544 0.1406265
v -0.3143833 0.0394134 0.1384757
v -0.3324693 0.01434266 0.143815
v -0.3725291 0.01000038 0.1540859
v -0.3801662 0.01458423 0.1733452
v -0.4032092 -0.01962189 0.1942332
v -0.3644241 -0.0008761194 0.1601405
v -0.3507046 0.002349002 0.1718713
v -0.3927334 -0.02650012 0.1782579
v -0.3996444 -0.03176977 0.2025764
v -0.3763342 -0.0311553 0.1817012
v -0.3764997 -0.03572273 0.2056026
v -0.3858823 -0.04113738 0.1940648
vt 0.5835806 0.3715492
vt 0.5804914 0.3751975
vt 0.5801875 0.3836669
vt 0.5789315 0.3704373
vt 0.5829585 0.3637279
vt 0.577796 0.3678924
vt 0.5799599 0.3605138
vt 0.58295 0.3605493
vt 0.5848589 0.3534412
vt 0.5864918 0.353674
vt 0.5849837 0.3472083
vt 0.5849591 0.3607915
vt 0.5858499 0.3639573
vt 0.5848363 0.3745037
vt 0.587735 0.3660213
vt 0.5877948 0.3615329
vt 0.5849525 0.3823147
vt 0.5837105 0.3887403
vt 0.588335 0.3724802
vt 0.5867426 0.3866549
vt 0.5832402 0.3951911
vt 0.5871443 0.35833
vt 0.5903694 0.3659244
vt 0.5924661 0.3863672
vt 0.586532 0.3999578
vt 0.577796 0.402305
vt 0.5903404 0.3594439
vt 0.5887419 0.3546381
vt 0.5918972 0.3749332
vt 0.5957426 0.3957459
vt 0.5864623 0.4074884
vt 0.5850292 0.410001
vt 0.5909894 0.4101627
vt 0.5901641 0.4060439
vt 0.5942942 0.4088968
vt 0.5942414 0.4021371
vt 0.5936265 0.4053953
vt 0.5969828 0.4059136
vt 0.5986096 0.4017873
vt 0.5972413 0.386254
vt 0.5995008 0.3962932
vt 0.6025981 0.4010584
vt 0.6031363 0.4045264
vt 0.6071866 0.4050435
vt 0.5956772 0.3803328
vt 0.602147 0.3954958
vt 0.6078041 0.4005722
vt 0.6110124 0.4043783
vt 0.5992015 0.3800739
vt 0.5953435 0.3729677
vt 0.6048522 0.3980461
vt 0.6110695 0.4002466
vt 0.6157372 0.3997499
vt 0.5941594 0.369138
vt 0.5997233 0.3710936
vt 0.6018677 0.3774733
vt 0.6048179 0.3939916
vt 0.6079492 0.3959612
vt 0.6106622 0.3966174
vt 0.6138814 0.3963952
vt 0.6169919 0.389069
vt 0.6200469 0.3899613
vt 0.6086208 0.3791524
vt 0.61407 0.3816974
vt 0.605474 0.3749447
vt 0.616508 0.3784011
vt 0.6261509 0.3856741
vt 0.6243195 0.3799325
vt 0.6195523 0.3755504
vt 0.6107688 0.3755944
vt 0.6101842 0.371406
vt 0.6116693 0.3680116
vt 0.606041 0.366847
vt 0.6047146 0.3698404
vt 0.6026723 0.3671264
vt 0.6006387 0.368415
vt 0.6009578 0.3613597
vt 0.5977276 0.3682114
vt 0.5949587 0.3629297
vt 0.5980264 0.3621355
vt 0.5970378 0.356465
vt 0.6016659 0.3534836
vt 0.5921471 0.3632912
vt 0.5909729 0.3564193
vt 0.593587 0.3521318
vt 0.5914675 0.3476139
vt 0.5960388 0.3504442
vt 0.59787 0.3510483
vt 0.5890232 0.3474398
vt 0.5941692 0.3480495
vt 0.5984182 0.3454478
vt 0.6005509 0.3456456
vt 0.5996821 0.3387046
vt 0.5958957 0.347057
vt 0.5967266 0.3392337
vt 0.5988235 0.3347152
vt 0.5954005 0.3318547
vt 0.5944251 0.3450804
vt 0.5947121 0.339705
vt 0.5932246 0.3313712
vt 0.5930217 0.3247337
vt 0.5930068 0.3421896
vt 0.5913222 0.3316099
vt 0.5902647 0.3376541
vt 0.591282 0.342955
vt 0.5885946 0.3423509
vt 0.5912505 0.3256349
vt 0.5900005 0.323647
vt 0.5885275 0.3357598
vt 0.5870117 0.347522
vt 0.5867672 0.3386591
vt 0.5847262 0.3409206
vt 0.5830177 0.336088
vt 0.586408 0.3320982
vt 0.589105 0.3314374
vt 0.5895876 0.32679
vt 0.5849239 0.3310491
vt 0.5826055 0.3305387
vt 0.5876785 0.3270481
vt 0.5897224 0.3252537
vt 0.5864517 0.3262929
vt 0.5865995 0.3230376
vt 0.587931 0.3245331
vn -0.3315291 -0.6152188 -0.7152582
vn -0.1540368 -0.8535768 -0.4976739
vn 0.0979687 -0.5478329 -0.8308316
vn -0.2408257 -0.9676437 -0.07528971
vn -0.4499067 -0.8335977 -0.3204666
vn -0.06073447 -0.9128455 0.4037629
vn -0.02001975 -0.8793833 0.4756935
vn -0.6055557 -0.7765816 0.1738487
vn -0.45062 -0.8670322 0.2125952
vn -0.9771383 -0.1947719 -0.08523293
vn -0.3526367 -0.8596341 -0.369698
vn -0.9153336 -0.3089799 -0.2582553
vn -0.6737069 -0.1328521 -0.726959
vn -0.1374406 -0.1736513 -0.9751694
vn -0.4681709 0.3329011 -0.8185309
vn -0.6963239 0.4231539 -0.5797188
vn 0.08152225 0.2000583 -0.9763866
vn -0.0632872 -0.171788 -0.983099
vn -0.1614743 0.6768789 -0.718165
vn 0.01553023 0.5716687 -0.8203376
vn -0.002790344 -0.1456217 -0.9893364
vn -0.9553765 0.2252048 -0.1911505
vn -0.1636642 0.8690018 -0.4669582
vn -0.2033977 0.9044777 -0.3748995
vn 0.2958023 0.1801481 -0.9381086
vn 0.3394109 -0.7695806 -0.5408751
vn -0.3752499 0.8299541 -0.4127512
vn -0.7265942 0.6357024 -0.2606593
vn -0.1760085 0.9627742 -0.205151
vn -0.1560194 0.9566304 -0.2460006
vn 0.7486562 -0.4803236 -0.4569498
vn 0.7015925 -0.7121637 0.02430484
vn 0.9832113 -0.1613284 0.08525675
vn 0.8233206 0.1084871 -0.5571119
vn 0.923852 0.3183804 0.2124414
vn 0.3236367 0.7995753 -0.5059038
vn 0.7584037 0.5580339 -0.3367818
vn 0.6724082 0.7218162 0.1638553
vn 0.2637365 0.959596 0.09807365
vn -0.3102421 0.8900325 0.334054
vn -0.1248053 0.8573865 0.4993116
vn 0.4457231 0.6531617 0.6121362
vn 0.6724082 0.7218162 0.1638553
vn 0.923852 0.3183804 0.2124414
vn -0.3139939 0.9196633 0.2358545
vn -0.09598427 0.4854334 0.8689888
vn 0.6718023 -0.01332212 0.7406107
vn 0.9832113 -0.1613284 0.08525675
vn -0.3375694 0.5209417 0.7840068
vn -0.2296842 0.8502951 0.4735434
vn 0.2680089 0.2205734 0.9378265
vn 0.72192 -0.4759519 0.5022961
vn 0.7015925 -0.7121637 0.02430484
vn 0.1208788 0.9192615 0.3746287
vn -0.3033245 0.08789749 0.9488246
vn -0.3166805 -0.009253673 0.9484871
vn -0.09649723 -0.01917318 0.9951486
vn 0.1691525 -0.3139462 0.9342511
vn 0.3446351 -0.6135871 0.7104489
vn 0.4182519 -0.8360608 0.3550602
vn 0.3207713 -0.9390525 0.1236372
vn 0.3394109 -0.7695806 -0.5408751
vn -0.09633136 -0.650935 0.7529967
vn 0.09094889 -0.9927179 0.07899075
vn -0.3796957 -0.5261939 0.7608885
vn -0.03836373 -0.7504187 -0.6598486
vn -0.002790344 -0.1456217 -0.9893364
vn -0.0632872 -0.171788 -0.983099
vn 0.0979687 -0.5478329 -0.8308316
vn -0.2415159 -0.9672604 0.07795827
vn -0.3282405 -0.8892428 -0.3185992
vn -0.1540368 -0.8535768 -0.4976739
vn -0.2408257 -0.9676437 -0.07528971
vn -0.4121979 -0.750939 0.5159297
vn -0.06073447 -0.9128455 0.4037629
vn 0.03448963 -0.377117 0.9255232
vn -0.02001975 -0.8793833 0.4756935
vn 0.1799942 0.365728 0.9131512
vn 0.7581041 0.4562993 0.4659068
vn 0.6601329 -0.3043648 0.6867217
vn 0.6566644 -0.6541435 0.375351
vn -0.45062 -0.8670322 0.2125952
vn 0.3977918 0.9058272 0.1457355
vn -0.02714464 0.9578556 -0.2859648
vn 0.6191509 0.7852682 0.00243906
vn 0.06976218 0.9932481 0.0926904
vn 0.9348416 -0.01165881 0.3548733
vn 0.4363914 -0.8548298 0.2807643
vn -0.4987135 0.7649484 -0.4076011
vn 0.6433107 0.6440582 0.4139329
vn 0.2250294 -0.9487177 0.2220282
vn -0.3526367 -0.8596341 -0.369698
vn 0.08084339 -0.6250159 -0.7764146
vn 0.6995232 -0.2047162 0.6846595
vn 0.5071089 -0.804453 0.3093477
vn 0.2871922 -0.6708398 -0.6837357
vn 0.6876494 -0.7161584 0.1193962
vn 0.4231378 0.2424963 0.873012
vn 0.4302418 -0.3740119 0.8215882
vn 0.4962916 0.03268534 0.8675404
vn 0.6799847 -0.4608383 0.570306
vn 0.02566769 0.5538028 0.8322521
vn -0.2675656 0.5699684 0.7768813
vn -0.4543798 0.7682421 0.4509357
vn -0.2395519 0.9620036 0.1310116
vn -0.4741734 0.7558743 -0.4514571
vn -0.1451619 0.318151 0.9368606
vn -0.2056507 -0.7126217 0.6707296
vn -0.7458751 0.6476329 -0.1556984
vn -0.7733117 0.06806763 -0.6303617
vn -0.4827377 0.2957443 -0.8243177
vn 0.08084339 -0.6250159 -0.7764146
vn 0.2871922 -0.6708398 -0.6837357
vn -0.5804331 -0.05833973 -0.8122154
vn -0.8288003 0.5591612 -0.02070868
vn -0.9793754 0.179857 0.09206077
vn 0.1668823 -0.6898322 -0.7044728
vn 0.6876494 -0.7161584 0.1193962
vn -0.553651 -0.4538846 -0.6981828
vn -0.8892442 -0.3337806 0.3127861
vn 0.4046108 -0.7540601 -0.5173813
vn 0.6799847 -0.4608383 0.570306
vn -0.03299305 -0.9597752 -0.2788242
g Branch-SetA-Medium_0
f 3/3/3 2/2/2 1/1/1
f 4/4/4 1/1/1 2/2/2
f 1/1/1 4/4/4 5/5/5
f 6/6/6 5/5/5 4/4/4
f 6/6/6 7/7/7 5/5/5
f 8/8/8 5/5/5 7/7/7
f 9/9/9 8/8/8 7/7/7
f 9/9/9 10/10/10 8/8/8
f 11/11/11 10/10/10 9/9/9
f 5/5/5 8/8/8 12/12/12
f 10/10/10 12/12/12 8/8/8
f 5/5/5 13/13/13 1/1/1
f 12/12/12 13/13/13 5/5/5
f 14/14/14 3/3/3 1/1/1
f 15/15/15 1/1/1 13/13/13
f 15/15/15 14/14/14 1/1/1
f 16/16/16 13/13/13 12/12/12
f 16/16/16 15/15/15 13/13/13
f 14/14/14 17/17/17 3/3/3
f 3/3/3 17/17/17 18/18/18
f 19/19/19 14/14/14 15/15/15
f 14/14/14 19/19/19 17/17/17
f 18/18/18 17/17/17 20/20/20
f 20/20/20 21/21/21 18/18/18
f 12/12/12 10/10/10 22/22/22
f 12/12/12 22/22/22 16/16/16
f 15/15/15 16/16/16 23/23/23
f 19/19/19 15/15/15 23/23/23
f 19/19/19 24/24/24 17/17/17
f 24/24/24 20/20/20 17/17/17
f 25/25/25 21/21/21 20/20/20
f 21/21/21 25/25/25 26/26/26
f 16/16/16 22/22/22 27/27/27
f 23/23/23 16/16/16 27/27/27
f 22/22/22 10/10/10 28/28/28
f 22/22/22 28/28/28 27/27/27
f 19/19/19 23/23/23 29/29/29
f 19/19/19 29/29/29 24/24/24
f 30/30/30 20/20/20 24/24/24
f 25/25/25 20/20/20 30/30/30
f 26/26/26 25/25/25 31/31/31
f 26/26/26 31/31/31 32/32/32
f 31/31/31 33/33/33 32/32/32
f 34/34/34 33/33/33 31/31/31
f 34/34/34 31/31/31 25/25/25
f 35/35/35 33/33/33 34/34/34
f 34/34/34 25/25/25 36/36/36
f 36/36/36 25/25/25 30/30/30
f 35/35/35 34/34/34 37/37/37
f 37/37/37 34/34/34 36/36/36
f 38/38/38 35/35/35 37/37/37
f 38/38/38 37/37/37 36/36/36
f 36/36/36 39/39/39 38/38/38
f 36/36/36 30/30/30 39/39/39
f 24/24/24 40/40/40 30/30/30
f 30/30/30 41/41/41 39/39/39
f 30/30/30 40/40/40 41/41/41
f 39/39/39 41/41/41 42/42/42
f 39/39/39 42/42/42 43/43/43
f 43/43/43 42/42/42 44/44/44
f 45/45/45 40/40/40 24/24/24
f 24/24/24 29/29/29 45/45/45
f 41/41/41 40/40/40 46/46/46
f 41/41/41 46/46/46 42/42/42
f 44/44/44 42/42/42 47/47/47
f 44/44/44 47/47/47 48/48/48
f 45/45/45 49/49/49 40/40/40
f 49/49/49 46/46/46 40/40/40
f 45/45/45 29/29/29 50/50/50
f 50/50/50 49/49/49 45/45/45
f 42/42/42 51/51/51 47/47/47
f 51/51/51 42/42/42 46/46/46
f 52/52/52 48/48/48 47/47/47
f 52/52/52 53/53/53 48/48/48
f 50/50/50 29/29/29 54/54/54
f 23/23/23 54/54/54 29/29/29
f 54/54/54 23/23/23 27/27/27
f 50/50/50 55/55/55 49/49/49
f 49/49/49 56/56/56 46/46/46
f 49/49/49 55/55/55 56/56/56
f 46/46/46 57/57/57 51/51/51
f 46/46/46 56/56/56 57/57/57
f 51/51/51 57/57/57 58/58/58
f 51/51/51 58/58/58 47/47/47
f 57/57/57 56/56/56 58/58/58
f 59/59/59 52/52/52 47/47/47
f 58/58/58 59/59/59 47/47/47
f 60/60/60 53/53/53 52/52/52
f 60/60/60 52/52/52 59/59/59
f 61/61/61 53/53/53 60/60/60
f 61/61/61 60/60/60 59/59/59
f 62/62/62 53/53/53 61/61/61
f 58/58/58 56/56/56 63/63/63
f 59/59/59 58/58/58 63/63/63
f 61/61/61 59/59/59 64/64/64
f 62/62/62 61/61/61 64/64/64
f 59/59/59 63/63/63 64/64/64
f 63/63/63 56/56/56 65/65/65
f 56/56/56 55/55/55 65/65/65
f 66/66/66 62/62/62 64/64/64
f 66/66/66 67/67/67 62/62/62
f 66/66/66 68/68/68 67/67/67
f 66/66/66 69/69/69 68/68/68
f 63/63/63 70/70/70 64/64/64
f 63/63/63 65/65/65 70/70/70
f 66/66/66 64/64/64 70/70/70
f 69/69/69 66/66/66 71/71/71
f 71/71/71 66/66/66 70/70/70
f 72/72/72 69/69/69 71/71/71
f 72/72/72 71/71/71 73/73/73
f 74/74/74 70/70/70 65/65/65
f 70/70/70 74/74/74 71/71/71
f 74/74/74 73/73/73 71/71/71
f 55/55/55 74/74/74 65/65/65
f 75/75/75 73/73/73 74/74/74
f 74/74/74 76/76/76 75/75/75
f 55/55/55 76/76/76 74/74/74
f 75/75/75 76/76/76 77/77/77
f 55/55/55 78/78/78 76/76/76
f 76/76/76 78/78/78 79/79/79
f 78/78/78 55/55/55 50/50/50
f 54/54/54 78/78/78 50/50/50
f 78/78/78 54/54/54 79/79/79
f 76/76/76 80/80/80 77/77/77
f 79/79/79 80/80/80 76/76/76
f 81/81/81 77/77/77 80/80/80
f 80/80/80 79/79/79 81/81/81
f 81/81/81 82/82/82 77/77/77
f 54/54/54 83/83/83 79/79/79
f 83/83/83 54/54/54 27/27/27
f 83/83/83 27/27/27 84/84/84
f 27/27/27 28/28/28 84/84/84
f 83/83/83 85/85/85 79/79/79
f 84/84/84 85/85/85 83/83/83
f 84/84/84 86/86/86 85/85/85
f 87/87/87 81/81/81 79/79/79
f 85/85/85 87/87/87 79/79/79
f 82/82/82 81/81/81 88/88/88
f 88/88/88 81/81/81 87/87/87
f 28/28/28 89/89/89 84/84/84
f 84/84/84 89/89/89 86/86/86
f 87/87/87 85/85/85 90/90/90
f 85/85/85 86/86/86 90/90/90
f 91/91/91 82/82/82 88/88/88
f 91/91/91 92/92/92 82/82/82
f 91/91/91 93/93/93 92/92/92
f 94/94/94 88/88/88 87/87/87
f 90/90/90 94/94/94 87/87/87
f 91/91/91 88/88/88 94/94/94
f 93/93/93 91/91/91 95/95/95
f 91/91/91 94/94/94 95/95/95
f 96/96/96 93/93/93 95/95/95
f 96/96/96 95/95/95 97/97/97
f 94/94/94 90/90/90 98/98/98
f 94/94/94 98/98/98 95/95/95
f 90/90/90 86/86/86 98/98/98
f 97/97/97 95/95/95 99/99/99
f 98/98/98 99/99/99 95/95/95
f 100/100/100 97/97/97 99/99/99
f 101/101/101 97/97/97 100/100/100
f 98/98/98 102/102/102 99/99/99
f 102/102/102 98/98/98 86/86/86
f 99/99/99 102/102/102 100/100/100
f 100/100/100 103/103/103 101/101/101
f 104/104/104 100/100/100 102/102/102
f 104/104/104 103/103/103 100/100/100
f 86/86/86 105/105/105 102/102/102
f 104/104/104 102/102/102 105/105/105
f 106/106/106 105/105/105 86/86/86
f 106/106/106 104/104/104 105/105/105
f 86/86/86 89/89/89 106/106/106
f 101/101/101 103/103/103 107/107/107
f 101/101/101 107/107/107 108/108/108
f 106/106/106 109/109/109 104/104/104
f 109/109/109 103/103/103 104/104/104
f 89/89/89 110/110/110 106/106/106
f 28/28/28 110/110/110 89/89/89
f 10/10/10 110/110/110 28/28/28
f 10/10/10 11/11/11 110/110/110
f 111/111/111 106/106/106 110/110/110
f 111/111/111 110/110/110 11/11/11
f 111/111/111 109/109/109 106/106/106
f 112/112/112 111/111/111 11/11/11
f 112/112/112 113/113/113 111/111/111
f 111/111/111 114/114/114 109/109/109
f 111/111/111 113/113/113 114/114/114
f 109/109/109 115/115/115 103/103/103
f 114/114/114 115/115/115 109/109/109
f 103/103/103 115/115/115 116/116/116
f 116/116/116 115/115/115 114/114/114
f 107/107/107 103/103/103 116/116/116
f 113/113/113 117/117/117 114/114/114
f 117/117/117 113/113/113 118/118/118
f 114/114/114 119/119/119 116/116/116
f 119/119/119 114/114/114 117/117/117
f 107/107/107 116/116/116 120/120/120
f 116/116/116 119/119/119 120/120/120
f 107/107/107 120/120/120 108/108/108
f 117/117/117 118/118/118 121/121/121
f 119/119/119 117/117/117 121/121/121
f 121/121/121 118/118/118 122/122/122
f 123/123/123 108/108/108 120/120/120
f 120/120/120 119/119/119 123/123/123
f 123/123/123 122/122/122 108/108/108
f 119/119/119 121/121/121 123/123/123
f 121/121/121 122/122/122 123/123/123
