g CableWrong
v -0.01507855 0.01507844 -0.07314575
v -0.01722558 0.01069732 -0.0558358
v -0.01970104 0.008160395 -0.07314575
v -0.008160495 0.01970094 -0.07314576
v -0.004041746 0.01999745 -0.05137322
v -9.557969E-08 0.02132414 -0.07314576
v 0.008160303 0.01970094 -0.07314576
v -0.01725897 0.01589349 -0.02606502
v -0.02831633 0.007931841 -0.0357896
v 0.01150965 0.01673168 -0.04610923
v 0.01507835 0.01507844 -0.07314577
v 0.01970085 0.008160383 -0.07314577
v 0.0203188 0.002813049 -0.04312743
v 0.02132404 -3.474127E-09 -0.07314577
v 0.01970083 -0.0081604 -0.07314577
v -0.06212775 0.01489377 -0.0005329434
v -0.06940181 0.006785589 -0.01324382
v -0.00455016 0.0111502 -0.01625644
v 0.01722543 -0.01360508 -0.0441745
v 0.01507834 -0.01507845 -0.07314577
v -0.05323055 0.01031285 0.01288628
v -0.1115202 0.01776906 0.02171314
v -0.1208955 0.007942833 0.01192696
v 0.002365435 -0.003519452 -0.0121096
v 0.004041597 -0.02290521 -0.04863708
v 0.008160293 -0.01970094 -0.07314576
v -1.037144E-07 -0.02132414 -0.07314576
v -0.01150979 -0.01963943 -0.05390107
v -0.008160501 -0.01970094 -0.07314576
v -0.01507855 -0.01507844 -0.07314575
v -0.00056324 -0.01952219 -0.01605366
v -0.04792206 -0.004273712 0.01915306
v -0.0116206 -0.02748384 -0.02577824
v -0.04931192 -0.02032131 0.01459641
v -0.02031895 -0.005720812 -0.05688288
v -0.01970104 -0.008160394 -0.07314575
v -0.02132424 2.543035E-10 -0.07314575
v -0.01722558 0.01069732 -0.0558358
v -0.01970104 0.008160395 -0.07314575
v -0.02831633 0.007931841 -0.0357896
v -0.031245 -0.008070902 -0.03973365
v -0.06940181 0.006785589 -0.01324382
v -0.02432941 -0.02274056 -0.03558682
v -0.05658597 -0.0284295 0.001885545
v -0.09353299 -0.0148999 0.03728379
v -0.06548318 -0.02384858 -0.01153368
v -0.07079166 -0.009262019 -0.01780047
v -0.1029083 -0.02472613 0.02749761
v -0.1144373 -0.01230304 0.05562105
v -0.09217197 0.001616801 0.03964313
v -0.1222565 -0.008573874 0.009567623
v -0.1208955 0.007942833 0.01192696
v -0.114806 -0.0221058 0.0160172
v -0.0996225 0.01514873 0.03319355
v -0.1511002 -0.005828855 0.0398995
v -0.1487038 0.01069385 0.04111517
v -0.1268701 -0.02209012 0.0501567
v -0.1420564 -0.01940842 0.04364462
v -0.1120409 0.004219663 0.05683672
v -0.1210847 0.01779923 0.0530916
v -0.1598556 2.282393E-08 0.07314579
v -0.1582324 0.008160417 0.07314579
v -0.1582324 -0.008160371 0.07314579
v -0.1536099 -0.01507842 0.07314579
v -0.1466919 -0.01970092 0.07314578
v -0.1385315 -0.02132412 0.07314578
v -0.1303711 -0.01970092 0.07314578
v -0.123453 -0.01507843 0.07314578
v -0.1188305 -0.008160377 0.07314578
v -0.1172073 1.90955E-08 0.07314578
v -0.1188305 0.008160407 0.07314578
v -0.123453 0.01507846 0.07314578
v -0.1303711 0.01970096 0.07314578
v -0.1362709 0.02048093 0.04657952
v -0.1385315 0.02132417 0.07314578
v -0.1466919 0.01970096 0.07314578
v -0.1487038 0.01069385 0.04111517
v -0.1536099 0.01507847 0.07314579
v -0.1582324 0.008160417 0.07314579
v -0.02485921 -0.02485909 -0.07799234
v -0.03248009 -0.01345364 -0.07799233
v -0.01970104 -0.008160394 -0.07314575
v -0.03515619 4.192513E-10 -0.07799233
v -0.01507855 -0.01507844 -0.07314575
v -0.02132424 2.543035E-10 -0.07314575
v -0.01345377 -0.03247997 -0.07799234
v -0.03248009 0.01345365 -0.07799233
v -0.008160501 -0.01970094 -0.07314576
v -0.01970104 0.008160395 -0.07314575
v -1.205533E-07 -0.03515607 -0.07799234
v -0.02485921 0.02485909 -0.07799234
v -1.037144E-07 -0.02132414 -0.07314576
v -0.01507855 0.01507844 -0.07314575
v 0.01345353 -0.03247998 -0.07799234
v -0.01345376 0.03247998 -0.07799234
v 0.008160293 -0.01970094 -0.07314576
v -0.008160495 0.01970094 -0.07314576
v 0.02485898 -0.0248591 -0.07799234
v -1.07142E-07 0.03515607 -0.07799234
v 0.01507834 -0.01507845 -0.07314577
v -9.557969E-08 0.02132414 -0.07314576
v 0.03247986 -0.01345365 -0.07799235
v 0.01345355 0.03247997 -0.07799234
v 0.01970083 -0.0081604 -0.07314577
v 0.008160303 0.01970094 -0.07314576
v 0.02485899 0.02485908 -0.07799234
v 0.01507835 0.01507844 -0.07314577
v 0.03247987 0.01345363 -0.07799235
v 0.01970085 0.008160383 -0.07314577
v 0.03515596 -5.727633E-09 -0.07799235
v 0.02132404 -3.474127E-09 -0.07314577
v -0.1033754 1.6842E-08 0.07799236
v -0.1172073 1.90955E-08 0.07314578
v -0.1188305 -0.008160377 0.07314578
v -0.1188305 0.008160407 0.07314578
v -0.1060515 -0.01345363 0.07799236
v -0.1060515 0.01345365 0.07799236
v -0.123453 0.01507846 0.07314578
v -0.1136724 0.0248591 0.07799236
v -0.1303711 0.01970096 0.07314578
v -0.1250778 0.03247999 0.07799236
v -0.1385315 0.02132417 0.07314578
v -0.1385315 0.03515609 0.07799236
v -0.1466919 0.01970096 0.07314578
v -0.1519852 0.03248 0.07799236
v -0.1536099 0.01507847 0.07314579
v -0.1633906 0.02485911 0.07799236
v -0.1136724 -0.02485908 0.07799236
v -0.123453 -0.01507843 0.07314578
v -0.1303711 -0.01970092 0.07314578
v -0.1250779 -0.03247995 0.07799236
v -0.1385315 -0.02132412 0.07314578
v -0.1385315 -0.03515605 0.07799236
v -0.1466919 -0.01970092 0.07314578
v -0.1519851 -0.03247995 0.07799236
v -0.1536099 -0.01507842 0.07314579
v -0.1633906 -0.02485907 0.07799236
v -0.1582324 0.008160417 0.07314579
v -0.1710115 0.01345367 0.07799236
v -0.1582324 -0.008160371 0.07314579
v -0.1710115 -0.01345362 0.07799236
v -0.1736876 2.298888E-08 0.07799236
v -0.1598556 2.282393E-08 0.07314579
vt 0.1054869 0.9480676
vt 0.1066636 0.9443858
vt 0.1043485 0.9467008
vt 0.107011 0.9492467
vt 0.1097569 0.9457214
vt 0.1087629 0.9503094
vt 0.1106873 0.9511034
vt 0.1104572 0.9394453
vt 0.1072057 0.9390696
vt 0.1129814 0.9463699
vt 0.1127245 0.9517177
vt 0.1148248 0.9519898
vt 0.1162388 0.9465086
vt 0.1169662 0.9520582
vt 0.1190685 0.9517735
vt 0.1096171 0.9284229
vt 0.1062166 0.9289206
vt 0.1134991 0.9397416
vt 0.1194847 0.9462135
vt 0.12116 0.9513139
vt 0.112936 0.9282675
vt 0.1085943 0.9171507
vt 0.1051642 0.9173811
vt 0.1165598 0.9399279
vt 0.1227136 0.9455273
vt 0.123145 0.9505931
vt 0.1250982 0.9497865
vt 0.1260821 0.9446114
vt 0.1269521 0.9488823
vt 0.1287687 0.9480022
vt 0.1196463 0.940001
vt 0.1161844 0.9284415
vt 0.1226719 0.939849
vt 0.1194099 0.9288036
vt 0.1296485 0.9436101
vt 0.1305205 0.9471074
vt 0.1321522 0.9462029
vt 0.1330291 0.9424732
vt 0.1336738 0.9451811
vt 0.1322934 0.9386988
vt 0.1289576 0.9390474
vt 0.1325254 0.929529
vt 0.1257183 0.9394665
vt 0.1226384 0.929176
vt 0.1192015 0.9183167
vt 0.1258759 0.9294139
vt 0.129156 0.9294879
vt 0.1226957 0.9185033
vt 0.1195813 0.9117791
vt 0.1155946 0.9178901
vt 0.1294591 0.9185759
vt 0.1329095 0.9188517
vt 0.1260655 0.9185134
vt 0.1120481 0.9173982
vt 0.1304168 0.9114923
vt 0.1338235 0.9119133
vt 0.1234398 0.9116134
vt 0.1269803 0.9114197
vt 0.1155252 0.9115301
vt 0.1117645 0.9108269
vt 0.1324344 0.9055874
vt 0.1341353 0.9061493
vt 0.1306176 0.9053588
vt 0.1287165 0.905405
vt 0.1268153 0.905731
vt 0.1248724 0.9061988
vt 0.1229488 0.9067577
vt 0.1209628 0.9072441
vt 0.1189827 0.9075382
vt 0.1169873 0.9075339
vt 0.1150549 0.9072011
vt 0.1132104 0.9065859
vt 0.1113889 0.9058781
vt 0.1083432 0.9102406
vt 0.1096386 0.9051456
vt 0.1078305 0.9046126
vt 0.1049693 0.9102054
vt 0.106076 0.9043066
vt 0.1043485 0.9043983
vt 0.001953125 0.6581072
vt 0.001953125 0.6609519
vt 0.004885353 0.6603745
vt 0.003041595 0.66358
vt 0.004883047 0.6586959
vt 0.005529687 0.6619245
vt 0.003041692 0.6554791
vt 0.005052977 0.6655915
vt 0.005523325 0.6571442
vt 0.006718141 0.66311
vt 0.005053215 0.6534677
vt 0.007681091 0.6666803
vt 0.006708664 0.6559557
vt 0.008269819 0.6637504
vt 0.007681384 0.6523791
vt 0.01052574 0.6666803
vt 0.008258654 0.6553113
vt 0.009948435 0.6637481
vt 0.01052602 0.6523792
vt 0.01315391 0.6655918
vt 0.009937303 0.6553091
vt 0.01149845 0.6631038
vt 0.01315415 0.6534679
vt 0.01516542 0.6635803
vt 0.01148895 0.6559494
vt 0.0126838 0.6619152
vt 0.016254 0.6609522
vt 0.01332408 0.6603636
vt 0.016254 0.6581075
vt 0.01332179 0.658685
vt 0.01516553 0.6554794
vt 0.01267741 0.6571348
vt 0.1369856 0.5673175
vt 0.1386411 0.5648295
vt 0.1374559 0.5636409
vt 0.1401911 0.565474
vt 0.1349741 0.5653059
vt 0.1396136 0.5684061
vt 0.1418697 0.5654762
vt 0.1424583 0.5684062
vt 0.1434214 0.564836
vt 0.1450864 0.5673177
vt 0.14461 0.5636507
vt 0.147098 0.5653062
vt 0.1452544 0.5621007
vt 0.1481866 0.562678
vt 0.1452566 0.560422
vt 0.1481866 0.5598335
vt 0.1338857 0.5626777
vt 0.1368157 0.5620891
vt 0.1368178 0.5604105
vt 0.1338857 0.5598331
vt 0.1374623 0.5588605
vt 0.1349743 0.557205
vt 0.1386508 0.5576752
vt 0.1369858 0.5551935
vt 0.1402026 0.5570349
vt 0.139614 0.554105
vt 0.1446164 0.5588703
vt 0.1470981 0.5572053
vt 0.1418812 0.5570372
vt 0.1424586 0.554105
vt 0.1450867 0.5551937
vt 0.1434311 0.5576817
vn -0.5232254 0.5477833 0.6528159
vn -0.7994315 0.5936526 -0.0921185
vn -0.7102227 0.2804522 0.6457013
vn -0.3099 0.6974925 0.6461164
vn -0.1646213 0.9832582 0.0781207
vn 0.01252765 0.7682849 0.6399854
vn 0.282685 0.7155138 0.63885
vn -0.08759034 0.9954579 0.03730216
vn -0.558323 0.6548541 -0.5093539
vn 0.541174 0.8072961 0.2353797
vn 0.552706 0.539493 0.6351877
vn 0.7100465 0.3057422 0.6343153
vn 0.9352921 0.1941567 0.2958577
vn 0.7778587 -0.006507683 0.6284056
vn 0.7301458 -0.2861316 0.6204965
vn -0.02632432 0.9933419 -0.1121561
vn -0.3628706 0.6140544 -0.7009009
vn 0.4362754 0.7339256 0.520593
vn 0.8300689 -0.5206416 0.1997945
vn 0.5597124 -0.5647219 0.6064745
vn 0.3212101 0.772219 0.5481806
vn -0.1118589 0.9585143 -0.2621789
vn -0.4969775 0.4966126 -0.7116104
vn 0.708343 0.07937628 0.7013913
vn 0.2782559 -0.9602622 -0.02168203
vn 0.3213028 -0.7369311 0.5947243
vn -0.01208118 -0.8067104 0.5908235
vn -0.4616559 -0.8579021 -0.2255612
vn -0.2977237 -0.7496576 0.5910788
vn -0.578347 -0.5419406 0.6097665
vn 0.5941225 -0.6158214 0.517477
vn 0.4818369 0.09762356 0.8708059
vn 0.157824 -0.986257 0.04887365
vn 0.3591194 -0.6278889 0.6904989
vn -0.951014 -0.2005391 -0.2352798
vn -0.7172163 -0.3086075 0.6247897
vn -0.7670277 0.02025464 0.6412942
vn -0.7994315 0.5936526 -0.0921185
vn -0.7102227 0.2804522 0.6457013
vn -0.558323 0.6548541 -0.5093539
vn -0.6635539 -0.1213138 -0.738227
vn -0.3628706 0.6140544 -0.7009009
vn -0.3618073 -0.7980272 -0.4819213
vn 0.03409423 -0.9917672 0.1234318
vn 0.4227511 -0.542693 0.7257863
vn -0.3117816 -0.7882211 -0.5305655
vn -0.4791935 -0.1198103 -0.8694937
vn 0.0719254 -0.9755759 0.2075537
vn 0.6848624 -0.5512866 0.4764941
vn 0.5390203 0.2299181 0.8103053
vn -0.5920144 -0.2187515 -0.7756717
vn -0.4969775 0.4966126 -0.7116104
vn -0.3557517 -0.8353736 -0.4190365
vn 0.332166 0.8650279 0.3760219
vn -0.8544617 -0.2111726 -0.4746594
vn -0.7414754 0.5012196 -0.4460865
vn 0.1280486 -0.9840299 0.1236475
vn -0.5059907 -0.8215889 -0.2626119
vn 0.8231416 0.2568803 0.5064093
vn 0.4362613 0.8804986 0.1854678
vn -0.706552 0.007747484 -0.7076188
vn -0.6600866 0.2616718 -0.7041403
vn -0.6633083 -0.2736292 -0.6965265
vn -0.5319682 -0.5054795 -0.6793381
vn -0.3020447 -0.7042714 -0.6424726
vn -0.02935677 -0.7940657 -0.6071226
vn 0.3116248 -0.7724549 -0.5533565
vn 0.5814639 -0.6261259 -0.5194864
vn 0.8119674 -0.3258526 -0.484282
vn 0.8751193 -0.01425012 -0.4836973
vn 0.7796493 0.3619183 -0.5110403
vn 0.594704 0.5933466 -0.5424638
vn 0.2765922 0.7567991 -0.5922431
vn -0.2208796 0.9549521 -0.1981887
vn -0.005918847 0.7784616 -0.6276643
vn -0.3067551 0.6779112 -0.6680851
vn -0.7414754 0.5012196 -0.4460865
vn -0.5123734 0.5113798 -0.6899016
vn -0.6600866 0.2616718 -0.7041403
vn -0.233825 -0.2338253 0.9437433
vn -0.3055066 -0.1265453 0.9437436
vn -0.7172163 -0.3086075 0.6247897
vn -0.3306779 0 0.9437436
vn -0.578347 -0.5419406 0.6097665
vn -0.7670277 0.02025464 0.6412942
vn -0.1265453 -0.3055073 0.9437435
vn -0.3055066 0.1265453 0.9437436
vn -0.2977237 -0.7496576 0.5910788
vn -0.7102227 0.2804522 0.6457013
vn 0 -0.3306787 0.9437433
vn -0.2338249 0.2338253 0.9437435
vn -0.01208118 -0.8067104 0.5908235
vn -0.5232254 0.5477833 0.6528159
vn 0.1265452 -0.3055075 0.9437433
vn -0.1265453 0.3055075 0.9437433
vn 0.3213028 -0.7369311 0.5947243
vn -0.3099 0.6974925 0.6461164
vn 0.2338252 -0.2338251 0.9437433
vn 0 0.3306789 0.9437433
vn 0.5597124 -0.5647219 0.6064745
vn 0.01252765 0.7682849 0.6399854
vn 0.3055077 -0.1265454 0.9437432
vn 0.1265453 0.3055074 0.9437433
vn 0.7301458 -0.2861316 0.6204965
vn 0.282685 0.7155138 0.63885
vn 0.2338251 0.2338249 0.9437435
vn 0.552706 0.539493 0.6351877
vn 0.3055081 0.1265451 0.9437431
vn 0.7100465 0.3057422 0.6343153
vn 0.3306796 0 0.9437431
vn 0.7778587 -0.006507683 0.6284056
vn 0.3306791 0 -0.9437432
vn 0.8751193 -0.01425012 -0.4836973
vn 0.8119674 -0.3258526 -0.484282
vn 0.7796493 0.3619183 -0.5110403
vn 0.3055072 -0.1265455 -0.9437435
vn 0.3055077 0.1265451 -0.9437432
vn 0.594704 0.5933466 -0.5424638
vn 0.2338254 0.233825 -0.9437433
vn 0.2765922 0.7567991 -0.5922431
vn 0.1265451 0.3055072 -0.9437435
vn -0.005918847 0.7784616 -0.6276643
vn 0 0.3306793 -0.9437431
vn -0.3067551 0.6779112 -0.6680851
vn -0.1265457 0.3055074 -0.9437432
vn -0.5123734 0.5113798 -0.6899016
vn -0.2338246 0.2338253 -0.9437435
vn 0.233825 -0.2338254 -0.9437433
vn 0.5814639 -0.6261259 -0.5194864
vn 0.3116248 -0.7724549 -0.5533565
vn 0.1265451 -0.3055074 -0.9437433
vn -0.02935677 -0.7940657 -0.6071226
vn 0 -0.3306792 -0.9437431
vn -0.3020447 -0.7042714 -0.6424726
vn -0.1265461 -0.3055075 -0.9437432
vn -0.5319682 -0.5054795 -0.6793381
vn -0.2338251 -0.2338252 -0.9437433
vn -0.6600866 0.2616718 -0.7041403
vn -0.3055067 0.1265451 -0.9437436
vn -0.6633083 -0.2736292 -0.6965265
vn -0.3055071 -0.126545 -0.9437435
vn -0.3306784 0 -0.9437435
vn -0.706552 0.007747484 -0.7076188
g CableWrong_0
f 3/3/3 2/2/2 1/1/1
f 1/1/1 2/2/2 4/4/4
f 2/2/2 5/5/5 4/4/4
f 4/4/4 5/5/5 6/6/6
f 6/6/6 5/5/5 7/7/7
f 8/8/8 5/5/5 2/2/2
f 9/9/9 8/8/8 2/2/2
f 5/5/5 10/10/10 7/7/7
f 5/5/5 8/8/8 10/10/10
f 7/7/7 10/10/10 11/11/11
f 11/11/11 10/10/10 12/12/12
f 10/10/10 13/13/13 12/12/12
f 12/12/12 13/13/13 14/14/14
f 14/14/14 13/13/13 15/15/15
f 16/16/16 8/8/8 9/9/9
f 17/17/17 16/16/16 9/9/9
f 8/8/8 18/18/18 10/10/10
f 10/10/10 18/18/18 13/13/13
f 13/13/13 19/19/19 15/15/15
f 15/15/15 19/19/19 20/20/20
f 16/16/16 21/21/21 8/8/8
f 21/21/21 18/18/18 8/8/8
f 16/16/16 17/17/17 22/22/22
f 17/17/17 23/23/23 22/22/22
f 18/18/18 24/24/24 13/13/13
f 13/13/13 24/24/24 19/19/19
f 19/19/19 25/25/25 20/20/20
f 25/25/25 26/26/26 20/20/20
f 26/26/26 25/25/25 27/27/27
f 25/25/25 28/28/28 27/27/27
f 28/28/28 29/29/29 27/27/27
f 29/29/29 28/28/28 30/30/30
f 19/19/19 31/31/31 25/25/25
f 24/24/24 31/31/31 19/19/19
f 32/32/32 24/24/24 18/18/18
f 21/21/21 32/32/32 18/18/18
f 31/31/31 33/33/33 25/25/25
f 25/25/25 33/33/33 28/28/28
f 34/34/34 31/31/31 24/24/24
f 32/32/32 34/34/34 24/24/24
f 31/31/31 34/34/34 33/33/33
f 28/28/28 35/35/35 30/30/30
f 35/35/35 36/36/36 30/30/30
f 36/36/36 35/35/35 37/37/37
f 35/35/35 38/38/38 37/37/37
f 38/38/38 39/39/39 37/37/37
f 40/40/40 38/38/38 35/35/35
f 41/41/41 40/40/40 35/35/35
f 41/41/41 35/35/35 28/28/28
f 42/42/42 40/40/40 41/41/41
f 33/33/33 43/43/43 28/28/28
f 43/43/43 41/41/41 28/28/28
f 34/34/34 44/44/44 33/33/33
f 33/33/33 44/44/44 43/43/43
f 34/34/34 32/32/32 45/45/45
f 34/34/34 45/45/45 44/44/44
f 43/43/43 46/46/46 41/41/41
f 44/44/44 46/46/46 43/43/43
f 47/47/47 42/42/42 41/41/41
f 46/46/46 47/47/47 41/41/41
f 44/44/44 48/48/48 46/46/46
f 45/45/45 48/48/48 44/44/44
f 45/45/45 49/49/49 48/48/48
f 32/32/32 50/50/50 45/45/45
f 45/45/45 50/50/50 49/49/49
f 32/32/32 21/21/21 50/50/50
f 47/47/47 51/51/51 42/42/42
f 51/51/51 52/52/52 42/42/42
f 46/46/46 53/53/53 47/47/47
f 48/48/48 53/53/53 46/46/46
f 53/53/53 51/51/51 47/47/47
f 21/21/21 54/54/54 50/50/50
f 21/21/21 16/16/16 54/54/54
f 16/16/16 22/22/22 54/54/54
f 51/51/51 55/55/55 52/52/52
f 55/55/55 56/56/56 52/52/52
f 48/48/48 57/57/57 53/53/53
f 49/49/49 57/57/57 48/48/48
f 53/53/53 58/58/58 51/51/51
f 58/58/58 55/55/55 51/51/51
f 57/57/57 58/58/58 53/53/53
f 50/50/50 54/54/54 59/59/59
f 50/50/50 59/59/59 49/49/49
f 54/54/54 22/22/22 60/60/60
f 54/54/54 60/60/60 59/59/59
f 55/55/55 61/61/61 56/56/56
f 61/61/61 62/62/62 56/56/56
f 55/55/55 63/63/63 61/61/61
f 64/64/64 63/63/63 55/55/55
f 58/58/58 64/64/64 55/55/55
f 58/58/58 65/65/65 64/64/64
f 66/66/66 65/65/65 58/58/58
f 57/57/57 66/66/66 58/58/58
f 57/57/57 67/67/67 66/66/66
f 68/68/68 67/67/67 57/57/57
f 49/49/49 68/68/68 57/57/57
f 49/49/49 69/69/69 68/68/68
f 70/70/70 69/69/69 49/49/49
f 59/59/59 70/70/70 49/49/49
f 59/59/59 71/71/71 70/70/70
f 59/59/59 60/60/60 71/71/71
f 60/60/60 72/72/72 71/71/71
f 60/60/60 73/73/73 72/72/72
f 60/60/60 74/74/74 73/73/73
f 74/74/74 75/75/75 73/73/73
f 22/22/22 74/74/74 60/60/60
f 22/22/22 23/23/23 74/74/74
f 74/74/74 76/76/76 75/75/75
f 23/23/23 77/77/77 74/74/74
f 74/74/74 77/77/77 76/76/76
f 77/77/77 78/78/78 76/76/76
f 77/77/77 79/79/79 78/78/78
f 82/82/82 81/81/81 80/80/80
f 83/83/83 81/81/81 82/82/82
f 84/84/84 82/82/82 80/80/80
f 85/85/85 83/83/83 82/82/82
f 84/84/84 80/80/80 86/86/86
f 87/87/87 83/83/83 85/85/85
f 88/88/88 84/84/84 86/86/86
f 89/89/89 87/87/87 85/85/85
f 88/88/88 86/86/86 90/90/90
f 91/91/91 87/87/87 89/89/89
f 92/92/92 88/88/88 90/90/90
f 93/93/93 91/91/91 89/89/89
f 92/92/92 90/90/90 94/94/94
f 95/95/95 91/91/91 93/93/93
f 96/96/96 92/92/92 94/94/94
f 97/97/97 95/95/95 93/93/93
f 96/96/96 94/94/94 98/98/98
f 99/99/99 95/95/95 97/97/97
f 100/100/100 96/96/96 98/98/98
f 101/101/101 99/99/99 97/97/97
f 100/100/100 98/98/98 102/102/102
f 103/103/103 99/99/99 101/101/101
f 104/104/104 100/100/100 102/102/102
f 105/105/105 103/103/103 101/101/101
f 106/106/106 103/103/103 105/105/105
f 107/107/107 106/106/106 105/105/105
f 108/108/108 106/106/106 107/107/107
f 109/109/109 108/108/108 107/107/107
f 104/104/104 102/102/102 110/110/110
f 110/110/110 108/108/108 109/109/109
f 111/111/111 104/104/104 110/110/110
f 111/111/111 110/110/110 109/109/109
f 114/114/114 113/113/113 112/112/112
f 113/113/113 115/115/115 112/112/112
f 116/116/116 114/114/114 112/112/112
f 115/115/115 117/117/117 112/112/112
f 115/115/115 118/118/118 117/117/117
f 118/118/118 119/119/119 117/117/117
f 118/118/118 120/120/120 119/119/119
f 120/120/120 121/121/121 119/119/119
f 120/120/120 122/122/122 121/121/121
f 122/122/122 123/123/123 121/121/121
f 122/122/122 124/124/124 123/123/123
f 124/124/124 125/125/125 123/123/123
f 124/124/124 126/126/126 125/125/125
f 126/126/126 127/127/127 125/125/125
f 114/114/114 116/116/116 128/128/128
f 129/129/129 114/114/114 128/128/128
f 130/130/130 129/129/129 128/128/128
f 131/131/131 130/130/130 128/128/128
f 132/132/132 130/130/130 131/131/131
f 133/133/133 132/132/132 131/131/131
f 134/134/134 132/132/132 133/133/133
f 135/135/135 134/134/134 133/133/133
f 136/136/136 134/134/134 135/135/135
f 137/137/137 136/136/136 135/135/135
f 126/126/126 138/138/138 127/127/127
f 138/138/138 139/139/139 127/127/127
f 140/140/140 136/136/136 137/137/137
f 141/141/141 140/140/140 137/137/137
f 139/139/139 138/138/138 142/142/142
f 140/140/140 141/141/141 142/142/142
f 138/138/138 143/143/143 142/142/142
f 143/143/143 140/140/140 142/142/142
