g CandleDochtArmShort
v -0.003427655 -0.009677343 0.01238615
v -0.006348002 -0.007331959 -0.01352815
v -0.01181356 -9.653527E-05 -0.01405563
v -0.002183817 -0.006735261 0.04531143
v -0.003539931 -0.0001827442 0.03461406
v 0.002762373 0.00593032 0.02940838
v -0.008704312 0.005281081 0.0746791
v -0.007030501 0.006791945 -0.01261076
v -0.00142984 0.006919872 -0.01466734
v 0.01157565 0.003312885 0.01947644
v 0.003984526 0.001905664 -0.01417004
v 0.01150773 -0.00344587 0.01229736
v 0.001361751 -0.005846555 -0.01479895
v 0.00614879 -0.01156258 0.01804877
v -0.006348002 -0.007331959 -0.01352815
v -0.003427655 -0.009677343 0.01238615
v 0.01181356 -0.002780033 0.04655169
v 0.001596451 -0.006447177 0.06002018
v -0.002183817 -0.006735261 0.04531143
v -0.003468103 -0.0006706272 0.08377438
v -0.008704312 0.005281081 0.0746791
v -0.006986688 0.0002512413 0.09414992
v -0.00160931 0.004424731 0.09366386
v 0.009447803 0.006266664 0.06300643
v 0.004831091 0.01156258 0.06525429
v -0.004295541 0.00997442 0.08453594
v -0.006986688 0.0002512413 0.09414992
v -0.001917451 0.01120041 0.06206378
vt 0.1110088 0.6573437
vt 0.107806 0.6494839
vt 0.105179 0.6498396
vt 0.108996 0.669014
vt 0.10514 0.666091
vt 0.101805 0.6637315
vt 0.1039541 0.6794296
vt 0.1019658 0.6491019
vt 0.09941418 0.6489624
vt 0.0979263 0.6605852
vt 0.09641831 0.6491916
vt 0.09506846 0.6585526
vt 0.09333856 0.6493443
vt 0.09169988 0.6604046
vt 0.09060413 0.6502001
vt 0.08797311 0.6596628
vt 0.09484027 0.6693385
vt 0.0919418 0.6743361
vt 0.08744236 0.6722222
vt 0.09412319 0.682385
vt 0.09051398 0.6828768
vt 0.09548045 0.6859192
vt 0.09752821 0.6845656
vt 0.09797104 0.6742865
vt 0.09987003 0.6752208
vt 0.1005927 0.6817272
vt 0.09998915 0.6856135
vt 0.1018939 0.6747475
vn -0.5434328 -0.8390166 0.02705525
vn -0.4195702 -0.9046145 -0.07505644
vn -0.9894516 -0.01222483 0.1443471
vn -0.6973583 -0.7151749 0.04707789
vn -0.9334565 0.3580955 0.02065334
vn -0.2779671 0.9583775 -0.06516897
vn -0.9958653 0.09083323 -0.001209055
vn -0.4967876 0.8575639 0.1333648
vn 0.3319844 0.9405586 -0.07166486
vn 0.8042334 0.5910119 -0.06255757
vn 0.9165946 0.2855735 -0.2798251
vn 0.9540427 -0.2421654 -0.176518
vn 0.6041642 -0.7456235 -0.2811247
vn 0.3650014 -0.9309058 -0.01372322
vn -0.4195702 -0.9046145 -0.07505644
vn -0.5434328 -0.8390166 0.02705525
vn 0.9080781 -0.3965582 0.1346688
vn 0.132829 -0.9641554 0.2296975
vn -0.6973583 -0.7151749 0.04707789
vn -0.05516542 -0.9863958 0.154855
vn -0.9958653 0.09083323 -0.001209055
vn -0.4421449 -0.4490443 0.7764453
vn 0.4371557 0.1727892 0.8826317
vn 0.9525928 0.2189338 0.2112693
vn 0.4322754 0.8962162 0.0996717
vn -0.2628547 0.9083213 0.3253611
vn -0.4421449 -0.4490443 0.7764453
vn -0.457716 0.8779531 -0.1403365
g CandleDochtArmShort_0
f 3/3/3 2/2/2 1/1/1
f 4/4/4 3/3/3 1/1/1
f 5/5/5 3/3/3 4/4/4
f 6/6/6 3/3/3 5/5/5
f 7/7/7 5/5/5 4/4/4
f 7/7/7 6/6/6 5/5/5
f 6/6/6 8/8/8 3/3/3
f 6/6/6 9/9/9 8/8/8
f 6/6/6 10/10/10 9/9/9
f 10/10/10 11/11/11 9/9/9
f 12/12/12 11/11/11 10/10/10
f 13/13/13 11/11/11 12/12/12
f 13/13/13 12/12/12 14/14/14
f 15/15/15 13/13/13 14/14/14
f 16/16/16 15/15/15 14/14/14
f 12/12/12 17/17/17 14/14/14
f 17/17/17 12/12/12 10/10/10
f 16/16/16 14/14/14 18/18/18
f 18/18/18 14/14/14 17/17/17
f 19/19/19 16/16/16 18/18/18
f 18/18/18 20/20/20 19/19/19
f 20/20/20 21/21/21 19/19/19
f 21/21/21 20/20/20 22/22/22
f 23/23/23 22/22/22 20/20/20
f 23/23/23 20/20/20 18/18/18
f 17/17/17 23/23/23 18/18/18
f 24/24/24 17/17/17 10/10/10
f 17/17/17 24/24/24 23/23/23
f 24/24/24 10/10/10 25/25/25
f 23/23/23 24/24/24 25/25/25
f 6/6/6 25/25/25 10/10/10
f 23/23/23 25/25/25 26/26/26
f 27/27/27 23/23/23 26/26/26
f 26/26/26 7/7/7 27/27/27
f 25/25/25 6/6/6 28/28/28
f 7/7/7 28/28/28 6/6/6
f 26/26/26 28/28/28 7/7/7
f 25/25/25 28/28/28 26/26/26
