g CandleDocht
v -0.006296366 0.5937291 0.001245454
v 0.001705632 0.5594511 0.002177462
v 0.00403364 0.5676692 -0.0007345378
v 0.002493635 0.5452751 -0.0003425479
v 0.006385639 0.5515372 -7.253885E-05
v -0.005594373 0.5148112 -0.0003205389
v -0.007170364 0.5050611 0.004275456
v -0.004130363 0.5052412 -0.001604542
v 0.006385639 0.5515372 -7.253885E-05
v 0.001699641 0.5199912 -0.0001785457
v 0.001189634 0.5051051 0.001405463
v 0.007791638 0.5520772 0.002873465
v 0.007489637 0.5641751 0.001183465
v 0.002603635 0.5196972 0.003591463
v -0.0001183599 0.5051031 0.006437466
v 0.007095635 0.5598191 0.007009462
v 0.007545635 0.5639172 0.004671454
v 0.0002116412 0.5182551 0.006709456
v -0.00431636 0.5050831 0.007521465
v 0.002977639 0.5462872 0.007617459
v -0.00185436 0.5299331 0.006735459
v -0.004662365 0.6015671 0.003779456
v -0.004404366 0.5903671 0.00543946
v -0.006296366 0.5937291 0.001245454
v 0.007095635 0.5598191 0.007009462
v 0.003351629 0.5631891 0.007375464
v -0.004662365 0.6015671 0.003779456
v 0.002977639 0.5462872 0.007617459
v 0.001411632 0.5638452 0.005837455
v 0.001515642 0.5522951 0.006017461
v -0.00185436 0.5299331 0.006735459
v 0.001705632 0.5594511 0.002177462
v 0.007545635 0.5639172 0.004671454
v -0.003060371 0.5303031 0.002615467
v 0.007489637 0.5641751 0.001183465
v 0.007791638 0.5520772 0.002873465
v -0.004424363 0.6000792 0.001099452
v 0.00403364 0.5676692 -0.0007345378
v -0.006296366 0.5937291 0.001245454
v 0.006385639 0.5515372 -7.253885E-05
v -0.00575237 0.5186291 0.004889458
v -0.00431636 0.5050831 0.007521465
v 0.0002116412 0.5182551 0.006709456
v -0.007170364 0.5050611 0.004275456
v -0.005594373 0.5148112 -0.0003205389
v 0.002493635 0.5452751 -0.0003425479
v 0.001705632 0.5594511 0.002177462
v -0.004130363 0.5052412 -0.001604542
v -0.004424363 0.6000792 0.001099452
v -0.004662365 0.6015671 0.003779456
v -0.006296366 0.5937291 0.001245454
v -0.00431636 0.5050831 0.007521465
v -0.0001183599 0.5051031 0.006437466
v 0.001189634 0.5051051 0.001405463
v -0.007170364 0.5050611 0.004275456
v -0.004130363 0.5052412 -0.001604542
v -0.004404366 0.5903671 0.00543946
v 0.003351629 0.5631891 0.007375464
v 0.001411632 0.5638452 0.005837455
v -0.006296366 0.5937291 0.001245454
v 0.001705632 0.5594511 0.002177462
v 0.001515642 0.5522951 0.006017461
vt 0.975365 0.957381
vt 0.975586 0.960416
vt 0.974448 0.961246
vt 0.974622 0.960672
vt 0.97466 0.962145
vt 0.974763 0.95762
vt 0.976523 0.957101
vt 0.974255 0.958151
vt 0.97466 0.962145
vt 0.974697 0.960375
vt 0.975302 0.960208
vt 0.975749 0.962724
vt 0.975115 0.962582
vt 0.976104 0.960778
vt 0.977223 0.959797
vt 0.977321 0.962529
vt 0.976431 0.96266
vt 0.977321 0.959926
vt 0.977701 0.958231
vt 0.977617 0.960985
vt 0.977364 0.959147
vt 0.976295 0.958039
vt 0.976917 0.958163
vt 0.975365 0.957381
vt 0.977321 0.962529
vt 0.97752 0.961122
vt 0.976295 0.958039
vt 0.977617 0.960985
vt 0.976971 0.960365
vt 0.977038 0.960407
vt 0.977364 0.959147
vt 0.975586 0.960416
vt 0.976431 0.96266
vt 0.975829 0.958625
vt 0.975115 0.962582
vt 0.975749 0.962724
vt 0.97528 0.958084
vt 0.974448 0.961246
vt 0.975365 0.957381
vt 0.97466 0.962145
vt 0.976731 0.957646
vt 0.977701 0.958231
vt 0.977321 0.959926
vt 0.976523 0.957101
vt 0.974763 0.95762
vt 0.974622 0.960672
vt 0.975586 0.960416
vt 0.974255 0.958151
vt 0.97528 0.958084
vt 0.976295 0.958039
vt 0.975365 0.957381
vt 0.977701 0.958231
vt 0.977223 0.959797
vt 0.975302 0.960208
vt 0.976523 0.957101
vt 0.974255 0.958151
vt 0.976917 0.958163
vt 0.97752 0.961122
vt 0.976971 0.960365
vt 0.975365 0.957381
vt 0.975586 0.960416
vt 0.977038 0.960407
vn -0.168659 0.008031984 -0.9856418
vn -0.7873959 0.01978665 -0.6161301
vn 0.06799788 0.04068421 -0.9968556
vn -0.3394122 0.06479805 -0.9384032
vn 0.5957407 -0.0611117 -0.8008485
vn -0.7729458 0.1056858 -0.625608
vn -0.9869174 0.01685056 0.1603438
vn -0.2960722 -0.09235057 -0.9506906
vn 0.5957407 -0.0611117 -0.8008485
vn 0.7323219 -0.09279277 -0.6746066
vn 0.9102929 -0.1411569 -0.3891548
vn 0.994416 -0.1037383 -0.01937019
vn 0.8781837 0.1393642 -0.4575708
vn 0.9756938 -0.1183687 0.1844195
vn 0.6793975 -0.08071237 0.7293179
vn 0.6813515 0.03056726 0.7313179
vn 0.9404151 0.195499 0.278208
vn 0.4921793 -0.03232547 0.8698935
vn -0.3178798 0.02274888 0.9478582
vn -0.08727649 0.01369415 0.99609
vn -0.6112686 0.1146376 0.7830765
vn -0.8967459 0.0446006 0.4402925
vn -0.5014589 -0.003933905 0.8651726
vn -0.9221231 -0.03399983 0.3854
vn 0.6813515 0.03056726 0.7313179
vn -0.2043069 0.04395176 0.9779197
vn 0.9328876 0.3221853 0.1609885
vn -0.08727649 0.01369415 0.99609
vn -0.8607157 -0.1282948 0.4926551
vn -0.8755969 0.07552803 0.4771011
vn -0.6112686 0.1146376 0.7830765
vn -0.9986083 -0.03324673 0.04094161
vn 0.9404151 0.195499 0.278208
vn -0.9672912 0.2293089 -0.108467
vn 0.8781837 0.1393642 -0.4575708
vn 0.994416 -0.1037383 -0.01937019
vn 0.880291 0.3082647 -0.3606392
vn 0.06799788 0.04068421 -0.9968556
vn -0.168659 0.008031984 -0.9856418
vn 0.5957407 -0.0611117 -0.8008485
vn -0.923998 0.1502254 0.3516533
vn -0.3178798 0.02274888 0.9478582
vn 0.4921793 -0.03232547 0.8698935
vn -0.9869174 0.01685056 0.1603438
vn -0.7729458 0.1056858 -0.625608
vn -0.3394122 0.06479805 -0.9384032
vn -0.7873959 0.01978665 -0.6161301
vn -0.2960722 -0.09235057 -0.9506906
vn -0.9342483 0.270063 -0.2329078
vn -0.9342483 0.270063 -0.2329078
vn -0.9342483 0.270063 -0.2329078
vn 0.005002348 -0.9999871 0.0008979228
vn 0.005002348 -0.9999871 0.0008979228
vn 0.005002348 -0.9999871 0.0008979228
vn 0.005823613 -0.9999816 0.001660804
vn -0.006376431 -0.9994045 -0.03390932
vn -0.5014589 -0.003933905 0.8651726
vn -0.2043069 0.04395176 0.9779197
vn -0.8607157 -0.1282948 0.4926551
vn -0.9221231 -0.03399983 0.3854
vn -0.9986083 -0.03324673 0.04094161
vn -0.8755969 0.07552803 0.4771011
g CandleDocht_0
f 3/3/3 2/2/2 1/1/1
f 5/5/5 4/4/4 3/3/3
f 8/8/8 7/7/7 6/6/6
f 10/10/10 8/8/8 9/9/9
f 11/11/11 8/8/8 10/10/10
f 10/10/10 9/9/9 12/12/12
f 12/12/12 9/9/9 13/13/13
f 11/11/11 10/10/10 14/14/14
f 14/14/14 10/10/10 12/12/12
f 15/15/15 11/11/11 14/14/14
f 14/14/14 12/12/12 16/16/16
f 16/16/16 12/12/12 17/17/17
f 15/15/15 14/14/14 18/18/18
f 18/18/18 14/14/14 16/16/16
f 19/19/19 15/15/15 18/18/18
f 18/18/18 16/16/16 20/20/20
f 21/21/21 18/18/18 20/20/20
f 24/24/24 23/23/23 22/22/22
f 26/26/26 25/25/25 23/23/23
f 25/25/25 27/27/27 23/23/23
f 28/28/28 25/25/25 26/26/26
f 28/28/28 26/26/26 29/29/29
f 30/30/30 28/28/28 29/29/29
f 31/31/31 28/28/28 30/30/30
f 31/31/31 30/30/30 32/32/32
f 25/25/25 33/33/33 27/27/27
f 34/34/34 31/31/31 32/32/32
f 33/33/33 35/35/35 27/27/27
f 36/36/36 35/35/35 33/33/33
f 35/35/35 37/37/37 27/27/27
f 35/35/35 38/38/38 37/37/37
f 38/38/38 39/39/39 37/37/37
f 40/40/40 38/38/38 35/35/35
f 41/41/41 31/31/31 34/34/34
f 42/42/42 31/31/31 41/41/41
f 42/42/42 43/43/43 31/31/31
f 44/44/44 42/42/42 41/41/41
f 44/44/44 41/41/41 45/45/45
f 45/45/45 41/41/41 34/34/34
f 45/45/45 34/34/34 46/46/46
f 46/46/46 47/47/47 38/38/38
f 46/46/46 34/34/34 47/47/47
f 48/48/48 46/46/46 40/40/40
f 48/48/48 45/45/45 46/46/46
f 51/51/51 50/50/50 49/49/49
f 54/54/54 53/53/53 52/52/52
f 54/54/54 52/52/52 55/55/55
f 54/54/54 55/55/55 56/56/56
f 59/59/59 58/58/58 57/57/57
f 59/59/59 57/57/57 60/60/60
f 61/61/61 59/59/59 60/60/60
f 62/62/62 59/59/59 61/61/61
