g Card_ICON.001
v -0.007581411 0.01895544 0.119516
v 0.0002807286 0.02996864 0.1048878
v 0.002237165 0.02996864 0.1290045
v -0.006169802 0.01895544 0.1356182
v 0.006571962 -0.02740234 0.1109545
v -0.00359554 -0.02740234 0.1048878
v 0.002237165 -0.02740234 0.1290045
v 0.0119888 -0.02740234 0.1357148
v 0.09116825 -0.02740234 0.1109545
v 0.0931247 -0.02740234 0.1357148
v 0.1649207 -0.02740234 0.1103232
v 0.1742606 -0.02740234 0.1357148
v 0.1878885 -0.02740234 0.1135365
v 0.1840122 -0.02740234 0.1290045
v 0.1878885 -0.02740234 -0.03230577
v 0.1668771 -0.02740234 -0.03293715
v 0.1878885 -0.02740234 -0.178148
v 0.1660498 -0.02740234 -0.1767086
v 0.1840122 -0.02740234 -0.1936161
v 0.1742606 -0.02740234 -0.2003263
v 0.09229736 -0.02740234 -0.1760772
v 0.09312468 -0.02740234 -0.2003263
v 0.007701075 -0.02740234 -0.1760772
v 0.0119888 -0.02740234 -0.2003263
v -0.002466427 -0.02740234 -0.1700105
v 0.002237165 -0.02740234 -0.1936161
v 0.004483851 -0.01638914 0.1426035
v 0.002237165 -0.02740234 0.1290045
v -0.006169802 -0.01638914 0.1356182
v 0.0119888 -0.02740234 0.1357148
v 0.0931247 -0.01638914 0.1426035
v 0.0931247 -0.02740234 0.1357148
v 0.1817656 -0.01638914 0.1426035
v 0.1742606 -0.02740234 0.1357148
v 0.1924192 -0.01638914 0.1356182
v 0.1840122 -0.02740234 0.1290045
v 0.1952424 -0.01638914 0.119516
v 0.1878885 -0.02740234 0.1135365
v 0.1952424 -0.01638914 -0.03230577
v 0.1878885 -0.02740234 -0.03230577
v 0.1952424 -0.01638914 -0.1841275
v 0.1878885 -0.02740234 -0.178148
v 0.1924192 -0.01638914 -0.2002297
v 0.1840122 -0.02740234 -0.1936161
v 0.1817656 -0.01638914 -0.2072151
v 0.1742606 -0.02740234 -0.2003263
v 0.09312468 -0.01638914 -0.2072151
v 0.09312468 -0.02740234 -0.2003263
v 0.004483851 -0.01638914 -0.2072151
v 0.0119888 -0.02740234 -0.2003263
v -0.006169802 -0.01638914 -0.2002297
v 0.002237165 -0.02740234 -0.1936161
v 0.0002807286 0.02996864 0.1048878
v 0.0119888 0.02996864 0.1357148
v 0.002237165 0.02996864 0.1290045
v 0.01003236 0.02996864 0.1109545
v 0.0931247 0.02996864 0.1357148
v 0.09116825 0.02996864 0.1109545
v 0.1742606 0.02996864 0.1357148
v 0.1614603 0.02996864 0.1103232
v 0.1840122 0.02996864 0.1290045
v 0.1840122 0.02996864 0.1135365
v 0.1634167 0.02996864 -0.03293715
v 0.1840122 0.02996864 -0.03230577
v 0.1625894 0.02996864 -0.1767086
v 0.1840122 0.02996864 -0.178148
v 0.1742606 0.02996864 -0.2003263
v 0.1840122 0.02996864 -0.1936161
v 0.09312468 0.02996864 -0.2003263
v 0.09229736 0.02996864 -0.1760772
v 0.0119888 0.02996864 -0.2003263
v 0.01116148 0.02996864 -0.1760772
v 0.002237165 0.02996864 -0.1936161
v 0.001409842 0.02996864 -0.1700105
v -0.006169802 0.01895544 -0.2002297
v 0.002237165 0.02996864 -0.1936161
v 0.001409842 0.02996864 -0.1700105
v -0.008408735 0.01895544 -0.1759899
v 0.002237165 -0.02740234 -0.1936161
v -0.006169802 -0.01638914 -0.2002297
v -0.009820343 -0.01638914 -0.1759899
v -0.002466427 -0.02740234 -0.1700105
v -0.006169802 -0.01638914 -0.2002297
v -0.006169802 0.01895544 -0.2002297
v -0.008408735 0.01895544 -0.1759899
v -0.009820343 -0.01638914 -0.1759899
v 0.002237165 0.02996864 -0.1936161
v -0.006169802 0.01895544 -0.2002297
v 0.004483851 0.01895544 -0.2072151
v 0.0119888 0.02996864 -0.2003263
v 0.09312468 0.01895544 -0.2072151
v 0.09312468 0.02996864 -0.2003263
v 0.1817656 0.01895544 -0.2072151
v 0.1742606 0.02996864 -0.2003263
v 0.1924192 0.01895544 -0.2002297
v 0.1840122 0.02996864 -0.1936161
v 0.1938308 0.01895544 -0.1841275
v 0.1840122 0.02996864 -0.178148
v 0.1938308 0.01895544 -0.03230577
v 0.1840122 0.02996864 -0.03230577
v 0.1938308 0.01895544 0.119516
v 0.1840122 0.02996864 0.1135365
v 0.1924192 0.01895544 0.1356182
v 0.1840122 0.02996864 0.1290045
v 0.1817656 0.01895544 0.1426035
v 0.1742606 0.02996864 0.1357148
v 0.0931247 0.01895544 0.1426035
v 0.0931247 0.02996864 0.1357148
v 0.004483851 0.01895544 0.1426035
v 0.0119888 0.02996864 0.1357148
v -0.006169802 0.01895544 0.1356182
v 0.002237165 0.02996864 0.1290045
v -0.006169802 0.01895544 -0.2002297
v -0.006169802 -0.01638914 -0.2002297
v 0.004483851 -0.01638914 -0.2072151
v 0.004483851 0.01895544 -0.2072151
v 0.09312468 -0.01638914 -0.2072151
v 0.09312468 0.01895544 -0.2072151
v 0.1817656 -0.01638914 -0.2072151
v 0.1817656 0.01895544 -0.2072151
v 0.1924192 -0.01638914 -0.2002297
v 0.1924192 0.01895544 -0.2002297
v 0.1952424 -0.01638914 -0.1841275
v 0.1938308 0.01895544 -0.1841275
v 0.1952424 -0.01638914 -0.03230577
v 0.1938308 0.01895544 -0.03230577
v 0.1952424 -0.01638914 0.119516
v 0.1938308 0.01895544 0.119516
v 0.1924192 -0.01638914 0.1356182
v 0.1924192 0.01895544 0.1356182
v 0.1817656 -0.01638914 0.1426035
v 0.1817656 0.01895544 0.1426035
v 0.0931247 -0.01638914 0.1426035
v 0.0931247 0.01895544 0.1426035
v 0.004483851 -0.01638914 0.1426035
v 0.004483851 0.01895544 0.1426035
v -0.006169802 -0.01638914 0.1356182
v -0.006169802 0.01895544 0.1356182
v -0.00359554 -0.02740234 0.1048878
v -0.00899302 -0.01638914 0.119516
v -0.006169802 -0.01638914 0.1356182
v 0.002237165 -0.02740234 0.1290045
v -0.00899302 -0.01638914 0.119516
v -0.007581411 0.01895544 0.119516
v -0.006169802 0.01895544 0.1356182
v -0.006169802 -0.01638914 0.1356182
v 0.0002807286 0.02996864 0.1048878
v -0.00359554 -0.02740234 0.1048878
v 0.006571962 -0.02740234 0.1109545
v 0.01003236 0.02996864 0.1109545
v 0.01003236 0.02996864 0.1109545
v 0.006571962 -0.02740234 0.1109545
v 0.09116825 -0.02740234 0.1109545
v 0.09116825 0.02996864 0.1109545
v 0.1649207 -0.02740234 0.1103232
v 0.1614603 0.02996864 0.1103232
v 0.1614603 0.02996864 0.1103232
v 0.1649207 -0.02740234 0.1103232
v 0.1668771 -0.02740234 -0.03293715
v 0.1634167 0.02996864 -0.03293715
v 0.1660498 -0.02740234 -0.1767086
v 0.1625894 0.02996864 -0.1767086
v 0.1625894 0.02996864 -0.1767086
v 0.1660498 -0.02740234 -0.1767086
v 0.09229736 -0.02740234 -0.1760772
v 0.09229736 0.02996864 -0.1760772
v 0.007701075 -0.02740234 -0.1760772
v 0.01116148 0.02996864 -0.1760772
v 0.01116148 0.02996864 -0.1760772
v 0.007701075 -0.02740234 -0.1760772
v -0.002466427 -0.02740234 -0.1700105
v 0.001409842 0.02996864 -0.1700105
v -0.007581411 0.01895544 0.119516
v -0.00899302 -0.01638914 0.119516
v -0.00359554 -0.02740234 0.1048878
v 0.0002807286 0.02996864 0.1048878
v -0.008408735 0.01895544 -0.1759899
v 0.001409842 0.02996864 -0.1700105
v -0.002466427 -0.02740234 -0.1700105
v -0.009820343 -0.01638914 -0.1759899
vt 0.5415039 0.166626
vt 0.5415039 0.25
vt 0.625 0.25
vt 0.625 0.166626
vt 0.5415039 0.9165039
vt 0.5415039 1
vt 0.625 1
vt 0.625 0.9165039
vt 0.5415039 0.875
vt 0.625 0.875
vt 0.5415039 0.8334961
vt 0.625 0.8334961
vt 0.5415039 0.75
vt 0.625 0.75
vt 0.5 0.75
vt 0.5 0.8334961
vt 0.458252 0.75
vt 0.458252 0.8334961
vt 0.375 0.75
vt 0.375 0.8334961
vt 0.458252 0.875
vt 0.375 0.875
vt 0.458252 0.9165039
vt 0.375 0.9165039
vt 0.458252 1
vt 0.375 1
vt 0.7915039 0.6665039
vt 0.875 0.75
vt 0.875 0.6665039
vt 0.7915039 0.75
vt 0.75 0.6665039
vt 0.75 0.75
vt 0.7084961 0.6665039
vt 0.7084961 0.75
vt 0.625 0.6665039
vt 0.625 0.75
vt 0.5415039 0.6665039
vt 0.5415039 0.75
vt 0.5 0.6665039
vt 0.5 0.75
vt 0.458252 0.6665039
vt 0.458252 0.75
vt 0.375 0.6665039
vt 0.375 0.75
vt 0.291748 0.6665039
vt 0.291748 0.75
vt 0.25 0.6665039
vt 0.25 0.75
vt 0.208374 0.6665039
vt 0.208374 0.75
vt 0.125 0.6665039
vt 0.125 0.75
vt 0.5415039 0.25
vt 0.625 0.333252
vt 0.625 0.25
vt 0.5415039 0.333252
vt 0.625 0.375
vt 0.5415039 0.375
vt 0.625 0.416748
vt 0.5415039 0.416748
vt 0.625 0.5
vt 0.5415039 0.5
vt 0.5 0.416748
vt 0.5 0.5
vt 0.458252 0.416748
vt 0.458252 0.5
vt 0.375 0.416748
vt 0.375 0.5
vt 0.375 0.375
vt 0.458252 0.375
vt 0.375 0.333252
vt 0.458252 0.333252
vt 0.375 0.25
vt 0.458252 0.25
vt 0.375 0.166626
vt 0.375 0.25
vt 0.458252 0.25
vt 0.458252 0.166626
vt 0.375 0
vt 0.375 0.08331299
vt 0.458252 0.08331299
vt 0.458252 0
vt 0.375 0.08331299
vt 0.375 0.166626
vt 0.458252 0.166626
vt 0.458252 0.08331299
vt 0.125 0.5
vt 0.125 0.5834961
vt 0.208374 0.5834961
vt 0.208374 0.5
vt 0.25 0.5834961
vt 0.25 0.5
vt 0.291748 0.5834961
vt 0.291748 0.5
vt 0.375 0.5834961
vt 0.375 0.5
vt 0.458252 0.5834961
vt 0.458252 0.5
vt 0.5 0.5834961
vt 0.5 0.5
vt 0.5415039 0.5834961
vt 0.5415039 0.5
vt 0.625 0.5834961
vt 0.625 0.5
vt 0.7084961 0.5834961
vt 0.7084961 0.5
vt 0.75 0.5834961
vt 0.75 0.5
vt 0.7915039 0.5834961
vt 0.7915039 0.5
vt 0.875 0.5834961
vt 0.875 0.5
vt 0.125 0.5834961
vt 0.125 0.6665039
vt 0.208374 0.6665039
vt 0.208374 0.5834961
vt 0.25 0.6665039
vt 0.25 0.5834961
vt 0.291748 0.6665039
vt 0.291748 0.5834961
vt 0.375 0.6665039
vt 0.375 0.5834961
vt 0.458252 0.6665039
vt 0.458252 0.5834961
vt 0.5 0.6665039
vt 0.5 0.5834961
vt 0.5415039 0.6665039
vt 0.5415039 0.5834961
vt 0.625 0.6665039
vt 0.625 0.5834961
vt 0.7084961 0.6665039
vt 0.7084961 0.5834961
vt 0.75 0.6665039
vt 0.75 0.5834961
vt 0.7915039 0.6665039
vt 0.7915039 0.5834961
vt 0.875 0.6665039
vt 0.875 0.5834961
vt 0.5415039 0
vt 0.5415039 0.08331299
vt 0.625 0.08331299
vt 0.625 0
vt 0.5415039 0.08331299
vt 0.5415039 0.166626
vt 0.625 0.166626
vt 0.625 0.08331299
vt 0.5415039 0.25
vt 0.5415039 1
vt 0.5415039 0.9165039
vt 0.5415039 0.333252
vt 0.5415039 0.333252
vt 0.5415039 0.9165039
vt 0.5415039 0.875
vt 0.5415039 0.375
vt 0.5415039 0.8334961
vt 0.5415039 0.416748
vt 0.5415039 0.416748
vt 0.5415039 0.8334961
vt 0.5 0.8334961
vt 0.5 0.416748
vt 0.458252 0.8334961
vt 0.458252 0.416748
vt 0.458252 0.416748
vt 0.458252 0.8334961
vt 0.458252 0.875
vt 0.458252 0.375
vt 0.458252 0.9165039
vt 0.458252 0.333252
vt 0.458252 0.333252
vt 0.458252 0.9165039
vt 0.458252 1
vt 0.458252 0.25
vt 0.5415039 0.166626
vt 0.5415039 0.08331299
vt 0.5415039 0
vt 0.5415039 0.25
vt 0.458252 0.166626
vt 0.458252 0.25
vt 0.458252 0
vt 0.458252 0.08331299
vn -0.7719727 0.6323242 0.06463623
vn -0.7719727 0.6323242 0.06463623
vn -0.6362305 0.6904297 0.3444824
vn -0.6137695 0.6928711 0.3781738
vn 0 -1 0
vn 0 -1 0
vn 0 -1 0
vn 0 -1 0
vn 0 -1 0
vn 0 -1 0
vn 0 -1 0
vn 0 -1 0
vn 0 -1 0
vn 0 -1 0
vn 0 -1 0
vn 0 -1 0
vn 0 -1 0
vn 0 -1 0
vn 0 -1 0
vn 0 -1 0
vn 0 -1 0
vn 0 -1 0
vn 0 -1 0
vn 0 -1 0
vn 0 -1 0
vn 0 -1 0
vn -0.2646484 -0.6381836 0.7226563
vn -0.6142578 -0.6806641 0.3996582
vn -0.6020508 -0.6821289 0.4152832
vn -0.1713867 -0.6064453 0.7763672
vn 0 -0.5302734 0.8476563
vn 0 -0.5302734 0.8476563
vn 0.2646484 -0.6381836 0.7226563
vn 0.1713867 -0.6064453 0.7763672
vn 0.6020508 -0.6826172 0.4143066
vn 0.6137695 -0.6816406 0.3986816
vn 0.7885742 -0.6064453 0.1005249
vn 0.8056641 -0.5888672 0.06341553
vn 0.831543 -0.5551758 0
vn 0.831543 -0.5551758 0
vn 0.7885742 -0.6064453 -0.1005249
vn 0.8056641 -0.5888672 -0.06341553
vn 0.6020508 -0.6826172 -0.4143066
vn 0.6137695 -0.6816406 -0.3986816
vn 0.2646484 -0.6381836 -0.7226563
vn 0.1713867 -0.6064453 -0.7763672
vn 0 -0.5302734 -0.8476563
vn 0 -0.5302734 -0.8476563
vn -0.2646484 -0.6381836 -0.7226563
vn -0.1713867 -0.6064453 -0.7763672
vn -0.6088867 -0.6826172 -0.4042969
vn -0.6240234 -0.6806641 -0.3840332
vn 0 1 0
vn 0 1 0
vn 0 1 0
vn 0 1 0
vn 0 1 0
vn 0 1 0
vn 0 1 0
vn 0 1 0
vn 0 1 0
vn 0 1 0
vn 0 1 0
vn 0 1 0
vn 0 1 0
vn 0 1 0
vn 0 1 0
vn 0 1 0
vn 0 1 0
vn 0 1 0
vn 0 1 0
vn 0 1 0
vn 0 1 0
vn 0 1 0
vn -0.6064453 0.7036133 -0.3701172
vn -0.6289063 0.7021484 -0.3337402
vn -0.7558594 0.652832 -0.0484314
vn -0.7558594 0.652832 -0.0484314
vn -0.6240234 -0.6806641 -0.3840332
vn -0.6088867 -0.6826172 -0.4042969
vn -0.7680664 -0.6264648 -0.1341553
vn -0.7680664 -0.6264648 -0.1341553
vn -0.8496094 0.01092529 -0.5273438
vn -0.8496094 0.01092529 -0.5273438
vn -0.9926758 0.01982117 -0.1205444
vn -0.9926758 0.01982117 -0.1205444
vn -0.6289063 0.7021484 -0.3337402
vn -0.6064453 0.7036133 -0.3701172
vn -0.2646484 0.6381836 -0.7226563
vn -0.1713867 0.6064453 -0.7763672
vn 0 0.5302734 -0.8476563
vn 0 0.5302734 -0.8476563
vn 0.2646484 0.6381836 -0.7226563
vn 0.1713867 0.6064453 -0.7763672
vn 0.6103516 0.703125 -0.364502
vn 0.6342773 0.7016602 -0.324707
vn 0.7553711 0.6552734 -0.0209198
vn 0.7519531 0.6591797 -0.01283264
vn 0.746582 0.6655273 0
vn 0.746582 0.6655273 0
vn 0.7553711 0.6552734 0.0209198
vn 0.7519531 0.6591797 0.01283264
vn 0.6103516 0.703125 0.364502
vn 0.6342773 0.7016602 0.324707
vn 0.2646484 0.6381836 0.7226563
vn 0.1713867 0.6064453 0.7763672
vn 0 0.5302734 0.8476563
vn 0 0.5302734 0.8476563
vn -0.2646484 0.6381836 0.7226563
vn -0.1713867 0.6064453 0.7763672
vn -0.6137695 0.6928711 0.3781738
vn -0.6362305 0.6904297 0.3444824
vn -0.8496094 0.01092529 -0.5273438
vn -0.8496094 0.01092529 -0.5273438
vn -0.2861328 0 -0.9580078
vn -0.2861328 0 -0.9580078
vn 0 0 -1
vn 0 0 -1
vn 0.2861328 0 -0.9580078
vn 0.2861328 0 -0.9580078
vn 0.8466797 0.01088715 -0.5317383
vn 0.8466797 0.01088715 -0.5317383
vn 0.9975586 0.02993774 -0.06518555
vn 0.9975586 0.02990723 -0.06536865
vn 0.9990234 0.03991699 0
vn 0.9990234 0.03991699 0
vn 0.9975586 0.02993774 0.06518555
vn 0.9975586 0.02990723 0.06536865
vn 0.8466797 0.01088715 0.5317383
vn 0.8466797 0.01088715 0.5317383
vn 0.2861328 0 0.9580078
vn 0.2861328 0 0.9580078
vn 0 0 1
vn 0 0 1
vn -0.2861328 0 0.9580078
vn -0.2861328 0 0.9580078
vn -0.8466797 0.01088715 0.5317383
vn -0.8466797 0.01088715 0.5317383
vn -0.7578125 -0.6318359 0.1630859
vn -0.7578125 -0.6318359 0.1630859
vn -0.6020508 -0.6821289 0.4152832
vn -0.6142578 -0.6806641 0.3996582
vn -0.9912109 0.01979065 0.1303711
vn -0.9912109 0.01979065 0.1303711
vn -0.8466797 0.01088715 0.5317383
vn -0.8466797 0.01088715 0.5317383
vn 0.5200195 -0.03323364 -0.8535156
vn 0.5200195 -0.03323364 -0.8535156
vn 0.5200195 -0.03323364 -0.8535156
vn 0.5200195 -0.03323364 -0.8535156
vn 0 0 -1
vn 0 0 -1
vn -0.004383087 -0.0001322031 -1
vn -0.004383087 -0.0001322031 -1
vn -0.008766174 -0.0002644062 -1
vn -0.008766174 -0.0002644062 -1
vn -0.9980469 -0.06021118 -0.01363373
vn -0.9980469 -0.06021118 -0.01363373
vn -0.9980469 -0.06021118 -0.003940582
vn -0.9980469 -0.06021118 -0.003944397
vn -0.9980469 -0.06021118 0.005744934
vn -0.9980469 -0.06021118 0.005744934
vn 0.008766174 0.0002644062 1
vn 0.008766174 0.0002644062 1
vn 0.004383087 0.0001322031 1
vn 0.004383087 0.0001322031 1
vn 0 0 1
vn 0 0 1
vn 0.5200195 -0.03323364 0.8535156
vn 0.5200195 -0.03323364 0.8535156
vn 0.5200195 -0.03323364 0.8535156
vn 0.5200195 -0.03323364 0.8535156
vn -0.909668 0.05187988 -0.4123535
vn -0.909668 0.05187988 -0.4123535
vn -0.909668 0.05187988 -0.4123535
vn -0.909668 0.05187988 -0.4123535
vn -0.5712891 0.03256226 0.8203125
vn -0.5712891 0.03256226 0.8203125
vn -0.5712891 0.03256226 0.8203125
vn -0.5712891 0.03256226 0.8203125
g Card_ICON.001_0
f 3/3/3 2/2/2 1/1/1
f 4/4/4 3/3/3 1/1/1
f 7/7/7 6/6/6 5/5/5
f 8/8/8 7/7/7 5/5/5
f 8/8/8 5/5/5 9/9/9
f 10/10/10 8/8/8 9/9/9
f 10/10/10 9/9/9 11/11/11
f 12/12/12 10/10/10 11/11/11
f 12/12/12 11/11/11 13/13/13
f 14/14/14 12/12/12 13/13/13
f 13/13/13 11/11/11 15/15/15
f 11/11/11 16/16/16 15/15/15
f 15/15/15 16/16/16 17/17/17
f 16/16/16 18/18/18 17/17/17
f 17/17/17 18/18/18 19/19/19
f 18/18/18 20/20/20 19/19/19
f 18/18/18 21/21/21 20/20/20
f 21/21/21 22/22/22 20/20/20
f 21/21/21 23/23/23 22/22/22
f 23/23/23 24/24/24 22/22/22
f 23/23/23 25/25/25 24/24/24
f 25/25/25 26/26/26 24/24/24
f 29/29/29 28/28/28 27/27/27
f 28/28/28 30/30/30 27/27/27
f 27/27/27 30/30/30 31/31/31
f 30/30/30 32/32/32 31/31/31
f 31/31/31 32/32/32 33/33/33
f 32/32/32 34/34/34 33/33/33
f 33/33/33 34/34/34 35/35/35
f 34/34/34 36/36/36 35/35/35
f 35/35/35 36/36/36 37/37/37
f 36/36/36 38/38/38 37/37/37
f 37/37/37 38/38/38 39/39/39
f 38/38/38 40/40/40 39/39/39
f 39/39/39 40/40/40 41/41/41
f 40/40/40 42/42/42 41/41/41
f 41/41/41 42/42/42 43/43/43
f 42/42/42 44/44/44 43/43/43
f 43/43/43 44/44/44 45/45/45
f 44/44/44 46/46/46 45/45/45
f 45/45/45 46/46/46 47/47/47
f 46/46/46 48/48/48 47/47/47
f 47/47/47 48/48/48 49/49/49
f 48/48/48 50/50/50 49/49/49
f 49/49/49 50/50/50 51/51/51
f 50/50/50 52/52/52 51/51/51
f 55/55/55 54/54/54 53/53/53
f 54/54/54 56/56/56 53/53/53
f 54/54/54 57/57/57 56/56/56
f 57/57/57 58/58/58 56/56/56
f 57/57/57 59/59/59 58/58/58
f 59/59/59 60/60/60 58/58/58
f 59/59/59 61/61/61 60/60/60
f 61/61/61 62/62/62 60/60/60
f 60/60/60 62/62/62 63/63/63
f 62/62/62 64/64/64 63/63/63
f 63/63/63 64/64/64 65/65/65
f 64/64/64 66/66/66 65/65/65
f 65/65/65 66/66/66 67/67/67
f 66/66/66 68/68/68 67/67/67
f 65/65/65 67/67/67 69/69/69
f 70/70/70 65/65/65 69/69/69
f 70/70/70 69/69/69 71/71/71
f 72/72/72 70/70/70 71/71/71
f 72/72/72 71/71/71 73/73/73
f 74/74/74 72/72/72 73/73/73
f 77/77/77 76/76/76 75/75/75
f 78/78/78 77/77/77 75/75/75
f 81/81/81 80/80/80 79/79/79
f 82/82/82 81/81/81 79/79/79
f 85/85/85 84/84/84 83/83/83
f 86/86/86 85/85/85 83/83/83
f 89/89/89 88/88/88 87/87/87
f 90/90/90 89/89/89 87/87/87
f 91/91/91 89/89/89 90/90/90
f 92/92/92 91/91/91 90/90/90
f 93/93/93 91/91/91 92/92/92
f 94/94/94 93/93/93 92/92/92
f 95/95/95 93/93/93 94/94/94
f 96/96/96 95/95/95 94/94/94
f 97/97/97 95/95/95 96/96/96
f 98/98/98 97/97/97 96/96/96
f 99/99/99 97/97/97 98/98/98
f 100/100/100 99/99/99 98/98/98
f 101/101/101 99/99/99 100/100/100
f 102/102/102 101/101/101 100/100/100
f 103/103/103 101/101/101 102/102/102
f 104/104/104 103/103/103 102/102/102
f 105/105/105 103/103/103 104/104/104
f 106/106/106 105/105/105 104/104/104
f 107/107/107 105/105/105 106/106/106
f 108/108/108 107/107/107 106/106/106
f 109/109/109 107/107/107 108/108/108
f 110/110/110 109/109/109 108/108/108
f 111/111/111 109/109/109 110/110/110
f 112/112/112 111/111/111 110/110/110
f 115/115/115 114/114/114 113/113/113
f 116/116/116 115/115/115 113/113/113
f 117/117/117 115/115/115 116/116/116
f 118/118/118 117/117/117 116/116/116
f 119/119/119 117/117/117 118/118/118
f 120/120/120 119/119/119 118/118/118
f 121/121/121 119/119/119 120/120/120
f 122/122/122 121/121/121 120/120/120
f 123/123/123 121/121/121 122/122/122
f 124/124/124 123/123/123 122/122/122
f 125/125/125 123/123/123 124/124/124
f 126/126/126 125/125/125 124/124/124
f 127/127/127 125/125/125 126/126/126
f 128/128/128 127/127/127 126/126/126
f 129/129/129 127/127/127 128/128/128
f 130/130/130 129/129/129 128/128/128
f 131/131/131 129/129/129 130/130/130
f 132/132/132 131/131/131 130/130/130
f 133/133/133 131/131/131 132/132/132
f 134/134/134 133/133/133 132/132/132
f 135/135/135 133/133/133 134/134/134
f 136/136/136 135/135/135 134/134/134
f 137/137/137 135/135/135 136/136/136
f 138/138/138 137/137/137 136/136/136
f 141/141/141 140/140/140 139/139/139
f 142/142/142 141/141/141 139/139/139
f 145/145/145 144/144/144 143/143/143
f 146/146/146 145/145/145 143/143/143
f 149/149/149 148/148/148 147/147/147
f 150/150/150 149/149/149 147/147/147
f 153/153/153 152/152/152 151/151/151
f 154/154/154 153/153/153 151/151/151
f 155/155/155 153/153/153 154/154/154
f 156/156/156 155/155/155 154/154/154
f 159/159/159 158/158/158 157/157/157
f 160/160/160 159/159/159 157/157/157
f 161/161/161 159/159/159 160/160/160
f 162/162/162 161/161/161 160/160/160
f 165/165/165 164/164/164 163/163/163
f 166/166/166 165/165/165 163/163/163
f 167/167/167 165/165/165 166/166/166
f 168/168/168 167/167/167 166/166/166
f 171/171/171 170/170/170 169/169/169
f 172/172/172 171/171/171 169/169/169
f 175/175/175 174/174/174 173/173/173
f 176/176/176 175/175/175 173/173/173
f 179/179/179 178/178/178 177/177/177
f 180/180/180 179/179/179 177/177/177
