g chest_V2_L0
v -0.05653178 0.04272144 -0.024
v -0.18 0.04272145 -0.024
v -0.18 0.04272145 0.024
v -0.05653178 0.04272144 0.024
v 0.18 0.04272145 -0.024
v 0.05653178 0.04272144 -0.024
v 0.05653178 0.04272144 0.024
v 0.18 0.04272145 0.024
v -0.18 0.02272144 -0.024
v -0.05653179 0.02272144 -0.024
v -0.05653179 0.02272144 0.024
v -0.18 0.02272144 0.024
v 0.03653177 0.06495956 -0.024
v 0.03653179 -0.003880538 -0.024
v 0.03653179 -0.003880538 0.024
v 0.03653177 0.06495956 0.024
v -0.0565318 -0.02388054 -0.024
v 0.0565318 -0.02388054 -0.024
v 0.0565318 -0.02388054 0.024
v -0.0565318 -0.02388054 0.024
v 0.03653179 -0.003880538 -0.024
v -0.03653179 -0.003880538 -0.024
v -0.03653179 -0.003880538 0.024
v 0.03653179 -0.003880538 0.024
v 0.05653179 0.02272144 -0.024
v 0.18 0.02272144 -0.024
v 0.18 0.02272144 0.024
v 0.05653179 0.02272144 0.024
v -0.05653179 0.02272144 -0.024
v -0.0565318 -0.02388054 -0.024
v -0.0565318 -0.02388054 0.024
v -0.05653179 0.02272144 0.024
v 0.18 -0.1422424 -0.024
v -0.18 -0.1422424 -0.024
v -0.18 -0.1422424 0.024
v 0.18 -0.1422424 0.024
v 0.0565318 -0.02388054 -0.024
v 0.05653179 0.02272144 -0.024
v 0.05653179 0.02272144 0.024
v 0.0565318 -0.02388054 0.024
v -0.18 -0.1422424 -0.024
v -0.18 0.02272144 -0.024
v -0.18 0.02272144 0.024
v -0.18 -0.1422424 0.024
v -0.18 0.04272145 -0.024
v -0.18 0.1373481 -0.024
v -0.18 0.1373481 0.024
v -0.18 0.04272145 0.024
v 0.18 0.02272144 -0.024
v 0.18 -0.1422424 -0.024
v 0.18 -0.1422424 0.024
v 0.18 0.02272144 0.024
v -0.18 0.1373481 -0.024
v 0.18 0.1373481 -0.024
v 0.18 0.1373481 0.024
v -0.18 0.1373481 0.024
v 0.18 0.1373481 -0.024
v 0.18 0.04272145 -0.024
v 0.18 0.04272145 0.024
v 0.18 0.1373481 0.024
v 0.05653176 0.08495955 -0.024
v -0.05653176 0.08495955 -0.024
v -0.05653176 0.08495955 0.024
v 0.05653176 0.08495955 0.024
v -0.03653177 0.06495956 -0.024
v 0.03653177 0.06495956 -0.024
v 0.03653177 0.06495956 0.024
v -0.03653177 0.06495956 0.024
v -0.03653179 -0.003880538 -0.024
v -0.03653177 0.06495956 -0.024
v -0.03653177 0.06495956 0.024
v -0.03653179 -0.003880538 0.024
v 0.05653179 0.02272144 0.024
v 0.06253179 0.01672144 0.03
v 0.06253181 -0.02988054 0.03
v 0.0565318 -0.02388054 0.024
v 0.0565318 -0.02388054 0.024
v 0.06253181 -0.02988054 0.03
v -0.06253181 -0.02988054 0.03
v -0.0565318 -0.02388054 0.024
v -0.0565318 -0.02388054 0.024
v -0.06253181 -0.02988054 0.03
v -0.06253179 0.01672144 0.03
v -0.05653179 0.02272144 0.024
v -0.05653179 0.02272144 0.024
v -0.06253179 0.01672144 0.03
v -0.174 0.01672144 0.03
v -0.18 0.02272144 0.024
v -0.18 0.02272144 0.024
v -0.174 0.01672144 0.03
v -0.174 -0.1362424 0.03
v -0.18 -0.1422424 0.024
v -0.18 -0.1422424 0.024
v -0.174 -0.1362424 0.03
v 0.174 -0.1362424 0.03
v 0.18 -0.1422424 0.024
v 0.18 -0.1422424 0.024
v 0.174 -0.1362424 0.03
v 0.174 0.01672144 0.03
v 0.18 0.02272144 0.024
v 0.18 0.02272144 0.024
v 0.174 0.01672144 0.03
v 0.06253179 0.01672144 0.03
v 0.05653179 0.02272144 0.024
v 0.06253181 -0.02988054 0.03
v 0.06253179 0.01672144 0.03
v 0.174 0.01672144 0.03
v 0.174 -0.1362424 0.03
v -0.174 -0.1362424 0.03
v -0.06253181 -0.02988054 0.03
v -0.174 0.01672144 0.03
v -0.06253179 0.01672144 0.03
v 0.18 0.1373481 0.024
v 0.174 0.1313481 0.03
v -0.174 0.1313481 0.03
v -0.18 0.1373481 0.024
v -0.18 0.1373481 0.024
v -0.174 0.1313481 0.03
v -0.174 0.04872145 0.03
v -0.18 0.04272145 0.024
v -0.18 0.04272145 0.024
v -0.174 0.04872145 0.03
v -0.06253178 0.04872144 0.03
v -0.05653178 0.04272144 0.024
v -0.05653178 0.04272144 0.024
v -0.06253178 0.04872144 0.03
v -0.06253176 0.09095955 0.03
v -0.05653176 0.08495955 0.024
v -0.05653176 0.08495955 0.024
v -0.06253176 0.09095955 0.03
v 0.06253176 0.09095955 0.03
v 0.05653176 0.08495955 0.024
v 0.05653176 0.08495955 0.024
v 0.06253176 0.09095955 0.03
v 0.06253178 0.04872144 0.03
v 0.05653178 0.04272144 0.024
v 0.05653178 0.04272144 0.024
v 0.06253178 0.04872144 0.03
v 0.174 0.04872145 0.03
v 0.18 0.04272145 0.024
v 0.18 0.04272145 0.024
v 0.174 0.04872145 0.03
v 0.174 0.1313481 0.03
v 0.18 0.1373481 0.024
v -0.174 0.04872145 0.03
v -0.06253176 0.09095955 0.03
v -0.06253178 0.04872144 0.03
v -0.174 0.1313481 0.03
v 0.174 0.1313481 0.03
v 0.06253176 0.09095955 0.03
v 0.174 0.04872145 0.03
v 0.06253178 0.04872144 0.03
v 0.03653179 -0.003880538 0.024
v 0.03093514 0.001716115 0.03
v 0.03093512 0.0593629 0.03
v 0.03653177 0.06495956 0.024
v -0.03653177 0.06495956 0.024
v -0.03093512 0.0593629 0.03
v -0.03093514 0.001716115 0.03
v -0.03653179 -0.003880538 0.024
v 0.03093514 0.001716115 0.03
v 0.03653179 -0.003880538 0.024
v -0.03653179 -0.003880538 0.024
v -0.03093514 0.001716115 0.03
v 0.03093514 0.001716115 0.03
v -0.03093514 0.001716115 0.03
v -0.03093512 0.0593629 0.03
v 0.03093512 0.0593629 0.03
v -0.05653176 0.08495955 -0.024
v -0.05653178 0.04272144 -0.024
v -0.05653178 0.04272144 0.024
v -0.05653176 0.08495955 0.024
v 0.03093512 0.0593629 0.03
v -0.03093512 0.0593629 0.03
v -0.03653177 0.06495956 0.024
v 0.03653177 0.06495956 0.024
v 0.05653179 0.02272144 -0.024
v 0.0565318 -0.02388054 -0.024
v 0.06253181 -0.02988054 -0.03
v 0.06253179 0.01672144 -0.03
v 0.0565318 -0.02388054 -0.024
v -0.0565318 -0.02388054 -0.024
v -0.06253181 -0.02988054 -0.03
v 0.06253181 -0.02988054 -0.03
v -0.0565318 -0.02388054 -0.024
v -0.05653179 0.02272144 -0.024
v -0.06253179 0.01672144 -0.03
v -0.06253181 -0.02988054 -0.03
v -0.05653179 0.02272144 -0.024
v -0.18 0.02272144 -0.024
v -0.174 0.01672144 -0.03
v -0.06253179 0.01672144 -0.03
v -0.18 0.02272144 -0.024
v -0.18 -0.1422424 -0.024
v -0.174 -0.1362424 -0.03
v -0.174 0.01672144 -0.03
v -0.18 -0.1422424 -0.024
v 0.18 -0.1422424 -0.024
v 0.174 -0.1362424 -0.03
v -0.174 -0.1362424 -0.03
v 0.18 -0.1422424 -0.024
v 0.18 0.02272144 -0.024
v 0.174 0.01672144 -0.03
v 0.174 -0.1362424 -0.03
v 0.18 0.02272144 -0.024
v 0.05653179 0.02272144 -0.024
v 0.06253179 0.01672144 -0.03
v 0.174 0.01672144 -0.03
v 0.06253181 -0.02988054 -0.03
v 0.174 0.01672144 -0.03
v 0.06253179 0.01672144 -0.03
v 0.174 -0.1362424 -0.03
v -0.174 -0.1362424 -0.03
v -0.06253181 -0.02988054 -0.03
v -0.174 0.01672144 -0.03
v -0.06253179 0.01672144 -0.03
v 0.18 0.1373481 -0.024
v -0.18 0.1373481 -0.024
v -0.174 0.1313481 -0.03
v 0.174 0.1313481 -0.03
v -0.18 0.1373481 -0.024
v -0.18 0.04272145 -0.024
v -0.174 0.04872145 -0.03
v -0.174 0.1313481 -0.03
v -0.18 0.04272145 -0.024
v -0.05653178 0.04272144 -0.024
v -0.06253178 0.04872144 -0.03
v -0.174 0.04872145 -0.03
v -0.05653178 0.04272144 -0.024
v -0.05653176 0.08495955 -0.024
v -0.06253176 0.09095955 -0.03
v -0.06253178 0.04872144 -0.03
v -0.05653176 0.08495955 -0.024
v 0.05653176 0.08495955 -0.024
v 0.06253176 0.09095955 -0.03
v -0.06253176 0.09095955 -0.03
v 0.05653176 0.08495955 -0.024
v 0.05653178 0.04272144 -0.024
v 0.06253178 0.04872144 -0.03
v 0.06253176 0.09095955 -0.03
v 0.05653178 0.04272144 -0.024
v 0.18 0.04272145 -0.024
v 0.174 0.04872145 -0.03
v 0.06253178 0.04872144 -0.03
v 0.18 0.04272145 -0.024
v 0.18 0.1373481 -0.024
v 0.174 0.1313481 -0.03
v 0.174 0.04872145 -0.03
v -0.174 0.04872145 -0.03
v -0.06253178 0.04872144 -0.03
v -0.06253176 0.09095955 -0.03
v -0.174 0.1313481 -0.03
v 0.174 0.1313481 -0.03
v 0.06253176 0.09095955 -0.03
v 0.174 0.04872145 -0.03
v 0.06253178 0.04872144 -0.03
v 0.03653179 -0.003880538 -0.024
v 0.03653177 0.06495956 -0.024
v 0.03093512 0.0593629 -0.03
v 0.03093514 0.001716115 -0.03
v -0.03653177 0.06495956 -0.024
v -0.03653179 -0.003880538 -0.024
v -0.03093514 0.001716115 -0.03
v -0.03093512 0.0593629 -0.03
v -0.03093512 0.0593629 -0.03
v 0.03093512 0.0593629 -0.03
v 0.03653177 0.06495956 -0.024
v -0.03653177 0.06495956 -0.024
v -0.03653179 -0.003880538 -0.024
v 0.03653179 -0.003880538 -0.024
v 0.03093514 0.001716115 -0.03
v -0.03093514 0.001716115 -0.03
v -0.03093514 0.001716115 -0.03
v 0.03093514 0.001716115 -0.03
v 0.03093512 0.0593629 -0.03
v -0.03093512 0.0593629 -0.03
v 0.05653178 0.04272144 -0.024
v 0.05653176 0.08495955 -0.024
v 0.05653176 0.08495955 0.024
v 0.05653178 0.04272144 0.024
vt 0.7600837 0.1963387
vt 0.7600835 0.009996239
vt 0.6876404 0.009996239
vt 0.6876405 0.1963385
vt 0.7600838 0.6808149
vt 0.7600838 0.4944724
vt 0.6876405 0.4944724
vt 0.6876404 0.6808148
vt 0.7800676 0.2589561
vt 0.7800676 0.4452985
vt 0.8525109 0.4452985
vt 0.8525108 0.2589561
vt 0.780067 0.6787828
vt 0.7800671 0.7826785
vt 0.8525103 0.7826785
vt 0.8525103 0.6787828
vt 0.6436338 0.9866834
vt 0.8142731 0.9866834
vt 0.8142731 0.9142401
vt 0.6436338 0.9142401
vt 0.7800671 0.7826785
vt 0.7800671 0.8929487
vt 0.8525103 0.8929487
vt 0.8525103 0.7826785
vt 0.944938 0.4452984
vt 0.944938 0.258956
vt 0.8724948 0.2589561
vt 0.8724948 0.4452984
vt 0.5733004 0.9866834
vt 0.6436338 0.9866834
vt 0.6436338 0.9142401
vt 0.5733005 0.9142401
vt 0.5533168 0.8992564
vt 0.009992465 0.8992563
vt 0.009992465 0.9716996
vt 0.5533168 0.9716996
vt 0.8142731 0.9866834
vt 0.8846064 0.9866834
vt 0.8846064 0.9142401
vt 0.8142731 0.9142401
vt 0.7800676 0.009986972
vt 0.7800676 0.2589561
vt 0.8525108 0.2589561
vt 0.8525108 0.009987076
vt 0.5952117 0.009996003
vt 0.5952117 0.1528097
vt 0.6676549 0.1528097
vt 0.6676551 0.009996091
vt 0.944938 0.258956
vt 0.944938 0.009987017
vt 0.8724948 0.009987017
vt 0.8724948 0.2589561
vt 0.5952117 0.1528097
vt 0.5952115 0.696134
vt 0.6676548 0.696134
vt 0.6676549 0.1528097
vt 0.5952115 0.696134
vt 0.5952116 0.8389479
vt 0.6676551 0.8389479
vt 0.6676548 0.696134
vt 0.7600838 0.430725
vt 0.7600837 0.2600857
vt 0.6876405 0.2600857
vt 0.6876405 0.4307249
vt 0.780067 0.5685127
vt 0.780067 0.6787828
vt 0.8525103 0.6787828
vt 0.8525103 0.5685127
vt 0.7800668 0.4646167
vt 0.780067 0.5685127
vt 0.8525103 0.5685127
vt 0.8525103 0.4646167
vt 0.376028 0.5400459
vt 0.3853132 0.5307606
vt 0.3853132 0.4586426
vt 0.376028 0.4679278
vt 0.376028 0.4679278
vt 0.3853132 0.4586426
vt 0.1917734 0.4586426
vt 0.2010586 0.4679278
vt 0.2010586 0.4679278
vt 0.1917734 0.4586426
vt 0.1917734 0.5307606
vt 0.2010586 0.5400459
vt 0.2010586 0.5400459
vt 0.1917734 0.5307606
vt 0.01927298 0.5307606
vt 0.0099878 0.5400459
vt 0.0099878 0.5400459
vt 0.01927298 0.5307606
vt 0.01927298 0.2940442
vt 0.0099878 0.2847591
vt 0.0099878 0.2847591
vt 0.01927298 0.2940442
vt 0.5578137 0.2940442
vt 0.5670989 0.2847591
vt 0.5670989 0.2847591
vt 0.5578137 0.2940442
vt 0.5578137 0.5307606
vt 0.5670989 0.5400459
vt 0.5670989 0.5400459
vt 0.5578137 0.5307606
vt 0.3853132 0.5307606
vt 0.376028 0.5400459
vt 0.3853132 0.4586426
vt 0.3853132 0.5307606
vt 0.5578137 0.5307606
vt 0.5578137 0.2940442
vt 0.01927298 0.2940442
vt 0.1917734 0.4586426
vt 0.01927298 0.5307606
vt 0.1917734 0.5307606
vt 0.5752279 0.7081079
vt 0.5658072 0.6986873
vt 0.01941318 0.6986872
vt 0.009992554 0.7081079
vt 0.009992554 0.7081079
vt 0.01941318 0.6986872
vt 0.01941318 0.5689553
vt 0.009992554 0.5595347
vt 0.009992554 0.5595347
vt 0.01941318 0.5689553
vt 0.1944291 0.5689553
vt 0.2038497 0.5595347
vt 0.2038497 0.5595347
vt 0.1944291 0.5689553
vt 0.1944292 0.6352733
vt 0.2038497 0.6258526
vt 0.2038497 0.6258526
vt 0.1944292 0.6352733
vt 0.3907911 0.6352733
vt 0.3813706 0.6258526
vt 0.3813706 0.6258526
vt 0.3907911 0.6352733
vt 0.3907912 0.5689553
vt 0.3813706 0.5595348
vt 0.3813706 0.5595348
vt 0.3907912 0.5689553
vt 0.5658072 0.5689553
vt 0.5752279 0.5595347
vt 0.5752279 0.5595347
vt 0.5658072 0.5689553
vt 0.5658072 0.6986873
vt 0.5752279 0.7081079
vt 0.01941318 0.5689553
vt 0.1944292 0.6352733
vt 0.1944291 0.5689553
vt 0.01941318 0.6986872
vt 0.5658072 0.6986873
vt 0.3907911 0.6352733
vt 0.5658072 0.5689553
vt 0.3907912 0.5689553
vt 0.3413461 0.4895894
vt 0.332345 0.4985904
vt 0.332345 0.5913032
vt 0.341346 0.6003041
vt 0.2238389 0.6003041
vt 0.2328399 0.5913032
vt 0.2328398 0.4985904
vt 0.2238388 0.4895894
vt 0.332345 0.4985904
vt 0.3413461 0.4895894
vt 0.2238388 0.4895894
vt 0.2328398 0.4985904
vt 0.332345 0.4985904
vt 0.2328398 0.4985904
vt 0.2328399 0.5913032
vt 0.332345 0.5913032
vt 0.7600837 0.2600857
vt 0.7600837 0.1963387
vt 0.6876405 0.1963385
vt 0.6876405 0.2600857
vt 0.332345 0.5913032
vt 0.2328399 0.5913032
vt 0.2238389 0.6003041
vt 0.341346 0.6003041
vt 0.2010585 0.2652813
vt 0.2010585 0.1931633
vt 0.1917733 0.1838781
vt 0.1917734 0.2559961
vt 0.2010585 0.1931633
vt 0.376028 0.1931633
vt 0.3853132 0.1838781
vt 0.1917733 0.1838781
vt 0.376028 0.1931633
vt 0.376028 0.2652813
vt 0.3853132 0.2559961
vt 0.3853132 0.1838781
vt 0.376028 0.2652813
vt 0.5670989 0.2652813
vt 0.5578136 0.2559961
vt 0.3853132 0.2559961
vt 0.5670989 0.2652813
vt 0.5670989 0.009994581
vt 0.5578136 0.01927973
vt 0.5578136 0.2559961
vt 0.5670989 0.009994581
vt 0.009987652 0.009994581
vt 0.01927286 0.01927973
vt 0.5578136 0.01927973
vt 0.009987652 0.009994581
vt 0.009987652 0.2652813
vt 0.01927286 0.2559961
vt 0.01927286 0.01927973
vt 0.009987652 0.2652813
vt 0.2010585 0.2652813
vt 0.1917734 0.2559961
vt 0.01927286 0.2559961
vt 0.1917733 0.1838781
vt 0.01927286 0.2559961
vt 0.1917734 0.2559961
vt 0.01927286 0.01927973
vt 0.5578136 0.01927973
vt 0.3853132 0.1838781
vt 0.5578136 0.2559961
vt 0.3853132 0.2559961
vt 0.009992361 0.8779631
vt 0.575228 0.8779631
vt 0.5658074 0.8685425
vt 0.01941311 0.8685425
vt 0.575228 0.8779631
vt 0.575228 0.72939
vt 0.5658074 0.7388105
vt 0.5658074 0.8685425
vt 0.575228 0.72939
vt 0.3813707 0.72939
vt 0.3907913 0.7388105
vt 0.5658074 0.7388105
vt 0.3813707 0.72939
vt 0.3813707 0.7957081
vt 0.3907913 0.8051286
vt 0.3907913 0.7388105
vt 0.3813707 0.7957081
vt 0.2038497 0.7957081
vt 0.1944292 0.8051286
vt 0.3907913 0.8051286
vt 0.2038497 0.7957081
vt 0.2038497 0.72939
vt 0.1944292 0.7388105
vt 0.1944292 0.8051286
vt 0.2038497 0.72939
vt 0.009992361 0.72939
vt 0.01941311 0.7388105
vt 0.1944292 0.7388105
vt 0.009992361 0.72939
vt 0.009992361 0.8779631
vt 0.01941311 0.8685425
vt 0.01941311 0.7388105
vt 0.5658074 0.7388105
vt 0.3907913 0.7388105
vt 0.3907913 0.8051286
vt 0.5658074 0.8685425
vt 0.01941311 0.8685425
vt 0.1944292 0.8051286
vt 0.01941311 0.7388105
vt 0.1944292 0.7388105
vt 0.8725007 0.6194811
vt 0.8725007 0.7301959
vt 0.8815019 0.7211949
vt 0.8815019 0.6284822
vt 0.9900079 0.7301959
vt 0.990008 0.6194811
vt 0.9810069 0.6284822
vt 0.9810069 0.7211949
vt 0.9810069 0.7211949
vt 0.8815019 0.7211949
vt 0.8725007 0.7301959
vt 0.9900079 0.7301959
vt 0.990008 0.6194811
vt 0.8725007 0.6194811
vt 0.8815019 0.6284822
vt 0.9810069 0.6284822
vt 0.9810069 0.6284822
vt 0.8815019 0.6284822
vt 0.8815019 0.7211949
vt 0.9810069 0.7211949
vt 0.7600838 0.4944724
vt 0.7600838 0.430725
vt 0.6876405 0.4307249
vt 0.6876405 0.4944724
vn 0 -1 0
vn 0 -1 0
vn 0 -1 0
vn 0 -1 0
vn 0 -1 0
vn 0 -1 0
vn 0 -1 0
vn 0 -1 0
vn 0 1 0
vn 0 1 0
vn 0 1 0
vn 0 1 0
vn 1 0 0
vn 1 0 0
vn 1 0 0
vn 1 0 0
vn 0 1 0
vn 0 1 0
vn 0 1 0
vn 0 1 0
vn 0 -1 0
vn 0 -1 0
vn 0 -1 0
vn 0 -1 0
vn 0 1 0
vn 0 1 0
vn 0 1 0
vn 0 1 0
vn 1 0 0
vn 1 0 0
vn 1 0 0
vn 1 0 0
vn 0 -1 0
vn 0 -1 0
vn 0 -1 0
vn 0 -1 0
vn -1 0 0
vn -1 0 0
vn -1 0 0
vn -1 0 0
vn -1 0 0
vn -1 0 0
vn -1 0 0
vn -1 0 0
vn -1 0 0
vn -1 0 0
vn -1 0 0
vn -1 0 0
vn 1 0 0
vn 1 0 0
vn 1 0 0
vn 1 0 0
vn 0 1 0
vn 0 1 0
vn 0 1 0
vn 0 1 0
vn 1 0 0
vn 1 0 0
vn 1 0 0
vn 1 0 0
vn 0 -1 0
vn 0 -1 0
vn 0 -1 0
vn 0 -1 0
vn 0 1 0
vn 0 1 0
vn 0 1 0
vn 0 1 0
vn -1 0 0
vn -1 0 0
vn -1 0 0
vn -1 0 0
vn -0.7071064 0 0.7071071
vn -0.7071064 0 0.7071071
vn -0.7071064 0 0.7071071
vn -0.7071064 0 0.7071071
vn 0 0.7071066 0.7071069
vn 0 0.7071066 0.7071069
vn 0 0.7071066 0.7071069
vn 0 0.7071066 0.7071069
vn 0.7071064 0 0.7071071
vn 0.7071064 0 0.7071071
vn 0.7071064 0 0.7071071
vn 0.7071064 0 0.7071071
vn 0 0.7071065 0.7071069
vn 0 0.7071065 0.7071069
vn 0 0.7071065 0.7071069
vn 0 0.7071065 0.7071069
vn -0.7071071 0 0.7071065
vn -0.7071071 0 0.7071065
vn -0.7071071 0 0.7071065
vn -0.7071071 0 0.7071065
vn 0 -0.7071068 0.7071066
vn 0 -0.7071068 0.7071066
vn 0 -0.7071068 0.7071066
vn 0 -0.7071068 0.7071066
vn 0.7071071 0 0.7071065
vn 0.7071071 0 0.7071065
vn 0.7071071 0 0.7071065
vn 0.7071071 0 0.7071065
vn 0 0.7071065 0.7071069
vn 0 0.7071065 0.7071069
vn 0 0.7071065 0.7071069
vn 0 0.7071065 0.7071069
vn 0 0 1
vn 0 0 1
vn 0 0 1
vn 0 0 1
vn 0 0 1
vn 0 0 1
vn 0 0 1
vn 0 0 1
vn 0 0.7071068 0.7071066
vn 0 0.7071068 0.7071066
vn 0 0.7071068 0.7071066
vn 0 0.7071068 0.7071066
vn -0.7071078 0 0.7071057
vn -0.7071078 0 0.7071057
vn -0.7071078 0 0.7071057
vn -0.7071078 0 0.7071057
vn 0 -0.7071065 0.707107
vn 0 -0.7071065 0.707107
vn 0 -0.7071065 0.707107
vn 0 -0.7071065 0.707107
vn 0.7071069 0 0.7071065
vn 0.7071069 0 0.7071065
vn 0.7071069 0 0.7071065
vn 0.7071069 0 0.7071065
vn 0 -0.7071069 0.7071065
vn 0 -0.7071069 0.7071065
vn 0 -0.7071069 0.7071065
vn 0 -0.7071069 0.7071065
vn -0.7071066 0 0.7071069
vn -0.7071066 0 0.7071069
vn -0.7071066 0 0.7071069
vn -0.7071066 0 0.7071069
vn 0 -0.7071065 0.707107
vn 0 -0.7071065 0.707107
vn 0 -0.7071065 0.707107
vn 0 -0.7071065 0.707107
vn 0.7071072 0 0.7071063
vn 0.7071072 0 0.7071063
vn 0.7071072 0 0.7071063
vn 0.7071072 0 0.7071063
vn 0 0 1
vn 0 0 1
vn 0 0 1
vn 0 0 1
vn 0 0 1
vn 0 0 1
vn 0 0 1
vn 0 0 1
vn 0.7312589 0 0.6821001
vn 0.7312589 0 0.6821001
vn 0.7312589 0 0.6821001
vn 0.7312589 0 0.6821001
vn -0.7312589 0 0.6821001
vn -0.7312589 0 0.6821001
vn -0.7312589 0 0.6821001
vn -0.7312589 0 0.6821001
vn 0 -0.7312586 0.6821003
vn 0 -0.7312586 0.6821003
vn 0 -0.7312586 0.6821003
vn 0 -0.7312586 0.6821003
vn 0 0 1
vn 0 0 1
vn 0 0 1
vn 0 0 1
vn 1 0 0
vn 1 0 0
vn 1 0 0
vn 1 0 0
vn 0 0.7312587 0.6821001
vn 0 0.7312587 0.6821001
vn 0 0.7312587 0.6821001
vn 0 0.7312587 0.6821001
vn -0.7071064 0 -0.7071071
vn -0.7071064 0 -0.7071071
vn -0.7071064 0 -0.7071071
vn -0.7071064 0 -0.7071071
vn 0 0.7071066 -0.7071069
vn 0 0.7071066 -0.7071069
vn 0 0.7071066 -0.7071069
vn 0 0.7071066 -0.7071069
vn 0.7071065 0 -0.7071071
vn 0.7071065 0 -0.7071071
vn 0.7071065 0 -0.7071071
vn 0.7071065 0 -0.7071071
vn 0 0.7071066 -0.7071069
vn 0 0.7071066 -0.7071069
vn 0 0.7071066 -0.7071069
vn 0 0.7071066 -0.7071069
vn -0.7071068 0 -0.7071067
vn -0.7071068 0 -0.7071067
vn -0.7071068 0 -0.7071067
vn -0.7071068 0 -0.7071067
vn 0 -0.7071068 -0.7071066
vn 0 -0.7071068 -0.7071066
vn 0 -0.7071068 -0.7071066
vn 0 -0.7071068 -0.7071066
vn 0.707107 0 -0.7071065
vn 0.707107 0 -0.7071065
vn 0.707107 0 -0.7071065
vn 0.707107 0 -0.7071065
vn 0 0.7071066 -0.7071069
vn 0 0.7071066 -0.7071069
vn 0 0.7071066 -0.7071069
vn 0 0.7071066 -0.7071069
vn 0 0 -1
vn 0 0 -1
vn 0 0 -1
vn 0 0 -1
vn 0 0 -1
vn 0 0 -1
vn 0 0 -1
vn 0 0 -1
vn 0 0.7071068 -0.7071066
vn 0 0.7071068 -0.7071066
vn 0 0.7071068 -0.7071066
vn 0 0.7071068 -0.7071066
vn -0.7071077 0 -0.7071058
vn -0.7071077 0 -0.7071058
vn -0.7071077 0 -0.7071058
vn -0.7071077 0 -0.7071058
vn 0 -0.7071066 -0.7071069
vn 0 -0.7071066 -0.7071069
vn 0 -0.7071066 -0.7071069
vn 0 -0.7071066 -0.7071069
vn 0.707107 0 -0.7071065
vn 0.707107 0 -0.7071065
vn 0.707107 0 -0.7071065
vn 0.707107 0 -0.7071065
vn 0 -0.7071069 -0.7071066
vn 0 -0.7071069 -0.7071066
vn 0 -0.7071069 -0.7071066
vn 0 -0.7071069 -0.7071066
vn -0.7071068 0 -0.7071067
vn -0.7071068 0 -0.7071067
vn -0.7071068 0 -0.7071067
vn -0.7071068 0 -0.7071067
vn 0 -0.7071066 -0.7071069
vn 0 -0.7071066 -0.7071069
vn 0 -0.7071066 -0.7071069
vn 0 -0.7071066 -0.7071069
vn 0.7071074 0 -0.7071061
vn 0.7071074 0 -0.7071061
vn 0.7071074 0 -0.7071061
vn 0.7071074 0 -0.7071061
vn 0 0 -1
vn 0 0 -1
vn 0 0 -1
vn 0 0 -1
vn 0 0 -1
vn 0 0 -1
vn 0 0 -1
vn 0 0 -1
vn 0.7312589 0 -0.6821001
vn 0.7312589 0 -0.6821001
vn 0.7312589 0 -0.6821001
vn 0.7312589 0 -0.6821001
vn -0.7312589 0 -0.6821
vn -0.7312589 0 -0.6821
vn -0.7312589 0 -0.6821
vn -0.7312589 0 -0.6821
vn 0 0.7312587 -0.6821001
vn 0 0.7312587 -0.6821001
vn 0 0.7312587 -0.6821001
vn 0 0.7312587 -0.6821001
vn 0 -0.7312586 -0.6821003
vn 0 -0.7312586 -0.6821003
vn 0 -0.7312586 -0.6821003
vn 0 -0.7312586 -0.6821003
vn 0 0 -1
vn 0 0 -1
vn 0 0 -1
vn 0 0 -1
vn -1 0 0
vn -1 0 0
vn -1 0 0
vn -1 0 0
g chest_V2_L0_0
f 3/3/3 2/2/2 1/1/1
f 4/4/4 3/3/3 1/1/1
f 7/7/7 6/6/6 5/5/5
f 8/8/8 7/7/7 5/5/5
f 11/11/11 10/10/10 9/9/9
f 12/12/12 11/11/11 9/9/9
f 15/15/15 14/14/14 13/13/13
f 16/16/16 15/15/15 13/13/13
f 19/19/19 18/18/18 17/17/17
f 20/20/20 19/19/19 17/17/17
f 23/23/23 22/22/22 21/21/21
f 24/24/24 23/23/23 21/21/21
f 27/27/27 26/26/26 25/25/25
f 28/28/28 27/27/27 25/25/25
f 31/31/31 30/30/30 29/29/29
f 32/32/32 31/31/31 29/29/29
f 35/35/35 34/34/34 33/33/33
f 36/36/36 35/35/35 33/33/33
f 39/39/39 38/38/38 37/37/37
f 40/40/40 39/39/39 37/37/37
f 43/43/43 42/42/42 41/41/41
f 44/44/44 43/43/43 41/41/41
f 47/47/47 46/46/46 45/45/45
f 48/48/48 47/47/47 45/45/45
f 51/51/51 50/50/50 49/49/49
f 52/52/52 51/51/51 49/49/49
f 55/55/55 54/54/54 53/53/53
f 56/56/56 55/55/55 53/53/53
f 59/59/59 58/58/58 57/57/57
f 60/60/60 59/59/59 57/57/57
f 63/63/63 62/62/62 61/61/61
f 64/64/64 63/63/63 61/61/61
f 67/67/67 66/66/66 65/65/65
f 68/68/68 67/67/67 65/65/65
f 71/71/71 70/70/70 69/69/69
f 72/72/72 71/71/71 69/69/69
f 75/75/75 74/74/74 73/73/73
f 76/76/76 75/75/75 73/73/73
f 79/79/79 78/78/78 77/77/77
f 80/80/80 79/79/79 77/77/77
f 83/83/83 82/82/82 81/81/81
f 84/84/84 83/83/83 81/81/81
f 87/87/87 86/86/86 85/85/85
f 88/88/88 87/87/87 85/85/85
f 91/91/91 90/90/90 89/89/89
f 92/92/92 91/91/91 89/89/89
f 95/95/95 94/94/94 93/93/93
f 96/96/96 95/95/95 93/93/93
f 99/99/99 98/98/98 97/97/97
f 100/100/100 99/99/99 97/97/97
f 103/103/103 102/102/102 101/101/101
f 104/104/104 103/103/103 101/101/101
f 107/107/107 106/106/106 105/105/105
f 108/108/108 107/107/107 105/105/105
f 109/109/109 108/108/108 105/105/105
f 110/110/110 109/109/109 105/105/105
f 111/111/111 109/109/109 110/110/110
f 112/112/112 111/111/111 110/110/110
f 115/115/115 114/114/114 113/113/113
f 116/116/116 115/115/115 113/113/113
f 119/119/119 118/118/118 117/117/117
f 120/120/120 119/119/119 117/117/117
f 123/123/123 122/122/122 121/121/121
f 124/124/124 123/123/123 121/121/121
f 127/127/127 126/126/126 125/125/125
f 128/128/128 127/127/127 125/125/125
f 131/131/131 130/130/130 129/129/129
f 132/132/132 131/131/131 129/129/129
f 135/135/135 134/134/134 133/133/133
f 136/136/136 135/135/135 133/133/133
f 139/139/139 138/138/138 137/137/137
f 140/140/140 139/139/139 137/137/137
f 143/143/143 142/142/142 141/141/141
f 144/144/144 143/143/143 141/141/141
f 147/147/147 146/146/146 145/145/145
f 146/146/146 148/148/148 145/145/145
f 148/148/148 146/146/146 149/149/149
f 146/146/146 150/150/150 149/149/149
f 151/151/151 149/149/149 150/150/150
f 152/152/152 151/151/151 150/150/150
f 155/155/155 154/154/154 153/153/153
f 156/156/156 155/155/155 153/153/153
f 159/159/159 158/158/158 157/157/157
f 160/160/160 159/159/159 157/157/157
f 163/163/163 162/162/162 161/161/161
f 164/164/164 163/163/163 161/161/161
f 167/167/167 166/166/166 165/165/165
f 168/168/168 167/167/167 165/165/165
f 171/171/171 170/170/170 169/169/169
f 172/172/172 171/171/171 169/169/169
f 175/175/175 174/174/174 173/173/173
f 176/176/176 175/175/175 173/173/173
f 179/179/179 178/178/178 177/177/177
f 180/180/180 179/179/179 177/177/177
f 183/183/183 182/182/182 181/181/181
f 184/184/184 183/183/183 181/181/181
f 187/187/187 186/186/186 185/185/185
f 188/188/188 187/187/187 185/185/185
f 191/191/191 190/190/190 189/189/189
f 192/192/192 191/191/191 189/189/189
f 195/195/195 194/194/194 193/193/193
f 196/196/196 195/195/195 193/193/193
f 199/199/199 198/198/198 197/197/197
f 200/200/200 199/199/199 197/197/197
f 203/203/203 202/202/202 201/201/201
f 204/204/204 203/203/203 201/201/201
f 207/207/207 206/206/206 205/205/205
f 208/208/208 207/207/207 205/205/205
f 211/211/211 210/210/210 209/209/209
f 210/210/210 212/212/212 209/209/209
f 212/212/212 213/213/213 209/209/209
f 213/213/213 214/214/214 209/209/209
f 213/213/213 215/215/215 214/214/214
f 215/215/215 216/216/216 214/214/214
f 219/219/219 218/218/218 217/217/217
f 220/220/220 219/219/219 217/217/217
f 223/223/223 222/222/222 221/221/221
f 224/224/224 223/223/223 221/221/221
f 227/227/227 226/226/226 225/225/225
f 228/228/228 227/227/227 225/225/225
f 231/231/231 230/230/230 229/229/229
f 232/232/232 231/231/231 229/229/229
f 235/235/235 234/234/234 233/233/233
f 236/236/236 235/235/235 233/233/233
f 239/239/239 238/238/238 237/237/237
f 240/240/240 239/239/239 237/237/237
f 243/243/243 242/242/242 241/241/241
f 244/244/244 243/243/243 241/241/241
f 247/247/247 246/246/246 245/245/245
f 248/248/248 247/247/247 245/245/245
f 251/251/251 250/250/250 249/249/249
f 252/252/252 251/251/251 249/249/249
f 251/251/251 252/252/252 253/253/253
f 254/254/254 251/251/251 253/253/253
f 253/253/253 255/255/255 254/254/254
f 255/255/255 256/256/256 254/254/254
f 259/259/259 258/258/258 257/257/257
f 260/260/260 259/259/259 257/257/257
f 263/263/263 262/262/262 261/261/261
f 264/264/264 263/263/263 261/261/261
f 267/267/267 266/266/266 265/265/265
f 268/268/268 267/267/267 265/265/265
f 271/271/271 270/270/270 269/269/269
f 272/272/272 271/271/271 269/269/269
f 275/275/275 274/274/274 273/273/273
f 276/276/276 275/275/275 273/273/273
f 279/279/279 278/278/278 277/277/277
f 280/280/280 279/279/279 277/277/277
