g Column02
v -0.08118406 9.77567E-08 0.6000263
v -0.08118406 -1.322656E-08 -0.08118406
v -0.07030751 0.04059194 -0.08118407
v -0.07030751 0.04059205 0.6000263
v -0.09019411 0.05207359 0.602236
v -0.1041471 1.693264E-08 0.602236
v -0.04059211 0.07030741 -0.08118407
v -0.1074137 1.771325E-08 0.6070274
v -0.04059211 0.07030752 0.6000263
v 0 0.08118405 -0.08118407
v 0 0.08118416 0.6000263
v 0.04059203 0.07030741 -0.08118407
v -0.05207365 0.09019412 0.602236
v 0.04059203 0.07030752 0.6000263
v 0.07030743 0.04059202 -0.08118407
v 0.07030743 0.04059213 0.6000263
v 0.09019411 0.05207367 0.602236
v 0.08118406 -1.322656E-08 -0.08118406
v 0.08118406 9.77567E-08 0.6000263
v 0.07030743 -0.04059204 -0.08118405
v 0.05207357 0.09019421 0.602236
v 0 0.1041472 0.602236
v 0.05370683 0.09302307 0.6070274
v 0 0.1074138 0.6070274
v -0.05370691 0.09302299 0.6070274
v 0.07030743 -0.04059193 0.6000263
v 0.04059203 -0.07030744 -0.08118405
v -0.09302297 0.05370685 0.6070274
v -0.09302297 0.05370691 1.016663
v -0.1074137 8.445139E-08 1.016663
v -0.1031538 8.512176E-08 1.020778
v -0.05370691 0.09302305 1.016663
v 0 0.1074138 1.016663
v -0.0893338 0.05157705 1.020778
v 0.04059203 -0.07030733 0.6000263
v 0.05207357 -0.09019401 0.602236
v 0 -0.08118407 -0.08118405
v 0 -0.08118396 0.6000263
v -0.04059203 -0.07030752 -0.08118405
v 0.05370683 0.09302314 1.016663
v -0.07275067 0.04200269 1.021424
v -0.08400521 1.664111E-07 1.021424
v -0.07275067 0.04200271 1.145302
v -0.08400521 1.865933E-07 1.145302
v -0.0420026 0.07275076 1.145302
v -0.0420026 0.07275074 1.021424
v 0 0.08400539 1.145302
v -0.04059203 -0.07030733 0.6000263
v -0.07030743 -0.04059204 -0.08118405
v -0.05157696 0.08933397 1.020778
v 0 0.08400537 1.021424
v 0.0420026 0.07275085 1.145302
v 0 0.1031539 1.020778
v 0.0420026 0.07275083 1.021424
v 0.07275067 0.04200279 1.145302
v 0.05157689 0.08933397 1.020778
v 0.07275067 0.04200277 1.021424
v 0.08400521 1.865933E-07 1.145302
v 0.0893338 0.05157705 1.020778
v 0.08400521 1.664111E-07 1.021424
v 0.07275067 -0.04200241 1.145302
v 0.09302297 0.053707 1.016663
v 0.1031538 1.663058E-07 1.020778
v 0.07275067 -0.04200244 1.021424
v 0.0420026 -0.07275048 1.145302
v 0.09302297 0.05370693 0.6070274
v 0.1074137 1.656355E-07 1.016663
v 0.0893338 -0.05157672 1.020778
v 0.0420026 -0.0727505 1.021424
v 0 -0.08400502 1.145302
v 0.1074137 9.889731E-08 0.6070274
v 0.09302297 -0.05370666 1.016663
v 0.1041471 9.811671E-08 0.602236
v 0.09302297 -0.05370673 0.6070274
v 0.09019411 -0.05207347 0.602236
v 0.05157689 -0.08933364 1.020778
v 0 -0.08400504 1.021424
v -0.0420026 -0.07275048 1.145302
v 0.05370683 -0.09302281 1.016663
v 0 -0.1031536 1.020778
v -0.0420026 -0.0727505 1.021424
v -0.07275058 -0.04200241 1.145302
v 0.05370683 -0.09302287 0.6070274
v 0 -0.1074135 1.016663
v 0 -0.1074136 0.6070274
v -0.05157689 -0.08933364 1.020778
v -0.07275058 -0.04200244 1.021424
v -0.08400521 1.865933E-07 1.145302
v -0.08400521 1.664111E-07 1.021424
v -0.1031538 8.512176E-08 1.020778
v -0.0893338 -0.0515768 1.020778
v -0.05370683 -0.09302281 1.016663
v -0.09302297 -0.05370666 1.016663
v -0.1074137 8.445139E-08 1.016663
v 0 -0.104147 0.602236
v -0.05370683 -0.09302287 0.6070274
v -0.09302297 -0.05370673 0.6070274
v -0.1074137 1.771325E-08 0.6070274
v -0.1041471 1.693264E-08 0.602236
v -0.05207357 -0.09019401 0.602236
v -0.09019402 -0.05207347 0.602236
v -0.07030743 -0.04059193 0.6000263
v -0.08118406 9.77567E-08 0.6000263
v -0.08118406 -1.322656E-08 -0.08118406
v -0.04059211 0.07030741 -0.08118407
v 0.04059203 0.07030741 -0.08118407
v 0 0.08118405 -0.08118407
v 0.08118406 -1.322656E-08 -0.08118406
v 0.07030743 0.04059202 -0.08118407
v 0.04059203 -0.07030744 -0.08118405
v 0.07030743 -0.04059204 -0.08118405
v -0.04059203 -0.07030752 -0.08118405
v 0 -0.08118407 -0.08118405
v -0.07030743 -0.04059204 -0.08118405
v -0.08118406 -1.322656E-08 -0.08118406
v -0.07030751 0.04059194 -0.08118407
v 0.07275067 0.04200279 1.145302
v 0 0.08400539 1.145302
v 0.0420026 0.07275085 1.145302
v -0.0420026 0.07275076 1.145302
v -0.07275067 0.04200271 1.145302
v -0.07275058 -0.04200241 1.145302
v -0.08400521 1.865933E-07 1.145302
v 0 -0.08400502 1.145302
v -0.0420026 -0.07275048 1.145302
v 0.08400521 1.865933E-07 1.145302
v 0.07275067 -0.04200241 1.145302
v 0.0420026 -0.07275048 1.145302
vt 0.4991073 0.4477969
vt 0.4991073 0.276701
vt 0.486665 0.276701
vt 0.486665 0.4477969
vt 0.486665 0.4533958
vt 0.4991073 0.4533958
vt 0.4742227 0.276701
vt 0.4991073 0.4548365
vt 0.4742227 0.4477969
vt 0.4617803 0.276701
vt 0.4617803 0.4477969
vt 0.449337 0.276701
vt 0.4742227 0.4533958
vt 0.449337 0.4477969
vt 0.4368946 0.276701
vt 0.4368946 0.4477969
vt 0.4368946 0.4533958
vt 0.4244523 0.276701
vt 0.4244523 0.4477969
vt 0.41201 0.276701
vt 0.449337 0.4533958
vt 0.4617803 0.4533958
vt 0.449337 0.4548365
vt 0.4617803 0.4548365
vt 0.4742227 0.4548365
vt 0.41201 0.4477969
vt 0.3995676 0.276701
vt 0.486665 0.4548365
vt 0.486665 0.557723
vt 0.4991073 0.557723
vt 0.4991073 0.559185
vt 0.4742227 0.557723
vt 0.4617803 0.557723
vt 0.486665 0.559185
vt 0.3995676 0.4477969
vt 0.3995676 0.4533958
vt 0.3871252 0.276701
vt 0.3871252 0.4477969
vt 0.3746829 0.276701
vt 0.449337 0.557723
vt 0.486665 0.563833
vt 0.4991073 0.563833
vt 0.486665 0.5949469
vt 0.4991073 0.5949469
vt 0.4742227 0.5949469
vt 0.4742227 0.563833
vt 0.4617803 0.5949469
vt 0.3746829 0.4477969
vt 0.3622406 0.276701
vt 0.4742227 0.559185
vt 0.4617803 0.563833
vt 0.449337 0.5949469
vt 0.4617803 0.559185
vt 0.449337 0.563833
vt 0.4368946 0.5949469
vt 0.449337 0.559185
vt 0.4368946 0.563833
vt 0.4244523 0.5949469
vt 0.4368946 0.559185
vt 0.4244523 0.563833
vt 0.41201 0.5949469
vt 0.4368946 0.557723
vt 0.4244523 0.559185
vt 0.41201 0.563833
vt 0.3995676 0.5949469
vt 0.4368946 0.4548365
vt 0.4244523 0.557723
vt 0.41201 0.559185
vt 0.3995676 0.563833
vt 0.3871252 0.5949469
vt 0.4244523 0.4548365
vt 0.41201 0.557723
vt 0.4244523 0.4533958
vt 0.41201 0.4548365
vt 0.41201 0.4533958
vt 0.3995676 0.559185
vt 0.3871252 0.563833
vt 0.3746829 0.5949469
vt 0.3995676 0.557723
vt 0.3871252 0.559185
vt 0.3746829 0.563833
vt 0.3622406 0.5949469
vt 0.3995676 0.4548365
vt 0.3871252 0.557723
vt 0.3871252 0.4548365
vt 0.3746829 0.559185
vt 0.3622406 0.563833
vt 0.3497982 0.5949469
vt 0.3497982 0.563833
vt 0.3497982 0.559185
vt 0.3622406 0.559185
vt 0.3746829 0.557723
vt 0.3622406 0.557723
vt 0.3497982 0.557723
vt 0.3871252 0.4533958
vt 0.3746829 0.4548365
vt 0.3622406 0.4548365
vt 0.3497982 0.4548365
vt 0.3497982 0.4533958
vt 0.3746829 0.4533958
vt 0.3622406 0.4533958
vt 0.3622406 0.4477969
vt 0.3497982 0.4477969
vt 0.3497982 0.276701
vt 0.6429995 0.651404
vt 0.6375731 0.6311551
vt 0.6375731 0.6420062
vt 0.6523955 0.6163309
vt 0.6429977 0.6217573
vt 0.6726444 0.6217556
vt 0.6632466 0.6163309
vt 0.6780708 0.6420045
vt 0.6780708 0.6311535
vt 0.6726462 0.6514024
vt 0.6632484 0.6568287
vt 0.6523973 0.6568287
vt 0.8361249 0.2482426
vt 0.8417391 0.2691957
vt 0.8417391 0.2579674
vt 0.8361249 0.2789195
vt 0.8264002 0.2845336
vt 0.8054481 0.2789195
vt 0.8151718 0.2845336
vt 0.799834 0.2579674
vt 0.799834 0.2691957
vt 0.8264002 0.2426285
vt 0.8151718 0.2426285
vt 0.8054481 0.2482426
vn -0.6805505 0 -0.7327011
vn -1 0 0
vn -0.8660259 0.4999992 0
vn -0.589375 0.3402749 -0.7327005
vn -0.4830192 0.2788699 -0.8300144
vn -0.5577429 0 -0.8300138
vn -0.5000007 0.866025 0
vn -0.9594438 0 -0.2819001
vn -0.3402764 0.5893739 -0.7327008
vn 0 1 0
vn 0 0.6805508 -0.7327009
vn 0.5000004 0.8660253 0
vn -0.2788691 0.4830183 -0.8300152
vn 0.3402757 0.5893744 -0.7327008
vn 0.8660253 0.5000003 0
vn 0.5893745 0.3402757 -0.7327005
vn 0.4830173 0.2788712 -0.8300152
vn 1 0 0
vn 0.6805514 0 -0.7327003
vn 0.8660253 -0.5000004 0
vn 0.2788721 0.4830177 -0.8300146
vn -1.247458E-06 0.5577397 -0.830016
vn 0.4797228 0.8309017 -0.2819011
vn -1.158148E-06 0.9594429 -0.281903
vn -0.4797209 0.8309024 -0.2819026
vn 0.589375 -0.3402756 -0.7327002
vn 0.5000004 -0.8660253 0
vn -0.8309028 0.4797211 -0.2819013
vn -0.8048292 0.4646634 0.3692396
vn -0.9293324 0 0.3692442
vn -0.4385142 0 0.8987243
vn -0.4646688 0.8048253 0.3692412
vn 0 0.929332 0.3692453
vn -0.3797684 0.2192569 0.8987226
vn 0.3402745 -0.5893746 -0.7327011
vn 0.2788703 -0.4830179 -0.8300151
vn 0 -1 0
vn 0 -0.6805508 -0.7327009
vn -0.5000001 -0.8660254 0
vn 0.4646658 0.8048252 0.3692453
vn -0.5655345 0.3265123 0.7573378
vn -0.6530269 0 0.7573348
vn -0.8660254 0.5000001 0
vn -1 0 0
vn -0.5000005 0.8660251 0
vn -0.3265112 0.5655356 0.7573373
vn 0 1 0
vn -0.3402757 -0.5893743 -0.7327006
vn -0.8660255 -0.4999997 0
vn -0.2192582 0.3797664 0.8987231
vn -1.285998E-06 0.653024 0.7573372
vn 0.5000001 0.8660253 0
vn 0 0.438512 0.8987253
vn 0.3265133 0.5655353 0.7573367
vn 0.8660258 0.4999994 0
vn 0.2192561 0.3797629 0.8987252
vn 0.5655334 0.3265125 0.7573385
vn 1 0 0
vn 0.3797598 0.2192561 0.8987264
vn 0.6530272 0 0.7573344
vn 0.8660257 -0.4999995 0
vn 0.8048249 0.4646658 0.3692459
vn 0.4385116 0 0.8987255
vn 0.5655357 -0.3265117 0.757337
vn 0.5000001 -0.8660253 0
vn 0.8309015 0.4797227 -0.2819022
vn 0.9293315 0 0.3692464
vn 0.3797612 -0.2192569 0.8987256
vn 0.3265114 -0.5655354 0.7573375
vn 0 -1 0
vn 0.959443 0 -0.2819026
vn 0.8048249 -0.4646665 0.3692449
vn 0.5577406 0 -0.8300153
vn 0.8309026 -0.4797217 -0.2819009
vn 0.4830196 -0.2788703 -0.8300141
vn 0.2192552 -0.379763 0.8987253
vn 0 -0.6530241 0.7573371
vn -0.5000008 -0.866025 0
vn 0.4646659 -0.8048251 0.3692455
vn 0 -0.4385122 0.8987253
vn -0.3265116 -0.5655351 0.7573376
vn -0.8660254 -0.4999999 0
vn 0.479722 -0.8309021 -0.2819015
vn 0 -0.9293319 0.3692456
vn 0 -0.959443 -0.2819027
vn -0.2192551 -0.3797627 0.8987255
vn -0.5655345 -0.3265125 0.7573376
vn -1 0 0
vn -0.6530269 0 0.7573348
vn -0.4385142 0 0.8987243
vn -0.3797564 -0.2192592 0.8987272
vn -0.4646656 -0.8048252 0.3692455
vn -0.804823 -0.4646679 0.3692472
vn -0.9293324 0 0.3692442
vn 0 -0.5577399 -0.8300158
vn -0.479723 -0.8309019 -0.2819006
vn -0.8309 -0.4797222 -0.2819075
vn -0.9594438 0 -0.2819001
vn -0.5577429 0 -0.8300138
vn -0.2788726 -0.4830181 -0.8300142
vn -0.4830122 -0.2788697 -0.8300186
vn -0.5893756 -0.3402756 -0.7326999
vn -0.6805505 0 -0.7327011
vn -1 0 0
vn 0 0 -1
vn 0 0 -1
vn 0 0 -1
vn 0 0 -1
vn 0 0 -1
vn 0 0 -1
vn 0 0 -1
vn 0 0 -1
vn 0 0 -1
vn 0 0 -1
vn 0 0 -1
vn 0 0 -1
vn 1.302158E-06 0 1
vn 0 0 1
vn -3.051337E-06 0 1
vn 0 0 1
vn 0 0 1
vn 0 0 1
vn -6.102676E-06 0 1
vn 0 0 1
vn 3.051331E-06 0 1
vn 3.233381E-06 0 1
vn -4.020721E-06 0 1
vn 0 0 1
g Column02_0
f 3/3/3 2/2/2 1/1/1
f 4/4/4 3/3/3 1/1/1
f 5/5/5 4/4/4 1/1/1
f 6/6/6 5/5/5 1/1/1
f 7/7/7 3/3/3 4/4/4
f 6/6/6 8/8/8 5/5/5
f 9/9/9 7/7/7 4/4/4
f 4/4/4 5/5/5 9/9/9
f 10/10/10 7/7/7 9/9/9
f 11/11/11 10/10/10 9/9/9
f 12/12/12 10/10/10 11/11/11
f 5/5/5 13/13/13 9/9/9
f 9/9/9 13/13/13 11/11/11
f 14/14/14 12/12/12 11/11/11
f 15/15/15 12/12/12 14/14/14
f 16/16/16 15/15/15 14/14/14
f 17/17/17 16/16/16 14/14/14
f 18/18/18 15/15/15 16/16/16
f 19/19/19 18/18/18 16/16/16
f 16/16/16 17/17/17 19/19/19
f 20/20/20 18/18/18 19/19/19
f 21/21/21 14/14/14 11/11/11
f 21/21/21 17/17/17 14/14/14
f 22/22/22 21/21/21 11/11/11
f 13/13/13 22/22/22 11/11/11
f 23/23/23 21/21/21 22/22/22
f 21/21/21 23/23/23 17/17/17
f 24/24/24 22/22/22 13/13/13
f 24/24/24 23/23/23 22/22/22
f 25/25/25 13/13/13 5/5/5
f 25/25/25 24/24/24 13/13/13
f 26/26/26 20/20/20 19/19/19
f 27/27/27 20/20/20 26/26/26
f 28/28/28 25/25/25 5/5/5
f 8/8/8 28/28/28 5/5/5
f 29/29/29 28/28/28 8/8/8
f 30/30/30 29/29/29 8/8/8
f 30/30/30 31/31/31 29/29/29
f 32/32/32 25/25/25 28/28/28
f 29/29/29 32/32/32 28/28/28
f 33/33/33 24/24/24 25/25/25
f 32/32/32 33/33/33 25/25/25
f 31/31/31 34/34/34 29/29/29
f 29/29/29 34/34/34 32/32/32
f 35/35/35 27/27/27 26/26/26
f 36/36/36 35/35/35 26/26/26
f 37/37/37 27/27/27 35/35/35
f 38/38/38 37/37/37 35/35/35
f 35/35/35 36/36/36 38/38/38
f 39/39/39 37/37/37 38/38/38
f 33/33/33 40/40/40 24/24/24
f 40/40/40 23/23/23 24/24/24
f 41/41/41 34/34/34 31/31/31
f 42/42/42 41/41/41 31/31/31
f 43/43/43 41/41/41 42/42/42
f 44/44/44 43/43/43 42/42/42
f 43/43/43 45/45/45 41/41/41
f 45/45/45 46/46/46 41/41/41
f 41/41/41 46/46/46 34/34/34
f 45/45/45 47/47/47 46/46/46
f 48/48/48 39/39/39 38/38/38
f 49/49/49 39/39/39 48/48/48
f 46/46/46 50/50/50 34/34/34
f 34/34/34 50/50/50 32/32/32
f 32/32/32 50/50/50 33/33/33
f 47/47/47 51/51/51 46/46/46
f 47/47/47 52/52/52 51/51/51
f 50/50/50 46/46/46 53/53/53
f 50/50/50 53/53/53 33/33/33
f 46/46/46 51/51/51 53/53/53
f 52/52/52 54/54/54 51/51/51
f 51/51/51 54/54/54 53/53/53
f 52/52/52 55/55/55 54/54/54
f 53/53/53 56/56/56 33/33/33
f 54/54/54 56/56/56 53/53/53
f 56/56/56 40/40/40 33/33/33
f 55/55/55 57/57/57 54/54/54
f 54/54/54 57/57/57 56/56/56
f 55/55/55 58/58/58 57/57/57
f 56/56/56 59/59/59 40/40/40
f 57/57/57 59/59/59 56/56/56
f 58/58/58 60/60/60 57/57/57
f 58/58/58 61/61/61 60/60/60
f 59/59/59 62/62/62 40/40/40
f 40/40/40 62/62/62 23/23/23
f 59/59/59 57/57/57 63/63/63
f 57/57/57 60/60/60 63/63/63
f 59/59/59 63/63/63 62/62/62
f 61/61/61 64/64/64 60/60/60
f 60/60/60 64/64/64 63/63/63
f 61/61/61 65/65/65 64/64/64
f 62/62/62 66/66/66 23/23/23
f 23/23/23 66/66/66 17/17/17
f 63/63/63 67/67/67 62/62/62
f 62/62/62 67/67/67 66/66/66
f 64/64/64 68/68/68 63/63/63
f 63/63/63 68/68/68 67/67/67
f 65/65/65 69/69/69 64/64/64
f 64/64/64 69/69/69 68/68/68
f 65/65/65 70/70/70 69/69/69
f 66/66/66 71/71/71 17/17/17
f 67/67/67 71/71/71 66/66/66
f 68/68/68 72/72/72 67/67/67
f 67/67/67 72/72/72 71/71/71
f 71/71/71 73/73/73 17/17/17
f 17/17/17 73/73/73 19/19/19
f 71/71/71 74/74/74 73/73/73
f 72/72/72 74/74/74 71/71/71
f 73/73/73 75/75/75 19/19/19
f 74/74/74 75/75/75 73/73/73
f 75/75/75 26/26/26 19/19/19
f 75/75/75 36/36/36 26/26/26
f 75/75/75 74/74/74 36/36/36
f 68/68/68 76/76/76 72/72/72
f 69/69/69 76/76/76 68/68/68
f 70/70/70 77/77/77 69/69/69
f 70/70/70 78/78/78 77/77/77
f 72/72/72 79/79/79 74/74/74
f 76/76/76 79/79/79 72/72/72
f 76/76/76 69/69/69 80/80/80
f 69/69/69 77/77/77 80/80/80
f 76/76/76 80/80/80 79/79/79
f 78/78/78 81/81/81 77/77/77
f 77/77/77 81/81/81 80/80/80
f 78/78/78 82/82/82 81/81/81
f 79/79/79 83/83/83 74/74/74
f 74/74/74 83/83/83 36/36/36
f 80/80/80 84/84/84 79/79/79
f 79/79/79 84/84/84 83/83/83
f 83/83/83 85/85/85 36/36/36
f 84/84/84 85/85/85 83/83/83
f 80/80/80 86/86/86 84/84/84
f 81/81/81 86/86/86 80/80/80
f 82/82/82 87/87/87 81/81/81
f 82/82/82 88/88/88 87/87/87
f 88/88/88 89/89/89 87/87/87
f 87/87/87 89/89/89 90/90/90
f 81/81/81 87/87/87 91/91/91
f 86/86/86 81/81/81 91/91/91
f 91/91/91 87/87/87 90/90/90
f 86/86/86 92/92/92 84/84/84
f 86/86/86 91/91/91 92/92/92
f 84/84/84 92/92/92 85/85/85
f 91/91/91 90/90/90 93/93/93
f 91/91/91 93/93/93 92/92/92
f 90/90/90 94/94/94 93/93/93
f 85/85/85 95/95/95 36/36/36
f 36/36/36 95/95/95 38/38/38
f 92/92/92 96/96/96 85/85/85
f 92/92/92 93/93/93 96/96/96
f 85/85/85 96/96/96 95/95/95
f 93/93/93 94/94/94 97/97/97
f 93/93/93 97/97/97 96/96/96
f 94/94/94 98/98/98 97/97/97
f 97/97/97 98/98/98 99/99/99
f 95/95/95 100/100/100 38/38/38
f 96/96/96 100/100/100 95/95/95
f 100/100/100 48/48/48 38/38/38
f 96/96/96 97/97/97 101/101/101
f 100/100/100 96/96/96 101/101/101
f 101/101/101 97/97/97 99/99/99
f 100/100/100 101/101/101 48/48/48
f 101/101/101 99/99/99 102/102/102
f 101/101/101 102/102/102 48/48/48
f 99/99/99 103/103/103 102/102/102
f 102/102/102 49/49/49 48/48/48
f 103/103/103 104/104/104 102/102/102
f 104/104/104 49/49/49 102/102/102
f 107/107/107 106/106/106 105/105/105
f 106/106/106 108/108/108 105/105/105
f 109/109/109 108/108/108 106/106/106
f 110/110/110 105/105/105 108/108/108
f 111/111/111 110/110/110 108/108/108
f 112/112/112 105/105/105 110/110/110
f 113/113/113 112/112/112 110/110/110
f 114/114/114 105/105/105 112/112/112
f 115/115/115 105/105/105 114/114/114
f 116/116/116 105/105/105 115/115/115
f 119/119/119 118/118/118 117/117/117
f 120/120/120 117/117/117 118/118/118
f 121/121/121 117/117/117 120/120/120
f 122/122/122 117/117/117 121/121/121
f 123/123/123 122/122/122 121/121/121
f 124/124/124 117/117/117 122/122/122
f 125/125/125 124/124/124 122/122/122
f 117/117/117 124/124/124 126/126/126
f 126/126/126 124/124/124 127/127/127
f 128/128/128 127/127/127 124/124/124
