g ConnectorUpper
v 0.1008712 0.02385836 0.03380201
v 0.1008712 -0.02385836 -0.01332111
v 0.1008712 -0.02385836 0.03380201
v 0.1008712 0.02385836 -0.01332111
v 0.1008712 0.01430094 -0.02443291
v 0.1008712 -0.01430093 -0.02443291
v 0.0435114 0.01603773 -0.03349793
v 0.03387181 0.01430095 -0.02443293
v 0.0338718 -0.01430092 -0.02443293
v 0.04351139 -0.01603771 -0.03349793
v 0.06737151 -0.01606076 -0.03349792
v 0.04351138 -0.03349793 -0.0160377
v 0.06737152 0.01606077 -0.03349792
v 0.0338718 -0.02385835 -0.01332114
v 0.09123163 0.01603772 -0.03349791
v 0.04068199 -0.03066857 0.03380198
v 0.04340679 -0.03349793 0.03777095
v 0.03387178 -0.02385835 0.03380198
v 0.03862228 -0.0303477 0.03522966
v 0.03214515 -0.02385835 0.03522965
v -0.03862232 -0.03034769 0.03522962
v -0.03214518 -0.02385834 0.03522963
v -0.03387181 -0.02385834 0.03380195
v -0.04068203 -0.03066855 0.03380195
v -0.0338718 -0.02385834 -0.01332116
v -0.04351138 -0.03349792 -0.01603774
v -0.03387179 -0.01430091 -0.02443296
v -0.04340683 -0.03349792 0.03777092
v -0.04351137 -0.0160377 -0.03349796
v -0.0673715 -0.01606073 -0.03349797
v -0.03387179 0.01430096 -0.02443296
v -0.04351136 0.01603774 -0.03349796
v -0.06737149 0.01606079 -0.03349797
v -0.09123161 0.01603775 -0.03349798
v -0.06737152 -0.03349791 0.03671103
v -0.1388593 -0.0334979 0.0659917
v -0.0673715 -0.03349791 -0.01606079
v -0.09123162 -0.03349791 -0.01603775
v -0.09123161 -0.01603769 -0.03349798
v -0.1008712 -0.0143009 -0.02443299
v -0.1008712 0.01430097 -0.02443299
v -0.1008712 -0.02385833 -0.01332119
v -0.09133623 -0.03349791 0.0377709
v -0.09406102 -0.03066854 0.03380193
v -0.1008712 -0.02385833 0.03380193
v -0.09612074 -0.03034768 0.0352296
v -0.1025979 -0.02385833 0.0352296
v -0.1388574 -0.0334979 0.03775476
v -0.1376424 -0.03034767 0.03522958
v -0.14005 -0.02759588 0.03522958
v 0.1388592 -0.03349795 0.06599181
v 0.06737149 -0.03349794 0.03671109
v 0.0673715 -0.03349794 -0.01606074
v 0.09123162 -0.03349794 -0.01603768
v 0.09133618 -0.03349794 0.03777097
v 0.09123163 -0.01603772 -0.03349791
v 0.1008712 -0.01430093 -0.02443291
v 0.1008712 0.01430094 -0.02443291
v 0.1008712 -0.02385836 -0.01332111
v 0.09406098 -0.03066858 0.03380201
v 0.1008712 -0.02385836 0.03380201
v 0.09612069 -0.03034771 0.03522968
v 0.1025978 -0.02385836 0.03522968
v 0.1388573 -0.03349795 0.03775487
v 0.1412627 -0.03079191 0.06599181
v 0.1412627 -0.0307779 0.03775404
v 0.1376424 -0.03034772 0.03522969
v 0.14005 -0.02759592 0.03522969
v 0.14005 -0.02759592 0.03522969
v -0.1412628 -0.03079187 0.0659917
v -0.1388593 -0.0334979 0.0659917
v -0.1388574 -0.0334979 0.03775476
v -0.1412627 -0.03077785 0.03775394
v -0.1376424 -0.03034767 0.03522958
v -0.14005 -0.02759588 0.03522958
v -0.14005 0.02759595 0.03522958
v -0.1412627 0.03079195 0.0659917
v -0.1412627 0.03077793 0.03775394
v -0.1376424 0.03034775 0.03522958
v -0.1388574 0.03349798 0.03775476
v -0.1388593 0.03349798 0.0659917
v -0.09612072 0.03034774 0.0352296
v -0.1025979 0.02385839 0.0352296
v -0.14005 0.02759595 0.03522958
v -0.1008712 0.02385839 0.03380193
v -0.09133621 0.03349797 0.0377709
v -0.09406099 0.03066861 0.03380193
v -0.1008712 0.02385839 -0.01332119
v -0.09123161 0.03349797 -0.01603775
v -0.1008712 0.01430097 -0.02443299
v -0.09123161 0.01603775 -0.03349798
v -0.06737151 0.03349797 0.03671103
v -0.0673715 0.03349797 -0.01606079
v -0.04351137 0.03349796 -0.01603774
v -0.06737149 0.01606079 -0.03349797
v -0.04351136 0.01603774 -0.03349796
v -0.03387179 0.01430096 -0.02443296
v -0.03387179 0.02385838 -0.01332117
v -0.04340682 0.03349796 0.03777092
v -0.04068202 0.0306686 0.03380195
v -0.03387181 0.02385838 0.03380195
v -0.03862231 0.03034773 0.03522962
v -0.03214518 0.02385838 0.03522963
v 0.03862229 0.03034772 0.03522966
v 0.03214516 0.02385837 0.03522965
v 0.03387179 0.02385837 0.03380198
v 0.0434068 0.03349795 0.03777095
v 0.1388593 0.03349793 0.06599181
v 0.040682 0.03066858 0.03380198
v 0.03387181 0.02385837 -0.01332114
v 0.04351139 0.03349795 -0.0160377
v 0.03387181 0.01430095 -0.02443293
v 0.0435114 0.01603773 -0.03349793
v 0.0673715 0.03349794 0.03671109
v 0.06737151 0.03349794 -0.01606074
v 0.06737152 0.01606077 -0.03349792
v 0.09123163 0.01603772 -0.03349791
v 0.09123164 0.03349794 -0.01603768
v 0.1008712 0.01430094 -0.02443291
v 0.1008712 0.02385836 -0.01332111
v 0.09133619 0.03349794 0.03777097
v 0.1388573 0.03349793 0.03775487
v 0.09406099 0.03066858 0.03380201
v 0.1008712 0.02385836 0.03380201
v 0.0961207 0.03034771 0.03522968
v 0.1376424 0.0303477 0.03522969
v 0.1025978 0.02385836 0.03522968
v 0.14005 0.02759591 0.03522969
v -0.03387181 0.02385838 0.03380195
v -0.0338718 -0.02385834 -0.01332116
v -0.03387181 -0.02385834 0.03380195
v -0.03387179 0.02385838 -0.01332117
v -0.03387179 0.01430096 -0.02443296
v -0.03387179 -0.01430091 -0.02443296
v 0.1412627 -0.0307779 0.03775404
v 0.14005 0.02759591 0.03522969
v 0.14005 -0.02759592 0.03522969
v 0.1412627 0.03077789 0.03775404
v 0.1412627 -0.03079191 0.06599181
v 0.1376424 0.0303477 0.03522969
v 0.1412627 0.0307919 0.06599181
v 0.1388573 0.03349793 0.03775487
v 0.1388593 0.03349793 0.06599181
v 0.1008712 -0.02385836 0.03380201
v 0.1025978 0.02385836 0.03522968
v 0.1008712 0.02385836 0.03380201
v 0.1025978 -0.02385836 0.03522968
v 0.14005 0.02759591 0.03522969
v 0.14005 -0.02759592 0.03522969
v 0.03214516 0.02385837 0.03522965
v 0.03387178 -0.02385835 0.03380198
v 0.03387179 0.02385837 0.03380198
v 0.03214515 -0.02385835 0.03522965
v -0.03214518 -0.02385834 0.03522963
v -0.03214518 0.02385838 0.03522963
v -0.03387181 -0.02385834 0.03380195
v -0.03387181 0.02385838 0.03380195
v 0.03387181 0.01430095 -0.02443293
v 0.0338718 -0.02385835 -0.01332114
v 0.0338718 -0.01430092 -0.02443293
v 0.03387181 0.02385837 -0.01332114
v 0.03387179 0.02385837 0.03380198
v 0.03387178 -0.02385835 0.03380198
v -0.1025979 0.02385839 0.0352296
v -0.1008712 -0.02385833 0.03380193
v -0.1008712 0.02385839 0.03380193
v -0.1025979 -0.02385833 0.0352296
v -0.14005 0.02759595 0.03522958
v -0.14005 -0.02759588 0.03522958
v -0.1008712 0.01430097 -0.02443299
v -0.1008712 -0.02385833 -0.01332119
v -0.1008712 -0.0143009 -0.02443299
v -0.1008712 0.02385839 -0.01332119
v -0.1008712 0.02385839 0.03380193
v -0.1008712 -0.02385833 0.03380193
vt 0.2991991 0.3928263
vt 0.2894479 0.3831964
vt 0.2894479 0.3928263
vt 0.2991991 0.3831964
vt 0.297246 0.3809256
vt 0.2914011 0.3809256
vt 0.7882854 0.5024658
vt 0.787442 0.4996475
vt 0.7811672 0.5004599
vt 0.7817919 0.5029088
vt 0.781952 0.5075592
vt 0.777046 0.5028608
vt 0.7883877 0.5077476
vt 0.7776291 0.5002482
vt 0.7880142 0.5130194
vt 0.7670768 0.5012649
vt 0.766003 0.5019754
vt 0.7680853 0.4994785
vt 0.7668381 0.5008516
vt 0.7680475 0.4991934
vt 0.7668974 0.4848445
vt 0.7681448 0.4864294
vt 0.7681918 0.4861374
vt 0.7671517 0.4844121
vt 0.7778782 0.4847488
vt 0.7771112 0.4821629
vt 0.7813858 0.4843522
vt 0.766064 0.4837627
vt 0.7818738 0.4818737
vt 0.7817922 0.4772249
vt 0.7876917 0.4848386
vt 0.7883848 0.4819821
vt 0.7882159 0.4767122
vt 0.7875838 0.4714797
vt 0.7660914 0.4783915
vt 0.760073 0.4635515
vt 0.7767863 0.4776121
vt 0.7765343 0.4730645
vt 0.7811998 0.4726138
vt 0.7803414 0.4702392
vt 0.7864559 0.4687668
vt 0.7768747 0.4703879
vt 0.7658757 0.4731031
vt 0.766856 0.4722728
vt 0.7676874 0.4703415
vt 0.7666185 0.471846
vt 0.7676458 0.4700108
vt 0.7652399 0.4630158
vt 0.7660175 0.4631374
vt 0.7665116 0.4625516
vt 0.760073 0.5218948
vt 0.7662474 0.5071671
vt 0.7769369 0.5074247
vt 0.7768852 0.5119908
vt 0.7660437 0.5123612
vt 0.7815802 0.5122071
vt 0.7808315 0.5146245
vt 0.7870168 0.5157883
vt 0.7773562 0.5146566
vt 0.7670543 0.5131552
vt 0.767876 0.5150557
vt 0.7668066 0.513582
vt 0.7678389 0.5153788
vt 0.7654817 0.522113
vt 0.7601165 0.5226509
vt 0.7656085 0.5228311
vt 0.7662441 0.5220868
vt 0.7667404 0.5226627
vt 0.766461 0.5228516
vt 0.327374 0.3458227
vt 0.3270483 0.3451327
vt 0.3217223 0.3472165
vt 0.3221157 0.3478405
vt 0.3212801 0.347994
vt 0.3217402 0.3485866
vt 0.3249789 0.3589964
vt 0.3312951 0.3586002
vt 0.325705 0.3593861
vt 0.3251075 0.3598714
vt 0.3258512 0.3599358
vt 0.3313082 0.3595421
vt 0.3247519 0.368016
vt 0.323732 0.3662241
vt 0.3245747 0.3593022
vt 0.3237949 0.3665189
vt 0.3254766 0.3692422
vt 0.3244882 0.3684213
vt 0.3145396 0.3664874
vt 0.3146512 0.3691338
vt 0.3114225 0.3659629
vt 0.3097752 0.3683297
vt 0.3251938 0.3744319
vt 0.3145236 0.3736886
vt 0.3141096 0.3781841
vt 0.309426 0.3732952
vt 0.3091394 0.3782459
vt 0.3104612 0.3808253
vt 0.3136851 0.3807696
vt 0.3253228 0.379729
vt 0.324216 0.3803672
vt 0.3232253 0.3821278
vt 0.324489 0.3808208
vt 0.3232486 0.3824052
vt 0.3245531 0.3968494
vt 0.3232971 0.3952353
vt 0.3233499 0.3955192
vt 0.3253702 0.3979778
vt 0.3313082 0.417893
vt 0.324279 0.3972882
vt 0.3137351 0.3965515
vt 0.314154 0.3991539
vt 0.3105393 0.3964153
vt 0.3091703 0.3989576
vt 0.3250861 0.4032297
vt 0.3144525 0.4036487
vt 0.3093535 0.4039215
vt 0.3096094 0.4088947
vt 0.3144962 0.4082149
vt 0.3112181 0.4113029
vt 0.3143729 0.410856
vt 0.3254015 0.408431
vt 0.3260579 0.4184186
vt 0.3243976 0.4092178
vt 0.3236255 0.4111437
vt 0.3246681 0.409663
vt 0.3252727 0.41829
vt 0.3236277 0.4114657
vt 0.3247439 0.4188564
vt 0.3307054 0.06728005
vt 0.3209542 0.05765023
vt 0.3209542 0.06728005
vt 0.3307054 0.05765023
vt 0.3287523 0.05537943
vt 0.3229073 0.05537943
vt 0.1793403 0.5648375
vt 0.179644 0.5767393
vt 0.1798984 0.5655159
vt 0.179058 0.5773232
vt 0.1735929 0.5646571
vt 0.1798984 0.5774972
vt 0.1732685 0.5773464
vt 0.1791551 0.5780512
vt 0.1733108 0.57809
vt 0.06496569 0.3498012
vt 0.06542353 0.34005
vt 0.06496569 0.34005
vt 0.06542353 0.3498012
vt 0.07307708 0.3392862
vt 0.07307708 0.350565
vt 0.06890397 0.4173643
vt 0.07865515 0.4169065
vt 0.06890397 0.4169065
vt 0.07865515 0.4173643
vt 0.07865515 0.4305024
vt 0.06890397 0.4305024
vt 0.07865515 0.4309602
vt 0.06890397 0.4309602
vt 0.297246 0.4508877
vt 0.2894479 0.448617
vt 0.2914011 0.4508877
vt 0.2991991 0.448617
vt 0.2991991 0.438987
vt 0.2894479 0.438987
vt 0.2899058 0.5429883
vt 0.2894479 0.5332371
vt 0.2894479 0.5429883
vt 0.2899058 0.5332371
vt 0.2975593 0.5437521
vt 0.2975593 0.5324733
vt 0.297246 0.4085879
vt 0.2894479 0.4063172
vt 0.2914011 0.4085879
vt 0.2991991 0.4063172
vt 0.2991991 0.3966873
vt 0.2894479 0.3966873
vn 0.8139189 0.3808025 -0.4387772
vn 0.8965725 -0.4126109 -0.1609655
vn 0.8139196 -0.3808021 -0.4387761
vn 0.896573 0.4126099 -0.1609654
vn 0.8794309 0.2073167 -0.4285104
vn 0.8794309 -0.2073162 -0.4285105
vn -0.3415487 0.3503409 -0.8721271
vn -0.8794307 0.2073166 -0.4285106
vn -0.8794309 -0.2073162 -0.4285105
vn -0.3415489 -0.3503408 -0.8721271
vn 0 -0.3828844 -0.9237963
vn -0.3548546 -0.8679804 -0.3474021
vn 0 0.3828842 -0.9237963
vn -0.8965728 -0.41261 -0.160966
vn 0.3415491 0.3503411 -0.8721269
vn -0.6331747 -0.751811 -0.1840381
vn -0.1175733 -0.9865806 -0.1132919
vn -0.8139184 -0.3808017 -0.4387789
vn -0.269155 -0.6063595 -0.7482537
vn -0.255661 -0.08888812 -0.9626714
vn 0.2696426 -0.6063883 -0.7480549
vn 0.2556615 -0.08888819 -0.9626713
vn 0.8139184 -0.380802 -0.4387787
vn 0.6331747 -0.7518111 -0.1840377
vn 0.8965729 -0.4126102 -0.1609652
vn 0.3548547 -0.8679805 -0.3474017
vn 0.8794311 -0.2073165 -0.42851
vn 0.1171832 -0.9866519 -0.1130758
vn 0.3415492 -0.350341 -0.8721269
vn 0 -0.3828843 -0.9237963
vn 0.8794311 0.2073165 -0.4285099
vn 0.3415496 0.350341 -0.8721268
vn 0 0.3828843 -0.9237963
vn -0.3415487 0.3503409 -0.8721271
vn 0 -1 0
vn -0.4098537 -0.9121512 -2.804612E-05
vn 0 -0.9237964 -0.3828841
vn -0.3548546 -0.8679803 -0.3474021
vn -0.3415487 -0.3503411 -0.8721271
vn -0.8794309 -0.2073165 -0.4285104
vn -0.8794308 0.2073166 -0.4285106
vn -0.896573 -0.4126098 -0.1609658
vn -0.1171531 -0.986656 -0.1130714
vn -0.6331751 -0.7518103 -0.1840393
vn -0.8139188 -0.3808009 -0.438779
vn -0.2693667 -0.6061005 -0.7483875
vn -0.2556616 -0.08888768 -0.9626713
vn -0.3728056 -0.8341578 -0.4064441
vn -0.1660115 -0.3509858 -0.9215472
vn -0.5300206 -0.09649728 -0.8424764
vn 0.4098518 -0.9121521 -2.778465E-05
vn 0 -1 0
vn 0 -0.9237964 -0.3828841
vn 0.3548542 -0.8679807 -0.3474019
vn 0.1171527 -0.9866561 -0.1130708
vn 0.3415494 -0.3503406 -0.8721269
vn 0.8794309 -0.2073162 -0.4285105
vn 0.8794309 0.2073167 -0.4285104
vn 0.8965725 -0.4126109 -0.1609655
vn 0.6331751 -0.751811 -0.184037
vn 0.8139196 -0.3808021 -0.4387761
vn 0.269369 -0.6061023 -0.7483851
vn 0.2556633 -0.08888873 -0.9626707
vn 0.372807 -0.8341568 -0.4064447
vn 0.9347862 -0.3552107 -3.940222E-05
vn 0.8577961 -0.3696255 -0.3571595
vn 0.1660118 -0.3509862 -0.9215469
vn 0.5300208 -0.09649874 -0.8424761
vn 0.5300208 -0.09649874 -0.8424761
vn -0.9347872 -0.3552084 -3.998081E-05
vn -0.4098537 -0.9121512 -2.804612E-05
vn -0.3728056 -0.8341578 -0.4064441
vn -0.8577955 -0.3696262 -0.35716
vn -0.1660115 -0.3509858 -0.9215472
vn -0.5300206 -0.09649728 -0.8424764
vn -0.5300208 0.09649757 -0.8424763
vn -0.9347862 0.3552109 -3.998669E-05
vn -0.8577955 0.3696263 -0.3571601
vn -0.1660113 0.3509856 -0.9215473
vn -0.3728053 0.8341578 -0.4064443
vn -0.4098516 0.9121522 -2.800438E-05
vn -0.2693665 0.6061008 -0.7483873
vn -0.2556603 0.08888786 -0.9626716
vn -0.5300208 0.09649757 -0.8424763
vn -0.8139181 0.3808013 -0.4387797
vn -0.1171528 0.9866561 -0.1130711
vn -0.6331754 0.7518103 -0.1840387
vn -0.8965725 0.4126108 -0.1609658
vn -0.3548539 0.8679808 -0.3474019
vn -0.8794308 0.2073166 -0.4285106
vn -0.3415487 0.3503409 -0.8721271
vn 0 1 0
vn 0 0.9237964 -0.3828841
vn 0.3548549 0.8679803 -0.3474018
vn 0 0.3828843 -0.9237963
vn 0.3415496 0.350341 -0.8721268
vn 0.8794311 0.2073165 -0.4285099
vn 0.896573 0.4126099 -0.1609652
vn 0.1171835 0.9866519 -0.1130756
vn 0.6331753 0.7518107 -0.1840376
vn 0.8139185 0.3808016 -0.4387787
vn 0.269462 0.6062155 -0.7482599
vn 0.2556615 0.08888813 -0.9626713
vn -0.2694616 0.6062152 -0.7482603
vn -0.2556615 0.0888882 -0.9626713
vn -0.8139188 0.3808017 -0.4387783
vn -0.1171831 0.9866519 -0.1130759
vn 0.4098517 0.9121521 -2.774733E-05
vn -0.6331751 0.7518106 -0.1840381
vn -0.8965728 0.4126103 -0.1609658
vn -0.3548545 0.8679804 -0.3474021
vn -0.8794307 0.2073166 -0.4285106
vn -0.3415487 0.3503409 -0.8721271
vn 0 1 0
vn 0 0.9237963 -0.3828842
vn 0 0.3828842 -0.9237963
vn 0.3415491 0.3503411 -0.8721269
vn 0.3548549 0.8679803 -0.3474018
vn 0.8794309 0.2073167 -0.4285104
vn 0.896573 0.4126099 -0.1609654
vn 0.1171532 0.9866561 -0.1130712
vn 0.3728071 0.8341572 -0.4064438
vn 0.6331757 0.7518105 -0.1840371
vn 0.8139189 0.3808025 -0.4387772
vn 0.2693691 0.6061018 -0.7483855
vn 0.166012 0.3509862 -0.9215469
vn 0.2556624 0.08888882 -0.9626711
vn 0.5300215 0.09649734 -0.8424758
vn 0.8139185 0.3808016 -0.4387787
vn 0.8965729 -0.4126102 -0.1609652
vn 0.8139184 -0.380802 -0.4387787
vn 0.896573 0.4126099 -0.1609652
vn 0.8794311 0.2073165 -0.4285099
vn 0.8794311 -0.2073165 -0.42851
vn 0.8577961 -0.3696255 -0.3571595
vn 0.5300215 0.09649734 -0.8424758
vn 0.5300208 -0.09649874 -0.8424761
vn 0.8577965 0.3696249 -0.3571591
vn 0.9347862 -0.3552107 -3.940222E-05
vn 0.166012 0.3509862 -0.9215469
vn 0.9347863 0.3552106 -3.939129E-05
vn 0.3728071 0.8341572 -0.4064438
vn 0.4098517 0.9121521 -2.774733E-05
vn 0.8139196 -0.3808021 -0.4387761
vn 0.2556624 0.08888882 -0.9626711
vn 0.8139189 0.3808025 -0.4387772
vn 0.2556633 -0.08888873 -0.9626707
vn 0.5300215 0.09649734 -0.8424758
vn 0.5300208 -0.09649874 -0.8424761
vn -0.2556615 0.0888882 -0.9626713
vn -0.8139184 -0.3808017 -0.4387789
vn -0.8139188 0.3808017 -0.4387783
vn -0.255661 -0.08888812 -0.9626714
vn 0.2556615 -0.08888819 -0.9626713
vn 0.2556615 0.08888813 -0.9626713
vn 0.8139184 -0.380802 -0.4387787
vn 0.8139185 0.3808016 -0.4387787
vn -0.8794307 0.2073166 -0.4285106
vn -0.8965728 -0.41261 -0.160966
vn -0.8794309 -0.2073162 -0.4285105
vn -0.8965728 0.4126103 -0.1609658
vn -0.8139188 0.3808017 -0.4387783
vn -0.8139184 -0.3808017 -0.4387789
vn -0.2556603 0.08888786 -0.9626716
vn -0.8139188 -0.3808009 -0.438779
vn -0.8139181 0.3808013 -0.4387797
vn -0.2556616 -0.08888768 -0.9626713
vn -0.5300208 0.09649757 -0.8424763
vn -0.5300206 -0.09649728 -0.8424764
vn -0.8794308 0.2073166 -0.4285106
vn -0.896573 -0.4126098 -0.1609658
vn -0.8794309 -0.2073165 -0.4285104
vn -0.8965725 0.4126108 -0.1609658
vn -0.8139181 0.3808013 -0.4387797
vn -0.8139188 -0.3808009 -0.438779
g ConnectorUpper_0
f 3/3/3 2/2/2 1/1/1
f 1/1/1 2/2/2 4/4/4
f 4/4/4 2/2/2 5/5/5
f 6/6/6 5/5/5 2/2/2
f 9/9/9 8/8/8 7/7/7
f 10/10/10 9/9/9 7/7/7
f 11/11/11 10/10/10 7/7/7
f 10/10/10 12/12/12 9/9/9
f 10/10/10 11/11/11 12/12/12
f 13/13/13 11/11/11 7/7/7
f 12/12/12 14/14/14 9/9/9
f 13/13/13 15/15/15 11/11/11
f 14/14/14 12/12/12 16/16/16
f 17/17/17 16/16/16 12/12/12
f 18/18/18 14/14/14 16/16/16
f 16/16/16 19/19/19 18/18/18
f 19/19/19 16/16/16 17/17/17
f 19/19/19 20/20/20 18/18/18
f 19/19/19 21/21/21 20/20/20
f 21/21/21 19/19/19 17/17/17
f 21/21/21 22/22/22 20/20/20
f 22/22/22 21/21/21 23/23/23
f 21/21/21 24/24/24 23/23/23
f 23/23/23 24/24/24 25/25/25
f 25/25/25 24/24/24 26/26/26
f 25/25/25 26/26/26 27/27/27
f 24/24/24 21/21/21 28/28/28
f 28/28/28 21/21/21 17/17/17
f 28/28/28 26/26/26 24/24/24
f 26/26/26 29/29/29 27/27/27
f 29/29/29 26/26/26 30/30/30
f 27/27/27 29/29/29 31/31/31
f 29/29/29 32/32/32 31/31/31
f 32/32/32 29/29/29 30/30/30
f 33/33/33 32/32/32 30/30/30
f 33/33/33 30/30/30 34/34/34
f 28/28/28 35/35/35 26/26/26
f 28/28/28 17/17/17 36/36/36
f 35/35/35 28/28/28 36/36/36
f 26/26/26 37/37/37 30/30/30
f 35/35/35 37/37/37 26/26/26
f 30/30/30 37/37/37 38/38/38
f 38/38/38 37/37/37 35/35/35
f 30/30/30 39/39/39 34/34/34
f 39/39/39 30/30/30 38/38/38
f 39/39/39 40/40/40 34/34/34
f 39/39/39 38/38/38 40/40/40
f 40/40/40 41/41/41 34/34/34
f 38/38/38 42/42/42 40/40/40
f 43/43/43 35/35/35 36/36/36
f 43/43/43 38/38/38 35/35/35
f 42/42/42 38/38/38 44/44/44
f 43/43/43 44/44/44 38/38/38
f 45/45/45 42/42/42 44/44/44
f 44/44/44 46/46/46 45/45/45
f 46/46/46 44/44/44 43/43/43
f 46/46/46 47/47/47 45/45/45
f 48/48/48 43/43/43 36/36/36
f 43/43/43 48/48/48 46/46/46
f 48/48/48 49/49/49 46/46/46
f 46/46/46 49/49/49 47/47/47
f 49/49/49 50/50/50 47/47/47
f 36/36/36 17/17/17 51/51/51
f 51/51/51 17/17/17 52/52/52
f 17/17/17 12/12/12 52/52/52
f 12/12/12 53/53/53 52/52/52
f 52/52/52 53/53/53 54/54/54
f 11/11/11 53/53/53 12/12/12
f 54/54/54 53/53/53 11/11/11
f 52/52/52 55/55/55 51/51/51
f 55/55/55 52/52/52 54/54/54
f 56/56/56 54/54/54 11/11/11
f 15/15/15 56/56/56 11/11/11
f 57/57/57 56/56/56 15/15/15
f 54/54/54 56/56/56 57/57/57
f 58/58/58 57/57/57 15/15/15
f 59/59/59 54/54/54 57/57/57
f 59/59/59 60/60/60 54/54/54
f 55/55/55 54/54/54 60/60/60
f 61/61/61 60/60/60 59/59/59
f 62/62/62 60/60/60 61/61/61
f 60/60/60 62/62/62 55/55/55
f 63/63/63 62/62/62 61/61/61
f 55/55/55 64/64/64 51/51/51
f 55/55/55 62/62/62 64/64/64
f 51/51/51 64/64/64 65/65/65
f 64/64/64 66/66/66 65/65/65
f 67/67/67 62/62/62 63/63/63
f 62/62/62 67/67/67 64/64/64
f 66/66/66 64/64/64 67/67/67
f 68/68/68 67/67/67 63/63/63
f 69/69/69 66/66/66 67/67/67
f 72/72/72 71/71/71 70/70/70
f 73/73/73 72/72/72 70/70/70
f 72/72/72 73/73/73 74/74/74
f 73/73/73 75/75/75 74/74/74
f 75/75/75 73/73/73 76/76/76
f 70/70/70 77/77/77 73/73/73
f 73/73/73 78/78/78 76/76/76
f 77/77/77 78/78/78 73/73/73
f 76/76/76 78/78/78 79/79/79
f 80/80/80 78/78/78 77/77/77
f 78/78/78 80/80/80 79/79/79
f 81/81/81 80/80/80 77/77/77
f 82/82/82 79/79/79 80/80/80
f 79/79/79 82/82/82 83/83/83
f 84/84/84 79/79/79 83/83/83
f 83/83/83 82/82/82 85/85/85
f 86/86/86 82/82/82 80/80/80
f 80/80/80 81/81/81 86/86/86
f 82/82/82 87/87/87 85/85/85
f 86/86/86 87/87/87 82/82/82
f 85/85/85 87/87/87 88/88/88
f 88/88/88 87/87/87 89/89/89
f 86/86/86 89/89/89 87/87/87
f 90/90/90 88/88/88 89/89/89
f 91/91/91 90/90/90 89/89/89
f 86/86/86 92/92/92 89/89/89
f 81/81/81 92/92/92 86/86/86
f 91/91/91 89/89/89 93/93/93
f 92/92/92 93/93/93 89/89/89
f 93/93/93 92/92/92 94/94/94
f 95/95/95 91/91/91 93/93/93
f 95/95/95 93/93/93 94/94/94
f 96/96/96 95/95/95 94/94/94
f 96/96/96 94/94/94 97/97/97
f 94/94/94 98/98/98 97/97/97
f 92/92/92 81/81/81 99/99/99
f 92/92/92 99/99/99 94/94/94
f 94/94/94 100/100/100 98/98/98
f 99/99/99 100/100/100 94/94/94
f 101/101/101 98/98/98 100/100/100
f 101/101/101 100/100/100 102/102/102
f 100/100/100 99/99/99 102/102/102
f 103/103/103 101/101/101 102/102/102
f 103/103/103 102/102/102 104/104/104
f 102/102/102 99/99/99 104/104/104
f 105/105/105 103/103/103 104/104/104
f 105/105/105 104/104/104 106/106/106
f 99/99/99 81/81/81 107/107/107
f 99/99/99 107/107/107 104/104/104
f 108/108/108 107/107/107 81/81/81
f 104/104/104 109/109/109 106/106/106
f 107/107/107 109/109/109 104/104/104
f 106/106/106 109/109/109 110/110/110
f 110/110/110 109/109/109 111/111/111
f 107/107/107 111/111/111 109/109/109
f 112/112/112 110/110/110 111/111/111
f 113/113/113 112/112/112 111/111/111
f 114/114/114 107/107/107 108/108/108
f 107/107/107 114/114/114 111/111/111
f 113/113/113 111/111/111 115/115/115
f 114/114/114 115/115/115 111/111/111
f 116/116/116 113/113/113 115/115/115
f 116/116/116 115/115/115 117/117/117
f 115/115/115 118/118/118 117/117/117
f 115/115/115 114/114/114 118/118/118
f 117/117/117 118/118/118 119/119/119
f 118/118/118 120/120/120 119/119/119
f 114/114/114 108/108/108 121/121/121
f 114/114/114 121/121/121 118/118/118
f 108/108/108 122/122/122 121/121/121
f 118/118/118 123/123/123 120/120/120
f 121/121/121 123/123/123 118/118/118
f 124/124/124 120/120/120 123/123/123
f 125/125/125 121/121/121 122/122/122
f 123/123/123 121/121/121 125/125/125
f 124/124/124 123/123/123 125/125/125
f 126/126/126 125/125/125 122/122/122
f 127/127/127 124/124/124 125/125/125
f 127/127/127 125/125/125 126/126/126
f 128/128/128 127/127/127 126/126/126
f 131/131/131 130/130/130 129/129/129
f 129/129/129 130/130/130 132/132/132
f 132/132/132 130/130/130 133/133/133
f 134/134/134 133/133/133 130/130/130
f 137/137/137 136/136/136 135/135/135
f 136/136/136 138/138/138 135/135/135
f 139/139/139 135/135/135 138/138/138
f 136/136/136 140/140/140 138/138/138
f 141/141/141 139/139/139 138/138/138
f 140/140/140 142/142/142 138/138/138
f 141/141/141 138/138/138 142/142/142
f 143/143/143 141/141/141 142/142/142
f 146/146/146 145/145/145 144/144/144
f 145/145/145 147/147/147 144/144/144
f 147/147/147 145/145/145 148/148/148
f 149/149/149 147/147/147 148/148/148
f 152/152/152 151/151/151 150/150/150
f 151/151/151 153/153/153 150/150/150
f 153/153/153 154/154/154 150/150/150
f 154/154/154 155/155/155 150/150/150
f 155/155/155 154/154/154 156/156/156
f 157/157/157 155/155/155 156/156/156
f 160/160/160 159/159/159 158/158/158
f 158/158/158 159/159/159 161/161/161
f 161/161/161 159/159/159 162/162/162
f 163/163/163 162/162/162 159/159/159
f 166/166/166 165/165/165 164/164/164
f 165/165/165 167/167/167 164/164/164
f 168/168/168 164/164/164 167/167/167
f 169/169/169 168/168/168 167/167/167
f 172/172/172 171/171/171 170/170/170
f 170/170/170 171/171/171 173/173/173
f 173/173/173 171/171/171 174/174/174
f 175/175/175 174/174/174 171/171/171
