g Console6
v -3.004074E-05 -0.2999997 -0.3
v 0.3 -0.2999997 -0.3
v 0.3 0.3000001 -0.3
v -3.004074E-05 0.3000001 -0.3
v -0.1148234 0.3000001 -0.2771662
v -0.1148234 -0.2999997 -0.2771662
v -0.2121408 0.3000001 -0.2121408
v -0.2121408 -0.2999997 -0.2121408
v -0.2771662 0.3000001 -0.1148236
v -0.2771662 -0.2999997 -0.1148236
v -0.3 0.3000001 -3.004074E-05
v -0.3 -0.2999997 -3.004074E-05
v -0.3 -0.2999997 0.06015901
v -0.3 0.3000001 0.06015901
v 0.3 -0.2999997 0.06015901
v 0.3 0.3000001 0.06015901
v 0.3 0.3000001 -0.3
v 0.3 -0.2999997 -0.3
v -0.3 -0.2999997 -3.004074E-05
v -0.3 -0.2999997 0.06015901
v 0.3 -0.2999997 0.06015901
v -0.2771662 -0.2999997 -0.1148236
v -0.2121408 -0.2999997 -0.2121408
v -0.1148234 -0.2999997 -0.2771662
v -3.004074E-05 -0.2999997 -0.3
v 0.3 -0.2999997 -0.3
v 0.3 0.3000001 0.06015901
v -0.3 0.3000001 0.06015901
v -0.3 0.3000001 -3.004074E-05
v -0.2771662 0.3000001 -0.1148236
v -0.2121408 0.3000001 -0.2121408
v -0.1148234 0.3000001 -0.2771662
v -3.004074E-05 0.3000001 -0.3
v 0.3 0.3000001 -0.3
v 5.75542 -0.2999997 -0.3
v 5.455389 0.3000001 -0.3
v 5.455389 -0.2999997 -0.3
v 5.75542 0.3000001 -0.3
v 5.870214 0.3000001 -0.2771662
v 5.870214 -0.2999997 -0.2771662
v 5.96753 0.3000001 -0.2121408
v 5.96753 -0.2999997 -0.2121408
v 6.032556 0.3000001 -0.1148236
v 6.032556 -0.2999997 -0.1148236
v 6.055389 0.3000001 -3.004074E-05
v 6.055389 -0.2999997 -3.004074E-05
v 6.055389 -0.2999997 0.06015901
v 6.055389 0.3000001 0.06015901
v 5.455389 -0.2999997 0.06015901
v 5.455389 -0.2999997 -0.3
v 5.455389 0.3000001 -0.3
v 5.455389 0.3000001 0.06015901
v 6.055389 -0.2999997 -3.004074E-05
v 5.455389 -0.2999997 0.06015901
v 6.055389 -0.2999997 0.06015901
v 6.032556 -0.2999997 -0.1148236
v 5.96753 -0.2999997 -0.2121408
v 5.870214 -0.2999997 -0.2771662
v 5.75542 -0.2999997 -0.3
v 5.455389 -0.2999997 -0.3
v 5.455389 0.3000001 0.06015901
v 6.055389 0.3000001 -3.004074E-05
v 6.055389 0.3000001 0.06015901
v 6.032556 0.3000001 -0.1148236
v 5.96753 0.3000001 -0.2121408
v 5.870214 0.3000001 -0.2771662
v 5.75542 0.3000001 -0.3
v 5.455389 0.3000001 -0.3
vt 0.6630859 0.09863281
vt 0.6630859 0.07989502
vt 0.6259766 0.07995605
vt 0.6259766 0.09863281
vt 0.6259766 0.105957
vt 0.6630859 0.105957
vt 0.6259766 0.1132813
vt 0.6630859 0.1132813
vt 0.6259766 0.1205444
vt 0.6630859 0.1205444
vt 0.6259766 0.1278076
vt 0.6630859 0.1278076
vt 0.6630859 0.1315918
vt 0.6259766 0.1315918
vt 0.6630859 0.0574646
vt 0.6259766 0.0574646
vt 0.6259766 0.07995605
vt 0.6630859 0.07989502
vt 0.6821289 0.1173706
vt 0.6855469 0.1173706
vt 0.6855469 0.07989502
vt 0.6748047 0.1159668
vt 0.6689453 0.1118774
vt 0.6645508 0.105835
vt 0.6630859 0.09863281
vt 0.6630859 0.07989502
vt 0.6035156 0.07995605
vt 0.6035156 0.1173706
vt 0.6069336 0.1173706
vt 0.6142578 0.1159668
vt 0.6201172 0.1118774
vt 0.6245117 0.105835
vt 0.6259766 0.09863281
vt 0.6259766 0.07995605
vt 0.8671875 0.04119873
vt 0.9047852 0.0224762
vt 0.8671875 0.0224762
vt 0.9047852 0.04119873
vt 0.9047852 0.04849243
vt 0.8671875 0.04849243
vt 0.9047852 0.05581665
vt 0.8671875 0.05581665
vt 0.9047852 0.06311035
vt 0.8671875 0.06311035
vt 0.9047852 0.07043457
vt 0.8671875 0.07043457
vt 0.8671875 0.07415771
vt 0.9047852 0.07415771
vt 0.8671875 0
vt 0.8671875 0.0224762
vt 0.9047852 0.0224762
vt 0.9047852 5.304813E-06
vt 0.8486328 0.05990601
vt 0.8447266 0.0224762
vt 0.8447266 0.05990601
vt 0.8554688 0.0585022
vt 0.8618164 0.05444336
vt 0.8657227 0.04837036
vt 0.8671875 0.04119873
vt 0.8671875 0.0224762
vt 0.9272461 0.0224762
vt 0.9233398 0.05993652
vt 0.9272461 0.05993652
vt 0.9160156 0.0585022
vt 0.9101563 0.05444336
vt 0.9057617 0.04837036
vt 0.9047852 0.04119873
vt 0.9047852 0.0224762
vn -0.05496216 0 -0.9985352
vn 0 0 -1
vn 0 0 -1
vn -0.05496216 0 -0.9985352
vn -0.3825684 0 -0.9238281
vn -0.3825684 0 -0.9238281
vn -0.7070313 0 -0.7070313
vn -0.7070313 0 -0.7070313
vn -0.9238281 0 -0.3825684
vn -0.9238281 0 -0.3825684
vn -0.9916992 0 -0.1293945
vn -0.9916992 0 -0.1293945
vn -1 0 0
vn -1 0 0
vn 1 0 0
vn 1 0 0
vn 1 0 0
vn 1 0 0
vn 0 -1 0
vn 0 -1 0
vn 0 -1 0
vn 0 -1 0
vn 0 -1 0
vn 0 -1 0
vn 0 -1 0
vn 0 -1 0
vn 0 1 0
vn 0 1 0
vn 0 1 0
vn 0 1 0
vn 0 1 0
vn 0 1 0
vn 0 1 0
vn 0 1 0
vn 0.05496216 0 -0.9985352
vn 0 0 -1
vn 0 0 -1
vn 0.05496216 0 -0.9985352
vn 0.3825684 0 -0.9238281
vn 0.3825684 0 -0.9238281
vn 0.7070313 0 -0.7070313
vn 0.7070313 0 -0.7070313
vn 0.9238281 0 -0.3825684
vn 0.9238281 0 -0.3825684
vn 0.9916992 0 -0.1293945
vn 0.9916992 0 -0.1293945
vn 1 0 0
vn 1 0 0
vn -1 0 0
vn -1 0 0
vn -1 0 0
vn -1 0 0
vn 0 -1 0
vn 0 -1 0
vn 0 -1 0
vn 0 -1 0
vn 0 -1 0
vn 0 -1 0
vn 0 -1 0
vn 0 -1 0
vn 0 1 0
vn 0 1 0
vn 0 1 0
vn 0 1 0
vn 0 1 0
vn 0 1 0
vn 0 1 0
vn 0 1 0
g Console6_0
f 3/3/3 2/2/2 1/1/1
f 4/4/4 3/3/3 1/1/1
f 4/4/4 1/1/1 5/5/5
f 1/1/1 6/6/6 5/5/5
f 5/5/5 6/6/6 7/7/7
f 6/6/6 8/8/8 7/7/7
f 7/7/7 8/8/8 9/9/9
f 8/8/8 10/10/10 9/9/9
f 9/9/9 10/10/10 11/11/11
f 10/10/10 12/12/12 11/11/11
f 12/12/12 13/13/13 11/11/11
f 13/13/13 14/14/14 11/11/11
f 17/17/17 16/16/16 15/15/15
f 18/18/18 17/17/17 15/15/15
f 21/21/21 20/20/20 19/19/19
f 21/21/21 19/19/19 22/22/22
f 21/21/21 22/22/22 23/23/23
f 21/21/21 23/23/23 24/24/24
f 21/21/21 24/24/24 25/25/25
f 21/21/21 25/25/25 26/26/26
f 29/29/29 28/28/28 27/27/27
f 30/30/30 29/29/29 27/27/27
f 31/31/31 30/30/30 27/27/27
f 31/31/31 27/27/27 32/32/32
f 27/27/27 33/33/33 32/32/32
f 27/27/27 34/34/34 33/33/33
f 37/37/37 36/36/36 35/35/35
f 36/36/36 38/38/38 35/35/35
f 35/35/35 38/38/38 39/39/39
f 40/40/40 35/35/35 39/39/39
f 40/40/40 39/39/39 41/41/41
f 42/42/42 40/40/40 41/41/41
f 42/42/42 41/41/41 43/43/43
f 44/44/44 42/42/42 43/43/43
f 44/44/44 43/43/43 45/45/45
f 46/46/46 44/44/44 45/45/45
f 47/47/47 46/46/46 45/45/45
f 48/48/48 47/47/47 45/45/45
f 51/51/51 50/50/50 49/49/49
f 52/52/52 51/51/51 49/49/49
f 55/55/55 54/54/54 53/53/53
f 53/53/53 54/54/54 56/56/56
f 56/56/56 54/54/54 57/57/57
f 57/57/57 54/54/54 58/58/58
f 58/58/58 54/54/54 59/59/59
f 59/59/59 54/54/54 60/60/60
f 63/63/63 62/62/62 61/61/61
f 62/62/62 64/64/64 61/61/61
f 64/64/64 65/65/65 61/61/61
f 61/61/61 65/65/65 66/66/66
f 67/67/67 61/61/61 66/66/66
f 68/68/68 61/61/61 67/67/67
