g Crystal-LeftSub02
v -0.0104005 -0.00091425 -0.0006421062
v -0.01049153 -0.0008047889 -0.0005146062
v -0.01054094 -0.0009375475 -0.0005146062
v -0.01054094 -0.0009375474 0.0005146057
v -0.01049153 -0.0008047887 0.0005146057
v -0.0104005 -0.0009142497 0.0006421055
v -0.008655373 -0.003548413 -0.0005146057
v -0.0104005 -0.00091425 -0.0006421062
v -0.008532466 -0.003500826 -0.0006421056
v -0.008655373 -0.003548413 0.0005146062
v -0.008532466 -0.003500826 0.0006421061
v -0.006563385 -0.002834114 0.0006421058
v -0.008459958 -0.003610886 0.0005146062
v -0.008655373 -0.003548413 0.0005146062
v -0.008655373 -0.003548413 -0.0005146057
v -0.008459958 -0.003610886 -0.0005146057
v -0.008532466 -0.003500826 -0.0006421056
v -0.006563385 -0.002834114 -0.0006421058
v -0.006496377 -0.002946037 -0.0005146058
v -0.006496377 -0.002946037 0.0005146059
v -0.004789501 -0.001348084 -0.000514606
v -0.004841213 -0.001221841 -0.0006421061
v 0.001997603 -0.001050209 -0.0006421062
v -0.004789501 -0.001348083 0.0005146057
v 0.001989101 -0.001177963 -0.000514606
v 0.00528991 -0.001574756 -0.0006421061
v -0.004841213 -0.001221841 0.0006421055
v 0.001997603 -0.001050209 0.0006421055
v 0.001989101 -0.001177963 0.0005146057
v 0.005313348 -0.001707599 -0.000514606
v -0.0009015465 0.001336445 0.0006421053
v 0.006529694 -0.001031581 -0.0005146062
v 0.006483763 -0.0009112405 -0.0006421062
v 0.005313348 -0.001707598 0.0005146059
v 0.00528991 -0.001574756 0.0006421058
v -0.001028404 0.001437417 0.0005146054
v -0.01049153 -0.0008047887 0.0005146057
v -0.01049153 -0.0008047889 -0.0005146062
v -0.001028404 0.001437417 -0.0005146065
v -0.0104005 -0.00091425 -0.0006421062
v -0.0009015465 0.001336444 -0.0006421066
v 0.001466869 0.00265158 0.0005146051
v 0.001466869 0.00265158 -0.0005146067
v 0.001487783 0.002498221 -0.0006421067
v 0.002169167 0.003602361 -0.0006421069
v 0.002072845 0.003635435 -0.0005146069
v 0.002072845 0.003635435 0.0005146049
v 0.002169167 0.003602361 0.0006421048
v 0.001487783 0.002498221 0.000642105
v 0.003562896 0.00319093 0.0006421048
v 0.003854757 0.0009863465 0.0006421053
v 0.002261993 0.003707898 0.0005146049
v 0.002072845 0.003635435 0.0005146049
v 0.002261993 0.003707898 -0.0005146069
v 0.002072845 0.003635435 -0.0005146069
v 0.002169167 0.003602361 -0.0006421069
v 0.003562896 0.00319093 -0.0006421067
v 0.00355614 0.003325863 -0.0005146067
v 0.00355614 0.003325863 0.0005146049
v 0.003695156 0.003163368 0.0005146049
v 0.00355614 0.003325863 0.0005146049
v 0.003977372 0.001031648 0.0005146054
v 0.006391355 -0.0001989851 0.0006421055
v 0.006422404 -0.0001123648 0.0005146057
v 0.003977372 0.001031647 -0.0005146064
v 0.006483763 -0.0009112403 0.0006421055
v 0.006554143 -0.0002928584 0.0005146057
v 0.006529694 -0.001031581 0.0005146057
v 0.006624884 -0.0008431833 0.0005146057
v 0.006554143 -0.0002928585 -0.0005146063
v 0.006624884 -0.0008431834 -0.0005146062
v 0.006391355 -0.0001989853 -0.0006421063
v 0.003854757 0.0009863463 -0.0006421064
v 0.006422404 -0.0001123648 -0.0005146063
v 0.001487783 0.002498221 -0.0006421067
v 0.003562896 0.00319093 -0.0006421067
v 0.002169167 0.003602361 -0.0006421069
v 0.003854757 0.0009863463 -0.0006421064
v 0.001997603 -0.001050209 -0.0006421062
v 0.006391355 -0.0001989853 -0.0006421063
v -0.0009015465 0.001336444 -0.0006421066
v 0.00528991 -0.001574756 -0.0006421061
v 0.006483763 -0.0009112405 -0.0006421062
v -0.004841213 -0.001221841 -0.0006421061
v -0.0104005 -0.00091425 -0.0006421062
v -0.006563385 -0.002834114 -0.0006421058
v -0.008532466 -0.003500826 -0.0006421056
v 0.003695157 0.003163368 -0.0005146067
v 0.003977372 0.001031647 -0.0005146064
v 0.003977372 0.001031648 0.0005146054
v 0.003695156 0.003163368 0.0005146049
v 0.003854757 0.0009863463 -0.0006421064
v 0.00355614 0.003325863 0.0005146049
v 0.003562896 0.00319093 -0.0006421067
v 0.00355614 0.003325863 -0.0005146067
vt 0.913238 0.2565439
vt 0.9123157 0.2579422
vt 0.913554 0.2581911
vt 0.9111543 0.2667553
vt 0.9099564 0.2666705
vt 0.9109158 0.2683462
vt 0.9400396 0.2673586
vt 0.9146367 0.2568949
vt 0.940875 0.2659823
vt 0.9365725 0.275781
vt 0.936206 0.2773005
vt 0.9338862 0.2944412
vt 0.937677 0.277815
vt 0.9376927 0.2760694
vt 0.9468198 0.2769775
vt 0.9464282 0.2787264
vt 0.9480176 0.2784803
vt 0.9452075 0.2960567
vt 0.9436755 0.2958831
vt 0.9352693 0.2947911
vt 0.9376241 0.3147097
vt 0.9391235 0.3145675
vt 0.9500205 0.3712312
vt 0.9281511 0.3145066
vt 0.9484637 0.3714476
vt 0.9594668 0.399662
vt 0.9263794 0.3144011
vt 0.9379224 0.3731874
vt 0.9395238 0.3728678
vt 0.9580899 0.3995709
vt 0.9123242 0.3541997
vt 0.9521609 0.4126703
vt 0.9527825 0.4141805
vt 0.9501499 0.3987583
vt 0.9486777 0.3988172
vt 0.9107302 0.3532286
vt 0.9093658 0.2677363
vt 0.9005094 0.2673927
vt 0.9017643 0.3521679
vt 0.8989466 0.2678789
vt 0.9001567 0.3527529
vt 0.9046716 0.3781739
vt 0.8957621 0.3747178
vt 0.8944687 0.3735623
vt 0.8902426 0.3836555
vt 0.8916557 0.3838682
vt 0.8989571 0.3863901
vt 0.8997367 0.3871482
vt 0.906562 0.3781957
vt 0.9064744 0.3980782
vt 0.9250908 0.395143
vt 0.8987978 0.3885657
vt 0.8980089 0.3869793
vt 0.8913262 0.3932763
vt 0.8902563 0.391912
vt 0.8896651 0.3934717
vt 0.8959233 0.4044155
vt 0.897118 0.40332
vt 0.9049852 0.3986365
vt 0.9072098 0.3995342
vt 0.9053469 0.3996803
vt 0.925186 0.3967216
vt 0.940914 0.4076162
vt 0.9405499 0.4086934
vt 0.9205831 0.4067542
vt 0.9457985 0.4070328
vt 0.942122 0.408831
vt 0.9469095 0.4073569
vt 0.945911 0.4082566
vt 0.9443926 0.4159773
vt 0.9504828 0.4137607
vt 0.9427109 0.4179172
vt 0.9194427 0.4077827
vt 0.9423173 0.4165294
vt 0.9810015 0.8421172
vt 0.9840523 0.848963
vt 0.9849926 0.8440741
vt 0.976632 0.8506899
vt 0.9690713 0.8450335
vt 0.9734324 0.8597327
vt 0.9762469 0.8343558
vt 0.9683756 0.8564337
vt 0.9710343 0.8602842
vt 0.9662159 0.8217715
vt 0.9654194 0.8027135
vt 0.9601467 0.8164345
vt 0.9572197 0.8099416
vt 0.6353122 0.1958037
vt 0.635291 0.1775301
vt 0.6263107 0.1774807
vt 0.6265931 0.1962447
vt 0.6368443 0.1773133
vt 0.6267564 0.1981088
vt 0.6368443 0.1963013
vt 0.6356035 0.197581
vn -0.3945757 0.1468689 -0.9070499
vn -0.6142971 0.6978983 -0.3682079
vn -0.921114 -0.1263847 -0.3682064
vn -0.9211138 -0.1263845 0.3682067
vn -0.6142971 0.6978983 0.368208
vn -0.3945754 0.1468696 0.90705
vn -0.5726492 -0.7470976 -0.3375174
vn -0.3945757 0.1468689 -0.9070499
vn -0.1517711 -0.4747411 -0.8669409
vn -0.572649 -0.747098 0.337517
vn -0.1517713 -0.4747411 0.8669409
vn 0.2155069 -0.3599579 0.9077374
vn 0.0330591 -0.9407389 0.3375166
vn -0.572649 -0.747098 0.337517
vn -0.5726492 -0.7470976 -0.3375174
vn 0.03305866 -0.940739 -0.3375164
vn -0.1517711 -0.4747411 -0.8669409
vn 0.2155066 -0.3599581 -0.9077374
vn 0.4771312 -0.7969462 -0.3704357
vn 0.4771314 -0.7969461 0.3704356
vn 0.3412118 -0.8329962 -0.4355361
vn 0.1162309 -0.2837538 -0.9518268
vn -0.02406473 -0.3615992 -0.932023
vn 0.3412118 -0.832996 0.4355366
vn -0.06109502 -0.9180216 -0.3917955
vn 0.07524601 -0.4264884 -0.9013577
vn 0.1162301 -0.2837538 0.9518269
vn -0.02406472 -0.3615979 0.9320235
vn -0.06109503 -0.9180211 0.3917968
vn 0.1615196 -0.9154745 -0.3685346
vn -0.1226106 0.3155517 0.9409537
vn 0.6639502 -0.663216 -0.3454194
vn 0.4119192 -0.2290896 -0.8819526
vn 0.1615196 -0.9154744 0.3685351
vn 0.07524604 -0.4264877 0.901358
vn -0.2954137 0.8647313 0.4061658
vn -0.6142971 0.6978983 0.368208
vn -0.6142971 0.6978983 -0.3682079
vn -0.2954138 0.8647311 -0.406166
vn -0.3945757 0.1468689 -0.9070499
vn -0.1226107 0.3155515 -0.9409537
vn -0.6471868 0.6543628 0.3910992
vn -0.647187 0.654363 -0.3910986
vn -0.1931158 0.2450145 -0.9500917
vn -0.222054 0.4956653 -0.8396475
vn -0.6297083 0.7225742 -0.2852262
vn -0.6297107 0.722576 0.2852162
vn -0.2218559 0.4954359 0.8398353
vn -0.1931154 0.2450143 0.9500917
vn 0.3784673 0.3237829 0.8671374
vn 0.330012 0.2195219 0.9180971
vn -0.002224991 0.9445968 0.3282254
vn -0.6297107 0.722576 0.2852162
vn -0.002225058 0.9445968 -0.3282252
vn -0.6297083 0.7225742 -0.2852262
vn -0.222054 0.4956653 -0.8396475
vn 0.3784664 0.323783 -0.8671376
vn 0.4902086 0.8032443 -0.3383697
vn 0.4902089 0.8032441 0.3383698
vn 0.8694462 0.3599573 0.3383697
vn 0.4902089 0.8032441 0.3383698
vn 0.7088009 0.5678684 0.4184814
vn 0.3891975 0.3474837 0.8531005
vn 0.6005758 0.747224 0.2845435
vn 0.7087929 0.5678511 -0.4185186
vn 0.4119194 -0.2290894 0.8819526
vn 0.876373 0.3116422 0.3672187
vn 0.6639494 -0.6632169 0.3454193
vn 0.9195062 -0.131612 0.3703872
vn 0.8762138 0.3117632 -0.3674956
vn 0.9195508 -0.1316329 -0.3702688
vn 0.389105 0.3472416 -0.8532413
vn 0.3300099 0.2195249 -0.9180971
vn 0.600595 0.7472734 -0.284373
vn -0.1931158 0.2450145 -0.9500917
vn 0.3784664 0.323783 -0.8671376
vn -0.222054 0.4956653 -0.8396475
vn 0.3300099 0.2195249 -0.9180971
vn -0.02406473 -0.3615992 -0.932023
vn 0.389105 0.3472416 -0.8532413
vn -0.1226107 0.3155515 -0.9409537
vn 0.07524601 -0.4264884 -0.9013577
vn 0.4119192 -0.2290896 -0.8819526
vn 0.1162309 -0.2837538 -0.9518268
vn -0.3945757 0.1468689 -0.9070499
vn 0.2155066 -0.3599581 -0.9077374
vn -0.1517711 -0.4747411 -0.8669409
vn 0.869446 0.3599575 -0.3383699
vn 0.7087929 0.5678511 -0.4185186
vn 0.7088009 0.5678684 0.4184814
vn 0.8694462 0.3599573 0.3383697
vn 0.3300099 0.2195249 -0.9180971
vn 0.4902089 0.8032441 0.3383698
vn 0.3784664 0.323783 -0.8671376
vn 0.4902086 0.8032443 -0.3383697
g Crystal-LeftSub02_0
f 3/3/3 2/2/2 1/1/1
f 3/3/3 4/4/4 2/2/2
f 4/4/4 5/5/5 2/2/2
f 5/5/5 4/4/4 6/6/6
f 4/4/4 3/3/3 7/7/7
f 7/7/7 3/3/3 8/8/8
f 9/9/9 7/7/7 8/8/8
f 10/10/10 4/4/4 7/7/7
f 6/6/6 4/4/4 10/10/10
f 11/11/11 6/6/6 10/10/10
f 11/11/11 12/12/12 6/6/6
f 12/12/12 11/11/11 13/13/13
f 13/13/13 11/11/11 14/14/14
f 14/14/14 15/15/15 13/13/13
f 15/15/15 16/16/16 13/13/13
f 16/16/16 15/15/15 17/17/17
f 17/17/17 18/18/18 16/16/16
f 13/13/13 16/16/16 19/19/19
f 18/18/18 19/19/19 16/16/16
f 20/20/20 13/13/13 19/19/19
f 20/20/20 12/12/12 13/13/13
f 21/21/21 19/19/19 18/18/18
f 20/20/20 19/19/19 21/21/21
f 22/22/22 21/21/21 18/18/18
f 22/22/22 23/23/23 21/21/21
f 12/12/12 20/20/20 24/24/24
f 24/24/24 20/20/20 21/21/21
f 23/23/23 25/25/25 21/21/21
f 24/24/24 21/21/21 25/25/25
f 23/23/23 26/26/26 25/25/25
f 27/27/27 12/12/12 24/24/24
f 27/27/27 24/24/24 28/28/28
f 12/12/12 27/27/27 6/6/6
f 29/29/29 24/24/24 25/25/25
f 24/24/24 29/29/29 28/28/28
f 26/26/26 30/30/30 25/25/25
f 29/29/29 25/25/25 30/30/30
f 31/31/31 6/6/6 27/27/27
f 31/31/31 27/27/27 28/28/28
f 30/30/30 26/26/26 32/32/32
f 26/26/26 33/33/33 32/32/32
f 34/34/34 29/29/29 30/30/30
f 34/34/34 30/30/30 32/32/32
f 34/34/34 35/35/35 29/29/29
f 35/35/35 28/28/28 29/29/29
f 6/6/6 31/31/31 36/36/36
f 37/37/37 6/6/6 36/36/36
f 37/37/37 36/36/36 38/38/38
f 36/36/36 39/39/39 38/38/38
f 40/40/40 38/38/38 39/39/39
f 41/41/41 40/40/40 39/39/39
f 42/42/42 36/36/36 31/31/31
f 39/39/39 36/36/36 42/42/42
f 41/41/41 39/39/39 43/43/43
f 43/43/43 39/39/39 42/42/42
f 44/44/44 41/41/41 43/43/43
f 45/45/45 44/44/44 43/43/43
f 46/46/46 45/45/45 43/43/43
f 46/46/46 43/43/43 47/47/47
f 43/43/43 42/42/42 47/47/47
f 47/47/47 42/42/42 48/48/48
f 49/49/49 42/42/42 31/31/31
f 42/42/42 49/49/49 48/48/48
f 49/49/49 31/31/31 28/28/28
f 48/48/48 49/49/49 50/50/50
f 28/28/28 51/51/51 49/49/49
f 50/50/50 49/49/49 51/51/51
f 52/52/52 48/48/48 50/50/50
f 53/53/53 48/48/48 52/52/52
f 52/52/52 54/54/54 53/53/53
f 54/54/54 55/55/55 53/53/53
f 56/56/56 55/55/55 54/54/54
f 57/57/57 56/56/56 54/54/54
f 58/58/58 57/57/57 54/54/54
f 58/58/58 54/54/54 59/59/59
f 54/54/54 52/52/52 59/59/59
f 59/59/59 52/52/52 50/50/50
f 50/50/50 51/51/51 60/60/60
f 60/60/60 61/61/61 50/50/50
f 51/51/51 62/62/62 60/60/60
f 63/63/63 51/51/51 28/28/28
f 62/62/62 51/51/51 63/63/63
f 63/63/63 28/28/28 35/35/35
f 64/64/64 62/62/62 63/63/63
f 62/62/62 64/64/64 65/65/65
f 66/66/66 63/63/63 35/35/35
f 63/63/63 67/67/67 64/64/64
f 63/63/63 66/66/66 67/67/67
f 68/68/68 66/66/66 35/35/35
f 34/34/34 68/68/68 35/35/35
f 68/68/68 34/34/34 32/32/32
f 68/68/68 69/69/69 66/66/66
f 66/66/66 69/69/69 67/67/67
f 69/69/69 68/68/68 32/32/32
f 64/64/64 67/67/67 70/70/70
f 70/70/70 67/67/67 69/69/69
f 71/71/71 69/69/69 32/32/32
f 71/71/71 70/70/70 69/69/69
f 71/71/71 32/32/32 33/33/33
f 70/70/70 71/71/71 33/33/33
f 72/72/72 70/70/70 33/33/33
f 72/72/72 73/73/73 65/65/65
f 64/64/64 74/74/74 65/65/65
f 74/74/74 64/64/64 70/70/70
f 70/70/70 72/72/72 74/74/74
f 74/74/74 72/72/72 65/65/65
f 77/77/77 76/76/76 75/75/75
f 75/75/75 76/76/76 78/78/78
f 75/75/75 78/78/78 79/79/79
f 80/80/80 79/79/79 78/78/78
f 75/75/75 79/79/79 81/81/81
f 82/82/82 79/79/79 80/80/80
f 83/83/83 82/82/82 80/80/80
f 79/79/79 84/84/84 81/81/81
f 81/81/81 84/84/84 85/85/85
f 86/86/86 85/85/85 84/84/84
f 87/87/87 85/85/85 86/86/86
f 90/90/90 89/89/89 88/88/88
f 91/91/91 90/90/90 88/88/88
f 89/89/89 92/92/92 88/88/88
f 93/93/93 91/91/91 88/88/88
f 92/92/92 94/94/94 88/88/88
f 95/95/95 93/93/93 88/88/88
f 95/95/95 88/88/88 94/94/94
