g crystal_flower_marker_V4_L0
v 0 0.03711305 0
v 0 0.08602957 0.02
v 0.01996069 0.08602957 0
v 0.03711305 1.47054E-16 0
v 0.08602957 0 0.01999999
v 0.08602957 -0.01996069 0
v 0 0.18 0
v 0 0.08602957 0.02
v -0.01996071 0.08602955 0
v 0.18 7.132187E-16 0
v 0.08602957 0 0.01999999
v 0.08602955 0.01996071 0
v 0 -0.18 0
v 0 -0.08602957 0.01999998
v 0.01996071 -0.08602955 0
v -0.03711305 1.47054E-16 0
v -0.08602957 0 0.01999999
v -0.08602957 0.01996069 0
v -0.18 7.132186E-16 0
v -0.08602957 0 0.01999999
v -0.08602955 -0.01996071 0
v 0.107405 0.107405 0
v 0.08732861 0.08732861 0.009999983
v 0.0791363 0.09552091 0
v 0.04876108 0.04876109 0
v 0.08732861 0.08732861 0.009999983
v 0.09552092 0.0791363 0
v 0.107405 -0.107405 0
v 0.08732861 -0.08732861 0.009999961
v 0.09552091 -0.07913631 0
v 0.04876109 -0.04876108 0
v 0.08732861 -0.08732861 0.009999961
v 0.0791363 -0.09552092 0
v -0.04876108 -0.04876108 0
v -0.08732862 -0.08732861 0.009999961
v -0.09552093 -0.07913629 0
v -0.04876108 0.04876108 0
v -0.0873286 0.08732863 0.009999983
v -0.07913628 0.09552094 0
v 0 -0.03711305 0
v 0 -0.08602957 0.01999998
v -0.01996069 -0.08602957 0
v -0.107405 -0.107405 0
v -0.08732862 -0.08732861 0.009999961
v -0.07913631 -0.09552091 0
v -0.107405 0.107405 0
v -0.0873286 0.08732863 0.009999983
v -0.09552091 0.07913631 0
v -0.01996071 0.08602955 0
v 0 0.08602957 0.02
v 0 0.03711305 0
v 0.01996069 0.08602957 0
v 0 0.08602957 0.02
v 0 0.18 0
v 0.0791363 0.09552091 0
v 0.08732861 0.08732861 0.009999983
v 0.04876108 0.04876109 0
v 0.09552092 0.0791363 0
v 0.08732861 0.08732861 0.009999983
v 0.107405 0.107405 0
v -0.09552091 0.07913631 0
v -0.0873286 0.08732863 0.009999983
v -0.04876108 0.04876108 0
v -0.07913628 0.09552094 0
v -0.0873286 0.08732863 0.009999983
v -0.107405 0.107405 0
v -0.08602955 -0.01996071 0
v -0.08602957 0 0.01999999
v -0.03711305 1.47054E-16 0
v -0.08602957 0.01996069 0
v -0.08602957 0 0.01999999
v -0.18 7.132186E-16 0
v -0.07913631 -0.09552091 0
v -0.08732862 -0.08732861 0.009999961
v -0.04876108 -0.04876108 0
v -0.09552093 -0.07913629 0
v -0.08732862 -0.08732861 0.009999961
v -0.107405 -0.107405 0
v 0.01996071 -0.08602955 0
v 0 -0.08602957 0.01999998
v 0 -0.03711305 0
v -0.01996069 -0.08602957 0
v 0 -0.08602957 0.01999998
v 0 -0.18 0
v 0.09552091 -0.07913631 0
v 0.08732861 -0.08732861 0.009999961
v 0.04876109 -0.04876108 0
v 0.0791363 -0.09552092 0
v 0.08732861 -0.08732861 0.009999961
v 0.107405 -0.107405 0
v 0.08602955 0.01996071 0
v 0.08602957 0 0.01999999
v 0.03711305 1.47054E-16 0
v 0.08602957 -0.01996069 0
v 0.08602957 0 0.01999999
v 0.18 7.132187E-16 0
v 0 0.03711305 0
v 0.01996069 0.08602957 0
v 0 0.08602957 -0.02
v 0.03711305 1.47054E-16 0
v 0.08602957 -0.01996069 0
v 0.08602957 0 -0.01999999
v 0 0.18 0
v -0.01996071 0.08602955 0
v 0 0.08602957 -0.02
v 0.18 7.132187E-16 0
v 0.08602955 0.01996071 0
v 0.08602957 0 -0.01999999
v 0 -0.18 0
v 0.01996071 -0.08602955 0
v 0 -0.08602957 -0.01999998
v -0.03711305 1.47054E-16 0
v -0.08602957 0.01996069 0
v -0.08602957 0 -0.01999999
v -0.18 7.132186E-16 0
v -0.08602955 -0.01996071 0
v -0.08602957 0 -0.01999999
v 0.107405 0.107405 0
v 0.0791363 0.09552091 0
v 0.08732861 0.08732861 -0.009999983
v 0.04876108 0.04876109 0
v 0.09552092 0.0791363 0
v 0.08732861 0.08732861 -0.009999983
v 0.107405 -0.107405 0
v 0.09552091 -0.07913631 0
v 0.08732861 -0.08732861 -0.009999961
v 0.04876109 -0.04876108 0
v 0.0791363 -0.09552092 0
v 0.08732861 -0.08732861 -0.009999961
v -0.04876108 -0.04876108 0
v -0.09552093 -0.07913629 0
v -0.08732862 -0.08732861 -0.009999961
v -0.04876108 0.04876108 0
v -0.07913628 0.09552094 0
v -0.0873286 0.08732863 -0.009999983
v 0 -0.03711305 0
v -0.01996069 -0.08602957 0
v 0 -0.08602957 -0.01999998
v -0.107405 -0.107405 0
v -0.07913631 -0.09552091 0
v -0.08732862 -0.08732861 -0.009999961
v -0.107405 0.107405 0
v -0.09552091 0.07913631 0
v -0.0873286 0.08732863 -0.009999983
v -0.01996071 0.08602955 0
v 0 0.03711305 0
v 0 0.08602957 -0.02
v 0.01996069 0.08602957 0
v 0 0.18 0
v 0 0.08602957 -0.02
v 0.0791363 0.09552091 0
v 0.04876108 0.04876109 0
v 0.08732861 0.08732861 -0.009999983
v 0.09552092 0.0791363 0
v 0.107405 0.107405 0
v 0.08732861 0.08732861 -0.009999983
v -0.09552091 0.07913631 0
v -0.04876108 0.04876108 0
v -0.0873286 0.08732863 -0.009999983
v -0.07913628 0.09552094 0
v -0.107405 0.107405 0
v -0.0873286 0.08732863 -0.009999983
v -0.08602955 -0.01996071 0
v -0.03711305 1.47054E-16 0
v -0.08602957 0 -0.01999999
v -0.08602957 0.01996069 0
v -0.18 7.132186E-16 0
v -0.08602957 0 -0.01999999
v -0.07913631 -0.09552091 0
v -0.04876108 -0.04876108 0
v -0.08732862 -0.08732861 -0.009999961
v -0.09552093 -0.07913629 0
v -0.107405 -0.107405 0
v -0.08732862 -0.08732861 -0.009999961
v 0.01996071 -0.08602955 0
v 0 -0.03711305 0
v 0 -0.08602957 -0.01999998
v -0.01996069 -0.08602957 0
v 0 -0.18 0
v 0 -0.08602957 -0.01999998
v 0.09552091 -0.07913631 0
v 0.04876109 -0.04876108 0
v 0.08732861 -0.08732861 -0.009999961
v 0.0791363 -0.09552092 0
v 0.107405 -0.107405 0
v 0.08732861 -0.08732861 -0.009999961
v 0.08602955 0.01996071 0
v 0.03711305 1.47054E-16 0
v 0.08602957 0 -0.01999999
v 0.08602957 -0.01996069 0
v 0.18 7.132187E-16 0
v 0.08602957 0 -0.01999999
vt 0.6874225 0.01141699
vt 0.6874225 0.1926003
vt 0.7613552 0.1926003
vt 0.08545706 0.5406554
vt 0.08545705 0.3594719
vt 0.01152405 0.3594719
vt 0.6874225 0.54066
vt 0.6874225 0.1926003
vt 0.6134894 0.1926002
vt 0.08545703 0.01141258
vt 0.08545705 0.3594719
vt 0.1593899 0.3594721
vt 0.5746965 0.1198423
vt 0.5746965 0.4679019
vt 0.6486294 0.467902
vt 0.3406155 0.3937886
vt 0.3406155 0.5749717
vt 0.4145485 0.5749717
vt 0.3406155 0.9230312
vt 0.3406155 0.5749717
vt 0.2666825 0.5749716
vt 0.8833826 0.6277764
vt 0.8833829 0.7292087
vt 0.9247727 0.7292087
vt 0.8833829 0.924064
vt 0.8833829 0.7292087
vt 0.8419926 0.7292086
vt 0.8231809 0.3077049
vt 0.8231809 0.2062729
vt 0.7817906 0.2062731
vt 0.8231808 0.01141792
vt 0.8231809 0.2062729
vt 0.864571 0.2062729
vt 0.4776029 0.4793913
vt 0.477603 0.6742462
vt 0.5189931 0.6742462
vt 0.9470901 0.7243116
vt 0.9470901 0.5294566
vt 0.9057 0.5294566
vt 0.5746965 0.6490853
vt 0.5746965 0.4679019
vt 0.5007637 0.4679019
vt 0.4776032 0.7756784
vt 0.477603 0.6742462
vt 0.4362128 0.6742464
vt 0.9470902 0.4280244
vt 0.9470901 0.5294566
vt 0.9884804 0.5294566
vt 0.6134894 0.1926002
vt 0.6874225 0.1926003
vt 0.6874225 0.01141699
vt 0.7613552 0.1926003
vt 0.6874225 0.1926003
vt 0.6874225 0.54066
vt 0.9247727 0.7292087
vt 0.8833829 0.7292087
vt 0.8833829 0.924064
vt 0.8419926 0.7292086
vt 0.8833829 0.7292087
vt 0.8833826 0.6277764
vt 0.9884804 0.5294566
vt 0.9470901 0.5294566
vt 0.9470901 0.7243116
vt 0.9057 0.5294566
vt 0.9470901 0.5294566
vt 0.9470902 0.4280244
vt 0.2666825 0.5749716
vt 0.3406155 0.5749717
vt 0.3406155 0.3937886
vt 0.4145485 0.5749717
vt 0.3406155 0.5749717
vt 0.3406155 0.9230312
vt 0.4362128 0.6742464
vt 0.477603 0.6742462
vt 0.4776029 0.4793913
vt 0.5189931 0.6742462
vt 0.477603 0.6742462
vt 0.4776032 0.7756784
vt 0.6486294 0.467902
vt 0.5746965 0.4679019
vt 0.5746965 0.6490853
vt 0.5007637 0.4679019
vt 0.5746965 0.4679019
vt 0.5746965 0.1198423
vt 0.7817906 0.2062731
vt 0.8231809 0.2062729
vt 0.8231808 0.01141792
vt 0.864571 0.2062729
vt 0.8231809 0.2062729
vt 0.8231809 0.3077049
vt 0.1593899 0.3594721
vt 0.08545705 0.3594719
vt 0.08545706 0.5406554
vt 0.01152405 0.3594719
vt 0.08545705 0.3594719
vt 0.08545703 0.01141258
vt 0.1700469 0.3937882
vt 0.09611413 0.5749716
vt 0.170047 0.5749716
vt 0.2560235 0.540655
vt 0.3299564 0.3594719
vt 0.2560235 0.3594719
vt 0.1700469 0.9230313
vt 0.2439799 0.5749714
vt 0.170047 0.5749716
vt 0.2560235 0.01141247
vt 0.1820905 0.359472
vt 0.2560235 0.3594719
vt 0.426594 0.01141614
vt 0.3526611 0.3594755
vt 0.4265941 0.3594755
vt 0.7908013 0.3310033
vt 0.7168683 0.5121865
vt 0.7908013 0.5121865
vt 0.7908013 0.8602458
vt 0.8647342 0.5121863
vt 0.7908013 0.5121865
vt 0.887234 0.2111622
vt 0.8458437 0.3125945
vt 0.8872338 0.3125945
vt 0.8872338 0.5074498
vt 0.928624 0.3125944
vt 0.8872338 0.3125945
vt 0.5509725 0.6563103
vt 0.5095824 0.7577425
vt 0.5509725 0.7577425
vt 0.5509725 0.9525977
vt 0.5923626 0.7577425
vt 0.5509725 0.7577425
vt 0.05291246 0.5250454
vt 0.01152236 0.7199005
vt 0.05291246 0.7199005
vt 0.6559681 0.5136289
vt 0.614578 0.7084841
vt 0.6559681 0.7084842
vt 0.426594 0.5406587
vt 0.500527 0.3594755
vt 0.4265941 0.3594755
vt 0.0529124 0.8213328
vt 0.09430256 0.7199007
vt 0.05291246 0.7199005
vt 0.6559682 0.8099163
vt 0.6973584 0.7084841
vt 0.6559681 0.7084842
vt 0.2439799 0.5749714
vt 0.1700469 0.3937882
vt 0.170047 0.5749716
vt 0.09611413 0.5749716
vt 0.1700469 0.9230313
vt 0.170047 0.5749716
vt 0.8458437 0.3125945
vt 0.8872338 0.5074498
vt 0.8872338 0.3125945
vt 0.928624 0.3125944
vt 0.887234 0.2111622
vt 0.8872338 0.3125945
vt 0.6973584 0.7084841
vt 0.6559681 0.5136289
vt 0.6559681 0.7084842
vt 0.614578 0.7084841
vt 0.6559682 0.8099163
vt 0.6559681 0.7084842
vt 0.8647342 0.5121863
vt 0.7908013 0.3310033
vt 0.7908013 0.5121865
vt 0.7168683 0.5121865
vt 0.7908013 0.8602458
vt 0.7908013 0.5121865
vt 0.09430256 0.7199007
vt 0.05291246 0.5250454
vt 0.05291246 0.7199005
vt 0.01152236 0.7199005
vt 0.0529124 0.8213328
vt 0.05291246 0.7199005
vt 0.3526611 0.3594755
vt 0.426594 0.5406587
vt 0.4265941 0.3594755
vt 0.500527 0.3594755
vt 0.426594 0.01141614
vt 0.4265941 0.3594755
vt 0.5095824 0.7577425
vt 0.5509725 0.9525977
vt 0.5509725 0.7577425
vt 0.5923626 0.7577425
vt 0.5509725 0.6563103
vt 0.5509725 0.7577425
vt 0.1820905 0.359472
vt 0.2560235 0.540655
vt 0.2560235 0.3594719
vt 0.3299564 0.3594719
vt 0.2560235 0.01141247
vt 0.2560235 0.3594719
vn 0.6800076 -0.2774812 0.6786706
vn 0.6800076 -0.2774812 0.6786706
vn 0.6800076 -0.2774812 0.6786706
vn -0.2774811 -0.6800071 0.678671
vn -0.2774811 -0.6800071 0.678671
vn -0.2774811 -0.6800071 0.678671
vn -0.6999353 0.1486765 0.6985599
vn -0.6999353 0.1486765 0.6985599
vn -0.6999353 0.1486765 0.6985599
vn 0.1486765 0.699935 0.6985601
vn 0.1486765 0.699935 0.6985601
vn 0.1486765 0.699935 0.6985601
vn 0.6999348 -0.1486765 0.6985604
vn 0.6999348 -0.1486765 0.6985604
vn 0.6999348 -0.1486765 0.6985604
vn 0.2774811 0.6800071 0.678671
vn 0.2774811 0.6800071 0.678671
vn 0.2774811 0.6800071 0.678671
vn -0.1486765 -0.699935 0.6985602
vn -0.1486765 -0.699935 0.6985602
vn -0.1486765 -0.699935 0.6985602
vn -0.2642608 0.6285976 0.7314583
vn -0.2642608 0.6285976 0.7314583
vn -0.2642608 0.6285976 0.7314583
vn 0.3604289 -0.554847 0.7498238
vn 0.3604289 -0.554847 0.7498238
vn 0.3604289 -0.554847 0.7498238
vn 0.6285968 0.2642605 0.7314592
vn 0.6285968 0.2642605 0.7314592
vn 0.6285968 0.2642605 0.7314592
vn -0.5548462 -0.3604282 0.7498248
vn -0.5548462 -0.3604282 0.7498248
vn -0.5548462 -0.3604282 0.7498248
vn -0.3604281 0.5548461 0.7498249
vn -0.3604281 0.5548461 0.7498249
vn -0.3604281 0.5548461 0.7498249
vn 0.5548471 0.3604287 0.7498239
vn 0.5548471 0.3604287 0.7498239
vn 0.5548471 0.3604287 0.7498239
vn -0.6800072 0.2774811 0.6786711
vn -0.6800072 0.2774811 0.6786711
vn -0.6800072 0.2774811 0.6786711
vn 0.2642598 -0.6285967 0.7314594
vn 0.2642598 -0.6285967 0.7314594
vn 0.2642598 -0.6285967 0.7314594
vn -0.6285981 -0.2642605 0.7314581
vn -0.6285981 -0.2642605 0.7314581
vn -0.6285981 -0.2642605 0.7314581
vn -0.680007 -0.2774815 0.6786712
vn -0.680007 -0.2774815 0.6786712
vn -0.680007 -0.2774815 0.6786712
vn 0.6999355 0.1486765 0.6985597
vn 0.6999355 0.1486765 0.6985597
vn 0.6999355 0.1486765 0.6985597
vn -0.5548472 0.3604293 0.7498235
vn -0.5548472 0.3604293 0.7498235
vn -0.5548472 0.3604293 0.7498235
vn 0.6285974 -0.2642607 0.7314585
vn 0.6285974 -0.2642607 0.7314585
vn 0.6285974 -0.2642607 0.7314585
vn -0.3604289 -0.5548466 0.7498241
vn -0.3604289 -0.5548466 0.7498241
vn -0.3604289 -0.5548466 0.7498241
vn 0.2642606 0.6285971 0.7314588
vn 0.2642606 0.6285971 0.7314588
vn 0.2642606 0.6285971 0.7314588
vn 0.2774813 -0.6800068 0.6786714
vn 0.2774813 -0.6800068 0.6786714
vn 0.2774813 -0.6800068 0.6786714
vn -0.1486765 0.6999353 0.6985598
vn -0.1486765 0.6999353 0.6985598
vn -0.1486765 0.6999353 0.6985598
vn 0.5548467 -0.3604288 0.749824
vn 0.5548467 -0.3604288 0.749824
vn 0.5548467 -0.3604288 0.749824
vn -0.6285963 0.2642602 0.7314597
vn -0.6285963 0.2642602 0.7314597
vn -0.6285963 0.2642602 0.7314597
vn 0.6800066 0.2774813 0.6786715
vn 0.6800066 0.2774813 0.6786715
vn 0.6800066 0.2774813 0.6786715
vn -0.6999351 -0.1486765 0.6985601
vn -0.6999351 -0.1486765 0.6985601
vn -0.6999351 -0.1486765 0.6985601
vn 0.360429 0.5548466 0.7498241
vn 0.360429 0.5548466 0.7498241
vn 0.360429 0.5548466 0.7498241
vn -0.2642606 -0.6285968 0.7314591
vn -0.2642606 -0.6285968 0.7314591
vn -0.2642606 -0.6285968 0.7314591
vn -0.2774813 0.6800068 0.6786714
vn -0.2774813 0.6800068 0.6786714
vn -0.2774813 0.6800068 0.6786714
vn 0.1486765 -0.6999352 0.6985599
vn 0.1486765 -0.6999352 0.6985599
vn 0.1486765 -0.6999352 0.6985599
vn 0.6800076 -0.2774812 -0.6786706
vn 0.6800076 -0.2774812 -0.6786706
vn 0.6800076 -0.2774812 -0.6786706
vn -0.2774811 -0.6800071 -0.678671
vn -0.2774811 -0.6800071 -0.678671
vn -0.2774811 -0.6800071 -0.678671
vn -0.6999353 0.1486765 -0.6985599
vn -0.6999353 0.1486765 -0.6985599
vn -0.6999353 0.1486765 -0.6985599
vn 0.1486765 0.699935 -0.6985601
vn 0.1486765 0.699935 -0.6985601
vn 0.1486765 0.699935 -0.6985601
vn 0.6999348 -0.1486765 -0.6985604
vn 0.6999348 -0.1486765 -0.6985604
vn 0.6999348 -0.1486765 -0.6985604
vn 0.2774811 0.6800071 -0.678671
vn 0.2774811 0.6800071 -0.678671
vn 0.2774811 0.6800071 -0.678671
vn -0.1486765 -0.699935 -0.6985602
vn -0.1486765 -0.699935 -0.6985602
vn -0.1486765 -0.699935 -0.6985602
vn -0.2642608 0.6285976 -0.7314583
vn -0.2642608 0.6285976 -0.7314583
vn -0.2642608 0.6285976 -0.7314583
vn 0.3604289 -0.554847 -0.7498238
vn 0.3604289 -0.554847 -0.7498238
vn 0.3604289 -0.554847 -0.7498238
vn 0.6285968 0.2642605 -0.7314592
vn 0.6285968 0.2642605 -0.7314592
vn 0.6285968 0.2642605 -0.7314592
vn -0.5548462 -0.3604282 -0.7498248
vn -0.5548462 -0.3604282 -0.7498248
vn -0.5548462 -0.3604282 -0.7498248
vn -0.3604281 0.5548461 -0.7498249
vn -0.3604281 0.5548461 -0.7498249
vn -0.3604281 0.5548461 -0.7498249
vn 0.5548471 0.3604287 -0.7498239
vn 0.5548471 0.3604287 -0.7498239
vn 0.5548471 0.3604287 -0.7498239
vn -0.6800072 0.2774811 -0.6786711
vn -0.6800072 0.2774811 -0.6786711
vn -0.6800072 0.2774811 -0.6786711
vn 0.2642598 -0.6285967 -0.7314594
vn 0.2642598 -0.6285967 -0.7314594
vn 0.2642598 -0.6285967 -0.7314594
vn -0.6285981 -0.2642605 -0.7314581
vn -0.6285981 -0.2642605 -0.7314581
vn -0.6285981 -0.2642605 -0.7314581
vn -0.680007 -0.2774815 -0.6786712
vn -0.680007 -0.2774815 -0.6786712
vn -0.680007 -0.2774815 -0.6786712
vn 0.6999355 0.1486765 -0.6985597
vn 0.6999355 0.1486765 -0.6985597
vn 0.6999355 0.1486765 -0.6985597
vn -0.5548472 0.3604293 -0.7498235
vn -0.5548472 0.3604293 -0.7498235
vn -0.5548472 0.3604293 -0.7498235
vn 0.6285974 -0.2642607 -0.7314585
vn 0.6285974 -0.2642607 -0.7314585
vn 0.6285974 -0.2642607 -0.7314585
vn -0.3604289 -0.5548466 -0.7498241
vn -0.3604289 -0.5548466 -0.7498241
vn -0.3604289 -0.5548466 -0.7498241
vn 0.2642606 0.6285971 -0.7314588
vn 0.2642606 0.6285971 -0.7314588
vn 0.2642606 0.6285971 -0.7314588
vn 0.2774813 -0.6800068 -0.6786714
vn 0.2774813 -0.6800068 -0.6786714
vn 0.2774813 -0.6800068 -0.6786714
vn -0.1486765 0.6999353 -0.6985598
vn -0.1486765 0.6999353 -0.6985598
vn -0.1486765 0.6999353 -0.6985598
vn 0.5548467 -0.3604288 -0.749824
vn 0.5548467 -0.3604288 -0.749824
vn 0.5548467 -0.3604288 -0.749824
vn -0.6285963 0.2642602 -0.7314597
vn -0.6285963 0.2642602 -0.7314597
vn -0.6285963 0.2642602 -0.7314597
vn 0.6800066 0.2774813 -0.6786715
vn 0.6800066 0.2774813 -0.6786715
vn 0.6800066 0.2774813 -0.6786715
vn -0.6999351 -0.1486765 -0.6985601
vn -0.6999351 -0.1486765 -0.6985601
vn -0.6999351 -0.1486765 -0.6985601
vn 0.360429 0.5548466 -0.7498241
vn 0.360429 0.5548466 -0.7498241
vn 0.360429 0.5548466 -0.7498241
vn -0.2642606 -0.6285968 -0.7314591
vn -0.2642606 -0.6285968 -0.7314591
vn -0.2642606 -0.6285968 -0.7314591
vn -0.2774813 0.6800068 -0.6786714
vn -0.2774813 0.6800068 -0.6786714
vn -0.2774813 0.6800068 -0.6786714
vn 0.1486765 -0.6999352 -0.6985599
vn 0.1486765 -0.6999352 -0.6985599
vn 0.1486765 -0.6999352 -0.6985599
g crystal_flower_marker_V4_L0_0
f 3/3/3 2/2/2 1/1/1
f 6/6/6 5/5/5 4/4/4
f 9/9/9 8/8/8 7/7/7
f 12/12/12 11/11/11 10/10/10
f 15/15/15 14/14/14 13/13/13
f 18/18/18 17/17/17 16/16/16
f 21/21/21 20/20/20 19/19/19
f 24/24/24 23/23/23 22/22/22
f 27/27/27 26/26/26 25/25/25
f 30/30/30 29/29/29 28/28/28
f 33/33/33 32/32/32 31/31/31
f 36/36/36 35/35/35 34/34/34
f 39/39/39 38/38/38 37/37/37
f 42/42/42 41/41/41 40/40/40
f 45/45/45 44/44/44 43/43/43
f 48/48/48 47/47/47 46/46/46
f 51/51/51 50/50/50 49/49/49
f 54/54/54 53/53/53 52/52/52
f 57/57/57 56/56/56 55/55/55
f 60/60/60 59/59/59 58/58/58
f 63/63/63 62/62/62 61/61/61
f 66/66/66 65/65/65 64/64/64
f 69/69/69 68/68/68 67/67/67
f 72/72/72 71/71/71 70/70/70
f 75/75/75 74/74/74 73/73/73
f 78/78/78 77/77/77 76/76/76
f 81/81/81 80/80/80 79/79/79
f 84/84/84 83/83/83 82/82/82
f 87/87/87 86/86/86 85/85/85
f 90/90/90 89/89/89 88/88/88
f 93/93/93 92/92/92 91/91/91
f 96/96/96 95/95/95 94/94/94
f 99/99/99 98/98/98 97/97/97
f 102/102/102 101/101/101 100/100/100
f 105/105/105 104/104/104 103/103/103
f 108/108/108 107/107/107 106/106/106
f 111/111/111 110/110/110 109/109/109
f 114/114/114 113/113/113 112/112/112
f 117/117/117 116/116/116 115/115/115
f 120/120/120 119/119/119 118/118/118
f 123/123/123 122/122/122 121/121/121
f 126/126/126 125/125/125 124/124/124
f 129/129/129 128/128/128 127/127/127
f 132/132/132 131/131/131 130/130/130
f 135/135/135 134/134/134 133/133/133
f 138/138/138 137/137/137 136/136/136
f 141/141/141 140/140/140 139/139/139
f 144/144/144 143/143/143 142/142/142
f 147/147/147 146/146/146 145/145/145
f 150/150/150 149/149/149 148/148/148
f 153/153/153 152/152/152 151/151/151
f 156/156/156 155/155/155 154/154/154
f 159/159/159 158/158/158 157/157/157
f 162/162/162 161/161/161 160/160/160
f 165/165/165 164/164/164 163/163/163
f 168/168/168 167/167/167 166/166/166
f 171/171/171 170/170/170 169/169/169
f 174/174/174 173/173/173 172/172/172
f 177/177/177 176/176/176 175/175/175
f 180/180/180 179/179/179 178/178/178
f 183/183/183 182/182/182 181/181/181
f 186/186/186 185/185/185 184/184/184
f 189/189/189 188/188/188 187/187/187
f 192/192/192 191/191/191 190/190/190
