g crystal_flower_marker_V2_P2_L1
v 0.01158568 0.1235013 0.02999999
v -0.01158567 0.1235013 0.02999999
v 0 0.1518936 0.02999999
v -1.117587E-08 0.06895858 0.02999998
v -0.01158567 0.1235013 -0.02999999
v 0 0.1518936 -0.02999999
v 0 0.1518936 0.02999999
v -0.01158567 0.1235013 0.02999999
v 0.01158568 0.1235013 -0.02999999
v -1.117587E-08 0.06895858 -0.02999998
v -1.117587E-08 0.06895858 0.02999998
v 0.01158568 0.1235013 0.02999999
v 0 0.1518936 -0.02999999
v 0.01158568 0.1235013 -0.02999999
v 0.01158568 0.1235013 0.02999999
v 0 0.1518936 0.02999999
v 0.01158568 0.1235013 -0.02999999
v 0 0.1518936 -0.02999999
v -0.01158567 0.1235013 -0.02999999
v -1.117587E-08 0.06895858 -0.02999998
v -1.117587E-08 0.06895858 -0.02999998
v -0.01158567 0.1235013 -0.02999999
v -0.01158567 0.1235013 0.02999999
v -1.117587E-08 0.06895858 0.02999998
vt 0.840088 0.1934907
vt 0.9895281 0.1934907
vt 0.9148082 0.01037857
vt 0.9148082 0.5452561
vt 0.4181025 0.3699971
vt 0.4181024 0.5677673
vt 0.8050635 0.5677675
vt 0.8050634 0.3699971
vt 0.3973443 0.369997
vt 0.397344 0.01038351
vt 0.01038327 0.01038352
vt 0.01038327 0.3699971
vt 0.3973444 0.5677673
vt 0.3973443 0.369997
vt 0.01038327 0.3699971
vt 0.01038327 0.5677673
vt 0.7879218 0.7513606
vt 0.862642 0.9344726
vt 0.937362 0.7513606
vt 0.862642 0.3995951
vt 0.4181024 0.01038364
vt 0.4181025 0.3699971
vt 0.8050634 0.3699971
vt 0.8050634 0.01038354
vn 0 0 1
vn 0 0 1
vn 0 0 1
vn 0 0 1
vn -0.9258823 0.3778122 0
vn -0.9258823 0.3778122 0
vn -0.9258823 0.3778122 0
vn -0.9258823 0.3778122 0
vn 0.9781757 -0.2077791 0
vn 0.9781757 -0.2077791 0
vn 0.9781757 -0.2077791 0
vn 0.9781757 -0.2077791 0
vn 0.9258822 0.3778125 0
vn 0.9258822 0.3778125 0
vn 0.9258822 0.3778125 0
vn 0.9258822 0.3778125 0
vn 0 0 -1
vn 0 0 -1
vn 0 0 -1
vn 0 0 -1
vn -0.9781758 -0.2077786 0
vn -0.9781758 -0.2077786 0
vn -0.9781758 -0.2077786 0
vn -0.9781758 -0.2077786 0
g crystal_flower_marker_V2_P2_L1_0
f 3/3/3 2/2/2 1/1/1
f 1/1/1 2/2/2 4/4/4
f 7/7/7 6/6/6 5/5/5
f 8/8/8 7/7/7 5/5/5
f 11/11/11 10/10/10 9/9/9
f 12/12/12 11/11/11 9/9/9
f 15/15/15 14/14/14 13/13/13
f 16/16/16 15/15/15 13/13/13
f 19/19/19 18/18/18 17/17/17
f 19/19/19 17/17/17 20/20/20
f 23/23/23 22/22/22 21/21/21
f 24/24/24 23/23/23 21/21/21
