g crystal_flower_marker_V4_P2_L0
v 0 0.1518936 0
v -7.450581E-09 0.1235013 0.009999988
v -0.01158567 0.1235013 0
v -1.117587E-08 0.06895858 0
v -7.450581E-09 0.1235013 0.009999988
v 0.01158568 0.1235013 0
v -0.01158567 0.1235013 0
v -7.450581E-09 0.1235013 0.009999988
v -1.117587E-08 0.06895858 0
v 0.01158568 0.1235013 0
v -7.450581E-09 0.1235013 0.009999988
v 0 0.1518936 0
v 0 0.1518936 0
v -0.01158567 0.1235013 0
v -7.450581E-09 0.1235013 -0.009999988
v -1.117587E-08 0.06895858 0
v 0.01158568 0.1235013 0
v -7.450581E-09 0.1235013 -0.009999988
v -0.01158567 0.1235013 0
v -1.117587E-08 0.06895858 0
v -7.450581E-09 0.1235013 -0.009999988
v 0.01158568 0.1235013 0
v 0 0.1518936 0
v -7.450581E-09 0.1235013 -0.009999988
vt 0.1473158 0.9895661
vt 0.1473157 0.6543668
vt 0.01053574 0.6543668
vt 0.1473157 0.01043678
vt 0.1473157 0.6543668
vt 0.2840961 0.6543671
vt 0.01053574 0.6543668
vt 0.1473157 0.6543668
vt 0.1473157 0.01043678
vt 0.2840961 0.6543671
vt 0.1473157 0.6543668
vt 0.1473158 0.9895661
vt 0.3766344 0.01043379
vt 0.2398544 0.3456332
vt 0.3766344 0.3456334
vt 0.3766342 0.9895633
vt 0.5134147 0.345633
vt 0.3766344 0.3456334
vt 0.2398544 0.3456332
vt 0.3766342 0.9895633
vt 0.3766344 0.3456334
vt 0.5134147 0.345633
vt 0.3766344 0.01043379
vt 0.3766344 0.3456334
vn -0.6313467 0.2576251 0.7314578
vn -0.6313467 0.2576251 0.7314578
vn -0.6313467 0.2576251 0.7314578
vn 0.6471978 -0.1374745 0.7498238
vn 0.6471978 -0.1374745 0.7498238
vn 0.6471978 -0.1374745 0.7498238
vn -0.6471986 -0.1374743 0.7498232
vn -0.6471986 -0.1374743 0.7498232
vn -0.6471986 -0.1374743 0.7498232
vn 0.631346 0.257625 0.7314585
vn 0.631346 0.257625 0.7314585
vn 0.631346 0.257625 0.7314585
vn -0.6313467 0.2576251 -0.7314578
vn -0.6313467 0.2576251 -0.7314578
vn -0.6313467 0.2576251 -0.7314578
vn 0.6471978 -0.1374745 -0.7498238
vn 0.6471978 -0.1374745 -0.7498238
vn 0.6471978 -0.1374745 -0.7498238
vn -0.6471986 -0.1374743 -0.7498232
vn -0.6471986 -0.1374743 -0.7498232
vn -0.6471986 -0.1374743 -0.7498232
vn 0.631346 0.257625 -0.7314585
vn 0.631346 0.257625 -0.7314585
vn 0.631346 0.257625 -0.7314585
g crystal_flower_marker_V4_P2_L0_0
f 3/3/3 2/2/2 1/1/1
f 6/6/6 5/5/5 4/4/4
f 9/9/9 8/8/8 7/7/7
f 12/12/12 11/11/11 10/10/10
f 15/15/15 14/14/14 13/13/13
f 18/18/18 17/17/17 16/16/16
f 21/21/21 20/20/20 19/19/19
f 24/24/24 23/23/23 22/22/22
