g crystal_flower_marker_V1_P1_L0
v 0.01996069 0.08602957 -0.024
v 0 0.03711305 -0.024
v 0 0.03711305 0.024
v 0.01996069 0.08602957 0.024
v 0 0.03711305 -0.024
v -0.01996071 0.08602955 -0.024
v -0.01996071 0.08602955 0.024
v 0 0.03711305 0.024
v -0.01996071 0.08602955 -0.024
v 0 0.18 -0.02400001
v 0 0.18 0.02400001
v -0.01996071 0.08602955 0.024
v 0 0.18 0.02400001
v -2.314206E-09 0.1511232 0.03
v -0.01370824 0.0865879 0.03
v -0.01996071 0.08602955 0.024
v -0.01996071 0.08602955 0.024
v -0.01370824 0.0865879 0.03
v -4.120385E-09 0.05299396 0.03
v 0 0.03711305 0.024
v 0 0.03711305 0.024
v -4.120385E-09 0.05299396 0.03
v 0.01370822 0.08658792 0.03
v 0.01996069 0.08602957 0.024
v 0.01996069 0.08602957 0.024
v 0.01370822 0.08658792 0.03
v -2.314206E-09 0.1511232 0.03
v 0 0.18 0.02400001
v -0.01370824 0.0865879 0.03
v -2.314206E-09 0.1511232 0.03
v 0.01370822 0.08658792 0.03
v -4.120385E-09 0.05299396 0.03
v 0 0.18 -0.02400001
v -0.01996071 0.08602955 -0.024
v -0.01370824 0.0865879 -0.03
v -2.314206E-09 0.1511232 -0.03
v -0.01996071 0.08602955 -0.024
v 0 0.03711305 -0.024
v -4.120385E-09 0.05299396 -0.03
v -0.01370824 0.0865879 -0.03
v 0 0.03711305 -0.024
v 0.01996069 0.08602957 -0.024
v 0.01370822 0.08658792 -0.03
v -4.120385E-09 0.05299396 -0.03
v 0.01996069 0.08602957 -0.024
v 0 0.18 -0.02400001
v -2.314206E-09 0.1511232 -0.03
v 0.01370822 0.08658792 -0.03
v -0.01370824 0.0865879 -0.03
v -4.120385E-09 0.05299396 -0.03
v 0.01370822 0.08658792 -0.03
v -2.314206E-09 0.1511232 -0.03
v 0 0.18 -0.02400001
v 0.01996069 0.08602957 -0.024
v 0.01996069 0.08602957 0.024
v 0 0.18 0.02400001
vt 0.538272 0.2896214
vt 0.5382714 0.010134
vt 0.2843475 0.01013452
vt 0.284348 0.2896219
vt 0.01014177 0.01013394
vt 0.01014183 0.2896213
vt 0.2640659 0.2896214
vt 0.264066 0.01013394
vt 0.01014183 0.2896213
vt 0.01014174 0.7978238
vt 0.264066 0.7978238
vt 0.2640659 0.2896214
vt 0.6751959 0.01013447
vt 0.675196 0.178785
vt 0.7552568 0.5556929
vt 0.7917733 0.5589539
vt 0.7917733 0.5589539
vt 0.7552568 0.5556929
vt 0.675196 0.7518931
vt 0.6751959 0.8446429
vt 0.6751959 0.8446429
vt 0.675196 0.7518931
vt 0.5951353 0.5556929
vt 0.5586185 0.5589538
vt 0.5586185 0.5589538
vt 0.5951353 0.5556929
vt 0.675196 0.178785
vt 0.6751959 0.01013447
vt 0.7552568 0.5556929
vt 0.675196 0.178785
vt 0.5951353 0.5556929
vt 0.675196 0.7518931
vt 0.8731858 0.8446469
vt 0.9897632 0.2958273
vt 0.9532466 0.2990883
vt 0.8731858 0.6759962
vt 0.9897632 0.2958273
vt 0.8731858 0.01013827
vt 0.8731858 0.1028882
vt 0.9532466 0.2990883
vt 0.8731858 0.01013827
vt 0.7566086 0.2958274
vt 0.7931252 0.2990884
vt 0.8731858 0.1028882
vt 0.7566086 0.2958274
vt 0.8731858 0.8446469
vt 0.8731858 0.6759962
vt 0.7931252 0.2990884
vt 0.9532466 0.2990883
vt 0.8731858 0.1028882
vt 0.7931252 0.2990884
vt 0.8731858 0.6759962
vt 0.5382733 0.7978241
vt 0.538272 0.2896214
vt 0.284348 0.2896219
vt 0.2843491 0.7978247
vn 0.9258823 -0.3778119 0
vn 0.9258823 -0.3778119 0
vn 0.9258823 -0.3778119 0
vn 0.9258823 -0.3778119 0
vn -0.9258822 -0.3778124 0
vn -0.9258822 -0.3778124 0
vn -0.9258822 -0.3778124 0
vn -0.9258822 -0.3778124 0
vn -0.9781758 0.2077789 0
vn -0.9781758 0.2077789 0
vn -0.9781758 0.2077789 0
vn -0.9781758 0.2077789 0
vn -0.6916746 0.1469219 0.7071068
vn -0.6916746 0.1469219 0.7071068
vn -0.6916746 0.1469219 0.7071068
vn -0.6916746 0.1469219 0.7071068
vn -0.6546975 -0.2671537 0.7071068
vn -0.6546975 -0.2671537 0.7071068
vn -0.6546975 -0.2671537 0.7071068
vn -0.6546975 -0.2671537 0.7071068
vn 0.6546978 -0.2671533 0.7071066
vn 0.6546978 -0.2671533 0.7071066
vn 0.6546978 -0.2671533 0.7071066
vn 0.6546978 -0.2671533 0.7071066
vn 0.6916746 0.1469217 0.7071069
vn 0.6916746 0.1469217 0.7071069
vn 0.6916746 0.1469217 0.7071069
vn 0.6916746 0.1469217 0.7071069
vn 0 0 1
vn 0 0 1
vn 0 0 1
vn 0 0 1
vn -0.6916746 0.1469219 -0.7071068
vn -0.6916746 0.1469219 -0.7071068
vn -0.6916746 0.1469219 -0.7071068
vn -0.6916746 0.1469219 -0.7071068
vn -0.6546975 -0.2671536 -0.7071068
vn -0.6546975 -0.2671536 -0.7071068
vn -0.6546975 -0.2671536 -0.7071068
vn -0.6546975 -0.2671536 -0.7071068
vn 0.6546977 -0.2671533 -0.7071066
vn 0.6546977 -0.2671533 -0.7071066
vn 0.6546977 -0.2671533 -0.7071066
vn 0.6546977 -0.2671533 -0.7071066
vn 0.6916746 0.1469217 -0.7071069
vn 0.6916746 0.1469217 -0.7071069
vn 0.6916746 0.1469217 -0.7071069
vn 0.6916746 0.1469217 -0.7071069
vn 0 0 -1
vn 0 0 -1
vn 0 0 -1
vn 0 0 -1
vn 0.9781758 0.2077788 0
vn 0.9781758 0.2077788 0
vn 0.9781758 0.2077788 0
vn 0.9781758 0.2077788 0
g crystal_flower_marker_V1_P1_L0_0
f 3/3/3 2/2/2 1/1/1
f 4/4/4 3/3/3 1/1/1
f 7/7/7 6/6/6 5/5/5
f 8/8/8 7/7/7 5/5/5
f 11/11/11 10/10/10 9/9/9
f 12/12/12 11/11/11 9/9/9
f 15/15/15 14/14/14 13/13/13
f 16/16/16 15/15/15 13/13/13
f 19/19/19 18/18/18 17/17/17
f 20/20/20 19/19/19 17/17/17
f 23/23/23 22/22/22 21/21/21
f 24/24/24 23/23/23 21/21/21
f 27/27/27 26/26/26 25/25/25
f 28/28/28 27/27/27 25/25/25
f 31/31/31 30/30/30 29/29/29
f 32/32/32 31/31/31 29/29/29
f 35/35/35 34/34/34 33/33/33
f 36/36/36 35/35/35 33/33/33
f 39/39/39 38/38/38 37/37/37
f 40/40/40 39/39/39 37/37/37
f 43/43/43 42/42/42 41/41/41
f 44/44/44 43/43/43 41/41/41
f 47/47/47 46/46/46 45/45/45
f 48/48/48 47/47/47 45/45/45
f 51/51/51 50/50/50 49/49/49
f 52/52/52 51/51/51 49/49/49
f 55/55/55 54/54/54 53/53/53
f 56/56/56 55/55/55 53/53/53
