g crystal_flower_marker_V3_L1
v -0.01996071 0.08602955 3.760471E-09
v 0.01996069 0.08602957 3.760472E-09
v 0 0.03711305 1.622263E-09
v 0 0.18 7.86805E-09
v 0.04671773 0.07494643 2.271356E-09
v 0.07494643 0.04671776 -1.521418E-09
v 0.02624289 0.02624289 1.617607E-10
v 0.1272792 0.1272792 7.845466E-10
v 0.08602955 0.01996071 -5.116463E-09
v 0.08602957 -0.01996069 -1.048026E-08
v 0.03711305 1.47054E-16 -3.364203E-09
v 0.18 7.132187E-16 -1.631654E-08
v 0.07494643 -0.04671773 -1.40753E-08
v 0.04671775 -0.07494643 -1.786808E-08
v 0.02624289 -0.02624289 -6.890167E-09
v 0.1272792 -0.1272792 -3.341763E-08
v 0.01996071 -0.08602955 -1.935719E-08
v -0.01996069 -0.08602957 -1.935719E-08
v 0 -0.03711305 -8.350669E-09
v 0 -0.18 -4.050113E-08
v -0.04671773 -0.07494643 -1.786808E-08
v -0.07494643 -0.04671776 -1.40753E-08
v -0.02624289 -0.02624289 -6.890167E-09
v -0.1272792 -0.1272792 -3.341762E-08
v -0.18 7.132186E-16 -1.631654E-08
v -0.08602957 0.01996069 -5.116465E-09
v -0.08602955 -0.01996071 -1.048026E-08
v -0.03711305 1.47054E-16 -3.364203E-09
v -0.07494643 0.04671773 -1.521419E-09
v -0.04671775 0.07494643 2.271355E-09
v -0.02624289 0.02624289 1.617606E-10
v -0.1272792 0.1272792 7.845462E-10
vt 0.2807171 0.6126045
vt 0.441034 0.6126045
vt 0.3608756 0.4161646
vt 0.3608756 0.9899725
vt 0.6493974 0.2064688
vt 0.8097144 0.2064688
vt 0.7295558 0.01002909
vt 0.7295561 0.5838367
vt 0.7586647 0.5424041
vt 0.9189817 0.5424041
vt 0.8388232 0.3459644
vt 0.8388232 0.919772
vt 0.3509533 0.3873951
vt 0.1906363 0.3873951
vt 0.2707947 0.5838348
vt 0.2707947 0.01002716
vt 0.5314617 0.3873914
vt 0.3711447 0.3873913
vt 0.4513032 0.5838311
vt 0.4513032 0.01002339
vt 0.1704355 0.387396
vt 0.01011852 0.387396
vt 0.0902771 0.5838358
vt 0.09027698 0.01002814
vt 0.609529 0.1153198
vt 0.5293706 0.4926877
vt 0.6896876 0.4926878
vt 0.609529 0.6891274
vt 0.100208 0.6126006
vt 0.2605249 0.6126006
vt 0.1803664 0.4161609
vt 0.1803669 0.9899685
vn 0 0 1
vn 0 0 1
vn 0 0 1
vn 0 0 1
vn 0 0 1
vn 0 0 1
vn 0 0 1
vn 0 0 1
vn 0 0 1
vn 0 0 1
vn 0 0 1
vn 0 0 1
vn 0 0 1
vn 0 0 1
vn 0 0 1
vn 0 0 1
vn 0 0 1
vn 0 0 1
vn 0 0 1
vn 0 0 1
vn 0 0 1
vn 0 0 1
vn 0 0 1
vn 0 0 1
vn 0 0 1
vn 0 0 1
vn 0 0 1
vn 0 0 1
vn 0 0 1
vn 0 0 1
vn 0 0 1
vn 0 0 1
g crystal_flower_marker_V3_L1_0
f 3/3/3 2/2/2 1/1/1
f 1/1/1 2/2/2 4/4/4
f 7/7/7 6/6/6 5/5/5
f 5/5/5 6/6/6 8/8/8
f 11/11/11 10/10/10 9/9/9
f 9/9/9 10/10/10 12/12/12
f 15/15/15 14/14/14 13/13/13
f 13/13/13 14/14/14 16/16/16
f 19/19/19 18/18/18 17/17/17
f 17/17/17 18/18/18 20/20/20
f 23/23/23 22/22/22 21/21/21
f 21/21/21 22/22/22 24/24/24
f 27/27/27 26/26/26 25/25/25
f 28/28/28 26/26/26 27/27/27
f 31/31/31 30/30/30 29/29/29
f 29/29/29 30/30/30 32/32/32
