g Cylinder007
v -0.333879 -0.00264603 0.028493
v -0.366467 0.866662 -0.052904
v -0.366467 -0.00240501 -0.050165
v -0.333879 0.866662 0.025771
v -0.366467 -0.00288696 0.107152
v -0.366467 1.274939 -0.052903
v -0.366467 0.866662 0.104446
v -0.333879 1.274939 0.025771
v -0.366467 1.274939 0.104446
v -0.366467 1.935664 -0.052903
v -0.333879 1.935664 0.025771
v -0.366467 1.935664 0.104446
v -0.393812 2.097798 0.077102
v -0.387007 2.097798 0.034402
v -0.408269 2.097798 -0.016929
v -0.432204 2.325432 0.012833
v -0.426844 2.325432 0.025771
v -0.432204 2.325432 0.03871
v -0.445142 -0.00230499 -0.082746
v -0.523817 0.866662 -0.052904
v -0.523817 -0.00240501 -0.050165
v -0.445142 0.866662 -0.085492
v -0.366467 -0.00240501 -0.050165
v -0.523817 1.274939 -0.052903
v -0.366467 0.866662 -0.052904
v -0.445142 1.274939 -0.085492
v -0.366467 1.274939 -0.052903
v -0.523817 1.935664 -0.052903
v -0.445142 1.935664 -0.085492
v -0.366467 1.935664 -0.052903
v -0.408269 2.097798 -0.016929
v -0.459599 2.097798 -0.03819
v -0.496472 2.097798 -0.025559
v -0.458081 2.325432 0.012833
v -0.445142 2.325432 0.007473
v -0.432204 2.325432 0.012833
v -0.556405 -0.00264603 0.028493
v -0.523817 0.866662 0.104446
v -0.523817 -0.00288696 0.107152
v -0.556405 0.866662 0.025771
v -0.523817 -0.00240501 -0.050165
v -0.523817 1.274939 0.104446
v -0.523817 0.866662 -0.052904
v -0.556405 1.274939 0.025771
v -0.523817 1.274939 -0.052903
v -0.523817 1.935664 0.104446
v -0.556405 1.935664 0.025771
v -0.523817 1.935664 -0.052903
v -0.496472 2.097798 -0.025559
v -0.539222 2.097798 0.03939
v -0.517961 2.097798 0.090721
v -0.458081 2.325432 0.03871
v -0.46344 2.325432 0.025771
v -0.458081 2.325432 0.012833
v -0.445142 -0.00298698 0.139733
v -0.366467 0.866662 0.104446
v -0.366467 -0.00288696 0.107152
v -0.445142 0.866662 0.137034
v -0.523817 -0.00288696 0.107152
v -0.366467 1.274939 0.104446
v -0.523817 0.866662 0.104446
v -0.445142 1.274939 0.137034
v -0.523817 1.274939 0.104446
v -0.366467 1.935664 0.104446
v -0.445142 1.935664 0.137035
v -0.523817 1.935664 0.104446
v -0.517961 2.097798 0.090721
v -0.466631 2.097798 0.111982
v -0.393812 2.097798 0.077102
v -0.432204 2.325432 0.03871
v -0.445142 2.325432 0.044069
v -0.458081 2.325432 0.03871
v -0.432204 2.325432 0.012833
v -0.458081 2.325432 0.012833
v -0.445142 2.325432 0.007473
v -0.432204 2.325432 0.03871
v -0.426844 2.325432 0.025771
v -0.458081 2.325432 0.03871
v -0.46344 2.325432 0.025771
v -0.445142 2.325432 0.044069
v -0.366467 -0.00240501 -0.050165
v -0.396309 -0.00314903 -0.022642
v -0.375471 -0.00330299 0.027654
v -0.333879 -0.00264603 0.028493
v -0.445142 -0.00230499 -0.082746
v -0.396309 -0.00345703 0.07794899
v -0.366467 -0.00288696 0.107152
v -0.446615 -0.00308502 -0.043475
v -0.523817 -0.00240501 -0.050165
v -0.446615 -0.00352097 0.09878299
v -0.445142 -0.00298698 0.139733
v -0.496921 -0.00314903 -0.022642
v -0.556405 -0.00264603 0.028493
v -0.496921 -0.00345703 0.07794899
v -0.523817 -0.00288696 0.107152
v -0.517759 -0.00330299 0.027654
v -0.434442 -0.00430397 0.015748
v -0.4294 -0.00434097 0.027918
v -0.446615 -0.00428802 0.010707
v -0.434442 -0.00437798 0.040088
v -0.446615 -0.004394 0.045129
v -0.458788 -0.00430397 0.015748
v -0.46383 -0.00434097 0.027918
v -0.458788 -0.00437798 0.040088
vt 0.09057617 0.8930664
vt 0.2634277 0.909668
vt 0.09063721 0.9086914
vt 0.2634277 0.8935547
vt 0.09057617 0.8774414
vt 0.3447266 0.909668
vt 0.2634277 0.8779297
vt 0.3447266 0.8935547
vt 0.3447266 0.8779297
vt 0.4760742 0.909668
vt 0.4760742 0.8935547
vt 0.4760742 0.8779297
vt 0.5083008 0.8837891
vt 0.5083008 0.8920898
vt 0.5083008 0.9023438
vt 0.5537109 0.8964844
vt 0.5537109 0.8935547
vt 0.5537109 0.8911133
vt 0.1062012 0.4060059
vt 0.1218872 0.5791016
vt 0.1218872 0.4060059
vt 0.1062012 0.5791016
vt 0.09057617 0.4060059
vt 0.1218872 0.6601563
vt 0.09057617 0.5791016
vt 0.1062012 0.6601563
vt 0.09057617 0.6601563
vt 0.1218872 0.7915039
vt 0.1062012 0.7915039
vt 0.09057617 0.7915039
vt 0.09887695 0.8237305
vt 0.1090698 0.8237305
vt 0.1164551 0.8237305
vt 0.1087646 0.8691406
vt 0.1062012 0.8691406
vt 0.1036377 0.8691406
vt 0.5849609 0.8535156
vt 0.4116211 0.8686523
vt 0.5849609 0.8691406
vt 0.4116211 0.8530273
vt 0.5849609 0.8378906
vt 0.3303223 0.8686523
vt 0.4116211 0.8374023
vt 0.3303223 0.8530273
vt 0.3303223 0.8374023
vt 0.1984863 0.8686523
vt 0.1984863 0.8530273
vt 0.1984863 0.8374023
vt 0.1661377 0.8427734
vt 0.1661377 0.8554688
vt 0.1661377 0.8657227
vt 0.1207886 0.8554688
vt 0.1207886 0.8530273
vt 0.1207886 0.8505859
vt 0.1464844 0.8349609
vt 0.1621094 0.6616211
vt 0.1621094 0.8349609
vt 0.1464844 0.6616211
vt 0.1308594 0.8349609
vt 0.1621094 0.5805664
vt 0.1308594 0.6616211
vt 0.1464844 0.5805664
vt 0.1308594 0.5805664
vt 0.1621094 0.4489746
vt 0.1464844 0.4489746
vt 0.1308594 0.4489746
vt 0.131958 0.4165039
vt 0.1422119 0.4165039
vt 0.1567383 0.4165039
vt 0.1490479 0.3713379
vt 0.1464844 0.3713379
vt 0.1439209 0.3713379
vt 0.1721191 0.7563477
vt 0.1721191 0.7612305
vt 0.1711426 0.7587891
vt 0.177124 0.7563477
vt 0.1745605 0.7553711
vt 0.177124 0.7612305
vt 0.1745605 0.762207
vt 0.1781006 0.7587891
vt 0.5820313 0.9414063
vt 0.5766602 0.9355469
vt 0.5668945 0.9399414
vt 0.5668945 0.9477539
vt 0.5883789 0.9262695
vt 0.5576172 0.9355469
vt 0.5517578 0.9414063
vt 0.5805664 0.9262695
vt 0.5820313 0.9116211
vt 0.5537109 0.9262695
vt 0.5458984 0.9262695
vt 0.5766602 0.9165039
vt 0.5668945 0.9052734
vt 0.5576172 0.9165039
vt 0.5517578 0.9116211
vt 0.5668945 0.9125977
vt 0.5693359 0.9287109
vt 0.5668945 0.9296875
vt 0.5703125 0.9262695
vt 0.5649414 0.9287109
vt 0.5639648 0.9262695
vt 0.5693359 0.9238281
vt 0.5668945 0.9228516
vt 0.5649414 0.9238281
vn 0.6850586 -0.7285156 -0.00227356
vn 0.7070313 -0.001113892 -0.7070313
vn 0.4831543 -0.7285156 -0.4855957
vn 1 -2.026558E-06 -1.013279E-06
vn 0.4853516 -0.7290039 0.4831543
vn 0.7070313 0 -0.7070313
vn 0.7070313 0.001099586 0.7070313
vn 1 0 -2.026558E-06
vn 0.7070313 0 0.7070313
vn 0.6972656 0.1633301 -0.6977539
vn 0.9887695 0.1499023 -0.01759338
vn 0.71875 0.123291 0.684082
vn 0.7407227 0.236084 0.6289063
vn 0.9702148 0.2338867 -0.06170654
vn 0.6855469 0.2438965 -0.6860352
vn 0.6977539 0.1645508 -0.6972656
vn 0.980957 0.1738281 -0.08831787
vn 0.762207 0.2264404 0.6064453
vn -7.802248E-05 -0.7280273 -0.6855469
vn -0.7070313 -0.001113892 -0.7070313
vn -0.4836426 -0.7280273 -0.4858398
vn 0 -0.001577377 -1
vn 0.4831543 -0.7285156 -0.4855957
vn -0.7070313 0 -0.7070313
vn 0.7070313 -0.001113892 -0.7070313
vn 0 1.013279E-06 -1
vn 0.7070313 0 -0.7070313
vn -0.684082 0.1081543 -0.7211914
vn 0.002971649 0.1397705 -0.9902344
vn 0.6972656 0.1633301 -0.6977539
vn 0.6855469 0.2438965 -0.6860352
vn 0.01514435 0.2362061 -0.9716797
vn -0.6328125 0.223877 -0.7412109
vn -0.6118164 0.2342529 -0.7553711
vn 0.02438354 0.1965332 -0.9799805
vn 0.6977539 0.1645508 -0.6972656
vn -0.6855469 -0.7280273 -0.002277374
vn -0.7070313 0.001099586 0.7070313
vn -0.4855957 -0.7285156 0.4831543
vn -1 -2.026558E-06 -1.013279E-06
vn -0.4836426 -0.7280273 -0.4858398
vn -0.7070313 0 0.7070313
vn -0.7070313 -0.001113892 -0.7070313
vn -1 0 -2.026558E-06
vn -0.7070313 0 -0.7070313
vn -0.706543 0.04257202 0.706543
vn -0.9975586 0.06658936 -0.02062988
vn -0.684082 0.1081543 -0.7211914
vn -0.6328125 0.223877 -0.7412109
vn -0.9736328 0.220459 -0.0619812
vn -0.6914063 0.2087402 0.6918945
vn -0.6669922 0.3283691 0.668457
vn -0.9487305 0.3056641 -0.08209229
vn -0.6118164 0.2342529 -0.7553711
vn -7.301569E-05 -0.7285156 0.6845703
vn 0.7070313 0.001099586 0.7070313
vn 0.4853516 -0.7290039 0.4831543
vn 0 0.001553535 1
vn -0.4855957 -0.7285156 0.4831543
vn 0.7070313 0 0.7070313
vn -0.7070313 0.001099586 0.7070313
vn 0 0 1
vn -0.7070313 0 0.7070313
vn 0.71875 0.123291 0.684082
vn 0.004673004 0.08062744 0.996582
vn -0.706543 0.04257202 0.706543
vn -0.6914063 0.2087402 0.6918945
vn 0.01799011 0.2220459 0.9750977
vn 0.7407227 0.236084 0.6289063
vn 0.762207 0.2264404 0.6064453
vn 0.02658081 0.2822266 0.9589844
vn -0.6669922 0.3283691 0.668457
vn 0 1 0
vn 0 1 0
vn 0 1 0
vn 0 1 0
vn 0 1 0
vn 0 1 0
vn 0 1 0
vn 0 1 0
vn 0.4831543 -0.7285156 -0.4855957
vn 0.01248932 -1 -0.015625
vn 0.01754761 -1 -0.003080368
vn 0.6850586 -0.7285156 -0.00227356
vn -7.802248E-05 -0.7280273 -0.6855469
vn 0.01239777 -1 0.009361267
vn 0.4853516 -0.7290039 0.4831543
vn -5.400181E-05 -1 -0.02102661
vn -0.4836426 -0.7280273 -0.4858398
vn -5.00083E-05 -1 0.01464844
vn -7.301569E-05 -0.7285156 0.6845703
vn -0.0128479 -1 -0.0158844
vn -0.6855469 -0.7280273 -0.002277374
vn -0.01274109 -1 0.009605408
vn -0.4855957 -0.7285156 0.4831543
vn -0.0181427 -1 -0.003084183
vn 0.01355743 -1 -0.01660156
vn 0.01922607 -1 -0.003042221
vn 0 -0.9995117 -0.02220154
vn 0.01364136 -1 0.0105896
vn 0 -1 0.01626587
vn -0.01355743 -1 -0.01660156
vn -0.01922607 -1 -0.003042221
vn -0.01364136 -1 0.0105896
g Cylinder007_0
f 3/3/3 2/2/2 1/1/1
f 2/2/2 4/4/4 1/1/1
f 1/1/1 4/4/4 5/5/5
f 2/2/2 6/6/6 4/4/4
f 4/4/4 7/7/7 5/5/5
f 6/6/6 8/8/8 4/4/4
f 4/4/4 8/8/8 7/7/7
f 8/8/8 9/9/9 7/7/7
f 6/6/6 10/10/10 8/8/8
f 8/8/8 11/11/11 9/9/9
f 10/10/10 11/11/11 8/8/8
f 11/11/11 12/12/12 9/9/9
f 13/13/13 12/12/12 11/11/11
f 14/14/14 11/11/11 10/10/10
f 14/14/14 13/13/13 11/11/11
f 15/15/15 14/14/14 10/10/10
f 14/14/14 15/15/15 16/16/16
f 17/17/17 14/14/14 16/16/16
f 13/13/13 14/14/14 17/17/17
f 18/18/18 13/13/13 17/17/17
f 21/21/21 20/20/20 19/19/19
f 20/20/20 22/22/22 19/19/19
f 19/19/19 22/22/22 23/23/23
f 20/20/20 24/24/24 22/22/22
f 22/22/22 25/25/25 23/23/23
f 24/24/24 26/26/26 22/22/22
f 22/22/22 26/26/26 25/25/25
f 26/26/26 27/27/27 25/25/25
f 24/24/24 28/28/28 26/26/26
f 26/26/26 29/29/29 27/27/27
f 28/28/28 29/29/29 26/26/26
f 29/29/29 30/30/30 27/27/27
f 31/31/31 30/30/30 29/29/29
f 32/32/32 29/29/29 28/28/28
f 32/32/32 31/31/31 29/29/29
f 33/33/33 32/32/32 28/28/28
f 32/32/32 33/33/33 34/34/34
f 35/35/35 32/32/32 34/34/34
f 31/31/31 32/32/32 35/35/35
f 36/36/36 31/31/31 35/35/35
f 39/39/39 38/38/38 37/37/37
f 38/38/38 40/40/40 37/37/37
f 37/37/37 40/40/40 41/41/41
f 38/38/38 42/42/42 40/40/40
f 40/40/40 43/43/43 41/41/41
f 42/42/42 44/44/44 40/40/40
f 40/40/40 44/44/44 43/43/43
f 44/44/44 45/45/45 43/43/43
f 42/42/42 46/46/46 44/44/44
f 44/44/44 47/47/47 45/45/45
f 46/46/46 47/47/47 44/44/44
f 47/47/47 48/48/48 45/45/45
f 49/49/49 48/48/48 47/47/47
f 50/50/50 47/47/47 46/46/46
f 50/50/50 49/49/49 47/47/47
f 51/51/51 50/50/50 46/46/46
f 50/50/50 51/51/51 52/52/52
f 53/53/53 50/50/50 52/52/52
f 49/49/49 50/50/50 53/53/53
f 54/54/54 49/49/49 53/53/53
f 57/57/57 56/56/56 55/55/55
f 56/56/56 58/58/58 55/55/55
f 55/55/55 58/58/58 59/59/59
f 56/56/56 60/60/60 58/58/58
f 58/58/58 61/61/61 59/59/59
f 60/60/60 62/62/62 58/58/58
f 58/58/58 62/62/62 61/61/61
f 62/62/62 63/63/63 61/61/61
f 60/60/60 64/64/64 62/62/62
f 62/62/62 65/65/65 63/63/63
f 64/64/64 65/65/65 62/62/62
f 65/65/65 66/66/66 63/63/63
f 67/67/67 66/66/66 65/65/65
f 68/68/68 65/65/65 64/64/64
f 68/68/68 67/67/67 65/65/65
f 69/69/69 68/68/68 64/64/64
f 68/68/68 69/69/69 70/70/70
f 71/71/71 68/68/68 70/70/70
f 67/67/67 68/68/68 71/71/71
f 72/72/72 67/67/67 71/71/71
f 75/75/75 74/74/74 73/73/73
f 74/74/74 76/76/76 73/73/73
f 73/73/73 76/76/76 77/77/77
f 78/78/78 76/76/76 74/74/74
f 79/79/79 78/78/78 74/74/74
f 80/80/80 76/76/76 78/78/78
f 83/83/83 82/82/82 81/81/81
f 84/84/84 83/83/83 81/81/81
f 81/81/81 82/82/82 85/85/85
f 86/86/86 83/83/83 84/84/84
f 87/87/87 86/86/86 84/84/84
f 82/82/82 88/88/88 85/85/85
f 85/85/85 88/88/88 89/89/89
f 90/90/90 86/86/86 87/87/87
f 91/91/91 90/90/90 87/87/87
f 88/88/88 92/92/92 89/89/89
f 89/89/89 92/92/92 93/93/93
f 94/94/94 90/90/90 91/91/91
f 95/95/95 94/94/94 91/91/91
f 93/93/93 96/96/96 95/95/95
f 92/92/92 96/96/96 93/93/93
f 96/96/96 94/94/94 95/95/95
f 82/82/82 83/83/83 97/97/97
f 83/83/83 86/86/86 98/98/98
f 83/83/83 98/98/98 97/97/97
f 82/82/82 97/97/97 99/99/99
f 88/88/88 82/82/82 99/99/99
f 97/97/97 98/98/98 99/99/99
f 86/86/86 90/90/90 100/100/100
f 86/86/86 100/100/100 98/98/98
f 90/90/90 101/101/101 100/100/100
f 90/90/90 94/94/94 101/101/101
f 101/101/101 98/98/98 100/100/100
f 92/92/92 88/88/88 102/102/102
f 88/88/88 99/99/99 102/102/102
f 99/99/99 98/98/98 103/103/103
f 102/102/102 99/99/99 103/103/103
f 92/92/92 102/102/102 103/103/103
f 96/96/96 92/92/92 103/103/103
f 103/103/103 98/98/98 101/101/101
f 94/94/94 96/96/96 104/104/104
f 94/94/94 104/104/104 101/101/101
f 96/96/96 103/103/103 104/104/104
f 104/104/104 103/103/103 101/101/101
