g Cylinder006
v -0.269175 -0.00077698 0.133101
v -0.184465 0.662443 0.116913
v -0.18604 -0.0007 0.114664
v -0.267604 0.662443 0.135344
v -0.340986 -0.000961 0.08736
v -0.184465 0.974016 0.116913
v -0.339425 0.662443 0.089589
v -0.267604 0.974016 0.135344
v -0.339425 0.974016 0.089589
v -0.184465 1.478241 0.116913
v -0.267604 1.478241 0.135344
v -0.339425 1.478241 0.089589
v -0.300855 1.601972 0.052047
v -0.253997 1.601972 0.081899
v -0.199754 1.601972 0.069874
v -0.237788 1.775688 0.04076
v -0.251461 1.775688 0.043791
v -0.263272 1.775688 0.036267
v -0.140281 -0.00077698 0.042849
v -0.157142 0.662443 -0.038047
v -0.158703 -0.000961 -0.040276
v -0.13871 0.662443 0.045092
v -0.18604 -0.0007 0.114664
v -0.157142 0.974016 -0.038047
v -0.184465 0.662443 0.116913
v -0.13871 0.974016 0.045092
v -0.184465 0.974016 0.116913
v -0.157142 1.478241 -0.038047
v -0.13871 1.478241 0.045092
v -0.184465 1.478241 0.116913
v -0.199754 1.601972 0.069874
v -0.176794 1.601972 0.038377
v -0.179029 1.601972 -0.039347
v -0.233294 1.775688 0.015276
v -0.230263 1.775688 0.028949
v -0.237788 1.775688 0.04076
v -0.230515 -0.00114403 -0.086018
v -0.312101 0.662443 -0.06537
v -0.313649 -0.00122101 -0.067581
v -0.228963 0.662443 -0.083801
v -0.158703 -0.000961 -0.040276
v -0.312101 0.974016 -0.06537
v -0.157142 0.662443 -0.038047
v -0.228963 0.974016 -0.083801
v -0.157142 0.974016 -0.038047
v -0.312101 1.478241 -0.06537
v -0.228963 1.478241 -0.083801
v -0.157142 1.478241 -0.038047
v -0.179029 1.601972 -0.039347
v -0.225887 1.601972 -0.069199
v -0.280129 1.601972 -0.05717401
v -0.258779 1.775688 0.010782
v -0.245106 1.775688 0.007751
v -0.233294 1.775688 0.015276
v -0.359408 -0.00114403 0.004235
v -0.339425 0.662443 0.089589
v -0.340986 -0.000961 0.08736
v -0.357856 0.662443 0.006451
v -0.313649 -0.00122101 -0.067581
v -0.339425 0.974016 0.089589
v -0.312101 0.662443 -0.06537
v -0.357856 0.974016 0.006451
v -0.312101 0.974016 -0.06537
v -0.339425 1.478241 0.089589
v -0.357856 1.478241 0.006451
v -0.312101 1.478241 -0.06537
v -0.280129 1.601972 -0.05717401
v -0.319772 1.601972 0.013166
v -0.300855 1.601972 0.052047
v -0.263272 1.775688 0.036267
v -0.266303 1.775688 0.022594
v -0.258779 1.775688 0.010782
v -0.251461 1.775688 0.043791
v -0.230263 1.775688 0.028949
v -0.237788 1.775688 0.04076
v -0.266303 1.775688 0.022594
v -0.263272 1.775688 0.036267
v -0.245106 1.775688 0.007751
v -0.233294 1.775688 0.015276
v -0.258779 1.775688 0.010782
v -0.269175 -0.00077698 0.133101
v -0.260516 -0.00134399 0.093439
v -0.306434 -0.00146202 0.064191
v -0.340986 -0.000961 0.08736
v -0.18604 -0.0007 0.114664
v -0.318213 -0.00157997 0.011039
v -0.359408 -0.00114403 0.004235
v -0.207358 -0.00129601 0.08165
v -0.140281 -0.00077698 0.042849
v -0.288954 -0.00162804 -0.034881
v -0.313649 -0.00122101 -0.067581
v -0.178099 -0.00134399 0.03573
v -0.158703 -0.000961 -0.040276
v -0.235796 -0.00157997 -0.04667
v -0.230515 -0.00114403 -0.086018
v -0.189879 -0.00146202 -0.017422
v -0.251299 -0.00222603 0.040119
v -0.26241 -0.00225403 0.033042
v -0.238436 -0.00221397 0.037267
v -0.26526 -0.00228302 0.020181
v -0.25818 -0.002295 0.009068999
v -0.231356 -0.00222603 0.026155
v -0.234206 -0.00225403 0.013294
v -0.245317 -0.00228302 0.006217
vt 0.8320313 0.5751953
vt 0.8491211 0.4418945
vt 0.8486328 0.5751953
vt 0.8325195 0.4418945
vt 0.8173828 0.5751953
vt 0.8491211 0.3791504
vt 0.8178711 0.4418945
vt 0.8325195 0.3791504
vt 0.8178711 0.3791504
vt 0.8491211 0.2780762
vt 0.8325195 0.2780762
vt 0.8178711 0.2780762
vt 0.8256836 0.2531738
vt 0.8349609 0.2531738
vt 0.8461914 0.2531738
vt 0.8383789 0.2182617
vt 0.8354492 0.2182617
vt 0.8330078 0.2182617
vt 0.3322754 0.3288574
vt 0.465332 0.3452148
vt 0.3322754 0.345459
vt 0.465332 0.3283691
vt 0.3322754 0.3144531
vt 0.527832 0.3452148
vt 0.465332 0.3139648
vt 0.527832 0.3283691
vt 0.527832 0.3139648
vt 0.6289063 0.3452148
vt 0.6289063 0.3283691
vt 0.6289063 0.3139648
vt 0.6538086 0.3234863
vt 0.6538086 0.329834
vt 0.6538086 0.345459
vt 0.6884766 0.3344727
vt 0.6884766 0.331543
vt 0.6884766 0.3293457
vt 0.9731445 0.6333008
vt 0.9897461 0.7666016
vt 0.9897461 0.6333008
vt 0.9731445 0.7666016
vt 0.9589844 0.6333008
vt 0.9897461 0.8291016
vt 0.9584961 0.7666016
vt 0.9731445 0.8291016
vt 0.9584961 0.8291016
vt 0.9897461 0.9301758
vt 0.9731445 0.9301758
vt 0.9584961 0.9301758
vt 0.9628906 0.9550781
vt 0.972168 0.9550781
vt 0.9833984 0.9550781
vt 0.9790039 0.9902344
vt 0.9760742 0.9902344
vt 0.9736328 0.9902344
vt 0.6894531 0.2880859
vt 0.5561523 0.3051758
vt 0.6894531 0.3049316
vt 0.5561523 0.2885742
vt 0.6894531 0.2736816
vt 0.4934082 0.3051758
vt 0.5561523 0.2741699
vt 0.4934082 0.2885742
vt 0.4934082 0.2741699
vt 0.3920898 0.3051758
vt 0.3920898 0.2885742
vt 0.3920898 0.2741699
vt 0.3671875 0.2758789
vt 0.3671875 0.2897949
vt 0.3671875 0.2976074
vt 0.3322754 0.2944336
vt 0.3322754 0.291748
vt 0.3322754 0.2895508
vt 0.5 0.9873047
vt 0.4973145 0.9829102
vt 0.4997559 0.984375
vt 0.4960938 0.9902344
vt 0.4987793 0.9892578
vt 0.4934082 0.9858398
vt 0.494873 0.9838867
vt 0.4938965 0.9887695
vt 0.5898438 0.8867188
vt 0.5976563 0.8886719
vt 0.6030273 0.8798828
vt 0.5986328 0.8730469
vt 0.59375 0.902832
vt 0.6132813 0.8774414
vt 0.6147461 0.8696289
vt 0.5996094 0.8984375
vt 0.6074219 0.9116211
vt 0.6220703 0.8828125
vt 0.628418 0.878418
vt 0.6083984 0.9042969
vt 0.6230469 0.9077148
vt 0.6245117 0.8930664
vt 0.6318359 0.894043
vt 0.6186523 0.9018555
vt 0.6079102 0.8901367
vt 0.6088867 0.8881836
vt 0.6083984 0.8925781
vt 0.6118164 0.8876953
vt 0.6137695 0.8891602
vt 0.6103516 0.894043
vt 0.612793 0.8935547
vt 0.6142578 0.8916016
vn -0.1173706 -0.7304688 0.6728516
vn 0.5737305 -0.002067566 0.8193359
vn 0.3918457 -0.7304688 0.5595703
vn -0.173584 -0.001460075 0.9848633
vn -0.5585938 -0.7299805 0.3933105
vn 0.5737305 0 0.8193359
vn -0.8193359 -2.980232E-06 0.5737305
vn -0.1737061 0 0.9848633
vn -0.8193359 0 0.5737305
vn 0.5629883 0.1795654 0.8066406
vn -0.1689453 0.2088623 0.9633789
vn -0.7944336 0.1922607 0.5761719
vn -0.7456055 0.2998047 0.5952148
vn -0.1645508 0.3117676 0.9355469
vn 0.534668 0.3029785 0.7885742
vn 0.5336914 0.2539063 0.8066406
vn -0.1702881 0.213501 0.9619141
vn -0.7441406 0.2253418 0.6289063
vn 0.6728516 -0.7299805 0.119873
vn 0.8193359 -2.980232E-06 -0.5737305
vn 0.5610352 -0.7294922 -0.3908691
vn 0.9848633 -0.001460075 0.1737061
vn 0.3918457 -0.7304688 0.5595703
vn 0.8193359 0 -0.5737305
vn 0.5737305 -0.002067566 0.8193359
vn 0.9848633 0 0.1737061
vn 0.5737305 0 0.8193359
vn 0.8271484 0.08666992 -0.5551758
vn 0.9702148 0.1400146 0.1970215
vn 0.5629883 0.1795654 0.8066406
vn 0.534668 0.3029785 0.7885742
vn 0.9272461 0.2880859 0.2398682
vn 0.8193359 0.2824707 -0.4987793
vn 0.7998047 0.387207 -0.4587402
vn 0.9165039 0.3010254 0.2631836
vn 0.5336914 0.2539063 0.8066406
vn 0.1199951 -0.7294922 -0.6733398
vn -0.5737305 0.002035141 -0.8193359
vn -0.392334 -0.7294922 -0.5600586
vn 0.173584 0.001441956 -0.9848633
vn 0.5610352 -0.7294922 -0.3908691
vn -0.5737305 0 -0.8193359
vn 0.8193359 -2.980232E-06 -0.5737305
vn 0.1737061 0 -0.9848633
vn 0.8193359 0 -0.5737305
vn -0.5732422 0.1046753 -0.8125
vn 0.1737061 0.05569458 -0.9833984
vn 0.8271484 0.08666992 -0.5551758
vn 0.8193359 0.2824707 -0.4987793
vn 0.1668701 0.2670898 -0.9492188
vn -0.5644531 0.2849121 -0.7749023
vn -0.5585938 0.3591309 -0.7475586
vn 0.1563721 0.4145508 -0.8964844
vn 0.7998047 0.387207 -0.4587402
vn -0.6733398 -0.7299805 -0.1175537
vn -0.8193359 -2.980232E-06 0.5737305
vn -0.5585938 -0.7299805 0.3933105
vn -0.9848633 0.001441956 -0.1737061
vn -0.392334 -0.7294922 -0.5600586
vn -0.8193359 0 0.5737305
vn -0.5737305 0.002035141 -0.8193359
vn -0.9848633 0 -0.1737061
vn -0.5737305 0 -0.8193359
vn -0.7944336 0.1922607 0.5761719
vn -0.9760742 0.1591797 -0.1483154
vn -0.5732422 0.1046753 -0.8125
vn -0.5644531 0.2849121 -0.7749023
vn -0.9487305 0.3032227 -0.08831787
vn -0.7456055 0.2998047 0.5952148
vn -0.7441406 0.2253418 0.6289063
vn -0.9550781 0.2912598 -0.05709839
vn -0.5585938 0.3591309 -0.7475586
vn 0 1 0
vn 0 1 0
vn 0 1 0
vn 0 1 0
vn 0 1 0
vn 0 1 0
vn 0 1 0
vn 0 1 0
vn -0.1173706 -0.7304688 0.6728516
vn -0.0009670258 -1 0.0152359
vn -0.009620667 -1 0.009605408
vn -0.5585938 -0.7299805 0.3933105
vn 0.3918457 -0.7304688 0.5595703
vn -0.01184845 -1 -0.0004270077
vn -0.6733398 -0.7299805 -0.1175537
vn 0.009239197 -1 0.01312256
vn 0.6728516 -0.7299805 0.119873
vn -0.006389618 -1 -0.00919342
vn -0.392334 -0.7294922 -0.5600586
vn 0.01498413 -1 0.004306793
vn 0.5610352 -0.7294922 -0.3908691
vn 0.003761292 -1 -0.01158142
vn 0.1199951 -0.7294922 -0.6733398
vn 0.01269531 -1 -0.006011963
vn -0.001211166 -1 0.0163269
vn -0.01068878 -1 0.0103302
vn 0.009719849 -1 0.0138855
vn -0.01316071 -1 -0.0006518364
vn -0.007125854 -1 -0.01017761
vn 0.01574707 -1 0.004444122
vn 0.0133667 -1 -0.006511688
vn 0.003889084 -1 -0.0125885
g Cylinder006_0
f 3/3/3 2/2/2 1/1/1
f 2/2/2 4/4/4 1/1/1
f 1/1/1 4/4/4 5/5/5
f 2/2/2 6/6/6 4/4/4
f 4/4/4 7/7/7 5/5/5
f 6/6/6 8/8/8 4/4/4
f 4/4/4 8/8/8 7/7/7
f 8/8/8 9/9/9 7/7/7
f 6/6/6 10/10/10 8/8/8
f 8/8/8 11/11/11 9/9/9
f 10/10/10 11/11/11 8/8/8
f 11/11/11 12/12/12 9/9/9
f 13/13/13 12/12/12 11/11/11
f 14/14/14 11/11/11 10/10/10
f 14/14/14 13/13/13 11/11/11
f 15/15/15 14/14/14 10/10/10
f 14/14/14 15/15/15 16/16/16
f 17/17/17 14/14/14 16/16/16
f 13/13/13 14/14/14 17/17/17
f 18/18/18 13/13/13 17/17/17
f 21/21/21 20/20/20 19/19/19
f 20/20/20 22/22/22 19/19/19
f 19/19/19 22/22/22 23/23/23
f 20/20/20 24/24/24 22/22/22
f 22/22/22 25/25/25 23/23/23
f 24/24/24 26/26/26 22/22/22
f 22/22/22 26/26/26 25/25/25
f 26/26/26 27/27/27 25/25/25
f 24/24/24 28/28/28 26/26/26
f 26/26/26 29/29/29 27/27/27
f 28/28/28 29/29/29 26/26/26
f 29/29/29 30/30/30 27/27/27
f 31/31/31 30/30/30 29/29/29
f 32/32/32 29/29/29 28/28/28
f 32/32/32 31/31/31 29/29/29
f 33/33/33 32/32/32 28/28/28
f 32/32/32 33/33/33 34/34/34
f 35/35/35 32/32/32 34/34/34
f 31/31/31 32/32/32 35/35/35
f 36/36/36 31/31/31 35/35/35
f 39/39/39 38/38/38 37/37/37
f 38/38/38 40/40/40 37/37/37
f 37/37/37 40/40/40 41/41/41
f 38/38/38 42/42/42 40/40/40
f 40/40/40 43/43/43 41/41/41
f 42/42/42 44/44/44 40/40/40
f 40/40/40 44/44/44 43/43/43
f 44/44/44 45/45/45 43/43/43
f 42/42/42 46/46/46 44/44/44
f 44/44/44 47/47/47 45/45/45
f 46/46/46 47/47/47 44/44/44
f 47/47/47 48/48/48 45/45/45
f 49/49/49 48/48/48 47/47/47
f 50/50/50 47/47/47 46/46/46
f 50/50/50 49/49/49 47/47/47
f 51/51/51 50/50/50 46/46/46
f 50/50/50 51/51/51 52/52/52
f 53/53/53 50/50/50 52/52/52
f 49/49/49 50/50/50 53/53/53
f 54/54/54 49/49/49 53/53/53
f 57/57/57 56/56/56 55/55/55
f 56/56/56 58/58/58 55/55/55
f 55/55/55 58/58/58 59/59/59
f 56/56/56 60/60/60 58/58/58
f 58/58/58 61/61/61 59/59/59
f 60/60/60 62/62/62 58/58/58
f 58/58/58 62/62/62 61/61/61
f 62/62/62 63/63/63 61/61/61
f 60/60/60 64/64/64 62/62/62
f 62/62/62 65/65/65 63/63/63
f 64/64/64 65/65/65 62/62/62
f 65/65/65 66/66/66 63/63/63
f 67/67/67 66/66/66 65/65/65
f 68/68/68 65/65/65 64/64/64
f 68/68/68 67/67/67 65/65/65
f 69/69/69 68/68/68 64/64/64
f 68/68/68 69/69/69 70/70/70
f 71/71/71 68/68/68 70/70/70
f 67/67/67 68/68/68 71/71/71
f 72/72/72 67/67/67 71/71/71
f 75/75/75 74/74/74 73/73/73
f 74/74/74 76/76/76 73/73/73
f 73/73/73 76/76/76 77/77/77
f 78/78/78 76/76/76 74/74/74
f 79/79/79 78/78/78 74/74/74
f 80/80/80 76/76/76 78/78/78
f 83/83/83 82/82/82 81/81/81
f 84/84/84 83/83/83 81/81/81
f 81/81/81 82/82/82 85/85/85
f 86/86/86 83/83/83 84/84/84
f 87/87/87 86/86/86 84/84/84
f 82/82/82 88/88/88 85/85/85
f 85/85/85 88/88/88 89/89/89
f 90/90/90 86/86/86 87/87/87
f 91/91/91 90/90/90 87/87/87
f 88/88/88 92/92/92 89/89/89
f 89/89/89 92/92/92 93/93/93
f 94/94/94 90/90/90 91/91/91
f 95/95/95 94/94/94 91/91/91
f 93/93/93 96/96/96 95/95/95
f 92/92/92 96/96/96 93/93/93
f 96/96/96 94/94/94 95/95/95
f 82/82/82 83/83/83 97/97/97
f 83/83/83 86/86/86 98/98/98
f 83/83/83 98/98/98 97/97/97
f 82/82/82 97/97/97 99/99/99
f 88/88/88 82/82/82 99/99/99
f 97/97/97 98/98/98 99/99/99
f 86/86/86 90/90/90 100/100/100
f 86/86/86 100/100/100 98/98/98
f 90/90/90 101/101/101 100/100/100
f 90/90/90 94/94/94 101/101/101
f 101/101/101 98/98/98 100/100/100
f 92/92/92 88/88/88 102/102/102
f 88/88/88 99/99/99 102/102/102
f 99/99/99 98/98/98 103/103/103
f 102/102/102 99/99/99 103/103/103
f 92/92/92 102/102/102 103/103/103
f 96/96/96 92/92/92 103/103/103
f 103/103/103 98/98/98 101/101/101
f 94/94/94 96/96/96 104/104/104
f 94/94/94 104/104/104 101/101/101
f 96/96/96 103/103/103 104/104/104
f 104/104/104 103/103/103 101/101/101
