g Cylinder005
v -0.043572 -0.00138901 0.133101
v 0.041137 0.7393039 0.116913
v 0.039562 -0.00130402 0.114664
v -0.042002 0.7393039 0.135344
v -0.115384 -0.001595 0.087359
v 0.041137 1.087273 0.116913
v -0.113822 0.7393039 0.089589
v -0.042002 1.087273 0.135344
v -0.113822 1.087273 0.089589
v 0.041137 1.650399 0.116913
v -0.042002 1.650399 0.135344
v -0.113822 1.650399 0.089589
v -0.07525299 1.788584 0.052047
v -0.028394 1.788584 0.081899
v 0.025848 1.788584 0.069874
v -0.012186 1.982593 0.04076
v -0.025858 1.982593 0.043791
v -0.03767 1.982593 0.036267
v 0.08532099 -0.00138901 0.042849
v 0.06846001 0.7393039 -0.038047
v 0.06689899 -0.001595 -0.040276
v 0.086892 0.7393039 0.045092
v 0.039562 -0.00130402 0.114664
v 0.06846001 1.087273 -0.038047
v 0.041137 0.7393039 0.116913
v 0.086892 1.087273 0.045092
v 0.041137 1.087273 0.116913
v 0.06846001 1.650399 -0.038047
v 0.086892 1.650399 0.045092
v 0.041137 1.650399 0.116913
v 0.025848 1.788584 0.069874
v 0.048808 1.788584 0.038377
v 0.046574 1.788584 -0.039347
v -0.007692 1.982593 0.015276
v -0.004661 1.982593 0.028949
v -0.012186 1.982593 0.04076
v -0.004912 -0.0018 -0.086018
v -0.08649901 0.7393039 -0.06537
v -0.088047 -0.00188499 -0.067581
v -0.00336 0.7393039 -0.083801
v 0.06689899 -0.001595 -0.040276
v -0.08649901 1.087273 -0.06537
v 0.06846001 0.7393039 -0.038047
v -0.00336 1.087273 -0.083801
v 0.06846001 1.087273 -0.038047
v -0.08649901 1.650399 -0.06537
v -0.00336 1.650399 -0.083802
v 0.06846001 1.650399 -0.038047
v 0.046574 1.788584 -0.039347
v -0.000285 1.788584 -0.069199
v -0.054527 1.788584 -0.05717401
v -0.033176 1.982593 0.010782
v -0.019504 1.982593 0.007751
v -0.007692 1.982593 0.015276
v -0.133806 -0.0018 0.004235
v -0.113822 0.7393039 0.089589
v -0.115384 -0.001595 0.087359
v -0.132254 0.7393039 0.006451
v -0.088047 -0.00188499 -0.067581
v -0.113822 1.087273 0.089589
v -0.08649901 0.7393039 -0.06537
v -0.132254 1.087273 0.006451
v -0.08649901 1.087273 -0.06537
v -0.113822 1.650399 0.089589
v -0.132254 1.650399 0.006451
v -0.08649901 1.650399 -0.06537
v -0.054527 1.788584 -0.05717401
v -0.09417 1.788584 0.013166
v -0.07525299 1.788584 0.052047
v -0.03767 1.982593 0.036267
v -0.040701 1.982593 0.022594
v -0.033176 1.982593 0.010782
v -0.025858 1.982593 0.043791
v -0.004661 1.982593 0.028949
v -0.012186 1.982593 0.04076
v -0.040701 1.982593 0.022594
v -0.03767 1.982593 0.036267
v -0.019504 1.982593 0.007751
v -0.007692 1.982593 0.015276
v -0.033176 1.982593 0.010782
v -0.043572 -0.00138901 0.133101
v -0.034914 -0.00202301 0.093439
v -0.080832 -0.002155 0.064191
v -0.115384 -0.001595 0.087359
v 0.039562 -0.00130402 0.114664
v -0.09261099 -0.002286 0.011039
v -0.133806 -0.0018 0.004235
v 0.018244 -0.00196899 0.08165
v 0.08532099 -0.00138901 0.042849
v -0.063352 -0.00234001 -0.034881
v -0.088047 -0.00188499 -0.067581
v 0.047503 -0.00202301 0.03573
v 0.06689899 -0.001595 -0.040276
v -0.010194 -0.002286 -0.04667
v -0.004912 -0.0018 -0.086018
v 0.035724 -0.002155 -0.017422
v -0.025696 -0.00300797 0.040119
v -0.036807 -0.00304001 0.033042
v -0.012834 -0.002995 0.037267
v -0.039658 -0.00307198 0.020181
v -0.032578 -0.00308502 0.009068999
v -0.005754 -0.00300797 0.026155
v -0.008604 -0.00304001 0.013294
v -0.019715 -0.00307198 0.006217
vt 0.8945313 0.5893555
vt 0.9116211 0.4404297
vt 0.9111328 0.5893555
vt 0.8945313 0.4404297
vt 0.8798828 0.5893555
vt 0.9116211 0.3706055
vt 0.8803711 0.4404297
vt 0.8945313 0.3706055
vt 0.8803711 0.3706055
vt 0.9116211 0.2575684
vt 0.8945313 0.2575684
vt 0.8803711 0.2575684
vt 0.8881836 0.2298584
vt 0.8974609 0.2298584
vt 0.9082031 0.2298584
vt 0.9008789 0.190918
vt 0.8979492 0.190918
vt 0.8955078 0.190918
vt 0.3322754 0.4899902
vt 0.4807129 0.5063477
vt 0.3322754 0.5068359
vt 0.4807129 0.489502
vt 0.3322754 0.4755859
vt 0.550293 0.5063477
vt 0.4807129 0.4750977
vt 0.550293 0.489502
vt 0.550293 0.4750977
vt 0.6635742 0.5063477
vt 0.6635742 0.489502
vt 0.6635742 0.4750977
vt 0.690918 0.4846191
vt 0.690918 0.4909668
vt 0.690918 0.5063477
vt 0.7299805 0.4956055
vt 0.7299805 0.4926758
vt 0.7299805 0.4904785
vt 0.9331055 0.5917969
vt 0.9492188 0.7407227
vt 0.949707 0.5917969
vt 0.9326172 0.7407227
vt 0.918457 0.5917969
vt 0.9492188 0.8105469
vt 0.918457 0.7407227
vt 0.9326172 0.8105469
vt 0.918457 0.8105469
vt 0.9492188 0.9233398
vt 0.9326172 0.9233398
vt 0.918457 0.9233398
vt 0.9228516 0.9511719
vt 0.9321289 0.9511719
vt 0.9428711 0.9511719
vt 0.9384766 0.9902344
vt 0.9360352 0.9902344
vt 0.9335938 0.9902344
vt 0.730957 0.4492188
vt 0.5820313 0.4663086
vt 0.730957 0.4658203
vt 0.5820313 0.449707
vt 0.730957 0.4348145
vt 0.512207 0.4663086
vt 0.5820313 0.4353027
vt 0.512207 0.449707
vt 0.512207 0.4353027
vt 0.3989258 0.4663086
vt 0.3989258 0.449707
vt 0.3989258 0.4353027
vt 0.3710938 0.4370117
vt 0.3710938 0.4509277
vt 0.3710938 0.4587402
vt 0.3322754 0.4555664
vt 0.3322754 0.4528809
vt 0.3322754 0.4504395
vt 0.4921875 0.9731445
vt 0.4892578 0.9692383
vt 0.4916992 0.9702148
vt 0.4880371 0.9760742
vt 0.4907227 0.9750977
vt 0.4853516 0.9716797
vt 0.4868164 0.9697266
vt 0.4858398 0.9746094
vt 0.08654785 0.373291
vt 0.09411621 0.375
vt 0.09967041 0.3662109
vt 0.09527588 0.3596191
vt 0.09002686 0.3891602
vt 0.1098633 0.3640137
vt 0.111145 0.355957
vt 0.09637451 0.3850098
vt 0.1037598 0.3979492
vt 0.1186523 0.3693848
vt 0.1248779 0.3647461
vt 0.1051025 0.390625
vt 0.1196289 0.3942871
vt 0.1208496 0.3796387
vt 0.128418 0.3806152
vt 0.1152954 0.3884277
vt 0.1043091 0.376709
vt 0.1056519 0.3745117
vt 0.1048584 0.3791504
vt 0.1080933 0.3740234
vt 0.1102295 0.3754883
vt 0.1069336 0.3806152
vt 0.109436 0.3798828
vt 0.1107788 0.3779297
vn -0.1173706 -0.7294922 0.6738281
vn 0.5737305 -0.001851082 0.8193359
vn 0.392334 -0.7294922 0.5600586
vn -0.173584 -0.001306534 0.9848633
vn -0.559082 -0.7294922 0.3937988
vn 0.5737305 0 0.8193359
vn -0.8193359 -2.026558E-06 0.5737305
vn -0.1737061 0 0.9848633
vn -0.8193359 0 0.5737305
vn 0.5639648 0.1622314 0.8095703
vn -0.1697998 0.189209 0.9672852
vn -0.796875 0.1739502 0.5786133
vn -0.7519531 0.2712402 0.6010742
vn -0.1661377 0.2824707 0.9448242
vn 0.5395508 0.2741699 0.7963867
vn 0.5375977 0.2288818 0.8115234
vn -0.1710205 0.1920166 0.9663086
vn -0.7480469 0.2028809 0.6318359
vn 0.6738281 -0.7294922 0.1201172
vn 0.8193359 -2.026558E-06 -0.5737305
vn 0.5615234 -0.7290039 -0.3908691
vn 0.9848633 -0.001306534 0.1737061
vn 0.392334 -0.7294922 0.5600586
vn 0.8193359 0 -0.5737305
vn 0.5737305 -0.001851082 0.8193359
vn 0.9848633 0 0.1737061
vn 0.5737305 0 0.8193359
vn 0.828125 0.07781982 -0.5551758
vn 0.972168 0.1260986 0.1977539
vn 0.5639648 0.1622314 0.8095703
vn 0.5395508 0.2741699 0.7963867
vn 0.9345703 0.2602539 0.2419434
vn 0.8256836 0.2556152 -0.5029297
vn 0.8110352 0.3522949 -0.467041
vn 0.9248047 0.2719727 0.2653809
vn 0.5375977 0.2288818 0.8115234
vn 0.1202393 -0.7290039 -0.6738281
vn -0.5737305 0.001823425 -0.8193359
vn -0.392334 -0.7294922 -0.5605469
vn 0.173584 0.001291275 -0.9848633
vn 0.5615234 -0.7290039 -0.3908691
vn -0.5737305 0 -0.8193359
vn 0.8193359 -2.026558E-06 -0.5737305
vn 0.1737061 0 -0.9848633
vn 0.8193359 0 -0.5737305
vn -0.5742188 0.09411621 -0.8129883
vn 0.1737061 0.04992676 -0.9833984
vn 0.828125 0.07781982 -0.5551758
vn 0.8256836 0.2556152 -0.5029297
vn 0.1680908 0.2418213 -0.9555664
vn -0.5688477 0.2578125 -0.78125
vn -0.5649414 0.3259277 -0.7583008
vn 0.1594238 0.3776855 -0.9121094
vn 0.8110352 0.3522949 -0.467041
vn -0.6738281 -0.7294922 -0.1174927
vn -0.8193359 -2.026558E-06 0.5737305
vn -0.559082 -0.7294922 0.3937988
vn -0.9848633 0.001291275 -0.1737061
vn -0.392334 -0.7294922 -0.5605469
vn -0.8193359 0 0.5737305
vn -0.5737305 0.001823425 -0.8193359
vn -0.9848633 0 -0.173584
vn -0.5737305 0 -0.8193359
vn -0.796875 0.1739502 0.5786133
vn -0.9785156 0.1435547 -0.1481934
vn -0.5742188 0.09411621 -0.8129883
vn -0.5688477 0.2578125 -0.78125
vn -0.9575195 0.2741699 -0.08911133
vn -0.7519531 0.2712402 0.6010742
vn -0.7480469 0.2028809 0.6318359
vn -0.9628906 0.2631836 -0.05813599
vn -0.5649414 0.3259277 -0.7583008
vn 0 1 0
vn 0 1 0
vn 0 1 0
vn 0 1 0
vn 0 1 0
vn 0 1 0
vn 0 1 0
vn 0 1 0
vn -0.1173706 -0.7294922 0.6738281
vn -0.001078606 -1 0.01702881
vn -0.01074219 -1 0.01073456
vn -0.559082 -0.7294922 0.3937988
vn 0.392334 -0.7294922 0.5600586
vn -0.013237 -1 -0.000483036
vn -0.6738281 -0.7294922 -0.1174927
vn 0.01032257 -1 0.0146637
vn 0.6738281 -0.7294922 0.1201172
vn -0.007137299 -1 -0.01026154
vn -0.392334 -0.7294922 -0.5605469
vn 0.01673889 -1 0.004810333
vn 0.5615234 -0.7290039 -0.3908691
vn 0.004196167 -1 -0.01293945
vn 0.1202393 -0.7290039 -0.6738281
vn 0.01418304 -1 -0.006717682
vn -0.001346588 -1 0.01823425
vn -0.01194 -1 0.01153564
vn 0.01085663 -1 0.01551056
vn -0.01470947 -1 -0.0007371902
vn -0.007965088 -1 -0.01137543
vn 0.01759338 -1 0.004970551
vn 0.0149231 -1 -0.007274628
vn 0.004337311 -1 -0.01407623
g Cylinder005_0
f 3/3/3 2/2/2 1/1/1
f 2/2/2 4/4/4 1/1/1
f 1/1/1 4/4/4 5/5/5
f 2/2/2 6/6/6 4/4/4
f 4/4/4 7/7/7 5/5/5
f 6/6/6 8/8/8 4/4/4
f 4/4/4 8/8/8 7/7/7
f 8/8/8 9/9/9 7/7/7
f 6/6/6 10/10/10 8/8/8
f 8/8/8 11/11/11 9/9/9
f 10/10/10 11/11/11 8/8/8
f 11/11/11 12/12/12 9/9/9
f 13/13/13 12/12/12 11/11/11
f 14/14/14 11/11/11 10/10/10
f 14/14/14 13/13/13 11/11/11
f 15/15/15 14/14/14 10/10/10
f 14/14/14 15/15/15 16/16/16
f 17/17/17 14/14/14 16/16/16
f 13/13/13 14/14/14 17/17/17
f 18/18/18 13/13/13 17/17/17
f 21/21/21 20/20/20 19/19/19
f 20/20/20 22/22/22 19/19/19
f 19/19/19 22/22/22 23/23/23
f 20/20/20 24/24/24 22/22/22
f 22/22/22 25/25/25 23/23/23
f 24/24/24 26/26/26 22/22/22
f 22/22/22 26/26/26 25/25/25
f 26/26/26 27/27/27 25/25/25
f 24/24/24 28/28/28 26/26/26
f 26/26/26 29/29/29 27/27/27
f 28/28/28 29/29/29 26/26/26
f 29/29/29 30/30/30 27/27/27
f 31/31/31 30/30/30 29/29/29
f 32/32/32 29/29/29 28/28/28
f 32/32/32 31/31/31 29/29/29
f 33/33/33 32/32/32 28/28/28
f 32/32/32 33/33/33 34/34/34
f 35/35/35 32/32/32 34/34/34
f 31/31/31 32/32/32 35/35/35
f 36/36/36 31/31/31 35/35/35
f 39/39/39 38/38/38 37/37/37
f 38/38/38 40/40/40 37/37/37
f 37/37/37 40/40/40 41/41/41
f 38/38/38 42/42/42 40/40/40
f 40/40/40 43/43/43 41/41/41
f 42/42/42 44/44/44 40/40/40
f 40/40/40 44/44/44 43/43/43
f 44/44/44 45/45/45 43/43/43
f 42/42/42 46/46/46 44/44/44
f 44/44/44 47/47/47 45/45/45
f 46/46/46 47/47/47 44/44/44
f 47/47/47 48/48/48 45/45/45
f 49/49/49 48/48/48 47/47/47
f 50/50/50 47/47/47 46/46/46
f 50/50/50 49/49/49 47/47/47
f 51/51/51 50/50/50 46/46/46
f 50/50/50 51/51/51 52/52/52
f 53/53/53 50/50/50 52/52/52
f 49/49/49 50/50/50 53/53/53
f 54/54/54 49/49/49 53/53/53
f 57/57/57 56/56/56 55/55/55
f 56/56/56 58/58/58 55/55/55
f 55/55/55 58/58/58 59/59/59
f 56/56/56 60/60/60 58/58/58
f 58/58/58 61/61/61 59/59/59
f 60/60/60 62/62/62 58/58/58
f 58/58/58 62/62/62 61/61/61
f 62/62/62 63/63/63 61/61/61
f 60/60/60 64/64/64 62/62/62
f 62/62/62 65/65/65 63/63/63
f 64/64/64 65/65/65 62/62/62
f 65/65/65 66/66/66 63/63/63
f 67/67/67 66/66/66 65/65/65
f 68/68/68 65/65/65 64/64/64
f 68/68/68 67/67/67 65/65/65
f 69/69/69 68/68/68 64/64/64
f 68/68/68 69/69/69 70/70/70
f 71/71/71 68/68/68 70/70/70
f 67/67/67 68/68/68 71/71/71
f 72/72/72 67/67/67 71/71/71
f 75/75/75 74/74/74 73/73/73
f 74/74/74 76/76/76 73/73/73
f 73/73/73 76/76/76 77/77/77
f 78/78/78 76/76/76 74/74/74
f 79/79/79 78/78/78 74/74/74
f 80/80/80 76/76/76 78/78/78
f 83/83/83 82/82/82 81/81/81
f 84/84/84 83/83/83 81/81/81
f 81/81/81 82/82/82 85/85/85
f 86/86/86 83/83/83 84/84/84
f 87/87/87 86/86/86 84/84/84
f 82/82/82 88/88/88 85/85/85
f 85/85/85 88/88/88 89/89/89
f 90/90/90 86/86/86 87/87/87
f 91/91/91 90/90/90 87/87/87
f 88/88/88 92/92/92 89/89/89
f 89/89/89 92/92/92 93/93/93
f 94/94/94 90/90/90 91/91/91
f 95/95/95 94/94/94 91/91/91
f 93/93/93 96/96/96 95/95/95
f 92/92/92 96/96/96 93/93/93
f 96/96/96 94/94/94 95/95/95
f 82/82/82 83/83/83 97/97/97
f 83/83/83 86/86/86 98/98/98
f 83/83/83 98/98/98 97/97/97
f 82/82/82 97/97/97 99/99/99
f 88/88/88 82/82/82 99/99/99
f 97/97/97 98/98/98 99/99/99
f 86/86/86 90/90/90 100/100/100
f 86/86/86 100/100/100 98/98/98
f 90/90/90 101/101/101 100/100/100
f 90/90/90 94/94/94 101/101/101
f 101/101/101 98/98/98 100/100/100
f 92/92/92 88/88/88 102/102/102
f 88/88/88 99/99/99 102/102/102
f 99/99/99 98/98/98 103/103/103
f 102/102/102 99/99/99 103/103/103
f 92/92/92 102/102/102 103/103/103
f 96/96/96 92/92/92 103/103/103
f 103/103/103 98/98/98 101/101/101
f 94/94/94 96/96/96 104/104/104
f 94/94/94 104/104/104 101/101/101
f 96/96/96 103/103/103 104/104/104
f 104/104/104 103/103/103 101/101/101
