g CylinderPelvis
v 4.900256E-06 -0.007109981 -0.0007823987
v -1.590362E-05 -0.007238229 -0.0005745463
v 0.0002695083 -0.007237537 -0.0004994515
v 0.0004011171 -0.007109982 -0.0006762326
v 0.0004338202 -0.007251146 -0.0003714929
v 0.0004011172 -0.003990512 -0.0006762331
v 4.899846E-06 -0.003990512 -0.0007824001
v 4.900052E-06 -0.003096876 -0.0003543097
v 0.000691168 -0.007109982 -0.0003861816
v 0.0005392805 -0.007251146 -7.423542E-05
v 0.0006911683 -0.003990512 -0.0003861829
v 0.0007973344 -0.007109981 1.003518E-05
v 0.0004649001 -0.007251146 0.0002380829
v 0.0006911681 -0.007109982 0.0004062524
v 0.0002616881 -0.007251146 0.0004667155
v 0.0001870718 -0.003096876 -0.0003054972
v 0.000320431 -0.003096876 -0.0001721374
v 0.0001791937 7.404821E-11 -0.0002918518
v 4.900256E-06 6.643957E-11 -0.0003385533
v 0.0003067853 9.483555E-11 -0.0001642601
v 0.0007973343 -0.003990512 1.003426E-05
v 0.0003692436 -0.003096876 1.003371E-05
v 0.0003534871 1.232315E-10 1.00332E-05
v 0.0003067855 1.516276E-10 0.0001843269
v 0.0006911685 -0.003990512 0.0004062514
v 0.000320431 -0.003096876 0.000192206
v 0.0004011171 -0.007109982 0.0006963034
v 0.0001870718 -0.003096876 0.000325565
v 0.0001791937 1.724149E-10 0.0003119186
v 4.900256E-06 1.800236E-10 0.0003586202
v 0.0004011172 -0.003990512 0.0006963029
v 4.899846E-06 -0.007109982 0.00080247
v -1.590403E-05 -0.007251146 0.0005504013
v 4.900256E-06 -0.003096876 0.0003743776
v -0.0001693936 1.724149E-10 0.0003119186
v 4.900052E-06 -0.003990512 0.0008024691
v -0.0003913173 -0.007109982 0.0006963038
v -0.0002934965 -0.007251146 0.0004667159
v -0.0003913173 -0.003990512 0.0006963025
v -0.0006813684 -0.007109982 0.0004062528
v -0.0004967081 -0.007251146 0.0002380829
v -0.0001772717 -0.003096876 0.0003255646
v -0.0006813684 -0.003990512 0.0004062514
v -0.0007875345 -0.007109981 1.003518E-05
v -0.0005710885 -0.007251146 -7.423542E-05
v -0.0003106309 -0.003096876 0.0001922056
v -0.000296985 1.516276E-10 0.0001843269
v -0.0007875341 -0.003990512 1.003426E-05
v -0.0006813679 -0.007109981 -0.0003861812
v -0.0004800124 -0.007251146 -0.0003107327
v -0.0003594438 -0.003096876 1.003371E-05
v -0.0003436871 1.232315E-10 1.003279E-05
v -0.0006813684 -0.003990512 -0.0003861825
v -0.0003913173 -0.007109981 -0.0006762334
v -0.0003018688 -0.007242883 -0.0004768021
v -1.590362E-05 -0.007238229 -0.0005745463
v 4.900256E-06 -0.007109981 -0.0007823987
v -0.0003106307 -0.003096876 -0.0001721378
v -0.0002969854 9.483555E-11 -0.0001642601
v -0.0003913173 -0.003990512 -0.000676234
v 4.899846E-06 -0.003990512 -0.0007824001
v -0.0001772717 -0.003096876 -0.0003054972
v -0.0001693932 7.404821E-11 -0.0002918518
v 4.900052E-06 -0.003096876 -0.0003543097
v 4.900256E-06 6.643957E-11 -0.0003385533
v -0.0003018688 -0.007242883 -0.0004768021
v 0.0002695083 -0.007237537 -0.0004994515
v -1.590362E-05 -0.007238229 -0.0005745463
v 0.0004649001 -0.007251146 0.0002380829
v 0.0005392805 -0.007251146 -7.423542E-05
v 0.0004338202 -0.007251146 -0.0003714929
v -0.0004967081 -0.007251146 0.0002380829
v -0.0004800124 -0.007251146 -0.0003107327
v -0.0005710885 -0.007251146 -7.423542E-05
v -0.0002934965 -0.007251146 0.0004667159
v 0.0002616881 -0.007251146 0.0004667155
v -1.590403E-05 -0.007251146 0.0005504013
v 4.900256E-06 0.007109981 -0.0007824011
v 0.0002695083 0.007237537 -0.0004994539
v -1.590362E-05 0.007238229 -0.0005745486
v 0.0004011171 0.007109982 -0.000676235
v 0.0004338202 0.007251146 -0.0003714953
v 0.0004011172 0.003990512 -0.0006762345
v 4.899846E-06 0.003990512 -0.0007824014
v 4.900052E-06 0.003096877 -0.0003543108
v 0.000691168 0.007109982 -0.0003861839
v 0.0005392805 0.007251146 -7.423778E-05
v 0.0006911683 0.003990512 -0.0003861842
v 0.0007973344 0.007109981 1.003287E-05
v 0.0004649001 0.007251146 0.0002380806
v 0.0006911681 0.007109982 0.00040625
v 0.0002616881 0.007251146 0.0004667131
v 0.0001870718 0.003096877 -0.0003054982
v 0.000320431 0.003096876 -0.0001721384
v 0.0001791937 7.404821E-11 -0.0002918518
v 4.900256E-06 6.643957E-11 -0.0003385533
v 0.0003067853 9.483555E-11 -0.0001642601
v 0.0007973343 0.003990512 1.003297E-05
v 0.0003692436 0.003096876 1.00327E-05
v 0.0003534871 1.232315E-10 1.00332E-05
v 0.0003067855 1.516276E-10 0.0001843269
v 0.0006911685 0.003990512 0.0004062502
v 0.000320431 0.003096876 0.000192205
v 0.0004011171 0.007109982 0.0006963011
v 0.0001870718 0.003096876 0.000325564
v 0.0001791937 1.724149E-10 0.0003119186
v 4.900256E-06 1.800236E-10 0.0003586202
v 0.0004011172 0.003990512 0.0006963016
v 4.899846E-06 0.007109982 0.0008024676
v -1.590403E-05 0.007251146 0.000550399
v 4.900256E-06 0.003096877 0.0003743765
v -0.0001693936 1.724149E-10 0.0003119186
v 4.900052E-06 0.003990512 0.0008024678
v -0.0003913173 0.007109982 0.0006963015
v -0.0002934965 0.007251146 0.0004667135
v -0.0003913173 0.003990512 0.0006963012
v -0.0006813684 0.007109982 0.0004062505
v -0.0004967081 0.007251146 0.0002380806
v -0.0001772717 0.003096877 0.0003255636
v -0.0006813684 0.003990512 0.0004062502
v -0.0007875345 0.007109981 1.003287E-05
v -0.0005710885 0.007251146 -7.423778E-05
v -0.0003106309 0.003096876 0.0001922046
v -0.000296985 1.516276E-10 0.0001843269
v -0.0007875341 0.003990512 1.003297E-05
v -0.0006813679 0.007109981 -0.0003861835
v -0.0004800124 0.007251146 -0.000310735
v -0.0003594438 0.003096876 1.00327E-05
v -0.0003436871 1.232315E-10 1.003279E-05
v -0.0006813684 0.003990512 -0.0003861838
v -0.0003913173 0.007109981 -0.0006762358
v -0.0003018688 0.007242883 -0.0004768045
v -1.590362E-05 0.007238229 -0.0005745486
v 4.900256E-06 0.007109981 -0.0007824011
v -0.0003106307 0.003096876 -0.0001721388
v -0.0002969854 9.483555E-11 -0.0001642601
v -0.0003913173 0.003990512 -0.0006762353
v 4.899846E-06 0.003990512 -0.0007824014
v -0.0001772717 0.003096876 -0.0003054982
v -0.0001693932 7.404821E-11 -0.0002918518
v 4.900052E-06 0.003096877 -0.0003543108
v 4.900256E-06 6.643957E-11 -0.0003385533
v -0.0003018688 0.007242883 -0.0004768045
v -1.590362E-05 0.007238229 -0.0005745486
v 0.0002695083 0.007237537 -0.0004994539
v 0.0004649001 0.007251146 0.0002380806
v 0.0005392805 0.007251146 -7.423778E-05
v 0.0004338202 0.007251146 -0.0003714953
v -0.0004967081 0.007251146 0.0002380806
v -0.0004800124 0.007251146 -0.000310735
v -0.0005710885 0.007251146 -7.423778E-05
v -0.0002934965 0.007251146 0.0004667135
v 0.0002616881 0.007251146 0.0004667131
v -1.590403E-05 0.007251146 0.000550399
vt 0.3159625 0.2725314
vt 0.3162935 0.2746673
vt 0.3223435 0.2755459
vt 0.3233717 0.2724965
vt 0.3287663 0.2769817
vt 0.3307137 0.2137475
vt 0.3236087 0.21178
vt 0.3420452 0.1965964
vt 0.3306894 0.2727529
vt 0.3359518 0.2782244
vt 0.3375812 0.2153546
vt 0.3379348 0.2732919
vt 0.3436822 0.2793156
vt 0.3451142 0.2740233
vt 0.351481 0.2800561
vt 0.345443 0.1976638
vt 0.349079 0.1985682
vt 0.3550431 0.1414478
vt 0.351763 0.1409011
vt 0.3583196 0.1419748
vt 0.3442558 0.2166687
vt 0.3528884 0.1993404
vt 0.3615974 0.1424735
vt 0.3648791 0.142938
vt 0.3507797 0.2177379
vt 0.3568199 0.2000003
vt 0.3522599 0.2748145
vt 0.3608314 0.200559
vt 0.3681659 0.1433649
vt 0.3714582 0.1437525
vt 0.3571999 0.2185899
vt 0.3594178 0.2755541
vt 0.359074 0.280629
vt 0.3648863 0.2010214
vt 0.3747559 0.1441013
vt 0.3635677 0.2192335
vt 0.3666208 0.2761735
vt 0.3666289 0.2812087
vt 0.3699377 0.2196653
vt 0.3738792 0.2766812
vt 0.3744275 0.2816646
vt 0.3689509 0.201387
vt 0.3763637 0.2198751
vt 0.3811997 0.2771251
vt 0.3823722 0.2817079
vt 0.372992 0.2016509
vt 0.3780589 0.1444133
vt 0.3828979 0.219843
vt 0.3886 0.2775459
vt 0.3899379 0.2813616
vt 0.3769747 0.2018035
vt 0.381367 0.1446925
vt 0.3895924 0.2195353
vt 0.3960976 0.277973
vt 0.3965413 0.2807324
vt 0.4026661 0.2803475
vt 0.403685 0.2785303
vt 0.3808594 0.2018283
vt 0.384681 0.1449451
vt 0.3965027 0.2189073
vt 0.403685 0.2179105
vt 0.3845983 0.2017
vt 0.3880026 0.1451802
vt 0.3881285 0.2013805
vt 0.3913357 0.1454113
vt 0.8091212 0.7006927
vt 0.8055084 0.7128092
vt 0.8091212 0.7073753
vt 0.7886782 0.7116184
vt 0.7946784 0.7154114
vt 0.8016518 0.7153431
vt 0.7955585 0.6915011
vt 0.8069218 0.6957741
vt 0.8026248 0.6921778
vt 0.7893214 0.6941165
vt 0.7853491 0.7057313
vt 0.7855845 0.6993251
vt 0.3159625 0.2725314
vt 0.3223435 0.2755459
vt 0.3162935 0.2746673
vt 0.3233717 0.2724965
vt 0.3287663 0.2769817
vt 0.3307137 0.2137475
vt 0.3236087 0.21178
vt 0.3420452 0.1965964
vt 0.3306894 0.2727529
vt 0.3359518 0.2782244
vt 0.3375812 0.2153546
vt 0.3379348 0.2732919
vt 0.3436822 0.2793156
vt 0.3451142 0.2740233
vt 0.351481 0.2800561
vt 0.345443 0.1976638
vt 0.349079 0.1985682
vt 0.3550431 0.1414478
vt 0.351763 0.1409011
vt 0.3583196 0.1419748
vt 0.3442558 0.2166687
vt 0.3528884 0.1993404
vt 0.3615974 0.1424735
vt 0.3648791 0.142938
vt 0.3507797 0.2177379
vt 0.3568199 0.2000003
vt 0.3522599 0.2748145
vt 0.3608314 0.200559
vt 0.3681659 0.1433649
vt 0.3714582 0.1437525
vt 0.3571999 0.2185899
vt 0.3594178 0.2755541
vt 0.359074 0.280629
vt 0.3648863 0.2010214
vt 0.3747559 0.1441013
vt 0.3635677 0.2192335
vt 0.3666208 0.2761735
vt 0.3666289 0.2812087
vt 0.3699377 0.2196653
vt 0.3738792 0.2766812
vt 0.3744275 0.2816646
vt 0.3689509 0.201387
vt 0.3763637 0.2198751
vt 0.3811997 0.2771251
vt 0.3823722 0.2817079
vt 0.372992 0.2016509
vt 0.3780589 0.1444133
vt 0.3828979 0.219843
vt 0.3886 0.2775459
vt 0.3899379 0.2813616
vt 0.3769747 0.2018035
vt 0.381367 0.1446925
vt 0.3895924 0.2195353
vt 0.3960976 0.277973
vt 0.3965413 0.2807324
vt 0.4026661 0.2803475
vt 0.403685 0.2785303
vt 0.3808594 0.2018283
vt 0.384681 0.1449451
vt 0.3965027 0.2189073
vt 0.403685 0.2179105
vt 0.3845983 0.2017
vt 0.3880026 0.1451802
vt 0.3881285 0.2013805
vt 0.3913357 0.1454113
vt 0.8091212 0.7006927
vt 0.8091212 0.7073753
vt 0.8055084 0.7128092
vt 0.7886782 0.7116184
vt 0.7946784 0.7154114
vt 0.8016518 0.7153431
vt 0.7955585 0.6915011
vt 0.8069218 0.6957741
vt 0.8026248 0.6921778
vt 0.7893214 0.6941165
vt 0.7853491 0.7057313
vt 0.7855845 0.6993251
vn 0.00321978 -0.4561129 -0.8899161
vn 0.5205075 -0.755226 -0.3983788
vn 0.6859366 -0.7226359 -0.08537079
vn 0.4383983 -0.453461 -0.7760026
vn 0.5158439 -0.8047252 0.2938069
vn 0.4884153 0.2140144 -0.84596
vn 7.756777E-07 0.2140144 -0.9768305
vn 4.106446E-07 0.2323031 -0.9726434
vn 0.7762864 -0.4545839 -0.4367299
vn 0.3029417 -0.8557287 0.4194696
vn 0.8459597 0.2140147 -0.4884158
vn 0.8792742 -0.4762456 0.008174136
vn 0.1665558 -0.8762496 0.4521568
vn 0.7564951 -0.4863661 0.4372221
vn -0.009138674 -0.9976708 0.0675972
vn 0.486322 0.2323031 -0.8423337
vn 0.8423343 0.2323029 -0.4863212
vn 0.4999997 -1.487269E-07 -0.8660255
vn -1.177549E-07 -1.676627E-07 -1
vn 0.8660255 0 -0.4999999
vn 0.9768304 0.2140149 -1.770001E-07
vn 0.9726434 0.2323033 -1.06598E-06
vn 1 0 -8.439101E-07
vn 0.8660257 0 0.4999995
vn 0.8459602 0.2140149 0.4884148
vn 0.8423339 0.2323038 0.4863213
vn 0.4385191 -0.4825541 0.7581838
vn 0.4863205 0.2323037 0.8423344
vn 0.4999993 1.437438E-07 0.8660258
vn 2.306032E-07 1.710838E-07 1
vn 0.4884154 0.2140152 0.8459598
vn 0.004268799 -0.4740946 0.8804635
vn -0.01813861 -0.9929248 0.1173509
vn -8.043305E-07 0.232304 0.9726432
vn -0.4999999 1.46657E-07 0.8660254
vn -3.169086E-07 0.2140154 0.9768302
vn -0.4400738 -0.4680563 0.7663278
vn -0.03930875 -0.9975371 0.05809015
vn -0.4884155 0.2140153 0.8459597
vn -0.7655124 -0.4640794 0.4456694
vn 0.0192095 -0.9968094 -0.07747158
vn -0.4863215 0.2323039 0.8423339
vn -0.8459601 0.2140151 0.4884148
vn -0.8946395 -0.4466667 0.01043776
vn 0.07900961 -0.9592336 -0.2713457
vn -0.8423335 0.2323034 0.4863222
vn -0.8660256 0 0.4999996
vn -0.9768305 0.2140147 0
vn -0.7787429 -0.4358579 -0.4512066
vn 0.3528139 -0.9324865 -0.07740518
vn -0.9726433 0.2323036 -8.927586E-07
vn -1 0 0
vn -0.8459604 0.2140146 -0.4884146
vn -0.4417283 -0.4512219 -0.7754192
vn 0.08757885 -0.9222212 0.3766139
vn 0.5205075 -0.755226 -0.3983788
vn 0.00321978 -0.4561129 -0.8899161
vn -0.8423337 0.2323032 -0.4863222
vn -0.8660249 0 -0.5000008
vn -0.4884157 0.2140147 -0.8459598
vn 7.756777E-07 0.2140144 -0.9768305
vn -0.4863219 0.2323031 -0.8423339
vn -0.4999987 -1.406773E-07 -0.8660262
vn 4.106446E-07 0.2323031 -0.9726434
vn -1.177549E-07 -1.676627E-07 -1
vn 0.08757885 -0.9222212 0.3766139
vn 0.6859366 -0.7226359 -0.08537079
vn 0.5205075 -0.755226 -0.3983788
vn 0.1665558 -0.8762496 0.4521568
vn 0.3029417 -0.8557287 0.4194696
vn 0.5158439 -0.8047252 0.2938069
vn 0.0192095 -0.9968094 -0.07747158
vn 0.3528139 -0.9324865 -0.07740518
vn 0.07900961 -0.9592336 -0.2713457
vn -0.03930875 -0.9975371 0.05809015
vn -0.009138674 -0.9976708 0.0675972
vn -0.01813861 -0.9929248 0.1173509
vn 0.003219401 0.4561128 -0.8899162
vn 0.6859477 0.7226193 -0.08542296
vn 0.5204987 0.7552146 -0.3984119
vn 0.4383984 0.4534608 -0.7760027
vn 0.5158788 0.8047127 0.2937795
vn 0.4884154 -0.2140147 -0.8459598
vn 9.058249E-07 -0.2140148 -0.9768304
vn 3.634024E-07 -0.2323035 -0.9726433
vn 0.7762864 0.4545838 -0.4367298
vn 0.3029152 0.8557363 0.4194731
vn 0.8459597 -0.2140149 -0.4884157
vn 0.8792742 0.4762456 0.008174117
vn 0.1665352 0.8762549 0.4521542
vn 0.7564951 0.4863662 0.4372221
vn -0.009126469 0.9976717 0.06758645
vn 0.4863221 -0.2323033 -0.8423337
vn 0.8423343 -0.2323032 -0.4863212
vn 0.4999997 -1.487269E-07 -0.8660255
vn -1.177549E-07 -1.676627E-07 -1
vn 0.8660255 0 -0.4999999
vn 0.9768304 -0.2140149 -1.874119E-07
vn 0.9726434 -0.2323035 -1.012681E-06
vn 1 0 -8.439101E-07
vn 0.8660257 0 0.4999995
vn 0.8459601 -0.2140148 0.4884149
vn 0.8423339 -0.2323038 0.4863214
vn 0.438519 0.4825542 0.7581837
vn 0.4863207 -0.2323034 0.8423344
vn 0.4999993 1.437438E-07 0.8660258
vn 2.306032E-07 1.710838E-07 1
vn 0.4884152 -0.214015 0.8459599
vn 0.004268957 0.4740947 0.8804635
vn -0.01813502 0.9929249 0.1173506
vn -7.570885E-07 -0.2323038 0.9726433
vn -0.4999999 1.46657E-07 0.8660254
vn -3.904418E-07 -0.2140151 0.9768304
vn -0.4400737 0.4680564 0.7663278
vn -0.03932526 0.9975371 0.05807959
vn -0.4884156 -0.2140151 0.8459597
vn -0.7655124 0.4640794 0.4456694
vn 0.01920308 0.9968088 -0.07748082
vn -0.4863214 -0.2323036 0.842334
vn -0.84596 -0.2140151 0.488415
vn -0.8946395 0.4466667 0.01043774
vn 0.07899185 0.959226 -0.2713772
vn -0.8423334 -0.2323032 0.4863226
vn -0.8660256 0 0.4999996
vn -0.9768305 -0.2140148 0
vn -0.7787429 0.4358579 -0.4512065
vn 0.3528147 0.9324855 -0.077411
vn -0.9726433 -0.2323037 -9.64228E-07
vn -1 0 0
vn -0.8459603 -0.2140147 -0.4884147
vn -0.4417286 0.4512217 -0.7754191
vn 0.08758298 0.9222214 0.3766125
vn 0.5204987 0.7552146 -0.3984119
vn 0.003219401 0.4561128 -0.8899162
vn -0.8423336 -0.2323035 -0.486322
vn -0.8660249 0 -0.5000008
vn -0.4884154 -0.2140148 -0.8459598
vn 9.058249E-07 -0.2140148 -0.9768304
vn -0.4863217 -0.2323037 -0.8423337
vn -0.4999987 -1.406773E-07 -0.8660262
vn 3.634024E-07 -0.2323035 -0.9726433
vn -1.177549E-07 -1.676627E-07 -1
vn 0.08758298 0.9222214 0.3766125
vn 0.5204987 0.7552146 -0.3984119
vn 0.6859477 0.7226193 -0.08542296
vn 0.1665352 0.8762549 0.4521542
vn 0.3029152 0.8557363 0.4194731
vn 0.5158788 0.8047127 0.2937795
vn 0.01920308 0.9968088 -0.07748082
vn 0.3528147 0.9324855 -0.077411
vn 0.07899185 0.959226 -0.2713772
vn -0.03932526 0.9975371 0.05807959
vn -0.009126469 0.9976717 0.06758645
vn -0.01813502 0.9929249 0.1173506
g CylinderPelvis_0
f 3/3/3 2/2/2 1/1/1
f 4/4/4 3/3/3 1/1/1
f 5/5/5 3/3/3 4/4/4
f 4/4/4 1/1/1 6/6/6
f 1/1/1 7/7/7 6/6/6
f 7/7/7 8/8/8 6/6/6
f 9/9/9 5/5/5 4/4/4
f 10/10/10 5/5/5 9/9/9
f 9/9/9 4/4/4 11/11/11
f 4/4/4 6/6/6 11/11/11
f 12/12/12 10/10/10 9/9/9
f 9/9/9 11/11/11 12/12/12
f 13/13/13 10/10/10 12/12/12
f 14/14/14 13/13/13 12/12/12
f 15/15/15 13/13/13 14/14/14
f 8/8/8 16/16/16 6/6/6
f 11/11/11 6/6/6 17/17/17
f 6/6/6 16/16/16 17/17/17
f 16/16/16 8/8/8 18/18/18
f 16/16/16 18/18/18 17/17/17
f 8/8/8 19/19/19 18/18/18
f 18/18/18 20/20/20 17/17/17
f 11/11/11 21/21/21 12/12/12
f 11/11/11 17/17/17 21/21/21
f 17/17/17 20/20/20 22/22/22
f 17/17/17 22/22/22 21/21/21
f 20/20/20 23/23/23 22/22/22
f 22/22/22 23/23/23 24/24/24
f 14/14/14 12/12/12 25/25/25
f 12/12/12 21/21/21 25/25/25
f 21/21/21 22/22/22 26/26/26
f 26/26/26 22/22/22 24/24/24
f 25/25/25 21/21/21 26/26/26
f 14/14/14 25/25/25 27/27/27
f 27/27/27 15/15/15 14/14/14
f 26/26/26 24/24/24 28/28/28
f 24/24/24 29/29/29 28/28/28
f 28/28/28 29/29/29 30/30/30
f 25/25/25 26/26/26 31/31/31
f 25/25/25 31/31/31 27/27/27
f 26/26/26 28/28/28 31/31/31
f 15/15/15 27/27/27 32/32/32
f 27/27/27 31/31/31 32/32/32
f 33/33/33 15/15/15 32/32/32
f 34/34/34 28/28/28 30/30/30
f 31/31/31 28/28/28 34/34/34
f 34/34/34 30/30/30 35/35/35
f 31/31/31 36/36/36 32/32/32
f 36/36/36 31/31/31 34/34/34
f 33/33/33 32/32/32 37/37/37
f 32/32/32 36/36/36 37/37/37
f 38/38/38 33/33/33 37/37/37
f 36/36/36 34/34/34 39/39/39
f 36/36/36 39/39/39 37/37/37
f 38/38/38 37/37/37 40/40/40
f 37/37/37 39/39/39 40/40/40
f 41/41/41 38/38/38 40/40/40
f 42/42/42 34/34/34 35/35/35
f 34/34/34 42/42/42 39/39/39
f 39/39/39 43/43/43 40/40/40
f 39/39/39 42/42/42 43/43/43
f 41/41/41 40/40/40 44/44/44
f 40/40/40 43/43/43 44/44/44
f 45/45/45 41/41/41 44/44/44
f 42/42/42 35/35/35 46/46/46
f 42/42/42 46/46/46 43/43/43
f 35/35/35 47/47/47 46/46/46
f 43/43/43 48/48/48 44/44/44
f 43/43/43 46/46/46 48/48/48
f 45/45/45 44/44/44 49/49/49
f 44/44/44 48/48/48 49/49/49
f 50/50/50 45/45/45 49/49/49
f 46/46/46 47/47/47 51/51/51
f 46/46/46 51/51/51 48/48/48
f 47/47/47 52/52/52 51/51/51
f 48/48/48 53/53/53 49/49/49
f 48/48/48 51/51/51 53/53/53
f 50/50/50 49/49/49 54/54/54
f 49/49/49 53/53/53 54/54/54
f 55/55/55 50/50/50 54/54/54
f 56/56/56 55/55/55 54/54/54
f 57/57/57 56/56/56 54/54/54
f 51/51/51 52/52/52 58/58/58
f 51/51/51 58/58/58 53/53/53
f 52/52/52 59/59/59 58/58/58
f 53/53/53 60/60/60 54/54/54
f 54/54/54 60/60/60 57/57/57
f 53/53/53 58/58/58 60/60/60
f 60/60/60 61/61/61 57/57/57
f 58/58/58 59/59/59 62/62/62
f 58/58/58 62/62/62 60/60/60
f 60/60/60 62/62/62 61/61/61
f 59/59/59 63/63/63 62/62/62
f 62/62/62 64/64/64 61/61/61
f 62/62/62 63/63/63 65/65/65
f 64/64/64 62/62/62 65/65/65
f 68/68/68 67/67/67 66/66/66
f 67/67/67 69/69/69 66/66/66
f 69/69/69 67/67/67 70/70/70
f 71/71/71 70/70/70 67/67/67
f 69/69/69 72/72/72 66/66/66
f 72/72/72 73/73/73 66/66/66
f 74/74/74 73/73/73 72/72/72
f 72/72/72 69/69/69 75/75/75
f 76/76/76 75/75/75 69/69/69
f 77/77/77 75/75/75 76/76/76
f 80/80/80 79/79/79 78/78/78
f 79/79/79 81/81/81 78/78/78
f 79/79/79 82/82/82 81/81/81
f 78/78/78 81/81/81 83/83/83
f 84/84/84 78/78/78 83/83/83
f 85/85/85 84/84/84 83/83/83
f 82/82/82 86/86/86 81/81/81
f 82/82/82 87/87/87 86/86/86
f 81/81/81 86/86/86 88/88/88
f 83/83/83 81/81/81 88/88/88
f 87/87/87 89/89/89 86/86/86
f 88/88/88 86/86/86 89/89/89
f 87/87/87 90/90/90 89/89/89
f 90/90/90 91/91/91 89/89/89
f 90/90/90 92/92/92 91/91/91
f 93/93/93 85/85/85 83/83/83
f 83/83/83 88/88/88 94/94/94
f 93/93/93 83/83/83 94/94/94
f 85/85/85 93/93/93 95/95/95
f 95/95/95 93/93/93 94/94/94
f 96/96/96 85/85/85 95/95/95
f 97/97/97 95/95/95 94/94/94
f 98/98/98 88/88/88 89/89/89
f 94/94/94 88/88/88 98/98/98
f 97/97/97 94/94/94 99/99/99
f 99/99/99 94/94/94 98/98/98
f 100/100/100 97/97/97 99/99/99
f 100/100/100 99/99/99 101/101/101
f 89/89/89 91/91/91 102/102/102
f 98/98/98 89/89/89 102/102/102
f 99/99/99 98/98/98 103/103/103
f 99/99/99 103/103/103 101/101/101
f 98/98/98 102/102/102 103/103/103
f 102/102/102 91/91/91 104/104/104
f 92/92/92 104/104/104 91/91/91
f 101/101/101 103/103/103 105/105/105
f 106/106/106 101/101/101 105/105/105
f 106/106/106 105/105/105 107/107/107
f 103/103/103 102/102/102 108/108/108
f 108/108/108 102/102/102 104/104/104
f 105/105/105 103/103/103 108/108/108
f 104/104/104 92/92/92 109/109/109
f 108/108/108 104/104/104 109/109/109
f 92/92/92 110/110/110 109/109/109
f 105/105/105 111/111/111 107/107/107
f 105/105/105 108/108/108 111/111/111
f 107/107/107 111/111/111 112/112/112
f 113/113/113 108/108/108 109/109/109
f 108/108/108 113/113/113 111/111/111
f 109/109/109 110/110/110 114/114/114
f 113/113/113 109/109/109 114/114/114
f 110/110/110 115/115/115 114/114/114
f 111/111/111 113/113/113 116/116/116
f 116/116/116 113/113/113 114/114/114
f 114/114/114 115/115/115 117/117/117
f 116/116/116 114/114/114 117/117/117
f 115/115/115 118/118/118 117/117/117
f 111/111/111 119/119/119 112/112/112
f 119/119/119 111/111/111 116/116/116
f 120/120/120 116/116/116 117/117/117
f 119/119/119 116/116/116 120/120/120
f 117/117/117 118/118/118 121/121/121
f 120/120/120 117/117/117 121/121/121
f 118/118/118 122/122/122 121/121/121
f 112/112/112 119/119/119 123/123/123
f 123/123/123 119/119/119 120/120/120
f 124/124/124 112/112/112 123/123/123
f 125/125/125 120/120/120 121/121/121
f 123/123/123 120/120/120 125/125/125
f 121/121/121 122/122/122 126/126/126
f 125/125/125 121/121/121 126/126/126
f 122/122/122 127/127/127 126/126/126
f 124/124/124 123/123/123 128/128/128
f 128/128/128 123/123/123 125/125/125
f 129/129/129 124/124/124 128/128/128
f 130/130/130 125/125/125 126/126/126
f 128/128/128 125/125/125 130/130/130
f 126/126/126 127/127/127 131/131/131
f 130/130/130 126/126/126 131/131/131
f 127/127/127 132/132/132 131/131/131
f 132/132/132 133/133/133 131/131/131
f 133/133/133 134/134/134 131/131/131
f 129/129/129 128/128/128 135/135/135
f 135/135/135 128/128/128 130/130/130
f 136/136/136 129/129/129 135/135/135
f 137/137/137 130/130/130 131/131/131
f 137/137/137 131/131/131 134/134/134
f 135/135/135 130/130/130 137/137/137
f 138/138/138 137/137/137 134/134/134
f 136/136/136 135/135/135 139/139/139
f 139/139/139 135/135/135 137/137/137
f 139/139/139 137/137/137 138/138/138
f 140/140/140 136/136/136 139/139/139
f 141/141/141 139/139/139 138/138/138
f 140/140/140 139/139/139 142/142/142
f 139/139/139 141/141/141 142/142/142
f 145/145/145 144/144/144 143/143/143
f 146/146/146 145/145/145 143/143/143
f 145/145/145 146/146/146 147/147/147
f 147/147/147 148/148/148 145/145/145
f 149/149/149 146/146/146 143/143/143
f 150/150/150 149/149/149 143/143/143
f 150/150/150 151/151/151 149/149/149
f 146/146/146 149/149/149 152/152/152
f 152/152/152 153/153/153 146/146/146
f 152/152/152 154/154/154 153/153/153
