g Cylinder003
v 0.380425 -0.00204399 0.133101
v 0.465135 0.821421 0.116913
v 0.46356 -0.00194901 0.114664
v 0.381996 0.821421 0.135344
v 0.308614 -0.00227203 0.087359
v 0.465135 1.208276 0.116913
v 0.310175 0.821421 0.089589
v 0.381996 1.208276 0.135344
v 0.310175 1.208276 0.089589
v 0.465134 1.834331 0.116913
v 0.381996 1.834331 0.135344
v 0.310175 1.834331 0.089589
v 0.348745 1.987957 0.052047
v 0.395603 1.987957 0.081899
v 0.449846 1.987957 0.069874
v 0.411812 2.203647 0.04076
v 0.398139 2.203647 0.043791
v 0.386328 2.203647 0.036266
v 0.509318 -0.00204399 0.042849
v 0.492458 0.821421 -0.038047
v 0.490897 -0.00227203 -0.040276
v 0.510889 0.821421 0.045092
v 0.46356 -0.00194901 0.114664
v 0.492458 1.208276 -0.038047
v 0.465135 0.821421 0.116913
v 0.510889 1.208276 0.045092
v 0.465135 1.208276 0.116913
v 0.492458 1.834331 -0.038047
v 0.510889 1.834331 0.045092
v 0.465134 1.834331 0.116913
v 0.449846 1.987957 0.069874
v 0.472806 1.987957 0.038377
v 0.470571 1.987957 -0.039347
v 0.416305 2.203647 0.015276
v 0.419337 2.203647 0.028949
v 0.411812 2.203647 0.04076
v 0.419085 -0.00250099 -0.086018
v 0.337499 0.821421 -0.06537
v 0.335951 -0.00259499 -0.067581
v 0.420637 0.821421 -0.083801
v 0.490897 -0.00227203 -0.040276
v 0.337499 1.208276 -0.06537
v 0.492458 0.821421 -0.038047
v 0.420637 1.208276 -0.083801
v 0.492458 1.208276 -0.038047
v 0.337499 1.834331 -0.06537
v 0.420637 1.834331 -0.083802
v 0.492458 1.834331 -0.038047
v 0.470571 1.987957 -0.039347
v 0.423713 1.987957 -0.069199
v 0.36947 1.987957 -0.05717401
v 0.390821 2.203647 0.010782
v 0.404494 2.203647 0.007751
v 0.416305 2.203647 0.015276
v 0.290192 -0.00250099 0.004235
v 0.310175 0.821421 0.089589
v 0.308614 -0.00227203 0.087359
v 0.291744 0.821421 0.006451
v 0.335951 -0.00259499 -0.067581
v 0.310175 1.208276 0.089589
v 0.337499 0.821421 -0.06537
v 0.291744 1.208276 0.006451
v 0.337499 1.208276 -0.06537
v 0.310175 1.834331 0.089589
v 0.291744 1.834331 0.006451
v 0.337499 1.834331 -0.06537
v 0.36947 1.987957 -0.05717401
v 0.329828 1.987957 0.013166
v 0.348745 1.987957 0.052047
v 0.386328 2.203647 0.036266
v 0.383297 2.203647 0.022594
v 0.390821 2.203647 0.010782
v 0.398139 2.203647 0.043791
v 0.419337 2.203647 0.028949
v 0.411812 2.203647 0.04076
v 0.383297 2.203647 0.022594
v 0.386328 2.203647 0.036266
v 0.404494 2.203647 0.007751
v 0.416305 2.203647 0.015276
v 0.390821 2.203647 0.010782
v 0.380425 -0.00204399 0.133101
v 0.389083 -0.00274902 0.093439
v 0.343166 -0.00289497 0.064191
v 0.308614 -0.00227203 0.087359
v 0.46356 -0.00194901 0.114664
v 0.331386 -0.003041 0.011039
v 0.290192 -0.00250099 0.004235
v 0.442241 -0.00268799 0.08165
v 0.509318 -0.00204399 0.042849
v 0.360646 -0.00310097 -0.034881
v 0.335951 -0.00259499 -0.067581
v 0.471501 -0.00274902 0.03573
v 0.490897 -0.00227203 -0.040276
v 0.413804 -0.003041 -0.04667
v 0.419085 -0.00250099 -0.086018
v 0.459721 -0.00289497 -0.017422
v 0.398301 -0.00384399 0.040119
v 0.38719 -0.00387901 0.033042
v 0.411164 -0.00382896 0.037267
v 0.38434 -0.00391403 0.020181
v 0.39142 -0.00392899 0.009068999
v 0.418244 -0.00384399 0.026155
v 0.415394 -0.00387901 0.013294
v 0.404283 -0.00391403 0.006217
vt 0.3063965 0.6699219
vt 0.3232422 0.5043945
vt 0.322998 0.6699219
vt 0.3066406 0.5043945
vt 0.2919922 0.6699219
vt 0.3232422 0.4267578
vt 0.2922363 0.5043945
vt 0.3066406 0.4267578
vt 0.2922363 0.4267578
vt 0.3232422 0.3012695
vt 0.3066406 0.3012695
vt 0.2922363 0.3012695
vt 0.3000488 0.2702637
vt 0.3093262 0.2702637
vt 0.3203125 0.2702637
vt 0.3127441 0.2270508
vt 0.3098145 0.2270508
vt 0.3076172 0.2270508
vt 0.1711426 0.8120117
vt 0.3361816 0.8286133
vt 0.1711426 0.8291016
vt 0.3361816 0.8120117
vt 0.1711426 0.7978516
vt 0.4138184 0.8286133
vt 0.3361816 0.7973633
vt 0.4138184 0.8120117
vt 0.4138184 0.7973633
vt 0.5390625 0.8286133
vt 0.5390625 0.8120117
vt 0.5390625 0.7973633
vt 0.5698242 0.8066406
vt 0.5698242 0.8129883
vt 0.5698242 0.8286133
vt 0.6132813 0.8178711
vt 0.6132813 0.8149414
vt 0.6132813 0.8125
vt 0.2260742 0.2272949
vt 0.2424316 0.3925781
vt 0.2427979 0.2272949
vt 0.2258301 0.3925781
vt 0.2116699 0.227417
vt 0.2424316 0.4702148
vt 0.2114258 0.3925781
vt 0.2258301 0.4702148
vt 0.2114258 0.4702148
vt 0.2424316 0.5957031
vt 0.2258301 0.5957031
vt 0.2114258 0.5957031
vt 0.2158203 0.6264648
vt 0.2252197 0.6264648
vt 0.236084 0.6264648
vt 0.2318115 0.6699219
vt 0.2290039 0.6699219
vt 0.2266846 0.6699219
vt 0.6142578 0.7714844
vt 0.4487305 0.7885742
vt 0.6142578 0.7880859
vt 0.4487305 0.7719727
vt 0.6142578 0.7568359
vt 0.3710938 0.7885742
vt 0.4487305 0.7573242
vt 0.3710938 0.7719727
vt 0.3710938 0.7573242
vt 0.2452393 0.7885742
vt 0.2452393 0.7719727
vt 0.2452393 0.7573242
vt 0.2144775 0.7592773
vt 0.2144775 0.7734375
vt 0.2144775 0.78125
vt 0.1711426 0.777832
vt 0.1711426 0.7753906
vt 0.1711426 0.7729492
vt 0.4799805 0.9609375
vt 0.4772949 0.9570313
vt 0.4794922 0.9584961
vt 0.4760742 0.9638672
vt 0.4787598 0.9633789
vt 0.4731445 0.9599609
vt 0.4746094 0.9575195
vt 0.473877 0.9624023
vt 0.5073242 0.965332
vt 0.5151367 0.9667969
vt 0.5205078 0.9584961
vt 0.5161133 0.9516602
vt 0.5107422 0.9814453
vt 0.5307617 0.9560547
vt 0.5322266 0.9482422
vt 0.5170898 0.9770508
vt 0.5249023 0.9902344
vt 0.5395508 0.9614258
vt 0.5458984 0.9570313
vt 0.5258789 0.9829102
vt 0.5405273 0.9863281
vt 0.5419922 0.9716797
vt 0.5493164 0.9726563
vt 0.5361328 0.9804688
vt 0.5253906 0.96875
vt 0.5263672 0.9667969
vt 0.5258789 0.9711914
vt 0.5288086 0.9663086
vt 0.53125 0.9672852
vt 0.527832 0.9726563
vt 0.5302734 0.972168
vt 0.5317383 0.9697266
vn -0.1173096 -0.7290039 0.6748047
vn 0.5737305 -0.001665115 0.8193359
vn 0.3928223 -0.7285156 0.5610352
vn -0.173584 -0.00117588 0.9848633
vn -0.5595703 -0.7290039 0.3942871
vn 0.5737305 0 0.8193359
vn -0.8193359 -2.026558E-06 0.5737305
vn -0.1737061 0 0.9848633
vn -0.8193359 0 0.5737305
vn 0.5649414 0.1469727 0.8120117
vn -0.1705322 0.1717529 0.9702148
vn -0.7988281 0.1577148 0.5805664
vn -0.7573242 0.2459717 0.6049805
vn -0.1674805 0.2563477 0.9521484
vn 0.543457 0.2484131 0.8017578
vn 0.5410156 0.2070313 0.8154297
vn -0.1715088 0.1733398 0.9697266
vn -0.7514648 0.1832275 0.6337891
vn 0.6743164 -0.7285156 0.1204224
vn 0.8193359 -2.026558E-06 -0.5737305
vn 0.5625 -0.7285156 -0.3911133
vn 0.9848633 -0.00117588 0.1737061
vn 0.3928223 -0.7285156 0.5610352
vn 0.8193359 0 -0.5737305
vn 0.5737305 -0.001665115 0.8193359
vn 0.9848633 0 0.1737061
vn 0.5737305 0 0.8193359
vn 0.8286133 0.07019043 -0.5551758
vn 0.9736328 0.1138916 0.1982422
vn 0.5649414 0.1469727 0.8120117
vn 0.543457 0.2484131 0.8017578
vn 0.940918 0.2355957 0.2436523
vn 0.8305664 0.2318115 -0.5063477
vn 0.8203125 0.3208008 -0.473877
vn 0.9316406 0.24646 0.2670898
vn 0.5410156 0.2070313 0.8154297
vn 0.1204224 -0.7285156 -0.6743164
vn -0.5737305 0.00164032 -0.8193359
vn -0.3925781 -0.7290039 -0.5610352
vn 0.173584 0.001160622 -0.9848633
vn 0.5625 -0.7285156 -0.3911133
vn -0.5737305 0 -0.8193359
vn 0.8193359 -2.026558E-06 -0.5737305
vn 0.173584 0 -0.9848633
vn 0.8193359 0 -0.5737305
vn -0.5751953 0.08496094 -0.8134766
vn 0.1737061 0.04492188 -0.9838867
vn 0.8286133 0.07019043 -0.5551758
vn 0.8305664 0.2318115 -0.5063477
vn 0.1690674 0.2194824 -0.9609375
vn -0.5722656 0.2335205 -0.7861328
vn -0.5698242 0.2963867 -0.7666016
vn 0.1618652 0.3442383 -0.9248047
vn 0.8203125 0.3208008 -0.473877
vn -0.6743164 -0.7290039 -0.1174316
vn -0.8193359 -2.026558E-06 0.5737305
vn -0.5595703 -0.7290039 0.3942871
vn -0.9848633 0.001160622 -0.1737061
vn -0.3925781 -0.7290039 -0.5610352
vn -0.8193359 0 0.5737305
vn -0.5737305 0.00164032 -0.8193359
vn -0.9848633 0 -0.1737061
vn -0.5737305 0 -0.8193359
vn -0.7988281 0.1577148 0.5805664
vn -0.9804688 0.1297607 -0.1481934
vn -0.5751953 0.08496094 -0.8134766
vn -0.5722656 0.2335205 -0.7861328
vn -0.9643555 0.2484131 -0.08972168
vn -0.7573242 0.2459717 0.6049805
vn -0.7514648 0.1832275 0.6337891
vn -0.9692383 0.2382813 -0.05895996
vn -0.5698242 0.2963867 -0.7666016
vn 0 1 0
vn 0 1 0
vn 0 1 0
vn 0 1 0
vn 0 1 0
vn 0 1 0
vn 0 1 0
vn 0 1 0
vn -0.1173096 -0.7290039 0.6748047
vn -0.001198769 -1 0.0189209
vn -0.01194763 -1 0.01193237
vn -0.5595703 -0.7290039 0.3942871
vn 0.3928223 -0.7285156 0.5610352
vn -0.01470947 -1 -0.0005331039
vn -0.6743164 -0.7290039 -0.1174316
vn 0.01148224 -1 0.01631165
vn 0.6743164 -0.7285156 0.1204224
vn -0.007926941 -1 -0.01140594
vn -0.3925781 -0.7290039 -0.5610352
vn 0.01861572 -1 0.005348206
vn 0.5625 -0.7285156 -0.3911133
vn 0.004665375 -1 -0.01438141
vn 0.1204224 -0.7285156 -0.6743164
vn 0.01576233 -1 -0.007472992
vn -0.001494408 -1 0.02026367
vn -0.01328278 -1 0.01281738
vn 0.01207733 -1 0.01724243
vn -0.01634216 -1 -0.0008158684
vn -0.008850098 -1 -0.01263428
vn 0.01956177 -1 0.005527496
vn 0.0165863 -1 -0.008094788
vn 0.004825592 -1 -0.01564026
g Cylinder003_0
f 3/3/3 2/2/2 1/1/1
f 2/2/2 4/4/4 1/1/1
f 1/1/1 4/4/4 5/5/5
f 2/2/2 6/6/6 4/4/4
f 4/4/4 7/7/7 5/5/5
f 6/6/6 8/8/8 4/4/4
f 4/4/4 8/8/8 7/7/7
f 8/8/8 9/9/9 7/7/7
f 6/6/6 10/10/10 8/8/8
f 8/8/8 11/11/11 9/9/9
f 10/10/10 11/11/11 8/8/8
f 11/11/11 12/12/12 9/9/9
f 13/13/13 12/12/12 11/11/11
f 14/14/14 11/11/11 10/10/10
f 14/14/14 13/13/13 11/11/11
f 15/15/15 14/14/14 10/10/10
f 14/14/14 15/15/15 16/16/16
f 17/17/17 14/14/14 16/16/16
f 13/13/13 14/14/14 17/17/17
f 18/18/18 13/13/13 17/17/17
f 21/21/21 20/20/20 19/19/19
f 20/20/20 22/22/22 19/19/19
f 19/19/19 22/22/22 23/23/23
f 20/20/20 24/24/24 22/22/22
f 22/22/22 25/25/25 23/23/23
f 24/24/24 26/26/26 22/22/22
f 22/22/22 26/26/26 25/25/25
f 26/26/26 27/27/27 25/25/25
f 24/24/24 28/28/28 26/26/26
f 26/26/26 29/29/29 27/27/27
f 28/28/28 29/29/29 26/26/26
f 29/29/29 30/30/30 27/27/27
f 31/31/31 30/30/30 29/29/29
f 32/32/32 29/29/29 28/28/28
f 32/32/32 31/31/31 29/29/29
f 33/33/33 32/32/32 28/28/28
f 32/32/32 33/33/33 34/34/34
f 35/35/35 32/32/32 34/34/34
f 31/31/31 32/32/32 35/35/35
f 36/36/36 31/31/31 35/35/35
f 39/39/39 38/38/38 37/37/37
f 38/38/38 40/40/40 37/37/37
f 37/37/37 40/40/40 41/41/41
f 38/38/38 42/42/42 40/40/40
f 40/40/40 43/43/43 41/41/41
f 42/42/42 44/44/44 40/40/40
f 40/40/40 44/44/44 43/43/43
f 44/44/44 45/45/45 43/43/43
f 42/42/42 46/46/46 44/44/44
f 44/44/44 47/47/47 45/45/45
f 46/46/46 47/47/47 44/44/44
f 47/47/47 48/48/48 45/45/45
f 49/49/49 48/48/48 47/47/47
f 50/50/50 47/47/47 46/46/46
f 50/50/50 49/49/49 47/47/47
f 51/51/51 50/50/50 46/46/46
f 50/50/50 51/51/51 52/52/52
f 53/53/53 50/50/50 52/52/52
f 49/49/49 50/50/50 53/53/53
f 54/54/54 49/49/49 53/53/53
f 57/57/57 56/56/56 55/55/55
f 56/56/56 58/58/58 55/55/55
f 55/55/55 58/58/58 59/59/59
f 56/56/56 60/60/60 58/58/58
f 58/58/58 61/61/61 59/59/59
f 60/60/60 62/62/62 58/58/58
f 58/58/58 62/62/62 61/61/61
f 62/62/62 63/63/63 61/61/61
f 60/60/60 64/64/64 62/62/62
f 62/62/62 65/65/65 63/63/63
f 64/64/64 65/65/65 62/62/62
f 65/65/65 66/66/66 63/63/63
f 67/67/67 66/66/66 65/65/65
f 68/68/68 65/65/65 64/64/64
f 68/68/68 67/67/67 65/65/65
f 69/69/69 68/68/68 64/64/64
f 68/68/68 69/69/69 70/70/70
f 71/71/71 68/68/68 70/70/70
f 67/67/67 68/68/68 71/71/71
f 72/72/72 67/67/67 71/71/71
f 75/75/75 74/74/74 73/73/73
f 74/74/74 76/76/76 73/73/73
f 73/73/73 76/76/76 77/77/77
f 78/78/78 76/76/76 74/74/74
f 79/79/79 78/78/78 74/74/74
f 80/80/80 76/76/76 78/78/78
f 83/83/83 82/82/82 81/81/81
f 84/84/84 83/83/83 81/81/81
f 81/81/81 82/82/82 85/85/85
f 86/86/86 83/83/83 84/84/84
f 87/87/87 86/86/86 84/84/84
f 82/82/82 88/88/88 85/85/85
f 85/85/85 88/88/88 89/89/89
f 90/90/90 86/86/86 87/87/87
f 91/91/91 90/90/90 87/87/87
f 88/88/88 92/92/92 89/89/89
f 89/89/89 92/92/92 93/93/93
f 94/94/94 90/90/90 91/91/91
f 95/95/95 94/94/94 91/91/91
f 93/93/93 96/96/96 95/95/95
f 92/92/92 96/96/96 93/93/93
f 96/96/96 94/94/94 95/95/95
f 82/82/82 83/83/83 97/97/97
f 83/83/83 86/86/86 98/98/98
f 83/83/83 98/98/98 97/97/97
f 82/82/82 97/97/97 99/99/99
f 88/88/88 82/82/82 99/99/99
f 97/97/97 98/98/98 99/99/99
f 86/86/86 90/90/90 100/100/100
f 86/86/86 100/100/100 98/98/98
f 90/90/90 101/101/101 100/100/100
f 90/90/90 94/94/94 101/101/101
f 101/101/101 98/98/98 100/100/100
f 92/92/92 88/88/88 102/102/102
f 88/88/88 99/99/99 102/102/102
f 99/99/99 98/98/98 103/103/103
f 102/102/102 99/99/99 103/103/103
f 92/92/92 102/102/102 103/103/103
f 96/96/96 92/92/92 103/103/103
f 103/103/103 98/98/98 101/101/101
f 94/94/94 96/96/96 104/104/104
f 94/94/94 104/104/104 101/101/101
f 96/96/96 103/103/103 104/104/104
f 104/104/104 103/103/103 101/101/101
