g diamond_marker_V2_P3_L1
v -0.18 0.0236468 0.02999998
v -0.18 0.07455847 0.02999998
v -0.07455844 0.18 0.03
v -0.02364677 0.18 0.03
v -0.18 0.07455847 -0.02999998
v -0.07455844 0.18 -0.03
v -0.07455844 0.18 0.03
v -0.18 0.07455847 0.02999998
v -0.07455844 0.18 -0.03
v -0.02364677 0.18 -0.03
v -0.02364677 0.18 0.03
v -0.07455844 0.18 0.03
v -0.18 0.0236468 -0.02999998
v -0.18 0.07455847 -0.02999998
v -0.18 0.07455847 0.02999998
v -0.18 0.0236468 0.02999998
v -0.18 0.0236468 -0.02999998
v -0.02364677 0.18 -0.03
v -0.07455844 0.18 -0.03
v -0.18 0.07455847 -0.02999998
v -0.02364677 0.18 -0.03
v -0.18 0.0236468 -0.02999998
v -0.18 0.0236468 0.02999998
v -0.02364677 0.18 0.03
vt 0.659091 0.01175254
vt 0.5184892 0.1523544
vt 0.5184892 0.7347458
vt 0.659091 0.8753476
vt 0.2442996 0.7911958
vt 0.2442995 0.2088041
vt 0.009963295 0.2088041
vt 0.009963362 0.7911957
vt 0.2442995 0.2088041
vt 0.2442996 0.009963295
vt 0.009963311 0.009963316
vt 0.009963295 0.2088041
vt 0.2442996 0.9900367
vt 0.2442996 0.7911958
vt 0.009963362 0.7911957
vt 0.009963379 0.9900367
vt 0.8196193 0.8753476
vt 0.8196193 0.01175254
vt 0.6790175 0.1523542
vt 0.6790175 0.7347459
vt 0.4985626 0.8735585
vt 0.4985627 0.00996338
vt 0.2642265 0.009963295
vt 0.2642262 0.8735583
vn 0 0 1
vn 0 0 1
vn 0 0 1
vn 0 0 1
vn -0.7071066 0.7071068 0
vn -0.7071066 0.7071068 0
vn -0.7071066 0.7071068 0
vn -0.7071066 0.7071068 0
vn 0 1 0
vn 0 1 0
vn 0 1 0
vn 0 1 0
vn -1 0 0
vn -1 0 0
vn -1 0 0
vn -1 0 0
vn 0 0 -1
vn 0 0 -1
vn 0 0 -1
vn 0 0 -1
vn 0.7071067 -0.7071068 0
vn 0.7071067 -0.7071068 0
vn 0.7071067 -0.7071068 0
vn 0.7071067 -0.7071068 0
g diamond_marker_V2_P3_L1_0
f 3/3/3 2/2/2 1/1/1
f 4/4/4 3/3/3 1/1/1
f 7/7/7 6/6/6 5/5/5
f 8/8/8 7/7/7 5/5/5
f 11/11/11 10/10/10 9/9/9
f 12/12/12 11/11/11 9/9/9
f 15/15/15 14/14/14 13/13/13
f 16/16/16 15/15/15 13/13/13
f 19/19/19 18/18/18 17/17/17
f 20/20/20 19/19/19 17/17/17
f 23/23/23 22/22/22 21/21/21
f 24/24/24 23/23/23 21/21/21
