g diamond_marker_V1_P3_L0
v -0.01799998 0.2365585 -0.024
v -0.018 0.1856468 -0.024
v -0.018 0.1856468 0.024
v -0.01799998 0.2365585 0.024
v -0.1856467 0.01799996 -0.02399999
v -0.2365584 0.01799997 -0.02399999
v -0.2365584 0.01799997 0.02399999
v -0.1856467 0.01799996 0.02399999
v -0.2365584 0.01799997 -0.02399999
v -0.01799998 0.2365585 -0.024
v -0.01799998 0.2365585 0.024
v -0.2365584 0.01799997 0.02399999
v -0.2365584 0.01799997 0.02399999
v -0.2220731 0.02399997 0.02999999
v -0.188132 0.02399996 0.02999999
v -0.1856467 0.01799996 0.02399999
v -0.1856467 0.01799996 0.02399999
v -0.188132 0.02399996 0.02999999
v -0.02399999 0.1881321 0.03
v -0.018 0.1856468 0.024
v -0.018 0.1856468 0.024
v -0.02399999 0.1881321 0.03
v -0.02399998 0.2220732 0.03
v -0.01799998 0.2365585 0.024
v -0.01799998 0.2365585 0.024
v -0.02399998 0.2220732 0.03
v -0.2220731 0.02399997 0.02999999
v -0.2365584 0.01799997 0.02399999
v -0.2220731 0.02399997 0.02999999
v -0.02399998 0.2220732 0.03
v -0.02399999 0.1881321 0.03
v -0.188132 0.02399996 0.02999999
v -0.2365584 0.01799997 -0.02399999
v -0.1856467 0.01799996 -0.02399999
v -0.188132 0.02399996 -0.02999999
v -0.2220731 0.02399997 -0.02999999
v -0.1856467 0.01799996 -0.02399999
v -0.018 0.1856468 -0.024
v -0.02399999 0.1881321 -0.03
v -0.188132 0.02399996 -0.02999999
v -0.018 0.1856468 -0.024
v -0.01799998 0.2365585 -0.024
v -0.02399998 0.2220732 -0.03
v -0.02399999 0.1881321 -0.03
v -0.01799998 0.2365585 -0.024
v -0.2365584 0.01799997 -0.02399999
v -0.2220731 0.02399997 -0.02999999
v -0.02399998 0.2220732 -0.03
v -0.2220731 0.02399997 -0.02999999
v -0.188132 0.02399996 -0.02999999
v -0.02399999 0.1881321 -0.03
v -0.02399998 0.2220732 -0.03
v -0.018 0.1856468 -0.024
v -0.1856467 0.01799996 -0.02399999
v -0.1856467 0.01799996 0.02399999
v -0.018 0.1856468 0.024
vt 0.1487513 0.9900643
vt 0.1487513 0.8428283
vt 0.009935907 0.8428282
vt 0.009935879 0.9900643
vt 0.1487513 0.1571718
vt 0.1487512 0.009935707
vt 0.009935716 0.009935821
vt 0.009935707 0.1571719
vt 0.3074383 0.9038155
vt 0.3074382 0.009935707
vt 0.1686227 0.009935707
vt 0.1686228 0.9038155
vt 0.439222 0.9724782
vt 0.4205719 0.9274528
vt 0.3459713 0.8528522
vt 0.3273211 0.8605773
vt 0.3273211 0.8605773
vt 0.3459713 0.8528522
vt 0.3459713 0.1313468
vt 0.3273212 0.1236216
vt 0.3273212 0.1236216
vt 0.3459713 0.1313468
vt 0.4205718 0.05674613
vt 0.4392222 0.01172058
vt 0.4392222 0.01172058
vt 0.4205718 0.05674613
vt 0.4205719 0.9274528
vt 0.439222 0.9724782
vt 0.4205719 0.9274528
vt 0.4205718 0.05674613
vt 0.3459713 0.1313468
vt 0.3459713 0.8528522
vt 0.4591006 0.9724785
vt 0.5710015 0.8605776
vt 0.5523514 0.8528524
vt 0.4777507 0.9274529
vt 0.5710015 0.8605776
vt 0.5710013 0.1236216
vt 0.5523512 0.131347
vt 0.5523514 0.8528524
vt 0.5710013 0.1236216
vt 0.4591005 0.01172057
vt 0.4777508 0.05674627
vt 0.5523512 0.131347
vt 0.4591005 0.01172057
vt 0.4591006 0.9724785
vt 0.4777507 0.9274529
vt 0.4777508 0.05674627
vt 0.4777507 0.9274529
vt 0.5523514 0.8528524
vt 0.5523512 0.131347
vt 0.4777508 0.05674627
vt 0.1487513 0.8428283
vt 0.1487513 0.1571718
vt 0.009935707 0.1571719
vt 0.009935907 0.8428282
vn 1 0 0
vn 1 0 0
vn 1 0 0
vn 1 0 0
vn 0 -1 0
vn 0 -1 0
vn 0 -1 0
vn 0 -1 0
vn -0.707107 0.7071065 0
vn -0.707107 0.7071065 0
vn -0.707107 0.7071065 0
vn -0.707107 0.7071065 0
vn 0 -0.7071066 0.7071069
vn 0 -0.7071066 0.7071069
vn 0 -0.7071066 0.7071069
vn 0 -0.7071066 0.7071069
vn 0.5000003 -0.4999999 0.7071066
vn 0.5000003 -0.4999999 0.7071066
vn 0.5000003 -0.4999999 0.7071066
vn 0.5000003 -0.4999999 0.7071066
vn 0.7071066 0 0.7071069
vn 0.7071066 0 0.7071069
vn 0.7071066 0 0.7071069
vn 0.7071066 0 0.7071069
vn -0.5000002 0.4999998 0.7071068
vn -0.5000002 0.4999998 0.7071068
vn -0.5000002 0.4999998 0.7071068
vn -0.5000002 0.4999998 0.7071068
vn 0 0 1
vn 0 0 1
vn 0 0 1
vn 0 0 1
vn 0 -0.7071066 -0.7071069
vn 0 -0.7071066 -0.7071069
vn 0 -0.7071066 -0.7071069
vn 0 -0.7071066 -0.7071069
vn 0.5000002 -0.4999999 -0.7071067
vn 0.5000002 -0.4999999 -0.7071067
vn 0.5000002 -0.4999999 -0.7071067
vn 0.5000002 -0.4999999 -0.7071067
vn 0.7071066 0 -0.7071069
vn 0.7071066 0 -0.7071069
vn 0.7071066 0 -0.7071069
vn 0.7071066 0 -0.7071069
vn -0.5000002 0.4999999 -0.7071066
vn -0.5000002 0.4999999 -0.7071066
vn -0.5000002 0.4999999 -0.7071066
vn -0.5000002 0.4999999 -0.7071066
vn 0 0 -1
vn 0 0 -1
vn 0 0 -1
vn 0 0 -1
vn 0.7071069 -0.7071065 0
vn 0.7071069 -0.7071065 0
vn 0.7071069 -0.7071065 0
vn 0.7071069 -0.7071065 0
g diamond_marker_V1_P3_L0_0
f 3/3/3 2/2/2 1/1/1
f 4/4/4 3/3/3 1/1/1
f 7/7/7 6/6/6 5/5/5
f 8/8/8 7/7/7 5/5/5
f 11/11/11 10/10/10 9/9/9
f 12/12/12 11/11/11 9/9/9
f 15/15/15 14/14/14 13/13/13
f 16/16/16 15/15/15 13/13/13
f 19/19/19 18/18/18 17/17/17
f 20/20/20 19/19/19 17/17/17
f 23/23/23 22/22/22 21/21/21
f 24/24/24 23/23/23 21/21/21
f 27/27/27 26/26/26 25/25/25
f 28/28/28 27/27/27 25/25/25
f 31/31/31 30/30/30 29/29/29
f 32/32/32 31/31/31 29/29/29
f 35/35/35 34/34/34 33/33/33
f 36/36/36 35/35/35 33/33/33
f 39/39/39 38/38/38 37/37/37
f 40/40/40 39/39/39 37/37/37
f 43/43/43 42/42/42 41/41/41
f 44/44/44 43/43/43 41/41/41
f 47/47/47 46/46/46 45/45/45
f 48/48/48 47/47/47 45/45/45
f 51/51/51 50/50/50 49/49/49
f 52/52/52 51/51/51 49/49/49
f 55/55/55 54/54/54 53/53/53
f 56/56/56 55/55/55 53/53/53
