g Disc1
v -0.3705801 -5.236587E-09 0.2692424
v -0.225254 -5.236587E-09 0.1636567
v -0.08603942 -5.236587E-09 0.264802
v -0.1415491 -5.236587E-09 0.4356432
v -0.4580624 -5.236587E-09 8.876489E-08
v 0.08603937 -5.236587E-09 0.264802
v -0.2784293 -5.236587E-09 1.723932E-08
v 0.1415491 -5.236587E-09 0.4356432
v -0.3705802 -5.236587E-09 -0.2692423
v 0.225254 -5.236587E-09 0.1636567
v -0.225254 -5.236587E-09 -0.1636567
v 0.3705802 -5.236587E-09 0.2692423
v -0.1415491 -5.236587E-09 -0.4356431
v 0.2784293 -5.236587E-09 1.723932E-08
v -0.08603942 -5.236587E-09 -0.264802
v 0.4580624 -5.236587E-09 1.723932E-08
v 0.1415491 -5.236587E-09 -0.4356431
v 0.225254 -5.236587E-09 -0.1636566
v 0.08603937 -5.236587E-09 -0.264802
v 0.3705802 -5.236587E-09 -0.2692423
vt 0.7021484 0.4819336
vt 0.7231445 0.5107422
vt 0.7553711 0.5004883
vt 0.7553711 0.4645996
vt 0.6689453 0.5273438
vt 0.7880859 0.5107422
vt 0.703125 0.5385742
vt 0.809082 0.4819336
vt 0.6689453 0.5839844
vt 0.8081055 0.5385742
vt 0.703125 0.5727539
vt 0.8422852 0.5273438
vt 0.7021484 0.6293945
vt 0.8081055 0.5727539
vt 0.7231445 0.6005859
vt 0.8422852 0.5839844
vt 0.7553711 0.6469727
vt 0.7880859 0.6005859
vt 0.7553711 0.6108398
vt 0.809082 0.6293945
vn 0 1 0
vn 0 1 0
vn 0 1 0
vn 0 1 0
vn 0 1 0
vn 0 1 0
vn 0 1 0
vn 0 1 0
vn 0 1 0
vn 0 1 0
vn 0 1 0
vn 0 1 0
vn 0 1 0
vn 0 1 0
vn 0 1 0
vn 0 1 0
vn 0 1 0
vn 0 1 0
vn 0 1 0
vn 0 1 0
g Disc1_0
f 3/3/3 2/2/2 1/1/1
f 4/4/4 3/3/3 1/1/1
f 1/1/1 2/2/2 5/5/5
f 6/6/6 3/3/3 4/4/4
f 2/2/2 7/7/7 5/5/5
f 8/8/8 6/6/6 4/4/4
f 5/5/5 7/7/7 9/9/9
f 10/10/10 6/6/6 8/8/8
f 7/7/7 11/11/11 9/9/9
f 12/12/12 10/10/10 8/8/8
f 9/9/9 11/11/11 13/13/13
f 14/14/14 10/10/10 12/12/12
f 11/11/11 15/15/15 13/13/13
f 16/16/16 14/14/14 12/12/12
f 13/13/13 15/15/15 17/17/17
f 18/18/18 14/14/14 16/16/16
f 15/15/15 19/19/19 17/17/17
f 20/20/20 18/18/18 16/16/16
f 17/17/17 19/19/19 20/20/20
f 19/19/19 18/18/18 20/20/20
