g dotA_low
v -1.39402 0.2104832 0.078851
v -1.467918 0.2572575 0.0354275
v -1.38259 0.2219155 0.0354275
v -1.467918 0.2410923 0.078851
v -1.553242 0.2219155 0.0354275
v -1.541813 0.2104832 0.078851
v -1.428475 0.17603 0.1015683
v -1.467918 0.1923665 0.1015683
v -1.467918 0.136588 0.1128837
v -1.541813 0.2104832 0.078851
v -1.588588 0.136588 0.0354275
v -1.553242 0.2219155 0.0354275
v -1.57242 0.136588 0.078851
v -1.541813 0.062693 0.078851
v -1.553242 0.05126125 0.0354275
v -1.467918 0.01591712 0.0354275
v -1.467918 0.03208425 0.078851
v -1.507357 0.097147 0.1015683
v -1.467918 0.08081 0.1015683
v -1.467918 0.136588 0.1128837
v -1.523695 0.136588 0.1015683
v -1.507357 0.17603 0.1015683
v -1.467918 0.1923665 0.1015683
v -1.467918 0.2410923 0.078851
v -1.467918 0.03208425 0.078851
v -1.38259 0.05126125 0.0354275
v -1.467918 0.01591712 0.0354275
v -1.39402 0.062693 0.078851
v -1.347245 0.136588 0.0354275
v -1.467918 0.08081 0.1015683
v -1.363412 0.136588 0.078851
v -1.428475 0.097147 0.1015683
v -1.467918 0.136588 0.1128837
v -1.412138 0.136588 0.1015683
v -1.39402 0.2104832 0.078851
v -1.428475 0.17603 0.1015683
v -1.363412 0.136588 0.078851
v -1.38259 0.2219155 0.0354275
v -1.347245 0.136588 0.0354275
v -1.39402 0.2104832 0.078851
vt 0.8725586 0.04959106
vt 0.8579102 0.06433105
vt 0.8789063 0.05578613
vt 0.8574219 0.05532837
vt 0.8369141 0.05532837
vt 0.8432617 0.04885864
vt 0.8652344 0.04229736
vt 0.8579102 0.0451355
vt 0.8579102 0.03457642
vt 0.8432617 0.04885864
vt 0.828125 0.03390503
vt 0.8369141 0.05532837
vt 0.8374023 0.03405762
vt 0.84375 0.01940918
vt 0.8378906 0.01322174
vt 0.8583984 0.004882813
vt 0.8588867 0.01385498
vt 0.8510742 0.02680969
vt 0.8583984 0.02401733
vt 0.8579102 0.03457642
vt 0.8476563 0.03417969
vt 0.8505859 0.04177856
vt 0.8579102 0.0451355
vt 0.8574219 0.05532837
vt 0.8588867 0.01385498
vt 0.8793945 0.01377869
vt 0.8583984 0.004882813
vt 0.8730469 0.02027893
vt 0.8876953 0.03485107
vt 0.8583984 0.02401733
vt 0.8789063 0.0350647
vt 0.8657227 0.02737427
vt 0.8579102 0.03457642
vt 0.8686523 0.03494263
vt 0.8725586 0.04959106
vt 0.8652344 0.04229736
vt 0.8789063 0.0350647
vt 0.8789063 0.05578613
vt 0.8876953 0.03485107
vt 0.8725586 0.04959106
vn 0.5673828 0.5673828 0.597168
vn 0 0.9370117 0.348877
vn 0.6625977 0.6625977 0.348877
vn 0 0.8022461 0.597168
vn -0.6625977 0.6625977 0.348877
vn -0.5673828 0.5673828 0.597168
vn 0.270752 0.270752 0.9238281
vn 0 0.3828125 0.9238281
vn 0 0 1
vn -0.5673828 0.5673828 0.597168
vn -0.9370117 0 0.348877
vn -0.6625977 0.6625977 0.348877
vn -0.8022461 0 0.597168
vn -0.5673828 -0.5673828 0.597168
vn -0.6625977 -0.6625977 0.348877
vn 0 -0.9370117 0.348877
vn 0 -0.8022461 0.597168
vn -0.270752 -0.270752 0.9238281
vn 0 -0.3828125 0.9238281
vn 0 0 1
vn -0.3828125 0 0.9238281
vn -0.270752 0.270752 0.9238281
vn 0 0.3828125 0.9238281
vn 0 0.8022461 0.597168
vn 0 -0.8022461 0.597168
vn 0.6625977 -0.6625977 0.348877
vn 0 -0.9370117 0.348877
vn 0.5673828 -0.5673828 0.597168
vn 0.9370117 0 0.348877
vn 0 -0.3828125 0.9238281
vn 0.8022461 0 0.597168
vn 0.270752 -0.270752 0.9238281
vn 0 0 1
vn 0.3828125 0 0.9238281
vn 0.5673828 0.5673828 0.597168
vn 0.270752 0.270752 0.9238281
vn 0.8022461 0 0.597168
vn 0.6625977 0.6625977 0.348877
vn 0.9370117 0 0.348877
vn 0.5673828 0.5673828 0.597168
g dotA_low_0
f 3/3/3 2/2/2 1/1/1
f 4/4/4 1/1/1 2/2/2
f 2/2/2 5/5/5 4/4/4
f 6/6/6 4/4/4 5/5/5
f 1/1/1 4/4/4 7/7/7
f 8/8/8 7/7/7 4/4/4
f 8/8/8 9/9/9 7/7/7
f 12/12/12 11/11/11 10/10/10
f 13/13/13 10/10/10 11/11/11
f 13/13/13 11/11/11 14/14/14
f 15/15/15 14/14/14 11/11/11
f 15/15/15 16/16/16 14/14/14
f 17/17/17 14/14/14 16/16/16
f 14/14/14 17/17/17 18/18/18
f 19/19/19 18/18/18 17/17/17
f 19/19/19 20/20/20 18/18/18
f 18/18/18 21/21/21 14/14/14
f 13/13/13 14/14/14 21/21/21
f 18/18/18 20/20/20 21/21/21
f 21/21/21 22/22/22 13/13/13
f 21/21/21 20/20/20 22/22/22
f 10/10/10 13/13/13 22/22/22
f 22/22/22 20/20/20 23/23/23
f 22/22/22 23/23/23 10/10/10
f 24/24/24 10/10/10 23/23/23
f 27/27/27 26/26/26 25/25/25
f 28/28/28 25/25/25 26/26/26
f 26/26/26 29/29/29 28/28/28
f 25/25/25 28/28/28 30/30/30
f 31/31/31 28/28/28 29/29/29
f 32/32/32 30/30/30 28/28/28
f 28/28/28 31/31/31 32/32/32
f 32/32/32 33/33/33 30/30/30
f 34/34/34 32/32/32 31/31/31
f 34/34/34 33/33/33 32/32/32
f 31/31/31 35/35/35 34/34/34
f 36/36/36 33/33/33 34/34/34
f 36/36/36 34/34/34 35/35/35
f 39/39/39 38/38/38 37/37/37
f 40/40/40 37/37/37 38/38/38
