g dotB_low3
v -0.0253875 -2.232578 0.0395135
v 0.035889 -2.19379 0.08116326
v 0.0453685 -2.20327 0.0395135
v -0.0253875 -2.21917 0.08116326
v -0.096144 -2.20327 0.0395135
v -0.08666425 -2.19379 0.08116326
v 0.00731875 -2.16522 0.1029525
v -0.0253875 -2.178765 0.1029525
v -0.0253875 -2.132513 0.1138057
v -0.125452 -2.132513 0.0395135
v -0.08666425 -2.19379 0.08116326
v -0.096144 -2.20327 0.0395135
v -0.1120458 -2.132513 0.08116326
v -0.08666425 -2.071235 0.08116326
v -0.096144 -2.061758 0.0395135
v -0.0716415 -2.132513 0.1029525
v -0.058094 -2.099808 0.1029525
v -0.0253875 -2.132513 0.1138057
v -0.058094 -2.16522 0.1029525
v -0.0253875 -2.178765 0.1029525
v -0.0253875 -2.21917 0.08116326
v -0.0253875 -2.032447 0.0395135
v -0.08666425 -2.071235 0.08116326
v -0.096144 -2.061758 0.0395135
v -0.0253875 -2.045855 0.08116326
v 0.0453685 -2.061758 0.0395135
v 0.035889 -2.071235 0.08116326
v -0.058094 -2.099808 0.1029525
v -0.0253875 -2.08626 0.1029525
v -0.0253875 -2.132513 0.1138057
v 0.0746765 -2.132513 0.0395135
v 0.035889 -2.071235 0.08116326
v 0.0453685 -2.061758 0.0395135
v 0.06127025 -2.132513 0.08116326
v 0.0453685 -2.20327 0.0395135
v 0.035889 -2.19379 0.08116326
v 0.02086625 -2.132513 0.1029525
v 0.00731875 -2.16522 0.1029525
v -0.0253875 -2.132513 0.1138057
v 0.00731875 -2.099808 0.1029525
v -0.0253875 -2.08626 0.1029525
v -0.0253875 -2.045855 0.08116326
vt 1.921875 0.1318359
vt 1.936523 0.1170654
vt 1.943359 0.123291
vt 1.921875 0.1228027
vt 1.900391 0.1228027
vt 1.907227 0.116333
vt 1.929688 0.1097412
vt 1.921875 0.1126099
vt 1.921875 0.1020508
vt 1.892578 0.1013794
vt 1.907227 0.116333
vt 1.900391 0.1228027
vt 1.901367 0.1015625
vt 1.907227 0.08691406
vt 1.901367 0.08068848
vt 1.912109 0.1016235
vt 1.915039 0.09429932
vt 1.921875 0.1020508
vt 1.914063 0.1092529
vt 1.921875 0.1126099
vt 1.921875 0.1228027
vt 1.922852 0.07232666
vt 1.907227 0.08691406
vt 1.901367 0.08068848
vt 1.922852 0.08129883
vt 1.943359 0.08123779
vt 1.9375 0.08776855
vt 1.915039 0.09429932
vt 1.922852 0.0914917
vt 1.921875 0.1020508
vt 1.952148 0.1022949
vt 1.9375 0.08776855
vt 1.943359 0.08123779
vt 1.943359 0.1025391
vt 1.943359 0.123291
vt 1.936523 0.1170654
vt 1.932617 0.102417
vt 1.929688 0.1097412
vt 1.921875 0.1020508
vt 1.929688 0.09484863
vt 1.922852 0.0914917
vt 1.922852 0.08129883
vn 0 -0.9516602 0.3063965
vn 0.5932617 -0.5932617 0.5439453
vn 0.6728516 -0.6733398 0.3063965
vn 0 -0.8388672 0.5439453
vn -0.6728516 -0.6733398 0.3063965
vn -0.5932617 -0.5932617 0.5439453
vn 0.3054199 -0.3054199 0.9018555
vn 0 -0.4318848 0.9018555
vn 0 0 1
vn -0.9516602 0 0.3063965
vn -0.5932617 -0.5932617 0.5439453
vn -0.6728516 -0.6733398 0.3063965
vn -0.8388672 0 0.5439453
vn -0.5932617 0.5932617 0.5439453
vn -0.6733398 0.6733398 0.3063965
vn -0.4318848 0 0.9018555
vn -0.3054199 0.3054199 0.9018555
vn 0 0 1
vn -0.3054199 -0.3054199 0.9018555
vn 0 -0.4318848 0.9018555
vn 0 -0.8388672 0.5439453
vn 0 0.9516602 0.3063965
vn -0.5932617 0.5932617 0.5439453
vn -0.6733398 0.6733398 0.3063965
vn 0 0.8388672 0.5439453
vn 0.6733398 0.6728516 0.3063965
vn 0.5932617 0.5932617 0.5439453
vn -0.3054199 0.3054199 0.9018555
vn 0 0.4318848 0.9018555
vn 0 0 1
vn 0.9516602 0 0.3063965
vn 0.5932617 0.5932617 0.5439453
vn 0.6733398 0.6728516 0.3063965
vn 0.8388672 0 0.5439453
vn 0.6728516 -0.6733398 0.3063965
vn 0.5932617 -0.5932617 0.5439453
vn 0.4318848 0 0.9018555
vn 0.3054199 -0.3054199 0.9018555
vn 0 0 1
vn 0.3054199 0.3054199 0.9018555
vn 0 0.4318848 0.9018555
vn 0 0.8388672 0.5439453
g dotB_low3_0
f 3/3/3 2/2/2 1/1/1
f 4/4/4 1/1/1 2/2/2
f 1/1/1 4/4/4 5/5/5
f 6/6/6 5/5/5 4/4/4
f 2/2/2 7/7/7 4/4/4
f 8/8/8 4/4/4 7/7/7
f 9/9/9 8/8/8 7/7/7
f 12/12/12 11/11/11 10/10/10
f 13/13/13 10/10/10 11/11/11
f 13/13/13 14/14/14 10/10/10
f 15/15/15 10/10/10 14/14/14
f 13/13/13 16/16/16 14/14/14
f 17/17/17 14/14/14 16/16/16
f 18/18/18 17/17/17 16/16/16
f 16/16/16 13/13/13 19/19/19
f 18/18/18 16/16/16 19/19/19
f 11/11/11 19/19/19 13/13/13
f 18/18/18 19/19/19 20/20/20
f 19/19/19 11/11/11 20/20/20
f 21/21/21 20/20/20 11/11/11
f 24/24/24 23/23/23 22/22/22
f 25/25/25 22/22/22 23/23/23
f 22/22/22 25/25/25 26/26/26
f 27/27/27 26/26/26 25/25/25
f 23/23/23 28/28/28 25/25/25
f 29/29/29 25/25/25 28/28/28
f 30/30/30 29/29/29 28/28/28
f 33/33/33 32/32/32 31/31/31
f 34/34/34 31/31/31 32/32/32
f 31/31/31 34/34/34 35/35/35
f 36/36/36 35/35/35 34/34/34
f 34/34/34 37/37/37 36/36/36
f 38/38/38 36/36/36 37/37/37
f 39/39/39 38/38/38 37/37/37
f 37/37/37 34/34/34 40/40/40
f 39/39/39 37/37/37 40/40/40
f 32/32/32 40/40/40 34/34/34
f 39/39/39 40/40/40 41/41/41
f 40/40/40 32/32/32 41/41/41
f 42/42/42 41/41/41 32/32/32
