g drawer_1.001
v -1.346867 0.6469841 -1.153178
v 0.1547202 0.6469841 -1.153178
v 0.1547202 -0.5353322 -1.153178
v -1.346867 -0.5353322 -1.153178
v -1.446867 -0.6353321 -1.253178
v 0.1547202 -0.6353321 -1.253178
v 0.1547202 0.6469841 -1.253178
v -1.446867 0.6469841 -1.253178
v -1.446867 -0.6353321 -1.253178
v -1.446867 -0.6353321 1.25318
v 0.1547202 -0.6353321 1.25318
v 0.1547202 -0.6353321 -1.253178
v -1.446867 0.6469841 -1.253178
v -1.446867 0.6469841 1.25318
v -1.446867 -0.6353321 1.25318
v -1.446867 -0.6353321 -1.253178
v -1.446867 0.6469841 -1.253178
v 0.1547202 0.6469841 -1.253178
v 0.1547202 0.6469841 -1.153178
v -1.346867 0.6469841 -1.153178
v -1.446867 0.6469841 1.25318
v -1.346867 0.6469841 1.15318
v 0.1547202 0.6469841 1.15318
v 0.1547202 0.6469841 1.25318
v -1.346867 -0.5353322 -1.153178
v 0.1547202 -0.5353322 -1.153178
v 0.1547202 -0.5353322 1.15318
v -1.346867 -0.5353322 1.15318
v -1.346867 0.6469841 1.15318
v -1.346867 -0.5353322 1.15318
v 0.1547202 -0.5353322 1.15318
v 0.1547202 0.6469841 1.15318
v -1.346867 0.6469841 -1.153178
v -1.346867 -0.5353322 -1.153178
v -1.346867 -0.5353322 1.15318
v -1.346867 0.6469841 1.15318
v -1.446867 0.6469841 1.25318
v 0.1547202 0.6469841 1.25318
v 0.1547202 -0.6353321 1.25318
v -1.446867 -0.6353321 1.25318
v 0.1547202 0.8885221 1.072884E-06
v 0.1547202 0.8885221 1.400001
v 0.1547202 -0.01147747 1.400001
v 0.1547202 -0.01147747 1.072884E-06
v 0.1547202 0.8885221 -1.399999
v 0.1547202 -0.9114771 1.400001
v 0.1547202 -0.01147747 -1.399999
v 0.1547202 -0.9114771 1.072884E-06
v 0.1547202 -0.9114771 -1.399999
v 0.2472541 0.8885221 1.072884E-06
v 0.2703847 0.8481684 1.355414
v 0.2472541 0.8885221 1.400001
v 0.2703847 0.8481197 1.072884E-06
v 0.2472541 0.8885221 -1.399999
v 0.2553028 0.8135738 1.328299
v 0.2703847 0.8480282 -1.355242
v 0.2553028 0.8135738 1.072884E-06
v 0.2553028 0.8135738 -1.328284
v 0.2472541 -0.9114771 1.072884E-06
v 0.2703847 -0.8723888 -1.355402
v 0.2472541 -0.9114771 -1.399999
v 0.2703847 -0.8723397 1.072884E-06
v 0.2472541 -0.9114771 1.400001
v 0.2553028 -0.8377595 -1.328284
v 0.2703847 -0.8722477 1.355259
v 0.2553028 -0.8377595 1.072884E-06
v 0.2553028 -0.8377595 1.328299
v 0.2472541 -0.01147747 -1.399999
v 0.2703847 0.8480282 -1.355242
v 0.2472541 0.8885221 -1.399999
v 0.2703847 -0.01147747 -1.354725
v 0.2472541 -0.9114771 -1.399999
v 0.2553028 0.8135738 -1.328284
v 0.2703847 -0.8723888 -1.355402
v 0.2553028 -0.01147747 -1.328284
v 0.2553028 -0.8377595 -1.328284
v 0.2472541 -0.01147747 1.400001
v 0.2703847 -0.8722477 1.355259
v 0.2472541 -0.9114771 1.400001
v 0.2703847 -0.01147747 1.354739
v 0.2472541 0.8885221 1.400001
v 0.2553028 -0.8377595 1.328299
v 0.2703847 0.8481684 1.355414
v 0.2553028 -0.01147747 1.328299
v 0.2553028 0.8135738 1.328299
v 0.2472541 0.8885221 -1.399999
v 0.1547202 0.8885221 -1.399999
v 0.1547202 -0.01147747 -1.399999
v 0.2472541 -0.01147747 -1.399999
v 0.2472541 -0.9114771 -1.399999
v 0.1547202 -0.9114771 -1.399999
v 0.2472541 -0.9114771 1.072884E-06
v 0.2472541 -0.9114771 -1.399999
v 0.1547202 -0.9114771 -1.399999
v 0.1547202 -0.9114771 1.072884E-06
v 0.2472541 -0.9114771 1.400001
v 0.1547202 -0.9114771 1.400001
v 0.1547202 -0.01147747 1.400001
v 0.1547202 0.8885221 1.400001
v 0.2472541 0.8885221 1.400001
v 0.2472541 -0.01147747 1.400001
v 0.1547202 -0.9114771 1.400001
v 0.2472541 -0.9114771 1.400001
v 0.2472541 0.8885221 1.072884E-06
v 0.2472541 0.8885221 1.400001
v 0.1547202 0.8885221 1.400001
v 0.1547202 0.8885221 1.072884E-06
v 0.2472541 0.8885221 -1.399999
v 0.1547202 0.8885221 -1.399999
v 0.2623516 0.798028 -1.311086
v 0.2553028 0.8135738 -1.328284
v 0.2553028 -0.01147747 -1.328284
v 0.2623516 -0.01147747 -1.311086
v 0.2553028 -0.8377595 -1.328284
v 0.2623516 -0.8222084 -1.311086
v 0.2623516 0.7979774 1.072884E-06
v 0.2553028 0.8135738 -1.328284
v 0.2623516 0.798028 -1.311086
v 0.2553028 0.8135738 1.072884E-06
v 0.2623516 0.798028 1.3111
v 0.2553028 0.8135738 1.328299
v 0.2623516 -0.01147747 1.3111
v 0.2553028 0.8135738 1.328299
v 0.2623516 0.798028 1.3111
v 0.2553028 -0.01147747 1.328299
v 0.2623516 -0.8220248 1.310919
v 0.2553028 -0.8377595 1.328299
v 0.2623516 -0.01147747 1.072884E-06
v 0.2623516 -0.8221583 1.072884E-06
v 0.2623516 0.7979774 1.072884E-06
v 0.2623516 0.798028 1.3111
v 0.2623516 0.798028 -1.311086
v 0.2623516 -0.01147747 -1.311086
v 0.2623516 -0.8222084 -1.311086
v 0.2623516 -0.8221583 1.072884E-06
v 0.2553028 -0.8377595 1.328299
v 0.2623516 -0.8220248 1.310919
v 0.2553028 -0.8377595 1.072884E-06
v 0.2623516 -0.8222084 -1.311086
v 0.2553028 -0.8377595 -1.328284
vt 0.1618652 0.8911133
vt 0.1618652 0.8442383
vt 0.1251221 0.8442383
vt 0.1251221 0.8911133
vt 0.2174072 0.894043
vt 0.2174072 0.8442383
vt 0.1774902 0.8442383
vt 0.1774902 0.894043
vt 0.0581665 0.8173828
vt 0.0581665 0.7397461
vt 0.008323669 0.7397461
vt 0.008323669 0.8173828
vt 0.8457031 0.7397461
vt 0.8457031 0.6621094
vt 0.8056641 0.6621094
vt 0.8056641 0.7397461
vt 0.7954102 0.6176758
vt 0.7456055 0.6176758
vt 0.7456055 0.6210938
vt 0.7919922 0.6210938
vt 0.7954102 0.6958008
vt 0.7919922 0.6928711
vt 0.7456055 0.6928711
vt 0.7456055 0.6958008
vt 0.6914063 0.7265625
vt 0.6445313 0.7265625
vt 0.6445313 0.7983398
vt 0.6914063 0.7983398
vt 0.5644531 0.8378906
vt 0.527832 0.8378906
vt 0.527832 0.8847656
vt 0.5644531 0.8847656
vt 0.8911133 0.5283203
vt 0.8540039 0.5283203
vt 0.8540039 0.6000977
vt 0.8911133 0.6000977
vt 0.5073242 0.8999023
vt 0.5073242 0.8500977
vt 0.4675293 0.8500977
vt 0.4675293 0.8999023
vt 0.2617188 0.5874023
vt 0.2617188 0.5439453
vt 0.2336426 0.5439453
vt 0.2336426 0.5874023
vt 0.2617188 0.6308594
vt 0.2056885 0.5439453
vt 0.2336426 0.6308594
vt 0.2056885 0.5874023
vt 0.2056885 0.6308594
vt 0.7236328 0.9165039
vt 0.722168 0.9614258
vt 0.7236328 0.9628906
vt 0.722168 0.9165039
vt 0.7236328 0.8706055
vt 0.7211914 0.9604492
vt 0.722168 0.8720703
vt 0.7211914 0.9165039
vt 0.7211914 0.8730469
vt 0.9545898 0.05413818
vt 0.9560547 0.009338379
vt 0.9545898 0.007865906
vt 0.9560547 0.05413818
vt 0.9545898 0.1004028
vt 0.9570313 0.01023865
vt 0.9560547 0.09893799
vt 0.9570313 0.05413818
vt 0.9570313 0.09802246
vt 0.3466797 0.9243164
vt 0.3481445 0.8959961
vt 0.3466797 0.8945313
vt 0.3481445 0.9243164
vt 0.3466797 0.9541016
vt 0.3491211 0.8969727
vt 0.3481445 0.9526367
vt 0.3491211 0.9243164
vt 0.3491211 0.9516602
vt 0.3852539 0.9243164
vt 0.3837891 0.9526367
vt 0.3852539 0.9541016
vt 0.3837891 0.9243164
vt 0.3852539 0.8945313
vt 0.3828125 0.9516602
vt 0.3837891 0.8959961
vt 0.3828125 0.9243164
vt 0.3828125 0.8969727
vt 0.9335938 0.388916
vt 0.9306641 0.388916
vt 0.9306641 0.4169922
vt 0.9335938 0.4169922
vt 0.9335938 0.4450684
vt 0.9306641 0.4450684
vt 0.9335938 0.05142212
vt 0.9335938 0.007865906
vt 0.9306641 0.007865906
vt 0.9306641 0.05142212
vt 0.9335938 0.0949707
vt 0.9306641 0.0949707
vt 0.9428711 0.2722168
vt 0.9428711 0.3000488
vt 0.9458008 0.3000488
vt 0.9458008 0.2722168
vt 0.9428711 0.2441406
vt 0.9458008 0.2441406
vt 0.5185547 0.8935547
vt 0.5185547 0.8500977
vt 0.515625 0.8500977
vt 0.515625 0.8935547
vt 0.5185547 0.9370117
vt 0.515625 0.9370117
vt 0.385498 0.5673828
vt 0.3859863 0.5668945
vt 0.3603516 0.5668945
vt 0.3603516 0.5673828
vt 0.3344727 0.5668945
vt 0.3349609 0.5673828
vt 0.385498 0.6079102
vt 0.3859863 0.5668945
vt 0.385498 0.5673828
vt 0.3859863 0.6079102
vt 0.385498 0.6489258
vt 0.3859863 0.6494141
vt 0.3603516 0.6489258
vt 0.3859863 0.6494141
vt 0.385498 0.6489258
vt 0.3603516 0.6494141
vt 0.3349609 0.6489258
vt 0.3344727 0.6494141
vt 0.3603516 0.6079102
vt 0.3349609 0.6079102
vt 0.385498 0.6079102
vt 0.385498 0.6489258
vt 0.385498 0.5673828
vt 0.3603516 0.5673828
vt 0.3349609 0.5673828
vt 0.3349609 0.6079102
vt 0.3344727 0.6494141
vt 0.3349609 0.6489258
vt 0.3344727 0.6079102
vt 0.3349609 0.5673828
vt 0.3344727 0.5668945
vn 0 0 1
vn 0 0 1
vn 0 0 1
vn 0 0 1
vn 0 0 -1
vn 0 0 -1
vn 0 0 -1
vn 0 0 -1
vn 0 -1 0
vn 0 -1 0
vn 0 -1 0
vn 0 -1 0
vn -1 0 0
vn -1 0 0
vn -1 0 0
vn -1 0 0
vn 0 1 0
vn 0 1 0
vn 0 1 0
vn 0 1 0
vn 0 1 0
vn 0 1 0
vn 0 1 0
vn 0 1 0
vn 0 1 0
vn 0 1 0
vn 0 1 0
vn 0 1 0
vn 0 0 -1
vn 0 0 -1
vn 0 0 -1
vn 0 0 -1
vn 1 0 0
vn 1 0 0
vn 1 0 0
vn 1 0 0
vn 0 0 1
vn 0 0 1
vn 0 0 1
vn 0 0 1
vn -1 0 0
vn -1 0 0
vn -1 0 0
vn -1 0 0
vn -1 0 0
vn -1 0 0
vn -1 0 0
vn -1 0 0
vn -1 0 0
vn 0.8676758 0.4968262 -1.263618E-05
vn 0.9731445 0.1923828 0.1270752
vn 0.9306641 0.2983398 0.2111816
vn 0.9936523 0.1132813 0
vn 0.9311523 0.2976074 -0.2109375
vn 0.9165039 -0.3999023 0
vn 0.9731445 0.1921387 -0.1269531
vn 0.9165039 -0.4001465 1.043081E-05
vn 0.9165039 -0.4006348 1.364946E-05
vn 0.8608398 -0.5087891 1.299381E-05
vn 0.972168 -0.1962891 -0.1278076
vn 0.9291992 -0.2983398 -0.2183838
vn 0.9931641 -0.1151733 0
vn 0.9291992 -0.2980957 0.2181396
vn 0.9165039 0.3996582 0
vn 0.972168 -0.1960449 0.1276855
vn 0.9165039 0.3999023 -1.049042E-05
vn 0.9165039 0.4001465 -1.370907E-05
vn 0.8891602 2.080202E-05 -0.4575195
vn 0.9731445 0.1921387 -0.1269531
vn 0.9311523 0.2976074 -0.2109375
vn 0.9926758 0 -0.1219482
vn 0.9291992 -0.2983398 -0.2183838
vn 0.8706055 0.0001511574 0.4919434
vn 0.972168 -0.1962891 -0.1278076
vn 0.8710938 -2.294779E-05 0.4914551
vn 0.8710938 -0.000197053 0.4907227
vn 0.8891602 -2.026558E-05 0.4575195
vn 0.972168 -0.1960449 0.1276855
vn 0.9291992 -0.2980957 0.2181396
vn 0.9926758 0 0.1220093
vn 0.9306641 0.2983398 0.2111816
vn 0.8706055 -0.000151515 -0.4919434
vn 0.9731445 0.1923828 0.1270752
vn 0.8710938 2.247095E-05 -0.4914551
vn 0.8710938 0.0001964569 -0.4907227
vn 0 0 -1
vn 0 0 -1
vn 0 0 -1
vn 0 0 -1
vn 0 0 -1
vn 0 0 -1
vn 0 -1 0
vn 0 -1 0
vn 0 -1 0
vn 0 -1 0
vn 0 -1 0
vn 0 -1 0
vn 0 0 1
vn 0 0 1
vn 0 0 1
vn 0 0 1
vn 0 0 1
vn 0 0 1
vn 0 1 0
vn 0 1 0
vn 0 1 0
vn 0 1 0
vn 0 1 0
vn 0 1 0
vn 0.925293 0 -0.3791504
vn 0.925293 0 -0.3791504
vn 0.925293 0 -0.3791504
vn 0.925293 0 -0.3791504
vn 0.925293 0 -0.3791504
vn 0.925293 0 -0.3791504
vn 0.9111328 0.4123535 0
vn 0.9111328 0.4123535 0
vn 0.9111328 0.4123535 0
vn 0.9111328 0.4123535 0
vn 0.9111328 0.4123535 0
vn 0.9111328 0.4123535 0
vn 1 1.651049E-05 0.005374908
vn 0.925293 0 0.3791504
vn 0.925293 0 0.3791504
vn 0.9257813 -2.092123E-05 0.378418
vn 1 -4.887581E-05 0.007717133
vn 0.9257813 -4.190207E-05 0.3774414
vn 1 0 0
vn 1 0 0
vn 1 0 0
vn 1 0 0
vn 1 0 0
vn 1 0 0
vn 1 0 0
vn 0.9116211 -0.411377 1.430511E-05
vn 0.9121094 -0.4101563 2.074242E-05
vn 0.9121094 -0.4101563 2.074242E-05
vn 0.9116211 -0.411377 1.430511E-05
vn 0.9111328 -0.4123535 0
vn 0.9111328 -0.4123535 0
g drawer_1.001_0
f 3/3/3 2/2/2 1/1/1
f 4/4/4 3/3/3 1/1/1
f 7/7/7 6/6/6 5/5/5
f 8/8/8 7/7/7 5/5/5
f 11/11/11 10/10/10 9/9/9
f 12/12/12 11/11/11 9/9/9
f 15/15/15 14/14/14 13/13/13
f 16/16/16 15/15/15 13/13/13
f 19/19/19 18/18/18 17/17/17
f 20/20/20 19/19/19 17/17/17
f 17/17/17 21/21/21 20/20/20
f 21/21/21 22/22/22 20/20/20
f 23/23/23 22/22/22 21/21/21
f 24/24/24 23/23/23 21/21/21
f 27/27/27 26/26/26 25/25/25
f 28/28/28 27/27/27 25/25/25
f 31/31/31 30/30/30 29/29/29
f 32/32/32 31/31/31 29/29/29
f 35/35/35 34/34/34 33/33/33
f 36/36/36 35/35/35 33/33/33
f 39/39/39 38/38/38 37/37/37
f 40/40/40 39/39/39 37/37/37
f 43/43/43 42/42/42 41/41/41
f 44/44/44 43/43/43 41/41/41
f 41/41/41 45/45/45 44/44/44
f 46/46/46 43/43/43 44/44/44
f 45/45/45 47/47/47 44/44/44
f 48/48/48 46/46/46 44/44/44
f 44/44/44 47/47/47 48/48/48
f 47/47/47 49/49/49 48/48/48
f 52/52/52 51/51/51 50/50/50
f 51/51/51 53/53/53 50/50/50
f 50/50/50 53/53/53 54/54/54
f 51/51/51 55/55/55 53/53/53
f 53/53/53 56/56/56 54/54/54
f 55/55/55 57/57/57 53/53/53
f 53/53/53 57/57/57 56/56/56
f 57/57/57 58/58/58 56/56/56
f 61/61/61 60/60/60 59/59/59
f 60/60/60 62/62/62 59/59/59
f 59/59/59 62/62/62 63/63/63
f 60/60/60 64/64/64 62/62/62
f 62/62/62 65/65/65 63/63/63
f 64/64/64 66/66/66 62/62/62
f 62/62/62 66/66/66 65/65/65
f 66/66/66 67/67/67 65/65/65
f 70/70/70 69/69/69 68/68/68
f 69/69/69 71/71/71 68/68/68
f 68/68/68 71/71/71 72/72/72
f 69/69/69 73/73/73 71/71/71
f 71/71/71 74/74/74 72/72/72
f 73/73/73 75/75/75 71/71/71
f 71/71/71 75/75/75 74/74/74
f 75/75/75 76/76/76 74/74/74
f 79/79/79 78/78/78 77/77/77
f 78/78/78 80/80/80 77/77/77
f 77/77/77 80/80/80 81/81/81
f 78/78/78 82/82/82 80/80/80
f 80/80/80 83/83/83 81/81/81
f 82/82/82 84/84/84 80/80/80
f 80/80/80 84/84/84 83/83/83
f 84/84/84 85/85/85 83/83/83
f 88/88/88 87/87/87 86/86/86
f 89/89/89 88/88/88 86/86/86
f 89/89/89 90/90/90 88/88/88
f 90/90/90 91/91/91 88/88/88
f 94/94/94 93/93/93 92/92/92
f 95/95/95 94/94/94 92/92/92
f 92/92/92 96/96/96 95/95/95
f 96/96/96 97/97/97 95/95/95
f 100/100/100 99/99/99 98/98/98
f 101/101/101 100/100/100 98/98/98
f 98/98/98 102/102/102 101/101/101
f 102/102/102 103/103/103 101/101/101
f 106/106/106 105/105/105 104/104/104
f 107/107/107 106/106/106 104/104/104
f 104/104/104 108/108/108 107/107/107
f 108/108/108 109/109/109 107/107/107
f 112/112/112 111/111/111 110/110/110
f 113/113/113 112/112/112 110/110/110
f 114/114/114 112/112/112 113/113/113
f 115/115/115 114/114/114 113/113/113
f 118/118/118 117/117/117 116/116/116
f 117/117/117 119/119/119 116/116/116
f 116/116/116 119/119/119 120/120/120
f 119/119/119 121/121/121 120/120/120
f 124/124/124 123/123/123 122/122/122
f 123/123/123 125/125/125 122/122/122
f 122/122/122 125/125/125 126/126/126
f 125/125/125 127/127/127 126/126/126
f 122/122/122 126/126/126 128/128/128
f 126/126/126 129/129/129 128/128/128
f 122/122/122 128/128/128 130/130/130
f 131/131/131 122/122/122 130/130/130
f 130/130/130 128/128/128 132/132/132
f 128/128/128 133/133/133 132/132/132
f 128/128/128 129/129/129 133/133/133
f 129/129/129 134/134/134 133/133/133
f 137/137/137 136/136/136 135/135/135
f 136/136/136 138/138/138 135/135/135
f 135/135/135 138/138/138 139/139/139
f 138/138/138 140/140/140 139/139/139
