g Drawer
v -0.01124802 0.02261278 0.003683229
v -0.01117178 0.01527772 0.003804408
v -0.01117166 0.01527772 0.02213147
v -0.01124797 0.02261278 0.02225265
v 0.008749523 0.01527772 0.003804412
v 0.00882576 0.02261278 0.003683232
v 0.008825713 0.02261278 0.02225265
v 0.008749399 0.01527772 0.02213147
v 0.008749523 0.01527772 0.003804412
v -0.01117178 0.01527772 0.003804408
v -0.01124802 0.02261278 0.003683229
v 0.00882576 0.02261278 0.003683232
v -0.01117178 0.01527772 0.003804408
v 0.008749523 0.01527772 0.003804412
v 0.008749399 0.01527772 0.02213147
v -0.01117166 0.01527772 0.02213147
v 0.008825713 0.02261278 0.02225265
v -0.01124797 0.02261278 0.02225265
v -0.01117166 0.01527772 0.02213147
v 0.008749399 0.01527772 0.02213147
v -0.0117413 0.02261278 0.002899916
v -0.01174126 0.02261278 0.02303597
v -0.01174126 0.01437322 0.02303597
v -0.01174139 0.01437322 0.002899916
v 0.009319125 0.01437322 0.002899921
v 0.009318995 0.01437322 0.02303597
v 0.009318996 0.02261278 0.02303597
v 0.009319046 0.02261278 0.002899921
v 0.009319125 0.01437322 0.002899921
v 0.009319046 0.02261278 0.002899921
v -0.0117413 0.02261278 0.002899916
v -0.01174139 0.01437322 0.002899916
v -0.01174139 0.01437322 0.002899916
v -0.01174126 0.01437322 0.02303597
v 0.009318995 0.01437322 0.02303597
v 0.009319125 0.01437322 0.002899921
v 0.009318996 0.02261278 0.02303597
v 0.009318995 0.01437322 0.02303597
v -0.01174126 0.01437322 0.02303597
v -0.01174126 0.02261278 0.02303597
v -0.01174126 0.02261278 0.02303597
v -0.0117413 0.02261278 0.002899916
v -0.01124802 0.02261278 0.003683229
v -0.01124797 0.02261278 0.02225265
v 0.009319046 0.02261278 0.002899921
v 0.009318996 0.02261278 0.02303597
v 0.008825713 0.02261278 0.02225265
v 0.00882576 0.02261278 0.003683232
v -0.0117413 0.02261278 0.002899916
v 0.009319046 0.02261278 0.002899921
v 0.00882576 0.02261278 0.003683232
v -0.01124802 0.02261278 0.003683229
v 0.009318996 0.02261278 0.02303597
v -0.01174126 0.02261278 0.02303597
v -0.01124797 0.02261278 0.02225265
v 0.008825713 0.02261278 0.02225265
vt 1.371094 0.3232422
vt 1.428711 0.3220215
vt 1.428711 0.177124
vt 1.371094 0.1762695
vt 1.007813 0.322998
vt 1.066406 0.3237305
vt 1.066406 0.1767578
vt 1.007813 0.1778564
vt 1.139648 0.4592285
vt 1.297852 0.4589844
vt 1.297852 0.4008789
vt 1.139648 0.401123
vt 1.297852 0.4589844
vt 1.139648 0.4592285
vt 1.140625 0.6044922
vt 1.297852 0.6040039
vt 1.138672 0.09906006
vt 1.297852 0.09875488
vt 1.296875 0.04067993
vt 1.139648 0.04098511
vt 1.367188 0.3293457
vt 1.367188 0.1700439
vt 1.301758 0.170166
vt 1.301758 0.3295898
vt 1.135742 0.329834
vt 1.134766 0.1704102
vt 1.070313 0.1705322
vt 1.070313 0.329834
vt 1.135742 0.329834
vt 1.135742 0.3950195
vt 1.301758 0.3947754
vt 1.301758 0.3295898
vt 1.301758 0.3295898
vt 1.301758 0.170166
vt 1.134766 0.1704102
vt 1.135742 0.329834
vt 1.134766 0.1052246
vt 1.134766 0.1704102
vt 1.301758 0.170166
vt 1.301758 0.1049194
vt 1.367188 0.1700439
vt 1.367188 0.3293457
vt 1.371094 0.3232422
vt 1.371094 0.1762695
vt 1.070313 0.329834
vt 1.070313 0.1705322
vt 1.066406 0.1767578
vt 1.066406 0.3237305
vt 1.301758 0.3947754
vt 1.135742 0.3950195
vt 1.139648 0.401123
vt 1.297852 0.4008789
vt 1.134766 0.1052246
vt 1.301758 0.1049194
vt 1.297852 0.09875488
vt 1.138672 0.09906006
vn 1 0.01039886 -4.470348E-06
vn 1 0.01039886 -4.470348E-06
vn 1 0.01039886 -4.470348E-06
vn 1 0.01039886 -4.470348E-06
vn -1 0.01039886 -4.649162E-06
vn -1 0.01039886 -4.649162E-06
vn -1 0.01039886 -4.649162E-06
vn -1 0.01039886 -4.649162E-06
vn 0 0.01652527 1
vn 0 0.01652527 1
vn 0 0.01652527 1
vn 0 0.01652527 1
vn 0 1 0
vn 0 1 0
vn 0 1 0
vn 0 1 0
vn 0 0.01652527 -1
vn 0 0.01652527 -1
vn 0 0.01652527 -1
vn 0 0.01652527 -1
vn -1 4.708767E-06 4.23193E-06
vn -1 4.708767E-06 4.23193E-06
vn -1 4.708767E-06 4.23193E-06
vn -1 4.708767E-06 4.23193E-06
vn 1 4.708767E-06 4.410744E-06
vn 1 4.708767E-06 4.410744E-06
vn 1 4.708767E-06 4.410744E-06
vn 1 4.708767E-06 4.410744E-06
vn 0 0 -1
vn 0 0 -1
vn 0 0 -1
vn 0 0 -1
vn 0 -1 0
vn 0 -1 0
vn 0 -1 0
vn 0 -1 0
vn 0 0 1
vn 0 0 1
vn 0 0 1
vn 0 0 1
vn 2.920628E-06 1 -3.516674E-06
vn 2.920628E-06 1 3.457069E-06
vn 5.00679E-06 1 2.682209E-06
vn 5.00679E-06 1 -2.741814E-06
vn -1.549721E-06 1 3.457069E-06
vn -1.549721E-06 1 -3.457069E-06
vn -2.563E-06 1 -2.682209E-06
vn -2.563E-06 1 2.682209E-06
vn 2.920628E-06 1 3.457069E-06
vn -1.549721E-06 1 3.457069E-06
vn -2.563E-06 1 2.682209E-06
vn 5.00679E-06 1 2.682209E-06
vn -1.549721E-06 1 -3.457069E-06
vn 2.920628E-06 1 -3.516674E-06
vn 5.00679E-06 1 -2.741814E-06
vn -2.563E-06 1 -2.682209E-06
g Drawer_0
f 3/3/3 2/2/2 1/1/1
f 4/4/4 3/3/3 1/1/1
f 7/7/7 6/6/6 5/5/5
f 8/8/8 7/7/7 5/5/5
f 11/11/11 10/10/10 9/9/9
f 12/12/12 11/11/11 9/9/9
f 15/15/15 14/14/14 13/13/13
f 16/16/16 15/15/15 13/13/13
f 19/19/19 18/18/18 17/17/17
f 20/20/20 19/19/19 17/17/17
f 23/23/23 22/22/22 21/21/21
f 24/24/24 23/23/23 21/21/21
f 27/27/27 26/26/26 25/25/25
f 28/28/28 27/27/27 25/25/25
f 31/31/31 30/30/30 29/29/29
f 32/32/32 31/31/31 29/29/29
f 35/35/35 34/34/34 33/33/33
f 36/36/36 35/35/35 33/33/33
f 39/39/39 38/38/38 37/37/37
f 40/40/40 39/39/39 37/37/37
f 43/43/43 42/42/42 41/41/41
f 44/44/44 43/43/43 41/41/41
f 47/47/47 46/46/46 45/45/45
f 48/48/48 47/47/47 45/45/45
f 51/51/51 50/50/50 49/49/49
f 52/52/52 51/51/51 49/49/49
f 55/55/55 54/54/54 53/53/53
f 56/56/56 55/55/55 53/53/53
