g edgeTop_low1
v -1.26307 -2.349955 -0.04936525
v -0.7225025 -2.238252 -0.146802
v -1.26307 -2.349955 -0.146802
v -0.7225025 -2.238252 -0.04936525
v -0.5337225 -2.22445 -0.04936525
v -0.5337225 -2.22445 -0.146802
v -0.33139 -2.226115 -0.146802
v -0.33139 -2.226115 -0.04936525
v -0.2417382 -2.246943 -0.146802
v -0.2417382 -2.246943 -0.04936525
v -0.1598997 -2.291505 -0.146802
v -0.1598997 -2.291505 -0.04936525
v -0.09282175 -2.32709 -0.146802
v -0.09282175 -2.32709 -0.04936525
v -0.02052915 -2.343062 -0.146802
v -0.02052915 -2.343062 -0.04936525
v 0.039198 -2.328485 -0.146802
v 0.039198 -2.328485 -0.04936525
v 0.068225 -2.315498 -0.146802
v 0.068225 -2.315498 -0.04936525
v 0.1081607 -2.355902 -0.146802
v 0.1081607 -2.355902 -0.04936525
v 0.1679575 -2.39234 -0.146802
v 0.1679575 -2.39234 -0.04936525
v 0.2389035 -2.393102 -0.146802
v 0.2389035 -2.393102 -0.04936525
v 0.291805 -2.370777 -0.146802
v 0.291805 -2.370777 -0.04936525
v 0.3335875 -2.330137 -0.146802
v 0.3335875 -2.330137 -0.04936525
v -1.228445 -2.262093 -0.04936525
v -0.7225025 -2.238252 -0.04936525
v -1.26307 -2.349955 -0.04936525
v -0.6045875 -2.146652 -0.04936525
v -0.5337225 -2.22445 -0.04936525
v -0.33139 -2.226115 -0.04936525
v -0.217888 -2.16777 -0.04936525
v -0.2417382 -2.246943 -0.04936525
v -0.1598997 -2.291505 -0.04936525
v -0.0966645 -2.250475 -0.04936525
v -0.09282175 -2.32709 -0.04936525
v -0.02052915 -2.343062 -0.04936525
v 0.007203175 -2.27784 -0.04936525
v 0.039198 -2.328485 -0.04936525
v 0.068225 -2.315498 -0.04936525
v 0.077502 -2.26195 -0.04936525
v 0.1081607 -2.355902 -0.04936525
v 0.1573497 -2.33458 -0.04936525
v 0.1679575 -2.39234 -0.04936525
v 0.2389035 -2.393102 -0.04936525
v 0.258315 -2.344107 -0.04936525
v 0.291805 -2.370777 -0.04936525
v 0.3335875 -2.330137 -0.04936525
v 0.33245 -2.280955 -0.04936525
v 0.3335875 -2.330137 -0.146802
v 0.33245 -2.280955 -0.04936525
v 0.33245 -2.280955 -0.146802
v 0.3335875 -2.330137 -0.04936525
v 1.38968 -2.238252 -0.146802
v 1.930248 -2.349955 -0.04936525
v 1.930248 -2.349955 -0.146802
v 1.38968 -2.238252 -0.04936525
v 1.2009 -2.22445 -0.04936525
v 1.2009 -2.22445 -0.146802
v 0.9985675 -2.226115 -0.146802
v 0.9985675 -2.226115 -0.04936525
v 0.908915 -2.246943 -0.146802
v 0.908915 -2.246943 -0.04936525
v 0.8270775 -2.291505 -0.146802
v 0.8270775 -2.291505 -0.04936525
v 0.76 -2.32709 -0.146802
v 0.76 -2.32709 -0.04936525
v 0.6877075 -2.343062 -0.146802
v 0.6877075 -2.343062 -0.04936525
v 0.62798 -2.328485 -0.146802
v 0.62798 -2.328485 -0.04936525
v 0.5989525 -2.315498 -0.146802
v 0.5989525 -2.315498 -0.04936525
v 0.5590175 -2.355902 -0.146802
v 0.5590175 -2.355902 -0.04936525
v 0.49922 -2.39234 -0.146802
v 0.49922 -2.39234 -0.04936525
v 0.428275 -2.393102 -0.146802
v 0.428275 -2.393102 -0.04936525
v 0.3753725 -2.370777 -0.146802
v 0.3753725 -2.370777 -0.04936525
v 0.3335875 -2.330137 -0.146802
v 0.3335875 -2.330137 -0.04936525
v 1.38968 -2.238252 -0.04936525
v 1.895622 -2.262093 -0.04936525
v 1.930248 -2.349955 -0.04936525
v 1.271765 -2.146652 -0.04936525
v 1.2009 -2.22445 -0.04936525
v 0.9985675 -2.226115 -0.04936525
v 0.885065 -2.16777 -0.04936525
v 0.908915 -2.246943 -0.04936525
v 0.8270775 -2.291505 -0.04936525
v 0.7638425 -2.250475 -0.04936525
v 0.76 -2.32709 -0.04936525
v 0.6877075 -2.343062 -0.04936525
v 0.6599751 -2.27784 -0.04936525
v 0.62798 -2.328485 -0.04936525
v 0.5989525 -2.315498 -0.04936525
v 0.589675 -2.26195 -0.04936525
v 0.5590175 -2.355902 -0.04936525
v 0.5098275 -2.33458 -0.04936525
v 0.49922 -2.39234 -0.04936525
v 0.428275 -2.393102 -0.04936525
v 0.4088625 -2.344107 -0.04936525
v 0.3753725 -2.370777 -0.04936525
v 0.3335875 -2.330137 -0.04936525
v 0.3347275 -2.280955 -0.04936525
v 0.3347275 -2.280955 -0.04936525
v 0.3335875 -2.330137 -0.146802
v 0.3347275 -2.280955 -0.146802
v 0.3335875 -2.330137 -0.04936525
vt 1.974609 0.3674316
vt 1.990234 0.2519531
vt 1.995117 0.3657227
vt 1.97168 0.253418
vt 1.96875 0.2137451
vt 1.987305 0.2138672
vt 1.985352 0.1734619
vt 1.96582 0.1716309
vt 1.986328 0.1560059
vt 1.96582 0.1522217
vt 1.988281 0.1385498
vt 1.96875 0.1337891
vt 1.990234 0.1235352
vt 1.969727 0.1195068
vt 1.989258 0.1080322
vt 1.969727 0.1054077
vt 1.987305 0.09503174
vt 1.96582 0.09350586
vt 1.986328 0.08868408
vt 1.963867 0.08685303
vt 1.985352 0.07806396
vt 1.96582 0.07550049
vt 1.986328 0.06359863
vt 1.966797 0.06268311
vt 1.985352 0.04763794
vt 1.96582 0.04943848
vt 1.983398 0.03482056
vt 1.963867 0.03939819
vt 1.978516 0.02204895
vt 1.960938 0.02909851
vt 1.957031 0.3581543
vt 1.97168 0.253418
vt 1.974609 0.3674316
vt 1.955078 0.2282715
vt 1.96875 0.2137451
vt 1.96582 0.1716309
vt 1.950195 0.1490479
vt 1.96582 0.1522217
vt 1.96875 0.1337891
vt 1.956055 0.1217651
vt 1.969727 0.1195068
vt 1.969727 0.1054077
vt 1.956055 0.09936523
vt 1.96582 0.09350586
vt 1.963867 0.08685303
vt 1.952148 0.08630371
vt 1.96582 0.07550049
vt 1.957031 0.06689453
vt 1.966797 0.06268311
vt 1.96582 0.04943848
vt 1.956055 0.04397583
vt 1.963867 0.03939819
vt 1.960938 0.02909851
vt 1.954102 0.0214386
vt 1.978516 0.02204895
vt 1.954102 0.0214386
vt 1.973633 0.0128479
vt 1.960938 0.02909851
vt 1.990234 0.2519531
vt 1.974609 0.3674316
vt 1.995117 0.3657227
vt 1.97168 0.253418
vt 1.96875 0.2137451
vt 1.987305 0.2138672
vt 1.985352 0.1734619
vt 1.96582 0.1716309
vt 1.986328 0.1560059
vt 1.96582 0.1522217
vt 1.988281 0.1385498
vt 1.96875 0.1337891
vt 1.990234 0.1235352
vt 1.969727 0.1195068
vt 1.989258 0.1080322
vt 1.969727 0.1054077
vt 1.987305 0.09503174
vt 1.96582 0.09350586
vt 1.986328 0.08868408
vt 1.963867 0.08685303
vt 1.985352 0.07806396
vt 1.96582 0.07550049
vt 1.986328 0.06359863
vt 1.966797 0.06268311
vt 1.985352 0.04763794
vt 1.96582 0.04943848
vt 1.983398 0.03482056
vt 1.963867 0.03939819
vt 1.978516 0.02204895
vt 1.960938 0.02909851
vt 1.97168 0.253418
vt 1.957031 0.3581543
vt 1.974609 0.3674316
vt 1.955078 0.2282715
vt 1.96875 0.2137451
vt 1.96582 0.1716309
vt 1.950195 0.1490479
vt 1.96582 0.1522217
vt 1.96875 0.1337891
vt 1.956055 0.1217651
vt 1.969727 0.1195068
vt 1.969727 0.1054077
vt 1.956055 0.09936523
vt 1.96582 0.09350586
vt 1.963867 0.08685303
vt 1.952148 0.08630371
vt 1.96582 0.07550049
vt 1.957031 0.06689453
vt 1.966797 0.06268311
vt 1.96582 0.04943848
vt 1.956055 0.04397583
vt 1.963867 0.03939819
vt 1.960938 0.02909851
vt 1.954102 0.0214386
vt 1.954102 0.0214386
vt 1.978516 0.02204895
vt 1.973633 0.0128479
vt 1.960938 0.02909851
vn 0.1801758 -0.8720703 0.4553223
vn 0.1695557 -0.9853516 0
vn 0.2023926 -0.9794922 0
vn 0.1156006 -0.671875 0.7319336
vn 0.02859497 -0.9213867 0.3876953
vn 0.03102112 -0.9995117 0
vn -0.07678223 -0.9970703 0
vn -0.06082153 -0.7895508 0.6108398
vn -0.3562012 -0.9345703 0
vn -0.3237305 -0.8491211 0.4174805
vn -0.473877 -0.8803711 0
vn -0.4277344 -0.7944336 0.4309082
vn -0.3469238 -0.9379883 0
vn -0.2922363 -0.7900391 0.5385742
vn -0.01055145 -1 0
vn -0.008865356 -0.840332 0.5424805
vn 0.2966309 -0.9550781 0
vn 0.2668457 -0.859375 0.4360352
vn -0.3693848 -0.9291992 0
vn -0.2280273 -0.5737305 0.7866211
vn -0.6103516 -0.7919922 0
vn -0.5527344 -0.7172852 0.4243164
vn -0.2736816 -0.9619141 0
vn -0.2492676 -0.8759766 0.4125977
vn 0.1715088 -0.9853516 0
vn 0.152832 -0.8779297 0.4533691
vn 0.5537109 -0.8325195 0
vn 0.5195313 -0.78125 0.3457031
vn 0.9111328 -0.4123535 0
vn 0.8227539 -0.3723145 0.4296875
vn 0 0 1
vn 0.1156006 -0.671875 0.7319336
vn 0.1801758 -0.8720703 0.4553223
vn 0 0 1
vn 0.02859497 -0.9213867 0.3876953
vn -0.06082153 -0.7895508 0.6108398
vn 0 0 1
vn -0.3237305 -0.8491211 0.4174805
vn -0.4277344 -0.7944336 0.4309082
vn 0 0 1
vn -0.2922363 -0.7900391 0.5385742
vn -0.008865356 -0.840332 0.5424805
vn 0 0 1
vn 0.2668457 -0.859375 0.4360352
vn -0.2280273 -0.5737305 0.7866211
vn 0 0 1
vn -0.5527344 -0.7172852 0.4243164
vn 0 0 1
vn -0.2492676 -0.8759766 0.4125977
vn 0.152832 -0.8779297 0.4533691
vn 0 0 1
vn 0.5195313 -0.78125 0.3457031
vn 0.8227539 -0.3723145 0.4296875
vn 0.9389648 0.02175903 0.3432617
vn 0.9111328 -0.4123535 0
vn 0.9389648 0.02175903 0.3432617
vn 0.9995117 0.02316284 0
vn 0.8227539 -0.3723145 0.4296875
vn -0.1695557 -0.9853516 0
vn -0.1801758 -0.8720703 0.4553223
vn -0.2023926 -0.9794922 0
vn -0.1156006 -0.671875 0.7319336
vn -0.02859497 -0.9213867 0.3876953
vn -0.03102112 -0.9995117 0
vn 0.07678223 -0.9970703 0
vn 0.06082153 -0.7895508 0.6108398
vn 0.3562012 -0.9345703 0
vn 0.3237305 -0.8491211 0.4174805
vn 0.473877 -0.8803711 0
vn 0.4277344 -0.7944336 0.4309082
vn 0.3469238 -0.9379883 0
vn 0.2922363 -0.7900391 0.5385742
vn 0.01055145 -1 0
vn 0.008865356 -0.840332 0.5424805
vn -0.2966309 -0.9550781 0
vn -0.2668457 -0.859375 0.4360352
vn 0.3693848 -0.9291992 0
vn 0.2280273 -0.5737305 0.7866211
vn 0.6103516 -0.7919922 0
vn 0.5527344 -0.7172852 0.4243164
vn 0.2736816 -0.9619141 0
vn 0.2492676 -0.8759766 0.4125977
vn -0.1715088 -0.9853516 0
vn -0.152832 -0.8779297 0.4533691
vn -0.5537109 -0.8325195 0
vn -0.5195313 -0.78125 0.3457031
vn -0.9111328 -0.4123535 0
vn -0.8227539 -0.3723145 0.4296875
vn -0.1156006 -0.671875 0.7319336
vn 0 0 1
vn -0.1801758 -0.8720703 0.4553223
vn 0 0 1
vn -0.02859497 -0.9213867 0.3876953
vn 0.06082153 -0.7895508 0.6108398
vn 0 0 1
vn 0.3237305 -0.8491211 0.4174805
vn 0.4277344 -0.7944336 0.4309082
vn 0 0 1
vn 0.2922363 -0.7900391 0.5385742
vn 0.008865356 -0.840332 0.5424805
vn 0 0 1
vn -0.2668457 -0.859375 0.4360352
vn 0.2280273 -0.5737305 0.7866211
vn 0 0 1
vn 0.5527344 -0.7172852 0.4243164
vn 0 0 1
vn 0.2492676 -0.8759766 0.4125977
vn -0.152832 -0.8779297 0.4533691
vn 0 0 1
vn -0.5195313 -0.78125 0.3457031
vn -0.8227539 -0.3723145 0.4296875
vn -0.9389648 0.02175903 0.3432617
vn -0.9389648 0.02175903 0.3432617
vn -0.9111328 -0.4123535 0
vn -0.9995117 0.02316284 0
vn -0.8227539 -0.3723145 0.4296875
g edgeTop_low1_0
f 3/3/3 2/2/2 1/1/1
f 4/4/4 1/1/1 2/2/2
f 4/4/4 2/2/2 5/5/5
f 6/6/6 5/5/5 2/2/2
f 6/6/6 7/7/7 5/5/5
f 8/8/8 5/5/5 7/7/7
f 7/7/7 9/9/9 8/8/8
f 10/10/10 8/8/8 9/9/9
f 9/9/9 11/11/11 10/10/10
f 12/12/12 10/10/10 11/11/11
f 11/11/11 13/13/13 12/12/12
f 14/14/14 12/12/12 13/13/13
f 13/13/13 15/15/15 14/14/14
f 16/16/16 14/14/14 15/15/15
f 15/15/15 17/17/17 16/16/16
f 18/18/18 16/16/16 17/17/17
f 17/17/17 19/19/19 18/18/18
f 20/20/20 18/18/18 19/19/19
f 19/19/19 21/21/21 20/20/20
f 22/22/22 20/20/20 21/21/21
f 21/21/21 23/23/23 22/22/22
f 24/24/24 22/22/22 23/23/23
f 23/23/23 25/25/25 24/24/24
f 26/26/26 24/24/24 25/25/25
f 25/25/25 27/27/27 26/26/26
f 28/28/28 26/26/26 27/27/27
f 27/27/27 29/29/29 28/28/28
f 30/30/30 28/28/28 29/29/29
f 33/33/33 32/32/32 31/31/31
f 34/34/34 31/31/31 32/32/32
f 32/32/32 35/35/35 34/34/34
f 34/34/34 35/35/35 36/36/36
f 34/34/34 36/36/36 37/37/37
f 36/36/36 38/38/38 37/37/37
f 37/37/37 38/38/38 39/39/39
f 37/37/37 39/39/39 40/40/40
f 39/39/39 41/41/41 40/40/40
f 41/41/41 42/42/42 40/40/40
f 43/43/43 40/40/40 42/42/42
f 42/42/42 44/44/44 43/43/43
f 44/44/44 45/45/45 43/43/43
f 46/46/46 43/43/43 45/45/45
f 45/45/45 47/47/47 46/46/46
f 48/48/48 46/46/46 47/47/47
f 47/47/47 49/49/49 48/48/48
f 49/49/49 50/50/50 48/48/48
f 51/51/51 48/48/48 50/50/50
f 50/50/50 52/52/52 51/51/51
f 52/52/52 53/53/53 51/51/51
f 54/54/54 51/51/51 53/53/53
f 57/57/57 56/56/56 55/55/55
f 58/58/58 55/55/55 56/56/56
f 61/61/61 60/60/60 59/59/59
f 62/62/62 59/59/59 60/60/60
f 62/62/62 63/63/63 59/59/59
f 64/64/64 59/59/59 63/63/63
f 64/64/64 63/63/63 65/65/65
f 66/66/66 65/65/65 63/63/63
f 65/65/65 66/66/66 67/67/67
f 68/68/68 67/67/67 66/66/66
f 67/67/67 68/68/68 69/69/69
f 70/70/70 69/69/69 68/68/68
f 69/69/69 70/70/70 71/71/71
f 72/72/72 71/71/71 70/70/70
f 71/71/71 72/72/72 73/73/73
f 74/74/74 73/73/73 72/72/72
f 73/73/73 74/74/74 75/75/75
f 76/76/76 75/75/75 74/74/74
f 75/75/75 76/76/76 77/77/77
f 78/78/78 77/77/77 76/76/76
f 77/77/77 78/78/78 79/79/79
f 80/80/80 79/79/79 78/78/78
f 79/79/79 80/80/80 81/81/81
f 82/82/82 81/81/81 80/80/80
f 81/81/81 82/82/82 83/83/83
f 84/84/84 83/83/83 82/82/82
f 83/83/83 84/84/84 85/85/85
f 86/86/86 85/85/85 84/84/84
f 85/85/85 86/86/86 87/87/87
f 88/88/88 87/87/87 86/86/86
f 91/91/91 90/90/90 89/89/89
f 92/92/92 89/89/89 90/90/90
f 93/93/93 89/89/89 92/92/92
f 93/93/93 92/92/92 94/94/94
f 94/94/94 92/92/92 95/95/95
f 96/96/96 94/94/94 95/95/95
f 96/96/96 95/95/95 97/97/97
f 97/97/97 95/95/95 98/98/98
f 99/99/99 97/97/97 98/98/98
f 99/99/99 98/98/98 100/100/100
f 101/101/101 100/100/100 98/98/98
f 102/102/102 100/100/100 101/101/101
f 102/102/102 101/101/101 103/103/103
f 104/104/104 103/103/103 101/101/101
f 103/103/103 104/104/104 105/105/105
f 106/106/106 105/105/105 104/104/104
f 107/107/107 105/105/105 106/106/106
f 107/107/107 106/106/106 108/108/108
f 109/109/109 108/108/108 106/106/106
f 110/110/110 108/108/108 109/109/109
f 110/110/110 109/109/109 111/111/111
f 112/112/112 111/111/111 109/109/109
f 115/115/115 114/114/114 113/113/113
f 116/116/116 113/113/113 114/114/114
