g ElkEyes
v -0.3496127 -0.004015262 0.1204848
v -0.335717 -0.008311314 0.1002239
v -0.3228196 0.01025718 0.105876
v -0.3372741 0.01286496 0.1252405
v -0.3476984 -0.03039083 0.09924398
v -0.3232241 -0.03338588 0.07985306
v -0.3579934 -0.003762393 0.1394563
v -0.360686 -0.02593984 0.1203362
v -0.3479237 0.0123113 0.1501237
v -0.323609 0.02743931 0.1358239
v -0.3370453 0.02284516 0.1657132
v -0.3581026 0.001842864 0.1679994
v -0.3350772 0.01824202 0.1934605
v -0.3713501 -0.03089988 0.1478488
v -0.3569737 -0.004211278 0.1911502
v -0.3374466 0.003597183 0.2131861
v -0.3725425 -0.03299002 0.1719981
v -0.3502381 -0.01925625 0.2173894
v -0.3206769 -0.002762049 0.2328669
v -0.3671682 -0.03095262 0.1943716
v -0.3330934 -0.02771382 0.2372354
v -0.3074981 -0.0310431 0.2508215
v -0.3554974 -0.04560032 0.2208916
v -0.3699298 -0.05544281 0.1952871
v -0.3742091 -0.06509539 0.1502696
v -0.3702135 -0.04916348 0.132198
v -0.3237963 -0.05236221 0.2468453
v -0.297773 -0.05074076 0.2555652
v -0.3039535 -0.0761311 0.2515832
v -0.360175 -0.04549637 0.1124978
v -0.3416681 -0.05246927 0.2347815
v -0.3249758 -0.08049878 0.2418207
v -0.2959416 -0.0997714 0.2438017
v -0.3620193 -0.07054831 0.1181873
v -0.3409208 -0.05793719 0.08973724
v -0.3421596 -0.08163842 0.2293828
v -0.3147011 -0.111883 0.2291793
v -0.2793642 -0.1170344 0.232354
v -0.3219184 -0.06428293 0.0785343
v -0.3011185 -0.05862372 0.07061008
v -0.3558094 -0.07817655 0.2142785
v -0.3388491 -0.0777639 0.09238564
v -0.3116208 -0.08366285 0.07850634
v -0.2870517 -0.08297553 0.07302789
v -0.3420907 -0.1065161 0.2113914
v -0.2938077 -0.132685 0.2116622
v -0.2685774 -0.1320636 0.2135562
v -0.297931 -0.1435218 0.1878821
v -0.2604875 -0.1415356 0.1882059
v -0.26802 -0.1464662 0.1695256
v -0.3212519 -0.125424 0.2077737
v -0.295296 -0.1078864 0.08704925
v -0.2670836 -0.09478007 0.07876969
v -0.2729709 -0.125563 0.1014477
v -0.3585862 -0.0960277 0.1949444
v -0.3358695 -0.1271152 0.1799812
v -0.2910828 -0.1465992 0.1612385
v -0.2713013 -0.145831 0.1476399
v -0.3216715 -0.1006615 0.0920385
v -0.3053355 -0.125501 0.106511
v -0.322497 -0.1367915 0.1540373
v -0.2855058 -0.1418218 0.1306297
v -0.2571211 -0.140125 0.134389
v -0.3114651 -0.1367479 0.1311211
v -0.3360449 -0.1205085 0.1253653
v -0.3422927 -0.09386671 0.1051702
v -0.3447928 -0.1226481 0.1643908
v -0.3571046 -0.1017144 0.1328023
v -0.3578491 -0.1075091 0.1630451
v -0.3705754 -0.08144303 0.1687427
v 0.3418509 0.007872003 0.2019898
v 0.3348785 0.0222675 0.1827896
v 0.3557465 -0.00179456 0.188569
v 0.3501592 -0.01621119 0.2161155
v 0.354712 0.005776266 0.1631705
v 0.3382441 0.02205101 0.1548356
v 0.3533972 0.003089173 0.1407015
v 0.3368139 0.01230733 0.1225248
v 0.3565744 -0.01318144 0.1216877
v 0.3372014 -0.009975812 0.1004119
v 0.3669903 -0.01837879 0.1486837
v 0.3700148 -0.02319754 0.1705479
v 0.3682016 -0.03034706 0.1910981
v 0.3607331 -0.04274245 0.2125459
v 0.3442108 -0.04296521 0.2320195
v 0.3449962 -0.06990913 0.2306705
v 0.3737358 -0.0528825 0.1823584
v 0.3747372 -0.04945868 0.157785
v 0.3421589 -0.03176711 0.09358007
v 0.3188208 -0.02428691 0.08064112
v 0.3674131 -0.0322243 0.1332454
v 0.3581951 -0.03388954 0.1125585
v 0.332204 -0.05188429 0.08325849
v 0.305116 -0.05717487 0.07137125
v 0.3694762 -0.05763704 0.1303531
v 0.3532026 -0.05541485 0.1021099
v 0.3249303 -0.07706012 0.08237598
v 0.2962748 -0.08330078 0.07406507
v 0.3732173 -0.07045637 0.1554895
v 0.3420282 -0.08254179 0.09623028
v 0.314034 -0.102773 0.08941849
v 0.2823545 -0.1128751 0.08888036
v 0.3657565 -0.07719538 0.128122
v 0.3705602 -0.07796185 0.1768568
v 0.3663773 -0.0919867 0.1598288
v 0.3634748 -0.07474747 0.20441
v 0.3527983 -0.109625 0.1875489
v 0.3472164 -0.09992302 0.2115017
v 0.3302879 -0.1015519 0.2269928
v 0.3303056 -0.08214228 0.2375567
v 0.3117966 -0.104224 0.235631
v 0.3239318 -0.1204463 0.2133776
v 0.2961134 -0.1250293 0.2223707
v 0.3078159 -0.134654 0.2008975
v 0.2808748 -0.1416188 0.1957119
v 0.3304298 -0.1303841 0.1826827
v 0.2967089 -0.144486 0.1819921
v 0.2669981 -0.1457663 0.1730089
v 0.3445177 -0.1234379 0.16111
v 0.2936443 -0.1466353 0.1571369
v 0.2696649 -0.1450327 0.1425654
v 0.3171996 -0.1396437 0.1658169
v 0.2952574 -0.1381709 0.1226609
v 0.2610074 -0.1305711 0.1123721
v 0.3187129 -0.1366597 0.1399096
v 0.3595244 -0.09977417 0.1417584
v 0.3322043 -0.121371 0.1219398
v 0.3465717 -0.1018968 0.1155326
v 0.3269642 -0.1124633 0.105844
v 0.3059235 -0.1226478 0.1042706
v 0.2849586 -0.1282169 0.105437
vt 0.3882466 0.818736
vt 0.399003 0.8228784
vt 0.4005477 0.8151596
vt 0.3881387 0.8117424
vt 0.396035 0.8300853
vt 0.4074269 0.8359788
vt 0.3790324 0.8178021
vt 0.3865559 0.8262305
vt 0.374468 0.8113024
vt 0.3850966 0.8030604
vt 0.3656155 0.806554
vt 0.3664663 0.8161519
vt 0.3511544 0.8120186
vt 0.3754514 0.8269712
vt 0.3567493 0.8205209
vt 0.3442101 0.8214594
vt 0.366473 0.8283789
vt 0.3469426 0.8293445
vt 0.3336288 0.8292682
vt 0.3579257 0.8296272
vt 0.338339 0.8373327
vt 0.329363 0.8457341
vt 0.3489071 0.8379523
vt 0.3594278 0.8370699
vt 0.3750607 0.837611
vt 0.381318 0.833123
vt 0.337358 0.8485022
vt 0.3301196 0.8556418
vt 0.3370213 0.8610548
vt 0.3891491 0.8332397
vt 0.343649 0.8437515
vt 0.3431145 0.8560504
vt 0.3424656 0.8689466
vt 0.3863808 0.840761
vt 0.3987022 0.8407946
vt 0.3487297 0.8516657
vt 0.3500521 0.8657181
vt 0.3475285 0.8774422
vt 0.4048899 0.8470249
vt 0.4122337 0.8504645
vt 0.3541629 0.8471013
vt 0.3968701 0.8472068
vt 0.4044677 0.8552602
vt 0.4101726 0.8621281
vt 0.3566506 0.8571034
vt 0.3568639 0.8752667
vt 0.3555279 0.8832303
vt 0.3655481 0.8753564
vt 0.3651799 0.8869841
vt 0.37205 0.8845145
vt 0.3583995 0.8661827
vt 0.4012953 0.8661131
vt 0.4095239 0.8721077
vt 0.3968993 0.8773344
vt 0.3615787 0.8504466
vt 0.3673711 0.8621572
vt 0.374522 0.8771817
vt 0.3797463 0.882696
vt 0.3972854 0.857366
vt 0.3925235 0.8676152
vt 0.3759499 0.866688
vt 0.3849799 0.8771121
vt 0.3853547 0.8863195
vt 0.3836529 0.8688455
vt 0.3845892 0.8592318
vt 0.3915918 0.8509988
vt 0.3720837 0.8587311
vt 0.3814594 0.8503725
vt 0.3719894 0.8524402
vt 0.3694637 0.8434933
vt 0.5251164 0.8771809
vt 0.5289709 0.8634251
vt 0.5182858 0.8689667
vt 0.5166211 0.8854796
vt 0.5152301 0.8540215
vt 0.519704 0.8445957
vt 0.5067297 0.8437396
vt 0.50134 0.8307503
vt 0.4947757 0.840114
vt 0.483981 0.8297226
vt 0.5027584 0.8523718
vt 0.5068367 0.8624995
vt 0.508173 0.8726844
vt 0.5065979 0.8841782
vt 0.5070382 0.8956645
vt 0.4977766 0.8959109
vt 0.4998121 0.8714228
vt 0.4960148 0.8615788
vt 0.476496 0.8350352
vt 0.4657214 0.827401
vt 0.4940118 0.849403
vt 0.4857975 0.8426124
vt 0.4655049 0.838096
vt 0.4507139 0.8371081
vt 0.4863699 0.8537478
vt 0.4760481 0.844506
vt 0.4581767 0.8453596
vt 0.444824 0.8468724
vt 0.4893411 0.8642986
vt 0.465893 0.8497366
vt 0.4527196 0.8544769
vt 0.4408526 0.8605138
vt 0.4802983 0.8570349
vt 0.4910082 0.8730079
vt 0.4836103 0.8695265
vt 0.4953704 0.8832301
vt 0.4817939 0.8821502
vt 0.4867731 0.8901502
vt 0.4852577 0.8986082
vt 0.4920757 0.9018779
vt 0.4816843 0.9055731
vt 0.4774192 0.8958784
vt 0.4709843 0.9042891
vt 0.4686577 0.895331
vt 0.4593886 0.8988894
vt 0.4717906 0.885691
vt 0.4609064 0.8918025
vt 0.4505274 0.8944527
vt 0.4725321 0.8763945
vt 0.4552304 0.8848301
vt 0.4456177 0.8841807
vt 0.4640293 0.883255
vt 0.4501094 0.8731422
vt 0.4374709 0.8745283
vt 0.4601374 0.8749437
vt 0.476827 0.8656821
vt 0.4623597 0.8657418
vt 0.4679659 0.8592944
vt 0.4588709 0.8600608
vt 0.4511669 0.8638357
vt 0.4443538 0.8680784
vn -0.7268642 0.5130236 -0.4565907
vn -0.6384189 0.4623742 -0.6153303
vn -0.6055767 0.5882632 -0.5359322
vn -0.6514834 0.6601644 -0.3738348
vn -0.7018948 0.238176 -0.6712793
vn -0.525288 0.1294596 -0.8410189
vn -0.8322089 0.5016704 -0.2361251
vn -0.8516923 0.2960897 -0.4323783
vn -0.7007506 0.6985021 -0.1450636
vn -0.6001379 0.7740962 -0.2015181
vn -0.6629071 0.7482839 0.02500898
vn -0.8264092 0.5600083 0.05863935
vn -0.6944053 0.6674461 0.2689179
vn -0.9573933 0.2496392 -0.1451834
vn -0.8074203 0.5088969 0.29849
vn -0.6702004 0.5254784 0.5241218
vn -0.9745554 0.2071968 0.08550621
vn -0.7327705 0.3594602 0.5777853
vn -0.5312809 0.4079589 0.7425026
vn -0.9095762 0.247583 0.3337272
vn -0.5524778 0.2711996 0.7881745
vn -0.3892618 0.1860246 0.9021474
vn -0.7900402 0.07182198 0.6088334
vn -0.9453828 -0.05399413 0.3214589
vn -0.983714 -0.1367468 -0.1166503
vn -0.9451113 0.04066822 -0.3242076
vn -0.4525114 0.002221129 0.8917558
vn -0.31744 -0.004847768 0.9482659
vn -0.3427516 -0.23494 0.9095739
vn -0.8370384 0.05260903 -0.5446091
vn -0.6417074 -0.00657694 0.7669213
vn -0.4619159 -0.2971092 0.8356793
vn -0.2656696 -0.5281603 0.806515
vn -0.8529596 -0.2064343 -0.4794213
vn -0.6531148 -0.04712819 -0.755791
vn -0.6435999 -0.3032385 0.7027272
vn -0.3590766 -0.617533 0.6997977
vn -0.119769 -0.727617 0.6754471
vn -0.4357081 -0.1092437 -0.893434
vn -0.298677 -0.1110449 -0.9478719
vn -0.8122765 -0.2533268 0.5253878
vn -0.6308352 -0.2750989 -0.7255118
vn -0.3273408 -0.327315 -0.8864045
vn -0.1386268 -0.3867089 -0.911723
vn -0.6456861 -0.5784823 0.4984453
vn -0.1437609 -0.8361696 0.5292951
vn 0.004042357 -0.8762153 0.4819028
vn -0.1973324 -0.947067 0.2532271
vn 0.04785785 -0.9516801 0.3033392
vn 0.0173217 -0.9930229 0.116642
vn -0.4372873 -0.779017 0.4493465
vn -0.1454623 -0.579542 -0.8018551
vn 0.001742639 -0.5367585 -0.8437341
vn -0.01669558 -0.7772778 -0.6289359
vn -0.8293743 -0.4601255 0.3168955
vn -0.5726185 -0.7921054 0.2113696
vn -0.1457904 -0.9888107 -0.03160098
vn 0.01170641 -0.9833922 -0.181115
vn -0.4481066 -0.5221196 -0.7256663
vn -0.2700564 -0.7615899 -0.5891098
vn -0.4375476 -0.896232 -0.07294048
vn -0.05814063 -0.9361528 -0.346753
vn 0.1055332 -0.917889 -0.3825475
vn -0.3247472 -0.8919686 -0.3145334
vn -0.5803385 -0.7111078 -0.3969043
vn -0.6686776 -0.4481939 -0.5932893
vn -0.6735846 -0.7389206 0.01673668
vn -0.8084759 -0.4984087 -0.3129782
vn -0.8257282 -0.5637903 0.01770065
vn -0.9505673 -0.3014283 0.07458393
vn 0.7320201 0.5972915 0.3277035
vn 0.7046397 0.6909956 0.1612701
vn 0.8058802 0.5317101 0.260464
vn 0.8079056 0.3478504 0.4756982
vn 0.7950619 0.6062745 0.01754201
vn 0.6959889 0.7144663 -0.07167509
vn 0.7764249 0.5881158 -0.2264601
vn 0.690295 0.6131718 -0.3840745
vn 0.7985865 0.4190085 -0.4320783
vn 0.6577302 0.4133676 -0.6296971
vn 0.9212398 0.3617966 -0.1428999
vn 0.9436145 0.3245873 0.06507563
vn 0.9169854 0.2561592 0.3058108
vn 0.844765 0.09670724 0.5263267
vn 0.7596364 0.07987864 0.6454238
vn 0.7411612 -0.2196433 0.6343793
vn 0.9786321 -0.0005693548 0.2056183
vn 0.9955363 0.06293271 -0.07033429
vn 0.6529051 0.226638 -0.7227379
vn 0.4829056 0.2086909 -0.8504412
vn 0.9329162 0.206069 -0.2953014
vn 0.8291774 0.1882478 -0.5263341
vn 0.5365968 0.00828389 -0.8437981
vn 0.3698827 -0.0718962 -0.9262925
vn 0.9382662 -0.02297706 -0.3451501
vn 0.7757617 -0.04090711 -0.6296988
vn 0.4555574 -0.2530443 -0.8534847
vn 0.2765049 -0.3630072 -0.889815
vn 0.9784263 -0.1889703 -0.08349971
vn 0.6573001 -0.3111648 -0.6863914
vn 0.348725 -0.5232417 -0.7775661
vn 0.1151417 -0.6527416 -0.7487795
vn 0.8868033 -0.269911 -0.3751375
vn 0.9437987 -0.2895482 0.1593922
vn 0.8992651 -0.4366975 -0.02485247
vn 0.8695123 -0.2338951 0.4350191
vn 0.7646256 -0.5922911 0.2540451
vn 0.7042689 -0.4935269 0.5103297
vn 0.5262524 -0.504864 0.68423
vn 0.575798 -0.391251 0.7178991
vn 0.3868398 -0.5856037 0.7123366
vn 0.4629106 -0.720066 0.5169321
vn 0.260582 -0.7838634 0.5636091
vn 0.2961831 -0.869077 0.3962077
vn 0.07977615 -0.9432187 0.3224503
vn 0.5191417 -0.822742 0.2314895
vn 0.1822675 -0.9624332 0.2012481
vn -0.0171705 -0.9972288 0.07238666
vn 0.6782343 -0.7337816 -0.03953142
vn 0.1356447 -0.9884707 -0.06727794
vn -0.01399648 -0.9729998 -0.2303812
vn 0.3975474 -0.9168097 0.03762985
vn 0.1542251 -0.8999013 -0.407912
vn -0.08328135 -0.8569404 -0.5086426
vn 0.4102563 -0.8809994 -0.2356478
vn 0.8226928 -0.5224684 -0.2240611
vn 0.5529023 -0.730651 -0.4005598
vn 0.7113249 -0.5137001 -0.4797176
vn 0.4870209 -0.6189648 -0.6161924
vn 0.2817922 -0.7359957 -0.6155515
vn 0.02534406 -0.7954312 -0.6055138
g ElkEyes_0
f 3/3/3 2/2/2 1/1/1
f 4/4/4 3/3/3 1/1/1
f 2/2/2 5/5/5 1/1/1
f 2/2/2 6/6/6 5/5/5
f 4/4/4 1/1/1 7/7/7
f 1/1/1 5/5/5 8/8/8
f 1/1/1 8/8/8 7/7/7
f 9/9/9 4/4/4 7/7/7
f 10/10/10 4/4/4 9/9/9
f 10/10/10 9/9/9 11/11/11
f 11/11/11 9/9/9 12/12/12
f 9/9/9 7/7/7 12/12/12
f 13/13/13 11/11/11 12/12/12
f 7/7/7 8/8/8 14/14/14
f 12/12/12 7/7/7 14/14/14
f 13/13/13 12/12/12 15/15/15
f 13/13/13 15/15/15 16/16/16
f 12/12/12 14/14/14 17/17/17
f 15/15/15 12/12/12 17/17/17
f 16/16/16 15/15/15 18/18/18
f 19/19/19 16/16/16 18/18/18
f 15/15/15 17/17/17 20/20/20
f 15/15/15 20/20/20 18/18/18
f 19/19/19 18/18/18 21/21/21
f 19/19/19 21/21/21 22/22/22
f 18/18/18 20/20/20 23/23/23
f 18/18/18 23/23/23 21/21/21
f 20/20/20 17/17/17 24/24/24
f 23/23/23 20/20/20 24/24/24
f 14/14/14 25/25/25 17/17/17
f 17/17/17 25/25/25 24/24/24
f 8/8/8 26/26/26 14/14/14
f 14/14/14 26/26/26 25/25/25
f 22/22/22 21/21/21 27/27/27
f 22/22/22 27/27/27 28/28/28
f 28/28/28 27/27/27 29/29/29
f 8/8/8 30/30/30 26/26/26
f 5/5/5 30/30/30 8/8/8
f 21/21/21 31/31/31 27/27/27
f 21/21/21 23/23/23 31/31/31
f 27/27/27 32/32/32 29/29/29
f 27/27/27 31/31/31 32/32/32
f 29/29/29 32/32/32 33/33/33
f 26/26/26 30/30/30 34/34/34
f 26/26/26 34/34/34 25/25/25
f 5/5/5 35/35/35 30/30/30
f 30/30/30 35/35/35 34/34/34
f 5/5/5 6/6/6 35/35/35
f 31/31/31 23/23/23 36/36/36
f 31/31/31 36/36/36 32/32/32
f 32/32/32 37/37/37 33/33/33
f 32/32/32 36/36/36 37/37/37
f 33/33/33 37/37/37 38/38/38
f 6/6/6 39/39/39 35/35/35
f 6/6/6 40/40/40 39/39/39
f 23/23/23 41/41/41 36/36/36
f 23/23/23 24/24/24 41/41/41
f 35/35/35 39/39/39 42/42/42
f 35/35/35 42/42/42 34/34/34
f 40/40/40 43/43/43 39/39/39
f 39/39/39 43/43/43 42/42/42
f 40/40/40 44/44/44 43/43/43
f 41/41/41 45/45/45 36/36/36
f 37/37/37 36/36/36 45/45/45
f 38/38/38 37/37/37 46/46/46
f 47/47/47 38/38/38 46/46/46
f 47/47/47 46/46/46 48/48/48
f 49/49/49 47/47/47 48/48/48
f 49/49/49 48/48/48 50/50/50
f 37/37/37 51/51/51 46/46/46
f 37/37/37 45/45/45 51/51/51
f 46/46/46 51/51/51 48/48/48
f 43/43/43 44/44/44 52/52/52
f 44/44/44 53/53/53 52/52/52
f 53/53/53 54/54/54 52/52/52
f 41/41/41 55/55/55 45/45/45
f 24/24/24 55/55/55 41/41/41
f 45/45/45 56/56/56 51/51/51
f 48/48/48 51/51/51 56/56/56
f 45/45/45 55/55/55 56/56/56
f 50/50/50 48/48/48 57/57/57
f 58/58/58 50/50/50 57/57/57
f 43/43/43 52/52/52 59/59/59
f 42/42/42 43/43/43 59/59/59
f 52/52/52 54/54/54 60/60/60
f 52/52/52 60/60/60 59/59/59
f 56/56/56 61/61/61 48/48/48
f 57/57/57 48/48/48 61/61/61
f 62/62/62 58/58/58 57/57/57
f 54/54/54 62/62/62 60/60/60
f 63/63/63 58/58/58 62/62/62
f 54/54/54 63/63/63 62/62/62
f 64/64/64 62/62/62 57/57/57
f 60/60/60 62/62/62 64/64/64
f 64/64/64 57/57/57 61/61/61
f 60/60/60 64/64/64 65/65/65
f 65/65/65 59/59/59 60/60/60
f 65/65/65 64/64/64 61/61/61
f 42/42/42 59/59/59 66/66/66
f 66/66/66 59/59/59 65/65/65
f 34/34/34 42/42/42 66/66/66
f 67/67/67 61/61/61 56/56/56
f 65/65/65 61/61/61 67/67/67
f 55/55/55 67/67/67 56/56/56
f 34/34/34 66/66/66 68/68/68
f 68/68/68 66/66/66 65/65/65
f 68/68/68 65/65/65 67/67/67
f 25/25/25 34/34/34 68/68/68
f 69/69/69 67/67/67 55/55/55
f 69/69/69 68/68/68 67/67/67
f 25/25/25 68/68/68 70/70/70
f 70/70/70 68/68/68 69/69/69
f 70/70/70 69/69/69 55/55/55
f 24/24/24 25/25/25 70/70/70
f 55/55/55 24/24/24 70/70/70
f 73/73/73 72/72/72 71/71/71
f 73/73/73 71/71/71 74/74/74
f 75/75/75 72/72/72 73/73/73
f 76/76/76 72/72/72 75/75/75
f 77/77/77 76/76/76 75/75/75
f 78/78/78 76/76/76 77/77/77
f 78/78/78 77/77/77 79/79/79
f 80/80/80 78/78/78 79/79/79
f 77/77/77 75/75/75 81/81/81
f 79/79/79 77/77/77 81/81/81
f 82/82/82 75/75/75 73/73/73
f 81/81/81 75/75/75 82/82/82
f 83/83/83 73/73/73 74/74/74
f 82/82/82 73/73/73 83/83/83
f 83/83/83 74/74/74 84/84/84
f 84/84/84 74/74/74 85/85/85
f 84/84/84 85/85/85 86/86/86
f 82/82/82 83/83/83 87/87/87
f 87/87/87 83/83/83 84/84/84
f 81/81/81 82/82/82 88/88/88
f 88/88/88 82/82/82 87/87/87
f 80/80/80 79/79/79 89/89/89
f 90/90/90 80/80/80 89/89/89
f 91/91/91 79/79/79 81/81/81
f 91/91/91 81/81/81 88/88/88
f 92/92/92 79/79/79 91/91/91
f 89/89/89 79/79/79 92/92/92
f 90/90/90 89/89/89 93/93/93
f 94/94/94 90/90/90 93/93/93
f 95/95/95 91/91/91 88/88/88
f 92/92/92 91/91/91 95/95/95
f 96/96/96 89/89/89 92/92/92
f 93/93/93 89/89/89 96/96/96
f 96/96/96 92/92/92 95/95/95
f 94/94/94 93/93/93 97/97/97
f 98/98/98 94/94/94 97/97/97
f 99/99/99 95/95/95 88/88/88
f 88/88/88 87/87/87 99/99/99
f 100/100/100 93/93/93 96/96/96
f 97/97/97 93/93/93 100/100/100
f 101/101/101 98/98/98 97/97/97
f 101/101/101 97/97/97 100/100/100
f 102/102/102 98/98/98 101/101/101
f 96/96/96 95/95/95 103/103/103
f 103/103/103 95/95/95 99/99/99
f 96/96/96 103/103/103 100/100/100
f 99/99/99 87/87/87 104/104/104
f 103/103/103 99/99/99 105/105/105
f 105/105/105 99/99/99 104/104/104
f 104/104/104 87/87/87 106/106/106
f 87/87/87 84/84/84 106/106/106
f 84/84/84 86/86/86 106/106/106
f 104/104/104 106/106/106 107/107/107
f 105/105/105 104/104/104 107/107/107
f 106/106/106 86/86/86 108/108/108
f 106/106/106 108/108/108 107/107/107
f 108/108/108 86/86/86 109/109/109
f 86/86/86 110/110/110 109/109/109
f 109/109/109 110/110/110 111/111/111
f 112/112/112 108/108/108 109/109/109
f 109/109/109 111/111/111 112/112/112
f 108/108/108 112/112/112 107/107/107
f 112/112/112 111/111/111 113/113/113
f 112/112/112 113/113/113 114/114/114
f 114/114/114 113/113/113 115/115/115
f 107/107/107 112/112/112 116/116/116
f 112/112/112 114/114/114 116/116/116
f 114/114/114 115/115/115 117/117/117
f 116/116/116 114/114/114 117/117/117
f 117/117/117 115/115/115 118/118/118
f 105/105/105 107/107/107 119/119/119
f 119/119/119 107/107/107 116/116/116
f 117/117/117 118/118/118 120/120/120
f 118/118/118 121/121/121 120/120/120
f 116/116/116 117/117/117 122/122/122
f 119/119/119 116/116/116 122/122/122
f 122/122/122 117/117/117 120/120/120
f 121/121/121 123/123/123 120/120/120
f 121/121/121 124/124/124 123/123/123
f 120/120/120 125/125/125 122/122/122
f 125/125/125 119/119/119 122/122/122
f 123/123/123 125/125/125 120/120/120
f 126/126/126 105/105/105 119/119/119
f 103/103/103 105/105/105 126/126/126
f 125/125/125 127/127/127 119/119/119
f 127/127/127 126/126/126 119/119/119
f 123/123/123 127/127/127 125/125/125
f 128/128/128 103/103/103 126/126/126
f 127/127/127 128/128/128 126/126/126
f 128/128/128 100/100/100 103/103/103
f 129/129/129 100/100/100 128/128/128
f 129/129/129 128/128/128 127/127/127
f 101/101/101 100/100/100 129/129/129
f 130/130/130 129/129/129 127/127/127
f 130/130/130 101/101/101 129/129/129
f 130/130/130 127/127/127 123/123/123
f 130/130/130 102/102/102 101/101/101
f 131/131/131 130/130/130 123/123/123
f 131/131/131 102/102/102 130/130/130
f 124/124/124 131/131/131 123/123/123
f 124/124/124 102/102/102 131/131/131
