g exclamation_mark_V1_L0
v 0 -0.09331316 -0.024
v -0.01613542 -0.08662966 0.024
v 0 -0.09331316 0.024
v -0.01613542 -0.08662966 -0.024
v -0.02366894 -0.07049423 0.024
v -0.02366894 -0.07049423 -0.024
v -0.04426491 0.1030027 0.024
v -0.04426491 0.1030027 -0.024
v -0.04378418 0.1338435 0.024
v -0.04378418 0.1338435 -0.024
v -0.03096009 0.1648036 0.024
v -0.03096009 0.1648036 -0.024
v 0 0.1776277 0.024
v 0 0.1776277 -0.024
v 0.01613542 -0.08662966 -0.024
v 0 -0.09331316 -0.024
v 0 -0.09331316 0.024
v 0.01613542 -0.08662966 0.024
v 0.02366894 -0.07049423 -0.024
v 0.02366894 -0.07049423 0.024
v 0.04426491 0.1030027 -0.024
v 0.04426491 0.1030027 0.024
v 0.04378418 0.1338435 -0.024
v 0.04378418 0.1338435 0.024
v 0.03096009 0.1648036 -0.024
v 0.03096009 0.1648036 0.024
v 0 0.1776277 -0.024
v 0 0.1776277 0.024
v 0 -0.1134313 -0.024
v 0.02345078 -0.1231449 0.024
v 0 -0.1134313 0.024
v 0.02345078 -0.1231449 -0.024
v 0.0331644 -0.1465957 0.024
v 0.0331644 -0.1465957 -0.024
v 0.02345078 -0.1700464 0.024
v 0.02345078 -0.1700464 -0.024
v 0 -0.1797601 0.024
v 0 -0.1797601 -0.024
v -0.02345078 -0.1700464 0.024
v -0.02345078 -0.1700464 -0.024
v -0.0331644 -0.1465957 0.024
v -0.0331644 -0.1465957 -0.024
v -0.02345078 -0.1231449 0.024
v -0.02345078 -0.1231449 -0.024
v 0 -0.1134313 0.024
v 0 -0.1134313 -0.024
v -0.01885857 -0.1654542 0.03
v 0.01885857 -0.1654542 0.03
v 0 -0.1732657 0.03
v -0.02667005 -0.1465957 0.03
v 0.02667005 -0.1465957 0.03
v 0.01885857 -0.1277371 0.03
v -0.01885857 -0.1277371 0.03
v 0 -0.1199256 0.03
v -0.02636789 0.1602114 0.03
v 0 0.1711333 0.03
v 0.02636789 0.1602114 0.03
v 0.03780275 0.1326052 0.03
v -0.03780275 0.1326052 0.03
v 0.03825937 0.103311 0.03
v -0.03825937 0.103311 0.03
v -0.01782444 -0.06882952 0.03
v 0.01782444 -0.06882952 0.03
v 0.01168519 -0.08197865 0.03
v -0.01168519 -0.08197865 0.03
v 0 -0.08681881 0.03
v -0.01885857 -0.1654542 -0.03
v 0 -0.1732657 -0.03
v 0.01885857 -0.1654542 -0.03
v -0.02667005 -0.1465957 -0.03
v 0.02667005 -0.1465957 -0.03
v 0.01885857 -0.1277371 -0.03
v -0.01885857 -0.1277371 -0.03
v 0 -0.1199256 -0.03
v -0.02636789 0.1602114 -0.03
v 0.02636789 0.1602114 -0.03
v 0 0.1711333 -0.03
v 0.03780275 0.1326052 -0.03
v -0.03780275 0.1326052 -0.03
v 0.03825937 0.103311 -0.03
v -0.03825937 0.103311 -0.03
v -0.01782444 -0.06882952 -0.03
v 0.01782444 -0.06882952 -0.03
v 0.01168519 -0.08197865 -0.03
v -0.01168519 -0.08197865 -0.03
v 0 -0.08681881 -0.03
v 0.02345078 -0.1231449 0.024
v 0.01885857 -0.1277371 0.03
v 0 -0.1199256 0.03
v 0 -0.1134313 0.024
v 0.0331644 -0.1465957 0.024
v -0.01885857 -0.1277371 0.03
v 0.02667005 -0.1465957 0.03
v -0.02345078 -0.1231449 0.024
v 0.02345078 -0.1700464 0.024
v -0.02667005 -0.1465957 0.03
v 0.01885857 -0.1654542 0.03
v -0.0331644 -0.1465957 0.024
v 0 -0.1797601 0.024
v -0.01885857 -0.1654542 0.03
v 0 -0.1732657 0.03
v -0.02345078 -0.1700464 0.024
v -0.04378418 0.1338435 0.024
v -0.03780275 0.1326052 0.03
v -0.03825937 0.103311 0.03
v -0.04426491 0.1030027 0.024
v -0.03096009 0.1648036 0.024
v -0.01782444 -0.06882952 0.03
v -0.02636789 0.1602114 0.03
v -0.02366894 -0.07049423 0.024
v 0 0.1776277 0.024
v -0.01168519 -0.08197865 0.03
v 0 0.1711333 0.03
v -0.01613542 -0.08662966 0.024
v 0.03096009 0.1648036 0.024
v 0 -0.08681881 0.03
v 0.02636789 0.1602114 0.03
v 0 -0.09331316 0.024
v 0.04378418 0.1338435 0.024
v 0.01168519 -0.08197865 0.03
v 0.03780275 0.1326052 0.03
v 0.01613542 -0.08662966 0.024
v 0.04426491 0.1030027 0.024
v 0.01782444 -0.06882952 0.03
v 0.03825937 0.103311 0.03
v 0.02366894 -0.07049423 0.024
v 0.02345078 -0.1231449 -0.024
v 0 -0.1199256 -0.03
v 0.01885857 -0.1277371 -0.03
v 0 -0.1134313 -0.024
v 0.0331644 -0.1465957 -0.024
v -0.01885857 -0.1277371 -0.03
v 0.02667005 -0.1465957 -0.03
v -0.02345078 -0.1231449 -0.024
v 0.02345078 -0.1700464 -0.024
v -0.02667005 -0.1465957 -0.03
v 0.01885857 -0.1654542 -0.03
v -0.0331644 -0.1465957 -0.024
v 0 -0.1797601 -0.024
v -0.01885857 -0.1654542 -0.03
v 0 -0.1732657 -0.03
v -0.02345078 -0.1700464 -0.024
v -0.04378418 0.1338435 -0.024
v -0.03825937 0.103311 -0.03
v -0.03780275 0.1326052 -0.03
v -0.04426491 0.1030027 -0.024
v -0.03096009 0.1648036 -0.024
v -0.01782444 -0.06882952 -0.03
v -0.02636789 0.1602114 -0.03
v -0.02366894 -0.07049423 -0.024
v 0 0.1776277 -0.024
v -0.01168519 -0.08197865 -0.03
v 0 0.1711333 -0.03
v -0.01613542 -0.08662966 -0.024
v 0.03096009 0.1648036 -0.024
v 0 -0.08681881 -0.03
v 0.02636789 0.1602114 -0.03
v 0 -0.09331316 -0.024
v 0.04378418 0.1338435 -0.024
v 0.01168519 -0.08197865 -0.03
v 0.03780275 0.1326052 -0.03
v 0.01613542 -0.08662966 -0.024
v 0.04426491 0.1030027 -0.024
v 0.01782444 -0.06882952 -0.03
v 0.03825937 0.103311 -0.03
v 0.02366894 -0.07049423 -0.024
vt 0.6650578 0.01018948
vt 0.7878175 0.05485594
vt 0.7878175 0.01018966
vt 0.6650578 0.05485582
vt 0.7878175 0.1003983
vt 0.6650578 0.1003983
vt 0.7878174 0.5472313
vt 0.6650578 0.5472313
vt 0.7878173 0.6261159
vt 0.6650578 0.6261159
vt 0.7878173 0.7118199
vt 0.6650578 0.7118199
vt 0.7878173 0.797524
vt 0.6650578 0.797524
vt 0.6446818 0.05485307
vt 0.6446818 0.0101868
vt 0.5219222 0.0101868
vt 0.5219222 0.05485303
vt 0.6446818 0.1003955
vt 0.5219222 0.1003955
vt 0.6446818 0.5472283
vt 0.5219222 0.5472282
vt 0.6446818 0.6261128
vt 0.5219222 0.6261128
vt 0.6446818 0.711817
vt 0.5219222 0.711817
vt 0.6446818 0.7975211
vt 0.5219222 0.7975211
vt 0.01018189 0.9427229
vt 0.07509865 0.819963
vt 0.01018189 0.819963
vt 0.07509865 0.9427226
vt 0.1400154 0.819963
vt 0.1400154 0.9427226
vt 0.2049322 0.819963
vt 0.2049322 0.9427226
vt 0.2698488 0.819963
vt 0.2698488 0.9427226
vt 0.3347656 0.819963
vt 0.3347656 0.9427226
vt 0.3996823 0.819963
vt 0.3996823 0.9427226
vt 0.464599 0.819963
vt 0.464599 0.9427226
vt 0.5295158 0.819963
vt 0.5295158 0.9427229
vt 0.8194385 0.818399
vt 0.9227172 0.8183989
vt 0.8710778 0.7970093
vt 0.7980487 0.8700382
vt 0.9441066 0.8700382
vt 0.9227172 0.9216776
vt 0.8194385 0.9216776
vt 0.8710778 0.9430673
vt 0.3136548 0.684779
vt 0.3838162 0.7138408
vt 0.4539776 0.684779
vt 0.4844041 0.6113226
vt 0.2832281 0.6113226
vt 0.485619 0.5333747
vt 0.2820132 0.5333747
vt 0.3363878 0.07533248
vt 0.4312446 0.0753324
vt 0.4149088 0.04034442
vt 0.3527234 0.0403445
vt 0.3838162 0.02746537
vt 0.9506387 0.6248654
vt 0.8989994 0.6034757
vt 0.84736 0.6248654
vt 0.9720284 0.6765047
vt 0.8259705 0.6765047
vt 0.84736 0.728144
vt 0.9506387 0.728144
vt 0.8989994 0.7495336
vt 0.198138 0.684779
vt 0.05781514 0.684779
vt 0.1279766 0.7138407
vt 0.02738869 0.6113226
vt 0.2285646 0.6113226
vt 0.0261738 0.5333747
vt 0.2297796 0.5333746
vt 0.175405 0.07533255
vt 0.08054817 0.07533249
vt 0.09688399 0.04034448
vt 0.1590693 0.04034457
vt 0.1279766 0.02746543
vt 0.9352915 0.9342521
vt 0.9227172 0.9216776
vt 0.8710778 0.9430673
vt 0.8710778 0.9608504
vt 0.9618899 0.8700382
vt 0.8194385 0.9216776
vt 0.9441066 0.8700382
vt 0.8068638 0.9342521
vt 0.9352915 0.8058243
vt 0.7980487 0.8700382
vt 0.9227172 0.8183989
vt 0.7802657 0.8700382
vt 0.8710778 0.7792262
vt 0.8194385 0.818399
vt 0.8710778 0.7970093
vt 0.8068638 0.8058243
vt 0.2673124 0.6146176
vt 0.2832281 0.6113226
vt 0.2820132 0.5333747
vt 0.2660333 0.5325545
vt 0.3014356 0.6969983
vt 0.3363878 0.07533248
vt 0.3136548 0.684779
vt 0.3208362 0.07090283
vt 0.3838162 0.7311215
vt 0.3527234 0.0403445
vt 0.3838162 0.7138408
vt 0.3408819 0.02796872
vt 0.4661966 0.6969983
vt 0.3838162 0.02746537
vt 0.4539776 0.684779
vt 0.3838162 0.0101849
vt 0.5003197 0.6146176
vt 0.4149088 0.04034442
vt 0.4844041 0.6113226
vt 0.4267502 0.02796872
vt 0.501599 0.5325545
vt 0.4312446 0.0753324
vt 0.485619 0.5333747
vt 0.446796 0.07090283
vt 0.8347856 0.7407185
vt 0.8989994 0.7495336
vt 0.84736 0.728144
vt 0.8989994 0.7673168
vt 0.8081874 0.6765047
vt 0.9506387 0.728144
vt 0.8259705 0.6765047
vt 0.9632133 0.7407185
vt 0.8347856 0.6122909
vt 0.9720284 0.6765047
vt 0.84736 0.6248654
vt 0.9898114 0.6765047
vt 0.8989994 0.5856927
vt 0.9506387 0.6248654
vt 0.8989994 0.6034757
vt 0.9632133 0.6122909
vt 0.2444803 0.6146176
vt 0.2297796 0.5333746
vt 0.2285646 0.6113226
vt 0.2457595 0.5325544
vt 0.2103571 0.6969982
vt 0.175405 0.07533255
vt 0.198138 0.684779
vt 0.1909565 0.07090292
vt 0.1279766 0.7311213
vt 0.1590693 0.04034457
vt 0.1279766 0.7138407
vt 0.1709108 0.0279688
vt 0.04559616 0.6969982
vt 0.1279766 0.02746543
vt 0.05781514 0.684779
vt 0.1279766 0.01018498
vt 0.011473 0.6146176
vt 0.09688399 0.04034448
vt 0.02738869 0.6113226
vt 0.08504261 0.0279688
vt 0.01019385 0.5325544
vt 0.08054817 0.07533249
vt 0.0261738 0.5333747
vt 0.06499682 0.07090292
vn 0 -1 0
vn -0.6913393 -0.7225303 0
vn 0 -1 0
vn -0.6913393 -0.7225303 0
vn -0.9617473 -0.2739384 0
vn -0.9617473 -0.2739384 0
vn -0.9986852 -0.05126338 0
vn -0.9986852 -0.05126338 0
vn -0.9792351 0.2027276 0
vn -0.9792351 0.2027276 0
vn -0.7071069 0.7071066 0
vn -0.7071069 0.7071066 0
vn 0 1 0
vn 0 1 0
vn 0.6913393 -0.7225303 0
vn 0 -1 0
vn 0 -1 0
vn 0.6913393 -0.7225303 0
vn 0.9617473 -0.2739384 0
vn 0.9617473 -0.2739384 0
vn 0.9986852 -0.05126338 0
vn 0.9986852 -0.05126338 0
vn 0.9792351 0.2027276 0
vn 0.9792351 0.2027276 0
vn 0.7071069 0.7071066 0
vn 0.7071069 0.7071066 0
vn 0 1 0
vn 0 1 0
vn 0 1 0
vn 0.7071068 0.7071068 0
vn 0 1 0
vn 0.7071068 0.7071068 0
vn 1 0 0
vn 1 0 0
vn 0.7071066 -0.7071068 0
vn 0.7071066 -0.7071068 0
vn 0 -1 0
vn 0 -1 0
vn -0.7071068 -0.7071067 0
vn -0.7071068 -0.7071067 0
vn -1 0 0
vn -1 0 0
vn -0.7071068 0.7071068 0
vn -0.7071068 0.7071068 0
vn 0 1 0
vn 0 1 0
vn 0 0 1
vn 0 0 1
vn 0 0 1
vn 0 0 1
vn 0 0 1
vn 0 0 1
vn 0 0 1
vn 0 0 1
vn 0 0 1
vn 0 0 1
vn 0 0 1
vn 0 0 1
vn 0 0 1
vn 0 0 1
vn 0 0 1
vn 0 0 1
vn 0 0 1
vn 0 0 1
vn 0 0 1
vn 0 0 1
vn 0 0 -1
vn 0 0 -1
vn 0 0 -1
vn 0 0 -1
vn 0 0 -1
vn 0 0 -1
vn 0 0 -1
vn 0 0 -1
vn 0 0 -1
vn 0 0 -1
vn 0 0 -1
vn 0 0 -1
vn 0 0 -1
vn 0 0 -1
vn 0 0 -1
vn 0 0 -1
vn 0 0 -1
vn 0 0 -1
vn 0 0 -1
vn 0 0 -1
vn 0.4798416 0.4798416 0.7345094
vn 0.4798416 0.4798416 0.7345094
vn 0 0.6785985 0.7345094
vn 0 0.6785985 0.7345094
vn 0.6785985 0 0.7345094
vn -0.4798416 0.4798416 0.7345094
vn 0.6785985 0 0.7345094
vn -0.4798416 0.4798416 0.7345094
vn 0.4798412 -0.4798415 0.7345096
vn -0.6785985 0 0.7345094
vn 0.4798411 -0.4798416 0.7345096
vn -0.6785985 0 0.7345094
vn 0 -0.6785985 0.7345095
vn -0.4798411 -0.4798416 0.7345096
vn 0 -0.6785984 0.7345095
vn -0.4798412 -0.4798415 0.7345096
vn -0.6862053 0.1420626 0.7134006
vn -0.6862053 0.1420626 0.7134006
vn -0.7053865 -0.03620807 0.7078975
vn -0.7053865 -0.03620806 0.7078975
vn -0.4798417 0.4798415 0.7345094
vn -0.6757101 -0.1924652 0.7115989
vn -0.4798416 0.4798416 0.7345094
vn -0.6757101 -0.1924652 0.7115989
vn 0 0.6785985 0.7345094
vn -0.4713785 -0.4926458 0.7315069
vn 0 0.6785985 0.7345095
vn -0.4713785 -0.4926459 0.7315069
vn 0.4798417 0.4798415 0.7345094
vn 0 -0.6785985 0.7345095
vn 0.4798416 0.4798416 0.7345094
vn 0 -0.6785985 0.7345094
vn 0.6862053 0.1420626 0.7134006
vn 0.4713785 -0.4926458 0.7315069
vn 0.6862053 0.1420626 0.7134006
vn 0.4713785 -0.4926459 0.7315069
vn 0.7053865 -0.03620806 0.7078975
vn 0.6757101 -0.1924652 0.7115989
vn 0.7053865 -0.03620807 0.7078975
vn 0.6757101 -0.1924652 0.7115989
vn 0.4798415 0.4798416 -0.7345095
vn 0 0.6785985 -0.7345094
vn 0.4798416 0.4798416 -0.7345094
vn 0 0.6785985 -0.7345094
vn 0.6785984 0 -0.7345095
vn -0.4798416 0.4798416 -0.7345094
vn 0.6785984 0 -0.7345095
vn -0.4798415 0.4798416 -0.7345095
vn 0.4798411 -0.4798415 -0.7345097
vn -0.6785986 0 -0.7345094
vn 0.479841 -0.4798416 -0.7345098
vn -0.6785986 0 -0.7345094
vn 0 -0.6785984 -0.7345095
vn -0.4798412 -0.4798417 -0.7345096
vn 0 -0.6785984 -0.7345095
vn -0.4798413 -0.4798416 -0.7345096
vn -0.6862053 0.1420626 -0.7134006
vn -0.7053865 -0.03620805 -0.7078975
vn -0.6862053 0.1420626 -0.7134007
vn -0.7053865 -0.03620804 -0.7078975
vn -0.4798416 0.4798415 -0.7345095
vn -0.6757101 -0.1924652 -0.7115989
vn -0.4798415 0.4798416 -0.7345095
vn -0.6757101 -0.1924652 -0.7115989
vn 0 0.6785985 -0.7345094
vn -0.4713786 -0.4926458 -0.7315069
vn 0 0.6785985 -0.7345095
vn -0.4713786 -0.4926458 -0.7315068
vn 0.4798417 0.4798416 -0.7345094
vn 0 -0.6785984 -0.7345095
vn 0.4798416 0.4798416 -0.7345094
vn 0 -0.6785985 -0.7345095
vn 0.6862055 0.1420627 -0.7134005
vn 0.4713786 -0.4926458 -0.7315069
vn 0.6862054 0.1420626 -0.7134005
vn 0.4713785 -0.4926458 -0.7315069
vn 0.7053866 -0.03620806 -0.7078975
vn 0.6757101 -0.1924652 -0.7115989
vn 0.7053865 -0.03620807 -0.7078975
vn 0.6757101 -0.1924652 -0.7115989
g exclamation_mark_V1_L0_0
f 3/3/3 2/2/2 1/1/1
f 2/2/2 4/4/4 1/1/1
f 2/2/2 5/5/5 4/4/4
f 5/5/5 6/6/6 4/4/4
f 5/5/5 7/7/7 6/6/6
f 7/7/7 8/8/8 6/6/6
f 7/7/7 9/9/9 8/8/8
f 9/9/9 10/10/10 8/8/8
f 9/9/9 11/11/11 10/10/10
f 11/11/11 12/12/12 10/10/10
f 11/11/11 13/13/13 12/12/12
f 13/13/13 14/14/14 12/12/12
f 17/17/17 16/16/16 15/15/15
f 18/18/18 17/17/17 15/15/15
f 18/18/18 15/15/15 19/19/19
f 20/20/20 18/18/18 19/19/19
f 20/20/20 19/19/19 21/21/21
f 22/22/22 20/20/20 21/21/21
f 22/22/22 21/21/21 23/23/23
f 24/24/24 22/22/22 23/23/23
f 24/24/24 23/23/23 25/25/25
f 26/26/26 24/24/24 25/25/25
f 26/26/26 25/25/25 27/27/27
f 28/28/28 26/26/26 27/27/27
f 31/31/31 30/30/30 29/29/29
f 30/30/30 32/32/32 29/29/29
f 30/30/30 33/33/33 32/32/32
f 33/33/33 34/34/34 32/32/32
f 33/33/33 35/35/35 34/34/34
f 35/35/35 36/36/36 34/34/34
f 35/35/35 37/37/37 36/36/36
f 37/37/37 38/38/38 36/36/36
f 37/37/37 39/39/39 38/38/38
f 39/39/39 40/40/40 38/38/38
f 39/39/39 41/41/41 40/40/40
f 41/41/41 42/42/42 40/40/40
f 41/41/41 43/43/43 42/42/42
f 43/43/43 44/44/44 42/42/42
f 43/43/43 45/45/45 44/44/44
f 45/45/45 46/46/46 44/44/44
f 49/49/49 48/48/48 47/47/47
f 47/47/47 48/48/48 50/50/50
f 48/48/48 51/51/51 50/50/50
f 51/51/51 52/52/52 50/50/50
f 52/52/52 53/53/53 50/50/50
f 52/52/52 54/54/54 53/53/53
f 57/57/57 56/56/56 55/55/55
f 57/57/57 55/55/55 58/58/58
f 55/55/55 59/59/59 58/58/58
f 60/60/60 58/58/58 59/59/59
f 61/61/61 60/60/60 59/59/59
f 60/60/60 61/61/61 62/62/62
f 63/63/63 60/60/60 62/62/62
f 64/64/64 63/63/63 62/62/62
f 65/65/65 64/64/64 62/62/62
f 65/65/65 66/66/66 64/64/64
f 69/69/69 68/68/68 67/67/67
f 69/69/69 67/67/67 70/70/70
f 71/71/71 69/69/69 70/70/70
f 72/72/72 71/71/71 70/70/70
f 73/73/73 72/72/72 70/70/70
f 74/74/74 72/72/72 73/73/73
f 77/77/77 76/76/76 75/75/75
f 75/75/75 76/76/76 78/78/78
f 79/79/79 75/75/75 78/78/78
f 78/78/78 80/80/80 79/79/79
f 80/80/80 81/81/81 79/79/79
f 81/81/81 80/80/80 82/82/82
f 80/80/80 83/83/83 82/82/82
f 83/83/83 84/84/84 82/82/82
f 84/84/84 85/85/85 82/82/82
f 86/86/86 85/85/85 84/84/84
f 89/89/89 88/88/88 87/87/87
f 90/90/90 89/89/89 87/87/87
f 87/87/87 88/88/88 91/91/91
f 92/92/92 89/89/89 90/90/90
f 88/88/88 93/93/93 91/91/91
f 94/94/94 92/92/92 90/90/90
f 91/91/91 93/93/93 95/95/95
f 96/96/96 92/92/92 94/94/94
f 93/93/93 97/97/97 95/95/95
f 98/98/98 96/96/96 94/94/94
f 95/95/95 97/97/97 99/99/99
f 100/100/100 96/96/96 98/98/98
f 97/97/97 101/101/101 99/99/99
f 102/102/102 100/100/100 98/98/98
f 99/99/99 101/101/101 102/102/102
f 101/101/101 100/100/100 102/102/102
f 105/105/105 104/104/104 103/103/103
f 106/106/106 105/105/105 103/103/103
f 103/103/103 104/104/104 107/107/107
f 108/108/108 105/105/105 106/106/106
f 104/104/104 109/109/109 107/107/107
f 110/110/110 108/108/108 106/106/106
f 107/107/107 109/109/109 111/111/111
f 112/112/112 108/108/108 110/110/110
f 109/109/109 113/113/113 111/111/111
f 114/114/114 112/112/112 110/110/110
f 111/111/111 113/113/113 115/115/115
f 116/116/116 112/112/112 114/114/114
f 113/113/113 117/117/117 115/115/115
f 118/118/118 116/116/116 114/114/114
f 115/115/115 117/117/117 119/119/119
f 120/120/120 116/116/116 118/118/118
f 117/117/117 121/121/121 119/119/119
f 122/122/122 120/120/120 118/118/118
f 119/119/119 121/121/121 123/123/123
f 124/124/124 120/120/120 122/122/122
f 121/121/121 125/125/125 123/123/123
f 126/126/126 124/124/124 122/122/122
f 123/123/123 125/125/125 126/126/126
f 125/125/125 124/124/124 126/126/126
f 129/129/129 128/128/128 127/127/127
f 128/128/128 130/130/130 127/127/127
f 129/129/129 127/127/127 131/131/131
f 128/128/128 132/132/132 130/130/130
f 133/133/133 129/129/129 131/131/131
f 132/132/132 134/134/134 130/130/130
f 133/133/133 131/131/131 135/135/135
f 132/132/132 136/136/136 134/134/134
f 137/137/137 133/133/133 135/135/135
f 136/136/136 138/138/138 134/134/134
f 137/137/137 135/135/135 139/139/139
f 136/136/136 140/140/140 138/138/138
f 141/141/141 137/137/137 139/139/139
f 140/140/140 142/142/142 138/138/138
f 141/141/141 139/139/139 142/142/142
f 140/140/140 141/141/141 142/142/142
f 145/145/145 144/144/144 143/143/143
f 144/144/144 146/146/146 143/143/143
f 145/145/145 143/143/143 147/147/147
f 144/144/144 148/148/148 146/146/146
f 149/149/149 145/145/145 147/147/147
f 148/148/148 150/150/150 146/146/146
f 149/149/149 147/147/147 151/151/151
f 148/148/148 152/152/152 150/150/150
f 153/153/153 149/149/149 151/151/151
f 152/152/152 154/154/154 150/150/150
f 153/153/153 151/151/151 155/155/155
f 152/152/152 156/156/156 154/154/154
f 157/157/157 153/153/153 155/155/155
f 156/156/156 158/158/158 154/154/154
f 157/157/157 155/155/155 159/159/159
f 156/156/156 160/160/160 158/158/158
f 161/161/161 157/157/157 159/159/159
f 160/160/160 162/162/162 158/158/158
f 161/161/161 159/159/159 163/163/163
f 160/160/160 164/164/164 162/162/162
f 165/165/165 161/161/161 163/163/163
f 164/164/164 166/166/166 162/162/162
f 165/165/165 163/163/163 166/166/166
f 164/164/164 165/165/165 166/166/166
