g Eye
v -0.1701598 -0.1485167 2.766199
v -0.1357228 -0.1271117 2.747235
v -0.1696898 -0.1283747 2.768822
v -0.1948638 -0.1290317 2.793595
v -0.1187068 -0.1449527 2.737506
v -0.08944278 -0.1319987 2.727635
v -0.2026758 -0.1463027 2.800888
v -0.2089958 -0.1291427 2.817749
v -0.05621778 -0.1498027 2.718801
v -0.03688778 -0.1302337 2.71611
v -0.2137128 -0.1419157 2.828285
v -0.2111738 -0.1291437 2.852624
v -0.009312782 -0.1591567 2.714837
v 0.003674221 -0.1297576 2.713451
v 0.03697922 -0.1413207 2.715382
v 0.07500321 -0.1314837 2.72418
v -0.08682878 -0.1689347 2.730171
v -0.1373198 -0.1728627 2.751251
v -0.04590778 -0.1882197 2.727533
v -0.1009478 -0.2038327 2.748111
v -0.1550688 -0.1929246 2.770602
v -0.1888398 -0.1675207 2.788312
v -0.2043818 -0.1738677 2.814425
v -0.1726868 -0.1986607 2.79053
v -0.1549808 -0.2270697 2.804139
v -0.1073308 -0.2273327 2.7696
v -0.04239878 -0.2222027 2.746427
v 5.22214E-05 -0.2018177 2.73064
v -0.1863448 -0.2033256 2.815701
v 0.02473922 -0.1728507 2.719305
v 0.07284922 -0.1543817 2.723324
v 0.1263812 -0.1500427 2.740504
v 0.1351942 -0.1270977 2.747157
v 0.07917423 -0.1794507 2.731524
v 0.04796922 -0.1976397 2.732444
v 0.03054322 -0.2281857 2.749753
v 0.1615732 -0.1418227 2.761168
v 0.1687292 -0.1283457 2.768005
v 0.1909762 -0.1445667 2.785566
v 0.1937312 -0.1290277 2.791761
v 0.1676692 -0.1679987 2.769157
v 0.1316392 -0.1833397 2.752412
v 0.07092723 -0.2148887 2.747417
v 0.1114902 -0.2149957 2.761276
v 0.1562082 -0.2052377 2.779434
v 0.08781223 -0.2389807 2.773236
v 0.2125202 -0.1454087 2.819423
v 0.2103862 -0.1291417 2.824776
v 0.1879932 -0.1828457 2.795046
v 0.1317252 -0.2304017 2.787443
v 0.2136522 -0.1406817 2.852528
v 0.2120962 -0.1291437 2.848388
v 0.2007242 -0.1291437 2.876575
v 0.2023432 -0.1655767 2.806657
v 0.1742772 -0.2171566 2.816204
v 0.2014502 -0.1894166 2.828367
v 0.2111152 -0.1639847 2.852167
v 0.2008712 -0.1539937 2.879565
v 0.1817082 -0.1436567 2.901623
v 0.1787472 -0.1291437 2.900882
v 0.1438492 -0.1291437 2.922998
v 0.1995452 -0.1921576 2.850662
v 0.1942062 -0.1857347 2.872322
v 0.1747412 -0.1893637 2.896782
v 0.1457262 -0.1629477 2.923604
v 0.1658032 -0.2283877 2.8523
v 0.1748922 -0.2146336 2.872911
v 0.1080072 -0.1515637 2.938861
v 0.09897421 -0.1291437 2.940463
v 0.06705922 -0.1429127 2.949141
v 0.03614922 -0.1291437 2.951329
v 0.01386522 -0.1479517 2.954495
v -0.02215078 -0.1291437 2.952832
v 0.05260422 -0.1757497 2.948287
v 0.1023552 -0.2008137 2.93106
v 0.1489742 -0.1994216 2.910815
v 0.1418782 -0.2286197 2.896642
v 0.1410142 -0.2429097 2.872768
v -0.04209678 -0.1490017 2.952659
v -0.08350479 -0.1291437 2.943686
v 0.1080212 -0.2316606 2.914193
v 0.1445862 -0.2450247 2.842046
v 0.1111092 -0.2547357 2.882795
v 0.07537322 -0.2583936 2.894332
v -0.03329578 -0.1801137 2.949543
v -0.09132179 -0.1611207 2.94266
v 0.05912022 -0.2181977 2.932536
v 0.1238422 -0.2526076 2.823915
v 0.08337522 -0.2671427 2.843118
v 0.07043622 -0.2574086 2.791693
v 0.06728823 -0.2669657 2.817265
v 0.01885622 -0.2500307 2.769697
v 0.03123222 -0.2760037 2.840283
v 0.02743522 -0.2658647 2.795513
v -0.02999978 -0.2412157 2.761421
v -0.01327378 -0.2728257 2.809311
v -0.09402078 -0.2528577 2.795822
v -0.01454678 -0.2772817 2.841816
v -0.07156377 -0.2692367 2.833743
v 0.01709622 -0.2716087 2.871687
v -0.02418378 -0.2690717 2.878917
v -0.1203948 -0.2544166 2.825775
v -0.07304077 -0.2691236 2.862342
v -0.1199528 -0.2558457 2.862389
v -0.1504088 -0.2410537 2.846815
v -0.1802478 -0.2169597 2.836693
v -0.1607308 -0.2308307 2.868281
v -0.1981428 -0.1963077 2.848343
v -0.1008088 -0.2543327 2.887078
v -0.1046108 -0.2391617 2.910102
v -0.01339778 -0.2554716 2.902619
v -0.1389948 -0.2355077 2.888615
v 0.05862022 -0.2415736 2.916687
v -0.03405378 -0.2353787 2.923589
v -0.1571258 -0.2103067 2.899501
v -0.002195778 -0.2000847 2.943815
v -0.06480978 -0.2207506 2.930376
v -0.09457479 -0.2036477 2.931792
v -0.1365678 -0.1826556 2.923288
v -0.1884958 -0.1934417 2.877278
v -0.1253308 -0.1465487 2.932984
v -0.1550818 -0.1291437 2.916653
v -0.1702948 -0.1870587 2.901033
v -0.1585898 -0.1533056 2.917051
v -0.1869128 -0.1541367 2.89658
v -0.1948358 -0.1291437 2.884053
v -0.2038948 -0.1658487 2.870024
v -0.2019458 -0.1415887 2.878433
v -0.2131368 -0.1463687 2.853374
v -0.2115158 -0.1664976 2.839677
vt 0.8842109 0.122016
vt 0.8780338 0.1333967
vt 0.8878796 0.1248991
vt 0.8945914 0.1153704
vt 0.8705437 0.1329935
vt 0.8630819 0.1394731
vt 0.8926392 0.1105009
vt 0.8984281 0.1063976
vt 0.8516632 0.1386185
vt 0.8464294 0.144282
vt 0.8960519 0.1022231
vt 0.8997548 0.09430791
vt 0.8377613 0.1375849
vt 0.8331543 0.1443081
vt 0.8235527 0.1391756
vt 0.8108997 0.138195
vt 0.8594333 0.1314655
vt 0.8724885 0.1240602
vt 0.8477508 0.1297887
vt 0.8609966 0.1219145
vt 0.8747826 0.1163524
vt 0.8856179 0.1127207
vt 0.8880003 0.1049043
vt 0.8780991 0.1103691
vt 0.8718246 0.1058449
vt 0.8613089 0.114557
vt 0.8463451 0.1209113
vt 0.835826 0.1265984
vt 0.8804984 0.1036426
vt 0.8285131 0.1328744
vt 0.8139381 0.1333361
vt 0.7991749 0.125531
vt 0.7930371 0.1276599
vt 0.8143677 0.1269106
vt 0.8235955 0.1253536
vt 0.8291361 0.1184506
vt 0.7893058 0.1182468
vt 0.7847997 0.1176749
vt 0.783564 0.1079725
vt 0.779326 0.1073489
vt 0.7923869 0.1123739
vt 0.8023275 0.1177417
vt 0.8192127 0.1189166
vt 0.8101556 0.113737
vt 0.8000945 0.1075814
vt 0.8172102 0.1100591
vt 0.780625 0.09614976
vt 0.7766559 0.09502418
vt 0.791234 0.1030799
vt 0.8077595 0.1055371
vt 0.7800292 0.08613101
vt 0.777157 0.08689173
vt 0.7801938 0.07674246
vt 0.7860443 0.09984335
vt 0.7987579 0.09752914
vt 0.7906583 0.09388652
vt 0.7852198 0.08711348
vt 0.7858302 0.07853003
vt 0.7885562 0.06993547
vt 0.7862852 0.0673202
vt 0.7960986 0.05783692
vt 0.791823 0.08845025
vt 0.792154 0.08264789
vt 0.7969371 0.07617642
vt 0.8005958 0.06442308
vt 0.8021891 0.08919316
vt 0.7994591 0.08386003
vt 0.8096257 0.05633924
vt 0.8101537 0.05021777
vt 0.8211182 0.05108801
vt 0.8301363 0.04631116
vt 0.837254 0.05073776
vt 0.84871 0.04701889
vt 0.8266069 0.05756279
vt 0.8148004 0.06664623
vt 0.8037236 0.07287981
vt 0.8077725 0.07891361
vt 0.808673 0.08514529
vt 0.8537135 0.05294975
vt 0.8679399 0.05243729
vt 0.8153283 0.07460888
vt 0.8075541 0.09206463
vt 0.8155257 0.08345914
vt 0.8230981 0.08103178
vt 0.849651 0.05941655
vt 0.8664244 0.06050762
vt 0.8261006 0.06808565
vt 0.8117651 0.09660824
vt 0.8209598 0.09296016
vt 0.8221821 0.1052448
vt 0.8237185 0.09917521
vt 0.8326668 0.112121
vt 0.8316998 0.09446183
vt 0.8315347 0.1049672
vt 0.8434504 0.1154479
vt 0.8402734 0.1022544
vt 0.8574576 0.1068074
vt 0.8410723 0.09473061
vt 0.8527571 0.09745037
vt 0.83505 0.08745869
vt 0.8437848 0.08612714
vt 0.8631203 0.09991222
vt 0.8535009 0.09099019
vt 0.8634785 0.09162524
vt 0.8702474 0.09556266
vt 0.8780572 0.09833466
vt 0.8734236 0.09069642
vt 0.8840388 0.09578288
vt 0.8602257 0.08550788
vt 0.862171 0.07946394
vt 0.8421259 0.07971098
vt 0.8691379 0.08557234
vt 0.8264912 0.07458942
vt 0.8474813 0.07361695
vt 0.8755099 0.08227855
vt 0.8409974 0.06358077
vt 0.8551202 0.0713844
vt 0.8633201 0.07012499
vt 0.8748897 0.07230787
vt 0.8832031 0.08830351
vt 0.8768678 0.06375083
vt 0.8881719 0.06723756
vt 0.881133 0.08083791
vt 0.884158 0.07191318
vt 0.8897394 0.08062506
vt 0.8971575 0.08213772
vt 0.8903829 0.08979143
vt 0.8950428 0.08589581
vt 0.8955314 0.09446846
vt 0.8909249 0.09829015
vn -0.6128992 -0.06122301 -0.7877858
vn -0.4721234 0.05698361 -0.8796887
vn -0.6224447 0.1153116 -0.7741225
vn -0.7691102 0.09566243 -0.6319163
vn -0.390366 -0.03383019 -0.920038
vn -0.2931791 -0.01376126 -0.9559584
vn -0.8477842 -0.02494531 -0.5297543
vn -0.9345981 0.1439112 -0.3252935
vn -0.1897948 -0.09693073 -0.9770273
vn -0.1158971 -0.00772767 -0.9932312
vn -0.9858018 0.04713885 -0.1611608
vn -0.9622123 0.1745562 0.208992
vn -0.03731872 -0.1863703 -0.9817706
vn 0.01073636 -0.01195146 -0.9998709
vn 0.1357887 0.04073418 -0.9899001
vn 0.2663496 0.04956187 -0.9626015
vn -0.2790456 -0.2409299 -0.9295625
vn -0.4506562 -0.2633846 -0.8529581
vn -0.1391272 -0.3819616 -0.9136459
vn -0.3053743 -0.4826113 -0.8208731
vn -0.5230193 -0.4501884 -0.7237273
vn -0.7218033 -0.2601167 -0.6413575
vn -0.8707269 -0.343562 -0.3518521
vn -0.632009 -0.5159031 -0.5782807
vn -0.5290332 -0.7339377 -0.4259806
vn -0.3317614 -0.6737244 -0.6603255
vn -0.12831 -0.5932986 -0.7946906
vn -0.004493889 -0.4761068 -0.8793761
vn -0.7397726 -0.5851573 -0.3321556
vn 0.08267418 -0.2852067 -0.9548938
vn 0.2442754 -0.1268975 -0.961367
vn 0.4053651 -0.07192037 -0.9113213
vn 0.4483682 0.1001674 -0.8882186
vn 0.2616721 -0.3347082 -0.9052613
vn 0.144114 -0.4447271 -0.883996
vn 0.08631172 -0.6279051 -0.7734891
vn 0.5651685 0.001663996 -0.8249738
vn 0.6141702 0.09750367 -0.7831271
vn 0.7458612 -0.02660721 -0.6655698
vn 0.7936664 0.1311112 -0.5940568
vn 0.5948262 -0.2413065 -0.7667809
vn 0.4164972 -0.3542622 -0.8372744
vn 0.2169841 -0.5514768 -0.8054758
vn 0.3376449 -0.5548566 -0.7603486
vn 0.5407875 -0.5380248 -0.6465897
vn 0.2585705 -0.7272291 -0.6358295
vn 0.9574915 -0.009947201 -0.2882897
vn 0.9562302 0.1923092 -0.2205469
vn 0.7240981 -0.4012984 -0.5609292
vn 0.4260557 -0.7334673 -0.5296248
vn 0.9779775 0.05130547 0.2023062
vn 0.9796185 0.1703229 0.1064777
vn 0.8386956 0.1096115 0.5334557
vn 0.8518898 -0.248924 -0.4607825
vn 0.6568947 -0.6935044 -0.295873
vn 0.8531029 -0.4903325 -0.1782958
vn 0.9553829 -0.2398166 0.1724279
vn 0.8289542 -0.1078404 0.5488219
vn 0.6524857 0.01214127 0.7577038
vn 0.6273679 0.1668341 0.7606418
vn 0.4429608 0.05870662 0.8946169
vn 0.8369507 -0.5273187 0.1464529
vn 0.8041846 -0.3932062 0.4457308
vn 0.6539078 -0.3475988 0.6719968
vn 0.4534629 -0.1167831 0.883591
vn 0.6619942 -0.7464875 0.06723132
vn 0.6956185 -0.6227152 0.3582467
vn 0.3054281 -0.05519696 0.950614
vn 0.2823153 0.07398716 0.9564643
vn 0.1747959 0.0427941 0.9836743
vn 0.08934479 0.09585261 0.9913777
vn 0.03133938 -0.02542988 0.9991853
vn -0.0527077 0.0706261 0.9961093
vn 0.1267794 -0.2080625 0.9698644
vn 0.2790412 -0.3149746 0.9071532
vn 0.4836055 -0.3662238 0.794988
vn 0.5050601 -0.6279586 0.5920999
vn 0.5059183 -0.82033 0.2666556
vn -0.119386 -0.01230372 0.9927717
vn -0.2309945 0.07071717 0.9703817
vn 0.3026451 -0.5915564 0.7473065
vn 0.5042699 -0.8621767 -0.04861474
vn 0.3214101 -0.8842449 0.3388313
vn 0.1518378 -0.8756781 0.4584029
vn -0.07962417 -0.237137 0.9682076
vn -0.2425637 -0.1070333 0.964213
vn 0.1075628 -0.4539022 0.8845355
vn 0.3863172 -0.8932158 -0.2300537
vn 0.2298239 -0.9731271 0.01430291
vn 0.2135018 -0.8590599 -0.4652238
vn 0.1927193 -0.9537332 -0.2307645
vn 0.03967164 -0.7758119 -0.6297159
vn 0.101488 -0.9947972 -0.008875895
vn 0.073563 -0.9112813 -0.4051603
vn -0.09168359 -0.7442388 -0.6615911
vn -0.05481702 -0.9426242 -0.3293247
vn -0.2611686 -0.8505616 -0.4564383
vn -0.04345462 -0.9988323 0.02111611
vn -0.2020177 -0.9699025 -0.1359338
vn 0.04873412 -0.9529609 0.2991497
vn -0.05673172 -0.9243987 0.3771848
vn -0.3789666 -0.9024832 -0.2047154
vn -0.1812069 -0.9667215 0.180592
vn -0.3757355 -0.9135798 0.1555468
vn -0.5393755 -0.8417135 -0.02434084
vn -0.6942667 -0.7150309 -0.08200414
vn -0.616848 -0.7345062 0.2828412
vn -0.8436183 -0.5285986 0.09429563
vn -0.2493335 -0.8730115 0.4191463
vn -0.2850995 -0.6649364 0.6903461
vn -0.02554047 -0.8051169 0.592566
vn -0.4816144 -0.7333403 0.4798537
vn 0.08295798 -0.6723922 0.7355315
vn -0.04523898 -0.6296372 0.7755709
vn -0.5498497 -0.5008272 0.6684591
vn 0.006878162 -0.3749892 0.9270037
vn -0.1276863 -0.4736403 0.8714132
vn -0.2615624 -0.3402977 0.9032068
vn -0.40706 -0.2617238 0.8751016
vn -0.7580034 -0.451893 0.470344
vn -0.3560781 0.05335058 0.9329321
vn -0.5047904 0.1337757 0.8528134
vn -0.6123855 -0.3045972 0.7295235
vn -0.5177464 -0.04669149 0.8542591
vn -0.6922065 -0.0606469 0.7191468
vn -0.7427343 0.1920119 0.6414648
vn -0.8720737 -0.2434876 0.4245012
vn -0.8456314 0.07433091 0.5285662
vn -0.9751481 -0.02585245 0.2200405
vn -0.961323 -0.2753273 0.007287495
g Eye_0
f 3/3/3 2/2/2 1/1/1
f 4/4/4 3/3/3 1/1/1
f 2/2/2 5/5/5 1/1/1
f 2/2/2 6/6/6 5/5/5
f 4/4/4 1/1/1 7/7/7
f 8/8/8 4/4/4 7/7/7
f 6/6/6 9/9/9 5/5/5
f 6/6/6 10/10/10 9/9/9
f 8/8/8 7/7/7 11/11/11
f 12/12/12 8/8/8 11/11/11
f 10/10/10 13/13/13 9/9/9
f 10/10/10 14/14/14 13/13/13
f 13/13/13 14/14/14 15/15/15
f 14/14/14 16/16/16 15/15/15
f 5/5/5 9/9/9 17/17/17
f 1/1/1 5/5/5 18/18/18
f 5/5/5 17/17/17 18/18/18
f 17/17/17 9/9/9 19/19/19
f 9/9/9 13/13/13 19/19/19
f 18/18/18 17/17/17 20/20/20
f 17/17/17 19/19/19 20/20/20
f 1/1/1 18/18/18 21/21/21
f 18/18/18 20/20/20 21/21/21
f 22/22/22 1/1/1 21/21/21
f 7/7/7 1/1/1 22/22/22
f 7/7/7 22/22/22 23/23/23
f 11/11/11 7/7/7 23/23/23
f 22/22/22 21/21/21 24/24/24
f 22/22/22 24/24/24 23/23/23
f 24/24/24 21/21/21 25/25/25
f 21/21/21 20/20/20 26/26/26
f 21/21/21 26/26/26 25/25/25
f 20/20/20 19/19/19 27/27/27
f 20/20/20 27/27/27 26/26/26
f 13/13/13 28/28/28 19/19/19
f 19/19/19 28/28/28 27/27/27
f 23/23/23 24/24/24 29/29/29
f 24/24/24 25/25/25 29/29/29
f 28/28/28 13/13/13 30/30/30
f 13/13/13 15/15/15 30/30/30
f 30/30/30 15/15/15 31/31/31
f 15/15/15 16/16/16 31/31/31
f 31/31/31 16/16/16 32/32/32
f 16/16/16 33/33/33 32/32/32
f 30/30/30 31/31/31 34/34/34
f 31/31/31 32/32/32 34/34/34
f 28/28/28 30/30/30 35/35/35
f 30/30/30 34/34/34 35/35/35
f 28/28/28 36/36/36 27/27/27
f 28/28/28 35/35/35 36/36/36
f 32/32/32 33/33/33 37/37/37
f 33/33/33 38/38/38 37/37/37
f 37/37/37 38/38/38 39/39/39
f 38/38/38 40/40/40 39/39/39
f 32/32/32 37/37/37 41/41/41
f 37/37/37 39/39/39 41/41/41
f 34/34/34 32/32/32 42/42/42
f 42/42/42 32/32/32 41/41/41
f 35/35/35 34/34/34 43/43/43
f 36/36/36 35/35/35 43/43/43
f 34/34/34 42/42/42 44/44/44
f 43/43/43 34/34/34 44/44/44
f 42/42/42 41/41/41 45/45/45
f 44/44/44 42/42/42 45/45/45
f 43/43/43 44/44/44 46/46/46
f 36/36/36 43/43/43 46/46/46
f 39/39/39 40/40/40 47/47/47
f 40/40/40 48/48/48 47/47/47
f 41/41/41 39/39/39 49/49/49
f 45/45/45 41/41/41 49/49/49
f 44/44/44 45/45/45 50/50/50
f 46/46/46 44/44/44 50/50/50
f 47/47/47 48/48/48 51/51/51
f 48/48/48 52/52/52 51/51/51
f 52/52/52 53/53/53 51/51/51
f 39/39/39 47/47/47 54/54/54
f 49/49/49 39/39/39 54/54/54
f 45/45/45 49/49/49 55/55/55
f 45/45/45 55/55/55 50/50/50
f 49/49/49 54/54/54 56/56/56
f 54/54/54 47/47/47 56/56/56
f 49/49/49 56/56/56 55/55/55
f 47/47/47 51/51/51 57/57/57
f 56/56/56 47/47/47 57/57/57
f 51/51/51 53/53/53 58/58/58
f 51/51/51 58/58/58 57/57/57
f 58/58/58 53/53/53 59/59/59
f 53/53/53 60/60/60 59/59/59
f 60/60/60 61/61/61 59/59/59
f 56/56/56 57/57/57 62/62/62
f 63/63/63 57/57/57 58/58/58
f 62/62/62 57/57/57 63/63/63
f 58/58/58 59/59/59 64/64/64
f 63/63/63 58/58/58 64/64/64
f 59/59/59 61/61/61 65/65/65
f 64/64/64 59/59/59 65/65/65
f 56/56/56 62/62/62 66/66/66
f 55/55/55 56/56/56 66/66/66
f 62/62/62 63/63/63 67/67/67
f 67/67/67 63/63/63 64/64/64
f 62/62/62 67/67/67 66/66/66
f 65/65/65 61/61/61 68/68/68
f 61/61/61 69/69/69 68/68/68
f 68/68/68 69/69/69 70/70/70
f 69/69/69 71/71/71 70/70/70
f 70/70/70 71/71/71 72/72/72
f 71/71/71 73/73/73 72/72/72
f 68/68/68 70/70/70 74/74/74
f 70/70/70 72/72/72 74/74/74
f 65/65/65 68/68/68 75/75/75
f 75/75/75 68/68/68 74/74/74
f 64/64/64 65/65/65 76/76/76
f 76/76/76 65/65/65 75/75/75
f 67/67/67 64/64/64 77/77/77
f 64/64/64 76/76/76 77/77/77
f 66/66/66 67/67/67 78/78/78
f 67/67/67 77/77/77 78/78/78
f 73/73/73 79/79/79 72/72/72
f 73/73/73 80/80/80 79/79/79
f 76/76/76 75/75/75 81/81/81
f 77/77/77 76/76/76 81/81/81
f 82/82/82 66/66/66 78/78/78
f 82/82/82 55/55/55 66/66/66
f 78/78/78 77/77/77 83/83/83
f 83/83/83 77/77/77 81/81/81
f 82/82/82 78/78/78 83/83/83
f 83/83/83 81/81/81 84/84/84
f 72/72/72 79/79/79 85/85/85
f 74/74/74 72/72/72 85/85/85
f 79/79/79 80/80/80 86/86/86
f 79/79/79 86/86/86 85/85/85
f 75/75/75 74/74/74 87/87/87
f 81/81/81 75/75/75 87/87/87
f 88/88/88 55/55/55 82/82/82
f 50/50/50 55/55/55 88/88/88
f 82/82/82 83/83/83 89/89/89
f 83/83/83 84/84/84 89/89/89
f 88/88/88 82/82/82 89/89/89
f 90/90/90 50/50/50 88/88/88
f 46/46/46 50/50/50 90/90/90
f 91/91/91 88/88/88 89/89/89
f 90/90/90 88/88/88 91/91/91
f 92/92/92 46/46/46 90/90/90
f 92/92/92 36/36/36 46/46/46
f 91/91/91 89/89/89 93/93/93
f 89/89/89 84/84/84 93/93/93
f 94/94/94 90/90/90 91/91/91
f 94/94/94 92/92/92 90/90/90
f 94/94/94 91/91/91 93/93/93
f 95/95/95 36/36/36 92/92/92
f 27/27/27 36/36/36 95/95/95
f 27/27/27 95/95/95 26/26/26
f 96/96/96 92/92/92 94/94/94
f 95/95/95 92/92/92 96/96/96
f 96/96/96 94/94/94 93/93/93
f 26/26/26 95/95/95 97/97/97
f 97/97/97 95/95/95 96/96/96
f 26/26/26 97/97/97 25/25/25
f 98/98/98 96/96/96 93/93/93
f 97/97/97 96/96/96 99/99/99
f 99/99/99 96/96/96 98/98/98
f 93/93/93 84/84/84 100/100/100
f 100/100/100 98/98/98 93/93/93
f 100/100/100 101/101/101 98/98/98
f 100/100/100 84/84/84 101/101/101
f 25/25/25 97/97/97 102/102/102
f 97/97/97 99/99/99 102/102/102
f 103/103/103 99/99/99 98/98/98
f 101/101/101 103/103/103 98/98/98
f 104/104/104 102/102/102 99/99/99
f 104/104/104 99/99/99 103/103/103
f 25/25/25 102/102/102 105/105/105
f 105/105/105 102/102/102 104/104/104
f 106/106/106 25/25/25 105/105/105
f 29/29/29 25/25/25 106/106/106
f 107/107/107 106/106/106 105/105/105
f 107/107/107 105/105/105 104/104/104
f 108/108/108 29/29/29 106/106/106
f 108/108/108 106/106/106 107/107/107
f 23/23/23 29/29/29 108/108/108
f 109/109/109 104/104/104 103/103/103
f 109/109/109 103/103/103 101/101/101
f 110/110/110 109/109/109 101/101/101
f 111/111/111 110/110/110 101/101/101
f 84/84/84 111/111/111 101/101/101
f 112/112/112 104/104/104 109/109/109
f 107/107/107 104/104/104 112/112/112
f 110/110/110 112/112/112 109/109/109
f 113/113/113 111/111/111 84/84/84
f 81/81/81 113/113/113 84/84/84
f 113/113/113 81/81/81 87/87/87
f 113/113/113 114/114/114 111/111/111
f 113/113/113 87/87/87 114/114/114
f 114/114/114 110/110/110 111/111/111
f 115/115/115 107/107/107 112/112/112
f 115/115/115 112/112/112 110/110/110
f 87/87/87 116/116/116 114/114/114
f 74/74/74 116/116/116 87/87/87
f 116/116/116 74/74/74 85/85/85
f 116/116/116 117/117/117 114/114/114
f 85/85/85 117/117/117 116/116/116
f 117/117/117 110/110/110 114/114/114
f 85/85/85 118/118/118 117/117/117
f 118/118/118 110/110/110 117/117/117
f 86/86/86 118/118/118 85/85/85
f 118/118/118 119/119/119 110/110/110
f 86/86/86 119/119/119 118/118/118
f 119/119/119 115/115/115 110/110/110
f 120/120/120 107/107/107 115/115/115
f 120/120/120 108/108/108 107/107/107
f 121/121/121 119/119/119 86/86/86
f 80/80/80 121/121/121 86/86/86
f 80/80/80 122/122/122 121/121/121
f 123/123/123 115/115/115 119/119/119
f 123/123/123 120/120/120 115/115/115
f 121/121/121 124/124/124 119/119/119
f 122/122/122 124/124/124 121/121/121
f 124/124/124 123/123/123 119/119/119
f 122/122/122 125/125/125 124/124/124
f 124/124/124 125/125/125 123/123/123
f 125/125/125 120/120/120 123/123/123
f 122/122/122 126/126/126 125/125/125
f 127/127/127 108/108/108 120/120/120
f 125/125/125 127/127/127 120/120/120
f 126/126/126 128/128/128 125/125/125
f 128/128/128 127/127/127 125/125/125
f 126/126/126 12/12/12 128/128/128
f 128/128/128 12/12/12 129/129/129
f 128/128/128 129/129/129 127/127/127
f 12/12/12 11/11/11 129/129/129
f 130/130/130 108/108/108 127/127/127
f 129/129/129 130/130/130 127/127/127
f 11/11/11 130/130/130 129/129/129
f 130/130/130 23/23/23 108/108/108
f 11/11/11 23/23/23 130/130/130
