g eye_V3_L0
v 0.1191885 -0.02188388 -0.024
v 0.1430297 0 -0.024
v 0.1430297 0 0.024
v 0.1191885 -0.02188388 0.024
v 0.07755581 -0.05185576 -0.024
v 0.07755581 -0.05185576 0.024
v 0.03725924 -0.06944773 -0.024
v 0.03725924 -0.06944773 0.024
v 0 -0.07411019 -0.024
v 0 -0.07411019 0.024
v -0.03725924 -0.06944773 -0.024
v -0.03725924 -0.06944773 0.024
v -0.07755581 -0.05185576 -0.024
v -0.07755581 -0.05185576 0.024
v -0.1191885 -0.02188388 -0.024
v -0.1191885 -0.02188388 0.024
v -0.1430297 0 -0.024
v -0.1430297 0 0.024
v -0.18 0 -0.024
v -0.1430297 0 -0.024
v -0.1430297 0 0.024
v -0.18 0 0.024
v -0.135 -0.04130552 -0.024
v -0.18 0 -0.024
v -0.18 0 0.024
v -0.135 -0.04130552 0.024
v -0.09 -0.0737016 -0.024
v -0.09 -0.0737016 0.024
v -0.045 -0.09334691 -0.024
v -0.045 -0.09334691 0.024
v 0 -0.09855465 -0.024
v 0 -0.09855465 0.024
v 0.045 -0.09334691 -0.024
v 0.045 -0.09334691 0.024
v 0.09 -0.0737016 -0.024
v 0.09 -0.0737016 0.024
v 0.135 -0.04130552 -0.024
v 0.135 -0.04130552 0.024
v 0.18 0 -0.024
v 0.18 0 0.024
v 0.1430297 0 -0.024
v 0.18 0 -0.024
v 0.18 0 0.024
v 0.1430297 0 0.024
v 0.135 -0.04130552 0.024
v 0.1645905 -0.006 0.03
v 0.18 0 0.024
v 0.1312052 -0.03664433 0.03
v 0.09 -0.0737016 0.024
v 0.08701339 -0.06845859 0.03
v 0.045 -0.09334691 0.024
v 0.04342039 -0.08748967 0.03
v 0 -0.09855465 0.024
v 0 -0.0925146 0.03
v -0.045 -0.09334691 0.024
v -0.04342039 -0.08748967 0.03
v -0.09 -0.0737016 0.024
v -0.08701339 -0.06845859 0.03
v -0.135 -0.04130552 0.024
v -0.1312052 -0.03664433 0.03
v -0.18 0 0.024
v -0.1645905 -0.006 0.03
v 0.18 0 0.024
v 0.1645905 -0.006 0.03
v 0.1453659 -0.006 0.03
v 0.1430297 0 0.024
v 0.1430297 0 0.024
v 0.1453659 -0.006 0.03
v 0.1229832 -0.02654508 0.03
v 0.1191885 -0.02188388 0.024
v 0.08054242 -0.05709876 0.03
v 0.07755581 -0.05185576 0.024
v 0.0388649 -0.0752936 0.03
v 0.03725924 -0.06944773 0.024
v 0 -0.08015698 0.03
v 0 -0.07411019 0.024
v -0.0388649 -0.0752936 0.03
v -0.03725924 -0.06944773 0.024
v -0.08054242 -0.05709876 0.03
v -0.07755581 -0.05185576 0.024
v -0.1229832 -0.02654508 0.03
v -0.1191885 -0.02188388 0.024
v -0.1453659 -0.006 0.03
v -0.1430297 0 0.024
v -0.1430297 0 0.024
v -0.1453659 -0.006 0.03
v -0.1645905 -0.006 0.03
v -0.18 0 0.024
v 0.1312052 -0.03664433 0.03
v 0.1453659 -0.006 0.03
v 0.1645905 -0.006 0.03
v 0.1229832 -0.02654508 0.03
v 0.08054242 -0.05709876 0.03
v 0.08701339 -0.06845859 0.03
v 0.04342039 -0.08748967 0.03
v 0.0388649 -0.0752936 0.03
v 0 -0.0925146 0.03
v 0 -0.08015698 0.03
v -0.0388649 -0.0752936 0.03
v -0.04342039 -0.08748967 0.03
v -0.08054242 -0.05709876 0.03
v -0.08701339 -0.06845859 0.03
v -0.1312052 -0.03664433 0.03
v -0.1229832 -0.02654508 0.03
v -0.1453659 -0.006 0.03
v -0.1645905 -0.006 0.03
v 0.135 -0.04130552 -0.024
v 0.18 0 -0.024
v 0.1645905 -0.006 -0.03
v 0.1312052 -0.03664433 -0.03
v 0.09 -0.0737016 -0.024
v 0.08701339 -0.06845859 -0.03
v 0.045 -0.09334691 -0.024
v 0.04342039 -0.08748967 -0.03
v 0 -0.09855465 -0.024
v 0 -0.0925146 -0.03
v -0.045 -0.09334691 -0.024
v -0.04342039 -0.08748967 -0.03
v -0.09 -0.0737016 -0.024
v -0.08701339 -0.06845859 -0.03
v -0.135 -0.04130552 -0.024
v -0.1312052 -0.03664433 -0.03
v -0.18 0 -0.024
v -0.1645905 -0.006 -0.03
v 0.18 0 -0.024
v 0.1430297 0 -0.024
v 0.1453659 -0.006 -0.03
v 0.1645905 -0.006 -0.03
v 0.1430297 0 -0.024
v 0.1229832 -0.02654508 -0.03
v 0.1453659 -0.006 -0.03
v 0.1191885 -0.02188388 -0.024
v 0.08054242 -0.05709876 -0.03
v 0.07755581 -0.05185576 -0.024
v 0.0388649 -0.0752936 -0.03
v 0.03725924 -0.06944773 -0.024
v 0 -0.08015698 -0.03
v 0 -0.07411019 -0.024
v -0.0388649 -0.0752936 -0.03
v -0.03725924 -0.06944773 -0.024
v -0.08054242 -0.05709876 -0.03
v -0.07755581 -0.05185576 -0.024
v -0.1229832 -0.02654508 -0.03
v -0.1191885 -0.02188388 -0.024
v -0.1453659 -0.006 -0.03
v -0.1430297 0 -0.024
v -0.1430297 0 -0.024
v -0.18 0 -0.024
v -0.1645905 -0.006 -0.03
v -0.1453659 -0.006 -0.03
v 0.1312052 -0.03664433 -0.03
v 0.1645905 -0.006 -0.03
v 0.1453659 -0.006 -0.03
v 0.1229832 -0.02654508 -0.03
v 0.08054242 -0.05709876 -0.03
v 0.08701339 -0.06845859 -0.03
v 0.04342039 -0.08748967 -0.03
v 0.0388649 -0.0752936 -0.03
v 0 -0.0925146 -0.03
v 0 -0.08015698 -0.03
v -0.0388649 -0.0752936 -0.03
v -0.04342039 -0.08748967 -0.03
v -0.08054242 -0.05709876 -0.03
v -0.08701339 -0.06845859 -0.03
v -0.1312052 -0.03664433 -0.03
v -0.1229832 -0.02654508 -0.03
v -0.1453659 -0.006 -0.03
v -0.1645905 -0.006 -0.03
vt 0.7881593 0.6450047
vt 0.8633416 0.6450047
vt 0.8633416 0.5334932
vt 0.7881593 0.5334932
vt 0.6689835 0.6450047
vt 0.6689835 0.5334932
vt 0.5668362 0.6450047
vt 0.5668362 0.5334932
vt 0.4796022 0.6450047
vt 0.4796022 0.5334932
vt 0.392368 0.6450047
vt 0.392368 0.5334932
vt 0.2902207 0.6450047
vt 0.2902207 0.5334932
vt 0.1710451 0.6450047
vt 0.1710451 0.5334932
vt 0.09586272 0.6450047
vt 0.09586278 0.5334932
vt 0.00997496 0.6450047
vt 0.09586272 0.6450047
vt 0.09586278 0.5334932
vt 0.00997496 0.5334932
vt 0.1518741 0.3988764
vt 0.009968542 0.3988763
vt 0.009968482 0.5103877
vt 0.151874 0.5103878
vt 0.2806888 0.3988764
vt 0.2806888 0.5103879
vt 0.3947588 0.3988765
vt 0.3947586 0.5103879
vt 0.4999985 0.3988765
vt 0.4999985 0.510388
vt 0.6052381 0.3988764
vt 0.6052381 0.510388
vt 0.7193081 0.3988764
vt 0.7193081 0.510388
vt 0.8481232 0.3988763
vt 0.8481232 0.510388
vt 0.9900287 0.3988763
vt 0.9900287 0.5103879
vt 0.8633416 0.6450047
vt 0.9492292 0.6450047
vt 0.9492292 0.5334932
vt 0.8633416 0.5334932
vt 0.8167332 0.2709427
vt 0.8923502 0.3611643
vt 0.9317287 0.376497
vt 0.8070359 0.2828541
vt 0.7017379 0.188156
vt 0.6941057 0.2015543
vt 0.5867425 0.1379533
vt 0.5827059 0.1529212
vt 0.4717471 0.1246452
vt 0.4717471 0.1400802
vt 0.3567517 0.1379533
vt 0.3607884 0.1529212
vt 0.2417563 0.188156
vt 0.2493885 0.2015543
vt 0.1267609 0.2709427
vt 0.1364583 0.2828541
vt 0.0117655 0.376497
vt 0.05114387 0.3611643
vt 0.9317287 0.376497
vt 0.8923502 0.3611643
vt 0.8432229 0.3611643
vt 0.8372528 0.376497
vt 0.8372528 0.376497
vt 0.8432229 0.3611643
vt 0.786025 0.3086623
vt 0.7763276 0.3205738
vt 0.6775694 0.2305838
vt 0.6699374 0.2439821
vt 0.5710645 0.1840877
vt 0.5669613 0.1990266
vt 0.4717471 0.1716596
vt 0.4717471 0.1871119
vt 0.3724296 0.1840877
vt 0.3765328 0.1990266
vt 0.2659247 0.2305838
vt 0.2735568 0.2439821
vt 0.1574692 0.3086623
vt 0.1671665 0.3205738
vt 0.1002713 0.3611643
vt 0.1062413 0.376497
vt 0.1062413 0.376497
vt 0.1002713 0.3611643
vt 0.05114387 0.3611643
vt 0.0117655 0.376497
vt 0.8070359 0.2828541
vt 0.8432229 0.3611643
vt 0.8923502 0.3611643
vt 0.786025 0.3086623
vt 0.6775694 0.2305838
vt 0.6941057 0.2015543
vt 0.5827059 0.1529212
vt 0.5710645 0.1840877
vt 0.4717471 0.1400802
vt 0.4717471 0.1716596
vt 0.3724296 0.1840877
vt 0.3607884 0.1529212
vt 0.2659247 0.2305838
vt 0.2493885 0.2015543
vt 0.1364583 0.2828541
vt 0.1574692 0.3086623
vt 0.1002713 0.3611643
vt 0.05114387 0.3611643
vt 0.1267614 0.1562681
vt 0.01176602 0.2618224
vt 0.05114448 0.2464897
vt 0.1364588 0.1681795
vt 0.2417568 0.07348137
vt 0.2493889 0.08687961
vt 0.3567522 0.02327869
vt 0.3607888 0.03824662
vt 0.4717476 0.009970561
vt 0.4717476 0.02540562
vt 0.586743 0.02327869
vt 0.5827063 0.03824662
vt 0.7017384 0.07348137
vt 0.6941062 0.08687961
vt 0.8167338 0.1562681
vt 0.8070364 0.1681795
vt 0.9317292 0.2618224
vt 0.8923508 0.2464897
vt 0.01176602 0.2618224
vt 0.1062419 0.2618224
vt 0.1002718 0.2464897
vt 0.05114448 0.2464897
vt 0.1062419 0.2618224
vt 0.1574697 0.1939877
vt 0.1002718 0.2464897
vt 0.1671671 0.2058991
vt 0.2659252 0.1159092
vt 0.2735573 0.1293074
vt 0.3724301 0.06941309
vt 0.3765333 0.0843519
vt 0.4717476 0.05698496
vt 0.4717476 0.07243723
vt 0.5710651 0.06941309
vt 0.5669619 0.0843519
vt 0.67757 0.1159092
vt 0.6699378 0.1293074
vt 0.7860255 0.1939877
vt 0.7763281 0.2058991
vt 0.8432234 0.2464897
vt 0.8372533 0.2618224
vt 0.8372533 0.2618224
vt 0.9317292 0.2618224
vt 0.8923508 0.2464897
vt 0.8432234 0.2464897
vt 0.1364588 0.1681795
vt 0.05114448 0.2464897
vt 0.1002718 0.2464897
vt 0.1574697 0.1939877
vt 0.2659252 0.1159092
vt 0.2493889 0.08687961
vt 0.3607888 0.03824662
vt 0.3724301 0.06941309
vt 0.4717476 0.02540562
vt 0.4717476 0.05698496
vt 0.5710651 0.06941309
vt 0.5827063 0.03824662
vt 0.67757 0.1159092
vt 0.6941062 0.08687961
vt 0.8070364 0.1681795
vt 0.7860255 0.1939877
vt 0.8432234 0.2464897
vt 0.8923508 0.2464897
vn -0.6313489 0.7754989 0
vn -0.6762184 0.7367013 0
vn -0.6762184 0.7367013 0
vn -0.6313489 0.7754989 0
vn -0.4949649 0.8689131 0
vn -0.4949649 0.8689131 0
vn -0.2648572 0.9642876 0
vn -0.2648572 0.9642876 0
vn 0 1 0
vn 0 1 0
vn 0.2648572 0.9642876 0
vn 0.2648572 0.9642876 0
vn 0.4949649 0.8689131 0
vn 0.4949649 0.8689131 0
vn 0.6313489 0.7754989 0
vn 0.6313489 0.7754989 0
vn 0.6762184 0.7367013 0
vn 0.6762184 0.7367013 0
vn 0 1 0
vn 0 1 0
vn 0 1 0
vn 0 1 0
vn -0.6313489 -0.7754989 0
vn -0.6762184 -0.7367012 0
vn -0.6762184 -0.7367012 0
vn -0.6313489 -0.7754989 0
vn -0.4949649 -0.8689131 0
vn -0.4949649 -0.8689131 0
vn -0.2603833 -0.9655054 0
vn -0.2603833 -0.9655054 0
vn 0 -1 0
vn 0 -1 0
vn 0.2603833 -0.9655054 0
vn 0.2603833 -0.9655054 0
vn 0.4949649 -0.8689131 0
vn 0.4949649 -0.8689131 0
vn 0.6313489 -0.7754989 0
vn 0.6313489 -0.7754989 0
vn 0.6762184 -0.7367012 0
vn 0.6762184 -0.7367012 0
vn 0 1 0
vn 0 1 0
vn 0 1 0
vn 0 1 0
vn 0.4460378 -0.5478774 0.7077292
vn 0.4781585 -0.5209263 0.7071069
vn 0.4781585 -0.5209263 0.7071069
vn 0.4460378 -0.5478774 0.7077293
vn 0.3490034 -0.6126769 0.7091006
vn 0.3490034 -0.6126769 0.7091005
vn 0.1831013 -0.6789424 0.710993
vn 0.1831013 -0.6789424 0.7109931
vn 0 -0.7047512 0.7094546
vn 0 -0.7047512 0.7094547
vn -0.1831013 -0.6789424 0.710993
vn -0.1831013 -0.6789424 0.7109931
vn -0.3490034 -0.6126769 0.7091006
vn -0.3490034 -0.6126769 0.7091005
vn -0.4460378 -0.5478774 0.7077293
vn -0.4460378 -0.5478774 0.7077293
vn -0.4781586 -0.5209262 0.7071069
vn -0.4781586 -0.5209262 0.7071069
vn 0 0.7071069 0.7071066
vn 0 0.7071069 0.7071066
vn 0 0.7071069 0.7071066
vn 0 0.7071069 0.7071066
vn -0.4781586 0.5209265 0.7071066
vn -0.4781586 0.5209265 0.7071066
vn -0.4460379 0.5478776 0.707729
vn -0.4460379 0.5478775 0.7077291
vn -0.3490035 0.6126771 0.7091004
vn -0.3490034 0.612677 0.7091004
vn -0.1863115 0.6783196 0.7107534
vn -0.1863114 0.6783196 0.7107536
vn 0 0.7043548 0.7098481
vn 0 0.7043548 0.7098481
vn 0.1863115 0.6783196 0.7107534
vn 0.1863115 0.6783197 0.7107534
vn 0.3490034 0.612677 0.7091005
vn 0.3490033 0.6126769 0.7091005
vn 0.4460377 0.5478773 0.7077294
vn 0.4460377 0.5478773 0.7077294
vn 0.4781583 0.5209262 0.7071071
vn 0.4781583 0.5209262 0.7071071
vn 0 0.7071068 0.7071067
vn 0 0.7071068 0.7071067
vn 0 0.7071068 0.7071067
vn 0 0.7071068 0.7071067
vn 0 0 1
vn 0 0 1
vn 0 0 1
vn 0 0 1
vn 0 0 1
vn 0 0 1
vn 0 0 1
vn 0 0 1
vn 0 0 1
vn 0 0 1
vn 0 0 1
vn 0 0 1
vn 0 0 1
vn 0 0 1
vn 0 0 1
vn 0 0 1
vn 0 0 1
vn 0 0 1
vn 0.4460379 -0.5478774 -0.7077292
vn 0.4781587 -0.5209264 -0.7071068
vn 0.4781587 -0.5209264 -0.7071068
vn 0.4460378 -0.5478774 -0.7077292
vn 0.3490033 -0.6126769 -0.7091005
vn 0.3490034 -0.6126769 -0.7091005
vn 0.1831012 -0.6789424 -0.7109931
vn 0.1831012 -0.6789424 -0.7109931
vn 0 -0.7047511 -0.7094547
vn 0 -0.7047511 -0.7094547
vn -0.1831012 -0.6789424 -0.710993
vn -0.1831012 -0.6789424 -0.7109931
vn -0.3490034 -0.6126768 -0.7091006
vn -0.3490034 -0.6126768 -0.7091006
vn -0.4460378 -0.5478773 -0.7077294
vn -0.4460378 -0.5478773 -0.7077293
vn -0.4781586 -0.5209263 -0.7071069
vn -0.4781586 -0.5209263 -0.7071069
vn 0 0.7071068 -0.7071066
vn 0 0.7071068 -0.7071066
vn 0 0.7071068 -0.7071066
vn 0 0.7071068 -0.7071066
vn -0.4781586 0.5209265 -0.7071066
vn -0.4460379 0.5478774 -0.7077291
vn -0.4781586 0.5209265 -0.7071066
vn -0.4460379 0.5478775 -0.7077291
vn -0.3490034 0.6126769 -0.7091005
vn -0.3490034 0.612677 -0.7091005
vn -0.1863114 0.6783195 -0.7107535
vn -0.1863115 0.6783195 -0.7107535
vn 0 0.7043548 -0.7098481
vn 0 0.7043548 -0.7098482
vn 0.1863115 0.6783196 -0.7107534
vn 0.1863115 0.6783196 -0.7107534
vn 0.3490033 0.612677 -0.7091005
vn 0.3490033 0.612677 -0.7091005
vn 0.4460377 0.5478774 -0.7077293
vn 0.4460378 0.5478774 -0.7077293
vn 0.4781585 0.5209263 -0.7071069
vn 0.4781585 0.5209263 -0.7071069
vn 0 0.7071068 -0.7071067
vn 0 0.7071068 -0.7071067
vn 0 0.7071068 -0.7071067
vn 0 0.7071068 -0.7071067
vn 0 0 -1
vn 0 0 -1
vn 0 0 -1
vn 0 0 -1
vn 0 0 -1
vn 0 0 -1
vn 0 0 -1
vn 0 0 -1
vn 0 0 -1
vn 0 0 -1
vn 0 0 -1
vn 0 0 -1
vn 0 0 -1
vn 0 0 -1
vn 0 0 -1
vn 0 0 -1
vn 0 0 -1
vn 0 0 -1
g eye_V3_L0_0
f 3/3/3 2/2/2 1/1/1
f 4/4/4 3/3/3 1/1/1
f 4/4/4 1/1/1 5/5/5
f 6/6/6 4/4/4 5/5/5
f 6/6/6 5/5/5 7/7/7
f 8/8/8 6/6/6 7/7/7
f 8/8/8 7/7/7 9/9/9
f 10/10/10 8/8/8 9/9/9
f 10/10/10 9/9/9 11/11/11
f 12/12/12 10/10/10 11/11/11
f 12/12/12 11/11/11 13/13/13
f 14/14/14 12/12/12 13/13/13
f 14/14/14 13/13/13 15/15/15
f 16/16/16 14/14/14 15/15/15
f 16/16/16 15/15/15 17/17/17
f 18/18/18 16/16/16 17/17/17
f 21/21/21 20/20/20 19/19/19
f 22/22/22 21/21/21 19/19/19
f 25/25/25 24/24/24 23/23/23
f 26/26/26 25/25/25 23/23/23
f 26/26/26 23/23/23 27/27/27
f 28/28/28 26/26/26 27/27/27
f 28/28/28 27/27/27 29/29/29
f 30/30/30 28/28/28 29/29/29
f 30/30/30 29/29/29 31/31/31
f 32/32/32 30/30/30 31/31/31
f 32/32/32 31/31/31 33/33/33
f 34/34/34 32/32/32 33/33/33
f 34/34/34 33/33/33 35/35/35
f 36/36/36 34/34/34 35/35/35
f 36/36/36 35/35/35 37/37/37
f 38/38/38 36/36/36 37/37/37
f 38/38/38 37/37/37 39/39/39
f 40/40/40 38/38/38 39/39/39
f 43/43/43 42/42/42 41/41/41
f 44/44/44 43/43/43 41/41/41
f 47/47/47 46/46/46 45/45/45
f 46/46/46 48/48/48 45/45/45
f 45/45/45 48/48/48 49/49/49
f 48/48/48 50/50/50 49/49/49
f 49/49/49 50/50/50 51/51/51
f 50/50/50 52/52/52 51/51/51
f 51/51/51 52/52/52 53/53/53
f 52/52/52 54/54/54 53/53/53
f 53/53/53 54/54/54 55/55/55
f 54/54/54 56/56/56 55/55/55
f 55/55/55 56/56/56 57/57/57
f 56/56/56 58/58/58 57/57/57
f 57/57/57 58/58/58 59/59/59
f 58/58/58 60/60/60 59/59/59
f 59/59/59 60/60/60 61/61/61
f 60/60/60 62/62/62 61/61/61
f 65/65/65 64/64/64 63/63/63
f 66/66/66 65/65/65 63/63/63
f 69/69/69 68/68/68 67/67/67
f 70/70/70 69/69/69 67/67/67
f 71/71/71 69/69/69 70/70/70
f 72/72/72 71/71/71 70/70/70
f 73/73/73 71/71/71 72/72/72
f 74/74/74 73/73/73 72/72/72
f 75/75/75 73/73/73 74/74/74
f 76/76/76 75/75/75 74/74/74
f 77/77/77 75/75/75 76/76/76
f 78/78/78 77/77/77 76/76/76
f 79/79/79 77/77/77 78/78/78
f 80/80/80 79/79/79 78/78/78
f 81/81/81 79/79/79 80/80/80
f 82/82/82 81/81/81 80/80/80
f 83/83/83 81/81/81 82/82/82
f 84/84/84 83/83/83 82/82/82
f 87/87/87 86/86/86 85/85/85
f 88/88/88 87/87/87 85/85/85
f 91/91/91 90/90/90 89/89/89
f 90/90/90 92/92/92 89/89/89
f 92/92/92 93/93/93 89/89/89
f 93/93/93 94/94/94 89/89/89
f 95/95/95 94/94/94 93/93/93
f 96/96/96 95/95/95 93/93/93
f 97/97/97 95/95/95 96/96/96
f 98/98/98 97/97/97 96/96/96
f 97/97/97 98/98/98 99/99/99
f 100/100/100 97/97/97 99/99/99
f 100/100/100 99/99/99 101/101/101
f 102/102/102 100/100/100 101/101/101
f 103/103/103 102/102/102 101/101/101
f 104/104/104 103/103/103 101/101/101
f 103/103/103 104/104/104 105/105/105
f 106/106/106 103/103/103 105/105/105
f 109/109/109 108/108/108 107/107/107
f 110/110/110 109/109/109 107/107/107
f 110/110/110 107/107/107 111/111/111
f 112/112/112 110/110/110 111/111/111
f 112/112/112 111/111/111 113/113/113
f 114/114/114 112/112/112 113/113/113
f 114/114/114 113/113/113 115/115/115
f 116/116/116 114/114/114 115/115/115
f 116/116/116 115/115/115 117/117/117
f 118/118/118 116/116/116 117/117/117
f 118/118/118 117/117/117 119/119/119
f 120/120/120 118/118/118 119/119/119
f 120/120/120 119/119/119 121/121/121
f 122/122/122 120/120/120 121/121/121
f 122/122/122 121/121/121 123/123/123
f 124/124/124 122/122/122 123/123/123
f 127/127/127 126/126/126 125/125/125
f 128/128/128 127/127/127 125/125/125
f 131/131/131 130/130/130 129/129/129
f 130/130/130 132/132/132 129/129/129
f 130/130/130 133/133/133 132/132/132
f 133/133/133 134/134/134 132/132/132
f 133/133/133 135/135/135 134/134/134
f 135/135/135 136/136/136 134/134/134
f 135/135/135 137/137/137 136/136/136
f 137/137/137 138/138/138 136/136/136
f 137/137/137 139/139/139 138/138/138
f 139/139/139 140/140/140 138/138/138
f 139/139/139 141/141/141 140/140/140
f 141/141/141 142/142/142 140/140/140
f 141/141/141 143/143/143 142/142/142
f 143/143/143 144/144/144 142/142/142
f 143/143/143 145/145/145 144/144/144
f 145/145/145 146/146/146 144/144/144
f 149/149/149 148/148/148 147/147/147
f 150/150/150 149/149/149 147/147/147
f 153/153/153 152/152/152 151/151/151
f 154/154/154 153/153/153 151/151/151
f 155/155/155 154/154/154 151/151/151
f 156/156/156 155/155/155 151/151/151
f 156/156/156 157/157/157 155/155/155
f 157/157/157 158/158/158 155/155/155
f 157/157/157 159/159/159 158/158/158
f 159/159/159 160/160/160 158/158/158
f 160/160/160 159/159/159 161/161/161
f 159/159/159 162/162/162 161/161/161
f 161/161/161 162/162/162 163/163/163
f 162/162/162 164/164/164 163/163/163
f 164/164/164 165/165/165 163/163/163
f 165/165/165 166/166/166 163/163/163
f 166/166/166 165/165/165 167/167/167
f 165/165/165 168/168/168 167/167/167
