g Fence
v 0.151799 1.500825 0.169826
v -0.04497548 1.587311 0.09853624
v 0.09266791 1.500388 -0.1422475
v 0.003847132 -0.007471103 0.2149115
v -0.2197968 1.509166 0.2456677
v 0.1121368 1.502079 0.258745
v 0.1448261 -0.01178083 -0.02359174
v 0.151799 1.500825 0.169826
v 0.09266791 1.500388 -0.1422475
v -0.1894171 -0.00518455 -0.04196986
v -0.249356 1.508104 0.01468566
v -0.1513484 -0.004320343 0.1819036
v -0.2197968 1.509166 0.2456677
v 0.003847132 -0.007471103 0.2149115
v -0.1513484 -0.004320343 0.1819036
v -0.249356 1.508104 0.01468566
v -0.1894171 -0.00518455 -0.04196986
v -0.2392657 1.50669 -0.1553249
v 0.151799 1.500825 0.169826
v 0.1448261 -0.01178083 -0.02359174
v 0.1226765 -0.01012077 0.1964651
v -0.249356 1.508104 0.01468566
v -0.04497548 1.587311 0.09853624
v -0.2197968 1.509166 0.2456677
v -0.2197968 1.509166 0.2456677
v -0.04497548 1.587311 0.09853624
v 0.151799 1.500825 0.169826
v 0.09266791 1.500388 -0.1422475
v -0.249356 1.508104 0.01468566
v -0.2392657 1.50669 -0.1553249
v 0.09266791 1.500388 -0.1422475
v -0.04497548 1.587311 0.09853624
v -0.249356 1.508104 0.01468566
v 0.003847132 -0.007471103 0.2149115
v 0.1121368 1.502079 0.258745
v 0.1226765 -0.01012077 0.1964651
v 0.1448261 -0.01178083 -0.02359174
v 0.09266791 1.500388 -0.1422475
v 0.1009738 -0.01157705 -0.1345708
v -0.1513484 -0.004320343 0.1819036
v -0.249356 1.508104 0.01468566
v -0.2197968 1.509166 0.2456677
v -0.2392657 1.50669 -0.1553249
v -0.1894171 -0.00518455 -0.04196986
v -0.173051 -0.006313384 -0.1491323
v 0.151799 1.500825 0.169826
v 0.1226765 -0.01012077 0.1964651
v 0.1121368 1.502079 0.258745
v -0.2197968 1.509166 0.2456677
v 0.151799 1.500825 0.169826
v 0.1121368 1.502079 0.258745
v 0.1009738 -0.01157705 -0.1345708
v 0.09266791 1.500388 -0.1422475
v -0.2392657 1.50669 -0.1553249
v -0.173051 -0.006313384 -0.1491323
v -0.1894171 -0.00518455 -0.04196986
v 0.1009738 -0.01157705 -0.1345708
v -0.173051 -0.006313384 -0.1491323
v -0.1513484 -0.004320343 0.1819036
v 0.003847132 -0.007471103 0.2149115
v 0.1448261 -0.01178083 -0.02359174
v 0.1226765 -0.01012077 0.1964651
v 2.57189 0.7214389 0.0420402
v 0.9162592 0.656368 0.03317001
v 0.9165183 0.6568543 -0.01229316
v 2.57215 0.7226084 -0.00335222
v 2.572536 0.6712463 0.04086656
v 0.9142483 0.6059746 0.03250641
v 0.9162592 0.656368 0.03317001
v 2.57189 0.7214389 0.0420402
v 2.5728 0.6723436 -0.004691579
v 0.9145167 0.606526 -0.01280442
v 0.9142483 0.6059746 0.03250641
v 2.572536 0.6712463 0.04086656
v 2.57215 0.7226084 -0.00335222
v 0.9165183 0.6568543 -0.01229316
v 0.9145167 0.606526 -0.01280442
v 2.5728 0.6723436 -0.004691579
v 0.9162592 0.656368 0.03317001
v 0.1472622 0.7617373 0.03078981
v 0.1474947 0.7619209 -0.01421998
v 0.9165183 0.6568543 -0.01229316
v 0.9142483 0.6059746 0.03250641
v 0.1425651 0.7112908 0.03062292
v 0.1472622 0.7617373 0.03078981
v 0.9162592 0.656368 0.03317001
v 0.9145167 0.606526 -0.01280442
v 0.1428256 0.7116757 -0.01470378
v 0.1425651 0.7112908 0.03062292
v 0.9142483 0.6059746 0.03250641
v 0.9165183 0.6568543 -0.01229316
v 0.1474947 0.7619209 -0.01421998
v 0.1428256 0.7116757 -0.01470378
v 0.9145167 0.606526 -0.01280442
v 2.572506 1.270027 0.05698692
v 0.8573644 1.281772 0.04069688
v 0.8578113 1.28222 -0.005304445
v 2.572925 1.271251 0.01113392
v 2.571766 1.220256 0.05576117
v 0.8573644 1.281772 0.04069688
v 2.572506 1.270027 0.05698692
v 0.8557138 1.231858 0.04004642
v 0.1460813 1.330096 0.03269716
v 0.1435091 1.280047 0.03250739
v 2.572185 1.221364 0.009803955
v 0.8561597 1.232371 -0.005743429
v 0.8557138 1.231858 0.04004642
v 2.571766 1.220256 0.05576117
v 2.572925 1.271251 0.01113392
v 0.8561597 1.232371 -0.005743429
v 2.572185 1.221364 0.009803955
v 0.8578113 1.28222 -0.005304445
v 0.1439927 1.280461 -0.01346045
v 0.1465433 1.33022 -0.01302746
v 0.8573644 1.281772 0.04069688
v 0.1460813 1.330096 0.03269716
v 0.1465433 1.33022 -0.01302746
v 0.8578113 1.28222 -0.005304445
v 0.8561597 1.232371 -0.005743429
v 0.1439927 1.280461 -0.01346045
v 0.1435091 1.280047 0.03250739
v 0.8557138 1.231858 0.04004642
v 2.57065 1.217014 0.0553662
v 1.7574 1.157006 0.04543068
v 1.757815 1.158015 -0.0004111583
v 2.57109 1.218244 0.009898399
v 2.573123 1.167059 0.05428113
v 1.7574 1.157006 0.04543068
v 2.57065 1.217014 0.0553662
v 1.75857 1.107023 0.04427649
v 0.1451402 1.17899 0.03233036
v 0.1450014 1.128998 0.03217924
v 2.573584 1.168045 0.008583729
v 1.758984 1.107981 -0.001378129
v 1.75857 1.107023 0.04427649
v 2.573123 1.167059 0.05428113
v 2.57109 1.218244 0.009898399
v 1.758984 1.107981 -0.001378129
v 2.573584 1.168045 0.008583729
v 1.757815 1.158015 -0.0004111583
v 0.145375 1.129256 -0.01378147
v 0.1455117 1.179134 -0.01350552
v 1.7574 1.157006 0.04543068
v 0.1451402 1.17899 0.03233036
v 0.1455117 1.179134 -0.01350552
v 1.757815 1.158015 -0.0004111583
v 1.758984 1.107981 -0.001378129
v 0.145375 1.129256 -0.01378147
v 0.1450014 1.128998 0.03217924
v 1.75857 1.107023 0.04427649
v 2.570153 0.5157153 0.03639395
v 1.939318 0.4466535 0.03034582
v 1.939558 0.4477325 -0.01534133
v 2.570493 0.5169182 -0.008702758
v 2.573704 0.4655701 0.03539837
v 1.939318 0.4466535 0.03034582
v 2.570153 0.5157153 0.03639395
v 1.940973 0.3965625 0.02912377
v 0.1453019 0.4761374 0.03040409
v 0.1450776 0.4261946 0.03025245
v 2.57408 0.4664936 -0.01003772
v 1.941221 0.3975754 -0.01640012
v 1.940973 0.3965625 0.02912377
v 2.573704 0.4655701 0.03539837
v 2.570493 0.5169182 -0.008702758
v 1.941221 0.3975754 -0.01640012
v 2.57408 0.4664936 -0.01003772
v 1.939558 0.4477325 -0.01534133
v 0.1452127 0.4264438 -0.01574816
v 0.1454365 0.4763594 -0.01540494
v 1.939318 0.4466535 0.03034582
v 0.1453019 0.4761374 0.03040409
v 0.1454365 0.4763594 -0.01540494
v 1.939558 0.4477325 -0.01534133
v 1.941221 0.3975754 -0.01640012
v 0.1452127 0.4264438 -0.01574816
v 0.1450776 0.4261946 0.03025245
v 1.940973 0.3965625 0.02912377
vt 0.05351986 0.829135
vt 0.0534514 0.8413368
vt 0.06857596 0.8372727
vt 0.759544 0.4278596
vt 0.6783277 0.4126892
vt 0.6780078 0.4305898
vt 0.8401991 0.3589416
vt 0.9217176 0.3692512
vt 0.9216941 0.3521366
vt 0.4378758 0.6340169
vt 0.5194995 0.6315494
vt 0.4379222 0.6217808
vt 0.5204708 0.7770113
vt 0.4378758 0.7749509
vt 0.4390168 0.7834255
vt 0.8634315 0.6472796
vt 0.9450927 0.6472432
vt 0.8638674 0.638113
vt 0.5797622 0.5331625
vt 0.4982462 0.5228307
vt 0.4983356 0.5347479
vt 0.0762435 0.8879064
vt 0.07047959 0.8766512
vt 0.06369688 0.8877555
vt 0.149013 0.9371943
vt 0.1383136 0.9297891
vt 0.1285727 0.937138
vt 0.973027 0.01014348
vt 0.9933079 0.01008734
vt 0.9889703 0.002
vt 0.1522412 0.7200823
vt 0.1400725 0.7102238
vt 0.1319611 0.7199249
vt 0.7887387 0.7154212
vt 0.8701414 0.7100147
vt 0.7885959 0.7089416
vt 0.5981432 0.7875215
vt 0.5164517 0.7913006
vt 0.59788 0.7939459
vt 0.620533 0.4672273
vt 0.7021293 0.4768358
vt 0.7021865 0.4642883
vt 0.9203257 0.7488228
vt 0.8387829 0.7431889
vt 0.838722 0.74903
vt 0.519164 0.8628554
vt 0.4378758 0.8678458
vt 0.5194275 0.8680955
vt 0.9951916 0.563097
vt 0.9747515 0.5632004
vt 0.9778259 0.567452
vt 0.5203441 0.5438593
vt 0.4389169 0.5411283
vt 0.4378758 0.559001
vt 0.5194801 0.5586218
vt 0.07043606 0.729019
vt 0.07612001 0.7444313
vt 0.0762441 0.729643
vt 0.05847647 0.7316058
vt 0.05707344 0.740041
vt 0.07025156 0.7470587
vt 0.05835257 0.7463946
vt 0.7364506 0.7550708
vt 0.8257279 0.7542274
vt 0.8257031 0.7517777
vt 0.7364243 0.7526243
vt 0.6340417 0.8226143
vt 0.7234656 0.8227912
vt 0.7232556 0.8200817
vt 0.6339751 0.8199096
vt 0.7279632 0.7801017
vt 0.8173467 0.7773916
vt 0.8172763 0.7749509
vt 0.7278932 0.7776471
vt 0.8107743 0.5296335
vt 0.7215611 0.5331776
vt 0.7214531 0.5358895
vt 0.810809 0.5323429
vt 0.664835 0.8746409
vt 0.7066514 0.8754148
vt 0.7066927 0.8729898
vt 0.6648775 0.8721914
vt 0.4798974 0.9939144
vt 0.4379385 0.9947471
vt 0.4378758 0.9974763
vt 0.4796911 0.9966241
vt 0.9948292 0.5740446
vt 0.9528935 0.5724689
vt 0.9527966 0.5749093
vt 0.9947333 0.5764844
vt 0.8948359 0.9496995
vt 0.9366531 0.9489728
vt 0.9364889 0.9462588
vt 0.8945289 0.947003
vt 0.7315829 0.5935695
vt 0.824006 0.5932536
vt 0.8239972 0.5907747
vt 0.7315758 0.5910978
vt 0.6815009 0.3409433
vt 0.773942 0.3412523
vt 0.6815656 0.3382611
vt 0.7739258 0.3439435
vt 0.8123435 0.3401547
vt 0.8123764 0.3428547
vt 0.2691488 0.3913217
vt 0.3615879 0.3889225
vt 0.3615253 0.3864557
vt 0.2690843 0.3888455
vt 0.8608621 0.5976978
vt 0.7684943 0.6032475
vt 0.860922 0.6003864
vt 0.7684831 0.60056
vt 0.7300476 0.602093
vt 0.7300851 0.5994085
vt 0.8581137 0.9789031
vt 0.8965274 0.9794276
vt 0.8965643 0.9769641
vt 0.858153 0.9764245
vt 0.04044359 0.9937636
vt 0.002 0.994977
vt 0.002080404 0.997453
vt 0.04052606 0.9962298
vt 0.8071468 0.8309485
vt 0.851077 0.8319821
vt 0.8511389 0.8295121
vt 0.8072059 0.8284982
vt 0.5235955 0.6244733
vt 0.5675531 0.6250151
vt 0.5237283 0.6217808
vt 0.5674908 0.6277092
vt 0.6544315 0.623826
vt 0.6544392 0.6265193
vt 0.6533038 0.8542655
vt 0.6093014 0.8553033
vt 0.6093634 0.8577634
vt 0.6533632 0.8567279
vt 0.8502534 0.5516466
vt 0.8064893 0.5575897
vt 0.850387 0.5543525
vt 0.8064268 0.5548931
vt 0.7195382 0.5564374
vt 0.7195457 0.5537501
vt 0.9611213 0.7179419
vt 0.8742374 0.7188584
vt 0.8742633 0.721328
vt 0.9611489 0.7204124
vt 0.5235234 0.8653151
vt 0.6104568 0.867393
vt 0.610517 0.8649171
vt 0.523585 0.8628554
vt 0.6971858 0.8456756
vt 0.663011 0.8468646
vt 0.6630923 0.8493258
vt 0.6972725 0.8481051
vt 0.7195382 0.543831
vt 0.7537233 0.5448506
vt 0.7197292 0.5411283
vt 0.7536346 0.5475506
vt 0.8503918 0.5432463
vt 0.850404 0.5459369
vt 0.9109054 0.9712487
vt 0.9451881 0.9700516
vt 0.9450971 0.9675997
vt 0.910821 0.9688013
vt 0.5583834 0.3382611
vt 0.524473 0.3446938
vt 0.558576 0.3409793
vt 0.5243838 0.3419905
vt 0.4276987 0.34312
vt 0.4277109 0.3404306
vt 0.5245668 0.7774123
vt 0.6211941 0.7806538
vt 0.6212699 0.7781867
vt 0.5246372 0.7749509
vt 0.7246311 0.6987851
vt 0.6278696 0.6965233
vt 0.6278037 0.699001
vt 0.7245604 0.7012376
vn 0.4257467 0.9011255 -0.0819305
vn 0.4257467 0.9011255 -0.0819305
vn 0.4257467 0.9011255 -0.0819305
vn -0.03991062 -0.02614135 0.9988612
vn -0.03991063 -0.02614135 0.9988612
vn -0.03991063 -0.02614135 0.9988612
vn 0.9823309 0.0192756 -0.186157
vn 0.9823309 0.0192756 -0.186157
vn 0.9823309 0.0192756 -0.186157
vn -0.9848082 -0.04528274 0.1676375
vn -0.9848082 -0.04528274 0.1676375
vn -0.9848082 -0.04528273 0.1676375
vn -0.208749 -0.0505881 0.97666
vn -0.208749 -0.0505881 0.97666
vn -0.208749 -0.0505881 0.97666
vn -0.9975667 -0.03730695 -0.05889623
vn -0.9975667 -0.03730695 -0.05889623
vn -0.9975667 -0.03730695 -0.05889623
vn 0.9948087 -0.01740655 0.1002626
vn 0.9948087 -0.01740655 0.1002626
vn 0.9948087 -0.01740656 0.1002626
vn -0.3766349 0.9253189 0.04394503
vn -0.3766349 0.9253189 0.04394503
vn -0.3766349 0.9253189 0.04394503
vn 0.137769 0.797557 0.5873011
vn 0.137769 0.797557 0.587301
vn 0.137769 0.7975569 0.5873011
vn 0.01926459 0.9997887 -0.007170961
vn 0.01926458 0.9997887 -0.007170961
vn 0.01926459 0.9997887 -0.007170961
vn -0.1727683 0.8907706 -0.4203318
vn -0.1727683 0.8907706 -0.4203318
vn -0.1727683 0.8907706 -0.4203318
vn 0.152414 -0.03960878 0.9875228
vn 0.152414 -0.03960877 0.9875228
vn 0.152414 -0.03960878 0.9875228
vn 0.9300244 0.003243221 -0.3674836
vn 0.9300244 0.003243221 -0.3674836
vn 0.9300244 0.003243221 -0.3674836
vn -0.9906335 -0.05015281 0.1270036
vn -0.9906335 -0.05015281 0.1270036
vn -0.9906335 -0.05015281 0.1270036
vn -0.9876565 -0.04383898 -0.1503753
vn -0.9876565 -0.04383898 -0.1503753
vn -0.9876565 -0.04383898 -0.1503753
vn 0.9131629 -0.01041673 0.4074616
vn 0.9131629 -0.01041673 0.4074616
vn 0.9131629 -0.01041673 0.4074616
vn 0.02152156 0.9997582 -0.004505938
vn 0.02152156 0.9997582 -0.004505938
vn 0.02152156 0.9997582 -0.004505938
vn 0.03927431 -0.004857603 -0.9992167
vn 0.03927431 -0.004857604 -0.9992167
vn 0.0392743 -0.004857603 -0.9992167
vn 0.05303074 -0.001766278 -0.9985912
vn -0.01960501 -0.9997794 0.007537408
vn -0.02152281 -0.9997517 0.005764205
vn -0.01960501 -0.9997794 0.007537407
vn -0.02152281 -0.9997517 0.005764205
vn -0.02152281 -0.9997517 0.005764205
vn -0.02145712 -0.9997553 0.005382193
vn -0.02145712 -0.9997553 0.005382193
vn -0.03956849 0.9990551 0.01798213
vn -0.03956849 0.9990551 0.01798213
vn -0.03956849 0.9990551 0.01798213
vn -0.03956849 0.9990551 0.01798213
vn -0.00448258 -0.01820127 0.9998243
vn -0.004482581 -0.01820127 0.9998243
vn -0.00448258 -0.01820127 0.9998243
vn -0.00448258 -0.01820127 0.9998243
vn 0.03957713 -0.9990563 -0.01789441
vn 0.03957714 -0.9990563 -0.01789441
vn 0.03957714 -0.9990563 -0.01789441
vn 0.03957714 -0.9990563 -0.01789441
vn 0.004417268 0.01833448 -0.9998222
vn 0.004417269 0.01833448 -0.9998222
vn 0.004417269 0.01833448 -0.9998222
vn 0.004417269 0.01833448 -0.9998222
vn 0.135533 0.9907399 0.008072162
vn 0.135533 0.9907399 0.008072162
vn 0.135533 0.9907399 0.008072161
vn 0.135533 0.9907399 0.008072162
vn -0.003858367 -0.007978623 0.9999608
vn -0.003858367 -0.007978624 0.9999608
vn -0.003858367 -0.007978624 0.9999608
vn -0.003858367 -0.007978622 0.9999608
vn -0.1350822 -0.9907731 -0.01102294
vn -0.1350822 -0.9907731 -0.01102294
vn -0.1350822 -0.9907731 -0.01102294
vn -0.1350822 -0.9907731 -0.01102294
vn 0.003798723 0.009641388 -0.9999464
vn 0.003798722 0.009641388 -0.9999464
vn 0.003798722 0.009641387 -0.9999464
vn 0.003798722 0.009641388 -0.9999464
vn 0.006445847 0.9998125 0.01825777
vn 0.006445848 0.9998125 0.01825777
vn 0.006445847 0.9998125 0.01825777
vn 0.006445848 0.9998125 0.01825777
vn -0.009452056 -0.01859062 0.9997825
vn -0.009452056 -0.01859062 0.9997825
vn -0.009452056 -0.01859062 0.9997825
vn -0.009452056 -0.01859062 0.9997825
vn -0.01145196 -0.007920872 0.9999031
vn -0.01145196 -0.007920872 0.9999031
vn -0.006424971 -0.9998224 -0.01772049
vn -0.006424972 -0.9998224 -0.01772049
vn -0.006424972 -0.9998224 -0.01772049
vn -0.006424972 -0.9998224 -0.01772049
vn 0.00943248 0.01750663 -0.9998023
vn 0.009432479 0.01750663 -0.9998023
vn 0.009432478 0.01750663 -0.9998023
vn 0.009432479 0.01750663 -0.9998023
vn 0.01140436 0.008272097 -0.9999008
vn 0.01140436 0.008272097 -0.9999008
vn 0.06748082 0.9976968 0.006885914
vn 0.06748082 0.9976968 0.006885914
vn 0.06748083 0.9976968 0.006885914
vn 0.06748082 0.9976968 0.006885914
vn -0.06732149 -0.9976733 -0.01076218
vn -0.06732149 -0.9976733 -0.01076218
vn -0.06732149 -0.9976733 -0.01076218
vn -0.06732149 -0.9976733 -0.01076218
vn -0.07399489 0.9969755 0.02375942
vn -0.07399489 0.9969755 0.02375942
vn -0.07399488 0.9969755 0.02375942
vn -0.07399488 0.9969755 0.02375942
vn -0.01056561 -0.0227845 0.9996846
vn -0.01056561 -0.02278449 0.9996846
vn -0.01056561 -0.0227845 0.9996846
vn -0.01056561 -0.02278449 0.9996846
vn -0.00798929 -0.01313706 0.9998817
vn -0.00798929 -0.01313706 0.9998817
vn 0.07375457 -0.9970654 -0.02051514
vn 0.07375457 -0.9970654 -0.02051514
vn 0.07375457 -0.9970654 -0.02051514
vn 0.07375456 -0.9970654 -0.02051514
vn 0.01073807 0.0231483 -0.9996743
vn 0.01073807 0.0231483 -0.9996743
vn 0.01073807 0.0231483 -0.9996743
vn 0.01073807 0.0231483 -0.9996743
vn 0.008067711 0.01252215 -0.999889
vn 0.008067711 0.01252215 -0.999889
vn 0.01326168 0.9998314 0.01269211
vn 0.01326168 0.9998314 0.01269211
vn 0.01326168 0.9998314 0.01269211
vn 0.01326168 0.9998314 0.01269211
vn -0.01329767 -0.999822 -0.01339065
vn -0.01329767 -0.999822 -0.01339065
vn -0.01329767 -0.999822 -0.01339065
vn -0.01329767 -0.999822 -0.01339065
vn -0.1091237 0.9937316 0.02428085
vn -0.1091237 0.9937316 0.02428085
vn -0.1091237 0.9937316 0.02428085
vn -0.1091237 0.9937316 0.02428085
vn -0.007291422 -0.02249661 0.9997203
vn -0.007291423 -0.02249661 0.9997203
vn -0.007291423 -0.02249661 0.9997203
vn -0.007291423 -0.02249661 0.9997203
vn 0.0001045147 -0.01372949 0.9999057
vn 0.0001045147 -0.01372949 0.9999057
vn 0.1085187 -0.9938847 -0.02041477
vn 0.1085187 -0.9938847 -0.02041477
vn 0.1085187 -0.9938847 -0.02041477
vn 0.1085187 -0.9938847 -0.02041477
vn 0.007640485 0.02419032 -0.9996781
vn 0.007640485 0.02419032 -0.9996781
vn 0.007640485 0.02419032 -0.9996781
vn 0.007640485 0.02419032 -0.9996781
vn 6.049518E-05 0.01400947 -0.9999019
vn 6.049518E-05 0.01400947 -0.9999019
vn 0.01619142 0.9997669 0.01428235
vn 0.01619142 0.9997669 0.01428235
vn 0.01619142 0.9997669 0.01428235
vn 0.01619142 0.9997669 0.01428235
vn -0.01628992 -0.9997713 -0.01385505
vn -0.01628992 -0.9997713 -0.01385505
vn -0.01628992 -0.9997713 -0.01385505
vn -0.01628992 -0.9997713 -0.01385505
g Fence_0
f 3/3/3 2/2/2 1/1/1
f 6/6/6 5/5/5 4/4/4
f 9/9/9 8/8/8 7/7/7
f 12/12/12 11/11/11 10/10/10
f 15/15/15 14/14/14 13/13/13
f 18/18/18 17/17/17 16/16/16
f 21/21/21 20/20/20 19/19/19
f 24/24/24 23/23/23 22/22/22
f 27/27/27 26/26/26 25/25/25
f 30/30/30 29/29/29 28/28/28
f 33/33/33 32/32/32 31/31/31
f 36/36/36 35/35/35 34/34/34
f 39/39/39 38/38/38 37/37/37
f 42/42/42 41/41/41 40/40/40
f 45/45/45 44/44/44 43/43/43
f 48/48/48 47/47/47 46/46/46
f 51/51/51 50/50/50 49/49/49
f 54/54/54 53/53/53 52/52/52
f 55/55/55 54/54/54 52/52/52
f 58/58/58 57/57/57 56/56/56
f 56/56/56 57/57/57 59/59/59
f 57/57/57 60/60/60 59/59/59
f 61/61/61 60/60/60 57/57/57
f 62/62/62 60/60/60 61/61/61
f 65/65/65 64/64/64 63/63/63
f 66/66/66 65/65/65 63/63/63
f 69/69/69 68/68/68 67/67/67
f 70/70/70 69/69/69 67/67/67
f 73/73/73 72/72/72 71/71/71
f 74/74/74 73/73/73 71/71/71
f 77/77/77 76/76/76 75/75/75
f 78/78/78 77/77/77 75/75/75
f 81/81/81 80/80/80 79/79/79
f 82/82/82 81/81/81 79/79/79
f 85/85/85 84/84/84 83/83/83
f 86/86/86 85/85/85 83/83/83
f 89/89/89 88/88/88 87/87/87
f 90/90/90 89/89/89 87/87/87
f 93/93/93 92/92/92 91/91/91
f 94/94/94 93/93/93 91/91/91
f 97/97/97 96/96/96 95/95/95
f 98/98/98 97/97/97 95/95/95
f 101/101/101 100/100/100 99/99/99
f 100/100/100 102/102/102 99/99/99
f 100/100/100 103/103/103 102/102/102
f 103/103/103 104/104/104 102/102/102
f 107/107/107 106/106/106 105/105/105
f 108/108/108 107/107/107 105/105/105
f 111/111/111 110/110/110 109/109/109
f 110/110/110 112/112/112 109/109/109
f 110/110/110 113/113/113 112/112/112
f 113/113/113 114/114/114 112/112/112
f 117/117/117 116/116/116 115/115/115
f 118/118/118 117/117/117 115/115/115
f 121/121/121 120/120/120 119/119/119
f 122/122/122 121/121/121 119/119/119
f 125/125/125 124/124/124 123/123/123
f 126/126/126 125/125/125 123/123/123
f 129/129/129 128/128/128 127/127/127
f 128/128/128 130/130/130 127/127/127
f 128/128/128 131/131/131 130/130/130
f 131/131/131 132/132/132 130/130/130
f 135/135/135 134/134/134 133/133/133
f 136/136/136 135/135/135 133/133/133
f 139/139/139 138/138/138 137/137/137
f 138/138/138 140/140/140 137/137/137
f 138/138/138 141/141/141 140/140/140
f 141/141/141 142/142/142 140/140/140
f 145/145/145 144/144/144 143/143/143
f 146/146/146 145/145/145 143/143/143
f 149/149/149 148/148/148 147/147/147
f 150/150/150 149/149/149 147/147/147
f 153/153/153 152/152/152 151/151/151
f 154/154/154 153/153/153 151/151/151
f 157/157/157 156/156/156 155/155/155
f 156/156/156 158/158/158 155/155/155
f 156/156/156 159/159/159 158/158/158
f 159/159/159 160/160/160 158/158/158
f 163/163/163 162/162/162 161/161/161
f 164/164/164 163/163/163 161/161/161
f 167/167/167 166/166/166 165/165/165
f 166/166/166 168/168/168 165/165/165
f 166/166/166 169/169/169 168/168/168
f 169/169/169 170/170/170 168/168/168
f 173/173/173 172/172/172 171/171/171
f 174/174/174 173/173/173 171/171/171
f 177/177/177 176/176/176 175/175/175
f 178/178/178 177/177/177 175/175/175
