g fierro_uv.004
v 1.649999 -1.350001 1.650001
v 1.649999 -1.300001 1.700001
v 1.649999 -1.314646 1.664646
v 1.649999 -1.350001 1.750001
v 1.649999 -1.314646 1.735356
v 1.649999 -1.400001 1.700001
v 1.649999 -1.385356 1.735356
v 1.649999 -1.385356 1.664646
v 0.9499992 -1.300001 1.7
v 0.9499992 -1.350001 1.65
v 0.9499992 -1.314646 1.664645
v 0.9499992 -1.400001 1.7
v 0.9499993 -1.385357 1.664645
v 0.9499992 -1.350001 1.75
v 0.9499992 -1.385357 1.735355
v 0.9499993 -1.314646 1.735355
v 1.649999 -1.300001 1.700001
v 0.9499993 -1.314646 1.735355
v 0.9499992 -1.300001 1.7
v 1.649999 -1.314646 1.735356
v 1.649999 -1.350001 1.750001
v 0.9499992 -1.350001 1.75
v 1.649999 -1.385356 1.735356
v 0.9499992 -1.385357 1.735355
v 0.9499992 -1.400001 1.7
v 1.649999 -1.400001 1.700001
v 0.9499993 -1.385357 1.664645
v 1.649999 -1.385356 1.664646
v 1.649999 -1.350001 1.650001
v 0.9499992 -1.350001 1.65
v 1.649999 -1.314646 1.664646
v 0.9499992 -1.314646 1.664645
v 1.649999 -1.300001 1.700001
v 0.9499992 -1.300001 1.7
v -1.85 -1.350001 1.650001
v -1.85 -1.314646 1.664646
v -1.85 -1.300001 1.700001
v -1.849999 -1.350001 1.750001
v -1.85 -1.314646 1.735356
v -1.85 -1.400001 1.700001
v -1.849999 -1.385356 1.735356
v -1.85 -1.385356 1.664646
v -1.149999 -1.300001 1.7
v -1.149999 -1.314646 1.664645
v -1.149999 -1.350001 1.65
v -1.149999 -1.400001 1.7
v -1.149999 -1.385357 1.664645
v -1.149999 -1.350001 1.75
v -1.149999 -1.385357 1.735355
v -1.149999 -1.314646 1.735355
v -1.85 -1.300001 1.700001
v -1.149999 -1.300001 1.7
v -1.149999 -1.314646 1.735355
v -1.85 -1.314646 1.735356
v -1.849999 -1.350001 1.750001
v -1.149999 -1.350001 1.75
v -1.849999 -1.385356 1.735356
v -1.149999 -1.385357 1.735355
v -1.149999 -1.400001 1.7
v -1.85 -1.400001 1.700001
v -1.149999 -1.385357 1.664645
v -1.85 -1.385356 1.664646
v -1.85 -1.350001 1.650001
v -1.149999 -1.350001 1.65
v -1.85 -1.314646 1.664646
v -1.149999 -1.314646 1.664645
v -1.85 -1.300001 1.700001
v -1.149999 -1.300001 1.7
vt 0.4211426 0.6992188
vt 0.4233398 0.7045898
vt 0.4233398 0.7016602
vt 0.4177246 0.706543
vt 0.4211426 0.706543
vt 0.4155273 0.7016602
vt 0.4155273 0.7045898
vt 0.4177246 0.6992188
vt 0.4306641 0.7045898
vt 0.4255371 0.706543
vt 0.4287109 0.706543
vt 0.4233398 0.7016602
vt 0.4233398 0.7045898
vt 0.4287109 0.6992188
vt 0.4255371 0.6992188
vt 0.4306641 0.7016602
vt 0.4726563 0.6992188
vt 0.4155273 0.6962891
vt 0.4155273 0.6992188
vt 0.4726563 0.6962891
vt 0.4726563 0.6928711
vt 0.4155273 0.6928711
vt 0.4726563 0.6899414
vt 0.4155273 0.6899414
vt 0.4155273 0.6870117
vt 0.4726563 0.6870117
vt 0.4155273 0.6835938
vt 0.4726563 0.6835938
vt 0.4726563 0.6806641
vt 0.4155273 0.6806641
vt 0.4726563 0.6772461
vt 0.4155273 0.6772461
vt 0.4726563 0.6748047
vt 0.4155273 0.6748047
vt 0.4211426 0.6992188
vt 0.4233398 0.7016602
vt 0.4233398 0.7045898
vt 0.4177246 0.706543
vt 0.4211426 0.706543
vt 0.4155273 0.7016602
vt 0.4155273 0.7045898
vt 0.4177246 0.6992188
vt 0.4306641 0.7045898
vt 0.4287109 0.706543
vt 0.4255371 0.706543
vt 0.4233398 0.7016602
vt 0.4233398 0.7045898
vt 0.4287109 0.6992188
vt 0.4255371 0.6992188
vt 0.4306641 0.7016602
vt 0.4726563 0.6992188
vt 0.4155273 0.6992188
vt 0.4155273 0.6962891
vt 0.4726563 0.6962891
vt 0.4726563 0.6928711
vt 0.4155273 0.6928711
vt 0.4726563 0.6899414
vt 0.4155273 0.6899414
vt 0.4155273 0.6870117
vt 0.4726563 0.6870117
vt 0.4155273 0.6835938
vt 0.4726563 0.6835938
vt 0.4726563 0.6806641
vt 0.4155273 0.6806641
vt 0.4726563 0.6772461
vt 0.4155273 0.6772461
vt 0.4726563 0.6748047
vt 0.4155273 0.6748047
vn 0.6303711 0 -0.7763672
vn 0.6303711 0.7763672 0
vn 0.6303711 0.5488281 -0.5488281
vn 0.6303711 0 0.7763672
vn 0.6303711 0.5488281 0.5488281
vn 0.6303711 -0.7763672 0
vn 0.6303711 -0.5488281 0.5488281
vn 0.6303711 -0.5488281 -0.5488281
vn -0.6303711 0.7763672 0
vn -0.6303711 0 -0.7763672
vn -0.6303711 0.5488281 -0.5488281
vn -0.6303711 -0.7763672 0
vn -0.6303711 -0.5488281 -0.5488281
vn -0.6303711 0 0.7763672
vn -0.6303711 -0.5488281 0.5488281
vn -0.6303711 0.5488281 0.5488281
vn 0.6303711 0.7763672 0
vn -0.6303711 0.5488281 0.5488281
vn -0.6303711 0.7763672 0
vn 0.6303711 0.5488281 0.5488281
vn 0.6303711 0 0.7763672
vn -0.6303711 0 0.7763672
vn 0.6303711 -0.5488281 0.5488281
vn -0.6303711 -0.5488281 0.5488281
vn -0.6303711 -0.7763672 0
vn 0.6303711 -0.7763672 0
vn -0.6303711 -0.5488281 -0.5488281
vn 0.6303711 -0.5488281 -0.5488281
vn 0.6303711 0 -0.7763672
vn -0.6303711 0 -0.7763672
vn 0.6303711 0.5488281 -0.5488281
vn -0.6303711 0.5488281 -0.5488281
vn 0.6303711 0.7763672 0
vn -0.6303711 0.7763672 0
vn -0.6303711 0 -0.7763672
vn -0.6303711 0.5488281 -0.5488281
vn -0.6303711 0.7763672 0
vn -0.6303711 0 0.7763672
vn -0.6303711 0.5488281 0.5488281
vn -0.6303711 -0.7763672 0
vn -0.6303711 -0.5488281 0.5488281
vn -0.6303711 -0.5488281 -0.5488281
vn 0.6303711 0.7763672 0
vn 0.6303711 0.5488281 -0.5488281
vn 0.6303711 0 -0.7763672
vn 0.6303711 -0.7763672 0
vn 0.6303711 -0.5488281 -0.5488281
vn 0.6303711 0 0.7763672
vn 0.6303711 -0.5488281 0.5488281
vn 0.6303711 0.5488281 0.5488281
vn -0.6303711 0.7763672 0
vn 0.6303711 0.7763672 0
vn 0.6303711 0.5488281 0.5488281
vn -0.6303711 0.5488281 0.5488281
vn -0.6303711 0 0.7763672
vn 0.6303711 0 0.7763672
vn -0.6303711 -0.5488281 0.5488281
vn 0.6303711 -0.5488281 0.5488281
vn 0.6303711 -0.7763672 0
vn -0.6303711 -0.7763672 0
vn 0.6303711 -0.5488281 -0.5488281
vn -0.6303711 -0.5488281 -0.5488281
vn -0.6303711 0 -0.7763672
vn 0.6303711 0 -0.7763672
vn -0.6303711 0.5488281 -0.5488281
vn 0.6303711 0.5488281 -0.5488281
vn -0.6303711 0.7763672 0
vn 0.6303711 0.7763672 0
g fierro_uv.004_0
f 3/3/3 2/2/2 1/1/1
f 2/2/2 4/4/4 1/1/1
f 5/5/5 4/4/4 2/2/2
f 6/6/6 1/1/1 4/4/4
f 7/7/7 6/6/6 4/4/4
f 8/8/8 1/1/1 6/6/6
f 11/11/11 10/10/10 9/9/9
f 10/10/10 12/12/12 9/9/9
f 13/13/13 12/12/12 10/10/10
f 14/14/14 9/9/9 12/12/12
f 15/15/15 14/14/14 12/12/12
f 16/16/16 9/9/9 14/14/14
f 19/19/19 18/18/18 17/17/17
f 18/18/18 20/20/20 17/17/17
f 21/21/21 20/20/20 18/18/18
f 22/22/22 21/21/21 18/18/18
f 23/23/23 21/21/21 22/22/22
f 24/24/24 23/23/23 22/22/22
f 24/24/24 25/25/25 23/23/23
f 25/25/25 26/26/26 23/23/23
f 25/25/25 27/27/27 26/26/26
f 27/27/27 28/28/28 26/26/26
f 29/29/29 28/28/28 27/27/27
f 30/30/30 29/29/29 27/27/27
f 31/31/31 29/29/29 30/30/30
f 32/32/32 31/31/31 30/30/30
f 33/33/33 31/31/31 32/32/32
f 34/34/34 33/33/33 32/32/32
f 37/37/37 36/36/36 35/35/35
f 38/38/38 37/37/37 35/35/35
f 38/38/38 39/39/39 37/37/37
f 35/35/35 40/40/40 38/38/38
f 40/40/40 41/41/41 38/38/38
f 35/35/35 42/42/42 40/40/40
f 45/45/45 44/44/44 43/43/43
f 46/46/46 45/45/45 43/43/43
f 46/46/46 47/47/47 45/45/45
f 43/43/43 48/48/48 46/46/46
f 48/48/48 49/49/49 46/46/46
f 43/43/43 50/50/50 48/48/48
f 53/53/53 52/52/52 51/51/51
f 54/54/54 53/53/53 51/51/51
f 54/54/54 55/55/55 53/53/53
f 55/55/55 56/56/56 53/53/53
f 55/55/55 57/57/57 56/56/56
f 57/57/57 58/58/58 56/56/56
f 59/59/59 58/58/58 57/57/57
f 60/60/60 59/59/59 57/57/57
f 61/61/61 59/59/59 60/60/60
f 62/62/62 61/61/61 60/60/60
f 62/62/62 63/63/63 61/61/61
f 63/63/63 64/64/64 61/61/61
f 63/63/63 65/65/65 64/64/64
f 65/65/65 66/66/66 64/64/64
f 65/65/65 67/67/67 66/66/66
f 67/67/67 68/68/68 66/66/66
