g FingerSeg3
v -0.019372 0.04489326 0.1305186
v -0.02402928 0.04362755 0.1508267
v 0.0007183689 0.03858978 0.1531764
v -0.0001240403 0.04097595 0.132346
v 0.02384889 0.04829788 0.1494256
v 0.01786611 0.04852646 0.1294286
v -0.0142295 0.04796089 0.1128238
v -0.001081389 0.04534027 0.114184
v 0.01121192 0.05044319 0.1120792
v -0.0158584 0.04395172 0.1031637
v -0.0009402472 0.04115326 0.1050536
v -0.02210567 0.05609939 0.09636799
v -0.01975184 0.05913071 0.1077508
v 0.01302196 0.04676941 0.1023185
v 0.01417005 0.06243972 0.1067581
v -0.01872622 0.06918594 0.08929066
v -0.01679375 0.07112724 0.1024297
v 0.01640145 0.05985542 0.095241
v 0.008647623 0.07360954 0.101685
v -0.01782737 0.03640442 0.09532611
v -0.02518122 0.05078979 0.0863727
v -0.0003623802 0.03307563 0.09787083
v -0.02127471 0.06627159 0.07708985
v 0.01595366 0.03970009 0.09433764
v -0.004763949 0.07480048 0.08655582
v -0.004958747 0.07289657 0.07355652
v -0.004500442 0.07622962 0.1003248
v -0.02314573 0.07930526 0.1162815
v -0.005155597 0.08685683 0.1133638
v -0.02888124 0.08787154 0.132522
v -0.0216156 0.02351707 0.08459957
v -0.03103283 0.04202164 0.07277006
v -0.02606759 0.0619281 0.06052011
v 0.0007000106 0.01921951 0.08798169
v -0.005236123 0.07043564 0.05587501
v -0.0316655 0.05650848 0.04173062
v -0.03789313 0.03143875 0.05715794
v -0.02605868 0.008132474 0.07205609
v -0.005506907 0.06721367 0.03588323
v 0.02153148 0.02772705 0.08333658
v 0.001968932 0.002712858 0.076318
v 0.01986011 0.05518349 0.08505445
v 0.01015418 0.07200309 0.08844538
v -0.04640749 0.02045105 0.04120418
v -0.03850748 0.05077911 0.02255175
v -0.005774236 0.06382507 0.01545359
v -0.03173251 -0.007675097 0.05919584
v 0.02649671 0.04763351 0.07108664
v 0.02812752 0.01341858 0.07047067
v 0.01250632 0.06956726 0.07610124
v 0.003259031 -0.0141137 0.06431171
v -0.04313475 0.04446815 0.005587209
v -0.05220013 0.01053253 0.02645137
v -0.005837339 0.0591243 -0.002370784
v -0.03555871 -0.02089783 0.04656385
v 0.01409242 0.08293846 0.1151916
v 0.01707949 0.06613754 0.05925706
v -0.005750804 0.09758072 0.1287705
v 0.01899691 0.09254188 0.1311207
v 0.02252069 0.06179459 0.04014461
v 0.03435517 0.03848724 0.05504335
v 0.02921738 0.05738594 0.02057
v 0.04389232 0.02926086 0.03856133
v 0.03599232 -0.001067736 0.05721356
v 0.0339855 0.05199196 0.003330147
v 0.05062686 0.0205632 0.02344236
v 0.04156154 -0.01337403 0.04430692
v 0.004264027 -0.02802963 0.05226451
v 0.0266271 0.03641777 -0.003841846
v 0.03956617 0.01197983 0.0117959
v 0.03251769 -0.01440636 0.02801856
v 0.003518183 -0.02580208 0.03420575
v -0.02744481 -0.02025643 0.02977341
v -0.004335886 0.04196342 -0.00827439
v -0.04038384 0.004180982 0.0141356
v -0.03333535 0.03056824 -0.002086933
v 0.01978878 -0.009224932 0.01627984
v 0.00190401 -0.01464134 0.01625407
v 0.02085468 0.005220792 0.004472897
v -0.01665796 -0.01278069 0.01734636
v -0.02117554 0.001120832 0.005702899
v -7.762734E-05 0.001534727 0.00246177
v -0.02023842 0.01811188 -0.002019107
v -0.002224906 0.0209835 -0.006078212
v 0.01620833 0.0216671 -0.00308562
v 0.01786611 0.04852646 0.1294286
v 0.01417005 0.06243972 0.1067581
v 0.01121192 0.05044319 0.1120792
v 0.02218563 0.06633728 0.1221285
v 0.008647623 0.07360954 0.101685
v 0.01409242 0.08293846 0.1151916
v 0.02384889 0.04829788 0.1494256
v 0.02940255 0.0711988 0.1400394
v 0.02579546 0.07715354 0.1580821
v 0.01653659 0.09614463 0.1501465
v 0.02085382 0.05677711 0.1664339
v 0.0007183689 0.03858978 0.1531764
v -0.005483726 0.100628 0.1480554
v 0.0002725309 0.04813766 0.1697717
v -0.02402928 0.04362755 0.1508267
v -0.02606502 0.09198913 0.151393
v 0.009483457 0.09692916 0.1701037
v 0.01391712 0.08589233 0.1787671
v -0.004683624 0.09985153 0.1728047
v 0.01250345 0.06705345 0.1737083
v -0.003021069 0.08608513 0.1837243
v -0.001260481 0.0686364 0.185719
v -0.02174778 0.05262215 0.1676805
v -0.01815186 0.09423271 0.1709128
v -0.01986126 0.08259666 0.179756
v -0.01535134 0.06869514 0.1814781
v -0.03100669 0.07161269 0.1597443
v -0.03443494 0.06497116 0.1419077
v -0.019372 0.04489326 0.1305186
v -0.02746524 0.06149391 0.1235816
v -0.0142295 0.04796089 0.1128238
v -0.02314573 0.07930526 0.1162815
v -0.01975184 0.05913071 0.1077508
v -0.01679375 0.07112724 0.1024297
vt 0.375 0.875
vt 0.375 1
vt 0.5 1
vt 0.5 0.875
vt 0.625 1
vt 0.625 0.875
vt 0.375 0.75
vt 0.5 0.78125
vt 0.625 0.75
vt 0.40625 0.71875
vt 0.5 0.75
vt 0.375 0.625
vt 0.375 0.625
vt 0.59375 0.71875
vt 0.625 0.625
vt 0.40625 0.53125
vt 0.375 0.5
vt 0.625 0.625
vt 0.625 0.5
vt 0.40625 0.71875
vt 0.375 0.625
vt 0.5 0.75
vt 0.40625 0.53125
vt 0.59375 0.71875
vt 0.5 0.5
vt 0.5 0.5
vt 0.5 0.46875
vt 0.375 0.375
vt 0.5 0.375
vt 0.375 0.25
vt 0.40625 0.71875
vt 0.375 0.625
vt 0.40625 0.53125
vt 0.5 0.75
vt 0.5 0.5
vt 0.40625 0.53125
vt 0.375 0.625
vt 0.40625 0.71875
vt 0.5 0.5
vt 0.59375 0.71875
vt 0.5 0.75
vt 0.625 0.625
vt 0.59375 0.53125
vt 0.375 0.625
vt 0.40625 0.53125
vt 0.5 0.5
vt 0.40625 0.71875
vt 0.625 0.625
vt 0.59375 0.71875
vt 0.59375 0.53125
vt 0.5 0.75
vt 0.40625 0.53125
vt 0.375 0.625
vt 0.5 0.5
vt 0.40625 0.71875
vt 0.625 0.375
vt 0.59375 0.53125
vt 0.5 0.28125
vt 0.625 0.25
vt 0.59375 0.53125
vt 0.625 0.625
vt 0.59375 0.53125
vt 0.625 0.625
vt 0.59375 0.71875
vt 0.59375 0.53125
vt 0.625 0.625
vt 0.59375 0.71875
vt 0.5 0.75
vt 0.59375 0.53125
vt 0.625 0.625
vt 0.59375 0.71875
vt 0.5 0.75
vt 0.40625 0.71875
vt 0.5 0.5
vt 0.375 0.625
vt 0.40625 0.53125
vt 0.5693359 0.6943359
vt 0.5 0.71875
vt 0.59375 0.625
vt 0.4306641 0.6943359
vt 0.40625 0.625
vt 0.5 0.625
vt 0.4306641 0.5556641
vt 0.5 0.53125
vt 0.5693359 0.5556641
vt 0.75 0
vt 0.875 0.125
vt 0.875 0
vt 0.75 0.125
vt 0.875 0.25
vt 0.75 0.25
vt 0.625 0
vt 0.65625 0.125
vt 0.625 0.125
vt 0.59375 0.21875
vt 0.59375 0.03125
vt 0.5 0
vt 0.5 0.25
vt 0.5 0
vt 0.375 0
vt 0.40625 0.21875
vt 0.5693359 0.194458
vt 0.59375 0.125
vt 0.5 0.21875
vt 0.5693359 0.05554199
vt 0.5 0.125
vt 0.5 0.03125
vt 0.40625 0.03125
vt 0.4306641 0.194458
vt 0.40625 0.125
vt 0.4306641 0.05554199
vt 0.375 0.125
vt 0.34375 0.125
vt 0.25 0
vt 0.25 0.125
vt 0.125 0
vt 0.25 0.25
vt 0.125 0.125
vt 0.125 0.25
vn -0.5449219 -0.8105469 -0.2149658
vn -0.6157227 -0.7739258 0.1478271
vn 0.1010132 -0.9726563 0.208374
vn 0.09130859 -0.9833984 -0.157959
vn 0.7612305 -0.6396484 0.1075439
vn 0.6777344 -0.690918 -0.2507324
vn -0.5893555 -0.8027344 -0.09161377
vn 0.09576416 -0.9946289 -0.0435791
vn 0.7270508 -0.6743164 -0.130127
vn -0.659668 -0.546875 0.515625
vn 0.09454346 -0.7861328 0.6108398
vn -0.9702148 0.05554199 0.2351074
vn -0.9672852 -0.1644287 -0.1938477
vn 0.7817383 -0.40625 0.4731445
vn 0.9677734 0.02438354 -0.2504883
vn -0.7211914 0.6928711 -0.002943039
vn -0.7524414 0.5517578 -0.3601074
vn 0.953125 0.2432861 0.1787109
vn 0.609375 0.6845703 -0.3999023
vn -0.6186523 -0.4182129 0.6650391
vn -0.9443359 0.09368896 0.3151855
vn 0.08233643 -0.6064453 0.7905273
vn -0.7260742 0.6870117 0.01852417
vn 0.7250977 -0.2871094 0.6254883
vn -0.09991455 0.9873047 -0.1242676
vn -0.1002197 0.9848633 -0.1402588
vn -0.1001587 0.8989258 -0.4267578
vn -0.7294922 0.4382324 -0.5253906
vn -0.09527588 0.7983398 -0.5942383
vn -0.78125 0.5673828 -0.2600098
vn -0.6118164 -0.3886719 0.6889648
vn -0.9350586 0.105896 0.338623
vn -0.730957 0.6821289 0.02557373
vn 0.07983398 -0.5737305 0.8149414
vn -0.1003418 0.9833984 -0.1500244
vn -0.7216797 0.6914063 0.03729248
vn -0.921875 0.1231689 0.3669434
vn -0.5976563 -0.3774414 0.7070313
vn -0.1004028 0.9829102 -0.1552734
vn 0.7138672 -0.2592773 0.6503906
vn 0.07952881 -0.5698242 0.8178711
vn 0.925293 0.276123 0.260498
vn 0.5722656 0.8188477 -0.040802
vn -0.9331055 0.1072998 0.34375
vn -0.7319336 0.6816406 -0.005279541
vn -0.1009521 0.9736328 -0.2056885
vn -0.6049805 -0.4128418 0.6806641
vn 0.9150391 0.286377 0.284668
vn 0.6992188 -0.2509766 0.6694336
vn 0.5795898 0.8144531 -0.01968384
vn 0.0826416 -0.6108398 0.7875977
vn -0.7661133 0.4460449 -0.4626465
vn -0.9829102 -0.1645508 -0.08068848
vn -0.09265137 0.7548828 -0.6489258
vn -0.6303711 -0.7270508 0.2727051
vn 0.5991211 0.5678711 -0.5644531
vn 0.5854492 0.8105469 -0.01294708
vn -0.1010132 0.9267578 -0.3618164
vn 0.640625 0.7060547 -0.3017578
vn 0.5756836 0.8178711 -0.0006766319
vn 0.9003906 0.3010254 0.3137207
vn 0.5849609 0.8100586 -0.04382324
vn 0.9130859 0.2873535 0.2895508
vn 0.7119141 -0.2844238 0.6420898
vn 0.637207 0.5830078 -0.5039063
vn 0.9897461 0.0279541 -0.1384277
vn 0.7734375 -0.5898438 0.2315674
vn 0.100647 -0.9125977 0.3964844
vn 0.439209 0.04251099 -0.8974609
vn 0.6845703 -0.3286133 -0.6508789
vn 0.5307617 -0.7456055 -0.4033203
vn 0.08520508 -0.956543 -0.2783203
vn -0.3991699 -0.8364258 -0.3762207
vn -0.04537964 0.1696777 -0.984375
vn -0.6445313 -0.458252 -0.6118164
vn -0.4904785 -0.04818726 -0.8701172
vn 0.2988281 -0.6816406 -0.6679688
vn 0.0552063 -0.7602539 -0.6474609
vn 0.328125 -0.4741211 -0.8168945
vn -0.1998291 -0.7299805 -0.6533203
vn -0.2770996 -0.5332031 -0.7993164
vn 0.02674866 -0.5288086 -0.8481445
vn -0.2489014 -0.307373 -0.918457
vn -0.004241943 -0.2471924 -0.96875
vn 0.2498779 -0.2587891 -0.9331055
vn 0.6777344 -0.690918 -0.2507324
vn 0.9677734 0.02438354 -0.2504883
vn 0.7270508 -0.6743164 -0.130127
vn 0.9174805 -0.05700684 -0.3935547
vn 0.609375 0.6845703 -0.3999023
vn 0.5991211 0.5678711 -0.5644531
vn 0.7612305 -0.6396484 0.1075439
vn 0.9931641 0.05560303 -0.1029663
vn 0.9384766 0.1962891 0.2834473
vn 0.6030273 0.7973633 0.0307312
vn 0.7260742 -0.4313965 0.5356445
vn 0.1010132 -0.9726563 0.208374
vn -0.09887695 0.9926758 -0.07025146
vn 0.09710693 -0.7509766 0.6533203
vn -0.6157227 -0.7739258 0.1478271
vn -0.7426758 0.6660156 0.07012939
vn 0.5004883 0.8100586 0.3061523
vn 0.6855469 0.296875 0.6650391
vn -0.08074951 0.9326172 0.3513184
vn 0.6064453 -0.2320557 0.7602539
vn 0.06829834 0.3205566 0.9448242
vn 0.1095581 -0.3286133 0.9379883
vn -0.59375 -0.565918 0.5717773
vn -0.6289063 0.699707 0.3391113
vn -0.7177734 0.2044678 0.6655273
vn -0.5043945 -0.3183594 0.8027344
vn -0.9472656 0.01696777 0.3200684
vn -0.9892578 -0.1378174 -0.04495239
vn -0.5449219 -0.8105469 -0.2149658
vn -0.9106445 -0.2353516 -0.3400879
vn -0.5893555 -0.8027344 -0.09161377
vn -0.7294922 0.4382324 -0.5253906
vn -0.9672852 -0.1644287 -0.1938477
vn -0.7524414 0.5517578 -0.3601074
g FingerSeg3_0
f 3/3/3 2/2/2 1/1/1
f 4/4/4 3/3/3 1/1/1
f 5/5/5 3/3/3 4/4/4
f 6/6/6 5/5/5 4/4/4
f 4/4/4 1/1/1 7/7/7
f 6/6/6 4/4/4 8/8/8
f 8/8/8 4/4/4 7/7/7
f 9/9/9 6/6/6 8/8/8
f 7/7/7 10/10/10 8/8/8
f 8/8/8 11/11/11 9/9/9
f 10/10/10 11/11/11 8/8/8
f 12/12/12 10/10/10 7/7/7
f 13/13/13 12/12/12 7/7/7
f 11/11/11 14/14/14 9/9/9
f 9/9/9 14/14/14 15/15/15
f 16/16/16 12/12/12 13/13/13
f 17/17/17 16/16/16 13/13/13
f 14/14/14 18/18/18 15/15/15
f 15/15/15 18/18/18 19/19/19
f 10/10/10 20/20/20 11/11/11
f 12/12/12 21/21/21 10/10/10
f 21/21/21 20/20/20 10/10/10
f 11/11/11 22/22/22 14/14/14
f 20/20/20 22/22/22 11/11/11
f 16/16/16 23/23/23 12/12/12
f 23/23/23 21/21/21 12/12/12
f 14/14/14 24/24/24 18/18/18
f 22/22/22 24/24/24 14/14/14
f 25/25/25 16/16/16 17/17/17
f 26/26/26 23/23/23 16/16/16
f 25/25/25 26/26/26 16/16/16
f 27/27/27 25/25/25 17/17/17
f 27/27/27 17/17/17 28/28/28
f 29/29/29 27/27/27 28/28/28
f 29/29/29 28/28/28 30/30/30
f 20/20/20 31/31/31 22/22/22
f 21/21/21 32/32/32 20/20/20
f 32/32/32 31/31/31 20/20/20
f 23/23/23 33/33/33 21/21/21
f 33/33/33 32/32/32 21/21/21
f 22/22/22 34/34/34 24/24/24
f 31/31/31 34/34/34 22/22/22
f 26/26/26 35/35/35 23/23/23
f 35/35/35 33/33/33 23/23/23
f 33/33/33 36/36/36 32/32/32
f 32/32/32 37/37/37 31/31/31
f 36/36/36 37/37/37 32/32/32
f 31/31/31 38/38/38 34/34/34
f 37/37/37 38/38/38 31/31/31
f 35/35/35 39/39/39 33/33/33
f 39/39/39 36/36/36 33/33/33
f 34/34/34 40/40/40 24/24/24
f 38/38/38 41/41/41 34/34/34
f 34/34/34 41/41/41 40/40/40
f 24/24/24 40/40/40 42/42/42
f 24/24/24 42/42/42 18/18/18
f 18/18/18 42/42/42 43/43/43
f 18/18/18 43/43/43 19/19/19
f 37/37/37 44/44/44 38/38/38
f 36/36/36 45/45/45 37/37/37
f 45/45/45 44/44/44 37/37/37
f 39/39/39 46/46/46 36/36/36
f 46/46/46 45/45/45 36/36/36
f 38/38/38 47/47/47 41/41/41
f 44/44/44 47/47/47 38/38/38
f 40/40/40 48/48/48 42/42/42
f 41/41/41 49/49/49 40/40/40
f 40/40/40 49/49/49 48/48/48
f 42/42/42 50/50/50 43/43/43
f 42/42/42 48/48/48 50/50/50
f 47/47/47 51/51/51 41/41/41
f 41/41/41 51/51/51 49/49/49
f 45/45/45 52/52/52 44/44/44
f 44/44/44 53/53/53 47/47/47
f 52/52/52 53/53/53 44/44/44
f 46/46/46 54/54/54 45/45/45
f 54/54/54 52/52/52 45/45/45
f 47/47/47 55/55/55 51/51/51
f 53/53/53 55/55/55 47/47/47
f 43/43/43 50/50/50 25/25/25
f 43/43/43 25/25/25 27/27/27
f 19/19/19 43/43/43 27/27/27
f 19/19/19 27/27/27 29/29/29
f 50/50/50 26/26/26 25/25/25
f 56/56/56 19/19/19 29/29/29
f 50/50/50 57/57/57 26/26/26
f 57/57/57 35/35/35 26/26/26
f 48/48/48 57/57/57 50/50/50
f 56/56/56 29/29/29 58/58/58
f 58/58/58 29/29/29 30/30/30
f 59/59/59 56/56/56 58/58/58
f 57/57/57 60/60/60 35/35/35
f 60/60/60 39/39/39 35/35/35
f 48/48/48 61/61/61 57/57/57
f 61/61/61 60/60/60 57/57/57
f 49/49/49 61/61/61 48/48/48
f 60/60/60 62/62/62 39/39/39
f 62/62/62 46/46/46 39/39/39
f 61/61/61 63/63/63 60/60/60
f 63/63/63 62/62/62 60/60/60
f 49/49/49 64/64/64 61/61/61
f 64/64/64 63/63/63 61/61/61
f 51/51/51 64/64/64 49/49/49
f 62/62/62 65/65/65 46/46/46
f 65/65/65 54/54/54 46/46/46
f 63/63/63 66/66/66 62/62/62
f 66/66/66 65/65/65 62/62/62
f 64/64/64 67/67/67 63/63/63
f 67/67/67 66/66/66 63/63/63
f 51/51/51 68/68/68 64/64/64
f 68/68/68 67/67/67 64/64/64
f 55/55/55 68/68/68 51/51/51
f 65/65/65 69/69/69 54/54/54
f 66/66/66 70/70/70 65/65/65
f 70/70/70 69/69/69 65/65/65
f 67/67/67 71/71/71 66/66/66
f 71/71/71 70/70/70 66/66/66
f 68/68/68 72/72/72 67/67/67
f 72/72/72 71/71/71 67/67/67
f 55/55/55 73/73/73 68/68/68
f 73/73/73 72/72/72 68/68/68
f 69/69/69 74/74/74 54/54/54
f 54/54/54 74/74/74 52/52/52
f 75/75/75 73/73/73 55/55/55
f 53/53/53 75/75/75 55/55/55
f 52/52/52 76/76/76 53/53/53
f 74/74/74 76/76/76 52/52/52
f 76/76/76 75/75/75 53/53/53
f 71/71/71 77/77/77 70/70/70
f 72/72/72 78/78/78 71/71/71
f 78/78/78 77/77/77 71/71/71
f 70/70/70 79/79/79 69/69/69
f 77/77/77 79/79/79 70/70/70
f 73/73/73 80/80/80 72/72/72
f 80/80/80 78/78/78 72/72/72
f 81/81/81 80/80/80 73/73/73
f 75/75/75 81/81/81 73/73/73
f 78/78/78 80/80/80 81/81/81
f 77/77/77 78/78/78 82/82/82
f 82/82/82 78/78/78 81/81/81
f 79/79/79 77/77/77 82/82/82
f 83/83/83 81/81/81 75/75/75
f 76/76/76 83/83/83 75/75/75
f 82/82/82 81/81/81 83/83/83
f 84/84/84 83/83/83 76/76/76
f 84/84/84 82/82/82 83/83/83
f 79/79/79 82/82/82 84/84/84
f 74/74/74 84/84/84 76/76/76
f 69/69/69 85/85/85 74/74/74
f 79/79/79 85/85/85 69/69/69
f 85/85/85 79/79/79 84/84/84
f 85/85/85 84/84/84 74/74/74
f 88/88/88 87/87/87 86/86/86
f 87/87/87 89/89/89 86/86/86
f 87/87/87 90/90/90 89/89/89
f 90/90/90 91/91/91 89/89/89
f 86/86/86 89/89/89 92/92/92
f 89/89/89 91/91/91 93/93/93
f 89/89/89 93/93/93 92/92/92
f 91/91/91 59/59/59 93/93/93
f 93/93/93 94/94/94 92/92/92
f 59/59/59 95/95/95 93/93/93
f 95/95/95 94/94/94 93/93/93
f 94/94/94 96/96/96 92/92/92
f 92/92/92 96/96/96 97/97/97
f 98/98/98 95/95/95 59/59/59
f 58/58/58 98/98/98 59/59/59
f 96/96/96 99/99/99 97/97/97
f 97/97/97 99/99/99 100/100/100
f 101/101/101 98/98/98 58/58/58
f 30/30/30 101/101/101 58/58/58
f 95/95/95 102/102/102 94/94/94
f 94/94/94 103/103/103 96/96/96
f 102/102/102 103/103/103 94/94/94
f 98/98/98 104/104/104 95/95/95
f 104/104/104 102/102/102 95/95/95
f 96/96/96 105/105/105 99/99/99
f 103/103/103 105/105/105 96/96/96
f 103/103/103 102/102/102 106/106/106
f 102/102/102 104/104/104 106/106/106
f 105/105/105 103/103/103 107/107/107
f 105/105/105 107/107/107 99/99/99
f 103/103/103 106/106/106 107/107/107
f 99/99/99 108/108/108 100/100/100
f 99/99/99 107/107/107 108/108/108
f 109/109/109 104/104/104 98/98/98
f 101/101/101 109/109/109 98/98/98
f 104/104/104 109/109/109 110/110/110
f 106/106/106 104/104/104 110/110/110
f 110/110/110 109/109/109 101/101/101
f 107/107/107 106/106/106 111/111/111
f 106/106/106 110/110/110 111/111/111
f 107/107/107 111/111/111 108/108/108
f 112/112/112 110/110/110 101/101/101
f 111/111/111 110/110/110 112/112/112
f 108/108/108 111/111/111 112/112/112
f 112/112/112 101/101/101 30/30/30
f 100/100/100 108/108/108 113/113/113
f 108/108/108 112/112/112 113/113/113
f 113/113/113 112/112/112 30/30/30
f 100/100/100 113/113/113 114/114/114
f 113/113/113 30/30/30 115/115/115
f 113/113/113 115/115/115 114/114/114
f 114/114/114 115/115/115 116/116/116
f 30/30/30 117/117/117 115/115/115
f 115/115/115 118/118/118 116/116/116
f 115/115/115 117/117/117 118/118/118
f 117/117/117 119/119/119 118/118/118
