g FingerSeg2
v -0.0856614 0.1527462 0.3192154
v -0.08840393 0.1721053 0.335878
v -0.07072184 0.1567327 0.3443631
v -0.06132847 0.1350697 0.3214051
v -0.06848027 0.1354211 0.2740779
v -0.02987315 0.14985 0.33776
v -0.0284111 0.1314653 0.3191962
v -0.05022705 0.125258 0.2812418
v 0.003202379 0.1345031 0.3274944
v 0.008680408 0.1560357 0.351856
v 0.02726762 0.1517547 0.329872
v 0.02739966 0.1710887 0.346807
v 0.01849165 0.1346577 0.2822853
v -0.000528681 0.1248217 0.2859319
v -0.02520018 0.1247827 0.2831943
v -0.06126321 0.1183537 0.241227
v -0.04491424 0.1100763 0.2491139
v -0.02240939 0.1102446 0.2518248
v -5.677434E-05 0.1096827 0.253349
v -0.06514809 0.144252 0.224167
v -0.07283111 0.164445 0.2557053
v 0.01723735 0.1176648 0.2486354
v 0.02656553 0.1635724 0.2650833
v -0.05774247 0.1704168 0.2087616
v -0.06457958 0.1931025 0.2381081
v 0.02456682 0.1434646 0.232634
v 0.0223924 0.1923391 0.2463155
v -0.06010338 0.09934978 0.2128738
v -0.0431147 0.09020912 0.2201082
v -0.0197874 0.08999576 0.2222957
v -0.06414809 0.1263253 0.1955405
v 0.003273208 0.0898019 0.2244875
v -0.0564625 0.1531892 0.1793008
v 0.02107535 0.09863735 0.2205344
v -0.04255291 0.06634074 0.189308
v -0.06109399 0.07621494 0.1812309
v -0.0655068 0.1056434 0.1622409
v -0.0170831 0.06618053 0.191816
v -0.05711709 0.1350232 0.1445593
v 0.008116109 0.06589588 0.19409
v 0.02862759 0.1255109 0.2042958
v 0.0275767 0.07543682 0.1895996
v 0.02075812 0.1697276 0.216169
v -0.06723772 0.04447483 0.1435425
v -0.07260346 0.0802671 0.1207938
v -0.04471925 0.03204944 0.1525819
v -0.01383232 0.03154396 0.1551209
v 0.01663887 0.03151058 0.1583722
v -0.06242188 0.115689 0.09913453
v -0.08153738 -0.0003456925 0.0970517
v -0.05110407 -0.01908604 0.1057942
v -0.08881739 0.04825756 0.06772339
v -0.009571077 -0.02117047 0.1069563
v -0.07509254 0.09495689 0.03762284
v 0.04013894 0.04353221 0.1536768
v 0.03100842 -0.01980675 0.1135434
v 0.03583116 0.1047539 0.1718037
v 0.02471622 0.1524762 0.1869614
v -0.0798309 -0.01421811 0.05730714
v -0.09048742 0.01974155 0.02183289
v -0.05606323 -0.04288205 0.05391587
v -0.07445728 0.06524432 0.007756203
v -0.004584682 -0.04661351 0.05351746
v -0.05395233 0.004844546 0.001914681
v -0.04826909 0.0723732 -0.01795654
v 0.0008413103 0.0005640746 0.0009961014
v -0.04251105 0.1079839 0.02655503
v 0.003209389 0.06864173 -0.01835494
v -0.03829817 0.1270017 0.09337205
v -0.0009780237 0.1058995 0.02771821
v -0.03725045 0.1447514 0.1404129
v -0.007411215 0.1264959 0.09590989
v -0.03826018 0.1619947 0.1753435
v -0.01178064 0.1445914 0.1429187
v -0.04021991 0.1794937 0.2058275
v -0.01493288 0.1617811 0.177532
v -0.04502609 0.2021666 0.2332823
v -0.08059657 0.2276427 0.272511
v -0.01771506 0.1796619 0.2085384
v -0.05457531 0.2349318 0.2591318
v -0.08419101 0.2344031 0.2970296
v -0.01999929 0.2016913 0.2352348
v 0.01341857 0.1443065 0.1451938
v 0.008127592 0.1615875 0.1797217
v 0.004637525 0.1790998 0.2100604
v 0.004672172 0.2017302 0.2379735
v -0.0216579 0.2313274 0.256924
v -0.0646194 0.2469719 0.2880905
v 0.02305991 0.1264628 0.09916123
v 0.03960148 0.1072632 0.03430527
v 0.0531837 0.07148265 -0.008383019
v 0.0539472 0.003897128 0.01209702
v 0.0453896 -0.04377259 0.06348938
v 0.06215954 -0.001607137 0.1106114
v 0.05011273 0.07919017 0.1323743
v 0.03155363 0.1342446 0.152927
v 0.04495481 0.1147461 0.1092677
v 0.009955538 0.2343652 0.2652211
v 0.03233248 0.2266515 0.2831676
v 0.07540763 0.04681613 0.08322175
v 0.06860434 0.09369545 0.05118256
v 0.01478275 0.2462747 0.2955844
v 0.03161244 0.2333865 0.3079585
v -0.02377077 0.2400889 0.2814875
v 0.06795634 -0.01551533 0.07125352
v 0.08544331 0.01819679 0.03843461
v 0.07332988 0.06394684 0.02170151
v 0.03166852 0.2033212 0.3335164
v 0.03233248 0.2266515 0.2831676
v 0.01344921 0.2067287 0.3328403
v 0.03754042 0.1907927 0.3099079
v 0.0223924 0.1923391 0.2463155
v 0.02656553 0.1635724 0.2650833
v 0.02726762 0.1517547 0.329872
v 0.01849165 0.1346577 0.2822853
v 0.02739966 0.1710887 0.346807
v 0.008680408 0.1560357 0.351856
v -0.02741778 0.1994936 0.3168111
v -0.02987315 0.14985 0.33776
v -0.07072184 0.1567327 0.3443631
v -0.07091017 0.2074695 0.3248796
v -0.08840393 0.1721053 0.335878
v -0.089712 0.2043872 0.3220641
v -0.0856614 0.1527462 0.3192154
v -0.09152135 0.191926 0.2977282
v -0.06848027 0.1354211 0.2740779
v -0.08059657 0.2276427 0.272511
v -0.07283111 0.164445 0.2557053
v -0.06457958 0.1931025 0.2381081
vt 0.375 0.875
vt 0.375 1
vt 0.4382324 1
vt 0.4382324 0.875
vt 0.375 0.75
vt 0.5014648 1
vt 0.5009766 0.875
vt 0.4382324 0.78125
vt 0.5629883 0.875
vt 0.5629883 1
vt 0.625 0.875
vt 0.625 1
vt 0.625 0.75
vt 0.5629883 0.78125
vt 0.5009766 0.78125
vt 0.3908691 0.71875
vt 0.4382324 0.75
vt 0.5009766 0.75
vt 0.5629883 0.75
vt 0.375 0.625
vt 0.375 0.625
vt 0.609375 0.71875
vt 0.625 0.625
vt 0.3908691 0.53125
vt 0.375 0.5
vt 0.625 0.625
vt 0.625 0.5
vt 0.3908691 0.71875
vt 0.4382324 0.75
vt 0.5009766 0.75
vt 0.375 0.625
vt 0.5629883 0.75
vt 0.3908691 0.53125
vt 0.609375 0.71875
vt 0.4382324 0.75
vt 0.3908691 0.71875
vt 0.375 0.625
vt 0.5009766 0.75
vt 0.3908691 0.53125
vt 0.5629883 0.75
vt 0.625 0.625
vt 0.609375 0.71875
vt 0.609375 0.53125
vt 0.3908691 0.71875
vt 0.375 0.625
vt 0.4382324 0.75
vt 0.5009766 0.75
vt 0.5629883 0.75
vt 0.3908691 0.53125
vt 0.3908691 0.71875
vt 0.4382324 0.75
vt 0.375 0.625
vt 0.5009766 0.75
vt 0.3908691 0.53125
vt 0.609375 0.71875
vt 0.5629883 0.75
vt 0.625 0.625
vt 0.609375 0.53125
vt 0.4030762 0.6943359
vt 0.3908691 0.625
vt 0.4382324 0.71875
vt 0.4030762 0.5556641
vt 0.5009766 0.71875
vt 0.4382324 0.625
vt 0.4382324 0.53125
vt 0.5009766 0.625
vt 0.4382324 0.5
vt 0.5009766 0.53125
vt 0.4382324 0.5
vt 0.5009766 0.5
vt 0.4382324 0.5
vt 0.5009766 0.5
vt 0.4382324 0.5
vt 0.5009766 0.5
vt 0.4382324 0.5
vt 0.5009766 0.5
vt 0.4382324 0.46875
vt 0.375 0.375
vt 0.5009766 0.5
vt 0.4382324 0.375
vt 0.375 0.25
vt 0.5009766 0.46875
vt 0.5629883 0.5
vt 0.5629883 0.5
vt 0.5629883 0.5
vt 0.5629883 0.46875
vt 0.5009766 0.375
vt 0.4382324 0.25
vt 0.5629883 0.5
vt 0.5629883 0.5
vt 0.5629883 0.53125
vt 0.5629883 0.625
vt 0.5629883 0.71875
vt 0.609375 0.71875
vt 0.625 0.625
vt 0.609375 0.53125
vt 0.609375 0.53125
vt 0.5629883 0.375
vt 0.625 0.375
vt 0.625 0.625
vt 0.609375 0.53125
vt 0.5629883 0.25
vt 0.625 0.25
vt 0.5009766 0.25
vt 0.5976563 0.6943359
vt 0.609375 0.625
vt 0.5976563 0.5556641
vt 0.640625 0.125
vt 0.75 0.25
vt 0.5629883 0.125
vt 0.75 0.125
vt 0.875 0.25
vt 0.875 0.125
vt 0.75 0
vt 0.875 0
vt 0.625 0
vt 0.5629883 0
vt 0.5009766 0.125
vt 0.5014648 0
vt 0.4382324 0
vt 0.4382324 0.125
vt 0.375 0
vt 0.3596191 0.125
vt 0.25 0
vt 0.25 0.125
vt 0.125 0
vt 0.25 0.25
vt 0.125 0.125
vt 0.125 0.25
vn -0.8857422 -0.4638672 0.01535797
vn -0.7866211 -0.002717972 0.6176758
vn -0.02032471 -0.001250267 1
vn -0.3068848 -0.8745117 0.3759766
vn -0.8647461 -0.4978027 -0.06988525
vn -0.09399414 -0.01832581 0.9956055
vn -0.0475769 -0.9052734 0.4216309
vn -0.3122559 -0.9208984 0.2341309
vn 0.2202148 -0.878418 0.4238281
vn -0.168457 0.00171566 0.9858398
vn 0.8637695 -0.4733887 0.1727295
vn 0.6708984 -0.01695251 0.7412109
vn 0.8583984 -0.5058594 0.08813477
vn 0.2514648 -0.9248047 0.2854004
vn -0.03656006 -0.9536133 0.2983398
vn -0.894043 -0.4291992 0.1281738
vn -0.2978516 -0.8442383 0.4460449
vn -0.05380249 -0.8706055 0.4890137
vn 0.1981201 -0.8476563 0.4921875
vn -0.9907227 -0.01664734 -0.1341553
vn -0.9521484 -0.112915 -0.2841797
vn 0.8520508 -0.4372559 0.2883301
vn 0.9863281 -0.1298828 -0.1013184
vn -0.8388672 0.3881836 -0.3818359
vn -0.8149414 0.237915 -0.5288086
vn 0.9980469 -0.03411865 0.05352783
vn 0.9067383 0.2156982 -0.3618164
vn -0.9008789 -0.3554688 0.2493896
vn -0.3068848 -0.7729492 0.5551758
vn -0.06262207 -0.8061523 0.5878906
vn -0.9985352 0.05178833 -0.02519226
vn 0.1878662 -0.7763672 0.6015625
vn -0.8452148 0.465332 -0.2626953
vn 0.8369141 -0.3635254 0.4089355
vn -0.307373 -0.7138672 0.6289063
vn -0.8950195 -0.2949219 0.3342285
vn -0.9931641 0.1016235 0.05529785
vn -0.06835938 -0.753418 0.6542969
vn -0.840332 0.5141602 -0.1706543
vn 0.1755371 -0.7167969 0.6748047
vn 0.9863281 0.03436279 0.1621094
vn 0.8164063 -0.3027344 0.4914551
vn 0.90625 0.3657227 -0.2126465
vn -0.8706055 -0.230957 0.4343262
vn -0.9755859 0.1600342 0.1508789
vn -0.291748 -0.6479492 0.7036133
vn -0.0737915 -0.6928711 0.7172852
vn 0.1467285 -0.6503906 0.7456055
vn -0.8164063 0.5737305 -0.06762695
vn -0.8754883 -0.324707 0.3579102
vn -0.2915039 -0.765625 0.5737305
vn -0.9892578 0.1194458 0.08422852
vn -0.06176758 -0.8129883 0.5786133
vn -0.8164063 0.5463867 -0.1855469
vn 0.7749023 -0.2384033 0.5854492
vn 0.1687012 -0.7680664 0.6176758
vn 0.9667969 0.08441162 0.2402344
vn 0.8916016 0.4428711 -0.09423828
vn -0.8540039 -0.5126953 -0.08746338
vn -0.8974609 -0.1881104 -0.3989258
vn -0.2993164 -0.9238281 -0.2388916
vn -0.8037109 0.2277832 -0.5493164
vn 0.01794434 -0.9599609 -0.279541
vn -0.2724609 -0.4958496 -0.824707
vn -0.2220459 0.2172852 -0.9506836
vn 0.07501221 -0.53125 -0.84375
vn -0.180542 0.875 -0.4494629
vn 0.09405518 0.1656494 -0.9814453
vn -0.1843262 0.9399414 -0.2866211
vn 0.0526123 0.8779297 -0.4760742
vn -0.197998 0.9033203 -0.380127
vn 0.03741455 0.9506836 -0.3078613
vn -0.196167 0.862793 -0.4655762
vn 0.04486084 0.9199219 -0.3896484
vn -0.1868896 0.7954102 -0.5766602
vn 0.05172729 0.8833008 -0.4660645
vn -0.2067871 0.640625 -0.7397461
vn -0.8369141 0.3010254 -0.4572754
vn 0.06069946 0.8217773 -0.5664063
vn -0.1972656 0.746582 -0.6352539
vn -0.7480469 0.6201172 0.2352295
vn 0.07434082 0.6855469 -0.7241211
vn 0.2849121 0.8989258 -0.3334961
vn 0.2983398 0.8579102 -0.4179688
vn 0.3088379 0.7900391 -0.5297852
vn 0.3566895 0.6333008 -0.6865234
vn 0.06616211 0.7758789 -0.6274414
vn 0.03735352 0.8964844 0.4416504
vn 0.2541504 0.9360352 -0.2440186
vn 0.279541 0.8706055 -0.4047852
vn 0.4033203 0.2122803 -0.8901367
vn 0.4179688 -0.5009766 -0.7578125
vn 0.3261719 -0.9282227 -0.178833
vn 0.7915039 -0.3310547 0.5136719
vn 0.9326172 0.1433105 0.3308105
vn 0.8706055 0.4921875 -0.004566193
vn 0.828125 0.5527344 0.09216309
vn 0.329834 0.7402344 -0.5859375
vn 0.9165039 0.2758789 -0.2900391
vn 0.9570313 0.1038208 0.2702637
vn 0.8496094 0.5268555 -0.02160645
vn -0.1052246 0.8969727 0.4294434
vn 0.7148438 0.5957031 0.3657227
vn -0.03134155 0.9082031 0.4177246
vn 0.8520508 -0.5170898 0.07946777
vn 0.956543 -0.1981201 -0.2141113
vn 0.9018555 0.2133789 -0.3762207
vn 0.7207031 0.3193359 0.6152344
vn 0.9165039 0.2758789 -0.2900391
vn -0.2746582 0.5253906 0.8051758
vn 0.9946289 -0.09277344 -0.04556274
vn 0.9067383 0.2156982 -0.3618164
vn 0.9863281 -0.1298828 -0.1013184
vn 0.8637695 -0.4733887 0.1727295
vn 0.8583984 -0.5058594 0.08813477
vn 0.6708984 -0.01695251 0.7412109
vn -0.168457 0.00171566 0.9858398
vn -0.07519531 0.53125 0.84375
vn -0.09399414 -0.01832581 0.9956055
vn -0.02032471 -0.001250267 1
vn 0.125 0.5219727 0.84375
vn -0.7866211 -0.002717972 0.6176758
vn -0.8066406 0.340332 0.4831543
vn -0.8857422 -0.4638672 0.01535797
vn -0.9707031 -0.0736084 -0.2282715
vn -0.8647461 -0.4978027 -0.06988525
vn -0.8369141 0.3010254 -0.4572754
vn -0.9521484 -0.112915 -0.2841797
vn -0.8149414 0.237915 -0.5288086
g FingerSeg2_0
f 3/3/3 2/2/2 1/1/1
f 4/4/4 3/3/3 1/1/1
f 4/4/4 1/1/1 5/5/5
f 6/6/6 3/3/3 4/4/4
f 7/7/7 6/6/6 4/4/4
f 8/8/8 4/4/4 5/5/5
f 7/7/7 4/4/4 8/8/8
f 7/7/7 9/9/9 6/6/6
f 9/9/9 10/10/10 6/6/6
f 9/9/9 11/11/11 10/10/10
f 11/11/11 12/12/12 10/10/10
f 13/13/13 11/11/11 9/9/9
f 14/14/14 9/9/9 7/7/7
f 14/14/14 13/13/13 9/9/9
f 15/15/15 7/7/7 8/8/8
f 15/15/15 14/14/14 7/7/7
f 5/5/5 16/16/16 8/8/8
f 8/8/8 17/17/17 15/15/15
f 16/16/16 17/17/17 8/8/8
f 15/15/15 18/18/18 14/14/14
f 17/17/17 18/18/18 15/15/15
f 14/14/14 19/19/19 13/13/13
f 18/18/18 19/19/19 14/14/14
f 20/20/20 16/16/16 5/5/5
f 21/21/21 20/20/20 5/5/5
f 19/19/19 22/22/22 13/13/13
f 13/13/13 22/22/22 23/23/23
f 24/24/24 20/20/20 21/21/21
f 25/25/25 24/24/24 21/21/21
f 22/22/22 26/26/26 23/23/23
f 23/23/23 26/26/26 27/27/27
f 16/16/16 28/28/28 17/17/17
f 17/17/17 29/29/29 18/18/18
f 28/28/28 29/29/29 17/17/17
f 18/18/18 30/30/30 19/19/19
f 29/29/29 30/30/30 18/18/18
f 20/20/20 31/31/31 16/16/16
f 31/31/31 28/28/28 16/16/16
f 19/19/19 32/32/32 22/22/22
f 30/30/30 32/32/32 19/19/19
f 24/24/24 33/33/33 20/20/20
f 33/33/33 31/31/31 20/20/20
f 22/22/22 34/34/34 26/26/26
f 32/32/32 34/34/34 22/22/22
f 29/29/29 35/35/35 30/30/30
f 28/28/28 36/36/36 29/29/29
f 36/36/36 35/35/35 29/29/29
f 31/31/31 37/37/37 28/28/28
f 37/37/37 36/36/36 28/28/28
f 30/30/30 38/38/38 32/32/32
f 35/35/35 38/38/38 30/30/30
f 33/33/33 39/39/39 31/31/31
f 39/39/39 37/37/37 31/31/31
f 32/32/32 40/40/40 34/34/34
f 38/38/38 40/40/40 32/32/32
f 34/34/34 41/41/41 26/26/26
f 40/40/40 42/42/42 34/34/34
f 34/34/34 42/42/42 41/41/41
f 26/26/26 41/41/41 43/43/43
f 26/26/26 43/43/43 27/27/27
f 36/36/36 44/44/44 35/35/35
f 37/37/37 45/45/45 36/36/36
f 45/45/45 44/44/44 36/36/36
f 35/35/35 46/46/46 38/38/38
f 44/44/44 46/46/46 35/35/35
f 38/38/38 47/47/47 40/40/40
f 46/46/46 47/47/47 38/38/38
f 40/40/40 48/48/48 42/42/42
f 47/47/47 48/48/48 40/40/40
f 49/49/49 45/45/45 37/37/37
f 39/39/39 49/49/49 37/37/37
f 44/44/44 50/50/50 46/46/46
f 46/46/46 51/51/51 47/47/47
f 50/50/50 51/51/51 46/46/46
f 45/45/45 52/52/52 44/44/44
f 52/52/52 50/50/50 44/44/44
f 47/47/47 53/53/53 48/48/48
f 51/51/51 53/53/53 47/47/47
f 49/49/49 54/54/54 45/45/45
f 54/54/54 52/52/52 45/45/45
f 48/48/48 55/55/55 42/42/42
f 53/53/53 56/56/56 48/48/48
f 48/48/48 56/56/56 55/55/55
f 42/42/42 55/55/55 57/57/57
f 42/42/42 57/57/57 41/41/41
f 41/41/41 57/57/57 58/58/58
f 41/41/41 58/58/58 43/43/43
f 50/50/50 59/59/59 51/51/51
f 52/52/52 60/60/60 50/50/50
f 60/60/60 59/59/59 50/50/50
f 59/59/59 61/61/61 51/51/51
f 51/51/51 61/61/61 53/53/53
f 61/61/61 59/59/59 60/60/60
f 62/62/62 60/60/60 52/52/52
f 54/54/54 62/62/62 52/52/52
f 61/61/61 63/63/63 53/53/53
f 53/53/53 63/63/63 56/56/56
f 64/64/64 61/61/61 60/60/60
f 64/64/64 60/60/60 62/62/62
f 63/63/63 61/61/61 64/64/64
f 65/65/65 62/62/62 54/54/54
f 65/65/65 64/64/64 62/62/62
f 66/66/66 63/63/63 64/64/64
f 66/66/66 64/64/64 65/65/65
f 67/67/67 65/65/65 54/54/54
f 67/67/67 54/54/54 49/49/49
f 68/68/68 66/66/66 65/65/65
f 68/68/68 65/65/65 67/67/67
f 69/69/69 67/67/67 49/49/49
f 69/69/69 49/49/49 39/39/39
f 70/70/70 68/68/68 67/67/67
f 70/70/70 67/67/67 69/69/69
f 71/71/71 69/69/69 39/39/39
f 71/71/71 39/39/39 33/33/33
f 72/72/72 70/70/70 69/69/69
f 72/72/72 69/69/69 71/71/71
f 73/73/73 71/71/71 33/33/33
f 73/73/73 33/33/33 24/24/24
f 74/74/74 72/72/72 71/71/71
f 74/74/74 71/71/71 73/73/73
f 75/75/75 73/73/73 24/24/24
f 75/75/75 24/24/24 25/25/25
f 76/76/76 74/74/74 73/73/73
f 76/76/76 73/73/73 75/75/75
f 77/77/77 75/75/75 25/25/25
f 77/77/77 25/25/25 78/78/78
f 79/79/79 76/76/76 75/75/75
f 79/79/79 75/75/75 77/77/77
f 80/80/80 77/77/77 78/78/78
f 80/80/80 78/78/78 81/81/81
f 82/82/82 79/79/79 77/77/77
f 82/82/82 77/77/77 80/80/80
f 74/74/74 83/83/83 72/72/72
f 76/76/76 84/84/84 74/74/74
f 84/84/84 83/83/83 74/74/74
f 79/79/79 85/85/85 76/76/76
f 85/85/85 84/84/84 76/76/76
f 82/82/82 86/86/86 79/79/79
f 86/86/86 85/85/85 79/79/79
f 87/87/87 82/82/82 80/80/80
f 86/86/86 82/82/82 87/87/87
f 88/88/88 80/80/80 81/81/81
f 87/87/87 80/80/80 88/88/88
f 83/83/83 89/89/89 72/72/72
f 72/72/72 89/89/89 70/70/70
f 89/89/89 90/90/90 70/70/70
f 70/70/70 90/90/90 68/68/68
f 90/90/90 91/91/91 68/68/68
f 68/68/68 91/91/91 66/66/66
f 91/91/91 92/92/92 66/66/66
f 66/66/66 92/92/92 63/63/63
f 92/92/92 93/93/93 63/63/63
f 63/63/63 93/93/93 56/56/56
f 56/56/56 93/93/93 94/94/94
f 56/56/56 94/94/94 55/55/55
f 55/55/55 94/94/94 95/95/95
f 55/55/55 95/95/95 57/57/57
f 57/57/57 95/95/95 96/96/96
f 57/57/57 96/96/96 58/58/58
f 83/83/83 96/96/96 89/89/89
f 58/58/58 96/96/96 83/83/83
f 84/84/84 58/58/58 83/83/83
f 43/43/43 58/58/58 84/84/84
f 85/85/85 43/43/43 84/84/84
f 27/27/27 43/43/43 85/85/85
f 86/86/86 27/27/27 85/85/85
f 96/96/96 97/97/97 89/89/89
f 95/95/95 97/97/97 96/96/96
f 89/89/89 97/97/97 90/90/90
f 27/27/27 86/86/86 98/98/98
f 99/99/99 27/27/27 98/98/98
f 98/98/98 86/86/86 87/87/87
f 95/95/95 100/100/100 97/97/97
f 94/94/94 100/100/100 95/95/95
f 97/97/97 101/101/101 90/90/90
f 100/100/100 101/101/101 97/97/97
f 90/90/90 101/101/101 91/91/91
f 99/99/99 98/98/98 102/102/102
f 103/103/103 99/99/99 102/102/102
f 98/98/98 87/87/87 104/104/104
f 102/102/102 98/98/98 104/104/104
f 104/104/104 87/87/87 88/88/88
f 94/94/94 105/105/105 100/100/100
f 93/93/93 105/105/105 94/94/94
f 105/105/105 106/106/106 100/100/100
f 106/106/106 105/105/105 93/93/93
f 100/100/100 106/106/106 101/101/101
f 92/92/92 106/106/106 93/93/93
f 101/101/101 107/107/107 91/91/91
f 106/106/106 107/107/107 101/101/101
f 107/107/107 106/106/106 92/92/92
f 91/91/91 107/107/107 92/92/92
f 108/108/108 103/103/103 102/102/102
f 109/109/109 103/103/103 108/108/108
f 110/110/110 102/102/102 104/104/104
f 110/110/110 108/108/108 102/102/102
f 111/111/111 109/109/109 108/108/108
f 112/112/112 109/109/109 111/111/111
f 113/113/113 112/112/112 111/111/111
f 113/113/113 111/111/111 114/114/114
f 115/115/115 113/113/113 114/114/114
f 114/114/114 111/111/111 116/116/116
f 111/111/111 108/108/108 116/116/116
f 116/116/116 108/108/108 110/110/110
f 117/117/117 116/116/116 110/110/110
f 117/117/117 110/110/110 118/118/118
f 118/118/118 110/110/110 104/104/104
f 119/119/119 117/117/117 118/118/118
f 119/119/119 118/118/118 120/120/120
f 118/118/118 104/104/104 121/121/121
f 118/118/118 121/121/121 120/120/120
f 104/104/104 88/88/88 121/121/121
f 120/120/120 121/121/121 122/122/122
f 121/121/121 88/88/88 123/123/123
f 121/121/121 123/123/123 122/122/122
f 88/88/88 81/81/81 123/123/123
f 122/122/122 123/123/123 124/124/124
f 123/123/123 81/81/81 125/125/125
f 123/123/123 125/125/125 124/124/124
f 124/124/124 125/125/125 126/126/126
f 81/81/81 127/127/127 125/125/125
f 125/125/125 128/128/128 126/126/126
f 125/125/125 127/127/127 128/128/128
f 127/127/127 129/129/129 128/128/128
