g FingerSeg3
v -0.02568946 0.0718063 0.1733319
v -0.0332927 0.07079506 0.2003696
v -0.001324213 0.05862202 0.2051259
v -0.0008252701 0.06233853 0.1770323
v 0.03137727 0.06904683 0.2012871
v 0.02460896 0.07044659 0.1740454
v -0.01728259 0.07545712 0.1498007
v -0.0002948174 0.06907567 0.1524774
v 0.01708175 0.07452813 0.1502883
v -0.01957944 0.06966794 0.1368007
v -0.0002946839 0.06269448 0.1402983
v -0.02542103 0.08918213 0.1270451
v -0.0224265 0.09336273 0.1424222
v 0.01943 0.06861344 0.1373545
v 0.02339257 0.09212425 0.1430727
v -0.01825965 0.1083452 0.1174732
v -0.01611581 0.1109589 0.1352081
v 0.02659138 0.08777622 0.1277831
v 0.0182486 0.1100299 0.1356952
v -0.02304267 0.05859398 0.1263006
v -0.02984903 0.08169037 0.1135318
v -0.0004944214 0.05034653 0.1308438
v -0.02144577 0.1043755 0.1009799
v 0.02258615 0.05736031 0.1269473
v 0.001465036 0.1142639 0.1145284
v 0.001634733 0.1113893 0.09708498
v 0.001260892 0.1164116 0.1330196
v -0.0239794 0.1245351 0.1532753
v 0.001454822 0.1326432 0.1502889
v -0.03109419 0.1385899 0.1745815
v -0.0296792 0.03976364 0.1119168
v -0.03835957 0.06946819 0.09507426
v -0.0276134 0.09864751 0.07850832
v -0.0008836159 0.0291618 0.1178977
v 0.001870853 0.1076739 0.07335413
v -0.03490949 0.09143105 0.05302843
v -0.04840874 0.05468174 0.07389086
v -0.03751109 0.01727314 0.09510096
v 0.002119457 0.1028011 0.04653483
v 0.02860064 0.03818791 0.1127419
v -0.001349448 0.003923839 0.1026317
v 0.03098928 0.08004574 0.1143959
v 0.02074986 0.1072904 0.1180254
v -0.06071129 0.039585 0.05215632
v -0.04389321 0.08397667 0.02695468
v 0.002369463 0.09767445 0.01912966
v -0.04703688 -0.005631253 0.07779162
v 0.03934688 0.06736721 0.09617601
v 0.03567944 0.01529419 0.09613863
v 0.02418298 0.1031419 0.1016282
v -0.001822089 -0.02180225 0.08691385
v -0.0501551 0.07523896 0.00400248
v -0.0692741 0.02560684 0.03218096
v 0.002514793 0.09053116 -0.004734703
v -0.05367047 -0.02496387 0.06085131
v 0.02631901 0.1231754 0.1539888
v 0.03066644 0.09707177 0.07933451
v 0.001607362 0.1490147 0.1707422
v 0.03357592 0.1368417 0.1754991
v 0.0382811 0.08945183 0.05406611
v 0.04917868 0.05204323 0.07527567
v 0.04758425 0.08150318 0.0282519
v 0.06125866 0.03628746 0.05388666
v 0.04444065 -0.008104207 0.07908884
v 0.0540129 0.0724226 0.005480217
v 0.06961653 0.02185162 0.03415057
v 0.05049754 -0.02778049 0.06232851
v -0.002172364 -0.0430727 0.07106463
v 0.04195194 0.05019299 -0.004289833
v 0.05408407 0.01087326 0.0180028
v 0.03921864 -0.02771694 0.03991198
v -0.001733168 -0.03960693 0.04670466
v -0.041774 -0.02552704 0.03876375
v 0.001911174 0.06427262 -0.01223074
v -0.05390612 0.01379296 0.01647112
v -0.0390407 0.05238263 -0.005437523
v 0.02383297 -0.01756103 0.0232622
v -0.0009230026 -0.02246528 0.02225657
v 0.02842046 0.004072307 0.007167305
v -0.02539646 -0.01622989 0.02256419
v -0.0283506 0.005607188 0.006360878
v 1.687201E-05 0.002341693 0.003272423
v -0.02373514 0.0311258 -0.00430265
v 0.0009927956 0.03214478 -0.008726249
v 0.02549436 0.02979466 -0.003604637
v 0.02460896 0.07044659 0.1740454
v 0.02339257 0.09212425 0.1430727
v 0.01708175 0.07452813 0.1502883
v 0.03384702 0.09658417 0.1641365
v 0.0182486 0.1100299 0.1356952
v 0.02631901 0.1231754 0.1539888
v 0.03137727 0.06904683 0.2012871
v 0.04325498 0.1026529 0.1885456
v 0.03842276 0.1123712 0.2124569
v 0.02981048 0.1427916 0.2008481
v 0.02785416 0.08246849 0.2237928
v -0.001324213 0.05862202 0.2051259
v 0.001365034 0.1536239 0.1966157
v -0.001243437 0.07319245 0.2272092
v -0.0332927 0.07079506 0.2003696
v -0.02773249 0.1443476 0.2000315
v 0.01938774 0.1453236 0.2272279
v 0.0228953 0.1278276 0.2393611
v 0.0008582131 0.1523595 0.2299414
v 0.01807089 0.09957142 0.2328579
v 7.401618E-05 0.1312496 0.2449954
v -0.0006929573 0.1045296 0.2481352
v -0.02968881 0.08402421 0.2229763
v -0.01793995 0.1463327 0.2266976
v -0.02273004 0.1290613 0.2387139
v -0.019209 0.1072015 0.2415828
v -0.03830116 0.1144455 0.2113685
v -0.04297183 0.1049841 0.1873231
v -0.02568946 0.0718063 0.1733319
v -0.03321747 0.09839729 0.1631848
v -0.01728259 0.07545712 0.1498007
v -0.0239794 0.1245351 0.1532753
v -0.0224265 0.09336273 0.1424222
v -0.01611581 0.1109589 0.1352081
vt 0.375 0.875
vt 0.375 1
vt 0.5 1
vt 0.5 0.875
vt 0.625 1
vt 0.625 0.875
vt 0.375 0.75
vt 0.5 0.78125
vt 0.625 0.75
vt 0.40625 0.71875
vt 0.5 0.75
vt 0.375 0.625
vt 0.375 0.625
vt 0.59375 0.71875
vt 0.625 0.625
vt 0.40625 0.53125
vt 0.375 0.5
vt 0.625 0.625
vt 0.625 0.5
vt 0.40625 0.71875
vt 0.375 0.625
vt 0.5 0.75
vt 0.40625 0.53125
vt 0.59375 0.71875
vt 0.5 0.5
vt 0.5 0.5
vt 0.5 0.46875
vt 0.375 0.375
vt 0.5 0.375
vt 0.375 0.25
vt 0.40625 0.71875
vt 0.375 0.625
vt 0.40625 0.53125
vt 0.5 0.75
vt 0.5 0.5
vt 0.40625 0.53125
vt 0.375 0.625
vt 0.40625 0.71875
vt 0.5 0.5
vt 0.59375 0.71875
vt 0.5 0.75
vt 0.625 0.625
vt 0.59375 0.53125
vt 0.375 0.625
vt 0.40625 0.53125
vt 0.5 0.5
vt 0.40625 0.71875
vt 0.625 0.625
vt 0.59375 0.71875
vt 0.59375 0.53125
vt 0.5 0.75
vt 0.40625 0.53125
vt 0.375 0.625
vt 0.5 0.5
vt 0.40625 0.71875
vt 0.625 0.375
vt 0.59375 0.53125
vt 0.5 0.28125
vt 0.625 0.25
vt 0.59375 0.53125
vt 0.625 0.625
vt 0.59375 0.53125
vt 0.625 0.625
vt 0.59375 0.71875
vt 0.59375 0.53125
vt 0.625 0.625
vt 0.59375 0.71875
vt 0.5 0.75
vt 0.59375 0.53125
vt 0.625 0.625
vt 0.59375 0.71875
vt 0.5 0.75
vt 0.40625 0.71875
vt 0.5 0.5
vt 0.375 0.625
vt 0.40625 0.53125
vt 0.5693359 0.6943359
vt 0.5 0.71875
vt 0.59375 0.625
vt 0.4306641 0.6943359
vt 0.40625 0.625
vt 0.5 0.625
vt 0.4306641 0.5556641
vt 0.5 0.53125
vt 0.5693359 0.5556641
vt 0.75 0
vt 0.875 0.125
vt 0.875 0
vt 0.75 0.125
vt 0.875 0.25
vt 0.75 0.25
vt 0.625 0
vt 0.65625 0.125
vt 0.625 0.125
vt 0.59375 0.21875
vt 0.59375 0.03125
vt 0.5 0
vt 0.5 0.25
vt 0.5 0
vt 0.375 0
vt 0.40625 0.21875
vt 0.5693359 0.194458
vt 0.59375 0.125
vt 0.5 0.21875
vt 0.5693359 0.05554199
vt 0.5 0.125
vt 0.5 0.03125
vt 0.40625 0.03125
vt 0.4306641 0.194458
vt 0.40625 0.125
vt 0.4306641 0.05554199
vt 0.375 0.125
vt 0.34375 0.125
vt 0.25 0
vt 0.25 0.125
vt 0.125 0
vt 0.25 0.25
vt 0.125 0.125
vt 0.125 0.25
vn -0.6699219 -0.6962891 -0.2573242
vn -0.7470703 -0.652832 0.124939
vn -0.02958679 -0.9716797 0.2336426
vn -0.02409363 -0.9838867 -0.1766357
vn 0.7070313 -0.6918945 0.1455078
vn 0.6386719 -0.7314453 -0.2387695
vn -0.7280273 -0.6738281 -0.1258545
vn -0.02632141 -0.9985352 -0.04766846
vn 0.6938477 -0.7124023 -0.1057129
vn -0.7685547 -0.4033203 0.4970703
vn -0.02957153 -0.7436523 0.6679688
vn -0.9677734 0.1638184 0.1906738
vn -0.9711914 -0.03982544 -0.2349854
vn 0.730957 -0.4438477 0.5180664
vn 0.9736328 -0.09240723 -0.2073975
vn -0.675293 0.7368164 -0.03433228
vn -0.7041016 0.5791016 -0.4111328
vn 0.9697266 0.1113892 0.2181396
vn 0.7456055 0.5400391 -0.3903809
vn -0.7099609 -0.284668 0.644043
vn -0.9418945 0.1976318 0.2722168
vn -0.0267334 -0.5522461 0.8334961
vn -0.6811523 0.7319336 -0.01229095
vn 0.675293 -0.3220215 0.6635742
vn 0.02874756 0.9897461 -0.1413574
vn 0.02894592 0.9868164 -0.1595459
vn 0.03051758 0.8769531 -0.4794922
vn -0.6728516 0.4689941 -0.5722656
vn 0.0297699 0.7617188 -0.6474609
vn -0.7275391 0.6152344 -0.3037109
vn -0.6967773 -0.2600098 0.668457
vn -0.9321289 0.2067871 0.2973633
vn -0.6865234 0.7270508 -0.004520416
vn -0.02615356 -0.5195313 0.8540039
vn 0.02905273 0.9848633 -0.1705322
vn -0.6782227 0.7348633 0.008392334
vn -0.9189453 0.2198486 0.3271484
vn -0.6806641 -0.2514648 0.6884766
vn 0.02909851 0.9838867 -0.1765137
vn 0.6625977 -0.296875 0.6875
vn -0.02607727 -0.515625 0.8564453
vn 0.9428711 0.1466064 0.2988281
vn 0.7148438 0.6992188 -0.01462555
vn -0.9301758 0.2062988 0.3039551
vn -0.6865234 0.7260742 -0.03662109
vn 0.02958679 0.972168 -0.232666
vn -0.6914063 -0.2866211 0.6630859
vn 0.9331055 0.1563721 0.3237305
vn 0.6459961 -0.2873535 0.7070313
vn 0.7197266 0.6943359 0.007572174
vn -0.02685547 -0.5585938 0.8291016
vn -0.7070313 0.4936523 -0.5063477
vn -0.9916992 -0.03961182 -0.1229248
vn 0.02931213 0.7207031 -0.6928711
vn -0.7524414 -0.6074219 0.255127
vn 0.7133789 0.4313965 -0.5522461
vn 0.7246094 0.6889648 0.01548004
vn 0.03044128 0.9150391 -0.4018555
vn 0.7680664 0.5751953 -0.2824707
vn 0.7163086 0.6972656 0.02816772
vn 0.9199219 0.170166 0.3532715
vn 0.7255859 0.6879883 -0.01660156
vn 0.9306641 0.1560059 0.3305664
vn 0.65625 -0.322998 0.6821289
vn 0.746582 0.4543457 -0.4858398
vn 0.9912109 -0.09320068 -0.0947876
vn 0.7109375 -0.6469727 0.2758789
vn -0.03050232 -0.8989258 0.4370117
vn 0.486084 -0.03253174 -0.8735352
vn 0.6738281 -0.3869629 -0.6293945
vn 0.4838867 -0.7729492 -0.4101563
vn -0.02137756 -0.9516602 -0.3066406
vn -0.5131836 -0.7460938 -0.4243164
vn 0.01785278 0.1412354 -0.9897461
vn -0.6757813 -0.3505859 -0.6484375
vn -0.4621582 -0.006896973 -0.8867188
vn 0.2568359 -0.6743164 -0.6923828
vn -0.00995636 -0.7280273 -0.6855469
vn 0.309082 -0.4790039 -0.8217773
vn -0.2731934 -0.659668 -0.7001953
vn -0.3112793 -0.4621582 -0.8305664
vn -0.001047134 -0.4946289 -0.8691406
vn -0.2497559 -0.2612305 -0.9326172
vn 0.007461548 -0.2338867 -0.972168
vn 0.2614746 -0.2751465 -0.925293
vn 0.6386719 -0.7314453 -0.2387695
vn 0.9736328 -0.09240723 -0.2073975
vn 0.6938477 -0.7124023 -0.1057129
vn 0.9208984 -0.1623535 -0.3537598
vn 0.7456055 0.5400391 -0.3903809
vn 0.7133789 0.4313965 -0.5522461
vn 0.7070313 -0.6918945 0.1455078
vn 0.9960938 -0.06640625 -0.059021
vn 0.9423828 0.07275391 0.3269043
vn 0.7358398 0.6743164 0.06378174
vn 0.6689453 -0.463623 0.5810547
vn -0.02958679 -0.9716797 0.2336426
vn 0.02807617 0.996582 -0.08026123
vn -0.02424622 -0.7124023 0.7011719
vn -0.7470703 -0.652832 0.124939
vn -0.699707 0.7133789 0.04342651
vn 0.6157227 0.7036133 0.3544922
vn 0.6938477 0.199585 0.6918945
vn 0.01960754 0.9248047 0.3798828
vn 0.5517578 -0.2583008 0.7929688
vn 0.06573486 0.2961426 0.953125
vn 0.02987671 -0.2907715 0.956543
vn -0.7045898 -0.4348145 0.5610352
vn -0.5869141 0.7363281 0.3374023
vn -0.7197266 0.279541 0.6352539
vn -0.5874023 -0.2044678 0.7832031
vn -0.9511719 0.1279297 0.2805176
vn -0.9960938 -0.01252747 -0.08728027
vn -0.6699219 -0.6962891 -0.2573242
vn -0.9179688 -0.1126709 -0.3798828
vn -0.7280273 -0.6738281 -0.1258545
vn -0.6728516 0.4689941 -0.5722656
vn -0.9711914 -0.03982544 -0.2349854
vn -0.7041016 0.5791016 -0.4111328
g FingerSeg3_0
f 3/3/3 2/2/2 1/1/1
f 4/4/4 3/3/3 1/1/1
f 5/5/5 3/3/3 4/4/4
f 6/6/6 5/5/5 4/4/4
f 4/4/4 1/1/1 7/7/7
f 6/6/6 4/4/4 8/8/8
f 8/8/8 4/4/4 7/7/7
f 9/9/9 6/6/6 8/8/8
f 7/7/7 10/10/10 8/8/8
f 8/8/8 11/11/11 9/9/9
f 10/10/10 11/11/11 8/8/8
f 12/12/12 10/10/10 7/7/7
f 13/13/13 12/12/12 7/7/7
f 11/11/11 14/14/14 9/9/9
f 9/9/9 14/14/14 15/15/15
f 16/16/16 12/12/12 13/13/13
f 17/17/17 16/16/16 13/13/13
f 14/14/14 18/18/18 15/15/15
f 15/15/15 18/18/18 19/19/19
f 10/10/10 20/20/20 11/11/11
f 12/12/12 21/21/21 10/10/10
f 21/21/21 20/20/20 10/10/10
f 11/11/11 22/22/22 14/14/14
f 20/20/20 22/22/22 11/11/11
f 16/16/16 23/23/23 12/12/12
f 23/23/23 21/21/21 12/12/12
f 14/14/14 24/24/24 18/18/18
f 22/22/22 24/24/24 14/14/14
f 25/25/25 16/16/16 17/17/17
f 26/26/26 23/23/23 16/16/16
f 25/25/25 26/26/26 16/16/16
f 27/27/27 25/25/25 17/17/17
f 27/27/27 17/17/17 28/28/28
f 29/29/29 27/27/27 28/28/28
f 29/29/29 28/28/28 30/30/30
f 20/20/20 31/31/31 22/22/22
f 21/21/21 32/32/32 20/20/20
f 32/32/32 31/31/31 20/20/20
f 23/23/23 33/33/33 21/21/21
f 33/33/33 32/32/32 21/21/21
f 22/22/22 34/34/34 24/24/24
f 31/31/31 34/34/34 22/22/22
f 26/26/26 35/35/35 23/23/23
f 35/35/35 33/33/33 23/23/23
f 33/33/33 36/36/36 32/32/32
f 32/32/32 37/37/37 31/31/31
f 36/36/36 37/37/37 32/32/32
f 31/31/31 38/38/38 34/34/34
f 37/37/37 38/38/38 31/31/31
f 35/35/35 39/39/39 33/33/33
f 39/39/39 36/36/36 33/33/33
f 34/34/34 40/40/40 24/24/24
f 38/38/38 41/41/41 34/34/34
f 34/34/34 41/41/41 40/40/40
f 24/24/24 40/40/40 42/42/42
f 24/24/24 42/42/42 18/18/18
f 18/18/18 42/42/42 43/43/43
f 18/18/18 43/43/43 19/19/19
f 37/37/37 44/44/44 38/38/38
f 36/36/36 45/45/45 37/37/37
f 45/45/45 44/44/44 37/37/37
f 39/39/39 46/46/46 36/36/36
f 46/46/46 45/45/45 36/36/36
f 38/38/38 47/47/47 41/41/41
f 44/44/44 47/47/47 38/38/38
f 40/40/40 48/48/48 42/42/42
f 41/41/41 49/49/49 40/40/40
f 40/40/40 49/49/49 48/48/48
f 42/42/42 50/50/50 43/43/43
f 42/42/42 48/48/48 50/50/50
f 47/47/47 51/51/51 41/41/41
f 41/41/41 51/51/51 49/49/49
f 45/45/45 52/52/52 44/44/44
f 44/44/44 53/53/53 47/47/47
f 52/52/52 53/53/53 44/44/44
f 46/46/46 54/54/54 45/45/45
f 54/54/54 52/52/52 45/45/45
f 47/47/47 55/55/55 51/51/51
f 53/53/53 55/55/55 47/47/47
f 43/43/43 50/50/50 25/25/25
f 43/43/43 25/25/25 27/27/27
f 19/19/19 43/43/43 27/27/27
f 19/19/19 27/27/27 29/29/29
f 50/50/50 26/26/26 25/25/25
f 56/56/56 19/19/19 29/29/29
f 50/50/50 57/57/57 26/26/26
f 57/57/57 35/35/35 26/26/26
f 48/48/48 57/57/57 50/50/50
f 56/56/56 29/29/29 58/58/58
f 58/58/58 29/29/29 30/30/30
f 59/59/59 56/56/56 58/58/58
f 57/57/57 60/60/60 35/35/35
f 60/60/60 39/39/39 35/35/35
f 48/48/48 61/61/61 57/57/57
f 61/61/61 60/60/60 57/57/57
f 49/49/49 61/61/61 48/48/48
f 60/60/60 62/62/62 39/39/39
f 62/62/62 46/46/46 39/39/39
f 61/61/61 63/63/63 60/60/60
f 63/63/63 62/62/62 60/60/60
f 49/49/49 64/64/64 61/61/61
f 64/64/64 63/63/63 61/61/61
f 51/51/51 64/64/64 49/49/49
f 62/62/62 65/65/65 46/46/46
f 65/65/65 54/54/54 46/46/46
f 63/63/63 66/66/66 62/62/62
f 66/66/66 65/65/65 62/62/62
f 64/64/64 67/67/67 63/63/63
f 67/67/67 66/66/66 63/63/63
f 51/51/51 68/68/68 64/64/64
f 68/68/68 67/67/67 64/64/64
f 55/55/55 68/68/68 51/51/51
f 65/65/65 69/69/69 54/54/54
f 66/66/66 70/70/70 65/65/65
f 70/70/70 69/69/69 65/65/65
f 67/67/67 71/71/71 66/66/66
f 71/71/71 70/70/70 66/66/66
f 68/68/68 72/72/72 67/67/67
f 72/72/72 71/71/71 67/67/67
f 55/55/55 73/73/73 68/68/68
f 73/73/73 72/72/72 68/68/68
f 69/69/69 74/74/74 54/54/54
f 54/54/54 74/74/74 52/52/52
f 75/75/75 73/73/73 55/55/55
f 53/53/53 75/75/75 55/55/55
f 52/52/52 76/76/76 53/53/53
f 74/74/74 76/76/76 52/52/52
f 76/76/76 75/75/75 53/53/53
f 71/71/71 77/77/77 70/70/70
f 72/72/72 78/78/78 71/71/71
f 78/78/78 77/77/77 71/71/71
f 70/70/70 79/79/79 69/69/69
f 77/77/77 79/79/79 70/70/70
f 73/73/73 80/80/80 72/72/72
f 80/80/80 78/78/78 72/72/72
f 81/81/81 80/80/80 73/73/73
f 75/75/75 81/81/81 73/73/73
f 78/78/78 80/80/80 81/81/81
f 77/77/77 78/78/78 82/82/82
f 82/82/82 78/78/78 81/81/81
f 79/79/79 77/77/77 82/82/82
f 83/83/83 81/81/81 75/75/75
f 76/76/76 83/83/83 75/75/75
f 82/82/82 81/81/81 83/83/83
f 84/84/84 83/83/83 76/76/76
f 84/84/84 82/82/82 83/83/83
f 79/79/79 82/82/82 84/84/84
f 74/74/74 84/84/84 76/76/76
f 69/69/69 85/85/85 74/74/74
f 79/79/79 85/85/85 69/69/69
f 85/85/85 79/79/79 84/84/84
f 85/85/85 84/84/84 74/74/74
f 88/88/88 87/87/87 86/86/86
f 87/87/87 89/89/89 86/86/86
f 87/87/87 90/90/90 89/89/89
f 90/90/90 91/91/91 89/89/89
f 86/86/86 89/89/89 92/92/92
f 89/89/89 91/91/91 93/93/93
f 89/89/89 93/93/93 92/92/92
f 91/91/91 59/59/59 93/93/93
f 93/93/93 94/94/94 92/92/92
f 59/59/59 95/95/95 93/93/93
f 95/95/95 94/94/94 93/93/93
f 94/94/94 96/96/96 92/92/92
f 92/92/92 96/96/96 97/97/97
f 98/98/98 95/95/95 59/59/59
f 58/58/58 98/98/98 59/59/59
f 96/96/96 99/99/99 97/97/97
f 97/97/97 99/99/99 100/100/100
f 101/101/101 98/98/98 58/58/58
f 30/30/30 101/101/101 58/58/58
f 95/95/95 102/102/102 94/94/94
f 94/94/94 103/103/103 96/96/96
f 102/102/102 103/103/103 94/94/94
f 98/98/98 104/104/104 95/95/95
f 104/104/104 102/102/102 95/95/95
f 96/96/96 105/105/105 99/99/99
f 103/103/103 105/105/105 96/96/96
f 103/103/103 102/102/102 106/106/106
f 102/102/102 104/104/104 106/106/106
f 105/105/105 103/103/103 107/107/107
f 105/105/105 107/107/107 99/99/99
f 103/103/103 106/106/106 107/107/107
f 99/99/99 108/108/108 100/100/100
f 99/99/99 107/107/107 108/108/108
f 109/109/109 104/104/104 98/98/98
f 101/101/101 109/109/109 98/98/98
f 104/104/104 109/109/109 110/110/110
f 106/106/106 104/104/104 110/110/110
f 110/110/110 109/109/109 101/101/101
f 107/107/107 106/106/106 111/111/111
f 106/106/106 110/110/110 111/111/111
f 107/107/107 111/111/111 108/108/108
f 112/112/112 110/110/110 101/101/101
f 111/111/111 110/110/110 112/112/112
f 108/108/108 111/111/111 112/112/112
f 112/112/112 101/101/101 30/30/30
f 100/100/100 108/108/108 113/113/113
f 108/108/108 112/112/112 113/113/113
f 113/113/113 112/112/112 30/30/30
f 100/100/100 113/113/113 114/114/114
f 113/113/113 30/30/30 115/115/115
f 113/113/113 115/115/115 114/114/114
f 114/114/114 115/115/115 116/116/116
f 30/30/30 117/117/117 115/115/115
f 115/115/115 118/118/118 116/116/116
f 115/115/115 117/117/117 118/118/118
f 117/117/117 119/119/119 118/118/118
