g FingerSeg12
v -0.2773167 0.021685 -0.157228
v -0.2946798 0.03401105 -0.1672598
v -0.305556 0.0209229 -0.1541689
v -0.2846895 0.01001851 -0.1381512
v -0.2408153 0.02386876 -0.1329503
v -0.3134691 0.02622609 -0.1258286
v -0.2941677 0.01513051 -0.116445
v -0.2517779 0.01627553 -0.1205591
v -0.3136499 0.02284498 -0.09938744
v -0.3411903 0.03670537 -0.1064722
v -0.3279977 0.04413144 -0.08939148
v -0.3466508 0.05702893 -0.09769634
v -0.2798465 0.04115621 -0.08070584
v -0.2740823 0.02615346 -0.09070633
v -0.262602 0.0211392 -0.1053769
v -0.2114203 0.01998189 -0.1174143
v -0.222688 0.01348882 -0.1068285
v -0.2333718 0.01811964 -0.09352241
v -0.2428196 0.02240438 -0.07988258
v -0.2002203 0.04907094 -0.1228953
v -0.2289132 0.05623052 -0.1392434
v -0.2466497 0.03558545 -0.0702586
v -0.2735207 0.07598744 -0.07953545
v -0.194672 0.08056058 -0.121808
v -0.2222587 0.09098645 -0.1378177
v -0.2404833 0.06690259 -0.0690041
v -0.2612901 0.1082734 -0.0855735
v -0.1833397 0.01137609 -0.1060519
v -0.194102 0.004426931 -0.09471711
v -0.2045566 0.009059881 -0.08069889
v -0.1720541 0.04153539 -0.1118491
v -0.2149204 0.0136469 -0.06685265
v -0.1660194 0.07402211 -0.1105952
v -0.2197714 0.02751157 -0.05728768
v -0.1627037 -0.008141582 -0.08198704
v -0.1507791 -0.0005953474 -0.09429386
v -0.1383966 0.03233251 -0.1006016
v -0.1742356 -0.003051478 -0.06672421
v -0.1318609 0.06783185 -0.09925633
v -0.1854424 0.001930211 -0.05154923
v -0.2136902 0.05997586 -0.05611863
v -0.1905733 0.01702962 -0.04102883
v -0.2299009 0.09616467 -0.07465176
v -0.1093428 -0.01999606 -0.08229199
v -0.09458584 0.0199413 -0.09003396
v -0.1230659 -0.02932284 -0.06707642
v -0.1365525 -0.02328425 -0.048386
v -0.1506021 -0.01712657 -0.0302187
v -0.08643291 0.06286778 -0.08830147
v -0.05463272 -0.05088969 -0.07019985
v -0.06976151 -0.06422244 -0.04842793
v -0.03596314 0.002839711 -0.08103108
v -0.08565506 -0.05671038 -0.02247753
v -0.02397274 0.06000257 -0.07824143
v -0.1575312 0.00134702 -0.01779011
v -0.1066125 -0.04790111 0.0008971011
v -0.1838751 0.05247502 -0.03972786
v -0.2024507 0.09015813 -0.06183037
v -0.01782347 -0.05084323 -0.05746605
v 0.01035048 -0.009807841 -0.06540161
v -0.01794496 -0.07125598 -0.03480198
v 0.007739468 0.0416171 -0.06417168
v -0.03581053 -0.06243975 -0.001967584
v 0.01723248 -0.008837459 -0.03495739
v 0.01913292 0.06285283 -0.04452824
v -0.001290245 0.0004134874 0.0001718509
v -0.02888286 0.08363355 -0.05915127
v 0.001268159 0.07167012 -0.01169277
v -0.09251876 0.08116193 -0.07508889
v -0.04477575 0.09114613 -0.03320007
v -0.1374785 0.08309522 -0.08860321
v -0.1060061 0.08719999 -0.05639847
v -0.1710086 0.08795461 -0.1007752
v -0.1490104 0.08818532 -0.07334118
v -0.2003565 0.09426076 -0.1126863
v -0.1814631 0.09258809 -0.08675697
v -0.2270365 0.1057644 -0.1270495
v -0.253222 0.1088336 -0.1635481
v -0.2110403 0.09889211 -0.09938076
v -0.2525639 0.1262161 -0.1465786
v -0.2746383 0.1064998 -0.1725165
v -0.2378598 0.1106291 -0.1118668
v -0.1602177 0.09316701 -0.0581662
v -0.1918265 0.09717511 -0.0729102
v -0.2204881 0.1031769 -0.08574066
v -0.2493403 0.1156428 -0.09719566
v -0.2620417 0.1313286 -0.1248713
v -0.2765262 0.1259229 -0.1617851
v -0.1200554 0.0933582 -0.03823116
v -0.06573378 0.09995435 -0.009826776
v -0.02639723 0.08301831 0.01641415
v -0.03119066 0.01260976 0.02985851
v -0.06347565 -0.05109103 0.02613987
v -0.1191207 -0.02232722 0.01611961
v -0.1496587 0.04433332 -0.01631851
v -0.1716545 0.08545735 -0.04599156
v -0.1346216 0.08421033 -0.02380013
v -0.2815239 0.1390431 -0.1078146
v -0.3039029 0.13128 -0.09571152
v -0.1096641 0.03548238 0.01761898
v -0.08846193 0.0885645 0.008077239
v -0.3121599 0.1417059 -0.1140868
v -0.3266087 0.1295182 -0.1029528
v -0.2844385 0.1312266 -0.1334427
v -0.08414768 -0.02146792 0.03131035
v -0.06860367 0.02516172 0.04028091
v -0.05858462 0.07099294 0.02460419
v -0.3429962 0.09284016 -0.1005228
v -0.3039029 0.13128 -0.09571152
v -0.3363714 0.09195897 -0.1125063
v -0.3220708 0.08996053 -0.08886784
v -0.2612901 0.1082734 -0.0855735
v -0.2735207 0.07598744 -0.07953545
v -0.3279977 0.04413144 -0.08939148
v -0.2798465 0.04115621 -0.08070584
v -0.3466508 0.05702893 -0.09769634
v -0.3411903 0.03670537 -0.1064722
v -0.3059039 0.08055791 -0.1326285
v -0.3134691 0.02622609 -0.1258286
v -0.305556 0.0209229 -0.1541689
v -0.2985124 0.0751917 -0.1631806
v -0.2946798 0.03401105 -0.1672598
v -0.2885224 0.06871411 -0.1734364
v -0.2773167 0.021685 -0.157228
v -0.2641499 0.06430761 -0.1663948
v -0.2408153 0.02386876 -0.1329503
v -0.253222 0.1088336 -0.1635481
v -0.2289132 0.05623052 -0.1392434
v -0.2222587 0.09098645 -0.1378177
vt 0.375 0.875
vt 0.375 1
vt 0.4382324 1
vt 0.4382324 0.875
vt 0.375 0.75
vt 0.5014648 1
vt 0.5009766 0.875
vt 0.4382324 0.78125
vt 0.5629883 0.875
vt 0.5629883 1
vt 0.625 0.875
vt 0.625 1
vt 0.625 0.75
vt 0.5629883 0.78125
vt 0.5009766 0.78125
vt 0.3908691 0.71875
vt 0.4382324 0.75
vt 0.5009766 0.75
vt 0.5629883 0.75
vt 0.375 0.625
vt 0.375 0.625
vt 0.609375 0.71875
vt 0.625 0.625
vt 0.3908691 0.53125
vt 0.375 0.5
vt 0.625 0.625
vt 0.625 0.5
vt 0.3908691 0.71875
vt 0.4382324 0.75
vt 0.5009766 0.75
vt 0.375 0.625
vt 0.5629883 0.75
vt 0.3908691 0.53125
vt 0.609375 0.71875
vt 0.4382324 0.75
vt 0.3908691 0.71875
vt 0.375 0.625
vt 0.5009766 0.75
vt 0.3908691 0.53125
vt 0.5629883 0.75
vt 0.625 0.625
vt 0.609375 0.71875
vt 0.609375 0.53125
vt 0.3908691 0.71875
vt 0.375 0.625
vt 0.4382324 0.75
vt 0.5009766 0.75
vt 0.5629883 0.75
vt 0.3908691 0.53125
vt 0.3908691 0.71875
vt 0.4382324 0.75
vt 0.375 0.625
vt 0.5009766 0.75
vt 0.3908691 0.53125
vt 0.609375 0.71875
vt 0.5629883 0.75
vt 0.625 0.625
vt 0.609375 0.53125
vt 0.4030762 0.6943359
vt 0.3908691 0.625
vt 0.4382324 0.71875
vt 0.4030762 0.5556641
vt 0.5009766 0.71875
vt 0.4382324 0.625
vt 0.4382324 0.53125
vt 0.5009766 0.625
vt 0.4382324 0.5
vt 0.5009766 0.53125
vt 0.4382324 0.5
vt 0.5009766 0.5
vt 0.4382324 0.5
vt 0.5009766 0.5
vt 0.4382324 0.5
vt 0.5009766 0.5
vt 0.4382324 0.5
vt 0.5009766 0.5
vt 0.4382324 0.46875
vt 0.375 0.375
vt 0.5009766 0.5
vt 0.4382324 0.375
vt 0.375 0.25
vt 0.5009766 0.46875
vt 0.5629883 0.5
vt 0.5629883 0.5
vt 0.5629883 0.5
vt 0.5629883 0.46875
vt 0.5009766 0.375
vt 0.4382324 0.25
vt 0.5629883 0.5
vt 0.5629883 0.5
vt 0.5629883 0.53125
vt 0.5629883 0.625
vt 0.5629883 0.71875
vt 0.609375 0.71875
vt 0.625 0.625
vt 0.609375 0.53125
vt 0.609375 0.53125
vt 0.5629883 0.375
vt 0.625 0.375
vt 0.625 0.625
vt 0.609375 0.53125
vt 0.5629883 0.25
vt 0.625 0.25
vt 0.5009766 0.25
vt 0.5976563 0.6943359
vt 0.609375 0.625
vt 0.5976563 0.5556641
vt 0.640625 0.125
vt 0.75 0.25
vt 0.5629883 0.125
vt 0.75 0.125
vt 0.875 0.25
vt 0.875 0.125
vt 0.75 0
vt 0.875 0
vt 0.625 0
vt 0.5629883 0
vt 0.5009766 0.125
vt 0.5014648 0
vt 0.4382324 0
vt 0.4382324 0.125
vt 0.375 0
vt 0.3596191 0.125
vt 0.25 0
vt 0.25 0.125
vt 0.125 0
vt 0.25 0.25
vt 0.125 0.125
vt 0.125 0.25
vn 0.3608398 -0.5527344 -0.7514648
vn -0.1973877 -0.2995605 -0.9335938
vn -0.8544922 -0.3251953 -0.4052734
vn -0.03253174 -0.9902344 -0.1361084
vn 0.4362793 -0.5366211 -0.722168
vn -0.8115234 -0.3234863 -0.4868164
vn -0.1816406 -0.9633789 0.196167
vn 0.1118774 -0.9902344 -0.08508301
vn -0.293457 -0.8271484 0.4790039
vn -0.7597656 -0.2937012 -0.5800781
vn -0.3054199 -0.1888428 0.9331055
vn -0.8837891 -0.03878784 0.4663086
vn -0.2290039 -0.1837158 0.9560547
vn -0.1519775 -0.7890625 0.5952148
vn -0.05584717 -0.9614258 0.2700195
vn 0.2644043 -0.5205078 -0.8120117
vn -0.1149292 -0.9755859 -0.1876221
vn -0.2509766 -0.9589844 0.130127
vn -0.3449707 -0.8330078 0.4328613
vn 0.3901367 -0.1733398 -0.9042969
vn 0.5249023 -0.2049561 -0.8261719
vn -0.3901367 -0.192627 0.9003906
vn -0.1912842 0.1230469 0.9736328
vn 0.4716797 0.1862793 -0.8618164
vn 0.6254883 0.1257324 -0.7700195
vn -0.3208008 0.1561279 0.934082
vn -0.05184937 0.4016113 0.9145508
vn 0.1574707 -0.4899902 -0.8574219
vn -0.2286377 -0.9355469 -0.2697754
vn -0.3554688 -0.9335938 0.04333496
vn 0.2976074 -0.1505127 -0.9428711
vn -0.4633789 -0.8154297 0.3464355
vn 0.3654785 0.2091064 -0.9072266
vn -0.5009766 -0.1784668 0.8466797
vn -0.3076172 -0.8950195 -0.322998
vn 0.08178711 -0.4580078 -0.8852539
vn 0.2298584 -0.1330566 -0.9638672
vn -0.4257813 -0.9047852 -0.01902771
vn 0.2851563 0.2178955 -0.9335938
vn -0.5444336 -0.7910156 0.279541
vn -0.4155273 0.1795654 0.8916016
vn -0.5795898 -0.1605225 0.7988281
vn -0.1882324 0.4875488 0.8525391
vn -0.00718689 -0.4274902 -0.9038086
vn 0.1501465 -0.1121826 -0.9824219
vn -0.392334 -0.8466797 -0.359375
vn -0.4929199 -0.8657227 -0.08428955
vn -0.6186523 -0.7636719 0.1846924
vn 0.1943359 0.2354736 -0.9521484
vn 0.06903076 -0.4946289 -0.8662109
vn -0.2459717 -0.9360352 -0.2519531
vn 0.2073975 -0.1279297 -0.9697266
vn -0.3457031 -0.9365234 0.05548096
vn 0.2932129 0.2539063 -0.921875
vn -0.6723633 -0.1481934 0.7250977
vn -0.4804688 -0.8242188 0.2995605
vn -0.4851074 0.1959229 0.8520508
vn -0.295166 0.527832 0.7963867
vn 0.4641113 -0.5478516 -0.6962891
vn 0.6455078 -0.2342529 -0.7265625
vn 0.5561523 -0.8154297 0.1601563
vn 0.6552734 0.121521 -0.7456055
vn 0.432373 -0.7080078 0.5581055
vn 0.9428711 -0.2473145 0.2226563
vn 0.9145508 0.4018555 0.04208374
vn 0.7666016 -0.1671143 0.6201172
vn 0.3010254 0.8535156 -0.4250488
vn 0.7797852 0.4416504 0.4436035
vn 0.1287842 0.8417969 -0.5244141
vn 0.2375488 0.9619141 -0.1369629
vn 0.2268066 0.8408203 -0.4916992
vn 0.06756592 0.9604492 -0.2697754
vn 0.3156738 0.8393555 -0.4423828
vn 0.1489258 0.9667969 -0.2088623
vn 0.4343262 0.8237305 -0.3640137
vn 0.2270508 0.9624023 -0.1488037
vn 0.6303711 0.7329102 -0.2563477
vn 0.565918 0.1706543 -0.8066406
vn 0.3330078 0.940918 -0.06243896
vn 0.5087891 0.8032227 -0.309082
vn -0.04666138 0.2139893 -0.9755859
vn 0.503418 0.8598633 0.08447266
vn -0.002782822 0.9946289 0.1026001
vn 0.08398438 0.9819336 0.1702881
vn 0.1999512 0.9448242 0.2600098
vn 0.3474121 0.8271484 0.4411621
vn 0.3964844 0.9179688 0.005607605
vn -0.5717773 0.6459961 -0.5058594
vn -0.08642578 0.9960938 0.007511139
vn 0.07037354 0.9897461 0.1233521
vn 0.5351563 0.5297852 0.6582031
vn 0.5131836 -0.07824707 0.8544922
vn 0.1887207 -0.6147461 0.765625
vn -0.6030273 -0.2192383 0.7670898
vn -0.5693359 0.2149658 0.793457
vn -0.3759766 0.5473633 0.7475586
vn -0.467041 0.5756836 0.6713867
vn 0.2406006 0.918457 0.3132324
vn -0.1210327 0.4450684 0.887207
vn -0.5166016 0.2036133 0.831543
vn -0.3662109 0.6069336 0.7055664
vn -0.5029297 0.5615234 -0.6572266
vn -0.7270508 0.5439453 0.4191895
vn -0.519043 0.612793 -0.5957031
vn -0.2189941 -0.1976318 0.9555664
vn -0.1005859 0.1011963 0.9897461
vn -0.03939819 0.4111328 0.9106445
vn -0.8457031 0.2548828 0.4685059
vn -0.1210327 0.4450684 0.887207
vn -0.6191406 0.1208496 -0.7758789
vn -0.2404785 0.1391602 0.9604492
vn -0.05184937 0.4016113 0.9145508
vn -0.1912842 0.1230469 0.9736328
vn -0.3054199 -0.1888428 0.9331055
vn -0.2290039 -0.1837158 0.9560547
vn -0.8837891 -0.03878784 0.4663086
vn -0.7597656 -0.2937012 -0.5800781
vn -0.7587891 0.1638184 -0.6303711
vn -0.8115234 -0.3234863 -0.4868164
vn -0.8544922 -0.3251953 -0.4052734
vn -0.8842773 0.2174072 -0.4135742
vn -0.1973877 -0.2995605 -0.9335938
vn -0.1479492 -0.04302979 -0.9882813
vn 0.3608398 -0.5527344 -0.7514648
vn 0.4785156 -0.1923828 -0.8569336
vn 0.4362793 -0.5366211 -0.722168
vn 0.565918 0.1706543 -0.8066406
vn 0.5249023 -0.2049561 -0.8261719
vn 0.6254883 0.1257324 -0.7700195
g FingerSeg12_0
f 3/3/3 2/2/2 1/1/1
f 4/4/4 3/3/3 1/1/1
f 4/4/4 1/1/1 5/5/5
f 6/6/6 3/3/3 4/4/4
f 7/7/7 6/6/6 4/4/4
f 8/8/8 4/4/4 5/5/5
f 7/7/7 4/4/4 8/8/8
f 7/7/7 9/9/9 6/6/6
f 9/9/9 10/10/10 6/6/6
f 9/9/9 11/11/11 10/10/10
f 11/11/11 12/12/12 10/10/10
f 13/13/13 11/11/11 9/9/9
f 14/14/14 9/9/9 7/7/7
f 14/14/14 13/13/13 9/9/9
f 15/15/15 7/7/7 8/8/8
f 15/15/15 14/14/14 7/7/7
f 5/5/5 16/16/16 8/8/8
f 8/8/8 17/17/17 15/15/15
f 16/16/16 17/17/17 8/8/8
f 15/15/15 18/18/18 14/14/14
f 17/17/17 18/18/18 15/15/15
f 14/14/14 19/19/19 13/13/13
f 18/18/18 19/19/19 14/14/14
f 20/20/20 16/16/16 5/5/5
f 21/21/21 20/20/20 5/5/5
f 19/19/19 22/22/22 13/13/13
f 13/13/13 22/22/22 23/23/23
f 24/24/24 20/20/20 21/21/21
f 25/25/25 24/24/24 21/21/21
f 22/22/22 26/26/26 23/23/23
f 23/23/23 26/26/26 27/27/27
f 16/16/16 28/28/28 17/17/17
f 17/17/17 29/29/29 18/18/18
f 28/28/28 29/29/29 17/17/17
f 18/18/18 30/30/30 19/19/19
f 29/29/29 30/30/30 18/18/18
f 20/20/20 31/31/31 16/16/16
f 31/31/31 28/28/28 16/16/16
f 19/19/19 32/32/32 22/22/22
f 30/30/30 32/32/32 19/19/19
f 24/24/24 33/33/33 20/20/20
f 33/33/33 31/31/31 20/20/20
f 22/22/22 34/34/34 26/26/26
f 32/32/32 34/34/34 22/22/22
f 29/29/29 35/35/35 30/30/30
f 28/28/28 36/36/36 29/29/29
f 36/36/36 35/35/35 29/29/29
f 31/31/31 37/37/37 28/28/28
f 37/37/37 36/36/36 28/28/28
f 30/30/30 38/38/38 32/32/32
f 35/35/35 38/38/38 30/30/30
f 33/33/33 39/39/39 31/31/31
f 39/39/39 37/37/37 31/31/31
f 32/32/32 40/40/40 34/34/34
f 38/38/38 40/40/40 32/32/32
f 34/34/34 41/41/41 26/26/26
f 40/40/40 42/42/42 34/34/34
f 34/34/34 42/42/42 41/41/41
f 26/26/26 41/41/41 43/43/43
f 26/26/26 43/43/43 27/27/27
f 36/36/36 44/44/44 35/35/35
f 37/37/37 45/45/45 36/36/36
f 45/45/45 44/44/44 36/36/36
f 35/35/35 46/46/46 38/38/38
f 44/44/44 46/46/46 35/35/35
f 38/38/38 47/47/47 40/40/40
f 46/46/46 47/47/47 38/38/38
f 40/40/40 48/48/48 42/42/42
f 47/47/47 48/48/48 40/40/40
f 49/49/49 45/45/45 37/37/37
f 39/39/39 49/49/49 37/37/37
f 44/44/44 50/50/50 46/46/46
f 46/46/46 51/51/51 47/47/47
f 50/50/50 51/51/51 46/46/46
f 45/45/45 52/52/52 44/44/44
f 52/52/52 50/50/50 44/44/44
f 47/47/47 53/53/53 48/48/48
f 51/51/51 53/53/53 47/47/47
f 49/49/49 54/54/54 45/45/45
f 54/54/54 52/52/52 45/45/45
f 48/48/48 55/55/55 42/42/42
f 53/53/53 56/56/56 48/48/48
f 48/48/48 56/56/56 55/55/55
f 42/42/42 55/55/55 57/57/57
f 42/42/42 57/57/57 41/41/41
f 41/41/41 57/57/57 58/58/58
f 41/41/41 58/58/58 43/43/43
f 50/50/50 59/59/59 51/51/51
f 52/52/52 60/60/60 50/50/50
f 60/60/60 59/59/59 50/50/50
f 59/59/59 61/61/61 51/51/51
f 51/51/51 61/61/61 53/53/53
f 61/61/61 59/59/59 60/60/60
f 62/62/62 60/60/60 52/52/52
f 54/54/54 62/62/62 52/52/52
f 61/61/61 63/63/63 53/53/53
f 53/53/53 63/63/63 56/56/56
f 64/64/64 61/61/61 60/60/60
f 64/64/64 60/60/60 62/62/62
f 63/63/63 61/61/61 64/64/64
f 65/65/65 62/62/62 54/54/54
f 65/65/65 64/64/64 62/62/62
f 66/66/66 63/63/63 64/64/64
f 66/66/66 64/64/64 65/65/65
f 67/67/67 65/65/65 54/54/54
f 67/67/67 54/54/54 49/49/49
f 68/68/68 66/66/66 65/65/65
f 68/68/68 65/65/65 67/67/67
f 69/69/69 67/67/67 49/49/49
f 69/69/69 49/49/49 39/39/39
f 70/70/70 68/68/68 67/67/67
f 70/70/70 67/67/67 69/69/69
f 71/71/71 69/69/69 39/39/39
f 71/71/71 39/39/39 33/33/33
f 72/72/72 70/70/70 69/69/69
f 72/72/72 69/69/69 71/71/71
f 73/73/73 71/71/71 33/33/33
f 73/73/73 33/33/33 24/24/24
f 74/74/74 72/72/72 71/71/71
f 74/74/74 71/71/71 73/73/73
f 75/75/75 73/73/73 24/24/24
f 75/75/75 24/24/24 25/25/25
f 76/76/76 74/74/74 73/73/73
f 76/76/76 73/73/73 75/75/75
f 77/77/77 75/75/75 25/25/25
f 77/77/77 25/25/25 78/78/78
f 79/79/79 76/76/76 75/75/75
f 79/79/79 75/75/75 77/77/77
f 80/80/80 77/77/77 78/78/78
f 80/80/80 78/78/78 81/81/81
f 82/82/82 79/79/79 77/77/77
f 82/82/82 77/77/77 80/80/80
f 74/74/74 83/83/83 72/72/72
f 76/76/76 84/84/84 74/74/74
f 84/84/84 83/83/83 74/74/74
f 79/79/79 85/85/85 76/76/76
f 85/85/85 84/84/84 76/76/76
f 82/82/82 86/86/86 79/79/79
f 86/86/86 85/85/85 79/79/79
f 87/87/87 82/82/82 80/80/80
f 86/86/86 82/82/82 87/87/87
f 88/88/88 80/80/80 81/81/81
f 87/87/87 80/80/80 88/88/88
f 83/83/83 89/89/89 72/72/72
f 72/72/72 89/89/89 70/70/70
f 89/89/89 90/90/90 70/70/70
f 70/70/70 90/90/90 68/68/68
f 90/90/90 91/91/91 68/68/68
f 68/68/68 91/91/91 66/66/66
f 91/91/91 92/92/92 66/66/66
f 66/66/66 92/92/92 63/63/63
f 92/92/92 93/93/93 63/63/63
f 63/63/63 93/93/93 56/56/56
f 56/56/56 93/93/93 94/94/94
f 56/56/56 94/94/94 55/55/55
f 55/55/55 94/94/94 95/95/95
f 55/55/55 95/95/95 57/57/57
f 57/57/57 95/95/95 96/96/96
f 57/57/57 96/96/96 58/58/58
f 83/83/83 96/96/96 89/89/89
f 58/58/58 96/96/96 83/83/83
f 84/84/84 58/58/58 83/83/83
f 43/43/43 58/58/58 84/84/84
f 85/85/85 43/43/43 84/84/84
f 27/27/27 43/43/43 85/85/85
f 86/86/86 27/27/27 85/85/85
f 96/96/96 97/97/97 89/89/89
f 95/95/95 97/97/97 96/96/96
f 89/89/89 97/97/97 90/90/90
f 27/27/27 86/86/86 98/98/98
f 99/99/99 27/27/27 98/98/98
f 98/98/98 86/86/86 87/87/87
f 95/95/95 100/100/100 97/97/97
f 94/94/94 100/100/100 95/95/95
f 97/97/97 101/101/101 90/90/90
f 100/100/100 101/101/101 97/97/97
f 90/90/90 101/101/101 91/91/91
f 99/99/99 98/98/98 102/102/102
f 103/103/103 99/99/99 102/102/102
f 98/98/98 87/87/87 104/104/104
f 102/102/102 98/98/98 104/104/104
f 104/104/104 87/87/87 88/88/88
f 94/94/94 105/105/105 100/100/100
f 93/93/93 105/105/105 94/94/94
f 105/105/105 106/106/106 100/100/100
f 106/106/106 105/105/105 93/93/93
f 100/100/100 106/106/106 101/101/101
f 92/92/92 106/106/106 93/93/93
f 101/101/101 107/107/107 91/91/91
f 106/106/106 107/107/107 101/101/101
f 107/107/107 106/106/106 92/92/92
f 91/91/91 107/107/107 92/92/92
f 108/108/108 103/103/103 102/102/102
f 109/109/109 103/103/103 108/108/108
f 110/110/110 102/102/102 104/104/104
f 110/110/110 108/108/108 102/102/102
f 111/111/111 109/109/109 108/108/108
f 112/112/112 109/109/109 111/111/111
f 113/113/113 112/112/112 111/111/111
f 113/113/113 111/111/111 114/114/114
f 115/115/115 113/113/113 114/114/114
f 114/114/114 111/111/111 116/116/116
f 111/111/111 108/108/108 116/116/116
f 116/116/116 108/108/108 110/110/110
f 117/117/117 116/116/116 110/110/110
f 117/117/117 110/110/110 118/118/118
f 118/118/118 110/110/110 104/104/104
f 119/119/119 117/117/117 118/118/118
f 119/119/119 118/118/118 120/120/120
f 118/118/118 104/104/104 121/121/121
f 118/118/118 121/121/121 120/120/120
f 104/104/104 88/88/88 121/121/121
f 120/120/120 121/121/121 122/122/122
f 121/121/121 88/88/88 123/123/123
f 121/121/121 123/123/123 122/122/122
f 88/88/88 81/81/81 123/123/123
f 122/122/122 123/123/123 124/124/124
f 123/123/123 81/81/81 125/125/125
f 123/123/123 125/125/125 124/124/124
f 124/124/124 125/125/125 126/126/126
f 81/81/81 127/127/127 125/125/125
f 125/125/125 128/128/128 126/126/126
f 125/125/125 127/127/127 128/128/128
f 127/127/127 129/129/129 128/128/128
