g FingerSeg2
v -0.0684135 0.1094599 0.2380717
v -0.07129267 0.1237107 0.2504688
v -0.0572941 0.113239 0.2566254
v -0.04942124 0.09761252 0.2394837
v -0.05520089 0.09741558 0.2043534
v -0.02669263 0.1102402 0.2513248
v -0.02483227 0.09664267 0.2375259
v -0.0410616 0.09083599 0.2095172
v -0.001454434 0.1005517 0.2433866
v 0.001726864 0.1168554 0.2614271
v 0.01552845 0.114603 0.2449012
v 0.01478594 0.1289848 0.2574719
v 0.009446734 0.1013764 0.2096133
v -0.004120099 0.09309973 0.2125224
v -0.02244944 0.09178515 0.2107252
v -0.04927639 0.08506817 0.1798701
v -0.03664086 0.07978968 0.1855882
v -0.01992595 0.08108731 0.1873843
v -0.003297584 0.08183245 0.1883002
v -0.05366683 0.1040487 0.1671899
v -0.06011179 0.1186882 0.190696
v 0.009074295 0.08864301 0.1846178
v 0.01377117 0.1232152 0.1967073
v -0.04967815 0.1238149 0.1556271
v -0.05564596 0.1403445 0.1774946
v 0.01301965 0.1081345 0.172616
v 0.009001629 0.1443054 0.1827545
v -0.04770236 0.07097746 0.1587935
v -0.03455362 0.06509121 0.1640209
v -0.01721377 0.06614704 0.1654211
v -0.05226992 0.09074854 0.1459099
v -7.277687E-05 0.06720368 0.1668257
v -0.04811779 0.111047 0.1337238
v 0.01263911 0.07467447 0.1637025
v -0.03319433 0.04735542 0.1411349
v -0.04754106 0.05370457 0.135296
v -0.05252498 0.07527315 0.1211793
v -0.01426457 0.04856386 0.1427525
v -0.04799487 0.09747192 0.1079127
v 0.004468682 0.04966389 0.1442004
v 0.01669173 0.0949736 0.1515202
v 0.01836927 0.05774365 0.1406596
v 0.008672584 0.1273902 0.1603748
v -0.05081476 0.02976984 0.1073632
v -0.05687209 0.05600302 0.09045226
v -0.03337536 0.02173642 0.1138808
v -0.01040808 0.02296835 0.1154702
v 0.01223306 0.02453087 0.1175915
v -0.05136427 0.08277012 0.07420249
v -0.05954555 -0.004309176 0.0729763
v -0.03590896 -0.01661707 0.07920554
v -0.06775127 0.03131701 0.0511766
v -0.004974041 -0.01600651 0.07966857
v -0.06028096 0.06661915 0.02859985
v 0.02900002 0.03465967 0.1138563
v 0.02512653 -0.0128772 0.08417121
v 0.02280116 0.07988821 0.1273081
v 0.01222368 0.114744 0.1386328
v -0.05794179 -0.01458471 0.04341621
v -0.06795182 0.009990484 0.01709358
v -0.0388524 -0.03462322 0.04069626
v -0.05855496 0.04455469 0.006415094
v -0.0004679461 -0.03472162 0.03990318
v -0.04026302 0.0007982841 0.001942896
v -0.03974181 0.05115484 -0.01297173
v 0.000604525 0.0004639641 0.0007316531
v -0.03688956 0.07795426 0.02003623
v -0.001357352 0.05105658 -0.01376481
v -0.03410805 0.09240399 0.06966728
v -0.005954604 0.07856428 0.02049926
v -0.03379942 0.1057123 0.104624
v -0.01114082 0.09363579 0.07125609
v -0.03510756 0.1185174 0.1305942
v -0.01486959 0.1069203 0.1062401
v -0.03717652 0.1314529 0.1532649
v -0.01776769 0.1195727 0.1319939
v -0.04165502 0.1480746 0.1737049
v -0.06899142 0.1652014 0.2031961
v -0.02046161 0.1327506 0.155061
v -0.05019178 0.171934 0.1929828
v -0.07177339 0.1700751 0.2214598
v -0.0230429 0.1490244 0.174914
v 0.003863662 0.10802 0.1076879
v -0.0006267615 0.1206299 0.1333996
v -0.003833277 0.1334961 0.1559774
v -0.004713554 0.1503388 0.1767111
v -0.02560285 0.170964 0.1910255
v -0.05799038 0.1803983 0.2146052
v 0.01150037 0.09519844 0.07337791
v 0.02414607 0.08169319 0.02500137
v 0.03566963 0.05577564 -0.006835943
v 0.03994041 0.005712682 0.008468546
v 0.03655903 -0.03000255 0.04683204
v 0.04726659 0.002235567 0.08166648
v 0.03434475 0.0615922 0.09787406
v 0.01791548 0.1015105 0.1132752
v 0.02845049 0.08766048 0.08069556
v -0.002225029 0.174873 0.1968857
v 0.0149505 0.1703445 0.2100262
v 0.05431979 0.03879648 0.06110794
v 0.04653116 0.07316349 0.03729004
v 0.001030536 0.1840148 0.2194074
v 0.01430519 0.1753497 0.2284634
v -0.02738896 0.1773995 0.2093052
v 0.05191072 -0.007853583 0.05235367
v 0.06282022 0.01800335 0.02773307
v 0.05129752 0.05128542 0.01535201
v 0.01615278 0.1530944 0.2475079
v 0.0149505 0.1703445 0.2100262
v 0.00245153 0.1546756 0.2471773
v 0.02093253 0.1440608 0.2299054
v 0.009001629 0.1443054 0.1827545
v 0.01377117 0.1232152 0.1967073
v 0.01552845 0.114603 0.2449012
v 0.009446734 0.1013764 0.2096133
v 0.01478594 0.1289848 0.2574719
v 0.001726864 0.1168554 0.2614271
v -0.02764849 0.1471582 0.2356604
v -0.02669263 0.1102402 0.2513248
v -0.0572941 0.113239 0.2566254
v -0.0602541 0.1508332 0.242075
v -0.07129267 0.1237107 0.2504688
v -0.07407126 0.1475661 0.2401668
v -0.0684135 0.1094599 0.2380717
v -0.07500109 0.1381831 0.2221007
v -0.05520089 0.09741558 0.2043534
v -0.06899142 0.1652014 0.2031961
v -0.06011179 0.1186882 0.190696
v -0.05564596 0.1403445 0.1774946
vt 0.375 0.875
vt 0.375 1
vt 0.4382324 1
vt 0.4382324 0.875
vt 0.375 0.75
vt 0.5014648 1
vt 0.5009766 0.875
vt 0.4382324 0.78125
vt 0.5629883 0.875
vt 0.5629883 1
vt 0.625 0.875
vt 0.625 1
vt 0.625 0.75
vt 0.5629883 0.78125
vt 0.5009766 0.78125
vt 0.3908691 0.71875
vt 0.4382324 0.75
vt 0.5009766 0.75
vt 0.5629883 0.75
vt 0.375 0.625
vt 0.375 0.625
vt 0.609375 0.71875
vt 0.625 0.625
vt 0.3908691 0.53125
vt 0.375 0.5
vt 0.625 0.625
vt 0.625 0.5
vt 0.3908691 0.71875
vt 0.4382324 0.75
vt 0.5009766 0.75
vt 0.375 0.625
vt 0.5629883 0.75
vt 0.3908691 0.53125
vt 0.609375 0.71875
vt 0.4382324 0.75
vt 0.3908691 0.71875
vt 0.375 0.625
vt 0.5009766 0.75
vt 0.3908691 0.53125
vt 0.5629883 0.75
vt 0.625 0.625
vt 0.609375 0.71875
vt 0.609375 0.53125
vt 0.3908691 0.71875
vt 0.375 0.625
vt 0.4382324 0.75
vt 0.5009766 0.75
vt 0.5629883 0.75
vt 0.3908691 0.53125
vt 0.3908691 0.71875
vt 0.4382324 0.75
vt 0.375 0.625
vt 0.5009766 0.75
vt 0.3908691 0.53125
vt 0.609375 0.71875
vt 0.5629883 0.75
vt 0.625 0.625
vt 0.609375 0.53125
vt 0.4030762 0.6943359
vt 0.3908691 0.625
vt 0.4382324 0.71875
vt 0.4030762 0.5556641
vt 0.5009766 0.71875
vt 0.4382324 0.625
vt 0.4382324 0.53125
vt 0.5009766 0.625
vt 0.4382324 0.5
vt 0.5009766 0.53125
vt 0.4382324 0.5
vt 0.5009766 0.5
vt 0.4382324 0.5
vt 0.5009766 0.5
vt 0.4382324 0.5
vt 0.5009766 0.5
vt 0.4382324 0.5
vt 0.5009766 0.5
vt 0.4382324 0.46875
vt 0.375 0.375
vt 0.5009766 0.5
vt 0.4382324 0.375
vt 0.375 0.25
vt 0.5009766 0.46875
vt 0.5629883 0.5
vt 0.5629883 0.5
vt 0.5629883 0.5
vt 0.5629883 0.46875
vt 0.5009766 0.375
vt 0.4382324 0.25
vt 0.5629883 0.5
vt 0.5629883 0.5
vt 0.5629883 0.53125
vt 0.5629883 0.625
vt 0.5629883 0.71875
vt 0.609375 0.71875
vt 0.625 0.625
vt 0.609375 0.53125
vt 0.609375 0.53125
vt 0.5629883 0.375
vt 0.625 0.375
vt 0.625 0.625
vt 0.609375 0.53125
vt 0.5629883 0.25
vt 0.625 0.25
vt 0.5009766 0.25
vt 0.5976563 0.6943359
vt 0.609375 0.625
vt 0.5976563 0.5556641
vt 0.640625 0.125
vt 0.75 0.25
vt 0.5629883 0.125
vt 0.75 0.125
vt 0.875 0.25
vt 0.875 0.125
vt 0.75 0
vt 0.875 0
vt 0.625 0
vt 0.5629883 0
vt 0.5009766 0.125
vt 0.5014648 0
vt 0.4382324 0
vt 0.4382324 0.125
vt 0.375 0
vt 0.3596191 0.125
vt 0.25 0
vt 0.25 0.125
vt 0.125 0
vt 0.25 0.25
vt 0.125 0.125
vt 0.125 0.25
vn -0.8510742 -0.5244141 0.02766418
vn -0.7763672 -0.05599976 0.6279297
vn -0.007247925 -0.0001465082 1
vn -0.2402344 -0.8925781 0.3813477
vn -0.8286133 -0.5571289 -0.05783081
vn -0.07965088 -0.02232361 0.996582
vn 0.0211792 -0.9057617 0.423584
vn -0.2442627 -0.9394531 0.239624
vn 0.286377 -0.8598633 0.4221191
vn -0.1553955 -0.007553101 0.987793
vn 0.8969727 -0.4116211 0.1621094
vn 0.6796875 0.03170776 0.7324219
vn 0.8925781 -0.4445801 0.07769775
vn 0.3188477 -0.9042969 0.2834473
vn 0.03393555 -0.953125 0.3000488
vn -0.8603516 -0.4902344 0.1405029
vn -0.2322998 -0.8618164 0.4511719
vn 0.0134201 -0.8710938 0.4909668
vn 0.2631836 -0.8305664 0.4907227
vn -0.9887695 -0.08605957 -0.1211548
vn -0.9453125 -0.1798096 -0.2717285
vn 0.8837891 -0.3762207 0.277832
vn 0.9916992 -0.06103516 -0.1140137
vn -0.8686523 0.3278809 -0.3713379
vn -0.8359375 0.1791992 -0.5185547
vn 0.9985352 0.03570557 0.04052734
vn 0.8847656 0.2775879 -0.3740234
vn -0.8706055 -0.4169922 0.2617188
vn -0.244873 -0.7915039 0.5600586
vn 0.001457214 -0.8071289 0.5898438
vn -1 -0.01802063 -0.01222992
vn 0.2492676 -0.7597656 0.6000977
vn -0.8789063 0.404541 -0.2524414
vn 0.8657227 -0.3034668 0.3984375
vn -0.2486572 -0.7324219 0.6337891
vn -0.8681641 -0.355957 0.3464355
vn -0.9970703 0.0322876 0.06811523
vn -0.007137299 -0.7548828 0.65625
vn -0.8764648 0.4541016 -0.1604004
vn 0.2337646 -0.7016602 0.6733398
vn 0.9833984 0.1035156 0.1491699
vn 0.8417969 -0.2438965 0.4812012
vn 0.8754883 0.4274902 -0.2249756
vn -0.8466797 -0.2900391 0.4460449
vn -0.9824219 0.09197998 0.1633301
vn -0.2366943 -0.6650391 0.7084961
vn -0.01596069 -0.6943359 0.7192383
vn 0.201416 -0.6367188 0.7446289
vn -0.8549805 0.5151367 -0.05780029
vn -0.8461914 -0.3840332 0.369873
vn -0.2298584 -0.7827148 0.5786133
vn -0.9941406 0.050354 0.09698486
vn 0.00261879 -0.8139648 0.5805664
vn -0.8549805 0.487793 -0.1757813
vn 0.796875 -0.182373 0.5756836
vn 0.2298584 -0.7529297 0.6162109
vn 0.9619141 0.1523438 0.227417
vn 0.8574219 0.5039063 -0.1065674
vn -0.8168945 -0.5712891 -0.07543945
vn -0.887207 -0.2512207 -0.3869629
vn -0.2371826 -0.9428711 -0.2333984
vn -0.824707 0.1697998 -0.5390625
vn 0.08123779 -0.9570313 -0.2783203
vn -0.2479248 -0.515625 -0.8203125
vn -0.2490234 0.1988525 -0.9477539
vn 0.1010132 -0.5268555 -0.84375
vn -0.2469482 0.8588867 -0.4484863
vn 0.06958008 0.1694336 -0.9829102
vn -0.2531738 0.9243164 -0.2856445
vn -0.01493073 0.878418 -0.4780273
vn -0.2653809 0.8867188 -0.3789063
vn -0.03302002 0.9501953 -0.3095703
vn -0.2619629 0.8461914 -0.4641113
vn -0.02450562 0.9199219 -0.3916016
vn -0.2493896 0.7788086 -0.5751953
vn -0.0160675 0.8837891 -0.4680176
vn -0.260498 0.6225586 -0.737793
vn -0.8618164 0.2407227 -0.4467773
vn -0.004142761 0.8227539 -0.5683594
vn -0.2570801 0.7294922 -0.6337891
vn -0.7866211 0.5673828 0.2438965
vn 0.01695251 0.6870117 -0.7260742
vn 0.217041 0.9155273 -0.3383789
vn 0.2324219 0.8759766 -0.4230957
vn 0.2462158 0.8085938 -0.534668
vn 0.3027344 0.6552734 -0.6923828
vn 0.003744125 0.7773438 -0.6293945
vn -0.01959229 0.8979492 0.4394531
vn 0.1849365 0.9506836 -0.2487793
vn 0.2127686 0.887207 -0.409668
vn 0.3759766 0.2376709 -0.8955078
vn 0.4418945 -0.4724121 -0.7626953
vn 0.3879395 -0.9038086 -0.1815186
vn 0.8193359 -0.2739258 0.5039063
vn 0.9248047 0.2088623 0.3183594
vn 0.8339844 0.5517578 -0.01670837
vn 0.7890625 0.609375 0.08044434
vn 0.2697754 0.7597656 -0.5913086
vn 0.8911133 0.338623 -0.3024902
vn 0.9511719 0.1710205 0.2575684
vn 0.8105469 0.5849609 -0.0335083
vn -0.1619873 0.8886719 0.4294434
vn 0.6762695 0.6455078 0.3554688
vn -0.0892334 0.9047852 0.4165039
vn 0.887207 -0.4562988 0.06915283
vn 0.965332 -0.1315918 -0.2261963
vn 0.8793945 0.2749023 -0.3884277
vn 0.7045898 0.3703613 0.6049805
vn 0.8911133 0.338623 -0.3024902
vn -0.300293 0.5068359 0.8081055
vn 0.9980469 -0.02330017 -0.05844116
vn 0.8847656 0.2775879 -0.3740234
vn 0.9916992 -0.06103516 -0.1140137
vn 0.8969727 -0.4116211 0.1621094
vn 0.8925781 -0.4445801 0.07769775
vn 0.6796875 0.03170776 0.7324219
vn -0.1553955 -0.007553101 0.987793
vn -0.1011353 0.5268555 0.84375
vn -0.07965088 -0.02232361 0.996582
vn -0.007247925 -0.0001465082 1
vn 0.09918213 0.5317383 0.8413086
vn -0.7763672 -0.05599976 0.6279297
vn -0.8222656 0.2844238 0.4931641
vn -0.8510742 -0.5244141 0.02766418
vn -0.9663086 -0.1417236 -0.2154541
vn -0.8286133 -0.5571289 -0.05783081
vn -0.8618164 0.2407227 -0.4467773
vn -0.9453125 -0.1798096 -0.2717285
vn -0.8359375 0.1791992 -0.5185547
g FingerSeg2_0
f 3/3/3 2/2/2 1/1/1
f 4/4/4 3/3/3 1/1/1
f 4/4/4 1/1/1 5/5/5
f 6/6/6 3/3/3 4/4/4
f 7/7/7 6/6/6 4/4/4
f 8/8/8 4/4/4 5/5/5
f 7/7/7 4/4/4 8/8/8
f 7/7/7 9/9/9 6/6/6
f 9/9/9 10/10/10 6/6/6
f 9/9/9 11/11/11 10/10/10
f 11/11/11 12/12/12 10/10/10
f 13/13/13 11/11/11 9/9/9
f 14/14/14 9/9/9 7/7/7
f 14/14/14 13/13/13 9/9/9
f 15/15/15 7/7/7 8/8/8
f 15/15/15 14/14/14 7/7/7
f 5/5/5 16/16/16 8/8/8
f 8/8/8 17/17/17 15/15/15
f 16/16/16 17/17/17 8/8/8
f 15/15/15 18/18/18 14/14/14
f 17/17/17 18/18/18 15/15/15
f 14/14/14 19/19/19 13/13/13
f 18/18/18 19/19/19 14/14/14
f 20/20/20 16/16/16 5/5/5
f 21/21/21 20/20/20 5/5/5
f 19/19/19 22/22/22 13/13/13
f 13/13/13 22/22/22 23/23/23
f 24/24/24 20/20/20 21/21/21
f 25/25/25 24/24/24 21/21/21
f 22/22/22 26/26/26 23/23/23
f 23/23/23 26/26/26 27/27/27
f 16/16/16 28/28/28 17/17/17
f 17/17/17 29/29/29 18/18/18
f 28/28/28 29/29/29 17/17/17
f 18/18/18 30/30/30 19/19/19
f 29/29/29 30/30/30 18/18/18
f 20/20/20 31/31/31 16/16/16
f 31/31/31 28/28/28 16/16/16
f 19/19/19 32/32/32 22/22/22
f 30/30/30 32/32/32 19/19/19
f 24/24/24 33/33/33 20/20/20
f 33/33/33 31/31/31 20/20/20
f 22/22/22 34/34/34 26/26/26
f 32/32/32 34/34/34 22/22/22
f 29/29/29 35/35/35 30/30/30
f 28/28/28 36/36/36 29/29/29
f 36/36/36 35/35/35 29/29/29
f 31/31/31 37/37/37 28/28/28
f 37/37/37 36/36/36 28/28/28
f 30/30/30 38/38/38 32/32/32
f 35/35/35 38/38/38 30/30/30
f 33/33/33 39/39/39 31/31/31
f 39/39/39 37/37/37 31/31/31
f 32/32/32 40/40/40 34/34/34
f 38/38/38 40/40/40 32/32/32
f 34/34/34 41/41/41 26/26/26
f 40/40/40 42/42/42 34/34/34
f 34/34/34 42/42/42 41/41/41
f 26/26/26 41/41/41 43/43/43
f 26/26/26 43/43/43 27/27/27
f 36/36/36 44/44/44 35/35/35
f 37/37/37 45/45/45 36/36/36
f 45/45/45 44/44/44 36/36/36
f 35/35/35 46/46/46 38/38/38
f 44/44/44 46/46/46 35/35/35
f 38/38/38 47/47/47 40/40/40
f 46/46/46 47/47/47 38/38/38
f 40/40/40 48/48/48 42/42/42
f 47/47/47 48/48/48 40/40/40
f 49/49/49 45/45/45 37/37/37
f 39/39/39 49/49/49 37/37/37
f 44/44/44 50/50/50 46/46/46
f 46/46/46 51/51/51 47/47/47
f 50/50/50 51/51/51 46/46/46
f 45/45/45 52/52/52 44/44/44
f 52/52/52 50/50/50 44/44/44
f 47/47/47 53/53/53 48/48/48
f 51/51/51 53/53/53 47/47/47
f 49/49/49 54/54/54 45/45/45
f 54/54/54 52/52/52 45/45/45
f 48/48/48 55/55/55 42/42/42
f 53/53/53 56/56/56 48/48/48
f 48/48/48 56/56/56 55/55/55
f 42/42/42 55/55/55 57/57/57
f 42/42/42 57/57/57 41/41/41
f 41/41/41 57/57/57 58/58/58
f 41/41/41 58/58/58 43/43/43
f 50/50/50 59/59/59 51/51/51
f 52/52/52 60/60/60 50/50/50
f 60/60/60 59/59/59 50/50/50
f 59/59/59 61/61/61 51/51/51
f 51/51/51 61/61/61 53/53/53
f 61/61/61 59/59/59 60/60/60
f 62/62/62 60/60/60 52/52/52
f 54/54/54 62/62/62 52/52/52
f 61/61/61 63/63/63 53/53/53
f 53/53/53 63/63/63 56/56/56
f 64/64/64 61/61/61 60/60/60
f 64/64/64 60/60/60 62/62/62
f 63/63/63 61/61/61 64/64/64
f 65/65/65 62/62/62 54/54/54
f 65/65/65 64/64/64 62/62/62
f 66/66/66 63/63/63 64/64/64
f 66/66/66 64/64/64 65/65/65
f 67/67/67 65/65/65 54/54/54
f 67/67/67 54/54/54 49/49/49
f 68/68/68 66/66/66 65/65/65
f 68/68/68 65/65/65 67/67/67
f 69/69/69 67/67/67 49/49/49
f 69/69/69 49/49/49 39/39/39
f 70/70/70 68/68/68 67/67/67
f 70/70/70 67/67/67 69/69/69
f 71/71/71 69/69/69 39/39/39
f 71/71/71 39/39/39 33/33/33
f 72/72/72 70/70/70 69/69/69
f 72/72/72 69/69/69 71/71/71
f 73/73/73 71/71/71 33/33/33
f 73/73/73 33/33/33 24/24/24
f 74/74/74 72/72/72 71/71/71
f 74/74/74 71/71/71 73/73/73
f 75/75/75 73/73/73 24/24/24
f 75/75/75 24/24/24 25/25/25
f 76/76/76 74/74/74 73/73/73
f 76/76/76 73/73/73 75/75/75
f 77/77/77 75/75/75 25/25/25
f 77/77/77 25/25/25 78/78/78
f 79/79/79 76/76/76 75/75/75
f 79/79/79 75/75/75 77/77/77
f 80/80/80 77/77/77 78/78/78
f 80/80/80 78/78/78 81/81/81
f 82/82/82 79/79/79 77/77/77
f 82/82/82 77/77/77 80/80/80
f 74/74/74 83/83/83 72/72/72
f 76/76/76 84/84/84 74/74/74
f 84/84/84 83/83/83 74/74/74
f 79/79/79 85/85/85 76/76/76
f 85/85/85 84/84/84 76/76/76
f 82/82/82 86/86/86 79/79/79
f 86/86/86 85/85/85 79/79/79
f 87/87/87 82/82/82 80/80/80
f 86/86/86 82/82/82 87/87/87
f 88/88/88 80/80/80 81/81/81
f 87/87/87 80/80/80 88/88/88
f 83/83/83 89/89/89 72/72/72
f 72/72/72 89/89/89 70/70/70
f 89/89/89 90/90/90 70/70/70
f 70/70/70 90/90/90 68/68/68
f 90/90/90 91/91/91 68/68/68
f 68/68/68 91/91/91 66/66/66
f 91/91/91 92/92/92 66/66/66
f 66/66/66 92/92/92 63/63/63
f 92/92/92 93/93/93 63/63/63
f 63/63/63 93/93/93 56/56/56
f 56/56/56 93/93/93 94/94/94
f 56/56/56 94/94/94 55/55/55
f 55/55/55 94/94/94 95/95/95
f 55/55/55 95/95/95 57/57/57
f 57/57/57 95/95/95 96/96/96
f 57/57/57 96/96/96 58/58/58
f 83/83/83 96/96/96 89/89/89
f 58/58/58 96/96/96 83/83/83
f 84/84/84 58/58/58 83/83/83
f 43/43/43 58/58/58 84/84/84
f 85/85/85 43/43/43 84/84/84
f 27/27/27 43/43/43 85/85/85
f 86/86/86 27/27/27 85/85/85
f 96/96/96 97/97/97 89/89/89
f 95/95/95 97/97/97 96/96/96
f 89/89/89 97/97/97 90/90/90
f 27/27/27 86/86/86 98/98/98
f 99/99/99 27/27/27 98/98/98
f 98/98/98 86/86/86 87/87/87
f 95/95/95 100/100/100 97/97/97
f 94/94/94 100/100/100 95/95/95
f 97/97/97 101/101/101 90/90/90
f 100/100/100 101/101/101 97/97/97
f 90/90/90 101/101/101 91/91/91
f 99/99/99 98/98/98 102/102/102
f 103/103/103 99/99/99 102/102/102
f 98/98/98 87/87/87 104/104/104
f 102/102/102 98/98/98 104/104/104
f 104/104/104 87/87/87 88/88/88
f 94/94/94 105/105/105 100/100/100
f 93/93/93 105/105/105 94/94/94
f 105/105/105 106/106/106 100/100/100
f 106/106/106 105/105/105 93/93/93
f 100/100/100 106/106/106 101/101/101
f 92/92/92 106/106/106 93/93/93
f 101/101/101 107/107/107 91/91/91
f 106/106/106 107/107/107 101/101/101
f 107/107/107 106/106/106 92/92/92
f 91/91/91 107/107/107 92/92/92
f 108/108/108 103/103/103 102/102/102
f 109/109/109 103/103/103 108/108/108
f 110/110/110 102/102/102 104/104/104
f 110/110/110 108/108/108 102/102/102
f 111/111/111 109/109/109 108/108/108
f 112/112/112 109/109/109 111/111/111
f 113/113/113 112/112/112 111/111/111
f 113/113/113 111/111/111 114/114/114
f 115/115/115 113/113/113 114/114/114
f 114/114/114 111/111/111 116/116/116
f 111/111/111 108/108/108 116/116/116
f 116/116/116 108/108/108 110/110/110
f 117/117/117 116/116/116 110/110/110
f 117/117/117 110/110/110 118/118/118
f 118/118/118 110/110/110 104/104/104
f 119/119/119 117/117/117 118/118/118
f 119/119/119 118/118/118 120/120/120
f 118/118/118 104/104/104 121/121/121
f 118/118/118 121/121/121 120/120/120
f 104/104/104 88/88/88 121/121/121
f 120/120/120 121/121/121 122/122/122
f 121/121/121 88/88/88 123/123/123
f 121/121/121 123/123/123 122/122/122
f 88/88/88 81/81/81 123/123/123
f 122/122/122 123/123/123 124/124/124
f 123/123/123 81/81/81 125/125/125
f 123/123/123 125/125/125 124/124/124
f 124/124/124 125/125/125 126/126/126
f 81/81/81 127/127/127 125/125/125
f 125/125/125 128/128/128 126/126/126
f 125/125/125 127/127/127 128/128/128
f 127/127/127 129/129/129 128/128/128
