g flag_V5_L0
v -0.18 0.18 -0.024
v -0.1448894 0.18 -0.024
v -0.1448894 0.18 0.024
v -0.18 0.18 0.024
v 0.18 0.08999999 -0.024
v -0.1448894 -1.490116E-08 -0.024
v -0.1448894 -1.490116E-08 0.024
v 0.18 0.08999999 0.024
v -0.1448894 -0.18 -0.024
v -0.18 -0.18 -0.024
v -0.18 -0.18 0.024
v -0.1448894 -0.18 0.024
v -0.1448894 0.18 -0.024
v 0.18 0.08999999 -0.024
v 0.18 0.08999999 0.024
v -0.1448894 0.18 0.024
v -0.1448894 -1.490116E-08 -0.024
v -0.1448894 -0.18 -0.024
v -0.1448894 -0.18 0.024
v -0.1448894 -1.490116E-08 0.024
v -0.18 -0.18 0.024
v -0.174 -0.174 0.03
v -0.1508894 -0.174 0.03
v -0.1448894 -0.18 0.024
v -0.1448894 -0.18 0.024
v -0.1508894 -0.174 0.03
v -0.1508894 0.004563842 0.03
v -0.1448894 -1.490116E-08 0.024
v -0.1448894 -1.490116E-08 0.024
v -0.1508894 0.004563842 0.03
v 0.157525 0.08999999 0.03
v 0.18 0.08999999 0.024
v 0.18 0.08999999 0.024
v 0.157525 0.08999999 0.03
v -0.1457051 0.174 0.03
v -0.1448894 0.18 0.024
v -0.1448894 0.18 0.024
v -0.1457051 0.174 0.03
v -0.174 0.174 0.03
v -0.18 0.18 0.024
v -0.18 0.18 0.024
v -0.174 0.174 0.03
v -0.174 -0.174 0.03
v -0.18 -0.18 0.024
v -0.1508894 0.004563842 0.03
v -0.1457051 0.174 0.03
v 0.157525 0.08999999 0.03
v -0.174 0.174 0.03
v -0.174 -0.174 0.03
v -0.1508894 -0.174 0.03
v -0.18 -0.18 -0.024
v -0.1448894 -0.18 -0.024
v -0.1508894 -0.174 -0.03
v -0.174 -0.174 -0.03
v -0.1448894 -0.18 -0.024
v -0.1448894 -1.490116E-08 -0.024
v -0.1508894 0.004563842 -0.03
v -0.1508894 -0.174 -0.03
v -0.1448894 -1.490116E-08 -0.024
v 0.18 0.08999999 -0.024
v 0.157525 0.08999999 -0.03
v -0.1508894 0.004563842 -0.03
v 0.18 0.08999999 -0.024
v -0.1448894 0.18 -0.024
v -0.1457051 0.174 -0.03
v 0.157525 0.08999999 -0.03
v -0.1448894 0.18 -0.024
v -0.18 0.18 -0.024
v -0.174 0.174 -0.03
v -0.1457051 0.174 -0.03
v -0.18 0.18 -0.024
v -0.18 -0.18 -0.024
v -0.174 -0.174 -0.03
v -0.174 0.174 -0.03
v -0.1508894 0.004563842 -0.03
v 0.157525 0.08999999 -0.03
v -0.1457051 0.174 -0.03
v -0.174 0.174 -0.03
v -0.174 -0.174 -0.03
v -0.1508894 -0.174 -0.03
v -0.18 -0.18 -0.024
v -0.18 0.18 -0.024
v -0.18 0.18 0.024
v -0.18 -0.18 0.024
vt 0.2776228 0.8892956
vt 0.3355195 0.8892956
vt 0.3355195 0.8101447
vt 0.2776228 0.8101446
vt 0.565976 0.9107828
vt 0.01006337 0.9107829
vt 0.01006337 0.989934
vt 0.565976 0.989934
vt 0.8238491 0.06795939
vt 0.8238491 0.01006272
vt 0.744698 0.01006272
vt 0.744698 0.06795939
vt 0.3355195 0.8892956
vt 0.891432 0.8892955
vt 0.891432 0.8101445
vt 0.3355195 0.8101447
vt 0.8238492 0.3647762
vt 0.8238491 0.06795939
vt 0.744698 0.06795939
vt 0.7446981 0.3647762
vt 0.01005953 0.2314739
vt 0.0203134 0.2417277
vt 0.05980889 0.2417277
vt 0.07006276 0.2314739
vt 0.07006276 0.2314739
vt 0.05980889 0.2417277
vt 0.05980889 0.5468897
vt 0.07006276 0.5390902
vt 0.07006276 0.5390902
vt 0.05980889 0.5468897
vt 0.586883 0.6928985
vt 0.6252921 0.6928985
vt 0.6252921 0.6928985
vt 0.586883 0.6928985
vt 0.06866878 0.8364526
vt 0.07006276 0.8467066
vt 0.07006276 0.8467066
vt 0.06866878 0.8364526
vt 0.0203134 0.8364526
vt 0.01005953 0.8467066
vt 0.01005953 0.8467066
vt 0.0203134 0.8364526
vt 0.0203134 0.2417277
vt 0.01005953 0.2314739
vt 0.05980889 0.5468897
vt 0.06866878 0.8364526
vt 0.586883 0.6928985
vt 0.0203134 0.8364526
vt 0.0203134 0.2417277
vt 0.05980889 0.2417277
vt 0.01006037 0.0100623
vt 0.01006037 0.07006558
vt 0.02031429 0.05981166
vt 0.02031429 0.02031622
vt 0.01006037 0.07006558
vt 0.3176767 0.07006558
vt 0.3254761 0.05981166
vt 0.02031429 0.05981166
vt 0.3176767 0.07006558
vt 0.4714848 0.6252948
vt 0.4714848 0.5868858
vt 0.3254761 0.05981166
vt 0.4714848 0.6252948
vt 0.625293 0.07006558
vt 0.6150392 0.06867156
vt 0.4714848 0.5868858
vt 0.625293 0.07006558
vt 0.625293 0.01006236
vt 0.6150392 0.02031622
vt 0.6150392 0.06867156
vt 0.625293 0.01006236
vt 0.01006037 0.0100623
vt 0.02031429 0.02031622
vt 0.6150392 0.02031622
vt 0.3254761 0.05981166
vt 0.4714848 0.5868858
vt 0.6150392 0.06867156
vt 0.6150392 0.02031622
vt 0.02031429 0.02031622
vt 0.02031429 0.05981166
vt 0.6454169 0.01005992
vt 0.6454169 0.6036939
vt 0.7245679 0.6036939
vt 0.724568 0.01005992
vn 0 1 0
vn 0 1 0
vn 0 1 0
vn 0 1 0
vn 0.2669635 -0.9637067 0
vn 0.2669635 -0.9637067 0
vn 0.2669635 -0.9637067 0
vn 0.2669635 -0.9637067 0
vn 0 -1 0
vn 0 -1 0
vn 0 -1 0
vn 0 -1 0
vn 0.2669635 0.9637067 0
vn 0.2669635 0.9637067 0
vn 0.2669635 0.9637067 0
vn 0.2669635 0.9637067 0
vn 1 0 0
vn 1 0 0
vn 1 0 0
vn 1 0 0
vn 0 -0.7071068 0.7071068
vn 0 -0.7071068 0.7071068
vn 0 -0.7071068 0.7071068
vn 0 -0.7071068 0.7071068
vn 0.707107 0 0.7071065
vn 0.707107 0 0.7071065
vn 0.707107 0 0.7071065
vn 0.707107 0 0.7071065
vn 0.1887717 -0.6814434 0.7071068
vn 0.1887717 -0.6814434 0.7071068
vn 0.1887717 -0.6814434 0.7071068
vn 0.1887717 -0.6814434 0.7071068
vn 0.1887716 0.6814436 0.7071066
vn 0.1887716 0.6814436 0.7071066
vn 0.1887716 0.6814436 0.7071066
vn 0.1887716 0.6814436 0.7071066
vn 0 0.7071069 0.7071065
vn 0 0.7071069 0.7071065
vn 0 0.7071069 0.7071065
vn 0 0.7071069 0.7071065
vn -0.7071072 0 0.7071063
vn -0.7071072 0 0.7071063
vn -0.7071072 0 0.7071063
vn -0.7071072 0 0.7071063
vn 0 0 1
vn 0 0 1
vn 0 0 1
vn 0 0 1
vn 0 0 1
vn 0 0 1
vn 0 -0.7071067 -0.7071068
vn 0 -0.7071067 -0.7071068
vn 0 -0.7071067 -0.7071068
vn 0 -0.7071067 -0.7071068
vn 0.707107 0 -0.7071065
vn 0.707107 0 -0.7071065
vn 0.707107 0 -0.7071065
vn 0.707107 0 -0.7071065
vn 0.1887717 -0.6814434 -0.7071068
vn 0.1887717 -0.6814434 -0.7071068
vn 0.1887717 -0.6814434 -0.7071068
vn 0.1887717 -0.6814434 -0.7071068
vn 0.1887716 0.6814436 -0.7071066
vn 0.1887716 0.6814436 -0.7071066
vn 0.1887716 0.6814436 -0.7071066
vn 0.1887716 0.6814436 -0.7071066
vn 0 0.7071069 -0.7071066
vn 0 0.7071069 -0.7071066
vn 0 0.7071069 -0.7071066
vn 0 0.7071069 -0.7071066
vn -0.7071075 0 -0.707106
vn -0.7071075 0 -0.707106
vn -0.7071075 0 -0.707106
vn -0.7071075 0 -0.707106
vn 0 0 -1
vn 0 0 -1
vn 0 0 -1
vn 0 0 -1
vn 0 0 -1
vn 0 0 -1
vn -1 0 0
vn -1 0 0
vn -1 0 0
vn -1 0 0
g flag_V5_L0_0
f 3/3/3 2/2/2 1/1/1
f 4/4/4 3/3/3 1/1/1
f 7/7/7 6/6/6 5/5/5
f 8/8/8 7/7/7 5/5/5
f 11/11/11 10/10/10 9/9/9
f 12/12/12 11/11/11 9/9/9
f 15/15/15 14/14/14 13/13/13
f 16/16/16 15/15/15 13/13/13
f 19/19/19 18/18/18 17/17/17
f 20/20/20 19/19/19 17/17/17
f 23/23/23 22/22/22 21/21/21
f 24/24/24 23/23/23 21/21/21
f 27/27/27 26/26/26 25/25/25
f 28/28/28 27/27/27 25/25/25
f 31/31/31 30/30/30 29/29/29
f 32/32/32 31/31/31 29/29/29
f 35/35/35 34/34/34 33/33/33
f 36/36/36 35/35/35 33/33/33
f 39/39/39 38/38/38 37/37/37
f 40/40/40 39/39/39 37/37/37
f 43/43/43 42/42/42 41/41/41
f 44/44/44 43/43/43 41/41/41
f 47/47/47 46/46/46 45/45/45
f 45/45/45 46/46/46 48/48/48
f 45/45/45 48/48/48 49/49/49
f 50/50/50 45/45/45 49/49/49
f 53/53/53 52/52/52 51/51/51
f 54/54/54 53/53/53 51/51/51
f 57/57/57 56/56/56 55/55/55
f 58/58/58 57/57/57 55/55/55
f 61/61/61 60/60/60 59/59/59
f 62/62/62 61/61/61 59/59/59
f 65/65/65 64/64/64 63/63/63
f 66/66/66 65/65/65 63/63/63
f 69/69/69 68/68/68 67/67/67
f 70/70/70 69/69/69 67/67/67
f 73/73/73 72/72/72 71/71/71
f 74/74/74 73/73/73 71/71/71
f 77/77/77 76/76/76 75/75/75
f 77/77/77 75/75/75 78/78/78
f 78/78/78 75/75/75 79/79/79
f 75/75/75 80/80/80 79/79/79
f 83/83/83 82/82/82 81/81/81
f 84/84/84 83/83/83 81/81/81
