g flag_V7_L0
v 0.18 0.1316561 -0.02399999
v 0.18 -0.04834342 -0.02399999
v 0.18 -0.04834342 0.02399999
v 0.18 0.1316561 0.02399999
v 0.18 -0.04834342 -0.02399999
v 0.09 -0.03610702 0.02399999
v 0.18 -0.04834342 0.02399999
v 0.09 -0.03610702 -0.02399999
v 0.03028821 -0.006338848 0.02399999
v 0.03028821 -0.006338848 -0.02399999
v -0.02505343 0.007259801 0.02399999
v -0.02505343 0.007259801 -0.02399999
v -0.05875044 -0.006272823 0.02399999
v -0.05875044 -0.006272823 -0.02399999
v 0 -0.18 -0.02399999
v -0.1784839 0.1326395 -0.02399999
v -0.1784839 0.1326395 0.02399999
v 0 -0.18 0.02399999
v -0.1784839 0.1326395 -0.02399999
v -0.1479924 0.1500469 0.02399999
v -0.1784839 0.1326395 0.02399999
v -0.1479924 0.1500469 -0.02399999
v -0.07107347 0.1757216 0.02399999
v -0.07107347 0.1757216 -0.02399999
v 0.01638265 0.1697127 0.02399999
v 0.01638265 0.1697127 -0.02399999
v 0.09 0.1438925 0.02399999
v 0.09 0.1438925 -0.02399999
v 0.18 0.1316561 0.02399999
v 0.18 0.1316561 -0.02399999
v -0.05875044 -0.006272823 -0.02399999
v 0.03049153 -0.1625926 -0.02399999
v 0.03049153 -0.1625926 0.02399999
v -0.05875044 -0.006272823 0.02399999
v -0.1479924 0.1500469 0.02399999
v -0.1702985 0.1304036 0.02999998
v -0.1784839 0.1326395 0.02399999
v -0.1455315 0.1445429 0.02999999
v -0.07107347 0.1757216 0.02399999
v -0.07030011 0.1696543 0.02999999
v 0.01638265 0.1697127 0.02399999
v 0.01516221 0.1637824 0.02999999
v 0.09 0.1438925 0.02399999
v 0.08858856 0.1380292 0.02999998
v 0.18 0.1316561 0.02399999
v 0.174 0.1264167 0.02999998
v -0.1784839 0.1326395 0.02399999
v -0.1702985 0.1304036 0.02999998
v 0.002235927 -0.1718146 0.02999999
v 0 -0.18 0.02399999
v 0 -0.18 0.02399999
v 0.002235927 -0.1718146 0.02999999
v 0.02230613 -0.1603567 0.02999999
v 0.03049153 -0.1625926 0.02399999
v 0.03049153 -0.1625926 0.02399999
v 0.02230613 -0.1603567 0.02999999
v -0.0673736 -0.003270094 0.02999999
v -0.05875044 -0.006272823 0.02399999
v -0.05875044 -0.006272823 0.02399999
v -0.0673736 -0.003270094 0.02999999
v -0.02549723 0.01354733 0.02999999
v -0.02505343 0.007259801 0.02399999
v 0.03236798 -0.0006714085 0.02999999
v 0.03028821 -0.006338848 0.02399999
v 0.09179018 -0.03029521 0.02999998
v 0.09 -0.03610702 0.02399999
v 0.174 -0.04147246 0.02999998
v 0.18 -0.04834342 0.02399999
v 0.18 -0.04834342 0.02399999
v 0.174 -0.04147246 0.02999998
v 0.174 0.1264167 0.02999998
v 0.18 0.1316561 0.02399999
v 0.09179018 -0.03029521 0.02999998
v 0.174 0.1264167 0.02999998
v 0.174 -0.04147246 0.02999998
v 0.08858856 0.1380292 0.02999998
v 0.03236798 -0.0006714085 0.02999999
v 0.01516221 0.1637824 0.02999999
v -0.02549723 0.01354733 0.02999999
v -0.07030011 0.1696543 0.02999999
v -0.0673736 -0.003270094 0.02999999
v -0.1455315 0.1445429 0.02999999
v -0.1702985 0.1304036 0.02999998
v 0.002235927 -0.1718146 0.02999999
v 0.02230613 -0.1603567 0.02999999
v -0.1479924 0.1500469 -0.02399999
v -0.1784839 0.1326395 -0.02399999
v -0.1702985 0.1304036 -0.02999998
v -0.1455315 0.1445429 -0.02999999
v -0.07107347 0.1757216 -0.02399999
v -0.07030011 0.1696543 -0.02999999
v 0.01638265 0.1697127 -0.02399999
v 0.01516221 0.1637824 -0.02999999
v 0.09 0.1438925 -0.02399999
v 0.08858856 0.1380292 -0.02999998
v 0.18 0.1316561 -0.02399999
v 0.174 0.1264167 -0.02999998
v -0.1784839 0.1326395 -0.02399999
v 0 -0.18 -0.02399999
v 0.002235927 -0.1718146 -0.02999999
v -0.1702985 0.1304036 -0.02999998
v 0 -0.18 -0.02399999
v 0.03049153 -0.1625926 -0.02399999
v 0.02230613 -0.1603567 -0.02999999
v 0.002235927 -0.1718146 -0.02999999
v 0.03049153 -0.1625926 -0.02399999
v -0.05875044 -0.006272823 -0.02399999
v -0.0673736 -0.003270094 -0.02999999
v 0.02230613 -0.1603567 -0.02999999
v -0.05875044 -0.006272823 -0.02399999
v -0.02549723 0.01354733 -0.02999999
v -0.0673736 -0.003270094 -0.02999999
v -0.02505343 0.007259801 -0.02399999
v 0.03236798 -0.0006714085 -0.02999999
v 0.03028821 -0.006338848 -0.02399999
v 0.09179018 -0.03029521 -0.02999998
v 0.09 -0.03610702 -0.02399999
v 0.174 -0.04147246 -0.02999998
v 0.18 -0.04834342 -0.02399999
v 0.18 -0.04834342 -0.02399999
v 0.18 0.1316561 -0.02399999
v 0.174 0.1264167 -0.02999998
v 0.174 -0.04147246 -0.02999998
v 0.09179018 -0.03029521 -0.02999998
v 0.174 -0.04147246 -0.02999998
v 0.174 0.1264167 -0.02999998
v 0.08858856 0.1380292 -0.02999998
v 0.03236798 -0.0006714085 -0.02999999
v 0.01516221 0.1637824 -0.02999999
v -0.02549723 0.01354733 -0.02999999
v -0.07030011 0.1696543 -0.02999999
v -0.0673736 -0.003270094 -0.02999999
v -0.1455315 0.1445429 -0.02999999
v -0.1702985 0.1304036 -0.02999998
v 0.002235927 -0.1718146 -0.02999999
v 0.02230613 -0.1603567 -0.02999999
v 0.03049153 -0.1625926 -0.02399999
v 0 -0.18 -0.02399999
v 0 -0.18 0.02399999
v 0.03049153 -0.1625926 0.02399999
vt 0.9197829 0.2783589
vt 0.9197829 0.5419052
vt 0.9900621 0.5419052
vt 0.9900621 0.2783589
vt 0.9197829 0.5419052
vt 0.9900622 0.6748911
vt 0.9900621 0.5419052
vt 0.9197831 0.6748911
vt 0.9900621 0.7725801
vt 0.9197831 0.7725801
vt 0.9900621 0.8560188
vt 0.9197831 0.8560188
vt 0.9900621 0.9091861
vt 0.9197831 0.9091861
vt 0.2669456 0.4622734
vt 0.2669461 0.9893677
vt 0.3372249 0.9893677
vt 0.3372249 0.4622733
vt 0.8669197 0.5556385
vt 0.7966403 0.5042316
vt 0.7966406 0.5556387
vt 0.8669195 0.5042313
vt 0.79664 0.3855025
vt 0.8669192 0.3855022
vt 0.7966396 0.2571516
vt 0.8669188 0.2571514
vt 0.7966393 0.1429274
vt 0.8669184 0.1429271
vt 0.796639 0.009941676
vt 0.866918 0.009941385
vt 0.6354211 0.3248912
vt 0.6354211 0.06134437
vt 0.565142 0.06134432
vt 0.565142 0.3248912
vt 0.4033916 0.414395
vt 0.4329131 0.3808715
vt 0.4295527 0.3685699
vt 0.4116634 0.4180935
vt 0.3648056 0.5299948
vt 0.373924 0.5311571
vt 0.3738363 0.6614307
vt 0.3827488 0.6595964
vt 0.412641 0.7720686
vt 0.4214528 0.7699476
vt 0.4310307 0.9073278
vt 0.438905 0.8983106
vt 0.4295527 0.3685699
vt 0.4329131 0.3808715
vt 0.8871106 0.6401699
vt 0.8994123 0.6368097
vt 0.8994123 0.6368097
vt 0.8871106 0.6401699
vt 0.8698906 0.670333
vt 0.873251 0.6826346
vt 0.873251 0.6826346
vt 0.8698906 0.670333
vt 0.6338086 0.5355552
vt 0.6383213 0.5485148
vt 0.6383213 0.5485148
vt 0.6338086 0.5355552
vt 0.6085339 0.5984904
vt 0.6179833 0.5991574
vt 0.629903 0.6854549
vt 0.6384205 0.6823292
vt 0.6744239 0.7747592
vt 0.6831585 0.7720686
vt 0.6912221 0.8983106
vt 0.7015482 0.9073278
vt 0.7015482 0.9073278
vt 0.6912221 0.8983106
vt 0.438905 0.8983106
vt 0.4310307 0.9073278
vt 0.6744239 0.7747592
vt 0.438905 0.8983106
vt 0.6912221 0.8983106
vt 0.4214528 0.7699476
vt 0.629903 0.6854549
vt 0.3827488 0.6595964
vt 0.6085339 0.5984904
vt 0.373924 0.5311571
vt 0.6338086 0.5355552
vt 0.4116634 0.4180935
vt 0.4329131 0.3808715
vt 0.8871106 0.6401699
vt 0.8698906 0.670333
vt 0.04857418 0.5028733
vt 0.07473531 0.5486985
vt 0.07809567 0.5363967
vt 0.05684601 0.4991749
vt 0.009988217 0.3872735
vt 0.01910665 0.3861113
vt 0.0190188 0.2558376
vt 0.02793142 0.2576717
vt 0.05782347 0.1451995
vt 0.06663529 0.1473208
vt 0.07621334 0.009940433
vt 0.08408758 0.01895774
vt 0.07473531 0.5486985
vt 0.5445949 0.2804587
vt 0.5322932 0.2770984
vt 0.07809567 0.5363967
vt 0.5445949 0.2804587
vt 0.5184335 0.2346336
vt 0.5150732 0.2469352
vt 0.5322932 0.2770984
vt 0.5184335 0.2346336
vt 0.2835038 0.3687535
vt 0.2789912 0.381713
vt 0.5150732 0.2469352
vt 0.2835038 0.3687535
vt 0.2537165 0.3187779
vt 0.2789912 0.381713
vt 0.2631659 0.3181109
vt 0.2750855 0.2318135
vt 0.283603 0.2349391
vt 0.3196065 0.1425092
vt 0.328341 0.1451995
vt 0.3364046 0.01895774
vt 0.3467309 0.009940433
vt 0.3467309 0.009940433
vt 0.07621334 0.009940433
vt 0.08408758 0.01895774
vt 0.3364046 0.01895774
vt 0.3196065 0.1425092
vt 0.3364046 0.01895774
vt 0.08408758 0.01895774
vt 0.06663529 0.1473208
vt 0.2750855 0.2318135
vt 0.02793142 0.2576717
vt 0.2537165 0.3187779
vt 0.01910665 0.3861113
vt 0.2789912 0.381713
vt 0.05684601 0.4991749
vt 0.07809567 0.5363967
vt 0.5322932 0.2770984
vt 0.5150732 0.2469352
vt 0.6354211 0.06134437
vt 0.6354211 0.00993725
vt 0.565142 0.009937198
vt 0.565142 0.06134432
vn 1 0 0
vn 1 0 0
vn 1 0 0
vn 1 0 0
vn -0.1347205 -0.9908836 0
vn -0.2943751 -0.95569 0
vn -0.1347205 -0.9908836 0
vn -0.2943751 -0.95569 0
vn -0.3445035 -0.938785 0
vn -0.3445035 -0.938785 0
vn 0.0704089 -0.9975182 0
vn 0.0704089 -0.9975182 0
vn 0.372668 -0.9279647 0
vn 0.372668 -0.9279647 0
vn -0.8684432 -0.4957887 0
vn -0.8684432 -0.4957887 0
vn -0.8684432 -0.4957887 0
vn -0.8684432 -0.4957887 0
vn -0.495788 0.8684435 0
vn -0.4081721 0.912905 0
vn -0.495788 0.8684435 0
vn -0.4081721 0.912905 0
vn -0.1264409 0.9919742 0
vn -0.1264409 0.9919742 0
vn 0.2015737 0.9794734 0
vn 0.2015737 0.9794734 0
vn 0.2340394 0.9722271 0
vn 0.2340394 0.9722271 0
vn 0.1347206 0.9908836 0
vn 0.1347206 0.9908836 0
vn 0.8684432 0.4957887 0
vn 0.8684432 0.4957887 0
vn 0.8684432 0.4957887 0
vn 0.8684432 0.4957887 0
vn -0.2879223 0.6439581 0.708815
vn -0.3505753 0.6140831 0.7071059
vn -0.3505753 0.6140831 0.7071059
vn -0.2879223 0.6439581 0.7088149
vn -0.08854439 0.6946629 0.7138651
vn -0.08854431 0.694663 0.7138651
vn 0.1418875 0.6894498 0.7103006
vn 0.1418875 0.6894497 0.7103006
vn 0.1650666 0.6857063 0.7089147
vn 0.1650666 0.6857063 0.7089146
vn 0.09526162 0.7006602 0.7071071
vn 0.09526162 0.7006602 0.7071071
vn -0.6140825 -0.3505757 0.7071062
vn -0.6140825 -0.3505757 0.7071062
vn -0.6140825 -0.3505757 0.7071062
vn -0.6140825 -0.3505757 0.7071062
vn 0.3505754 -0.614082 0.7071069
vn 0.3505754 -0.614082 0.7071069
vn 0.3505754 -0.614082 0.7071069
vn 0.3505754 -0.614082 0.7071069
vn 0.6140822 0.3505758 0.7071065
vn 0.6140822 0.3505758 0.7071065
vn 0.6140822 0.3505758 0.7071065
vn 0.6140822 0.3505758 0.7071065
vn 0.2635161 -0.65617 0.7071069
vn 0.2635161 -0.65617 0.7071069
vn 0.04854503 -0.6877615 0.7243118
vn 0.04854505 -0.6877615 0.7243118
vn -0.2428509 -0.6617779 0.7092766
vn -0.242851 -0.6617779 0.7092767
vn -0.2067497 -0.6712137 0.7118474
vn -0.2067496 -0.6712137 0.7118474
vn -0.0952618 -0.7006604 0.7071068
vn -0.0952618 -0.7006604 0.7071068
vn 0.707108 0 0.7071056
vn 0.707108 0 0.7071056
vn 0.707108 0 0.7071056
vn 0.707108 0 0.7071056
vn 0 0 1
vn 0 0 1
vn 0 0 1
vn 0 0 1
vn 0 0 1
vn 0 0 1
vn 0 0 1
vn 0 0 1
vn 0 0 1
vn 0 0 1
vn 0 0 1
vn 0 0 1
vn 0 0 1
vn -0.2879223 0.643958 -0.708815
vn -0.3505753 0.6140831 -0.707106
vn -0.3505753 0.6140831 -0.707106
vn -0.2879222 0.6439581 -0.7088149
vn -0.08854438 0.694663 -0.713865
vn -0.08854429 0.694663 -0.713865
vn 0.1418875 0.6894498 -0.7103005
vn 0.1418875 0.6894498 -0.7103006
vn 0.1650667 0.6857062 -0.7089147
vn 0.1650666 0.6857063 -0.7089146
vn 0.09526162 0.7006602 -0.7071071
vn 0.09526162 0.7006602 -0.7071071
vn -0.6140826 -0.3505758 -0.7071062
vn -0.6140826 -0.3505758 -0.7071062
vn -0.6140826 -0.3505758 -0.7071062
vn -0.6140826 -0.3505758 -0.7071062
vn 0.3505755 -0.614082 -0.7071068
vn 0.3505755 -0.614082 -0.7071068
vn 0.3505755 -0.614082 -0.7071068
vn 0.3505755 -0.614082 -0.7071068
vn 0.6140822 0.3505757 -0.7071065
vn 0.6140822 0.3505757 -0.7071065
vn 0.6140822 0.3505757 -0.7071065
vn 0.6140822 0.3505757 -0.7071065
vn 0.2635161 -0.6561699 -0.7071069
vn 0.04854506 -0.6877615 -0.7243118
vn 0.2635161 -0.6561699 -0.7071069
vn 0.04854507 -0.6877614 -0.7243118
vn -0.242851 -0.6617779 -0.7092767
vn -0.242851 -0.6617779 -0.7092767
vn -0.2067497 -0.6712137 -0.7118475
vn -0.2067497 -0.6712137 -0.7118474
vn -0.0952618 -0.7006604 -0.7071068
vn -0.0952618 -0.7006604 -0.7071068
vn 0.707108 0 -0.7071055
vn 0.707108 0 -0.7071055
vn 0.707108 0 -0.7071055
vn 0.707108 0 -0.7071055
vn 0 0 -1
vn 0 0 -1
vn 0 0 -1
vn 0 0 -1
vn 0 0 -1
vn 0 0 -1
vn 0 0 -1
vn 0 0 -1
vn 0 0 -1
vn 0 0 -1
vn 0 0 -1
vn 0 0 -1
vn 0 0 -1
vn 0.4957888 -0.8684431 0
vn 0.4957888 -0.8684431 0
vn 0.4957888 -0.8684431 0
vn 0.4957888 -0.8684431 0
g flag_V7_L0_0
f 3/3/3 2/2/2 1/1/1
f 4/4/4 3/3/3 1/1/1
f 7/7/7 6/6/6 5/5/5
f 6/6/6 8/8/8 5/5/5
f 6/6/6 9/9/9 8/8/8
f 9/9/9 10/10/10 8/8/8
f 9/9/9 11/11/11 10/10/10
f 11/11/11 12/12/12 10/10/10
f 11/11/11 13/13/13 12/12/12
f 13/13/13 14/14/14 12/12/12
f 17/17/17 16/16/16 15/15/15
f 18/18/18 17/17/17 15/15/15
f 21/21/21 20/20/20 19/19/19
f 20/20/20 22/22/22 19/19/19
f 20/20/20 23/23/23 22/22/22
f 23/23/23 24/24/24 22/22/22
f 23/23/23 25/25/25 24/24/24
f 25/25/25 26/26/26 24/24/24
f 25/25/25 27/27/27 26/26/26
f 27/27/27 28/28/28 26/26/26
f 27/27/27 29/29/29 28/28/28
f 29/29/29 30/30/30 28/28/28
f 33/33/33 32/32/32 31/31/31
f 34/34/34 33/33/33 31/31/31
f 37/37/37 36/36/36 35/35/35
f 36/36/36 38/38/38 35/35/35
f 35/35/35 38/38/38 39/39/39
f 38/38/38 40/40/40 39/39/39
f 39/39/39 40/40/40 41/41/41
f 40/40/40 42/42/42 41/41/41
f 41/41/41 42/42/42 43/43/43
f 42/42/42 44/44/44 43/43/43
f 43/43/43 44/44/44 45/45/45
f 44/44/44 46/46/46 45/45/45
f 49/49/49 48/48/48 47/47/47
f 50/50/50 49/49/49 47/47/47
f 53/53/53 52/52/52 51/51/51
f 54/54/54 53/53/53 51/51/51
f 57/57/57 56/56/56 55/55/55
f 58/58/58 57/57/57 55/55/55
f 61/61/61 60/60/60 59/59/59
f 62/62/62 61/61/61 59/59/59
f 63/63/63 61/61/61 62/62/62
f 64/64/64 63/63/63 62/62/62
f 65/65/65 63/63/63 64/64/64
f 66/66/66 65/65/65 64/64/64
f 67/67/67 65/65/65 66/66/66
f 68/68/68 67/67/67 66/66/66
f 71/71/71 70/70/70 69/69/69
f 72/72/72 71/71/71 69/69/69
f 75/75/75 74/74/74 73/73/73
f 74/74/74 76/76/76 73/73/73
f 73/73/73 76/76/76 77/77/77
f 76/76/76 78/78/78 77/77/77
f 77/77/77 78/78/78 79/79/79
f 78/78/78 80/80/80 79/79/79
f 79/79/79 80/80/80 81/81/81
f 80/80/80 82/82/82 81/81/81
f 82/82/82 83/83/83 81/81/81
f 81/81/81 83/83/83 84/84/84
f 85/85/85 81/81/81 84/84/84
f 88/88/88 87/87/87 86/86/86
f 89/89/89 88/88/88 86/86/86
f 89/89/89 86/86/86 90/90/90
f 91/91/91 89/89/89 90/90/90
f 91/91/91 90/90/90 92/92/92
f 93/93/93 91/91/91 92/92/92
f 93/93/93 92/92/92 94/94/94
f 95/95/95 93/93/93 94/94/94
f 95/95/95 94/94/94 96/96/96
f 97/97/97 95/95/95 96/96/96
f 100/100/100 99/99/99 98/98/98
f 101/101/101 100/100/100 98/98/98
f 104/104/104 103/103/103 102/102/102
f 105/105/105 104/104/104 102/102/102
f 108/108/108 107/107/107 106/106/106
f 109/109/109 108/108/108 106/106/106
f 112/112/112 111/111/111 110/110/110
f 111/111/111 113/113/113 110/110/110
f 111/111/111 114/114/114 113/113/113
f 114/114/114 115/115/115 113/113/113
f 114/114/114 116/116/116 115/115/115
f 116/116/116 117/117/117 115/115/115
f 116/116/116 118/118/118 117/117/117
f 118/118/118 119/119/119 117/117/117
f 122/122/122 121/121/121 120/120/120
f 123/123/123 122/122/122 120/120/120
f 126/126/126 125/125/125 124/124/124
f 127/127/127 126/126/126 124/124/124
f 127/127/127 124/124/124 128/128/128
f 129/129/129 127/127/127 128/128/128
f 129/129/129 128/128/128 130/130/130
f 131/131/131 129/129/129 130/130/130
f 131/131/131 130/130/130 132/132/132
f 133/133/133 131/131/131 132/132/132
f 134/134/134 133/133/133 132/132/132
f 134/134/134 132/132/132 135/135/135
f 132/132/132 136/136/136 135/135/135
f 139/139/139 138/138/138 137/137/137
f 140/140/140 139/139/139 137/137/137
