g flag_V2_L0
v 0.01755528 0.18 -0.024
v 0.18 0.08999999 -0.024
v 0.18 0.08999999 0.024
v 0.01755528 0.18 0.024
v 0.01755528 -1.490116E-08 -0.024
v 0.01755528 -0.18 -0.024
v 0.01755528 -0.18 0.024
v 0.01755528 -1.490116E-08 0.024
v -0.01755528 0.18 -0.024
v 0.01755528 0.18 -0.024
v 0.01755528 0.18 0.024
v -0.01755528 0.18 0.024
v 0.18 0.08999999 -0.024
v 0.01755528 -1.490116E-08 -0.024
v 0.01755528 -1.490116E-08 0.024
v 0.18 0.08999999 0.024
v 0.01755528 -0.18 -0.024
v -0.01755528 -0.18 -0.024
v -0.01755528 -0.18 0.024
v 0.01755528 -0.18 0.024
v -0.01755528 -0.18 0.024
v -0.01155528 -0.174 0.03
v 0.01155528 -0.174 0.03
v 0.01755528 -0.18 0.024
v 0.01755528 -0.18 0.024
v 0.01155528 -0.174 0.03
v 0.01155528 0.003535104 0.03
v 0.01755528 -1.490116E-08 0.024
v 0.01755528 -1.490116E-08 0.024
v 0.01155528 0.003535104 0.03
v 0.1676193 0.08999999 0.03
v 0.18 0.08999999 0.024
v 0.18 0.08999999 0.024
v 0.1676193 0.08999999 0.03
v 0.01600425 0.174 0.03
v 0.01755528 0.18 0.024
v 0.01755528 0.18 0.024
v 0.01600425 0.174 0.03
v -0.01155528 0.174 0.03
v -0.01755528 0.18 0.024
v -0.01755528 0.18 0.024
v -0.01155528 0.174 0.03
v -0.01155528 -0.174 0.03
v -0.01755528 -0.18 0.024
v 0.01155528 0.003535104 0.03
v 0.01600425 0.174 0.03
v 0.1676193 0.08999999 0.03
v -0.01155528 0.174 0.03
v -0.01155528 -0.174 0.03
v 0.01155528 -0.174 0.03
v 0.1676193 0.08999999 -0.03
v 0.01600425 0.174 -0.03
v 0.01155528 0.003535104 -0.03
v -0.01155528 0.174 -0.03
v -0.01155528 -0.174 -0.03
v 0.01155528 -0.174 -0.03
v -0.01755528 -0.18 -0.024
v 0.01755528 -0.18 -0.024
v 0.01155528 -0.174 -0.03
v -0.01155528 -0.174 -0.03
v 0.01755528 -0.18 -0.024
v 0.01755528 -1.490116E-08 -0.024
v 0.01155528 0.003535104 -0.03
v 0.01155528 -0.174 -0.03
v 0.01755528 -1.490116E-08 -0.024
v 0.18 0.08999999 -0.024
v 0.1676193 0.08999999 -0.03
v 0.01155528 0.003535104 -0.03
v 0.18 0.08999999 -0.024
v 0.01755528 0.18 -0.024
v 0.01600425 0.174 -0.03
v 0.1676193 0.08999999 -0.03
v 0.01755528 0.18 -0.024
v -0.01755528 0.18 -0.024
v -0.01155528 0.174 -0.03
v 0.01600425 0.174 -0.03
v -0.01755528 0.18 -0.024
v -0.01755528 -0.18 -0.024
v -0.01155528 -0.174 -0.03
v -0.01155528 0.174 -0.03
v -0.01755528 -0.18 -0.024
v -0.01755528 0.18 -0.024
v -0.01755528 0.18 0.024
v -0.01755528 -0.18 0.024
vt 0.07320022 0.7997447
vt 0.4121025 0.7997447
vt 0.4121025 0.7121494
vt 0.07320022 0.7121495
vt 0.8850166 0.401682
vt 0.8850166 0.07320011
vt 0.7974213 0.07320011
vt 0.7974213 0.401682
vt 0.009126952 0.7997447
vt 0.07320022 0.7997447
vt 0.07320022 0.7121495
vt 0.009126952 0.7121495
vt 0.8850166 0.7405843
vt 0.8850166 0.401682
vt 0.7974213 0.401682
vt 0.7974214 0.7405843
vt 0.8850166 0.07320011
vt 0.8850166 0.009126914
vt 0.7974213 0.009126875
vt 0.7974213 0.07320011
vt 0.4032766 0.00913425
vt 0.4146927 0.02055023
vt 0.4586644 0.02055023
vt 0.4700804 0.00913425
vt 0.4700804 0.00913425
vt 0.4586644 0.02055023
vt 0.4586644 0.358341
vt 0.4700804 0.3516148
vt 0.4700804 0.3516148
vt 0.4586644 0.358341
vt 0.7556025 0.522855
vt 0.7791589 0.522855
vt 0.7791589 0.522855
vt 0.7556025 0.522855
vt 0.4671293 0.6826792
vt 0.4700804 0.6940954
vt 0.4700804 0.6940954
vt 0.4671293 0.6826792
vt 0.4146927 0.6826792
vt 0.4032766 0.6940954
vt 0.4032766 0.6940954
vt 0.4146927 0.6826792
vt 0.4146927 0.02055023
vt 0.4032766 0.00913425
vt 0.4586644 0.358341
vt 0.4671293 0.6826792
vt 0.7556025 0.522855
vt 0.4146927 0.6826792
vt 0.4146927 0.02055023
vt 0.4586644 0.02055023
vt 0.03268947 0.5228467
vt 0.3211627 0.6826708
vt 0.3296277 0.3583326
vt 0.3735994 0.6826708
vt 0.3735994 0.0205418
vt 0.3296277 0.0205418
vt 0.3850155 0.009125915
vt 0.3182116 0.009125887
vt 0.3296277 0.0205418
vt 0.3735994 0.0205418
vt 0.3182116 0.009125887
vt 0.3182117 0.3516064
vt 0.3296277 0.3583326
vt 0.3296277 0.0205418
vt 0.3182117 0.3516064
vt 0.009133153 0.5228467
vt 0.03268947 0.5228467
vt 0.3296277 0.3583326
vt 0.009133153 0.5228467
vt 0.3182117 0.694087
vt 0.3211627 0.6826708
vt 0.03268947 0.5228467
vt 0.3182117 0.694087
vt 0.3850155 0.694087
vt 0.3735994 0.6826708
vt 0.3211627 0.6826708
vt 0.3850155 0.694087
vt 0.3850155 0.009125915
vt 0.3735994 0.0205418
vt 0.3735994 0.6826708
vt 0.9032766 0.01369165
vt 0.9032766 0.6706555
vt 0.9908717 0.6706555
vt 0.9908719 0.01369165
vn 0.484626 0.8747215 0
vn 0.484626 0.8747215 0
vn 0.484626 0.8747215 0
vn 0.484626 0.8747215 0
vn 1 0 0
vn 1 0 0
vn 1 0 0
vn 1 0 0
vn 0 1 0
vn 0 1 0
vn 0 1 0
vn 0 1 0
vn 0.484626 -0.8747215 0
vn 0.484626 -0.8747215 0
vn 0.484626 -0.8747215 0
vn 0.484626 -0.8747215 0
vn 0 -1 0
vn 0 -1 0
vn 0 -1 0
vn 0 -1 0
vn 0 -0.7071069 0.7071066
vn 0 -0.7071069 0.7071066
vn 0 -0.7071069 0.7071066
vn 0 -0.7071069 0.7071066
vn 0.7071068 0 0.7071067
vn 0.7071068 0 0.7071067
vn 0.7071068 0 0.7071067
vn 0.7071068 0 0.7071067
vn 0.3426823 -0.6185215 0.7071067
vn 0.3426823 -0.6185215 0.7071067
vn 0.3426823 -0.6185215 0.7071067
vn 0.3426823 -0.6185215 0.7071067
vn 0.3426824 0.6185217 0.7071065
vn 0.3426824 0.6185217 0.7071065
vn 0.3426824 0.6185217 0.7071065
vn 0.3426824 0.6185217 0.7071065
vn 0 0.7071069 0.7071066
vn 0 0.7071069 0.7071066
vn 0 0.7071069 0.7071066
vn 0 0.7071069 0.7071066
vn -0.7071066 0 0.7071069
vn -0.7071066 0 0.7071069
vn -0.7071066 0 0.7071069
vn -0.7071066 0 0.7071069
vn 0 0 1
vn 0 0 1
vn 0 0 1
vn 0 0 1
vn 0 0 1
vn 0 0 1
vn 0 0 -1
vn 0 0 -1
vn 0 0 -1
vn 0 0 -1
vn 0 0 -1
vn 0 0 -1
vn 0 -0.7071069 -0.7071066
vn 0 -0.7071069 -0.7071066
vn 0 -0.7071069 -0.7071066
vn 0 -0.7071069 -0.7071066
vn 0.7071068 0 -0.7071067
vn 0.7071068 0 -0.7071067
vn 0.7071068 0 -0.7071067
vn 0.7071068 0 -0.7071067
vn 0.3426823 -0.6185215 -0.7071067
vn 0.3426823 -0.6185215 -0.7071067
vn 0.3426823 -0.6185215 -0.7071067
vn 0.3426823 -0.6185215 -0.7071067
vn 0.3426824 0.6185216 -0.7071066
vn 0.3426824 0.6185216 -0.7071066
vn 0.3426824 0.6185216 -0.7071066
vn 0.3426824 0.6185216 -0.7071066
vn 0 0.7071069 -0.7071066
vn 0 0.7071069 -0.7071066
vn 0 0.7071069 -0.7071066
vn 0 0.7071069 -0.7071066
vn -0.7071067 0 -0.7071068
vn -0.7071067 0 -0.7071068
vn -0.7071067 0 -0.7071068
vn -0.7071067 0 -0.7071068
vn -1 0 0
vn -1 0 0
vn -1 0 0
vn -1 0 0
g flag_V2_L0_0
f 3/3/3 2/2/2 1/1/1
f 4/4/4 3/3/3 1/1/1
f 7/7/7 6/6/6 5/5/5
f 8/8/8 7/7/7 5/5/5
f 11/11/11 10/10/10 9/9/9
f 12/12/12 11/11/11 9/9/9
f 15/15/15 14/14/14 13/13/13
f 16/16/16 15/15/15 13/13/13
f 19/19/19 18/18/18 17/17/17
f 20/20/20 19/19/19 17/17/17
f 23/23/23 22/22/22 21/21/21
f 24/24/24 23/23/23 21/21/21
f 27/27/27 26/26/26 25/25/25
f 28/28/28 27/27/27 25/25/25
f 31/31/31 30/30/30 29/29/29
f 32/32/32 31/31/31 29/29/29
f 35/35/35 34/34/34 33/33/33
f 36/36/36 35/35/35 33/33/33
f 39/39/39 38/38/38 37/37/37
f 40/40/40 39/39/39 37/37/37
f 43/43/43 42/42/42 41/41/41
f 44/44/44 43/43/43 41/41/41
f 47/47/47 46/46/46 45/45/45
f 45/45/45 46/46/46 48/48/48
f 45/45/45 48/48/48 49/49/49
f 50/50/50 45/45/45 49/49/49
f 53/53/53 52/52/52 51/51/51
f 54/54/54 52/52/52 53/53/53
f 54/54/54 53/53/53 55/55/55
f 53/53/53 56/56/56 55/55/55
f 59/59/59 58/58/58 57/57/57
f 60/60/60 59/59/59 57/57/57
f 63/63/63 62/62/62 61/61/61
f 64/64/64 63/63/63 61/61/61
f 67/67/67 66/66/66 65/65/65
f 68/68/68 67/67/67 65/65/65
f 71/71/71 70/70/70 69/69/69
f 72/72/72 71/71/71 69/69/69
f 75/75/75 74/74/74 73/73/73
f 76/76/76 75/75/75 73/73/73
f 79/79/79 78/78/78 77/77/77
f 80/80/80 79/79/79 77/77/77
f 83/83/83 82/82/82 81/81/81
f 84/84/84 83/83/83 81/81/81
