g flag_V4_L0
v -0.18 -0.18 -0.024
v -0.18 0.18 -0.024
v -0.18 0.18 0.024
v -0.18 -0.18 0.024
v 0.18 0.18 -0.024
v 0.18 -1.490116E-08 -0.024
v 0.18 -1.490116E-08 0.024
v 0.18 0.18 0.024
v -0.18 0.18 -0.024
v 0.18 0.18 -0.024
v 0.18 0.18 0.024
v -0.18 0.18 0.024
v 0.18 -1.490116E-08 -0.024
v -0.1448894 -1.490116E-08 -0.024
v -0.1448894 -1.490116E-08 0.024
v 0.18 -1.490116E-08 0.024
v -0.1448894 -1.490116E-08 -0.024
v -0.1448894 -0.18 -0.024
v -0.1448894 -0.18 0.024
v -0.1448894 -1.490116E-08 0.024
v -0.18 -0.18 0.024
v -0.174 -0.174 0.03
v -0.1508894 -0.174 0.03
v -0.1448894 -0.18 0.024
v -0.1448894 -0.18 0.024
v -0.1508894 -0.174 0.03
v -0.1508894 0.005999985 0.03
v -0.1448894 -1.490116E-08 0.024
v -0.1448894 -1.490116E-08 0.024
v -0.1508894 0.005999985 0.03
v 0.174 0.005999985 0.03
v 0.18 -1.490116E-08 0.024
v 0.18 -1.490116E-08 0.024
v 0.174 0.005999985 0.03
v 0.174 0.174 0.03
v 0.18 0.18 0.024
v 0.18 0.18 0.024
v 0.174 0.174 0.03
v -0.174 0.174 0.03
v -0.18 0.18 0.024
v -0.18 0.18 0.024
v -0.174 0.174 0.03
v -0.174 -0.174 0.03
v -0.18 -0.18 0.024
v -0.1508894 0.005999985 0.03
v 0.174 0.174 0.03
v 0.174 0.005999985 0.03
v -0.174 0.174 0.03
v -0.174 -0.174 0.03
v -0.1508894 -0.174 0.03
v -0.18 -0.18 -0.024
v -0.1448894 -0.18 -0.024
v -0.1508894 -0.174 -0.03
v -0.174 -0.174 -0.03
v -0.1448894 -0.18 -0.024
v -0.1448894 -1.490116E-08 -0.024
v -0.1508894 0.005999985 -0.03
v -0.1508894 -0.174 -0.03
v -0.1448894 -1.490116E-08 -0.024
v 0.18 -1.490116E-08 -0.024
v 0.174 0.005999985 -0.03
v -0.1508894 0.005999985 -0.03
v 0.18 -1.490116E-08 -0.024
v 0.18 0.18 -0.024
v 0.174 0.174 -0.03
v 0.174 0.005999985 -0.03
v 0.18 0.18 -0.024
v -0.18 0.18 -0.024
v -0.174 0.174 -0.03
v 0.174 0.174 -0.03
v -0.18 0.18 -0.024
v -0.18 -0.18 -0.024
v -0.174 -0.174 -0.03
v -0.174 0.174 -0.03
v -0.1508894 0.005999985 -0.03
v 0.174 0.005999985 -0.03
v 0.174 0.174 -0.03
v -0.174 0.174 -0.03
v -0.174 -0.174 -0.03
v -0.1508894 -0.174 -0.03
v -0.1448894 -0.18 -0.024
v -0.18 -0.18 -0.024
v -0.18 -0.18 0.024
v -0.1448894 -0.18 0.024
vt 0.01106931 0.6831431
vt 0.5701159 0.6831429
vt 0.5701159 0.6086034
vt 0.01106931 0.6086035
vt 0.5922471 0.608605
vt 0.5922471 0.8881283
vt 0.6667868 0.8881283
vt 0.6667868 0.608605
vt 0.01106523 0.7827276
vt 0.5701118 0.7827275
vt 0.5701118 0.708188
vt 0.0110652 0.708188
vt 0.9143906 0.01660361
vt 0.9143906 0.5211264
vt 0.9889301 0.5211264
vt 0.9889299 0.01660361
vt 0.9143838 0.5422118
vt 0.9143839 0.821735
vt 0.9889232 0.8217351
vt 0.9889232 0.5422118
vt 0.01106489 0.01106021
vt 0.02061011 0.02060532
vt 0.05737589 0.02060532
vt 0.06692108 0.01106021
vt 0.06692108 0.01106021
vt 0.05737589 0.02060532
vt 0.05737581 0.3069608
vt 0.06692108 0.2974158
vt 0.06692108 0.2974158
vt 0.05737581 0.3069608
vt 0.5742306 0.3069608
vt 0.5837759 0.2974158
vt 0.5837759 0.2974158
vt 0.5742306 0.3069608
vt 0.5742306 0.574226
vt 0.5837759 0.5837712
vt 0.5837759 0.5837712
vt 0.5742306 0.574226
vt 0.02061011 0.574226
vt 0.01106489 0.5837712
vt 0.01106489 0.5837712
vt 0.02061011 0.574226
vt 0.02061011 0.02060532
vt 0.01106489 0.01106021
vt 0.05737581 0.3069608
vt 0.5742306 0.574226
vt 0.5742306 0.3069608
vt 0.02061011 0.574226
vt 0.02061011 0.02060532
vt 0.05737589 0.02060532
vt 0.3195459 0.0110695
vt 0.3195459 0.06692564
vt 0.3290912 0.05738046
vt 0.3290912 0.02061475
vt 0.3195459 0.06692564
vt 0.6059015 0.06692564
vt 0.6154467 0.05738039
vt 0.3290912 0.05738046
vt 0.6059015 0.06692564
vt 0.6059015 0.5837804
vt 0.6154467 0.5742353
vt 0.6154467 0.05738039
vt 0.6059015 0.5837804
vt 0.892257 0.5837804
vt 0.8827118 0.5742353
vt 0.6154467 0.5742353
vt 0.892257 0.5837804
vt 0.892257 0.0110695
vt 0.8827118 0.02061475
vt 0.8827118 0.5742353
vt 0.892257 0.0110695
vt 0.3195459 0.0110695
vt 0.3290912 0.02061475
vt 0.8827118 0.02061475
vt 0.6154467 0.05738039
vt 0.6154467 0.5742353
vt 0.8827118 0.5742353
vt 0.8827118 0.02061475
vt 0.3290912 0.02061475
vt 0.3290912 0.05738046
vt 0.9143839 0.821735
vt 0.9143839 0.8762586
vt 0.9889231 0.8762586
vt 0.9889232 0.8217351
vn -1 0 0
vn -1 0 0
vn -1 0 0
vn -1 0 0
vn 1 0 0
vn 1 0 0
vn 1 0 0
vn 1 0 0
vn 0 1 0
vn 0 1 0
vn 0 1 0
vn 0 1 0
vn 0 -1 0
vn 0 -1 0
vn 0 -1 0
vn 0 -1 0
vn 1 0 0
vn 1 0 0
vn 1 0 0
vn 1 0 0
vn 0 -0.7071068 0.7071068
vn 0 -0.7071068 0.7071068
vn 0 -0.7071068 0.7071068
vn 0 -0.7071068 0.7071068
vn 0.7071071 0 0.7071065
vn 0.7071071 0 0.7071065
vn 0.7071071 0 0.7071065
vn 0.7071071 0 0.7071065
vn 0 -0.7071067 0.7071068
vn 0 -0.7071067 0.7071068
vn 0 -0.7071067 0.7071068
vn 0 -0.7071067 0.7071068
vn 0.7071075 0 0.7071061
vn 0.7071075 0 0.7071061
vn 0.7071075 0 0.7071061
vn 0.7071075 0 0.7071061
vn 0 0.7071068 0.7071067
vn 0 0.7071068 0.7071067
vn 0 0.7071068 0.7071067
vn 0 0.7071068 0.7071067
vn -0.7071072 0 0.7071063
vn -0.7071072 0 0.7071063
vn -0.7071072 0 0.7071063
vn -0.7071072 0 0.7071063
vn 0 0 1
vn 0 0 1
vn 0 0 1
vn 0 0 1
vn 0 0 1
vn 0 0 1
vn 0 -0.7071067 -0.7071068
vn 0 -0.7071067 -0.7071068
vn 0 -0.7071067 -0.7071068
vn 0 -0.7071067 -0.7071068
vn 0.7071072 0 -0.7071063
vn 0.7071072 0 -0.7071063
vn 0.7071072 0 -0.7071063
vn 0.7071072 0 -0.7071063
vn 0 -0.7071067 -0.7071068
vn 0 -0.7071067 -0.7071068
vn 0 -0.7071067 -0.7071068
vn 0 -0.7071067 -0.7071068
vn 0.7071072 0 -0.7071062
vn 0.7071072 0 -0.7071062
vn 0.7071072 0 -0.7071062
vn 0.7071072 0 -0.7071062
vn 0 0.7071068 -0.7071067
vn 0 0.7071068 -0.7071067
vn 0 0.7071068 -0.7071067
vn 0 0.7071068 -0.7071067
vn -0.7071075 0 -0.707106
vn -0.7071075 0 -0.707106
vn -0.7071075 0 -0.707106
vn -0.7071075 0 -0.707106
vn 0 0 -1
vn 0 0 -1
vn 0 0 -1
vn 0 0 -1
vn 0 0 -1
vn 0 0 -1
vn 0 -1 0
vn 0 -1 0
vn 0 -1 0
vn 0 -1 0
g flag_V4_L0_0
f 3/3/3 2/2/2 1/1/1
f 4/4/4 3/3/3 1/1/1
f 7/7/7 6/6/6 5/5/5
f 8/8/8 7/7/7 5/5/5
f 11/11/11 10/10/10 9/9/9
f 12/12/12 11/11/11 9/9/9
f 15/15/15 14/14/14 13/13/13
f 16/16/16 15/15/15 13/13/13
f 19/19/19 18/18/18 17/17/17
f 20/20/20 19/19/19 17/17/17
f 23/23/23 22/22/22 21/21/21
f 24/24/24 23/23/23 21/21/21
f 27/27/27 26/26/26 25/25/25
f 28/28/28 27/27/27 25/25/25
f 31/31/31 30/30/30 29/29/29
f 32/32/32 31/31/31 29/29/29
f 35/35/35 34/34/34 33/33/33
f 36/36/36 35/35/35 33/33/33
f 39/39/39 38/38/38 37/37/37
f 40/40/40 39/39/39 37/37/37
f 43/43/43 42/42/42 41/41/41
f 44/44/44 43/43/43 41/41/41
f 47/47/47 46/46/46 45/45/45
f 46/46/46 48/48/48 45/45/45
f 45/45/45 48/48/48 49/49/49
f 50/50/50 45/45/45 49/49/49
f 53/53/53 52/52/52 51/51/51
f 54/54/54 53/53/53 51/51/51
f 57/57/57 56/56/56 55/55/55
f 58/58/58 57/57/57 55/55/55
f 61/61/61 60/60/60 59/59/59
f 62/62/62 61/61/61 59/59/59
f 65/65/65 64/64/64 63/63/63
f 66/66/66 65/65/65 63/63/63
f 69/69/69 68/68/68 67/67/67
f 70/70/70 69/69/69 67/67/67
f 73/73/73 72/72/72 71/71/71
f 74/74/74 73/73/73 71/71/71
f 77/77/77 76/76/76 75/75/75
f 78/78/78 77/77/77 75/75/75
f 78/78/78 75/75/75 79/79/79
f 75/75/75 80/80/80 79/79/79
f 83/83/83 82/82/82 81/81/81
f 84/84/84 83/83/83 81/81/81
