g flower_marker_V3_P2_L2
v 0 0.03783023 -1.053953E-09
v -0.02129395 0.09374629 4.063649E-09
v 0.02129395 0.09374629 4.06365E-09
v 0.02182905 0.1081246 3.600286E-09
v -0.02182905 0.1081246 3.600285E-09
v 0.01497138 0.1188378 3.49358E-09
v -0.01497138 0.1188378 3.49358E-09
v 0 0.1225247 2.855584E-09
vt 0.2702022 0.02545084
vt 0.03157875 0.6520553
vt 0.5088258 0.6520553
vt 0.5148221 0.8131809
vt 0.02558248 0.8131809
vt 0.4379741 0.9332344
vt 0.1024305 0.9332344
vt 0.2702022 0.9745508
vn 0 0 1
vn 0 0 1
vn 0 0 1
vn 0 0 1
vn 0 0 1
vn 0 0 1
vn 0 0 1
vn 0 0 1
g flower_marker_V3_P2_L2_0
f 3/3/3 2/2/2 1/1/1
f 3/3/3 4/4/4 2/2/2
f 4/4/4 5/5/5 2/2/2
f 4/4/4 6/6/6 5/5/5
f 6/6/6 7/7/7 5/5/5
f 6/6/6 8/8/8 7/7/7
