g flower_marker_V3_P2_L1
v 0 0.03783023 0.03
v -0.02129395 0.09374629 0.03
v 0.02129395 0.09374629 0.03
v 0.02182905 0.1081246 0.03
v -0.02182905 0.1081246 0.03
v 0.01497138 0.1188378 0.03
v -0.01497138 0.1188378 0.03
v 0 0.1225247 0.03
v 0.02129395 0.09374629 -0.03
v 0 0.03783023 -0.03
v 0 0.03783023 0.03
v 0.02129395 0.09374629 0.03
v 0.02182905 0.1081246 -0.03
v 0.02182905 0.1081246 0.03
v 0.01497138 0.1188378 -0.03
v 0.01497138 0.1188378 0.03
v 0 0.1225247 -0.03
v 0 0.1225247 0.03
v 0 0.03783023 -0.03
v -0.02129395 0.09374629 0.03
v 0 0.03783023 0.03
v -0.02129395 0.09374629 -0.03
v -0.02182905 0.1081246 0.03
v -0.02182905 0.1081246 -0.03
v -0.01497138 0.1188378 0.03
v -0.01497138 0.1188378 -0.03
v 0 0.1225247 0.03
v 0 0.1225247 -0.03
v 0 0.03783023 -0.03
v 0.02129395 0.09374629 -0.03
v -0.02129395 0.09374629 -0.03
v 0.02182905 0.1081246 -0.03
v -0.02182905 0.1081246 -0.03
v 0.01497138 0.1188378 -0.03
v -0.01497138 0.1188378 -0.03
v 0 0.1225247 -0.03
vt 0.8554029 0.4689311
vt 0.7247971 0.8118905
vt 0.9860088 0.8118905
vt 0.9892908 0.9000794
vt 0.7215152 0.9000792
vt 0.9472296 0.9657885
vt 0.7635766 0.9657884
vt 0.8554031 0.988402
vt 0.3786673 0.3776455
vt 0.3786673 0.01065909
vt 0.01065909 0.01065921
vt 0.01065921 0.3776456
vt 0.3786672 0.4658956
vt 0.01065921 0.4658955
vt 0.3786672 0.5439137
vt 0.01065921 0.5439136
vt 0.3786673 0.6384838
vt 0.01065921 0.6384836
vt 0.7679936 0.6384837
vt 0.3999855 0.2714974
vt 0.3999855 0.6384837
vt 0.7679935 0.2714974
vt 0.3999854 0.1832474
vt 0.7679936 0.1832473
vt 0.3999854 0.1052293
vt 0.7679935 0.1052292
vt 0.3999854 0.01065933
vt 0.7679936 0.01065909
vt 0.5301232 0.7947048
vt 0.1871638 0.6640989
vt 0.1871639 0.9253106
vt 0.098975 0.660817
vt 0.09897506 0.9285926
vt 0.03326581 0.7028782
vt 0.033266 0.8865313
vt 0.01065254 0.7947047
vn 0 0 1
vn 0 0 1
vn 0 0 1
vn 0 0 1
vn 0 0 1
vn 0 0 1
vn 0 0 1
vn 0 0 1
vn 0.979961 -0.1991895 0
vn 0.9345289 -0.3558873 0
vn 0.9345289 -0.3558873 0
vn 0.979961 -0.1991895 0
vn 0.9648044 0.2629688 0
vn 0.9648044 0.2629688 0
vn 0.582199 0.8130463 0
vn 0.582199 0.8130463 0
vn 0 1 0
vn 0 1 0
vn -0.9345289 -0.3558873 0
vn -0.979961 -0.1991895 0
vn -0.9345289 -0.3558873 0
vn -0.979961 -0.1991895 0
vn -0.9648044 0.2629688 0
vn -0.9648044 0.2629688 0
vn -0.582199 0.8130463 0
vn -0.582199 0.8130463 0
vn 0 1 0
vn 0 1 0
vn 0 0 -1
vn 0 0 -1
vn 0 0 -1
vn 0 0 -1
vn 0 0 -1
vn 0 0 -1
vn 0 0 -1
vn 0 0 -1
g flower_marker_V3_P2_L1_0
f 3/3/3 2/2/2 1/1/1
f 3/3/3 4/4/4 2/2/2
f 4/4/4 5/5/5 2/2/2
f 4/4/4 6/6/6 5/5/5
f 6/6/6 7/7/7 5/5/5
f 6/6/6 8/8/8 7/7/7
f 11/11/11 10/10/10 9/9/9
f 12/12/12 11/11/11 9/9/9
f 12/12/12 9/9/9 13/13/13
f 14/14/14 12/12/12 13/13/13
f 14/14/14 13/13/13 15/15/15
f 16/16/16 14/14/14 15/15/15
f 16/16/16 15/15/15 17/17/17
f 18/18/18 16/16/16 17/17/17
f 21/21/21 20/20/20 19/19/19
f 20/20/20 22/22/22 19/19/19
f 20/20/20 23/23/23 22/22/22
f 23/23/23 24/24/24 22/22/22
f 23/23/23 25/25/25 24/24/24
f 25/25/25 26/26/26 24/24/24
f 25/25/25 27/27/27 26/26/26
f 27/27/27 28/28/28 26/26/26
f 31/31/31 30/30/30 29/29/29
f 32/32/32 30/30/30 31/31/31
f 33/33/33 32/32/32 31/31/31
f 34/34/34 32/32/32 33/33/33
f 35/35/35 34/34/34 33/33/33
f 36/36/36 34/34/34 35/35/35
