g flower_marker_V2_P1_L2
v -0.0109571 0.03683399 -2.849388E-09
v 0.03984934 0.1313713 5.802947E-09
v 0.0109571 0.03683399 -2.849388E-09
v -0.03984934 0.1313713 5.802947E-09
v 0.03920983 0.1556807 5.019539E-09
v -0.03920983 0.1556807 5.019539E-09
v 0.02531213 0.1737935 4.839131E-09
v -0.02531213 0.1737935 4.839131E-09
v 0 0.180027 3.760471E-09
vt 0.2076809 0.009878167
vt 0.5554821 0.6570442
vt 0.357697 0.009878167
vt 0.009895826 0.6570441
vt 0.5511042 0.8234569
vt 0.01427371 0.8234567
vt 0.4559659 0.9474502
vt 0.109412 0.94745
vt 0.282689 0.9901221
vn 0 0 1
vn 0 0 1
vn 0 0 1
vn 0 0 1
vn 0 0 1
vn 0 0 1
vn 0 0 1
vn 0 0 1
vn 0 0 1
g flower_marker_V2_P1_L2_0
f 3/3/3 2/2/2 1/1/1
f 2/2/2 4/4/4 1/1/1
f 2/2/2 5/5/5 4/4/4
f 5/5/5 6/6/6 4/4/4
f 5/5/5 7/7/7 6/6/6
f 7/7/7 8/8/8 6/6/6
f 7/7/7 9/9/9 8/8/8
