g flower_marker_V4_P1_L0
v 0 0.180027 -0.024
v 0.02531213 0.1737935 0.024
v 0 0.180027 0.024
v 0.02531213 0.1737935 -0.024
v 0.03920983 0.1556807 0.024
v 0.03920983 0.1556807 -0.024
v 0.03984934 0.1313713 0.024
v 0.03984934 0.1313713 -0.024
v 0.0109571 0.03683399 0.024
v 0.0109571 0.03683399 -0.024
v -0.02531213 0.1737935 -0.024
v 0 0.180027 -0.024
v 0 0.180027 0.024
v -0.02531213 0.1737935 0.024
v -0.03920983 0.1556807 -0.024
v -0.03920983 0.1556807 0.024
v -0.03984934 0.1313713 -0.024
v -0.03984934 0.1313713 0.024
v -0.0109571 0.03683399 -0.024
v -0.0109571 0.03683399 0.024
v 0.0109571 0.03683399 -0.024
v -0.0109571 0.03683399 -0.024
v -0.0109571 0.03683399 0.024
v 0.0109571 0.03683399 0.024
v -0.0109571 0.03683399 0.024
v -0.006516855 0.042834 0.03
v 0.006516855 0.042834 0.03
v 0.0109571 0.03683399 0.024
v 0.0109571 0.03683399 0.024
v 0.006516855 0.042834 0.03
v 0.03382572 0.1321904 0.03
v 0.03984934 0.1313713 0.024
v 0.03326316 0.1535746 0.03
v 0.03920983 0.1556807 0.024
v 0.02183337 0.1684709 0.03
v 0.02531213 0.1737935 0.024
v 0 0.1738477 0.03
v 0 0.180027 0.024
v -0.02183337 0.1684709 0.03
v -0.02531213 0.1737935 0.024
v -0.03326316 0.1535746 0.03
v -0.03920983 0.1556807 0.024
v -0.03382572 0.1321904 0.03
v -0.03984934 0.1313713 0.024
v -0.006516855 0.042834 0.03
v -0.0109571 0.03683399 0.024
v -0.006516855 0.042834 0.03
v 0.03382572 0.1321904 0.03
v 0.006516855 0.042834 0.03
v -0.03382572 0.1321904 0.03
v -0.03326316 0.1535746 0.03
v 0.03326316 0.1535746 0.03
v -0.02183337 0.1684709 0.03
v 0.02183337 0.1684709 0.03
v 0 0.1738477 0.03
v -0.0109571 0.03683399 -0.024
v 0.0109571 0.03683399 -0.024
v 0.006516855 0.042834 -0.03
v -0.006516855 0.042834 -0.03
v 0.0109571 0.03683399 -0.024
v 0.03382572 0.1321904 -0.03
v 0.006516855 0.042834 -0.03
v 0.03984934 0.1313713 -0.024
v 0.03326316 0.1535746 -0.03
v 0.03920983 0.1556807 -0.024
v 0.02183337 0.1684709 -0.03
v 0.02531213 0.1737935 -0.024
v 0 0.1738477 -0.03
v 0 0.180027 -0.024
v -0.02183337 0.1684709 -0.03
v -0.02531213 0.1737935 -0.024
v -0.03326316 0.1535746 -0.03
v -0.03920983 0.1556807 -0.024
v -0.03382572 0.1321904 -0.03
v -0.03984934 0.1313713 -0.024
v -0.006516855 0.042834 -0.03
v -0.0109571 0.03683399 -0.024
v -0.006516855 0.042834 -0.03
v 0.006516855 0.042834 -0.03
v 0.03382572 0.1321904 -0.03
v -0.03382572 0.1321904 -0.03
v -0.03326316 0.1535746 -0.03
v 0.03326316 0.1535746 -0.03
v -0.02183337 0.1684709 -0.03
v 0.02183337 0.1684709 -0.03
v 0 0.1738477 -0.03
vt 0.1872458 0.7263758
vt 0.00997827 0.6301033
vt 0.00997827 0.7263758
vt 0.1872458 0.6301033
vt 0.009978385 0.5457894
vt 0.1872458 0.5457894
vt 0.009978385 0.455982
vt 0.1872458 0.4559821
vt 0.009978385 0.0909078
vt 0.1872458 0.09090775
vt 0.2071994 0.5491724
vt 0.2071994 0.6454448
vt 0.384467 0.6454448
vt 0.384467 0.5491723
vt 0.2071994 0.4648586
vt 0.384467 0.4648587
vt 0.2071994 0.3750511
vt 0.384467 0.3750512
vt 0.2071995 0.009976957
vt 0.3844669 0.009976957
vt 0.1872458 0.09090775
vt 0.1872458 0.009976957
vt 0.00997827 0.009976974
vt 0.009978385 0.0909078
vt 0.5165932 0.009972625
vt 0.5338441 0.03328322
vt 0.584481 0.03328322
vt 0.6017318 0.009972625
vt 0.6017318 0.009972625
vt 0.584481 0.03328322
vt 0.6905784 0.3804406
vt 0.7139807 0.3772584
vt 0.6883928 0.4635198
vt 0.7114961 0.4717023
vt 0.6439871 0.5213935
vt 0.6575024 0.5420722
vt 0.5591625 0.5422827
vt 0.5591625 0.5662897
vt 0.4743379 0.5213935
vt 0.4608228 0.5420722
vt 0.4299322 0.4635199
vt 0.406829 0.4717024
vt 0.4277468 0.3804406
vt 0.4043444 0.3772584
vt 0.5338441 0.03328322
vt 0.5165932 0.009972625
vt 0.5338441 0.03328322
vt 0.6905784 0.3804406
vt 0.584481 0.03328322
vt 0.4277468 0.3804406
vt 0.4299322 0.4635199
vt 0.6883928 0.4635198
vt 0.4743379 0.5213935
vt 0.6439871 0.5213935
vt 0.5591625 0.5422827
vt 0.7926174 0.5662922
vt 0.877756 0.5662922
vt 0.8605052 0.5429817
vt 0.8098682 0.5429817
vt 0.877756 0.5662922
vt 0.9666026 0.1958243
vt 0.8605052 0.5429817
vt 0.9900048 0.1990065
vt 0.964417 0.1127449
vt 0.9875203 0.1045624
vt 0.9200113 0.05487131
vt 0.9335266 0.03419258
vt 0.8351868 0.03398201
vt 0.8351868 0.009975031
vt 0.7503622 0.05487131
vt 0.7368469 0.03419259
vt 0.7059565 0.1127449
vt 0.6828532 0.1045624
vt 0.7037711 0.1958243
vt 0.6803687 0.1990065
vt 0.8098682 0.5429817
vt 0.7926174 0.5662922
vt 0.8098682 0.5429817
vt 0.8605052 0.5429817
vt 0.9666026 0.1958243
vt 0.7037711 0.1958243
vt 0.7059565 0.1127449
vt 0.964417 0.1127449
vt 0.7503622 0.05487131
vt 0.9200113 0.05487131
vt 0.8351868 0.03398201
vn 0 1 0
vn 0.5470961 0.8370698 0
vn 0 1 0
vn 0.5470961 0.8370698 0
vn 0.9426255 0.333852 0
vn 0.9426255 0.333852 0
vn 0.9908811 -0.1347395 0
vn 0.9908811 -0.1347395 0
vn 0.9563351 -0.2922725 0
vn 0.9563351 -0.2922725 0
vn -0.5470961 0.8370698 0
vn 0 1 0
vn 0 1 0
vn -0.5470961 0.8370698 0
vn -0.9426255 0.333852 0
vn -0.9426255 0.333852 0
vn -0.9908811 -0.1347395 0
vn -0.9908811 -0.1347395 0
vn -0.9563351 -0.2922725 0
vn -0.9563351 -0.2922725 0
vn 0 -1 0
vn 0 -1 0
vn 0 -1 0
vn 0 -1 0
vn 0 -0.7071067 0.7071068
vn 0 -0.7071067 0.7071068
vn 0 -0.7071067 0.7071068
vn 0 -0.7071067 0.7071068
vn 0.676231 -0.2066679 0.7071068
vn 0.676231 -0.2066679 0.7071068
vn 0.6960581 -0.09464963 0.7117195
vn 0.696058 -0.09464962 0.7117195
vn 0.6496201 0.2300776 0.7246089
vn 0.6496201 0.2300775 0.724609
vn 0.375473 0.5744824 0.727317
vn 0.3754729 0.5744824 0.727317
vn 0 0.6966237 0.7174367
vn 0 0.6966237 0.7174367
vn -0.375473 0.5744824 0.7273169
vn -0.375473 0.5744826 0.7273169
vn -0.6496202 0.2300777 0.7246088
vn -0.6496201 0.2300777 0.7246088
vn -0.6960581 -0.09464963 0.7117195
vn -0.696058 -0.09464962 0.7117195
vn -0.676231 -0.2066679 0.7071068
vn -0.676231 -0.2066679 0.7071068
vn 0 0 1
vn 0 0 1
vn 0 0 1
vn 0 0 1
vn 0 0 1
vn 0 0 1
vn 0 0 1
vn 0 0 1
vn 0 0 1
vn 0 -0.7071066 -0.7071068
vn 0 -0.7071066 -0.7071068
vn 0 -0.7071066 -0.7071068
vn 0 -0.7071066 -0.7071068
vn 0.676231 -0.206668 -0.7071068
vn 0.6960581 -0.09464962 -0.7117195
vn 0.676231 -0.206668 -0.7071068
vn 0.696058 -0.09464958 -0.7117195
vn 0.6496202 0.2300776 -0.7246088
vn 0.6496201 0.2300776 -0.7246089
vn 0.3754731 0.5744824 -0.7273169
vn 0.375473 0.5744825 -0.7273169
vn 0 0.6966237 -0.7174367
vn 0 0.6966237 -0.7174367
vn -0.3754731 0.5744824 -0.7273169
vn -0.375473 0.5744825 -0.7273169
vn -0.6496201 0.2300777 -0.7246088
vn -0.6496201 0.2300776 -0.7246089
vn -0.6960581 -0.0946496 -0.7117195
vn -0.696058 -0.09464958 -0.7117195
vn -0.676231 -0.2066679 -0.7071068
vn -0.676231 -0.2066679 -0.7071068
vn 0 0 -1
vn 0 0 -1
vn 0 0 -1
vn 0 0 -1
vn 0 0 -1
vn 0 0 -1
vn 0 0 -1
vn 0 0 -1
vn 0 0 -1
g flower_marker_V4_P1_L0_0
f 3/3/3 2/2/2 1/1/1
f 2/2/2 4/4/4 1/1/1
f 2/2/2 5/5/5 4/4/4
f 5/5/5 6/6/6 4/4/4
f 5/5/5 7/7/7 6/6/6
f 7/7/7 8/8/8 6/6/6
f 7/7/7 9/9/9 8/8/8
f 9/9/9 10/10/10 8/8/8
f 13/13/13 12/12/12 11/11/11
f 14/14/14 13/13/13 11/11/11
f 14/14/14 11/11/11 15/15/15
f 16/16/16 14/14/14 15/15/15
f 16/16/16 15/15/15 17/17/17
f 18/18/18 16/16/16 17/17/17
f 18/18/18 17/17/17 19/19/19
f 20/20/20 18/18/18 19/19/19
f 23/23/23 22/22/22 21/21/21
f 24/24/24 23/23/23 21/21/21
f 27/27/27 26/26/26 25/25/25
f 28/28/28 27/27/27 25/25/25
f 31/31/31 30/30/30 29/29/29
f 32/32/32 31/31/31 29/29/29
f 33/33/33 31/31/31 32/32/32
f 34/34/34 33/33/33 32/32/32
f 35/35/35 33/33/33 34/34/34
f 36/36/36 35/35/35 34/34/34
f 37/37/37 35/35/35 36/36/36
f 38/38/38 37/37/37 36/36/36
f 39/39/39 37/37/37 38/38/38
f 40/40/40 39/39/39 38/38/38
f 41/41/41 39/39/39 40/40/40
f 42/42/42 41/41/41 40/40/40
f 43/43/43 41/41/41 42/42/42
f 44/44/44 43/43/43 42/42/42
f 45/45/45 43/43/43 44/44/44
f 46/46/46 45/45/45 44/44/44
f 49/49/49 48/48/48 47/47/47
f 48/48/48 50/50/50 47/47/47
f 51/51/51 50/50/50 48/48/48
f 52/52/52 51/51/51 48/48/48
f 53/53/53 51/51/51 52/52/52
f 54/54/54 53/53/53 52/52/52
f 55/55/55 53/53/53 54/54/54
f 58/58/58 57/57/57 56/56/56
f 59/59/59 58/58/58 56/56/56
f 62/62/62 61/61/61 60/60/60
f 61/61/61 63/63/63 60/60/60
f 61/61/61 64/64/64 63/63/63
f 64/64/64 65/65/65 63/63/63
f 64/64/64 66/66/66 65/65/65
f 66/66/66 67/67/67 65/65/65
f 66/66/66 68/68/68 67/67/67
f 68/68/68 69/69/69 67/67/67
f 68/68/68 70/70/70 69/69/69
f 70/70/70 71/71/71 69/69/69
f 70/70/70 72/72/72 71/71/71
f 72/72/72 73/73/73 71/71/71
f 72/72/72 74/74/74 73/73/73
f 74/74/74 75/75/75 73/73/73
f 74/74/74 76/76/76 75/75/75
f 76/76/76 77/77/77 75/75/75
f 80/80/80 79/79/79 78/78/78
f 81/81/81 80/80/80 78/78/78
f 81/81/81 82/82/82 80/80/80
f 82/82/82 83/83/83 80/80/80
f 82/82/82 84/84/84 83/83/83
f 84/84/84 85/85/85 83/83/83
f 84/84/84 86/86/86 85/85/85
