g flower_marker_V3_P2_L0
v 0.02129395 0.09374629 -0.024
v 0 0.03783023 -0.024
v 0 0.03783023 0.024
v 0.02129395 0.09374629 0.024
v 0.02182905 0.1081246 -0.024
v 0.02182905 0.1081246 0.024
v 0.01497138 0.1188378 -0.024
v 0.01497138 0.1188378 0.024
v 0 0.1225247 -0.024
v 0 0.1225247 0.024
v 0 0.03783023 -0.024
v -0.02129395 0.09374629 0.024
v 0 0.03783023 0.024
v -0.02129395 0.09374629 -0.024
v -0.02182905 0.1081246 0.024
v -0.02182905 0.1081246 -0.024
v -0.01497138 0.1188378 0.024
v -0.01497138 0.1188378 -0.024
v 0 0.1225247 0.024
v 0 0.1225247 -0.024
v 0 0.03783023 0.024
v 0 0.0546895 0.03
v 0.01533488 0.09495755 0.03
v 0.02129395 0.09374629 0.024
v 0.01576337 0.1064713 0.03
v 0.02182905 0.1081246 0.024
v 0.0112099 0.1135848 0.03
v 0.01497138 0.1188378 0.024
v 0 0.1163454 0.03
v 0 0.1225247 0.024
v -0.0112099 0.1135848 0.03
v -0.01497138 0.1188378 0.024
v -0.01576337 0.1064713 0.03
v -0.02182905 0.1081246 0.024
v -0.01533488 0.09495755 0.03
v -0.02129395 0.09374629 0.024
v 0 0.0546895 0.03
v 0 0.03783023 0.024
v -0.01533488 0.09495755 0.03
v 0.01533488 0.09495755 0.03
v 0 0.0546895 0.03
v -0.01576337 0.1064713 0.03
v 0.01576337 0.1064713 0.03
v -0.0112099 0.1135848 0.03
v 0.0112099 0.1135848 0.03
v 0 0.1163454 0.03
v 0 0.03783023 -0.024
v 0.01533488 0.09495755 -0.03
v 0 0.0546895 -0.03
v 0.02129395 0.09374629 -0.024
v 0.01576337 0.1064713 -0.03
v 0.02182905 0.1081246 -0.024
v 0.0112099 0.1135848 -0.03
v 0.01497138 0.1188378 -0.024
v 0 0.1163454 -0.03
v 0 0.1225247 -0.024
v -0.0112099 0.1135848 -0.03
v -0.01497138 0.1188378 -0.024
v -0.01576337 0.1064713 -0.03
v -0.02182905 0.1081246 -0.024
v -0.01533488 0.09495755 -0.03
v -0.02129395 0.09374629 -0.024
v 0 0.0546895 -0.03
v 0 0.03783023 -0.024
v -0.01533488 0.09495755 -0.03
v 0 0.0546895 -0.03
v 0.01533488 0.09495755 -0.03
v -0.01576337 0.1064713 -0.03
v 0.01576337 0.1064713 -0.03
v -0.0112099 0.1135848 -0.03
v 0.0112099 0.1135848 -0.03
v 0 0.1163454 -0.03
vt 0.2955535 0.3659347
vt 0.2955535 0.0100654
vt 0.01006546 0.01006533
vt 0.01006537 0.3659347
vt 0.2955534 0.4515112
vt 0.01006533 0.4515112
vt 0.2955534 0.527166
vt 0.01006534 0.5271659
vt 0.2955534 0.6188713
vt 0.01006533 0.6188713
vt 0.3156741 0.01006534
vt 0.6011621 0.3659347
vt 0.6011621 0.01006533
vt 0.3156739 0.3659347
vt 0.6011621 0.4515114
vt 0.3156739 0.4515112
vt 0.6011621 0.5271659
vt 0.3156739 0.5271659
vt 0.6011621 0.6188712
vt 0.3156739 0.6188712
vt 0.7355615 0.3219533
vt 0.7355614 0.4315494
vt 0.835248 0.6933172
vt 0.8739859 0.6854433
vt 0.8380335 0.7681642
vt 0.8774644 0.7789115
vt 0.8084331 0.8144066
vt 0.8328851 0.848554
vt 0.7355615 0.8323522
vt 0.7355615 0.8725215
vt 0.6626901 0.8144066
vt 0.6382381 0.8485541
vt 0.6330897 0.7681643
vt 0.5936589 0.7789115
vt 0.6358751 0.6933172
vt 0.5971374 0.6854433
vt 0.7355614 0.4315494
vt 0.7355615 0.3219533
vt 0.6358751 0.6933172
vt 0.835248 0.6933172
vt 0.7355614 0.4315494
vt 0.6330897 0.7681643
vt 0.8380335 0.7681642
vt 0.6626901 0.8144066
vt 0.8084331 0.8144066
vt 0.7355615 0.8323522
vt 0.8479833 0.5606328
vt 0.94767 0.1892687
vt 0.8479833 0.4510367
vt 0.9864078 0.1971427
vt 0.9504555 0.1144218
vt 0.9898863 0.1036746
vt 0.920855 0.06817947
vt 0.9453071 0.03403202
vt 0.8479836 0.05023371
vt 0.8479837 0.01006466
vt 0.7751121 0.0681794
vt 0.7506601 0.03403195
vt 0.7455117 0.1144216
vt 0.7060808 0.1036744
vt 0.7482971 0.1892687
vt 0.7095593 0.1971426
vt 0.8479833 0.4510367
vt 0.8479833 0.5606328
vt 0.7482971 0.1892687
vt 0.8479833 0.4510367
vt 0.94767 0.1892687
vt 0.7455117 0.1144216
vt 0.9504555 0.1144218
vt 0.7751121 0.0681794
vt 0.920855 0.06817947
vt 0.8479836 0.05023371
vn 0.979961 -0.1991894 0
vn 0.9345289 -0.3558872 0
vn 0.9345289 -0.3558872 0
vn 0.979961 -0.1991894 0
vn 0.9648044 0.2629688 0
vn 0.9648044 0.2629688 0
vn 0.582199 0.8130463 0
vn 0.582199 0.8130463 0
vn 0 1 0
vn 0 1 0
vn -0.9345289 -0.3558872 0
vn -0.979961 -0.1991894 0
vn -0.9345289 -0.3558872 0
vn -0.979961 -0.1991894 0
vn -0.9648044 0.2629688 0
vn -0.9648044 0.2629688 0
vn -0.582199 0.8130463 0
vn -0.582199 0.8130463 0
vn 0 1 0
vn 0 1 0
vn 0.6608115 -0.2516504 0.7071068
vn 0.6608115 -0.2516504 0.7071068
vn 0.6882795 -0.1399016 0.7118279
vn 0.6882795 -0.1399015 0.7118279
vn 0.6661052 0.181555 0.7234235
vn 0.6661053 0.1815548 0.7234236
vn 0.3961817 0.5532715 0.7327555
vn 0.3961817 0.5532715 0.7327555
vn 0 0.6966238 0.7174367
vn 0 0.6966239 0.7174366
vn -0.3961818 0.5532715 0.7327556
vn -0.3961818 0.5532715 0.7327556
vn -0.6661052 0.1815549 0.7234235
vn -0.6661053 0.1815548 0.7234236
vn -0.6882794 -0.1399016 0.7118279
vn -0.6882795 -0.1399015 0.7118279
vn -0.6608115 -0.2516504 0.7071069
vn -0.6608115 -0.2516504 0.7071069
vn 0 0 1
vn 0 0 1
vn 0 0 1
vn 0 0 1
vn 0 0 1
vn 0 0 1
vn 0 0 1
vn 0 0 1
vn 0.6608116 -0.2516504 -0.7071068
vn 0.6882795 -0.1399016 -0.7118279
vn 0.6608116 -0.2516504 -0.7071068
vn 0.6882795 -0.1399015 -0.7118278
vn 0.6661053 0.181555 -0.7234235
vn 0.6661053 0.1815549 -0.7234235
vn 0.3961817 0.5532715 -0.7327555
vn 0.3961818 0.5532715 -0.7327555
vn 0 0.6966238 -0.7174367
vn 0 0.6966239 -0.7174366
vn -0.3961817 0.5532715 -0.7327556
vn -0.3961818 0.5532715 -0.7327556
vn -0.6661053 0.1815549 -0.7234235
vn -0.6661053 0.1815548 -0.7234236
vn -0.6882795 -0.1399016 -0.7118279
vn -0.6882795 -0.1399015 -0.7118279
vn -0.6608115 -0.2516504 -0.7071069
vn -0.6608115 -0.2516504 -0.7071069
vn 0 0 -1
vn 0 0 -1
vn 0 0 -1
vn 0 0 -1
vn 0 0 -1
vn 0 0 -1
vn 0 0 -1
vn 0 0 -1
g flower_marker_V3_P2_L0_0
f 3/3/3 2/2/2 1/1/1
f 4/4/4 3/3/3 1/1/1
f 4/4/4 1/1/1 5/5/5
f 6/6/6 4/4/4 5/5/5
f 6/6/6 5/5/5 7/7/7
f 8/8/8 6/6/6 7/7/7
f 8/8/8 7/7/7 9/9/9
f 10/10/10 8/8/8 9/9/9
f 13/13/13 12/12/12 11/11/11
f 12/12/12 14/14/14 11/11/11
f 12/12/12 15/15/15 14/14/14
f 15/15/15 16/16/16 14/14/14
f 15/15/15 17/17/17 16/16/16
f 17/17/17 18/18/18 16/16/16
f 17/17/17 19/19/19 18/18/18
f 19/19/19 20/20/20 18/18/18
f 23/23/23 22/22/22 21/21/21
f 24/24/24 23/23/23 21/21/21
f 25/25/25 23/23/23 24/24/24
f 26/26/26 25/25/25 24/24/24
f 27/27/27 25/25/25 26/26/26
f 28/28/28 27/27/27 26/26/26
f 29/29/29 27/27/27 28/28/28
f 30/30/30 29/29/29 28/28/28
f 31/31/31 29/29/29 30/30/30
f 32/32/32 31/31/31 30/30/30
f 33/33/33 31/31/31 32/32/32
f 34/34/34 33/33/33 32/32/32
f 35/35/35 33/33/33 34/34/34
f 36/36/36 35/35/35 34/34/34
f 37/37/37 35/35/35 36/36/36
f 38/38/38 37/37/37 36/36/36
f 41/41/41 40/40/40 39/39/39
f 39/39/39 40/40/40 42/42/42
f 40/40/40 43/43/43 42/42/42
f 42/42/42 43/43/43 44/44/44
f 43/43/43 45/45/45 44/44/44
f 44/44/44 45/45/45 46/46/46
f 49/49/49 48/48/48 47/47/47
f 48/48/48 50/50/50 47/47/47
f 48/48/48 51/51/51 50/50/50
f 51/51/51 52/52/52 50/50/50
f 51/51/51 53/53/53 52/52/52
f 53/53/53 54/54/54 52/52/52
f 53/53/53 55/55/55 54/54/54
f 55/55/55 56/56/56 54/54/54
f 55/55/55 57/57/57 56/56/56
f 57/57/57 58/58/58 56/56/56
f 57/57/57 59/59/59 58/58/58
f 59/59/59 60/60/60 58/58/58
f 59/59/59 61/61/61 60/60/60
f 61/61/61 62/62/62 60/60/60
f 61/61/61 63/63/63 62/62/62
f 63/63/63 64/64/64 62/62/62
f 67/67/67 66/66/66 65/65/65
f 67/67/67 65/65/65 68/68/68
f 69/69/69 67/67/67 68/68/68
f 69/69/69 68/68/68 70/70/70
f 71/71/71 69/69/69 70/70/70
f 71/71/71 70/70/70 72/72/72
