g flower_marker_V4_P1_L1
v -0.0109571 0.03683399 0.03
v 0.03984934 0.1313713 0.03
v 0.0109571 0.03683399 0.03
v -0.03984934 0.1313713 0.03
v 0.03920983 0.1556807 0.03
v -0.03920983 0.1556807 0.03
v 0.02531213 0.1737935 0.03
v -0.02531213 0.1737935 0.03
v 0 0.180027 0.03
v 0 0.180027 -0.03
v 0.02531213 0.1737935 0.03
v 0 0.180027 0.03
v 0.02531213 0.1737935 -0.03
v 0.03920983 0.1556807 0.03
v 0.03920983 0.1556807 -0.03
v 0.03984934 0.1313713 0.03
v 0.03984934 0.1313713 -0.03
v 0.0109571 0.03683399 0.03
v 0.0109571 0.03683399 -0.03
v -0.02531213 0.1737935 -0.03
v 0 0.180027 -0.03
v 0 0.180027 0.03
v -0.02531213 0.1737935 0.03
v -0.03920983 0.1556807 -0.03
v -0.03920983 0.1556807 0.03
v -0.03984934 0.1313713 -0.03
v -0.03984934 0.1313713 0.03
v -0.0109571 0.03683399 -0.03
v -0.0109571 0.03683399 0.03
v 0.0109571 0.03683399 -0.03
v -0.0109571 0.03683399 -0.03
v -0.0109571 0.03683399 0.03
v 0.0109571 0.03683399 0.03
v -0.0109571 0.03683399 -0.03
v 0.0109571 0.03683399 -0.03
v 0.03984934 0.1313713 -0.03
v -0.03984934 0.1313713 -0.03
v 0.03920983 0.1556807 -0.03
v -0.03920983 0.1556807 -0.03
v 0.02531213 0.1737935 -0.03
v -0.02531213 0.1737935 -0.03
v 0 0.180027 -0.03
vt 0.7904014 0.4279545
vt 0.9891517 0.7977761
vt 0.8761278 0.4279545
vt 0.6773775 0.797776
vt 0.98665 0.8928723
vt 0.6798792 0.8928722
vt 0.9322834 0.963728
vt 0.7342458 0.963728
vt 0.8332645 0.9881127
vt 0.2455506 0.7696857
vt 0.01083595 0.6677086
vt 0.01083596 0.7696857
vt 0.2455506 0.6677085
vt 0.01083593 0.5783986
vt 0.2455506 0.5783985
vt 0.01083593 0.4832695
vt 0.2455506 0.4832694
vt 0.01083593 0.09656236
vt 0.2455505 0.09656239
vt 0.2672186 0.5819821
vt 0.2672186 0.6839592
vt 0.5019333 0.6839592
vt 0.5019333 0.5819821
vt 0.2672187 0.4926722
vt 0.5019333 0.4926723
vt 0.2672187 0.3975432
vt 0.5019333 0.3975432
vt 0.2672186 0.01083593
vt 0.5019333 0.01083603
vt 0.2455505 0.09656239
vt 0.2455505 0.010836
vt 0.01083595 0.01083593
vt 0.01083593 0.09656236
vt 0.636643 0.5764105
vt 0.7223693 0.5764105
vt 0.8353933 0.2065889
vt 0.5236191 0.2065888
vt 0.8328916 0.1114927
vt 0.5261208 0.1114926
vt 0.7785251 0.04063701
vt 0.5804875 0.04063688
vt 0.6795061 0.01625212
vn 0 0 1
vn 0 0 1
vn 0 0 1
vn 0 0 1
vn 0 0 1
vn 0 0 1
vn 0 0 1
vn 0 0 1
vn 0 0 1
vn 0 1 0
vn 0.5470963 0.8370697 0
vn 0 1 0
vn 0.5470963 0.8370697 0
vn 0.9426255 0.333852 0
vn 0.9426255 0.333852 0
vn 0.9908811 -0.1347395 0
vn 0.9908811 -0.1347395 0
vn 0.9563351 -0.2922726 0
vn 0.9563351 -0.2922726 0
vn -0.5470963 0.8370697 0
vn 0 1 0
vn 0 1 0
vn -0.5470963 0.8370697 0
vn -0.9426255 0.333852 0
vn -0.9426255 0.333852 0
vn -0.9908811 -0.1347395 0
vn -0.9908811 -0.1347395 0
vn -0.9563351 -0.2922725 0
vn -0.9563351 -0.2922725 0
vn 0 -1 0
vn 0 -1 0
vn 0 -1 0
vn 0 -1 0
vn 0 0 -1
vn 0 0 -1
vn 0 0 -1
vn 0 0 -1
vn 0 0 -1
vn 0 0 -1
vn 0 0 -1
vn 0 0 -1
vn 0 0 -1
g flower_marker_V4_P1_L1_0
f 3/3/3 2/2/2 1/1/1
f 2/2/2 4/4/4 1/1/1
f 2/2/2 5/5/5 4/4/4
f 5/5/5 6/6/6 4/4/4
f 5/5/5 7/7/7 6/6/6
f 7/7/7 8/8/8 6/6/6
f 7/7/7 9/9/9 8/8/8
f 12/12/12 11/11/11 10/10/10
f 11/11/11 13/13/13 10/10/10
f 11/11/11 14/14/14 13/13/13
f 14/14/14 15/15/15 13/13/13
f 14/14/14 16/16/16 15/15/15
f 16/16/16 17/17/17 15/15/15
f 16/16/16 18/18/18 17/17/17
f 18/18/18 19/19/19 17/17/17
f 22/22/22 21/21/21 20/20/20
f 23/23/23 22/22/22 20/20/20
f 23/23/23 20/20/20 24/24/24
f 25/25/25 23/23/23 24/24/24
f 25/25/25 24/24/24 26/26/26
f 27/27/27 25/25/25 26/26/26
f 27/27/27 26/26/26 28/28/28
f 29/29/29 27/27/27 28/28/28
f 32/32/32 31/31/31 30/30/30
f 33/33/33 32/32/32 30/30/30
f 36/36/36 35/35/35 34/34/34
f 37/37/37 36/36/36 34/34/34
f 38/38/38 36/36/36 37/37/37
f 39/39/39 38/38/38 37/37/37
f 40/40/40 38/38/38 39/39/39
f 41/41/41 40/40/40 39/39/39
f 42/42/42 40/40/40 41/41/41
