g flower_marker_V3_P1_L1
v 0 0.03683399 0.03
v -0.0360017 0.1313713 0.03
v 0.0360017 0.1313713 0.03
v 0.03690638 0.1556807 0.03
v -0.03690638 0.1556807 0.03
v 0.02531213 0.1737935 0.03
v -0.02531213 0.1737935 0.03
v 0 0.180027 0.03
v 0 0.03683399 -0.03
v -0.0360017 0.1313713 0.03
v 0 0.03683399 0.03
v -0.0360017 0.1313713 -0.03
v -0.03690638 0.1556807 0.03
v -0.03690638 0.1556807 -0.03
v -0.02531213 0.1737935 0.03
v -0.02531213 0.1737935 -0.03
v 0 0.180027 0.03
v 0 0.180027 -0.03
v 0.0360017 0.1313713 -0.03
v 0 0.03683399 -0.03
v 0 0.03683399 0.03
v 0.0360017 0.1313713 0.03
v 0.03690638 0.1556807 -0.03
v 0.03690638 0.1556807 0.03
v 0.02531213 0.1737935 -0.03
v 0.02531213 0.1737935 0.03
v 0 0.180027 -0.03
v 0 0.180027 0.03
v 0 0.03683399 -0.03
v 0.0360017 0.1313713 -0.03
v -0.0360017 0.1313713 -0.03
v 0.03690638 0.1556807 -0.03
v -0.03690638 0.1556807 -0.03
v 0.02531213 0.1737935 -0.03
v -0.02531213 0.1737935 -0.03
v 0 0.180027 -0.03
vt 0.6895825 0.2593846
vt 0.5437919 0.6422179
vt 0.835373 0.6422179
vt 0.8390366 0.7406599
vt 0.5401284 0.74066
vt 0.7920852 0.8140087
vt 0.5870798 0.8140086
vt 0.6895825 0.8392512
vt 0.276096 0.01104051
vt 0.5190688 0.4206942
vt 0.5190687 0.01104051
vt 0.2760959 0.4206942
vt 0.5190688 0.5192044
vt 0.276096 0.5192045
vt 0.5190688 0.6062931
vt 0.276096 0.6062931
vt 0.5190688 0.7118584
vt 0.276096 0.7118582
vt 0.2540113 0.4206943
vt 0.2540113 0.01104051
vt 0.01103843 0.01104051
vt 0.01103849 0.4206943
vt 0.2540113 0.5192045
vt 0.01103849 0.5192045
vt 0.2540113 0.6062931
vt 0.01103849 0.6062933
vt 0.2540113 0.7118583
vt 0.01103856 0.7118583
vt 0.8394583 0.5909084
vt 0.985249 0.2080752
vt 0.6936679 0.2080752
vt 0.9889125 0.1096331
vt 0.6900045 0.109633
vt 0.9419611 0.03628463
vt 0.7369559 0.03628443
vt 0.8394585 0.01104167
vn 0 0 1
vn 0 0 1
vn 0 0 1
vn 0 0 1
vn 0 0 1
vn 0 0 1
vn 0 0 1
vn 0 0 1
vn -0.9345289 -0.3558872 0
vn -0.979961 -0.1991894 0
vn -0.9345289 -0.3558872 0
vn -0.979961 -0.1991894 0
vn -0.9648044 0.2629687 0
vn -0.9648044 0.2629687 0
vn -0.582199 0.8130463 0
vn -0.582199 0.8130463 0
vn 0 1 0
vn 0 1 0
vn 0.979961 -0.1991894 0
vn 0.9345289 -0.3558873 0
vn 0.9345289 -0.3558873 0
vn 0.979961 -0.1991894 0
vn 0.9648044 0.2629687 0
vn 0.9648044 0.2629687 0
vn 0.582199 0.8130463 0
vn 0.582199 0.8130463 0
vn 0 1 0
vn 0 1 0
vn 0 0 -1
vn 0 0 -1
vn 0 0 -1
vn 0 0 -1
vn 0 0 -1
vn 0 0 -1
vn 0 0 -1
vn 0 0 -1
g flower_marker_V3_P1_L1_0
f 3/3/3 2/2/2 1/1/1
f 3/3/3 4/4/4 2/2/2
f 4/4/4 5/5/5 2/2/2
f 4/4/4 6/6/6 5/5/5
f 6/6/6 7/7/7 5/5/5
f 6/6/6 8/8/8 7/7/7
f 11/11/11 10/10/10 9/9/9
f 10/10/10 12/12/12 9/9/9
f 10/10/10 13/13/13 12/12/12
f 13/13/13 14/14/14 12/12/12
f 13/13/13 15/15/15 14/14/14
f 15/15/15 16/16/16 14/14/14
f 15/15/15 17/17/17 16/16/16
f 17/17/17 18/18/18 16/16/16
f 21/21/21 20/20/20 19/19/19
f 22/22/22 21/21/21 19/19/19
f 22/22/22 19/19/19 23/23/23
f 24/24/24 22/22/22 23/23/23
f 24/24/24 23/23/23 25/25/25
f 26/26/26 24/24/24 25/25/25
f 26/26/26 25/25/25 27/27/27
f 28/28/28 26/26/26 27/27/27
f 31/31/31 30/30/30 29/29/29
f 32/32/32 30/30/30 31/31/31
f 33/33/33 32/32/32 31/31/31
f 34/34/34 32/32/32 33/33/33
f 35/35/35 34/34/34 33/33/33
f 36/36/36 34/34/34 35/35/35
