g Foilage_Bush_A
v -1.259712 1.161333 -1.700324
v 0.2466715 1.57967 -1.820459
v -0.4257183 2.3152 -1.120465
v 0.09498194 0.7258278 2.094454
v -0.0814982 1.57967 1.973458
v 1.724123 1.161333 1.283511
v -2.070655 0.7258278 -0.0711831
v -1.869068 -1.464844E-05 0.1117458
v -0.8524634 -1.464844E-05 -1.800798
v 0.2466715 1.57967 -1.820459
v 0.6603114 -1.464844E-05 -2.04687
v 2.070669 -1.464844E-05 -0.6365126
v 1.844258 1.57967 -0.2228727
v 0.4447753 2.458498 1.166801
v 1.104596 2.3152 -1.080798
v 0.4447753 2.458498 1.166801
v -1.143002 2.458498 -0.4209765
v 1.104596 2.3152 -1.080798
v 1.844258 1.57967 -0.2228727
v 1.724123 1.161333 1.283511
v 0.4447753 2.458498 1.166801
v -1.949659 1.57967 0.105297
v -1.259712 1.161333 -1.700324
v -0.4257183 2.3152 -1.120465
v -2.070655 0.7258278 -0.0711831
v 0.09498194 0.7258278 2.094454
v -1.608674 -1.464844E-05 1.632473
v 0.6603114 -1.464844E-05 -2.04687
v 0.2466715 1.57967 -1.820459
v -0.5293937 0.5806593 -2.094482
v -0.8524634 -1.464844E-05 -1.800798
v -1.259712 1.161333 -1.700324
v -2.070655 0.7258278 -0.0711831
v 2.070669 -1.464844E-05 -0.6365126
v 1.724123 1.161333 1.283511
v 1.879182 0.8709962 -0.9729849
v 1.879182 0.8709962 -0.9729849
v 0.2466715 1.57967 -1.820459
v 2.070669 -1.464844E-05 -0.6365126
v 1.724123 1.161333 1.283511
v -0.0814982 1.57967 1.973458
v 0.4447753 2.458498 1.166801
v 1.824597 -1.464844E-05 0.8762622
v 0.09498194 0.7258278 2.094454
v 1.724123 1.161333 1.283511
v 1.724123 1.161333 1.283511
v 2.070669 -1.464844E-05 -0.6365126
v 1.824597 -1.464844E-05 0.8762622
v -1.949659 1.57967 0.105297
v -0.4257183 2.3152 -1.120465
v -1.143002 2.458498 -0.4209765
v 1.104596 2.3152 -1.080798
v -1.143002 2.458498 -0.4209765
v -0.4257183 2.3152 -1.120465
v 0.2466715 1.57967 -1.820459
v 1.104596 2.3152 -1.080798
v -0.4257183 2.3152 -1.120465
v 0.2466715 1.57967 -1.820459
v 1.844258 1.57967 -0.2228727
v 1.104596 2.3152 -1.080798
v 0.2466715 1.57967 -1.820459
v -1.259712 1.161333 -1.700324
v -0.5293937 0.5806593 -2.094482
v -0.5293937 0.5806593 -2.094482
v -1.259712 1.161333 -1.700324
v -0.8524634 -1.464844E-05 -1.800798
v -0.5293937 0.5806593 -2.094482
v -0.8524634 -1.464844E-05 -1.800798
v 0.6603114 -1.464844E-05 -2.04687
v 0.09498194 0.7258278 2.094454
v -0.087947 -1.464844E-05 1.892866
v -1.608674 -1.464844E-05 1.632473
v 0.09498194 0.7258278 2.094454
v 1.824597 -1.464844E-05 0.8762622
v -0.087947 -1.464844E-05 1.892866
v -1.949659 1.57967 0.105297
v -2.070655 0.7258278 -0.0711831
v -1.259712 1.161333 -1.700324
v -2.070655 0.7258278 -0.0711831
v -1.608674 -1.464844E-05 1.632473
v -1.869068 -1.464844E-05 0.1117458
v 1.844258 1.57967 -0.2228727
v 0.2466715 1.57967 -1.820459
v 1.879182 0.8709962 -0.9729849
v 1.724123 1.161333 1.283511
v 1.844258 1.57967 -0.2228727
v 1.879182 0.8709962 -0.9729849
v -1.949659 1.57967 0.105297
v -0.0814982 1.57967 1.973458
v 0.09498194 0.7258278 2.094454
v -2.070655 0.7258278 -0.0711831
v -1.143002 2.458498 -0.4209765
v -0.0814982 1.57967 1.973458
v -1.949659 1.57967 0.105297
v 0.4447753 2.458498 1.166801
vt 0.2129095 0.7279156
vt 0.2579473 0.7154081
vt 0.2378442 0.6934173
vt 0.1500462 0.6705687
vt 0.1553226 0.6450406
vt 0.1013383 0.6575478
vt 0.5184852 0.6705685
vt 0.513016 0.6922697
vt 0.5701972 0.6922697
vt 0.2579473 0.7154081
vt 0.2703143 0.7626375
vt 0.3124811 0.7626375
vt 0.6278282 0.6433457
vt 0.6703748 0.6187196
vt 0.6030598 0.6203662
vt 0.1299131 0.5451168
vt 0.1285969 0.6122383
vt 0.1907091 0.5798825
vt 0.6278282 0.6433457
vt 0.672341 0.6576092
vt 0.6703748 0.6187196
vt 0.5132089 0.6450405
vt 0.5671932 0.6575478
vt 0.5498566 0.6230495
vt 0.5140456 0.1460564
vt 0.4224778 0.1460564
vt 0.4682617 0.1801155
vt 0.2703143 0.7626375
vt 0.2579473 0.7154081
vt 0.2347445 0.7452765
vt 0.5701972 0.6922697
vt 0.5671932 0.6575478
vt 0.5184852 0.6705685
vt 0.6136191 0.6900539
vt 0.672341 0.6576092
vt 0.604588 0.6636382
vt 0.306756 0.736596
vt 0.2579473 0.7154081
vt 0.3124811 0.7626375
vt 0.1013383 0.6575478
vt 0.1553226 0.6450406
vt 0.1395881 0.6187654
vt 0.09833425 0.6922699
vt 0.1500462 0.6705687
vt 0.1013383 0.6575478
vt 0.672341 0.6576092
vt 0.6136191 0.6900539
vt 0.6588132 0.6918271
vt 0.5132089 0.6450405
vt 0.5498566 0.6230495
vt 0.5289433 0.6187653
vt 0.1907091 0.5798825
vt 0.1285969 0.6122383
vt 0.1585506 0.6124494
vt 0.2579473 0.7154081
vt 0.2835975 0.6934173
vt 0.2378442 0.6934173
vt 0.5801004 0.6414732
vt 0.6278282 0.6433457
vt 0.6030598 0.6203662
vt 0.2579473 0.7154081
vt 0.2129095 0.7279156
vt 0.2347445 0.7452765
vt 0.5789777 0.6749088
vt 0.5671932 0.6575478
vt 0.5701972 0.6922697
vt 0.2347445 0.7452765
vt 0.2250854 0.7626375
vt 0.2703143 0.7626375
vt 0.1500462 0.6705687
vt 0.1555154 0.6922699
vt 0.2009821 0.6922699
vt 0.1500462 0.6705687
vt 0.09833425 0.6922699
vt 0.1555154 0.6922699
vt 0.5132089 0.6450405
vt 0.5184852 0.6705685
vt 0.5671932 0.6575478
vt 0.5184852 0.6705685
vt 0.4675494 0.6922697
vt 0.513016 0.6922697
vt 0.6278282 0.6433457
vt 0.5801004 0.6414732
vt 0.604588 0.6636382
vt 0.672341 0.6576092
vt 0.6278282 0.6433457
vt 0.604588 0.6636382
vt 0.5132089 0.6450405
vt 0.4573547 0.6450405
vt 0.4537371 0.6705685
vt 0.5184852 0.6705685
vt 0.1285969 0.6122383
vt 0.1018552 0.5386378
vt 0.1003065 0.6176124
vt 0.1299131 0.5451168
vn -0.2192283 0.5599705 -0.7989818
vn -0.2192283 0.5599705 -0.7989818
vn -0.2192282 0.5599706 -0.7989818
vn 0.3907951 0.2078431 0.8967054
vn 0.3907951 0.2078431 0.8967054
vn 0.3907951 0.2078431 0.8967054
vn -0.8298741 -0.3416513 -0.4411161
vn -0.8298741 -0.3416513 -0.441116
vn -0.8298741 -0.3416513 -0.4411159
vn 0.6797583 0.2754221 -0.6797583
vn 0.6797583 0.2754222 -0.6797583
vn 0.6797583 0.2754222 -0.6797583
vn 0.617808 0.7751796 0.1319458
vn 0.617808 0.7751797 0.1319458
vn 0.617808 0.7751797 0.1319458
vn 0.04916772 0.9975796 -0.04916772
vn 0.04916772 0.9975796 -0.04916772
vn 0.04916772 0.9975796 -0.04916772
vn 0.6788895 0.6917193 0.2462386
vn 0.6788895 0.6917192 0.2462386
vn 0.6788895 0.6917193 0.2462386
vn -0.6377295 0.6602744 -0.3966595
vn -0.6377295 0.6602745 -0.3966595
vn -0.6377295 0.6602745 -0.3966595
vn -0.4505427 0.7707286 0.4505427
vn -0.4505427 0.7707286 0.4505427
vn -0.4505427 0.7707286 0.4505427
vn 0.1232281 0.1723405 -0.9772992
vn 0.1232281 0.1723405 -0.9772992
vn 0.1232281 0.1723405 -0.9772992
vn -0.8378132 -0.2518893 -0.4843768
vn -0.8378132 -0.2518893 -0.4843768
vn -0.8378132 -0.2518893 -0.4843768
vn 0.9728573 0.2283518 0.03747053
vn 0.9728573 0.2283517 0.03747053
vn 0.9728573 0.2283518 0.03747053
vn 0.3486821 -0.2700471 -0.8974939
vn 0.3486821 -0.2700471 -0.8974939
vn 0.3486821 -0.2700471 -0.8974939
vn 0.4079817 0.4726574 0.7811184
vn 0.4079817 0.4726574 0.7811184
vn 0.4079817 0.4726574 0.7811184
vn 0.4843768 -0.2518893 0.8378132
vn 0.4843768 -0.2518893 0.8378132
vn 0.4843768 -0.2518893 0.8378132
vn 0.9866099 0.02907942 0.1604848
vn 0.9866099 0.02907942 0.1604849
vn 0.9866099 0.02907942 0.1604848
vn -0.6679257 0.1807474 -0.7219459
vn -0.6679255 0.1807474 -0.7219459
vn -0.6679257 0.1807474 -0.7219459
vn 0.005072655 0.9806516 -0.1956956
vn 0.005072655 0.9806516 -0.1956957
vn 0.005072655 0.9806516 -0.1956956
vn 0.01855281 0.69812 -0.7157404
vn 0.01855281 0.69812 -0.7157404
vn 0.01855281 0.69812 -0.7157404
vn 0.7025805 -0.1129661 -0.7025805
vn 0.7025805 -0.1129661 -0.7025805
vn 0.7025805 -0.1129661 -0.7025805
vn -0.1797534 0.3876335 -0.9041179
vn -0.1797534 0.3876335 -0.9041178
vn -0.1797533 0.3876335 -0.9041178
vn -0.5428935 -0.1184468 -0.8314067
vn -0.5428935 -0.1184468 -0.8314067
vn -0.5428935 -0.1184468 -0.8314067
vn -0.1485581 -0.3792561 -0.9132882
vn -0.1485581 -0.3792561 -0.9132882
vn -0.1485581 -0.379256 -0.9132882
vn -0.1644354 -0.2252672 0.9603206
vn -0.1644354 -0.2252672 0.9603206
vn -0.1644354 -0.2252672 0.9603206
vn 0.4411161 -0.3416513 0.8298741
vn 0.4411159 -0.3416513 0.8298741
vn 0.441116 -0.3416513 0.8298741
vn -0.8967054 0.2078431 -0.3907951
vn -0.8967054 0.2078431 -0.3907951
vn -0.8967054 0.2078431 -0.3907951
vn -0.9603206 -0.2252672 0.1644354
vn -0.9603206 -0.2252672 0.1644354
vn -0.9603206 -0.2252672 0.1644354
vn 0.5566629 0.6166464 -0.5566629
vn 0.5566629 0.6166464 -0.5566629
vn 0.5566629 0.6166464 -0.5566629
vn 0.9970375 -0.02707062 0.07199661
vn 0.9970375 -0.02707062 0.07199661
vn 0.9970375 -0.02707062 0.07199661
vn -0.7063615 -0.04590087 0.7063615
vn -0.7063615 -0.04590086 0.7063615
vn -0.7063615 -0.04590086 0.7063615
vn -0.7063615 -0.04590079 0.7063615
vn -0.4822193 0.7313884 0.4822193
vn -0.4822193 0.7313884 0.4822193
vn -0.4822193 0.7313884 0.4822193
vn -0.4822193 0.7313884 0.4822193
g Foilage_Bush_A_0
f 3/3/3 2/2/2 1/1/1
f 6/6/6 5/5/5 4/4/4
f 9/9/9 8/8/8 7/7/7
f 12/12/12 11/11/11 10/10/10
f 15/15/15 14/14/14 13/13/13
f 18/18/18 17/17/17 16/16/16
f 21/21/21 20/20/20 19/19/19
f 24/24/24 23/23/23 22/22/22
f 27/27/27 26/26/26 25/25/25
f 30/30/30 29/29/29 28/28/28
f 33/33/33 32/32/32 31/31/31
f 36/36/36 35/35/35 34/34/34
f 39/39/39 38/38/38 37/37/37
f 42/42/42 41/41/41 40/40/40
f 45/45/45 44/44/44 43/43/43
f 48/48/48 47/47/47 46/46/46
f 51/51/51 50/50/50 49/49/49
f 54/54/54 53/53/53 52/52/52
f 57/57/57 56/56/56 55/55/55
f 60/60/60 59/59/59 58/58/58
f 63/63/63 62/62/62 61/61/61
f 66/66/66 65/65/65 64/64/64
f 69/69/69 68/68/68 67/67/67
f 72/72/72 71/71/71 70/70/70
f 75/75/75 74/74/74 73/73/73
f 78/78/78 77/77/77 76/76/76
f 81/81/81 80/80/80 79/79/79
f 84/84/84 83/83/83 82/82/82
f 87/87/87 86/86/86 85/85/85
f 90/90/90 89/89/89 88/88/88
f 88/88/88 91/91/91 90/90/90
f 94/94/94 93/93/93 92/92/92
f 95/95/95 92/92/92 93/93/93
