g Foot-Left
v 0.0005980367 0.001383763 -0.001349873
v 0.0003514765 0.002527204 -0.001381466
v 0.0002397895 0.002546576 -0.001226972
v 0.0004709644 0.001285248 -0.001190725
v 0.0002612371 0.002567939 -0.0005628316
v 0.000553579 -0.0002197085 -0.001140694
v 0.0006917045 -0.0003225475 -0.001293149
v 0.0004982117 0.001234741 -0.0005242316
v 0.0005742747 0.001167588 0.0004330936
v 0.0005736908 -0.0001402307 -0.0004785224
v 0.000639836 -2.65564E-05 0.0004730248
v 0.0004853061 -0.001516886 -0.0004270306
v 0.0004634948 -0.00154207 -0.001091036
v 0.0005721154 -0.001545183 -0.001245982
v 0.002902803 0.0008646934 -0.001412121
v 0.00213757 -0.0004006205 -0.001340904
v 0.00292774 0.0003659438 -0.001395456
v 0.002030018 0.001558614 -0.001406036
v 0.0006917045 -0.0003225475 -0.001293149
v 0.0005721154 -0.001545183 -0.001245982
v 0.0005980367 0.001383763 -0.001349873
v 0.0003514765 0.002527204 -0.001381466
v 0.002848647 0.00104922 -0.001265457
v 0.002030018 0.001558614 -0.001406036
v 0.002902803 0.0008646934 -0.001412121
v 0.001996294 0.001726319 -0.001259494
v 0.0003514765 0.002527204 -0.001381466
v 0.002842574 0.001064077 -0.0006940019
v 0.0003532034 0.002673987 -0.001235427
v 0.0002397895 0.002546576 -0.001226972
v 0.0003787977 0.002668225 -0.0006643527
v 0.0002612371 0.002567939 -0.0005628316
v 0.002001038 0.001732584 -0.0006881147
v 0.000448302 0.002500626 -0.0004487932
v 0.0005742747 0.001167588 0.0004330936
v 0.001906489 0.001657276 -0.0004725233
v 0.00284238 0.000924943 -0.0004697161
v 0.0007286792 0.001213709 0.0004565497
v 0.001544966 0.0007468668 0.0004275335
v 0.0007572632 0.0008739128 0.0005473281
v 0.000639836 -2.65564E-05 0.0004730248
v 0.001230612 0.000599707 0.0005404369
v 0.001559249 0.0004903989 0.000437345
v 0.0007900608 0.0002764511 0.0005671901
v 0.0007984976 -5.814507E-05 0.0004988309
v 0.000663818 -0.001424984 -0.0003182133
v 0.0004853061 -0.001516886 -0.0004270306
v 0.00202103 -0.0004307505 -0.0004030267
v 0.0006136674 -0.001610301 -0.0005221182
v 0.0004634948 -0.00154207 -0.001091036
v 0.002869575 0.0003807509 -0.0004517981
v 0.002123954 -0.0005065326 -0.0006136781
v 0.0005910919 -0.001659532 -0.001091364
v 0.0005721154 -0.001545183 -0.001245982
v 0.002120791 -0.0005415771 -0.001184101
v 0.00213757 -0.0004006205 -0.001340904
v 0.002884254 0.0002304823 -0.0006661475
v 0.002890863 0.0002049109 -0.001237245
v 0.00292774 0.0003659438 -0.001395456
v 0.003017373 0.0004753893 -0.001251174
v 0.002902803 0.0008646934 -0.001412121
v 0.003013024 0.0005038141 -0.0005659034
v 0.003000769 0.0007928438 -0.001261756
v 0.002848647 0.00104922 -0.001265457
v 0.002842574 0.001064077 -0.0006940019
v 0.002996868 0.0008126957 -0.0005761998
vt 0.1287834 0.5886709
vt 0.1296928 0.6099167
vt 0.1331365 0.6104397
vt 0.1325604 0.5870038
vt 0.1452025 0.6101657
vt 0.1325589 0.5592461
vt 0.1287834 0.5574074
vt 0.1447049 0.5855195
vt 0.1621561 0.5834983
vt 0.1446891 0.5603964
vt 0.162086 0.561956
vt 0.1452726 0.5353296
vt 0.1332552 0.5349461
vt 0.1298246 0.5350066
vt 0.3887005 0.3085904
vt 0.4038836 0.2862885
vt 0.3887384 0.2994848
vt 0.4039091 0.3220675
vt 0.4301356 0.2891043
vt 0.4335195 0.2669568
vt 0.4301578 0.3202645
vt 0.4335195 0.3413229
vt 0.4799266 0.07918871
vt 0.4685082 0.09448808
vt 0.4843202 0.07971936
vt 0.4645984 0.09322094
vt 0.43876 0.1168086
vt 0.4725229 0.07087587
vt 0.4362721 0.1143393
vt 0.434196 0.1163219
vt 0.4308714 0.1057714
vt 0.4273565 0.104935
vt 0.4579395 0.08518155
vt 0.4299845 0.1011749
vt 0.4236147 0.07271355
vt 0.4544507 0.08236566
vt 0.4705355 0.06590238
vt 0.4267338 0.07277408
vt 0.440955 0.0634972
vt 0.4268924 0.06637394
vt 0.4236147 0.0488887
vt 0.4349041 0.06102359
vt 0.440765 0.05898649
vt 0.4269411 0.05507169
vt 0.4266839 0.04890184
vt 0.4309012 0.0197858
vt 0.4283588 0.01592807
vt 0.4539154 0.0399371
vt 0.4319441 0.01510542
vt 0.4363869 0.004698632
vt 0.4680997 0.05588209
vt 0.4575402 0.03733772
vt 0.438492 0.00707222
vt 0.4409378 0.004898366
vt 0.4648263 0.02981347
vt 0.4686429 0.02894006
vt 0.4701693 0.05162422
vt 0.4782024 0.04553902
vt 0.4826129 0.04597867
vt 0.4813959 0.05000586
vt 0.4877619 0.05502119
vt 0.4713995 0.05698005
vt 0.4842613 0.05530221
vt 0.4870382 0.05990382
vt 0.476872 0.06623388
vt 0.473217 0.06204639
vn -0.4070115 -0.08302528 -0.9096419
vn -0.3253707 0.3395546 -0.8825172
vn -0.9313404 0.2425354 -0.2716278
vn -0.9331122 -0.1158454 -0.3404136
vn -0.7767199 0.4761523 0.4122926
vn -0.9391755 -0.01198351 -0.3432284
vn -0.4098562 -0.02280798 -0.911865
vn -0.9922212 -0.1133712 0.05142029
vn -0.7339554 0.1807564 0.6547034
vn -0.9987729 0.006356368 0.04911438
vn -0.7155683 -0.2138849 0.6649926
vn -0.7227798 -0.5298968 0.44362
vn -0.9065683 -0.3492155 -0.2370283
vn -0.276581 -0.4771199 -0.834182
vn 0.5287302 0.2526077 -0.8103294
vn 0.3017958 -0.4043872 -0.8633599
vn 0.5670272 -0.2683093 -0.7787749
vn 0.2454507 0.3515323 -0.9034262
vn -0.4098562 -0.02280798 -0.911865
vn -0.276581 -0.4771199 -0.834182
vn -0.4070115 -0.08302528 -0.9096419
vn -0.3253707 0.3395546 -0.8825172
vn 0.6991703 0.6571062 -0.2817308
vn 0.2454507 0.3515323 -0.9034262
vn 0.5287302 0.2526077 -0.8103294
vn 0.5161611 0.7835717 -0.3458221
vn -0.3253707 0.3395546 -0.8825172
vn 0.7095045 0.6805023 0.1830844
vn -0.1543945 0.9311141 -0.3304374
vn -0.9313404 0.2425354 -0.2716278
vn -0.05260167 0.9723459 0.2275448
vn -0.7767199 0.4761523 0.4122926
vn 0.5511413 0.8009354 0.2339781
vn 0.09078746 0.6975696 0.7107421
vn -0.7339554 0.1807564 0.6547034
vn 0.4483372 0.660831 0.6019104
vn 0.6163648 0.4207425 0.6656351
vn 0.03608939 0.4609548 0.8866894
vn 0.4043882 0.2992603 0.8642415
vn -0.1837817 0.1237264 0.9751492
vn -0.7155683 -0.2138849 0.6649926
vn 0.1936897 0.04076779 0.9802154
vn 0.4317324 -0.1916838 0.8813992
vn -0.1697086 -0.08217592 0.9820622
vn 0.07894083 -0.3984444 0.913789
vn 0.1612887 -0.6380037 0.7529524
vn -0.7227798 -0.5298968 0.44362
vn 0.5145414 -0.5711576 0.6395516
vn 0.05205626 -0.9553772 0.2907655
vn -0.9065683 -0.3492155 -0.2370283
vn 0.6548769 -0.3140952 0.687372
vn 0.6313562 -0.7220769 0.2828325
vn -0.05158787 -0.9709819 -0.2335225
vn -0.276581 -0.4771199 -0.834182
vn 0.6044318 -0.7525281 -0.2614644
vn 0.3017958 -0.4043872 -0.8633599
vn 0.7733769 -0.5929489 0.2242762
vn 0.7683616 -0.605094 -0.2085228
vn 0.5670272 -0.2683093 -0.7787749
vn 0.9620135 -0.1573894 -0.2230664
vn 0.5287302 0.2526077 -0.8103294
vn 0.8975347 -0.1552662 0.4127032
vn 0.9399684 0.2430809 -0.2395228
vn 0.6991703 0.6571062 -0.2817308
vn 0.7095045 0.6805023 0.1830844
vn 0.8758693 0.2737045 0.397415
g Foot-Left_0
f 3/3/3 2/2/2 1/1/1
f 4/4/4 3/3/3 1/1/1
f 5/5/5 3/3/3 4/4/4
f 6/6/6 4/4/4 1/1/1
f 7/7/7 6/6/6 1/1/1
f 8/8/8 5/5/5 4/4/4
f 8/8/8 4/4/4 6/6/6
f 8/8/8 9/9/9 5/5/5
f 8/8/8 10/10/10 9/9/9
f 10/10/10 8/8/8 6/6/6
f 10/10/10 11/11/11 9/9/9
f 10/10/10 12/12/12 11/11/11
f 10/10/10 6/6/6 12/12/12
f 6/6/6 13/13/13 12/12/12
f 13/13/13 6/6/6 7/7/7
f 14/14/14 13/13/13 7/7/7
f 17/17/17 16/16/16 15/15/15
f 16/16/16 18/18/18 15/15/15
f 16/16/16 19/19/19 18/18/18
f 20/20/20 19/19/19 16/16/16
f 21/21/21 18/18/18 19/19/19
f 22/22/22 18/18/18 21/21/21
f 25/25/25 24/24/24 23/23/23
f 24/24/24 26/26/26 23/23/23
f 26/26/26 24/24/24 27/27/27
f 28/28/28 23/23/23 26/26/26
f 29/29/29 26/26/26 27/27/27
f 29/29/29 27/27/27 30/30/30
f 29/29/29 30/30/30 31/31/31
f 26/26/26 29/29/29 31/31/31
f 30/30/30 32/32/32 31/31/31
f 33/33/33 28/28/28 26/26/26
f 33/33/33 26/26/26 31/31/31
f 32/32/32 34/34/34 31/31/31
f 33/33/33 31/31/31 34/34/34
f 34/34/34 32/32/32 35/35/35
f 28/28/28 33/33/33 36/36/36
f 36/36/36 33/33/33 34/34/34
f 37/37/37 28/28/28 36/36/36
f 38/38/38 34/34/34 35/35/35
f 34/34/34 38/38/38 36/36/36
f 36/36/36 39/39/39 37/37/37
f 38/38/38 39/39/39 36/36/36
f 40/40/40 38/38/38 35/35/35
f 35/35/35 41/41/41 40/40/40
f 39/39/39 38/38/38 42/42/42
f 38/38/38 40/40/40 42/42/42
f 37/37/37 39/39/39 43/43/43
f 42/42/42 43/43/43 39/39/39
f 40/40/40 44/44/44 42/42/42
f 41/41/41 44/44/44 40/40/40
f 44/44/44 45/45/45 42/42/42
f 44/44/44 41/41/41 45/45/45
f 45/45/45 43/43/43 42/42/42
f 46/46/46 45/45/45 41/41/41
f 47/47/47 46/46/46 41/41/41
f 48/48/48 43/43/43 45/45/45
f 48/48/48 45/45/45 46/46/46
f 46/46/46 47/47/47 49/49/49
f 47/47/47 50/50/50 49/49/49
f 51/51/51 37/37/37 43/43/43
f 51/51/51 43/43/43 48/48/48
f 52/52/52 48/48/48 46/46/46
f 49/49/49 52/52/52 46/46/46
f 50/50/50 53/53/53 49/49/49
f 53/53/53 50/50/50 54/54/54
f 49/49/49 53/53/53 55/55/55
f 55/55/55 53/53/53 54/54/54
f 52/52/52 49/49/49 55/55/55
f 56/56/56 55/55/55 54/54/54
f 52/52/52 57/57/57 48/48/48
f 57/57/57 51/51/51 48/48/48
f 52/52/52 55/55/55 57/57/57
f 58/58/58 55/55/55 56/56/56
f 55/55/55 58/58/58 57/57/57
f 59/59/59 58/58/58 56/56/56
f 59/59/59 60/60/60 58/58/58
f 58/58/58 60/60/60 57/57/57
f 60/60/60 59/59/59 61/61/61
f 57/57/57 62/62/62 51/51/51
f 60/60/60 62/62/62 57/57/57
f 37/37/37 51/51/51 62/62/62
f 63/63/63 60/60/60 61/61/61
f 60/60/60 63/63/63 62/62/62
f 64/64/64 63/63/63 61/61/61
f 63/63/63 64/64/64 65/65/65
f 66/66/66 65/65/65 37/37/37
f 66/66/66 37/37/37 62/62/62
f 63/63/63 66/66/66 62/62/62
f 66/66/66 63/63/63 65/65/65
