g frameL_low1
v 2.028635 2.11203 0.1468613
v 1.888275 1.968035 0.1468613
v 1.935527 2.052927 0.146861
v 2.195703 1.722067 0.146861
v 1.866493 1.72694 0.1468613
v 1.8629 1.873903 0.1468613
v 1.88374 1.078622 0.043403
v 2.080795 1.095068 0.043403
v 2.08109 0.6307476 0.03809675
v 1.88374 0.004127925 0.03809675
v 2.105577 0.5533075 0.03809675
v 2.212183 0.442135 0.03809675
v 2.180145 0.486515 0.03809675
v 2.243207 2.066395 0.1468613
v 2.186408 2.108898 0.146861
v 2.100677 2.124328 0.146861
v 2.305083 1.988412 0.1468613
v 2.324412 1.88719 0.1468613
v 2.307693 1.810585 0.1468613
v 2.259525 1.761495 0.1468613
v 2.15804 0.2702975 0.03809675
v 2.210698 0.3334425 0.03809675
v 2.22293 0.38455 0.03809675
v 2.272135 0.1636085 0.03809675
v 2.245602 0.2157138 0.03809675
v 2.209155 0.004127925 0.03809675
v 2.250358 0.06456675 0.03809675
v 2.269965 0.1137403 0.03809675
v 1.888275 1.968035 0.1468613
v 1.929365 2.059587 -0.061422
v 1.935527 2.052927 0.146861
v 1.87898 1.973947 -0.061422
v 1.854352 1.883265 -0.061422
v 1.8629 1.873903 0.1468613
v 1.866493 1.72694 0.1468613
v 1.857543 1.742097 -0.061422
v 1.863912 1.077605 -0.061422
v 1.88374 1.078622 0.043403
v 1.88374 0.004127925 0.03809675
v 1.863912 0.004127925 -0.061422
v 2.09824 2.133685 -0.061422
v 2.028635 2.11203 0.1468613
v 2.02538 2.1227 -0.061422
v 1.929365 2.059587 -0.061422
v 1.935527 2.052927 0.146861
v 2.028635 2.11203 0.1468613
v 2.09824 2.133685 -0.061422
v 2.100677 2.124328 0.146861
v 2.186408 2.108898 0.146861
v 2.184237 2.118335 -0.061422
v 2.243207 2.066395 0.1468613
v 2.247483 2.07658 -0.061422
v 2.311452 1.99442 -0.061422
v 2.305083 1.988412 0.1468613
v 2.324412 1.88719 0.1468613
v 2.334423 1.89119 -0.061422
v 2.31388 1.808185 -0.061422
v 2.324412 1.88719 0.1468613
v 2.334423 1.89119 -0.061422
v 2.307693 1.810585 0.1468613
v 2.259525 1.761495 0.1468613
v 2.265002 1.754598 -0.061422
v 2.211245 1.735275 -0.0613035
v 2.195703 1.722067 0.146861
v 2.080795 1.095068 0.043403
v 2.101093 1.095963 -0.061422
v 2.101202 0.6307476 -0.061422
v 2.08109 0.6307476 0.03809675
v 2.105577 0.5533075 0.03809675
v 2.125673 0.5533075 -0.061422
v 2.180145 0.486515 0.03809675
v 2.19137 0.495945 -0.061422
v 2.224755 0.4448275 -0.061422
v 2.212183 0.442135 0.03809675
v 2.22293 0.38455 0.03809675
v 2.23417 0.385915 -0.061422
v 2.210698 0.3334425 0.03809675
v 2.220575 0.328055 -0.061422
v 2.178123 0.2703 -0.061422
v 2.15804 0.2702975 0.03809675
v 2.224288 0.004127925 -0.061422
v 2.250358 0.06456675 0.03809675
v 2.262122 0.058128 -0.061422
v 2.209155 0.004127925 0.03809675
v 2.178123 0.2703 -0.061422
v 2.245602 0.2157138 0.03809675
v 2.15804 0.2702975 0.03809675
v 2.256648 0.2233198 -0.061422
v 2.283648 0.1660298 -0.061422
v 2.272135 0.1636085 0.03809675
v 2.281728 0.110689 -0.061422
v 2.269965 0.1137403 0.03809675
v 2.262122 0.058128 -0.061422
v 2.250358 0.06456675 0.03809675
v 1.88913 -1.959612 0.1468613
v 2.028908 -2.10301 0.1468613
v 1.936188 -2.044152 0.146861
v 2.195282 -1.714665 0.146861
v 1.867437 -1.719518 0.1468613
v 1.86386 -1.86587 0.1468613
v 1.88374 -1.070365 0.043403
v 2.080795 -1.08681 0.043403
v 2.08109 -0.6224925 0.03809675
v 1.88374 0.004127925 0.03809675
v 2.105577 -0.54505 0.03809675
v 2.24259 -2.057565 0.1468613
v 2.100652 -2.115258 0.146861
v 2.186025 -2.09989 0.146861
v 2.304208 -1.979908 0.1468613
v 2.32346 -1.879102 0.1468613
v 2.306808 -1.802815 0.1468613
v 2.25884 -1.75393 0.1468613
v 2.212183 -0.4338775 0.03809675
v 2.180145 -0.47826 0.03809675
v 2.15804 -0.2620425 0.03809675
v 2.22293 -0.376295 0.03809675
v 2.210698 -0.3251875 0.03809675
v 2.272135 -0.1553522 0.03809675
v 2.245602 -0.2074572 0.03809675
v 2.209155 0.004127925 0.03809675
v 2.269965 -0.1054842 0.03809675
v 2.250358 -0.0563105 0.03809675
v 1.93005 -2.050787 -0.061422
v 1.88913 -1.959612 0.1468613
v 1.936188 -2.044152 0.146861
v 1.879873 -1.9655 -0.061422
v 1.855347 -1.875193 -0.061422
v 1.86386 -1.86587 0.1468613
v 1.867437 -1.719518 0.1468613
v 1.858525 -1.734612 -0.061422
v 1.863912 -1.069348 -0.061422
v 1.88374 -1.070365 0.043403
v 1.88374 0.004127925 0.03809675
v 1.863912 0.004127925 -0.061422
v 2.24259 -2.057565 0.1468613
v 2.310552 -1.985887 -0.061422
v 2.246847 -2.067708 -0.061422
v 2.304208 -1.979908 0.1468613
v 2.32346 -1.879102 0.1468613
v 2.333427 -1.883085 -0.061422
v 2.31297 -1.800425 -0.061422
v 2.306808 -1.802815 0.1468613
v 2.25884 -1.75393 0.1468613
v 2.264295 -1.74706 -0.061422
v 2.21076 -1.727815 -0.0613035
v 2.195282 -1.714665 0.146861
v 2.080795 -1.08681 0.043403
v 2.101093 -1.087705 -0.061422
v 2.101202 -0.62249 -0.061422
v 2.08109 -0.6224925 0.03809675
v 2.105577 -0.54505 0.03809675
v 2.125673 -0.54505 -0.061422
v 2.180145 -0.47826 0.03809675
v 2.19137 -0.4876875 -0.061422
v 2.224755 -0.4365725 -0.061422
v 2.212183 -0.4338775 0.03809675
v 2.22293 -0.376295 0.03809675
v 2.23417 -0.37766 -0.061422
v 2.210698 -0.3251875 0.03809675
v 2.220575 -0.3197975 -0.061422
v 2.178123 -0.262045 -0.061422
v 2.15804 -0.2620425 0.03809675
v 2.250358 -0.0563105 0.03809675
v 2.224288 0.004127925 -0.061422
v 2.262122 -0.04987175 -0.061422
v 2.209155 0.004127925 0.03809675
v 2.245602 -0.2074572 0.03809675
v 2.178123 -0.262045 -0.061422
v 2.15804 -0.2620425 0.03809675
v 2.256648 -0.215064 -0.061422
v 2.283648 -0.1577735 -0.061422
v 2.272135 -0.1553522 0.03809675
v 2.281728 -0.102433 -0.061422
v 2.269965 -0.1054842 0.03809675
v 2.262122 -0.04987175 -0.061422
v 2.250358 -0.0563105 0.03809675
v 2.028908 -2.10301 0.1468613
v 1.93005 -2.050787 -0.061422
v 1.936188 -2.044152 0.146861
v 2.025667 -2.113637 -0.061422
v 2.098222 -2.124575 -0.061422
v 2.100652 -2.115258 0.146861
v 2.186025 -2.09989 0.146861
v 2.183862 -2.10929 -0.061422
v 2.24259 -2.057565 0.1468613
v 2.246847 -2.067708 -0.061422
vt 1.447266 0.2098389
vt 1.419922 0.1906738
vt 1.435547 0.1968994
vt 1.384766 0.2587891
vt 1.37793 0.1922607
vt 1.404297 0.1890869
vt 1.243164 0.2033691
vt 1.24707 0.244751
vt 1.145508 0.2419434
vt 1.009766 0.1960449
vt 1.12793 0.2463379
vt 1.101563 0.2648926
vt 1.111328 0.2590332
vt 1.449219 0.2454834
vt 1.453125 0.2347412
vt 1.452148 0.2208252
vt 1.44043 0.2585449
vt 1.425781 0.2670898
vt 1.412109 0.2695313
vt 1.399414 0.2658691
vt 1.067383 0.2546387
vt 1.082031 0.2651367
vt 1.09082 0.2675781
vt 1.041016 0.2705078
vt 1.051758 0.2670898
vt 1.009766 0.2587891
vt 1.022461 0.2661133
vt 1.03125 0.2697754
vt 1.419922 0.1906738
vt 1.462891 0.1708984
vt 1.435547 0.1968994
vt 1.44043 0.1571045
vt 1.417969 0.1501465
vt 1.404297 0.1890869
vt 1.37793 0.1922607
vt 1.381836 0.1477051
vt 1.241211 0.1809082
vt 1.243164 0.2033691
vt 1.009766 0.1960449
vt 1.009766 0.1746826
vt 1.486328 0.2128906
vt 1.447266 0.2098389
vt 1.479492 0.1950684
vt 1.462891 0.1708984
vt 1.435547 0.1968994
vt 1.447266 0.2098389
vt 1.486328 0.2128906
vt 1.452148 0.2208252
vt 1.453125 0.2347412
vt 1.489258 0.2357178
vt 1.449219 0.2454834
vt 1.484375 0.2556152
vt 1.470703 0.2802734
vt 1.44043 0.2585449
vt 1.425781 0.2670898
vt 1.447266 0.2983398
vt 1.423828 0.3051758
vt 1.425781 0.2670898
vt 1.447266 0.2983398
vt 1.412109 0.2695313
vt 1.399414 0.2658691
vt 1.402344 0.3059082
vt 1.386719 0.3039551
vt 1.384766 0.2587891
vt 1.24707 0.244751
vt 1.245117 0.2670898
vt 1.148438 0.2641602
vt 1.145508 0.2419434
vt 1.12793 0.2463379
vt 1.133789 0.2692871
vt 1.111328 0.2590332
vt 1.119141 0.2792969
vt 1.106445 0.2849121
vt 1.101563 0.2648926
vt 1.09082 0.2675781
vt 1.09375 0.2866211
vt 1.082031 0.2651367
vt 1.081055 0.2851563
vt 1.068359 0.2797852
vt 1.067383 0.2546387
vt 1.009766 0.2797852
vt 1.022461 0.2661133
vt 1.018555 0.2851563
vt 1.009766 0.2587891
vt 1.068359 0.2797852
vt 1.051758 0.2670898
vt 1.067383 0.2546387
vt 1.053711 0.2873535
vt 1.040039 0.2895508
vt 1.041016 0.2705078
vt 1.027344 0.2890625
vt 1.03125 0.2697754
vt 1.018555 0.2851563
vt 1.022461 0.2661133
vt 1.073242 0.04782104
vt 1.045898 0.06689453
vt 1.058594 0.05395508
vt 1.109375 0.1159058
vt 1.116211 0.04940796
vt 1.089844 0.0461731
vt 1.250977 0.06060791
vt 1.24707 0.1018677
vt 1.34668 0.09954834
vt 1.480469 0.05331421
vt 1.364258 0.1038818
vt 1.044922 0.1026001
vt 1.041992 0.07794189
vt 1.041016 0.09185791
vt 1.053711 0.1157227
vt 1.068359 0.1242065
vt 1.081055 0.1265869
vt 1.094727 0.1230469
vt 1.390625 0.1221924
vt 1.380859 0.1166382
vt 1.424805 0.1113892
vt 1.401367 0.1245728
vt 1.410156 0.1220703
vt 1.450195 0.1260986
vt 1.439453 0.1229248
vt 1.481445 0.1161499
vt 1.459961 0.1257324
vt 1.46875 0.1228638
vt 1.03125 0.0280304
vt 1.073242 0.04782104
vt 1.058594 0.05395508
vt 1.052734 0.01416779
vt 1.076172 0.007217407
vt 1.089844 0.0461731
vt 1.116211 0.04940796
vt 1.112305 0.004882813
vt 1.251953 0.03808594
vt 1.250977 0.06060791
vt 1.480469 0.05331421
vt 1.480469 0.03201294
vt 1.044922 0.1026001
vt 1.023438 0.1374512
vt 1.009766 0.1127319
vt 1.053711 0.1157227
vt 1.068359 0.1242065
vt 1.046875 0.1555176
vt 1.070313 0.1624756
vt 1.081055 0.1265869
vt 1.094727 0.1230469
vt 1.09082 0.1630859
vt 1.107422 0.1610107
vt 1.109375 0.1159058
vt 1.24707 0.1018677
vt 1.248047 0.1242676
vt 1.344727 0.1221313
vt 1.34668 0.09954834
vt 1.364258 0.1038818
vt 1.358398 0.1271973
vt 1.380859 0.1166382
vt 1.374023 0.137207
vt 1.386719 0.1424561
vt 1.390625 0.1221924
vt 1.401367 0.1245728
vt 1.400391 0.1439209
vt 1.410156 0.1220703
vt 1.412109 0.1422119
vt 1.423828 0.1365967
vt 1.424805 0.1113892
vt 1.46875 0.1228638
vt 1.482422 0.137207
vt 1.470703 0.1427002
vt 1.481445 0.1161499
vt 1.439453 0.1229248
vt 1.423828 0.1365967
vt 1.424805 0.1113892
vt 1.4375 0.1435547
vt 1.449219 0.145874
vt 1.450195 0.1260986
vt 1.459961 0.1456299
vt 1.459961 0.1257324
vt 1.470703 0.1427002
vt 1.46875 0.1228638
vt 1.045898 0.06689453
vt 1.03125 0.0280304
vt 1.058594 0.05395508
vt 1.014648 0.05212402
vt 1.006836 0.06994629
vt 1.041992 0.07794189
vt 1.041016 0.09185791
vt 1.004883 0.09277344
vt 1.044922 0.1026001
vt 1.009766 0.1127319
vn -0.1804199 0.4138184 0.8920898
vn -0.4182129 0.1733398 0.8916016
vn -0.3635254 0.3557129 0.8608398
vn 0.4152832 -0.2210693 0.8823242
vn -0.4992676 -0.1177979 0.8583984
vn -0.5361328 0.04714966 0.8427734
vn -0.527832 -0.07263184 0.8461914
vn 0.3952637 -0.1330566 0.9086914
vn 0.1965332 0.001419067 0.9804688
vn -0.8251953 -0.001926422 0.5644531
vn 0.2202148 0.1433105 0.9648438
vn 0.1693115 0.06896973 0.9829102
vn 0.1345215 0.1260986 0.9829102
vn 0.3320313 0.3330078 0.8828125
vn 0.1506348 0.3779297 0.9135742
vn 0.009872437 0.395752 0.918457
vn 0.684082 0.3139648 0.6582031
vn 0.7573242 0.008460999 0.652832
vn 0.8613281 -0.4416504 0.2512207
vn 0.5761719 -0.7661133 0.2851563
vn 0.130127 0.03924561 0.9907227
vn 0.307373 -0.161499 0.9379883
vn 0.3041992 -0.008270264 0.9526367
vn 0.2075195 0.04782104 0.9770508
vn 0.1915283 0.2006836 0.9609375
vn 0.1356201 -0.09362793 0.9863281
vn 0.1984863 -0.1085815 0.9741211
vn 0.2005615 -0.0418396 0.9790039
vn -0.4182129 0.1733398 0.8916016
vn -0.7133789 0.6992188 0.04852295
vn -0.3635254 0.3557129 0.8608398
vn -0.921875 0.3837891 0.04937744
vn -0.9946289 0.09442139 0.04525757
vn -0.5361328 0.04714966 0.8427734
vn -0.4992676 -0.1177979 0.8583984
vn -0.996582 -0.02467346 0.07836914
vn -0.9897461 -0.01223755 0.1428223
vn -0.527832 -0.07263184 0.8461914
vn -0.8251953 -0.001926422 0.5644531
vn -0.9814453 -0.0004708767 0.1905518
vn 0.02233887 0.9985352 0.0463562
vn -0.1804199 0.4138184 0.8920898
vn -0.3984375 0.9160156 0.0491333
vn -0.7133789 0.6992188 0.04852295
vn -0.3635254 0.3557129 0.8608398
vn -0.1804199 0.4138184 0.8920898
vn 0.02233887 0.9985352 0.0463562
vn 0.009872437 0.395752 0.918457
vn 0.1506348 0.3779297 0.9135742
vn 0.3630371 0.9306641 0.04296875
vn 0.3320313 0.3330078 0.8828125
vn 0.703125 0.7099609 0.043396
vn 0.90625 0.420166 0.04489136
vn 0.684082 0.3139648 0.6582031
vn 0.7573242 0.008460999 0.652832
vn 0.9990234 0.01649475 0.04153442
vn 0.8896484 -0.454834 0.03765869
vn 0.7573242 0.008460999 0.652832
vn 0.9990234 0.01649475 0.04153442
vn 0.8613281 -0.4416504 0.2512207
vn 0.5761719 -0.7661133 0.2851563
vn 0.6015625 -0.7988281 0.02320862
vn 0.9526367 -0.2883301 0.0958252
vn 0.4152832 -0.2210693 0.8823242
vn 0.3952637 -0.1330566 0.9086914
vn 0.9833984 -0.1254883 0.1328125
vn 0.9799805 0.04406738 0.1943359
vn 0.1965332 0.001419067 0.9804688
vn 0.2202148 0.1433105 0.9648438
vn 0.8061523 0.5678711 0.1662598
vn 0.1345215 0.1260986 0.9829102
vn 0.7231445 0.6767578 0.1368408
vn 0.9204102 0.3686523 0.1290283
vn 0.1693115 0.06896973 0.9829102
vn 0.3041992 -0.008270264 0.9526367
vn 0.9931641 -0.02267456 0.1164551
vn 0.307373 -0.161499 0.9379883
vn 0.8774414 -0.4628906 0.1256104
vn 0.9316406 0.3146973 0.180542
vn 0.130127 0.03924561 0.9907227
vn 0.815918 -0.5634766 0.12854
vn 0.1984863 -0.1085815 0.9741211
vn 0.8701172 -0.4760742 0.128418
vn 0.1356201 -0.09362793 0.9863281
vn 0.9316406 0.3146973 0.180542
vn 0.1915283 0.2006836 0.9609375
vn 0.130127 0.03924561 0.9907227
vn 0.6899414 0.7138672 0.1217651
vn 0.9667969 0.2229004 0.1235352
vn 0.2075195 0.04782104 0.9770508
vn 0.9711914 -0.2039795 0.1230469
vn 0.2005615 -0.0418396 0.9790039
vn 0.8701172 -0.4760742 0.128418
vn 0.1984863 -0.1085815 0.9741211
vn -0.4196777 -0.1739502 0.890625
vn -0.1810303 -0.4150391 0.8916016
vn -0.3647461 -0.3569336 0.8598633
vn 0.4165039 0.2208252 0.8818359
vn -0.5 0.1172485 0.8579102
vn -0.5380859 -0.04730225 0.8417969
vn -0.5283203 0.07202148 0.8457031
vn 0.395752 0.1326904 0.9086914
vn 0.1965332 -0.001420021 0.9804688
vn -0.8251953 0.001926422 0.5644531
vn 0.2202148 -0.1433105 0.9648438
vn 0.3330078 -0.3339844 0.8818359
vn 0.009902954 -0.3972168 0.9174805
vn 0.151123 -0.3791504 0.9130859
vn 0.6855469 -0.3144531 0.6567383
vn 0.7587891 -0.008483887 0.6513672
vn 0.8613281 0.4418945 0.2502441
vn 0.5761719 0.7661133 0.2839355
vn 0.1693115 -0.06896973 0.9829102
vn 0.1345215 -0.1260986 0.9829102
vn 0.130127 -0.03924561 0.9907227
vn 0.3041992 0.008270264 0.9526367
vn 0.307373 0.161499 0.9379883
vn 0.2075195 -0.04782104 0.9770508
vn 0.1915283 -0.2006836 0.9609375
vn 0.1356201 0.09362793 0.9863281
vn 0.2005615 0.0418396 0.9790039
vn 0.1984863 0.1085815 0.9741211
vn -0.7133789 -0.6992188 0.04830933
vn -0.4196777 -0.1739502 0.890625
vn -0.3647461 -0.3569336 0.8598633
vn -0.921875 -0.3837891 0.04916382
vn -0.9946289 -0.09436035 0.04507446
vn -0.5380859 -0.04730225 0.8417969
vn -0.5 0.1172485 0.8579102
vn -0.996582 0.02354431 0.07836914
vn -0.9897461 0.01152802 0.1428223
vn -0.5283203 0.07202148 0.8457031
vn -0.8251953 0.001926422 0.5644531
vn -0.9814453 0.0004708767 0.1905518
vn 0.3330078 -0.3339844 0.8818359
vn 0.90625 -0.420166 0.04470825
vn 0.703125 -0.7099609 0.04321289
vn 0.6855469 -0.3144531 0.6567383
vn 0.7587891 -0.008483887 0.6513672
vn 0.9990234 -0.01647949 0.04135132
vn 0.8896484 0.454834 0.0375061
vn 0.8613281 0.4418945 0.2502441
vn 0.5761719 0.7661133 0.2839355
vn 0.6015625 0.7988281 0.02311707
vn 0.953125 0.2868652 0.0958252
vn 0.4165039 0.2208252 0.8818359
vn 0.395752 0.1326904 0.9086914
vn 0.9833984 0.1248779 0.1326904
vn 0.9799805 -0.04406738 0.1943359
vn 0.1965332 -0.001420021 0.9804688
vn 0.2202148 -0.1433105 0.9648438
vn 0.8061523 -0.5678711 0.1662598
vn 0.1345215 -0.1260986 0.9829102
vn 0.7231445 -0.6767578 0.1368408
vn 0.9204102 -0.3686523 0.1290283
vn 0.1693115 -0.06896973 0.9829102
vn 0.3041992 0.008270264 0.9526367
vn 0.9931641 0.02267456 0.1164551
vn 0.307373 0.161499 0.9379883
vn 0.8774414 0.4628906 0.1256104
vn 0.9316406 -0.3146973 0.180542
vn 0.130127 -0.03924561 0.9907227
vn 0.1984863 0.1085815 0.9741211
vn 0.815918 0.5634766 0.12854
vn 0.8701172 0.4760742 0.128418
vn 0.1356201 0.09362793 0.9863281
vn 0.1915283 -0.2006836 0.9609375
vn 0.9316406 -0.3146973 0.180542
vn 0.130127 -0.03924561 0.9907227
vn 0.6899414 -0.7138672 0.1217651
vn 0.9667969 -0.2229004 0.1235352
vn 0.2075195 -0.04782104 0.9770508
vn 0.9711914 0.2039795 0.1230469
vn 0.2005615 0.0418396 0.9790039
vn 0.8701172 0.4760742 0.128418
vn 0.1984863 0.1085815 0.9741211
vn -0.1810303 -0.4150391 0.8916016
vn -0.7133789 -0.6992188 0.04830933
vn -0.3647461 -0.3569336 0.8598633
vn -0.3984375 -0.9160156 0.04891968
vn 0.02233887 -0.9985352 0.0461731
vn 0.009902954 -0.3972168 0.9174805
vn 0.151123 -0.3791504 0.9130859
vn 0.3630371 -0.9306641 0.04278564
vn 0.3330078 -0.3339844 0.8818359
vn 0.703125 -0.7099609 0.04321289
g frameL_low1_0
f 3/3/3 2/2/2 1/1/1
f 4/4/4 1/1/1 2/2/2
f 4/4/4 2/2/2 5/5/5
f 6/6/6 5/5/5 2/2/2
f 5/5/5 7/7/7 4/4/4
f 8/8/8 4/4/4 7/7/7
f 8/8/8 7/7/7 9/9/9
f 10/10/10 9/9/9 7/7/7
f 11/11/11 9/9/9 10/10/10
f 10/10/10 12/12/12 11/11/11
f 13/13/13 11/11/11 12/12/12
f 4/4/4 14/14/14 1/1/1
f 14/14/14 15/15/15 1/1/1
f 16/16/16 1/1/1 15/15/15
f 14/14/14 4/4/4 17/17/17
f 18/18/18 17/17/17 4/4/4
f 18/18/18 4/4/4 19/19/19
f 20/20/20 19/19/19 4/4/4
f 10/10/10 21/21/21 12/12/12
f 21/21/21 22/22/22 12/12/12
f 23/23/23 12/12/12 22/22/22
f 10/10/10 24/24/24 21/21/21
f 25/25/25 21/21/21 24/24/24
f 10/10/10 26/26/26 24/24/24
f 26/26/26 27/27/27 24/24/24
f 28/28/28 24/24/24 27/27/27
f 31/31/31 30/30/30 29/29/29
f 32/32/32 29/29/29 30/30/30
f 32/32/32 33/33/33 29/29/29
f 34/34/34 29/29/29 33/33/33
f 34/34/34 33/33/33 35/35/35
f 36/36/36 35/35/35 33/33/33
f 36/36/36 37/37/37 35/35/35
f 38/38/38 35/35/35 37/37/37
f 38/38/38 37/37/37 39/39/39
f 40/40/40 39/39/39 37/37/37
f 43/43/43 42/42/42 41/41/41
f 43/43/43 44/44/44 42/42/42
f 45/45/45 42/42/42 44/44/44
f 48/48/48 47/47/47 46/46/46
f 48/48/48 49/49/49 47/47/47
f 50/50/50 47/47/47 49/49/49
f 49/49/49 51/51/51 50/50/50
f 52/52/52 50/50/50 51/51/51
f 52/52/52 51/51/51 53/53/53
f 54/54/54 53/53/53 51/51/51
f 54/54/54 55/55/55 53/53/53
f 56/56/56 53/53/53 55/55/55
f 59/59/59 58/58/58 57/57/57
f 60/60/60 57/57/57 58/58/58
f 60/60/60 61/61/61 57/57/57
f 62/62/62 57/57/57 61/61/61
f 62/62/62 61/61/61 63/63/63
f 64/64/64 63/63/63 61/61/61
f 64/64/64 65/65/65 63/63/63
f 66/66/66 63/63/63 65/65/65
f 66/66/66 65/65/65 67/67/67
f 68/68/68 67/67/67 65/65/65
f 68/68/68 69/69/69 67/67/67
f 70/70/70 67/67/67 69/69/69
f 69/69/69 71/71/71 70/70/70
f 72/72/72 70/70/70 71/71/71
f 72/72/72 71/71/71 73/73/73
f 74/74/74 73/73/73 71/71/71
f 74/74/74 75/75/75 73/73/73
f 76/76/76 73/73/73 75/75/75
f 75/75/75 77/77/77 76/76/76
f 78/78/78 76/76/76 77/77/77
f 78/78/78 77/77/77 79/79/79
f 80/80/80 79/79/79 77/77/77
f 83/83/83 82/82/82 81/81/81
f 84/84/84 81/81/81 82/82/82
f 87/87/87 86/86/86 85/85/85
f 88/88/88 85/85/85 86/86/86
f 88/88/88 86/86/86 89/89/89
f 90/90/90 89/89/89 86/86/86
f 89/89/89 90/90/90 91/91/91
f 92/92/92 91/91/91 90/90/90
f 91/91/91 92/92/92 93/93/93
f 94/94/94 93/93/93 92/92/92
f 97/97/97 96/96/96 95/95/95
f 98/98/98 95/95/95 96/96/96
f 98/98/98 99/99/99 95/95/95
f 100/100/100 95/95/95 99/99/99
f 99/99/99 98/98/98 101/101/101
f 102/102/102 101/101/101 98/98/98
f 102/102/102 103/103/103 101/101/101
f 104/104/104 101/101/101 103/103/103
f 103/103/103 105/105/105 104/104/104
f 98/98/98 96/96/96 106/106/106
f 96/96/96 107/107/107 106/106/106
f 108/108/108 106/106/106 107/107/107
f 106/106/106 109/109/109 98/98/98
f 110/110/110 98/98/98 109/109/109
f 110/110/110 111/111/111 98/98/98
f 112/112/112 98/98/98 111/111/111
f 104/104/104 105/105/105 113/113/113
f 114/114/114 113/113/113 105/105/105
f 104/104/104 113/113/113 115/115/115
f 113/113/113 116/116/116 115/115/115
f 117/117/117 115/115/115 116/116/116
f 104/104/104 115/115/115 118/118/118
f 119/119/119 118/118/118 115/115/115
f 104/104/104 118/118/118 120/120/120
f 118/118/118 121/121/121 120/120/120
f 122/122/122 120/120/120 121/121/121
f 125/125/125 124/124/124 123/123/123
f 126/126/126 123/123/123 124/124/124
f 126/126/126 124/124/124 127/127/127
f 128/128/128 127/127/127 124/124/124
f 128/128/128 129/129/129 127/127/127
f 130/130/130 127/127/127 129/129/129
f 130/130/130 129/129/129 131/131/131
f 132/132/132 131/131/131 129/129/129
f 132/132/132 133/133/133 131/131/131
f 134/134/134 131/131/131 133/133/133
f 137/137/137 136/136/136 135/135/135
f 138/138/138 135/135/135 136/136/136
f 138/138/138 136/136/136 139/139/139
f 140/140/140 139/139/139 136/136/136
f 140/140/140 141/141/141 139/139/139
f 142/142/142 139/139/139 141/141/141
f 142/142/142 141/141/141 143/143/143
f 144/144/144 143/143/143 141/141/141
f 144/144/144 145/145/145 143/143/143
f 146/146/146 143/143/143 145/145/145
f 146/146/146 145/145/145 147/147/147
f 148/148/148 147/147/147 145/145/145
f 148/148/148 149/149/149 147/147/147
f 150/150/150 147/147/147 149/149/149
f 150/150/150 149/149/149 151/151/151
f 152/152/152 151/151/151 149/149/149
f 151/151/151 152/152/152 153/153/153
f 154/154/154 153/153/153 152/152/152
f 154/154/154 155/155/155 153/153/153
f 156/156/156 153/153/153 155/155/155
f 156/156/156 155/155/155 157/157/157
f 158/158/158 157/157/157 155/155/155
f 157/157/157 158/158/158 159/159/159
f 160/160/160 159/159/159 158/158/158
f 160/160/160 161/161/161 159/159/159
f 162/162/162 159/159/159 161/161/161
f 165/165/165 164/164/164 163/163/163
f 166/166/166 163/163/163 164/164/164
f 169/169/169 168/168/168 167/167/167
f 170/170/170 167/167/167 168/168/168
f 170/170/170 171/171/171 167/167/167
f 172/172/172 167/167/167 171/171/171
f 171/171/171 173/173/173 172/172/172
f 174/174/174 172/172/172 173/173/173
f 173/173/173 175/175/175 174/174/174
f 176/176/176 174/174/174 175/175/175
f 179/179/179 178/178/178 177/177/177
f 180/180/180 177/177/177 178/178/178
f 180/180/180 181/181/181 177/177/177
f 182/182/182 177/177/177 181/181/181
f 182/182/182 181/181/181 183/183/183
f 184/184/184 183/183/183 181/181/181
f 183/183/183 184/184/184 185/185/185
f 186/186/186 185/185/185 184/184/184
