g frameL_low
v -1.543583 -1.727815 -0.0613035
v -1.591662 -1.75393 0.1468613
v -1.597117 -1.74706 -0.061422
v -1.221097 1.968035 0.1468613
v -1.361458 2.11203 0.1468613
v -1.26835 2.052927 0.146861
v -1.528525 1.722067 0.146861
v -1.199315 1.72694 0.1468613
v -1.195725 1.873903 0.1468613
v -1.216563 1.078622 0.043403
v -1.413617 1.095068 0.043403
v -1.413913 0.6307476 0.03809675
v -1.216563 0.004127925 0.03809675
v -1.4384 0.5533075 0.03809675
v -1.57603 2.066395 0.1468613
v -1.4335 2.124328 0.146861
v -1.51923 2.108898 0.146861
v -1.637905 1.988412 0.1468613
v -1.657235 1.88719 0.1468613
v -1.640515 1.810585 0.1468613
v -1.592348 1.761495 0.1468613
v -1.545005 0.442135 0.03809675
v -1.512967 0.486515 0.03809675
v -1.490862 0.2702975 0.03809675
v -1.555753 0.38455 0.03809675
v -1.54352 0.3334425 0.03809675
v -1.604957 0.1636085 0.03809675
v -1.578425 0.2157138 0.03809675
v -1.541978 0.004127925 0.03809675
v -1.602787 0.1137403 0.03809675
v -1.58318 0.06456675 0.03809675
v -1.431062 2.133685 -0.061422
v -1.361458 2.11203 0.1468613
v -1.4335 2.124328 0.146861
v -1.358203 2.1227 -0.061422
v -1.262187 2.059587 -0.061422
v -1.26835 2.052927 0.146861
v -1.221097 1.968035 0.1468613
v -1.211802 1.973947 -0.061422
v -1.187175 1.883265 -0.061422
v -1.195725 1.873903 0.1468613
v -1.199315 1.72694 0.1468613
v -1.190365 1.742097 -0.061422
v -1.196735 1.077605 -0.061422
v -1.216563 1.078622 0.043403
v -1.216563 0.004127925 0.03809675
v -1.196735 0.004127925 -0.061422
v -1.58318 0.06456675 0.03809675
v -1.55711 0.004127925 -0.061422
v -1.594945 0.058128 -0.061422
v -1.541978 0.004127925 0.03809675
v -1.578425 0.2157138 0.03809675
v -1.510945 0.2703 -0.061422
v -1.490862 0.2702975 0.03809675
v -1.58947 0.2233198 -0.061422
v -1.61647 0.1660298 -0.061422
v -1.604957 0.1636085 0.03809675
v -1.61455 0.110689 -0.061422
v -1.602787 0.1137403 0.03809675
v -1.594945 0.058128 -0.061422
v -1.58318 0.06456675 0.03809675
v -1.510945 0.2703 -0.061422
v -1.54352 0.3334425 0.03809675
v -1.490862 0.2702975 0.03809675
v -1.553397 0.328055 -0.061422
v -1.566993 0.385915 -0.061422
v -1.555753 0.38455 0.03809675
v -1.557578 0.4448275 -0.061422
v -1.545005 0.442135 0.03809675
v -1.512967 0.486515 0.03809675
v -1.524193 0.495945 -0.061422
v -1.458495 0.5533075 -0.061422
v -1.4384 0.5533075 0.03809675
v -1.434025 0.6307476 -0.061422
v -1.413913 0.6307476 0.03809675
v -1.413617 1.095068 0.043403
v -1.433915 1.095963 -0.061422
v -1.544068 1.735275 -0.0613035
v -1.528525 1.722067 0.146861
v -1.592348 1.761495 0.1468613
v -1.597825 1.754598 -0.061422
v -1.646702 1.808185 -0.061422
v -1.640515 1.810585 0.1468613
v -1.657235 1.88719 0.1468613
v -1.667245 1.89119 -0.061422
v -1.644275 1.99442 -0.061422
v -1.637905 1.988412 0.1468613
v -1.57603 2.066395 0.1468613
v -1.580305 2.07658 -0.061422
v -1.51706 2.118335 -0.061422
v -1.51923 2.108898 0.146861
v -1.431062 2.133685 -0.061422
v -1.4335 2.124328 0.146861
v -1.36173 -2.10301 0.1468613
v -1.221953 -1.959612 0.1468613
v -1.26901 -2.044152 0.146861
v -1.528105 -1.714665 0.146861
v -1.20026 -1.719518 0.1468613
v -1.196685 -1.86587 0.1468613
v -1.216563 -1.070365 0.043403
v -1.413617 -1.08681 0.043403
v -1.413913 -0.6224925 0.03809675
v -1.216563 0.004127925 0.03809675
v -1.4384 -0.54505 0.03809675
v -1.545005 -0.4338775 0.03809675
v -1.512967 -0.47826 0.03809675
v -1.575413 -2.057565 0.1468613
v -1.518847 -2.09989 0.146861
v -1.433475 -2.115258 0.146861
v -1.63703 -1.979908 0.1468613
v -1.656283 -1.879102 0.1468613
v -1.63963 -1.802815 0.1468613
v -1.591662 -1.75393 0.1468613
v -1.490862 -0.2620425 0.03809675
v -1.54352 -0.3251875 0.03809675
v -1.555753 -0.376295 0.03809675
v -1.604957 -0.1553522 0.03809675
v -1.578425 -0.2074572 0.03809675
v -1.541978 0.004127925 0.03809675
v -1.58318 -0.0563105 0.03809675
v -1.602787 -0.1054842 0.03809675
v -1.262872 -2.050787 -0.061422
v -1.221953 -1.959612 0.1468613
v -1.212695 -1.9655 -0.061422
v -1.26901 -2.044152 0.146861
v -1.36173 -2.10301 0.1468613
v -1.35849 -2.113637 -0.061422
v -1.431047 -2.124575 -0.061422
v -1.433475 -2.115258 0.146861
v -1.518847 -2.09989 0.146861
v -1.516688 -2.10929 -0.061422
v -1.591662 -1.75393 0.1468613
v -1.543583 -1.727815 -0.0613035
v -1.528105 -1.714665 0.146861
v -1.413617 -1.08681 0.043403
v -1.433915 -1.087705 -0.061422
v -1.434025 -0.62249 -0.061422
v -1.413913 -0.6224925 0.03809675
v -1.4384 -0.54505 0.03809675
v -1.458495 -0.54505 -0.061422
v -1.512967 -0.47826 0.03809675
v -1.524193 -0.4876875 -0.061422
v -1.557578 -0.4365725 -0.061422
v -1.545005 -0.4338775 0.03809675
v -1.555753 -0.376295 0.03809675
v -1.566993 -0.37766 -0.061422
v -1.54352 -0.3251875 0.03809675
v -1.553397 -0.3197975 -0.061422
v -1.510945 -0.262045 -0.061422
v -1.490862 -0.2620425 0.03809675
v -1.196735 -1.069348 -0.061422
v -1.216563 0.004127925 0.03809675
v -1.196735 0.004127925 -0.061422
v -1.216563 -1.070365 0.043403
v -1.20026 -1.719518 0.1468613
v -1.191347 -1.734612 -0.061422
v -1.18817 -1.875193 -0.061422
v -1.196685 -1.86587 0.1468613
v -1.221953 -1.959612 0.1468613
v -1.212695 -1.9655 -0.061422
v -1.55711 0.004127925 -0.061422
v -1.58318 -0.0563105 0.03809675
v -1.594945 -0.04987175 -0.061422
v -1.541978 0.004127925 0.03809675
v -1.510945 -0.262045 -0.061422
v -1.578425 -0.2074572 0.03809675
v -1.490862 -0.2620425 0.03809675
v -1.58947 -0.215064 -0.061422
v -1.61647 -0.1577735 -0.061422
v -1.604957 -0.1553522 0.03809675
v -1.61455 -0.102433 -0.061422
v -1.602787 -0.1054842 0.03809675
v -1.594945 -0.04987175 -0.061422
v -1.58318 -0.0563105 0.03809675
v -1.591662 -1.75393 0.1468613
v -1.645793 -1.800425 -0.061422
v -1.597117 -1.74706 -0.061422
v -1.63963 -1.802815 0.1468613
v -1.656283 -1.879102 0.1468613
v -1.66625 -1.883085 -0.061422
v -1.643375 -1.985887 -0.061422
v -1.63703 -1.979908 0.1468613
v -1.575413 -2.057565 0.1468613
v -1.57967 -2.067708 -0.061422
v -1.516688 -2.10929 -0.061422
v -1.518847 -2.09989 0.146861
vt 0.1071777 0.1610107
vt 0.09442139 0.1230469
vt 0.09130859 0.1630859
vt 0.420166 0.1906738
vt 0.4477539 0.2098389
vt 0.4350586 0.1968994
vt 0.3847656 0.2587891
vt 0.3781738 0.1922607
vt 0.4040527 0.1890869
vt 0.2431641 0.2033691
vt 0.2473145 0.244751
vt 0.145752 0.2419434
vt 0.01017761 0.1960449
vt 0.1282959 0.2463379
vt 0.4494629 0.2454834
vt 0.4519043 0.2208252
vt 0.4528809 0.2347412
vt 0.4406738 0.2585449
vt 0.4260254 0.2670898
vt 0.4123535 0.2695313
vt 0.3994141 0.2658691
vt 0.1017456 0.2648926
vt 0.1112061 0.2590332
vt 0.06744385 0.2546387
vt 0.09094238 0.2675781
vt 0.08197021 0.2651367
vt 0.04101563 0.2705078
vt 0.0519104 0.2670898
vt 0.009902954 0.2587891
vt 0.03152466 0.2697754
vt 0.02217102 0.2661133
vt 0.4868164 0.2128906
vt 0.4477539 0.2098389
vt 0.4519043 0.2208252
vt 0.4797363 0.1950684
vt 0.4624023 0.1708984
vt 0.4350586 0.1968994
vt 0.420166 0.1906738
vt 0.440918 0.1571045
vt 0.4179688 0.1501465
vt 0.4040527 0.1890869
vt 0.3781738 0.1922607
vt 0.3820801 0.1477051
vt 0.2415771 0.1809082
vt 0.2431641 0.2033691
vt 0.01017761 0.1960449
vt 0.01018524 0.1746826
vt 0.02217102 0.2661133
vt 0.009590149 0.2797852
vt 0.01821899 0.2851563
vt 0.009902954 0.2587891
vt 0.0519104 0.2670898
vt 0.06854248 0.2797852
vt 0.06744385 0.2546387
vt 0.05407715 0.2873535
vt 0.04006958 0.2895508
vt 0.04101563 0.2705078
vt 0.02760315 0.2890625
vt 0.03152466 0.2697754
vt 0.01821899 0.2851563
vt 0.02217102 0.2661133
vt 0.06854248 0.2797852
vt 0.08197021 0.2651367
vt 0.06744385 0.2546387
vt 0.08105469 0.2851563
vt 0.09338379 0.2866211
vt 0.09094238 0.2675781
vt 0.1065063 0.2849121
vt 0.1017456 0.2648926
vt 0.1112061 0.2590332
vt 0.1189575 0.2792969
vt 0.1340332 0.2692871
vt 0.1282959 0.2463379
vt 0.1480713 0.2641602
vt 0.145752 0.2419434
vt 0.2473145 0.244751
vt 0.2454834 0.2670898
vt 0.3867188 0.3039551
vt 0.3847656 0.2587891
vt 0.3994141 0.2658691
vt 0.4025879 0.3059082
vt 0.4233398 0.3051758
vt 0.4123535 0.2695313
vt 0.4260254 0.2670898
vt 0.4467773 0.2983398
vt 0.470459 0.2802734
vt 0.4406738 0.2585449
vt 0.4494629 0.2454834
vt 0.4846191 0.2556152
vt 0.4890137 0.2357178
vt 0.4528809 0.2347412
vt 0.4868164 0.2128906
vt 0.4519043 0.2208252
vt 0.04626465 0.06689453
vt 0.07366943 0.04782104
vt 0.05886841 0.05395508
vt 0.1090698 0.1159058
vt 0.1159058 0.04940796
vt 0.08984375 0.0461731
vt 0.2507324 0.06060791
vt 0.246582 0.1018677
vt 0.3466797 0.09954834
vt 0.4802246 0.05331421
vt 0.3640137 0.1038818
vt 0.3903809 0.1221924
vt 0.3811035 0.1166382
vt 0.04446411 0.1026001
vt 0.04101563 0.09185791
vt 0.04202271 0.07794189
vt 0.05334473 0.1157227
vt 0.06787109 0.1242065
vt 0.0814209 0.1265869
vt 0.09442139 0.1230469
vt 0.4243164 0.1113892
vt 0.4101563 0.1220703
vt 0.4013672 0.1245728
vt 0.4501953 0.1260986
vt 0.4394531 0.1229248
vt 0.4812012 0.1161499
vt 0.4689941 0.1228638
vt 0.4597168 0.1257324
vt 0.03146362 0.0280304
vt 0.07366943 0.04782104
vt 0.0531311 0.01416779
vt 0.05886841 0.05395508
vt 0.04626465 0.06689453
vt 0.01422882 0.05212402
vt 0.007164001 0.06994629
vt 0.04202271 0.07794189
vt 0.04101563 0.09185791
vt 0.004882813 0.09277344
vt 0.09442139 0.1230469
vt 0.1071777 0.1610107
vt 0.1090698 0.1159058
vt 0.246582 0.1018677
vt 0.2484131 0.1242676
vt 0.3447266 0.1221313
vt 0.3466797 0.09954834
vt 0.3640137 0.1038818
vt 0.3588867 0.1271973
vt 0.3811035 0.1166382
vt 0.3742676 0.137207
vt 0.3867188 0.1424561
vt 0.3903809 0.1221924
vt 0.4013672 0.1245728
vt 0.3999023 0.1439209
vt 0.4101563 0.1220703
vt 0.4121094 0.1422119
vt 0.4238281 0.1365967
vt 0.4243164 0.1113892
vt 0.2524414 0.03808594
vt 0.4802246 0.05331421
vt 0.4802246 0.03201294
vt 0.2507324 0.06060791
vt 0.1159058 0.04940796
vt 0.1119385 0.004882813
vt 0.07592773 0.007217407
vt 0.08984375 0.0461731
vt 0.07366943 0.04782104
vt 0.0531311 0.01416779
vt 0.4821777 0.137207
vt 0.4689941 0.1228638
vt 0.470459 0.1427002
vt 0.4812012 0.1161499
vt 0.4238281 0.1365967
vt 0.4394531 0.1229248
vt 0.4243164 0.1113892
vt 0.4370117 0.1435547
vt 0.4489746 0.145874
vt 0.4501953 0.1260986
vt 0.4599609 0.1456299
vt 0.4597168 0.1257324
vt 0.470459 0.1427002
vt 0.4689941 0.1228638
vt 0.09442139 0.1230469
vt 0.07049561 0.1624756
vt 0.09130859 0.1630859
vt 0.0814209 0.1265869
vt 0.06787109 0.1242065
vt 0.04708862 0.1555176
vt 0.02352905 0.1374512
vt 0.05334473 0.1157227
vt 0.04446411 0.1026001
vt 0.00932312 0.1127319
vt 0.004882813 0.09277344
vt 0.04101563 0.09185791
vn -0.953125 0.2868652 0.0958252
vn -0.5761719 0.7661133 0.2839355
vn -0.6015625 0.7988281 0.02311707
vn 0.4182129 0.1733398 0.8916016
vn 0.1804199 0.4138184 0.8925781
vn 0.3635254 0.3557129 0.8608398
vn -0.4152832 -0.2210693 0.8823242
vn 0.4992676 -0.1177979 0.8583984
vn 0.5361328 0.04714966 0.8427734
vn 0.527832 -0.07263184 0.8461914
vn -0.3952637 -0.1330566 0.9086914
vn -0.1965332 0.001420021 0.9804688
vn 0.8251953 -0.001926422 0.5644531
vn -0.2202148 0.1433105 0.9648438
vn -0.3320313 0.3330078 0.8828125
vn -0.009872437 0.395752 0.918457
vn -0.1506348 0.3779297 0.9135742
vn -0.684082 0.3139648 0.6582031
vn -0.7573242 0.008460999 0.652832
vn -0.8613281 -0.4416504 0.2512207
vn -0.5761719 -0.7661133 0.2849121
vn -0.1693115 0.06896973 0.9829102
vn -0.1345215 0.1260986 0.9829102
vn -0.130127 0.03924561 0.9907227
vn -0.3041992 -0.008270264 0.9526367
vn -0.307373 -0.161499 0.9379883
vn -0.2075195 0.04782104 0.9770508
vn -0.1915283 0.2006836 0.9609375
vn -0.1356201 -0.09362793 0.9863281
vn -0.2005615 -0.0418396 0.9790039
vn -0.1984863 -0.1085815 0.9741211
vn -0.02233887 0.9985352 0.0463562
vn 0.1804199 0.4138184 0.8925781
vn -0.009872437 0.395752 0.918457
vn 0.3984375 0.9160156 0.0491333
vn 0.7133789 0.6992188 0.04852295
vn 0.3635254 0.3557129 0.8608398
vn 0.4182129 0.1733398 0.8916016
vn 0.921875 0.3837891 0.04937744
vn 0.9946289 0.09442139 0.04525757
vn 0.5361328 0.04714966 0.8427734
vn 0.4992676 -0.1177979 0.8583984
vn 0.996582 -0.02467346 0.07836914
vn 0.9897461 -0.01223755 0.1428223
vn 0.527832 -0.07263184 0.8461914
vn 0.8251953 -0.001926422 0.5644531
vn 0.9814453 -0.0004708767 0.1905518
vn -0.1984863 -0.1085815 0.9741211
vn -0.815918 -0.5634766 0.12854
vn -0.8701172 -0.4760742 0.128418
vn -0.1356201 -0.09362793 0.9863281
vn -0.1915283 0.2006836 0.9609375
vn -0.9316406 0.3146973 0.180542
vn -0.130127 0.03924561 0.9907227
vn -0.6899414 0.7138672 0.1217651
vn -0.9667969 0.2229004 0.1235352
vn -0.2075195 0.04782104 0.9770508
vn -0.9711914 -0.2039795 0.1230469
vn -0.2005615 -0.0418396 0.9790039
vn -0.8701172 -0.4760742 0.128418
vn -0.1984863 -0.1085815 0.9741211
vn -0.9316406 0.3146973 0.180542
vn -0.307373 -0.161499 0.9379883
vn -0.130127 0.03924561 0.9907227
vn -0.8774414 -0.4628906 0.1256104
vn -0.9931641 -0.02267456 0.1164551
vn -0.3041992 -0.008270264 0.9526367
vn -0.9204102 0.3686523 0.1290283
vn -0.1693115 0.06896973 0.9829102
vn -0.1345215 0.1260986 0.9829102
vn -0.7231445 0.6767578 0.1368408
vn -0.8061523 0.5678711 0.1662598
vn -0.2202148 0.1433105 0.9648438
vn -0.9799805 0.04406738 0.1943359
vn -0.1965332 0.001420021 0.9804688
vn -0.3952637 -0.1330566 0.9086914
vn -0.9833984 -0.1254883 0.1328125
vn -0.9526367 -0.2883301 0.0958252
vn -0.4152832 -0.2210693 0.8823242
vn -0.5761719 -0.7661133 0.2849121
vn -0.6015625 -0.7988281 0.02322388
vn -0.8896484 -0.454834 0.03765869
vn -0.8613281 -0.4416504 0.2512207
vn -0.7573242 0.008460999 0.652832
vn -0.9990234 0.01649475 0.04153442
vn -0.90625 0.420166 0.04489136
vn -0.684082 0.3139648 0.6582031
vn -0.3320313 0.3330078 0.8828125
vn -0.703125 0.7099609 0.043396
vn -0.3630371 0.9306641 0.04296875
vn -0.1506348 0.3779297 0.9135742
vn -0.02233887 0.9985352 0.0463562
vn -0.009872437 0.395752 0.918457
vn 0.1810303 -0.4150391 0.8916016
vn 0.4196777 -0.1739502 0.890625
vn 0.3647461 -0.3569336 0.8598633
vn -0.4165039 0.2208252 0.8818359
vn 0.5 0.1172485 0.8579102
vn 0.5380859 -0.04730225 0.8417969
vn 0.5283203 0.07202148 0.8457031
vn -0.395752 0.1326904 0.9086914
vn -0.1965332 -0.001419067 0.9804688
vn 0.8251953 0.001926422 0.5644531
vn -0.2202148 -0.1433105 0.9648438
vn -0.1693115 -0.06896973 0.9829102
vn -0.1345215 -0.1260986 0.9829102
vn -0.3330078 -0.3339844 0.8818359
vn -0.151123 -0.3791504 0.9130859
vn -0.009902954 -0.3972168 0.9174805
vn -0.6855469 -0.3144531 0.6567383
vn -0.7587891 -0.008483887 0.6513672
vn -0.8613281 0.4418945 0.2502441
vn -0.5761719 0.7661133 0.2839355
vn -0.130127 -0.03924561 0.9907227
vn -0.307373 0.161499 0.9379883
vn -0.3041992 0.008270264 0.9526367
vn -0.2075195 -0.04782104 0.9770508
vn -0.1915283 -0.2006836 0.9609375
vn -0.1356201 0.09362793 0.9863281
vn -0.1984863 0.1085815 0.9741211
vn -0.2005615 0.0418396 0.9790039
vn 0.7133789 -0.6992188 0.04830933
vn 0.4196777 -0.1739502 0.890625
vn 0.921875 -0.3837891 0.04916382
vn 0.3647461 -0.3569336 0.8598633
vn 0.1810303 -0.4150391 0.8916016
vn 0.3984375 -0.9160156 0.04891968
vn -0.02233887 -0.9985352 0.0461731
vn -0.009902954 -0.3972168 0.9174805
vn -0.151123 -0.3791504 0.9130859
vn -0.3630371 -0.9306641 0.04278564
vn -0.5761719 0.7661133 0.2839355
vn -0.953125 0.2868652 0.0958252
vn -0.4165039 0.2208252 0.8818359
vn -0.395752 0.1326904 0.9086914
vn -0.9833984 0.1248779 0.1326904
vn -0.9799805 -0.04406738 0.1943359
vn -0.1965332 -0.001419067 0.9804688
vn -0.2202148 -0.1433105 0.9648438
vn -0.8061523 -0.5678711 0.1662598
vn -0.1345215 -0.1260986 0.9829102
vn -0.7231445 -0.6767578 0.1368408
vn -0.9204102 -0.3686523 0.1290283
vn -0.1693115 -0.06896973 0.9829102
vn -0.3041992 0.008270264 0.9526367
vn -0.9931641 0.02267456 0.1164551
vn -0.307373 0.161499 0.9379883
vn -0.8774414 0.4628906 0.1256104
vn -0.9316406 -0.3146973 0.180542
vn -0.130127 -0.03924561 0.9907227
vn 0.9897461 0.01152802 0.1428223
vn 0.8251953 0.001926422 0.5644531
vn 0.9814453 0.0004708767 0.1905518
vn 0.5283203 0.07202148 0.8457031
vn 0.5 0.1172485 0.8579102
vn 0.996582 0.02354431 0.07836914
vn 0.9946289 -0.09436035 0.04507446
vn 0.5380859 -0.04730225 0.8417969
vn 0.4196777 -0.1739502 0.890625
vn 0.921875 -0.3837891 0.04916382
vn -0.815918 0.5634766 0.12854
vn -0.1984863 0.1085815 0.9741211
vn -0.8701172 0.4760742 0.128418
vn -0.1356201 0.09362793 0.9863281
vn -0.9316406 -0.3146973 0.180542
vn -0.1915283 -0.2006836 0.9609375
vn -0.130127 -0.03924561 0.9907227
vn -0.6899414 -0.7138672 0.1217651
vn -0.9667969 -0.2229004 0.1235352
vn -0.2075195 -0.04782104 0.9770508
vn -0.9711914 0.2039795 0.1230469
vn -0.2005615 0.0418396 0.9790039
vn -0.8701172 0.4760742 0.128418
vn -0.1984863 0.1085815 0.9741211
vn -0.5761719 0.7661133 0.2839355
vn -0.8896484 0.454834 0.0375061
vn -0.6015625 0.7988281 0.02311707
vn -0.8613281 0.4418945 0.2502441
vn -0.7587891 -0.008483887 0.6513672
vn -0.9990234 -0.01647949 0.04135132
vn -0.90625 -0.420166 0.04470825
vn -0.6855469 -0.3144531 0.6567383
vn -0.3330078 -0.3339844 0.8818359
vn -0.703125 -0.7099609 0.04321289
vn -0.3630371 -0.9306641 0.04278564
vn -0.151123 -0.3791504 0.9130859
g frameL_low_0
f 3/3/3 2/2/2 1/1/1
f 6/6/6 5/5/5 4/4/4
f 7/7/7 4/4/4 5/5/5
f 7/7/7 8/8/8 4/4/4
f 9/9/9 4/4/4 8/8/8
f 8/8/8 7/7/7 10/10/10
f 11/11/11 10/10/10 7/7/7
f 11/11/11 12/12/12 10/10/10
f 13/13/13 10/10/10 12/12/12
f 12/12/12 14/14/14 13/13/13
f 7/7/7 5/5/5 15/15/15
f 5/5/5 16/16/16 15/15/15
f 17/17/17 15/15/15 16/16/16
f 15/15/15 18/18/18 7/7/7
f 19/19/19 7/7/7 18/18/18
f 19/19/19 20/20/20 7/7/7
f 21/21/21 7/7/7 20/20/20
f 13/13/13 14/14/14 22/22/22
f 23/23/23 22/22/22 14/14/14
f 13/13/13 22/22/22 24/24/24
f 22/22/22 25/25/25 24/24/24
f 26/26/26 24/24/24 25/25/25
f 13/13/13 24/24/24 27/27/27
f 28/28/28 27/27/27 24/24/24
f 13/13/13 27/27/27 29/29/29
f 27/27/27 30/30/30 29/29/29
f 31/31/31 29/29/29 30/30/30
f 34/34/34 33/33/33 32/32/32
f 35/35/35 32/32/32 33/33/33
f 35/35/35 33/33/33 36/36/36
f 37/37/37 36/36/36 33/33/33
f 37/37/37 38/38/38 36/36/36
f 39/39/39 36/36/36 38/38/38
f 39/39/39 38/38/38 40/40/40
f 41/41/41 40/40/40 38/38/38
f 41/41/41 42/42/42 40/40/40
f 43/43/43 40/40/40 42/42/42
f 43/43/43 42/42/42 44/44/44
f 45/45/45 44/44/44 42/42/42
f 45/45/45 46/46/46 44/44/44
f 47/47/47 44/44/44 46/46/46
f 50/50/50 49/49/49 48/48/48
f 51/51/51 48/48/48 49/49/49
f 54/54/54 53/53/53 52/52/52
f 55/55/55 52/52/52 53/53/53
f 55/55/55 56/56/56 52/52/52
f 57/57/57 52/52/52 56/56/56
f 56/56/56 58/58/58 57/57/57
f 59/59/59 57/57/57 58/58/58
f 58/58/58 60/60/60 59/59/59
f 61/61/61 59/59/59 60/60/60
f 64/64/64 63/63/63 62/62/62
f 65/65/65 62/62/62 63/63/63
f 65/65/65 63/63/63 66/66/66
f 67/67/67 66/66/66 63/63/63
f 66/66/66 67/67/67 68/68/68
f 69/69/69 68/68/68 67/67/67
f 69/69/69 70/70/70 68/68/68
f 71/71/71 68/68/68 70/70/70
f 71/71/71 70/70/70 72/72/72
f 73/73/73 72/72/72 70/70/70
f 72/72/72 73/73/73 74/74/74
f 75/75/75 74/74/74 73/73/73
f 75/75/75 76/76/76 74/74/74
f 77/77/77 74/74/74 76/76/76
f 77/77/77 76/76/76 78/78/78
f 79/79/79 78/78/78 76/76/76
f 79/79/79 80/80/80 78/78/78
f 81/81/81 78/78/78 80/80/80
f 81/81/81 80/80/80 82/82/82
f 83/83/83 82/82/82 80/80/80
f 83/83/83 84/84/84 82/82/82
f 85/85/85 82/82/82 84/84/84
f 85/85/85 84/84/84 86/86/86
f 87/87/87 86/86/86 84/84/84
f 87/87/87 88/88/88 86/86/86
f 89/89/89 86/86/86 88/88/88
f 89/89/89 88/88/88 90/90/90
f 91/91/91 90/90/90 88/88/88
f 90/90/90 91/91/91 92/92/92
f 93/93/93 92/92/92 91/91/91
f 96/96/96 95/95/95 94/94/94
f 97/97/97 94/94/94 95/95/95
f 97/97/97 95/95/95 98/98/98
f 99/99/99 98/98/98 95/95/95
f 98/98/98 100/100/100 97/97/97
f 101/101/101 97/97/97 100/100/100
f 101/101/101 100/100/100 102/102/102
f 103/103/103 102/102/102 100/100/100
f 104/104/104 102/102/102 103/103/103
f 103/103/103 105/105/105 104/104/104
f 106/106/106 104/104/104 105/105/105
f 97/97/97 107/107/107 94/94/94
f 107/107/107 108/108/108 94/94/94
f 109/109/109 94/94/94 108/108/108
f 107/107/107 97/97/97 110/110/110
f 111/111/111 110/110/110 97/97/97
f 111/111/111 97/97/97 112/112/112
f 113/113/113 112/112/112 97/97/97
f 103/103/103 114/114/114 105/105/105
f 114/114/114 115/115/115 105/105/105
f 116/116/116 105/105/105 115/115/115
f 103/103/103 117/117/117 114/114/114
f 118/118/118 114/114/114 117/117/117
f 103/103/103 119/119/119 117/117/117
f 119/119/119 120/120/120 117/117/117
f 121/121/121 117/117/117 120/120/120
f 124/124/124 123/123/123 122/122/122
f 125/125/125 122/122/122 123/123/123
f 125/125/125 126/126/126 122/122/122
f 127/127/127 122/122/122 126/126/126
f 127/127/127 126/126/126 128/128/128
f 129/129/129 128/128/128 126/126/126
f 129/129/129 130/130/130 128/128/128
f 131/131/131 128/128/128 130/130/130
f 134/134/134 133/133/133 132/132/132
f 134/134/134 135/135/135 133/133/133
f 136/136/136 133/133/133 135/135/135
f 136/136/136 135/135/135 137/137/137
f 138/138/138 137/137/137 135/135/135
f 138/138/138 139/139/139 137/137/137
f 140/140/140 137/137/137 139/139/139
f 139/139/139 141/141/141 140/140/140
f 142/142/142 140/140/140 141/141/141
f 142/142/142 141/141/141 143/143/143
f 144/144/144 143/143/143 141/141/141
f 144/144/144 145/145/145 143/143/143
f 146/146/146 143/143/143 145/145/145
f 145/145/145 147/147/147 146/146/146
f 148/148/148 146/146/146 147/147/147
f 148/148/148 147/147/147 149/149/149
f 150/150/150 149/149/149 147/147/147
f 153/153/153 152/152/152 151/151/151
f 154/154/154 151/151/151 152/152/152
f 154/154/154 155/155/155 151/151/151
f 156/156/156 151/151/151 155/155/155
f 156/156/156 155/155/155 157/157/157
f 158/158/158 157/157/157 155/155/155
f 158/158/158 159/159/159 157/157/157
f 160/160/160 157/157/157 159/159/159
f 163/163/163 162/162/162 161/161/161
f 164/164/164 161/161/161 162/162/162
f 167/167/167 166/166/166 165/165/165
f 168/168/168 165/165/165 166/166/166
f 168/168/168 166/166/166 169/169/169
f 170/170/170 169/169/169 166/166/166
f 169/169/169 170/170/170 171/171/171
f 172/172/172 171/171/171 170/170/170
f 171/171/171 172/172/172 173/173/173
f 174/174/174 173/173/173 172/172/172
f 177/177/177 176/176/176 175/175/175
f 178/178/178 175/175/175 176/176/176
f 178/178/178 176/176/176 179/179/179
f 180/180/180 179/179/179 176/176/176
f 180/180/180 181/181/181 179/179/179
f 182/182/182 179/179/179 181/181/181
f 182/182/182 181/181/181 183/183/183
f 184/184/184 183/183/183 181/181/181
f 184/184/184 185/185/185 183/183/183
f 186/186/186 183/183/183 185/185/185
