g g Cage_Low Iron_bars_straight Iron_bar_straight_8
v 0 1.299217 0.705
v 0.0318198 1.3125 0.7181805
v 0 1.3125 0.705
v 0.0318198 1.299217 0.7181805
v 0 -1.300045 0.705
v 0.0318198 -1.300045 0.7181805
v 0 -1.3125 0.705
v 0.0318198 -1.3125 0.7181805
v -0.0318198 -1.300045 0.7181805
v -0.0318198 -1.3125 0.7181805
v 0 -1.3125 0.705
v -0.0318198 1.299217 0.7181805
v 0 1.3125 0.705
v -0.0318198 1.3125 0.7181805
v -0.045 1.299217 0.75
v -0.0318198 1.3125 0.7181805
v -0.045 1.3125 0.75
v -0.0318198 1.299217 0.7181805
v -0.045 -1.300045 0.75
v -0.0318198 -1.300045 0.7181805
v -0.045 -1.3125 0.75
v -0.0318198 -1.3125 0.7181805
v -0.0318198 -1.300045 0.7818195
v -0.0318198 -1.3125 0.7818195
v -0.045 -1.3125 0.75
v -0.0318198 1.299217 0.7818195
v -0.045 1.3125 0.75
v -0.0318198 1.3125 0.7818195
v 0 1.299217 0.795
v -0.0318198 1.3125 0.7818195
v 0 1.3125 0.795
v -0.0318198 1.299217 0.7818195
v 0 -1.300045 0.795
v -0.0318198 -1.300045 0.7818195
v 0 -1.3125 0.795
v -0.0318198 -1.3125 0.7818195
v 0.0318198 -1.300045 0.7818195
v 0.0318198 -1.3125 0.7818195
v 0 -1.3125 0.795
v 0.0318198 1.299217 0.7818195
v 0 1.3125 0.795
v 0.0318198 1.3125 0.7818195
v 0.045 1.299217 0.75
v 0.0318198 1.3125 0.7818195
v 0.045 1.3125 0.75
v 0.0318198 1.299217 0.7818195
v 0.045 -1.300045 0.75
v 0.0318198 -1.300045 0.7818195
v 0.045 -1.3125 0.75
v 0.0318198 -1.3125 0.7818195
v 0.0318198 -1.300045 0.7181805
v 0.0318198 -1.3125 0.7181805
v 0.045 -1.3125 0.75
v 0.0318198 1.299217 0.7181805
v 0.045 1.3125 0.75
v 0.0318198 1.3125 0.7181805
v -0.045 -1.3125 0.75
v 0 -1.3125 0.705
v -0.0318198 -1.3125 0.7181805
v 0 -1.3125 0.75
v 0.045 -1.3125 0.75
v 0.0318198 -1.3125 0.7181805
v 0 -1.3125 0.795
v -0.0318198 -1.3125 0.7818195
v 0.0318198 -1.3125 0.7818195
v 0 1.3125 0.705
v -0.045 1.3125 0.75
v -0.0318198 1.3125 0.7181805
v 0 1.3125 0.75
v 0 1.3125 0.795
v -0.0318198 1.3125 0.7818195
v 0.045 1.3125 0.75
v 0.0318198 1.3125 0.7181805
v 0.0318198 1.3125 0.7818195
vt 0.5869141 0.009422302
vt 0.5976563 0.004882813
vt 0.5869141 0.004882813
vt 0.5976563 0.009422302
vt 0.5869141 0.8969727
vt 0.5976563 0.8969727
vt 0.5869141 0.9013672
vt 0.5976563 0.9013672
vt 0.5756836 0.8969727
vt 0.5756836 0.9013672
vt 0.5869141 0.9013672
vt 0.5756836 0.009422302
vt 0.5869141 0.004882813
vt 0.5756836 0.004882813
vt 0.6132813 0.8969727
vt 0.6025391 0.9013672
vt 0.6132813 0.9013672
vt 0.6025391 0.8969727
vt 0.6132813 0.009132385
vt 0.6025391 0.009132385
vt 0.6132813 0.004882813
vt 0.6025391 0.004882813
vt 0.6240234 0.009132385
vt 0.6240234 0.004882813
vt 0.6132813 0.004882813
vt 0.6240234 0.8969727
vt 0.6132813 0.9013672
vt 0.6240234 0.9013672
vt 0.5600586 0.8969727
vt 0.5493164 0.9013672
vt 0.5600586 0.9013672
vt 0.5493164 0.8969727
vt 0.5600586 0.009132385
vt 0.5493164 0.009132385
vt 0.5600586 0.004882813
vt 0.5493164 0.004882813
vt 0.5708008 0.009132385
vt 0.5708008 0.004882813
vt 0.5600586 0.004882813
vt 0.5708008 0.8969727
vt 0.5600586 0.9013672
vt 0.5708008 0.9013672
vt 0.5332031 0.8969727
vt 0.5224609 0.9013672
vt 0.5332031 0.9013672
vt 0.5224609 0.8969727
vt 0.5332031 0.009132385
vt 0.5224609 0.009132385
vt 0.5332031 0.004882813
vt 0.5224609 0.004882813
vt 0.5444336 0.009132385
vt 0.5444336 0.004882813
vt 0.5332031 0.004882813
vt 0.5444336 0.8969727
vt 0.5332031 0.9013672
vt 0.5444336 0.9013672
vt 0.965332 0.3776855
vt 0.9506836 0.362793
vt 0.9550781 0.373291
vt 0.965332 0.362793
vt 0.965332 0.3481445
vt 0.9550781 0.3522949
vt 0.9804688 0.362793
vt 0.9760742 0.373291
vt 0.9760742 0.3522949
vt 0.9946289 0.3325195
vt 0.9799805 0.3474121
vt 0.9902344 0.3430176
vt 0.9799805 0.3325195
vt 0.965332 0.3325195
vt 0.9697266 0.3430176
vt 0.9799805 0.3178711
vt 0.9902344 0.3222656
vt 0.9697266 0.3222656
vn 0 0 -1
vn 0.3825684 0 -0.9238281
vn 0.3825684 0 -0.9238281
vn 0.7070313 0 -0.7070313
vn 0 0 -1
vn 0.7070313 0 -0.7070313
vn 0.3825684 0 -0.9238281
vn 0.3825684 0 -0.9238281
vn -0.7070313 0 -0.7070313
vn -0.3825684 0 -0.9238281
vn -0.3825684 0 -0.9238281
vn -0.7070313 0 -0.7070313
vn -0.3825684 0 -0.9238281
vn -0.3825684 0 -0.9238281
vn -1 0 0
vn -0.9238281 0 -0.3825684
vn -0.9238281 0 -0.3825684
vn -0.7070313 0 -0.7070313
vn -1 0 0
vn -0.7070313 0 -0.7070313
vn -0.9238281 0 -0.3825684
vn -0.9238281 0 -0.3825684
vn -0.7070313 0 0.7070313
vn -0.9238281 0 0.3825684
vn -0.9238281 0 0.3825684
vn -0.7070313 0 0.7070313
vn -0.9238281 0 0.3825684
vn -0.9238281 0 0.3825684
vn 0 0 1
vn -0.3825684 0 0.9238281
vn -0.3825684 0 0.9238281
vn -0.7070313 0 0.7070313
vn 0 0 1
vn -0.7070313 0 0.7070313
vn -0.3825684 0 0.9238281
vn -0.3825684 0 0.9238281
vn 0.7070313 0 0.7070313
vn 0.3825684 0 0.9238281
vn 0.3825684 0 0.9238281
vn 0.7070313 0 0.7070313
vn 0.3825684 0 0.9238281
vn 0.3825684 0 0.9238281
vn 1 0 0
vn 0.9238281 0 0.3825684
vn 0.9238281 0 0.3825684
vn 0.7070313 0 0.7070313
vn 1 0 0
vn 0.7070313 0 0.7070313
vn 0.9238281 0 0.3825684
vn 0.9238281 0 0.3825684
vn 0.7070313 0 -0.7070313
vn 0.9238281 0 -0.3825684
vn 0.9238281 0 -0.3825684
vn 0.7070313 0 -0.7070313
vn 0.9238281 0 -0.3825684
vn 0.9238281 0 -0.3825684
vn 0 -1 0
vn 0 -1 0
vn 0 -1 0
vn 0 -1 0
vn 0 -1 0
vn 0 -1 0
vn 0 -1 0
vn 0 -1 0
vn 0 -1 0
vn 0 1 0
vn 0 1 0
vn 0 1 0
vn 0 1 0
vn 0 1 0
vn 0 1 0
vn 0 1 0
vn 0 1 0
vn 0 1 0
g g Cage_Low Iron_bars_straight Iron_bar_straight_8_0
f 3/3/3 2/2/2 1/1/1
f 4/4/4 1/1/1 2/2/2
f 1/1/1 4/4/4 5/5/5
f 6/6/6 5/5/5 4/4/4
f 5/5/5 6/6/6 7/7/7
f 8/8/8 7/7/7 6/6/6
f 5/5/5 9/9/9 1/1/1
f 9/9/9 5/5/5 10/10/10
f 11/11/11 10/10/10 5/5/5
f 12/12/12 1/1/1 9/9/9
f 1/1/1 12/12/12 13/13/13
f 14/14/14 13/13/13 12/12/12
f 17/17/17 16/16/16 15/15/15
f 18/18/18 15/15/15 16/16/16
f 15/15/15 18/18/18 19/19/19
f 20/20/20 19/19/19 18/18/18
f 19/19/19 20/20/20 21/21/21
f 22/22/22 21/21/21 20/20/20
f 19/19/19 23/23/23 15/15/15
f 23/23/23 19/19/19 24/24/24
f 25/25/25 24/24/24 19/19/19
f 26/26/26 15/15/15 23/23/23
f 15/15/15 26/26/26 27/27/27
f 28/28/28 27/27/27 26/26/26
f 31/31/31 30/30/30 29/29/29
f 32/32/32 29/29/29 30/30/30
f 29/29/29 32/32/32 33/33/33
f 34/34/34 33/33/33 32/32/32
f 33/33/33 34/34/34 35/35/35
f 36/36/36 35/35/35 34/34/34
f 33/33/33 37/37/37 29/29/29
f 37/37/37 33/33/33 38/38/38
f 39/39/39 38/38/38 33/33/33
f 40/40/40 29/29/29 37/37/37
f 29/29/29 40/40/40 41/41/41
f 42/42/42 41/41/41 40/40/40
f 45/45/45 44/44/44 43/43/43
f 46/46/46 43/43/43 44/44/44
f 43/43/43 46/46/46 47/47/47
f 48/48/48 47/47/47 46/46/46
f 47/47/47 48/48/48 49/49/49
f 50/50/50 49/49/49 48/48/48
f 47/47/47 51/51/51 43/43/43
f 51/51/51 47/47/47 52/52/52
f 53/53/53 52/52/52 47/47/47
f 54/54/54 43/43/43 51/51/51
f 43/43/43 54/54/54 55/55/55
f 56/56/56 55/55/55 54/54/54
f 59/59/59 58/58/58 57/57/57
f 60/60/60 57/57/57 58/58/58
f 60/60/60 58/58/58 61/61/61
f 62/62/62 61/61/61 58/58/58
f 60/60/60 63/63/63 57/57/57
f 60/60/60 61/61/61 63/63/63
f 64/64/64 57/57/57 63/63/63
f 65/65/65 63/63/63 61/61/61
f 68/68/68 67/67/67 66/66/66
f 69/69/69 66/66/66 67/67/67
f 69/69/69 67/67/67 70/70/70
f 71/71/71 70/70/70 67/67/67
f 69/69/69 72/72/72 66/66/66
f 69/69/69 70/70/70 72/72/72
f 73/73/73 66/66/66 72/72/72
f 74/74/74 72/72/72 70/70/70
