g Gem-Poly
v 0.1931361 -0.004434705 0.004987138
v 0.1939975 -3.160621E-08 0.005848619
v 0.1960476 -3.213126E-08 -8.940696E-09
v 0.00584861 -9.528596E-10 0.1939975
v 0.004987138 -0.004434674 0.1931361
v 3.010864E-17 1.848055E-10 0.1960476
v -8.473028E-10 -0.005200707 0.1937555
v 0.004987112 -0.1565762 0.004987138
v -0.004987139 -0.004434672 0.1931361
v -0.00584861 9.528596E-10 0.1939975
v -0.1939975 3.160621E-08 0.005848619
v -2.507551E-08 -0.1573423 0.005606578
v -2.588451E-08 -0.1589167 3.336415E-11
v 0.005606546 -0.1573423 -5.587935E-10
v 0.1937555 -0.005200741 0
v 0.1931361 -0.004434704 -0.004987138
v 0.1939975 -3.160621E-08 -0.00584861
v -0.1931361 -0.004434641 0.004987138
v -0.1960476 3.174917E-08 8.940696E-09
v -0.004987163 -0.1565762 0.004987138
v 0.004987112 -0.1565762 -0.004987138
v 0.004987138 -0.004434674 -0.1931361
v 0.005848619 -9.52861E-10 -0.1939975
v 8.940696E-09 1.910458E-10 -0.1960476
v -8.473028E-10 -0.005200707 -0.1937555
v -2.61931E-08 -0.1573423 -0.005606578
v -0.005606597 -0.1573423 5.587935E-10
v -0.004987163 -0.1565762 -0.004987138
v -8.473028E-10 -0.005200707 -0.1937555
v -0.1937555 -0.005200678 0
v -0.1931361 -0.004434641 -0.004987138
v -0.1939975 3.160621E-08 -0.00584861
v -0.005848619 9.52861E-10 -0.1939975
v -0.004987139 -0.004434672 -0.1931361
v 8.940696E-09 1.910458E-10 -0.1960476
v 0.1931361 0.004434641 -0.004987138
v 0.1939975 -3.160621E-08 -0.00584861
v 0.1960476 -3.213126E-08 -8.940696E-09
v 0.005848619 -9.52861E-10 -0.1939975
v 0.004987139 0.004434672 -0.1931361
v 8.940696E-09 1.910458E-10 -0.1960476
v 8.473032E-10 0.00520071 -0.1937555
v 2.61931E-08 0.1573423 -0.005606571
v 0.004987163 0.1565762 -0.004987138
v 2.585745E-08 0.1589167 -6.302739E-12
v 0.005606603 0.1573423 5.587935E-10
v 0.1937555 0.005200676 0
v 0.1931361 0.004434641 0.004987138
v 0.1939975 -3.160621E-08 0.005848619
v 0.004987163 0.1565762 0.004987138
v 0.004987139 0.004434672 0.1931361
v 0.00584861 -9.528596E-10 0.1939975
v 3.010864E-17 1.848055E-10 0.1960476
v 2.507551E-08 0.1573423 0.005606571
v 8.473032E-10 0.00520071 0.1937555
v -0.004987138 0.004434674 0.1931361
v -0.00584861 9.528596E-10 0.1939975
v -0.004987112 0.1565762 0.004987138
v -0.1931361 0.004434705 0.004987138
v -0.1939975 3.160621E-08 0.005848619
v -0.1960476 3.174917E-08 8.940696E-09
v -0.005606552 0.1573423 -5.587935E-10
v -0.1937555 0.005200739 0
v -0.004987112 0.1565762 -0.004987138
v -0.1931361 0.004434704 -0.004987138
v -0.1939975 3.160621E-08 -0.00584861
v -0.004987138 0.004434674 -0.1931361
v 8.473032E-10 0.00520071 -0.1937555
v -0.005848619 9.52861E-10 -0.1939975
v 8.940696E-09 1.910458E-10 -0.1960476
vt 0.7095993 0.8456065
vt 0.7089255 0.8462636
vt 0.7103463 0.8469694
vt 0.6737334 0.7996575
vt 0.6745517 0.7991849
vt 0.6734307 0.7980639
vt 0.6745332 0.7980652
vt 0.7230413 0.7989493
vt 0.6745525 0.7969455
vt 0.6737379 0.7964741
vt 0.7089263 0.7498665
vt 0.7230169 0.7980672
vt 0.7241436 0.798067
vt 0.7240165 0.7990518
vt 0.7106506 0.8459046
vt 0.7117071 0.8461737
vt 0.7119055 0.8470969
vt 0.7096021 0.750527
vt 0.7103499 0.7491637
vt 0.7230395 0.7971851
vt 0.725 0.799095
vt 0.7643165 0.8277826
vt 0.7646726 0.8286555
vt 0.7657307 0.8278729
vt 0.7649558 0.8269538
vt 0.7254444 0.7980687
vt 0.7240154 0.797081
vt 0.7250001 0.7970374
vt 0.7649543 0.7691766
vt 0.7106523 0.7502295
vt 0.7117069 0.7499604
vt 0.7119052 0.74904
vt 0.7646738 0.7674766
vt 0.7643167 0.768352
vt 0.7657307 0.7682598
vt 0.2903104 0.7182246
vt 0.2905087 0.7173042
vt 0.2889533 0.717428
vt 0.3432772 0.7357408
vt 0.3429202 0.7366163
vt 0.3443341 0.736524
vt 0.3435578 0.7374409
vt 0.3040479 0.7663329
vt 0.3036036 0.7653017
vt 0.302747 0.7663313
vt 0.3026188 0.7653452
vt 0.2892558 0.7184937
vt 0.2882056 0.7187912
vt 0.2875297 0.7181308
vt 0.301643 0.7654493
vt 0.2531559 0.7652097
vt 0.2523414 0.7647383
vt 0.2520342 0.7663281
vt 0.3016203 0.7663315
vt 0.2531368 0.7663295
vt 0.2531552 0.7674491
vt 0.2523369 0.7679217
vt 0.3016448 0.7672136
vt 0.2882027 0.8138707
vt 0.287529 0.8145279
vt 0.2889497 0.8152335
vt 0.3026199 0.7673161
vt 0.2892541 0.8141689
vt 0.3036034 0.7673591
vt 0.2903106 0.8144379
vt 0.290509 0.8153611
vt 0.3429199 0.7960469
vt 0.3435593 0.7952179
vt 0.3432761 0.7969198
vt 0.3443341 0.7961372
vn 0.7555633 -0.5036758 0.4188492
vn 0.8423432 0 0.5389415
vn 1 0 0
vn 0.5389413 0 0.8423433
vn 0.4188491 -0.5036756 0.7555636
vn 0 0 1
vn 0 -0.6127605 0.7902688
vn 0.3922083 -0.8320733 0.3922074
vn -0.4188486 -0.5036764 0.7555633
vn -0.5389403 0 0.842344
vn -0.842343 0 0.5389419
vn 0 -0.8862012 0.4633007
vn 0 -1 0
vn 0.4633018 -0.8862005 0
vn 0.7902694 -0.6127595 0
vn 0.7555631 -0.5036759 -0.4188496
vn 0.8423428 0 -0.5389421
vn -0.7555637 -0.5036747 0.41885
vn -1 0 0
vn -0.3922086 -0.8320733 0.3922071
vn 0.3922083 -0.8320734 -0.3922073
vn 0.4188479 -0.5036755 -0.7555644
vn 0.5389416 0 -0.8423432
vn 0 0 -1
vn 0 -0.6127593 -0.7902696
vn 0 -0.8862012 -0.4633006
vn -0.4633021 -0.8862004 0
vn -0.3922086 -0.8320733 -0.3922071
vn 0 -0.6127593 -0.7902696
vn -0.7902696 -0.6127593 0
vn -0.7555639 -0.5036743 -0.4188503
vn -0.8423432 0 -0.5389417
vn -0.5389413 0 -0.8423434
vn -0.418849 -0.5036762 -0.7555632
vn 0 0 -1
vn 0.7555633 0.503675 -0.4188503
vn 0.8423428 0 -0.5389421
vn 1 0 0
vn 0.5389416 0 -0.8423432
vn 0.41885 0.5036759 -0.755563
vn 0 0 -1
vn 0 0.6127594 -0.7902695
vn 0 0.8862013 -0.4633004
vn 0.3922078 0.8320732 -0.3922082
vn 0 1 0
vn 0.4633022 0.8862004 0
vn 0.7902697 0.6127593 0
vn 0.7555639 0.5036749 0.4188495
vn 0.8423432 0 0.5389415
vn 0.3922074 0.832073 0.3922089
vn 0.4188493 0.5036762 0.7555631
vn 0.5389413 0 0.8423433
vn 0 0 1
vn 0 0.8862013 0.4633004
vn 0 0.6127605 0.7902687
vn -0.4188499 0.5036752 0.7555635
vn -0.5389403 0 0.842344
vn -0.3922075 0.8320732 0.3922086
vn -0.7555636 0.5036758 0.418849
vn -0.842343 0 0.5389419
vn -1 0 0
vn -0.463302 0.8862005 0
vn -0.7902694 0.6127597 0
vn -0.3922071 0.8320732 -0.3922088
vn -0.7555637 0.5036755 -0.418849
vn -0.8423432 0 -0.5389417
vn -0.418849 0.503675 -0.755564
vn 0 0.6127594 -0.7902695
vn -0.5389413 0 -0.8423434
vn 0 0 -1
g Gem-Poly_0
f 3/3/3 2/2/2 1/1/1
f 2/2/2 4/4/4 1/1/1
f 4/4/4 5/5/5 1/1/1
f 4/4/4 6/6/6 5/5/5
f 6/6/6 7/7/7 5/5/5
f 5/5/5 8/8/8 1/1/1
f 8/8/8 5/5/5 7/7/7
f 7/7/7 6/6/6 9/9/9
f 6/6/6 10/10/10 9/9/9
f 9/9/9 10/10/10 11/11/11
f 12/12/12 8/8/8 7/7/7
f 12/12/12 7/7/7 9/9/9
f 12/12/12 13/13/13 8/8/8
f 1/1/1 8/8/8 14/14/14
f 13/13/13 14/14/14 8/8/8
f 15/15/15 3/3/3 1/1/1
f 15/15/15 1/1/1 14/14/14
f 3/3/3 15/15/15 16/16/16
f 15/15/15 14/14/14 16/16/16
f 17/17/17 3/3/3 16/16/16
f 18/18/18 9/9/9 11/11/11
f 11/11/11 19/19/19 18/18/18
f 20/20/20 12/12/12 9/9/9
f 13/13/13 12/12/12 20/20/20
f 9/9/9 18/18/18 20/20/20
f 14/14/14 21/21/21 16/16/16
f 14/14/14 13/13/13 21/21/21
f 17/17/17 16/16/16 22/22/22
f 21/21/21 22/22/22 16/16/16
f 23/23/23 17/17/17 22/22/22
f 24/24/24 23/23/23 22/22/22
f 25/25/25 24/24/24 22/22/22
f 26/26/26 25/25/25 22/22/22
f 21/21/21 26/26/26 22/22/22
f 13/13/13 26/26/26 21/21/21
f 27/27/27 20/20/20 18/18/18
f 27/27/27 13/13/13 20/20/20
f 26/26/26 13/13/13 28/28/28
f 13/13/13 27/27/27 28/28/28
f 26/26/26 28/28/28 29/29/29
f 30/30/30 27/27/27 18/18/18
f 19/19/19 30/30/30 18/18/18
f 30/30/30 31/31/31 27/27/27
f 30/30/30 19/19/19 31/31/31
f 31/31/31 28/28/28 27/27/27
f 19/19/19 32/32/32 31/31/31
f 31/31/31 32/32/32 33/33/33
f 28/28/28 34/34/34 29/29/29
f 31/31/31 34/34/34 28/28/28
f 34/34/34 31/31/31 33/33/33
f 35/35/35 29/29/29 34/34/34
f 33/33/33 35/35/35 34/34/34
f 38/38/38 37/37/37 36/36/36
f 36/36/36 37/37/37 39/39/39
f 40/40/40 36/36/36 39/39/39
f 39/39/39 41/41/41 40/40/40
f 41/41/41 42/42/42 40/40/40
f 42/42/42 43/43/43 40/40/40
f 36/36/36 40/40/40 44/44/44
f 43/43/43 44/44/44 40/40/40
f 43/43/43 45/45/45 44/44/44
f 44/44/44 46/46/46 36/36/36
f 45/45/45 46/46/46 44/44/44
f 47/47/47 38/38/38 36/36/36
f 46/46/46 47/47/47 36/36/36
f 38/38/38 47/47/47 48/48/48
f 49/49/49 38/38/38 48/48/48
f 46/46/46 50/50/50 47/47/47
f 50/50/50 48/48/48 47/47/47
f 46/46/46 45/45/45 50/50/50
f 48/48/48 51/51/51 49/49/49
f 51/51/51 48/48/48 50/50/50
f 51/51/51 52/52/52 49/49/49
f 53/53/53 52/52/52 51/51/51
f 51/51/51 50/50/50 54/54/54
f 45/45/45 54/54/54 50/50/50
f 55/55/55 53/53/53 51/51/51
f 55/55/55 51/51/51 54/54/54
f 53/53/53 55/55/55 56/56/56
f 55/55/55 54/54/54 56/56/56
f 57/57/57 53/53/53 56/56/56
f 54/54/54 58/58/58 56/56/56
f 54/54/54 45/45/45 58/58/58
f 57/57/57 56/56/56 59/59/59
f 58/58/58 59/59/59 56/56/56
f 60/60/60 57/57/57 59/59/59
f 61/61/61 60/60/60 59/59/59
f 45/45/45 62/62/62 58/58/58
f 58/58/58 62/62/62 59/59/59
f 63/63/63 61/61/61 59/59/59
f 62/62/62 63/63/63 59/59/59
f 62/62/62 45/45/45 64/64/64
f 62/62/62 64/64/64 63/63/63
f 45/45/45 43/43/43 64/64/64
f 61/61/61 63/63/63 65/65/65
f 64/64/64 65/65/65 63/63/63
f 66/66/66 61/61/61 65/65/65
f 67/67/67 64/64/64 43/43/43
f 65/65/65 64/64/64 67/67/67
f 66/66/66 65/65/65 67/67/67
f 68/68/68 67/67/67 43/43/43
f 69/69/69 66/66/66 67/67/67
f 68/68/68 70/70/70 67/67/67
f 70/70/70 69/69/69 67/67/67
