g Gem-Triangle
v -0.0006935632 0.0007503104 -0.0001121723
v -0.0007503104 0.0006935632 5.542484E-05
v -0.0007503104 0.0006935632 -0.0001121723
v -0.0006935632 0.0007503104 5.542482E-05
v 0.0006935632 0.0007503104 -0.0001121723
v 0.0006935632 0.0007503104 5.542483E-05
v 0.0007503104 0.0006935632 -0.0001121723
v 0.0007503104 0.0006935632 5.542483E-05
v 0.0007503104 -0.0006935632 -0.000112172
v 0.0007503104 -0.0006935632 5.542506E-05
v 0.0006935632 0.0006935632 0.000112172
v -0.0006935632 0.0006935632 0.000112172
v 0.0006935632 -0.0006935632 0.0001121723
v -0.0007503104 -0.0006935632 5.542505E-05
v -0.0007503104 0.0006935632 -0.0001121723
v -0.0007503104 -0.0006935632 -0.000112172
v -0.0006935632 -0.0007503104 5.542507E-05
v -0.0006935632 -0.0007503104 -0.000112172
v -0.0006935632 -0.0006935632 0.0001121723
v 0.0006935632 -0.0007503104 5.542506E-05
v 0.0006935632 -0.0007503104 -0.000112172
v 0.0007503104 -0.0006935632 -0.000112172
v 0.0005051675 -0.0006471716 0.0001121722
v 0.0005051675 0.0006471716 0.000112172
v -0.0005751757 1.827516E-11 0.0001121721
v 8.396208E-05 1.059986E-10 0.0006506145
vt 0.9850562 0.9578725
vt 0.9499695 0.9676013
vt 0.9803149 0.970827
vt 0.9597998 0.9549313
vt 0.9822749 0.7154069
vt 0.9605036 0.7277781
vt 0.9645978 0.6982188
vt 0.951925 0.718967
vt 0.7189269 0.6813002
vt 0.7163568 0.7084096
vt 0.9496542 0.730019
vt 0.9476012 0.9551615
vt 0.7186078 0.7208196
vt 0.727697 0.956264
vt 0.9473106 0.9946947
vt 0.7147551 0.9769635
vt 0.7191985 0.9474669
vt 0.6972461 0.9598715
vt 0.730278 0.9452232
vt 0.7066159 0.7211283
vt 0.6814855 0.718372
vt 0.6860678 0.7053939
vt 0.7269081 0.7516375
vt 0.9427373 0.7594794
vt 0.8380144 0.9334368
vt 0.8366961 0.82006
vn -0.3826833 0.9238795 0
vn -0.8755786 0.341586 0.3415859
vn -0.9238795 0.3826835 0
vn -0.341586 0.8755787 0.341586
vn 0.3826829 0.9238797 0
vn 0.341586 0.8755786 0.341586
vn 0.9238793 0.3826839 0
vn 0.8755788 0.3415858 0.3415859
vn 0.9238797 -0.3826829 0
vn 0.8755787 -0.341586 0.3415858
vn 0.341586 0.341586 0.8755786
vn -0.3415859 0.3415861 0.8755786
vn 0.341586 -0.3415859 0.8755786
vn -0.8755787 -0.3415862 0.3415858
vn -0.9238795 0.3826835 0
vn -0.9238794 -0.3826835 0
vn -0.3415859 -0.8755787 0.3415859
vn -0.3826832 -0.9238796 0
vn -0.3415859 -0.3415859 0.8755787
vn 0.3415858 -0.8755787 0.341586
vn 0.3826838 -0.9238794 0
vn 0.9238797 -0.3826829 0
vn 0.05136624 -0.08718347 0.9948671
vn 0.05136624 0.08718386 0.9948671
vn -0.1194737 1.533872E-07 0.9928374
vn -0.06129905 0 0.9981194
g Gem-Triangle_0
f 3/3/3 2/2/2 1/1/1
f 2/2/2 4/4/4 1/1/1
f 5/5/5 1/1/1 4/4/4
f 6/6/6 5/5/5 4/4/4
f 5/5/5 6/6/6 7/7/7
f 6/6/6 8/8/8 7/7/7
f 9/9/9 7/7/7 8/8/8
f 10/10/10 9/9/9 8/8/8
f 6/6/6 4/4/4 11/11/11
f 8/8/8 6/6/6 11/11/11
f 4/4/4 2/2/2 12/12/12
f 4/4/4 12/12/12 11/11/11
f 10/10/10 8/8/8 13/13/13
f 8/8/8 11/11/11 13/13/13
f 2/2/2 14/14/14 12/12/12
f 2/2/2 15/15/15 14/14/14
f 15/15/15 16/16/16 14/14/14
f 14/14/14 16/16/16 17/17/17
f 16/16/16 18/18/18 17/17/17
f 19/19/19 14/14/14 17/17/17
f 14/14/14 19/19/19 12/12/12
f 17/17/17 18/18/18 20/20/20
f 17/17/17 20/20/20 19/19/19
f 20/20/20 10/10/10 13/13/13
f 20/20/20 13/13/13 19/19/19
f 18/18/18 21/21/21 20/20/20
f 10/10/10 20/20/20 21/21/21
f 22/22/22 10/10/10 21/21/21
f 11/11/11 23/23/23 13/13/13
f 13/13/13 23/23/23 19/19/19
f 12/12/12 24/24/24 11/11/11
f 24/24/24 23/23/23 11/11/11
f 19/19/19 25/25/25 12/12/12
f 19/19/19 23/23/23 25/25/25
f 12/12/12 25/25/25 24/24/24
f 26/26/26 23/23/23 24/24/24
f 24/24/24 25/25/25 26/26/26
f 25/25/25 23/23/23 26/26/26
