g Gem-Poly
v -0.0006935632 0.0007503104 -0.0001121723
v -0.0007503104 0.0006935632 5.542484E-05
v -0.0007503104 0.0006935632 -0.0001121723
v -0.0006935632 0.0007503104 5.542482E-05
v 0.0006935632 0.0007503104 -0.0001121723
v 0.0006935632 0.0007503104 5.542483E-05
v 0.0007503104 0.0006935632 -0.0001121723
v 0.0007503104 0.0006935632 5.542483E-05
v 0.0007503104 -0.0006935632 -0.000112172
v 0.0007503104 -0.0006935632 5.542506E-05
v 0.0006935632 0.0006935632 0.000112172
v -0.0006935632 0.0006935632 0.000112172
v 0.0006935632 -0.0006935632 0.0001121723
v -0.0007503104 -0.0006935632 5.542505E-05
v -0.0007503104 0.0006935632 -0.0001121723
v -0.0007503104 -0.0006935632 -0.000112172
v -0.0006935632 -0.0007503104 5.542507E-05
v -0.0006935632 -0.0007503104 -0.000112172
v -0.0006935632 -0.0006935632 0.0001121723
v 0.0006935632 -0.0007503104 5.542506E-05
v 0.0006935632 -0.0007503104 -0.000112172
v 0.0007503104 -0.0006935632 -0.000112172
v -6.9803E-06 0.0006471716 0.000112172
v -0.0006541519 1.827516E-11 0.0001121721
v 0.0006401913 1.827516E-11 0.0001121721
v -6.9803E-06 -0.0006471716 0.0001121722
v -6.9803E-06 1.059986E-10 0.0006506145
vt 0.04228387 0.9942955
vt 0.03353568 0.9587929
vt 0.02934573 0.9891911
vt 0.04601686 0.9689541
vt 0.2864292 0.9912836
vt 0.2745652 0.9688227
vt 0.3043521 0.9738637
vt 0.2837452 0.9603932
vt 0.3281828 0.7328228
vt 0.3008523 0.7296599
vt 0.2726423 0.9576708
vt 0.04613419 0.9567313
vt 0.2882491 0.7317086
vt 0.05054984 0.7280111
vt 0.006203922 0.9557092
vt 0.02990928 0.7146078
vt 0.05972748 0.7195877
vt 0.04778467 0.6971592
vt 0.06165826 0.7307355
vt 0.2883393 0.7194823
vt 0.2920154 0.6941279
vt 0.3049667 0.699213
vt 0.1605775 0.9510087
vt 0.05920829 0.8418871
vt 0.27305 0.8464977
vt 0.1714654 0.7373915
vt 0.1660853 0.8442017
vn -0.3826833 0.9238795 0
vn -0.8755786 0.341586 0.3415859
vn -0.9238795 0.3826835 0
vn -0.341586 0.8755787 0.341586
vn 0.3826829 0.9238797 0
vn 0.341586 0.8755786 0.341586
vn 0.9238793 0.3826839 0
vn 0.8755788 0.3415858 0.3415859
vn 0.9238797 -0.3826829 0
vn 0.8755787 -0.341586 0.3415858
vn 0.3415861 0.3415861 0.8755786
vn -0.3415859 0.3415862 0.8755786
vn 0.3415861 -0.341586 0.8755786
vn -0.8755787 -0.3415862 0.3415858
vn -0.9238795 0.3826835 0
vn -0.9238794 -0.3826835 0
vn -0.3415859 -0.8755787 0.3415859
vn -0.3826832 -0.9238796 0
vn -0.341586 -0.341586 0.8755786
vn 0.3415858 -0.8755787 0.341586
vn 0.3826838 -0.9238794 0
vn 0.9238797 -0.3826829 0
vn 0 0.1760329 0.9843843
vn -0.1760326 1.51126E-07 0.9843843
vn 0.1760326 1.596029E-07 0.9843843
vn 0 -0.1760325 0.9843843
vn 0 1.801743E-07 1
g Gem-Poly_0
f 3/3/3 2/2/2 1/1/1
f 2/2/2 4/4/4 1/1/1
f 5/5/5 1/1/1 4/4/4
f 6/6/6 5/5/5 4/4/4
f 5/5/5 6/6/6 7/7/7
f 6/6/6 8/8/8 7/7/7
f 9/9/9 7/7/7 8/8/8
f 10/10/10 9/9/9 8/8/8
f 6/6/6 4/4/4 11/11/11
f 8/8/8 6/6/6 11/11/11
f 4/4/4 2/2/2 12/12/12
f 4/4/4 12/12/12 11/11/11
f 10/10/10 8/8/8 13/13/13
f 8/8/8 11/11/11 13/13/13
f 2/2/2 14/14/14 12/12/12
f 2/2/2 15/15/15 14/14/14
f 15/15/15 16/16/16 14/14/14
f 14/14/14 16/16/16 17/17/17
f 16/16/16 18/18/18 17/17/17
f 19/19/19 14/14/14 17/17/17
f 14/14/14 19/19/19 12/12/12
f 17/17/17 18/18/18 20/20/20
f 17/17/17 20/20/20 19/19/19
f 20/20/20 10/10/10 13/13/13
f 20/20/20 13/13/13 19/19/19
f 18/18/18 21/21/21 20/20/20
f 10/10/10 20/20/20 21/21/21
f 22/22/22 10/10/10 21/21/21
f 12/12/12 23/23/23 11/11/11
f 19/19/19 24/24/24 12/12/12
f 12/12/12 24/24/24 23/23/23
f 11/11/11 25/25/25 13/13/13
f 23/23/23 25/25/25 11/11/11
f 13/13/13 26/26/26 19/19/19
f 19/19/19 26/26/26 24/24/24
f 25/25/25 26/26/26 13/13/13
f 27/27/27 25/25/25 23/23/23
f 23/23/23 24/24/24 27/27/27
f 27/27/27 26/26/26 25/25/25
f 24/24/24 26/26/26 27/27/27
