g Gem-Triangle
v 0.002416297 -0.002191186 -1.905882E-10
v -0.002416298 -0.002191184 1.824255E-10
v -8.877163E-11 -0.0006093559 0.002063459
v 0.002485051 -0.002053163 -1.876161E-10
v -0.002485053 -0.00205316 2.243489E-10
v 7.459774E-05 -0.0004751578 0.002058469
v 7.45986E-05 0.002063776 -5.632038E-12
v -7.45978E-05 -0.0004751578 0.002058469
v -7.459694E-05 0.002063776 5.631913E-12
vt 0.3519302 0.1389742
vt 0.3519302 0.08435103
vt 0.3348603 0.1116606
vt 0.3502928 0.1398035
vt 0.350291 0.08351777
vt 0.3338854 0.1121826
vt 0.3039954 0.1125716
vt 0.333884 0.1111442
vt 0.3039971 0.1107536
vn 0.3614949 -0.4858695 0.7957714
vn -0.3614951 -0.4858699 0.7957711
vn 0 -0.401441 0.9158849
vn 0.6299564 -0.04881392 0.7750949
vn -0.6299565 -0.048814 0.7750949
vn 0.3926394 0.2626551 0.8813891
vn 0.2751022 0.6054785 0.7468029
vn -0.3926385 0.2626552 0.8813894
vn -0.2751022 0.6054787 0.7468027
g Gem-Triangle_0
f 3/3/3 2/2/2 1/1/1
f 1/1/1 4/4/4 3/3/3
f 5/5/5 2/2/2 3/3/3
f 4/4/4 6/6/6 3/3/3
f 7/7/7 6/6/6 4/4/4
f 8/8/8 5/5/5 3/3/3
f 6/6/6 8/8/8 3/3/3
f 6/6/6 7/7/7 8/8/8
f 9/9/9 5/5/5 8/8/8
f 7/7/7 9/9/9 8/8/8
