g Glass
v -0.2396 0.04783297 -0.1228295
v -0.2396 -0.4 -0.1228295
v -0.2380676 -0.4 -0.1265288
v -0.2381127 0.0478966 -0.1264838
v -0.2368381 0.05171015 -0.1260195
v -0.2383704 0.05171015 -0.1223202
v -0.20365 0.09999995 -0.1079385
v -0.1265288 0.04783297 -0.2380677
v -0.1265288 -0.4 -0.2380677
v -0.1228295 -0.4 -0.2396
v -0.1260195 0.05171015 -0.236838
v -0.2021196 0.1000106 -0.111625
v -0.1689305 0.1482899 -0.09355684
v -0.1674011 0.1483111 -0.09723061
v -0.1116378 0.09999995 -0.2021176
v -0.09725615 0.1482899 -0.1673972
v -0.1223202 0.05171015 -0.2383704
v -0.1079349 0.09999621 -0.2036527
v -0.09354953 0.1482823 -0.168935
v -0.1228931 0.0478966 -0.2396
v 0.1223202 0.05171015 -0.2383704
v 0.1079385 0.09999995 -0.20365
v 0.09355684 0.1482899 -0.1689295
v 0.1228295 0.04783297 -0.2396
v 0.1228295 -0.4 -0.2396
v 0.1265288 -0.4 -0.2380676
v 0.1260176 0.05171015 -0.236838
v 0.111625 0.1000106 -0.2021195
v 0.09723061 0.1483111 -0.167401
v 0.1264838 0.0478966 -0.2381127
v 0.2368381 0.05171015 -0.1260195
v 0.2021177 0.09999995 -0.1116378
v 0.1673972 0.1482899 -0.09725615
v 0.2380677 0.04783297 -0.1265288
v 0.2380677 -0.4 -0.1265288
v 0.2396 -0.4 -0.1228295
v 0.2383704 0.05171015 -0.1223202
v 0.2036527 0.09999621 -0.1079349
v 0.168935 0.1482823 -0.09354954
v 0.2396 0.0478966 -0.1228931
v 0.2383704 0.05171015 0.1223202
v 0.20365 0.09999995 0.1079385
v 0.1689295 0.1482899 0.09355682
v 0.2396 0.04783297 0.1228295
v 0.2396 -0.4 0.1228295
v 0.2380676 -0.4 0.1265288
v 0.236838 0.05171015 0.1260195
v 0.2021196 0.1000106 0.111625
v 0.167401 0.1483111 0.09723058
v 0.2381127 0.0478966 0.1264838
v 0.1260195 0.05171015 0.2368381
v 0.1116378 0.09999995 0.2021177
v 0.09725612 0.1482899 0.1673972
v 0.1265288 0.04783297 0.2380677
v 0.1265288 -0.4 0.2380677
v 0.1228295 -0.4 0.2396
v 0.1223202 0.05171015 0.2383704
v 0.1079348 0.09999621 0.2036527
v 0.09354953 0.1482823 0.168935
v 0.1228931 0.0478966 0.2396
v -0.1223201 0.05171015 0.2383704
v -0.1079385 0.09999995 0.20365
v -0.09355682 0.1482899 0.1689295
v -0.1228295 0.04783297 0.2396
v -0.1228295 -0.4 0.2396
v -0.1265288 -0.4 0.2380677
v -0.1260195 0.05171015 0.2368381
v -0.111625 0.1000106 0.2021196
v -0.09723058 0.1483111 0.1674011
v -0.1264838 0.0478966 0.2381127
v -0.2368381 0.05171015 0.1260195
v -0.2021177 0.09999995 0.1116378
v -0.1673972 0.1482899 0.09725613
v -0.2380677 0.04783297 0.1265288
v -0.2380677 -0.4 0.1265288
v -0.2396 -0.4 0.1228295
v -0.2383704 0.05171015 0.1223202
v -0.2036527 0.09999621 0.1079349
v -0.168935 0.1482823 0.09354953
v -0.20365 0.09999995 -0.1079385
v -0.1689305 0.1482899 -0.09355684
v -0.2383704 0.05171015 -0.1223202
v -0.2396 0.0478966 0.1228931
v -0.2396 0.04783297 -0.1228295
v -0.2396 -0.4 -0.1228295
v 0.167401 0.1483111 0.09723058
v 0.09725612 0.1482899 0.1673972
v 0.09715853 0.1507841 0.1631209
v 0.1631209 0.1507841 0.09715851
v 0.1689295 0.1482899 0.09355682
v 0.093193 0.1505765 0.1657624
v 0.09354953 0.1482823 0.168935
v 0.09715846 0.1809062 0.09715851
v 0.1657624 0.1505765 0.09319299
v 0.168935 0.1482823 -0.09354954
v 0.09715202 0.1814865 0.093193
v 0.1657624 0.1505765 -0.09319302
v 0.1673972 0.1482899 -0.09725615
v -0.09319299 0.1505765 0.1657624
v -0.09355682 0.1482899 0.1689295
v 0.0931913 0.181486 0.09715364
v 0.09715361 0.181486 -0.09319137
v 0.163121 0.1507841 -0.09715853
v 0.09723061 0.1483111 -0.167401
v -0.09715851 0.1507841 0.163121
v -0.09723058 0.1483111 0.1674011
v -0.09319307 0.1814865 0.09715208
v 0.0931913 0.182063 0.09319136
v 0.09715848 0.1809062 -0.09715854
v 0.09715854 0.1507841 -0.1631209
v 0.09355684 0.1482899 -0.1689295
v -0.1631209 0.1507841 0.09715851
v -0.1673972 0.1482899 0.09725613
v 0.09319133 0.182063 -0.09319137
v -0.09319142 0.182063 0.09319136
v 0.09319133 0.181486 -0.09715368
v 0.09319302 0.1505765 -0.1657624
v -0.09354953 0.1482823 -0.168935
v -0.09319302 0.1505765 -0.1657624
v -0.09725615 0.1482899 -0.1673972
v -0.09319144 0.182063 -0.09319137
v -0.09319308 0.1814865 -0.0971521
v -0.09715372 0.181486 0.09319136
v -0.09715853 0.1507841 -0.1631209
v -0.1674011 0.1483111 -0.09723061
v -0.09715859 0.1809062 -0.09715854
v -0.163121 0.1507841 -0.09715854
v -0.1689305 0.1482899 -0.09355684
v -0.09715214 0.1814865 -0.09319302
v -0.1657615 0.1505765 -0.09319302
v -0.168935 0.1482823 0.09354953
v -0.1657624 0.1505765 0.093193
v -0.09715858 0.1809062 0.09715851
vt 0.1082153 0.7607422
vt 0.1082153 0.9667969
vt 0.111145 0.9667969
vt 0.111145 0.7607422
vt 0.111145 0.7587891
vt 0.1082153 0.7587891
vt 0.1082153 0.7255859
vt 0.1896973 0.7607422
vt 0.1898193 0.9667969
vt 0.1922607 0.9667969
vt 0.1896973 0.7587891
vt 0.111145 0.7255859
vt 0.1082153 0.6923828
vt 0.111145 0.6923828
vt 0.1896973 0.7255859
vt 0.1896973 0.6923828
vt 0.1922607 0.7587891
vt 0.1922607 0.7255859
vt 0.1922607 0.6923828
vt 0.1922607 0.7607422
vt 0.3139648 0.7587891
vt 0.3139648 0.7255859
vt 0.3139648 0.6923828
vt 0.3139648 0.7607422
vt 0.3139648 0.9667969
vt 0.315918 0.9667969
vt 0.315918 0.7587891
vt 0.315918 0.7255859
vt 0.315918 0.6923828
vt 0.315918 0.7607422
vt 0.3896484 0.7587891
vt 0.3896484 0.7255859
vt 0.3896484 0.6923828
vt 0.3896484 0.7607422
vt 0.3898926 0.9667969
vt 0.3920898 0.9667969
vt 0.3920898 0.7587891
vt 0.3920898 0.7255859
vt 0.3920898 0.6923828
vt 0.3920898 0.7607422
vt 0.5083008 0.7587891
vt 0.5083008 0.7255859
vt 0.5083008 0.6923828
vt 0.5083008 0.7607422
vt 0.5083008 0.9667969
vt 0.5107422 0.9667969
vt 0.5102539 0.7587891
vt 0.5102539 0.7255859
vt 0.5102539 0.6923828
vt 0.5102539 0.7607422
vt 0.5830078 0.7587891
vt 0.5830078 0.7255859
vt 0.5830078 0.6923828
vt 0.5830078 0.7607422
vt 0.5830078 0.9667969
vt 0.5849609 0.9667969
vt 0.5849609 0.7587891
vt 0.5849609 0.7255859
vt 0.5849609 0.6923828
vt 0.5849609 0.7607422
vt 0.6977539 0.7587891
vt 0.6977539 0.7255859
vt 0.6977539 0.6923828
vt 0.6977539 0.7607422
vt 0.6977539 0.9667969
vt 0.699707 0.9667969
vt 0.699707 0.7587891
vt 0.699707 0.7255859
vt 0.699707 0.6923828
vt 0.699707 0.7607422
vt 0.7675781 0.7587891
vt 0.7675781 0.7255859
vt 0.7675781 0.6923828
vt 0.7675781 0.7607422
vt 0.7675781 0.9667969
vt 0.769043 0.9667969
vt 0.769043 0.7587891
vt 0.769043 0.7255859
vt 0.769043 0.6923828
vt 0.8632813 0.7255859
vt 0.8632813 0.6923828
vt 0.8632813 0.7587891
vt 0.769043 0.7607422
vt 0.8632813 0.7607422
vt 0.8632813 0.9667969
vt 0.2121582 0.4592285
vt 0.1773682 0.4943848
vt 0.1798096 0.4946289
vt 0.2124023 0.4616699
vt 0.2141113 0.4584961
vt 0.1784668 0.496582
vt 0.1766357 0.4963379
vt 0.2139893 0.4958496
vt 0.2143555 0.4604492
vt 0.3056641 0.4577637
vt 0.2158203 0.4958496
vt 0.3054199 0.4594727
vt 0.3076172 0.4584961
vt 0.1784668 0.5874023
vt 0.1766357 0.5878906
vt 0.2139893 0.4978027
vt 0.3041992 0.4956055
vt 0.307373 0.4609375
vt 0.3430176 0.4936523
vt 0.1798096 0.5893555
vt 0.1773682 0.5898438
vt 0.2144775 0.5859375
vt 0.2158203 0.4978027
vt 0.3059082 0.4956055
vt 0.3405762 0.4938965
vt 0.3439941 0.4956055
vt 0.2131348 0.6220703
vt 0.2128906 0.6245117
vt 0.3041992 0.4973145
vt 0.2163086 0.5859375
vt 0.3061523 0.4973145
vt 0.342041 0.4958496
vt 0.34375 0.5874023
vt 0.342041 0.5869141
vt 0.3430176 0.5893555
vt 0.3046875 0.5854492
vt 0.3063965 0.5854492
vt 0.2163086 0.5878906
vt 0.3408203 0.5888672
vt 0.3083496 0.6245117
vt 0.3063965 0.5874023
vt 0.3081055 0.6220703
vt 0.3063965 0.6254883
vt 0.3046875 0.5874023
vt 0.3061523 0.6235352
vt 0.2148438 0.6254883
vt 0.2150879 0.6235352
vt 0.2144775 0.5878906
vn -1 0.002511978 -0.006118774
vn -1 -4.172325E-07 -0.006053925
vn -0.7138672 -7.152557E-07 -0.7001953
vn -0.7138672 0.00248909 -0.7001953
vn -0.5908203 0.5634766 -0.5771484
vn -0.8261719 0.5634766 -0.00617218
vn -0.8110352 0.5844727 -0.004619598
vn -0.7001953 0.002511978 -0.7138672
vn -0.7006836 -7.152557E-07 -0.7138672
vn -0.006145477 -4.172325E-07 -1
vn -0.5771484 0.5639648 -0.5908203
vn -0.5786133 0.5854492 -0.5683594
vn -0.8022461 0.597168 -0.005268097
vn -0.5766602 0.5922852 -0.5629883
vn -0.5678711 0.5854492 -0.5786133
vn -0.5629883 0.5922852 -0.5766602
vn -0.006187439 0.5634766 -0.8261719
vn -0.004627228 0.5844727 -0.8110352
vn -0.005310059 0.597168 -0.8022461
vn -0.006092072 0.002485275 -1
vn 0.00617218 0.5634766 -0.8261719
vn 0.004619598 0.5844727 -0.8110352
vn 0.005268097 0.597168 -0.8022461
vn 0.006118774 0.002511978 -1
vn 0.006053925 -4.172325E-07 -1
vn 0.7001953 -7.152557E-07 -0.7138672
vn 0.5771484 0.5634766 -0.5908203
vn 0.5683594 0.5849609 -0.5786133
vn 0.5629883 0.5922852 -0.5766602
vn 0.7001953 0.002490997 -0.7138672
vn 0.5908203 0.5639648 -0.5771484
vn 0.5786133 0.5849609 -0.5683594
vn 0.5766602 0.5922852 -0.5629883
vn 0.7138672 0.002513885 -0.7001953
vn 0.7138672 -7.152557E-07 -0.7006836
vn 1 -3.576279E-07 -0.006145477
vn 0.8261719 0.5634766 -0.006187439
vn 0.8110352 0.5844727 -0.004627228
vn 0.8022461 0.597168 -0.005310059
vn 1 0.002485275 -0.006092072
vn 0.8261719 0.5634766 0.00617218
vn 0.8110352 0.5844727 0.004619598
vn 0.8022461 0.597168 0.005268097
vn 1 0.002511978 0.006118774
vn 1 -3.576279E-07 0.006053925
vn 0.7138672 -7.152557E-07 0.7001953
vn 0.5908203 0.5634766 0.5771484
vn 0.5786133 0.5854492 0.5683594
vn 0.5766602 0.5922852 0.5629883
vn 0.7138672 0.00248909 0.7001953
vn 0.5771484 0.5639648 0.5908203
vn 0.5678711 0.5854492 0.5786133
vn 0.5629883 0.5922852 0.5766602
vn 0.7001953 0.002511978 0.7138672
vn 0.7006836 -7.152557E-07 0.7138672
vn 0.006145477 -4.172325E-07 1
vn 0.006187439 0.5634766 0.8261719
vn 0.004627228 0.5844727 0.8110352
vn 0.005310059 0.597168 0.8022461
vn 0.006092072 0.002485275 1
vn -0.00617218 0.5634766 0.8261719
vn -0.004619598 0.5844727 0.8110352
vn -0.005268097 0.597168 0.8022461
vn -0.006118774 0.002511978 1
vn -0.006053925 -4.172325E-07 1
vn -0.7001953 -7.152557E-07 0.7138672
vn -0.5771484 0.5634766 0.5908203
vn -0.5683594 0.5854492 0.5786133
vn -0.5629883 0.5922852 0.5766602
vn -0.7001953 0.00248909 0.7138672
vn -0.5908203 0.5639648 0.5771484
vn -0.5786133 0.5854492 0.5678711
vn -0.5766602 0.5922852 0.5629883
vn -0.7138672 0.002511978 0.7001953
vn -0.7138672 -7.152557E-07 0.7006836
vn -1 -4.172325E-07 0.006145477
vn -0.8261719 0.5634766 0.006187439
vn -0.8110352 0.5844727 0.004627228
vn -0.8022461 0.597168 0.005310059
vn -0.8110352 0.5844727 -0.004619598
vn -0.8022461 0.597168 -0.005268097
vn -0.8261719 0.5634766 -0.00617218
vn -1 0.002485275 0.006092072
vn -1 0.002511978 -0.006118774
vn -1 -4.172325E-07 -0.006053925
vn 0.5766602 0.5922852 0.5629883
vn 0.5629883 0.5922852 0.5766602
vn 0.3632813 0.8398438 0.4035645
vn 0.4035645 0.8398438 0.3635254
vn 0.8022461 0.597168 0.005268097
vn 0.002672195 0.9072266 0.4204102
vn 0.005310059 0.597168 0.8022461
vn 0.3647461 0.8569336 0.3647461
vn 0.4204102 0.9072266 0.002666473
vn 0.8022461 0.597168 -0.005310059
vn 0.3979492 0.9174805 0.00352478
vn 0.4204102 0.9072266 -0.002672195
vn 0.5766602 0.5922852 -0.5629883
vn -0.002666473 0.9072266 0.4204102
vn -0.005268097 0.597168 0.8022461
vn 0.003526688 0.9174805 0.3979492
vn 0.3979492 0.9174805 -0.003526688
vn 0.4035645 0.8398438 -0.3632813
vn 0.5629883 0.5922852 -0.5766602
vn -0.3635254 0.8398438 0.4035645
vn -0.5629883 0.5922852 0.5766602
vn -0.00352478 0.9174805 0.3979492
vn 0.003030777 1 0.00302887
vn 0.3647461 0.8569336 -0.3647461
vn 0.3635254 0.8398438 -0.4035645
vn 0.005268097 0.597168 -0.8022461
vn -0.4035645 0.8398438 0.3632813
vn -0.5766602 0.5922852 0.5629883
vn 0.00302887 1 -0.00302887
vn -0.00302887 1 0.003030777
vn 0.003526688 0.9174805 -0.3979492
vn 0.002666473 0.9072266 -0.4204102
vn -0.005310059 0.597168 -0.8022461
vn -0.002672195 0.9072266 -0.4204102
vn -0.5629883 0.5922852 -0.5766602
vn -0.003030777 1 -0.00302887
vn -0.00352478 0.9174805 -0.3979492
vn -0.3979492 0.9174805 0.00352478
vn -0.3632813 0.8398438 -0.4035645
vn -0.5766602 0.5922852 -0.5629883
vn -0.3647461 0.8569336 -0.3647461
vn -0.4035645 0.8398438 -0.3635254
vn -0.8022461 0.597168 -0.005268097
vn -0.3979492 0.9174805 -0.00352478
vn -0.4204102 0.9072266 -0.002666473
vn -0.8022461 0.597168 0.005310059
vn -0.4204102 0.9072266 0.002672195
vn -0.3647461 0.8569336 0.3647461
g Glass_0
f 3/3/3 2/2/2 1/1/1
f 4/4/4 3/3/3 1/1/1
f 4/4/4 1/1/1 5/5/5
f 1/1/1 6/6/6 5/5/5
f 6/6/6 7/7/7 5/5/5
f 3/3/3 4/4/4 8/8/8
f 9/9/9 3/3/3 8/8/8
f 10/10/10 9/9/9 8/8/8
f 4/4/4 5/5/5 11/11/11
f 8/8/8 4/4/4 11/11/11
f 7/7/7 12/12/12 5/5/5
f 5/5/5 12/12/12 11/11/11
f 7/7/7 13/13/13 12/12/12
f 13/13/13 14/14/14 12/12/12
f 12/12/12 14/14/14 15/15/15
f 12/12/12 15/15/15 11/11/11
f 14/14/14 16/16/16 15/15/15
f 8/8/8 11/11/11 17/17/17
f 11/11/11 15/15/15 17/17/17
f 15/15/15 16/16/16 18/18/18
f 15/15/15 18/18/18 17/17/17
f 16/16/16 19/19/19 18/18/18
f 20/20/20 10/10/10 8/8/8
f 20/20/20 8/8/8 17/17/17
f 17/17/17 18/18/18 21/21/21
f 20/20/20 17/17/17 21/21/21
f 18/18/18 19/19/19 22/22/22
f 18/18/18 22/22/22 21/21/21
f 19/19/19 23/23/23 22/22/22
f 10/10/10 20/20/20 24/24/24
f 24/24/24 20/20/20 21/21/21
f 25/25/25 10/10/10 24/24/24
f 26/26/26 25/25/25 24/24/24
f 21/21/21 22/22/22 27/27/27
f 24/24/24 21/21/21 27/27/27
f 22/22/22 23/23/23 28/28/28
f 22/22/22 28/28/28 27/27/27
f 23/23/23 29/29/29 28/28/28
f 30/30/30 26/26/26 24/24/24
f 30/30/30 24/24/24 27/27/27
f 27/27/27 28/28/28 31/31/31
f 30/30/30 27/27/27 31/31/31
f 28/28/28 29/29/29 32/32/32
f 28/28/28 32/32/32 31/31/31
f 29/29/29 33/33/33 32/32/32
f 26/26/26 30/30/30 34/34/34
f 34/34/34 30/30/30 31/31/31
f 35/35/35 26/26/26 34/34/34
f 36/36/36 35/35/35 34/34/34
f 31/31/31 32/32/32 37/37/37
f 34/34/34 31/31/31 37/37/37
f 32/32/32 33/33/33 38/38/38
f 32/32/32 38/38/38 37/37/37
f 33/33/33 39/39/39 38/38/38
f 40/40/40 36/36/36 34/34/34
f 40/40/40 34/34/34 37/37/37
f 37/37/37 38/38/38 41/41/41
f 40/40/40 37/37/37 41/41/41
f 38/38/38 39/39/39 42/42/42
f 38/38/38 42/42/42 41/41/41
f 39/39/39 43/43/43 42/42/42
f 36/36/36 40/40/40 44/44/44
f 44/44/44 40/40/40 41/41/41
f 45/45/45 36/36/36 44/44/44
f 46/46/46 45/45/45 44/44/44
f 41/41/41 42/42/42 47/47/47
f 44/44/44 41/41/41 47/47/47
f 42/42/42 43/43/43 48/48/48
f 42/42/42 48/48/48 47/47/47
f 43/43/43 49/49/49 48/48/48
f 50/50/50 46/46/46 44/44/44
f 50/50/50 44/44/44 47/47/47
f 47/47/47 48/48/48 51/51/51
f 47/47/47 51/51/51 50/50/50
f 48/48/48 49/49/49 52/52/52
f 48/48/48 52/52/52 51/51/51
f 49/49/49 53/53/53 52/52/52
f 46/46/46 50/50/50 54/54/54
f 51/51/51 54/54/54 50/50/50
f 55/55/55 46/46/46 54/54/54
f 56/56/56 55/55/55 54/54/54
f 51/51/51 52/52/52 57/57/57
f 54/54/54 51/51/51 57/57/57
f 52/52/52 53/53/53 58/58/58
f 52/52/52 58/58/58 57/57/57
f 53/53/53 59/59/59 58/58/58
f 60/60/60 56/56/56 54/54/54
f 60/60/60 54/54/54 57/57/57
f 57/57/57 58/58/58 61/61/61
f 57/57/57 61/61/61 60/60/60
f 58/58/58 59/59/59 62/62/62
f 58/58/58 62/62/62 61/61/61
f 59/59/59 63/63/63 62/62/62
f 56/56/56 60/60/60 64/64/64
f 61/61/61 64/64/64 60/60/60
f 65/65/65 56/56/56 64/64/64
f 66/66/66 65/65/65 64/64/64
f 61/61/61 62/62/62 67/67/67
f 64/64/64 61/61/61 67/67/67
f 62/62/62 63/63/63 68/68/68
f 62/62/62 68/68/68 67/67/67
f 63/63/63 69/69/69 68/68/68
f 70/70/70 66/66/66 64/64/64
f 70/70/70 64/64/64 67/67/67
f 67/67/67 68/68/68 71/71/71
f 70/70/70 67/67/67 71/71/71
f 68/68/68 69/69/69 72/72/72
f 68/68/68 72/72/72 71/71/71
f 69/69/69 73/73/73 72/72/72
f 66/66/66 70/70/70 74/74/74
f 74/74/74 70/70/70 71/71/71
f 75/75/75 66/66/66 74/74/74
f 76/76/76 75/75/75 74/74/74
f 71/71/71 72/72/72 77/77/77
f 74/74/74 71/71/71 77/77/77
f 72/72/72 73/73/73 78/78/78
f 72/72/72 78/78/78 77/77/77
f 73/73/73 79/79/79 78/78/78
f 78/78/78 79/79/79 80/80/80
f 79/79/79 81/81/81 80/80/80
f 78/78/78 80/80/80 82/82/82
f 77/77/77 78/78/78 82/82/82
f 83/83/83 74/74/74 77/77/77
f 83/83/83 77/77/77 82/82/82
f 83/83/83 76/76/76 74/74/74
f 84/84/84 83/83/83 82/82/82
f 76/76/76 83/83/83 84/84/84
f 85/85/85 76/76/76 84/84/84
f 88/88/88 87/87/87 86/86/86
f 89/89/89 88/88/88 86/86/86
f 86/86/86 90/90/90 89/89/89
f 87/87/87 88/88/88 91/91/91
f 92/92/92 87/87/87 91/91/91
f 89/89/89 93/93/93 88/88/88
f 88/88/88 93/93/93 91/91/91
f 90/90/90 94/94/94 89/89/89
f 90/90/90 95/95/95 94/94/94
f 96/96/96 93/93/93 89/89/89
f 94/94/94 96/96/96 89/89/89
f 95/95/95 97/97/97 94/94/94
f 95/95/95 98/98/98 97/97/97
f 91/91/91 99/99/99 92/92/92
f 99/99/99 100/100/100 92/92/92
f 93/93/93 101/101/101 91/91/91
f 93/93/93 96/96/96 101/101/101
f 96/96/96 94/94/94 102/102/102
f 94/94/94 97/97/97 102/102/102
f 98/98/98 103/103/103 97/97/97
f 98/98/98 104/104/104 103/103/103
f 100/100/100 99/99/99 105/105/105
f 106/106/106 100/100/100 105/105/105
f 107/107/107 99/99/99 91/91/91
f 101/101/101 107/107/107 91/91/91
f 99/99/99 107/107/107 105/105/105
f 96/96/96 108/108/108 101/101/101
f 108/108/108 96/96/96 102/102/102
f 109/109/109 102/102/102 97/97/97
f 103/103/103 109/109/109 97/97/97
f 104/104/104 110/110/110 103/103/103
f 109/109/109 103/103/103 110/110/110
f 104/104/104 111/111/111 110/110/110
f 106/106/106 105/105/105 112/112/112
f 113/113/113 106/106/106 112/112/112
f 102/102/102 109/109/109 114/114/114
f 114/114/114 108/108/108 102/102/102
f 101/101/101 108/108/108 115/115/115
f 107/107/107 101/101/101 115/115/115
f 116/116/116 109/109/109 110/110/110
f 109/109/109 116/116/116 114/114/114
f 111/111/111 117/117/117 110/110/110
f 117/117/117 116/116/116 110/110/110
f 111/111/111 118/118/118 117/117/117
f 118/118/118 119/119/119 117/117/117
f 116/116/116 117/117/117 119/119/119
f 118/118/118 120/120/120 119/119/119
f 108/108/108 114/114/114 121/121/121
f 115/115/115 108/108/108 121/121/121
f 114/114/114 116/116/116 122/122/122
f 122/122/122 116/116/116 119/119/119
f 121/121/121 114/114/114 122/122/122
f 107/107/107 115/115/115 123/123/123
f 115/115/115 121/121/121 123/123/123
f 120/120/120 124/124/124 119/119/119
f 120/120/120 125/125/125 124/124/124
f 126/126/126 122/122/122 119/119/119
f 121/121/121 122/122/122 126/126/126
f 124/124/124 126/126/126 119/119/119
f 125/125/125 127/127/127 124/124/124
f 126/126/126 124/124/124 127/127/127
f 125/125/125 128/128/128 127/127/127
f 129/129/129 121/121/121 126/126/126
f 129/129/129 126/126/126 127/127/127
f 121/121/121 129/129/129 123/123/123
f 128/128/128 130/130/130 127/127/127
f 130/130/130 129/129/129 127/127/127
f 128/128/128 131/131/131 130/130/130
f 129/129/129 130/130/130 132/132/132
f 131/131/131 132/132/132 130/130/130
f 123/123/123 129/129/129 132/132/132
f 131/131/131 113/113/113 132/132/132
f 113/113/113 112/112/112 132/132/132
f 133/133/133 123/123/123 132/132/132
f 112/112/112 133/133/133 132/132/132
f 133/133/133 107/107/107 123/123/123
f 133/133/133 112/112/112 105/105/105
f 107/107/107 133/133/133 105/105/105
