g GlassesBigLeft
v -0.002359745 -0.0002698191 0.0001117748
v -0.002447769 -0.0002512432 -3.048956E-05
v -0.002453289 -0.0002063955 8.314669E-05
v -0.002314824 -0.000116415 0.0002501309
v -0.002265611 -0.0001581819 0.000189445
v -0.001927581 -9.788632E-05 0.0002748042
v -0.002352163 -0.0001191747 0.0004586208
v -0.002109702 -1.422405E-05 0.0005544478
v -0.00235228 0.0003510006 0.0004492068
v -0.00152361 2.577968E-05 0.0004016119
v -0.001460989 -3.237352E-05 0.0003497911
v -0.001163303 9.513743E-05 0.0004098368
v -0.0005020872 0.0001436409 0.0003836775
v -0.001056012 0.0001713157 0.0005549872
v -0.001977136 0.0006078077 0.0005201357
v -0.001668345 8.183904E-05 0.0005867058
v -0.001181339 0.0004816548 0.0005374163
v -0.0005064493 0.000268032 0.0005001479
v -0.002088236 0.00108772 0.0003823584
v -0.002251182 0.0009377304 0.000290401
v -0.002003643 0.001387764 0.0002947259
v -0.001748561 0.001311951 0.0003892124
v -0.00140596 0.001101074 0.000450753
v -0.001470497 0.001797287 0.0002583605
v -0.001733744 0.0017942 0.0001616788
v -0.0005796224 0.001243907 0.00036017
v -0.0009437507 0.001635132 0.0002985621
v -0.001057459 0.002271065 3.448129E-05
v -0.0008005372 0.002483338 -0.0003548843
v -0.0007558069 0.002100749 0.000132457
v -0.0003268361 0.002530753 -0.0001270711
v -0.0002441883 0.0026055 -0.0004117393
v -0.0004206786 0.001623178 0.0002458143
v -7.73409E-05 0.002121581 2.319276E-05
v 3.306716E-05 0.002577349 -0.0002640009
v 0.0003273341 0.002618623 -0.0004955053
v 9.365797E-05 0.001540429 0.0001705831
v 0.0003532031 0.002402528 -0.0002054638
v 0.0008855244 0.002465025 -0.0004645729
v 0.000961622 0.002484504 -0.0006465429
v 0.001496172 0.00220015 -0.0007307756
v 0.0006910505 0.001894083 -9.060562E-05
v 0.0002261624 0.0009326914 0.0002747631
v 0.00140358 0.002137676 -0.0005304593
v 0.001624543 0.002149253 -0.0006531191
v 0.001142869 0.002183442 -0.0003756398
v 0.001114542 0.001808475 -0.0002281135
v 0.0008519018 0.001525728 -3.363788E-05
v 0.001458749 0.002092427 -0.0004834598
v 0.001789184 0.002200676 -0.0004614824
v 0.001620359 0.002112957 -0.0002868253
v -0.0003519896 0.0002315215 0.000449267
v 0.002013077 0.001904736 -0.0003996163
v 0.002276079 0.001734399 -0.0005296898
v 0.002416476 0.001354457 -0.0004582405
v 0.002577104 0.001262123 -0.0005913383
v 0.002741307 0.0008788541 -0.0005939394
v 0.001788993 0.001605853 -0.0002026313
v 0.001275941 0.001810502 -7.097125E-05
v 0.0009785121 0.001483848 9.194791E-05
v 0.0006285313 0.00114346 0.0002254307
v 0.001368318 0.001065871 4.148543E-05
v 0.002062548 0.001100066 -0.0002253771
v 0.00253071 0.0008224552 -0.0004227585
v 0.0002147919 0.0007439491 0.0003519148
v 0.001138484 0.0006054062 0.0001543605
v 0.002802621 0.0001958012 -0.0005355048
v 0.002849215 0.0004025683 -0.000648461
v 0.002870315 -0.0001298085 -0.0006574589
v 0.002214776 0.0003166204 -0.0002156961
v 0.001794636 0.0006988597 -6.915033E-05
v 0.002772965 -0.0005436323 -0.0005585206
v 0.00278375 -0.0007093374 -0.0006437713
v 0.002523798 -0.0005859244 -0.0003875673
v 0.002537105 -0.001213608 -0.0005058211
v 0.002530494 -0.001333006 -0.000587728
v 0.001658144 -0.0001466245 1.326322E-05
v 0.002112821 -0.0006396965 -0.0001886785
v 0.002095431 -0.001814402 -0.0004214174
v 0.002169861 -0.001818689 -0.0005368596
v 0.00174022 -0.002201272 -0.0004029792
v 0.002015821 -0.001417503 -0.0002694082
v 0.001528412 -0.001913812 -0.0001929098
v 0.001516415 -0.001382004 -6.195605E-05
v 0.001173808 -0.0008880937 0.0001204431
v 0.0008328452 -0.0001836993 0.0002525663
v 0.001176374 -0.002380136 -0.0002328169
v 0.001147207 -0.002520401 -0.0003310841
v 0.001034531 -0.001627297 4.116535E-05
v 0.0004234335 -0.002593927 -0.0001046664
v 0.0005712587 -0.002656608 -0.0002395785
v 0.0001426601 -0.002676336 -0.0001598626
v 0.0008909607 -0.00212724 -4.77457E-05
v 0.0001242948 -0.002084036 0.0001426333
v 0.0005278575 -0.001348875 0.0002147913
v 9.74825E-05 -0.002484264 -1.80769E-05
v 0.0001667005 -0.0009554065 0.0003355896
v -0.00026537 -0.00175541 0.0002790868
v -0.0004325619 -0.002529236 -2.179444E-05
v -0.0005704447 -0.002563511 -0.000244385
v -0.001212557 -0.002294575 4.707038E-05
v -0.000174042 -0.002087714 0.0002105892
v -0.0006453991 -0.002342007 0.0001125896
v -0.0005418804 -0.001483371 0.0004652721
v -0.0004279658 -0.001400913 0.0003485525
v -0.0005924699 -0.001298265 0.0003374314
v -0.0008908131 -0.001889127 0.0003144497
v -0.001076114 -0.001958794 0.0002065349
v -0.001063067 -0.002230214 0.0001420796
v -0.001479787 -0.002138057 2.995193E-05
v -0.00210358 -0.001420494 0.0001272404
v -0.001804612 -0.001808738 -4.273057E-06
v -0.001877186 -0.001694659 -9.6668E-05
v -0.002120377 -0.001328581 -7.851422E-05
v -0.0004622042 -0.001182948 0.0003846091
v -0.0002844697 -0.0005480165 0.0004408252
v -0.002276184 -0.001049749 4.228949E-06
v -0.002253744 -0.001007546 -6.559908E-05
v -0.002321404 -0.0005932596 -2.827704E-05
v -0.002363789 -0.0004979676 4.340172E-05
v -0.002447769 -0.0002512432 -3.048956E-05
v -0.002359745 -0.0002698191 0.0001117748
v -0.002293005 -0.0009479899 0.0001551771
v -0.001949058 -0.0007608187 0.0002563947
v -0.002258738 -0.0004811921 0.0001642722
v -0.002265611 -0.0001581819 0.000189445
v -0.001927581 -9.788632E-05 0.0002748042
v 0.0003755772 0.000171582 0.0003498238
v -0.0004021612 -0.0005561109 0.000391705
v -0.0009049138 -0.0005099699 0.0003914487
v -0.001460989 -3.237352E-05 0.0003497911
v -0.0014473 -0.0005370392 0.0003517103
v -0.001297464 -0.00109092 0.0003267109
v -0.001611367 -0.00148955 0.0002269345
vt 0.8771504 0.5300334
vt 0.8873948 0.5455935
vt 0.8901759 0.5331606
vt 0.880513 0.5079229
vt 0.8725141 0.5109347
vt 0.8546363 0.4776281
vt 0.8938134 0.4918537
vt 0.88739 0.4690958
vt 0.935572 0.467227
vt 0.8380288 0.4347076
vt 0.82762 0.436618
vt 0.8165497 0.4048258
vt 0.7712725 0.3527225
vt 0.8219171 0.385329
vt 0.9246831 0.4167839
vt 0.863085 0.432036
vt 0.8530065 0.3693398
vt 0.7836602 0.3406879
vt 0.968367 0.3870012
vt 0.9753025 0.4118853
vt 0.9854428 0.3563337
vt 0.9571432 0.3454475
vt 0.9144933 0.3383899
vt 0.9687356 0.2871896
vt 0.9942476 0.3023565
vt 0.8587723 0.2688688
vt 0.9151108 0.264426
vt 0.9692233 0.2189482
vt 0.9883072 0.1690459
vt 0.933399 0.2139538
vt 0.9370725 0.14682
vt 0.9506745 0.1182985
vt 0.8743698 0.2277287
vt 0.8868455 0.1624139
vt 0.9169921 0.113478
vt 0.9046148 0.07663401
vt 0.8307527 0.1952724
vt 0.8791451 0.1055726
vt 0.8491752 0.05235038
vt 0.8503264 0.03208277
vt 0.7909791 0.005730192
vt 0.816 0.1189758
vt 0.7756152 0.2324473
vt 0.7879249 0.02975644
vt 0.7749003 0.00571065
vt 0.8085345 0.0554924
vt 0.7809147 0.08766083
vt 0.7765683 0.1343874
vt 0.7788578 0.03160166
vt 0.7478895 0.008005035
vt 0.7527898 0.03371752
vt 0.7681328 0.3321985
vt 0.7089927 0.01789566
vt 0.6757648 0.005282542
vt 0.6377271 0.02645231
vt 0.6166281 0.01548947
vt 0.5751184 0.03263594
vt 0.7043781 0.0612046
vt 0.7577581 0.08465568
vt 0.757724 0.1333686
vt 0.7596782 0.1865909
vt 0.6982877 0.1358999
vt 0.6471927 0.07718628
vt 0.5899112 0.05785188
vt 0.7619445 0.2491074
vt 0.6826109 0.1884513
vt 0.5218195 0.08208089
vt 0.5293085 0.05833355
vt 0.4874214 0.09583345
vt 0.5790196 0.1232026
vt 0.6393155 0.1293819
vt 0.4676294 0.1367166
vt 0.4497749 0.1442043
vt 0.4864393 0.1622405
vt 0.4341134 0.2027485
vt 0.4204746 0.2090469
vt 0.5877317 0.2019723
vt 0.5150858 0.2002025
vt 0.4190997 0.2801014
vt 0.4069603 0.2722907
vt 0.4122659 0.3356375
vt 0.4597858 0.2608123
vt 0.4556715 0.3339922
vt 0.5013251 0.2988604
vt 0.5668589 0.2919436
vt 0.647163 0.2693463
vt 0.442381 0.3943216
vt 0.4291536 0.4069602
vt 0.5173935 0.353379
vt 0.4812259 0.4685101
vt 0.4602603 0.4628887
vt 0.4903822 0.4990126
vt 0.486442 0.3990633
vt 0.546039 0.455066
vt 0.577401 0.3732846
vt 0.5130077 0.4868084
vt 0.6353784 0.3740977
vt 0.5998191 0.461429
vt 0.5457603 0.5328074
vt 0.5406317 0.5599627
vt 0.6199498 0.5788904
vt 0.5675515 0.4779044
vt 0.5781667 0.5340976
vt 0.639802 0.4660012
vt 0.6403036 0.4497504
vt 0.6613281 0.4574116
vt 0.6324439 0.519549
vt 0.6399702 0.5415449
vt 0.6166058 0.5590051
vt 0.6513835 0.5902313
vt 0.7473407 0.5870537
vt 0.6981235 0.5978302
vt 0.711766 0.6086426
vt 0.7587322 0.607136
vt 0.6612771 0.4382691
vt 0.7004625 0.3812023
vt 0.7895987 0.5911555
vt 0.7951472 0.597498
vt 0.833566 0.5758356
vt 0.8406188 0.5640446
vt 0.8684519 0.5611221
vt 0.858964 0.5466742
vt 0.7949677 0.5731682
vt 0.7918136 0.5323122
vt 0.8342642 0.5473915
vt 0.8625973 0.5293059
vt 0.8477674 0.4931714
vt 0.7083369 0.2796238
vt 0.7083322 0.3919508
vt 0.7460403 0.4291999
vt 0.8228291 0.4463713
vt 0.7795886 0.4760996
vt 0.7242507 0.4988949
vt 0.7115828 0.551285
vn -0.6560448 -0.3067593 0.6895679
vn -0.8953696 -0.3394935 0.2881968
vn -0.8916605 -0.2809098 0.3550087
vn 0.1424456 -0.9283357 0.3433689
vn -0.2789409 -0.1256712 0.9520498
vn -0.1721323 -0.1166424 0.9781437
vn -0.6945005 -0.3283056 0.6402222
vn -0.03039155 -0.5386881 0.8419569
vn -0.5411173 0.1334326 0.8302938
vn 0.1005703 -0.8934138 0.4378324
vn -0.06114887 -0.06186304 0.9962097
vn 0.126412 -0.8506127 0.5103706
vn -0.02787421 -0.1680635 0.985382
vn 0.1257114 -0.4784011 0.8690967
vn -0.09688205 0.1498187 0.9839553
vn -0.01144664 0.05564459 0.998385
vn 0.05452921 0.1364555 0.9891444
vn 0.1476987 0.08115802 0.9856969
vn -0.3649791 0.2655998 0.8923267
vn -0.6738976 0.3254562 0.66328
vn -0.3200795 0.401417 0.8581454
vn -0.1130868 0.2645286 0.9577245
vn 0.02423846 0.2000933 0.979477
vn -0.07761145 0.3733185 0.9244511
vn -0.3321705 0.5890456 0.7366737
vn 0.1248573 0.1795694 0.9757897
vn 0.05688905 0.2686862 0.9615463
vn -0.217454 0.8123433 0.5411211
vn -0.2835792 0.9262054 0.2484481
vn 0.07123277 0.3819602 0.9214295
vn 0.01192034 0.6961954 0.7177534
vn -0.09159401 0.9743998 0.2053179
vn 0.1431585 0.2819393 0.9486917
vn 0.1879628 0.3503465 0.9175661
vn 0.1561433 0.8525822 0.4987213
vn 0.1667273 0.9402077 0.2970041
vn 0.2171956 0.2471442 0.9443229
vn 0.2563138 0.4685558 0.8454341
vn 0.3569781 0.7548824 0.5501992
vn 0.3706411 0.8942934 0.2507277
vn 0.4625604 0.7976332 0.3870648
vn 0.2727522 0.3268186 0.9048734
vn 0.1458404 0.2241343 0.9635841
vn 0.4383246 0.632243 0.6388586
vn -0.08214564 0.973243 0.2145932
vn 0.3619338 0.4251794 0.8295941
vn -0.006722176 0.6262407 0.7796008
vn 0.1324104 0.3712464 0.9190449
vn -0.3186481 0.8994817 0.2989914
vn 0.2162813 0.8521228 0.4765596
vn 0.1064831 0.6044039 0.7895298
vn 0.05039768 0.01947143 0.9985393
vn 0.4810721 0.3436904 0.8065027
vn 0.6450816 0.4329407 0.6296285
vn 0.5151597 0.2289262 0.825956
vn 0.7080787 0.3385114 0.6197053
vn 0.6567594 0.1668251 0.7354159
vn 0.3664525 0.2028951 0.9080452
vn 0.09784377 0.4381445 0.8935636
vn 0.1453488 0.3081031 0.9401842
vn 0.135847 0.2191111 0.9661966
vn 0.305108 0.1299319 0.9434123
vn 0.402513 0.1338343 0.9055781
vn 0.49799 0.1085674 0.8603598
vn 0.1544701 0.09899609 0.9830253
vn 0.2611179 0.05249228 0.9638786
vn 0.5734003 0.02985492 0.8187311
vn 0.8624281 0.07880584 0.5000075
vn 0.8724781 -0.0464039 0.486445
vn 0.4279715 0.02561559 0.9034292
vn 0.343574 0.06573464 0.9368222
vn 0.6819397 -0.1084337 0.7233258
vn 0.8587017 -0.2345715 0.4556398
vn 0.4813176 -0.07508794 0.8733242
vn 0.567068 -0.2138908 0.7954147
vn 0.7610543 -0.4201256 0.4942578
vn 0.3222116 -0.0112948 0.9466003
vn 0.3794305 -0.08344306 0.9214498
vn 0.5036038 -0.3304571 0.7982364
vn 0.6998974 -0.5367757 0.4711851
vn 0.4264054 -0.4163247 0.8030269
vn 0.4187103 -0.1836047 0.8893654
vn 0.347391 -0.2716805 0.8975016
vn 0.3351324 -0.1575591 0.9289034
vn 0.2731396 -0.09625842 0.9571463
vn 0.2280522 -0.03208748 0.97312
vn 0.3189236 -0.40465 0.8570567
vn 0.3233838 -0.625695 0.7098793
vn 0.2541314 -0.2010714 0.9460378
vn 0.2211625 -0.4581179 0.8609384
vn 0.2215857 -0.7687387 0.5999506
vn -0.02114558 -0.7571494 0.6528994
vn 0.2518742 -0.2925977 0.9224674
vn 0.2476651 -0.2384611 0.9390412
vn 0.2012036 -0.1630175 0.9658895
vn -0.1568056 -0.4567345 0.8756743
vn 0.1755092 -0.1016008 0.9792211
vn 0.2071271 -0.1494627 0.9668295
vn -0.1214356 -0.8061408 0.5791289
vn -0.2203624 -0.9342581 0.2803611
vn -0.2466599 -0.7014661 0.6686584
vn -0.08295581 -0.4296145 0.8991939
vn 0.004902345 -0.4635506 0.8860569
vn 0.04577163 -0.2212825 0.974135
vn 0.1932314 -0.06347022 0.9790982
vn -0.1262645 -0.04248029 0.9910867
vn -0.2396056 -0.1961897 0.9508411
vn -0.1951922 -0.2092791 0.9581765
vn -0.1906208 -0.430521 0.8822218
vn -0.3150342 -0.3888804 0.8657514
vn -0.4318405 -0.3583315 0.8277151
vn -0.757238 -0.6349525 0.1530554
vn -0.8169388 -0.5591238 -0.1413917
vn -0.8538389 -0.4804918 -0.2002165
vn -0.004089833 -0.09798629 0.9951794
vn 0.1176934 -0.04408749 0.9920709
vn -0.9497916 -0.2882431 -0.1217035
vn -0.8850361 -0.2137036 -0.4135722
vn -0.9350994 -0.1813617 -0.3044622
vn -0.9518075 -0.1310626 0.2772814
vn -0.8953696 -0.3394935 0.2881968
vn -0.6560448 -0.3067593 0.6895679
vn -0.5740535 -0.1295349 0.8085068
vn -0.2048537 -0.0807092 0.9754593
vn -0.4655544 -0.036026 0.8842857
vn -0.2789409 -0.1256712 0.9520498
vn -0.1721323 -0.1166424 0.9781437
vn 0.1805928 0.01467842 0.9834485
vn -0.1342623 -0.02640223 0.990594
vn -0.03694681 -0.02651602 0.9989654
vn -0.06114887 -0.06186304 0.9962097
vn -0.1265369 -0.0362411 0.9912997
vn -0.09166791 -0.1145601 0.9891779
vn -0.1723837 -0.1660249 0.9709374
g GlassesBigLeft_0
f 3/3/3 2/2/2 1/1/1
f 3/3/3 1/1/1 4/4/4
f 1/1/1 5/5/5 4/4/4
f 5/5/5 6/6/6 4/4/4
f 3/3/3 4/4/4 7/7/7
f 8/8/8 7/7/7 4/4/4
f 3/3/3 7/7/7 9/9/9
f 9/9/9 7/7/7 8/8/8
f 10/10/10 4/4/4 6/6/6
f 8/8/8 4/4/4 10/10/10
f 6/6/6 11/11/11 10/10/10
f 10/10/10 11/11/11 12/12/12
f 8/8/8 10/10/10 12/12/12
f 12/12/12 11/11/11 13/13/13
f 8/8/8 12/12/12 14/14/14
f 13/13/13 14/14/14 12/12/12
f 9/9/9 8/8/8 15/15/15
f 14/14/14 16/16/16 8/8/8
f 15/15/15 8/8/8 16/16/16
f 17/17/17 16/16/16 14/14/14
f 15/15/15 16/16/16 17/17/17
f 14/14/14 13/13/13 18/18/18
f 17/17/17 14/14/14 18/18/18
f 19/19/19 9/9/9 15/15/15
f 20/20/20 9/9/9 19/19/19
f 20/20/20 19/19/19 21/21/21
f 22/22/22 19/19/19 15/15/15
f 19/19/19 22/22/22 21/21/21
f 15/15/15 17/17/17 23/23/23
f 15/15/15 23/23/23 22/22/22
f 21/21/21 22/22/22 24/24/24
f 23/23/23 24/24/24 22/22/22
f 25/25/25 21/21/21 24/24/24
f 23/23/23 17/17/17 26/26/26
f 26/26/26 17/17/17 18/18/18
f 24/24/24 23/23/23 27/27/27
f 23/23/23 26/26/26 27/27/27
f 24/24/24 28/28/28 25/25/25
f 29/29/29 25/25/25 28/28/28
f 24/24/24 27/27/27 30/30/30
f 28/28/28 24/24/24 30/30/30
f 31/31/31 29/29/29 28/28/28
f 28/28/28 30/30/30 31/31/31
f 29/29/29 31/31/31 32/32/32
f 27/27/27 33/33/33 30/30/30
f 27/27/27 26/26/26 33/33/33
f 30/30/30 33/33/33 34/34/34
f 31/31/31 30/30/30 34/34/34
f 32/32/32 31/31/31 35/35/35
f 32/32/32 35/35/35 36/36/36
f 37/37/37 33/33/33 26/26/26
f 34/34/34 33/33/33 37/37/37
f 38/38/38 31/31/31 34/34/34
f 38/38/38 35/35/35 31/31/31
f 39/39/39 36/36/36 35/35/35
f 39/39/39 35/35/35 38/38/38
f 36/36/36 39/39/39 40/40/40
f 40/40/40 39/39/39 41/41/41
f 34/34/34 42/42/42 38/38/38
f 42/42/42 34/34/34 37/37/37
f 37/37/37 26/26/26 43/43/43
f 18/18/18 43/43/43 26/26/26
f 41/41/41 39/39/39 44/44/44
f 41/41/41 44/44/44 45/45/45
f 39/39/39 38/38/38 46/46/46
f 46/46/46 38/38/38 42/42/42
f 44/44/44 39/39/39 46/46/46
f 46/46/46 42/42/42 47/47/47
f 47/47/47 44/44/44 46/46/46
f 37/37/37 48/48/48 42/42/42
f 37/37/37 43/43/43 48/48/48
f 42/42/42 48/48/48 47/47/47
f 45/45/45 44/44/44 49/49/49
f 49/49/49 44/44/44 47/47/47
f 49/49/49 50/50/50 45/45/45
f 49/49/49 51/51/51 50/50/50
f 51/51/51 49/49/49 47/47/47
f 18/18/18 52/52/52 43/43/43
f 13/13/13 52/52/52 18/18/18
f 53/53/53 50/50/50 51/51/51
f 54/54/54 50/50/50 53/53/53
f 55/55/55 54/54/54 53/53/53
f 55/55/55 56/56/56 54/54/54
f 56/56/56 55/55/55 57/57/57
f 53/53/53 51/51/51 58/58/58
f 53/53/53 58/58/58 55/55/55
f 59/59/59 51/51/51 47/47/47
f 51/51/51 59/59/59 58/58/58
f 59/59/59 47/47/47 60/60/60
f 59/59/59 60/60/60 58/58/58
f 47/47/47 48/48/48 60/60/60
f 48/48/48 43/43/43 61/61/61
f 48/48/48 61/61/61 60/60/60
f 60/60/60 62/62/62 58/58/58
f 61/61/61 62/62/62 60/60/60
f 63/63/63 55/55/55 58/58/58
f 63/63/63 58/58/58 62/62/62
f 55/55/55 64/64/64 57/57/57
f 55/55/55 63/63/63 64/64/64
f 61/61/61 43/43/43 65/65/65
f 52/52/52 65/65/65 43/43/43
f 66/66/66 62/62/62 61/61/61
f 65/65/65 66/66/66 61/61/61
f 67/67/67 57/57/57 64/64/64
f 68/68/68 57/57/57 67/67/67
f 67/67/67 69/69/69 68/68/68
f 64/64/64 63/63/63 70/70/70
f 70/70/70 67/67/67 64/64/64
f 62/62/62 71/71/71 63/63/63
f 66/66/66 71/71/71 62/62/62
f 63/63/63 71/71/71 70/70/70
f 72/72/72 69/69/69 67/67/67
f 73/73/73 69/69/69 72/72/72
f 74/74/74 72/72/72 67/67/67
f 70/70/70 74/74/74 67/67/67
f 75/75/75 73/73/73 72/72/72
f 74/74/74 75/75/75 72/72/72
f 75/75/75 76/76/76 73/73/73
f 70/70/70 71/71/71 77/77/77
f 66/66/66 77/77/77 71/71/71
f 78/78/78 74/74/74 70/70/70
f 77/77/77 78/78/78 70/70/70
f 76/76/76 75/75/75 79/79/79
f 80/80/80 76/76/76 79/79/79
f 81/81/81 80/80/80 79/79/79
f 75/75/75 74/74/74 82/82/82
f 79/79/79 75/75/75 82/82/82
f 74/74/74 78/78/78 82/82/82
f 81/81/81 79/79/79 83/83/83
f 79/79/79 82/82/82 83/83/83
f 78/78/78 84/84/84 82/82/82
f 82/82/82 84/84/84 83/83/83
f 78/78/78 77/77/77 85/85/85
f 85/85/85 84/84/84 78/78/78
f 86/86/86 77/77/77 66/66/66
f 86/86/86 85/85/85 77/77/77
f 81/81/81 83/83/83 87/87/87
f 87/87/87 88/88/88 81/81/81
f 83/83/83 84/84/84 89/89/89
f 84/84/84 85/85/85 89/89/89
f 88/88/88 87/87/87 90/90/90
f 90/90/90 91/91/91 88/88/88
f 92/92/92 91/91/91 90/90/90
f 87/87/87 83/83/83 93/93/93
f 83/83/83 89/89/89 93/93/93
f 87/87/87 93/93/93 90/90/90
f 94/94/94 93/93/93 89/89/89
f 90/90/90 93/93/93 94/94/94
f 89/89/89 85/85/85 95/95/95
f 94/94/94 89/89/89 95/95/95
f 92/92/92 90/90/90 96/96/96
f 96/96/96 90/90/90 94/94/94
f 97/97/97 95/95/95 85/85/85
f 85/85/85 86/86/86 97/97/97
f 94/94/94 95/95/95 98/98/98
f 98/98/98 95/95/95 97/97/97
f 99/99/99 92/92/92 96/96/96
f 100/100/100 92/92/92 99/99/99
f 99/99/99 101/101/101 100/100/100
f 96/96/96 94/94/94 102/102/102
f 102/102/102 94/94/94 98/98/98
f 103/103/103 99/99/99 96/96/96
f 103/103/103 96/96/96 102/102/102
f 101/101/101 99/99/99 103/103/103
f 102/102/102 98/98/98 104/104/104
f 102/102/102 104/104/104 103/103/103
f 105/105/105 98/98/98 97/97/97
f 98/98/98 105/105/105 104/104/104
f 106/106/106 104/104/104 105/105/105
f 103/103/103 104/104/104 107/107/107
f 104/104/104 106/106/106 107/107/107
f 108/108/108 107/107/107 106/106/106
f 109/109/109 103/103/103 107/107/107
f 109/109/109 101/101/101 103/103/103
f 107/107/107 108/108/108 109/109/109
f 101/101/101 109/109/109 108/108/108
f 110/110/110 101/101/101 108/108/108
f 110/110/110 108/108/108 111/111/111
f 111/111/111 112/112/112 110/110/110
f 113/113/113 112/112/112 111/111/111
f 114/114/114 113/113/113 111/111/111
f 97/97/97 115/115/115 105/105/105
f 105/105/105 115/115/115 106/106/106
f 115/115/115 97/97/97 116/116/116
f 97/97/97 86/86/86 116/116/116
f 114/114/114 111/111/111 117/117/117
f 114/114/114 117/117/117 118/118/118
f 119/119/119 118/118/118 117/117/117
f 119/119/119 117/117/117 120/120/120
f 120/120/120 121/121/121 119/119/119
f 122/122/122 121/121/121 120/120/120
f 117/117/117 123/123/123 120/120/120
f 117/117/117 111/111/111 123/123/123
f 111/111/111 124/124/124 123/123/123
f 120/120/120 125/125/125 122/122/122
f 123/123/123 125/125/125 120/120/120
f 124/124/124 125/125/125 123/123/123
f 126/126/126 122/122/122 125/125/125
f 125/125/125 124/124/124 126/126/126
f 126/126/126 124/124/124 127/127/127
f 116/116/116 86/86/86 128/128/128
f 66/66/66 128/128/128 86/86/86
f 65/65/65 128/128/128 66/66/66
f 128/128/128 65/65/65 52/52/52
f 116/116/116 128/128/128 52/52/52
f 52/52/52 129/129/129 116/116/116
f 129/129/129 115/115/115 116/116/116
f 13/13/13 129/129/129 52/52/52
f 129/129/129 106/106/106 115/115/115
f 130/130/130 129/129/129 13/13/13
f 130/130/130 106/106/106 129/129/129
f 131/131/131 130/130/130 13/13/13
f 127/127/127 132/132/132 131/131/131
f 131/131/131 132/132/132 130/130/130
f 124/124/124 132/132/132 127/127/127
f 130/130/130 133/133/133 106/106/106
f 132/132/132 133/133/133 130/130/130
f 124/124/124 133/133/133 132/132/132
f 133/133/133 108/108/108 106/106/106
f 124/124/124 134/134/134 133/133/133
f 134/134/134 108/108/108 133/133/133
f 111/111/111 134/134/134 124/124/124
f 111/111/111 108/108/108 134/134/134
