g GlassesBigRight
v -0.002429461 -0.001139461 -0.0005706853
v -0.002600198 -0.0005501309 -0.0007435244
v -0.002626026 2.077565E-05 -0.0006091362
v -0.001924913 -0.0008513713 -0.0002598607
v -0.001629485 -0.001743129 -0.0002846104
v -0.00187692 -0.001969217 -0.000527429
v -0.001105241 -0.002437048 -0.0003031272
v -0.001904855 0.0001204127 -0.0002074534
v -0.001256005 -0.001026285 -1.196265E-05
v -0.0008322489 -0.001837043 -1.794636E-05
v 3.775835E-05 -0.002511401 -5.49972E-06
v -0.0006599828 -0.002674234 -0.0003275436
v 3.775835E-05 -0.00276916 -0.0002285129
v 0.0009375143 -0.002550306 5.087435E-05
v 3.775835E-05 -0.001040003 0.0003263044
v 0.0009808069 -0.001931101 0.0002596128
v 0.001446175 -0.002310572 0.0001192135
v -0.002266242 0.0008104878 -0.0004309773
v -0.001717814 0.001369473 -0.0002579319
v -0.002510335 0.0007736929 -0.0006275284
v -0.0022142 0.001389762 -0.0005713177
v -0.00181387 0.001888986 -0.0005168366
v -0.0006926194 -0.0001136323 0.0002074981
v 0.0007062244 -0.001366984 0.0003499305
v 0.001861453 -0.001667655 0.0002639967
v 0.00187361 -0.001986302 8.593201E-05
v 0.002326007 -0.001363039 0.00023821
v 0.001568486 -0.00100671 0.0004319012
v 0.002337926 -0.0006109896 0.0004038149
v 0.00263971 -0.0002131765 0.000273487
v 0.002571198 0.0004663986 0.0003306943
v 0.0007734618 -0.0004687909 0.0004378992
v 0.00174924 0.0001173015 0.0004803735
v 3.775835E-05 -4.236847E-05 0.0003344899
v 0.001078499 0.0003496754 0.0004600328
v 0.002207653 0.001075248 0.0003409046
v 0.002334321 0.001227491 0.0002290046
v 0.001729872 0.002021669 0.0001352739
v 0.001512438 0.001121025 0.0003951073
v 3.775835E-05 0.0008405828 0.0003087437
v 0.001687122 0.001675011 0.0002742714
v 0.0006329652 0.001514281 0.0003029096
v 0.001087078 0.002288891 0.000109176
v 0.0009981984 0.002482439 -3.26705E-05
v 3.775835E-05 0.002321714 -5.690456E-06
v -1.068681E-05 0.002619951 -0.0001767731
v 3.775835E-05 0.001804805 0.0001471287
v -0.0008494168 0.00189752 -7.200122E-05
v -0.0009973639 0.002442826 -0.0003406167
v -0.0008102864 0.0009770568 0.0001104909
v -0.001197054 0.002169518 -0.0002653468
v -0.001379002 0.0003931172 -1.23328E-05
vt 0.007025439 0.7329073
vt 0.01037242 0.7997831
vt 0.04486293 0.8508207
vt 0.07458231 0.7325799
vt 0.05731058 0.6364242
vt 0.0158093 0.6280627
vt 0.06988086 0.54598
vt 0.1244324 0.819985
vt 0.1311258 0.6828755
vt 0.1301522 0.5885499
vt 0.1766878 0.4847438
vt 0.09723498 0.5004632
vt 0.1573199 0.4558641
vt 0.2569454 0.4359717
vt 0.2517129 0.6188024
vt 0.2936096 0.4921197
vt 0.3167688 0.4329995
vt 0.1213152 0.903354
vt 0.200971 0.9261785
vt 0.09172291 0.9162847
vt 0.1503176 0.9587289
vt 0.2125924 0.9857785
vt 0.2287462 0.7375591
vt 0.2964792 0.5570684
vt 0.3867492 0.4732214
vt 0.3729114 0.4385654
vt 0.4443397 0.4781905
vt 0.3916456 0.5490608
vt 0.479633 0.5485671
vt 0.5290642 0.5670734
vt 0.5553022 0.633705
vt 0.345796 0.635205
vt 0.4621019 0.6418981
vt 0.2990396 0.7088376
vt 0.4123242 0.6944736
vt 0.5498644 0.7072521
vt 0.5713251 0.7163835
vt 0.552429 0.819246
vt 0.4880539 0.7439501
vt 0.3408349 0.7886186
vt 0.530396 0.78732
vt 0.4264415 0.8215233
vt 0.5043544 0.8732495
vt 0.5074868 0.8993388
vt 0.4098147 0.9277854
vt 0.4193318 0.9622689
vt 0.3856923 0.8779088
vt 0.3079059 0.9307696
vt 0.3173077 0.9944842
vt 0.269159 0.8426846
vt 0.2869023 0.9746599
vt 0.1884052 0.8177412
vn -0.5375723 -0.154819 0.8288831
vn -0.8989036 -0.1385151 0.4156752
vn -0.5616823 -0.02326083 0.8270259
vn -0.431723 -0.1178332 0.8942766
vn -0.4021179 -0.2277149 0.8868185
vn -0.4884388 -0.3320913 0.8069343
vn -0.316048 -0.3506936 0.8815485
vn -0.3414597 0.01642976 0.9397529
vn -0.3068068 -0.09237687 0.9472782
vn -0.2548425 -0.2177611 0.942144
vn -0.1584591 -0.3104903 0.9372761
vn -0.2216799 -0.588231 0.777716
vn -0.1273175 -0.6489735 0.7500826
vn -0.04871492 -0.4073368 0.9119778
vn -0.1857907 -0.1220928 0.9749745
vn -0.02055749 -0.2426386 0.9698989
vn 0.1193921 -0.3250926 0.9381154
vn -0.5386071 0.06600233 0.8399679
vn -0.3839492 0.1770826 0.9062145
vn -0.6334673 0.1697064 0.7549297
vn -0.5337674 0.2683328 0.8019289
vn -0.4962218 0.3640134 0.7881993
vn -0.2535996 -0.005198935 0.9672953
vn -0.0935526 -0.1642723 0.9819687
vn 0.04746701 -0.169662 0.9843585
vn 0.403988 -0.4379193 0.8031316
vn 0.3800426 -0.2723037 0.8839787
vn 0.02732812 -0.1234843 0.9919702
vn 0.2000166 -0.08608943 0.9760031
vn 0.5146618 -0.1119366 0.8500549
vn 0.222924 0.05540793 0.9732599
vn -0.07475016 -0.03730624 0.9965043
vn 0.05786499 0.02046647 0.9981146
vn -0.1415101 0.02366656 0.9896539
vn -0.07929893 0.0586322 0.9951251
vn 0.1705125 0.1677641 0.970969
vn 0.3847191 0.3170643 0.8668688
vn 0.2360711 0.4026785 0.8843758
vn 0.01409486 0.1336508 0.9909282
vn -0.204123 0.1054326 0.9732511
vn 0.05049548 0.2509921 0.9666712
vn -0.08365529 0.1722931 0.981487
vn -0.02148857 0.3411591 0.9397599
vn -0.005851266 0.5512048 0.8343495
vn -0.1351602 0.362929 0.9219621
vn -0.1920347 0.4284593 0.8829186
vn -0.1916532 0.1983746 0.9612058
vn -0.255845 0.2643339 0.9298767
vn -0.2714079 0.4213819 0.8653179
vn -0.2551845 0.1275803 0.9584383
vn -0.3974118 0.3326177 0.8552364
vn -0.3277832 0.06908964 0.9422234
g GlassesBigRight_0
f 3/3/3 2/2/2 1/1/1
f 4/4/4 3/3/3 1/1/1
f 4/4/4 1/1/1 5/5/5
f 1/1/1 6/6/6 5/5/5
f 6/6/6 7/7/7 5/5/5
f 4/4/4 8/8/8 3/3/3
f 5/5/5 9/9/9 4/4/4
f 4/4/4 9/9/9 8/8/8
f 7/7/7 10/10/10 5/5/5
f 10/10/10 9/9/9 5/5/5
f 7/7/7 11/11/11 10/10/10
f 7/7/7 12/12/12 11/11/11
f 12/12/12 13/13/13 11/11/11
f 13/13/13 14/14/14 11/11/11
f 10/10/10 15/15/15 9/9/9
f 10/10/10 11/11/11 15/15/15
f 14/14/14 16/16/16 11/11/11
f 16/16/16 14/14/14 17/17/17
f 3/3/3 8/8/8 18/18/18
f 18/18/18 8/8/8 19/19/19
f 20/20/20 3/3/3 18/18/18
f 21/21/21 20/20/20 18/18/18
f 21/21/21 18/18/18 19/19/19
f 21/21/21 19/19/19 22/22/22
f 8/8/8 9/9/9 23/23/23
f 15/15/15 23/23/23 9/9/9
f 15/15/15 11/11/11 24/24/24
f 16/16/16 24/24/24 11/11/11
f 16/16/16 17/17/17 25/25/25
f 26/26/26 25/25/25 17/17/17
f 26/26/26 27/27/27 25/25/25
f 24/24/24 16/16/16 28/28/28
f 16/16/16 25/25/25 28/28/28
f 29/29/29 25/25/25 27/27/27
f 29/29/29 28/28/28 25/25/25
f 27/27/27 30/30/30 29/29/29
f 29/29/29 30/30/30 31/31/31
f 32/32/32 15/15/15 24/24/24
f 24/24/24 28/28/28 32/32/32
f 33/33/33 28/28/28 29/29/29
f 33/33/33 29/29/29 31/31/31
f 32/32/32 28/28/28 33/33/33
f 15/15/15 32/32/32 34/34/34
f 23/23/23 15/15/15 34/34/34
f 34/34/34 32/32/32 35/35/35
f 32/32/32 33/33/33 35/35/35
f 33/33/33 31/31/31 36/36/36
f 36/36/36 31/31/31 37/37/37
f 38/38/38 36/36/36 37/37/37
f 39/39/39 33/33/33 36/36/36
f 39/39/39 35/35/35 33/33/33
f 34/34/34 35/35/35 40/40/40
f 23/23/23 34/34/34 40/40/40
f 41/41/41 36/36/36 38/38/38
f 41/41/41 39/39/39 36/36/36
f 42/42/42 35/35/35 39/39/39
f 42/42/42 39/39/39 41/41/41
f 40/40/40 35/35/35 42/42/42
f 38/38/38 43/43/43 41/41/41
f 42/42/42 41/41/41 43/43/43
f 38/38/38 44/44/44 43/43/43
f 44/44/44 45/45/45 43/43/43
f 43/43/43 45/45/45 42/42/42
f 46/46/46 45/45/45 44/44/44
f 47/47/47 40/40/40 42/42/42
f 47/47/47 42/42/42 45/45/45
f 46/46/46 48/48/48 45/45/45
f 48/48/48 47/47/47 45/45/45
f 48/48/48 46/46/46 49/49/49
f 50/50/50 40/40/40 47/47/47
f 50/50/50 23/23/23 40/40/40
f 48/48/48 50/50/50 47/47/47
f 51/51/51 48/48/48 49/49/49
f 22/22/22 51/51/51 49/49/49
f 22/22/22 19/19/19 51/51/51
f 19/19/19 48/48/48 51/51/51
f 19/19/19 50/50/50 48/48/48
f 52/52/52 23/23/23 50/50/50
f 19/19/19 52/52/52 50/50/50
f 8/8/8 23/23/23 52/52/52
f 19/19/19 8/8/8 52/52/52
