g glass
v 0 0.00375 -0.00375
v 0.001875 0.003247595 -0.00375
v 0.001875 0.003247595 0.01459824
v 0 0.00375 0.01459824
v 0.001875 0.003247595 -0.00375
v 0.003247595 0.001875 -0.00375
v 0.003247595 0.001875 0.01459824
v 0.001875 0.003247595 0.01459824
v 0.003247595 0.001875 -0.00375
v 0.00375 -1.639177E-10 -0.00375
v 0.00375 -1.639177E-10 0.01459824
v 0.003247595 0.001875 0.01459824
v 0.00375 -1.639177E-10 -0.00375
v 0.003247595 -0.001875 -0.00375
v 0.003247595 -0.001875 0.01459824
v 0.00375 -1.639177E-10 0.01459824
v 0.003247595 -0.001875 -0.00375
v 0.001875 -0.003247595 -0.00375
v 0.001875 -0.003247595 0.01459824
v 0.003247595 -0.001875 0.01459824
v 0.001875 -0.003247595 -0.00375
v 5.662342E-10 -0.00375 -0.00375
v 5.662342E-10 -0.00375 0.01459824
v 0.001875 -0.003247595 0.01459824
v 5.662342E-10 -0.00375 -0.00375
v -0.001874999 -0.003247596 -0.00375
v -0.001874999 -0.003247596 0.01459824
v 5.662342E-10 -0.00375 0.01459824
v -0.001874999 -0.003247596 -0.00375
v -0.003247594 -0.001875001 -0.00375
v -0.003247594 -0.001875001 0.01459824
v -0.001874999 -0.003247596 0.01459824
v -0.003247594 -0.001875001 -0.00375
v -0.00375 -1.743421E-09 -0.00375
v -0.00375 -1.743421E-09 0.01459824
v -0.003247594 -0.001875001 0.01459824
v -0.00375 -1.743421E-09 -0.00375
v -0.003247596 0.001874998 -0.00375
v -0.003247596 0.001874998 0.01459824
v -0.00375 -1.743421E-09 0.01459824
v -0.003247596 0.001874998 -0.00375
v -0.001875002 0.003247594 -0.00375
v -0.001875002 0.003247594 0.01459824
v -0.003247596 0.001874998 0.01459824
v -0.001875002 0.003247594 -0.00375
v 0 0.00375 -0.00375
v 0 0.00375 0.01459824
v -0.001875002 0.003247594 0.01459824
vt 0.6708984 1
vt 0.75 1
vt 0.75 0
vt 0.6708984 0
vt 2.980232E-07 1
vt 0.07922363 1
vt 0.07922363 0
vt 0 5.960464E-08
vt 0.07922363 1
vt 0.1707764 1
vt 0.1707764 0
vt 0.07922363 0
vt 0.1707764 1
vt 0.25 1
vt 0.25 0
vt 0.1707764 0
vt 0.25 1
vt 0.3293457 1
vt 0.3293457 5.960464E-08
vt 0.25 5.960464E-08
vt 0.3293457 1
vt 0.4206543 1
vt 0.4206543 0
vt 0.3293457 5.960464E-08
vt 0.4206543 1
vt 0.5 1
vt 0.5 5.960464E-08
vt 0.4206543 0
vt 0.75 1
vt 0.8291016 1
vt 0.8291016 0
vt 0.75 0
vt 0.8291016 1
vt 0.9208984 1
vt 0.9208984 0
vt 0.8291016 0
vt 0.9208984 1
vt 1 1
vt 1 0
vt 0.9208984 0
vt 0.5 1
vt 0.5791016 1
vt 0.5791016 0
vt 0.5 0
vt 0.5791016 1
vt 0.6708984 1
vt 0.6708984 0
vt 0.5791016 0
vn 0.2587891 0.9658203 0
vn 0.2587891 0.9658203 0
vn 0.2587891 0.9658203 0
vn 0.2587891 0.9658203 0
vn 0.7070313 0.7070313 0
vn 0.7070313 0.7070313 0
vn 0.7070313 0.7070313 0
vn 0.7070313 0.7070313 0
vn 0.9658203 0.2587891 0
vn 0.9658203 0.2587891 0
vn 0.9658203 0.2587891 0
vn 0.9658203 0.2587891 0
vn 0.9658203 -0.2587891 0
vn 0.9658203 -0.2587891 0
vn 0.9658203 -0.2587891 0
vn 0.9658203 -0.2587891 0
vn 0.7070313 -0.7070313 0
vn 0.7070313 -0.7070313 0
vn 0.7070313 -0.7070313 0
vn 0.7070313 -0.7070313 0
vn 0.2587891 -0.9658203 0
vn 0.2587891 -0.9658203 0
vn 0.2587891 -0.9658203 0
vn 0.2587891 -0.9658203 0
vn -0.2587891 -0.9658203 0
vn -0.2587891 -0.9658203 0
vn -0.2587891 -0.9658203 0
vn -0.2587891 -0.9658203 0
vn -0.7070313 -0.7070313 0
vn -0.7070313 -0.7070313 0
vn -0.7070313 -0.7070313 0
vn -0.7070313 -0.7070313 0
vn -0.9658203 -0.2587891 0
vn -0.9658203 -0.2587891 0
vn -0.9658203 -0.2587891 0
vn -0.9658203 -0.2587891 0
vn -0.9658203 0.2587891 0
vn -0.9658203 0.2587891 0
vn -0.9658203 0.2587891 0
vn -0.9658203 0.2587891 0
vn -0.7070313 0.7070313 0
vn -0.7070313 0.7070313 0
vn -0.7070313 0.7070313 0
vn -0.7070313 0.7070313 0
vn -0.2587891 0.9658203 0
vn -0.2587891 0.9658203 0
vn -0.2587891 0.9658203 0
vn -0.2587891 0.9658203 0
g glass_0
f 3/3/3 2/2/2 1/1/1
f 4/4/4 3/3/3 1/1/1
f 7/7/7 6/6/6 5/5/5
f 8/8/8 7/7/7 5/5/5
f 11/11/11 10/10/10 9/9/9
f 12/12/12 11/11/11 9/9/9
f 15/15/15 14/14/14 13/13/13
f 16/16/16 15/15/15 13/13/13
f 19/19/19 18/18/18 17/17/17
f 20/20/20 19/19/19 17/17/17
f 23/23/23 22/22/22 21/21/21
f 24/24/24 23/23/23 21/21/21
f 27/27/27 26/26/26 25/25/25
f 28/28/28 27/27/27 25/25/25
f 31/31/31 30/30/30 29/29/29
f 32/32/32 31/31/31 29/29/29
f 35/35/35 34/34/34 33/33/33
f 36/36/36 35/35/35 33/33/33
f 39/39/39 38/38/38 37/37/37
f 40/40/40 39/39/39 37/37/37
f 43/43/43 42/42/42 41/41/41
f 44/44/44 43/43/43 41/41/41
f 47/47/47 46/46/46 45/45/45
f 48/48/48 47/47/47 45/45/45
