g gold_low_002
v 0.005 0.008660255 0
v -4.371139E-10 0.01 0.004
v -4.371139E-10 0.01 0
v 0.005 0.008660255 0.004
v 0.008660254 0.005 0
v 0.008660254 0.005 0.004
v 0.01 0 0
v 0.01 0 0.004
v 0.008660251 -0.005000006 0
v 0.008660251 -0.005000006 0.004
v 0.004999995 -0.008660258 0
v 0.004999995 -0.008660258 0.004
v -4.649123E-09 -0.01 0
v -4.649123E-09 -0.01 0.004
v -0.005000003 -0.008660252 0
v -0.005000003 -0.008660252 0.004
v -0.008660256 -0.004999998 0
v -0.008660256 -0.004999998 0.004
v -0.01 1.509958E-09 0
v -0.01 1.509958E-09 0.004
v -0.008660254 0.005000001 0
v -0.008660254 0.005000001 0.004
v -0.005000001 0.008660254 0
v -0.005000001 0.008660254 0.004
v -4.371139E-10 0.01 0
v -4.371139E-10 0.01 0.004
v 0.004999995 -0.008660258 0
v -0.005000003 -0.008660252 0
v -4.649123E-09 -0.01 0
v 0.01 0 0
v 0.008660251 -0.005000006 0
v -0.005000001 0.008660254 0
v -0.01 1.509958E-09 0
v -0.008660256 -0.004999998 0
v -0.008660254 0.005000001 0
v 0.005 0.008660255 0
v -4.371139E-10 0.01 0
v 0.008660254 0.005 0
v 0.008660254 0.005 0.004
v -4.371139E-10 0.01 0.004
v 0.005 0.008660255 0.004
v 0.008660251 -0.005000006 0.004
v 0.01 0 0.004
v -0.008660256 -0.004999998 0.004
v -0.008660254 0.005000001 0.004
v -0.005000001 0.008660254 0.004
v -0.01 1.509958E-09 0.004
v -4.649123E-09 -0.01 0.004
v -0.005000003 -0.008660252 0.004
v 0.004999995 -0.008660258 0.004
vt 0.9165039 0.6132813
vt 0.9995117 0.6777344
vt 0.9995117 0.6132813
vt 0.9165039 0.6777344
vt 0.8334961 0.6132813
vt 0.8334961 0.6777344
vt 0.7504883 0.6132813
vt 0.7504883 0.6777344
vt 0.6674805 0.6132813
vt 0.6674805 0.6777344
vt 0.5844727 0.6132813
vt 0.5844727 0.6777344
vt 0.5014648 0.6132813
vt 0.5014648 0.6777344
vt 0.4182129 0.6132813
vt 0.4182129 0.6777344
vt 0.3352051 0.6132813
vt 0.3352051 0.6777344
vt 0.2521973 0.6132813
vt 0.2521973 0.6777344
vt 0.1691895 0.6132813
vt 0.1691895 0.6777344
vt 0.08612061 0.6132813
vt 0.08612061 0.6777344
vt 0.003099442 0.6132813
vt 0.003101349 0.6777344
vt 0.9130859 0.6992188
vt 0.9946289 0.8374023
vt 0.9726563 0.7573242
vt 0.7529297 0.7006836
vt 0.8330078 0.6787109
vt 0.7553711 0.9785156
vt 0.9160156 0.9770508
vt 0.9741211 0.9174805
vt 0.8359375 0.9995117
vt 0.6738281 0.840332
vt 0.6962891 0.9204102
vt 0.6948242 0.7602539
vt 0.08068848 0.9780273
vt 0.0005002022 0.8388672
vt 0.02198792 0.9189453
vt 0.2410889 0.9780273
vt 0.1608887 0.9995117
vt 0.2410889 0.7001953
vt 0.08068848 0.7001953
vt 0.02198792 0.7587891
vt 0.1608887 0.6787109
vt 0.3212891 0.8388672
vt 0.2998047 0.7587891
vt 0.2998047 0.9189453
vn 0.5 0.8662109 0
vn -5.960464E-08 1 0
vn -5.960464E-08 1 0
vn 0.5 0.8662109 0
vn 0.8662109 0.5 0
vn 0.8662109 0.5 0
vn 1 -1.192093E-07 0
vn 1 -1.192093E-07 0
vn 0.8662109 -0.5 0
vn 0.8662109 -0.5 0
vn 0.5 -0.8662109 0
vn 0.5 -0.8662109 0
vn -5.960464E-07 -1 0
vn -5.364418E-07 -1 0
vn -0.5 -0.8662109 0
vn -0.5 -0.8662109 0
vn -0.8662109 -0.5 0
vn -0.8662109 -0.5 0
vn -1 1.788139E-07 0
vn -1 1.788139E-07 0
vn -0.8662109 0.5 0
vn -0.8662109 0.5 0
vn -0.5 0.8662109 0
vn -0.5 0.8662109 0
vn -5.960464E-08 1 0
vn -5.960464E-08 1 0
vn 0 0 -1
vn 0 0 -1
vn 0 0 -1
vn 0 0 -1
vn 0 0 -1
vn 0 0 -1
vn 0 0 -1
vn 0 0 -1
vn 0 0 -1
vn 0 0 -1
vn 0 0 -1
vn 0 0 -1
vn 0 0 1
vn 0 0 1
vn 0 0 1
vn 0 0 1
vn 0 0 1
vn 0 0 1
vn 0 0 1
vn 0 0 1
vn 0 0 1
vn 0 0 1
vn 0 0 1
vn 0 0 1
g gold_low_002_0
f 3/3/3 2/2/2 1/1/1
f 4/4/4 1/1/1 2/2/2
f 1/1/1 4/4/4 5/5/5
f 6/6/6 5/5/5 4/4/4
f 5/5/5 6/6/6 7/7/7
f 8/8/8 7/7/7 6/6/6
f 7/7/7 8/8/8 9/9/9
f 10/10/10 9/9/9 8/8/8
f 9/9/9 10/10/10 11/11/11
f 12/12/12 11/11/11 10/10/10
f 11/11/11 12/12/12 13/13/13
f 14/14/14 13/13/13 12/12/12
f 13/13/13 14/14/14 15/15/15
f 16/16/16 15/15/15 14/14/14
f 15/15/15 16/16/16 17/17/17
f 18/18/18 17/17/17 16/16/16
f 17/17/17 18/18/18 19/19/19
f 20/20/20 19/19/19 18/18/18
f 19/19/19 20/20/20 21/21/21
f 22/22/22 21/21/21 20/20/20
f 21/21/21 22/22/22 23/23/23
f 24/24/24 23/23/23 22/22/22
f 23/23/23 24/24/24 25/25/25
f 26/26/26 25/25/25 24/24/24
f 29/29/29 28/28/28 27/27/27
f 28/28/28 30/30/30 27/27/27
f 27/27/27 30/30/30 31/31/31
f 32/32/32 30/30/30 28/28/28
f 33/33/33 32/32/32 28/28/28
f 34/34/34 33/33/33 28/28/28
f 35/35/35 32/32/32 33/33/33
f 36/36/36 30/30/30 32/32/32
f 37/37/37 36/36/36 32/32/32
f 38/38/38 30/30/30 36/36/36
f 41/41/41 40/40/40 39/39/39
f 40/40/40 42/42/42 39/39/39
f 39/39/39 42/42/42 43/43/43
f 44/44/44 42/42/42 40/40/40
f 45/45/45 44/44/44 40/40/40
f 46/46/46 45/45/45 40/40/40
f 47/47/47 44/44/44 45/45/45
f 48/48/48 42/42/42 44/44/44
f 49/49/49 48/48/48 44/44/44
f 50/50/50 42/42/42 48/48/48
