g GS1_podest_LOW
v -0.03267917 -0.01038193 0.02240981
v -0.03125894 -0.003382632 0.02143589
v 0.03125894 -0.003382632 0.02143589
v 0.03267917 -0.01038193 0.02240981
v -0.02547802 0.01038193 0.01379331
v -0.02547802 0.01038193 -0.0137933
v 0.02547801 0.01038193 -0.0137933
v 0.02547801 0.01038193 0.01379331
v -0.03125894 -0.003382632 -0.02143589
v -0.03267917 -0.01038193 -0.02240981
v 0.03267917 -0.01038193 -0.02240981
v 0.03125894 -0.003382632 -0.02143589
v -0.03267917 -0.01038193 -0.02240981
v -0.03267917 -0.01038193 0.02240981
v 0.03267917 -0.01038193 0.02240981
v 0.03267917 -0.01038193 -0.02240981
v 0.03267917 -0.01038193 0.02240981
v 0.03125894 -0.003382632 0.02143589
v 0.03125894 -0.003382632 -0.02143589
v 0.03267917 -0.01038193 -0.02240981
v -0.03267917 -0.01038193 -0.02240981
v -0.03125894 -0.003382632 -0.02143589
v -0.03125894 -0.003382632 0.02143589
v -0.03267917 -0.01038193 0.02240981
v -0.02770084 -0.003382632 0.01604653
v -0.02547802 0.01038193 0.01379331
v 0.02547801 0.01038193 0.01379331
v 0.02770084 -0.003382632 0.01604653
v 0.02770084 -0.003382632 0.01604653
v 0.02547801 0.01038193 0.01379331
v 0.02547801 0.01038193 -0.0137933
v 0.02770084 -0.003382632 -0.01604653
v 0.02770084 -0.003382632 -0.01604653
v 0.02547801 0.01038193 -0.0137933
v -0.02547802 0.01038193 -0.0137933
v -0.02770084 -0.003382632 -0.01604653
v -0.02770084 -0.003382632 -0.01604653
v -0.02547802 0.01038193 -0.0137933
v -0.02547802 0.01038193 0.01379331
v -0.02770084 -0.003382632 0.01604653
v -0.03125894 -0.003382632 0.02143589
v -0.02770084 -0.003382632 0.01604653
v 0.02770084 -0.003382632 0.01604653
v 0.03125894 -0.003382632 0.02143589
v -0.03125894 -0.003382632 -0.02143589
v 0.02770084 -0.003382632 -0.01604653
v -0.02770084 -0.003382632 -0.01604653
v 0.03125894 -0.003382632 -0.02143589
vt 0.3146973 0.769043
vt 0.3215332 0.8037109
vt 0.6254883 0.8037109
vt 0.6323242 0.769043
vt 0.03189087 0.824707
vt 0.03189087 0.9589844
vt 0.2797852 0.9589844
vt 0.2797852 0.824707
vt 0.6254883 0.8442383
vt 0.6323242 0.8100586
vt 0.3146973 0.8100586
vt 0.3215332 0.8442383
vt 0.008621216 0.6000977
vt 0.008621216 0.7768555
vt 0.2663574 0.7768555
vt 0.2663574 0.6000977
vt 0.652832 0.7695313
vt 0.6572266 0.8041992
vt 0.8657227 0.8041992
vt 0.8706055 0.7695313
vt 0.6542969 0.8115234
vt 0.6591797 0.8461914
vt 0.8676758 0.8461914
vt 0.8720703 0.8115234
vt 0.3200684 0.9272461
vt 0.3308105 0.9951172
vt 0.5786133 0.9951172
vt 0.5893555 0.9272461
vt 0.6000977 0.8530273
vt 0.6108398 0.9208984
vt 0.7451172 0.9208984
vt 0.7558594 0.8530273
vt 0.3200684 0.8525391
vt 0.3308105 0.9204102
vt 0.5786133 0.9204102
vt 0.5893555 0.8525391
vt 0.6015625 0.9272461
vt 0.6123047 0.9951172
vt 0.746582 0.9951172
vt 0.7573242 0.9272461
vt 0.003789902 0.7875977
vt 0.02108765 0.8139648
vt 0.2905273 0.8139648
vt 0.3078613 0.7875977
vt 0.003789902 0.9960938
vt 0.2905273 0.9697266
vt 0.02108765 0.9697266
vt 0.3078613 0.9960938
vn 0 0.1378174 0.9902344
vn 0 0.1378174 0.9902344
vn 0 0.1378174 0.9902344
vn 0 0.1378174 0.9902344
vn 0 1 0
vn 0 1 0
vn 0 1 0
vn 0 1 0
vn 0 0.1378174 -0.9902344
vn 0 0.1378174 -0.9902344
vn 0 0.1378174 -0.9902344
vn 0 0.1378174 -0.9902344
vn 0 -1 0
vn 0 -1 0
vn 0 -1 0
vn 0 -1 0
vn 0.9799805 0.1988525 0
vn 0.9799805 0.1988525 0
vn 0.9799805 0.1988525 0
vn 0.9799805 0.1988525 0
vn -0.9799805 0.1988525 0
vn -0.9799805 0.1988525 0
vn -0.9799805 0.1988525 0
vn -0.9799805 0.1988525 0
vn 0 0.161499 0.9868164
vn 0 0.161499 0.9868164
vn 0 0.161499 0.9868164
vn 0 0.161499 0.9868164
vn 0.9873047 0.1594238 0
vn 0.9873047 0.1594238 0
vn 0.9873047 0.1594238 0
vn 0.9873047 0.1594238 0
vn 0 0.161499 -0.9868164
vn 0 0.161499 -0.9868164
vn 0 0.161499 -0.9868164
vn 0 0.161499 -0.9868164
vn -0.9873047 0.1594238 0
vn -0.9873047 0.1594238 0
vn -0.9873047 0.1594238 0
vn -0.9873047 0.1594238 0
vn 0 1 -5.960464E-08
vn 0 1 -5.960464E-08
vn 0 1 -5.960464E-08
vn 0 1 -5.960464E-08
vn 0 1 5.960464E-08
vn 0 1 0
vn 0 1 5.960464E-08
vn 0 1 0
g GS1_podest_LOW_0
f 3/3/3 2/2/2 1/1/1
f 4/4/4 3/3/3 1/1/1
f 7/7/7 6/6/6 5/5/5
f 8/8/8 7/7/7 5/5/5
f 11/11/11 10/10/10 9/9/9
f 12/12/12 11/11/11 9/9/9
f 15/15/15 14/14/14 13/13/13
f 16/16/16 15/15/15 13/13/13
f 19/19/19 18/18/18 17/17/17
f 20/20/20 19/19/19 17/17/17
f 23/23/23 22/22/22 21/21/21
f 24/24/24 23/23/23 21/21/21
f 27/27/27 26/26/26 25/25/25
f 28/28/28 27/27/27 25/25/25
f 31/31/31 30/30/30 29/29/29
f 32/32/32 31/31/31 29/29/29
f 35/35/35 34/34/34 33/33/33
f 36/36/36 35/35/35 33/33/33
f 39/39/39 38/38/38 37/37/37
f 40/40/40 39/39/39 37/37/37
f 43/43/43 42/42/42 41/41/41
f 44/44/44 43/43/43 41/41/41
f 41/41/41 42/42/42 45/45/45
f 46/46/46 43/43/43 44/44/44
f 42/42/42 47/47/47 45/45/45
f 48/48/48 46/46/46 44/44/44
f 45/45/45 47/47/47 48/48/48
f 47/47/47 46/46/46 48/48/48
