g GS2_podest_LOW
v -0.0325132 -0.01618362 0.02587926
v -0.03132169 -0.01060865 0.02468774
v 0.03132169 -0.01060865 0.02468774
v 0.0325132 -0.01618362 0.02587926
v -0.01940659 0.01618362 0.01277266
v -0.01940659 0.01618362 -0.01277266
v 0.01940659 0.01618362 -0.01277266
v 0.01940659 0.01618362 0.01277266
v -0.03132169 -0.01060865 -0.02468774
v -0.0325132 -0.01618362 -0.02587926
v 0.0325132 -0.01618362 -0.02587926
v 0.03132169 -0.01060865 -0.02468774
v -0.0325132 -0.01618362 -0.02587926
v -0.0325132 -0.01618362 0.02587926
v 0.0325132 -0.01618362 0.02587926
v 0.0325132 -0.01618362 -0.02587926
v 0.0325132 -0.01618362 0.02587926
v 0.03132169 -0.01060865 0.02468774
v 0.03132169 -0.01060865 -0.02468774
v 0.0325132 -0.01618362 -0.02587926
v -0.0325132 -0.01618362 -0.02587926
v -0.03132169 -0.01060865 -0.02468774
v -0.03132169 -0.01060865 0.02468774
v -0.0325132 -0.01618362 0.02587926
v -0.03132169 -0.01060865 0.02468774
v -0.02786634 -0.01010314 0.02123237
v 0.02786634 -0.01010314 0.02123237
v 0.03132169 -0.01060865 0.02468774
v 0.03132169 -0.01060865 0.02468774
v 0.02786634 -0.01010314 0.02123237
v 0.02786634 -0.01010314 -0.02123237
v 0.03132169 -0.01060865 -0.02468774
v 0.03132169 -0.01060865 -0.02468774
v 0.02786634 -0.01010314 -0.02123237
v -0.02786634 -0.01010314 -0.02123237
v -0.03132169 -0.01060865 -0.02468774
v -0.03132169 -0.01060865 -0.02468774
v -0.02786634 -0.01010314 -0.02123237
v -0.02786634 -0.01010314 0.02123237
v -0.03132169 -0.01060865 0.02468774
v -0.02786634 -0.01010314 0.02123237
v -0.02453009 0.008643383 0.01789613
v 0.0245301 0.008643383 0.01789613
v 0.02786634 -0.01010314 0.02123237
v 0.02786634 -0.01010314 0.02123237
v 0.0245301 0.008643383 0.01789613
v 0.0245301 0.008643383 -0.01789613
v 0.02786634 -0.01010314 -0.02123237
v 0.02786634 -0.01010314 -0.02123237
v 0.0245301 0.008643383 -0.01789613
v -0.02453009 0.008643383 -0.01789613
v -0.02786634 -0.01010314 -0.02123237
v -0.02786634 -0.01010314 -0.02123237
v -0.02453009 0.008643383 -0.01789613
v -0.02453009 0.008643383 0.01789613
v -0.02786634 -0.01010314 0.02123237
v -0.02453009 0.008643383 0.01789613
v -0.02011879 0.009106412 0.01348485
v 0.0201188 0.009106412 0.01348485
v 0.0245301 0.008643383 0.01789613
v 0.0245301 0.008643383 0.01789613
v 0.0201188 0.009106412 0.01348485
v 0.0201188 0.009106412 -0.01348485
v 0.0245301 0.008643383 -0.01789613
v 0.0245301 0.008643383 -0.01789613
v 0.0201188 0.009106412 -0.01348485
v -0.02011879 0.009106412 -0.01348485
v -0.02453009 0.008643383 -0.01789613
v -0.02453009 0.008643383 -0.01789613
v -0.02011879 0.009106412 -0.01348485
v -0.02011879 0.009106412 0.01348485
v -0.02453009 0.008643383 0.01789613
v -0.02011879 0.009106412 0.01348485
v -0.01940659 0.01618362 0.01277266
v 0.01940659 0.01618362 0.01277266
v 0.0201188 0.009106412 0.01348485
v 0.0201188 0.009106412 0.01348485
v 0.01940659 0.01618362 0.01277266
v 0.01940659 0.01618362 -0.01277266
v 0.0201188 0.009106412 -0.01348485
v 0.0201188 0.009106412 -0.01348485
v 0.01940659 0.01618362 -0.01277266
v -0.01940659 0.01618362 -0.01277266
v -0.02011879 0.009106412 -0.01348485
v -0.02011879 0.009106412 -0.01348485
v -0.01940659 0.01618362 -0.01277266
v -0.01940659 0.01618362 0.01277266
v -0.02011879 0.009106412 0.01348485
vt 0.6699219 0.3896484
vt 0.6757813 0.4174805
vt 0.9804688 0.4174805
vt 0.9863281 0.3896484
vt 0.4775391 0.5458984
vt 0.4775391 0.6699219
vt 0.6665039 0.6699219
vt 0.6665039 0.5458984
vt 0.9780273 0.4550781
vt 0.9838867 0.4272461
vt 0.6679688 0.4272461
vt 0.6733398 0.4550781
vt 0.9008789 0.925293
vt 0.9008789 0.8242188
vt 0.7739258 0.8242188
vt 0.7739258 0.925293
vt 0.7255859 0.4672852
vt 0.7314453 0.4946289
vt 0.9741211 0.4946289
vt 0.9799805 0.4672852
vt 0.7280273 0.5073242
vt 0.7338867 0.534668
vt 0.9741211 0.534668
vt 0.9799805 0.5073242
vt 0.6826172 0.7524414
vt 0.699707 0.7695313
vt 0.9716797 0.7695313
vt 0.9887695 0.7524414
vt 0.9887695 0.7524414
vt 0.9716797 0.7695313
vt 0.9716797 0.9770508
vt 0.9887695 0.9941406
vt 0.9887695 0.9941406
vt 0.9716797 0.9770508
vt 0.699707 0.9770508
vt 0.6826172 0.9941406
vt 0.6826172 0.9941406
vt 0.699707 0.9770508
vt 0.699707 0.7695313
vt 0.6826172 0.7524414
vt 0.7128906 0.5478516
vt 0.7290039 0.6401367
vt 0.9677734 0.6401367
vt 0.9838867 0.5478516
vt 0.465332 0.6879883
vt 0.4814453 0.7807617
vt 0.6557617 0.7807617
vt 0.671875 0.6879883
vt 0.7128906 0.6503906
vt 0.7290039 0.7426758
vt 0.9677734 0.7426758
vt 0.9838867 0.6503906
vt 0.4626465 0.7939453
vt 0.4790039 0.8862305
vt 0.652832 0.8862305
vt 0.6694336 0.7939453
vt 0.7163086 0.7861328
vt 0.737793 0.8076172
vt 0.9335938 0.8076172
vt 0.9550781 0.7861328
vt 0.9550781 0.7861328
vt 0.9335938 0.8076172
vt 0.9335938 0.9389648
vt 0.9550781 0.9604492
vt 0.9550781 0.9604492
vt 0.9335938 0.9389648
vt 0.737793 0.9389648
vt 0.7163086 0.9604492
vt 0.7163086 0.9604492
vt 0.737793 0.9389648
vt 0.737793 0.8076172
vt 0.7163086 0.7861328
vt 0.7910156 0.342041
vt 0.7949219 0.376709
vt 0.9833984 0.376709
vt 0.9868164 0.342041
vt 0.8535156 0.1945801
vt 0.8569336 0.2290039
vt 0.9814453 0.2290039
vt 0.9848633 0.1945801
vt 0.7900391 0.2932129
vt 0.793457 0.3278809
vt 0.9824219 0.3278809
vt 0.9858398 0.2932129
vt 0.8554688 0.2424316
vt 0.859375 0.2770996
vt 0.9833984 0.2770996
vt 0.9868164 0.2424316
vn 0 0.2089844 0.9780273
vn 0 0.2089844 0.9780273
vn 0 0.2089844 0.9780273
vn 0 0.2089844 0.9780273
vn 0 1 0
vn 0 1 0
vn 0 1 0
vn 0 1 0
vn 0 0.2089844 -0.9780273
vn 0 0.2089844 -0.9780273
vn 0 0.2089844 -0.9780273
vn 0 0.2089844 -0.9780273
vn 0 -1 0
vn 0 -1 0
vn 0 -1 0
vn 0 -1 0
vn 0.9780273 0.2089844 0
vn 0.9780273 0.2089844 0
vn 0.9780273 0.2089844 0
vn 0.9780273 0.2089844 0
vn -0.9780273 0.2089844 0
vn -0.9780273 0.2089844 0
vn -0.9780273 0.2089844 0
vn -0.9780273 0.2089844 0
vn 0 0.9892578 0.1447754
vn 0 0.9892578 0.1447754
vn 0 0.9892578 0.1447754
vn 0 0.9892578 0.1447754
vn 0.1447754 0.9892578 0
vn 0.1447754 0.9892578 0
vn 0.1447754 0.9892578 0
vn 0.1447754 0.9892578 0
vn 0 0.9892578 -0.1447754
vn 0 0.9892578 -0.1447754
vn 0 0.9892578 -0.1447754
vn 0 0.9892578 -0.1447754
vn -0.1447754 0.9892578 0
vn -0.1447754 0.9892578 0
vn -0.1447754 0.9892578 0
vn -0.1447754 0.9892578 0
vn 0 0.1751709 0.984375
vn 0 0.1751709 0.984375
vn 0 0.1751709 0.984375
vn 0 0.1751709 0.984375
vn 0.984375 0.1751709 0
vn 0.984375 0.1751709 0
vn 0.984375 0.1751709 0
vn 0.984375 0.1751709 0
vn 0 0.1751709 -0.984375
vn 0 0.1751709 -0.984375
vn 0 0.1751709 -0.984375
vn 0 0.1751709 -0.984375
vn -0.984375 0.1751709 0
vn -0.984375 0.1751709 0
vn -0.984375 0.1751709 0
vn -0.984375 0.1751709 0
vn 0 0.9946289 0.1043701
vn 0 0.9946289 0.1043701
vn 0 0.9946289 0.1043701
vn 0 0.9946289 0.1043701
vn 0.1043701 0.9946289 0
vn 0.1043701 0.9946289 0
vn 0.1043701 0.9946289 0
vn 0.1043701 0.9946289 0
vn 0 0.9946289 -0.1043701
vn 0 0.9946289 -0.1043701
vn 0 0.9946289 -0.1043701
vn 0 0.9946289 -0.1043701
vn -0.1043701 0.9946289 0
vn -0.1043701 0.9946289 0
vn -0.1043701 0.9946289 0
vn -0.1043701 0.9946289 0
vn 0 0.1000977 0.9951172
vn 0 0.1000977 0.9951172
vn 0 0.1000977 0.9951172
vn 0 0.1000977 0.9951172
vn 0.9951172 0.1000977 0
vn 0.9951172 0.1000977 0
vn 0.9951172 0.1000977 0
vn 0.9951172 0.1000977 0
vn 0 0.1000977 -0.9951172
vn 0 0.1000977 -0.9951172
vn 0 0.1000977 -0.9951172
vn 0 0.1000977 -0.9951172
vn -0.9951172 0.1000977 0
vn -0.9951172 0.1000977 0
vn -0.9951172 0.1000977 0
vn -0.9951172 0.1000977 0
g GS2_podest_LOW_0
f 3/3/3 2/2/2 1/1/1
f 4/4/4 3/3/3 1/1/1
f 7/7/7 6/6/6 5/5/5
f 8/8/8 7/7/7 5/5/5
f 11/11/11 10/10/10 9/9/9
f 12/12/12 11/11/11 9/9/9
f 15/15/15 14/14/14 13/13/13
f 16/16/16 15/15/15 13/13/13
f 19/19/19 18/18/18 17/17/17
f 20/20/20 19/19/19 17/17/17
f 23/23/23 22/22/22 21/21/21
f 24/24/24 23/23/23 21/21/21
f 27/27/27 26/26/26 25/25/25
f 28/28/28 27/27/27 25/25/25
f 31/31/31 30/30/30 29/29/29
f 32/32/32 31/31/31 29/29/29
f 35/35/35 34/34/34 33/33/33
f 36/36/36 35/35/35 33/33/33
f 39/39/39 38/38/38 37/37/37
f 40/40/40 39/39/39 37/37/37
f 43/43/43 42/42/42 41/41/41
f 44/44/44 43/43/43 41/41/41
f 47/47/47 46/46/46 45/45/45
f 48/48/48 47/47/47 45/45/45
f 51/51/51 50/50/50 49/49/49
f 52/52/52 51/51/51 49/49/49
f 55/55/55 54/54/54 53/53/53
f 56/56/56 55/55/55 53/53/53
f 59/59/59 58/58/58 57/57/57
f 60/60/60 59/59/59 57/57/57
f 63/63/63 62/62/62 61/61/61
f 64/64/64 63/63/63 61/61/61
f 67/67/67 66/66/66 65/65/65
f 68/68/68 67/67/67 65/65/65
f 71/71/71 70/70/70 69/69/69
f 72/72/72 71/71/71 69/69/69
f 75/75/75 74/74/74 73/73/73
f 76/76/76 75/75/75 73/73/73
f 79/79/79 78/78/78 77/77/77
f 80/80/80 79/79/79 77/77/77
f 83/83/83 82/82/82 81/81/81
f 84/84/84 83/83/83 81/81/81
f 87/87/87 86/86/86 85/85/85
f 88/88/88 87/87/87 85/85/85
