g GS4_headstone_LOW
v 0.01457161 0.01879211 0.003416867
v 0.02280777 0.01879211 0.003416867
v 0.02133959 -0.0110345 0.003248264
v 0.01363359 -0.0110345 0.003248265
v 0 0.01879211 0.003416867
v 0.01334576 -0.02018662 0.00319653
v 0.02088903 -0.02018662 0.003196529
v 0 -0.0110345 0.003248265
v -0.01457163 0.01879211 0.003416867
v 0.01258247 -0.04445634 0.003059339
v 0.01969437 -0.04445634 0.003059339
v 0 -0.02018662 0.00319653
v 0 -0.04445634 0.003059339
v -0.01258247 -0.04445634 0.003059339
v -0.01334576 -0.02018662 0.00319653
v -0.01969437 -0.04445634 0.003059339
v -0.02088903 -0.02018662 0.003196529
v -0.01363361 -0.0110345 0.003248265
v -0.02133951 -0.0110345 0.003248264
v -0.02280779 0.01879211 0.003416867
v 0.03500593 0.02711 -0.0108432
v 0.03500593 0.02711 0.00651769
v 0.02624374 0.0289182 0.006539622
v 0.02624374 0.0289182 -0.01088782
v 0.0240069 0.03096628 0.00656446
v 0.0240069 0.03096628 -0.01093837
v 0.02241882 0.03475751 0.006610436
v 0.02241882 0.03475751 -0.01103194
v 0.02025549 0.03804343 0.006650287
v 0.02025549 0.03804343 -0.01111304
v 0.0167024 0.03988728 0.006672645
v 0.0167024 0.03988728 -0.01115855
v 0.009756298 0.042416 0.006703315
v 0.009756298 0.042416 -0.01122096
v 0 0.04445634 0.006728057
v 0 0.04445634 -0.01127132
v -0.009756317 0.042416 0.006703315
v -0.009756317 0.042416 -0.01122096
v -0.01670242 0.03988732 0.006672645
v -0.01670242 0.03988732 -0.01115855
v -0.02025549 0.03804344 0.006650287
v -0.02025549 0.03804344 -0.01111304
v -0.02241882 0.03475752 0.006610436
v -0.02241882 0.03475752 -0.01103194
v -0.0240069 0.03096628 0.00656446
v -0.0240069 0.03096628 -0.01093837
v -0.02624374 0.02891823 0.006539622
v -0.02624374 0.02891823 -0.01088782
v -0.03500593 0.02711 0.00651769
v -0.03500593 0.02711 -0.0108432
v -0.03456096 -0.02018662 -0.009675877
v -0.03258436 -0.04445634 0.01067232
v -0.03258436 -0.04445634 -0.009076878
v -0.03456096 -0.02018662 0.01127132
v -0.03217495 -0.0110345 -0.00990176
v -0.03217495 -0.0110345 0.006055101
v -0.03500593 0.02711 -0.0108432
v -0.03500593 0.02711 0.00651769
v 0.01969437 -0.04445634 -0.009076878
v 0.03258428 -0.04445634 -0.009076878
v 0.03456097 -0.02018662 -0.009675877
v 0.02088903 -0.02018662 -0.009675879
v 0 -0.04445634 -0.009076878
v 0.02133959 -0.0110345 -0.00990176
v 0.03217493 -0.0110345 -0.00990176
v 0.02266417 0.01879211 -0.0106379
v 0.03500593 0.02711 -0.0108432
v 0.02624374 0.0289182 -0.01088782
v 0.0240069 0.03096628 -0.01093837
v 0.02241882 0.03475751 -0.01103194
v 0.02025549 0.03804343 -0.01111304
v 0 0.01879211 -0.0106379
v 0.0167024 0.03988728 -0.01115855
v 0.009756298 0.042416 -0.01122096
v 0 0.04445634 -0.01127132
v -0.009756317 0.042416 -0.01122096
v -0.01670242 0.03988732 -0.01115855
v -0.02266418 0.01879211 -0.0106379
v -0.02025549 0.03804344 -0.01111304
v -0.02241882 0.03475752 -0.01103194
v -0.0240069 0.03096628 -0.01093837
v -0.02624374 0.02891823 -0.01088782
v -0.03500593 0.02711 -0.0108432
v -0.03217495 -0.0110345 -0.00990176
v 0 -0.0110345 -0.00990176
v -0.02133951 -0.0110345 -0.00990176
v 0 -0.02018662 -0.009675877
v -0.02088903 -0.02018662 -0.009675879
v -0.03456096 -0.02018662 -0.009675877
v -0.01969437 -0.04445634 -0.009076878
v -0.03258436 -0.04445634 -0.009076878
v -0.0213472 -0.04445634 0.01067232
v -0.03258436 -0.04445634 0.01067232
v -0.03456096 -0.02018662 0.01127132
v -0.0226421 -0.02018662 0.01127132
v -0.02313042 -0.0110345 0.006055101
v -0.03217495 -0.0110345 0.006055101
v -0.02480528 0.0203553 0.006435776
v -0.03500593 0.02711 0.00651769
v -0.02624374 0.02891823 0.006539622
v -0.01462078 0.0203553 0.006435776
v -0.0240069 0.03096628 0.00656446
v -0.02241882 0.03475752 0.006610436
v -0.02025549 0.03804344 0.006650287
v 0 0.0203553 0.006435776
v -0.01670242 0.03988732 0.006672645
v -0.009756317 0.042416 0.006703315
v 0 0.04445634 0.006728057
v 0.009756298 0.042416 0.006703315
v 0.0167024 0.03988728 0.006672645
v 0.01462076 0.0203553 0.006435776
v 0.02025549 0.03804343 0.006650287
v 0.02241882 0.03475751 0.006610436
v 0.0240069 0.03096628 0.00656446
v 0.02624374 0.0289182 0.006539622
v 0.02480528 0.0203553 0.006435776
v 0.03500593 0.02711 0.00651769
v 0.03217493 -0.0110345 0.006055101
v 0.02313042 -0.0110345 0.006055101
v 0.0226421 -0.02018662 0.01127132
v 0.03456097 -0.02018662 0.01127132
v 0.0213472 -0.04445634 0.01067232
v 0.03258428 -0.04445634 0.01067232
v 0.01457161 0.01879211 0.003416867
v 0.02480528 0.0203553 0.006435776
v 0.02280777 0.01879211 0.003416867
v 0.01462076 0.0203553 0.006435776
v 0 0.01879211 0.003416867
v 0 0.0203553 0.006435776
v -0.01457163 0.01879211 0.003416867
v -0.01462078 0.0203553 0.006435776
v -0.02280779 0.01879211 0.003416867
v -0.02480528 0.0203553 0.006435776
v 0.02280777 0.01879211 0.003416867
v 0.02480528 0.0203553 0.006435776
v 0.02313042 -0.0110345 0.006055101
v 0.02133959 -0.0110345 0.003248264
v 0.0226421 -0.02018662 0.01127132
v 0.02088903 -0.02018662 0.003196529
v 0.0213472 -0.04445634 0.01067232
v 0.01969437 -0.04445634 0.003059339
v 0.03500593 0.02711 -0.0108432
v 0.03217493 -0.0110345 0.006055101
v 0.03500593 0.02711 0.00651769
v 0.03217493 -0.0110345 -0.00990176
v 0.03456097 -0.02018662 0.01127132
v 0.03456097 -0.02018662 -0.009675877
v 0.03258428 -0.04445634 0.01067232
v 0.03258428 -0.04445634 -0.009076878
v -0.01969437 -0.04445634 0.003059339
v -0.0213472 -0.04445634 0.01067232
v -0.0226421 -0.02018662 0.01127132
v -0.02088903 -0.02018662 0.003196529
v -0.02313042 -0.0110345 0.006055101
v -0.02133951 -0.0110345 0.003248264
v -0.02480528 0.0203553 0.006435776
v -0.02280779 0.01879211 0.003416867
vt 0.8950195 0.3129883
vt 0.9350586 0.3129883
vt 0.9277344 0.1679688
vt 0.890625 0.1679688
vt 0.8242188 0.3129883
vt 0.8891602 0.1234131
vt 0.9257813 0.1234131
vt 0.8242188 0.1679688
vt 0.753418 0.3129883
vt 0.8852539 0.005393982
vt 0.9199219 0.005393982
vt 0.8242188 0.1234131
vt 0.8242188 0.005393982
vt 0.7626953 0.005393982
vt 0.7592773 0.1234131
vt 0.7280273 0.005393982
vt 0.7226563 0.1234131
vt 0.7578125 0.1679688
vt 0.7202148 0.1679688
vt 0.7133789 0.3129883
vt 0.9946289 0.550293
vt 0.9951172 0.4641113
vt 0.9506836 0.4641113
vt 0.9501953 0.550293
vt 0.9355469 0.4641113
vt 0.9355469 0.550293
vt 0.9155273 0.4641113
vt 0.9150391 0.550293
vt 0.8964844 0.4641113
vt 0.8959961 0.550293
vt 0.8769531 0.4641113
vt 0.8769531 0.550293
vt 0.8413086 0.4641113
vt 0.8413086 0.550293
vt 0.793457 0.4641113
vt 0.793457 0.550293
vt 0.7456055 0.4641113
vt 0.7456055 0.550293
vt 0.7099609 0.4641113
vt 0.7099609 0.550293
vt 0.6904297 0.4641113
vt 0.690918 0.550293
vt 0.6713867 0.4641113
vt 0.671875 0.550293
vt 0.6513672 0.4641113
vt 0.6513672 0.550293
vt 0.6362305 0.4641113
vt 0.6367188 0.550293
vt 0.5922852 0.4641113
vt 0.5922852 0.550293
vt 0.1629639 0.1258545
vt 0.2617188 0.007591248
vt 0.1658936 0.007572174
vt 0.2646484 0.1258545
vt 0.1617432 0.1717529
vt 0.239502 0.1717529
vt 0.1572266 0.3579102
vt 0.2416992 0.3579102
vt 0.3789063 0.003290176
vt 0.3161621 0.003290176
vt 0.3066406 0.1213379
vt 0.3730469 0.1213379
vt 0.4746094 0.003290176
vt 0.3708496 0.1658936
vt 0.3181152 0.1658936
vt 0.364502 0.3110352
vt 0.3044434 0.3513184
vt 0.3469238 0.3601074
vt 0.3579102 0.3701172
vt 0.3654785 0.3886719
vt 0.3762207 0.404541
vt 0.4746094 0.3110352
vt 0.3933105 0.4135742
vt 0.4272461 0.4257813
vt 0.4746094 0.435791
vt 0.5219727 0.4257813
vt 0.5556641 0.4135742
vt 0.5849609 0.3110352
vt 0.5732422 0.404541
vt 0.5834961 0.3886719
vt 0.5913086 0.3701172
vt 0.6020508 0.3601074
vt 0.6450195 0.3513184
vt 0.6308594 0.1658936
vt 0.4746094 0.1658936
vt 0.5786133 0.1658936
vt 0.4746094 0.1213379
vt 0.5761719 0.1213379
vt 0.6425781 0.1213379
vt 0.5703125 0.003290176
vt 0.6328125 0.003290176
vt 0.7202148 0.002653122
vt 0.6650391 0.002574921
vt 0.65625 0.1195068
vt 0.7128906 0.1195068
vt 0.7104492 0.1694336
vt 0.6674805 0.1694336
vt 0.703125 0.3215332
vt 0.652832 0.354248
vt 0.6962891 0.3635254
vt 0.753418 0.3215332
vt 0.7070313 0.3735352
vt 0.7148438 0.392334
vt 0.7255859 0.4084473
vt 0.8251953 0.3215332
vt 0.7431641 0.4174805
vt 0.7773438 0.4299316
vt 0.8251953 0.4399414
vt 0.8730469 0.4299316
vt 0.9072266 0.4174805
vt 0.8969727 0.3215332
vt 0.9248047 0.4084473
vt 0.9355469 0.392334
vt 0.9433594 0.3735352
vt 0.9545898 0.3635254
vt 0.9472656 0.3215332
vt 0.9975586 0.354248
vt 0.9829102 0.1694336
vt 0.9399414 0.1694336
vt 0.9375 0.1195068
vt 0.9941406 0.1195068
vt 0.9301758 0.002653122
vt 0.9853516 0.002574921
vt 0.8779297 0.7402344
vt 0.9272461 0.7568359
vt 0.9179688 0.7402344
vt 0.878418 0.7568359
vt 0.8061523 0.7402344
vt 0.8061523 0.7568359
vt 0.7353516 0.7402344
vt 0.7348633 0.7568359
vt 0.6953125 0.7402344
vt 0.6855469 0.7568359
vt 0.2893066 0.02159119
vt 0.2717285 0.01371002
vt 0.2753906 0.1665039
vt 0.2915039 0.1668701
vt 0.2509766 0.2109375
vt 0.2910156 0.2114258
vt 0.2531738 0.3291016
vt 0.2910156 0.3295898
vt 0.1463623 0.3601074
vt 0.06402588 0.1738281
vt 0.06176758 0.3601074
vt 0.1417236 0.1738281
vt 0.03878784 0.1280518
vt 0.1405029 0.1279297
vt 0.04165649 0.009750366
vt 0.1376953 0.009735107
vt 0.01407623 0.3249512
vt 0.05184937 0.3232422
vt 0.05007935 0.2053223
vt 0.01008606 0.2070313
vt 0.02462769 0.1617432
vt 0.00843811 0.1621094
vt 0.03041077 0.008720398
vt 0.01276398 0.01634216
vn 0 -0.005653381 1
vn 5.960464E-08 -0.005653381 1
vn 5.960464E-08 -0.005653381 1
vn 0 -0.005653381 1
vn 0 -0.005653381 1
vn 0 -0.005653381 1
vn 1.192093E-07 -0.005653381 1
vn 0 -0.005653381 1
vn 0 -0.005653381 1
vn 0 -0.005653381 1
vn 1.192093E-07 -0.005653381 1
vn 0 -0.005653381 1
vn 0 -0.005653381 1
vn 0 -0.005653381 1
vn 0 -0.005653381 1
vn -1.192093E-07 -0.005653381 1
vn -1.192093E-07 -0.005653381 1
vn 0 -0.005653381 1
vn -5.960464E-08 -0.005653381 1
vn -5.960464E-08 -0.005653381 1
vn 0.2021484 0.9794922 0
vn 0.2021484 0.9794922 0
vn 0.3317871 0.9433594 0
vn 0.3325195 0.9428711 0
vn 0.8374023 0.5463867 0
vn 0.8383789 0.5449219 0
vn 0.8833008 0.4692383 0
vn 0.8828125 0.4697266 0
vn 0.6665039 0.7456055 0
vn 0.6655273 0.746582 0
vn 0.3842773 0.9233398 0
vn 0.3840332 0.9233398 0
vn 0.2636719 0.9648438 0
vn 0.2634277 0.9648438 0
vn 0 1 0
vn 0 1 0
vn -0.2636719 0.9648438 0
vn -0.2634277 0.9648438 0
vn -0.3842773 0.9233398 0
vn -0.3840332 0.9233398 0
vn -0.6665039 0.7456055 0
vn -0.6655273 0.746582 0
vn -0.8833008 0.4692383 0
vn -0.8828125 0.4697266 0
vn -0.8374023 0.5463867 0
vn -0.8383789 0.5449219 0
vn -0.3317871 0.9433594 0
vn -0.3325195 0.9428711 0
vn -0.2021484 0.9794922 0
vn -0.2021484 0.9794922 0
vn -1 0.007762909 0
vn -0.996582 -0.08117676 0
vn -0.996582 -0.08117676 0
vn -1 -0.01612854 0
vn -1 -0.005596161 0
vn -1 0.01230621 0
vn -0.9970703 -0.07403564 0
vn -0.9970703 -0.07403564 0
vn 0 -0.02467346 -0.9995117
vn 5.960464E-08 -0.02467346 -0.9995117
vn 5.960464E-08 -0.02467346 -0.9995117
vn 0 -0.02467346 -0.9995117
vn 0 -0.02467346 -0.9995117
vn -5.960464E-08 -0.02467346 -0.9995117
vn -1.788139E-07 -0.02467346 -0.9995117
vn -5.960464E-08 -0.02467346 -0.9995117
vn -2.384186E-07 -0.02467346 -0.9995117
vn -1.788139E-07 -0.02467346 -0.9995117
vn -2.980232E-07 -0.02467346 -0.9995117
vn 0 -0.02467346 -0.9995117
vn 0 -0.02467346 -0.9995117
vn 0 -0.02467346 -0.9995117
vn 0 -0.02467346 -0.9995117
vn -1.192093E-07 -0.02467346 -0.9995117
vn 0 -0.02467346 -0.9995117
vn 1.192093E-07 -0.02467346 -0.9995117
vn 0 -0.02467346 -0.9995117
vn 1.192093E-07 -0.02467346 -0.9995117
vn 0 -0.02467346 -0.9995117
vn -5.364418E-07 -0.02467346 -0.9995117
vn 5.364418E-07 -0.02467346 -0.9995117
vn 1.192093E-07 -0.02467346 -0.9995117
vn 2.980232E-07 -0.02467346 -0.9995117
vn 1.788139E-07 -0.02467346 -0.9995117
vn 0 -0.02467346 -0.9995117
vn 5.960464E-08 -0.02467346 -0.9995117
vn 0 -0.02467346 -0.9995117
vn 0 -0.02467346 -0.9995117
vn -5.960464E-08 -0.02467346 -0.9995117
vn 0 -0.02467346 -0.9995117
vn -5.960464E-08 -0.02467346 -0.9995117
vn 0 -0.02467346 0.9995117
vn 0 -0.02467346 0.9995117
vn 0 0.1149292 0.9931641
vn 0 0.1187744 0.9931641
vn -5.960464E-08 0.1254883 0.9921875
vn -5.960464E-08 0.1279297 0.9916992
vn -5.960464E-08 -0.01212311 1
vn -5.960464E-08 -0.01212311 1
vn -1.788139E-07 -0.01212311 1
vn 5.960464E-08 -0.01212311 1
vn 2.980232E-07 -0.01212311 1
vn 0 -0.01212311 1
vn 5.960464E-08 -0.01212311 1
vn 0 -0.01212311 1
vn 0 -0.01212311 1
vn 0 -0.01212311 1
vn 0 -0.01212311 1
vn 0 -0.01212311 1
vn 0 -0.01212311 1
vn -5.960464E-08 -0.01212311 1
vn -5.960464E-08 -0.01212311 1
vn 0 -0.01212311 1
vn -3.576279E-07 -0.01212311 1
vn 1.788139E-07 -0.01212311 1
vn 1.192093E-07 -0.01212311 1
vn 1.192093E-07 -0.01212311 1
vn 5.960464E-08 0.1279297 0.9916992
vn 5.960464E-08 0.1254883 0.9921875
vn 0 0.1187744 0.9931641
vn 0 0.1149292 0.9931641
vn 0 -0.02467346 0.9995117
vn 0 -0.02467346 0.9995117
vn 0 -0.8881836 0.4597168
vn 0 -0.8881836 0.4597168
vn 0 -0.8881836 0.4597168
vn 0 -0.8881836 0.4597168
vn 0 -0.8881836 0.4597168
vn 0 -0.8881836 0.4597168
vn 0 -0.8881836 0.4597168
vn 0 -0.8881836 0.4597168
vn 0 -0.8881836 0.4597168
vn 0 -0.8881836 0.4597168
vn -0.8422852 0.03842163 0.5375977
vn -0.8422852 0.03842163 0.5375977
vn -0.8881836 0.07574463 0.4536133
vn -0.8837891 0.07208252 0.4621582
vn -0.9716797 0.06100464 0.227417
vn -0.9707031 0.06542969 0.2321777
vn -0.9760742 0.04684448 0.2119141
vn -0.9760742 0.04684448 0.2119141
vn 0.9970703 -0.07403564 0
vn 1 0.01231384 0
vn 0.9970703 -0.07403564 0
vn 1 -0.005596161 0
vn 1 -0.01612854 0
vn 1 0.007762909 0
vn 0.996582 -0.08117676 0
vn 0.996582 -0.08117676 0
vn 0.9760742 0.04684448 0.2119141
vn 0.9760742 0.04684448 0.2119141
vn 0.9716797 0.06100464 0.227417
vn 0.9707031 0.06542969 0.2321777
vn 0.8881836 0.07574463 0.4536133
vn 0.8837891 0.07208252 0.4624023
vn 0.8422852 0.03842163 0.5375977
vn 0.8422852 0.03842163 0.5375977
g GS4_headstone_LOW_0
f 3/3/3 2/2/2 1/1/1
f 4/4/4 3/3/3 1/1/1
f 4/4/4 1/1/1 5/5/5
f 4/4/4 6/6/6 3/3/3
f 6/6/6 7/7/7 3/3/3
f 8/8/8 4/4/4 5/5/5
f 4/4/4 8/8/8 6/6/6
f 8/8/8 5/5/5 9/9/9
f 6/6/6 10/10/10 7/7/7
f 10/10/10 11/11/11 7/7/7
f 6/6/6 12/12/12 10/10/10
f 8/8/8 12/12/12 6/6/6
f 12/12/12 13/13/13 10/10/10
f 14/14/14 13/13/13 12/12/12
f 15/15/15 14/14/14 12/12/12
f 15/15/15 12/12/12 8/8/8
f 14/14/14 15/15/15 16/16/16
f 15/15/15 17/17/17 16/16/16
f 18/18/18 15/15/15 8/8/8
f 15/15/15 18/18/18 17/17/17
f 18/18/18 8/8/8 9/9/9
f 18/18/18 19/19/19 17/17/17
f 18/18/18 9/9/9 19/19/19
f 9/9/9 20/20/20 19/19/19
f 23/23/23 22/22/22 21/21/21
f 24/24/24 23/23/23 21/21/21
f 25/25/25 23/23/23 24/24/24
f 26/26/26 25/25/25 24/24/24
f 27/27/27 25/25/25 26/26/26
f 28/28/28 27/27/27 26/26/26
f 29/29/29 27/27/27 28/28/28
f 30/30/30 29/29/29 28/28/28
f 31/31/31 29/29/29 30/30/30
f 32/32/32 31/31/31 30/30/30
f 33/33/33 31/31/31 32/32/32
f 34/34/34 33/33/33 32/32/32
f 35/35/35 33/33/33 34/34/34
f 36/36/36 35/35/35 34/34/34
f 37/37/37 35/35/35 36/36/36
f 38/38/38 37/37/37 36/36/36
f 39/39/39 37/37/37 38/38/38
f 40/40/40 39/39/39 38/38/38
f 41/41/41 39/39/39 40/40/40
f 42/42/42 41/41/41 40/40/40
f 43/43/43 41/41/41 42/42/42
f 44/44/44 43/43/43 42/42/42
f 45/45/45 43/43/43 44/44/44
f 46/46/46 45/45/45 44/44/44
f 47/47/47 45/45/45 46/46/46
f 48/48/48 47/47/47 46/46/46
f 49/49/49 47/47/47 48/48/48
f 50/50/50 49/49/49 48/48/48
f 53/53/53 52/52/52 51/51/51
f 52/52/52 54/54/54 51/51/51
f 51/51/51 54/54/54 55/55/55
f 54/54/54 56/56/56 55/55/55
f 55/55/55 56/56/56 57/57/57
f 56/56/56 58/58/58 57/57/57
f 61/61/61 60/60/60 59/59/59
f 62/62/62 61/61/61 59/59/59
f 59/59/59 63/63/63 62/62/62
f 62/62/62 64/64/64 61/61/61
f 64/64/64 65/65/65 61/61/61
f 64/64/64 66/66/66 65/65/65
f 66/66/66 67/67/67 65/65/65
f 68/68/68 67/67/67 66/66/66
f 66/66/66 69/69/69 68/68/68
f 66/66/66 70/70/70 69/69/69
f 66/66/66 71/71/71 70/70/70
f 66/66/66 72/72/72 71/71/71
f 72/72/72 73/73/73 71/71/71
f 72/72/72 74/74/74 73/73/73
f 72/72/72 75/75/75 74/74/74
f 72/72/72 76/76/76 75/75/75
f 72/72/72 77/77/77 76/76/76
f 72/72/72 78/78/78 77/77/77
f 78/78/78 79/79/79 77/77/77
f 78/78/78 80/80/80 79/79/79
f 78/78/78 81/81/81 80/80/80
f 78/78/78 82/82/82 81/81/81
f 78/78/78 83/83/83 82/82/82
f 84/84/84 83/83/83 78/78/78
f 85/85/85 72/72/72 66/66/66
f 72/72/72 85/85/85 78/78/78
f 64/64/64 85/85/85 66/66/66
f 64/64/64 62/62/62 85/85/85
f 86/86/86 84/84/84 78/78/78
f 85/85/85 86/86/86 78/78/78
f 62/62/62 87/87/87 85/85/85
f 85/85/85 87/87/87 86/86/86
f 63/63/63 87/87/87 62/62/62
f 86/86/86 88/88/88 84/84/84
f 87/87/87 88/88/88 86/86/86
f 87/87/87 63/63/63 88/88/88
f 88/88/88 89/89/89 84/84/84
f 63/63/63 90/90/90 88/88/88
f 88/88/88 90/90/90 89/89/89
f 90/90/90 91/91/91 89/89/89
f 94/94/94 93/93/93 92/92/92
f 95/95/95 94/94/94 92/92/92
f 95/95/95 96/96/96 94/94/94
f 96/96/96 97/97/97 94/94/94
f 96/96/96 98/98/98 97/97/97
f 98/98/98 99/99/99 97/97/97
f 100/100/100 99/99/99 98/98/98
f 101/101/101 100/100/100 98/98/98
f 101/101/101 102/102/102 100/100/100
f 101/101/101 103/103/103 102/102/102
f 101/101/101 104/104/104 103/103/103
f 101/101/101 105/105/105 104/104/104
f 105/105/105 106/106/106 104/104/104
f 105/105/105 107/107/107 106/106/106
f 105/105/105 108/108/108 107/107/107
f 105/105/105 109/109/109 108/108/108
f 105/105/105 110/110/110 109/109/109
f 105/105/105 111/111/111 110/110/110
f 111/111/111 112/112/112 110/110/110
f 111/111/111 113/113/113 112/112/112
f 111/111/111 114/114/114 113/113/113
f 111/111/111 115/115/115 114/114/114
f 111/111/111 116/116/116 115/115/115
f 116/116/116 117/117/117 115/115/115
f 118/118/118 117/117/117 116/116/116
f 119/119/119 118/118/118 116/116/116
f 119/119/119 120/120/120 118/118/118
f 120/120/120 121/121/121 118/118/118
f 120/120/120 122/122/122 121/121/121
f 122/122/122 123/123/123 121/121/121
f 126/126/126 125/125/125 124/124/124
f 125/125/125 127/127/127 124/124/124
f 124/124/124 127/127/127 128/128/128
f 127/127/127 129/129/129 128/128/128
f 128/128/128 129/129/129 130/130/130
f 129/129/129 131/131/131 130/130/130
f 130/130/130 131/131/131 132/132/132
f 131/131/131 133/133/133 132/132/132
f 136/136/136 135/135/135 134/134/134
f 137/137/137 136/136/136 134/134/134
f 138/138/138 136/136/136 137/137/137
f 139/139/139 138/138/138 137/137/137
f 140/140/140 138/138/138 139/139/139
f 141/141/141 140/140/140 139/139/139
f 144/144/144 143/143/143 142/142/142
f 143/143/143 145/145/145 142/142/142
f 143/143/143 146/146/146 145/145/145
f 146/146/146 147/147/147 145/145/145
f 146/146/146 148/148/148 147/147/147
f 148/148/148 149/149/149 147/147/147
f 152/152/152 151/151/151 150/150/150
f 153/153/153 152/152/152 150/150/150
f 154/154/154 152/152/152 153/153/153
f 155/155/155 154/154/154 153/153/153
f 156/156/156 154/154/154 155/155/155
f 157/157/157 156/156/156 155/155/155
