g GSC_emblem_LOW
v -0.004460366 -0.01076829 0
v -1.736804E-09 -0.01165548 0
v -1.736804E-09 -0.01165548 -0.01171675
v -0.004460366 -0.01076829 -0.01171675
v -0.008241681 -0.008241667 0
v -0.008241681 -0.008241667 -0.01171675
v -0.01076827 -0.004460349 0
v -0.01076827 -0.004460349 -0.01171675
v -0.01165549 -1.430511E-08 0
v -0.01165549 -1.430511E-08 -0.01171675
v -0.01076827 0.004460349 0
v -0.01076827 0.004460349 -0.01171675
v -0.008241677 0.008241667 -5.066395E-09
v -0.008241674 0.008241667 -0.01171675
v -0.004460359 0.01076826 0
v -0.004460359 0.01076826 -0.01171675
v 5.905133E-09 0.01165548 0
v 5.905133E-09 0.01165548 -0.01171675
v 0.00446037 0.01076826 0
v 0.00446037 0.01076826 -0.01171675
v 0.008241679 0.008241667 0
v 0.008241679 0.008241667 -0.01171675
v 0.01076827 0.004460349 0
v 0.01076827 0.004460349 -0.01171675
v 0.01165549 -1.430511E-08 0
v 0.01165549 -1.430511E-08 -0.01171675
v 0.01076827 -0.004460349 0
v 0.01076827 -0.004460349 -0.01171675
v 0.008241675 -0.008241667 0
v 0.008241675 -0.008241667 -0.01171675
v 0.004460363 -0.01076829 0
v 0.004460363 -0.01076829 -0.01171675
v -1.736804E-09 -0.01165548 0
v -1.736804E-09 -0.01165548 -0.01171675
v -0.004460366 -0.01076829 0
v -1.736804E-09 -0.01165548 0.01171675
v -1.736804E-09 -0.01165548 0
v -0.004460366 -0.01076829 0.01171675
v -0.008241681 -0.008241667 0
v -0.008241681 -0.008241667 0.01171675
v -0.01076827 -0.004460349 0
v -0.01076827 -0.004460349 0.01171675
v -0.01165549 -1.430511E-08 0
v -0.01165549 -1.430511E-08 0.01171675
v -0.01076827 0.004460349 0
v -0.01076827 0.004460349 0.01171675
v -0.008241677 0.008241667 -5.066395E-09
v -0.008241674 0.008241667 0.01171675
v -0.004460359 0.01076826 0
v -0.004460359 0.01076826 0.01171675
v 5.905133E-09 0.01165548 0
v 5.905133E-09 0.01165548 0.01171675
v 0.00446037 0.01076826 0
v 0.00446037 0.01076826 0.01171675
v 0.008241679 0.008241667 0
v 0.008241679 0.008241667 0.01171675
v 0.01076827 0.004460349 0
v 0.01076827 0.004460349 0.01171675
v 0.01165549 -1.430511E-08 0
v 0.01165549 -1.430511E-08 0.01171675
v 0.01076827 -0.004460349 0
v 0.01076827 -0.004460349 0.01171675
v 0.008241675 -0.008241667 0
v 0.008241675 -0.008241667 0.01171675
v 0.004460363 -0.01076829 0
v 0.004460363 -0.01076829 0.01171675
v -1.736804E-09 -0.01165548 0
v -1.736804E-09 -0.01165548 0.01171675
v 0.01076827 0.004460349 -0.01171675
v 0.008241679 0.008241667 -0.01171675
v 0 -1.430511E-08 -0.01171675
v 0.01165549 -1.430511E-08 -0.01171675
v 0.00446037 0.01076826 -0.01171675
v 0.01076827 -0.004460349 -0.01171675
v 5.905133E-09 0.01165548 -0.01171675
v 0.008241675 -0.008241667 -0.01171675
v -0.004460359 0.01076826 -0.01171675
v 0.004460363 -0.01076829 -0.01171675
v -0.008241674 0.008241667 -0.01171675
v -1.736804E-09 -0.01165548 -0.01171675
v -0.01076827 0.004460349 -0.01171675
v -0.004460366 -0.01076829 -0.01171675
v -0.01165549 -1.430511E-08 -0.01171675
v -0.008241681 -0.008241667 -0.01171675
v -0.01076827 -0.004460349 -0.01171675
v 0.01076827 0.004460349 0.01171675
v 0 -1.430511E-08 0.01171675
v 0.008241679 0.008241667 0.01171675
v 0.01165549 -1.430511E-08 0.01171675
v 0.00446037 0.01076826 0.01171675
v 0.01076827 -0.004460349 0.01171675
v 5.905133E-09 0.01165548 0.01171675
v 0.008241675 -0.008241667 0.01171675
v -0.004460359 0.01076826 0.01171675
v 0.004460363 -0.01076829 0.01171675
v -0.008241674 0.008241667 0.01171675
v -1.736804E-09 -0.01165548 0.01171675
v -0.01076827 0.004460349 0.01171675
v -0.004460366 -0.01076829 0.01171675
v -0.01165549 -1.430511E-08 0.01171675
v -0.008241681 -0.008241667 0.01171675
v -0.01076827 -0.004460349 0.01171675
vt 0.6557617 0.3493652
vt 0.6777344 0.3493652
vt 0.6777344 0.40625
vt 0.6557617 0.40625
vt 0.6337891 0.3493652
vt 0.6337891 0.40625
vt 0.6113281 0.3493652
vt 0.6113281 0.40625
vt 0.5893555 0.3493652
vt 0.5893555 0.40625
vt 0.5673828 0.3493652
vt 0.5673828 0.40625
vt 0.5449219 0.3493652
vt 0.5449219 0.40625
vt 0.5229492 0.3493652
vt 0.5229492 0.40625
vt 0.5009766 0.3493652
vt 0.5009766 0.40625
vt 0.4787598 0.3493652
vt 0.4787598 0.40625
vt 0.456543 0.3493652
vt 0.456543 0.40625
vt 0.4345703 0.3493652
vt 0.4345703 0.40625
vt 0.4123535 0.3493652
vt 0.4123535 0.40625
vt 0.3903809 0.3493652
vt 0.3903809 0.40625
vt 0.3681641 0.3493652
vt 0.3681641 0.40625
vt 0.3461914 0.3493652
vt 0.3461914 0.40625
vt 0.3239746 0.3493652
vt 0.3239746 0.40625
vt 0.6557617 0.3493652
vt 0.6777344 0.40625
vt 0.6777344 0.3493652
vt 0.6557617 0.40625
vt 0.6337891 0.3493652
vt 0.6337891 0.40625
vt 0.6113281 0.3493652
vt 0.6113281 0.40625
vt 0.5893555 0.3493652
vt 0.5893555 0.40625
vt 0.5673828 0.3493652
vt 0.5673828 0.40625
vt 0.5449219 0.3493652
vt 0.5449219 0.40625
vt 0.5229492 0.3493652
vt 0.5229492 0.40625
vt 0.5009766 0.3493652
vt 0.5009766 0.40625
vt 0.4787598 0.3493652
vt 0.4787598 0.40625
vt 0.456543 0.3493652
vt 0.456543 0.40625
vt 0.4345703 0.3493652
vt 0.4345703 0.40625
vt 0.4123535 0.3493652
vt 0.4123535 0.40625
vt 0.3903809 0.3493652
vt 0.3903809 0.40625
vt 0.3681641 0.3493652
vt 0.3681641 0.40625
vt 0.3461914 0.3493652
vt 0.3461914 0.40625
vt 0.3239746 0.3493652
vt 0.3239746 0.40625
vt 0.2890625 0.4291992
vt 0.2768555 0.4475098
vt 0.2366943 0.4074707
vt 0.293457 0.4074707
vt 0.2585449 0.4597168
vt 0.2890625 0.3857422
vt 0.2366943 0.4641113
vt 0.2768555 0.3674316
vt 0.2150879 0.4597168
vt 0.2585449 0.3549805
vt 0.1966553 0.4475098
vt 0.2366943 0.3508301
vt 0.1843262 0.4291992
vt 0.2150879 0.3549805
vt 0.1800537 0.4074707
vt 0.1966553 0.3674316
vt 0.1843262 0.3857422
vt 0.2890625 0.4291992
vt 0.2366943 0.4074707
vt 0.2768555 0.4475098
vt 0.293457 0.4074707
vt 0.2585449 0.4597168
vt 0.2890625 0.3857422
vt 0.2366943 0.4641113
vt 0.2768555 0.3674316
vt 0.2150879 0.4597168
vt 0.2585449 0.3549805
vt 0.1966553 0.4475098
vt 0.2366943 0.3508301
vt 0.1843262 0.4291992
vt 0.2150879 0.3549805
vt 0.1800537 0.4074707
vt 0.1966553 0.3674316
vt 0.1843262 0.3857422
vn -0.5556641 -0.831543 0
vn -0.1950684 -0.980957 0
vn -0.1950684 -0.980957 0
vn -0.5556641 -0.831543 0
vn -0.831543 -0.5556641 0
vn -0.831543 -0.5556641 0
vn -0.980957 -0.1950684 0
vn -0.980957 -0.1950684 0
vn -0.980957 0.1950684 0
vn -0.980957 0.1950684 0
vn -0.831543 0.5556641 0
vn -0.831543 0.5556641 0
vn -0.5556641 0.831543 0
vn -0.5556641 0.831543 0
vn -0.1950684 0.980957 0
vn -0.1950684 0.980957 0
vn 0.1950684 0.980957 0
vn 0.1950684 0.980957 0
vn 0.5556641 0.831543 0
vn 0.5556641 0.831543 0
vn 0.831543 0.5556641 0
vn 0.831543 0.5556641 0
vn 0.831543 0.5556641 0
vn 0.831543 0.5556641 0
vn 0.980957 -0.1950684 0
vn 0.980957 -0.1950684 0
vn 0.831543 -0.5556641 0
vn 0.831543 -0.5556641 0
vn 0.5556641 -0.831543 0
vn 0.5556641 -0.831543 0
vn 0.1950684 -0.980957 0
vn 0.1950684 -0.980957 0
vn -0.1950684 -0.980957 0
vn -0.1950684 -0.980957 0
vn -0.5556641 -0.831543 0
vn -0.1950684 -0.980957 0
vn -0.1950684 -0.980957 0
vn -0.5556641 -0.831543 0
vn -0.831543 -0.5556641 0
vn -0.831543 -0.5556641 0
vn -0.980957 -0.1950684 0
vn -0.980957 -0.1950684 0
vn -0.980957 0.1950684 0
vn -0.980957 0.1950684 0
vn -0.831543 0.5556641 0
vn -0.831543 0.5556641 0
vn -0.5556641 0.831543 0
vn -0.5556641 0.831543 0
vn -0.1950684 0.980957 0
vn -0.1950684 0.980957 0
vn 0.1950684 0.980957 0
vn 0.1950684 0.980957 0
vn 0.5556641 0.831543 0
vn 0.5556641 0.831543 0
vn 0.831543 0.5556641 0
vn 0.831543 0.5556641 0
vn 0.831543 0.5556641 0
vn 0.831543 0.5556641 0
vn 0.980957 -0.1950684 0
vn 0.980957 -0.1950684 0
vn 0.831543 -0.5556641 0
vn 0.831543 -0.5556641 0
vn 0.5556641 -0.831543 0
vn 0.5556641 -0.831543 0
vn 0.1950684 -0.980957 0
vn 0.1950684 -0.980957 0
vn -0.1950684 -0.980957 0
vn -0.1950684 -0.980957 0
vn 1.192093E-07 0 -1
vn 1.192093E-07 0 -1
vn 1.192093E-07 0 -1
vn 0 -2.384186E-07 -1
vn 3.576279E-07 -3.576279E-07 -1
vn -1.192093E-07 1.788139E-07 -1
vn -6.556511E-07 0 -1
vn 0 0 -1
vn 1.192093E-07 0 -1
vn 5.960464E-08 0 -1
vn -5.960464E-07 -1.788139E-07 -1
vn -5.960464E-08 0 -1
vn 1.192093E-07 4.768372E-07 -1
vn 0 -1.788139E-07 -1
vn 2.384186E-07 4.768372E-07 -1
vn 1.192093E-07 0 -1
vn 2.384186E-07 -4.768372E-07 -1
vn 0 0 1
vn 0 0 1
vn 0 0 1
vn 0 -2.384186E-07 1
vn 4.768372E-07 -3.576279E-07 1
vn -2.384186E-07 1.788139E-07 1
vn -4.768372E-07 0 1
vn 0 0 1
vn 0 0 1
vn 0 0 1
vn -4.768372E-07 -1.788139E-07 1
vn 0 0 1
vn 0 4.768372E-07 1
vn 0 -1.788139E-07 1
vn 2.384186E-07 4.768372E-07 1
vn 0 0 1
vn 2.384186E-07 -4.768372E-07 1
g GSC_emblem_LOW_0
f 3/3/3 2/2/2 1/1/1
f 4/4/4 3/3/3 1/1/1
f 4/4/4 1/1/1 5/5/5
f 6/6/6 4/4/4 5/5/5
f 6/6/6 5/5/5 7/7/7
f 8/8/8 6/6/6 7/7/7
f 8/8/8 7/7/7 9/9/9
f 10/10/10 8/8/8 9/9/9
f 10/10/10 9/9/9 11/11/11
f 12/12/12 10/10/10 11/11/11
f 12/12/12 11/11/11 13/13/13
f 14/14/14 12/12/12 13/13/13
f 14/14/14 13/13/13 15/15/15
f 16/16/16 14/14/14 15/15/15
f 16/16/16 15/15/15 17/17/17
f 18/18/18 16/16/16 17/17/17
f 18/18/18 17/17/17 19/19/19
f 20/20/20 18/18/18 19/19/19
f 20/20/20 19/19/19 21/21/21
f 22/22/22 20/20/20 21/21/21
f 22/22/22 21/21/21 23/23/23
f 24/24/24 22/22/22 23/23/23
f 24/24/24 23/23/23 25/25/25
f 26/26/26 24/24/24 25/25/25
f 26/26/26 25/25/25 27/27/27
f 28/28/28 26/26/26 27/27/27
f 28/28/28 27/27/27 29/29/29
f 30/30/30 28/28/28 29/29/29
f 30/30/30 29/29/29 31/31/31
f 32/32/32 30/30/30 31/31/31
f 32/32/32 31/31/31 33/33/33
f 34/34/34 32/32/32 33/33/33
f 37/37/37 36/36/36 35/35/35
f 36/36/36 38/38/38 35/35/35
f 35/35/35 38/38/38 39/39/39
f 38/38/38 40/40/40 39/39/39
f 39/39/39 40/40/40 41/41/41
f 40/40/40 42/42/42 41/41/41
f 41/41/41 42/42/42 43/43/43
f 42/42/42 44/44/44 43/43/43
f 43/43/43 44/44/44 45/45/45
f 44/44/44 46/46/46 45/45/45
f 45/45/45 46/46/46 47/47/47
f 46/46/46 48/48/48 47/47/47
f 47/47/47 48/48/48 49/49/49
f 48/48/48 50/50/50 49/49/49
f 49/49/49 50/50/50 51/51/51
f 50/50/50 52/52/52 51/51/51
f 51/51/51 52/52/52 53/53/53
f 52/52/52 54/54/54 53/53/53
f 53/53/53 54/54/54 55/55/55
f 54/54/54 56/56/56 55/55/55
f 55/55/55 56/56/56 57/57/57
f 56/56/56 58/58/58 57/57/57
f 57/57/57 58/58/58 59/59/59
f 58/58/58 60/60/60 59/59/59
f 59/59/59 60/60/60 61/61/61
f 60/60/60 62/62/62 61/61/61
f 61/61/61 62/62/62 63/63/63
f 62/62/62 64/64/64 63/63/63
f 63/63/63 64/64/64 65/65/65
f 64/64/64 66/66/66 65/65/65
f 65/65/65 66/66/66 67/67/67
f 66/66/66 68/68/68 67/67/67
f 71/71/71 70/70/70 69/69/69
f 71/71/71 69/69/69 72/72/72
f 71/71/71 73/73/73 70/70/70
f 71/71/71 72/72/72 74/74/74
f 71/71/71 75/75/75 73/73/73
f 71/71/71 74/74/74 76/76/76
f 71/71/71 77/77/77 75/75/75
f 71/71/71 76/76/76 78/78/78
f 71/71/71 79/79/79 77/77/77
f 71/71/71 78/78/78 80/80/80
f 71/71/71 81/81/81 79/79/79
f 71/71/71 80/80/80 82/82/82
f 71/71/71 83/83/83 81/81/81
f 71/71/71 82/82/82 84/84/84
f 71/71/71 85/85/85 83/83/83
f 71/71/71 84/84/84 85/85/85
f 88/88/88 87/87/87 86/86/86
f 86/86/86 87/87/87 89/89/89
f 90/90/90 87/87/87 88/88/88
f 89/89/89 87/87/87 91/91/91
f 92/92/92 87/87/87 90/90/90
f 91/91/91 87/87/87 93/93/93
f 94/94/94 87/87/87 92/92/92
f 93/93/93 87/87/87 95/95/95
f 96/96/96 87/87/87 94/94/94
f 95/95/95 87/87/87 97/97/97
f 98/98/98 87/87/87 96/96/96
f 97/97/97 87/87/87 99/99/99
f 100/100/100 87/87/87 98/98/98
f 99/99/99 87/87/87 101/101/101
f 102/102/102 87/87/87 100/100/100
f 101/101/101 87/87/87 102/102/102
