g Head-Trigger
v -0.1894372 0.3439249 -0.1458861
v -0.1999343 0.2452734 -0.2111593
v -0.1539888 0.2464121 -0.2181127
v -0.152628 0.354576 -0.1433251
v 0 0.2465746 -0.2191061
v 0 0.3567778 -0.1428097
v 0.152628 0.354576 -0.1433251
v 0.1539887 0.2464121 -0.2181127
v 0.1894371 0.3439249 -0.1458861
v 0.1999343 0.2452734 -0.2111593
v -0.1536486 0.3718195 -0.1070308
v 0 0.3747557 -0.1054015
v -0.1981362 0.3514054 -0.1210375
v -0.1894372 0.3439249 -0.1458861
v -0.2183045 0.2427305 -0.1942451
v -0.1999343 0.2452734 -0.2111593
v -0.2209288 0.2369415 -0.1463153
v -0.1999344 0.3304762 -0.04160523
v -0.2209288 0.2137697 -0.1177609
v -0.1999344 0.2810512 0.0127727
v -0.2209288 0.1572642 -0.08495118
v -0.1539888 0.3476683 -0.02467236
v 0 0.3501242 -0.02892965
v 0.1536486 0.3718195 -0.1070308
v -0.1999344 0.1839025 0.07548249
v -0.2209288 0.08753844 -0.05826624
v -0.1539888 0.2927355 0.03184028
v 0 0.2944046 0.02343745
v -0.1999344 0.07746275 0.1263055
v -0.2209289 0.02107077 -0.04730644
v -0.1539888 0.1875933 0.09904626
v -0.1999344 -0.004334664 0.1476741
v -0.2209288 -0.424809 -0.05615365
v 0.1981363 0.3514054 -0.1210375
v 0.1894371 0.3439249 -0.1458861
v 0.1539887 0.3476683 -0.02467236
v 0 0.1881204 0.08933871
v -0.1539888 0.07409265 0.1543161
v 0.2183045 0.2427305 -0.1942451
v 0.1999343 0.2452734 -0.2111593
v 0.2209288 0.2369415 -0.1463155
v 0.1999343 0.3304762 -0.04160523
v 0.2209288 0.2137697 -0.1177609
v 0.1999343 0.2810511 0.0127727
v 0.2209288 0.1572643 -0.08495118
v 0.1539887 0.2927353 0.03184028
v 0.1999343 0.1839025 0.07548249
v 0.2209288 0.08753844 -0.05826624
v 0.1539887 0.1875933 0.09904626
v 0.1999343 0.07746275 0.1263055
v 0.2209288 0.02107077 -0.04730644
v 0 0.07361123 0.1449657
v 0 -0.01150706 0.1685535
v 0.1539887 0.07409265 0.1543164
v 0.1999343 -0.004334664 0.1476741
v 0.2209288 -0.424809 -0.05615365
v 0.1539887 -0.01061042 0.1776266
v 0.1999343 -0.43395 0.1507263
v -0.1539889 -0.01061042 0.1776266
v -0.1999344 -0.43395 0.1507263
v -0.1981363 -0.4640597 0.1407423
v -0.2183045 -0.4610296 -0.05827701
v -0.1536486 -0.4653843 0.1698555
v -0.1539888 -0.4359407 0.1809563
v 0.1539888 -0.4359407 0.1809563
v 0 -0.436225 0.171923
v 0.1981363 -0.4640597 0.1407423
v 0.2183045 -0.4610296 -0.05827701
v 0.1536486 -0.4653843 0.1698555
v 0 -0.4656821 0.1609921
v 0.1894371 -0.47906 0.1259054
v 0.1999343 -0.4838289 -0.05920065
v 0.1539888 -0.4950996 -0.06100662
v 0.152628 -0.4841425 0.1382723
v 0 -0.485187 0.1301824
v 0 -0.4967098 -0.06349009
v -0.1539888 -0.4950996 -0.06100662
v -0.1526281 -0.4841425 0.1382723
v -0.1981363 -0.4640597 0.1407423
v -0.1894372 -0.47906 0.1259054
v -0.1999344 -0.4838289 -0.05920065
v -0.2183045 -0.4610296 -0.05827701
vt 0.952075 0.559524
vt 0.95425 0.549783
vt 0.950391 0.548829
vt 0.948946 0.559837
vt 0.936347 0.546248
vt 0.935048 0.557141
vt 0.921002 0.557089
vt 0.921851 0.545737
vt 0.918002 0.55609
vt 0.91788 0.545893
vt 0.947865 0.562748
vt 0.934731 0.560443
vt 0.952266 0.563941
vt 0.953379 0.56225
vt 0.963797 0.565288
vt 0.964018 0.563122
vt 0.96219 0.569329
vt 0.950492 0.569783
vt 0.962238 0.573228
vt 0.950016 0.575376
vt 0.962557 0.579982
vt 0.946428 0.569175
vt 0.934238 0.567004
vt 0.921544 0.560414
vt 0.949972 0.584525
vt 0.963646 0.588067
vt 0.945951 0.57517
vt 0.933749 0.573252
vt 0.949205 0.593659
vt 0.964296 0.595034
vt 0.945661 0.584777
vt 0.949072 0.600412
vt 0.964296 0.636818
vt 0.917055 0.560874
vt 0.916141 0.55911
vt 0.92181 0.567252
vt 0.933124 0.583137
vt 0.944957 0.594343
vt 0.905283 0.560815
vt 0.905177 0.558705
vt 0.906608 0.564841
vt 0.917743 0.567145
vt 0.905899 0.568627
vt 0.917162 0.572827
vt 0.903588 0.575397
vt 0.921324 0.573237
vt 0.915971 0.581738
vt 0.901276 0.583331
vt 0.920281 0.582637
vt 0.915452 0.590788
vt 0.898974 0.590478
vt 0.932586 0.593024
vt 0.932348 0.599902
vt 0.919825 0.592034
vt 0.915178 0.597181
vt 0.89821 0.633547
vt 0.919602 0.59842
vt 0.912868 0.629535
vt 0.944632 0.601044
vt 0.945915 0.636538
vt 0.946178 0.639123
vt 0.964011 0.639905
vt 0.940471 0.639218
vt 0.941128 0.636364
vt 0.917188 0.630145
vt 0.928472 0.633874
vt 0.91292 0.63162
vt 0.900037 0.637166
vt 0.916607 0.63222
vt 0.927579 0.636416
vt 0.91285 0.633108
vt 0.901786 0.639835
vt 0.905011 0.643713
vt 0.91552 0.634482
vt 0.926343 0.639291
vt 0.917631 0.653118
vt 0.931128 0.658528
vt 0.938756 0.642376
vt 0.942928 0.643541
vt 0.941094 0.644493
vt 0.935096 0.659743
vt 0.937516 0.660431
vn -0.4236863 0.6572611 -0.623296
vn -0.4270833 0.5436791 -0.7225046
vn -0.06372166 0.5661948 -0.8218046
vn -0.1057929 0.7707127 -0.6283389
vn 0 0.5690166 -0.8223259
vn -9.51422E-05 0.762215 -0.647324
vn 0.1058002 0.7707263 -0.6283211
vn 0.06372114 0.5661939 -0.8218054
vn 0.4236864 0.657261 -0.6232958
vn 0.427083 0.5436792 -0.7225047
vn -0.1979092 0.9790091 -0.04871487
vn 0 0.9974644 -0.07116677
vn -0.7066928 0.6916956 -0.148804
vn -0.4237086 0.6572742 -0.623267
vn -0.8663582 0.3722902 -0.3329019
vn -0.4271113 0.5436736 -0.7224922
vn -0.9856943 0.1631933 0.04212455
vn -0.7778414 0.5563391 0.2923177
vn -0.9895377 0.09602442 0.1076779
vn -0.7910015 0.3923215 0.4694682
vn -0.9908071 0.064909 0.1186937
vn -0.2244635 0.8353719 0.5017669
vn 0 0.8573136 0.5147945
vn 0.1979094 0.9790091 -0.04871396
vn -0.8031831 0.2913983 0.5195998
vn -0.992433 0.04074914 0.1158285
vn -0.2067573 0.6127089 0.7627838
vn 0 0.6229171 0.7822878
vn -0.8140193 0.2059105 0.5431147
vn -0.9940069 0.01341196 0.1084912
vn -0.2016113 0.4740127 0.8571259
vn -0.8304881 0.08046676 0.5511939
vn -0.9939832 -0.04215695 0.1010953
vn 0.7066922 0.6916963 -0.1488028
vn 0.4237058 0.6572744 -0.6232686
vn 0.224464 0.8353718 0.5017668
vn 0 0.4867136 0.8735616
vn -0.218455 0.3363121 0.9160631
vn 0.8663583 0.3722892 -0.3329024
vn 0.4271114 0.5437016 -0.7224711
vn 0.9856946 0.1632048 0.04207627
vn 0.7778416 0.5563392 0.2923172
vn 0.9895376 0.09602503 0.1076781
vn 0.7910641 0.3923769 0.4693165
vn 0.990807 0.06490956 0.1186942
vn 0.2068064 0.6126858 0.7627891
vn 0.8031492 0.2914134 0.5196436
vn 0.992433 0.04074893 0.1158293
vn 0.2016111 0.4740128 0.857126
vn 0.8139691 0.2060723 0.5431286
vn 0.9940042 0.01337418 0.1085218
vn 0 0.3546678 0.9349924
vn 0 0.138551 0.9903553
vn 0.2185608 0.3363199 0.916035
vn 0.8304903 0.08041026 0.5511987
vn 0.9939832 -0.0421576 0.1010949
vn 0.2420718 0.1263439 0.9619971
vn 0.8349455 -0.1094556 0.539338
vn -0.2419841 0.1262892 0.9620264
vn -0.8349012 -0.1093911 0.5394196
vn -0.763704 -0.4755251 0.4366144
vn -0.9310973 -0.354583 0.08560766
vn -0.212505 -0.5949147 0.7751891
vn -0.249734 -0.1658506 0.9540055
vn 0.2497339 -0.165851 0.9540054
vn 0 -0.1752584 0.9845225
vn 0.7637192 -0.4754847 0.4366318
vn 0.9310893 -0.3546064 0.08559763
vn 0.2125052 -0.5949136 0.7751898
vn 0 -0.6418929 0.7667943
vn 0.4981835 -0.841583 0.2086893
vn 0.5327244 -0.8441435 0.06022024
vn 0.1017869 -0.9934459 0.05200519
vn 0.132689 -0.9375315 0.3216028
vn 0 -0.9565995 0.2914055
vn 0 -0.9983694 0.0570852
vn -0.1017866 -0.9934461 0.05200509
vn -0.1326893 -0.9375315 0.3216026
vn -0.7637191 -0.4754923 0.4366236
vn -0.4981867 -0.8415815 0.2086878
vn -0.5327246 -0.8441434 0.06022003
vn -0.9310831 -0.354618 0.08561743
g Head-Trigger_0
f 3/3/3 2/2/2 1/1/1
f 4/4/4 3/3/3 1/1/1
f 3/3/3 4/4/4 5/5/5
f 5/5/5 4/4/4 6/6/6
f 6/6/6 7/7/7 5/5/5
f 7/7/7 8/8/8 5/5/5
f 7/7/7 9/9/9 8/8/8
f 9/9/9 10/10/10 8/8/8
f 4/4/4 11/11/11 6/6/6
f 12/12/12 7/7/7 6/6/6
f 6/6/6 11/11/11 12/12/12
f 11/11/11 4/4/4 13/13/13
f 4/4/4 14/14/14 13/13/13
f 13/13/13 14/14/14 15/15/15
f 14/14/14 16/16/16 15/15/15
f 15/15/15 17/17/17 13/13/13
f 13/13/13 17/17/17 18/18/18
f 13/13/13 18/18/18 11/11/11
f 17/17/17 19/19/19 18/18/18
f 18/18/18 19/19/19 20/20/20
f 20/20/20 19/19/19 21/21/21
f 11/11/11 18/18/18 22/22/22
f 22/22/22 18/18/18 20/20/20
f 23/23/23 12/12/12 11/11/11
f 22/22/22 23/23/23 11/11/11
f 24/24/24 7/7/7 12/12/12
f 12/12/12 23/23/23 24/24/24
f 25/25/25 20/20/20 21/21/21
f 21/21/21 26/26/26 25/25/25
f 27/27/27 22/22/22 20/20/20
f 27/27/27 20/20/20 25/25/25
f 23/23/23 22/22/22 28/28/28
f 22/22/22 27/27/27 28/28/28
f 25/25/25 26/26/26 29/29/29
f 29/29/29 26/26/26 30/30/30
f 31/31/31 27/27/27 25/25/25
f 31/31/31 25/25/25 29/29/29
f 32/32/32 29/29/29 30/30/30
f 30/30/30 33/33/33 32/32/32
f 34/34/34 7/7/7 24/24/24
f 35/35/35 7/7/7 34/34/34
f 24/24/24 23/23/23 36/36/36
f 23/23/23 28/28/28 36/36/36
f 28/28/28 27/27/27 37/37/37
f 27/27/27 31/31/31 37/37/37
f 38/38/38 31/31/31 29/29/29
f 38/38/38 29/29/29 32/32/32
f 39/39/39 35/35/35 34/34/34
f 40/40/40 35/35/35 39/39/39
f 39/39/39 34/34/34 41/41/41
f 34/34/34 24/24/24 42/42/42
f 34/34/34 42/42/42 41/41/41
f 42/42/42 24/24/24 36/36/36
f 41/41/41 42/42/42 43/43/43
f 43/43/43 42/42/42 44/44/44
f 42/42/42 36/36/36 44/44/44
f 43/43/43 44/44/44 45/45/45
f 44/44/44 36/36/36 46/46/46
f 28/28/28 46/46/46 36/36/36
f 37/37/37 46/46/46 28/28/28
f 45/45/45 44/44/44 47/47/47
f 44/44/44 46/46/46 47/47/47
f 45/45/45 47/47/47 48/48/48
f 49/49/49 46/46/46 37/37/37
f 47/47/47 46/46/46 49/49/49
f 48/48/48 47/47/47 50/50/50
f 47/47/47 49/49/49 50/50/50
f 48/48/48 50/50/50 51/51/51
f 37/37/37 52/52/52 49/49/49
f 37/37/37 31/31/31 52/52/52
f 31/31/31 38/38/38 52/52/52
f 52/52/52 38/38/38 53/53/53
f 52/52/52 54/54/54 49/49/49
f 50/50/50 49/49/49 54/54/54
f 53/53/53 54/54/54 52/52/52
f 51/51/51 50/50/50 55/55/55
f 50/50/50 54/54/54 55/55/55
f 56/56/56 51/51/51 55/55/55
f 55/55/55 54/54/54 57/57/57
f 57/57/57 54/54/54 53/53/53
f 58/58/58 56/56/56 55/55/55
f 57/57/57 58/58/58 55/55/55
f 38/38/38 59/59/59 53/53/53
f 59/59/59 38/38/38 32/32/32
f 32/32/32 60/60/60 59/59/59
f 32/32/32 33/33/33 60/60/60
f 60/60/60 33/33/33 61/61/61
f 61/61/61 33/33/33 62/62/62
f 61/61/61 63/63/63 60/60/60
f 59/59/59 60/60/60 64/64/64
f 59/59/59 64/64/64 53/53/53
f 60/60/60 63/63/63 64/64/64
f 53/53/53 65/65/65 57/57/57
f 65/65/65 58/58/58 57/57/57
f 53/53/53 64/64/64 66/66/66
f 66/66/66 65/65/65 53/53/53
f 66/66/66 64/64/64 63/63/63
f 67/67/67 56/56/56 58/58/58
f 68/68/68 56/56/56 67/67/67
f 65/65/65 69/69/69 58/58/58
f 69/69/69 65/65/65 66/66/66
f 69/69/69 67/67/67 58/58/58
f 70/70/70 66/66/66 63/63/63
f 70/70/70 69/69/69 66/66/66
f 67/67/67 71/71/71 68/68/68
f 71/71/71 72/72/72 68/68/68
f 73/73/73 72/72/72 71/71/71
f 69/69/69 74/74/74 67/67/67
f 74/74/74 71/71/71 67/67/67
f 74/74/74 73/73/73 71/71/71
f 74/74/74 69/69/69 70/70/70
f 73/73/73 74/74/74 75/75/75
f 75/75/75 74/74/74 70/70/70
f 76/76/76 73/73/73 75/75/75
f 75/75/75 77/77/77 76/76/76
f 63/63/63 78/78/78 70/70/70
f 70/70/70 78/78/78 75/75/75
f 78/78/78 77/77/77 75/75/75
f 79/79/79 78/78/78 63/63/63
f 78/78/78 80/80/80 77/77/77
f 80/80/80 78/78/78 79/79/79
f 80/80/80 81/81/81 77/77/77
f 79/79/79 82/82/82 80/80/80
f 80/80/80 82/82/82 81/81/81
