g Icon-Cards
v 0.002879454 -0.0005546259 4.013455E-05
v 0.002879454 -0.0006567792 0.0002590302
v 0.002879454 -0.0005546259 0.0001383546
v 0.002879454 -0.00182298 4.01343E-05
v 0.002782771 -0.00177297 -9.412587E-05
v 0.002782772 -0.000554626 -9.412564E-05
v 0.002879454 -0.001823057 0.0002454456
v 0.002797058 -0.001818589 0.0002879455
v 0.002836954 -0.0006343917 0.0002879458
v -0.001499198 -0.0006343913 0.0002879451
v -0.002771539 -0.00182607 0.0002879446
v -0.001610208 -0.0005233816 0.0002879451
v 0.002757035 -0.001919631 0.0002454455
v 0.002879454 -0.00182298 4.01343E-05
v -0.002823903 0.001832667 0.0002879453
v -0.001610208 0.00186626 0.0002879455
v -0.001626199 0.00191964 0.0002663289
v -0.002835224 0.00191964 0.0002454453
v -0.001532073 0.00191964 0.0001570613
v -0.002835155 0.00191964 4.013412E-05
v -0.001531672 0.00191964 4.013432E-05
v -0.002738472 0.001817487 -9.412604E-05
v -0.001531444 0.001817487 -9.412586E-05
v -0.002879453 0.001820095 0.0002454453
v -0.002835155 0.00191964 4.013412E-05
v -0.002879453 0.001820018 4.01341E-05
v -0.002738472 0.001817487 -9.412604E-05
v -0.00278277 0.001717864 -9.412607E-05
v -0.002879453 -0.001808098 0.0002454447
v -0.002879453 -0.001808021 4.013341E-05
v -0.002782771 -0.001772969 -9.412674E-05
v -0.002738473 -0.001817477 -9.412674E-05
v -0.002754055 -0.001919631 4.013341E-05
v -0.002754124 -0.001919631 0.0002454447
v 0.002756965 -0.001919631 4.013427E-05
v -0.002754055 -0.001919631 4.013341E-05
v 0.002738473 -0.001817478 -9.412588E-05
v -0.002738473 -0.001817477 -9.412674E-05
v 0.002782771 -0.00177297 -9.412587E-05
v 0.004175209 0.0007507217 0.0002869453
v 0.004175209 0.0006485681 0.000505841
v 0.004175209 0.0007507215 0.0003851655
v 0.004175209 -0.0005218345 0.0002869451
v 0.004078526 -0.0004361754 0.000152685
v 0.004078526 0.0007507217 0.0001526852
v 0.004078526 0.0007507218 -9.688494E-05
v 0.004078526 -0.0004362527 -9.688513E-05
v 0.004175208 -0.0005219117 0.0004922563
v 0.004095925 -0.000517783 0.0005347563
v 0.004132709 0.0006741539 0.0005347565
v -0.0001987157 0.0006741542 0.0005347559
v -0.001511682 -0.0005433981 0.0005347555
v -0.0003037937 0.0007792322 0.0005347559
v -0.001486753 0.003125531 0.0005347562
v -0.0003037934 0.003182492 0.0005347563
v -0.0003304452 0.003224992 0.0005099683
v 0.004083015 -0.0006142797 0.0004922563
v -0.001483344 -0.0006142787 0.0004922554
v 0.004082946 -0.0006142796 0.0002869451
v 0.004175209 -0.0005218345 0.0002869451
v 0.004078526 -0.0004361754 0.000152685
v -0.001583699 -0.0005224369 0.0004922554
v 0.002921954 -0.0006142794 0.0003304458
v -0.001483344 -0.0006142787 0.0003304451
v -0.001483344 -0.0006142787 0.0003304451
v 0.002836954 -0.0006343917 0.0002879458
v -0.001499198 -0.0006343913 0.0002879451
v 0.002879454 -0.0006567792 0.0002590302
v 0.002921954 -0.0006142794 0.0002869449
v 0.002879454 -0.0006567792 0.0002590302
v 0.002879454 -0.0005546259 0.0001383546
v 0.003983674 -0.0005121261 0.0001526849
v 0.002921954 -0.000512126 0.0001526848
v 0.002921954 -0.0005121259 2.642448E-05
v 0.002879454 -0.0005546259 4.013455E-05
v 0.003983743 -0.000512126 -9.688517E-05
v 0.004078526 -0.0004362527 -9.688513E-05
v 0.002825271 -0.000512126 -9.688535E-05
v 0.002782772 -0.000554626 -9.412564E-05
v 0.00537428 0.004346453 0.0003994964
v 0.005374281 0.004346531 -9.688406E-05
v 0.005374279 0.0008732417 -9.688469E-05
v 0.005374279 0.000873319 0.0003994958
v 0.005470962 0.004438235 0.0005337566
v 0.005470962 0.0007689938 0.0005337559
v 0.005470962 0.004438312 0.0007390679
v 0.005470962 0.0007689165 0.0007390672
v 0.005386507 0.0007711543 0.0007815672
v 0.005357951 0.000691068 0.0007390671
v 0.005470962 0.0007689938 0.0005337559
v 0.005357882 0.0006910678 0.0005337559
v 0.005374279 0.000873319 0.0003994958
v 0.005251592 0.0007932214 0.0003994958
v 0.005251661 0.0007932216 -9.688472E-05
v 0.005374279 0.0008732417 -9.688469E-05
v 0.004217708 0.0007932216 0.0002732352
v 0.004121026 0.0007932218 -9.688493E-05
v 0.004121026 0.0007932218 0.000138975
v 0.004078526 0.0007507218 -9.688494E-05
v 0.004078526 0.0007507217 0.0001526852
v 0.004175209 0.0007507217 0.0002869453
v 0.004175209 0.0007507215 0.0003851655
v 0.004217708 0.0007932216 0.0003994956
v 0.004217708 0.000691068 0.0005337557
v 0.004175209 0.0006485681 0.000505841
v 0.004217708 0.000691068 0.0005772565
v -0.0001916919 0.0006910685 0.0007390663
v -0.0002096357 0.000764074 0.0007815663
v -0.0001916919 0.0006910685 0.0005772559
v 0.004132709 0.0006741539 0.0005347565
v -0.0001987157 0.0006741542 0.0005347559
v 0.004175209 0.0006485681 0.000505841
v -0.0002879455 0.0007869107 0.0007390663
v -0.0002008068 0.004431002 0.000781567
v -0.0002879455 0.0007869107 0.0005772559
v -0.0001916919 0.0006910685 0.0005772559
v -0.0003037937 0.0007792322 0.0005347559
v -0.0001987157 0.0006741542 0.0005347559
v -0.0003037934 0.003182492 0.0005347563
v -0.0002879453 0.003206372 0.0005772564
v -0.0003304452 0.003224992 0.0005099683
v -0.0002879453 0.004430794 0.000739067
v -0.0002879452 0.003247208 0.0005337555
v -0.0002353515 0.003224992 0.0003959317
v 0.00539701 0.00446388 0.0007815679
v 0.005371899 0.004530339 0.0007390679
v -0.0001846325 0.00453034 0.000739067
v 0.00537183 0.004530339 0.0005337566
v 0.005470962 0.004438235 0.0005337566
v 0.00537428 0.004346453 0.0003994964
v -0.0001845631 0.004530339 0.0005337558
v -0.0001845631 0.004530339 0.0005337558
v -0.0002879451 0.004430716 0.0005337558
v -8.788061E-05 0.004428186 0.0003994956
v 0.005260304 0.004428186 0.0003994964
v -8.788061E-05 0.004428186 0.0003994956
v -8.794994E-05 0.004428186 -9.688486E-05
v 0.005260373 0.004428186 -9.688406E-05
v 0.005374281 0.004346531 -9.688406E-05
v -0.0001912627 0.004328563 0.0003994956
v -0.0001912627 0.003244746 0.0003994954
v -0.0002351023 0.003224992 0.0002869451
v -0.0001912627 0.003244461 0.0002656541
v -0.0002349605 0.003122839 0.000152685
v -0.0001912625 0.004328641 -9.68849E-05
v -8.794994E-05 0.004428186 -9.688486E-05
v -0.0001912626 0.003145555 0.0001360114
v -0.0002349143 0.003122839 -9.688513E-05
v -0.0001912627 0.0031455 -9.688512E-05
v -0.001531672 0.00191964 4.013432E-05
v -0.001531444 0.001817487 -9.412586E-05
v -0.001487016 0.001862572 -9.68856E-05
v -0.001487016 0.001944304 2.682061E-05
v -0.001487016 0.003023294 -9.688535E-05
v -0.001487016 0.001944408 0.0001526845
v -0.001532073 0.00191964 0.0001570613
v -0.001487016 0.003023216 0.0001526847
v -0.001583699 0.001944468 0.0002869447
v -0.001626199 0.00191964 0.0002663289
v -0.001383634 0.003122839 0.0001526848
v -0.001383703 0.003122838 -9.688531E-05
v -0.001583699 0.00312537 0.0002869449
v -0.001480317 0.003224992 0.0002869449
v -0.001583699 0.003125447 0.0004922561
v -0.001480386 0.003224992 0.0004922562
v -0.001583699 0.001913483 0.0003185055
v -0.001610208 0.00186626 0.0002879455
v -0.001583699 -0.0005224369 0.000318505
v -0.001610208 -0.0005233816 0.0002879451
v -0.001499198 -0.0006343913 0.0002879451
v -0.001480317 0.003224992 0.0002869449
v -0.0002353515 0.003224992 0.0003959317
v -0.0002351023 0.003224992 0.0002869451
v -0.001383634 0.003122839 0.0001526848
v -0.0002349605 0.003122839 0.000152685
v -0.0002349143 0.003122839 -9.688513E-05
v -0.001383703 0.003122838 -9.688531E-05
vt 0.2861972 0.518775
vt 0.288168 0.5189613
vt 0.2870015 0.5184543
vt 0.2896827 0.5295357
vt 0.2882185 0.5296206
vt 0.2848555 0.5193008
vt 0.2912999 0.5289371
vt 0.2919742 0.5285051
vt 0.288613 0.5185594
vt 0.3263207 0.5118701
vt 0.3378591 0.5203691
vt 0.3272437 0.5106323
vt 0.2925828 0.5293361
vt 0.2915343 0.5312023
vt 0.3368876 0.490177
vt 0.3262472 0.4898154
vt 0.3264393 0.4892989
vt 0.3371494 0.4893879
vt 0.325709 0.4883047
vt 0.3372995 0.4876639
vt 0.3258091 0.4872774
vt 0.3365815 0.4861922
vt 0.3259491 0.4858146
vt 0.337491 0.4902542
vt 0.3391976 0.489134
vt 0.3392638 0.4900782
vt 0.340856 0.4898018
vt 0.3407352 0.4907919
vt 0.3388041 0.5200348
vt 0.3405356 0.5201176
vt 0.3419326 0.5199823
vt 0.3419436 0.5205628
vt 0.340403 0.5214489
vt 0.338025 0.5212411
vt 0.2927988 0.5310777
vt 0.3383944 0.5229846
vt 0.2930605 0.5324978
vt 0.3385616 0.5244404
vt 0.2925195 0.5326592
vt 0.56344 0.1845834
vt 0.5620364 0.1860164
vt 0.563171 0.1854239
vt 0.5529502 0.1803678
vt 0.5541149 0.1793288
vt 0.5638944 0.1831866
vt 0.5645817 0.1811137
vt 0.5548044 0.177303
vt 0.5523773 0.1819573
vt 0.5522783 0.1827254
vt 0.5620836 0.1866411
vt 0.5432615 0.2196957
vt 0.5290533 0.2231731
vt 0.5435644 0.2211543
vt 0.5526415 0.2416103
vt 0.5601052 0.2342456
vt 0.5602372 0.2347673
vt 0.5513949 0.1824636
vt 0.528506 0.222695
vt 0.5500867 0.1815205
vt 0.5506097 0.1806168
vt 0.5490178 0.1802863
vt 0.528773 0.2238514
vt 0.5453195 0.1902798
vt 0.5272201 0.2236184
vt 0.5272838 0.222012
vt 0.5445862 0.1907671
vt 0.5268637 0.221927
vt 0.5443953 0.1904077
vt 0.5449595 0.1900839
vt 0.5444217 0.1902624
vt 0.5436199 0.1893324
vt 0.5485648 0.1812725
vt 0.5439489 0.1889914
vt 0.5430019 0.1884265
vt 0.5428796 0.1889454
vt 0.546698 0.1802024
vt 0.5471564 0.1792729
vt 0.5416843 0.1885232
vt 0.5415044 0.1890057
vt 0.6299417 0.9597642
vt 0.6342038 0.9599436
vt 0.6350894 0.9294233
vt 0.6308086 0.9292194
vt 0.6285022 0.9605175
vt 0.6294037 0.928228
vt 0.6267466 0.9604543
vt 0.6276258 0.9281326
vt 0.6268132 0.9282677
vt 0.62651 0.9274995
vt 0.6277246 0.9259088
vt 0.6265863 0.9258777
vt 0.6271306 0.9242924
vt 0.6258419 0.9244233
vt 0.6256911 0.920149
vt 0.6269422 0.9200646
vt 0.616731 0.9233574
vt 0.6159108 0.92016
vt 0.615954 0.9221836
vt 0.6153893 0.92018
vt 0.6154473 0.922335
vt 0.6162202 0.9235116
vt 0.6162722 0.9243409
vt 0.6167358 0.9244441
vt 0.6163065 0.9258515
vt 0.6158678 0.925488
vt 0.6163183 0.9262539
vt 0.577988 0.9282095
vt 0.5779672 0.9289246
vt 0.5779331 0.9268219
vt 0.6154849 0.9258845
vt 0.5778553 0.9264293
vt 0.6157209 0.9255381
vt 0.5772249 0.9291576
vt 0.5786223 0.9598093
vt 0.5758597 0.9289469
vt 0.5763988 0.9278098
vt 0.5754694 0.9288778
vt 0.5760416 0.9276194
vt 0.5758219 0.9490275
vt 0.576212 0.9492672
vt 0.5755664 0.9492626
vt 0.5778039 0.9597629
vt 0.5758199 0.949645
vt 0.5744493 0.9496469
vt 0.6260223 0.9605038
vt 0.625782 0.9611676
vt 0.5785786 0.960729
vt 0.6258854 0.9629222
vt 0.6270176 0.9628237
vt 0.6263744 0.9645343
vt 0.5763573 0.9611546
vt 0.5785375 0.9624922
vt 0.5761944 0.9599686
vt 0.5746228 0.9607069
vt 0.6251054 0.9643696
vt 0.5793227 0.9639437
vt 0.579206 0.9682112
vt 0.6248692 0.9686458
vt 0.6260521 0.96876
vt 0.5747617 0.9594077
vt 0.5744364 0.9500225
vt 0.5735409 0.949595
vt 0.5733066 0.9499919
vt 0.5723248 0.9488504
vt 0.5704591 0.9594159
vt 0.5704117 0.9606236
vt 0.5721472 0.9492592
vt 0.5701756 0.9488084
vt 0.5701554 0.9492339
vt 0.5416633 0.2393243
vt 0.5403423 0.2398123
vt 0.5407303 0.2402005
vt 0.5418927 0.239725
vt 0.5485058 0.2461071
vt 0.542589 0.2388844
vt 0.5423282 0.2385865
vt 0.5498626 0.244422
vt 0.5431682 0.2375489
vt 0.5427195 0.2374942
vt 0.5507792 0.2453843
vt 0.5493793 0.2469264
vt 0.5511743 0.243653
vt 0.5521715 0.2443061
vt 0.5520239 0.2422695
vt 0.5531815 0.2423308
vt 0.5431325 0.237146
vt 0.5425918 0.2371602
vt 0.5276513 0.2248417
vt 0.5274351 0.2251171
vt 0.5268307 0.223809
vt 0.5543349 0.2435734
vt 0.5615065 0.2349496
vt 0.5621494 0.2356934
vt 0.5559003 0.2440159
vt 0.5631357 0.2368247
vt 0.5645817 0.2384642
vt 0.5573286 0.2456064
vn 0.8610994 -0.4202494 -0.2861786
vn 0.857922 -0.3999832 0.3224646
vn 0.9018859 -0.4085664 -0.1402683
vn 0.8589935 -0.4133521 -0.3021096
vn 0.7244447 -0.2847788 -0.6277585
vn 0.7750564 -0.2962769 -0.5581285
vn 0.8078693 -0.374438 0.4551302
vn 0.2369526 -0.224287 0.9452772
vn 0.1035506 -0.6181905 0.7791777
vn -0.1615372 -0.3570115 0.9200264
vn -0.2041112 -0.2288316 0.951827
vn -0.3119332 -0.1126756 0.943399
vn 0.2621609 -0.8315904 0.4896214
vn 0.8589935 -0.4133521 -0.3021096
vn -0.3099832 0.1952922 0.9304684
vn -0.4732576 0.0896342 0.8763521
vn -0.3177675 0.844318 0.4314522
vn -0.4703982 0.7590523 0.4500722
vn -0.296583 0.9460868 -0.1302243
vn -0.5199275 0.7795861 -0.3491718
vn -0.2965896 0.9119563 -0.2834966
vn -0.3391888 0.614776 -0.7120403
vn -0.2921883 0.7608675 -0.579402
vn -0.8942667 0.1739581 0.4123417
vn -0.5199275 0.7795861 -0.3491718
vn -0.9153141 0.2137594 -0.3413315
vn -0.3391888 0.614776 -0.7120403
vn -0.7640626 0.111916 -0.6353607
vn -0.8040234 -0.3359533 0.4905931
vn -0.8742197 -0.3857309 -0.2948755
vn -0.731636 -0.3091287 -0.6075757
vn -0.3225604 -0.7257838 -0.6076123
vn -0.3304613 -0.8954316 -0.2983246
vn -0.2926459 -0.8274593 0.4792385
vn 0.3062323 -0.9026743 -0.3023258
vn -0.3304613 -0.8954316 -0.2983246
vn 0.3009204 -0.7212934 -0.6238452
vn -0.3225604 -0.7257838 -0.6076123
vn 0.7244447 -0.2847788 -0.6277585
vn 0.8614662 -0.4250413 -0.2778776
vn 0.8564692 -0.3942206 0.3332426
vn 0.9018859 -0.4085664 -0.1402683
vn 0.8635749 -0.3748994 -0.3371775
vn 0.8416858 -0.3568291 -0.4052629
vn 0.8846924 -0.3686116 -0.2853856
vn 0.9238803 -0.3826815 0
vn 0.9013363 -0.43312 0.0001220744
vn 0.8262932 -0.3290951 0.4570951
vn 0.2335612 -0.2068571 0.9500839
vn 0.09036726 -0.6404753 0.7626435
vn -0.1682504 -0.4061142 0.8981999
vn -0.3012533 -0.3106227 0.9015321
vn -0.4100246 -0.1724942 0.8956146
vn -0.2032559 0.1949853 0.9595144
vn -0.6484669 0.01837242 0.761021
vn -0.2826715 0.8740782 0.3950748
vn 0.316854 -0.8175578 0.4808355
vn -0.2946968 -0.8550358 0.4266939
vn 0.3716347 -0.8617761 -0.3452964
vn 0.8635749 -0.3748994 -0.3371775
vn 0.8416858 -0.3568291 -0.4052629
vn -0.8411554 -0.3325008 0.4264984
vn 0.07275813 -0.9935575 0.0868886
vn -0.3416561 -0.9016119 0.2652679
vn -0.3416561 -0.9016119 0.2652679
vn 0.1035506 -0.6181905 0.7791777
vn -0.1615372 -0.3570115 0.9200264
vn 0.857922 -0.3999832 0.3224646
vn 0.4444583 -0.8526287 -0.2747383
vn 0.857922 -0.3999832 0.3224646
vn 0.9018859 -0.4085664 -0.1402683
vn 0.270861 -0.8785357 -0.393458
vn 0.3685521 -0.8808811 -0.2970147
vn 0.2837361 -0.9539661 -0.09717282
vn 0.8610994 -0.4202494 -0.2861786
vn 0.3312217 -0.943553 9.155671E-05
vn 0.9013363 -0.43312 0.0001220744
vn 0.4511352 -0.8291158 -0.330218
vn 0.7750564 -0.2962769 -0.5581285
vn 0.8301065 0.3714253 -0.4158925
vn 0.8895345 0.456868 6.103781E-05
vn 0.8793309 -0.4762114 6.10371E-05
vn 0.8187695 -0.3887537 -0.4224775
vn 0.8542899 0.3916818 -0.3417221
vn 0.8198684 -0.4522949 -0.3510626
vn 0.8417529 0.3275637 0.4291319
vn 0.7978796 -0.395018 0.4553557
vn 0.2307546 -0.2562074 0.9386746
vn 0.2413447 -0.8545644 0.4598612
vn 0.8198684 -0.4522949 -0.3510626
vn 0.2961565 -0.88673 -0.3549666
vn 0.8187695 -0.3887537 -0.4224775
vn 0.2295056 -0.8940951 -0.384605
vn 0.2851127 -0.958494 6.103891E-05
vn 0.8793309 -0.4762114 6.10371E-05
vn 0.2897478 -0.95253 -0.09344932
vn 0.3826815 -0.9238803 0
vn 0.4103231 -0.9022837 -0.1323594
vn 0.9238803 -0.3826815 0
vn 0.8846924 -0.3686116 -0.2853856
vn 0.8614662 -0.4250413 -0.2778776
vn 0.9018859 -0.4085664 -0.1402683
vn 0.3685521 -0.8808811 -0.2970147
vn 0.4444583 -0.8526287 -0.2747383
vn 0.8564692 -0.3942206 0.3332426
vn 0.06827194 -0.9940785 0.08453878
vn -0.3170336 -0.8437038 0.4331898
vn -0.2762306 -0.2865461 0.917381
vn -0.3733376 -0.9031151 0.2121368
vn 0.09036726 -0.6404753 0.7626435
vn -0.1682504 -0.4061142 0.8981999
vn 0.8564692 -0.3942206 0.3332426
vn -0.8390055 -0.3152336 0.4435062
vn -0.2236423 0.2056057 0.9527384
vn -0.9051249 -0.3727075 0.2045435
vn -0.3733376 -0.9031151 0.2121368
vn -0.4100246 -0.1724942 0.8956146
vn -0.1682504 -0.4061142 0.8981999
vn -0.6484669 0.01837242 0.761021
vn -0.9828722 0.03570751 0.180796
vn -0.2826715 0.8740782 0.3950748
vn -0.818764 0.3300936 0.4697486
vn -0.8999754 0.4269001 -0.08832205
vn -0.2393641 0.9658188 -0.09949344
vn 0.3017453 0.3242991 0.8965378
vn 0.2994861 0.8590578 0.4151238
vn -0.3078189 0.818287 0.485442
vn 0.3561274 0.8660711 -0.3508476
vn 0.8542899 0.3916818 -0.3417221
vn 0.8301065 0.3714253 -0.4158925
vn -0.3668662 0.8608432 -0.3526445
vn -0.3668662 0.8608432 -0.3526445
vn -0.8539845 0.3854863 -0.3494433
vn -0.3087638 0.861682 -0.4027022
vn 0.2443954 0.8871848 -0.3913746
vn -0.3087638 0.861682 -0.4027022
vn -0.3741042 0.9273866 3.051919E-05
vn 0.3060191 0.9520254 6.103901E-05
vn 0.8895345 0.456868 6.103781E-05
vn -0.8600984 0.3197825 -0.3974544
vn -0.8262198 0.4988388 -0.2617645
vn -0.2644197 0.9229358 -0.2797709
vn -0.911632 0.3825858 -0.1501838
vn -0.2604831 0.910821 -0.3202401
vn -0.9202809 0.3912583 3.051937E-05
vn -0.3741042 0.9273866 3.051919E-05
vn -0.8282959 0.5375072 -0.1581514
vn -0.2371965 0.9714617 -9.155807E-05
vn -0.8545873 0.5193077 -0.0001220752
vn -0.2965896 0.9119563 -0.2834966
vn -0.2921883 0.7608675 -0.579402
vn -0.8242847 0.4546705 -0.3373863
vn -0.9109266 0.3929607 -0.1256766
vn -0.9202699 0.3912841 9.1557E-05
vn -0.8493913 0.4600526 -0.2586232
vn -0.296583 0.9460868 -0.1302243
vn -0.8601167 0.319778 -0.3974183
vn -0.9052901 0.4110016 -0.1073664
vn -0.3177675 0.844318 0.4314522
vn -0.3087595 0.8617004 -0.402666
vn -0.3741305 0.9273761 9.155653E-05
vn -0.8539845 0.3854863 -0.3494433
vn -0.3668702 0.8608525 -0.3526178
vn -0.8107703 0.3278362 0.4849485
vn -0.3148965 0.8154105 0.4857427
vn -0.960603 0.09015475 0.2628954
vn -0.4732576 0.0896342 0.8763521
vn -0.8434903 -0.3952545 0.3637281
vn -0.3119332 -0.1126756 0.943399
vn -0.1615372 -0.3570115 0.9200264
vn -0.3668702 0.8608525 -0.3526178
vn -0.2393641 0.9658188 -0.09949344
vn -0.2644197 0.9229358 -0.2797709
vn -0.3087595 0.8617004 -0.402666
vn -0.2604831 0.910821 -0.3202401
vn -0.2371965 0.9714617 -9.155807E-05
vn -0.3741305 0.9273761 9.155653E-05
g Icon-Cards_0
f 3/3/3 2/2/2 1/1/1
f 1/1/1 2/2/2 4/4/4
f 1/1/1 4/4/4 5/5/5
f 6/6/6 1/1/1 5/5/5
f 7/7/7 4/4/4 2/2/2
f 8/8/8 7/7/7 2/2/2
f 9/9/9 8/8/8 2/2/2
f 9/9/9 10/10/10 8/8/8
f 8/8/8 10/10/10 11/11/11
f 10/10/10 12/12/12 11/11/11
f 13/13/13 7/7/7 8/8/8
f 8/8/8 11/11/11 13/13/13
f 14/14/14 7/7/7 13/13/13
f 11/11/11 12/12/12 15/15/15
f 15/15/15 12/12/12 16/16/16
f 15/15/15 16/16/16 17/17/17
f 18/18/18 15/15/15 17/17/17
f 18/18/18 17/17/17 19/19/19
f 18/18/18 19/19/19 20/20/20
f 19/19/19 21/21/21 20/20/20
f 22/22/22 20/20/20 21/21/21
f 23/23/23 22/22/22 21/21/21
f 18/18/18 24/24/24 15/15/15
f 11/11/11 15/15/15 24/24/24
f 24/24/24 18/18/18 25/25/25
f 26/26/26 24/24/24 25/25/25
f 25/25/25 27/27/27 26/26/26
f 27/27/27 28/28/28 26/26/26
f 29/29/29 11/11/11 24/24/24
f 24/24/24 26/26/26 29/29/29
f 26/26/26 28/28/28 30/30/30
f 26/26/26 30/30/30 29/29/29
f 28/28/28 31/31/31 30/30/30
f 31/31/31 32/32/32 30/30/30
f 32/32/32 33/33/33 30/30/30
f 33/33/33 34/34/34 30/30/30
f 34/34/34 29/29/29 30/30/30
f 34/34/34 11/11/11 29/29/29
f 11/11/11 34/34/34 13/13/13
f 13/13/13 34/34/34 35/35/35
f 34/34/34 36/36/36 35/35/35
f 35/35/35 14/14/14 13/13/13
f 35/35/35 36/36/36 37/37/37
f 35/35/35 37/37/37 14/14/14
f 36/36/36 38/38/38 37/37/37
f 37/37/37 39/39/39 14/14/14
f 42/42/42 41/41/41 40/40/40
f 40/40/40 41/41/41 43/43/43
f 40/40/40 43/43/43 44/44/44
f 45/45/45 40/40/40 44/44/44
f 45/45/45 44/44/44 46/46/46
f 44/44/44 47/47/47 46/46/46
f 48/48/48 43/43/43 41/41/41
f 49/49/49 48/48/48 41/41/41
f 50/50/50 49/49/49 41/41/41
f 50/50/50 51/51/51 49/49/49
f 49/49/49 51/51/51 52/52/52
f 51/51/51 53/53/53 52/52/52
f 52/52/52 53/53/53 54/54/54
f 54/54/54 53/53/53 55/55/55
f 54/54/54 55/55/55 56/56/56
f 57/57/57 48/48/48 49/49/49
f 49/49/49 52/52/52 58/58/58
f 57/57/57 49/49/49 58/58/58
f 48/48/48 57/57/57 59/59/59
f 60/60/60 48/48/48 59/59/59
f 60/60/60 59/59/59 61/61/61
f 52/52/52 54/54/54 62/62/62
f 58/58/58 52/52/52 62/62/62
f 58/58/58 63/63/63 57/57/57
f 57/57/57 63/63/63 59/59/59
f 58/58/58 62/62/62 64/64/64
f 65/65/65 63/63/63 58/58/58
f 63/63/63 65/65/65 66/66/66
f 65/65/65 67/67/67 66/66/66
f 68/68/68 63/63/63 66/66/66
f 59/59/59 63/63/63 69/69/69
f 69/69/69 63/63/63 70/70/70
f 69/69/69 70/70/70 71/71/71
f 72/72/72 59/59/59 69/69/69
f 59/59/59 72/72/72 61/61/61
f 73/73/73 69/69/69 71/71/71
f 73/73/73 72/72/72 69/69/69
f 74/74/74 73/73/73 71/71/71
f 73/73/73 74/74/74 72/72/72
f 75/75/75 74/74/74 71/71/71
f 61/61/61 72/72/72 76/76/76
f 72/72/72 74/74/74 76/76/76
f 77/77/77 61/61/61 76/76/76
f 78/78/78 76/76/76 74/74/74
f 78/78/78 74/74/74 75/75/75
f 79/79/79 78/78/78 75/75/75
f 82/82/82 81/81/81 80/80/80
f 83/83/83 82/82/82 80/80/80
f 83/83/83 80/80/80 84/84/84
f 85/85/85 83/83/83 84/84/84
f 85/85/85 84/84/84 86/86/86
f 87/87/87 85/85/85 86/86/86
f 88/88/88 87/87/87 86/86/86
f 87/87/87 88/88/88 89/89/89
f 90/90/90 87/87/87 89/89/89
f 91/91/91 90/90/90 89/89/89
f 90/90/90 91/91/91 92/92/92
f 91/91/91 93/93/93 92/92/92
f 92/92/92 93/93/93 94/94/94
f 95/95/95 92/92/92 94/94/94
f 93/93/93 96/96/96 94/94/94
f 94/94/94 96/96/96 97/97/97
f 97/97/97 96/96/96 98/98/98
f 99/99/99 97/97/97 98/98/98
f 100/100/100 99/99/99 98/98/98
f 101/101/101 100/100/100 98/98/98
f 96/96/96 101/101/101 98/98/98
f 102/102/102 101/101/101 96/96/96
f 103/103/103 96/96/96 93/93/93
f 103/103/103 102/102/102 96/96/96
f 103/103/103 93/93/93 104/104/104
f 102/102/102 103/103/103 104/104/104
f 93/93/93 91/91/91 104/104/104
f 105/105/105 102/102/102 104/104/104
f 106/106/106 105/105/105 104/104/104
f 91/91/91 106/106/106 104/104/104
f 89/89/89 106/106/106 91/91/91
f 107/107/107 106/106/106 89/89/89
f 108/108/108 107/107/107 89/89/89
f 88/88/88 108/108/108 89/89/89
f 109/109/109 106/106/106 107/107/107
f 110/110/110 106/106/106 109/109/109
f 111/111/111 110/110/110 109/109/109
f 106/106/106 110/110/110 112/112/112
f 107/107/107 108/108/108 113/113/113
f 108/108/108 88/88/88 114/114/114
f 108/108/108 114/114/114 113/113/113
f 113/113/113 115/115/115 107/107/107
f 115/115/115 116/116/116 107/107/107
f 115/115/115 117/117/117 116/116/116
f 117/117/117 118/118/118 116/116/116
f 119/119/119 117/117/117 115/115/115
f 120/120/120 119/119/119 115/115/115
f 113/113/113 120/120/120 115/115/115
f 119/119/119 120/120/120 121/121/121
f 122/122/122 120/120/120 113/113/113
f 114/114/114 122/122/122 113/113/113
f 123/123/123 121/121/121 120/120/120
f 123/123/123 120/120/120 122/122/122
f 124/124/124 121/121/121 123/123/123
f 88/88/88 125/125/125 114/114/114
f 125/125/125 88/88/88 86/86/86
f 114/114/114 125/125/125 126/126/126
f 125/125/125 86/86/86 126/126/126
f 127/127/127 114/114/114 126/126/126
f 122/122/122 114/114/114 127/127/127
f 128/128/128 126/126/126 86/86/86
f 126/126/126 128/128/128 127/127/127
f 129/129/129 128/128/128 86/86/86
f 128/128/128 129/129/129 130/130/130
f 122/122/122 127/127/127 131/131/131
f 128/128/128 132/132/132 127/127/127
f 133/133/133 122/122/122 131/131/131
f 133/133/133 123/123/123 122/122/122
f 131/131/131 134/134/134 133/133/133
f 128/128/128 135/135/135 132/132/132
f 135/135/135 128/128/128 130/130/130
f 135/135/135 136/136/136 132/132/132
f 136/136/136 135/135/135 137/137/137
f 135/135/135 138/138/138 137/137/137
f 135/135/135 130/130/130 138/138/138
f 130/130/130 139/139/139 138/138/138
f 123/123/123 133/133/133 140/140/140
f 134/134/134 140/140/140 133/133/133
f 141/141/141 123/123/123 140/140/140
f 141/141/141 124/124/124 123/123/123
f 142/142/142 124/124/124 141/141/141
f 143/143/143 142/142/142 141/141/141
f 143/143/143 141/141/141 140/140/140
f 144/144/144 142/142/142 143/143/143
f 145/145/145 140/140/140 134/134/134
f 145/145/145 143/143/143 140/140/140
f 146/146/146 145/145/145 134/134/134
f 147/147/147 144/144/144 143/143/143
f 145/145/145 147/147/147 143/143/143
f 148/148/148 144/144/144 147/147/147
f 149/149/149 147/147/147 145/145/145
f 149/149/149 148/148/148 147/147/147
f 152/152/152 151/151/151 150/150/150
f 153/153/153 152/152/152 150/150/150
f 154/154/154 152/152/152 153/153/153
f 155/155/155 153/153/153 150/150/150
f 156/156/156 155/155/155 150/150/150
f 154/154/154 153/153/153 157/157/157
f 153/153/153 155/155/155 157/157/157
f 158/158/158 155/155/155 156/156/156
f 155/155/155 158/158/158 157/157/157
f 159/159/159 158/158/158 156/156/156
f 154/154/154 157/157/157 160/160/160
f 161/161/161 154/154/154 160/160/160
f 160/160/160 157/157/157 162/162/162
f 158/158/158 162/162/162 157/157/157
f 163/163/163 160/160/160 162/162/162
f 162/162/162 164/164/164 163/163/163
f 162/162/162 158/158/158 164/164/164
f 164/164/164 165/165/165 163/163/163
f 166/166/166 158/158/158 159/159/159
f 158/158/158 166/166/166 164/164/164
f 167/167/167 166/166/166 159/159/159
f 168/168/168 166/166/166 167/167/167
f 169/169/169 168/168/168 167/167/167
f 169/169/169 170/170/170 168/168/168
f 170/170/170 64/64/64 168/168/168
f 62/62/62 168/168/168 64/64/64
f 62/62/62 166/166/166 168/168/168
f 164/164/164 166/166/166 62/62/62
f 54/54/54 164/164/164 62/62/62
f 165/165/165 164/164/164 54/54/54
f 165/165/165 54/54/54 56/56/56
f 171/171/171 165/165/165 56/56/56
f 172/172/172 171/171/171 56/56/56
f 173/173/173 171/171/171 172/172/172
f 174/174/174 171/171/171 173/173/173
f 175/175/175 174/174/174 173/173/173
f 174/174/174 175/175/175 176/176/176
f 177/177/177 174/174/174 176/176/176
