g Icosphere
v 0 0 -0.4
v -0.06498222 -0.1999981 -0.3402618
v 0.1701291 -0.1236046 -0.3402617
v 0.2894429 -0.2102901 -0.1788878
v 0.3402591 0 -0.2102944
v 0.1701291 -0.1236046 -0.3402617
v 0 0 -0.4
v -0.2102919 0 -0.3402607
v -0.06498222 -0.1999981 -0.3402618
v 0 0 -0.4
v -0.06498222 0.1999981 -0.3402618
v -0.2102919 0 -0.3402607
v 0 0 -0.4
v 0.1701291 0.1236046 -0.3402617
v -0.06498222 0.1999981 -0.3402618
v 0.2894429 -0.2102901 -0.1788878
v 0.3804231 -0.123605 0
v 0.3402591 0 -0.2102944
v -0.1105552 -0.3402597 -0.1788879
v 0 -0.3999999 0
v 0.1051475 -0.3236046 -0.2102951
v -0.3577705 0 -0.1788862
v -0.3804231 -0.123605 0
v -0.2752757 -0.1999988 -0.2102945
v -0.1105552 0.3402597 -0.1788879
v -0.2351142 0.3236067 0
v -0.2752757 0.1999988 -0.2102945
v 0.2894429 0.2102901 -0.1788878
v 0.2351142 0.3236067 0
v 0.1051475 0.3236046 -0.2102951
v 0.2894429 -0.2102901 -0.1788878
v 0.2351142 -0.3236067 0
v 0.3804231 -0.123605 0
v -0.1105552 -0.3402597 -0.1788879
v -0.2351142 -0.3236067 0
v 0 -0.3999999 0
v -0.3577705 0 -0.1788862
v -0.3804231 0.123605 0
v -0.3804231 -0.123605 0
v -0.1105552 0.3402597 -0.1788879
v 0 0.3999999 0
v -0.2351142 0.3236067 0
v 0.2894429 0.2102901 -0.1788878
v 0.3804231 0.123605 0
v 0.2351142 0.3236067 0
v 0.1105552 -0.3402597 0.1788879
v 0.06498222 -0.1999981 0.3402617
v 0.2752757 -0.1999988 0.2102945
v -0.2894429 -0.2102901 0.1788878
v -0.1701291 -0.1236046 0.3402617
v -0.1051475 -0.3236046 0.2102951
v -0.2894429 0.2102901 0.1788878
v -0.1701291 0.1236046 0.3402617
v -0.3402591 0 0.2102944
v 0.1105552 0.3402597 0.1788879
v 0.06498222 0.1999981 0.3402617
v -0.1051475 0.3236046 0.2102951
v 0.3577705 0 0.1788862
v 0.2102919 0 0.3402607
v 0.2752757 0.1999988 0.2102945
v 0.2102919 0 0.3402607
v 0 0 0.4
v 0.06498222 0.1999981 0.3402617
v 0.2102919 0 0.3402607
v 0.06498222 0.1999981 0.3402617
v 0.2752757 0.1999988 0.2102945
v 0.2752757 0.1999988 0.2102945
v 0.06498222 0.1999981 0.3402617
v 0.1105552 0.3402597 0.1788879
v 0.06498222 0.1999981 0.3402617
v 0 0 0.4
v -0.1701291 0.1236046 0.3402617
v 0.06498222 0.1999981 0.3402617
v -0.1701291 0.1236046 0.3402617
v -0.1051475 0.3236046 0.2102951
v -0.1051475 0.3236046 0.2102951
v -0.1701291 0.1236046 0.3402617
v -0.2894429 0.2102901 0.1788878
v -0.1701291 0.1236046 0.3402617
v 0 0 0.4
v -0.1701291 -0.1236046 0.3402617
v -0.1701291 0.1236046 0.3402617
v -0.1701291 -0.1236046 0.3402617
v -0.3402591 0 0.2102944
v -0.3402591 0 0.2102944
v -0.1701291 -0.1236046 0.3402617
v -0.2894429 -0.2102901 0.1788878
v -0.1701291 -0.1236046 0.3402617
v 0 0 0.4
v 0.06498222 -0.1999981 0.3402617
v -0.1701291 -0.1236046 0.3402617
v 0.06498222 -0.1999981 0.3402617
v -0.1051475 -0.3236046 0.2102951
v -0.1051475 -0.3236046 0.2102951
v 0.06498222 -0.1999981 0.3402617
v 0.1105552 -0.3402597 0.1788879
v 0.06498222 -0.1999981 0.3402617
v 0 0 0.4
v 0.2102919 0 0.3402607
v 0.06498222 -0.1999981 0.3402617
v 0.2102919 0 0.3402607
v 0.2752757 -0.1999988 0.2102945
v 0.2752757 -0.1999988 0.2102945
v 0.2102919 0 0.3402607
v 0.3577705 0 0.1788862
v 0.3804231 0.123605 0
v 0.3577705 0 0.1788862
v 0.2752757 0.1999988 0.2102945
v 0.3804231 0.123605 0
v 0.2752757 0.1999988 0.2102945
v 0.2351142 0.3236067 0
v 0.2351142 0.3236067 0
v 0.2752757 0.1999988 0.2102945
v 0.1105552 0.3402597 0.1788879
v 0 0.3999999 0
v 0.1105552 0.3402597 0.1788879
v -0.1051475 0.3236046 0.2102951
v 0 0.3999999 0
v -0.1051475 0.3236046 0.2102951
v -0.2351142 0.3236067 0
v -0.2351142 0.3236067 0
v -0.1051475 0.3236046 0.2102951
v -0.2894429 0.2102901 0.1788878
v -0.3804231 0.123605 0
v -0.2894429 0.2102901 0.1788878
v -0.3402591 0 0.2102944
v -0.3804231 0.123605 0
v -0.3402591 0 0.2102944
v -0.3804231 -0.123605 0
v -0.3804231 -0.123605 0
v -0.3402591 0 0.2102944
v -0.2894429 -0.2102901 0.1788878
v -0.2351142 -0.3236067 0
v -0.2894429 -0.2102901 0.1788878
v -0.1051475 -0.3236046 0.2102951
v -0.2351142 -0.3236067 0
v -0.1051475 -0.3236046 0.2102951
v 0 -0.3999999 0
v 0 -0.3999999 0
v -0.1051475 -0.3236046 0.2102951
v 0.1105552 -0.3402597 0.1788879
v 0.2351142 -0.3236067 0
v 0.1105552 -0.3402597 0.1788879
v 0.2752757 -0.1999988 0.2102945
v 0.2351142 -0.3236067 0
v 0.2752757 -0.1999988 0.2102945
v 0.3804231 -0.123605 0
v 0.3804231 -0.123605 0
v 0.2752757 -0.1999988 0.2102945
v 0.3577705 0 0.1788862
v 0.2351142 0.3236067 0
v 0.1105552 0.3402597 0.1788879
v 0 0.3999999 0
v 0.2351142 0.3236067 0
v 0 0.3999999 0
v 0.1051475 0.3236046 -0.2102951
v 0.1051475 0.3236046 -0.2102951
v 0 0.3999999 0
v -0.1105552 0.3402597 -0.1788879
v -0.2351142 0.3236067 0
v -0.2894429 0.2102901 0.1788878
v -0.3804231 0.123605 0
v -0.2351142 0.3236067 0
v -0.3804231 0.123605 0
v -0.2752757 0.1999988 -0.2102945
v -0.2752757 0.1999988 -0.2102945
v -0.3804231 0.123605 0
v -0.3577705 0 -0.1788862
v -0.3804231 -0.123605 0
v -0.2894429 -0.2102901 0.1788878
v -0.2351142 -0.3236067 0
v -0.3804231 -0.123605 0
v -0.2351142 -0.3236067 0
v -0.2752757 -0.1999988 -0.2102945
v -0.2752757 -0.1999988 -0.2102945
v -0.2351142 -0.3236067 0
v -0.1105552 -0.3402597 -0.1788879
v 0 -0.3999999 0
v 0.1105552 -0.3402597 0.1788879
v 0.2351142 -0.3236067 0
v 0 -0.3999999 0
v 0.2351142 -0.3236067 0
v 0.1051475 -0.3236046 -0.2102951
v 0.1051475 -0.3236046 -0.2102951
v 0.2351142 -0.3236067 0
v 0.2894429 -0.2102901 -0.1788878
v 0.3804231 -0.123605 0
v 0.3577705 0 0.1788862
v 0.3804231 0.123605 0
v 0.3804231 -0.123605 0
v 0.3804231 0.123605 0
v 0.3402591 0 -0.2102944
v 0.3402591 0 -0.2102944
v 0.3804231 0.123605 0
v 0.2894429 0.2102901 -0.1788878
v 0.1701291 0.1236046 -0.3402617
v 0.2894429 0.2102901 -0.1788878
v 0.1051475 0.3236046 -0.2102951
v 0.1701291 0.1236046 -0.3402617
v 0.1051475 0.3236046 -0.2102951
v -0.06498222 0.1999981 -0.3402618
v -0.06498222 0.1999981 -0.3402618
v 0.1051475 0.3236046 -0.2102951
v -0.1105552 0.3402597 -0.1788879
v -0.06498222 0.1999981 -0.3402618
v -0.1105552 0.3402597 -0.1788879
v -0.2752757 0.1999988 -0.2102945
v -0.06498222 0.1999981 -0.3402618
v -0.2752757 0.1999988 -0.2102945
v -0.2102919 0 -0.3402607
v -0.2102919 0 -0.3402607
v -0.2752757 0.1999988 -0.2102945
v -0.3577705 0 -0.1788862
v -0.2102919 0 -0.3402607
v -0.3577705 0 -0.1788862
v -0.2752757 -0.1999988 -0.2102945
v -0.2102919 0 -0.3402607
v -0.2752757 -0.1999988 -0.2102945
v -0.06498222 -0.1999981 -0.3402618
v -0.06498222 -0.1999981 -0.3402618
v -0.2752757 -0.1999988 -0.2102945
v -0.1105552 -0.3402597 -0.1788879
v 0.3402591 0 -0.2102944
v 0.2894429 0.2102901 -0.1788878
v 0.1701291 0.1236046 -0.3402617
v 0.3402591 0 -0.2102944
v 0.1701291 0.1236046 -0.3402617
v 0.1701291 -0.1236046 -0.3402617
v 0.1701291 -0.1236046 -0.3402617
v 0.1701291 0.1236046 -0.3402617
v 0 0 -0.4
v -0.06498222 -0.1999981 -0.3402618
v -0.1105552 -0.3402597 -0.1788879
v 0.1051475 -0.3236046 -0.2102951
v -0.06498222 -0.1999981 -0.3402618
v 0.1051475 -0.3236046 -0.2102951
v 0.1701291 -0.1236046 -0.3402617
v 0.1701291 -0.1236046 -0.3402617
v 0.1051475 -0.3236046 -0.2102951
v 0.2894429 -0.2102901 -0.1788878
vt 0.5859375 0.8125
vt 0.6289063 0.7548828
vt 0.5551758 0.7407227
vt 0.5175781 0.6801758
vt 0.4726563 0.7407227
vt 0.5551758 0.7407227
vt 0.5859375 0.8125
vt 0.6323242 0.8417969
vt 0.6289063 0.7548828
vt 0.5859375 0.8125
vt 0.5605469 0.8808594
vt 0.6323242 0.8417969
vt 0.5859375 0.8125
vt 0.5126953 0.8183594
vt 0.5605469 0.8808594
vt 0.5175781 0.6801758
vt 0.4553223 0.6772461
vt 0.4726563 0.7407227
vt 0.5913086 0.1943359
vt 0.5302734 0.1628418
vt 0.5688477 0.2355957
vt 0.7138672 0.1177979
vt 0.65625 0.07281494
vt 0.65625 0.1628418
vt 0.7890625 0.8349609
vt 0.8178711 0.9082031
vt 0.8623047 0.8320313
vt 0.06106567 0.5825195
vt 0.05386353 0.5058594
vt 5.364418E-07 0.5507813
vt 0.8198242 0.7675781
vt 0.8554688 0.7060547
vt 0.7729492 0.7089844
vt 0.5913086 0.1943359
vt 0.5839844 0.1177979
vt 0.5302734 0.1628418
vt 0.7138672 0.1177979
vt 0.7192383 0.04501343
vt 0.65625 0.07281494
vt 0.7890625 0.8349609
vt 0.7441406 0.890625
vt 0.8178711 0.9082031
vt 0.06106567 0.5825195
vt 0.1260986 0.5507813
vt 0.05386353 0.5058594
vt 0.8837891 0.6328125
vt 0.8564453 0.5654297
vt 0.8105469 0.6298828
vt 0.90625 0.1348877
vt 0.8388672 0.1407471
vt 0.8735352 0.2032471
vt 0.8344727 0.002746582
vt 0.796875 0.06311035
vt 0.8793945 0.06311035
vt 0.06106567 0.4291992
vt 0.1169434 0.3879395
vt 0.03897095 0.3879395
vt 0.184082 0.5058594
vt 0.189209 0.4328613
vt 0.1260986 0.4606934
vt 0.7192383 0.1643066
vt 0.765625 0.1348877
vt 0.7226563 0.07763672
vt 0.189209 0.4328613
vt 0.1169434 0.3879395
vt 0.1260986 0.4606934
vt 0.1260986 0.4606934
vt 0.1169434 0.3879395
vt 0.06106567 0.4291992
vt 0.7226563 0.07763672
vt 0.765625 0.1348877
vt 0.796875 0.06311035
vt 0.7226563 0.07763672
vt 0.796875 0.06311035
vt 0.7631836 3.576279E-07
vt 0.7631836 3.576279E-07
vt 0.796875 0.06311035
vt 0.8344727 0.002746582
vt 0.796875 0.06311035
vt 0.765625 0.1348877
vt 0.8388672 0.1407471
vt 0.796875 0.06311035
vt 0.8388672 0.1407471
vt 0.8793945 0.06311035
vt 0.8793945 0.06311035
vt 0.8388672 0.1407471
vt 0.90625 0.1348877
vt 0.8388672 0.1407471
vt 0.765625 0.1348877
vt 0.7910156 0.2032471
vt 0.8388672 0.1407471
vt 0.7910156 0.2032471
vt 0.8735352 0.2032471
vt 0.9291992 0.6020508
vt 0.8564453 0.5654297
vt 0.8837891 0.6328125
vt 0.7910156 0.2032471
vt 0.765625 0.1348877
vt 0.7192383 0.1643066
vt 0.8564453 0.5654297
vt 0.7739258 0.5688477
vt 0.8105469 0.6298828
vt 0.8105469 0.6298828
vt 0.7739258 0.5688477
vt 0.7436523 0.6386719
vt 0.1260986 0.5507813
vt 0.184082 0.5058594
vt 0.1260986 0.4606934
vt 0.1260986 0.5507813
vt 0.1260986 0.4606934
vt 0.05386353 0.5058594
vt 0.05386353 0.5058594
vt 0.1260986 0.4606934
vt 0.06106567 0.4291992
vt 0 0.4606934
vt 0.06106567 0.4291992
vt 0.03897095 0.3879395
vt 0.7441406 0.890625
vt 0.7817383 0.9697266
vt 0.8178711 0.9082031
vt 0.8178711 0.9082031
vt 0.7817383 0.9697266
vt 0.8530273 0.9697266
vt 0.8964844 0
vt 0.8344727 0.002746582
vt 0.8793945 0.06311035
vt 0.7192383 0.04501343
vt 0.6469727 0
vt 0.65625 0.07281494
vt 0.65625 0.07281494
vt 0.6469727 0
vt 0.5913086 0.04125977
vt 0.5839844 0.1177979
vt 0.5913086 0.04125977
vt 0.5302734 0.07281494
vt 0.5839844 0.1177979
vt 0.5302734 0.07281494
vt 0.5302734 0.1628418
vt 0.9287109 0.6884766
vt 0.9291992 0.6020508
vt 0.8837891 0.6328125
vt 0.8554688 0.7060547
vt 0.8837891 0.6328125
vt 0.8105469 0.6298828
vt 0.8554688 0.7060547
vt 0.8105469 0.6298828
vt 0.7729492 0.7089844
vt 0.7729492 0.7089844
vt 0.8105469 0.6298828
vt 0.7436523 0.6386719
vt 0.05386353 0.5058594
vt 0.06106567 0.4291992
vt 0 0.4606934
vt 0.05386353 0.5058594
vt 0 0.4606934
vt 5.364418E-07 0.5507813
vt 0.7436523 0.8037109
vt 0.7441406 0.890625
vt 0.7890625 0.8349609
vt 0.8178711 0.9082031
vt 0.8530273 0.9697266
vt 0.8999023 0.9111328
vt 0.8178711 0.9082031
vt 0.8999023 0.9111328
vt 0.8623047 0.8320313
vt 0.8623047 0.8320313
vt 0.8999023 0.9111328
vt 0.9291992 0.840332
vt 0.65625 0.07281494
vt 0.5913086 0.04125977
vt 0.5839844 0.1177979
vt 0.65625 0.07281494
vt 0.5839844 0.1177979
vt 0.65625 0.1628418
vt 0.65625 0.1628418
vt 0.5839844 0.1177979
vt 0.5913086 0.1943359
vt 0.9287109 0.6884766
vt 0.8837891 0.6328125
vt 0.8554688 0.7060547
vt 0.9287109 0.6884766
vt 0.8554688 0.7060547
vt 0.8911133 0.7675781
vt 0.8911133 0.7675781
vt 0.8554688 0.7060547
vt 0.8198242 0.7675781
vt 0.189209 0.5786133
vt 0.184082 0.5058594
vt 0.1260986 0.5507813
vt 0.189209 0.5786133
vt 0.1260986 0.5507813
vt 0.1169434 0.6235352
vt 0.1169434 0.6235352
vt 0.1260986 0.5507813
vt 0.06106567 0.5825195
vt 0.5126953 0.8183594
vt 0.4455566 0.8125
vt 0.4782715 0.8808594
vt 0.5126953 0.8183594
vt 0.4782715 0.8808594
vt 0.5605469 0.8808594
vt 0.8168945 0.7675781
vt 0.7436523 0.8037109
vt 0.7890625 0.8349609
vt 0.8168945 0.7675781
vt 0.7890625 0.8349609
vt 0.8623047 0.8320313
vt 0.8168945 0.7675781
vt 0.8623047 0.8320313
vt 0.8989258 0.7709961
vt 0.8989258 0.7709961
vt 0.8623047 0.8320313
vt 0.9291992 0.840332
vt 0.7192383 0.1906738
vt 0.7138672 0.1177979
vt 0.65625 0.1628418
vt 0.7192383 0.1906738
vt 0.65625 0.1628418
vt 0.6469727 0.2355957
vt 0.6469727 0.2355957
vt 0.65625 0.1628418
vt 0.5913086 0.1943359
vt 0.4726563 0.7407227
vt 0.4455566 0.8125
vt 0.5126953 0.8183594
vt 0.4726563 0.7407227
vt 0.5126953 0.8183594
vt 0.5551758 0.7407227
vt 0.5551758 0.7407227
vt 0.5126953 0.8183594
vt 0.5859375 0.8125
vt 0.6469727 0.2355957
vt 0.5913086 0.1943359
vt 0.5688477 0.2355957
vt 0.6289063 0.7548828
vt 0.5888672 0.6772461
vt 0.5551758 0.7407227
vt 0.5551758 0.7407227
vt 0.5888672 0.6772461
vt 0.5175781 0.6801758
vn 0.102356 -0.3151855 -0.9433594
vn 0.102356 -0.3151855 -0.9433594
vn 0.102356 -0.3151855 -0.9433594
vn 0.7001953 -0.2680664 -0.6616211
vn 0.7001953 -0.2680664 -0.6616211
vn 0.7001953 -0.2680664 -0.6616211
vn -0.2680664 -0.1947021 -0.9433594
vn -0.2680664 -0.1947021 -0.9433594
vn -0.2680664 -0.1947021 -0.9433594
vn -0.2680664 0.1947021 -0.9433594
vn -0.2680664 0.1947021 -0.9433594
vn -0.2680664 0.1947021 -0.9433594
vn 0.102356 0.3151855 -0.9433594
vn 0.102356 0.3151855 -0.9433594
vn 0.102356 0.3151855 -0.9433594
vn 0.9047852 -0.2680664 -0.3303223
vn 0.9047852 -0.2680664 -0.3303223
vn 0.9047852 -0.2680664 -0.3303223
vn 0.02474976 -0.9433594 -0.3303223
vn 0.02474976 -0.9433594 -0.3303223
vn 0.02474976 -0.9433594 -0.3303223
vn -0.8896484 -0.3151855 -0.3303223
vn -0.8896484 -0.3151855 -0.3303223
vn -0.8896484 -0.3151855 -0.3303223
vn -0.574707 0.7490234 -0.3303223
vn -0.574707 0.7490234 -0.3303223
vn -0.574707 0.7490234 -0.3303223
vn 0.534668 0.777832 -0.3303223
vn 0.534668 0.777832 -0.3303223
vn 0.534668 0.777832 -0.3303223
vn 0.8027344 -0.5830078 -0.1256104
vn 0.8027344 -0.5830078 -0.1256104
vn 0.8027344 -0.5830078 -0.1256104
vn -0.3066406 -0.9433594 -0.1256104
vn -0.3066406 -0.9433594 -0.1256104
vn -0.3066406 -0.9433594 -0.1256104
vn -0.9921875 0 -0.1256104
vn -0.9921875 0 -0.1256104
vn -0.9921875 0 -0.1256104
vn -0.3066406 0.9433594 -0.1256104
vn -0.3066406 0.9433594 -0.1256104
vn -0.3066406 0.9433594 -0.1256104
vn 0.8027344 0.5830078 -0.1256104
vn 0.8027344 0.5830078 -0.1256104
vn 0.8027344 0.5830078 -0.1256104
vn 0.4089355 -0.628418 0.6616211
vn 0.4089355 -0.628418 0.6616211
vn 0.4089355 -0.628418 0.6616211
vn -0.4711914 -0.5830078 0.6616211
vn -0.4711914 -0.5830078 0.6616211
vn -0.4711914 -0.5830078 0.6616211
vn -0.7001953 0.2680664 0.6616211
vn -0.7001953 0.2680664 0.6616211
vn -0.7001953 0.2680664 0.6616211
vn 0.0385437 0.7485352 0.6616211
vn 0.0385437 0.7485352 0.6616211
vn 0.0385437 0.7485352 0.6616211
vn 0.7241211 0.1947021 0.6616211
vn 0.7241211 0.1947021 0.6616211
vn 0.7241211 0.1947021 0.6616211
vn 0.2680664 0.1947021 0.9433594
vn 0.2680664 0.1947021 0.9433594
vn 0.2680664 0.1947021 0.9433594
vn 0.4912109 0.3569336 0.7944336
vn 0.4912109 0.3569336 0.7944336
vn 0.4912109 0.3569336 0.7944336
vn 0.4089355 0.628418 0.6616211
vn 0.4089355 0.628418 0.6616211
vn 0.4089355 0.628418 0.6616211
vn -0.102356 0.3151855 0.9433594
vn -0.102356 0.3151855 0.9433594
vn -0.102356 0.3151855 0.9433594
vn -0.1876221 0.5771484 0.7944336
vn -0.1876221 0.5771484 0.7944336
vn -0.1876221 0.5771484 0.7944336
vn -0.4711914 0.5830078 0.6616211
vn -0.4711914 0.5830078 0.6616211
vn -0.4711914 0.5830078 0.6616211
vn -0.3312988 0 0.9433594
vn -0.3312988 0 0.9433594
vn -0.3312988 0 0.9433594
vn -0.6069336 0 0.7944336
vn -0.6069336 0 0.7944336
vn -0.6069336 0 0.7944336
vn -0.7001953 -0.2680664 0.6616211
vn -0.7001953 -0.2680664 0.6616211
vn -0.7001953 -0.2680664 0.6616211
vn -0.102356 -0.3151855 0.9433594
vn -0.102356 -0.3151855 0.9433594
vn -0.102356 -0.3151855 0.9433594
vn -0.1876221 -0.5771484 0.7944336
vn -0.1876221 -0.5771484 0.7944336
vn -0.1876221 -0.5771484 0.7944336
vn 0.0385437 -0.7485352 0.6616211
vn 0.0385437 -0.7485352 0.6616211
vn 0.0385437 -0.7485352 0.6616211
vn 0.2680664 -0.1947021 0.9433594
vn 0.2680664 -0.1947021 0.9433594
vn 0.2680664 -0.1947021 0.9433594
vn 0.4912109 -0.3569336 0.7944336
vn 0.4912109 -0.3569336 0.7944336
vn 0.4912109 -0.3569336 0.7944336
vn 0.7241211 -0.1947021 0.6616211
vn 0.7241211 -0.1947021 0.6616211
vn 0.7241211 -0.1947021 0.6616211
vn 0.8896484 0.3151855 0.3303223
vn 0.8896484 0.3151855 0.3303223
vn 0.8896484 0.3151855 0.3303223
vn 0.7944336 0.5771484 0.1876221
vn 0.7944336 0.5771484 0.1876221
vn 0.7944336 0.5771484 0.1876221
vn 0.574707 0.7490234 0.3303223
vn 0.574707 0.7490234 0.3303223
vn 0.574707 0.7490234 0.3303223
vn -0.02474976 0.9433594 0.3303223
vn -0.02474976 0.9433594 0.3303223
vn -0.02474976 0.9433594 0.3303223
vn -0.3034668 0.934082 0.1876221
vn -0.3034668 0.934082 0.1876221
vn -0.3034668 0.934082 0.1876221
vn -0.534668 0.777832 0.3303223
vn -0.534668 0.777832 0.3303223
vn -0.534668 0.777832 0.3303223
vn -0.9047852 0.2680664 0.3303223
vn -0.9047852 0.2680664 0.3303223
vn -0.9047852 0.2680664 0.3303223
vn -0.9824219 0 0.1876221
vn -0.9824219 0 0.1876221
vn -0.9824219 0 0.1876221
vn -0.9047852 -0.2680664 0.3303223
vn -0.9047852 -0.2680664 0.3303223
vn -0.9047852 -0.2680664 0.3303223
vn -0.534668 -0.777832 0.3303223
vn -0.534668 -0.777832 0.3303223
vn -0.534668 -0.777832 0.3303223
vn -0.3034668 -0.934082 0.1876221
vn -0.3034668 -0.934082 0.1876221
vn -0.3034668 -0.934082 0.1876221
vn -0.02474976 -0.9433594 0.3303223
vn -0.02474976 -0.9433594 0.3303223
vn -0.02474976 -0.9433594 0.3303223
vn 0.574707 -0.7490234 0.3303223
vn 0.574707 -0.7490234 0.3303223
vn 0.574707 -0.7490234 0.3303223
vn 0.7944336 -0.5771484 0.1876221
vn 0.7944336 -0.5771484 0.1876221
vn 0.7944336 -0.5771484 0.1876221
vn 0.8896484 -0.3151855 0.3303223
vn 0.8896484 -0.3151855 0.3303223
vn 0.8896484 -0.3151855 0.3303223
vn 0.3066406 0.9433594 0.1256104
vn 0.3066406 0.9433594 0.1256104
vn 0.3066406 0.9433594 0.1256104
vn 0.3034668 0.934082 -0.1876221
vn 0.3034668 0.934082 -0.1876221
vn 0.3034668 0.934082 -0.1876221
vn 0.02474976 0.9433594 -0.3303223
vn 0.02474976 0.9433594 -0.3303223
vn 0.02474976 0.9433594 -0.3303223
vn -0.8027344 0.5830078 0.1256104
vn -0.8027344 0.5830078 0.1256104
vn -0.8027344 0.5830078 0.1256104
vn -0.7944336 0.5771484 -0.1876221
vn -0.7944336 0.5771484 -0.1876221
vn -0.7944336 0.5771484 -0.1876221
vn -0.8896484 0.3151855 -0.3303223
vn -0.8896484 0.3151855 -0.3303223
vn -0.8896484 0.3151855 -0.3303223
vn -0.8027344 -0.5830078 0.1256104
vn -0.8027344 -0.5830078 0.1256104
vn -0.8027344 -0.5830078 0.1256104
vn -0.7944336 -0.5771484 -0.1876221
vn -0.7944336 -0.5771484 -0.1876221
vn -0.7944336 -0.5771484 -0.1876221
vn -0.574707 -0.7490234 -0.3303223
vn -0.574707 -0.7490234 -0.3303223
vn -0.574707 -0.7490234 -0.3303223
vn 0.3066406 -0.9433594 0.1256104
vn 0.3066406 -0.9433594 0.1256104
vn 0.3066406 -0.9433594 0.1256104
vn 0.3034668 -0.934082 -0.1876221
vn 0.3034668 -0.934082 -0.1876221
vn 0.3034668 -0.934082 -0.1876221
vn 0.534668 -0.777832 -0.3303223
vn 0.534668 -0.777832 -0.3303223
vn 0.534668 -0.777832 -0.3303223
vn 0.9921875 0 0.1256104
vn 0.9921875 0 0.1256104
vn 0.9921875 0 0.1256104
vn 0.9824219 0 -0.1876221
vn 0.9824219 0 -0.1876221
vn 0.9824219 0 -0.1876221
vn 0.9047852 0.2680664 -0.3303223
vn 0.9047852 0.2680664 -0.3303223
vn 0.9047852 0.2680664 -0.3303223
vn 0.4711914 0.5830078 -0.6616211
vn 0.4711914 0.5830078 -0.6616211
vn 0.4711914 0.5830078 -0.6616211
vn 0.1876221 0.5771484 -0.7944336
vn 0.1876221 0.5771484 -0.7944336
vn 0.1876221 0.5771484 -0.7944336
vn -0.0385437 0.7485352 -0.6616211
vn -0.0385437 0.7485352 -0.6616211
vn -0.0385437 0.7485352 -0.6616211
vn -0.4089355 0.628418 -0.6616211
vn -0.4089355 0.628418 -0.6616211
vn -0.4089355 0.628418 -0.6616211
vn -0.4912109 0.3569336 -0.7944336
vn -0.4912109 0.3569336 -0.7944336
vn -0.4912109 0.3569336 -0.7944336
vn -0.7241211 0.1947021 -0.6616211
vn -0.7241211 0.1947021 -0.6616211
vn -0.7241211 0.1947021 -0.6616211
vn -0.7241211 -0.1947021 -0.6616211
vn -0.7241211 -0.1947021 -0.6616211
vn -0.7241211 -0.1947021 -0.6616211
vn -0.4912109 -0.3569336 -0.7944336
vn -0.4912109 -0.3569336 -0.7944336
vn -0.4912109 -0.3569336 -0.7944336
vn -0.4089355 -0.628418 -0.6616211
vn -0.4089355 -0.628418 -0.6616211
vn -0.4089355 -0.628418 -0.6616211
vn 0.7001953 0.2680664 -0.6616211
vn 0.7001953 0.2680664 -0.6616211
vn 0.7001953 0.2680664 -0.6616211
vn 0.6069336 0 -0.7944336
vn 0.6069336 0 -0.7944336
vn 0.6069336 0 -0.7944336
vn 0.3312988 0 -0.9433594
vn 0.3312988 0 -0.9433594
vn 0.3312988 0 -0.9433594
vn -0.0385437 -0.7485352 -0.6616211
vn -0.0385437 -0.7485352 -0.6616211
vn -0.0385437 -0.7485352 -0.6616211
vn 0.1876221 -0.5771484 -0.7944336
vn 0.1876221 -0.5771484 -0.7944336
vn 0.1876221 -0.5771484 -0.7944336
vn 0.4711914 -0.5830078 -0.6616211
vn 0.4711914 -0.5830078 -0.6616211
vn 0.4711914 -0.5830078 -0.6616211
g Icosphere_0
f 3/3/3 2/2/2 1/1/1
f 6/6/6 5/5/5 4/4/4
f 9/9/9 8/8/8 7/7/7
f 12/12/12 11/11/11 10/10/10
f 15/15/15 14/14/14 13/13/13
f 18/18/18 17/17/17 16/16/16
f 21/21/21 20/20/20 19/19/19
f 24/24/24 23/23/23 22/22/22
f 27/27/27 26/26/26 25/25/25
f 30/30/30 29/29/29 28/28/28
f 33/33/33 32/32/32 31/31/31
f 36/36/36 35/35/35 34/34/34
f 39/39/39 38/38/38 37/37/37
f 42/42/42 41/41/41 40/40/40
f 45/45/45 44/44/44 43/43/43
f 48/48/48 47/47/47 46/46/46
f 51/51/51 50/50/50 49/49/49
f 54/54/54 53/53/53 52/52/52
f 57/57/57 56/56/56 55/55/55
f 60/60/60 59/59/59 58/58/58
f 63/63/63 62/62/62 61/61/61
f 66/66/66 65/65/65 64/64/64
f 69/69/69 68/68/68 67/67/67
f 72/72/72 71/71/71 70/70/70
f 75/75/75 74/74/74 73/73/73
f 78/78/78 77/77/77 76/76/76
f 81/81/81 80/80/80 79/79/79
f 84/84/84 83/83/83 82/82/82
f 87/87/87 86/86/86 85/85/85
f 90/90/90 89/89/89 88/88/88
f 93/93/93 92/92/92 91/91/91
f 96/96/96 95/95/95 94/94/94
f 99/99/99 98/98/98 97/97/97
f 102/102/102 101/101/101 100/100/100
f 105/105/105 104/104/104 103/103/103
f 108/108/108 107/107/107 106/106/106
f 111/111/111 110/110/110 109/109/109
f 114/114/114 113/113/113 112/112/112
f 117/117/117 116/116/116 115/115/115
f 120/120/120 119/119/119 118/118/118
f 123/123/123 122/122/122 121/121/121
f 126/126/126 125/125/125 124/124/124
f 129/129/129 128/128/128 127/127/127
f 132/132/132 131/131/131 130/130/130
f 135/135/135 134/134/134 133/133/133
f 138/138/138 137/137/137 136/136/136
f 141/141/141 140/140/140 139/139/139
f 144/144/144 143/143/143 142/142/142
f 147/147/147 146/146/146 145/145/145
f 150/150/150 149/149/149 148/148/148
f 153/153/153 152/152/152 151/151/151
f 156/156/156 155/155/155 154/154/154
f 159/159/159 158/158/158 157/157/157
f 162/162/162 161/161/161 160/160/160
f 165/165/165 164/164/164 163/163/163
f 168/168/168 167/167/167 166/166/166
f 171/171/171 170/170/170 169/169/169
f 174/174/174 173/173/173 172/172/172
f 177/177/177 176/176/176 175/175/175
f 180/180/180 179/179/179 178/178/178
f 183/183/183 182/182/182 181/181/181
f 186/186/186 185/185/185 184/184/184
f 189/189/189 188/188/188 187/187/187
f 192/192/192 191/191/191 190/190/190
f 195/195/195 194/194/194 193/193/193
f 198/198/198 197/197/197 196/196/196
f 201/201/201 200/200/200 199/199/199
f 204/204/204 203/203/203 202/202/202
f 207/207/207 206/206/206 205/205/205
f 210/210/210 209/209/209 208/208/208
f 213/213/213 212/212/212 211/211/211
f 216/216/216 215/215/215 214/214/214
f 219/219/219 218/218/218 217/217/217
f 222/222/222 221/221/221 220/220/220
f 225/225/225 224/224/224 223/223/223
f 228/228/228 227/227/227 226/226/226
f 231/231/231 230/230/230 229/229/229
f 234/234/234 233/233/233 232/232/232
f 237/237/237 236/236/236 235/235/235
f 240/240/240 239/239/239 238/238/238
