g Key Lock
v 0.2291126 0.00741133 -0.003132522
v 0.05645354 0.00741133 0.03165574
v 0.2291126 0.00741133 0.03165574
v 0.05645354 0.00741133 -0.003132522
v -0.05645359 0.00741133 0.03165574
v -0.05645359 0.00741133 -0.003132522
v -0.2291126 0.00741133 0.03165574
v -0.2291126 0.00741133 -0.003132522
v 0.2291126 0.4833931 0.0316559
v 0.05645351 0.4833931 -0.003132367
v 0.2291126 0.4833931 -0.003132367
v 0.05645351 0.4833931 0.0316559
v -0.05645362 0.4833931 -0.003132367
v -0.05645362 0.4833931 0.0316559
v -0.2291127 0.4833931 -0.003132367
v -0.2291127 0.4833931 0.0316559
v 0.2291126 0.4833931 -0.003132367
v 0.2291126 0.4274654 0.0316559
v 0.2291126 0.4833931 0.0316559
v 0.2291126 0.4274654 -0.003132522
v 0.2291126 0.06333923 0.0316559
v 0.2291126 0.06333923 -0.003132522
v 0.2291126 0.00741133 0.03165574
v 0.2291126 0.00741133 -0.003132522
v -0.2291127 0.4833931 0.0316559
v -0.2291127 0.4274652 -0.003132522
v -0.2291127 0.4833931 -0.003132367
v -0.2291127 0.4274652 0.0316559
v -0.2291126 0.06333923 -0.003132522
v -0.2291126 0.06333923 0.0316559
v -0.2291126 0.00741133 -0.003132522
v -0.2291126 0.00741133 0.03165574
v 0.05645354 0.00741133 0.03165574
v 0.2291126 0.06333923 0.0316559
v 0.2291126 0.00741133 0.03165574
v 0.05645354 0.06333923 0.0316559
v -0.05645359 0.00741133 0.03165574
v 0.2291126 0.4274654 0.0316559
v -0.05645359 0.06333923 0.0316559
v -0.2291126 0.00741133 0.03165574
v -0.2291126 0.06333923 0.0316559
v 0.05645351 0.4274652 0.0316559
v 0.2291126 0.4833931 0.0316559
v 0.05645351 0.4833931 0.0316559
v -0.05645362 0.4274652 0.0316559
v -0.2291127 0.4274652 0.0316559
v -0.05645362 0.4833931 0.0316559
v -0.2291127 0.4833931 0.0316559
v -0.05645359 0.00741133 -0.003132522
v -0.2291126 0.06333923 -0.003132522
v -0.2291126 0.00741133 -0.003132522
v -0.05645359 0.06333923 -0.003132522
v 0.05645354 0.00741133 -0.003132522
v -0.2291127 0.4274652 -0.003132522
v 0.05645354 0.06333923 -0.003132522
v 0.2291126 0.00741133 -0.003132522
v 0.2291126 0.06333923 -0.003132522
v -0.05645362 0.4274652 -0.003132522
v -0.2291127 0.4833931 -0.003132367
v -0.05645362 0.4833931 -0.003132367
v 0.05645351 0.4274652 -0.003132522
v 0.2291126 0.4274654 -0.003132522
v 0.05645351 0.4833931 -0.003132367
v 0.2291126 0.4833931 -0.003132367
v -0.05645359 0.06333923 0.0316559
v -0.05645359 0.06333923 -0.003132522
v 0.05645354 0.06333923 -0.003132522
v 0.05645354 0.06333923 0.0316559
v 0.05645354 0.06333923 0.0316559
v 0.05645354 0.06333923 -0.003132522
v 0.05645351 0.4274652 -0.003132522
v 0.05645351 0.4274652 0.0316559
v 0.05645351 0.4274652 0.0316559
v 0.05645351 0.4274652 -0.003132522
v -0.05645362 0.4274652 -0.003132522
v -0.05645362 0.4274652 0.0316559
v -0.05645362 0.4274652 0.0316559
v -0.05645362 0.4274652 -0.003132522
v -0.05645359 0.06333923 -0.003132522
v -0.05645359 0.06333923 0.0316559
vt 0.2205811 0.9624023
vt 0.147583 0.5996094
vt 0.147583 0.9624023
vt 0.2205811 0.5996094
vt 0.147583 0.362793
vt 0.2205811 0.362793
vt 0.147583 0.0005002022
vt 0.2205811 0.0005002022
vt 0.2211914 0.0005002022
vt 0.2941895 0.362793
vt 0.2941895 0.0005002022
vt 0.2211914 0.362793
vt 0.2941895 0.5996094
vt 0.2211914 0.5996094
vt 0.2941895 0.9624023
vt 0.2211914 0.9624023
vt 0.1470947 0.9995117
vt 0.07403564 0.8823242
vt 0.07403564 0.9995117
vt 0.1470947 0.8823242
vt 0.07403564 0.1178589
vt 0.1470947 0.1178589
vt 0.07403564 0.0005002022
vt 0.1470947 0.0005002022
vt 0.0005002022 0.0005002022
vt 0.07348633 0.1178589
vt 0.07348633 0.0005002022
vt 0.0005002022 0.1178589
vt 0.07348633 0.8823242
vt 0.0005002022 0.8823242
vt 0.07348633 0.9995117
vt 0.0005002022 0.9995117
vt 0.5800781 0
vt 1 0.1174927
vt 1 0
vt 0.5800781 0.1174927
vt 0.4199219 0
vt 1 0.8823242
vt 0.4199219 0.1174927
vt 0 0
vt 0 0.1174927
vt 0.5800781 0.8823242
vt 1 1
vt 0.5800781 1
vt 0.4199219 0.8823242
vt 0 0.8823242
vt 0.4199219 1
vt 0 1
vt 0.5800781 0
vt 1 0.1174927
vt 1 0
vt 0.5800781 0.1174927
vt 0.4199219 0
vt 1 0.8823242
vt 0.4199219 0.1174927
vt 0 0
vt 0 0.1174927
vt 0.5800781 0.8823242
vt 1 1
vt 0.5800781 1
vt 0.4199219 0.8823242
vt 0 0.8823242
vt 0.4199219 1
vt 0 1
vt 0.4199219 0.1174927
vt 0.5800781 0.1174927
vt 0.4199219 0.1174927
vt 0.5800781 0.1174927
vt 0.5800781 0.1174927
vt 0.4199219 0.1174927
vt 0.4199219 0.8823242
vt 0.5800781 0.8823242
vt 0.5800781 0.8823242
vt 0.4199219 0.8823242
vt 0.5800781 0.8823242
vt 0.4199219 0.8823242
vt 0.4199219 0.8823242
vt 0.5800781 0.8823242
vt 0.5800781 0.1174927
vt 0.4199219 0.1174927
vn 0 -1 0
vn 0 -1 0
vn 0 -1 0
vn 0 -1 0
vn 0 -1 0
vn 0 -1 0
vn 0 -1 0
vn 0 -1 0
vn 0 1 0
vn 0 1 0
vn 0 1 0
vn 0 1 0
vn 0 1 0
vn 0 1 0
vn 0 1 0
vn 0 1 0
vn 1 0 0
vn 1 0 0
vn 1 0 0
vn 1 0 0
vn 1 0 0
vn 1 0 0
vn 1 0 0
vn 1 0 0
vn -1 0 0
vn -1 0 0
vn -1 0 0
vn -1 0 0
vn -1 0 0
vn -1 0 0
vn -1 0 0
vn -1 0 0
vn 0 -2.801418E-06 1
vn 0 -1.370907E-06 1
vn 0 -2.801418E-06 1
vn 0 -1.847744E-06 1
vn 0 -2.801418E-06 1
vn 0 0 1
vn 0 -1.847744E-06 1
vn 0 -2.801418E-06 1
vn 0 -1.370907E-06 1
vn 0 0 1
vn 0 0 1
vn 0 0 1
vn 0 0 1
vn 0 0 1
vn 0 0 1
vn 0 0 1
vn 0 0 -1
vn 0 0 -1
vn 0 0 -1
vn 0 0 -1
vn 0 0 -1
vn 0 1.370907E-06 -1
vn 0 0 -1
vn 0 0 -1
vn 0 0 -1
vn 0 1.847744E-06 -1
vn 0 2.801418E-06 -1
vn 0 2.801418E-06 -1
vn 0 1.847744E-06 -1
vn 0 1.370907E-06 -1
vn 0 2.801418E-06 -1
vn 0 2.801418E-06 -1
vn 0 1 0
vn 0 1 0
vn 0 1 0
vn 0 1 0
vn -1 0 0
vn -1 0 0
vn -1 0 0
vn -1 0 0
vn 0 -1 0
vn 0 -1 0
vn 0 -1 0
vn 0 -1 0
vn 1 0 0
vn 1 0 0
vn 1 0 0
vn 1 0 0
g Key Lock_0
f 3/3/3 2/2/2 1/1/1
f 2/2/2 4/4/4 1/1/1
f 2/2/2 5/5/5 4/4/4
f 5/5/5 6/6/6 4/4/4
f 6/6/6 5/5/5 7/7/7
f 8/8/8 6/6/6 7/7/7
f 11/11/11 10/10/10 9/9/9
f 10/10/10 12/12/12 9/9/9
f 10/10/10 13/13/13 12/12/12
f 13/13/13 14/14/14 12/12/12
f 14/14/14 13/13/13 15/15/15
f 16/16/16 14/14/14 15/15/15
f 19/19/19 18/18/18 17/17/17
f 18/18/18 20/20/20 17/17/17
f 18/18/18 21/21/21 20/20/20
f 21/21/21 22/22/22 20/20/20
f 22/22/22 21/21/21 23/23/23
f 24/24/24 22/22/22 23/23/23
f 27/27/27 26/26/26 25/25/25
f 26/26/26 28/28/28 25/25/25
f 26/26/26 29/29/29 28/28/28
f 29/29/29 30/30/30 28/28/28
f 30/30/30 29/29/29 31/31/31
f 32/32/32 30/30/30 31/31/31
f 35/35/35 34/34/34 33/33/33
f 34/34/34 36/36/36 33/33/33
f 33/33/33 36/36/36 37/37/37
f 36/36/36 34/34/34 38/38/38
f 36/36/36 39/39/39 37/37/37
f 37/37/37 39/39/39 40/40/40
f 39/39/39 41/41/41 40/40/40
f 42/42/42 36/36/36 38/38/38
f 42/42/42 38/38/38 43/43/43
f 44/44/44 42/42/42 43/43/43
f 39/39/39 45/45/45 41/41/41
f 45/45/45 42/42/42 44/44/44
f 45/45/45 46/46/46 41/41/41
f 47/47/47 45/45/45 44/44/44
f 46/46/46 45/45/45 47/47/47
f 48/48/48 46/46/46 47/47/47
f 51/51/51 50/50/50 49/49/49
f 50/50/50 52/52/52 49/49/49
f 49/49/49 52/52/52 53/53/53
f 52/52/52 50/50/50 54/54/54
f 52/52/52 55/55/55 53/53/53
f 53/53/53 55/55/55 56/56/56
f 55/55/55 57/57/57 56/56/56
f 58/58/58 52/52/52 54/54/54
f 58/58/58 54/54/54 59/59/59
f 60/60/60 58/58/58 59/59/59
f 55/55/55 61/61/61 57/57/57
f 61/61/61 58/58/58 60/60/60
f 61/61/61 62/62/62 57/57/57
f 63/63/63 61/61/61 60/60/60
f 62/62/62 61/61/61 63/63/63
f 64/64/64 62/62/62 63/63/63
f 67/67/67 66/66/66 65/65/65
f 68/68/68 67/67/67 65/65/65
f 71/71/71 70/70/70 69/69/69
f 72/72/72 71/71/71 69/69/69
f 75/75/75 74/74/74 73/73/73
f 76/76/76 75/75/75 73/73/73
f 79/79/79 78/78/78 77/77/77
f 80/80/80 79/79/79 77/77/77
