g L_ARM_Panel
v 1.150489E-05 -0.000133483 0.001440637
v 0.0002024394 4.885501E-05 -0.001808225
v 3.974462E-05 0.0001517912 -0.001965393
v -0.0001703287 -4.887092E-05 0.001609361
v 0.0002421067 0.001880028 0.001626203
v 4.23013E-05 0.001862693 0.001794927
v 0.0001243266 0.002141383 -0.001779827
v 0.0003166804 0.00213329 -0.001622659
v 0.0002024394 4.885501E-05 -0.001808225
v 0.0003166804 0.00213329 -0.001622659
v 0.0001243266 0.002141383 -0.001779827
v 3.974462E-05 0.0001517912 -0.001965393
v 3.974462E-05 0.0001517912 -0.001965393
v 0.0001243266 0.002141383 -0.001779827
v 4.23013E-05 0.001862693 0.001794927
v -0.0001703287 -4.887092E-05 0.001609361
v -0.0001703287 -4.887092E-05 0.001609361
v 4.23013E-05 0.001862693 0.001794927
v 0.0002421067 0.001880028 0.001626203
v 1.150489E-05 -0.000133483 0.001440637
v 1.150489E-05 -0.000133483 0.001440637
v 0.0002421067 0.001880028 0.001626203
v 0.0003166804 0.00213329 -0.001622659
v 0.0002024394 4.885501E-05 -0.001808225
vt 0.2110596 0.6171875
vt 0.2108154 0.6171875
vt 0.2080078 0.6171875
vt 0.2080078 0.6171875
vt 0.2110596 0.6171875
vt 0.2080078 0.6171875
vt 0.2080078 0.6171875
vt 0.2108154 0.6171875
vt 0.2108154 0.6171875
vt 0.2108154 0.6171875
vt 0.2080078 0.6171875
vt 0.2080078 0.6171875
vt 0.2080078 0.6171875
vt 0.2080078 0.6171875
vt 0.2080078 0.6171875
vt 0.2080078 0.6171875
vt 0.2080078 0.6171875
vt 0.2080078 0.6171875
vt 0.2110596 0.6171875
vt 0.2110596 0.6171875
vt 0.2110596 0.6171875
vt 0.2110596 0.6171875
vt 0.2108154 0.6171875
vt 0.2108154 0.6171875
vn -0.4787598 -0.8745117 -0.07720947
vn -0.4787598 -0.8745117 -0.07720947
vn -0.4787598 -0.8745117 -0.07720947
vn -0.4787598 -0.8745117 -0.07720947
vn -0.02120972 0.996582 0.07720947
vn -0.02120972 0.996582 0.07720947
vn -0.02120972 0.996582 0.07720947
vn -0.02120972 0.996582 0.07720947
vn 0.668457 0.03503418 -0.7426758
vn 0.668457 0.03503418 -0.7426758
vn 0.668457 0.03503418 -0.7426758
vn 0.668457 0.03503418 -0.7426758
vn -0.9960938 0.07928467 -0.03540039
vn -0.9960938 0.07928467 -0.03540039
vn -0.9960938 0.07928467 -0.03540039
vn -0.9960938 0.07928467 -0.03540039
vn 0.6411133 -0.1436768 0.7539063
vn 0.6411133 -0.1436768 0.7539063
vn 0.6411133 -0.1436768 0.7539063
vn 0.6411133 -0.1436768 0.7539063
vn 0.9956055 -0.08691406 0.03485107
vn 0.9956055 -0.08691406 0.03485107
vn 0.9956055 -0.08691406 0.03485107
vn 0.9956055 -0.08691406 0.03485107
g L_ARM_Panel_0
f 3/3/3 2/2/2 1/1/1
f 4/4/4 3/3/3 1/1/1
f 7/7/7 6/6/6 5/5/5
f 8/8/8 7/7/7 5/5/5
f 11/11/11 10/10/10 9/9/9
f 12/12/12 11/11/11 9/9/9
f 15/15/15 14/14/14 13/13/13
f 16/16/16 15/15/15 13/13/13
f 19/19/19 18/18/18 17/17/17
f 20/20/20 19/19/19 17/17/17
f 23/23/23 22/22/22 21/21/21
f 24/24/24 23/23/23 21/21/21
