g L_Elbow
v -0.001701352 0.0004904662 -0.0003843248
v -0.000179327 0.001092566 -0.002252332
v -0.000179327 0.00110823 -0.0003781486
v -0.001701352 0.0004748036 -0.002258509
v -0.0001778019 0.0008841357 -0.002774619
v -0.0006727756 0.000683235 -0.002776628
v 0.001342746 -8.753765E-05 -0.0003553441
v 0.001342746 -0.0001032014 -0.002229528
v -0.000179326 3.65138E-07 -0.002229923
v -0.000179326 1.602852E-05 -0.0003557389
v 0.000961638 -6.160578E-05 0.0003032913
v -0.001701398 -0.0001032032 -0.002229528
v 0.0002017816 -9.902984E-06 0.0003030946
v -0.001701398 -8.75398E-05 -0.0003553441
v -0.0005580748 -6.160686E-05 0.0003032913
v 0.001342699 0.0004904676 -0.0003843248
v -0.000179327 0.00110823 -0.0003781486
v -0.000179327 0.001092566 -0.002252332
v 0.001342699 0.000474805 -0.002258509
v 0.0003171721 0.0006832354 -0.002776628
v -0.0001778019 0.0008841357 -0.002774619
v 0.001342699 0.0004904676 -0.0003843248
v 0.001342699 0.000474805 -0.002258509
v 0.001342746 -0.0001032014 -0.002229528
v 0.001342746 -8.753765E-05 -0.0003553441
v -0.001701398 -8.75398E-05 -0.0003553441
v -0.001701398 -0.0001032032 -0.002229528
v -0.001701352 0.0004748036 -0.002258509
v -0.001701352 0.0004904662 -0.0003843248
v -0.000179326 3.65138E-07 -0.002229923
v -0.0006727906 0.0004952629 -0.002767203
v -0.001701398 -0.0001032032 -0.002229528
v -0.0001778015 0.0005289441 -0.002767332
v 0.001342746 -0.0001032014 -0.002229528
v 0.0003171874 0.0004952634 -0.002767203
v -0.001701398 -0.0001032032 -0.002229528
v -0.0006727906 0.0004952629 -0.002767203
v -0.0006727756 0.000683235 -0.002776628
v -0.001701352 0.0004748036 -0.002258509
v 0.001342699 0.000474805 -0.002258509
v 0.0003171721 0.0006832354 -0.002776628
v 0.0003171874 0.0004952634 -0.002767203
v 0.001342746 -0.0001032014 -0.002229528
v -0.000179327 0.00110823 -0.0003781486
v 0.0002017811 0.0005353514 0.0002919066
v -0.0005580517 0.0002269483 0.0002888239
v -0.001701352 0.0004904662 -0.0003843248
v 0.001342746 -8.753765E-05 -0.0003553441
v 0.000961638 -6.160578E-05 0.0003032913
v 0.0009616147 0.000226949 0.0002888239
v 0.001342699 0.0004904676 -0.0003843248
v 0.001342699 0.0004904676 -0.0003843248
v 0.0009616147 0.000226949 0.0002888239
v 0.0002017811 0.0005353514 0.0002919066
v -0.000179327 0.00110823 -0.0003781486
v -0.001701352 0.0004904662 -0.0003843248
v -0.0005580517 0.0002269483 0.0002888239
v -0.0005580748 -6.160686E-05 0.0003032913
v -0.001701398 -8.75398E-05 -0.0003553441
vt 0.229126 0.6171875
vt 0.25 0.6171875
vt 0.25 0.6171875
vt 0.229126 0.6171875
vt 0.25 0.6171875
vt 0.229126 0.6171875
vt 0.2819824 0.6171875
vt 0.2819824 0.6171875
vt 0.25 0.6171875
vt 0.25 0.6171875
vt 0.2819824 0.6171875
vt 0.2181396 0.6171875
vt 0.25 0.6171875
vt 0.2181396 0.6171875
vt 0.2181396 0.6171875
vt 0.2709961 0.6171875
vt 0.25 0.6171875
vt 0.25 0.6171875
vt 0.2709961 0.6171875
vt 0.2709961 0.6171875
vt 0.25 0.6171875
vt 0.2709961 0.6171875
vt 0.2709961 0.6171875
vt 0.2819824 0.6171875
vt 0.2819824 0.6171875
vt 0.2181396 0.6171875
vt 0.2181396 0.6171875
vt 0.229126 0.6171875
vt 0.229126 0.6171875
vt 0.25 0.6171875
vt 0.2181396 0.6171875
vt 0.2181396 0.6171875
vt 0.25 0.6171875
vt 0.2819824 0.6171875
vt 0.2819824 0.6171875
vt 0.2181396 0.6171875
vt 0.2181396 0.6171875
vt 0.229126 0.6171875
vt 0.229126 0.6171875
vt 0.2709961 0.6171875
vt 0.2709961 0.6171875
vt 0.2819824 0.6171875
vt 0.2819824 0.6171875
vt 0.25 0.6171875
vt 0.25 0.6171875
vt 0.229126 0.6171875
vt 0.229126 0.6171875
vt 0.2819824 0.6171875
vt 0.2819824 0.6171875
vt 0.2709961 0.6171875
vt 0.2709961 0.6171875
vt 0.2709961 0.6171875
vt 0.2709961 0.6171875
vt 0.25 0.6171875
vt 0.25 0.6171875
vt 0.229126 0.6171875
vt 0.229126 0.6171875
vt 0.2181396 0.6171875
vt 0.2181396 0.6171875
vn -0.3759766 0.9267578 -0.007743835
vn -0.369873 0.9130859 -0.1719971
vn -0.3759766 0.9267578 -0.007743835
vn -0.3742676 0.9228516 -0.09063721
vn -0.3513184 0.8691406 -0.3479004
vn -0.3513184 0.8691406 -0.3479004
vn -0.06787109 -0.9975586 0.005004883
vn -0.06787109 -0.9975586 0.008338928
vn 6.556511E-07 -1 0.008354187
vn 0.01126862 -0.9995117 -0.02197266
vn -0.06787109 -0.9975586 2.384186E-07
vn 0.06787109 -0.9975586 0.008338928
vn -0.02268982 -0.9995117 -0.0262146
vn 0.06787109 -0.9975586 -0.01335144
vn 0.06768799 -0.9946289 -0.07830811
vn 0.3759766 0.9267578 -0.007743835
vn 0.3759766 0.9267578 -0.007743835
vn 0.369873 0.9130859 -0.1708984
vn 0.3742676 0.9228516 -0.090271
vn 0.3515625 0.8696289 -0.3461914
vn 0.3515625 0.8696289 -0.3461914
vn 1 8.106232E-05 -6.556511E-07
vn 1 8.106232E-05 -6.556511E-07
vn 1 8.106232E-05 -6.556511E-07
vn 1 8.106232E-05 -6.556511E-07
vn -1 7.998943E-05 -6.556511E-07
vn -1 7.998943E-05 -6.556511E-07
vn -1 7.998943E-05 -6.556511E-07
vn -1 7.998943E-05 -6.556511E-07
vn 6.532669E-05 -0.7128906 -0.7011719
vn 0.04827881 -0.7124023 -0.7001953
vn 0.04827881 -0.7124023 -0.7001953
vn -5.90682E-05 -0.7128906 -0.7011719
vn -0.04827881 -0.7119141 -0.7006836
vn -0.04827881 -0.7119141 -0.7006836
vn -0.4421387 -0.04489136 -0.8959961
vn -0.4421387 -0.04489136 -0.8959961
vn -0.4421387 -0.04489136 -0.8959961
vn -0.4421387 -0.04489136 -0.8959961
vn 0.4431152 -0.04486084 -0.8955078
vn 0.4431152 -0.04486084 -0.8955078
vn 0.4431152 -0.04486084 -0.8955078
vn 0.4431152 -0.04486084 -0.8955078
vn -0.2675781 0.6518555 0.7094727
vn -0.2675781 0.6518555 0.7094727
vn -0.2675781 0.6518555 0.7094727
vn -0.2675781 0.6518555 0.7094727
vn 0.8657227 0.02513123 0.5
vn 0.8657227 0.02513123 0.5
vn 0.8657227 0.02513123 0.5
vn 0.8657227 0.02513123 0.5
vn 0.3276367 0.8022461 0.4995117
vn 0.3276367 0.8022461 0.4995117
vn 0.3276367 0.8022461 0.4995117
vn 0.3276367 0.8022461 0.4995117
vn -0.4995117 0.04342651 0.8652344
vn -0.4995117 0.04342651 0.8652344
vn -0.4995117 0.04342651 0.8652344
vn -0.4995117 0.04342651 0.8652344
g L_Elbow_0
f 3/3/3 2/2/2 1/1/1
f 2/2/2 4/4/4 1/1/1
f 2/2/2 5/5/5 4/4/4
f 5/5/5 6/6/6 4/4/4
f 9/9/9 8/8/8 7/7/7
f 10/10/10 9/9/9 7/7/7
f 7/7/7 11/11/11 10/10/10
f 12/12/12 9/9/9 10/10/10
f 11/11/11 13/13/13 10/10/10
f 14/14/14 12/12/12 10/10/10
f 10/10/10 13/13/13 14/14/14
f 13/13/13 15/15/15 14/14/14
f 18/18/18 17/17/17 16/16/16
f 19/19/19 18/18/18 16/16/16
f 19/19/19 20/20/20 18/18/18
f 20/20/20 21/21/21 18/18/18
f 24/24/24 23/23/23 22/22/22
f 25/25/25 24/24/24 22/22/22
f 28/28/28 27/27/27 26/26/26
f 29/29/29 28/28/28 26/26/26
f 32/32/32 31/31/31 30/30/30
f 31/31/31 33/33/33 30/30/30
f 30/30/30 33/33/33 34/34/34
f 33/33/33 35/35/35 34/34/34
f 38/38/38 37/37/37 36/36/36
f 39/39/39 38/38/38 36/36/36
f 42/42/42 41/41/41 40/40/40
f 43/43/43 42/42/42 40/40/40
f 46/46/46 45/45/45 44/44/44
f 47/47/47 46/46/46 44/44/44
f 50/50/50 49/49/49 48/48/48
f 51/51/51 50/50/50 48/48/48
f 54/54/54 53/53/53 52/52/52
f 55/55/55 54/54/54 52/52/52
f 58/58/58 57/57/57 56/56/56
f 59/59/59 58/58/58 56/56/56
