g L_Knee
v 0.001094312 -0.0002280459 0.0003605997
v 0.001856752 0.0003163628 0.0004543118
v 0.001856752 0.0003788835 -0.002646275
v 0.001094312 -0.0001812701 -0.002739987
v 0.001094312 -0.0002280459 0.0003605997
v 0.001094312 -0.0001812701 -0.002739987
v 0.0004848377 4.698604E-05 -0.002740078
v 0.0004848376 -6.205559E-06 0.0003605082
v 0.0004848376 -6.205559E-06 0.0003605082
v 0.0004848377 4.698604E-05 -0.002740078
v -0.0001637594 4.698658E-05 -0.002740078
v -0.0001637595 -6.205023E-06 0.0003605082
v 0.001554967 0.0005698249 0.000452596
v 0.001554967 0.0006396761 -0.002647992
v 0.001856752 0.0003788835 -0.002646275
v 0.001856752 0.0003163628 0.0004543118
v -0.0001637595 -6.205023E-06 0.0003605082
v -0.0001637594 4.698658E-05 -0.002740078
v -0.0007732342 -0.0001812703 -0.002739987
v -0.0007732343 -0.0002280461 0.0003605997
v -0.001535675 0.0003163628 0.0004543118
v -0.001535674 0.0003788835 -0.002646275
v -0.001233889 0.0006396761 -0.002647992
v -0.001233889 0.0005698248 0.000452596
v -0.001233889 0.0005698248 0.000452596
v -0.001233889 0.0006396761 -0.002647992
v -0.0003237388 0.0009805141 -0.0026479
v -0.0003237388 0.0009010828 0.0004526875
v -0.0003237388 0.0009010828 0.0004526875
v -0.0003237388 0.0009805141 -0.0026479
v 0.000644817 0.0009805138 -0.0026479
v 0.0006448169 0.0009010821 0.0004526875
v -0.0008301882 -0.0002756025 0.0003588831
v -0.0008301882 -0.0002302022 -0.002741703
v -0.001535674 0.0003788835 -0.002646275
v -0.001535675 0.0003163628 0.0004543118
v -0.0007732343 -0.0002280461 0.0003605997
v -0.0007732342 -0.0001812703 -0.002739987
v -0.0008301882 -0.0002302022 -0.002741703
v -0.0008301882 -0.0002756025 0.0003588831
v 0.0006448169 0.0009010821 0.0004526875
v 0.000644817 0.0009805138 -0.0026479
v 0.001554967 0.0006396761 -0.002647992
v 0.001554967 0.0005698249 0.000452596
vt 0.8662109 0.1828613
vt 0.8544922 0.1688232
vt 0.8544922 0.1688232
vt 0.8662109 0.1828613
vt 0.8662109 0.1828613
vt 0.8662109 0.1828613
vt 0.8823242 0.2266846
vt 0.8823242 0.2266846
vt 0.8823242 0.2266846
vt 0.8823242 0.2266846
vt 0.8823242 0.2734375
vt 0.8823242 0.2734375
vt 0.8662109 0.1828613
vt 0.8662109 0.1828613
vt 0.8544922 0.1688232
vt 0.8544922 0.1688232
vt 0.8823242 0.2734375
vt 0.8823242 0.2734375
vt 0.8662109 0.3171387
vt 0.8662109 0.3171387
vt 0.8544922 0.3310547
vt 0.8544922 0.3310547
vt 0.8662109 0.3171387
vt 0.8662109 0.3171387
vt 0.8662109 0.3171387
vt 0.8662109 0.3171387
vt 0.8823242 0.2734375
vt 0.8823242 0.2734375
vt 0.8823242 0.2734375
vt 0.8823242 0.2734375
vt 0.8823242 0.2266846
vt 0.8823242 0.2266846
vt 0.8632813 0.3208008
vt 0.8632813 0.3208008
vt 0.8544922 0.3310547
vt 0.8544922 0.3310547
vt 0.8662109 0.3171387
vt 0.8662109 0.3171387
vt 0.8632813 0.3208008
vt 0.8632813 0.3208008
vt 0.8823242 0.2266846
vt 0.8823242 0.2266846
vt 0.8662109 0.1828613
vt 0.8662109 0.1828613
vn 0.5878906 -0.809082 -0.01425934
vn 0.5878906 -0.809082 -0.01425934
vn 0.5878906 -0.809082 -0.01425934
vn 0.5878906 -0.809082 -0.01425934
vn -0.3464355 -0.9379883 -0.01512146
vn -0.3464355 -0.9379883 -0.01512146
vn -0.3464355 -0.9379883 -0.01512146
vn -0.3464355 -0.9379883 -0.01512146
vn -8.34465E-07 -1 -0.01715088
vn -8.34465E-07 -1 -0.01715088
vn -8.34465E-07 -1 -0.01715088
vn -8.34465E-07 -1 -0.01715088
vn 0.6484375 0.7612305 0.01625061
vn 0.6484375 0.7612305 0.01625061
vn 0.6484375 0.7612305 0.01625061
vn 0.6484375 0.7612305 0.01625061
vn 0.3464355 -0.9379883 -0.01512146
vn 0.3464355 -0.9379883 -0.01512146
vn 0.3464355 -0.9379883 -0.01512146
vn 0.3464355 -0.9379883 -0.01512146
vn -0.6484375 0.7612305 0.01625061
vn -0.6484375 0.7612305 0.01625061
vn -0.6484375 0.7612305 0.01625061
vn -0.6484375 0.7612305 0.01625061
vn -0.3461914 0.9379883 0.02258301
vn -0.3461914 0.9379883 0.02258301
vn -0.3461914 0.9379883 0.02258301
vn -0.3461914 0.9379883 0.02258301
vn 5.364418E-07 0.9995117 0.02560425
vn 5.364418E-07 0.9995117 0.02560425
vn 5.364418E-07 0.9995117 0.02560425
vn 5.364418E-07 0.9995117 0.02560425
vn -0.6489258 -0.7607422 -0.013237
vn -0.6489258 -0.7607422 -0.013237
vn -0.6489258 -0.7607422 -0.013237
vn -0.6489258 -0.7607422 -0.013237
vn 0.6464844 -0.7626953 -0.01133728
vn 0.6464844 -0.7626953 -0.01133728
vn 0.6464844 -0.7626953 -0.01133728
vn 0.6464844 -0.7626953 -0.01133728
vn 0.3461914 0.9379883 0.02258301
vn 0.3461914 0.9379883 0.02258301
vn 0.3461914 0.9379883 0.02258301
vn 0.3461914 0.9379883 0.02258301
g L_Knee_0
f 3/3/3 2/2/2 1/1/1
f 4/4/4 3/3/3 1/1/1
f 7/7/7 6/6/6 5/5/5
f 8/8/8 7/7/7 5/5/5
f 11/11/11 10/10/10 9/9/9
f 12/12/12 11/11/11 9/9/9
f 15/15/15 14/14/14 13/13/13
f 16/16/16 15/15/15 13/13/13
f 19/19/19 18/18/18 17/17/17
f 20/20/20 19/19/19 17/17/17
f 23/23/23 22/22/22 21/21/21
f 24/24/24 23/23/23 21/21/21
f 27/27/27 26/26/26 25/25/25
f 28/28/28 27/27/27 25/25/25
f 31/31/31 30/30/30 29/29/29
f 32/32/32 31/31/31 29/29/29
f 35/35/35 34/34/34 33/33/33
f 36/36/36 35/35/35 33/33/33
f 39/39/39 38/38/38 37/37/37
f 40/40/40 39/39/39 37/37/37
f 43/43/43 42/42/42 41/41/41
f 44/44/44 43/43/43 41/41/41
