g LashesLower01
v 0.04462478 -0.1069687 -0.02210512
v 0.04036645 -0.1069271 -0.01945942
v 0.03925455 -0.1050937 -0.02054527
v 0.04567045 -0.1088974 -0.02112482
v 0.04220838 -0.1099075 -0.02225692
v 0.04970437 -0.1089403 -0.02358648
v 0.04753072 -0.1118542 -0.02389139
v 0.05068395 -0.1109591 -0.02270543
v 0.054702 -0.109303 -0.02428619
v 0.05256242 -0.1138935 -0.02544283
v 0.05565898 -0.1114082 -0.02350846
v 0.05936131 -0.1093329 -0.02400047
v 0.05754409 -0.114321 -0.02621602
v 0.0603221 -0.1115157 -0.0233204
v 0.0642994 -0.1089203 -0.0232583
v 0.0622064 -0.1144088 -0.02599973
v 0.06528094 -0.1111841 -0.02268343
v 0.06917907 -0.1078572 -0.02139685
v 0.06715982 -0.1140565 -0.02533251
v 0.07021584 -0.1101975 -0.0209285
v 0.07320514 -0.1062245 -0.0203449
v 0.07238549 -0.1131667 -0.02398382
v 0.07428999 -0.1086295 -0.019967
v 0.07650407 -0.1041364 -0.01853712
v 0.07698064 -0.1110448 -0.02239051
v 0.07766078 -0.1065917 -0.01823622
v 0.0783556 -0.1000599 -0.01604114
v 0.08044445 -0.1087984 -0.02037865
v 0.07963257 -0.102539 -0.01579405
v 0.0829794 -0.1040672 -0.0171661
v -0.04462479 -0.1069687 -0.02210538
v -0.03925456 -0.1050937 -0.02054552
v -0.04036646 -0.1069271 -0.01945954
v -0.04567046 -0.1088974 -0.02112504
v -0.0422084 -0.1099075 -0.02225711
v -0.04970437 -0.1089403 -0.02358662
v -0.04753073 -0.1118542 -0.02389162
v -0.05068396 -0.1109591 -0.02270551
v -0.05470201 -0.109303 -0.02428624
v -0.05256243 -0.1138935 -0.02544293
v -0.05565898 -0.1114082 -0.0235085
v -0.05936131 -0.1093329 -0.02400047
v -0.05754409 -0.114321 -0.02621602
v -0.06032211 -0.1115157 -0.02332041
v -0.0642994 -0.1089203 -0.0232583
v -0.06220639 -0.1144088 -0.02599973
v -0.06528095 -0.1111841 -0.02268344
v -0.06917909 -0.1078572 -0.02139685
v -0.06715982 -0.1140565 -0.02533251
v -0.07021586 -0.1101975 -0.0209285
v -0.07320517 -0.1062244 -0.0203449
v -0.0723855 -0.1131667 -0.02398383
v -0.07429001 -0.1086295 -0.019967
v -0.07650409 -0.1041364 -0.01853713
v -0.07698067 -0.1110448 -0.02239051
v -0.07766081 -0.1065916 -0.01823622
v -0.07835562 -0.1000598 -0.01604114
v -0.08044447 -0.1087984 -0.02037865
v -0.07963257 -0.1025389 -0.01579405
v -0.08297942 -0.1040672 -0.0171661
vt 0.01751542 0.3865127
vt 0.07561046 0.3266701
vt 0.01751541 0.3233267
vt 0.07561047 0.390331
vt 0.1730464 0.3254614
vt 0.01751542 0.4502309
vt 0.1730464 0.3896927
vt 0.07561047 0.4545447
vt 0.01751542 0.5133961
vt 0.1730464 0.4511628
vt 0.07561049 0.5191567
vt 0.01751543 0.5741334
vt 0.1730464 0.5108743
vt 0.08728416 0.5770174
vt 0.01751543 0.6385406
vt 0.1730464 0.5672958
vt 0.08436576 0.6353499
vt 0.01751545 0.7062863
vt 0.1730464 0.6283049
vt 0.08631139 0.7059606
vt 0.01751545 0.7671552
vt 0.1730464 0.6966302
vt 0.0756105 0.7729942
vt 0.01751545 0.828149
vt 0.1730464 0.7633533
vt 0.0756105 0.8313925
vt 0.01751545 0.8856019
vt 0.1730464 0.8211818
vt 0.07561052 0.8857496
vt 0.1730465 0.8848349
vt 0.01751542 0.3865127
vt 0.01751541 0.3233267
vt 0.07561046 0.3266701
vt 0.07561047 0.390331
vt 0.1730464 0.3254614
vt 0.01751542 0.4502309
vt 0.1730464 0.3896927
vt 0.07561047 0.4545447
vt 0.01751542 0.5133961
vt 0.1730464 0.4511628
vt 0.07561049 0.5191567
vt 0.01751543 0.5741334
vt 0.1730464 0.5108743
vt 0.08728416 0.5770174
vt 0.01751543 0.6385406
vt 0.1730464 0.5672958
vt 0.08436576 0.6353499
vt 0.01751545 0.7062863
vt 0.1730464 0.6283049
vt 0.08631139 0.7059606
vt 0.01751545 0.7671552
vt 0.1730464 0.6966302
vt 0.0756105 0.7729942
vt 0.01751545 0.828149
vt 0.1730464 0.7633533
vt 0.0756105 0.8313925
vt 0.01751545 0.8856019
vt 0.1730464 0.8211818
vt 0.07561052 0.8857496
vt 0.1730465 0.8848349
vn 0.4270785 0.5940095 0.6817308
vn 0.386695 0.3617239 0.8483059
vn 0.4223561 0.6102914 0.6701939
vn 0.2694197 -0.07657719 0.9599733
vn -0.03259267 -0.6941878 0.7190557
vn 0.3487701 0.5219141 0.7784376
vn -0.05904932 -0.7014388 0.7102794
vn 0.1291823 -0.1910574 0.9730411
vn 0.09188201 0.39022 0.9161255
vn 0.03091911 -0.670626 0.741151
vn 0.0337743 -0.2042422 0.9783376
vn -0.084366 0.2679594 0.9597292
vn -0.01108989 -0.6844756 0.7289513
vn -0.08878355 -0.2747339 0.9574125
vn -0.2354589 0.1468142 0.9607313
vn -0.04624894 -0.6945971 0.7179107
vn -0.180844 -0.3543744 0.91745
vn -0.3133213 0.05541898 0.9480288
vn -0.0636773 -0.7111426 0.7001581
vn -0.1646996 -0.3725644 0.9132742
vn -0.3484877 -0.009191247 0.9372683
vn 0.00177692 -0.701945 0.7122288
vn -0.1479208 -0.4012398 0.9039503
vn -0.5247045 -0.1491154 0.8381227
vn 0.05083225 -0.6814651 0.7300831
vn -0.1798271 -0.4479996 0.8757617
vn -0.5855228 -0.2015874 0.7851915
vn 0.06512586 -0.6405246 0.7651712
vn -0.3276428 -0.3850745 0.8627676
vn 0.1115397 -0.5777442 0.8085608
vn -0.4270792 0.594026 0.6817158
vn -0.4223633 0.6103099 0.6701725
vn -0.3867067 0.3617401 0.8482935
vn -0.269418 -0.07657006 0.9599745
vn 0.03258398 -0.6941901 0.7190539
vn -0.3487571 0.5219262 0.7784352
vn 0.05906902 -0.7014468 0.7102699
vn -0.1291626 -0.1910571 0.9730437
vn -0.09187239 0.3902275 0.9161233
vn -0.03090643 -0.6706303 0.7411475
vn -0.03376499 -0.204241 0.9783382
vn 0.08437188 0.2679583 0.959729
vn 0.01109475 -0.6844766 0.7289504
vn 0.08878711 -0.2747353 0.9574118
vn 0.2354586 0.1468133 0.9607315
vn 0.04625043 -0.6945988 0.7179091
vn 0.1808438 -0.3543761 0.9174492
vn 0.3133211 0.05541873 0.9480288
vn 0.0636772 -0.7111435 0.7001573
vn 0.1646996 -0.3725635 0.9132746
vn 0.3484884 -0.009190499 0.937268
vn -0.001776648 -0.7019441 0.7122298
vn 0.1479213 -0.4012387 0.9039507
vn 0.5247073 -0.1491142 0.8381212
vn -0.05083209 -0.6814645 0.7300838
vn 0.1798277 -0.4480002 0.8757613
vn 0.5855263 -0.2015861 0.7851891
vn -0.06512632 -0.6405253 0.7651706
vn 0.3276452 -0.3850749 0.8627665
vn -0.1115406 -0.5777458 0.8085595
g LashesLower01_0
f 3/3/3 2/2/2 1/1/1
f 2/2/2 4/4/4 1/1/1
f 2/2/2 5/5/5 4/4/4
f 1/1/1 4/4/4 6/6/6
f 5/5/5 7/7/7 4/4/4
f 4/4/4 8/8/8 6/6/6
f 4/4/4 7/7/7 8/8/8
f 6/6/6 8/8/8 9/9/9
f 7/7/7 10/10/10 8/8/8
f 8/8/8 11/11/11 9/9/9
f 8/8/8 10/10/10 11/11/11
f 9/9/9 11/11/11 12/12/12
f 10/10/10 13/13/13 11/11/11
f 11/11/11 14/14/14 12/12/12
f 11/11/11 13/13/13 14/14/14
f 12/12/12 14/14/14 15/15/15
f 13/13/13 16/16/16 14/14/14
f 14/14/14 17/17/17 15/15/15
f 14/14/14 16/16/16 17/17/17
f 15/15/15 17/17/17 18/18/18
f 16/16/16 19/19/19 17/17/17
f 17/17/17 20/20/20 18/18/18
f 17/17/17 19/19/19 20/20/20
f 18/18/18 20/20/20 21/21/21
f 19/19/19 22/22/22 20/20/20
f 20/20/20 23/23/23 21/21/21
f 20/20/20 22/22/22 23/23/23
f 21/21/21 23/23/23 24/24/24
f 22/22/22 25/25/25 23/23/23
f 23/23/23 26/26/26 24/24/24
f 23/23/23 25/25/25 26/26/26
f 24/24/24 26/26/26 27/27/27
f 25/25/25 28/28/28 26/26/26
f 26/26/26 29/29/29 27/27/27
f 26/26/26 28/28/28 29/29/29
f 28/28/28 30/30/30 29/29/29
f 33/33/33 32/32/32 31/31/31
f 34/34/34 33/33/33 31/31/31
f 35/35/35 33/33/33 34/34/34
f 34/34/34 31/31/31 36/36/36
f 37/37/37 35/35/35 34/34/34
f 38/38/38 34/34/34 36/36/36
f 37/37/37 34/34/34 38/38/38
f 38/38/38 36/36/36 39/39/39
f 40/40/40 37/37/37 38/38/38
f 41/41/41 38/38/38 39/39/39
f 40/40/40 38/38/38 41/41/41
f 41/41/41 39/39/39 42/42/42
f 43/43/43 40/40/40 41/41/41
f 44/44/44 41/41/41 42/42/42
f 43/43/43 41/41/41 44/44/44
f 44/44/44 42/42/42 45/45/45
f 46/46/46 43/43/43 44/44/44
f 47/47/47 44/44/44 45/45/45
f 46/46/46 44/44/44 47/47/47
f 47/47/47 45/45/45 48/48/48
f 49/49/49 46/46/46 47/47/47
f 50/50/50 47/47/47 48/48/48
f 49/49/49 47/47/47 50/50/50
f 50/50/50 48/48/48 51/51/51
f 52/52/52 49/49/49 50/50/50
f 53/53/53 50/50/50 51/51/51
f 52/52/52 50/50/50 53/53/53
f 53/53/53 51/51/51 54/54/54
f 55/55/55 52/52/52 53/53/53
f 56/56/56 53/53/53 54/54/54
f 55/55/55 53/53/53 56/56/56
f 56/56/56 54/54/54 57/57/57
f 58/58/58 55/55/55 56/56/56
f 59/59/59 56/56/56 57/57/57
f 58/58/58 56/56/56 59/59/59
f 60/60/60 58/58/58 59/59/59
