g leather_piece_01
v 0.1679081 -0.07795648 -0.1030524
v 0.2750645 0.0165039 -0.08895899
v 0.2467864 0.02189868 -0.1286544
v 0.1445812 -0.06939379 -0.1404283
v 0.0632518 -0.1729422 -0.1138316
v 0.03907795 -0.1643763 -0.1521393
v -0.05502361 -0.2631204 -0.1475974
v -0.04012567 -0.2700504 -0.1208873
v 0.1347847 -0.06271935 -0.1373111
v 0.2304564 0.02236585 -0.1257791
v 0.1360766 0.1101557 -0.04446144
v 0.03256652 -0.1544197 -0.1489781
v 0.1466076 0.1151685 -0.04140075
v 0.2750645 0.0165039 -0.08895899
v 0.1616004 0.108135 -0.01465282
v 0.03725921 0.02791751 -0.06190247
v 0.07447074 0.1889757 0.02597733
v 0.09148235 0.1794835 0.05726409
v 0.06633899 0.1815704 0.02031014
v 0.01812807 0.2667972 0.1201747
v 0.03502238 0.2574357 0.1513728
v 0.01486444 0.2542728 0.1095112
v -0.1014291 0.1674013 0.07699726
v -0.02909097 0.1018614 0.003203742
v -0.1043769 0.1735768 0.08742154
v 0.03502238 0.2574357 0.1513728
v -0.07875039 0.1622241 0.1308509
v -0.1972826 0.0668845 0.06613389
v -0.2036109 0.06969911 0.07784297
v -0.1875115 0.05992519 0.1094684
v -0.2521248 -0.02764518 0.1521393
v -0.2726549 -0.03279763 0.1191059
v -0.0550417 -0.06147192 -0.08029905
v -0.2635576 -0.02973808 0.105077
v -0.09240183 0.01307618 -0.006604142
v -0.192327 -0.09680957 0.01799742
v -0.1383961 -0.1540876 -0.05755084
v -0.1983275 -0.1050147 0.02482672
v -0.2521248 -0.02764518 0.1521393
v -0.1846011 -0.115869 0.07014462
v -0.1440172 -0.1648165 -0.05513373
v -0.1286141 -0.1755832 -0.02231433
v -0.05503649 -0.246742 -0.1570365
v -0.04012567 -0.2700504 -0.1208873
vt 0.2499084 0.7634818
vt 0.2495632 0.7208707
vt 0.240692 0.7236703
vt 0.239405 0.7660877
vt 0.2488935 0.8057323
vt 0.2382566 0.8074257
vt 0.2377389 0.8478963
vt 0.2470008 0.8465814
vt 0.2358816 0.7667553
vt 0.2371334 0.7270451
vt 0.1920325 0.7298956
vt 0.2347659 0.8066769
vt 0.1925907 0.7263806
vt 0.2404849 0.7144002
vt 0.1923245 0.7170699
vt 0.19109 0.7690356
vt 0.156328 0.7253127
vt 0.1556953 0.7144761
vt 0.1571365 0.7288281
vt 0.1174403 0.7208944
vt 0.1164396 0.71004
vt 0.1208976 0.7244332
vt 0.1210626 0.7639624
vt 0.1568626 0.7668366
vt 0.1175769 0.7630973
vt 0.1070406 0.7176117
vt 0.1054882 0.760512
vt 0.119687 0.8028108
vt 0.1160494 0.8034118
vt 0.1052881 0.8016024
vt 0.1063093 0.8436829
vt 0.115408 0.8456395
vt 0.1905842 0.8062968
vt 0.1190066 0.8421589
vt 0.1561994 0.8040688
vt 0.1553319 0.8430062
vt 0.189817 0.8437621
vt 0.1544746 0.8465502
vt 0.1135413 0.85481
vt 0.1524032 0.8594049
vt 0.1902316 0.8473254
vt 0.1894442 0.8603154
vt 0.234318 0.8443329
vt 0.2375712 0.8572142
vn 0.6038552 -0.6081394 -0.5152916
vn 0.8180088 0.3214403 -0.4770091
vn 0.7576056 0.1224081 -0.6411319
vn 0.5181648 -0.487872 -0.7024856
vn 0.6057212 -0.6071167 -0.5143065
vn 0.5267527 -0.507459 -0.6819214
vn -0.2384686 -0.8538326 -0.4627122
vn -0.04041304 -0.9594144 -0.2790893
vn -0.2529578 0.4274007 -0.8679521
vn -0.2371748 0.4615522 -0.8548202
vn -0.251164 0.4871079 -0.8364463
vn -0.3290538 0.3647928 -0.8710051
vn 0.4589535 0.8167615 -0.3496604
vn 0.8180088 0.3214403 -0.4770091
vn 0.5846431 0.7914836 -0.1781742
vn -0.290352 0.4579701 -0.8402137
vn 0.5009679 0.7969438 -0.337508
vn 0.6712784 0.7252104 -0.1531505
vn -0.2732434 0.5634495 -0.7796555
vn -0.1306031 0.9672624 0.2175921
vn -0.04294721 0.9494138 0.3110771
vn -0.2998826 0.6270047 -0.7189823
vn -0.365081 0.5333456 -0.7630585
vn -0.3359239 0.5005136 -0.7978981
vn -0.6658439 0.6857461 0.2939459
vn -0.04294721 0.9494138 0.3110771
vn -0.6178356 0.5946331 0.5144811
vn -0.5228076 0.3210999 -0.7896626
vn -0.740551 0.6309106 0.2313784
vn -0.645294 0.5994954 0.4734985
vn -0.8925899 -0.04569037 0.4485483
vn -0.9267921 -0.2619991 0.2690962
vn -0.4212265 0.4004073 -0.8137826
vn -0.6313578 0.2045862 -0.7480185
vn -0.485212 0.3801175 -0.7874516
vn -0.6037642 0.2719013 -0.7493588
vn -0.5475836 0.3310321 -0.7684856
vn -0.7676159 -0.639065 -0.04859865
vn -0.8925899 -0.04569037 0.4485483
vn -0.6369886 -0.7541645 0.1596296
vn -0.7941704 -0.5960517 -0.1183877
vn -0.6801187 -0.7278322 0.08774271
vn -0.4429263 0.2536952 -0.8599157
vn -0.04041304 -0.9594144 -0.2790893
g leather_piece_01_0
f 3/3/3 2/2/2 1/1/1
f 4/4/4 3/3/3 1/1/1
f 4/4/4 1/1/1 5/5/5
f 6/6/6 4/4/4 5/5/5
f 6/6/6 5/5/5 7/7/7
f 5/5/5 8/8/8 7/7/7
f 9/9/9 4/4/4 6/6/6
f 3/3/3 4/4/4 10/10/10
f 4/4/4 9/9/9 10/10/10
f 10/10/10 11/11/11 3/3/3
f 11/11/11 10/10/10 9/9/9
f 12/12/12 9/9/9 6/6/6
f 12/12/12 6/6/6 7/7/7
f 11/11/11 13/13/13 3/3/3
f 3/3/3 13/13/13 14/14/14
f 13/13/13 15/15/15 14/14/14
f 16/16/16 11/11/11 9/9/9
f 16/16/16 9/9/9 12/12/12
f 13/13/13 17/17/17 15/15/15
f 17/17/17 18/18/18 15/15/15
f 13/13/13 11/11/11 19/19/19
f 19/19/19 11/11/11 16/16/16
f 17/17/17 13/13/13 19/19/19
f 17/17/17 20/20/20 18/18/18
f 20/20/20 21/21/21 18/18/18
f 17/17/17 19/19/19 22/22/22
f 20/20/20 17/17/17 22/22/22
f 23/23/23 22/22/22 19/19/19
f 22/22/22 23/23/23 20/20/20
f 24/24/24 19/19/19 16/16/16
f 24/24/24 23/23/23 19/19/19
f 23/23/23 25/25/25 20/20/20
f 26/26/26 20/20/20 25/25/25
f 27/27/27 26/26/26 25/25/25
f 25/25/25 23/23/23 28/28/28
f 28/28/28 23/23/23 24/24/24
f 27/27/27 25/25/25 29/29/29
f 29/29/29 25/25/25 28/28/28
f 30/30/30 27/27/27 29/29/29
f 30/30/30 29/29/29 31/31/31
f 29/29/29 32/32/32 31/31/31
f 24/24/24 16/16/16 33/33/33
f 33/33/33 16/16/16 12/12/12
f 29/29/29 28/28/28 34/34/34
f 32/32/32 29/29/29 34/34/34
f 35/35/35 28/28/28 24/24/24
f 28/28/28 35/35/35 34/34/34
f 35/35/35 24/24/24 33/33/33
f 35/35/35 36/36/36 34/34/34
f 34/34/34 36/36/36 32/32/32
f 35/35/35 33/33/33 36/36/36
f 33/33/33 12/12/12 37/37/37
f 33/33/33 37/37/37 36/36/36
f 36/36/36 38/38/38 32/32/32
f 36/36/36 37/37/37 38/38/38
f 39/39/39 32/32/32 38/38/38
f 40/40/40 39/39/39 38/38/38
f 40/40/40 38/38/38 41/41/41
f 37/37/37 41/41/41 38/38/38
f 42/42/42 40/40/40 41/41/41
f 12/12/12 43/43/43 37/37/37
f 41/41/41 37/37/37 43/43/43
f 43/43/43 12/12/12 7/7/7
f 7/7/7 41/41/41 43/43/43
f 42/42/42 41/41/41 7/7/7
f 44/44/44 42/42/42 7/7/7
