g leather_piece_02
v 0.1867455 -0.1056707 0.04974774
v 0.2562629 -0.03252785 0.1518326
v 0.2673264 -0.02258223 0.1242625
v 0.2000931 -0.0929452 0.01804695
v 0.1163145 -0.1798394 -0.04838445
v 0.1297468 -0.1670247 -0.07997454
v 0.05438749 -0.2469378 -0.1627479
v 0.0433102 -0.2569001 -0.1351536
v 0.1920876 -0.08465181 0.01387949
v 0.2545706 -0.01919911 0.1142128
v 0.1420874 0.08373268 0.0987681
v 0.1242054 -0.1561028 -0.08121192
v 0.1472002 0.08669484 0.1092793
v 0.2562629 -0.03252785 0.1518326
v 0.1361452 0.07661302 0.1369532
v 0.08212164 0.02151731 -0.003626847
v 0.05749711 0.1711646 0.1134328
v 0.04408686 0.1582235 0.1452299
v 0.055646 0.1654565 0.1026129
v -0.04114513 0.2568698 0.1377808
v -0.05455118 0.24408 0.1694522
v -0.03662634 0.2453249 0.1264883
v -0.09830866 0.1804754 0.02494089
v -0.002002449 0.1052204 0.001450271
v -0.1073851 0.1869122 0.03056909
v -0.05455118 0.24408 0.1694522
v -0.1240066 0.17102 0.06602811
v -0.1688178 0.1057871 -0.05998463
v -0.1804282 0.1095355 -0.05736923
v -0.1947179 0.0964777 -0.02606127
v -0.2673587 0.01990138 -0.1206634
v -0.2562897 0.02985348 -0.1482434
v 0.0161499 -0.04948919 -0.08814043
v -0.2397542 0.0310969 -0.144874
v -0.0703177 0.03135432 -0.07893574
v -0.1436367 -0.04598964 -0.1599772
v -0.05504205 -0.1250957 -0.1639582
v -0.153436 -0.05290943 -0.163798
v -0.2673587 0.01990138 -0.1206634
v -0.1696327 -0.06717104 -0.1252214
v -0.06168165 -0.134661 -0.1680776
v -0.07775959 -0.1490287 -0.1295069
v 0.05366912 -0.230887 -0.1581611
v 0.0433102 -0.2569001 -0.1351536
vt 0.2499084 0.7634818
vt 0.2495632 0.7208707
vt 0.240692 0.7236703
vt 0.239405 0.7660877
vt 0.2488935 0.8057323
vt 0.2382566 0.8074257
vt 0.2377389 0.8478963
vt 0.2470008 0.8465814
vt 0.2358816 0.7667553
vt 0.2371334 0.7270451
vt 0.1920325 0.7298956
vt 0.2347659 0.8066769
vt 0.1925907 0.7263806
vt 0.2404849 0.7144002
vt 0.1923245 0.7170699
vt 0.19109 0.7690356
vt 0.156328 0.7253127
vt 0.1556953 0.7144761
vt 0.1571365 0.7288281
vt 0.1174403 0.7208944
vt 0.1164396 0.71004
vt 0.1208976 0.7244332
vt 0.1210626 0.7639624
vt 0.1568626 0.7668366
vt 0.1175769 0.7630973
vt 0.1070406 0.7176117
vt 0.1054882 0.760512
vt 0.119687 0.8028108
vt 0.1160494 0.8034118
vt 0.1052881 0.8016024
vt 0.1063093 0.8436829
vt 0.115408 0.8456395
vt 0.1905842 0.8062968
vt 0.1190066 0.8421589
vt 0.1561994 0.8040688
vt 0.1553319 0.8430062
vt 0.189817 0.8437621
vt 0.1544746 0.8465502
vt 0.1135413 0.85481
vt 0.1524032 0.8594049
vt 0.1902316 0.8473254
vt 0.1894442 0.8603154
vt 0.234318 0.8443329
vt 0.2375712 0.8572142
vn 0.710025 -0.7038857 0.02023584
vn 0.9068205 0.1218718 0.4035146
vn 0.9790317 0.04182692 0.1993675
vn 0.8330365 -0.5197349 -0.1895407
vn 0.7126761 -0.701167 0.0213946
vn 0.8192943 -0.5337801 -0.20937
vn 0.01253924 -0.8267235 -0.5624688
vn -0.01776428 -0.9340849 -0.356609
vn 0.5524777 0.4620939 -0.6937129
vn 0.5820597 0.4982189 -0.6426387
vn 0.5511755 0.5365973 -0.6389592
vn 0.4919575 0.4116119 -0.7671724
vn 0.6533963 0.718847 0.2373441
vn 0.9068205 0.1218718 0.4035146
vn 0.5817052 0.6560032 0.4809147
vn 0.508157 0.497606 -0.7029685
vn 0.6638781 0.6973814 0.2700463
vn 0.6220688 0.6028704 0.4995775
vn 0.4583275 0.6272642 -0.629663
vn -0.08298907 0.9769062 0.1968934
vn -0.09982099 0.9366274 0.3358048
vn 0.379588 0.6841288 -0.6228008
vn 0.3212593 0.6396273 -0.6983333
vn 0.4009107 0.5828297 -0.7068098
vn -0.5614124 0.8029466 -0.2002321
vn -0.09982099 0.9366274 0.3358048
vn -0.7115437 0.7023243 -0.02112267
vn 0.2724919 0.5862956 -0.7628928
vn -0.5728145 0.7905921 -0.2164433
vn -0.7096967 0.7040141 -0.02635969
vn -0.9336489 0.1203588 -0.3373624
vn -0.8241615 0.04283018 -0.564733
vn 0.4404773 0.4491081 -0.7773556
vn 0.2598417 0.5595946 -0.7869792
vn 0.3405153 0.5291979 -0.7771737
vn 0.3215736 0.5008714 -0.803566
vn 0.3961095 0.4187801 -0.8171417
vn -0.4991527 -0.5004889 -0.7073594
vn -0.9336489 0.1203588 -0.3373624
vn -0.5939938 -0.6429158 -0.4835601
vn -0.4782312 -0.519273 -0.7082729
vn -0.5953208 -0.6415985 -0.483678
vn 0.4399367 0.3697012 -0.8183989
vn -0.01776428 -0.9340849 -0.356609
g leather_piece_02_0
f 3/3/3 2/2/2 1/1/1
f 4/4/4 3/3/3 1/1/1
f 4/4/4 1/1/1 5/5/5
f 6/6/6 4/4/4 5/5/5
f 6/6/6 5/5/5 7/7/7
f 5/5/5 8/8/8 7/7/7
f 9/9/9 4/4/4 6/6/6
f 3/3/3 4/4/4 10/10/10
f 4/4/4 9/9/9 10/10/10
f 10/10/10 11/11/11 3/3/3
f 11/11/11 10/10/10 9/9/9
f 12/12/12 9/9/9 6/6/6
f 12/12/12 6/6/6 7/7/7
f 11/11/11 13/13/13 3/3/3
f 3/3/3 13/13/13 14/14/14
f 13/13/13 15/15/15 14/14/14
f 16/16/16 11/11/11 9/9/9
f 16/16/16 9/9/9 12/12/12
f 13/13/13 17/17/17 15/15/15
f 17/17/17 18/18/18 15/15/15
f 13/13/13 11/11/11 19/19/19
f 19/19/19 11/11/11 16/16/16
f 17/17/17 13/13/13 19/19/19
f 17/17/17 20/20/20 18/18/18
f 20/20/20 21/21/21 18/18/18
f 17/17/17 19/19/19 22/22/22
f 20/20/20 17/17/17 22/22/22
f 23/23/23 22/22/22 19/19/19
f 22/22/22 23/23/23 20/20/20
f 24/24/24 19/19/19 16/16/16
f 24/24/24 23/23/23 19/19/19
f 23/23/23 25/25/25 20/20/20
f 26/26/26 20/20/20 25/25/25
f 27/27/27 26/26/26 25/25/25
f 25/25/25 23/23/23 28/28/28
f 28/28/28 23/23/23 24/24/24
f 27/27/27 25/25/25 29/29/29
f 29/29/29 25/25/25 28/28/28
f 30/30/30 27/27/27 29/29/29
f 30/30/30 29/29/29 31/31/31
f 29/29/29 32/32/32 31/31/31
f 24/24/24 16/16/16 33/33/33
f 33/33/33 16/16/16 12/12/12
f 29/29/29 28/28/28 34/34/34
f 32/32/32 29/29/29 34/34/34
f 35/35/35 28/28/28 24/24/24
f 28/28/28 35/35/35 34/34/34
f 35/35/35 24/24/24 33/33/33
f 35/35/35 36/36/36 34/34/34
f 34/34/34 36/36/36 32/32/32
f 35/35/35 33/33/33 36/36/36
f 33/33/33 12/12/12 37/37/37
f 33/33/33 37/37/37 36/36/36
f 36/36/36 38/38/38 32/32/32
f 36/36/36 37/37/37 38/38/38
f 39/39/39 32/32/32 38/38/38
f 40/40/40 39/39/39 38/38/38
f 40/40/40 38/38/38 41/41/41
f 37/37/37 41/41/41 38/38/38
f 42/42/42 40/40/40 41/41/41
f 12/12/12 43/43/43 37/37/37
f 41/41/41 37/37/37 43/43/43
f 43/43/43 12/12/12 7/7/7
f 7/7/7 41/41/41 43/43/43
f 42/42/42 41/41/41 7/7/7
f 44/44/44 42/42/42 7/7/7
