g leather_piece_03
v -0.3096613 1.66893E-08 -0.01767766
v -0.2011979 -0.0911247 -0.02151553
v -0.2923635 3.504753E-07 -0.02198697
v -0.211861 -0.09762952 -0.01705395
v -0.1128689 -0.1796452 -0.01548255
v -0.1204574 -0.1892315 -0.01102931
v 0.0001367359 -0.2932194 -0.002095396
v -0.0001780744 -0.3101535 0.002701042
v -0.2923635 3.504753E-07 -0.02198697
v -0.2041131 0.1056663 -0.01240778
v -0.3096613 1.66893E-08 -0.01767766
v -0.1937906 0.0989117 -0.01694874
v -0.1012015 0.2084165 -0.01147432
v -0.09443291 0.1981136 -0.01601494
v 0.0002016907 0.3101535 -0.003060505
v 0.0004907327 0.2930954 -0.007649462
v -0.0001780744 -0.3101535 0.002701042
v 0.09913199 -0.1943831 -0.0009358231
v 0.0001367359 -0.2932194 -0.002095396
v 0.1056187 -0.2045052 0.003926238
v 0.1981141 -0.09518627 0.005824345
v 0.2080565 -0.1018451 0.01067799
v 0.2925913 2.837181E-07 0.01802002
v 0.3093016 1.66893E-08 0.02313402
v 0.0004907327 0.2930954 -0.007649462
v 0.09749699 0.2126591 0.003169545
v 0.0002016907 0.3101535 -0.003060505
v 0.09150468 0.2021967 -0.00178364
v 0.188635 0.1209385 0.01502843
v 0.1794681 0.1136708 0.01007631
v 0.3093016 1.66893E-08 0.02313402
v 0.2925913 2.837181E-07 0.01802002
v -0.1012015 0.2084165 -0.01147432
v 0.0002016907 0.3101535 -0.003060505
v -0.001369298 0.3101535 0.02077362
v -0.1029313 0.2083711 0.01407934
v -0.2041131 0.1056663 -0.01240778
v -0.205492 0.1055879 0.007319172
v -0.3108511 1.66893E-08 0.0003744872
v -0.3096613 1.66893E-08 -0.01767766
v 0.1981141 -0.09518627 0.005824345
v 0.2925913 2.837181E-07 0.01802002
v 0.1794681 0.1136708 0.01007631
v 0.08521822 0.01841793 -0.009185678
v 0.09913199 -0.1943831 -0.0009358231
v 0.09150468 0.2021967 -0.00178364
v -0.01376127 -0.08077633 -0.01594565
v -0.002737479 0.106936 -0.02104443
v -0.1128689 -0.1796452 -0.01548255
v 0.0001367359 -0.2932194 -0.002095396
v -0.2011979 -0.0911247 -0.02151553
v -0.1020876 0.007741716 -0.02197816
v -0.2923635 3.504753E-07 -0.02198697
v -0.1937906 0.0989117 -0.01694874
v -0.09443291 0.1981136 -0.01601494
v 0.0004907327 0.2930954 -0.007649462
v 0.2065506 -0.1017824 0.03447821
v 0.3081126 1.66893E-08 0.04117262
v 0.3093016 1.66893E-08 0.02313402
v 0.2080565 -0.1018451 0.01067799
v 0.1039899 -0.2045656 0.0277181
v 0.1056187 -0.2045052 0.003926238
v -0.0001780744 -0.3101535 0.002701042
v -0.001369298 -0.3101535 0.02077362
v 0.3081126 1.66893E-08 0.04117262
v 0.188635 0.1209385 0.01502843
v 0.3093016 1.66893E-08 0.02313402
v 0.1875054 0.1208689 0.03322297
v 0.09749699 0.2126591 0.003169545
v 0.0959833 0.2125896 0.02719059
v 0.0002016907 0.3101535 -0.003060505
v -0.001369298 0.3101535 0.02077362
v -0.0001780744 -0.3101535 0.002701042
v -0.1219765 -0.1892845 0.0128239
v -0.001369298 -0.3101535 0.02077362
v -0.1204574 -0.1892315 -0.01102931
v -0.2134985 -0.09756383 0.006791323
v -0.211861 -0.09762952 -0.01705395
v -0.3108511 1.66893E-08 0.0003744872
v -0.3096613 1.66893E-08 -0.01767766
vt 0.115408 0.8456395
vt 0.1553319 0.8430062
vt 0.1190066 0.8421589
vt 0.1544746 0.8465502
vt 0.189817 0.8437621
vt 0.1902316 0.8473254
vt 0.234318 0.8443329
vt 0.2377389 0.8478963
vt 0.1190066 0.8421589
vt 0.1160494 0.8034118
vt 0.115408 0.8456395
vt 0.119687 0.8028108
vt 0.1175769 0.7630973
vt 0.1210626 0.7639624
vt 0.1174403 0.7208944
vt 0.1208976 0.7244332
vt 0.2377389 0.8478963
vt 0.2347659 0.8066769
vt 0.234318 0.8443329
vt 0.2382566 0.8074257
vt 0.2358816 0.7667553
vt 0.239405 0.7660877
vt 0.2371334 0.7270451
vt 0.240692 0.7236703
vt 0.1208976 0.7244332
vt 0.156328 0.7253127
vt 0.1174403 0.7208944
vt 0.1571365 0.7288281
vt 0.1925907 0.7263806
vt 0.1920325 0.7298956
vt 0.240692 0.7236703
vt 0.2371334 0.7270451
vt 0.1175769 0.7630973
vt 0.1174403 0.7208944
vt 0.1070406 0.7176117
vt 0.1054882 0.760512
vt 0.1160494 0.8034118
vt 0.1052881 0.8016024
vt 0.1063093 0.8436829
vt 0.115408 0.8456395
vt 0.2358816 0.7667553
vt 0.2371334 0.7270451
vt 0.1920325 0.7298956
vt 0.19109 0.7690356
vt 0.2347659 0.8066769
vt 0.1571365 0.7288281
vt 0.1905842 0.8062968
vt 0.1568626 0.7668366
vt 0.189817 0.8437621
vt 0.234318 0.8443329
vt 0.1553319 0.8430062
vt 0.1561994 0.8040688
vt 0.1190066 0.8421589
vt 0.119687 0.8028108
vt 0.1210626 0.7639624
vt 0.1208976 0.7244332
vt 0.2499084 0.7634818
vt 0.2495632 0.7208707
vt 0.240692 0.7236703
vt 0.239405 0.7660877
vt 0.2488935 0.8057323
vt 0.2382566 0.8074257
vt 0.2377389 0.8478963
vt 0.2470008 0.8465814
vt 0.2404849 0.7144002
vt 0.1925907 0.7263806
vt 0.240692 0.7236703
vt 0.1923245 0.7170699
vt 0.156328 0.7253127
vt 0.1556953 0.7144761
vt 0.1174403 0.7208944
vt 0.1164396 0.71004
vt 0.2377389 0.8478963
vt 0.1894442 0.8603154
vt 0.2375712 0.8572142
vt 0.1902316 0.8473254
vt 0.1524032 0.8594049
vt 0.1544746 0.8465502
vt 0.1135413 0.85481
vt 0.115408 0.8456395
vn -0.2381622 -0.2438794 -0.9401072
vn -0.2247816 -0.261979 -0.9385309
vn -0.2381621 -0.2438794 -0.9401072
vn -0.2280709 -0.2575563 -0.9389614
vn -0.191362 -0.2776901 -0.9414185
vn -0.1877373 -0.2778981 -0.9420868
vn -0.170423 -0.278837 -0.9450957
vn -0.170423 -0.2788369 -0.9450957
vn -0.2309665 0.2774464 -0.9325653
vn -0.2368346 0.2670229 -0.934135
vn -0.2309665 0.2774464 -0.9325653
vn -0.2384204 0.2641888 -0.9345374
vn -0.2125133 0.2612188 -0.9415959
vn -0.219942 0.2594371 -0.9403818
vn -0.1869514 0.2672076 -0.9453302
vn -0.1869514 0.2672076 -0.9453302
vn 0.276792 -0.2664427 -0.9232522
vn 0.2906266 -0.2512856 -0.9232506
vn 0.2767919 -0.2664427 -0.9232522
vn 0.2876458 -0.2545715 -0.9232839
vn 0.3025011 -0.2159377 -0.9283664
vn 0.3027531 -0.208835 -0.9299078
vn 0.3034924 -0.1845202 -0.9347965
vn 0.3034924 -0.1845203 -0.9347965
vn 0.3118661 0.2529204 -0.9158443
vn 0.3242271 0.2387788 -0.9153477
vn 0.3118662 0.2529203 -0.9158443
vn 0.3283293 0.2340377 -0.9151099
vn 0.3137538 0.2263909 -0.9221202
vn 0.3175077 0.2253817 -0.9210819
vn 0.2956352 0.231192 -0.9269035
vn 0.2956352 0.231192 -0.9269035
vn -0.7055752 0.7071072 -0.04650844
vn -0.7055751 0.7071072 -0.04650898
vn -0.7055752 0.7071071 -0.04650898
vn -0.7055751 0.7071072 -0.04650842
vn -0.7055767 0.7071057 -0.04650731
vn -0.7055768 0.7071056 -0.04650729
vn -0.7055789 0.7071036 -0.04650667
vn -0.7055788 0.7071037 -0.04650667
vn 0.1161645 -0.0006134502 -0.9932297
vn 0.1328071 0.03202384 -0.9906245
vn 0.1478341 0.03288315 -0.9884654
vn 0.1169046 1.662716E-06 -0.9931431
vn 0.08210412 -0.04637794 -0.9955441
vn 0.1205003 0.05237646 -0.9913306
vn 0.06842057 -0.04087449 -0.9968189
vn 0.07073457 0.02621997 -0.9971505
vn 0.04994427 -0.0501234 -0.9974935
vn 0.06412499 -0.06074521 -0.9960913
vn 0.01513925 -0.005732309 -0.999869
vn 0.01897696 -0.00234338 -0.9998172
vn -0.0009322074 0.02406054 -0.99971
vn -0.01187676 0.02814835 -0.9995332
vn 0.02482557 0.05088149 -0.9983961
vn 0.07459179 0.07028187 -0.9947344
vn 0.7055766 -0.7071059 0.04650675
vn 0.7055752 -0.7071071 0.04650987
vn 0.7055753 -0.707107 0.04650987
vn 0.7055766 -0.7071059 0.0465067
vn 0.7055771 -0.7071055 0.04650549
vn 0.7055771 -0.7071055 0.04650546
vn 0.7055762 -0.7071062 0.04650713
vn 0.7055762 -0.7071062 0.04650713
vn 0.705575 0.7071071 0.04651382
vn 0.705574 0.7071081 0.04651213
vn 0.705575 0.7071071 0.04651382
vn 0.705574 0.7071081 0.04651217
vn 0.7055746 0.7071077 0.04650827
vn 0.7055746 0.7071078 0.0465083
vn 0.7055759 0.7071065 0.04650663
vn 0.7055759 0.7071065 0.04650663
vn -0.7055768 -0.7071057 -0.04650567
vn -0.7055768 -0.7071058 -0.04650683
vn -0.7055768 -0.7071057 -0.04650568
vn -0.7055768 -0.7071058 -0.04650684
vn -0.7055758 -0.7071065 -0.04650761
vn -0.7055758 -0.7071065 -0.04650762
vn -0.7055749 -0.7071075 -0.04650703
vn -0.7055749 -0.7071075 -0.04650703
g leather_piece_03_0
f 3/3/3 2/2/2 1/1/1
f 2/2/2 4/4/4 1/1/1
f 2/2/2 5/5/5 4/4/4
f 5/5/5 6/6/6 4/4/4
f 6/6/6 5/5/5 7/7/7
f 8/8/8 6/6/6 7/7/7
f 11/11/11 10/10/10 9/9/9
f 10/10/10 12/12/12 9/9/9
f 10/10/10 13/13/13 12/12/12
f 13/13/13 14/14/14 12/12/12
f 14/14/14 13/13/13 15/15/15
f 16/16/16 14/14/14 15/15/15
f 19/19/19 18/18/18 17/17/17
f 18/18/18 20/20/20 17/17/17
f 18/18/18 21/21/21 20/20/20
f 21/21/21 22/22/22 20/20/20
f 22/22/22 21/21/21 23/23/23
f 24/24/24 22/22/22 23/23/23
f 27/27/27 26/26/26 25/25/25
f 26/26/26 28/28/28 25/25/25
f 26/26/26 29/29/29 28/28/28
f 29/29/29 30/30/30 28/28/28
f 30/30/30 29/29/29 31/31/31
f 32/32/32 30/30/30 31/31/31
f 35/35/35 34/34/34 33/33/33
f 36/36/36 35/35/35 33/33/33
f 36/36/36 33/33/33 37/37/37
f 38/38/38 36/36/36 37/37/37
f 38/38/38 37/37/37 39/39/39
f 37/37/37 40/40/40 39/39/39
f 43/43/43 42/42/42 41/41/41
f 44/44/44 43/43/43 41/41/41
f 44/44/44 41/41/41 45/45/45
f 46/46/46 43/43/43 44/44/44
f 47/47/47 44/44/44 45/45/45
f 48/48/48 46/46/46 44/44/44
f 48/48/48 44/44/44 47/47/47
f 47/47/47 45/45/45 49/49/49
f 45/45/45 50/50/50 49/49/49
f 47/47/47 49/49/49 51/51/51
f 52/52/52 47/47/47 51/51/51
f 52/52/52 48/48/48 47/47/47
f 52/52/52 51/51/51 53/53/53
f 54/54/54 52/52/52 53/53/53
f 52/52/52 54/54/54 48/48/48
f 54/54/54 55/55/55 48/48/48
f 48/48/48 55/55/55 46/46/46
f 55/55/55 56/56/56 46/46/46
f 59/59/59 58/58/58 57/57/57
f 60/60/60 59/59/59 57/57/57
f 60/60/60 57/57/57 61/61/61
f 62/62/62 60/60/60 61/61/61
f 62/62/62 61/61/61 63/63/63
f 61/61/61 64/64/64 63/63/63
f 67/67/67 66/66/66 65/65/65
f 66/66/66 68/68/68 65/65/65
f 66/66/66 69/69/69 68/68/68
f 69/69/69 70/70/70 68/68/68
f 69/69/69 71/71/71 70/70/70
f 71/71/71 72/72/72 70/70/70
f 75/75/75 74/74/74 73/73/73
f 74/74/74 76/76/76 73/73/73
f 74/74/74 77/77/77 76/76/76
f 77/77/77 78/78/78 76/76/76
f 77/77/77 79/79/79 78/78/78
f 79/79/79 80/80/80 78/78/78
