g LeaveRightBranch01
v 0.6312628 0.05237289 -0.2665195
v 0.6248187 0.0531118 -0.2656611
v 0.6312227 0.04752208 -0.2685316
v 0.6279361 0.04306806 -0.2638271
v 0.6165986 0.05977431 -0.2488788
v 0.6168246 0.04387415 -0.2504047
v 0.6236885 0.03813042 -0.2497285
v 0.6041785 0.0696504 -0.2402164
v 0.6118959 0.02125969 -0.2352133
v 0.6048616 0.02501825 -0.2396306
v 0.6045517 0.04706641 -0.2364679
v 0.5736672 0.04353767 -0.2201128
v 0.5877729 -0.004443261 -0.2264418
v 0.5686237 -0.0416075 -0.1914732
v 0.5721546 0.08630043 -0.2267792
v 0.5796022 0.1007151 -0.216901
v 0.5168026 0.1293255 -0.1813938
v 0.5066448 0.1482587 -0.1596114
v 0.5789194 0.007872322 -0.2291508
v 0.4873602 -0.0881542 -0.1515558
v 0.5126626 -0.0877799 -0.145589
v 0.4132051 -0.1322574 -0.0992763
v 0.5157794 0.0896672 -0.1859981
v 0.4109719 0.1636815 -0.1184209
v 0.4190266 0.1733443 -0.1110956
v 0.3010164 0.1717834 -0.06959409
v 0.5018325 0.03327551 -0.1644469
v 0.5215006 -0.01533823 -0.1840353
v 0.4020512 -0.1234634 -0.1088238
v 0.3373547 -0.1429119 -0.07686163
v 0.286969 -0.1372 -0.07255864
v 0.446322 -0.0679106 -0.1366681
v 0.4154737 0.02644329 -0.1117345
v 0.3722676 -0.08892456 -0.1047435
v 0.2684989 0.1538865 -0.07014044
v 0.2202572 0.1441965 -0.04248685
v 0.4367423 0.1242482 -0.1374495
v 0.3265178 0.1265612 -0.0913194
v 0.1822761 0.1121045 -0.0451224
v 0.1326032 0.07991311 -0.02540198
v 0.09401385 0.03135339 -0.02039252
v 0.271317 0.004860566 -0.05799247
v 0.1945164 0.07263127 -0.05102038
v 0.09753074 0.02226388 -0.02888266
v 0.07379337 0.006676114 -0.0150171
v 0.0750283 -0.02267694 -0.0171646
v 0.1276226 -0.01536503 -0.03250008
v 0.2621855 -0.07950981 -0.06888621
v 0.1136977 -0.05892575 -0.03036653
v 0.1538548 -0.09813424 -0.02003303
v 0.1870242 -0.1092654 -0.04874706
v 0.2396606 -0.1343384 -0.04730605
v 0.05507889 0.004688488 -0.01675373
v 0.0750283 -0.02267694 -0.0171646
v 0.07379337 0.006676114 -0.0150171
v 0.007435773 0.01177153 -0.008291028
v -0.008520029 -0.004703594 -0.008326261
v -0.06428336 0.01408098 -0.01730627
v -0.07494915 0.02677344 -0.01552519
v -0.08870818 0.01036216 -0.01582653
v -0.08922654 0.02676659 -0.009287027
v -0.09311587 0.01233748 0.0003766932
v -0.07495818 -0.004241796 -0.01089874
v -0.02881051 -0.004990297 0.0009562135
v -0.07572863 0.0006501189 0.002789954
v 0.03562593 -0.01208065 0.0114093
v 0.09034348 -0.02860737 -0.008436414
v 0.1538548 -0.09813424 -0.02003303
v -0.07547265 0.01411218 0.00786114
v 0.000310867 0.01094357 0.01329962
v -0.07337326 0.02687501 0.003538912
v -0.08922654 0.02676659 -0.009287027
v -0.07117559 0.03143615 -0.007300195
v -0.07494915 0.02677344 -0.01552519
v 0.007435773 0.01177153 -0.008291028
v 0.002554899 0.01683235 0.001336107
v 0.06863423 0.002963464 0.01032932
v 0.05516757 0.0107915 -0.009198704
v 0.05507889 0.004688488 -0.01675373
v 0.07379337 0.006676114 -0.0150171
v 0.1109587 -0.01397692 0.01684062
v 0.08520574 0.002085671 0.002241222
v 0.09100565 0.01225683 -0.008805283
v 0.09401385 0.03135339 -0.02039252
v 0.1722141 0.0198697 0.02181708
v 0.1711032 0.05733497 0.01896121
v 0.1138354 0.0380277 -0.01024644
v 0.1331591 0.07003213 -0.006835624
v 0.1326032 0.07991311 -0.02540198
v 0.1743852 0.109728 -0.02088241
v 0.2202572 0.1441965 -0.04248685
v 0.2434822 0.1259543 -0.01874526
v 0.2994667 0.1705896 -0.05667626
v 0.3010164 0.1717834 -0.06959409
v 0.3721725 0.1757852 -0.076287
v 0.4190266 0.1733443 -0.1110956
v 0.324562 0.1154666 -0.02388263
v 0.2546292 0.07773306 0.004751155
v 0.2284919 0.01376454 0.02219823
v 0.4327199 0.1714274 -0.1026154
v 0.5066448 0.1482587 -0.1596114
v 0.4373466 0.1281489 -0.07538237
v 0.1805251 -0.01297799 0.03307979
v 0.3174856 0.01202077 0.007203849
v 0.4214843 0.02453203 -0.03190947
v 0.4940391 0.1503168 -0.1308563
v 0.5530243 0.03991944 -0.1143466
v 0.5622168 0.118631 -0.1780129
v 0.5796022 0.1007151 -0.216901
v 0.1835358 -0.04419944 0.01838434
v 0.2592245 -0.07201812 0.002689946
v 0.1877427 -0.06954326 0.01445896
v 0.2193314 -0.09245359 0.0007651795
v 0.2396606 -0.1343384 -0.04730605
v 0.362615 -0.09523296 -0.03918413
v 0.3252249 -0.1443087 -0.06163063
v 0.286969 -0.1372 -0.07255864
v 0.3373547 -0.1429119 -0.07686163
v 0.4132051 -0.1322574 -0.0992763
v 0.4069082 -0.1274861 -0.08040459
v 0.4639463 -0.06393499 -0.079673
v 0.4571504 -0.1161109 -0.1065407
v 0.5126626 -0.0877799 -0.145589
v 0.522868 -0.07208238 -0.1368051
v 0.4871376 0.03252811 -0.06541822
v 0.5798415 -0.03064539 -0.1829874
v 0.5686237 -0.0416075 -0.1914732
v 0.6118959 0.02125969 -0.2352133
v 0.6105484 0.04708098 -0.1938636
v 0.6202061 0.0343094 -0.2291947
v 0.6236885 0.03813042 -0.2497285
v 0.6221606 0.05242704 -0.2243266
v 0.6278893 0.04778933 -0.2391814
v 0.6307728 0.04976082 -0.2500027
v 0.6279361 0.04306806 -0.2638271
v 0.6067923 0.07656402 -0.2307362
v 0.6041785 0.0696504 -0.2402164
v 0.6165825 0.06539139 -0.2374649
v 0.6165986 0.05977431 -0.2488788
v 0.6231886 0.0576392 -0.2391559
v 0.6233957 0.05974906 -0.2514009
v 0.6248187 0.0531118 -0.2656611
v 0.6297444 0.0551271 -0.2596714
v 0.6312227 0.04752208 -0.2685316
v 0.6312628 0.05237289 -0.2665195
vt 0.9369338 0.9311369
vt 0.9372904 0.9300955
vt 0.9360409 0.9309883
vt 0.9356835 0.9298282
vt 0.9386585 0.9273879
vt 0.9361289 0.9271505
vt 0.93476 0.9276566
vt 0.9408301 0.9253643
vt 0.9323486 0.9245037
vt 0.933747 0.923819
vt 0.9373183 0.9244132
vt 0.9382389 0.9188793
vt 0.9304719 0.9192383
vt 0.9246073 0.9136764
vt 0.944727 0.9206925
vt 0.947495 0.9217033
vt 0.9538299 0.9111998
vt 0.9580252 0.909146
vt 0.9327333 0.9188807
vt 0.9211499 0.8980582
vt 0.9189193 0.9015396
vt 0.9159368 0.8830652
vt 0.9476098 0.9099816
vt 0.963049 0.8932877
vt 0.965073 0.8943582
vt 0.9683397 0.874722
vt 0.9395135 0.9045988
vt 0.931182 0.9072487
vt 0.9186447 0.8822316
vt 0.9173013 0.8704507
vt 0.9207211 0.8631312
vt 0.9256414 0.8920178
vt 0.9415318 0.8891577
vt 0.9248928 0.8788682
vt 0.965868 0.8697246
vt 0.9669659 0.8609181
vt 0.9560271 0.8968892
vt 0.9598298 0.878443
vt 0.9621132 0.8547908
vt 0.9594316 0.845539
vt 0.9531497 0.8380732
vt 0.9431007 0.8653867
vt 0.9557153 0.8557444
vt 0.9513943 0.8386984
vt 0.9496071 0.8339983
vt 0.9449346 0.8334044
vt 0.9447296 0.8423594
vt 0.9305113 0.8616412
vt 0.9384789 0.8391181
vt 0.9299391 0.8419168
vt 0.9286023 0.848849
vt 0.9221169 0.8547412
vt 0.6743589 0.4048498
vt 0.6759882 0.3997825
vt 0.6723676 0.4028592
vt 0.6779794 0.411365
vt 0.6816 0.4120888
vt 0.6825051 0.4216805
vt 0.6817811 0.4243951
vt 0.6852206 0.423671
vt 0.6848585 0.4258428
vt 0.688298 0.4240331
vt 0.6852206 0.4213184
vt 0.6841344 0.4144414
vt 0.6868498 0.4207756
vt 0.6823241 0.4043069
vt 0.6758071 0.3968871
vt 0.662592 0.3869334
vt 0.6888412 0.4207756
vt 0.6868498 0.4091932
vt 0.6906515 0.4204136
vt 0.6919186 0.4231282
vt 0.6924618 0.4200517
vt 0.69391 0.4204136
vt 0.6902894 0.4073834
vt 0.6888412 0.4084693
vt 0.6837724 0.3988777
vt 0.6875739 0.4001446
vt 0.6890223 0.3997825
vt 0.6875739 0.3972489
vt 0.6797897 0.3923627
vt 0.6843154 0.3959822
vt 0.6868498 0.3947153
vt 0.6906515 0.3934486
vt 0.6834103 0.3815043
vt 0.6892032 0.3798754
vt 0.6901083 0.3898291
vt 0.6940911 0.3849428
vt 0.6975306 0.3851237
vt 0.6989788 0.3767989
vt 0.7045906 0.3679312
vt 0.6989788 0.3655786
vt 0.7047716 0.3536343
vt 0.7065819 0.3525484
vt 0.7020562 0.3418711
vt 0.7025994 0.3322794
vt 0.69391 0.3539963
vt 0.6902894 0.3664834
vt 0.6808759 0.3729984
vt 0.700065 0.3317364
vt 0.6953582 0.3168967
vt 0.6924618 0.334632
vt 0.6779794 0.3811423
vt 0.6779794 0.3594254
vt 0.6770742 0.3425949
vt 0.6946341 0.3219639
vt 0.6752641 0.3190683
vt 0.6875739 0.3100197
vt 0.6859447 0.3029617
vt 0.6727297 0.3815043
vt 0.6665747 0.3699219
vt 0.6685659 0.3809613
vt 0.6638592 0.3764369
vt 0.6535406 0.3726366
vt 0.6595146 0.3532723
vt 0.6513682 0.3588826
vt 0.649377 0.3646737
vt 0.6495579 0.3563489
vt 0.649377 0.3427759
vt 0.6520924 0.3449475
vt 0.6615059 0.3355369
vt 0.6529974 0.3357179
vt 0.6542647 0.3235927
vt 0.6575232 0.3226878
vt 0.6763501 0.3315556
vt 0.6629541 0.3098387
vt 0.6602386 0.3098387
vt 0.6703762 0.2984373
vt 0.6752641 0.3042286
vt 0.6729106 0.2986183
vt 0.6734538 0.2951798
vt 0.6761693 0.2989803
vt 0.6752641 0.2966275
vt 0.6756261 0.2949988
vt 0.6745398 0.2928272
vt 0.6808759 0.2991611
vt 0.681057 0.2973516
vt 0.6788845 0.2975324
vt 0.6787036 0.2953608
vt 0.6770742 0.2969895
vt 0.6776174 0.2949988
vt 0.6772553 0.2924652
vt 0.6765312 0.293551
vt 0.675445 0.2921033
vt 0.6761693 0.2924652
vn 0.7228519 0.5041445 -0.472571
vn -0.5831481 0.3871754 -0.7141662
vn 0.5388222 -0.3860616 -0.7487503
vn 0.1604416 -0.8050157 -0.5711464
vn -0.403176 0.5671237 -0.718206
vn -0.6448747 -0.233124 -0.7278666
vn 0.3941226 -0.8351088 -0.3837458
vn -0.1086467 0.4187229 -0.9015914
vn 0.6149784 -0.6435295 -0.4557096
vn -0.1703544 -0.2704722 -0.9475359
vn -0.6115636 -0.02745413 -0.7907189
vn -0.5440312 -0.01560626 -0.8389199
vn 0.1283416 -0.625121 -0.769904
vn 0.4551454 -0.801299 -0.3882816
vn -0.3567391 0.2476973 -0.900768
vn 0.2934738 0.8085383 -0.5100383
vn -0.2989204 0.4858846 -0.8213176
vn 0.1932588 0.9277595 -0.3192387
vn -0.4369992 -0.1651904 -0.8841628
vn -0.1442358 -0.5856488 -0.7976286
vn 0.4865582 -0.8668783 -0.1085505
vn 0.1821661 -0.9662865 -0.1819499
vn -0.557119 -0.03234734 -0.8298025
vn -0.3128132 0.4790316 -0.8201687
vn -0.03763001 0.9335392 -0.3564948
vn -0.2521746 0.8979157 -0.3607707
vn -0.561056 -0.05378284 -0.8260289
vn -0.5607753 -0.03853715 -0.8270707
vn -0.1960862 -0.5203741 -0.8311204
vn -0.02003608 -0.9313592 -0.3635501
vn -0.2503463 -0.6957186 -0.6732773
vn -0.4379251 -0.0512463 -0.8975497
vn -0.4364105 -0.03143444 -0.8991984
vn -0.3334379 -0.03170693 -0.9422387
vn -0.4021204 0.4724145 -0.7842984
vn -0.4345594 0.8985617 0.0611954
vn -0.4695536 0.01489441 -0.8827783
vn -0.3269573 -0.02132528 -0.9447985
vn -0.508822 0.4626486 -0.7259865
vn -0.7176026 0.660018 -0.2223125
vn -0.7909074 0.611748 -0.01515962
vn -0.2577579 0.004117815 -0.9662008
vn -0.2368667 -0.02154411 -0.9713032
vn -0.4503084 0.1588963 -0.8786207
vn -0.3192552 0.7762575 -0.5435996
vn -0.4235937 -0.6092371 -0.6703719
vn -0.2305169 -0.01382087 -0.9729701
vn -0.2716581 0.1161663 -0.9553571
vn -0.6026891 -0.4482328 -0.6601918
vn -0.5158814 -0.8149914 0.2639231
vn -0.4380336 -0.5713372 -0.6940464
vn -0.2277925 -0.9706442 0.07720295
vn -0.07169425 0.3787264 -0.9227276
vn -0.4235937 -0.6092371 -0.6703719
vn -0.3192552 0.7762575 -0.5435996
vn 0.02930402 0.5245291 -0.8508881
vn -0.08385998 -0.52512 -0.8468863
vn 0.0511152 -0.04909252 -0.9974854
vn -0.0808935 0.5759122 -0.8134996
vn -0.6430166 -0.2648617 -0.7185946
vn -0.7069448 0.6849301 -0.1763518
vn -0.8816165 -0.138995 0.4510352
vn -0.274381 -0.8747274 -0.3994583
vn -0.08082613 -0.9967101 0.006007633
vn -0.3074362 -0.7007772 0.6437347
vn -0.09012461 -0.6402143 0.7628913
vn -0.3639226 -0.7474206 0.5558082
vn -0.5158814 -0.8149914 0.2639231
vn -0.2357514 0.0163346 0.9716761
vn 0.02266346 0.4111324 0.9112939
vn -0.1741546 0.6994777 0.6931096
vn -0.7069448 0.6849301 -0.1763518
vn 0.00906847 0.9976255 -0.06827279
vn -0.0808935 0.5759122 -0.8134996
vn 0.02930402 0.5245291 -0.8508881
vn 0.1540703 0.9866635 0.05251109
vn 0.1046291 0.6965131 0.7098749
vn 0.1133304 0.9786047 -0.1717241
vn -0.07169425 0.3787264 -0.9227276
vn -0.3192552 0.7762575 -0.5435996
vn -0.2562295 -0.2027386 0.9451156
vn -0.03971555 0.860548 0.5078188
vn -0.4155045 0.6229841 0.6627571
vn -0.7909074 0.611748 -0.01515962
vn -0.156803 0.2009206 0.9669766
vn -0.1980702 0.3247837 0.9248155
vn -0.5179662 0.361593 0.7752171
vn -0.5605 0.5166135 0.6472637
vn -0.7176026 0.660018 -0.2223125
vn -0.4274798 0.7721735 0.470116
vn -0.4345594 0.8985617 0.0611954
vn -0.02868504 0.5944593 0.803614
vn -0.05583848 0.8752949 0.480355
vn -0.2521746 0.8979157 -0.3607707
vn 0.1494759 0.8951654 0.4199235
vn -0.03763001 0.9335392 -0.3564948
vn 0.2379284 0.3987185 0.8856714
vn 0.1425655 0.3308087 0.9328669
vn 0.1277404 0.1646005 0.9780537
vn 0.3504649 0.8559256 0.3802178
vn 0.1932588 0.9277595 -0.3192387
vn 0.4357225 0.4163276 0.7980083
vn -0.05410757 -0.06706512 0.9962804
vn 0.2928654 0.0252726 0.9558197
vn 0.4040224 0.0256964 0.9143882
vn 0.5243829 0.7260685 0.4448
vn 0.7062838 0.06019005 0.7053653
vn 0.6464991 0.7302951 0.2206991
vn 0.2934738 0.8085383 -0.5100383
vn -0.1054757 -0.3360184 0.9359308
vn 0.2214306 -0.3551748 0.9081956
vn -0.1111096 -0.3837382 0.916733
vn 0.02524462 -0.6001504 0.7994888
vn -0.2277925 -0.9706442 0.07720295
vn 0.3350149 -0.4114212 0.8476424
vn 0.08497151 -0.9227709 0.3758641
vn -0.2503463 -0.6957186 -0.6732773
vn -0.02003608 -0.9313592 -0.3635501
vn 0.1821661 -0.9662865 -0.1819499
vn 0.3799829 -0.7063015 0.5972865
vn 0.5297649 -0.340168 0.7769395
vn 0.5009157 -0.81062 0.3032798
vn 0.4865582 -0.8668783 -0.1085505
vn 0.689526 -0.4953924 0.5283374
vn 0.5333658 0.04575684 0.8446462
vn 0.8165197 -0.521286 0.2481057
vn 0.4551454 -0.801299 -0.3882816
vn 0.6149784 -0.6435295 -0.4557096
vn 0.8791437 0.07574328 0.4704991
vn 0.899355 -0.3884636 0.2006405
vn 0.3941226 -0.8351088 -0.3837458
vn 0.9175041 0.2197889 0.3314802
vn 0.9674295 -0.05106356 0.2479369
vn 0.9903862 0.02855728 0.1353499
vn 0.1604416 -0.8050157 -0.5711464
vn 0.6411213 0.733142 -0.2268618
vn -0.1086467 0.4187229 -0.9015914
vn 0.6431035 0.760272 -0.09167538
vn -0.403176 0.5671237 -0.718206
vn 0.8123408 0.5475562 0.2007105
vn 0.3705612 0.9112316 -0.1798369
vn -0.5831481 0.3871754 -0.7141662
vn 0.7552357 0.6370034 -0.1544204
vn 0.5388222 -0.3860616 -0.7487503
vn 0.7228519 0.5041445 -0.472571
g LeaveRightBranch01_0
f 3/3/3 2/2/2 1/1/1
f 2/2/2 3/3/3 4/4/4
f 4/4/4 5/5/5 2/2/2
f 5/5/5 4/4/4 6/6/6
f 7/7/7 6/6/6 4/4/4
f 6/6/6 8/8/8 5/5/5
f 6/6/6 7/7/7 9/9/9
f 6/6/6 9/9/9 10/10/10
f 11/11/11 8/8/8 6/6/6
f 10/10/10 11/11/11 6/6/6
f 8/8/8 11/11/11 12/12/12
f 12/12/12 11/11/11 10/10/10
f 10/10/10 9/9/9 13/13/13
f 9/9/9 14/14/14 13/13/13
f 12/12/12 15/15/15 8/8/8
f 15/15/15 16/16/16 8/8/8
f 15/15/15 17/17/17 16/16/16
f 17/17/17 18/18/18 16/16/16
f 19/19/19 12/12/12 10/10/10
f 13/13/13 19/19/19 10/10/10
f 20/20/20 13/13/13 14/14/14
f 21/21/21 20/20/20 14/14/14
f 22/22/22 20/20/20 21/21/21
f 23/23/23 15/15/15 12/12/12
f 17/17/17 15/15/15 23/23/23
f 24/24/24 18/18/18 17/17/17
f 18/18/18 24/24/24 25/25/25
f 24/24/24 26/26/26 25/25/25
f 19/19/19 27/27/27 12/12/12
f 23/23/23 12/12/12 27/27/27
f 28/28/28 19/19/19 13/13/13
f 28/28/28 13/13/13 20/20/20
f 28/28/28 27/27/27 19/19/19
f 29/29/29 20/20/20 22/22/22
f 30/30/30 29/29/29 22/22/22
f 31/31/31 29/29/29 30/30/30
f 32/32/32 28/28/28 20/20/20
f 32/32/32 27/27/27 28/28/28
f 20/20/20 29/29/29 32/32/32
f 33/33/33 23/23/23 27/27/27
f 33/33/33 27/27/27 32/32/32
f 34/34/34 32/32/32 29/29/29
f 31/31/31 34/34/34 29/29/29
f 33/33/33 32/32/32 34/34/34
f 26/26/26 24/24/24 35/35/35
f 26/26/26 35/35/35 36/36/36
f 33/33/33 37/37/37 23/23/23
f 37/37/37 17/17/17 23/23/23
f 24/24/24 17/17/17 37/37/37
f 24/24/24 37/37/37 38/38/38
f 38/38/38 37/37/37 33/33/33
f 24/24/24 38/38/38 35/35/35
f 36/36/36 35/35/35 39/39/39
f 36/36/36 39/39/39 40/40/40
f 41/41/41 40/40/40 39/39/39
f 42/42/42 38/38/38 33/33/33
f 33/33/33 34/34/34 42/42/42
f 43/43/43 35/35/35 38/38/38
f 39/39/39 35/35/35 43/43/43
f 43/43/43 38/38/38 42/42/42
f 41/41/41 39/39/39 44/44/44
f 39/39/39 43/43/43 44/44/44
f 41/41/41 44/44/44 45/45/45
f 45/45/45 44/44/44 46/46/46
f 43/43/43 47/47/47 44/44/44
f 43/43/43 42/42/42 47/47/47
f 46/46/46 44/44/44 47/47/47
f 48/48/48 42/42/42 34/34/34
f 48/48/48 47/47/47 42/42/42
f 47/47/47 49/49/49 46/46/46
f 49/49/49 47/47/47 48/48/48
f 46/46/46 49/49/49 50/50/50
f 51/51/51 48/48/48 34/34/34
f 51/51/51 49/49/49 48/48/48
f 49/49/49 51/51/51 50/50/50
f 34/34/34 31/31/31 51/51/51
f 51/51/51 52/52/52 50/50/50
f 52/52/52 51/51/51 31/31/31
f 55/55/55 54/54/54 53/53/53
f 56/56/56 53/53/53 54/54/54
f 57/57/57 56/56/56 54/54/54
f 58/58/58 56/56/56 57/57/57
f 59/59/59 56/56/56 58/58/58
f 59/59/59 58/58/58 60/60/60
f 59/59/59 60/60/60 61/61/61
f 62/62/62 61/61/61 60/60/60
f 60/60/60 58/58/58 63/63/63
f 58/58/58 57/57/57 63/63/63
f 63/63/63 62/62/62 60/60/60
f 63/63/63 57/57/57 64/64/64
f 57/57/57 54/54/54 64/64/64
f 63/63/63 64/64/64 65/65/65
f 65/65/65 62/62/62 63/63/63
f 64/64/64 54/54/54 66/66/66
f 64/64/64 66/66/66 65/65/65
f 54/54/54 67/67/67 66/66/66
f 67/67/67 54/54/54 68/68/68
f 69/69/69 62/62/62 65/65/65
f 65/65/65 70/70/70 69/69/69
f 70/70/70 65/65/65 66/66/66
f 62/62/62 69/69/69 71/71/71
f 69/69/69 70/70/70 71/71/71
f 72/72/72 62/62/62 71/71/71
f 73/73/73 72/72/72 71/71/71
f 71/71/71 70/70/70 73/73/73
f 73/73/73 74/74/74 72/72/72
f 75/75/75 74/74/74 73/73/73
f 73/73/73 70/70/70 76/76/76
f 75/75/75 73/73/73 76/76/76
f 66/66/66 77/77/77 70/70/70
f 76/76/76 70/70/70 77/77/77
f 75/75/75 76/76/76 78/78/78
f 78/78/78 76/76/76 77/77/77
f 79/79/79 75/75/75 78/78/78
f 80/80/80 79/79/79 78/78/78
f 80/80/80 78/78/78 77/77/77
f 66/66/66 81/81/81 77/77/77
f 81/81/81 66/66/66 67/67/67
f 80/80/80 77/77/77 82/82/82
f 81/81/81 82/82/82 77/77/77
f 80/80/80 82/82/82 83/83/83
f 80/80/80 83/83/83 84/84/84
f 81/81/81 85/85/85 82/82/82
f 85/85/85 83/83/83 82/82/82
f 85/85/85 86/86/86 83/83/83
f 87/87/87 84/84/84 83/83/83
f 86/86/86 87/87/87 83/83/83
f 87/87/87 88/88/88 84/84/84
f 86/86/86 88/88/88 87/87/87
f 88/88/88 89/89/89 84/84/84
f 89/89/89 88/88/88 90/90/90
f 88/88/88 86/86/86 90/90/90
f 91/91/91 89/89/89 90/90/90
f 91/91/91 90/90/90 92/92/92
f 86/86/86 92/92/92 90/90/90
f 92/92/92 93/93/93 91/91/91
f 93/93/93 94/94/94 91/91/91
f 93/93/93 95/95/95 94/94/94
f 96/96/96 94/94/94 95/95/95
f 92/92/92 97/97/97 93/93/93
f 95/95/95 93/93/93 97/97/97
f 98/98/98 92/92/92 86/86/86
f 98/98/98 97/97/97 92/92/92
f 99/99/99 86/86/86 85/85/85
f 99/99/99 98/98/98 86/86/86
f 96/96/96 95/95/95 100/100/100
f 100/100/100 101/101/101 96/96/96
f 97/97/97 102/102/102 95/95/95
f 102/102/102 100/100/100 95/95/95
f 103/103/103 99/99/99 85/85/85
f 85/85/85 81/81/81 103/103/103
f 98/98/98 99/99/99 104/104/104
f 103/103/103 104/104/104 99/99/99
f 105/105/105 97/97/97 98/98/98
f 105/105/105 102/102/102 97/97/97
f 104/104/104 105/105/105 98/98/98
f 101/101/101 100/100/100 106/106/106
f 102/102/102 106/106/106 100/100/100
f 107/107/107 106/106/106 102/102/102
f 101/101/101 106/106/106 108/108/108
f 107/107/107 108/108/108 106/106/106
f 108/108/108 109/109/109 101/101/101
f 110/110/110 103/103/103 81/81/81
f 110/110/110 81/81/81 67/67/67
f 111/111/111 104/104/104 103/103/103
f 110/110/110 111/111/111 103/103/103
f 110/110/110 67/67/67 112/112/112
f 111/111/111 110/110/110 112/112/112
f 112/112/112 67/67/67 68/68/68
f 113/113/113 112/112/112 68/68/68
f 112/112/112 113/113/113 111/111/111
f 113/113/113 68/68/68 114/114/114
f 111/111/111 115/115/115 104/104/104
f 115/115/115 111/111/111 113/113/113
f 115/115/115 105/105/105 104/104/104
f 114/114/114 116/116/116 113/113/113
f 113/113/113 116/116/116 115/115/115
f 117/117/117 116/116/116 114/114/114
f 117/117/117 118/118/118 116/116/116
f 118/118/118 119/119/119 116/116/116
f 116/116/116 120/120/120 115/115/115
f 116/116/116 119/119/119 120/120/120
f 115/115/115 121/121/121 105/105/105
f 115/115/115 120/120/120 121/121/121
f 119/119/119 122/122/122 120/120/120
f 121/121/121 120/120/120 122/122/122
f 119/119/119 123/123/123 122/122/122
f 122/122/122 123/123/123 124/124/124
f 122/122/122 124/124/124 121/121/121
f 105/105/105 121/121/121 125/125/125
f 105/105/105 125/125/125 102/102/102
f 125/125/125 107/107/107 102/102/102
f 125/125/125 121/121/121 107/107/107
f 121/121/121 124/124/124 107/107/107
f 123/123/123 126/126/126 124/124/124
f 124/124/124 126/126/126 107/107/107
f 123/123/123 127/127/127 126/126/126
f 127/127/127 128/128/128 126/126/126
f 107/107/107 126/126/126 129/129/129
f 107/107/107 129/129/129 108/108/108
f 130/130/130 126/126/126 128/128/128
f 129/129/129 126/126/126 130/130/130
f 128/128/128 131/131/131 130/130/130
f 132/132/132 108/108/108 129/129/129
f 130/130/130 132/132/132 129/129/129
f 131/131/131 133/133/133 130/130/130
f 132/132/132 130/130/130 133/133/133
f 133/133/133 131/131/131 134/134/134
f 135/135/135 134/134/134 131/131/131
f 132/132/132 136/136/136 108/108/108
f 136/136/136 109/109/109 108/108/108
f 109/109/109 136/136/136 137/137/137
f 138/138/138 137/137/137 136/136/136
f 138/138/138 136/136/136 132/132/132
f 138/138/138 139/139/139 137/137/137
f 133/133/133 140/140/140 132/132/132
f 132/132/132 140/140/140 138/138/138
f 133/133/133 134/134/134 140/140/140
f 141/141/141 139/139/139 138/138/138
f 140/140/140 141/141/141 138/138/138
f 134/134/134 141/141/141 140/140/140
f 139/139/139 141/141/141 142/142/142
f 135/135/135 143/143/143 134/134/134
f 134/134/134 143/143/143 141/141/141
f 142/142/142 141/141/141 143/143/143
f 135/135/135 144/144/144 143/143/143
f 145/145/145 142/142/142 143/143/143
f 143/143/143 144/144/144 145/145/145
