g LeaveLeftBranch01
v 0.5189466 0.02251661 -0.1805164
v 0.5755632 0.005180931 -0.2033653
v 0.5795205 0.005807927 -0.1999653
v 0.4648531 0.05772993 -0.1230938
v 0.4717818 0.05306675 -0.1395773
v 0.5797979 0.002550191 -0.1859963
v 0.3112325 0.1268713 -0.02992573
v 0.3454172 0.1139736 -0.06050397
v 0.2404847 0.1379848 -0.01684818
v 0.2496841 0.1278697 -0.03315622
v 0.1909939 0.1118895 -0.0224581
v 0.1893969 0.1162584 -0.007756445
v 0.1619454 0.0772119 -0.01818985
v 0.1617669 0.0750687 -0.000250669
v 0.1432671 0.02059496 -0.01638308
v 0.1471526 0.01348338 -0.002019583
v 0.1335827 0.008642661 -0.008029794
v 0.1953933 0.05986321 0.03713254
v 0.225607 0.1160654 0.005731526
v 0.2633967 0.0743461 0.0298647
v 0.2773549 -0.007498661 0.05810137
v 0.3382174 0.05392255 0.002090121
v 0.2098065 0.02013632 0.04608615
v 0.2052454 -0.002340885 0.05202306
v 0.1475736 -0.0005812726 0.01802723
v 0.1575186 -0.01028958 0.0198567
v 0.07535532 0.00683251 0.01453278
v 0.1277355 0.007273274 0.005703242
v 0.07089332 0.001325671 -0.003872921
v 0.07302476 0.008666042 0.0003380702
v -0.007215576 0.01221756 -0.00352307
v -0.009927471 0.005945653 0.01211776
v 0.2679896 -0.07228439 0.04822854
v 0.2181113 -0.03244106 0.04593897
v 0.01901419 -0.001839397 0.02083049
v 0.07711483 -0.006431761 0.01743219
v 0.07219771 -0.01003824 0.01008828
v 0.1527634 -0.02784976 -0.006110085
v 0.1423394 -0.0171581 0.004856172
v 0.1382637 -0.01433391 -0.009941545
v 0.2293386 -0.07238115 0.04384075
v 0.1963488 -0.08193597 0.0009483955
v 0.237672 -0.110604 0.01206129
v 0.2849483 -0.1359683 0.00359346
v 0.06670475 -0.01139674 0.001804393
v 0.1382637 -0.01433391 -0.009941545
v 0.3021383 -0.1265226 0.01946642
v 0.3469467 -0.1464237 -0.002988298
v 0.3205445 -0.09611272 0.03556364
v 0.3624274 -0.1320565 0.00534941
v 0.380064 -0.0940008 0.009716807
v 0.407536 -0.1371185 -0.02505778
v 0.4142954 -0.1415922 -0.04274207
v 0.4600341 -0.1213831 -0.0651612
v 0.4610161 -0.1255506 -0.08023681
v 0.3544024 -0.01492122 0.03118881
v 0.4481796 -0.02429495 -0.03756969
v 0.5155837 -0.09178769 -0.1207604
v 0.5050606 -0.09740648 -0.1352547
v 0.537828 -0.01511221 -0.139538
v 0.548099 -0.0528552 -0.1687895
v 0.526177 -0.06573649 -0.1696521
v 0.5804495 0.0001816642 -0.2036756
v 0.5836592 -0.005238834 -0.18924
v 0.5795205 0.005807927 -0.1999653
v 0.5755632 0.005180931 -0.2033653
v 0.07089332 0.001325671 -0.003872921
v 0.1335827 0.008642661 -0.008029794
v 0.000967265 -0.008623139 -0.006083079
v -0.007215576 0.01221756 -0.00352307
v 0.005514422 -0.01208577 0.009458032
v -0.01064146 -0.004718718 0.0009499773
v -0.007215576 0.01221756 -0.00352307
v 0.000967265 -0.008623139 -0.006083079
v 0.1382637 -0.01433391 -0.009941545
v 0.1432671 0.02059496 -0.01638308
v 0.1335827 0.008642661 -0.008029794
v 0.1806916 -0.009578694 -0.0172959
v 0.2296937 0.07949447 -0.02999858
v 0.1619454 0.0772119 -0.01818985
v 0.1909939 0.1118895 -0.0224581
v 0.2496841 0.1278697 -0.03315622
v 0.1768757 -0.05515637 -0.01433481
v 0.1527634 -0.02784976 -0.006110085
v 0.1963488 -0.08193597 0.0009483955
v 0.2517174 -0.1213151 -0.005522207
v 0.237672 -0.110604 0.01206129
v 0.2849483 -0.1359683 0.00359346
v 0.2681176 -0.1037252 -0.01664941
v 0.3557419 -0.1408758 -0.02733657
v 0.3469467 -0.1464237 -0.002988298
v 0.4142954 -0.1415922 -0.04274207
v 0.2664462 -0.01857116 -0.0127052
v 0.3363401 -0.1112671 -0.03222735
v 0.3297248 0.1060917 -0.06383549
v 0.3454172 0.1139736 -0.06050397
v 0.4717818 0.05306675 -0.1395773
v 0.5189466 0.02251661 -0.1805164
v 0.4370604 -0.1255856 -0.08249498
v 0.4610161 -0.1255506 -0.08023681
v 0.5050606 -0.09740648 -0.1352547
v 0.526177 -0.06573649 -0.1696521
v 0.3910221 -0.1077586 -0.06235971
v 0.5071014 -0.05504131 -0.166499
v 0.5804495 0.0001816642 -0.2036756
v 0.3472725 -0.03103933 -0.04495282
v 0.4957738 0.003746161 -0.1729389
v 0.5755632 0.005180931 -0.2033653
v 0.5030001 -0.02620263 -0.1648564
v 0.3169287 0.06648851 -0.05843761
vt 0.6667581 0.9437092
vt 0.6692912 0.9536581
vt 0.6700151 0.9538391
vt 0.6692912 0.9303232
vt 0.6676627 0.9326747
vt 0.6721865 0.9527538
vt 0.670196 0.9001144
vt 0.6682055 0.90735
vt 0.6692912 0.8887181
vt 0.6667581 0.8905272
vt 0.6718245 0.879131
vt 0.6739958 0.8805781
vt 0.6794242 0.8738852
vt 0.6812336 0.8762367
vt 0.6901001 0.8711718
vt 0.6920905 0.8731615
vt 0.6922714 0.8711718
vt 0.6850336 0.8829298
vt 0.6745387 0.8865474
vt 0.6814147 0.8926978
vt 0.6940808 0.8963157
vt 0.6814147 0.9053601
vt 0.6911857 0.8856431
vt 0.6949856 0.8854621
vt 0.6960713 0.8747897
vt 0.6976998 0.8767793
vt 0.6966141 0.8626699
vt 0.6944428 0.87081
vt 0.6931762 0.8615845
vt 0.6944428 0.8619464
vt 0.6949856 0.8469324
vt 0.6976998 0.8467514
vt 0.703671 0.8975819
vt 0.6993283 0.8883565
vt 0.6987854 0.8514546
vt 0.6986046 0.8632125
vt 0.700052 0.862489
vt 0.7025853 0.8760558
vt 0.7007759 0.874066
vt 0.7016807 0.8731615
vt 0.7051186 0.8917933
vt 0.7100041 0.8852813
vt 0.7125374 0.8945067
vt 0.7148897 0.9037321
vt 0.7013187 0.8615845
vt 0.7024044 0.872438
vt 0.7114518 0.9059028
vt 0.7127183 0.9151284
vt 0.7052995 0.9068073
vt 0.7090993 0.9160327
vt 0.7024044 0.9165754
vt 0.7067471 0.9250773
vt 0.7074708 0.9283334
vt 0.7007759 0.9346646
vt 0.7014996 0.9370161
vt 0.6922714 0.9086162
vt 0.6877478 0.92562
vt 0.6915477 0.9446135
vt 0.6933571 0.9469652
vt 0.6783385 0.9444327
vt 0.6825003 0.9509448
vt 0.6864811 0.9520301
vt 0.6725482 0.9561906
vt 0.6730911 0.9538391
vt 0.6714626 0.9554671
vt 0.6712817 0.9563715
vt 0.7034901 0.8621272
vt 0.7058423 0.8711718
vt 0.7031281 0.8481986
vt 0.7065662 0.8472941
vt 0.7007759 0.8492839
vt 0.7005948 0.8463897
vt 0.6986046 0.844219
vt 0.7020425 0.8447617
vt 0.7686402 0.656046
vt 0.7630318 0.6573122
vt 0.7657455 0.6583971
vt 0.7652028 0.6502585
vt 0.7492824 0.6475457
vt 0.7538053 0.6576738
vt 0.7469306 0.6553227
vt 0.7411413 0.6475457
vt 0.7720775 0.6482692
vt 0.7706301 0.6536948
vt 0.7760575 0.6446521
vt 0.7780476 0.634524
vt 0.7800375 0.6377795
vt 0.7803995 0.62946
vt 0.7744294 0.6327153
vt 0.7760575 0.6178851
vt 0.7800375 0.6195127
vt 0.7744294 0.6086613
vt 0.7621272 0.6372368
vt 0.7722584 0.6220447
vt 0.7391513 0.6334388
vt 0.7366185 0.6321728
vt 0.7366185 0.6068526
vt 0.7382468 0.5960012
vt 0.7679165 0.6046823
vt 0.7684593 0.6010652
vt 0.7588708 0.5938309
vt 0.7516343 0.5907562
vt 0.7680973 0.6130018
vt 0.7509106 0.5940117
vt 0.7382468 0.5851498
vt 0.7594136 0.624215
vt 0.7424077 0.5985332
vt 0.737704 0.5860539
vt 0.7469306 0.5963629
vt 0.7456642 0.633258
vn -0.1746714 0.5650026 -0.8063883
vn -0.02161643 0.4067408 -0.9132878
vn 0.6470152 0.718653 -0.254773
vn 0.5398135 0.7959756 0.2739053
vn 0.262224 0.8988975 -0.3510298
vn 0.7764729 0.4836084 0.403996
vn 0.348096 0.8858901 0.3066394
vn 0.2581759 0.9217532 -0.2893374
vn -0.08120978 0.9916237 0.1004366
vn -0.2125081 0.5365359 -0.816682
vn -0.4800348 0.5047709 -0.7174768
vn -0.568127 0.7842589 0.2493384
vn -0.7280779 0.34054 -0.5949244
vn -0.8183157 0.3997192 0.413018
vn -0.7699358 0.2133867 -0.6013858
vn -0.625879 0.521309 0.5800969
vn -0.4932753 0.7332964 -0.4679272
vn -0.3765838 0.2949997 0.878157
vn -0.0571535 0.6524963 0.7556335
vn 0.210001 0.4638824 0.8606467
vn 0.1574874 0.1107328 0.981293
vn 0.4970722 0.4626926 0.7340538
vn -0.3212636 0.1977149 0.9261201
vn -0.3696737 0.02709342 0.9287666
vn -0.2017038 0.5185464 0.8309183
vn -0.3876666 -0.5338379 0.7514863
vn 0.03059858 0.746926 0.6642028
vn 0.06816849 0.9697427 0.2344189
vn -0.0004454354 0.09649476 -0.9953334
vn 0.06744812 0.8840992 -0.4624061
vn -0.4978929 0.721084 -0.4818097
vn -0.6954097 0.3248169 0.6410143
vn -0.01781331 -0.3073682 0.9514238
vn -0.4152684 -0.2973158 0.8597415
vn -0.05799634 -0.08091122 0.9950325
vn -0.0192684 -0.4323048 0.9015217
vn -0.07060366 -0.9380074 0.3393484
vn -0.6357214 -0.6849231 0.3560041
vn -0.2380227 -0.919074 0.3140831
vn -0.337295 -0.550767 -0.7634709
vn -0.3720875 -0.3869542 0.8436927
vn -0.7032018 -0.7064294 0.08040424
vn -0.4630823 -0.7756056 0.4289414
vn -0.2794603 -0.9469349 0.1587967
vn -0.06012902 -0.9107808 -0.4084885
vn -0.337295 -0.550767 -0.7634709
vn -0.05278354 -0.6545289 0.7541922
vn 0.02658172 -0.9520687 0.304727
vn 0.2292909 -0.2967039 0.9270343
vn 0.3404213 -0.5168605 0.7854734
vn 0.513227 -0.17198 0.8408453
vn 0.4965487 -0.6203722 0.607106
vn 0.2192455 -0.975655 -0.005375785
vn 0.6731948 -0.5115008 0.5340185
vn 0.3618917 -0.9287379 -0.08049971
vn 0.4542836 0.1640096 0.8756296
vn 0.6701849 0.1972163 0.7155124
vn 0.7889526 -0.5331379 0.3054795
vn 0.1755318 -0.8507649 -0.4953662
vn 0.7372173 0.1405474 0.6608759
vn 0.788855 -0.6098798 -0.0758582
vn 0.04242561 -0.6310307 -0.7745968
vn 0.5751886 -0.07056209 -0.8149719
vn 0.9700142 -0.2193183 0.1047468
vn 0.6470152 0.718653 -0.254773
vn -0.02161643 0.4067408 -0.9132878
vn -0.0004454354 0.09649476 -0.9953334
vn -0.4932753 0.7332964 -0.4679272
vn -0.2436341 -0.5893264 -0.7702835
vn -0.4978929 0.721084 -0.4818097
vn -0.2532979 -0.8884753 0.3826901
vn -0.8582389 -0.482657 -0.1745515
vn -0.4978929 0.721084 -0.4818097
vn -0.2436341 -0.5893264 -0.7702835
vn -0.337295 -0.550767 -0.7634709
vn -0.7699358 0.2133867 -0.6013858
vn -0.4932753 0.7332964 -0.4679272
vn -0.07084295 -0.08379192 -0.9939619
vn -0.2067132 -0.06367605 -0.9763273
vn -0.7280779 0.34054 -0.5949244
vn -0.4800348 0.5047709 -0.7174768
vn -0.2125081 0.5365359 -0.816682
vn -0.5173275 -0.4509623 -0.7273274
vn -0.6357214 -0.6849231 0.3560041
vn -0.7032018 -0.7064294 0.08040424
vn -0.432054 -0.7831497 -0.4472202
vn -0.4630823 -0.7756056 0.4289414
vn -0.2794603 -0.9469349 0.1587967
vn -0.192069 -0.190096 -0.9627944
vn -0.253633 -0.7735716 -0.5807385
vn 0.02658172 -0.9520687 0.304727
vn 0.2192455 -0.975655 -0.005375785
vn -0.169621 -0.1104284 -0.9793029
vn -0.3496509 -0.2139552 -0.9121225
vn -0.2931322 0.3638 -0.8841511
vn 0.2581759 0.9217532 -0.2893374
vn 0.262224 0.8988975 -0.3510298
vn -0.1746714 0.5650026 -0.8063883
vn -0.2430675 -0.7440379 -0.622355
vn 0.3618917 -0.9287379 -0.08049971
vn 0.1755318 -0.8507649 -0.4953662
vn 0.04242561 -0.6310307 -0.7745968
vn -0.5193879 -0.2657313 -0.8121718
vn -0.4677722 -0.2464265 -0.8488011
vn 0.5751886 -0.07056209 -0.8149719
vn -0.4950412 -0.1873943 -0.8484206
vn -0.4696045 -0.1065653 -0.876422
vn -0.02161643 0.4067408 -0.9132878
vn -0.5044488 -0.1708715 -0.8463655
vn -0.4344938 -0.129579 -0.8913049
g LeaveLeftBranch01_0
f 3/3/3 2/2/2 1/1/1
f 4/4/4 3/3/3 1/1/1
f 5/5/5 4/4/4 1/1/1
f 4/4/4 6/6/6 3/3/3
f 5/5/5 7/7/7 4/4/4
f 7/7/7 5/5/5 8/8/8
f 8/8/8 9/9/9 7/7/7
f 9/9/9 8/8/8 10/10/10
f 9/9/9 10/10/10 11/11/11
f 9/9/9 11/11/11 12/12/12
f 12/12/12 11/11/11 13/13/13
f 12/12/12 13/13/13 14/14/14
f 14/14/14 13/13/13 15/15/15
f 14/14/14 15/15/15 16/16/16
f 17/17/17 16/16/16 15/15/15
f 14/14/14 18/18/18 12/12/12
f 16/16/16 18/18/18 14/14/14
f 9/9/9 12/12/12 19/19/19
f 12/12/12 18/18/18 19/19/19
f 9/9/9 19/19/19 20/20/20
f 7/7/7 9/9/9 20/20/20
f 20/20/20 19/19/19 18/18/18
f 20/20/20 18/18/18 21/21/21
f 22/22/22 20/20/20 21/21/21
f 7/7/7 20/20/20 22/22/22
f 4/4/4 7/7/7 22/22/22
f 23/23/23 18/18/18 16/16/16
f 23/23/23 21/21/21 18/18/18
f 16/16/16 24/24/24 23/23/23
f 24/24/24 21/21/21 23/23/23
f 17/17/17 25/25/25 16/16/16
f 25/25/25 24/24/24 16/16/16
f 24/24/24 25/25/25 26/26/26
f 27/27/27 26/26/26 25/25/25
f 28/28/28 25/25/25 17/17/17
f 28/28/28 27/27/27 25/25/25
f 28/28/28 17/17/17 29/29/29
f 28/28/28 29/29/29 30/30/30
f 28/28/28 30/30/30 27/27/27
f 30/30/30 29/29/29 31/31/31
f 31/31/31 27/27/27 30/30/30
f 31/31/31 32/32/32 27/27/27
f 33/33/33 21/21/21 24/24/24
f 26/26/26 34/34/34 24/24/24
f 33/33/33 24/24/24 34/34/34
f 32/32/32 35/35/35 27/27/27
f 26/26/26 27/27/27 36/36/36
f 35/35/35 36/36/36 27/27/27
f 36/36/36 37/37/37 26/26/26
f 35/35/35 37/37/37 36/36/36
f 34/34/34 26/26/26 38/38/38
f 37/37/37 39/39/39 26/26/26
f 26/26/26 39/39/39 38/38/38
f 40/40/40 38/38/38 39/39/39
f 41/41/41 34/34/34 38/38/38
f 34/34/34 41/41/41 33/33/33
f 41/41/41 38/38/38 42/42/42
f 41/41/41 42/42/42 43/43/43
f 41/41/41 43/43/43 44/44/44
f 39/39/39 37/37/37 45/45/45
f 35/35/35 45/45/45 37/37/37
f 45/45/45 46/46/46 39/39/39
f 41/41/41 44/44/44 47/47/47
f 33/33/33 41/41/41 47/47/47
f 47/47/47 44/44/44 48/48/48
f 33/33/33 47/47/47 49/49/49
f 49/49/49 21/21/21 33/33/33
f 50/50/50 47/47/47 48/48/48
f 49/49/49 47/47/47 50/50/50
f 51/51/51 21/21/21 49/49/49
f 49/49/49 50/50/50 51/51/51
f 48/48/48 52/52/52 50/50/50
f 52/52/52 51/51/51 50/50/50
f 48/48/48 53/53/53 52/52/52
f 53/53/53 54/54/54 52/52/52
f 51/51/51 52/52/52 54/54/54
f 53/53/53 55/55/55 54/54/54
f 56/56/56 21/21/21 51/51/51
f 22/22/22 21/21/21 56/56/56
f 56/56/56 51/51/51 57/57/57
f 22/22/22 56/56/56 57/57/57
f 57/57/57 51/51/51 54/54/54
f 57/57/57 4/4/4 22/22/22
f 55/55/55 58/58/58 54/54/54
f 57/57/57 54/54/54 58/58/58
f 59/59/59 58/58/58 55/55/55
f 60/60/60 4/4/4 57/57/57
f 57/57/57 58/58/58 60/60/60
f 6/6/6 4/4/4 60/60/60
f 59/59/59 61/61/61 58/58/58
f 60/60/60 58/58/58 61/61/61
f 59/59/59 62/62/62 61/61/61
f 62/62/62 63/63/63 61/61/61
f 60/60/60 61/61/61 64/64/64
f 64/64/64 6/6/6 60/60/60
f 63/63/63 64/64/64 61/61/61
f 64/64/64 63/63/63 6/6/6
f 63/63/63 65/65/65 6/6/6
f 63/63/63 66/66/66 65/65/65
f 68/68/68 46/46/46 67/67/67
f 46/46/46 45/45/45 67/67/67
f 45/45/45 69/69/69 67/67/67
f 70/70/70 67/67/67 69/69/69
f 71/71/71 69/69/69 45/45/45
f 35/35/35 71/71/71 45/45/45
f 71/71/71 35/35/35 32/32/32
f 72/72/72 69/69/69 71/71/71
f 32/32/32 72/72/72 71/71/71
f 32/32/32 73/73/73 72/72/72
f 74/74/74 72/72/72 73/73/73
f 77/77/77 76/76/76 75/75/75
f 76/76/76 78/78/78 75/75/75
f 79/79/79 78/78/78 76/76/76
f 79/79/79 76/76/76 80/80/80
f 81/81/81 79/79/79 80/80/80
f 82/82/82 79/79/79 81/81/81
f 75/75/75 78/78/78 83/83/83
f 84/84/84 75/75/75 83/83/83
f 83/83/83 85/85/85 84/84/84
f 83/83/83 86/86/86 85/85/85
f 85/85/85 86/86/86 87/87/87
f 87/87/87 86/86/86 88/88/88
f 78/78/78 89/89/89 83/83/83
f 83/83/83 89/89/89 86/86/86
f 86/86/86 90/90/90 88/88/88
f 91/91/91 88/88/88 90/90/90
f 92/92/92 91/91/91 90/90/90
f 93/93/93 89/89/89 78/78/78
f 79/79/79 93/93/93 78/78/78
f 94/94/94 86/86/86 89/89/89
f 86/86/86 94/94/94 90/90/90
f 93/93/93 94/94/94 89/89/89
f 95/95/95 79/79/79 82/82/82
f 96/96/96 95/95/95 82/82/82
f 96/96/96 97/97/97 95/95/95
f 97/97/97 98/98/98 95/95/95
f 90/90/90 99/99/99 92/92/92
f 92/92/92 99/99/99 100/100/100
f 99/99/99 101/101/101 100/100/100
f 99/99/99 102/102/102 101/101/101
f 94/94/94 103/103/103 90/90/90
f 90/90/90 103/103/103 99/99/99
f 99/99/99 104/104/104 102/102/102
f 104/104/104 99/99/99 103/103/103
f 105/105/105 102/102/102 104/104/104
f 106/106/106 103/103/103 94/94/94
f 106/106/106 104/104/104 103/103/103
f 93/93/93 106/106/106 94/94/94
f 95/95/95 98/98/98 107/107/107
f 108/108/108 107/107/107 98/98/98
f 105/105/105 107/107/107 108/108/108
f 109/109/109 105/105/105 104/104/104
f 104/104/104 106/106/106 109/109/109
f 107/107/107 105/105/105 109/109/109
f 109/109/109 106/106/106 107/107/107
f 93/93/93 110/110/110 106/106/106
f 110/110/110 107/107/107 106/106/106
f 107/107/107 110/110/110 95/95/95
f 79/79/79 110/110/110 93/93/93
f 95/95/95 110/110/110 79/79/79
