g LeftBattery
v 0.07059292 -0.201908 0.0006919362
v 0.07059292 -0.201908 -0.01085543
v 0.05810801 -0.2149647 -0.01045997
v 0.07498199 -0.1726371 -0.01057346
v 0.07498199 -0.1726371 0.00780392
v 0.07498199 -0.008158465 -0.01057348
v 0.07498199 -0.008151258 0.007805063
v 0.06754828 0.0003983046 -0.006774811
v 0.06754828 0.0002656924 0.007246842
v 0.06737721 -0.009586046 0.01492229
v 0.06391373 0.001849013 0.009255899
v 0.06736691 -0.1820951 0.01492232
v 0.02414011 0.007348273 0.01492229
v 0.02550894 0.01840536 0.01129792
v -0.02318184 -0.01654257 0.01126055
v -0.02052869 -0.02428214 0.01492229
v -0.06737716 -0.00888035 0.01492229
v -0.06326716 -0.001150236 0.01126055
v -0.06754829 -0.0006531896 0.007246834
v -0.07498199 -0.008822968 0.007805058
v -0.06754829 -0.0003087583 -0.007664951
v -0.07498199 -0.008804341 -0.01057348
v -0.07498199 -0.1726371 -0.01057346
v -0.07498199 -0.1726371 0.00780392
v -0.07059292 -0.201908 0.0006919362
v -0.07059292 -0.201908 -0.01085543
v -0.05810801 -0.2149647 -0.01045997
v -0.06736691 -0.1820951 0.01492232
v 0 -0.1820951 0.01492232
v 0.06291349 -0.1980814 0.007810155
v -0.06291349 -0.1980814 0.007810155
v -0.05810801 -0.2149647 0.0005634649
v 0.05900319 -0.2101141 0.007112886
v -0.05900319 -0.2101141 0.007112887
v 0.05810801 -0.2149647 0.0005634652
vt 0.04179507 0.4214262
vt 0.03071057 0.4090383
vt 0.007544539 0.4375837
vt 0.07581922 0.3828527
vt 0.08120362 0.4080363
vt 0.3275602 0.3748868
vt 0.3254505 0.4024534
vt 0.3440006 0.3867595
vt 0.3405063 0.4098627
vt 0.3348016 0.425775
vt 0.3436174 0.4174224
vt 0.07872369 0.4234263
vt 0.359347 0.4901896
vt 0.3797354 0.4840751
vt 0.3290159 0.559049
vt 0.3117817 0.5560638
vt 0.3340026 0.6258182
vt 0.3477212 0.6233752
vt 0.3482783 0.6349841
vt 0.3334061 0.6412868
vt 0.3529156 0.6589951
vt 0.3354066 0.6682675
vt 0.08238636 0.6657183
vt 0.08860876 0.6390322
vt 0.04261513 0.6317477
vt 0.03253575 0.6452617
vt 0.008396699 0.6168363
vt 0.07687736 0.6234294
vt 0.07780053 0.5234278
vt 0.05207536 0.4349183
vt 0.05265548 0.618112
vt 0.02355075 0.6119131
vt 0.03494129 0.4418452
vt 0.035352 0.6115831
vt 0.02319971 0.4418046
vn 0.8417922 -0.4356012 0.3188064
vn 0.8984076 -0.4391625 0
vn 0.3957157 -0.9183731 0
vn 0.9972154 -0.07457492 0
vn 0.9201754 -0.07567324 0.3841235
vn 0.9508787 0.3095637 -0.0001213885
vn 0.8680605 0.3260883 0.3743496
vn 0.7529424 0.6580833 0.00200069
vn 0.6754753 0.6024699 0.4251626
vn 0.3807831 0.2117264 0.9000979
vn 0.3359877 0.4827265 0.8087566
vn 0.4150757 -0.2233763 0.8819384
vn -0.03603787 0.2182891 0.9752185
vn 0.01078314 0.3102566 0.9505917
vn -0.02895244 0.4132491 0.9101576
vn -0.02731955 0.147124 0.9887406
vn -0.3390467 0.276038 0.8993611
vn -0.1965581 0.5031486 0.84155
vn -0.6676017 0.649137 0.3645943
vn -0.8737729 0.3233266 0.3632917
vn -0.7480962 0.6635656 0.005728377
vn -0.9470783 0.3210025 0.0003253454
vn -0.9972154 -0.07457487 0
vn -0.9201753 -0.0756731 0.3841237
vn -0.8417922 -0.4356012 0.3188062
vn -0.8984076 -0.4391625 0
vn -0.3957158 -0.9183731 0
vn -0.4150757 -0.2233764 0.8819384
vn 0 -0.2077736 0.978177
vn 0.2875661 -0.3370358 0.8965002
vn -0.2875662 -0.337036 0.8965001
vn -0.3512669 -0.8970652 0.268115
vn 0.3134617 -0.5073757 0.8026903
vn -0.3134621 -0.5073755 0.8026901
vn 0.3512671 -0.897065 0.268115
g LeftBattery_0
f 3/3/3 2/2/2 1/1/1
f 2/2/2 4/4/4 1/1/1
f 4/4/4 5/5/5 1/1/1
f 5/5/5 4/4/4 6/6/6
f 7/7/7 5/5/5 6/6/6
f 6/6/6 8/8/8 7/7/7
f 8/8/8 9/9/9 7/7/7
f 10/10/10 7/7/7 9/9/9
f 5/5/5 7/7/7 10/10/10
f 11/11/11 10/10/10 9/9/9
f 12/12/12 5/5/5 10/10/10
f 1/1/1 5/5/5 12/12/12
f 10/10/10 11/11/11 13/13/13
f 13/13/13 12/12/12 10/10/10
f 11/11/11 14/14/14 13/13/13
f 14/14/14 15/15/15 13/13/13
f 15/15/15 16/16/16 13/13/13
f 12/12/12 13/13/13 16/16/16
f 16/16/16 15/15/15 17/17/17
f 15/15/15 18/18/18 17/17/17
f 17/17/17 18/18/18 19/19/19
f 20/20/20 17/17/17 19/19/19
f 20/20/20 19/19/19 21/21/21
f 22/22/22 20/20/20 21/21/21
f 20/20/20 22/22/22 23/23/23
f 20/20/20 24/24/24 17/17/17
f 24/24/24 20/20/20 23/23/23
f 24/24/24 23/23/23 25/25/25
f 23/23/23 26/26/26 25/25/25
f 26/26/26 27/27/27 25/25/25
f 24/24/24 28/28/28 17/17/17
f 17/17/17 28/28/28 16/16/16
f 25/25/25 28/28/28 24/24/24
f 29/29/29 12/12/12 16/16/16
f 28/28/28 29/29/29 16/16/16
f 12/12/12 29/29/29 30/30/30
f 1/1/1 12/12/12 30/30/30
f 28/28/28 31/31/31 29/29/29
f 31/31/31 30/30/30 29/29/29
f 25/25/25 31/31/31 28/28/28
f 27/27/27 32/32/32 25/25/25
f 32/32/32 27/27/27 3/3/3
f 1/1/1 30/30/30 33/33/33
f 33/33/33 30/30/30 31/31/31
f 25/25/25 34/34/34 31/31/31
f 25/25/25 32/32/32 34/34/34
f 34/34/34 33/33/33 31/31/31
f 34/34/34 32/32/32 33/33/33
f 35/35/35 32/32/32 3/3/3
f 35/35/35 3/3/3 1/1/1
f 32/32/32 35/35/35 33/33/33
f 1/1/1 33/33/33 35/35/35
