g LeftThumb
v -0.002321271 -0.001210972 8.805533E-05
v 0.0002514321 0.000416818 -0.0001447434
v -0.002659873 0.0005772801 0.0004675363
v 0.002008399 -0.001718228 0.000289993
v 0.003119721 -0.0001516233 0.000335181
v 0.00379184 -0.001253711 0.001292273
v 0.002282855 -0.002067243 0.001853475
v 0.00225484 -0.00132928 0.005697215
v -0.0005668752 -0.002702692 0.000856808
v -0.0007551 -0.001663818 0.006172511
v 0.002009735 -0.001869548 0.009010288
v -0.001492654 -0.001812535 0.003237727
v -0.002680612 -0.001622217 0.001579315
v -0.001653553 -0.0007529883 0.00612716
v -0.00297916 0.0001993125 0.001916397
v -0.002659873 0.0005772801 0.0004675363
v -0.0007535573 -0.002316106 0.0104293
v -0.001839544 0.001515324 0.001800594
v -0.0006874251 0.0001719378 0.007727379
v -0.001358203 -0.001343638 0.01092848
v 0.0004063543 0.001745931 0.0005858985
v 0.0002514321 0.000416818 -0.0001447434
v 0.003119721 -0.0001516233 0.000335181
v 0.003569716 0.0005051518 0.001791244
v 0.00379184 -0.001253711 0.001292273
v 0.001960189 0.001326925 0.003089633
v 0.002233321 -1.123823E-05 0.00681767
v 0.003734988 -0.0005733112 0.00249105
v 0.00225484 -0.00132928 0.005697215
v 0.002009735 -0.001869548 0.009010288
v 0.003169604 -0.003508711 0.01320787
v 0.0008756488 0.000723373 0.006908495
v 0.002381681 -0.0009422126 0.01238728
v -6.725557E-05 -0.0005690298 0.01377765
v 0.002250416 -0.0018821 0.01433786
v 0.001912191 -0.003242791 0.0152819
v -0.001069557 -0.001958601 0.0155576
v -0.001811347 -0.003340084 0.01510045
v -0.002118158 -0.001740957 0.01399276
v -0.002347245 -0.003306385 0.01329019
v -0.001811347 -0.003340084 0.01510045
v -0.001431326 -0.004249168 0.01308114
v 0.0003980105 -0.003867163 0.01354275
v 0.001912191 -0.003242791 0.0152819
v 0.0003157344 -0.003236176 0.01155403
v 0.002385418 -0.00433844 0.01404303
v 0.003169604 -0.003508711 0.01320787
v 0.002330203 -0.004486196 0.01240402
v 0.002247714 -0.002881004 0.01085247
v 0.001283851 -0.006651602 0.02322753
v 0.001936368 -0.004296968 0.0197311
v 0.001769329 -0.005657491 0.01941666
v 0.003326467 -0.004501022 0.01664219
v 0.001055597 -0.005650604 0.02387883
v 0.001958814 -0.007934613 0.02537568
v 0.003261354 -0.003260009 0.01698123
v 0.002606961 -0.002729745 0.01535147
v 0.002216133 -0.002355155 0.0174314
v 0.0002712341 -0.004775399 0.02299887
v 0.001651208 -0.006468158 0.02653465
v 0.001494809 -0.008007877 0.02757744
v 0.000338147 -0.001570214 0.01584346
v -0.0007249565 -0.00232275 0.01507473
v -0.002071807 -0.002720376 0.01642531
v -0.0005260871 -0.00197743 0.01811309
v 1.788594E-05 -0.005666032 0.02662485
v 0.0005597482 -0.007046957 0.02805368
v -0.0009365155 -0.007860451 0.02775753
v -0.001084039 -0.006815775 0.02776611
v -0.002143633 -0.007205283 0.02616337
v -0.001560357 -0.006156439 0.02644327
v -0.001068204 -0.005808833 0.02443409
v -0.0007801237 -0.005037706 0.02227804
v -0.001902112 -0.00798522 0.02537756
v -0.0009365155 -0.007860451 0.02775753
v -0.001921557 -0.003264723 0.01831957
v -0.0009029891 -0.006353635 0.02303592
v -0.0004483839 -0.008605946 0.02682535
v 0.001494809 -0.008007877 0.02757744
v -0.001431191 -0.004674348 0.01905209
v -0.00251758 -0.00411376 0.01698517
v 0.0007266757 -0.008624568 0.0247128
v 0.00123437 -0.008880571 0.02665829
v 0.001958814 -0.007934613 0.02537568
v 0.001283851 -0.006651602 0.02322753
v 0.0005106383 -0.006884391 0.02277488
v 0.001769329 -0.005657491 0.01941666
v -0.0005381797 -0.005053456 0.01849124
v -0.001195951 -0.005290077 0.01612676
v 0.002077187 -0.005337927 0.01623405
v 0.003326467 -0.004501022 0.01664219
v 0.002322857 -0.004680205 0.015133
v 0.002606961 -0.002729745 0.01535147
v -0.001114148 -0.004564341 0.01506341
v 0.001950427 -0.003639689 0.0146319
v -0.0007249565 -0.00232275 0.01507473
v -0.002192213 -0.003633709 0.0158348
vt 0.9518605 0.6730976
vt 0.9462395 0.6754178
vt 0.9519184 0.676539
vt 0.9446144 0.670757
vt 0.9415627 0.6724429
vt 0.9415627 0.6690657
vt 0.944469 0.668258
vt 0.9462399 0.6617177
vt 0.9489537 0.6700094
vt 0.9520662 0.662078
vt 0.9466482 0.6579155
vt 0.9518132 0.6666834
vt 0.9522051 0.6702302
vt 0.9545527 0.6618482
vt 0.9551517 0.6702028
vt 0.9557413 0.6728597
vt 0.9521084 0.6544037
vt 0.9577272 0.6703799
vt 0.9574003 0.6597234
vt 0.9547989 0.653532
vt 0.9614474 0.6717151
vt 0.9619649 0.6741449
vt 0.9673963 0.6721041
vt 0.966442 0.669342
vt 0.9700031 0.6694707
vt 0.9635801 0.6675055
vt 0.9635617 0.6603593
vt 0.9681445 0.6682217
vt 0.9669082 0.6609353
vt 0.9668055 0.6564624
vt 0.9673266 0.6475527
vt 0.9607016 0.6612977
vt 0.9634262 0.6512966
vt 0.9584303 0.649587
vt 0.9634275 0.6481243
vt 0.9634167 0.6451126
vt 0.9569432 0.6462041
vt 0.9556946 0.6437491
vt 0.9544284 0.6478941
vt 0.9520953 0.6487882
vt 0.9510599 0.645686
vt 0.9501231 0.649262
vt 0.9474063 0.6488991
vt 0.9435121 0.6467198
vt 0.9490089 0.652629
vt 0.9441029 0.6494046
vt 0.9420046 0.6510534
vt 0.944807 0.6514754
vt 0.945552 0.6547798
vt 0.4718866 0.6263803
vt 0.4701336 0.6180546
vt 0.4680261 0.6199574
vt 0.465005 0.6149338
vt 0.4741319 0.625785
vt 0.4711756 0.630661
vt 0.4671519 0.6140261
vt 0.4667835 0.6105406
vt 0.4691612 0.6133634
vt 0.4757962 0.6236002
vt 0.4742154 0.630358
vt 0.4741024 0.6335784
vt 0.4717282 0.6102837
vt 0.4732477 0.6079017
vt 0.4767282 0.6093671
vt 0.4739964 0.6125326
vt 0.476744 0.6292807
vt 0.4761484 0.6322563
vt 0.4789692 0.6335217
vt 0.4784849 0.6315278
vt 0.4810702 0.6299859
vt 0.4790845 0.6292976
vt 0.4788338 0.6257625
vt 0.478064 0.6221523
vt 0.4820956 0.6287932
vt 0.4839997 0.6328077
vt 0.4769923 0.6130414
vt 0.4808647 0.6239083
vt 0.4847692 0.6307348
vt 0.4888503 0.6315106
vt 0.4792917 0.615404
vt 0.4783547 0.6116291
vt 0.4860769 0.6270667
vt 0.4873791 0.6297226
vt 0.4887124 0.6269472
vt 0.4858198 0.6235959
vt 0.4841423 0.6237039
vt 0.4859599 0.6160333
vt 0.4810126 0.6147104
vt 0.4810062 0.6114303
vt 0.4862764 0.6110235
vt 0.4888503 0.6100669
vt 0.4860744 0.6090691
vt 0.4868391 0.6052618
vt 0.4807024 0.6095729
vt 0.4855312 0.6071036
vt 0.479406 0.6056905
vt 0.4785728 0.6096142
vn -0.3439377 -0.2940424 -0.8917656
vn 0.01166463 0.1205739 -0.9926358
vn -0.4766879 0.5122211 -0.7144216
vn 0.1808953 -0.469695 -0.8640969
vn 0.4621383 0.2923897 -0.8372194
vn 0.7896184 -0.6038461 -0.1089609
vn 0.1858462 -0.9720281 0.143606
vn 0.5255955 -0.838811 0.1419337
vn -0.08683891 -0.9804062 -0.1768128
vn -0.1513977 -0.987021 -0.0535562
vn 0.3942835 -0.8447922 -0.3617552
vn -0.2137508 -0.9535141 0.212418
vn -0.7903747 -0.6039757 0.1025723
vn -0.9497933 -0.209133 0.2327146
vn -0.9440656 0.2666353 0.1940253
vn -0.4766879 0.5122211 -0.7144216
vn -0.3511092 -0.8429943 -0.4075326
vn -0.2726353 0.9490769 0.1578705
vn -0.5837085 0.7864867 0.2017994
vn -0.9875509 0.04653524 -0.1502592
vn 0.1410853 0.9025881 -0.4067305
vn 0.01166463 0.1205739 -0.9926358
vn 0.4621383 0.2923897 -0.8372194
vn 0.7076536 0.7059803 -0.02860307
vn 0.7896184 -0.6038461 -0.1089609
vn 0.2374648 0.9584736 0.1579201
vn 0.8783148 0.4340304 0.2004516
vn 0.9551905 -0.07505699 0.2863172
vn 0.5255955 -0.838811 0.1419337
vn 0.3942835 -0.8447922 -0.3617552
vn 0.9998854 0.008464292 0.01254725
vn 0.09774823 0.9753851 0.1976595
vn 0.6331568 0.7506225 0.1888872
vn -0.06560697 0.9525676 0.297171
vn 0.5282229 0.5977699 0.6030354
vn 0.276579 -0.4072668 0.8704239
vn -0.05521964 0.4962471 0.8664235
vn -0.3551285 -0.6794819 0.6420188
vn -0.776278 0.6115211 0.1530834
vn -0.9406354 -0.2209128 -0.2576868
vn -0.3551285 -0.6794819 0.6420188
vn -0.2171887 -0.9436372 -0.249756
vn -0.1029421 -0.9812694 0.1628288
vn 0.276579 -0.4072668 0.8704239
vn -0.09891014 -0.8581405 -0.5037974
vn 0.1656342 -0.8963128 0.4113255
vn 0.9998854 0.008464292 0.01254725
vn 0.0661744 -0.9208391 -0.3842867
vn 0.2779497 -0.7478628 -0.6028643
vn 0.937338 -0.3180781 -0.1422106
vn 0.8930101 0.2328833 0.385095
vn 0.4006971 -0.9103956 -0.1030617
vn 0.9305788 -0.3659359 0.01067132
vn 0.7468838 0.629247 0.2149717
vn 0.9547408 -0.2546832 -0.1536444
vn 0.8925095 0.3636745 0.2667725
vn 0.5979332 0.584591 -0.5483879
vn 0.4458633 0.8193609 0.3603521
vn 0.1717245 0.8781418 0.4465173
vn 0.7924857 0.5526819 0.2578936
vn 0.5979927 -0.4012561 0.6938287
vn 0.009375161 0.9921484 -0.1247139
vn -0.2238848 0.4267809 -0.8762041
vn -0.6705559 0.7409226 -0.03726494
vn -0.187178 0.896193 0.4022468
vn 0.06474844 0.9331663 0.3535652
vn 0.2541597 0.4109743 0.8755016
vn -0.4395288 -0.5704293 0.6938478
vn -0.4596109 0.4753249 0.750216
vn -0.9871768 0.08143134 0.1372982
vn -0.596607 0.7690028 0.2295533
vn -0.7569337 0.6527658 -0.03079082
vn -0.7829529 0.5030594 0.3659455
vn -0.6991708 -0.6406171 -0.317443
vn -0.4395288 -0.5704293 0.6938478
vn -0.8295104 0.412356 0.3766631
vn -0.6943644 -0.6023517 -0.3937393
vn -0.2495051 -0.9458087 0.2078298
vn 0.5979927 -0.4012561 0.6938287
vn -0.8435276 -0.5211864 0.1297155
vn -0.9287587 -0.3705558 0.009778443
vn -0.03541349 -0.871781 -0.4886141
vn 0.3296717 -0.9372676 0.1133402
vn 0.9547408 -0.2546832 -0.1536444
vn 0.937338 -0.3180781 -0.1422106
vn -0.1026551 -0.9093943 -0.4030681
vn 0.4006971 -0.9103956 -0.1030617
vn -0.2243989 -0.9593464 -0.1711715
vn -0.289642 -0.9534926 -0.0834227
vn 0.0901855 -0.988351 -0.1225931
vn 0.9305788 -0.3659359 0.01067132
vn 0.4041417 -0.5595825 -0.7235585
vn 0.5979332 0.584591 -0.5483879
vn -0.3096752 -0.3656515 -0.8777245
vn 0.05458942 0.04590753 -0.997453
vn -0.2238848 0.4267809 -0.8762041
vn -0.7625582 0.07826644 -0.6421676
g LeftThumb_0
f 3/3/3 2/2/2 1/1/1
f 1/1/1 2/2/2 4/4/4
f 2/2/2 5/5/5 4/4/4
f 5/5/5 6/6/6 4/4/4
f 4/4/4 6/6/6 7/7/7
f 6/6/6 8/8/8 7/7/7
f 4/4/4 9/9/9 1/1/1
f 9/9/9 4/4/4 7/7/7
f 7/7/7 8/8/8 10/10/10
f 10/10/10 8/8/8 11/11/11
f 7/7/7 12/12/12 9/9/9
f 12/12/12 7/7/7 10/10/10
f 9/9/9 13/13/13 1/1/1
f 13/13/13 9/9/9 12/12/12
f 14/14/14 12/12/12 10/10/10
f 14/14/14 13/13/13 12/12/12
f 1/1/1 13/13/13 15/15/15
f 13/13/13 14/14/14 15/15/15
f 1/1/1 15/15/15 16/16/16
f 17/17/17 10/10/10 11/11/11
f 14/14/14 10/10/10 17/17/17
f 16/16/16 15/15/15 18/18/18
f 14/14/14 19/19/19 15/15/15
f 15/15/15 19/19/19 18/18/18
f 20/20/20 14/14/14 17/17/17
f 20/20/20 19/19/19 14/14/14
f 21/21/21 16/16/16 18/18/18
f 21/21/21 22/22/22 16/16/16
f 21/21/21 23/23/23 22/22/22
f 23/23/23 21/21/21 24/24/24
f 25/25/25 23/23/23 24/24/24
f 18/18/18 26/26/26 21/21/21
f 21/21/21 26/26/26 24/24/24
f 24/24/24 26/26/26 27/27/27
f 25/25/25 24/24/24 28/28/28
f 28/28/28 24/24/24 27/27/27
f 28/28/28 29/29/29 25/25/25
f 29/29/29 28/28/28 27/27/27
f 30/30/30 29/29/29 27/27/27
f 31/31/31 30/30/30 27/27/27
f 18/18/18 32/32/32 26/26/26
f 26/26/26 32/32/32 27/27/27
f 19/19/19 32/32/32 18/18/18
f 33/33/33 31/31/31 27/27/27
f 32/32/32 33/33/33 27/27/27
f 19/19/19 34/34/34 32/32/32
f 32/32/32 34/34/34 33/33/33
f 31/31/31 33/33/33 35/35/35
f 35/35/35 33/33/33 34/34/34
f 36/36/36 31/31/31 35/35/35
f 35/35/35 37/37/37 36/36/36
f 37/37/37 35/35/35 34/34/34
f 36/36/36 37/37/37 38/38/38
f 38/38/38 37/37/37 39/39/39
f 39/39/39 37/37/37 34/34/34
f 19/19/19 39/39/39 34/34/34
f 19/19/19 20/20/20 39/39/39
f 20/20/20 40/40/40 39/39/39
f 40/40/40 41/41/41 39/39/39
f 17/17/17 40/40/40 20/20/20
f 42/42/42 41/41/41 40/40/40
f 17/17/17 42/42/42 40/40/40
f 42/42/42 43/43/43 41/41/41
f 43/43/43 44/44/44 41/41/41
f 42/42/42 17/17/17 45/45/45
f 43/43/43 42/42/42 45/45/45
f 17/17/17 11/11/11 45/45/45
f 46/46/46 44/44/44 43/43/43
f 44/44/44 46/46/46 47/47/47
f 48/48/48 46/46/46 43/43/43
f 48/48/48 43/43/43 45/45/45
f 48/48/48 47/47/47 46/46/46
f 45/45/45 11/11/11 49/49/49
f 47/47/47 49/49/49 11/11/11
f 48/48/48 45/45/45 49/49/49
f 47/47/47 48/48/48 49/49/49
f 52/52/52 51/51/51 50/50/50
f 52/52/52 53/53/53 51/51/51
f 50/50/50 51/51/51 54/54/54
f 55/55/55 50/50/50 54/54/54
f 51/51/51 53/53/53 56/56/56
f 56/56/56 53/53/53 57/57/57
f 58/58/58 51/51/51 56/56/56
f 56/56/56 57/57/57 58/58/58
f 59/59/59 54/54/54 51/51/51
f 59/59/59 51/51/51 58/58/58
f 60/60/60 55/55/55 54/54/54
f 55/55/55 60/60/60 61/61/61
f 58/58/58 57/57/57 62/62/62
f 62/62/62 57/57/57 63/63/63
f 64/64/64 62/62/62 63/63/63
f 58/58/58 62/62/62 65/65/65
f 58/58/58 65/65/65 59/59/59
f 64/64/64 65/65/65 62/62/62
f 66/66/66 60/60/60 54/54/54
f 66/66/66 54/54/54 59/59/59
f 60/60/60 67/67/67 61/61/61
f 66/66/66 67/67/67 60/60/60
f 67/67/67 68/68/68 61/61/61
f 67/67/67 69/69/69 68/68/68
f 66/66/66 69/69/69 67/67/67
f 70/70/70 68/68/68 69/69/69
f 66/66/66 71/71/71 69/69/69
f 71/71/71 70/70/70 69/69/69
f 66/66/66 72/72/72 71/71/71
f 59/59/59 72/72/72 66/66/66
f 70/70/70 71/71/71 72/72/72
f 65/65/65 73/73/73 59/59/59
f 59/59/59 73/73/73 72/72/72
f 74/74/74 70/70/70 72/72/72
f 74/74/74 75/75/75 70/70/70
f 64/64/64 76/76/76 65/65/65
f 73/73/73 65/65/65 76/76/76
f 73/73/73 77/77/77 72/72/72
f 77/77/77 74/74/74 72/72/72
f 78/78/78 75/75/75 74/74/74
f 75/75/75 78/78/78 79/79/79
f 80/80/80 73/73/73 76/76/76
f 73/73/73 80/80/80 77/77/77
f 64/64/64 81/81/81 76/76/76
f 81/81/81 80/80/80 76/76/76
f 74/74/74 82/82/82 78/78/78
f 74/74/74 77/77/77 82/82/82
f 78/78/78 83/83/83 79/79/79
f 82/82/82 83/83/83 78/78/78
f 83/83/83 84/84/84 79/79/79
f 83/83/83 82/82/82 84/84/84
f 82/82/82 85/85/85 84/84/84
f 85/85/85 82/82/82 86/86/86
f 86/86/86 82/82/82 77/77/77
f 87/87/87 85/85/85 86/86/86
f 88/88/88 86/86/86 77/77/77
f 77/77/77 80/80/80 88/88/88
f 88/88/88 87/87/87 86/86/86
f 88/88/88 80/80/80 89/89/89
f 81/81/81 89/89/89 80/80/80
f 90/90/90 87/87/87 88/88/88
f 90/90/90 88/88/88 89/89/89
f 87/87/87 90/90/90 91/91/91
f 92/92/92 91/91/91 90/90/90
f 90/90/90 89/89/89 92/92/92
f 92/92/92 93/93/93 91/91/91
f 89/89/89 81/81/81 94/94/94
f 89/89/89 94/94/94 92/92/92
f 95/95/95 93/93/93 92/92/92
f 95/95/95 92/92/92 94/94/94
f 93/93/93 95/95/95 96/96/96
f 96/96/96 95/95/95 94/94/94
f 81/81/81 97/97/97 94/94/94
f 97/97/97 96/96/96 94/94/94
f 64/64/64 97/97/97 81/81/81
f 64/64/64 96/96/96 97/97/97
