g Legs_1
v -0.3138511 0.1134699 -0.2938323
v -0.3138511 0.09790477 -0.3029623
v 0.3074389 0.1078482 -0.301899
v 0.3074391 0.08776765 -0.2962071
v -0.3138511 0.09790477 -0.3029623
v -0.3138509 0.08878116 -0.2918512
v 0.3074389 0.1046891 -0.2861771
v -0.313851 0.1014034 -0.2869439
v -0.3138511 0.1134699 -0.2938323
v -0.3188229 0.1037171 -0.366676
v -0.3134941 0.1117061 -0.04988594
v -0.3178089 0.09524351 -0.04988596
v -0.2991674 0.09575753 -0.3666761
v -0.304451 0.08882792 -0.04988603
v -0.298262 0.1052229 -0.04988594
v -0.298262 0.1052229 -0.04988594
v -0.3134941 0.1117061 -0.04988594
v -0.3018838 0.1113418 -0.366676
v 0.3232041 0.1090467 -0.04988591
v 0.3068639 0.1088392 -0.04988591
v 0.3187474 0.1125036 -0.366676
v 0.307439 0.09097572 -0.07647958
v -0.313851 0.09708213 -0.07896964
v -0.3138509 0.08878116 -0.06811018
v 0.3074389 0.1078482 -0.301899
v -0.3138511 0.09790477 -0.3029623
v 0.3074391 0.08776765 -0.2962071
v 0.3074389 0.1078482 -0.301899
v 0.3074391 0.08776765 -0.2962071
v 0.3074389 0.1046891 -0.2861771
v 0.3074389 0.1046891 -0.2861771
v -0.3138511 0.1134699 -0.2938323
v 0.3074389 0.1078482 -0.301899
v -0.3018838 0.1113418 -0.366676
v -0.3134941 0.1117061 -0.04988594
v -0.3188229 0.1037171 -0.366676
v -0.304451 0.08882792 -0.04988603
v -0.2991674 0.09575753 -0.3666761
v -0.3093912 0.08778641 -0.3666761
v -0.298262 0.1052229 -0.04988594
v -0.3018838 0.1113418 -0.366676
v -0.2991674 0.09575753 -0.3666761
v 0.3187474 0.1125036 -0.366676
v 0.3068639 0.1088392 -0.04988591
v 0.305461 0.1037172 -0.366676
v 0.307439 0.09097572 -0.07647958
v -0.3138509 0.08878116 -0.06811018
v 0.3074391 0.09171686 -0.06537303
v 0.3074389 0.1046891 -0.2861771
v -0.3138509 0.08878116 -0.2918512
v -0.313851 0.1014034 -0.2869439
v 0.3074391 0.08776765 -0.2962071
v -0.3093912 0.08778641 -0.3666761
v -0.3178089 0.09524351 -0.04988596
v -0.304451 0.08882792 -0.04988603
v -0.3188229 0.1037171 -0.366676
v 0.305461 0.1037172 -0.366676
v 0.3068639 0.1088392 -0.04988591
v 0.3123891 0.08839901 -0.04988607
v 0.3148927 0.08778641 -0.3666761
v 0.3148927 0.08778641 -0.3666761
v 0.3123891 0.08839901 -0.04988607
v 0.3254442 0.09567616 -0.04988606
v 0.326438 0.0994101 -0.366676
v 0.326438 0.0994101 -0.366676
v 0.3254442 0.09567616 -0.04988606
v 0.3232041 0.1090467 -0.04988591
v 0.3187474 0.1125036 -0.366676
v 0.3074389 0.1122309 -0.07506584
v -0.3138511 0.1130036 -0.07216877
v -0.313851 0.09708213 -0.07896964
v 0.307439 0.09097572 -0.07647958
v 0.3074391 0.09171686 -0.06537303
v -0.3138509 0.08878116 -0.06811018
v -0.313851 0.1039121 -0.06315153
v 0.3074389 0.1064377 -0.06405341
v -0.3138511 0.1134699 -0.2938323
v -0.313851 0.1014034 -0.2869439
v -0.3138509 0.08878116 -0.2918512
v -0.3138511 0.09790477 -0.3029623
v -0.2991674 0.09575753 -0.3666761
v -0.3018838 0.1113418 -0.366676
v -0.3188229 0.1037171 -0.366676
v -0.3093912 0.08778641 -0.3666761
v 0.305461 0.1037172 -0.366676
v 0.3148927 0.08778641 -0.3666761
v 0.326438 0.0994101 -0.366676
v 0.3187474 0.1125036 -0.366676
v -0.3138511 0.1130036 -0.07216877
v 0.3074389 0.1122309 -0.07506584
v 0.3074389 0.1064377 -0.06405341
v -0.313851 0.1039121 -0.06315153
vt 0.953125 0.5
vt 0.7216797 0.5
vt 0.8369141 1
vt 0.5302734 1
vt 0.7216797 0.5
vt 0.4431152 0.5
vt 0.2027588 1
vt 0.239624 0.5
vt 0.0397644 0.5
vt 0.7851563 1
vt 0.9082031 0.5
vt 0.6889648 0.5
vt 0.3120117 1
vt 0.435791 0.5
vt 0.2012939 0.5
vt 0.2012939 0.5
vt 0.01582336 0.5
vt 0.1143799 1
vt 0.1320801 0.5
vt 0.01582336 0.5
vt 0.05184937 1
vt 0.008453369 0.6831055
vt 0.009750366 0.0007119179
vt 0.008987427 0.0009093285
vt 0.8369141 1
vt 0.7216797 0.5
vt 0.5302734 1
vt 0.4179688 0.3518066
vt 0.2902832 0.04205322
vt 0.07202148 0.3041992
vt 0.2027588 1
vt 0.0397644 0.5
vt 0 1
vt 0.9814453 1
vt 0.9082031 0.5
vt 0.7851563 1
vt 0.435791 0.5
vt 0.3120117 1
vt 0.5180664 1
vt 0.2012939 0.5
vt 0.1143799 1
vt 0.3120117 1
vt 0.9814453 1
vt 0.8388672 0.5
vt 0.7851563 1
vt 0.008453369 0.6831055
vt 0.008987427 0.0009093285
vt 0.008789063 0.6845703
vt 0.2027588 1
vt 0.4431152 0.5
vt 0.239624 0.5
vt 0.5302734 1
vt 0.5180664 1
vt 0.6889648 0.5
vt 0.435791 0.5
vt 0.7851563 1
vt 0.7851563 1
vt 0.8388672 0.5
vt 0.5600586 0.5
vt 0.5180664 1
vt 0.5180664 1
vt 0.5600586 0.5
vt 0.3093262 0.5
vt 0.2641602 1
vt 0.2641602 1
vt 0.3093262 0.5
vt 0.1320801 0.5
vt 0.05184937 1
vt 0.01027679 0.6831055
vt 0.01050568 2.014637E-05
vt 0.009750366 0.0007119179
vt 0.008453369 0.6831055
vt 0.008789063 0.6845703
vt 0.008987427 0.0009093285
vt 0.009757996 0.0006632805
vt 0.01050568 0.6835938
vt 0.7294922 0.4638672
vt 0.5234375 0.2644043
vt 0.6723633 0.04214478
vt 0.9458008 0.2148438
vt 0.03634644 0.1624756
vt 0.1148071 0.4086914
vt 0.4526367 0.2944336
vt 0.2749023 0.03494263
vt 0.4526367 0.2946777
vt 0.2749023 0.03494263
vt 0.03372192 0.2307129
vt 0.1859131 0.4667969
vt 0.01050568 2.014637E-05
vt 0.01027679 0.6831055
vt 0.01050568 0.6835938
vt 0.009757996 0.0006632805
vn -0.006622314 0.5058594 -0.8623047
vn -0.006622314 0.5058594 -0.8623047
vn -0.006622314 0.5058594 -0.8623047
vn -0.005710602 -0.7729492 -0.6347656
vn -0.005710602 -0.7729492 -0.6347656
vn -0.005710602 -0.7729492 -0.6347656
vn -0.003694534 0.4958496 0.8686523
vn -0.003694534 0.4958496 0.8686523
vn -0.003694534 0.4958496 0.8686523
vn -0.9672852 0.253418 0.009880066
vn -0.9672852 0.253418 0.009880066
vn -0.9672852 0.253418 0.009880066
vn 0.9355469 -0.3532715 0.007881165
vn 0.9355469 -0.3532715 0.007881165
vn 0.9355469 -0.3532715 0.007881165
vn 0.3916016 0.9199219 0.01329041
vn 0.3916016 0.9199219 0.01329041
vn 0.3916016 0.9199219 0.01329041
vn -0.01269531 1 0.01109314
vn -0.029953 0.9995117 0.01043701
vn -0.5366211 0.84375 -0.01037598
vn 0.004299164 -0.9985352 0.05740356
vn -0.005374908 -0.7944336 -0.6074219
vn -0.005279541 -0.7988281 -0.6010742
vn 0.006011963 -0.2727051 -0.9619141
vn 0.006011963 -0.2727051 -0.9619141
vn 0.006011963 -0.2727051 -0.9619141
vn 1 1.001358E-05 -9.536743E-07
vn 1 1.001358E-05 -9.536743E-07
vn 1 1.001358E-05 -9.536743E-07
vn 0.01142883 0.9804688 0.1970215
vn 0.01142883 0.9804688 0.1970215
vn 0.01142883 0.9804688 0.1970215
vn -0.4104004 0.9116211 -0.01608276
vn -0.4104004 0.9116211 -0.01608276
vn -0.4104004 0.9116211 -0.01608276
vn 0.6147461 -0.7885742 -0.006996155
vn 0.6147461 -0.7885742 -0.006996155
vn 0.6147461 -0.7885742 -0.006996155
vn 0.9853516 0.1717529 -0.0079422
vn 0.9853516 0.1717529 -0.0079422
vn 0.9853516 0.1717529 -0.0079422
vn -0.5366211 0.84375 -0.01037598
vn -0.029953 0.9995117 0.01043701
vn -0.5517578 0.8339844 -0.01103973
vn 0.004299164 -0.9985352 0.05740356
vn -0.005279541 -0.7988281 -0.6010742
vn 0.004421234 -0.9975586 0.06658936
vn 0.005138397 -0.5078125 0.8613281
vn 0.000854969 -0.3654785 0.9306641
vn 0.0007658005 -0.3623047 0.9321289
vn 0.005199432 -0.5097656 0.8603516
vn -0.8520508 -0.5234375 -0.01031494
vn -0.4511719 -0.8925781 0.009017944
vn -0.4328613 -0.9013672 0.009712219
vn -0.8603516 -0.5092773 -0.01087189
vn -0.8662109 -0.4997559 -0.005218506
vn -0.965332 -0.2609863 0.008491516
vn -0.9628906 -0.2705078 0.007972717
vn -0.8603516 -0.5092773 -0.005813599
vn 0.7036133 -0.7104492 -0.005741119
vn 0.4868164 -0.8735352 0.005535126
vn 0.494873 -0.8691406 0.0051651
vn 0.7094727 -0.7045898 -0.006080627
vn 0.8671875 0.4980469 -0.006298065
vn 0.9863281 0.1652832 0.00504303
vn 0.984375 0.1759033 0.004699707
vn 0.8623047 0.5063477 -0.006603241
vn 0.004505157 0.07220459 -0.9975586
vn -0.003799438 0.3928223 -0.9194336
vn -0.003620148 0.3862305 -0.9223633
vn 0.004650116 0.06634521 -0.9975586
vn 0.001735687 -0.09295654 0.9956055
vn -0.002714157 -0.3115234 0.9501953
vn -0.0026474 -0.3081055 0.9511719
vn 0.00180912 -0.08929443 0.9960938
vn -1 -6.67572E-06 1.168251E-05
vn -1 -6.67572E-06 1.168251E-05
vn -1 -6.67572E-06 1.168251E-05
vn -1 -6.67572E-06 1.168251E-05
vn 0 5.841255E-06 -1
vn 0 5.841255E-06 -1
vn 0 5.841255E-06 -1
vn 0 5.841255E-06 -1
vn 0 4.827976E-06 -1
vn 0 4.827976E-06 -1
vn 0 4.827976E-06 -1
vn 0 4.827976E-06 -1
vn 0.0006914139 0.8027344 0.5966797
vn 0.0006914139 0.8027344 0.5966797
vn 0.0006914139 0.8027344 0.5966797
vn 0.0006914139 0.8027344 0.5966797
g Legs_1_0
f 3/3/3 2/2/2 1/1/1
f 6/6/6 5/5/5 4/4/4
f 9/9/9 8/8/8 7/7/7
f 12/12/12 11/11/11 10/10/10
f 15/15/15 14/14/14 13/13/13
f 18/18/18 17/17/17 16/16/16
f 21/21/21 20/20/20 19/19/19
f 24/24/24 23/23/23 22/22/22
f 27/27/27 26/26/26 25/25/25
f 30/30/30 29/29/29 28/28/28
f 33/33/33 32/32/32 31/31/31
f 36/36/36 35/35/35 34/34/34
f 39/39/39 38/38/38 37/37/37
f 42/42/42 41/41/41 40/40/40
f 45/45/45 44/44/44 43/43/43
f 48/48/48 47/47/47 46/46/46
f 51/51/51 50/50/50 49/49/49
f 52/52/52 49/49/49 50/50/50
f 55/55/55 54/54/54 53/53/53
f 53/53/53 54/54/54 56/56/56
f 59/59/59 58/58/58 57/57/57
f 60/60/60 59/59/59 57/57/57
f 63/63/63 62/62/62 61/61/61
f 61/61/61 64/64/64 63/63/63
f 67/67/67 66/66/66 65/65/65
f 68/68/68 67/67/67 65/65/65
f 71/71/71 70/70/70 69/69/69
f 72/72/72 71/71/71 69/69/69
f 75/75/75 74/74/74 73/73/73
f 73/73/73 76/76/76 75/75/75
f 79/79/79 78/78/78 77/77/77
f 80/80/80 79/79/79 77/77/77
f 83/83/83 82/82/82 81/81/81
f 84/84/84 83/83/83 81/81/81
f 87/87/87 86/86/86 85/85/85
f 88/88/88 87/87/87 85/85/85
f 91/91/91 90/90/90 89/89/89
f 92/92/92 91/91/91 89/89/89
