g lightningbolt_low
v 0.8146265 0.6956455 1.16309
v -0.07391857 0.6983697 1.606552
v 0.09340367 1.117766 1.265637
v 0.6473042 0.2762519 1.504005
v 1.535849 0.2735277 1.152058
v -0.2412375 0.2789727 1.947463
v 1.280443 -0.2360071 1.433233
v 2.257072 -0.1485933 0.7696829
v 0.5627136 -0.05848502 1.989669
v -0.3046953 -0.02519756 2.468994
v 0.312663 -0.5625419 2.185831
v 1.100411 -0.6684106 1.657528
v 1.033886 -0.9846597 2.174799
v 2.166928 -0.4890096 1.245633
v 2.978295 -0.570711 0.604365
v 2.810973 -0.9901079 0.9452767
v 1.922431 -0.9873837 1.45151
v 1.755109 -1.406781 1.792425
v 2.643654 -1.409501 1.286192
v 2.476331 -1.828898 1.627107
vt 0.75 0
vt 1 0.25
vt 1 0
vt 0.75 0.25
vt 0.5 0
vt 1 0.5
vt 0.5 0.25
vt 0.25 0
vt 0.75 0.5
vt 1 0.75
vt 0.75 0.75
vt 0.5 0.5
vt 0.5 0.75
vt 0.25 0.25
vt 0 0
vt 0 0.25
vt 0.25 0.5
vt 0.25 0.75
vt 0 0.5
vt 0 0.75
vn 0.3664551 0.4494629 0.8144531
vn 0.3713379 0.5600586 0.7407227
vn 0.3928223 0.4807129 0.7841797
vn 0.4208984 0.4929199 0.7612305
vn 0.4035645 0.4472656 0.7983398
vn 0.3884277 0.574707 0.7202148
vn 0.4418945 0.394043 0.8056641
vn 0.5195313 0.4941406 0.6972656
vn 0.4921875 0.4956055 0.7158203
vn 0.4338379 0.498291 0.7504883
vn 0.4929199 0.4587402 0.7392578
vn 0.5053711 0.4350586 0.7451172
vn 0.5327148 0.4990234 0.6835938
vn 0.463623 0.3989258 0.7910156
vn 0.5649414 0.5078125 0.6503906
vn 0.5263672 0.3999023 0.7504883
vn 0.4365234 0.3974609 0.8071289
vn 0.4841309 0.519043 0.7045898
vn 0.4609375 0.3693848 0.8071289
vn 0.4423828 0.4526367 0.7739258
g lightningbolt_low_0
f 3/3/3 2/2/2 1/1/1
f 2/2/2 4/4/4 1/1/1
f 1/1/1 4/4/4 5/5/5
f 2/2/2 6/6/6 4/4/4
f 4/4/4 7/7/7 5/5/5
f 5/5/5 7/7/7 8/8/8
f 6/6/6 9/9/9 4/4/4
f 4/4/4 9/9/9 7/7/7
f 6/6/6 10/10/10 9/9/9
f 10/10/10 11/11/11 9/9/9
f 9/9/9 11/11/11 12/12/12
f 9/9/9 12/12/12 7/7/7
f 11/11/11 13/13/13 12/12/12
f 7/7/7 14/14/14 8/8/8
f 7/7/7 12/12/12 14/14/14
f 8/8/8 14/14/14 15/15/15
f 14/14/14 16/16/16 15/15/15
f 12/12/12 13/13/13 17/17/17
f 12/12/12 17/17/17 14/14/14
f 14/14/14 17/17/17 16/16/16
f 13/13/13 18/18/18 17/17/17
f 17/17/17 19/19/19 16/16/16
f 17/17/17 18/18/18 19/19/19
f 18/18/18 20/20/20 19/19/19
