g Lights.006
v -0.05779844 -0.02965241 0.004767423
v -0.05779844 0.0296524 0.004767423
v 0.05779844 0.0296524 0.004767423
v 0.05779844 -0.02965241 0.004767423
v -0.05779844 0.04374823 0.004767423
v -0.05779844 0.103053 0.004767423
v 0.05779844 0.103053 0.004767423
v 0.05779844 0.04374823 0.004767423
v -0.05779844 0.1171489 0.004767423
v -0.05779844 0.1764537 0.004767423
v 0.05779844 0.1764537 0.004767423
v 0.05779844 0.1171489 0.004767423
v -0.05779844 0.1905496 0.004767423
v -0.05779844 0.2498544 0.004767423
v 0.05779844 0.2498544 0.004767423
v 0.05779844 0.1905496 0.004767423
v -0.05779844 0.2639502 0.004767423
v -0.05779844 0.323255 0.004767423
v 0.05779844 0.323255 0.004767423
v 0.05779844 0.2639502 0.004767423
v -0.05779844 0.3373508 0.004767423
v -0.05779844 0.3966556 0.004767423
v 0.05779844 0.3966556 0.004767423
v 0.05779844 0.3373508 0.004767423
vt 0.6998274 0.2492359
vt 0.7258729 0.2492359
vt 0.7258729 0.1984679
vt 0.6998274 0.1984679
vt 0.7312693 0.2492359
vt 0.7573149 0.2492359
vt 0.7573149 0.1984679
vt 0.7312693 0.1984679
vt 0.7624338 0.2492359
vt 0.7884794 0.2492359
vt 0.7884794 0.1984679
vt 0.7624338 0.1984679
vt 0.7935962 0.2492359
vt 0.8196418 0.2492359
vt 0.8196418 0.1984679
vt 0.7935962 0.1984679
vt 0.8253675 0.2492359
vt 0.8514131 0.2492359
vt 0.8514131 0.1984679
vt 0.8253675 0.1984679
vt 0.8565088 0.2492359
vt 0.8825544 0.2492359
vt 0.8825544 0.1984679
vt 0.8565088 0.1984679
vn 0 0 1
vn 0 0 1
vn 0 0 1
vn 0 0 1
vn 0 0 1
vn 0 0 1
vn 0 0 1
vn 0 0 1
vn 0 0 1
vn 0 0 1
vn 0 0 1
vn 0 0 1
vn 0 0 1
vn 0 0 1
vn 0 0 1
vn 0 0 1
vn 0 0 1
vn 0 0 1
vn 0 0 1
vn 0 0 1
vn 0 0 1
vn 0 0 1
vn 0 0 1
vn 0 0 1
g Lights.006_0
f 3/3/3 2/2/2 1/1/1
f 4/4/4 3/3/3 1/1/1
g Lights.006_1
f 7/7/7 6/6/6 5/5/5
f 8/8/8 7/7/7 5/5/5
g Lights.006_2
f 11/11/11 10/10/10 9/9/9
f 12/12/12 11/11/11 9/9/9
g Lights.006_3
f 15/15/15 14/14/14 13/13/13
f 16/16/16 15/15/15 13/13/13
g Lights.006_4
f 19/19/19 18/18/18 17/17/17
f 20/20/20 19/19/19 17/17/17
g Lights.006_5
f 23/23/23 22/22/22 21/21/21
f 24/24/24 23/23/23 21/21/21
