g Line
v 11.59811 -1.046908 0.1079783
v 7.732858 -1.410911 0.1554174
v 7.732895 -1.402938 0.06787014
v 11.59795 -1.03901 0.02220249
v 11.60853 -1.14168 0.09971142
v 7.732795 -1.50524 0.1474609
v 7.732858 -1.410911 0.1554174
v 11.59811 -1.046908 0.1079783
v 11.6084 -1.133939 0.01381779
v 7.732832 -1.497336 0.06005335
v 7.732795 -1.50524 0.1474609
v 11.60853 -1.14168 0.09971142
v 11.59795 -1.03901 0.02220249
v 7.732895 -1.402938 0.06787014
v 7.732832 -1.497336 0.06005335
v 11.6084 -1.133939 0.01381779
v 3.867605 -1.04052 0.1050606
v -0.0002741395 3.867168E-18 -0.06315565
v -1.007691E-06 0.007656097 -0.1471572
v 3.867809 -1.032784 0.01918697
v 7.732858 -1.410911 0.1554174
v 3.867605 -1.04052 0.1050606
v 3.867809 -1.032784 0.01918697
v 7.732895 -1.402938 0.06787014
v 11.59795 -1.03901 0.02220249
v 15.52786 0.01226139 -0.1401477
v 15.52802 0.004696846 -0.05624819
v 11.59811 -1.046908 0.1079783
v 3.857069 -1.135427 0.09670544
v -0.01593333 -0.09590816 -0.07139921
v -0.0002741395 3.867168E-18 -0.06315565
v 3.867605 -1.04052 0.1050606
v 7.732795 -1.50524 0.1474609
v 3.857069 -1.135427 0.09670544
v 3.867605 -1.04052 0.1050606
v 7.732858 -1.410911 0.1554174
v 11.59811 -1.046908 0.1079783
v 15.52802 0.004696846 -0.05624819
v 15.54359 -0.09110832 -0.06406689
v 11.60853 -1.14168 0.09971142
v 3.857281 -1.127587 0.01093531
v -0.01561031 -0.0880003 -0.155417
v -0.01593333 -0.09590816 -0.07139921
v 3.857069 -1.135427 0.09670544
v 7.732832 -1.497336 0.06005335
v 3.857281 -1.127587 0.01093531
v 3.857069 -1.135427 0.09670544
v 7.732795 -1.50524 0.1474609
v 11.60853 -1.14168 0.09971142
v 15.54359 -0.09110832 -0.06406689
v 15.54343 -0.08355618 -0.1482553
v 11.6084 -1.133939 0.01381779
v 3.867809 -1.032784 0.01918697
v -1.007691E-06 0.007656097 -0.1471572
v -0.01561031 -0.0880003 -0.155417
v 3.857281 -1.127587 0.01093531
v 7.732895 -1.402938 0.06787014
v 3.867809 -1.032784 0.01918697
v 3.857281 -1.127587 0.01093531
v 7.732832 -1.497336 0.06005335
v 11.6084 -1.133939 0.01381779
v 15.54343 -0.08355618 -0.1482553
v 15.52786 0.01226139 -0.1401477
v 11.59795 -1.03901 0.02220249
vt 0.5894662 0.3104002
vt 0.9016144 0.3001764
vt 0.9012339 0.2931154
vt 0.5891082 0.3034805
vt 0.9065527 0.7119934
vt 0.5934473 0.7065826
vt 0.594022 0.7141756
vt 0.906289 0.7196869
vt 0.6300199 0.8192109
vt 0.9431425 0.8162661
vt 0.9432222 0.809207
vt 0.630085 0.812274
vt 0.5890565 0.6660138
vt 0.9012814 0.6727524
vt 0.9021544 0.6651833
vt 0.5890934 0.6583023
vt 0.6226459 0.3899917
vt 0.9449929 0.3809497
vt 0.9452251 0.3741686
vt 0.622887 0.3830603
vt 0.3133835 0.7208835
vt 0.001071393 0.7267706
vt 0.001069546 0.7337062
vt 0.3133673 0.7279549
vt 0.5904371 0.7463824
vt 0.9178988 0.74182
vt 0.9173912 0.7350629
vt 0.5899137 0.7394733
vt 0.5918387 0.8387554
vt 0.9146827 0.8407397
vt 0.9154855 0.8329359
vt 0.5930169 0.8311354
vt 0.3142983 0.6978867
vt 0.001160741 0.6915201
vt 0.001131296 0.6992306
vt 0.313437 0.7054526
vt 0.8963791 0.2700144
vt 0.5690427 0.2594483
vt 0.5695474 0.2672647
vt 0.8972661 0.2776611
vt 0.3152039 0.7333239
vt 0.6379893 0.7275443
vt 0.6374482 0.7207778
vt 0.3146473 0.7264183
vt 0.6285665 0.6914488
vt 0.3154622 0.6986019
vt 0.3157502 0.705524
vt 0.6288738 0.6985018
vt 0.5098317 0.4153399
vt 0.8375934 0.4063967
vt 0.8378245 0.3996015
vt 0.5100712 0.4084069
vt 0.8916574 0.2359686
vt 0.569379 0.2251301
vt 0.5698749 0.2329389
vt 0.8925351 0.2436198
vt 0.5703487 0.2581479
vt 0.8826481 0.252483
vt 0.8826327 0.2447817
vt 0.5695003 0.250576
vt 0.001191378 0.8167896
vt 0.3290536 0.8192483
vt 0.3298632 0.8114545
vt 0.002377748 0.8091697
vn -0.09227844 0.9915789 0.09086177
vn -0.09227844 0.9915791 0.09086177
vn -0.09227844 0.9915791 0.09086177
vn -0.09227844 0.9915791 0.09086178
vn 0.02017958 -0.08436372 0.9962307
vn 0.02017958 -0.08436373 0.9962307
vn 0.02017958 -0.08436372 0.9962307
vn 0.02017958 -0.08436373 0.9962307
vn 0.09192351 -0.991729 -0.08957563
vn 0.09192351 -0.991729 -0.08957563
vn 0.09192351 -0.991729 -0.08957563
vn 0.09192351 -0.991729 -0.08957563
vn -0.01973723 0.08417046 -0.9962559
vn -0.01973723 0.08417046 -0.9962559
vn -0.01973722 0.08417046 -0.9962559
vn -0.01973723 0.08417045 -0.9962559
vn 0.2552167 0.9628748 0.0879572
vn 0.2552167 0.9628748 0.08795719
vn 0.2552167 0.9628748 0.08795719
vn 0.2552167 0.9628748 0.0879572
vn 0.09383222 0.9915172 0.08993963
vn 0.09383222 0.9915172 0.08993964
vn 0.09383222 0.9915172 0.08993964
vn 0.09383222 0.9915172 0.08993964
vn -0.2540247 0.9631625 0.08825766
vn -0.2540247 0.9631625 0.08825766
vn -0.2540247 0.9631625 0.08825766
vn -0.2540247 0.9631625 0.08825767
vn -0.06411649 -0.07774338 0.9949096
vn -0.0641165 -0.07774338 0.9949096
vn -0.0641165 -0.07774338 0.9949096
vn -0.0641165 -0.07774339 0.9949096
vn -0.02110986 -0.0846854 0.9961841
vn -0.02110986 -0.08468539 0.9961841
vn -0.02110986 -0.08468539 0.9961841
vn -0.02110986 -0.0846854 0.9961841
vn 0.06170897 -0.07558835 0.9952278
vn 0.06170898 -0.07558835 0.9952278
vn 0.06170898 -0.07558836 0.9952278
vn 0.06170898 -0.07558835 0.9952278
vn -0.2545522 -0.9628519 -0.09010787
vn -0.2545522 -0.9628519 -0.09010787
vn -0.2545522 -0.9628519 -0.09010786
vn -0.2545522 -0.9628519 -0.09010786
vn -0.09343968 -0.9915236 -0.09027781
vn -0.09343968 -0.9915236 -0.09027782
vn -0.09343968 -0.9915236 -0.09027782
vn -0.09343967 -0.9915236 -0.09027781
vn 0.2535774 -0.9633907 -0.08704532
vn 0.2535773 -0.9633907 -0.08704532
vn 0.2535774 -0.9633907 -0.08704533
vn 0.2535774 -0.9633907 -0.08704533
vn 0.06359639 0.07752834 -0.9949597
vn 0.06359638 0.07752833 -0.9949597
vn 0.06359639 0.07752833 -0.9949597
vn 0.06359639 0.07752833 -0.9949597
vn 0.0205659 0.08346227 -0.9962987
vn 0.0205659 0.08346228 -0.9962987
vn 0.0205659 0.08346228 -0.9962987
vn 0.0205659 0.08346227 -0.9962987
vn -0.06178372 0.07760631 -0.9950678
vn -0.06178373 0.07760631 -0.9950678
vn -0.06178372 0.07760631 -0.9950678
vn -0.06178372 0.07760631 -0.9950678
g Line_0
f 3/3/3 2/2/2 1/1/1
f 4/4/4 3/3/3 1/1/1
f 7/7/7 6/6/6 5/5/5
f 8/8/8 7/7/7 5/5/5
f 11/11/11 10/10/10 9/9/9
f 12/12/12 11/11/11 9/9/9
f 15/15/15 14/14/14 13/13/13
f 16/16/16 15/15/15 13/13/13
f 19/19/19 18/18/18 17/17/17
f 20/20/20 19/19/19 17/17/17
f 23/23/23 22/22/22 21/21/21
f 24/24/24 23/23/23 21/21/21
f 27/27/27 26/26/26 25/25/25
f 28/28/28 27/27/27 25/25/25
f 31/31/31 30/30/30 29/29/29
f 32/32/32 31/31/31 29/29/29
f 35/35/35 34/34/34 33/33/33
f 36/36/36 35/35/35 33/33/33
f 39/39/39 38/38/38 37/37/37
f 40/40/40 39/39/39 37/37/37
f 43/43/43 42/42/42 41/41/41
f 44/44/44 43/43/43 41/41/41
f 47/47/47 46/46/46 45/45/45
f 48/48/48 47/47/47 45/45/45
f 51/51/51 50/50/50 49/49/49
f 52/52/52 51/51/51 49/49/49
f 55/55/55 54/54/54 53/53/53
f 56/56/56 55/55/55 53/53/53
f 59/59/59 58/58/58 57/57/57
f 60/60/60 59/59/59 57/57/57
f 63/63/63 62/62/62 61/61/61
f 64/64/64 63/63/63 61/61/61
