g LoadingBar
v -0.5166915 -5.32907E-16 0.0873064
v -0.5166915 -5.32907E-16 -0.0788475
v 0.1223039 -5.32907E-16 -0.0788475
v 0.1223039 -5.32907E-16 0.0873064
v -0.5166915 -5.32907E-16 -0.186172
v -0.5166915 -5.32907E-16 -0.3523259
v 0.5166915 -5.32907E-16 -0.3523259
v 0.5166915 -5.32907E-16 -0.186172
v -0.5166915 -5.32907E-16 0.3523259
v -0.5166915 -5.32907E-16 0.186172
v 0.3761978 -5.32907E-16 0.186172
v 0.3761978 -5.32907E-16 0.3523259
vt 0.03344727 0.5595703
vt 0.03344727 0.5717773
vt 0.08135986 0.5717773
vt 0.08135986 0.5595703
vt 0.0186615 0.5595703
vt 0.0186615 0.5717773
vt 0.09613037 0.5717773
vt 0.09613037 0.5595703
vt 0.02398682 0.5595703
vt 0.02398682 0.5717773
vt 0.09082031 0.5717773
vt 0.09082031 0.5595703
vn 0 1 0
vn 0 1 0
vn 0 1 0
vn 0 1 0
vn 0 1 0
vn 0 1 0
vn 0 1 0
vn 0 1 0
vn 0 1 0
vn 0 1 0
vn 0 1 0
vn 0 1 0
g LoadingBar_0
f 3/3/3 2/2/2 1/1/1
f 4/4/4 3/3/3 1/1/1
f 7/7/7 6/6/6 5/5/5
f 8/8/8 7/7/7 5/5/5
f 11/11/11 10/10/10 9/9/9
f 12/12/12 11/11/11 9/9/9
