g Lock_Mechanism_base
v -0.2488096 -0.003546142 0.2570269
v -0.2488094 -0.003544617 -0.257028
v 0.2488121 -0.003544617 -0.257028
v 0.2488117 -0.003546142 0.2570269
v -0.2623695 0.02357635 -0.2705877
v 0.262372 0.02357635 -0.2705877
v 0.2488121 0.01001587 -0.2570272
v -0.2488094 0.01001587 -0.2570272
v -0.2488094 0.01001587 -0.2570272
v -0.2488096 0.01001511 0.2570276
v -0.2623695 0.02357483 0.2705873
v -0.2623695 0.02357635 -0.2705877
v -0.2488096 0.01001511 0.2570276
v 0.2488117 0.01001511 0.2570276
v 0.2623716 0.02357483 0.2705873
v -0.2623695 0.02357483 0.2705873
v -0.2887825 0.02357788 -0.2919931
v -0.2887827 0.0235733 0.2919924
v -0.3054726 0.01001434 0.3087145
v -0.3054723 0.01001816 -0.3087137
v -0.3054723 0.01001816 -0.3087137
v 0.3054748 0.01001816 -0.3087137
v 0.2887853 0.02357788 -0.2919931
v -0.2887825 0.02357788 -0.2919931
v 0.3054748 0.01001816 -0.3087137
v 0.3054748 0.01001511 0.308716
v 0.2887853 0.0235733 0.2919924
v 0.2887853 0.02357788 -0.2919931
v 0.3054748 0.01001511 0.308716
v -0.3054726 0.01001434 0.3087145
v -0.2887827 0.0235733 0.2919924
v 0.2887853 0.0235733 0.2919924
v 0.262372 0.02357635 -0.2705877
v 0.2623716 0.02357483 0.2705873
v 0.2488117 0.01001511 0.2570276
v 0.2488121 0.01001587 -0.2570272
v -0.3054723 0.01001816 -0.3087137
v -0.3258442 -0.03906479 -0.3293028
v 0.3258457 -0.03906479 -0.3293028
v 0.3054748 0.01001816 -0.3087137
v 0.3054748 0.01001816 -0.3087137
v 0.3258457 -0.03906479 -0.3293028
v 0.3258457 -0.0390686 0.3293031
v 0.3054748 0.01001511 0.308716
v 0.3054748 0.01001511 0.308716
v 0.3258457 -0.0390686 0.3293031
v -0.3258444 -0.0390686 0.3293031
v -0.3054726 0.01001434 0.3087145
v -0.3054726 0.01001434 0.3087145
v -0.3258444 -0.0390686 0.3293031
v -0.3258442 -0.03906479 -0.3293028
v -0.3054723 0.01001816 -0.3087137
v -0.2488094 0.01001587 -0.2570272
v -0.2488094 -0.003544617 -0.257028
v -0.2488096 -0.003546142 0.2570269
v -0.2488096 0.01001511 0.2570276
v 0.2488121 0.01001587 -0.2570272
v 0.2488121 -0.003544617 -0.257028
v -0.2488094 -0.003544617 -0.257028
v -0.2488094 0.01001587 -0.2570272
v 0.2488117 0.01001511 0.2570276
v 0.2488117 -0.003546142 0.2570269
v 0.2488121 -0.003544617 -0.257028
v 0.2488121 0.01001587 -0.2570272
v -0.2488096 0.01001511 0.2570276
v -0.2488096 -0.003546142 0.2570269
v 0.2488117 -0.003546142 0.2570269
v 0.2488117 0.01001511 0.2570276
v 4.298692 -0.003546142 0.2570269
v 3.80107 -0.003546142 0.2570269
v 3.80107 -0.003544617 -0.257028
v 4.298691 -0.003544617 -0.257028
v 4.312252 0.02357635 -0.2705877
v 4.298691 0.01001587 -0.2570272
v 3.80107 0.01001587 -0.2570272
v 3.78751 0.02357635 -0.2705877
v 4.298691 0.01001587 -0.2570272
v 4.312252 0.02357635 -0.2705877
v 4.312252 0.02357483 0.2705873
v 4.298692 0.01001511 0.2570276
v 4.298692 0.01001511 0.2570276
v 4.312252 0.02357483 0.2705873
v 3.78751 0.02357483 0.2705873
v 3.80107 0.01001511 0.2570276
v 4.338665 0.02357788 -0.2919931
v 4.355354 0.01001816 -0.3087137
v 4.355354 0.01001434 0.3087145
v 4.338665 0.0235733 0.2919924
v 4.355354 0.01001816 -0.3087137
v 4.338665 0.02357788 -0.2919931
v 3.761097 0.02357788 -0.2919931
v 3.744407 0.01001816 -0.3087137
v 3.744407 0.01001816 -0.3087137
v 3.761097 0.02357788 -0.2919931
v 3.761097 0.0235733 0.2919924
v 3.744407 0.01001511 0.308716
v 3.744407 0.01001511 0.308716
v 3.761097 0.0235733 0.2919924
v 4.338665 0.0235733 0.2919924
v 4.355354 0.01001434 0.3087145
v 3.78751 0.02357635 -0.2705877
v 3.80107 0.01001587 -0.2570272
v 3.80107 0.01001511 0.2570276
v 3.78751 0.02357483 0.2705873
v 4.355354 0.01001816 -0.3087137
v 3.744407 0.01001816 -0.3087137
v 3.724036 -0.03906479 -0.3293028
v 4.375726 -0.03906479 -0.3293028
v 3.744407 0.01001816 -0.3087137
v 3.744407 0.01001511 0.308716
v 3.724036 -0.0390686 0.3293031
v 3.724036 -0.03906479 -0.3293028
v 3.744407 0.01001511 0.308716
v 4.355354 0.01001434 0.3087145
v 4.375726 -0.0390686 0.3293031
v 3.724036 -0.0390686 0.3293031
v 4.355354 0.01001434 0.3087145
v 4.355354 0.01001816 -0.3087137
v 4.375726 -0.03906479 -0.3293028
v 4.375726 -0.0390686 0.3293031
v 4.298691 0.01001587 -0.2570272
v 4.298692 0.01001511 0.2570276
v 4.298692 -0.003546142 0.2570269
v 4.298691 -0.003544617 -0.257028
v 3.80107 0.01001587 -0.2570272
v 4.298691 0.01001587 -0.2570272
v 4.298691 -0.003544617 -0.257028
v 3.80107 -0.003544617 -0.257028
v 3.80107 0.01001511 0.2570276
v 3.80107 0.01001587 -0.2570272
v 3.80107 -0.003544617 -0.257028
v 3.80107 -0.003546142 0.2570269
v 4.298692 0.01001511 0.2570276
v 3.80107 0.01001511 0.2570276
v 3.80107 -0.003546142 0.2570269
v 4.298692 -0.003546142 0.2570269
v -0.2623695 0.02357635 -0.2705877
v -0.2887825 0.02357788 -0.2919931
v 0.2887853 0.02357788 -0.2919931
v 0.262372 0.02357635 -0.2705877
v -0.2623695 0.02357483 0.2705873
v 0.2887853 0.0235733 0.2919924
v -0.2887827 0.0235733 0.2919924
v 0.2623716 0.02357483 0.2705873
v 4.312252 0.02357635 -0.2705877
v 3.78751 0.02357635 -0.2705877
v 3.761097 0.02357788 -0.2919931
v 4.338665 0.02357788 -0.2919931
v 3.761097 0.0235733 0.2919924
v 4.312252 0.02357483 0.2705873
v 3.78751 0.02357483 0.2705873
v 4.338665 0.0235733 0.2919924
vt 1.478516 0.3806152
vt 1.344727 0.3806152
vt 1.34375 0.5107422
vt 1.478516 0.5107422
vt 1.336914 0.3735352
vt 1.336914 0.5180664
vt 1.341797 0.5131836
vt 1.341797 0.3781738
vt 1.341797 0.3781738
vt 1.481445 0.3781738
vt 1.486328 0.3735352
vt 1.336914 0.3735352
vt 1.481445 0.3781738
vt 1.480469 0.5131836
vt 1.485352 0.5175781
vt 1.486328 0.3735352
vt 1.331055 0.3664551
vt 1.491211 0.3662109
vt 1.49707 0.3608398
vt 1.326172 0.361084
vt 1.326172 0.361084
vt 1.326172 0.5302734
vt 1.331055 0.5249023
vt 1.331055 0.3664551
vt 1.326172 0.5302734
vt 1.49707 0.5302734
vt 1.491211 0.5249023
vt 1.331055 0.5249023
vt 1.49707 0.5302734
vt 1.49707 0.3608398
vt 1.491211 0.3662109
vt 1.491211 0.5249023
vt 1.336914 0.5180664
vt 1.485352 0.5175781
vt 1.480469 0.5131836
vt 1.341797 0.5131836
vt 1.326172 0.361084
vt 1.311523 0.3552246
vt 1.311523 0.5361328
vt 1.326172 0.5302734
vt 1.326172 0.5302734
vt 1.320313 0.5444336
vt 1.50293 0.5444336
vt 1.49707 0.5302734
vt 1.49707 0.5302734
vt 1.510742 0.5361328
vt 1.511719 0.3554688
vt 1.49707 0.3608398
vt 1.49707 0.3608398
vt 1.50293 0.3466797
vt 1.320313 0.3469238
vt 1.326172 0.361084
vt 1.341797 0.3781738
vt 1.344727 0.3806152
vt 1.478516 0.3806152
vt 1.481445 0.3781738
vt 1.341797 0.5131836
vt 1.34375 0.5107422
vt 1.344727 0.3806152
vt 1.341797 0.3781738
vt 1.480469 0.5131836
vt 1.478516 0.5107422
vt 1.34375 0.5107422
vt 1.341797 0.5131836
vt 1.481445 0.3781738
vt 1.478516 0.3806152
vt 1.478516 0.5107422
vt 1.480469 0.5131836
vt 1.478516 0.3806152
vt 1.478516 0.5107422
vt 1.34375 0.5107422
vt 1.344727 0.3806152
vt 1.336914 0.3735352
vt 1.341797 0.3781738
vt 1.341797 0.5131836
vt 1.336914 0.5180664
vt 1.341797 0.3781738
vt 1.336914 0.3735352
vt 1.486328 0.3735352
vt 1.481445 0.3781738
vt 1.481445 0.3781738
vt 1.486328 0.3735352
vt 1.485352 0.5175781
vt 1.480469 0.5131836
vt 1.331055 0.3664551
vt 1.326172 0.361084
vt 1.49707 0.3608398
vt 1.491211 0.3662109
vt 1.326172 0.361084
vt 1.331055 0.3664551
vt 1.331055 0.5249023
vt 1.326172 0.5302734
vt 1.326172 0.5302734
vt 1.331055 0.5249023
vt 1.491211 0.5249023
vt 1.49707 0.5302734
vt 1.49707 0.5302734
vt 1.491211 0.5249023
vt 1.491211 0.3662109
vt 1.49707 0.3608398
vt 1.336914 0.5180664
vt 1.341797 0.5131836
vt 1.480469 0.5131836
vt 1.485352 0.5175781
vt 1.326172 0.361084
vt 1.326172 0.5302734
vt 1.311523 0.5361328
vt 1.311523 0.3552246
vt 1.326172 0.5302734
vt 1.49707 0.5302734
vt 1.50293 0.5444336
vt 1.320313 0.5444336
vt 1.49707 0.5302734
vt 1.49707 0.3608398
vt 1.511719 0.3554688
vt 1.510742 0.5361328
vt 1.49707 0.3608398
vt 1.326172 0.361084
vt 1.320313 0.3469238
vt 1.50293 0.3466797
vt 1.341797 0.3781738
vt 1.481445 0.3781738
vt 1.478516 0.3806152
vt 1.344727 0.3806152
vt 1.341797 0.5131836
vt 1.341797 0.3781738
vt 1.344727 0.3806152
vt 1.34375 0.5107422
vt 1.480469 0.5131836
vt 1.341797 0.5131836
vt 1.34375 0.5107422
vt 1.478516 0.5107422
vt 1.481445 0.3781738
vt 1.480469 0.5131836
vt 1.478516 0.5107422
vt 1.478516 0.3806152
vt 1.336914 0.3735352
vt 1.331055 0.3664551
vt 1.331055 0.5249023
vt 1.336914 0.5180664
vt 1.486328 0.3735352
vt 1.491211 0.5249023
vt 1.491211 0.3662109
vt 1.485352 0.5175781
vt 1.336914 0.3735352
vt 1.336914 0.5180664
vt 1.331055 0.5249023
vt 1.331055 0.3664551
vt 1.491211 0.5249023
vt 1.486328 0.3735352
vt 1.485352 0.5175781
vt 1.491211 0.3662109
vn 0 1 1.549721E-06
vn 0 1 1.549721E-06
vn 0 1 1.549721E-06
vn 0 1 1.549721E-06
vn 0 0.7070313 0.7070313
vn 0 0.7070313 0.7070313
vn 0 0.7070313 0.7070313
vn 0 0.7070313 0.7070313
vn 0.7070313 0.7070313 8.940697E-07
vn 0.7070313 0.7070313 8.940697E-07
vn 0.7070313 0.7070313 8.940697E-07
vn 0.7070313 0.7070313 8.940697E-07
vn 0 0.7070313 -0.7070313
vn 0 0.7070313 -0.7070313
vn 0 0.7070313 -0.7070313
vn 0 0.7070313 -0.7070313
vn -0.6303711 0.7763672 5.662441E-06
vn -0.6303711 0.7763672 5.662441E-06
vn -0.6303711 0.7763672 5.662441E-06
vn -0.6303711 0.7763672 5.662441E-06
vn 0 0.7768555 -0.6298828
vn 0 0.7768555 -0.6298828
vn 0 0.7768555 -0.6298828
vn 0 0.7768555 -0.6298828
vn 0.6303711 0.7763672 5.90086E-06
vn 0.6303711 0.7763672 5.90086E-06
vn 0.6303711 0.7763672 5.90086E-06
vn 0.6303711 0.7763672 5.90086E-06
vn -1.311302E-06 0.7768555 0.6298828
vn -1.311302E-06 0.7768555 0.6298828
vn -1.311302E-06 0.7768555 0.6298828
vn -1.311302E-06 0.7768555 0.6298828
vn -0.7070313 0.7070313 0
vn -0.7070313 0.7070313 0
vn -0.7070313 0.7070313 0
vn -0.7070313 0.7070313 0
vn 0 0.3867188 -0.9223633
vn 0 0.3867188 -0.9223633
vn 0 0.3867188 -0.9223633
vn 0 0.3867188 -0.9223633
vn 0.9238281 0.3833008 1.66893E-06
vn 0.9238281 0.3833008 1.66893E-06
vn 0.9238281 0.3833008 1.66893E-06
vn 0.9238281 0.3833008 1.66893E-06
vn -1.370907E-06 0.3867188 0.9223633
vn -1.370907E-06 0.3867188 0.9223633
vn -1.370907E-06 0.3867188 0.9223633
vn -1.370907E-06 0.3867188 0.9223633
vn -0.9238281 0.3833008 1.966953E-06
vn -0.9238281 0.3833008 1.966953E-06
vn -0.9238281 0.3833008 1.966953E-06
vn -0.9238281 0.3833008 1.966953E-06
vn 1 2.682209E-06 0
vn 1 2.682209E-06 0
vn 1 2.682209E-06 0
vn 1 2.682209E-06 0
vn 0 -5.626678E-05 1
vn 0 -5.626678E-05 1
vn 0 -5.626678E-05 1
vn 0 -5.626678E-05 1
vn -1 2.920628E-06 -7.152557E-07
vn -1 2.920628E-06 -7.152557E-07
vn -1 2.920628E-06 -7.152557E-07
vn -1 2.920628E-06 -7.152557E-07
vn 0 5.626678E-05 -1
vn 0 5.626678E-05 -1
vn 0 5.626678E-05 -1
vn 0 5.626678E-05 -1
vn 0 1 2.384186E-06
vn 0 1 2.384186E-06
vn 0 1 2.384186E-06
vn 0 1 2.384186E-06
vn 0 0.7070313 0.7070313
vn 0 0.7070313 0.7070313
vn 0 0.7070313 0.7070313
vn 0 0.7070313 0.7070313
vn -0.7070313 0.7070313 9.536743E-07
vn -0.7070313 0.7070313 9.536743E-07
vn -0.7070313 0.7070313 9.536743E-07
vn -0.7070313 0.7070313 9.536743E-07
vn 0 0.7070313 -0.7070313
vn 0 0.7070313 -0.7070313
vn 0 0.7070313 -0.7070313
vn 0 0.7070313 -0.7070313
vn 0.6303711 0.7763672 5.185604E-06
vn 0.6303711 0.7763672 5.185604E-06
vn 0.6303711 0.7763672 5.185604E-06
vn 0.6303711 0.7763672 5.185604E-06
vn 0 0.7768555 -0.6298828
vn 0 0.7768555 -0.6298828
vn 0 0.7768555 -0.6298828
vn 0 0.7768555 -0.6298828
vn -0.6303711 0.7763672 5.90086E-06
vn -0.6303711 0.7763672 5.90086E-06
vn -0.6303711 0.7763672 5.90086E-06
vn -0.6303711 0.7763672 5.90086E-06
vn 1.311302E-06 0.7768555 0.6298828
vn 1.311302E-06 0.7768555 0.6298828
vn 1.311302E-06 0.7768555 0.6298828
vn 1.311302E-06 0.7768555 0.6298828
vn 0.7070313 0.7070313 0
vn 0.7070313 0.7070313 0
vn 0.7070313 0.7070313 0
vn 0.7070313 0.7070313 0
vn 0 0.3867188 -0.9223633
vn 0 0.3867188 -0.9223633
vn 0 0.3867188 -0.9223633
vn 0 0.3867188 -0.9223633
vn -0.9238281 0.3833008 1.966953E-06
vn -0.9238281 0.3833008 1.966953E-06
vn -0.9238281 0.3833008 1.966953E-06
vn -0.9238281 0.3833008 1.966953E-06
vn 1.370907E-06 0.3867188 0.9223633
vn 1.370907E-06 0.3867188 0.9223633
vn 1.370907E-06 0.3867188 0.9223633
vn 1.370907E-06 0.3867188 0.9223633
vn 0.9238281 0.3833008 1.907349E-06
vn 0.9238281 0.3833008 1.907349E-06
vn 0.9238281 0.3833008 1.907349E-06
vn 0.9238281 0.3833008 1.907349E-06
vn -1 0 1.490116E-06
vn -1 0 1.490116E-06
vn -1 0 1.490116E-06
vn -1 0 1.490116E-06
vn 0 -5.626678E-05 1
vn 0 -5.626678E-05 1
vn 0 -5.626678E-05 1
vn 0 -5.626678E-05 1
vn 1 0 0
vn 1 0 0
vn 1 0 0
vn 1 0 0
vn 0 5.626678E-05 -1
vn 0 5.626678E-05 -1
vn 0 5.626678E-05 -1
vn 0 5.626678E-05 -1
vn 0 1 4.249811E-05
vn 0 1 3.576279E-05
vn 0 1 3.498793E-05
vn 0 1 4.178286E-05
vn 0 1 3.498793E-05
vn 0 1 2.884865E-05
vn 0 1 2.968311E-05
vn 0 1 3.427267E-05
vn 0 1 3.880262E-05
vn 0 1 3.904104E-05
vn 0 1 3.278255E-05
vn 0 1 3.254414E-05
vn 0 1 4.255772E-05
vn 0 1 5.084276E-05
vn 0 1 5.102158E-05
vn 0 1 4.23193E-05
g Lock_Mechanism_base_0
f 3/3/3 2/2/2 1/1/1
f 4/4/4 3/3/3 1/1/1
f 7/7/7 6/6/6 5/5/5
f 8/8/8 7/7/7 5/5/5
f 11/11/11 10/10/10 9/9/9
f 12/12/12 11/11/11 9/9/9
f 15/15/15 14/14/14 13/13/13
f 16/16/16 15/15/15 13/13/13
f 19/19/19 18/18/18 17/17/17
f 20/20/20 19/19/19 17/17/17
f 23/23/23 22/22/22 21/21/21
f 24/24/24 23/23/23 21/21/21
f 27/27/27 26/26/26 25/25/25
f 28/28/28 27/27/27 25/25/25
f 31/31/31 30/30/30 29/29/29
f 32/32/32 31/31/31 29/29/29
f 35/35/35 34/34/34 33/33/33
f 36/36/36 35/35/35 33/33/33
f 39/39/39 38/38/38 37/37/37
f 40/40/40 39/39/39 37/37/37
f 43/43/43 42/42/42 41/41/41
f 44/44/44 43/43/43 41/41/41
f 47/47/47 46/46/46 45/45/45
f 48/48/48 47/47/47 45/45/45
f 51/51/51 50/50/50 49/49/49
f 52/52/52 51/51/51 49/49/49
f 55/55/55 54/54/54 53/53/53
f 56/56/56 55/55/55 53/53/53
f 59/59/59 58/58/58 57/57/57
f 60/60/60 59/59/59 57/57/57
f 63/63/63 62/62/62 61/61/61
f 64/64/64 63/63/63 61/61/61
f 67/67/67 66/66/66 65/65/65
f 68/68/68 67/67/67 65/65/65
f 71/71/71 70/70/70 69/69/69
f 72/72/72 71/71/71 69/69/69
f 75/75/75 74/74/74 73/73/73
f 76/76/76 75/75/75 73/73/73
f 79/79/79 78/78/78 77/77/77
f 80/80/80 79/79/79 77/77/77
f 83/83/83 82/82/82 81/81/81
f 84/84/84 83/83/83 81/81/81
f 87/87/87 86/86/86 85/85/85
f 88/88/88 87/87/87 85/85/85
f 91/91/91 90/90/90 89/89/89
f 92/92/92 91/91/91 89/89/89
f 95/95/95 94/94/94 93/93/93
f 96/96/96 95/95/95 93/93/93
f 99/99/99 98/98/98 97/97/97
f 100/100/100 99/99/99 97/97/97
f 103/103/103 102/102/102 101/101/101
f 104/104/104 103/103/103 101/101/101
f 107/107/107 106/106/106 105/105/105
f 108/108/108 107/107/107 105/105/105
f 111/111/111 110/110/110 109/109/109
f 112/112/112 111/111/111 109/109/109
f 115/115/115 114/114/114 113/113/113
f 116/116/116 115/115/115 113/113/113
f 119/119/119 118/118/118 117/117/117
f 120/120/120 119/119/119 117/117/117
f 123/123/123 122/122/122 121/121/121
f 124/124/124 123/123/123 121/121/121
f 127/127/127 126/126/126 125/125/125
f 128/128/128 127/127/127 125/125/125
f 131/131/131 130/130/130 129/129/129
f 132/132/132 131/131/131 129/129/129
f 135/135/135 134/134/134 133/133/133
f 136/136/136 135/135/135 133/133/133
f 139/139/139 138/138/138 137/137/137
f 140/140/140 139/139/139 137/137/137
f 137/137/137 138/138/138 141/141/141
f 142/142/142 139/139/139 140/140/140
f 138/138/138 143/143/143 141/141/141
f 144/144/144 142/142/142 140/140/140
f 141/141/141 143/143/143 144/144/144
f 143/143/143 142/142/142 144/144/144
f 147/147/147 146/146/146 145/145/145
f 148/148/148 147/147/147 145/145/145
f 147/147/147 149/149/149 146/146/146
f 148/148/148 145/145/145 150/150/150
f 149/149/149 151/151/151 146/146/146
f 152/152/152 148/148/148 150/150/150
f 152/152/152 150/150/150 151/151/151
f 149/149/149 152/152/152 151/151/151
