g LowPolySphere
v 0 -0.9238795 -0.3826834
v 0 -1 0
v 0.2705981 -0.9238795 -0.2705981
v 0 -0.7071068 -0.7071067
v 0.4999999 -0.7071068 -0.4999999
v 0 -0.3826834 -0.9238794
v 0.6532814 -0.3826834 -0.6532814
v 0 0 -0.9999999
v 0.7071067 0 -0.7071067
v 0 0.3826834 -0.9238794
v 0.6532814 0.3826834 -0.6532814
v 0 0.7071068 -0.7071067
v 0.4999999 0.7071068 -0.4999999
v 0 0.9238795 -0.3826834
v 0.2705981 0.9238795 -0.2705981
v 0 1 0
v -0.2705981 0.9238795 -0.2705981
v 0 1 0
v -0.4999999 0.7071068 -0.4999999
v -0.6532814 0.3826834 -0.6532814
v -0.7071067 0 -0.7071067
v -0.3826834 0.9238795 0
v 0 1 0
v -0.7071067 0.7071068 0
v -0.6532814 -0.3826834 -0.6532814
v -0.9238794 0.3826834 0
v -0.2705981 0.9238795 0.2705981
v 0 1 0
v -0.4999999 0.7071068 0.4999999
v -0.9999999 0 0
v -0.4999999 -0.7071068 -0.4999999
v 0 0.9238795 0.3826834
v 0 1 0
v -0.6532814 0.3826834 0.6532814
v -0.9238794 -0.3826834 0
v -0.2705981 -0.9238795 -0.2705981
v 0 -1 0
v 0 0.7071068 0.7071067
v -0.7071067 0 0.7071067
v -0.7071067 -0.7071068 0
v 0.2705981 0.9238795 0.2705981
v 0 1 0
v 0 0.3826834 0.9238794
v -0.6532814 -0.3826834 0.6532814
v -0.3826834 -0.9238795 0
v 0 -1 0
v 0.5 0.7071068 0.5
v 0 0 0.9999999
v -0.4999999 -0.7071068 0.4999999
v 0.3826835 0.9238795 0
v 0 1 0
v 0.6532815 0.3826834 0.6532815
v 0 -0.3826834 0.9238794
v -0.2705981 -0.9238795 0.2705981
v 0 -1 0
v 0.7071068 0.7071068 0
v 0.7071068 0 0.7071068
v 0 -0.7071068 0.7071067
v 0.2705981 0.9238795 -0.2705981
v 0 1 0
v 0.4999999 0.7071068 -0.4999999
v 0.9238795 0.3826834 0
v 0.6532814 0.3826834 -0.6532814
v 1 0 0
v 0.7071067 0 -0.7071067
v 0.6532815 -0.3826834 0.6532815
v 0.9238795 -0.3826834 0
v 0.6532814 -0.3826834 -0.6532814
v 0.5 -0.7071068 0.5
v 0.7071068 -0.7071068 0
v 0.4999999 -0.7071068 -0.4999999
v 0 -0.9238795 0.3826834
v 0 -1 0
v 0.2705981 -0.9238795 0.2705981
v 0 -1 0
v 0.3826835 -0.9238795 0
v 0 -1 0
v 0.2705981 -0.9238795 -0.2705981
v 0 -1 0
vt 0.125 0.125
vt 0.0625 0
vt 0 0.125
vt 0.125 0.25
vt 0 0.25
vt 0.125 0.375
vt 0 0.375
vt 0.125 0.5
vt 0 0.5
vt 0.125 0.625
vt 0 0.625
vt 0.125 0.75
vt 0 0.75
vt 0.125 0.875
vt 0 0.875
vt 0.0625 1
vt 0.25 0.875
vt 0.1875 1
vt 0.25 0.75
vt 0.25 0.625
vt 0.25 0.5
vt 0.375 0.875
vt 0.3125 1
vt 0.375 0.75
vt 0.25 0.375
vt 0.375 0.625
vt 0.5 0.875
vt 0.4375 1
vt 0.5 0.75
vt 0.375 0.5
vt 0.25 0.25
vt 0.625 0.875
vt 0.5625 1
vt 0.5 0.625
vt 0.375 0.375
vt 0.25 0.125
vt 0.1875 0
vt 0.625 0.75
vt 0.5 0.5
vt 0.375 0.25
vt 0.75 0.875
vt 0.6875 1
vt 0.625 0.625
vt 0.5 0.375
vt 0.375 0.125
vt 0.3125 0
vt 0.75 0.75
vt 0.625 0.5
vt 0.5 0.25
vt 0.875 0.875
vt 0.8125 1
vt 0.75 0.625
vt 0.625 0.375
vt 0.5 0.125
vt 0.4375 0
vt 0.875 0.75
vt 0.75 0.5
vt 0.625 0.25
vt 1 0.875
vt 0.9375 1
vt 1 0.75
vt 0.875 0.625
vt 1 0.625
vt 0.875 0.5
vt 1 0.5
vt 0.75 0.375
vt 0.875 0.375
vt 1 0.375
vt 0.75 0.25
vt 0.875 0.25
vt 1 0.25
vt 0.625 0.125
vt 0.5625 0
vt 0.75 0.125
vt 0.6875 0
vt 0.875 0.125
vt 0.8125 0
vt 1 0.125
vt 0.9375 0
vn 0 -0.9248047 -0.3806152
vn 0 -1 0
vn 0.269043 -0.9248047 -0.269043
vn 0 -0.7094727 -0.7050781
vn 0.4985352 -0.7094727 -0.4985352
vn 0 -0.3845215 -0.9233398
vn 0.652832 -0.3845215 -0.652832
vn 0 0 -1
vn 0.7070313 0 -0.7070313
vn 0 0.3845215 -0.9233398
vn 0.652832 0.3845215 -0.652832
vn 0 0.7094727 -0.7050781
vn 0.4985352 0.7094727 -0.4985352
vn 0 0.9248047 -0.3806152
vn 0.269043 0.9248047 -0.269043
vn 0 1 0
vn -0.269043 0.9248047 -0.269043
vn 0 1 0
vn -0.4985352 0.7094727 -0.4985352
vn -0.652832 0.3845215 -0.652832
vn -0.7070313 0 -0.7070313
vn -0.3806152 0.9248047 0
vn 0 1 0
vn -0.7050781 0.7094727 0
vn -0.652832 -0.3845215 -0.652832
vn -0.9233398 0.3845215 0
vn -0.269043 0.9248047 0.269043
vn 0 1 0
vn -0.4985352 0.7094727 0.4985352
vn -1 0 0
vn -0.4985352 -0.7094727 -0.4985352
vn 0 0.9248047 0.3806152
vn 0 1 0
vn -0.652832 0.3845215 0.652832
vn -0.9233398 -0.3845215 0
vn -0.269043 -0.9248047 -0.269043
vn 0 -1 0
vn 0 0.7094727 0.7050781
vn -0.7070313 0 0.7070313
vn -0.7050781 -0.7094727 0
vn 0.269043 0.9248047 0.269043
vn 0 1 0
vn 0 0.3845215 0.9233398
vn -0.652832 -0.3845215 0.652832
vn -0.3806152 -0.9248047 0
vn 0 -1 0
vn 0.4985352 0.7094727 0.4985352
vn 0 0 1
vn -0.4985352 -0.7094727 0.4985352
vn 0.3806152 0.9248047 0
vn 0 1 0
vn 0.652832 0.3845215 0.652832
vn 0 -0.3845215 0.9233398
vn -0.269043 -0.9248047 0.269043
vn 0 -1 0
vn 0.7050781 0.7094727 0
vn 0.7070313 0 0.7070313
vn 0 -0.7094727 0.7050781
vn 0.269043 0.9248047 -0.269043
vn 0 1 0
vn 0.4985352 0.7094727 -0.4985352
vn 0.9233398 0.3845215 0
vn 0.652832 0.3845215 -0.652832
vn 1 0 0
vn 0.7070313 0 -0.7070313
vn 0.652832 -0.3845215 0.652832
vn 0.9233398 -0.3845215 0
vn 0.652832 -0.3845215 -0.652832
vn 0.4985352 -0.7094727 0.4985352
vn 0.7050781 -0.7094727 0
vn 0.4985352 -0.7094727 -0.4985352
vn 0 -0.9248047 0.3806152
vn 0 -1 0
vn 0.269043 -0.9248047 0.269043
vn 0 -1 0
vn 0.3806152 -0.9248047 0
vn 0 -1 0
vn 0.269043 -0.9248047 -0.269043
vn 0 -1 0
g LowPolySphere_0
f 3/3/3 2/2/2 1/1/1
f 1/1/1 4/4/4 3/3/3
f 4/4/4 5/5/5 3/3/3
f 4/4/4 6/6/6 5/5/5
f 6/6/6 7/7/7 5/5/5
f 6/6/6 8/8/8 7/7/7
f 8/8/8 9/9/9 7/7/7
f 8/8/8 10/10/10 9/9/9
f 10/10/10 11/11/11 9/9/9
f 10/10/10 12/12/12 11/11/11
f 12/12/12 13/13/13 11/11/11
f 12/12/12 14/14/14 13/13/13
f 14/14/14 15/15/15 13/13/13
f 14/14/14 16/16/16 15/15/15
f 17/17/17 14/14/14 12/12/12
f 17/17/17 18/18/18 14/14/14
f 19/19/19 12/12/12 10/10/10
f 19/19/19 17/17/17 12/12/12
f 20/20/20 10/10/10 8/8/8
f 20/20/20 19/19/19 10/10/10
f 21/21/21 8/8/8 6/6/6
f 21/21/21 20/20/20 8/8/8
f 22/22/22 17/17/17 19/19/19
f 22/22/22 23/23/23 17/17/17
f 24/24/24 19/19/19 20/20/20
f 24/24/24 22/22/22 19/19/19
f 25/25/25 21/21/21 6/6/6
f 25/25/25 6/6/6 4/4/4
f 26/26/26 20/20/20 21/21/21
f 26/26/26 24/24/24 20/20/20
f 27/27/27 22/22/22 24/24/24
f 27/27/27 28/28/28 22/22/22
f 29/29/29 27/27/27 24/24/24
f 29/29/29 24/24/24 26/26/26
f 30/30/30 26/26/26 21/21/21
f 30/30/30 21/21/21 25/25/25
f 31/31/31 25/25/25 4/4/4
f 31/31/31 4/4/4 1/1/1
f 32/32/32 27/27/27 29/29/29
f 32/32/32 33/33/33 27/27/27
f 34/34/34 29/29/29 26/26/26
f 34/34/34 26/26/26 30/30/30
f 35/35/35 30/30/30 25/25/25
f 35/35/35 25/25/25 31/31/31
f 36/36/36 31/31/31 1/1/1
f 1/1/1 37/37/37 36/36/36
f 38/38/38 32/32/32 29/29/29
f 38/38/38 29/29/29 34/34/34
f 39/39/39 34/34/34 30/30/30
f 39/39/39 30/30/30 35/35/35
f 40/40/40 31/31/31 36/36/36
f 40/40/40 35/35/35 31/31/31
f 41/41/41 32/32/32 38/38/38
f 41/41/41 42/42/42 32/32/32
f 43/43/43 38/38/38 34/34/34
f 43/43/43 34/34/34 39/39/39
f 44/44/44 39/39/39 35/35/35
f 44/44/44 35/35/35 40/40/40
f 45/45/45 40/40/40 36/36/36
f 36/36/36 46/46/46 45/45/45
f 47/47/47 41/41/41 38/38/38
f 47/47/47 38/38/38 43/43/43
f 48/48/48 43/43/43 39/39/39
f 48/48/48 39/39/39 44/44/44
f 49/49/49 40/40/40 45/45/45
f 49/49/49 44/44/44 40/40/40
f 50/50/50 41/41/41 47/47/47
f 50/50/50 51/51/51 41/41/41
f 52/52/52 47/47/47 43/43/43
f 52/52/52 43/43/43 48/48/48
f 53/53/53 48/48/48 44/44/44
f 53/53/53 44/44/44 49/49/49
f 54/54/54 49/49/49 45/45/45
f 45/45/45 55/55/55 54/54/54
f 56/56/56 50/50/50 47/47/47
f 56/56/56 47/47/47 52/52/52
f 57/57/57 52/52/52 48/48/48
f 57/57/57 48/48/48 53/53/53
f 58/58/58 49/49/49 54/54/54
f 58/58/58 53/53/53 49/49/49
f 59/59/59 50/50/50 56/56/56
f 59/59/59 60/60/60 50/50/50
f 61/61/61 59/59/59 56/56/56
f 62/62/62 56/56/56 52/52/52
f 61/61/61 56/56/56 62/62/62
f 62/62/62 52/52/52 57/57/57
f 63/63/63 61/61/61 62/62/62
f 63/63/63 62/62/62 64/64/64
f 64/64/64 62/62/62 57/57/57
f 65/65/65 63/63/63 64/64/64
f 66/66/66 57/57/57 53/53/53
f 64/64/64 57/57/57 66/66/66
f 66/66/66 53/53/53 58/58/58
f 65/65/65 64/64/64 67/67/67
f 67/67/67 64/64/64 66/66/66
f 68/68/68 65/65/65 67/67/67
f 69/69/69 66/66/66 58/58/58
f 67/67/67 66/66/66 69/69/69
f 68/68/68 67/67/67 70/70/70
f 70/70/70 67/67/67 69/69/69
f 71/71/71 68/68/68 70/70/70
f 69/69/69 58/58/58 72/72/72
f 72/72/72 58/58/58 54/54/54
f 54/54/54 73/73/73 72/72/72
f 74/74/74 69/69/69 72/72/72
f 70/70/70 69/69/69 74/74/74
f 72/72/72 75/75/75 74/74/74
f 71/71/71 70/70/70 76/76/76
f 76/76/76 70/70/70 74/74/74
f 74/74/74 77/77/77 76/76/76
f 78/78/78 71/71/71 76/76/76
f 76/76/76 79/79/79 78/78/78
