g Magnetdisc
v 0.09720065 0.4886607 0.004577488
v 0.1898135 0.4582504 -0.001849264
v 0.190666 0.4603083 0.004577488
v 0.2768041 0.4142665 0.004577488
v 0.09676611 0.486476 -0.001849264
v 4.848974E-08 1.438452E-07 -0.004577458
v 0 0.4982341 0.004577488
v 0.2755666 0.4124145 -0.001849264
v 0.3523047 0.3523047 0.004577488
v -3.861826E-10 0.4960067 -0.001849264
v -0.09719991 0.4886608 0.004577488
v -0.09676536 0.4864762 -0.001849264
v -0.1906653 0.4603086 0.004577488
v -0.1898129 0.4582507 -0.001849264
v -0.2768035 0.4142669 0.004577488
v -0.275566 0.4124148 -0.001849264
v -0.3523043 0.3523052 0.004577488
v 0.3507297 0.3507297 -0.001849264
v -0.3507292 0.3507301 -0.001849264
v 0.4124145 0.2755665 -0.001849264
v 0.4142666 0.276804 0.004577488
v 0.4603083 0.1906659 0.004577488
v -0.4142662 0.2768046 0.004577488
v 0.4582505 0.1898135 -0.001849264
v 0.4886607 0.09720067 0.004577488
v -0.4124141 0.2755671 -0.001849264
v -0.4582502 0.1898141 -0.001849264
v -0.4603081 0.1906665 0.004577488
v -0.4886606 0.09720117 0.004577488
v 0.4864761 0.09676612 -0.001849264
v 0.4960067 3.744747E-08 -0.001849264
v 0.4982341 3.761563E-08 0.004577488
v -0.4864759 0.09676662 -0.001849264
v 0.4864761 -0.09676605 -0.001849264
v -0.4960067 4.789437E-07 -0.001849264
v -0.4982341 4.810944E-07 0.004577488
v 0.4886607 -0.09720059 0.004577488
v -0.4886608 -0.09720022 0.004577488
v 0.4582505 -0.1898134 -0.001849264
v 0.4603083 -0.1906659 0.004577488
v -0.4864761 -0.09676568 -0.001849264
v -0.4603085 -0.1906656 0.004577488
v 0.4124145 -0.2755665 -0.001849264
v 0.4142666 -0.276804 0.004577488
v -0.4582506 -0.1898132 -0.001849264
v -0.4142667 -0.2768038 0.004577488
v 0.3507297 -0.3507297 -0.001849264
v 0.3523047 -0.3523047 0.004577488
v 0.276804 -0.4142666 0.004577488
v -0.4124146 -0.2755663 -0.001849264
v 0.2755665 -0.4124145 -0.001849264
v -0.3507299 -0.3507295 -0.001849264
v -0.352305 -0.3523045 0.004577488
v 0.1906659 -0.4603083 0.004577488
v -0.2768043 -0.4142664 0.004577488
v 0.1898134 -0.4582505 -0.001849264
v 0.09720054 -0.4886607 0.004577488
v -0.2755668 -0.4124143 -0.001849264
v -0.1906662 -0.4603082 0.004577488
v 0.09676599 -0.4864761 -0.001849264
v -1.620057E-07 -0.4960067 -0.001849264
v -1.623453E-07 -0.4982341 0.004577488
v -0.09676631 -0.486476 -0.001849264
v -0.09720086 -0.4886607 0.004577488
v -0.1898138 -0.4582503 -0.001849264
vt 0.6815475 0.3990081
vt 0.6896227 0.3693011
vt 0.6875799 0.3686806
vt 0.6994131 0.3401127
vt 0.683672 0.3992181
vt 0.8385235 0.4144688
vt 0.6815475 0.4299297
vt 0.7012956 0.3411198
vt 0.7165923 0.3144024
vt 0.6836721 0.4297212
vt 0.6875799 0.4602569
vt 0.6896231 0.4596379
vt 0.6994131 0.4888248
vt 0.7012962 0.487819
vt 0.7165922 0.5145351
vt 0.7182429 0.5131814
vt 0.738457 0.5364
vt 0.718242 0.3157574
vt 0.739812 0.5347503
vt 0.7398108 0.2941883
vt 0.7384571 0.2925375
vt 0.7641675 0.2753583
vt 0.7641674 0.5535792
vt 0.7651731 0.2772415
vt 0.7927353 0.2635252
vt 0.7651744 0.5516967
vt 0.7933557 0.5633697
vt 0.7927352 0.5654124
vt 0.8230627 0.5714449
vt 0.7933543 0.2655683
vt 0.8232712 0.2596173
vt 0.8230627 0.2574926
vt 0.8232727 0.5693204
vt 0.8537743 0.2596172
vt 0.8537758 0.5693203
vt 0.8539844 0.571445
vt 0.8539844 0.2574926
vt 0.8843118 0.5654125
vt 0.8836913 0.2655679
vt 0.8843118 0.2635251
vt 0.8836928 0.5633693
vt 0.9128796 0.5535793
vt 0.9118726 0.2772408
vt 0.9128796 0.2753583
vt 0.9118739 0.5516961
vt 0.93859 0.5364001
vt 0.9372351 0.2941872
vt 0.93859 0.2925374
vt 0.9604549 0.3144023
vt 0.9372363 0.5347493
vt 0.9588041 0.3157561
vt 0.9588051 0.5131804
vt 0.9604549 0.5145353
vt 0.9776341 0.3401127
vt 0.9776341 0.4888249
vt 0.9757509 0.3411184
vt 0.9894673 0.3686805
vt 0.9757516 0.4878179
vt 0.9894673 0.4602571
vt 0.987424 0.3692995
vt 0.9933751 0.3992165
vt 0.9954998 0.3990079
vt 0.9933752 0.4297196
vt 0.9954998 0.4299296
vt 0.9874245 0.4596366
vn 0.1843329 0.9267046 -0.327475
vn 0.2315276 0.5589567 -0.7962174
vn 0.361583 0.8729371 -0.327473
vn 0.5249357 0.785622 -0.3274759
vn 0.1180315 0.5933846 -0.7962182
vn 0 0 -1
vn 0 0.9448582 -0.3274798
vn 0.3361252 0.5030465 -0.7962186
vn 0.6681151 0.6681155 -0.3274811
vn 0 0.6050074 -0.7962198
vn -0.1843318 0.9267049 -0.3274748
vn -0.1180309 0.5933849 -0.796218
vn -0.3615806 0.8729381 -0.3274728
vn -0.2315265 0.5589575 -0.7962173
vn -0.5249344 0.7856228 -0.3274763
vn -0.3361246 0.5030469 -0.7962187
vn -0.6681147 0.6681158 -0.3274814
vn 0.4278041 0.4278044 -0.7962204
vn -0.4278036 0.4278049 -0.7962205
vn 0.5030472 0.3361255 -0.796218
vn 0.7856224 0.5249363 -0.3274743
vn 0.8729376 0.3615831 -0.3274715
vn -0.7856194 0.5249351 -0.3274833
vn 0.5589572 0.2315275 -0.7962173
vn 0.9267057 0.1843333 -0.3274716
vn -0.5030433 0.3361241 -0.7962211
vn -0.5589564 0.231528 -0.7962177
vn -0.8729368 0.3615837 -0.327473
vn -0.9267018 0.1843333 -0.3274829
vn 0.5933858 0.1180318 -0.7962171
vn 0.605011 0 -0.7962171
vn 0.944861 0 -0.3274718
vn -0.5933809 0.1180315 -0.796221
vn 0.593384 -0.1180313 -0.7962186
vn -0.6050076 0 -0.7962198
vn -0.9448583 0 -0.3274795
vn 0.9267043 -0.1843326 -0.3274761
vn -0.9267018 -0.1843317 -0.3274836
vn 0.558957 -0.2315274 -0.7962174
vn 0.8729375 -0.3615828 -0.3274722
vn -0.5933808 -0.1180305 -0.796221
vn -0.8729367 -0.3615807 -0.3274767
vn 0.5030473 -0.3361255 -0.796218
vn 0.7856224 -0.5249361 -0.3274746
vn -0.5589556 -0.2315261 -0.7962188
vn -0.7856213 -0.5249345 -0.3274796
vn 0.4278042 -0.4278043 -0.7962205
vn 0.668115 -0.6681153 -0.3274818
vn 0.5249344 -0.7856197 -0.3274836
vn -0.5030453 -0.3361241 -0.7962198
vn 0.3361232 -0.5030438 -0.7962211
vn -0.4278053 -0.4278047 -0.7962197
vn -0.6681165 -0.6681149 -0.3274797
vn 0.3615824 -0.8729363 -0.3274757
vn -0.5249357 -0.7856219 -0.3274764
vn 0.2315268 -0.5589557 -0.7962185
vn 0.1843323 -0.9267038 -0.3274778
vn -0.3361252 -0.5030465 -0.7962186
vn -0.3615834 -0.8729374 -0.3274717
vn 0.118031 -0.5933831 -0.7962193
vn 0 -0.6050102 -0.7962177
vn 0 -0.9448602 -0.3274741
vn -0.118031 -0.5933801 -0.7962216
vn -0.1843327 -0.9267011 -0.3274851
vn -0.2315281 -0.5589573 -0.796217
g Magnetdisc_0
f 3/3/3 2/2/2 1/1/1
f 3/3/3 4/4/4 2/2/2
f 2/2/2 5/5/5 1/1/1
f 2/2/2 6/6/6 5/5/5
f 1/1/1 5/5/5 7/7/7
f 4/4/4 8/8/8 2/2/2
f 8/8/8 6/6/6 2/2/2
f 4/4/4 9/9/9 8/8/8
f 5/5/5 10/10/10 7/7/7
f 5/5/5 6/6/6 10/10/10
f 7/7/7 10/10/10 11/11/11
f 10/10/10 12/12/12 11/11/11
f 10/10/10 6/6/6 12/12/12
f 11/11/11 12/12/12 13/13/13
f 12/12/12 14/14/14 13/13/13
f 12/12/12 6/6/6 14/14/14
f 13/13/13 14/14/14 15/15/15
f 14/14/14 16/16/16 15/15/15
f 14/14/14 6/6/6 16/16/16
f 15/15/15 16/16/16 17/17/17
f 18/18/18 6/6/6 8/8/8
f 9/9/9 18/18/18 8/8/8
f 16/16/16 6/6/6 19/19/19
f 16/16/16 19/19/19 17/17/17
f 20/20/20 6/6/6 18/18/18
f 20/20/20 18/18/18 9/9/9
f 21/21/21 20/20/20 9/9/9
f 21/21/21 22/22/22 20/20/20
f 17/17/17 19/19/19 23/23/23
f 22/22/22 24/24/24 20/20/20
f 24/24/24 6/6/6 20/20/20
f 22/22/22 25/25/25 24/24/24
f 19/19/19 26/26/26 23/23/23
f 19/19/19 6/6/6 26/26/26
f 23/23/23 26/26/26 27/27/27
f 26/26/26 6/6/6 27/27/27
f 28/28/28 23/23/23 27/27/27
f 28/28/28 27/27/27 29/29/29
f 25/25/25 30/30/30 24/24/24
f 30/30/30 6/6/6 24/24/24
f 31/31/31 30/30/30 25/25/25
f 31/31/31 6/6/6 30/30/30
f 32/32/32 31/31/31 25/25/25
f 27/27/27 6/6/6 33/33/33
f 27/27/27 33/33/33 29/29/29
f 34/34/34 6/6/6 31/31/31
f 34/34/34 31/31/31 32/32/32
f 33/33/33 6/6/6 35/35/35
f 29/29/29 33/33/33 35/35/35
f 36/36/36 29/29/29 35/35/35
f 37/37/37 34/34/34 32/32/32
f 36/36/36 35/35/35 38/38/38
f 39/39/39 34/34/34 37/37/37
f 39/39/39 6/6/6 34/34/34
f 40/40/40 39/39/39 37/37/37
f 35/35/35 41/41/41 38/38/38
f 35/35/35 6/6/6 41/41/41
f 38/38/38 41/41/41 42/42/42
f 43/43/43 39/39/39 40/40/40
f 43/43/43 6/6/6 39/39/39
f 44/44/44 43/43/43 40/40/40
f 41/41/41 45/45/45 42/42/42
f 41/41/41 6/6/6 45/45/45
f 42/42/42 45/45/45 46/46/46
f 47/47/47 43/43/43 44/44/44
f 47/47/47 6/6/6 43/43/43
f 48/48/48 47/47/47 44/44/44
f 48/48/48 49/49/49 47/47/47
f 45/45/45 50/50/50 46/46/46
f 45/45/45 6/6/6 50/50/50
f 51/51/51 6/6/6 47/47/47
f 49/49/49 51/51/51 47/47/47
f 50/50/50 6/6/6 52/52/52
f 46/46/46 50/50/50 53/53/53
f 50/50/50 52/52/52 53/53/53
f 49/49/49 54/54/54 51/51/51
f 53/53/53 52/52/52 55/55/55
f 54/54/54 56/56/56 51/51/51
f 56/56/56 6/6/6 51/51/51
f 54/54/54 57/57/57 56/56/56
f 52/52/52 58/58/58 55/55/55
f 52/52/52 6/6/6 58/58/58
f 55/55/55 58/58/58 59/59/59
f 57/57/57 60/60/60 56/56/56
f 60/60/60 6/6/6 56/56/56
f 61/61/61 60/60/60 57/57/57
f 61/61/61 6/6/6 60/60/60
f 62/62/62 61/61/61 57/57/57
f 63/63/63 61/61/61 62/62/62
f 63/63/63 6/6/6 61/61/61
f 64/64/64 63/63/63 62/62/62
f 64/64/64 59/59/59 63/63/63
f 58/58/58 65/65/65 59/59/59
f 58/58/58 6/6/6 65/65/65
f 59/59/59 65/65/65 63/63/63
f 65/65/65 6/6/6 63/63/63
