g mail_V1_L0
v 0 -0.08124414 0.03
v -0.1522506 0.03954843 0.03
v 0.1522506 0.03954843 0.03
v 0.1522506 0.03954843 -0.03
v -0.1522506 0.03954843 -0.03
v 0 -0.08124414 -0.03
v -0.174 -0.1611293 0.02999999
v -0.174 0.02680578 0.03
v -0.05605257 -0.06677136 0.03
v -0.05605257 -0.06677136 -0.03
v -0.174 0.02680579 -0.03
v -0.174 -0.1611293 -0.03000001
v 0.05605257 -0.06677136 0.03
v 0.174 0.02680578 0.03
v 0.174 -0.1611293 0.02999999
v 0.174 -0.1611293 -0.03000001
v 0.174 0.02680579 -0.03
v 0.05605257 -0.06677136 -0.03
v 0.1694668 0.04554843 -0.024
v 0.1522506 0.03954843 -0.03
v 0 -0.08124414 -0.03
v 0 -0.08890314 -0.024
v 0 -0.08890314 -0.024
v 0 -0.08124414 -0.03
v -0.1522506 0.03954843 -0.03
v -0.1694668 0.04554843 -0.024
v -0.1694668 0.04554843 -0.024
v -0.1522506 0.03954843 -0.03
v 0.1522506 0.03954843 -0.03
v 0.1694668 0.04554843 -0.024
v 0.1694668 0.04554843 0.024
v 0.1694668 0.04554843 -0.024
v 0 -0.08890314 -0.024
v 0 -0.08890314 0.02399999
v 0 -0.08890314 0.02399999
v 0 -0.08890314 -0.024
v -0.1694668 0.04554843 -0.024
v -0.1694668 0.04554843 0.024
v -0.1694668 0.04554843 0.024
v -0.1694668 0.04554843 -0.024
v 0.1694668 0.04554843 -0.024
v 0.1694668 0.04554843 0.024
v 0.1522506 0.03954843 0.03
v 0.1694668 0.04554843 0.024
v 0 -0.08890314 0.02399999
v 0 -0.08124414 0.03
v 0 -0.08124414 0.03
v 0 -0.08890314 0.02399999
v -0.1694668 0.04554843 0.024
v -0.1522506 0.03954843 0.03
v -0.1522506 0.03954843 0.03
v -0.1694668 0.04554843 0.024
v 0.1694668 0.04554843 0.024
v 0.1522506 0.03954843 0.03
v -0.04642351 -0.06675186 -0.024
v -0.05605257 -0.06677136 -0.03
v -0.174 -0.1611293 -0.03000001
v -0.18 -0.173613 -0.02400001
v -0.18 -0.173613 -0.02400001
v -0.174 -0.1611293 -0.03000001
v -0.174 0.02680579 -0.03
v -0.18 0.03922506 -0.024
v -0.18 0.03922506 -0.024
v -0.174 0.02680579 -0.03
v -0.05605257 -0.06677136 -0.03
v -0.04642351 -0.06675186 -0.024
v -0.04642351 -0.06675186 0.02399999
v -0.04642351 -0.06675186 -0.024
v -0.18 -0.173613 -0.02400001
v -0.18 -0.173613 0.02399999
v -0.18 -0.173613 0.02399999
v -0.18 -0.173613 -0.02400001
v -0.18 0.03922506 -0.024
v -0.18 0.03922506 0.024
v -0.18 0.03922506 0.024
v -0.18 0.03922506 -0.024
v -0.04642351 -0.06675186 -0.024
v -0.04642351 -0.06675186 0.02399999
v -0.05605257 -0.06677136 0.03
v -0.04642351 -0.06675186 0.02399999
v -0.18 -0.173613 0.02399999
v -0.174 -0.1611293 0.02999999
v -0.174 -0.1611293 0.02999999
v -0.18 -0.173613 0.02399999
v -0.18 0.03922506 0.024
v -0.174 0.02680578 0.03
v -0.174 0.02680578 0.03
v -0.18 0.03922506 0.024
v -0.04642351 -0.06675186 0.02399999
v -0.05605257 -0.06677136 0.03
v 0.04642351 -0.06675186 -0.024
v 0.05605257 -0.06677136 -0.03
v 0.174 0.02680579 -0.03
v 0.18 0.03922506 -0.024
v 0.18 0.03922506 -0.024
v 0.174 0.02680579 -0.03
v 0.174 -0.1611293 -0.03000001
v 0.18 -0.173613 -0.02400001
v 0.18 -0.173613 -0.02400001
v 0.174 -0.1611293 -0.03000001
v 0.05605257 -0.06677136 -0.03
v 0.04642351 -0.06675186 -0.024
v 0.04642351 -0.06675186 0.02399999
v 0.04642351 -0.06675186 -0.024
v 0.18 0.03922506 -0.024
v 0.18 0.03922506 0.024
v 0.18 0.03922506 0.024
v 0.18 0.03922506 -0.024
v 0.18 -0.173613 -0.02400001
v 0.18 -0.173613 0.02399999
v 0.18 -0.173613 0.02399999
v 0.18 -0.173613 -0.02400001
v 0.04642351 -0.06675186 -0.024
v 0.04642351 -0.06675186 0.02399999
v 0.05605257 -0.06677136 0.03
v 0.04642351 -0.06675186 0.02399999
v 0.18 0.03922506 0.024
v 0.174 0.02680578 0.03
v 0.174 0.02680578 0.03
v 0.18 0.03922506 0.024
v 0.18 -0.173613 0.02399999
v 0.174 -0.1611293 0.02999999
v 0.174 -0.1611293 0.02999999
v 0.18 -0.173613 0.02399999
v 0.04642351 -0.06675186 0.02399999
v 0.05605257 -0.06677136 0.03
v -0.152467 -0.174 0.02999999
v -0.03716372 -0.08175738 0.03
v 0 -0.1112423 0.02999999
v 0.152467 -0.174 0.02999999
v 0.03716372 -0.08175738 0.03
v 0 -0.1112423 -0.03
v -0.03716372 -0.08175738 -0.03
v -0.152467 -0.174 -0.03000001
v 0.152467 -0.174 -0.03000001
v 0.03716372 -0.08175738 -0.03
v 0 -0.1035833 -0.024
v 0 -0.1112423 -0.03
v 0.03716372 -0.08175738 -0.03
v 0.03717925 -0.07408606 -0.024
v 0.03717925 -0.07408606 -0.024
v 0.03716372 -0.08175738 -0.03
v 0.152467 -0.174 -0.03000001
v 0.1695716 -0.18 -0.02400001
v 0.1695716 -0.18 -0.02400001
v 0.152467 -0.174 -0.03000001
v -0.152467 -0.174 -0.03000001
v -0.1695716 -0.18 -0.02400001
v -0.1695716 -0.18 -0.02400001
v -0.152467 -0.174 -0.03000001
v -0.03716372 -0.08175738 -0.03
v -0.03717925 -0.07408606 -0.024
v -0.03717925 -0.07408606 -0.024
v -0.03716372 -0.08175738 -0.03
v 0 -0.1112423 -0.03
v 0 -0.1035833 -0.024
v 0 -0.1035833 0.02399999
v 0 -0.1035833 -0.024
v 0.03717925 -0.07408606 -0.024
v 0.03717925 -0.07408606 0.02399999
v 0.03717925 -0.07408606 0.02399999
v 0.03717925 -0.07408606 -0.024
v 0.1695716 -0.18 -0.02400001
v 0.1695716 -0.18 0.02399999
v 0.1695716 -0.18 0.02399999
v 0.1695716 -0.18 -0.02400001
v -0.1695716 -0.18 -0.02400001
v -0.1695716 -0.18 0.02399999
v -0.1695716 -0.18 0.02399999
v -0.1695716 -0.18 -0.02400001
v -0.03717925 -0.07408606 -0.024
v -0.03717925 -0.07408606 0.02399999
v -0.03717925 -0.07408606 0.02399999
v -0.03717925 -0.07408606 -0.024
v 0 -0.1035833 -0.024
v 0 -0.1035833 0.02399999
v 0 -0.1112423 0.02999999
v 0 -0.1035833 0.02399999
v 0.03717925 -0.07408606 0.02399999
v 0.03716372 -0.08175738 0.03
v 0.03716372 -0.08175738 0.03
v 0.03717925 -0.07408606 0.02399999
v 0.1695716 -0.18 0.02399999
v 0.152467 -0.174 0.02999999
v 0.152467 -0.174 0.02999999
v 0.1695716 -0.18 0.02399999
v -0.1695716 -0.18 0.02399999
v -0.152467 -0.174 0.02999999
v -0.152467 -0.174 0.02999999
v -0.1695716 -0.18 0.02399999
v -0.03717925 -0.07408606 0.02399999
v -0.03716372 -0.08175738 0.03
v -0.03716372 -0.08175738 0.03
v -0.03717925 -0.07408606 0.02399999
v 0 -0.1035833 0.02399999
v 0 -0.1112423 0.02999999
vn 0 0 1
vn 0 0 1
vn 0 0 1
vn 0 0 -1
vn 0 0 -1
vn 0 0 -1
vn 0 0 1
vn 0 0 1
vn 0 0 1
vn 0 0 -1
vn 0 0 -1
vn 0 0 -1
vn 0 0 1
vn 0 0 1
vn 0 0 1
vn 0 0 -1
vn 0 0 -1
vn 0 0 -1
vn 0.4394864 -0.5539419 -0.7071068
vn 0.4394864 -0.5539419 -0.7071068
vn 0.4394864 -0.5539419 -0.7071068
vn 0.4394864 -0.5539419 -0.7071068
vn -0.4394864 -0.5539419 -0.7071068
vn -0.4394864 -0.5539419 -0.7071068
vn -0.4394864 -0.5539419 -0.7071068
vn -0.4394864 -0.5539419 -0.7071068
vn 0 0.7071068 -0.7071067
vn 0 0.7071068 -0.7071067
vn 0 0.7071068 -0.7071067
vn 0 0.7071068 -0.7071067
vn 0.6215277 -0.7833923 0
vn 0.6215277 -0.7833923 0
vn 0.6215277 -0.7833923 0
vn 0.6215277 -0.7833923 0
vn -0.6215277 -0.7833923 0
vn -0.6215277 -0.7833923 0
vn -0.6215277 -0.7833923 0
vn -0.6215277 -0.7833923 0
vn 0 1 0
vn 0 1 0
vn 0 1 0
vn 0 1 0
vn 0.4394864 -0.5539419 0.7071068
vn 0.4394864 -0.5539419 0.7071068
vn 0.4394864 -0.5539419 0.7071068
vn 0.4394864 -0.5539419 0.7071068
vn -0.4394864 -0.5539419 0.7071068
vn -0.4394864 -0.5539419 0.7071068
vn -0.4394864 -0.5539419 0.7071068
vn -0.4394864 -0.5539419 0.7071068
vn 0 0.7071069 0.7071065
vn 0 0.7071069 0.7071065
vn 0 0.7071069 0.7071065
vn 0 0.7071069 0.7071065
vn 0.4417259 -0.5521577 -0.7071068
vn 0.4417259 -0.5521577 -0.7071068
vn 0.4417259 -0.5521577 -0.7071068
vn 0.4417259 -0.5521577 -0.7071068
vn -0.7071069 0 -0.7071065
vn -0.7071069 0 -0.7071065
vn -0.7071069 0 -0.7071065
vn -0.7071069 0 -0.7071065
vn 0.4394867 0.5539421 -0.7071065
vn 0.4394867 0.5539421 -0.7071065
vn 0.4394867 0.5539421 -0.7071065
vn 0.4394867 0.5539421 -0.7071065
vn 0.6246948 -0.7808689 0
vn 0.6246948 -0.7808689 0
vn 0.6246948 -0.7808689 0
vn 0.6246948 -0.7808689 0
vn -1 0 0
vn -1 0 0
vn -1 0 0
vn -1 0 0
vn 0.6215277 0.7833923 0
vn 0.6215277 0.7833923 0
vn 0.6215277 0.7833923 0
vn 0.6215277 0.7833923 0
vn 0.4417259 -0.5521577 0.7071068
vn 0.4417259 -0.5521577 0.7071068
vn 0.4417259 -0.5521577 0.7071068
vn 0.4417259 -0.5521577 0.7071068
vn -0.7071069 0 0.7071065
vn -0.7071069 0 0.7071065
vn -0.7071069 0 0.7071065
vn -0.7071069 0 0.7071065
vn 0.4394867 0.5539421 0.7071064
vn 0.4394867 0.5539421 0.7071064
vn 0.4394867 0.5539421 0.7071064
vn 0.4394867 0.5539421 0.7071064
vn -0.4394865 0.5539418 -0.7071068
vn -0.4394865 0.5539418 -0.7071068
vn -0.4394865 0.5539418 -0.7071068
vn -0.4394865 0.5539418 -0.7071068
vn 0.707107 0 -0.7071065
vn 0.707107 0 -0.7071065
vn 0.707107 0 -0.7071065
vn 0.707107 0 -0.7071065
vn -0.4417259 -0.5521578 -0.7071068
vn -0.4417259 -0.5521578 -0.7071068
vn -0.4417259 -0.5521578 -0.7071068
vn -0.4417259 -0.5521578 -0.7071068
vn -0.6215277 0.7833923 0
vn -0.6215277 0.7833923 0
vn -0.6215277 0.7833923 0
vn -0.6215277 0.7833923 0
vn 1 0 0
vn 1 0 0
vn 1 0 0
vn 1 0 0
vn -0.6246948 -0.780869 0
vn -0.6246948 -0.780869 0
vn -0.6246948 -0.780869 0
vn -0.6246948 -0.780869 0
vn -0.4394867 0.5539421 0.7071064
vn -0.4394867 0.5539421 0.7071064
vn -0.4394867 0.5539421 0.7071064
vn -0.4394867 0.5539421 0.7071064
vn 0.707107 0 0.7071065
vn 0.707107 0 0.7071065
vn 0.707107 0 0.7071065
vn 0.707107 0 0.7071065
vn -0.4417259 -0.5521577 0.7071068
vn -0.4417259 -0.5521577 0.7071068
vn -0.4417259 -0.5521577 0.7071068
vn -0.4417259 -0.5521577 0.7071068
vn 0 0 1
vn 0 0 1
vn 0 0 1
vn 0 0 1
vn 0 0 1
vn 0 0 -1
vn 0 0 -1
vn 0 0 -1
vn 0 0 -1
vn 0 0 -1
vn -0.4394865 0.5539418 -0.7071068
vn -0.4394865 0.5539418 -0.7071068
vn -0.4394865 0.5539418 -0.7071068
vn -0.4394865 0.5539418 -0.7071068
vn 0.4417261 0.5521574 -0.7071069
vn 0.4417261 0.5521574 -0.7071069
vn 0.4417261 0.5521574 -0.7071069
vn 0.4417261 0.5521574 -0.7071069
vn 0 -0.7071069 -0.7071065
vn 0 -0.7071069 -0.7071065
vn 0 -0.7071069 -0.7071065
vn 0 -0.7071069 -0.7071065
vn -0.4417261 0.5521574 -0.7071069
vn -0.4417261 0.5521574 -0.7071069
vn -0.4417261 0.5521574 -0.7071069
vn -0.4417261 0.5521574 -0.7071069
vn 0.4394865 0.5539418 -0.7071068
vn 0.4394865 0.5539418 -0.7071068
vn 0.4394865 0.5539418 -0.7071068
vn 0.4394865 0.5539418 -0.7071068
vn -0.6215279 0.783392 0
vn -0.6215279 0.783392 0
vn -0.6215279 0.783392 0
vn -0.6215279 0.783392 0
vn 0.6246951 0.7808687 0
vn 0.6246951 0.7808687 0
vn 0.6246951 0.7808687 0
vn 0.6246951 0.7808687 0
vn 0 -1 0
vn 0 -1 0
vn 0 -1 0
vn 0 -1 0
vn -0.6246951 0.7808687 0
vn -0.6246951 0.7808687 0
vn -0.6246951 0.7808687 0
vn -0.6246951 0.7808687 0
vn 0.6215279 0.783392 0
vn 0.6215279 0.783392 0
vn 0.6215279 0.783392 0
vn 0.6215279 0.783392 0
vn -0.4394864 0.5539417 0.7071069
vn -0.4394864 0.5539417 0.7071069
vn -0.4394864 0.5539417 0.7071069
vn -0.4394864 0.5539417 0.7071069
vn 0.4417261 0.5521574 0.7071069
vn 0.4417261 0.5521574 0.7071069
vn 0.4417261 0.5521574 0.7071069
vn 0.4417261 0.5521574 0.7071069
vn 0 -0.7071069 0.7071065
vn 0 -0.7071069 0.7071065
vn 0 -0.7071069 0.7071065
vn 0 -0.7071069 0.7071065
vn -0.4417261 0.5521572 0.7071071
vn -0.4417261 0.5521572 0.7071071
vn -0.4417261 0.5521572 0.7071071
vn -0.4417261 0.5521572 0.7071071
vn 0.4394864 0.5539417 0.7071069
vn 0.4394864 0.5539417 0.7071069
vn 0.4394864 0.5539417 0.7071069
vn 0.4394864 0.5539417 0.7071069
g mail_V1_L0_0
f 3/3/3 2/2/2 1/1/1
f 6/6/6 5/5/5 4/4/4
f 9/9/9 8/8/8 7/7/7
f 12/12/12 11/11/11 10/10/10
f 15/15/15 14/14/14 13/13/13
f 18/18/18 17/17/17 16/16/16
f 21/21/21 20/20/20 19/19/19
f 22/22/22 21/21/21 19/19/19
f 25/25/25 24/24/24 23/23/23
f 26/26/26 25/25/25 23/23/23
f 29/29/29 28/28/28 27/27/27
f 30/30/30 29/29/29 27/27/27
f 33/33/33 32/32/32 31/31/31
f 34/34/34 33/33/33 31/31/31
f 37/37/37 36/36/36 35/35/35
f 38/38/38 37/37/37 35/35/35
f 41/41/41 40/40/40 39/39/39
f 42/42/42 41/41/41 39/39/39
f 45/45/45 44/44/44 43/43/43
f 46/46/46 45/45/45 43/43/43
f 49/49/49 48/48/48 47/47/47
f 50/50/50 49/49/49 47/47/47
f 53/53/53 52/52/52 51/51/51
f 54/54/54 53/53/53 51/51/51
f 57/57/57 56/56/56 55/55/55
f 58/58/58 57/57/57 55/55/55
f 61/61/61 60/60/60 59/59/59
f 62/62/62 61/61/61 59/59/59
f 65/65/65 64/64/64 63/63/63
f 66/66/66 65/65/65 63/63/63
f 69/69/69 68/68/68 67/67/67
f 70/70/70 69/69/69 67/67/67
f 73/73/73 72/72/72 71/71/71
f 74/74/74 73/73/73 71/71/71
f 77/77/77 76/76/76 75/75/75
f 78/78/78 77/77/77 75/75/75
f 81/81/81 80/80/80 79/79/79
f 82/82/82 81/81/81 79/79/79
f 85/85/85 84/84/84 83/83/83
f 86/86/86 85/85/85 83/83/83
f 89/89/89 88/88/88 87/87/87
f 90/90/90 89/89/89 87/87/87
f 93/93/93 92/92/92 91/91/91
f 94/94/94 93/93/93 91/91/91
f 97/97/97 96/96/96 95/95/95
f 98/98/98 97/97/97 95/95/95
f 101/101/101 100/100/100 99/99/99
f 102/102/102 101/101/101 99/99/99
f 105/105/105 104/104/104 103/103/103
f 106/106/106 105/105/105 103/103/103
f 109/109/109 108/108/108 107/107/107
f 110/110/110 109/109/109 107/107/107
f 113/113/113 112/112/112 111/111/111
f 114/114/114 113/113/113 111/111/111
f 117/117/117 116/116/116 115/115/115
f 118/118/118 117/117/117 115/115/115
f 121/121/121 120/120/120 119/119/119
f 122/122/122 121/121/121 119/119/119
f 125/125/125 124/124/124 123/123/123
f 126/126/126 125/125/125 123/123/123
f 129/129/129 128/128/128 127/127/127
f 130/130/130 129/129/129 127/127/127
f 130/130/130 131/131/131 129/129/129
f 134/134/134 133/133/133 132/132/132
f 134/134/134 132/132/132 135/135/135
f 132/132/132 136/136/136 135/135/135
f 139/139/139 138/138/138 137/137/137
f 140/140/140 139/139/139 137/137/137
f 143/143/143 142/142/142 141/141/141
f 144/144/144 143/143/143 141/141/141
f 147/147/147 146/146/146 145/145/145
f 148/148/148 147/147/147 145/145/145
f 151/151/151 150/150/150 149/149/149
f 152/152/152 151/151/151 149/149/149
f 155/155/155 154/154/154 153/153/153
f 156/156/156 155/155/155 153/153/153
f 159/159/159 158/158/158 157/157/157
f 160/160/160 159/159/159 157/157/157
f 163/163/163 162/162/162 161/161/161
f 164/164/164 163/163/163 161/161/161
f 167/167/167 166/166/166 165/165/165
f 168/168/168 167/167/167 165/165/165
f 171/171/171 170/170/170 169/169/169
f 172/172/172 171/171/171 169/169/169
f 175/175/175 174/174/174 173/173/173
f 176/176/176 175/175/175 173/173/173
f 179/179/179 178/178/178 177/177/177
f 180/180/180 179/179/179 177/177/177
f 183/183/183 182/182/182 181/181/181
f 184/184/184 183/183/183 181/181/181
f 187/187/187 186/186/186 185/185/185
f 188/188/188 187/187/187 185/185/185
f 191/191/191 190/190/190 189/189/189
f 192/192/192 191/191/191 189/189/189
f 195/195/195 194/194/194 193/193/193
f 196/196/196 195/195/195 193/193/193
