g main
v 2.06485 -2.03883 1.715645
v 0.008209051 -1.953395 1.484575
v 1.93913 -1.91919 1.651605
v 0.0057876 -2.0753 1.53753
v 2.05323 0.78544 1.271665
v 1.93913 -1.91919 1.651605
v 1.92803 0.777995 1.2276
v 2.06485 -2.03883 1.715645
v 0.0118539 -1.959795 1.44375
v 1.93913 -1.91919 1.651605
v 0.008209051 -1.953395 1.484575
v 1.942775 -1.925595 1.61078
v 0.000754565 0.73739 1.01975
v 1.942775 -1.925595 1.61078
v 0.0118539 -1.959795 1.44375
v 1.931675 0.771595 1.18678
v 2.064895 0.76494 1.14096
v 0.01745695 -2.0958 1.406825
v 2.07652 -2.05933 1.58494
v 0.00583465 0.728465 0.96285
v 1.942775 -1.925595 1.61078
v 1.92803 0.777995 1.2276
v 1.93913 -1.91919 1.651605
v 1.931675 0.771595 1.18678
v 2.05323 0.78544 1.271665
v 2.07652 -2.05933 1.58494
v 2.06485 -2.03883 1.715645
v 2.064895 0.76494 1.14096
v 2.07652 -2.05933 1.58494
v 0.0057876 -2.0753 1.53753
v 2.06485 -2.03883 1.715645
v 0.01745695 -2.0958 1.406825
v 0.008209051 -1.953395 1.484575
v -2.053275 -2.111775 1.359415
v -1.92271 -1.9876 1.317545
v 0.0057876 -2.0753 1.53753
v -1.92271 -1.9876 1.317545
v -2.064895 0.71249 0.915435
v -1.93381 0.70959 0.89354
v -2.053275 -2.111775 1.359415
v -1.92271 -1.9876 1.317545
v 0.0118539 -1.959795 1.44375
v 0.008209051 -1.953395 1.484575
v -1.919065 -1.994 1.27672
v -1.919065 -1.994 1.27672
v 0.000754565 0.73739 1.01975
v 0.0118539 -1.959795 1.44375
v -1.930165 0.70319 0.85272
v 0.01745695 -2.0958 1.406825
v -2.05323 0.691995 0.784735
v -2.041605 -2.132275 1.22871
v 0.00583465 0.728465 0.96285
v -1.93381 0.70959 0.89354
v -1.919065 -1.994 1.27672
v -1.92271 -1.9876 1.317545
v -1.930165 0.70319 0.85272
v -2.041605 -2.132275 1.22871
v -2.064895 0.71249 0.915435
v -2.053275 -2.111775 1.359415
v -2.05323 0.691995 0.784735
v 0.0057876 -2.0753 1.53753
v -2.041605 -2.132275 1.22871
v -2.053275 -2.111775 1.359415
v 0.01745695 -2.0958 1.406825
v -0.0139896 3.44098 0.63657
v 2.041605 3.609705 0.827685
v 1.91693 3.475185 0.8036
v -0.01745695 3.573235 0.64957
v 1.91693 3.475185 0.8036
v 2.05323 0.78544 1.271665
v 1.92803 0.777995 1.2276
v 2.041605 3.609705 0.827685
v 1.91693 3.475185 0.8036
v -0.01034475 3.43458 0.595745
v -0.0139896 3.44098 0.63657
v 1.920575 3.46878 0.762775
v 1.920575 3.46878 0.762775
v 0.000754565 0.73739 1.01975
v -0.01034475 3.43458 0.595745
v 1.931675 0.771595 1.18678
v -0.0057876 3.552735 0.51887
v 2.064895 0.76494 1.14096
v 2.053275 3.589205 0.696985
v 0.00583465 0.728465 0.96285
v 1.92803 0.777995 1.2276
v 1.920575 3.46878 0.762775
v 1.91693 3.475185 0.8036
v 1.931675 0.771595 1.18678
v 2.053275 3.589205 0.696985
v 2.05323 0.78544 1.271665
v 2.041605 3.609705 0.827685
v 2.064895 0.76494 1.14096
v -0.01745695 3.573235 0.64957
v 2.053275 3.589205 0.696985
v 2.041605 3.609705 0.827685
v -0.0057876 3.552735 0.51887
v -2.07652 3.53676 0.4714575
v -0.0139896 3.44098 0.63657
v -1.94491 3.40678 0.46954
v -0.01745695 3.573235 0.64957
v -2.064895 0.71249 0.915435
v -1.94491 3.40678 0.46954
v -1.93381 0.70959 0.89354
v -2.07652 3.53676 0.4714575
v -0.01034475 3.43458 0.595745
v -1.94491 3.40678 0.46954
v -0.0139896 3.44098 0.63657
v -1.941265 3.400375 0.4287155
v 0.000754565 0.73739 1.01975
v -1.941265 3.400375 0.4287155
v -0.01034475 3.43458 0.595745
v -1.930165 0.70319 0.85272
v -2.05323 0.691995 0.784735
v -0.0057876 3.552735 0.51887
v -2.06485 3.51626 0.3407535
v 0.00583465 0.728465 0.96285
v -1.941265 3.400375 0.4287155
v -1.93381 0.70959 0.89354
v -1.94491 3.40678 0.46954
v -1.930165 0.70319 0.85272
v -2.064895 0.71249 0.915435
v -2.06485 3.51626 0.3407535
v -2.07652 3.53676 0.4714575
v -2.05323 0.691995 0.784735
v -2.06485 3.51626 0.3407535
v -0.01745695 3.573235 0.64957
v -2.07652 3.53676 0.4714575
v -0.0057876 3.552735 0.51887
vt 0.1931152 0.4470215
vt 0.2160645 0.7651367
vt 0.2160645 0.467041
vt 0.1931152 0.7646484
vt 0.9370117 0.4375
vt 0.9599609 0.8569336
vt 0.9599609 0.4372559
vt 0.9370117 0.8769531
vt 0.7080078 0.7265625
vt 0.7006836 0.4274902
vt 0.7006836 0.7265625
vt 0.7080078 0.4274902
vt 0.3676758 0.4216309
vt 0.7060547 0.004291534
vt 0.3676758 0.002109528
vt 0.7060547 0.4238281
vt 0.001811981 0.4431152
vt 0.3640137 0.002204895
vt 0.001811981 0.002204895
vt 0.3640137 0.4431152
vt 0.6987305 0.8491211
vt 0.6914063 0.4282227
vt 0.6914063 0.8491211
vt 0.6987305 0.4282227
vt 0.6445313 0.8691406
vt 0.6674805 0.4282227
vt 0.6445313 0.4282227
vt 0.6674805 0.8691406
vt 0.1696777 0.4470215
vt 0.1928711 0.765625
vt 0.1928711 0.4470215
vt 0.1696777 0.765625
vt 0.2160645 0.7651367
vt 0.1931152 0.4470215
vt 0.2160645 0.467041
vt 0.1931152 0.7646484
vt 0.9599609 0.8569336
vt 0.9370117 0.4375
vt 0.9599609 0.4372559
vt 0.9370117 0.8769531
vt 0.7006836 0.4274902
vt 0.7080078 0.7265625
vt 0.7006836 0.7265625
vt 0.7080078 0.4274902
vt 0.7060547 0.004291534
vt 0.3676758 0.4216309
vt 0.3676758 0.002109528
vt 0.7060547 0.4238281
vt 0.3640137 0.002204895
vt 0.001811981 0.4431152
vt 0.001811981 0.002204895
vt 0.3640137 0.4431152
vt 0.6914063 0.4282227
vt 0.6987305 0.8491211
vt 0.6914063 0.8491211
vt 0.6987305 0.4282227
vt 0.6674805 0.4282227
vt 0.6445313 0.8691406
vt 0.6445313 0.4282227
vt 0.6674805 0.8691406
vt 0.1928711 0.765625
vt 0.1696777 0.4470215
vt 0.1928711 0.4470215
vt 0.1696777 0.765625
vt 0.2160645 0.7651367
vt 0.1931152 0.4470215
vt 0.2160645 0.467041
vt 0.1931152 0.7646484
vt 0.9599609 0.8569336
vt 0.9370117 0.4375
vt 0.9599609 0.4372559
vt 0.9370117 0.8769531
vt 0.7006836 0.4274902
vt 0.7080078 0.7265625
vt 0.7006836 0.7265625
vt 0.7080078 0.4274902
vt 0.7060547 0.004291534
vt 0.3676758 0.4216309
vt 0.3676758 0.002109528
vt 0.7060547 0.4238281
vt 0.3640137 0.002204895
vt 0.001811981 0.4431152
vt 0.001811981 0.002204895
vt 0.3640137 0.4431152
vt 0.6914063 0.4282227
vt 0.6987305 0.8491211
vt 0.6914063 0.8491211
vt 0.6987305 0.4282227
vt 0.6674805 0.4282227
vt 0.6445313 0.8691406
vt 0.6445313 0.4282227
vt 0.6674805 0.8691406
vt 0.1928711 0.765625
vt 0.1696777 0.4470215
vt 0.1928711 0.4470215
vt 0.1696777 0.765625
vt 0.1931152 0.4470215
vt 0.2160645 0.7651367
vt 0.2160645 0.467041
vt 0.1931152 0.7646484
vt 0.9370117 0.4375
vt 0.9599609 0.8569336
vt 0.9599609 0.4372559
vt 0.9370117 0.8769531
vt 0.7080078 0.7265625
vt 0.7006836 0.4274902
vt 0.7006836 0.7265625
vt 0.7080078 0.4274902
vt 0.3676758 0.4216309
vt 0.7060547 0.004291534
vt 0.3676758 0.002109528
vt 0.7060547 0.4238281
vt 0.001811981 0.4431152
vt 0.3640137 0.002204895
vt 0.001811981 0.002204895
vt 0.3640137 0.4431152
vt 0.6987305 0.8491211
vt 0.6914063 0.4282227
vt 0.6914063 0.8491211
vt 0.6987305 0.4282227
vt 0.6445313 0.8691406
vt 0.6674805 0.4282227
vt 0.6445313 0.4282227
vt 0.6674805 0.8691406
vt 0.1696777 0.4470215
vt 0.1928711 0.765625
vt 0.1928711 0.4470215
vt 0.1696777 0.765625
vn 0.4968262 -0.4387207 0.7490234
vn -0.0569458 0.8759766 0.4790039
vn -0.4685059 0.5117188 0.7202148
vn -0.0670166 -0.4819336 0.8735352
vn 0.5395508 0.1329346 0.831543
vn -0.4685059 0.5117188 0.7202148
vn -0.8417969 0.08044434 0.5336914
vn 0.4968262 -0.4387207 0.7490234
vn -0.06500244 0.8076172 0.5859375
vn -0.4685059 0.5117188 0.7202148
vn -0.0569458 0.8759766 0.4790039
vn -0.628418 0.6494141 0.4287109
vn -0.08789063 0.1542969 0.9838867
vn -0.628418 0.6494141 0.4287109
vn -0.06500244 0.8076172 0.5859375
vn -0.7666016 0.09667969 0.6347656
vn 0.7666016 -0.09667969 -0.6347656
vn 0.06500244 -0.8076172 -0.5859375
vn 0.628418 -0.6494141 -0.4287109
vn 0.08789063 -0.1542969 -0.9838867
vn -0.628418 0.6494141 0.4287109
vn -0.8417969 0.08044434 0.5336914
vn -0.4685059 0.5117188 0.7202148
vn -0.7666016 0.09667969 0.6347656
vn 0.5395508 0.1329346 0.831543
vn 0.628418 -0.6494141 -0.4287109
vn 0.4968262 -0.4387207 0.7490234
vn 0.7666016 -0.09667969 -0.6347656
vn 0.628418 -0.6494141 -0.4287109
vn -0.0670166 -0.4819336 0.8735352
vn 0.4968262 -0.4387207 0.7490234
vn 0.06500244 -0.8076172 -0.5859375
vn -0.0569458 0.8759766 0.4790039
vn -0.6020508 -0.458252 0.6538086
vn 0.3195801 0.5253906 0.7885742
vn -0.0670166 -0.4819336 0.8735352
vn 0.3195801 0.5253906 0.7885742
vn -0.6787109 0.1113281 0.7260742
vn 0.734375 0.1083374 0.6699219
vn -0.6020508 -0.458252 0.6538086
vn 0.3195801 0.5253906 0.7885742
vn -0.06500244 0.8076172 0.5859375
vn -0.0569458 0.8759766 0.4790039
vn 0.5219727 0.6694336 0.5283203
vn 0.5219727 0.6694336 0.5283203
vn -0.08789063 0.1542969 0.9838867
vn -0.06500244 0.8076172 0.5859375
vn 0.6420898 0.121582 0.7568359
vn 0.06500244 -0.8076172 -0.5859375
vn -0.6420898 -0.121582 -0.7568359
vn -0.5219727 -0.6694336 -0.5283203
vn 0.08789063 -0.1542969 -0.9838867
vn 0.734375 0.1083374 0.6699219
vn 0.5219727 0.6694336 0.5283203
vn 0.3195801 0.5253906 0.7885742
vn 0.6420898 0.121582 0.7568359
vn -0.5219727 -0.6694336 -0.5283203
vn -0.6787109 0.1113281 0.7260742
vn -0.6020508 -0.458252 0.6538086
vn -0.6420898 -0.121582 -0.7568359
vn -0.0670166 -0.4819336 0.8735352
vn -0.5219727 -0.6694336 -0.5283203
vn -0.6020508 -0.458252 0.6538086
vn 0.06500244 -0.8076172 -0.5859375
vn -0.05050659 -0.6870117 0.7246094
vn 0.4924316 0.6513672 0.5776367
vn -0.4650879 -0.2697754 0.8432617
vn -0.07202148 0.7260742 0.6835938
vn -0.4650879 -0.2697754 0.8432617
vn 0.5395508 0.1329346 0.831543
vn -0.8417969 0.08044434 0.5336914
vn 0.4924316 0.6513672 0.5776367
vn -0.4650879 -0.2697754 0.8432617
vn -0.05926514 -0.5893555 0.8056641
vn -0.05050659 -0.6870117 0.7246094
vn -0.6235352 -0.4914551 0.6079102
vn -0.6235352 -0.4914551 0.6079102
vn -0.08789063 0.1542969 0.9838867
vn -0.05926514 -0.5893555 0.8056641
vn -0.7666016 0.09667969 0.6347656
vn 0.05926514 0.5893555 -0.8056641
vn 0.7666016 -0.09667969 -0.6347656
vn 0.6235352 0.4914551 -0.6079102
vn 0.08789063 -0.1542969 -0.9838867
vn -0.8417969 0.08044434 0.5336914
vn -0.6235352 -0.4914551 0.6079102
vn -0.4650879 -0.2697754 0.8432617
vn -0.7666016 0.09667969 0.6347656
vn 0.6235352 0.4914551 -0.6079102
vn 0.5395508 0.1329346 0.831543
vn 0.4924316 0.6513672 0.5776367
vn 0.7666016 -0.09667969 -0.6347656
vn -0.07202148 0.7260742 0.6835938
vn 0.6235352 0.4914551 -0.6079102
vn 0.4924316 0.6513672 0.5776367
vn 0.05926514 0.5893555 -0.8056641
vn -0.6069336 0.6318359 0.4824219
vn -0.05050659 -0.6870117 0.7246094
vn 0.3227539 -0.2558594 0.9111328
vn -0.07202148 0.7260742 0.6835938
vn -0.6787109 0.1113281 0.7260742
vn 0.3227539 -0.2558594 0.9111328
vn 0.734375 0.1083374 0.6699219
vn -0.6069336 0.6318359 0.4824219
vn -0.05926514 -0.5893555 0.8056641
vn 0.3227539 -0.2558594 0.9111328
vn -0.05050659 -0.6870117 0.7246094
vn 0.5268555 -0.4709473 0.7075195
vn -0.08789063 0.1542969 0.9838867
vn 0.5268555 -0.4709473 0.7075195
vn -0.05926514 -0.5893555 0.8056641
vn 0.6420898 0.121582 0.7568359
vn -0.6420898 -0.121582 -0.7568359
vn 0.05926514 0.5893555 -0.8056641
vn -0.5268555 0.4709473 -0.7075195
vn 0.08789063 -0.1542969 -0.9838867
vn 0.5268555 -0.4709473 0.7075195
vn 0.734375 0.1083374 0.6699219
vn 0.3227539 -0.2558594 0.9111328
vn 0.6420898 0.121582 0.7568359
vn -0.6787109 0.1113281 0.7260742
vn -0.5268555 0.4709473 -0.7075195
vn -0.6069336 0.6318359 0.4824219
vn -0.6420898 -0.121582 -0.7568359
vn -0.5268555 0.4709473 -0.7075195
vn -0.07202148 0.7260742 0.6835938
vn -0.6069336 0.6318359 0.4824219
vn 0.05926514 0.5893555 -0.8056641
g main_0
f 3/3/3 2/2/2 1/1/1
f 4/4/4 1/1/1 2/2/2
f 7/7/7 6/6/6 5/5/5
f 8/8/8 5/5/5 6/6/6
f 11/11/11 10/10/10 9/9/9
f 12/12/12 9/9/9 10/10/10
f 15/15/15 14/14/14 13/13/13
f 16/16/16 13/13/13 14/14/14
f 19/19/19 18/18/18 17/17/17
f 20/20/20 17/17/17 18/18/18
f 23/23/23 22/22/22 21/21/21
f 24/24/24 21/21/21 22/22/22
f 27/27/27 26/26/26 25/25/25
f 28/28/28 25/25/25 26/26/26
f 31/31/31 30/30/30 29/29/29
f 32/32/32 29/29/29 30/30/30
f 35/35/35 34/34/34 33/33/33
f 36/36/36 33/33/33 34/34/34
f 39/39/39 38/38/38 37/37/37
f 40/40/40 37/37/37 38/38/38
f 43/43/43 42/42/42 41/41/41
f 44/44/44 41/41/41 42/42/42
f 47/47/47 46/46/46 45/45/45
f 48/48/48 45/45/45 46/46/46
f 51/51/51 50/50/50 49/49/49
f 52/52/52 49/49/49 50/50/50
f 55/55/55 54/54/54 53/53/53
f 56/56/56 53/53/53 54/54/54
f 59/59/59 58/58/58 57/57/57
f 60/60/60 57/57/57 58/58/58
f 63/63/63 62/62/62 61/61/61
f 64/64/64 61/61/61 62/62/62
f 67/67/67 66/66/66 65/65/65
f 68/68/68 65/65/65 66/66/66
f 71/71/71 70/70/70 69/69/69
f 72/72/72 69/69/69 70/70/70
f 75/75/75 74/74/74 73/73/73
f 76/76/76 73/73/73 74/74/74
f 79/79/79 78/78/78 77/77/77
f 80/80/80 77/77/77 78/78/78
f 83/83/83 82/82/82 81/81/81
f 84/84/84 81/81/81 82/82/82
f 87/87/87 86/86/86 85/85/85
f 88/88/88 85/85/85 86/86/86
f 91/91/91 90/90/90 89/89/89
f 92/92/92 89/89/89 90/90/90
f 95/95/95 94/94/94 93/93/93
f 96/96/96 93/93/93 94/94/94
f 99/99/99 98/98/98 97/97/97
f 100/100/100 97/97/97 98/98/98
f 103/103/103 102/102/102 101/101/101
f 104/104/104 101/101/101 102/102/102
f 107/107/107 106/106/106 105/105/105
f 108/108/108 105/105/105 106/106/106
f 111/111/111 110/110/110 109/109/109
f 112/112/112 109/109/109 110/110/110
f 115/115/115 114/114/114 113/113/113
f 116/116/116 113/113/113 114/114/114
f 119/119/119 118/118/118 117/117/117
f 120/120/120 117/117/117 118/118/118
f 123/123/123 122/122/122 121/121/121
f 124/124/124 121/121/121 122/122/122
f 127/127/127 126/126/126 125/125/125
f 128/128/128 125/125/125 126/126/126
