g Mark
v 3.267812 -0.0004878759 1.777536
v 3.267812 -0.0004878759 -1.776923
v 3.691661 -0.0004878759 -1.776923
v 3.691661 -0.0004878759 1.777536
v 2.677417 0.05405008 1.994268
v 2.677417 0.05405008 2.102839
v 2.677417 -0.05382993 2.102839
v 2.677417 -0.05382993 1.994268
v 3.177366 0.0540498 1.777156
v 3.177366 0.0540498 -1.777156
v 3.177366 -0.05382993 -1.777156
v 3.177366 -0.05382993 1.777156
v 2.677417 0.05405008 -2.102839
v 2.677417 0.05405008 -1.994268
v 2.677417 -0.05382993 -1.994268
v 2.677417 -0.05382993 -2.102839
v 3.086239 0.0540498 -1.756716
v 3.086239 0.0540498 1.756716
v 3.086239 -0.0538295 1.756716
v 3.086239 -0.0538295 -1.756716
v 3.086239 0.0540498 -1.756716
v 3.177366 0.0540498 -1.777156
v 3.177366 0.0540498 1.777156
v 3.086239 0.0540498 1.756716
v 2.854307 0.0540498 1.994268
v 2.854307 0.0540498 2.102839
v 2.854307 0.0540498 -1.994268
v 2.854307 0.0540498 -2.102839
v 3.177366 0.0540498 -1.777156
v 3.086239 0.0540498 1.756716
v 2.854307 0.0540498 1.994268
v 2.854307 -0.0538295 1.994268
v 3.086239 -0.0538295 1.756716
v 3.177366 -0.05382993 1.777156
v 2.854307 -0.05382993 2.102839
v 2.854307 0.0540498 2.102839
v 3.177366 0.0540498 1.777156
v 3.177366 0.0540498 -1.777156
v 2.854307 0.0540498 -2.102839
v 2.854307 -0.05382993 -2.102839
v 3.177366 -0.05382993 -1.777156
v 3.086239 -0.0538295 -1.756716
v 2.854307 -0.0538295 -1.994268
v 2.854307 0.0540498 -1.994268
v 3.086239 0.0540498 -1.756716
v 2.854307 0.0540498 1.994268
v 2.677417 0.05405008 1.994268
v 2.677417 -0.05382993 1.994268
v 2.854307 -0.0538295 1.994268
v 2.854307 -0.0538295 1.994268
v 2.677417 -0.05382993 1.994268
v 2.677417 -0.05382993 2.102839
v 2.854307 -0.05382993 2.102839
v 3.086239 -0.0538295 1.756716
v 2.854307 -0.05382993 2.102839
v 3.177366 -0.05382993 1.777156
v 3.086239 -0.0538295 1.756716
v 3.177366 -0.05382993 -1.777156
v 3.086239 -0.0538295 -1.756716
v 3.177366 -0.05382993 -1.777156
v 2.854307 -0.0538295 -1.994268
v 2.854307 -0.05382993 -2.102839
v 2.677417 -0.05382993 -2.102839
v 2.677417 -0.05382993 -1.994268
v 2.854307 -0.0538295 -1.994268
v 2.854307 -0.05382993 2.102839
v 2.677417 -0.05382993 2.102839
v 2.677417 0.05405008 2.102839
v 2.854307 0.0540498 2.102839
v 2.854307 0.0540498 2.102839
v 2.677417 0.05405008 2.102839
v 2.677417 0.05405008 1.994268
v 2.854307 0.0540498 1.994268
v 2.854307 0.0540498 -2.102839
v 2.677417 0.05405008 -2.102839
v 2.677417 -0.05382993 -2.102839
v 2.854307 -0.05382993 -2.102839
v 2.854307 -0.0538295 -1.994268
v 2.677417 -0.05382993 -1.994268
v 2.677417 0.05405008 -1.994268
v 2.854307 0.0540498 -1.994268
v 2.854307 0.0540498 -1.994268
v 2.677417 0.05405008 -1.994268
v 2.677417 0.05405008 -2.102839
v 2.854307 0.0540498 -2.102839
v -3.191712 0.05383036 1.994268
v -3.191712 -0.05405008 1.994268
v -3.191712 -0.05405008 2.102839
v -3.191712 0.05383036 2.102839
v -3.691661 0.05383036 1.777156
v -3.691661 -0.05404951 1.777156
v -3.691661 -0.05404951 -1.777156
v -3.691661 0.05383036 -1.777156
v -3.191712 0.05383036 -2.102839
v -3.191712 -0.05405008 -2.102839
v -3.191712 -0.05405008 -1.994268
v -3.191712 0.05383036 -1.994268
v -3.600534 0.05383007 -1.756716
v -3.600534 -0.05404951 -1.756716
v -3.600534 -0.05404951 1.756716
v -3.600534 0.05383007 1.756716
v -3.600534 0.05383007 -1.756716
v -3.691661 0.05383036 1.777156
v -3.691661 0.05383036 -1.777156
v -3.600534 0.05383007 1.756716
v -3.691661 0.05383036 -1.777156
v -3.368603 0.05383036 -2.102839
v -3.368603 0.05383007 -1.994268
v -3.691661 0.05383036 1.777156
v -3.368603 0.05383007 1.994268
v -3.368603 0.05383036 2.102839
v -3.600534 0.05383007 1.756716
v -3.600534 -0.05404951 1.756716
v -3.368603 -0.05404951 1.994268
v -3.368603 0.05383007 1.994268
v -3.600534 -0.05404951 1.756716
v -3.368603 -0.05404951 2.102839
v -3.368603 -0.05404951 1.994268
v -3.691661 -0.05404951 1.777156
v -3.691661 -0.05404951 -1.777156
v -3.600534 -0.05404951 -1.756716
v -3.368603 -0.05404951 -1.994268
v -3.368603 -0.05404951 -2.102839
v -3.368603 -0.05404951 1.994268
v -3.191712 -0.05405008 2.102839
v -3.191712 -0.05405008 1.994268
v -3.368603 -0.05404951 -2.102839
v -3.191712 -0.05405008 -1.994268
v -3.191712 -0.05405008 -2.102839
v -3.691661 -0.05404951 1.777156
v -3.691661 0.05383036 1.777156
v -3.368603 0.05383036 2.102839
v -3.368603 -0.05404951 2.102839
v -3.691661 0.05383036 -1.777156
v -3.691661 -0.05404951 -1.777156
v -3.368603 -0.05404951 -2.102839
v -3.368603 0.05383036 -2.102839
v -3.600534 -0.05404951 -1.756716
v -3.600534 0.05383007 -1.756716
v -3.368603 0.05383007 -1.994268
v -3.368603 -0.05404951 -1.994268
v -3.368603 0.05383007 1.994268
v -3.368603 -0.05404951 1.994268
v -3.191712 -0.05405008 1.994268
v -3.191712 0.05383036 1.994268
v -3.368603 -0.05404951 2.102839
v -3.368603 0.05383036 2.102839
v -3.191712 0.05383036 2.102839
v -3.191712 -0.05405008 2.102839
v -3.368603 0.05383036 2.102839
v -3.368603 0.05383007 1.994268
v -3.191712 0.05383036 1.994268
v -3.191712 0.05383036 2.102839
v -3.368603 0.05383036 -2.102839
v -3.368603 -0.05404951 -2.102839
v -3.191712 -0.05405008 -2.102839
v -3.191712 0.05383036 -2.102839
v -3.368603 -0.05404951 -1.994268
v -3.368603 0.05383007 -1.994268
v -3.191712 0.05383036 -1.994268
v -3.191712 -0.05405008 -1.994268
v -3.368603 0.05383007 -1.994268
v -3.368603 0.05383036 -2.102839
v -3.191712 0.05383036 -2.102839
v -3.191712 0.05383036 -1.994268
vt 0.8461914 0.4589844
vt 0.8461914 0.9936523
vt 0.9101563 0.9936523
vt 0.9101563 0.4589844
vt 0.9179688 0.005355835
vt 0.9179688 0.03034973
vt 0.9399414 0.03034973
vt 0.9399414 0.005355835
vt 0.9179688 0.1408691
vt 0.9179688 0.8427734
vt 0.9399414 0.8427734
vt 0.9399414 0.1408691
vt 0.9179688 0.953125
vt 0.9179688 0.9770508
vt 0.9399414 0.9770508
vt 0.9399414 0.953125
vt 0.9760742 0.8427734
vt 0.9760742 0.1408691
vt 0.9560547 0.1408691
vt 0.9560547 0.8427734
vt 0.9760742 0.8427734
vt 0.9936523 0.8427734
vt 0.9936523 0.1408691
vt 0.9760742 0.1408691
vt 0.9760742 0.06640625
vt 0.9936523 0.06018066
vt 0.9760742 0.9169922
vt 0.9936523 0.9223633
vt 0.9936523 0.8427734
vt 0.9760742 0.1408691
vt 0.9760742 0.06640625
vt 0.9560547 0.06640625
vt 0.9560547 0.1408691
vt 0.9399414 0.1408691
vt 0.9399414 0.06640625
vt 0.9179688 0.06640625
vt 0.9179688 0.1408691
vt 0.9179688 0.8427734
vt 0.9179688 0.9169922
vt 0.9399414 0.9169922
vt 0.9399414 0.8427734
vt 0.9560547 0.8427734
vt 0.9560547 0.9169922
vt 0.9760742 0.9169922
vt 0.9760742 0.8427734
vt 0.9760742 0.06640625
vt 0.9760742 0.03034973
vt 0.9560547 0.03034973
vt 0.9560547 0.06640625
vt 0.9560547 0.06640625
vt 0.9560547 0.03034973
vt 0.9399414 0.03034973
vt 0.9399414 0.06640625
vt 0.9560547 0.1408691
vt 0.9399414 0.06640625
vt 0.9399414 0.1408691
vt 0.9560547 0.1408691
vt 0.9399414 0.8427734
vt 0.9560547 0.8427734
vt 0.9399414 0.8427734
vt 0.9560547 0.9169922
vt 0.9399414 0.9169922
vt 0.9399414 0.953125
vt 0.9560547 0.953125
vt 0.9560547 0.9169922
vt 0.9399414 0.06640625
vt 0.9399414 0.03034973
vt 0.9179688 0.03034973
vt 0.9179688 0.06640625
vt 0.9936523 0.06018066
vt 0.9936523 0.03034973
vt 0.9760742 0.03034973
vt 0.9760742 0.06640625
vt 0.9179688 0.9169922
vt 0.9179688 0.953125
vt 0.9399414 0.953125
vt 0.9399414 0.9169922
vt 0.9560547 0.9169922
vt 0.9560547 0.953125
vt 0.9760742 0.953125
vt 0.9760742 0.9169922
vt 0.9760742 0.9169922
vt 0.9760742 0.953125
vt 0.9936523 0.953125
vt 0.9936523 0.9223633
vt 0.9179688 0.005489349
vt 0.9399414 0.005489349
vt 0.9399414 0.03050232
vt 0.9179688 0.03050232
vt 0.9179688 0.1409912
vt 0.9399414 0.1409912
vt 0.9399414 0.8427734
vt 0.9179688 0.8427734
vt 0.9179688 0.9526367
vt 0.9399414 0.9526367
vt 0.9399414 0.9770508
vt 0.9179688 0.9770508
vt 0.9760742 0.8427734
vt 0.9560547 0.8427734
vt 0.9560547 0.1409912
vt 0.9760742 0.1409912
vt 0.9760742 0.8427734
vt 0.9941406 0.1409912
vt 0.9941406 0.8427734
vt 0.9760742 0.1409912
vt 0.9941406 0.8427734
vt 0.9941406 0.9223633
vt 0.9760742 0.9169922
vt 0.9941406 0.1409912
vt 0.9760742 0.06652832
vt 0.9941406 0.06039429
vt 0.9760742 0.1409912
vt 0.9560547 0.1409912
vt 0.9560547 0.06652832
vt 0.9760742 0.06652832
vt 0.9560547 0.1409912
vt 0.9399414 0.06652832
vt 0.9560547 0.06652832
vt 0.9399414 0.1409912
vt 0.9399414 0.8427734
vt 0.9560547 0.8427734
vt 0.9560547 0.9169922
vt 0.9399414 0.9169922
vt 0.9560547 0.06652832
vt 0.9399414 0.03050232
vt 0.9560547 0.03050232
vt 0.9399414 0.9169922
vt 0.9560547 0.9526367
vt 0.9399414 0.9526367
vt 0.9399414 0.1409912
vt 0.9179688 0.1409912
vt 0.9179688 0.06652832
vt 0.9399414 0.06652832
vt 0.9179688 0.8427734
vt 0.9399414 0.8427734
vt 0.9399414 0.9169922
vt 0.9179688 0.9169922
vt 0.9560547 0.8427734
vt 0.9760742 0.8427734
vt 0.9760742 0.9169922
vt 0.9560547 0.9169922
vt 0.9760742 0.06652832
vt 0.9560547 0.06652832
vt 0.9560547 0.03050232
vt 0.9760742 0.03050232
vt 0.9399414 0.06652832
vt 0.9179688 0.06652832
vt 0.9179688 0.03050232
vt 0.9399414 0.03050232
vt 0.9941406 0.06039429
vt 0.9760742 0.06652832
vt 0.9760742 0.03050232
vt 0.9941406 0.03050232
vt 0.9179688 0.9169922
vt 0.9399414 0.9169922
vt 0.9399414 0.9526367
vt 0.9179688 0.9526367
vt 0.9560547 0.9169922
vt 0.9760742 0.9169922
vt 0.9760742 0.9526367
vt 0.9560547 0.9526367
vt 0.9760742 0.9169922
vt 0.9941406 0.9223633
vt 0.9941406 0.9526367
vt 0.9760742 0.9526367
vn 0 1 0
vn 0 1 0
vn 0 1 0
vn 0 1 0
vn -1 0 0
vn -1 0 0
vn -1 0 0
vn -1 0 0
vn 1 0 0
vn 1 0 0
vn 1 0 0
vn 1 0 0
vn -1 0 0
vn -1 0 0
vn -1 0 0
vn -1 0 0
vn -1 0 0
vn -1 0 0
vn -1 0 0
vn -1 0 0
vn 0 1 0
vn 0 1 0
vn 0 1 0
vn 0 1 0
vn 0 1 0
vn 0 1 0
vn 0 1 0
vn 0 1 0
vn 0 1 0
vn -0.715332 0 -0.6987305
vn -0.715332 0 -0.6987305
vn -0.715332 0 -0.6987305
vn -0.715332 0 -0.6987305
vn 0.7099609 0 0.7041016
vn 0.7099609 0 0.7041016
vn 0.7099609 0 0.7041016
vn 0.7099609 0 0.7041016
vn 0.7099609 0 -0.7041016
vn 0.7099609 0 -0.7041016
vn 0.7099609 0 -0.7041016
vn 0.7099609 0 -0.7041016
vn -0.715332 0 0.6987305
vn -0.715332 0 0.6987305
vn -0.715332 0 0.6987305
vn -0.715332 0 0.6987305
vn 0 0 -1
vn 0 0 -1
vn 0 0 -1
vn 0 0 -1
vn 0 -1 0
vn 0 -1 0
vn 0 -1 0
vn 0 -1 0
vn 0 -1 0
vn 0 -1 0
vn 0 -1 0
vn 0 -1 0
vn 0 -1 0
vn 0 -1 0
vn 0 -1 0
vn 0 -1 0
vn 0 -1 0
vn 0 -1 0
vn 0 -1 0
vn 0 -1 0
vn 0 0 1
vn 0 0 1
vn 0 0 1
vn 0 0 1
vn 0 1 0
vn 0 1 0
vn 0 1 0
vn 0 1 0
vn 0 0 -1
vn 0 0 -1
vn 0 0 -1
vn 0 0 -1
vn 0 0 1
vn 0 0 1
vn 0 0 1
vn 0 0 1
vn 0 1 0
vn 0 1 0
vn 0 1 0
vn 0 1 0
vn 1 0 0
vn 1 0 0
vn 1 0 0
vn 1 0 0
vn -1 0 0
vn -1 0 0
vn -1 0 0
vn -1 0 0
vn 1 0 0
vn 1 0 0
vn 1 0 0
vn 1 0 0
vn 1 0 0
vn 1 0 0
vn 1 0 0
vn 1 0 0
vn 0 1 0
vn 0 1 0
vn 0 1 0
vn 0 1 0
vn 0 1 0
vn 0 1 0
vn 0 1 0
vn 0 1 0
vn 0 1 0
vn 0 1 0
vn 0.715332 0 -0.6987305
vn 0.715332 0 -0.6987305
vn 0.715332 0 -0.6987305
vn 0.715332 0 -0.6987305
vn 0 -1 0
vn 0 -1 0
vn 0 -1 0
vn 0 -1 0
vn 0 -1 0
vn 0 -1 0
vn 0 -1 0
vn 0 -1 0
vn 0 -1 0
vn 0 -1 0
vn 0 -1 0
vn 0 -1 0
vn 0 -1 0
vn 0 -1 0
vn -0.7099609 0 0.7041016
vn -0.7099609 0 0.7041016
vn -0.7099609 0 0.7041016
vn -0.7099609 0 0.7041016
vn -0.7099609 0 -0.7041016
vn -0.7099609 0 -0.7041016
vn -0.7099609 0 -0.7041016
vn -0.7099609 0 -0.7041016
vn 0.715332 0 0.6987305
vn 0.715332 0 0.6987305
vn 0.715332 0 0.6987305
vn 0.715332 0 0.6987305
vn 0 0 -1
vn 0 0 -1
vn 0 0 -1
vn 0 0 -1
vn 0 0 1
vn 0 0 1
vn 0 0 1
vn 0 0 1
vn 0 1 0
vn 0 1 0
vn 0 1 0
vn 0 1 0
vn 0 0 -1
vn 0 0 -1
vn 0 0 -1
vn 0 0 -1
vn 0 0 1
vn 0 0 1
vn 0 0 1
vn 0 0 1
vn 0 1 0
vn 0 1 0
vn 0 1 0
vn 0 1 0
g Mark_0
f 3/3/3 2/2/2 1/1/1
f 4/4/4 3/3/3 1/1/1
f 7/7/7 6/6/6 5/5/5
f 8/8/8 7/7/7 5/5/5
f 11/11/11 10/10/10 9/9/9
f 12/12/12 11/11/11 9/9/9
f 15/15/15 14/14/14 13/13/13
f 16/16/16 15/15/15 13/13/13
f 19/19/19 18/18/18 17/17/17
f 20/20/20 19/19/19 17/17/17
f 23/23/23 22/22/22 21/21/21
f 24/24/24 23/23/23 21/21/21
f 24/24/24 25/25/25 23/23/23
f 25/25/25 26/26/26 23/23/23
f 28/28/28 27/27/27 21/21/21
f 29/29/29 28/28/28 21/21/21
f 32/32/32 31/31/31 30/30/30
f 33/33/33 32/32/32 30/30/30
f 36/36/36 35/35/35 34/34/34
f 37/37/37 36/36/36 34/34/34
f 40/40/40 39/39/39 38/38/38
f 41/41/41 40/40/40 38/38/38
f 44/44/44 43/43/43 42/42/42
f 45/45/45 44/44/44 42/42/42
f 48/48/48 47/47/47 46/46/46
f 49/49/49 48/48/48 46/46/46
f 52/52/52 51/51/51 50/50/50
f 53/53/53 52/52/52 50/50/50
f 55/55/55 50/50/50 54/54/54
f 56/56/56 55/55/55 54/54/54
f 58/58/58 56/56/56 57/57/57
f 59/59/59 58/58/58 57/57/57
f 59/59/59 61/61/61 60/60/60
f 61/61/61 62/62/62 60/60/60
f 64/64/64 63/63/63 62/62/62
f 65/65/65 64/64/64 62/62/62
f 68/68/68 67/67/67 66/66/66
f 69/69/69 68/68/68 66/66/66
f 72/72/72 71/71/71 70/70/70
f 73/73/73 72/72/72 70/70/70
f 76/76/76 75/75/75 74/74/74
f 77/77/77 76/76/76 74/74/74
f 80/80/80 79/79/79 78/78/78
f 81/81/81 80/80/80 78/78/78
f 84/84/84 83/83/83 82/82/82
f 85/85/85 84/84/84 82/82/82
f 88/88/88 87/87/87 86/86/86
f 89/89/89 88/88/88 86/86/86
f 92/92/92 91/91/91 90/90/90
f 93/93/93 92/92/92 90/90/90
f 96/96/96 95/95/95 94/94/94
f 97/97/97 96/96/96 94/94/94
f 100/100/100 99/99/99 98/98/98
f 101/101/101 100/100/100 98/98/98
f 104/104/104 103/103/103 102/102/102
f 103/103/103 105/105/105 102/102/102
f 107/107/107 106/106/106 102/102/102
f 108/108/108 107/107/107 102/102/102
f 110/110/110 105/105/105 109/109/109
f 111/111/111 110/110/110 109/109/109
f 114/114/114 113/113/113 112/112/112
f 115/115/115 114/114/114 112/112/112
f 118/118/118 117/117/117 116/116/116
f 117/117/117 119/119/119 116/116/116
f 119/119/119 120/120/120 116/116/116
f 120/120/120 121/121/121 116/116/116
f 122/122/122 121/121/121 120/120/120
f 123/123/123 122/122/122 120/120/120
f 125/125/125 117/117/117 124/124/124
f 126/126/126 125/125/125 124/124/124
f 128/128/128 122/122/122 127/127/127
f 129/129/129 128/128/128 127/127/127
f 132/132/132 131/131/131 130/130/130
f 133/133/133 132/132/132 130/130/130
f 136/136/136 135/135/135 134/134/134
f 137/137/137 136/136/136 134/134/134
f 140/140/140 139/139/139 138/138/138
f 141/141/141 140/140/140 138/138/138
f 144/144/144 143/143/143 142/142/142
f 145/145/145 144/144/144 142/142/142
f 148/148/148 147/147/147 146/146/146
f 149/149/149 148/148/148 146/146/146
f 152/152/152 151/151/151 150/150/150
f 153/153/153 152/152/152 150/150/150
f 156/156/156 155/155/155 154/154/154
f 157/157/157 156/156/156 154/154/154
f 160/160/160 159/159/159 158/158/158
f 161/161/161 160/160/160 158/158/158
f 164/164/164 163/163/163 162/162/162
f 165/165/165 164/164/164 162/162/162
