g Mesh47
v -1.607426 3.276365 3.456372
v -1.574322 3.276363 3.436716
v -1.579348 3.248865 3.503665
v -1.546243 3.248863 3.484009
v -1.57937 2.794985 3.503678
v -1.546266 2.794982 3.484022
v -1.574347 2.767483 3.436731
v -1.607451 2.767485 3.456387
v -1.574347 2.767483 3.436731
v -1.607454 2.715485 3.456388
v -1.607451 2.767485 3.456387
v -1.57435 2.715483 3.436733
v -1.574322 3.276363 3.436716
v -1.607426 3.276365 3.456372
v -1.574319 3.328363 3.436715
v -1.607424 3.328365 3.456371
vt 0.5857725 0.9791266
vt 0.5857725 0.9812304
vt 0.5891326 0.9791266
vt 0.5891326 0.9812304
vt 0.6139345 0.9791266
vt 0.6139345 0.9812304
vt 0.6172946 0.9812304
vt 0.6172946 0.9791266
vt 0.6172946 0.9812304
vt 0.6201361 0.9791266
vt 0.6172946 0.9791266
vt 0.6201361 0.9812304
vt 0.5857725 0.9812304
vt 0.5857725 0.9791266
vt 0.582931 0.9812304
vt 0.582931 0.9791266
vn 0.2283626 0.8944267 0.3845144
vn 0.2283631 0.8944266 0.3845144
vn 0.3712346 0.6865565 0.6251599
vn 0.4795342 0.343278 0.8075933
vn 0.4342666 -0.5257312 0.7314501
vn 0.4342645 -0.5257321 0.7314506
vn 0.2282767 -0.8944272 0.3845645
vn 0.2282806 -0.8944262 0.3845643
vn 0.5105419 0 0.8598529
vn 0.5105419 0 0.8598529
vn 0.5105419 0 0.8598529
vn 0.5105419 0 0.8598528
vn 0.5105402 0 0.8598539
vn 0.5105402 0 0.8598539
vn 0.5105402 0 0.8598539
vn 0.5105402 0 0.8598539
g Mesh47_0
f 3/3/3 2/2/2 1/1/1
f 3/3/3 4/4/4 2/2/2
f 3/3/3 5/5/5 4/4/4
f 4/4/4 5/5/5 6/6/6
f 5/5/5 7/7/7 6/6/6
f 8/8/8 7/7/7 5/5/5
f 11/11/11 10/10/10 9/9/9
f 9/9/9 10/10/10 12/12/12
f 15/15/15 14/14/14 13/13/13
f 16/16/16 14/14/14 15/15/15
