g Mesh56
v -0.9988719 1.471426 2.45236
v -0.9514591 1.471426 2.463481
v -0.9988719 1.712677 2.45236
v -0.9514591 1.712677 2.463481
v -0.9373832 1.712677 2.510102
v -0.9373832 1.471426 2.510102
v -0.9707205 1.471426 2.545603
v -0.9707205 1.712677 2.545603
v -1.018133 1.471426 2.534482
v -1.018133 1.712677 2.534482
v -1.032209 1.712677 2.487861
v -1.032209 1.471426 2.487861
v -0.9988719 1.471426 2.45236
v -0.9988719 1.712677 2.45236
v -1.051876 1.833302 2.483248
v -1.004711 1.712677 2.433022
v -1.004711 1.833302 2.433022
v -1.051876 1.712677 2.483248
v -1.031962 1.712677 2.549208
v -1.031962 1.833302 2.549208
v -0.9648818 1.833302 2.564941
v -0.9648818 1.712677 2.564941
v -0.9177163 1.833302 2.514715
v -0.9177163 1.712677 2.514715
v -0.9376307 1.712677 2.448755
v -0.9376307 1.833302 2.448755
v -1.004711 1.833302 2.433022
v -1.004711 1.712677 2.433022
v -0.9648818 1.833302 2.564941
v -1.031962 1.833302 2.549208
v -1.051876 1.833302 2.483248
v -1.004711 1.833302 2.433022
v -0.9177163 1.833302 2.514715
v -0.9376307 1.833302 2.448755
v -1.051876 1.471426 2.483248
v -1.004711 1.350802 2.433022
v -1.004711 1.471426 2.433022
v -1.051876 1.350802 2.483248
v -1.031962 1.350802 2.549208
v -1.031962 1.471426 2.549208
v -0.9648818 1.471426 2.564941
v -0.9648818 1.350802 2.564941
v -0.9177163 1.471426 2.514715
v -0.9177163 1.350802 2.514715
v -0.9376307 1.350802 2.448755
v -0.9376307 1.471426 2.448755
v -1.004711 1.471426 2.433022
v -1.004711 1.350802 2.433022
v -0.9177163 1.350802 2.514715
v -0.9376307 1.350802 2.448755
v -0.9648818 1.350802 2.564941
v -1.004711 1.350802 2.433022
v -1.031962 1.350802 2.549208
v -1.051876 1.350802 2.483248
v -0.9707205 1.471426 2.545603
v -0.9648818 1.471426 2.564941
v -1.018133 1.471426 2.534482
v -0.9373832 1.471426 2.510102
v -1.031962 1.471426 2.549208
v -0.9177163 1.471426 2.514715
v -1.051876 1.471426 2.483248
v -1.032209 1.471426 2.487861
v -0.9514591 1.471426 2.463481
v -0.9376307 1.471426 2.448755
v -1.004711 1.471426 2.433022
v -0.9988719 1.471426 2.45236
v -1.032209 1.712677 2.487861
v -1.004711 1.712677 2.433022
v -1.051876 1.712677 2.483248
v -1.031962 1.712677 2.549208
v -0.9988719 1.712677 2.45236
v -1.018133 1.712677 2.534482
v -0.9376307 1.712677 2.448755
v -0.9514591 1.712677 2.463481
v -0.9648818 1.712677 2.564941
v -0.9707205 1.712677 2.545603
v -0.9373832 1.712677 2.510102
v -0.9177163 1.712677 2.514715
vt 0.1476684 0.9773046
vt 0.1450073 0.9773046
vt 0.1476684 0.9904874
vt 0.1450073 0.9904874
vt 0.1423461 0.9904874
vt 0.1423461 0.9773046
vt 0.139685 0.9773046
vt 0.139685 0.9904874
vt 0.1370239 0.9773046
vt 0.1370239 0.9904874
vt 0.1343627 0.9904874
vt 0.1343627 0.9773046
vt 0.1317016 0.9773046
vt 0.1317016 0.9904874
vt 0.1960368 0.9773046
vt 0.1998018 0.983896
vt 0.1998018 0.9773046
vt 0.1960368 0.983896
vt 0.1922718 0.983896
vt 0.1922718 0.9773046
vt 0.1885068 0.9773046
vt 0.1885068 0.983896
vt 0.1847418 0.9773046
vt 0.1847418 0.983896
vt 0.1809768 0.983896
vt 0.1809768 0.9773046
vt 0.1772118 0.9773046
vt 0.1772118 0.983896
vt 0.6504958 0.9848983
vt 0.6486133 0.9816377
vt 0.6448483 0.9816377
vt 0.6429658 0.9848983
vt 0.6486133 0.9881588
vt 0.6448483 0.9881588
vt 0.1548326 0.983896
vt 0.1510676 0.9773046
vt 0.1510676 0.983896
vt 0.1548326 0.9773046
vt 0.1585976 0.9773046
vt 0.1585976 0.983896
vt 0.1623626 0.983896
vt 0.1623626 0.9773046
vt 0.1661276 0.983896
vt 0.1661276 0.9773046
vt 0.1698926 0.9773046
vt 0.1698926 0.983896
vt 0.1736576 0.983896
vt 0.1736576 0.9773046
vt 0.6323144 0.9848983
vt 0.6341969 0.9881588
vt 0.6341969 0.9816377
vt 0.6379619 0.9881588
vt 0.6379619 0.9816377
vt 0.6398444 0.9848983
vt 0.8375098 0.9809938
vt 0.8384485 0.9794239
vt 0.8355248 0.9809343
vt 0.8385025 0.9827185
vt 0.8346832 0.9794239
vt 0.8402811 0.9827681
vt 0.8327533 0.9825997
vt 0.8345318 0.9826493
vt 0.8375096 0.9844335
vt 0.8383512 0.9859439
vt 0.8345859 0.9859439
vt 0.8355246 0.9843739
vt 0.6264364 0.9866605
vt 0.6235502 0.9881446
vt 0.627279 0.9881708
vt 0.6292155 0.9849843
vt 0.6244451 0.9866068
vt 0.6274368 0.9849379
vt 0.6216631 0.9848307
vt 0.623492 0.98486
vt 0.6273871 0.9816377
vt 0.6264513 0.9832093
vt 0.6244767 0.9831473
vt 0.6236345 0.9816377
vn 0.2283508 0 -0.9735789
vn 0.6845468 0 -0.7289689
vn 0.2283508 0 -0.9735789
vn 0.6845468 0 -0.728969
vn 0.9735789 0 0.2283507
vn 0.9735789 0 0.2283507
vn 0.4647389 0 0.8854477
vn 0.102905 0 0.9946912
vn -0.6845476 0 0.7289682
vn -0.6845475 0 0.7289683
vn -0.973579 0 -0.2283503
vn -0.973579 0 -0.2283503
vn -0.7289683 0 -0.6845475
vn -0.7289683 0 -0.6845475
vn -0.9735789 0 -0.2283506
vn -0.7289694 0 -0.6845463
vn -0.7289694 0 -0.6845463
vn -0.9735789 0 -0.2283506
vn -0.6845464 0 0.7289694
vn -0.6845464 0 0.7289694
vn 0.1029091 0 0.9946907
vn 0.4647405 0 0.8854469
vn 0.9735789 0 0.228351
vn 0.9735789 0 0.228351
vn 0.6845476 0 -0.7289681
vn 0.6845476 0 -0.7289681
vn 0.2283522 0 -0.9735786
vn 0.2283522 0 -0.9735786
vn 0 1 0
vn 0 1 0
vn 0 1 0
vn 0 1 0
vn 0 1 0
vn 0 1 0
vn -0.9735789 0 -0.2283506
vn -0.7289694 0 -0.6845463
vn -0.7289694 0 -0.6845463
vn -0.9735789 0 -0.2283506
vn -0.6845463 0 0.7289694
vn -0.6845464 0 0.7289694
vn 0.1029092 0 0.9946907
vn 0.4647405 0 0.8854469
vn 0.9735789 0 0.228351
vn 0.9735789 0 0.228351
vn 0.6845476 0 -0.7289681
vn 0.6845476 0 -0.7289681
vn 0.2283522 0 -0.9735786
vn 0.2283522 0 -0.9735786
vn 0 -1 0
vn 0 -1 0
vn 0 -1 0
vn 0 -1 0
vn 0 -1 0
vn 0 -1 0
vn 0 1 0
vn 0 1 0
vn 0 1 0
vn 0 1 0
vn 0 1 0
vn 0 1 0
vn 0 1 0
vn 0 1 0
vn 0 1 0
vn 0 1 0
vn 0 1 0
vn 0 1 0
vn 0 -1 0
vn 0 -1 0
vn 0 -1 0
vn 0 -1 0
vn 0 -1 0
vn 0 -1 0
vn 0 -1 0
vn 0 -1 0
vn 0 -1 0
vn 0 -1 0
vn 0 -1 0
vn 0 -1 0
g Mesh56_0
f 3/3/3 2/2/2 1/1/1
f 4/4/4 2/2/2 3/3/3
f 5/5/5 2/2/2 4/4/4
f 6/6/6 2/2/2 5/5/5
f 5/5/5 7/7/7 6/6/6
f 8/8/8 7/7/7 5/5/5
f 8/8/8 9/9/9 7/7/7
f 10/10/10 9/9/9 8/8/8
f 10/10/10 11/11/11 9/9/9
f 9/9/9 11/11/11 12/12/12
f 11/11/11 13/13/13 12/12/12
f 14/14/14 13/13/13 11/11/11
f 17/17/17 16/16/16 15/15/15
f 15/15/15 16/16/16 18/18/18
f 19/19/19 15/15/15 18/18/18
f 20/20/20 15/15/15 19/19/19
f 20/20/20 19/19/19 21/21/21
f 21/21/21 19/19/19 22/22/22
f 21/21/21 22/22/22 23/23/23
f 23/23/23 22/22/22 24/24/24
f 24/24/24 25/25/25 23/23/23
f 23/23/23 25/25/25 26/26/26
f 26/26/26 25/25/25 27/27/27
f 27/27/27 25/25/25 28/28/28
f 31/31/31 30/30/30 29/29/29
f 31/31/31 29/29/29 32/32/32
f 32/32/32 29/29/29 33/33/33
f 32/32/32 33/33/33 34/34/34
f 37/37/37 36/36/36 35/35/35
f 35/35/35 36/36/36 38/38/38
f 39/39/39 35/35/35 38/38/38
f 40/40/40 35/35/35 39/39/39
f 40/40/40 39/39/39 41/41/41
f 41/41/41 39/39/39 42/42/42
f 41/41/41 42/42/42 43/43/43
f 43/43/43 42/42/42 44/44/44
f 44/44/44 45/45/45 43/43/43
f 43/43/43 45/45/45 46/46/46
f 46/46/46 45/45/45 47/47/47
f 47/47/47 45/45/45 48/48/48
f 51/51/51 50/50/50 49/49/49
f 52/52/52 50/50/50 51/51/51
f 53/53/53 52/52/52 51/51/51
f 54/54/54 52/52/52 53/53/53
f 57/57/57 56/56/56 55/55/55
f 55/55/55 56/56/56 58/58/58
f 59/59/59 56/56/56 57/57/57
f 56/56/56 60/60/60 58/58/58
f 61/61/61 59/59/59 57/57/57
f 61/61/61 57/57/57 62/62/62
f 63/63/63 58/58/58 60/60/60
f 63/63/63 60/60/60 64/64/64
f 61/61/61 62/62/62 65/65/65
f 65/65/65 63/63/63 64/64/64
f 62/62/62 66/66/66 65/65/65
f 65/65/65 66/66/66 63/63/63
f 69/69/69 68/68/68 67/67/67
f 69/69/69 67/67/67 70/70/70
f 67/67/67 68/68/68 71/71/71
f 70/70/70 67/67/67 72/72/72
f 68/68/68 73/73/73 71/71/71
f 71/71/71 73/73/73 74/74/74
f 70/70/70 72/72/72 75/75/75
f 72/72/72 76/76/76 75/75/75
f 74/74/74 73/73/73 77/77/77
f 76/76/76 77/77/77 75/75/75
f 77/77/77 73/73/73 78/78/78
f 75/75/75 77/77/77 78/78/78
