g Mesh07
v -3.384635 3.123269 2.518386
v -3.519135 2.921928 2.518386
v -3.519135 3.123269 2.518386
v -3.384635 2.921928 2.518386
v -3.519135 2.921928 2.518386
v -3.384635 3.123269 2.518386
v -3.384635 2.886428 2.450886
v -3.519135 2.921928 2.518386
v -3.519135 2.886428 2.450886
v -3.519135 2.765269 2.450886
v -3.384635 2.765269 2.450886
v -3.519135 2.765269 2.450886
v -3.384635 2.765269 2.430452
v -3.519135 2.765269 2.430452
v -3.384635 2.765269 2.450886
v -3.519135 2.765269 2.450886
v -3.384635 2.934269 2.497952
v -3.384635 2.886428 2.450886
v -3.384635 2.921928 2.518386
v -3.384635 2.898769 2.430452
v -3.519135 2.765269 2.450886
v -3.519135 2.898769 2.430452
v -3.519135 2.886428 2.450886
v -3.519135 2.765269 2.430452
v -3.519135 2.886428 2.450886
v -3.519135 2.898769 2.430452
v -3.519135 2.934269 2.497952
v -3.519135 2.921928 2.518386
v -3.519135 2.934269 2.497952
v -3.519135 3.123269 2.497952
v -3.519135 2.921928 2.518386
v -3.519135 3.123269 2.518386
v -3.519135 3.123269 2.497952
v -3.384635 3.123269 2.518386
v -3.519135 3.123269 2.518386
v -3.384635 3.123269 2.497952
v -3.384635 3.123269 2.518386
v -3.384635 2.934269 2.497952
v -3.384635 2.921928 2.518386
v -3.384635 3.123269 2.497952
v -3.384635 2.886428 2.450886
v -3.384635 2.765269 2.430452
v -3.384635 2.765269 2.450886
v -3.384635 2.898769 2.430452
vt 0.1057056 0.9857708
vt 0.1167077 0.9784212
vt 0.1057056 0.9784212
vt 0.1167077 0.9857708
vt 0.1167077 0.9784212
vt 0.1057056 0.9857708
vt 0.1208752 0.9857708
vt 0.1167077 0.9784212
vt 0.1208752 0.9784212
vt 0.1274958 0.9784212
vt 0.1274958 0.9857708
vt 0.1274958 0.9784212
vt 0.1286124 0.9857708
vt 0.1286124 0.9784212
vt 0.1274958 0.9857708
vt 0.1274958 0.9784212
vt 0.1173821 0.9868873
vt 0.1208752 0.9857708
vt 0.1167077 0.9857708
vt 0.1215495 0.9868873
vt 0.1274958 0.9784212
vt 0.1202008 0.9773046
vt 0.1208752 0.9784212
vt 0.1274958 0.9773046
vt 0.1208752 0.9784212
vt 0.1215495 0.9773046
vt 0.1173821 0.9773046
vt 0.1167077 0.9784212
vt 0.1160334 0.9773046
vt 0.1057056 0.9773046
vt 0.1167077 0.9784212
vt 0.1057056 0.9784212
vt 0.1045891 0.9784212
vt 0.1057056 0.9857708
vt 0.1057056 0.9784212
vt 0.1045891 0.9857708
vt 0.1057056 0.9857708
vt 0.1160334 0.9868873
vt 0.1167077 0.9857708
vt 0.1057056 0.9868873
vt 0.1208752 0.9857708
vt 0.1274958 0.9868873
vt 0.1274958 0.9857708
vt 0.1202008 0.9868873
vn 0 0 1
vn 0 0 1
vn 0 0 1
vn 0 -0.5169743 0.856001
vn 0 -0.5169743 0.856001
vn 0 0.7071068 0.7071068
vn 0 -0.5169743 0.856001
vn 0 -0.6757419 0.7371382
vn 0 -0.5169743 0.856001
vn 0 -0.4472136 0.8944272
vn 0 0 1
vn 0 -0.7071068 0.7071068
vn 0 -1 0
vn 0 -1 0
vn 0 -1 0
vn 0 -1 0
vn 1 0 0
vn 1 0 0
vn 1 0 0
vn 1 0 0
vn -1 0 0
vn -1 0 0
vn -1 0 0
vn -1 0 0
vn -1 0 0
vn -1 0 0
vn -1 0 0
vn -1 0 0
vn -1 0 0
vn -1 0 0
vn -1 0 0
vn -1 0 0
vn 0 1 0
vn 0 0.8944272 0.4472136
vn 0 1 0
vn 0 1 0
vn 1 0 0
vn 1 0 0
vn 1 0 0
vn 1 0 0
vn 1 0 0
vn 1 0 0
vn 1 0 0
vn 1 0 0
g Mesh07_0
f 3/3/3 2/2/2 1/1/1
f 6/6/6 5/5/5 4/4/4
f 8/8/8 7/7/7 4/4/4
f 9/9/9 7/7/7 8/8/8
f 9/9/9 10/10/10 7/7/7
f 7/7/7 10/10/10 11/11/11
f 14/14/14 13/13/13 12/12/12
f 16/16/16 13/13/13 15/15/15
f 19/19/19 18/18/18 17/17/17
f 17/17/17 18/18/18 20/20/20
f 23/23/23 22/22/22 21/21/21
f 21/21/21 22/22/22 24/24/24
f 27/27/27 26/26/26 25/25/25
f 28/28/28 27/27/27 25/25/25
f 31/31/31 30/30/30 29/29/29
f 32/32/32 30/30/30 31/31/31
f 35/35/35 34/34/34 33/33/33
f 33/33/33 34/34/34 36/36/36
f 39/39/39 38/38/38 37/37/37
f 37/37/37 38/38/38 40/40/40
f 43/43/43 42/42/42 41/41/41
f 41/41/41 42/42/42 44/44/44
