g Mesh05
v -0.2023929 3.760293 2.451351
v -0.1583929 3.639668 2.451351
v -0.4988929 3.760293 2.451351
v -0.2023929 3.760293 2.451351
v -0.1583929 3.639668 2.430452
v -0.1583929 3.639668 2.451351
v -0.2023929 3.760293 2.430452
v -0.2023929 3.760293 2.451351
v -0.2023929 3.760293 2.430452
v -0.2023929 3.760293 2.451351
v -0.4988929 3.760293 2.430452
v -0.4988929 3.760293 2.451351
v -0.1583929 3.639668 2.451351
v -0.4988929 3.519042 2.451351
v -0.4988929 3.760293 2.451351
v -0.2023929 3.519042 2.451351
v -0.4988929 3.519042 2.451351
v -0.4988929 3.760293 2.430452
v -0.4988929 3.760293 2.451351
v -0.4988929 3.519042 2.430452
v -0.4988929 3.519042 2.451351
v -0.2023929 3.519042 2.430452
v -0.4988929 3.519042 2.430452
v -0.2023929 3.519042 2.451351
v -0.1583929 3.639668 2.451351
v -0.2023929 3.519042 2.430452
v -0.2023929 3.519042 2.451351
v -0.1583929 3.639668 2.430452
vt 0.08385867 0.9781839
vt 0.08145434 0.9847754
vt 0.1000606 0.9781839
vt 0.08385867 0.9781839
vt 0.08038148 0.984384
vt 0.08145434 0.9847754
vt 0.08278582 0.9777926
vt 0.08385867 0.9781839
vt 0.08385867 0.9770419
vt 0.08385867 0.9781839
vt 0.1000606 0.9770419
vt 0.1000606 0.9781839
vt 0.08145434 0.9847754
vt 0.1000606 0.9913667
vt 0.1000606 0.9781839
vt 0.08385867 0.9913667
vt 0.1000606 0.9913667
vt 0.1012026 0.9781839
vt 0.1000606 0.9781839
vt 0.1012026 0.9913667
vt 0.1000606 0.9913667
vt 0.08385867 0.9925088
vt 0.1000606 0.9925088
vt 0.08385867 0.9913667
vt 0.08145434 0.9847754
vt 0.08278582 0.9917581
vt 0.08385867 0.9913667
vt 0.08038148 0.9851667
vn 0.6642928 0.2423122 0.7071068
vn 0.5211142 -0.1900848 0.8320503
vn -0.4472136 0 0.8944272
vn 0.5732882 0.8193538 0
vn 0.9394518 0.3426811 0
vn 0.9394518 0.3426811 0
vn 0.9394518 0.3426811 0
vn 0.8402712 0.3065033 0.4472136
vn 0 1 0
vn 0.3722032 0.9281512 0
vn 0 1 0
vn 0 1 0
vn 0 0 1
vn 0 0 1
vn 0 0 1
vn 0 0 1
vn -1 0 0
vn -1 0 0
vn -0.7071068 0 0.7071068
vn -1 0 0
vn 0 -1 0
vn 0 -1 0
vn 0 -1 0
vn 0 -1 0
vn 0.8402715 -0.3065026 0.4472136
vn 0.9394521 -0.3426803 0
vn 0.9394521 -0.3426803 0
vn 0.9394521 -0.3426803 0
g Mesh05_0
f 3/3/3 2/2/2 1/1/1
f 6/6/6 5/5/5 4/4/4
f 8/8/8 5/5/5 7/7/7
f 11/11/11 10/10/10 9/9/9
f 12/12/12 10/10/10 11/11/11
f 15/15/15 14/14/14 13/13/13
f 13/13/13 14/14/14 16/16/16
f 19/19/19 18/18/18 17/17/17
f 17/17/17 18/18/18 20/20/20
f 23/23/23 22/22/22 21/21/21
f 21/21/21 22/22/22 24/24/24
f 27/27/27 26/26/26 25/25/25
f 25/25/25 26/26/26 28/28/28
