g Mesh46
v -1.224681 2.794961 3.293079
v -1.219658 2.767459 3.226132
v -1.252762 2.767461 3.245788
v -1.191577 2.794959 3.273423
v -1.191554 3.24884 3.27341
v -1.224659 3.248842 3.293066
v -1.219633 3.27634 3.226117
v -1.252737 3.276342 3.245773
v -1.219658 2.767459 3.226132
v -1.252765 2.715461 3.24579
v -1.252762 2.767461 3.245788
v -1.219661 2.715459 3.226134
v -1.219633 3.27634 3.226117
v -1.252737 3.276342 3.245773
v -1.21963 3.32834 3.226116
v -1.252735 3.328342 3.245771
vt 0.9144826 0.9829157
vt 0.9111224 0.9808119
vt 0.9111224 0.9829157
vt 0.9144826 0.9808119
vt 0.9392844 0.9808119
vt 0.9392844 0.9829157
vt 0.9426446 0.9808119
vt 0.9426446 0.9829157
vt 0.9111224 0.9808119
vt 0.908281 0.9829157
vt 0.9111224 0.9829157
vt 0.908281 0.9808119
vt 0.9426446 0.9808119
vt 0.9426446 0.9829157
vt 0.9454861 0.9808119
vt 0.9454861 0.9829157
vn 0.4342685 -0.5257314 0.7314487
vn 0.2282774 -0.8944275 0.3845632
vn 0.2282719 -0.8944289 0.3845633
vn 0.4342728 -0.5257303 0.731447
vn 0.4795358 0.3432794 0.8075919
vn 0.3712365 0.6865578 0.6251575
vn 0.2283652 0.8944277 0.3845107
vn 0.228369 0.8944268 0.3845106
vn 0.5105419 0 0.8598529
vn 0.5105419 0 0.8598529
vn 0.5105419 0 0.8598529
vn 0.5105419 0 0.8598528
vn 0.510541 0 0.8598533
vn 0.510541 0 0.8598533
vn 0.510541 0 0.8598533
vn 0.510541 0 0.8598533
g Mesh46_0
f 3/3/3 2/2/2 1/1/1
f 1/1/1 2/2/2 4/4/4
f 5/5/5 1/1/1 4/4/4
f 6/6/6 1/1/1 5/5/5
f 6/6/6 5/5/5 7/7/7
f 6/6/6 7/7/7 8/8/8
f 11/11/11 10/10/10 9/9/9
f 9/9/9 10/10/10 12/12/12
f 15/15/15 14/14/14 13/13/13
f 16/16/16 14/14/14 15/15/15
