g Mesh14
v -0.9781939 1.712677 2.430452
v -0.681694 1.712677 2.451351
v -0.9781939 1.712677 2.451351
v -0.681694 1.712677 2.430452
v -0.681694 1.712677 2.451351
v -0.681694 1.712677 2.451351
v -0.637694 1.592052 2.451351
v -0.9781939 1.712677 2.451351
v -0.637694 1.592052 2.451351
v -0.9781939 1.471426 2.451351
v -0.9781939 1.712677 2.451351
v -0.681694 1.471426 2.451351
v -0.9781939 1.471426 2.451351
v -0.637694 1.592052 2.451351
v -0.681694 1.712677 2.451351
v -0.637694 1.592052 2.430452
v -0.637694 1.592052 2.451351
v -0.681694 1.712677 2.430452
v -0.681694 1.712677 2.451351
v -0.637694 1.592052 2.430452
v -0.681694 1.471426 2.430452
v -0.637694 1.592052 2.451351
v -0.681694 1.471426 2.451351
v -0.681694 1.471426 2.451351
v -0.681694 1.471426 2.430452
v -0.9781939 1.471426 2.451351
v -0.9781939 1.471426 2.430452
v -0.9781939 1.471426 2.430452
v -0.9781939 1.712677 2.430452
v -0.9781939 1.471426 2.451351
v -0.9781939 1.712677 2.451351
vt 0.1000606 0.9770419
vt 0.08385867 0.9781839
vt 0.1000606 0.9781839
vt 0.08385867 0.9770419
vt 0.08385867 0.9781839
vt 0.08385867 0.9781839
vt 0.08145434 0.9847754
vt 0.1000606 0.9781839
vt 0.08145434 0.9847754
vt 0.1000606 0.9913667
vt 0.1000606 0.9781839
vt 0.08385867 0.9913667
vt 0.1000606 0.9913667
vt 0.08145434 0.9847754
vt 0.08385867 0.9781839
vt 0.08038148 0.984384
vt 0.08145434 0.9847754
vt 0.08278582 0.9777926
vt 0.08385867 0.9781839
vt 0.08038148 0.9851667
vt 0.08278582 0.9917581
vt 0.08145434 0.9847754
vt 0.08385867 0.9913667
vt 0.08385867 0.9913667
vt 0.08385867 0.9925088
vt 0.1000606 0.9913667
vt 0.1000606 0.9925088
vt 0.1012026 0.9913667
vt 0.1012026 0.9781839
vt 0.1000606 0.9913667
vt 0.1000606 0.9781839
vn 0 1 0
vn 0.3722033 0.9281512 0
vn 0 0.7071068 0.7071068
vn 0 1 0
vn 0.3460346 0.8628953 0.3683367
vn 0 0.7071068 0.7071068
vn 0.5211141 -0.1900851 0.8320503
vn -0.4472136 0 0.8944272
vn 0.2970808 0.1083652 0.9486833
vn 0 -0.7071068 0.7071068
vn 0 0.4472136 0.8944272
vn 0 0 1
vn 0 0 1
vn 0 0 1
vn 0.5732885 0.8193536 0
vn 0.9394519 0.3426808 0
vn 0.6642928 0.2423119 0.7071068
vn 0.9394519 0.3426808 0
vn 0.9394519 0.3426808 0
vn 0.9394519 -0.3426808 0
vn 0.9394519 -0.3426808 0
vn 0.8402714 -0.306503 0.4472136
vn 0.9394519 -0.3426808 0
vn 0 -1 0
vn 0 -1 0
vn 0 -0.8944272 0.4472136
vn 0 -1 0
vn -1 0 0
vn -1 0 0
vn -1 0 0
vn -0.7071068 0 0.7071068
g Mesh14_0
f 3/3/3 2/2/2 1/1/1
f 1/1/1 5/5/5 4/4/4
f 8/8/8 7/7/7 6/6/6
f 11/11/11 10/10/10 9/9/9
f 14/14/14 13/13/13 12/12/12
f 17/17/17 16/16/16 15/15/15
f 19/19/19 16/16/16 18/18/18
f 22/22/22 21/21/21 20/20/20
f 23/23/23 21/21/21 22/22/22
f 26/26/26 25/25/25 24/24/24
f 27/27/27 25/25/25 26/26/26
f 30/30/30 29/29/29 28/28/28
f 31/31/31 29/29/29 30/30/30
