g Mesh54
v -3.153677 1.466937 3.153647
v -3.148466 1.467936 3.101654
v -3.175401 1.465918 3.151358
v -3.134711 1.468358 3.118649
v -3.153677 1.466937 3.153647
v -2.460596 1.6603 2.991238
v -2.424716 1.583452 2.980603
v -2.454855 1.6603 3.010609
v -2.454855 1.6603 3.010609
v -2.418974 1.583452 2.999973
v -2.704972 1.647428 3.063673
v -2.454855 1.6603 3.010609
v -2.704436 1.647154 3.084587
v -2.460596 1.6603 2.991238
v -2.454855 1.6603 3.010609
v -2.82763 1.642309 3.006556
v -2.827093 1.642035 3.027469
v -3.142317 1.625432 3.120904
v -3.142317 1.625432 3.120904
v -3.156072 1.62501 3.103909
v -3.156072 1.62501 3.103909
v -3.142317 1.625432 3.120904
v -3.161282 1.624011 3.155901
v -3.161282 1.624011 3.155901
v -3.183006 1.622993 3.153612
v -3.134978 1.622993 3.315644
v -3.085309 1.62501 3.342642
v -3.077704 1.467936 3.340388
v -2.955972 1.474946 3.262585
v -2.990512 1.630003 3.314543
v -2.963577 1.63202 3.264839
v -2.982906 1.472929 3.312289
v -2.990512 1.630003 3.314543
v -2.982906 1.472929 3.312289
v -3.075432 1.468358 3.318642
v -3.077704 1.467936 3.340388
v -2.996661 1.472507 3.295294
v -3.075432 1.468358 3.318642
v -3.083037 1.625432 3.320896
v -3.110405 1.466937 3.299632
v -3.075432 1.468358 3.318642
v -3.118011 1.624011 3.301886
v -3.110405 1.466937 3.299632
v -3.083037 1.625432 3.320896
v -3.118011 1.624011 3.301886
v -3.153677 1.466937 3.153647
v -3.110405 1.466937 3.299632
v -3.110405 1.466937 3.299632
v -3.153677 1.466937 3.153647
v -3.127373 1.465918 3.31339
v -3.153677 1.466937 3.153647
v -3.175401 1.465918 3.151358
v -3.175401 1.465918 3.151358
v -3.183006 1.622993 3.153612
v -3.127373 1.465918 3.31339
v -3.183006 1.622993 3.153612
v -3.134978 1.622993 3.315644
v -3.127373 1.465918 3.31339
v -3.127373 1.465918 3.31339
v -3.134978 1.622993 3.315644
v -3.077704 1.467936 3.340388
v -3.161282 1.624011 3.155901
v -3.153677 1.466937 3.153647
v -3.118011 1.624011 3.301886
v -3.134711 1.468358 3.118649
v -2.820025 1.485235 3.004302
v -3.148466 1.467936 3.101654
v -2.819488 1.484961 3.025215
v -3.134711 1.468358 3.118649
v -3.075432 1.468358 3.318642
v -2.996661 1.472507 3.295294
v -3.083037 1.625432 3.320896
v -3.083037 1.625432 3.320896
v -2.996661 1.472507 3.295294
v -3.004267 1.629581 3.297548
v -2.995122 1.63202 3.158416
v -2.987517 1.474946 3.156162
v -2.963577 1.63202 3.264839
v -2.963577 1.63202 3.264839
v -2.987517 1.474946 3.156162
v -2.955972 1.474946 3.262585
v -2.955972 1.474946 3.262585
v -2.987517 1.474946 3.156162
v -2.977696 1.473927 3.260296
v -3.006863 1.473927 3.161896
v -2.977696 1.473927 3.260296
v -3.006863 1.473927 3.161896
v -2.987517 1.474946 3.156162
v -3.014468 1.631001 3.16415
v -2.987517 1.474946 3.156162
v -2.995122 1.63202 3.158416
v -3.175401 1.465918 3.151358
v -3.148466 1.467936 3.101654
v -3.156072 1.62501 3.103909
v -3.183006 1.622993 3.153612
v -3.148466 1.467936 3.101654
v -2.820025 1.485235 3.004302
v -3.156072 1.62501 3.103909
v -2.82763 1.642309 3.006556
v -2.704972 1.647428 3.063673
v -2.697367 1.490354 3.061419
v -2.452991 1.503226 2.988984
v -2.424716 1.583452 2.980603
v -2.460596 1.6603 2.991238
v -2.424716 1.583452 2.980603
v -2.452991 1.503226 2.988984
v -2.418974 1.583452 2.999973
v -2.447249 1.503226 3.008354
v -2.447249 1.503226 3.008354
v -2.69683 1.49008 3.082332
v -2.418974 1.583452 2.999973
v -2.704436 1.647154 3.084587
v -2.454855 1.6603 3.010609
v -2.819488 1.484961 3.025215
v -2.827093 1.642035 3.027469
v -3.142317 1.625432 3.120904
v -3.134711 1.468358 3.118649
v -2.82763 1.642309 3.006556
v -2.704436 1.647154 3.084587
v -2.827093 1.642035 3.027469
v -2.704972 1.647428 3.063673
v -3.134711 1.468358 3.118649
v -3.161282 1.624011 3.155901
v -3.142317 1.625432 3.120904
v -3.153677 1.466937 3.153647
v -3.161282 1.624011 3.155901
v -3.118011 1.624011 3.301886
v -3.183006 1.622993 3.153612
v -3.134978 1.622993 3.315644
v -3.118011 1.624011 3.301886
v -3.085309 1.62501 3.342642
v -3.134978 1.622993 3.315644
v -3.083037 1.625432 3.320896
v -3.077704 1.467936 3.340388
v -3.085309 1.62501 3.342642
v -2.990512 1.630003 3.314543
v -2.982906 1.472929 3.312289
v -3.083037 1.625432 3.320896
v -2.990512 1.630003 3.314543
v -3.085309 1.62501 3.342642
v -3.004267 1.629581 3.297548
v -2.985301 1.631001 3.26255
v -2.990512 1.630003 3.314543
v -3.004267 1.629581 3.297548
v -2.963577 1.63202 3.264839
v -3.077704 1.467936 3.340388
v -3.075432 1.468358 3.318642
v -3.110405 1.466937 3.299632
v -3.127373 1.465918 3.31339
v -2.69683 1.49008 3.082332
v -2.820025 1.485235 3.004302
v -2.819488 1.484961 3.025215
v -2.697367 1.490354 3.061419
v -2.447249 1.503226 3.008354
v -2.697367 1.490354 3.061419
v -2.69683 1.49008 3.082332
v -2.452991 1.503226 2.988984
v -3.004267 1.629581 3.297548
v -2.996661 1.472507 3.295294
v -2.985301 1.631001 3.26255
v -2.977696 1.473927 3.260296
v -3.014468 1.631001 3.16415
v -2.985301 1.631001 3.26255
v -2.977696 1.473927 3.260296
v -3.006863 1.473927 3.161896
v -3.014468 1.631001 3.16415
v -2.963577 1.63202 3.264839
v -2.985301 1.631001 3.26255
v -2.995122 1.63202 3.158416
v -2.955972 1.474946 3.262585
v -2.977696 1.473927 3.260296
v -2.982906 1.472929 3.312289
v -2.996661 1.472507 3.295294
vt 0.5462466 0.9823045
vt 0.5436127 0.9834085
vt 0.5467039 0.9834085
vt 0.5440701 0.9823045
vt 0.5462466 0.9823045
vt 0.503424 0.9732777
vt 0.5015935 0.9775747
vt 0.5044397 0.9737104
vt 0.5044397 0.9737104
vt 0.5026092 0.9780074
vt 0.5183854 0.9726064
vt 0.5044397 0.9737104
vt 0.5186825 0.9737104
vt 0.5044397 0.9726064
vt 0.5044397 0.9737104
vt 0.5257843 0.9726064
vt 0.5260813 0.9737104
vt 0.5440701 0.9737104
vt 0.5440701 0.9737104
vt 0.5445274 0.9726064
vt 0.5436127 0.9726064
vt 0.5440701 0.9737104
vt 0.5462466 0.9737104
vt 0.5462466 0.9737104
vt 0.5467039 0.9726064
vt 0.3170113 0.9737343
vt 0.3139201 0.9737343
vt 0.3139201 0.9823284
vt 0.3054192 0.9823284
vt 0.3085104 0.9737343
vt 0.3054192 0.9737343
vt 0.3085104 0.9823284
vt 0.3085104 0.9737343
vt 0.5616959 0.9834085
vt 0.5567434 0.9823045
vt 0.5562861 0.9834085
vt 0.5612385 0.9823045
vt 0.5567434 0.9823045
vt 0.5567434 0.9737104
vt 0.5545669 0.9823045
vt 0.5567434 0.9823045
vt 0.5545669 0.9737104
vt 0.5545669 0.9823045
vt 0.5567434 0.9737104
vt 0.5545669 0.9737104
vt 0.5462466 0.9823045
vt 0.5545669 0.9823045
vt 0.5545669 0.9823045
vt 0.5462466 0.9823045
vt 0.5550241 0.9834085
vt 0.5462466 0.9823045
vt 0.5457893 0.9834085
vt 0.3262461 0.9823284
vt 0.3262461 0.9737343
vt 0.3170113 0.9823284
vt 0.3262461 0.9737343
vt 0.3170113 0.9737343
vt 0.3170113 0.9823284
vt 0.3170113 0.9823284
vt 0.3170113 0.9737343
vt 0.3139201 0.9823284
vt 0.5462466 0.9737104
vt 0.5462466 0.9823045
vt 0.5545669 0.9737104
vt 0.5440701 0.9823045
vt 0.5257843 0.9834085
vt 0.5445274 0.9834085
vt 0.5260813 0.9823045
vt 0.5440701 0.9823045
vt 0.5567434 0.9823045
vt 0.5612385 0.9823045
vt 0.5567434 0.9737104
vt 0.5567434 0.9737104
vt 0.5612385 0.9823045
vt 0.5612385 0.9737104
vt 0.2993537 0.9737343
vt 0.2993537 0.9823284
vt 0.3054192 0.9737343
vt 0.3054192 0.9737343
vt 0.2993537 0.9823284
vt 0.3054192 0.9823284
vt 0.5629578 0.9834085
vt 0.5690233 0.9834085
vt 0.5634151 0.9823045
vt 0.5690233 0.9823045
vt 0.5634151 0.9823045
vt 0.2982498 0.9823284
vt 0.2993537 0.9823284
vt 0.2982498 0.9737343
vt 0.2993537 0.9823284
vt 0.2993537 0.9737343
vt 0.3262461 0.9823284
vt 0.3293372 0.9823284
vt 0.3293372 0.9737343
vt 0.3262461 0.9737343
vt 0.3293372 0.9823284
vt 0.3480802 0.9823284
vt 0.3293372 0.9737343
vt 0.3480802 0.9737343
vt 0.3554791 0.9737343
vt 0.3554791 0.9823284
vt 0.3694248 0.9823284
vt 0.3712554 0.9780313
vt 0.3694248 0.9737343
vt 0.5015935 0.9784401
vt 0.503424 0.9827371
vt 0.5026092 0.9780074
vt 0.5044397 0.9823045
vt 0.5044397 0.9823045
vt 0.5186825 0.9823045
vt 0.5026092 0.9780074
vt 0.5186825 0.9737104
vt 0.5044397 0.9737104
vt 0.5260813 0.9823045
vt 0.5260813 0.9737104
vt 0.5440701 0.9737104
vt 0.5440701 0.9823045
vt 0.5265894 0.9726862
vt 0.5186825 0.9737104
vt 0.5260813 0.9737104
vt 0.5191905 0.9726862
vt 0.5440701 0.9823045
vt 0.5462466 0.9737104
vt 0.5440701 0.9737104
vt 0.5462466 0.9823045
vt 0.5462466 0.9737104
vt 0.5545669 0.9737104
vt 0.5457893 0.9726064
vt 0.5550241 0.9726064
vt 0.5545669 0.9737104
vt 0.5572007 0.9726064
vt 0.5541095 0.9726064
vt 0.5567434 0.9737104
vt 0.3139201 0.9823284
vt 0.3139201 0.9737343
vt 0.3085104 0.9737343
vt 0.3085104 0.9823284
vt 0.5567434 0.9737104
vt 0.5616959 0.9726064
vt 0.5562861 0.9726064
vt 0.5612385 0.9737104
vt 0.5634151 0.9737104
vt 0.5607812 0.9726064
vt 0.5612385 0.9737104
vt 0.5638724 0.9726064
vt 0.5572007 0.9834085
vt 0.5567434 0.9823045
vt 0.5545669 0.9823045
vt 0.5541095 0.9834085
vt 0.5186825 0.9823045
vt 0.5265894 0.9833286
vt 0.5260813 0.9823045
vt 0.5191905 0.9833286
vt 0.5044397 0.9823045
vt 0.5183854 0.9834085
vt 0.5186825 0.9823045
vt 0.5044397 0.9834085
vt 0.5612385 0.9737104
vt 0.5612385 0.9823045
vt 0.5634151 0.9737104
vt 0.5634151 0.9823045
vt 0.5690233 0.9737104
vt 0.5634151 0.9737104
vt 0.5634151 0.9823045
vt 0.5690233 0.9823045
vt 0.5690233 0.9737104
vt 0.5629578 0.9726064
vt 0.5634151 0.9737104
vt 0.5690233 0.9726064
vt 0.5638724 0.9834085
vt 0.5634151 0.9823045
vt 0.5607812 0.9834085
vt 0.5612385 0.9823045
vn 0.3486762 -0.9315274 -0.1033523
vn 0.04835362 -0.9987274 -0.014335
vn 0.04835453 -0.9987274 -0.01433491
vn 0.1703413 -0.89329 0.4159527
vn 0.5713859 -0.8030154 -0.1693651
vn 0.8619889 0.4378282 -0.2555026
vn 0.8619896 0.4378277 -0.2555008
vn 0.6538366 0.7313941 -0.1938048
vn 0.8619896 0.4378277 -0.2555008
vn 0.8619904 0.4378274 -0.2554991
vn -0.04835643 0.9987273 0.01433046
vn 0.2986148 0.9502602 -0.08851483
vn -0.04835573 0.9987274 0.01433008
vn -0.04835586 0.9987273 0.01433319
vn -0.04835643 0.9987273 0.01433046
vn -0.04835607 0.9987273 0.01433231
vn -0.04835626 0.9987273 0.01433484
vn 0.3494203 0.9092382 0.2262553
vn 0.231785 0.9587541 0.1645187
vn -0.04835699 0.9987273 0.01432982
vn -0.04835671 0.9987273 0.01433183
vn 0.1667565 0.7062078 0.6880864
vn 0.2569289 0.9634249 -0.07615691
vn -0.04835591 0.9987273 0.01433209
vn -0.04835423 0.9987274 0.01433207
vn -0.6825836 -0.04351902 0.7295106
vn -0.476137 -0.03566361 0.8786477
vn -0.4761369 -0.03566359 0.8786477
vn 0.8780403 0.03566425 0.4772561
vn 0.6289929 0.01930188 0.7771714
vn 0.9934133 0.0465959 0.1046852
vn 0.8780409 0.03566474 0.477255
vn 0.8780403 0.03566425 0.4772561
vn 0.04835671 -0.9987273 -0.01432948
vn 0.04835597 -0.9987274 -0.01432961
vn 0.0483567 -0.9987273 -0.01432963
vn -0.08384015 -0.89329 -0.4415924
vn 0.1964439 -0.9361991 -0.2914465
vn 0.208577 0.3601348 -0.9092846
vn 0.6825862 0.04351909 -0.7295081
vn 0.3708768 -0.68099 -0.6314295
vn 0.7759068 0.04659685 -0.6291242
vn 0.4761415 0.03566375 -0.8786451
vn 0.4761415 0.03566375 -0.8786451
vn 0.3849784 0.9158441 -0.1141102
vn 0.5713859 -0.8030154 -0.1693651
vn 0.7759068 0.04659685 -0.6291242
vn 0.04835477 -0.9987274 -0.01433109
vn 0.4359208 -0.8773403 0.2006167
vn 0.04835425 -0.9987274 -0.01433261
vn 0.4604934 -0.8871256 0.03088788
vn 0.04835429 -0.9987274 -0.01433262
vn -0.9575486 -0.05043608 0.2838254
vn -0.9575486 -0.05043608 0.2838254
vn -0.8546434 -0.0487988 0.516917
vn -0.9982859 -0.04879886 0.03230733
vn -0.7759053 -0.04659683 0.6291261
vn -0.9575486 -0.05043608 0.2838254
vn -0.7759053 -0.04659681 0.6291263
vn -0.4761369 -0.03566359 0.8786477
vn -0.1038827 -0.01930046 0.9944022
vn 0.6428946 0.7418712 -0.1905613
vn 0.8780826 -0.4015336 -0.2602726
vn 0.8546443 0.04879883 -0.5169157
vn 0.5272826 -0.8112099 0.2528076
vn 0.04835496 -0.9987273 -0.01433534
vn 0.04835452 -0.9987274 -0.01433656
vn 0.04835616 -0.9987273 -0.01433414
vn 0.6550606 -0.6809896 0.3273358
vn -0.2841881 0 -0.9587685
vn -0.2841881 0 -0.9587685
vn -0.2841881 0 -0.9587685
vn -0.0473175 0.3481317 -0.9362506
vn -0.1667573 -0.7062081 -0.6880859
vn -0.2841881 0 -0.9587685
vn 0.9575491 0.05043427 -0.2838241
vn 0.9575487 0.05043518 -0.2838253
vn 0.9982859 0.0487982 -0.03230724
vn 0.9575487 0.05043518 -0.2838253
vn 0.7293653 0.04511081 -0.6826354
vn 0.9575483 0.05043609 -0.2838266
vn 0.04835429 -0.9987274 -0.01433268
vn 0.04835432 -0.9987274 -0.01433268
vn -0.5325715 -0.8463578 0.006773363
vn 0.04835434 -0.9987274 -0.01433268
vn -0.3494215 -0.9092376 -0.2262555
vn -0.2841864 0 -0.9587691
vn 0.1740444 0.02255613 -0.9844794
vn -0.2841864 0 -0.9587691
vn -0.2841864 0 -0.9587691
vn -0.2841864 0 -0.9587691
vn -0.8780397 -0.03566376 -0.4772572
vn -0.8780397 -0.03566377 -0.4772573
vn -0.8780397 -0.03566376 -0.4772572
vn -0.9934133 -0.04659689 -0.1046845
vn -0.2841872 0 -0.9587688
vn 0.07300977 0.01784589 -0.9971716
vn -0.2841872 0 -0.9587688
vn 0.07300977 0.0178459 -0.9971716
vn -0.002354468 0.01423623 -0.9998959
vn 0.07300966 0.01784588 -0.9971716
vn -0.284188 0 -0.9587686
vn -0.284188 0 -0.9587686
vn -0.2841873 0 -0.9587687
vn 0.8998939 -0.3450273 -0.2667339
vn 0.8998929 -0.3450261 -0.2667391
vn 0.8998929 -0.3450261 -0.2667391
vn 0.8998917 -0.345025 -0.2667443
vn 0.2841876 0 0.9587686
vn 0.05219508 -0.01180386 0.9985671
vn 0.2841876 0 0.9587687
vn -0.07300937 -0.01784552 0.9971716
vn 0.2841876 0 0.9587687
vn -0.07300968 -0.0178458 0.9971716
vn -0.07300995 -0.01784575 0.9971716
vn 0.2325579 0.4466447 0.8639591
vn 0.2351415 -0.7062079 0.6678165
vn -0.04835508 0.9987274 0.01433125
vn -0.04835573 0.9987274 0.01433008
vn -0.04835626 0.9987273 0.01433484
vn -0.04835279 0.9987275 0.01432764
vn 0.6550606 -0.6809896 0.3273358
vn 0.8780395 0.03566373 0.4772576
vn 0.3494203 0.9092382 0.2262553
vn 0.4359208 -0.8773403 0.2006167
vn -0.04835591 0.9987273 0.01433209
vn 0.1853282 0.98114 -0.05493214
vn -0.04835425 0.9987274 0.01433261
vn -0.04835421 0.9987274 0.0143326
vn 0.1853282 0.98114 -0.05493214
vn -0.04835592 0.9987273 0.01433468
vn -0.04835386 0.9987274 0.01433303
vn 0.01330614 0.8604938 -0.5092871
vn 0.03296593 -0.01274571 0.9993753
vn 0.2841881 0 0.9587685
vn 0.5169578 0.01274716 0.855916
vn 0.2841852 0 0.9587694
vn -0.04835694 0.9987273 0.01433412
vn -0.04835642 0.9987273 0.01433302
vn -0.04835618 0.9987273 0.01433651
vn -0.04835793 0.9987273 0.01433056
vn -0.0483559 0.9987273 0.01433206
vn -0.04835671 0.9987273 0.01433183
vn -0.04835793 0.9987273 0.01433056
vn -0.04835423 0.9987274 0.01433207
vn 0.04835506 -0.9987274 -0.01433033
vn 0.04835597 -0.9987274 -0.01432961
vn 0.04835477 -0.9987274 -0.01433109
vn 0.04835566 -0.9987274 -0.01433082
vn 0.04835558 -0.9987274 -0.01432985
vn 0.04835486 -0.9987274 -0.0143309
vn 0.04835616 -0.9987273 -0.01433414
vn 0.04835279 -0.9987275 -0.01432764
vn 0.0483564 -0.9987273 -0.01433065
vn 0.0483564 -0.9987273 -0.01433065
vn 0.04835558 -0.9987274 -0.01432985
vn 0.04835578 -0.9987273 -0.01433354
vn -0.8780394 -0.03566373 -0.4772575
vn -0.8780394 -0.03566373 -0.4772575
vn -0.8780394 -0.03566373 -0.4772575
vn -0.3494215 -0.9092376 -0.2262555
vn -0.9575488 -0.05043519 0.2838251
vn -0.9575491 -0.05043609 0.2838238
vn -0.4909178 -0.8589678 0.1455128
vn -0.9575484 -0.05043427 0.2838264
vn -0.04835433 0.9987274 0.01433255
vn -0.04835433 0.9987274 0.01433255
vn -0.0483559 0.9987273 0.01433206
vn -0.04835438 0.9987274 0.01433257
vn 0.04835423 -0.9987274 -0.014332
vn -0.4909178 -0.8589678 0.1455128
vn 0.0483568 -0.9987273 -0.01433174
vn -0.08384015 -0.89329 -0.4415924
g Mesh54_0
f 3/3/3 2/2/2 1/1/1
f 5/5/5 2/2/2 4/4/4
f 8/8/8 7/7/7 6/6/6
f 10/10/10 7/7/7 9/9/9
f 13/13/13 12/12/12 11/11/11
f 11/11/11 15/15/15 14/14/14
f 18/18/18 17/17/17 16/16/16
f 20/20/20 19/19/19 16/16/16
f 23/23/23 22/22/22 21/21/21
f 25/25/25 24/24/24 21/21/21
f 28/28/28 27/27/27 26/26/26
f 31/31/31 30/30/30 29/29/29
f 33/33/33 32/32/32 29/29/29
f 36/36/36 35/35/35 34/34/34
f 38/38/38 37/37/37 34/34/34
f 41/41/41 40/40/40 39/39/39
f 44/44/44 43/43/43 42/42/42
f 47/47/47 46/46/46 45/45/45
f 50/50/50 49/49/49 48/48/48
f 50/50/50 52/52/52 51/51/51
f 55/55/55 54/54/54 53/53/53
f 58/58/58 57/57/57 56/56/56
f 61/61/61 60/60/60 59/59/59
f 64/64/64 63/63/63 62/62/62
f 67/67/67 66/66/66 65/65/65
f 69/69/69 66/66/66 68/68/68
f 72/72/72 71/71/71 70/70/70
f 75/75/75 74/74/74 73/73/73
f 78/78/78 77/77/77 76/76/76
f 81/81/81 80/80/80 79/79/79
f 84/84/84 83/83/83 82/82/82
f 86/86/86 85/85/85 83/83/83
f 89/89/89 88/88/88 87/87/87
f 91/91/91 90/90/90 89/89/89
f 94/94/94 93/93/93 92/92/92
f 94/94/94 92/92/92 95/95/95
f 98/98/98 97/97/97 96/96/96
f 99/99/99 97/97/97 98/98/98
f 100/100/100 97/97/97 99/99/99
f 100/100/100 101/101/101 97/97/97
f 100/100/100 102/102/102 101/101/101
f 100/100/100 103/103/103 102/102/102
f 104/104/104 103/103/103 100/100/100
f 107/107/107 106/106/106 105/105/105
f 107/107/107 108/108/108 106/106/106
f 111/111/111 110/110/110 109/109/109
f 112/112/112 110/110/110 111/111/111
f 113/113/113 112/112/112 111/111/111
f 112/112/112 114/114/114 110/110/110
f 112/112/112 115/115/115 114/114/114
f 115/115/115 116/116/116 114/114/114
f 116/116/116 117/117/117 114/114/114
f 120/120/120 119/119/119 118/118/118
f 118/118/118 119/119/119 121/121/121
f 124/124/124 123/123/123 122/122/122
f 123/123/123 125/125/125 122/122/122
f 128/128/128 127/127/127 126/126/126
f 129/129/129 127/127/127 128/128/128
f 132/132/132 131/131/131 130/130/130
f 130/130/130 131/131/131 133/133/133
f 136/136/136 135/135/135 134/134/134
f 136/136/136 134/134/134 137/137/137
f 140/140/140 139/139/139 138/138/138
f 138/138/138 139/139/139 141/141/141
f 144/144/144 143/143/143 142/142/142
f 143/143/143 145/145/145 142/142/142
f 148/148/148 147/147/147 146/146/146
f 149/149/149 148/148/148 146/146/146
f 152/152/152 151/151/151 150/150/150
f 151/151/151 153/153/153 150/150/150
f 156/156/156 155/155/155 154/154/154
f 155/155/155 157/157/157 154/154/154
f 160/160/160 159/159/159 158/158/158
f 160/160/160 161/161/161 159/159/159
f 164/164/164 163/163/163 162/162/162
f 164/164/164 162/162/162 165/165/165
f 168/168/168 167/167/167 166/166/166
f 166/166/166 167/167/167 169/169/169
f 172/172/172 171/171/171 170/170/170
f 173/173/173 171/171/171 172/172/172
