g Mesh45
v -1.751694 2.715494 3.542032
v -1.784798 2.715497 3.561688
v -1.751692 2.767494 3.54203
v -1.784796 2.767497 3.561686
v -1.756715 2.794997 3.608978
v -1.751692 2.767494 3.54203
v -1.784796 2.767497 3.561686
v -1.72361 2.794994 3.589322
v -1.723588 3.248875 3.589308
v -1.756692 3.248877 3.608964
v -1.751666 3.276375 3.542016
v -1.784771 3.276377 3.561672
v -1.751666 3.276375 3.542016
v -1.784771 3.276377 3.561672
v -1.751664 3.328375 3.542014
v -1.784768 3.328377 3.56167
vt 0.9048173 0.9829157
vt 0.9048173 0.9808119
vt 0.9019759 0.9829157
vt 0.9019759 0.9808119
vt 0.8986157 0.9808119
vt 0.9019759 0.9829157
vt 0.9019759 0.9808119
vt 0.8986157 0.9829157
vt 0.8738139 0.9829157
vt 0.8738139 0.9808119
vt 0.8704537 0.9829157
vt 0.8704537 0.9808119
vt 0.8704537 0.9829157
vt 0.8704537 0.9808119
vt 0.8676122 0.9829157
vt 0.8676122 0.9808119
vn 0.5105419 0 0.8598528
vn 0.5105419 0 0.8598529
vn 0.5105419 0 0.8598529
vn 0.5105419 0 0.8598529
vn 0.4342681 -0.5257319 0.7314487
vn 0.2282758 -0.894428 0.384563
vn 0.2282718 -0.894429 0.3845631
vn 0.4342684 -0.5257308 0.7314492
vn 0.4795372 0.3432793 0.8075911
vn 0.3712406 0.6865577 0.6251552
vn 0.2283677 0.8944277 0.3845094
vn 0.2283712 0.8944268 0.3845094
vn 0.5105459 0 0.8598505
vn 0.5105459 0 0.8598505
vn 0.5105459 0 0.8598505
vn 0.5105459 0 0.8598505
g Mesh45_0
f 3/3/3 2/2/2 1/1/1
f 4/4/4 2/2/2 3/3/3
f 7/7/7 6/6/6 5/5/5
f 5/5/5 6/6/6 8/8/8
f 9/9/9 5/5/5 8/8/8
f 10/10/10 5/5/5 9/9/9
f 10/10/10 9/9/9 11/11/11
f 10/10/10 11/11/11 12/12/12
f 15/15/15 14/14/14 13/13/13
f 16/16/16 14/14/14 15/15/15
