g Mesh48
v -1.929039 2.715506 3.647332
v -1.962143 2.715508 3.666987
v -1.929036 2.767506 3.64733
v -1.96214 2.767508 3.666986
v -1.934059 2.795008 3.714277
v -1.929036 2.767506 3.64733
v -1.96214 2.767508 3.666986
v -1.900955 2.795006 3.694621
v -1.900933 3.248887 3.694608
v -1.934037 3.248889 3.714264
v -1.929011 3.276387 3.647315
v -1.962115 3.276389 3.666971
v -1.929011 3.276387 3.647315
v -1.962115 3.276389 3.666971
v -1.929008 3.328387 3.647314
v -1.962113 3.328389 3.66697
vt 0.9861549 0.9829157
vt 0.9861549 0.9808119
vt 0.9833133 0.9829157
vt 0.9833133 0.9808119
vt 0.9799532 0.9808119
vt 0.9833133 0.9829157
vt 0.9833133 0.9808119
vt 0.9799532 0.9829157
vt 0.9551513 0.9829157
vt 0.9551513 0.9808119
vt 0.9517912 0.9829157
vt 0.9517912 0.9808119
vt 0.9517912 0.9829157
vt 0.9517912 0.9808119
vt 0.9489497 0.9829157
vt 0.9489497 0.9808119
vn 0.5105419 0 0.8598528
vn 0.5105448 0 0.8598511
vn 0.5105448 0 0.8598511
vn 0.5105476 0 0.8598496
vn 0.4342693 -0.5257307 0.7314488
vn 0.2282815 -0.8944266 0.3845629
vn 0.2282832 -0.8944262 0.3845628
vn 0.4342684 -0.5257311 0.7314491
vn 0.4795365 0.343278 0.807592
vn 0.3712364 0.6865577 0.6251577
vn 0.2283651 0.8944277 0.3845109
vn 0.2283607 0.8944287 0.3845111
vn 0.5105402 0 0.8598539
vn 0.5105402 0 0.8598539
vn 0.5105402 0 0.8598539
vn 0.5105402 0 0.8598539
g Mesh48_0
f 3/3/3 2/2/2 1/1/1
f 4/4/4 2/2/2 3/3/3
f 7/7/7 6/6/6 5/5/5
f 5/5/5 6/6/6 8/8/8
f 9/9/9 5/5/5 8/8/8
f 10/10/10 5/5/5 9/9/9
f 10/10/10 9/9/9 11/11/11
f 10/10/10 11/11/11 12/12/12
f 15/15/15 14/14/14 13/13/13
f 16/16/16 14/14/14 15/15/15
