g Mesh09
v -0.4988929 2.284043 2.451351
v -0.4988929 2.525293 2.430452
v -0.4988929 2.525293 2.451351
v -0.4988929 2.284043 2.430452
v -0.4988929 2.284043 2.451351
v -0.4988929 2.525293 2.430452
v -0.2023929 2.525293 2.451351
v -0.4988929 2.525293 2.451351
v -0.2023929 2.525293 2.430452
v -0.2023929 2.525293 2.451351
v -0.1583929 2.404668 2.430452
v -0.2023929 2.284043 2.430452
v -0.1583929 2.404668 2.451351
v -0.1583929 2.404668 2.451351
v -0.2023929 2.284043 2.451351
v -0.2023929 2.284043 2.451351
v -0.2023929 2.284043 2.430452
v -0.4988929 2.284043 2.451351
v -0.4988929 2.284043 2.451351
v -0.4988929 2.284043 2.430452
v -0.2023929 2.525293 2.451351
v -0.1583929 2.404668 2.451351
v -0.4988929 2.525293 2.451351
v -0.4988929 2.284043 2.451351
v -0.2023929 2.284043 2.451351
v -0.2023929 2.525293 2.451351
v -0.1583929 2.404668 2.430452
v -0.1583929 2.404668 2.451351
v -0.2023929 2.525293 2.430452
vt 0.1000606 0.9913667
vt 0.1012026 0.9781839
vt 0.1000606 0.9781839
vt 0.1012026 0.9913667
vt 0.1000606 0.9913667
vt 0.1000606 0.9770419
vt 0.08385867 0.9781839
vt 0.1000606 0.9781839
vt 0.08385867 0.9770419
vt 0.08385867 0.9781839
vt 0.08038148 0.9851667
vt 0.08278582 0.9917581
vt 0.08145434 0.9847754
vt 0.08145434 0.9847754
vt 0.08385867 0.9913667
vt 0.08385867 0.9913667
vt 0.08385867 0.9925088
vt 0.1000606 0.9913667
vt 0.1000606 0.9913667
vt 0.1000606 0.9925088
vt 0.08385867 0.9781839
vt 0.08145434 0.9847754
vt 0.1000606 0.9781839
vt 0.1000606 0.9913667
vt 0.08385867 0.9913667
vt 0.08385867 0.9781839
vt 0.08038148 0.984384
vt 0.08145434 0.9847754
vt 0.08278582 0.9777926
vn -0.8944272 -0.4472136 0
vn -1 0 0
vn -1 0 0
vn -1 0 0
vn -0.6666667 -0.3333333 0.6666667
vn 0 1 0
vn 0 1 0
vn 0 1 0
vn 0 1 0
vn 0 0.8944272 0.4472136
vn 0.9394519 -0.3426808 0
vn 0.9394519 -0.3426808 0
vn 0.5211141 -0.1900851 0.8320503
vn 0.9394519 -0.3426808 0
vn 0.9394519 -0.3426808 0
vn 0 -1 0
vn 0 -1 0
vn -0.7071068 -0.7071068 0
vn 0 -1 0
vn 0 -1 0
vn 0 0.7071068 0.7071068
vn 0.2970808 -0.1083652 0.9486833
vn 0 0 1
vn -0.4472136 0 0.8944272
vn 0 0 1
vn 0.9394519 0.3426808 0
vn 0.9394519 0.3426808 0
vn 0.9394519 0.3426808 0
vn 0.9394519 0.3426808 0
g Mesh09_0
f 3/3/3 2/2/2 1/1/1
f 5/5/5 2/2/2 4/4/4
f 8/8/8 7/7/7 6/6/6
f 6/6/6 10/10/10 9/9/9
f 13/13/13 12/12/12 11/11/11
f 15/15/15 12/12/12 14/14/14
f 18/18/18 17/17/17 16/16/16
f 20/20/20 17/17/17 19/19/19
f 23/23/23 22/22/22 21/21/21
f 23/23/23 24/24/24 22/22/22
f 22/22/22 24/24/24 25/25/25
f 28/28/28 27/27/27 26/26/26
f 26/26/26 27/27/27 29/29/29
