g Mesh02
v -0.1321112 0.04005051 2.047477
v -0.2218193 0.05586406 2.047477
v -0.1876905 0.08055051 2.047477
v -0.1451555 1.804779E-15 2.047477
v -0.2218193 0.05586406 2.047477
v -0.491487 0.8938091 1.616152
v -0.4573581 0.9184955 1.616152
v -0.5259817 0.918945 1.616152
v -0.5259817 0.918945 1.616152
v -0.5129374 0.9589955 1.616152
v -0.491487 0.8938091 1.616152
v -0.1876905 0.08055051 1.616152
v -0.4573581 0.9184955 1.616152
v -0.2218193 0.05586406 1.616152
v -0.491487 0.8938091 1.616152
v 0.2270026 1.804779E-15 2.047477
v -0.1451555 1.804779E-15 2.047477
v -0.1321112 0.04005051 2.047477
v 0.2104131 0.04005051 2.047477
v 0.2270026 1.804779E-15 2.047477
v -0.1451555 1.804779E-15 1.616152
v 0.2270026 1.804779E-15 1.616152
v 0.2104131 0.04005051 1.616152
v -0.1321112 0.04005051 1.616152
v -0.1451555 1.804779E-15 1.616152
v 0.2104131 0.04005051 1.616152
v 0.2270026 1.804779E-15 1.616152
v 0.2909636 0.06396104 1.616152
v 0.2909636 0.06396104 1.616152
v 0.2509131 0.08055051 1.616152
v 0.2909636 0.06396104 2.047477
v 0.2909636 0.06396104 1.616152
v 0.2270026 1.804779E-15 1.616152
v 0.2104131 0.04005051 1.616152
v 0.2509131 0.08055051 1.616152
v 0.2509131 0.08055051 2.047477
v 0.2104131 0.04005051 2.047477
v 0.2509131 0.08055051 2.047477
v 0.2104131 0.04005051 1.616152
v 0.2104131 0.04005051 2.047477
v -0.1321112 0.04005051 2.047477
v -0.1321112 0.04005051 1.616152
v 0.2104131 0.04005051 1.616152
v 0.2270026 1.804779E-15 2.047477
v 0.2909636 0.06396104 2.047477
v 0.2270026 1.804779E-15 1.616152
v -0.1451555 1.804779E-15 2.047477
v -0.1451555 1.804779E-15 1.616152
v -0.2218193 0.05586406 1.616152
v -0.2218193 0.05586406 2.047477
v -0.1451555 1.804779E-15 1.616152
v -0.1321112 0.04005051 1.616152
v -0.2218193 0.05586406 1.616152
v -0.1876905 0.08055051 1.616152
v -0.1876905 0.08055051 1.616152
v -0.1321112 0.04005051 1.616152
v -0.1876905 0.08055051 2.047477
v -0.1321112 0.04005051 2.047477
v -0.1876905 0.08055051 2.047477
v -0.2218193 0.05586406 2.047477
v -0.491487 0.8938091 2.047477
v -0.4573581 0.9184955 2.047477
v -0.2218193 0.05586406 2.047477
v -0.2218193 0.05586406 1.616152
v -0.491487 0.8938091 2.047477
v -0.491487 0.8938091 1.616152
v -0.491487 0.8938091 2.047477
v -0.491487 0.8938091 1.616152
v -0.5259817 0.918945 1.616152
v -0.5259817 0.918945 2.047477
v -0.5129374 0.9589955 1.616152
v -0.4573581 0.9184955 1.616152
v -0.5129374 0.9589955 2.047477
v -0.4573581 0.9184955 2.047477
v -0.4573581 0.9184955 2.047477
v -0.5259817 0.918945 2.047477
v -0.5129374 0.9589955 2.047477
v -0.491487 0.8938091 2.047477
v -0.5129374 0.9589955 2.047477
v -0.5259817 0.918945 2.047477
v -0.8733669 0.9589955 2.047477
v -0.8733669 0.918945 2.047477
v -0.8733669 0.918945 2.047477
v -0.8733669 0.918945 1.616152
v -0.8733669 0.9589955 2.047477
v -0.8733669 0.9589955 1.616152
v -0.8733669 0.9589955 1.616152
v -0.8733669 0.918945 1.616152
v -0.5129374 0.9589955 1.616152
v -0.5259817 0.918945 1.616152
v -0.5259817 0.918945 2.047477
v -0.5259817 0.918945 1.616152
v -0.8733669 0.918945 1.616152
v -0.8733669 0.918945 2.047477
v -0.4573581 0.9184955 2.047477
v -0.4573581 0.9184955 1.616152
v -0.1876905 0.08055051 2.047477
v -0.1876905 0.08055051 1.616152
v -0.1451555 1.804779E-15 2.047477
v 0.2270026 1.804779E-15 2.047477
v -0.1451555 1.804779E-15 1.616152
v 0.2270026 1.804779E-15 1.616152
v 0.2909636 1.285021 1.616152
v 0.2909636 0.06396104 1.616152
v 0.2909636 0.06396104 2.047477
v 0.2909636 1.285021 2.047477
v 0.2509131 0.08055051 1.616152
v 0.2909636 0.06396104 1.616152
v 0.2909636 1.285021 1.616152
v 0.2509131 1.285021 1.616152
v 0.2509131 0.08055051 2.047477
v 0.2509131 0.08055051 1.616152
v 0.2509131 1.285021 2.047477
v 0.2509131 1.285021 1.616152
v 0.2509131 1.285021 1.616152
v 0.2909636 1.285021 1.616152
v 0.2509131 1.285021 2.047477
v 0.2909636 1.285021 2.047477
v 0.2909636 1.285021 2.047477
v 0.2509131 0.08055051 2.047477
v 0.2509131 1.285021 2.047477
v 0.2909636 0.06396104 2.047477
v 0.2909636 0.06396104 2.047477
v 0.2104131 0.04005051 2.047477
v 0.2509131 0.08055051 2.047477
v 0.2270026 1.804779E-15 2.047477
vt 0.09975768 0.9177715
vt 0.1042283 0.91996
vt 0.1035155 0.9177715
vt 0.09904489 0.91996
vt 0.1042283 0.91996
vt 0.1523297 0.9435293
vt 0.1516169 0.9457178
vt 0.154662 0.9435293
vt 0.154662 0.9435293
vt 0.1553748 0.9457178
vt 0.1523297 0.9435293
vt 0.1049411 0.9457178
vt 0.1530425 0.9457178
vt 0.1042283 0.9435293
vt 0.1523297 0.9435293
vt 0.07870869 0.91996
vt 0.09904489 0.91996
vt 0.09833209 0.9177715
vt 0.0796152 0.9177715
vt 0.07870869 0.91996
vt 0.09904489 0.9435293
vt 0.07870869 0.9435293
vt 0.0796152 0.9457178
vt 0.09833209 0.9457178
vt 0.09904489 0.9435293
vt 0.07780217 0.9457178
vt 0.07870869 0.9435293
vt 0.07376589 0.9435293
vt 0.07376589 0.9435293
vt 0.0746724 0.9457178
vt 0.07376589 0.91996
vt 0.07376589 0.9435293
vt 0.07870869 0.9435293
vt 0.3700081 0.9630984
vt 0.3731379 0.9630984
vt 0.3731379 0.9395291
vt 0.3700081 0.9395291
vt 0.3731379 0.9395291
vt 0.3700081 0.9630984
vt 0.3700081 0.9395291
vt 0.3512912 0.9395291
vt 0.3512912 0.9630984
vt 0.3700081 0.9630984
vt 0.07870869 0.91996
vt 0.07376589 0.91996
vt 0.07870869 0.9435293
vt 0.09904489 0.91996
vt 0.09904489 0.9435293
vt 0.1042283 0.9435293
vt 0.1042283 0.91996
vt 0.09904489 0.9435293
vt 0.09975768 0.9457178
vt 0.1042283 0.9435293
vt 0.1035155 0.9457178
vt 0.3475333 0.9630984
vt 0.3512912 0.9630984
vt 0.3475333 0.9395291
vt 0.3512912 0.9395291
vt 0.1049411 0.9177715
vt 0.1042283 0.91996
vt 0.1523297 0.91996
vt 0.1530425 0.9177715
vt 0.1042283 0.91996
vt 0.1042283 0.9435293
vt 0.1523297 0.91996
vt 0.1523297 0.9435293
vt 0.1523297 0.91996
vt 0.1523297 0.9435293
vt 0.154662 0.9435293
vt 0.154662 0.91996
vt 0.2956741 0.9630984
vt 0.2994319 0.9630984
vt 0.2956741 0.9395291
vt 0.2994319 0.9395291
vt 0.1516169 0.9177715
vt 0.154662 0.91996
vt 0.1553748 0.9177715
vt 0.1523297 0.91996
vt 0.1539492 0.9177715
vt 0.154662 0.91996
vt 0.1736445 0.9177715
vt 0.1736445 0.91996
vt 0.1736445 0.91996
vt 0.1736445 0.9435293
vt 0.175833 0.91996
vt 0.175833 0.9435293
vt 0.1736445 0.9457178
vt 0.1736445 0.9435293
vt 0.1539492 0.9457178
vt 0.154662 0.9435293
vt 0.154662 0.91996
vt 0.154662 0.9435293
vt 0.1736445 0.9435293
vt 0.1736445 0.91996
vt 0.2994319 0.9395291
vt 0.2994319 0.9630984
vt 0.3475333 0.9395291
vt 0.3475333 0.9630984
vt 0.09904489 0.91996
vt 0.07870869 0.91996
vt 0.09904489 0.9435293
vt 0.07870869 0.9435293
vt 0.007042327 0.9435293
vt 0.07376589 0.9435293
vt 0.07376589 0.91996
vt 0.007042327 0.91996
vt 0.07285937 0.9457178
vt 0.07376589 0.9435293
vt 0.007042327 0.9435293
vt 0.007042327 0.9457178
vt 0.3731379 0.9395291
vt 0.3731379 0.9630984
vt 0.4389549 0.9395291
vt 0.4389549 0.9630984
vt 0.004853807 0.9435293
vt 0.007042327 0.9435293
vt 0.004853807 0.91996
vt 0.007042327 0.91996
vt 0.007042327 0.91996
vt 0.07285937 0.9177715
vt 0.007042327 0.9177715
vt 0.07376589 0.91996
vt 0.07376589 0.91996
vt 0.07780217 0.9177715
vt 0.0746724 0.9177715
vt 0.07870869 0.91996
vn 0 0 1
vn 0 0 1
vn 0 0 1
vn 0 -0.4472136 0.8944272
vn -0.3010235 -0.09687547 0.9486833
vn -0.3010235 -0.09687547 -0.9486833
vn 0 0 -1
vn 0 -0.3162278 -0.9486833
vn 0 0 -1
vn 0 0 -1
vn -0.4338005 -0.3137817 -0.8446053
vn 0 0 -1
vn 0 0 -1
vn -0.326674 -0.448304 -0.8320503
vn -0.1862328 -0.2555726 -0.9486833
vn 0.3162278 -0.3162277 0.8944272
vn 0 0 1
vn 0 0 1
vn 0 0 1
vn 0.2236068 -0.2236068 0.9486833
vn -0.263373 -0.3614342 -0.8944272
vn 0.3162278 -0.3162277 -0.8944272
vn 0 0 -1
vn 0 0 -1
vn -0.1418661 -0.6764711 -0.7226762
vn 0 0 -1
vn 0.3162278 -0.3162277 -0.8944272
vn 0.4472136 0 -0.8944272
vn 0.4845082 -0.2006898 -0.8514549
vn 0 0 -1
vn 0.3922323 -0.3922322 0.8320503
vn 0.3162278 -0.3162277 -0.8944272
vn 0.5054495 -0.8628561 0
vn -0.5054495 0.8628561 0
vn -0.7071068 0.7071068 0
vn -0.7071068 0.7071068 0
vn -0.7071068 0.7071068 0
vn -0.8628561 0.5054495 0
vn 0 1 0
vn 0 1 0
vn 0 1 0
vn 0 1 0
vn -0.3826834 0.9238795 0
vn 0.3162278 -0.3162277 0.8944272
vn 0.9238795 -0.3826833 0
vn 0.5000001 -0.4999999 -0.7071068
vn -0.5889198 -0.8081915 0
vn -0.263373 -0.3614342 -0.8944272
vn -0.5267459 -0.7228684 -0.4472136
vn -0.5889198 -0.8081915 0
vn 0 -0.7071068 -0.7071068
vn 0 0 -1
vn 0 0 -1
vn 0 0 -1
vn 0.5889198 0.8081915 0
vn 0.5889198 0.8081915 0
vn 0.5889198 0.8081915 0
vn 0.5889198 0.8081915 0
vn 0 0 1
vn 0 0 1
vn 0 0 1
vn 0 0 1
vn -0.673109 -0.2166201 0.7071068
vn -0.9519199 -0.3063471 0
vn -0.9519199 -0.3063471 0
vn -0.4257115 -0.1370026 -0.8944272
vn -0.5889199 -0.8081914 0
vn -0.263373 -0.3614342 -0.8944272
vn -0.5889199 -0.8081914 0
vn -0.5889199 -0.8081914 0
vn 0.5889199 0.8081915 0
vn 0.5889199 0.8081915 0
vn 0.5889199 0.8081915 0
vn 0.5889199 0.8081915 0
vn 0 0 1
vn 0 0 1
vn 0 0 1
vn 0 0 1
vn 0 0 1
vn 0 0 1
vn 0 0 1
vn 0 0 1
vn -1 0 0
vn -1 0 0
vn -1 0 0
vn -1 0 0
vn 0 0 -1
vn 0 0 -1
vn 0 0 -1
vn 0 0 -1
vn 0 -1 0
vn 0 -0.7071068 -0.7071068
vn 0 -1 0
vn 0 -1 0
vn 0.95192 0.306347 0
vn 0.95192 0.306347 0
vn 0.95192 0.306347 0
vn 0.95192 0.306347 0
vn 0 -0.7071068 0.7071068
vn 0 -0.8944272 0.4472136
vn 0 -0.7071068 -0.7071068
vn 0.3826835 -0.9238795 0
vn 1 0 0
vn 0.4472136 0 -0.8944272
vn 0.9675382 -0.2527247 0
vn 1 0 0
vn 0 0 -1
vn 0.3162278 -0.3162277 -0.8944272
vn 0 0 -1
vn 0 0 -1
vn -0.9238795 0.3826834 0
vn -1 0 0
vn -1 0 0
vn -1 0 0
vn 0 1 0
vn 0 1 0
vn 0 1 0
vn 0 1 0
vn 0 0 1
vn 0 0 1
vn 0 0 1
vn 0.2236068 -0.2236068 0.9486833
vn 0.2236068 -0.2236068 0.9486833
vn 0 0 1
vn 0 0 1
vn 0 -0.7071068 0.7071068
g Mesh02_0
f 3/3/3 2/2/2 1/1/1
f 5/5/5 4/4/4 1/1/1
f 8/8/8 7/7/7 6/6/6
f 10/10/10 7/7/7 9/9/9
f 13/13/13 12/12/12 11/11/11
f 15/15/15 12/12/12 14/14/14
f 18/18/18 17/17/17 16/16/16
f 18/18/18 20/20/20 19/19/19
f 23/23/23 22/22/22 21/21/21
f 23/23/23 25/25/25 24/24/24
f 28/28/28 27/27/27 26/26/26
f 30/30/30 29/29/29 26/26/26
f 33/33/33 32/32/32 31/31/31
f 36/36/36 35/35/35 34/34/34
f 38/38/38 34/34/34 37/37/37
f 41/41/41 40/40/40 39/39/39
f 41/41/41 43/43/43 42/42/42
f 46/46/46 45/45/45 44/44/44
f 49/49/49 48/48/48 47/47/47
f 49/49/49 47/47/47 50/50/50
f 53/53/53 52/52/52 51/51/51
f 54/54/54 52/52/52 53/53/53
f 57/57/57 56/56/56 55/55/55
f 57/57/57 58/58/58 56/56/56
f 61/61/61 60/60/60 59/59/59
f 62/62/62 61/61/61 59/59/59
f 65/65/65 64/64/64 63/63/63
f 65/65/65 66/66/66 64/64/64
f 69/69/69 68/68/68 67/67/67
f 69/69/69 67/67/67 70/70/70
f 73/73/73 72/72/72 71/71/71
f 73/73/73 74/74/74 72/72/72
f 77/77/77 76/76/76 75/75/75
f 76/76/76 78/78/78 75/75/75
f 81/81/81 80/80/80 79/79/79
f 81/81/81 82/82/82 80/80/80
f 85/85/85 84/84/84 83/83/83
f 85/85/85 86/86/86 84/84/84
f 89/89/89 88/88/88 87/87/87
f 89/89/89 90/90/90 88/88/88
f 93/93/93 92/92/92 91/91/91
f 93/93/93 91/91/91 94/94/94
f 97/97/97 96/96/96 95/95/95
f 97/97/97 98/98/98 96/96/96
f 101/101/101 100/100/100 99/99/99
f 101/101/101 102/102/102 100/100/100
f 105/105/105 104/104/104 103/103/103
f 105/105/105 103/103/103 106/106/106
f 109/109/109 108/108/108 107/107/107
f 109/109/109 107/107/107 110/110/110
f 113/113/113 112/112/112 111/111/111
f 113/113/113 114/114/114 112/112/112
f 117/117/117 116/116/116 115/115/115
f 117/117/117 118/118/118 116/116/116
f 121/121/121 120/120/120 119/119/119
f 119/119/119 120/120/120 122/122/122
f 125/125/125 124/124/124 123/123/123
f 123/123/123 124/124/124 126/126/126
