g MetalStick
v -0.0003078553 -0.00143711 -0.001220875
v -0.0003153236 -0.001613339 -0.00100049
v -1.860355E-05 -0.001478663 -0.001226503
v -0.0002005645 -0.001750035 -0.0007836258
v 0.0001476457 -0.001752613 -0.0007795316
v 0.0002822526 -0.001574126 -0.001061747
v 0.0002601521 -0.001437884 -0.001219751
v 0.0002452364 -0.001726037 -0.0007546496
v 0.0001697207 -0.001745871 -0.000723297
v -1.860355E-05 -0.001744874 -0.0007683205
v -0.0002145026 -0.001748961 -0.0007295805
v -0.0002894734 -0.001712505 -0.0007665413
v -0.0003002841 -0.0008681625 -0.0002003896
v -0.0003176213 -0.0007974618 -0.0002546805
v -1.860355E-05 -0.0002000654 0.0002499914
v -0.000257973 -7.846832E-05 0.000296396
v -0.00032131 -0.001045728 -0.0007749039
v -0.0003078553 -0.00143711 -0.001220875
v -0.0002812994 -0.001022001 -0.0009638613
v -0.0003169179 -0.0006915623 -0.000718736
v -0.0002752733 -0.0003732872 -0.0005682528
v -0.0003231819 -0.0001138806 -0.0002088684
v -0.0003197408 -0.0002978611 -0.0004098791
v -0.000305811 0.0007674157 0.0001730668
v -0.0002772184 0.0009523224 0.0002716315
v -0.0003184889 0.00108654 0.0004858065
v -1.860355E-05 -0.001551356 -0.000592277
v -1.860355E-05 -0.001744874 -0.0007683205
v 0.0001697207 -0.001745871 -0.000723297
v -0.0003246879 0.001526539 0.001067044
v -0.000322108 0.001479683 0.0006435096
v -0.0002884975 0.001787093 0.0007858836
v -0.0003206868 0.001691804 0.0009882282
v -0.0002834859 0.001478086 0.001268809
v -0.0002715928 0.001148168 0.001080954
v 0.0002519446 -0.001002953 -0.0002737576
v 0.0002754292 -0.00107461 -0.0003831315
v 0.0002452364 -0.001726037 -0.0007546496
v 0.0002772724 -0.0005313724 -8.867025E-05
v 0.0002353628 -0.0002329534 0.0001863444
v 0.0002822526 -0.001574126 -0.001061747
v 0.00028484 -0.0006997466 -0.0005359602
v 0.0002601521 -0.001437884 -0.001219751
v 0.0002536806 -0.000513584 -0.0006495899
v 0.0002359583 0.0008545482 0.0008941066
v -1.860355E-05 0.001384112 0.001241454
v 0.0002780443 0.0007949674 0.0007734263
v 0.0002807144 0.001566569 0.0007322967
v 0.0002878356 0.001210797 0.0008891034
v 0.0002469406 0.001476674 0.001268998
v -1.860355E-05 0.001473329 0.001264187
v -1.860355E-05 0.001535815 0.001234907
v -0.0003206868 0.001691804 0.0009882282
v 0.0002860727 0.001484586 0.001083796
v 0.0002815546 0.001709818 0.0009598517
v 0.0002815546 0.001709818 0.0009598517
v 0.0002639698 0.001781639 0.0007910383
v -1.860355E-05 0.001806853 0.0007945144
v -0.0002884975 0.001787093 0.0007858836
v 0.0002639698 0.001781639 0.0007910383
v 0.0002474594 0.001666098 0.0007074451
v -1.860355E-05 0.001806853 0.0007945144
v 0.0002792179 0.0007862055 0.0002249849
v 0.0002303978 0.0006854236 9.678602E-05
v 0.0002867541 0.0002145064 -3.538847E-05
v 0.0002683774 0.0003141445 -0.0001192737
v 0.0002282963 -6.016433E-05 -0.0003721845
v -1.860355E-05 2.530217E-06 -0.000337528
v 0.0002695269 -4.79126E-05 -0.0003187316
v -0.0002772184 0.0009523224 0.0002716315
v -0.0002884975 0.001787093 0.0007858836
v -0.0002752733 -0.0003732872 -0.0005682528
v 0.0002852761 -0.0004531777 -0.0004651952
v -1.860355E-05 -0.001288138 -0.001148448
v -0.0002812994 -0.001022001 -0.0009638613
v -0.0003078553 -0.00143711 -0.001220875
v -1.860355E-05 -0.001478663 -0.001226503
vt 0.3398328 0.8314945
vt 0.3354838 0.8288515
vt 0.3369333 0.8360232
vt 0.3302652 0.82872
vt 0.3271181 0.8338875
vt 0.331042 0.8389794
vt 0.3345033 0.8405847
vt 0.3259401 0.8352988
vt 0.3260505 0.8337371
vt 0.3283933 0.8312799
vt 0.3295075 0.8278942
vt 0.3310778 0.8274444
vt 0.3309693 0.8095362
vt 0.3324356 0.8089842
vt 0.3260393 0.7951001
vt 0.330508 0.792754
vt 0.3377789 0.8178654
vt 0.3406046 0.8283002
vt 0.3410003 0.8193381
vt 0.3403109 0.8119082
vt 0.341417 0.8056188
vt 0.338243 0.7981907
vt 0.3395182 0.8029435
vt 0.3408242 0.7812634
vt 0.3413894 0.7774926
vt 0.3391635 0.773298
vt 0.3260196 0.8236488
vt 0.3260337 0.8283368
vt 0.3226622 0.8278309
vt 0.3344739 0.7609229
vt 0.340438 0.7657475
vt 0.341417 0.7596624
vt 0.337253 0.7591268
vt 0.3308354 0.7597154
vt 0.3304788 0.7665316
vt 0.3212509 0.8122738
vt 0.3202379 0.8144138
vt 0.3211446 0.8278537
vt 0.3197107 0.8034177
vt 0.3212969 0.7962437
vt 0.3149667 0.828607
vt 0.314378 0.8102521
vt 0.3112235 0.8280941
vt 0.3108372 0.8085302
vt 0.3214633 0.7728221
vt 0.3259732 0.7614244
vt 0.3200265 0.7748927
vt 0.3119816 0.7635734
vt 0.3178204 0.7674751
vt 0.3211581 0.7597484
vt 0.3259847 0.7597842
vt 0.3259905 0.7585533
vt 0.3314562 0.7533433
vt 0.3181589 0.761449
vt 0.3141037 0.7591923
vt 0.3205641 0.7527462
vt 0.3108183 0.7597282
vt 0.32599 0.749273
vt 0.3308827 0.7493116
vt 0.3208638 0.7494393
vt 0.3105379 0.7623006
vt 0.3057675 0.7593843
vt 0.3117659 0.7803938
vt 0.3104212 0.7831812
vt 0.3133416 0.7915993
vt 0.3111458 0.7908803
vt 0.3104202 0.7989526
vt 0.3059728 0.7976946
vt 0.3114764 0.7982899
vt 0.3012116 0.7774222
vt 0.3009053 0.7598209
vt 0.3013543 0.8056817
vt 0.3131441 0.8058372
vt 0.3061557 0.8251865
vt 0.3013642 0.8194079
vt 0.300993 0.8282365
vt 0.3062145 0.828913
vn -0.659653 0.1694676 -0.7322149
vn -0.960678 -0.2584485 -0.101499
vn -0.003529042 -0.8094568 -0.5871689
vn -0.04292069 -0.8759304 -0.4805244
vn 0.04284086 -0.8752846 -0.4817069
vn 0.9632072 -0.2341365 -0.1319546
vn 0.6756367 0.2844484 -0.6801501
vn 0.9446958 -0.2789026 0.1725198
vn 0.143981 -0.547796 0.8241292
vn -0.00687341 -0.7615207 0.6481041
vn -0.1325774 -0.5476358 0.8261467
vn -0.9411336 -0.2539869 0.2230655
vn -0.6019523 -0.4265886 0.6750375
vn -0.9907216 -0.07322294 0.1144954
vn 0.00149515 -0.5282198 0.8491064
vn -0.3422526 -0.5004891 0.7952194
vn -0.9994242 0.01364881 -0.03106321
vn -0.659653 0.1694676 -0.7322149
vn -0.4510699 0.4679978 -0.7599435
vn -0.973959 0.1114476 -0.1974414
vn -0.1468747 0.5257012 -0.8378938
vn -0.9998828 0.007675834 -0.01324195
vn -0.9590948 0.152914 -0.2382318
vn -0.949735 0.1689158 -0.2635731
vn -0.141056 0.5249228 -0.8393802
vn -0.997263 0.0385977 -0.06306185
vn -0.009228581 -0.5503338 0.8348937
vn -0.00687341 -0.7615207 0.6481041
vn 0.143981 -0.547796 0.8241292
vn -0.9982906 -0.02650098 0.05209149
vn -0.9756652 0.1202879 -0.1833258
vn -0.3511872 0.6408668 -0.6826107
vn -0.7336732 0.5854448 0.344932
vn -0.8931628 -0.06620774 0.4448334
vn -0.1473202 -0.526027 0.8376111
vn 0.3414198 -0.4908763 0.8015442
vn 0.9871383 -0.09596577 0.1278622
vn 0.9446958 -0.2789026 0.1725198
vn 0.9979094 -0.03284256 0.0556621
vn 0.4437644 -0.4762386 0.7591244
vn 0.9632072 -0.2341365 -0.1319546
vn 0.9990535 0.02093968 -0.038126
vn 0.6756367 0.2844484 -0.6801501
vn 0.2698131 0.5089328 -0.8174278
vn 0.2091848 -0.5192428 0.8286306
vn 0.01025396 -0.5072116 0.8617606
vn 0.991667 -0.07005388 0.1081167
vn 0.9997922 0.01119198 -0.01704198
vn 0.9915985 -0.07016215 0.1086729
vn 0.6278606 -0.08641284 0.7735139
vn -0.0002403093 0.04312611 0.9990696
vn 0.002154924 0.8092741 0.5874271
vn -0.7336732 0.5854448 0.344932
vn 0.9979814 0.003575137 0.06340608
vn 0.4511378 0.7573795 0.4720708
vn 0.4511378 0.7573795 0.4720708
vn 0.5839438 0.7829485 -0.214479
vn -0.008228745 0.7181527 -0.6958369
vn -0.3511872 0.6408668 -0.6826107
vn 0.5839438 0.7829485 -0.214479
vn 0.3169199 0.5036747 -0.8036625
vn -0.008228745 0.7181527 -0.6958369
vn 0.9260012 0.2007395 -0.319727
vn 0.09986465 0.5284157 -0.843092
vn 0.9993518 0.01328396 -0.03345893
vn 0.8994731 0.2145089 -0.3807024
vn 0.2404824 0.512776 -0.8241534
vn -0.007587327 0.5302044 -0.847836
vn 0.9915805 0.07364557 -0.1065096
vn -0.141056 0.5249228 -0.8393802
vn -0.3511872 0.6408668 -0.6826107
vn -0.1468747 0.5257012 -0.8378938
vn 0.9984784 0.0370631 -0.04083314
vn 0.003166521 0.5238716 -0.8517913
vn -0.4510699 0.4679978 -0.7599435
vn -0.659653 0.1694676 -0.7322149
vn -0.003529042 -0.8094568 -0.5871689
g MetalStick_0
f 3/3/3 2/2/2 1/1/1
f 3/3/3 4/4/4 2/2/2
f 5/5/5 4/4/4 3/3/3
f 6/6/6 5/5/5 3/3/3
f 7/7/7 6/6/6 3/3/3
f 6/6/6 8/8/8 5/5/5
f 8/8/8 9/9/9 5/5/5
f 10/10/10 5/5/5 9/9/9
f 5/5/5 10/10/10 4/4/4
f 11/11/11 4/4/4 10/10/10
f 4/4/4 12/12/12 2/2/2
f 12/12/12 4/4/4 11/11/11
f 2/2/2 12/12/12 13/13/13
f 11/11/11 13/13/13 12/12/12
f 14/14/14 2/2/2 13/13/13
f 13/13/13 11/11/11 15/15/15
f 16/16/16 13/13/13 15/15/15
f 14/14/14 13/13/13 16/16/16
f 17/17/17 2/2/2 14/14/14
f 18/18/18 2/2/2 17/17/17
f 19/19/19 18/18/18 17/17/17
f 19/19/19 17/17/17 20/20/20
f 21/21/21 19/19/19 20/20/20
f 20/20/20 17/17/17 22/22/22
f 17/17/17 14/14/14 22/22/22
f 21/21/21 20/20/20 23/23/23
f 23/23/23 20/20/20 22/22/22
f 21/21/21 23/23/23 24/24/24
f 24/24/24 23/23/23 22/22/22
f 21/21/21 24/24/24 25/25/25
f 24/24/24 22/22/22 26/26/26
f 25/25/25 24/24/24 26/26/26
f 11/11/11 27/27/27 15/15/15
f 28/28/28 27/27/27 11/11/11
f 28/28/28 29/29/29 27/27/27
f 27/27/27 29/29/29 15/15/15
f 22/22/22 14/14/14 30/30/30
f 22/22/22 30/30/30 26/26/26
f 25/25/25 26/26/26 31/31/31
f 32/32/32 25/25/25 31/31/31
f 32/32/32 31/31/31 33/33/33
f 31/31/31 26/26/26 33/33/33
f 26/26/26 30/30/30 33/33/33
f 33/33/33 30/30/30 34/34/34
f 30/30/30 14/14/14 34/34/34
f 14/14/14 35/35/35 34/34/34
f 35/35/35 14/14/14 16/16/16
f 35/35/35 16/16/16 15/15/15
f 15/15/15 29/29/29 36/36/36
f 29/29/29 37/37/37 36/36/36
f 29/29/29 38/38/38 37/37/37
f 39/39/39 36/36/36 37/37/37
f 40/40/40 36/36/36 39/39/39
f 36/36/36 40/40/40 15/15/15
f 37/37/37 38/38/38 41/41/41
f 37/37/37 41/41/41 42/42/42
f 39/39/39 37/37/37 42/42/42
f 42/42/42 41/41/41 43/43/43
f 42/42/42 43/43/43 44/44/44
f 35/35/35 15/15/15 45/45/45
f 15/15/15 40/40/40 45/45/45
f 46/46/46 34/34/34 35/35/35
f 35/35/35 45/45/45 46/46/46
f 47/47/47 40/40/40 39/39/39
f 40/40/40 47/47/47 45/45/45
f 47/47/47 39/39/39 48/48/48
f 49/49/49 47/47/47 48/48/48
f 45/45/45 47/47/47 49/49/49
f 45/45/45 50/50/50 46/46/46
f 50/50/50 45/45/45 49/49/49
f 34/34/34 46/46/46 51/51/51
f 51/51/51 46/46/46 50/50/50
f 34/34/34 51/51/51 52/52/52
f 51/51/51 50/50/50 52/52/52
f 52/52/52 53/53/53 34/34/34
f 50/50/50 49/49/49 54/54/54
f 54/54/54 49/49/49 48/48/48
f 50/50/50 54/54/54 55/55/55
f 54/54/54 48/48/48 55/55/55
f 50/50/50 56/56/56 52/52/52
f 55/55/55 48/48/48 57/57/57
f 52/52/52 58/58/58 53/53/53
f 56/56/56 58/58/58 52/52/52
f 59/59/59 53/53/53 58/58/58
f 58/58/58 56/56/56 60/60/60
f 57/57/57 48/48/48 61/61/61
f 62/62/62 57/57/57 61/61/61
f 61/61/61 48/48/48 63/63/63
f 61/61/61 64/64/64 62/62/62
f 64/64/64 61/61/61 63/63/63
f 63/63/63 48/48/48 65/65/65
f 48/48/48 39/39/39 65/65/65
f 63/63/63 66/66/66 64/64/64
f 63/63/63 65/65/65 66/66/66
f 66/66/66 67/67/67 64/64/64
f 66/66/66 65/65/65 67/67/67
f 68/68/68 62/62/62 64/64/64
f 68/68/68 64/64/64 67/67/67
f 39/39/39 69/69/69 65/65/65
f 65/65/65 69/69/69 67/67/67
f 70/70/70 62/62/62 68/68/68
f 70/70/70 71/71/71 62/62/62
f 72/72/72 70/70/70 68/68/68
f 44/44/44 68/68/68 67/67/67
f 67/67/67 69/69/69 44/44/44
f 72/72/72 68/68/68 44/44/44
f 39/39/39 73/73/73 69/69/69
f 69/69/69 73/73/73 44/44/44
f 73/73/73 39/39/39 42/42/42
f 73/73/73 42/42/42 44/44/44
f 44/44/44 74/74/74 72/72/72
f 72/72/72 74/74/74 75/75/75
f 44/44/44 43/43/43 74/74/74
f 76/76/76 75/75/75 74/74/74
f 76/76/76 74/74/74 43/43/43
f 43/43/43 77/77/77 76/76/76
