g MetalThingy1
v 0.0005925043 -0.0006601232 -0.0003945011
v 0.0005486843 -0.0007117879 -0.0002884752
v 0.0005588395 -0.0007148772 -3.878951E-05
v 0.00058838 -0.0006426006 4.192412E-05
v 0.0006137951 0.0005364978 0.0001677591
v 0.0006121123 0.0004647732 -0.0003666914
v 0.0005825348 -0.0005109465 0.000202077
v 0.0005973772 0.0005834621 -0.0003525281
v 0.0005880156 0.0006479037 -9.491622E-05
v 0.0005001893 0.0006328654 -0.0003281832
v -9.482316E-07 0.0006166506 -0.0003595203
v -9.482316E-07 0.0006846511 -0.0002406394
v 0.0003086176 0.0006739211 -0.0001701671
v 0.0003236682 0.0006573558 0.0001763582
v 0.0002789036 0.0005164504 -7.517338E-06
v 0.000342238 0.0006202358 0.0002233761
v 0.000549679 0.0006344854 0.0002323425
v 0.0005165624 -0.0001645017 0.0002067339
v 0.0005308621 -0.0004218918 0.0002175409
v 0.0004059221 0.0001751077 0.0002289093
v 0.0003880838 -0.0002622604 0.0001957047
v 0.0003626098 -0.0002850336 0.0001608193
v 0.000371911 -0.0004386044 0.0002106917
v -9.482316E-07 -0.000489552 0.0002109271
v -9.017816E-07 -0.0002849144 0.0001890993
v 0.000325927 0.000343064 0.0001362187
v 0.0002789036 0.0005164504 -7.517338E-06
v 0.0002892528 0.0002822322 6.433189E-05
v 0.0002296447 -0.0001245087 7.769465E-06
v 0.0001751803 -0.0002464443 3.867269E-05
v -9.482316E-07 -0.000237475 -3.073215E-06
v -0.0001773824 -0.0002338809 3.274858E-05
v -0.0003538568 -0.0003090996 0.0001691645
v -0.000219532 -0.0001176876 4.001856E-06
v -0.0002830266 0.000221743 5.707681E-05
v -0.0002823785 0.0003780097 8.350193E-05
v -0.0003275256 0.0006573486 0.0002166074
v -0.0002721205 0.0005110955 -9.469985E-06
v -0.0003281372 -0.0004383987 0.0002074492
v -0.0003779227 -0.0002708709 0.0001923197
v -0.0005962594 -0.0005171936 0.000196951
v -0.0005034339 -0.0004354149 0.0002142459
v -0.0005119502 -0.0001488095 0.0002052945
v -0.0006016869 0.0004971116 0.0001697308
v -0.0003886516 0.0001782429 0.0002255398
v -0.0005359264 0.0006285959 0.0002320695
v -0.0005306769 0.000671764 0.0001660085
v -0.0005749945 0.0006651944 -5.507946E-05
v -0.0002988267 0.0006844234 -0.000177055
v -0.0002721205 0.0005110955 -9.469985E-06
v -0.0005262205 0.0006303 -0.000330106
v -9.482316E-07 0.0006846511 -0.0002406394
v -9.482316E-07 0.0006166506 -0.0003595203
v -0.0005853468 0.0005864089 -0.0003500646
v -0.0005951015 0.0005009568 -0.0003748131
v -0.0006116665 -0.0006709087 -0.0003960252
v -0.0006031012 -0.0006443154 3.962636E-05
v -0.0004570709 -0.0006899202 3.961027E-05
v -9.482316E-07 -0.0007056951 3.096461E-06
v -0.0005624144 -0.000697881 -2.975345E-05
v 0.0004756676 -0.000702703 3.023922E-05
v 0.00058838 -0.0006426006 4.192412E-05
v 0.0005588395 -0.0007148772 -3.878951E-05
v -0.0005444114 -0.0006937504 -0.0002888775
v -9.482316E-07 -0.0007115984 -0.0003423649
v -9.482316E-07 -0.0006972217 -0.0003980428
v -9.482316E-07 -0.0007056951 3.096461E-06
v -0.0004570709 -0.0006899202 3.961027E-05
v 0.0005486843 -0.0007117879 -0.0002884752
v 0.0005925043 -0.0006601232 -0.0003945011
v 0.0005588395 -0.0007148772 -3.878951E-05
v 0.0004756676 -0.000702703 3.023922E-05
vt 0.246655 0.9285129
vt 0.2442566 0.9281226
vt 0.2397965 0.9299732
vt 0.238881 0.9318659
vt 0.24466 0.9512001
vt 0.2532889 0.9491556
vt 0.2369346 0.9352467
vt 0.2530936 0.9518485
vt 0.2486401 0.953034
vt 0.252238 0.9540202
vt 0.2532889 0.9638048
vt 0.2507298 0.964067
vt 0.2491516 0.9581439
vt 0.2429613 0.9561414
vt 0.2444125 0.9596348
vt 0.2417636 0.9556378
vt 0.2438164 0.952985
vt 0.2382306 0.941321
vt 0.2365565 0.937037
vt 0.2390463 0.9478441
vt 0.2350452 0.940729
vt 0.2341441 0.9406972
vt 0.2336103 0.9375812
vt 0.2265654 0.9383721
vt 0.2275117 0.9418786
vt 0.2383071 0.9516667
vt 0.2371257 0.9557515
vt 0.2365668 0.9512886
vt 0.2323187 0.9454023
vt 0.2309848 0.9437535
vt 0.2282596 0.9453574
vt 0.2251734 0.94549
vt 0.2212953 0.9435576
vt 0.2247238 0.9477234
vt 0.2226636 0.9538286
vt 0.2219447 0.9567279
vt 0.2189145 0.9617108
vt 0.2234222 0.9593296
vt 0.221176 0.9408004
vt 0.2206073 0.9442565
vt 0.2166938 0.9403575
vt 0.2182275 0.9414948
vt 0.2176702 0.9465361
vt 0.2147494 0.9572647
vt 0.2191385 0.9526529
vt 0.2160752 0.9594187
vt 0.2154602 0.9602249
vt 0.2119922 0.9606755
vt 0.2117737 0.9658906
vt 0.2166869 0.9665302
vt 0.2077028 0.9618469
vt 0.2116475 0.9717456
vt 0.2090829 0.9720382
vt 0.2066278 0.9606284
vt 0.2057066 0.9589202
vt 0.2061149 0.9360916
vt 0.2141981 0.9379182
vt 0.2166184 0.9357978
vt 0.2250526 0.9330771
vt 0.2133176 0.9365426
vt 0.2337059 0.9312022
vt 0.2360529 0.9315159
vt 0.235037 0.9297184
vt 0.2085077 0.9352489
vt 0.2101403 0.9252797
vt 0.2091169 0.9250298
vt 0.2162957 0.926809
vt 0.215008 0.9350086
vt 0.2135225 0.9157568
vt 0.2116343 0.9144396
vt 0.2180098 0.9166747
vt 0.2188869 0.9184627
vn 0.9952768 -0.09484842 -0.02068351
vn 0.07138738 -0.9845947 -0.1596158
vn 0.1089125 -0.9934232 0.03533043
vn 0.9956442 -0.07741359 0.05196008
vn 0.9940138 0.005164489 0.1091318
vn 0.9999893 -0.003819621 -0.002634698
vn 0.5761138 -0.375296 0.726117
vn 0.8755165 0.4150484 -0.2473981
vn 0.3665894 0.9303827 -0.0004433617
vn 0.1025099 0.9305341 -0.3515652
vn -0.0002080706 0.7798529 -0.6259629
vn 0.003573225 0.9301362 -0.3671974
vn -0.139371 0.9892938 -0.04328281
vn -0.2578387 0.9592384 0.1156757
vn -0.9719478 0.07949544 0.221355
vn -0.6718686 -7.030508E-05 0.7406704
vn 0.3130655 0.3289941 0.8909281
vn 0.1942367 -0.03026002 0.9804879
vn 0.09413236 0.02241442 0.9953074
vn -0.04875796 -0.03199844 0.998298
vn -0.3196836 -0.0195645 0.9473223
vn -0.677017 0.23002 0.6990985
vn -0.02091557 0.1100051 0.993711
vn -0.002277783 -0.5098872 0.8602383
vn -0.003725069 0.5860409 0.8102729
vn -0.9333727 -0.02224267 0.3582188
vn -0.9719478 0.07949544 0.221355
vn -0.8172327 0.0103178 0.5762153
vn -0.6879214 0.1136427 0.7168329
vn -0.1192296 0.8905576 0.4389662
vn 0.03115577 0.9703864 0.2395402
vn 0.1014201 0.8666893 0.4884299
vn 0.7000459 0.2041384 0.6842976
vn 0.6950902 0.1233463 0.7082621
vn 0.8190256 0.01185051 0.5736345
vn 0.9375154 -0.02339205 0.3471566
vn 0.727983 0.2790931 0.6262169
vn 0.9772993 0.1652155 0.132627
vn 0.01120054 0.09265345 0.9956354
vn 0.274774 -0.0113722 0.9614416
vn -0.5089939 -0.3234274 0.7976967
vn 0.007459364 0.01216236 0.9998982
vn -0.1850869 -0.01893184 0.9825399
vn -0.9942478 0.0257373 0.1039661
vn 0.07432013 -0.03098622 0.9967529
vn -0.3288375 0.09619777 0.9394743
vn -0.07167719 0.9929941 0.09394121
vn -0.6132159 0.7893975 -0.02859767
vn 0.1675703 0.9843959 -0.05371268
vn 0.9772993 0.1652155 0.132627
vn -0.1069969 0.9207667 -0.3751537
vn 0.003573225 0.9301362 -0.3671974
vn -0.0002080706 0.7798529 -0.6259629
vn -0.9204838 0.3289204 -0.2109998
vn -0.9996953 0.02136603 -0.01236546
vn -0.9941872 -0.1066704 -0.01459744
vn -0.9951023 -0.07595992 0.06325805
vn -0.01310543 -0.7399703 0.6725118
vn -0.01489735 -0.9643189 0.264324
vn -0.1415579 -0.9890546 0.04162158
vn 0.01320167 -0.7309858 0.682265
vn 0.9956442 -0.07741359 0.05196008
vn 0.1089125 -0.9934232 0.03533043
vn -0.03933787 -0.9988651 -0.02685218
vn -0.01941283 -0.9991704 -0.03579969
vn 0.02496123 -0.9411778 -0.3369885
vn -0.01489735 -0.9643189 0.264324
vn -0.01310543 -0.7399703 0.6725118
vn 0.07138738 -0.9845947 -0.1596158
vn 0.9952768 -0.09484842 -0.02068351
vn 0.1089125 -0.9934232 0.03533043
vn 0.01320167 -0.7309858 0.682265
g MetalThingy1_0
f 3/3/3 2/2/2 1/1/1
f 4/4/4 3/3/3 1/1/1
f 5/5/5 4/4/4 1/1/1
f 5/5/5 1/1/1 6/6/6
f 7/7/7 4/4/4 5/5/5
f 5/5/5 6/6/6 8/8/8
f 5/5/5 8/8/8 9/9/9
f 8/8/8 10/10/10 9/9/9
f 8/8/8 11/11/11 10/10/10
f 11/11/11 12/12/12 10/10/10
f 12/12/12 13/13/13 10/10/10
f 13/13/13 9/9/9 10/10/10
f 13/13/13 14/14/14 9/9/9
f 13/13/13 15/15/15 14/14/14
f 16/16/16 14/14/14 15/15/15
f 14/14/14 17/17/17 9/9/9
f 17/17/17 5/5/5 9/9/9
f 16/16/16 17/17/17 14/14/14
f 18/18/18 5/5/5 17/17/17
f 19/19/19 7/7/7 5/5/5
f 18/18/18 19/19/19 5/5/5
f 20/20/20 18/18/18 17/17/17
f 16/16/16 20/20/20 17/17/17
f 21/21/21 18/18/18 20/20/20
f 21/21/21 19/19/19 18/18/18
f 16/16/16 21/21/21 20/20/20
f 21/21/21 16/16/16 22/22/22
f 21/21/21 23/23/23 19/19/19
f 23/23/23 7/7/7 19/19/19
f 21/21/21 22/22/22 23/23/23
f 24/24/24 7/7/7 23/23/23
f 25/25/25 23/23/23 22/22/22
f 24/24/24 23/23/23 25/25/25
f 26/26/26 22/22/22 16/16/16
f 27/27/27 26/26/26 16/16/16
f 27/27/27 28/28/28 26/26/26
f 26/26/26 28/28/28 22/22/22
f 28/28/28 29/29/29 22/22/22
f 29/29/29 30/30/30 22/22/22
f 30/30/30 25/25/25 22/22/22
f 30/30/30 31/31/31 25/25/25
f 31/31/31 32/32/32 25/25/25
f 32/32/32 33/33/33 25/25/25
f 32/32/32 34/34/34 33/33/33
f 33/33/33 34/34/34 35/35/35
f 33/33/33 35/35/35 36/36/36
f 37/37/37 33/33/33 36/36/36
f 36/36/36 38/38/38 37/37/37
f 33/33/33 39/39/39 25/25/25
f 39/39/39 24/24/24 25/25/25
f 33/33/33 37/37/37 40/40/40
f 33/33/33 40/40/40 39/39/39
f 41/41/41 24/24/24 39/39/39
f 42/42/42 39/39/39 40/40/40
f 42/42/42 41/41/41 39/39/39
f 42/42/42 40/40/40 43/43/43
f 41/41/41 42/42/42 43/43/43
f 44/44/44 41/41/41 43/43/43
f 43/43/43 40/40/40 45/45/45
f 45/45/45 40/40/40 37/37/37
f 46/46/46 43/43/43 45/45/45
f 46/46/46 44/44/44 43/43/43
f 46/46/46 45/45/45 37/37/37
f 37/37/37 47/47/47 46/46/46
f 47/47/47 48/48/48 46/46/46
f 48/48/48 44/44/44 46/46/46
f 49/49/49 47/47/47 37/37/37
f 48/48/48 47/47/47 49/49/49
f 37/37/37 50/50/50 49/49/49
f 48/48/48 49/49/49 51/51/51
f 51/51/51 49/49/49 52/52/52
f 51/51/51 52/52/52 53/53/53
f 54/54/54 51/51/51 53/53/53
f 54/54/54 48/48/48 51/51/51
f 54/54/54 44/44/44 48/48/48
f 55/55/55 44/44/44 54/54/54
f 55/55/55 56/56/56 44/44/44
f 56/56/56 57/57/57 44/44/44
f 44/44/44 57/57/57 41/41/41
f 41/41/41 57/57/57 58/58/58
f 58/58/58 24/24/24 41/41/41
f 24/24/24 58/58/58 59/59/59
f 57/57/57 60/60/60 58/58/58
f 56/56/56 60/60/60 57/57/57
f 59/59/59 61/61/61 24/24/24
f 24/24/24 61/61/61 7/7/7
f 61/61/61 62/62/62 7/7/7
f 61/61/61 63/63/63 62/62/62
f 64/64/64 60/60/60 56/56/56
f 65/65/65 64/64/64 56/56/56
f 66/66/66 65/65/65 56/56/56
f 67/67/67 60/60/60 64/64/64
f 65/65/65 67/67/67 64/64/64
f 67/67/67 68/68/68 60/60/60
f 69/69/69 65/65/65 66/66/66
f 70/70/70 69/69/69 66/66/66
f 69/69/69 71/71/71 65/65/65
f 65/65/65 71/71/71 67/67/67
f 71/71/71 72/72/72 67/67/67
