g Metal_Part_Bot
v -0.5261 27.2753 17.412
v -2.2717 28.5977 17.4012
v -0.5779 28.6075 17.3638
v -2.2717 27.3008 17.485
v -3.9655 28.6075 17.3638
v -0.5297 6.8792 17.3593
v -4.0173 27.2753 17.412
v -2.2717 6.7871 17.4831
v -0.5233 5.176 17.3614
v -4.0137 6.8792 17.3593
v -2.2717 5.1564 17.3925
v -4.0201 5.176 17.3614
v -0.5355 5.1875 15.9215
v -2.2717 5.1564 17.3925
v -0.5233 5.176 17.3614
v -2.2717 5.1361 15.8985
v -4.0201 5.176 17.3614
v -0.5185 5.1742 -2.8234
v -4.0079 5.1875 15.9215
v -2.2717 5.135 -2.8693
v -0.5194 5.1749 -4.9905
v -4.0249 5.1742 -2.8234
v -2.2717 5.135 -5.1342
v -0.5196 5.1693 -14.0193
v -4.024 5.1749 -4.9905
v -2.2717 5.135 -14.0856
v -0.5252 5.1691 -22.9258
v -4.0238 5.1693 -14.0193
v -2.2717 5.135 -23.0633
v -0.5525 5.1945 -25.1138
v -4.0182 5.1691 -22.9258
v -2.2717 5.1777 -25.1129
v -3.9909 5.1945 -25.1138
v -0.5969 26.9477 -25.1561
v -0.5357 28.5737 -22.4367
v -0.6044 28.5034 -25.1546
v -0.5071 26.8496 -22.474
v -0.5445 7.3923 -25.131
v -0.4898 27.1148 -14.3774
v -0.5359 28.5813 -14.3184
v -0.4718 7.4124 -22.8792
v -0.5525 5.1945 -25.1138
v -0.5252 5.1691 -22.9258
v -0.4648 7.4572 -14.0575
v -0.5196 5.1693 -14.0193
v -0.4799 27.4404 -4.9712
v -0.5343 28.5918 -4.9697
v -0.5407 28.5935 -2.9293
v -0.4603 7.3709 -4.9886
v -0.5194 5.1749 -4.9905
v -0.4748 27.3795 -2.9236
v -0.568 28.6151 16.2026
v -0.5079 7.4355 -2.8336
v -0.5185 5.1742 -2.8234
v -0.4815 27.3193 16.1861
v -0.5779 28.6075 17.3638
v -0.5261 27.2753 17.412
v -0.5471 6.9876 15.9427
v -0.5355 5.1875 15.9215
v -0.5297 6.8792 17.3593
v -0.5233 5.176 17.3614
v -0.5357 28.5737 -22.4367
v -2.2717 28.5148 -25.1573
v -0.6044 28.5034 -25.1546
v -2.2717 28.6237 -22.4502
v -3.939 28.5034 -25.1546
v -0.5359 28.5813 -14.3184
v -4.0077 28.5737 -22.4367
v -2.2717 28.6292 -14.3231
v -0.5343 28.5918 -4.9697
v -4.0075 28.5813 -14.3184
v -2.2717 28.6328 -4.8631
v -0.5407 28.5935 -2.9293
v -4.0091 28.5918 -4.9697
v -2.2717 28.6327 -2.8613
v -0.568 28.6151 16.2026
v -4.0027 28.5935 -2.9293
v -2.2717 28.6327 16.3036
v -0.5779 28.6075 17.3638
v -3.9754 28.6151 16.2026
v -2.2717 28.5977 17.4012
v -3.9655 28.6075 17.3638
v -0.5445 7.3923 -25.131
v -2.2717 5.1777 -25.1129
v -0.5525 5.1945 -25.1138
v -2.2717 7.3945 -25.165
v -3.9909 5.1945 -25.1138
v -0.5969 26.9477 -25.1561
v -3.9989 7.3923 -25.131
v -2.2717 26.8862 -25.1649
v -0.6044 28.5034 -25.1546
v -3.9464 26.9477 -25.1561
v -2.2717 28.5148 -25.1573
v -3.939 28.5034 -25.1546
v -4.0173 27.2753 17.412
v -3.9754 28.6151 16.2026
v -3.9655 28.6075 17.3638
v -4.0619 27.3193 16.1861
v -4.0137 6.8792 17.3593
v -4.0027 28.5935 -2.9293
v -3.9962 6.9876 15.9427
v -4.0201 5.176 17.3614
v -4.0079 5.1875 15.9215
v -4.0686 27.3795 -2.9236
v -4.0091 28.5918 -4.9697
v -4.0355 7.4355 -2.8336
v -4.0249 5.1742 -2.8234
v -4.0635 27.4404 -4.9712
v -4.0831 7.3709 -4.9886
v -4.024 5.1749 -4.9905
v -4.0536 27.1148 -14.3774
v -4.0075 28.5813 -14.3184
v -4.0786 7.4572 -14.0575
v -4.0238 5.1693 -14.0193
v -4.0363 26.8496 -22.474
v -4.0077 28.5737 -22.4367
v -3.939 28.5034 -25.1546
v -3.9464 26.9477 -25.1561
v -4.0716 7.4124 -22.8792
v -4.0182 5.1691 -22.9258
v -3.9989 7.3923 -25.131
v -3.9909 5.1945 -25.1138
vt 0.02529907 0.9995117
vt 0.0006999969 0.9667969
vt 0.0005002022 0.9985352
vt 0.02490234 0.9667969
vt 0.0005002022 0.9350586
vt 0.4055176 0.9995117
vt 0.02529907 0.9345703
vt 0.4069824 0.9667969
vt 0.4370117 0.9995117
vt 0.4055176 0.9345703
vt 0.4375 0.9667969
vt 0.4370117 0.934082
vt 0.7651367 0.8652344
vt 0.7924805 0.8974609
vt 0.7919922 0.8652344
vt 0.7646484 0.8974609
vt 0.7919922 0.9301758
vt 0.4157715 0.8652344
vt 0.7651367 0.9301758
vt 0.4150391 0.8974609
vt 0.3754883 0.8652344
vt 0.4157715 0.9301758
vt 0.3728027 0.8974609
vt 0.2071533 0.8652344
vt 0.3754883 0.9301758
vt 0.2060547 0.8974609
vt 0.04129028 0.8652344
vt 0.2071533 0.9301758
vt 0.03869629 0.8974609
vt 0.0005002022 0.8657227
vt 0.04129028 0.9301758
vt 0.0005002022 0.8974609
vt 0.0005002022 0.9296875
vt 0.4699707 0.793457
vt 0.4396973 0.7426758
vt 0.440918 0.793457
vt 0.4716797 0.7436523
vt 0.8344727 0.793457
vt 0.467041 0.5927734
vt 0.4396973 0.5917969
vt 0.8339844 0.7514648
vt 0.875 0.793457
vt 0.8754883 0.7524414
vt 0.8334961 0.5874023
vt 0.8759766 0.5864258
vt 0.4611816 0.4174805
vt 0.4396973 0.4174805
vt 0.4396973 0.3793945
vt 0.8349609 0.4182129
vt 0.8759766 0.4182129
vt 0.4624023 0.3793945
vt 0.4396973 0.022995
vt 0.8339844 0.3781738
vt 0.8759766 0.3779297
vt 0.4638672 0.02340698
vt 0.4399414 0.001399994
vt 0.4645996 0.0005002022
vt 0.8427734 0.02830505
vt 0.8759766 0.02870178
vt 0.8447266 0.001899719
vt 0.8764648 0.001899719
vt 0.7426758 0.7954102
vt 0.793457 0.828125
vt 0.793457 0.796875
vt 0.7431641 0.828125
vt 0.793457 0.8588867
vt 0.5913086 0.7958984
vt 0.7426758 0.8603516
vt 0.5917969 0.828125
vt 0.4172363 0.7954102
vt 0.5913086 0.8603516
vt 0.4152832 0.828125
vt 0.3793945 0.7958984
vt 0.4172363 0.8603516
vt 0.3779297 0.828125
vt 0.02279663 0.7963867
vt 0.3793945 0.8603516
vt 0.02099609 0.828125
vt 0.001199722 0.7963867
vt 0.02279663 0.8598633
vt 0.0005002022 0.828125
vt 0.001199722 0.859375
vt 0.8422852 0.934082
vt 0.8837891 0.9663086
vt 0.8833008 0.9345703
vt 0.8422852 0.9663086
vt 0.8833008 0.9985352
vt 0.4780273 0.9360352
vt 0.8422852 0.9985352
vt 0.479248 0.9672852
vt 0.4492188 0.9365234
vt 0.4782715 0.9985352
vt 0.4489746 0.9672852
vt 0.4492188 0.9985352
vt 0.02549744 0.793457
vt 0.0005002022 0.7709961
vt 0.0005998611 0.7924805
vt 0.02470398 0.7709961
vt 0.4055176 0.7924805
vt 0.0005002022 0.4147949
vt 0.4035645 0.7661133
vt 0.4372559 0.7924805
vt 0.4370117 0.765625
vt 0.02319336 0.4147949
vt 0.0005002022 0.376709
vt 0.3947754 0.4160156
vt 0.4370117 0.4162598
vt 0.02200317 0.376709
vt 0.3959961 0.3759766
vt 0.4370117 0.3757324
vt 0.02789307 0.201416
vt 0.0005002022 0.2025146
vt 0.394043 0.2069092
vt 0.4367676 0.2076416
vt 0.03259277 0.05050659
vt 0.0005002022 0.0512085
vt 0.001700401 0.0005998611
vt 0.03070068 0.0005002022
vt 0.3947754 0.04260254
vt 0.4365234 0.04159546
vt 0.3950195 0.0005998611
vt 0.4360352 0.0008997917
vn 0.7084961 0.02479553 0.7050781
vn 0 0.7128906 0.7016602
vn 0.5683594 0.5986328 0.5644531
vn 0 0.03250122 0.9995117
vn -0.5683594 0.5986328 0.5644531
vn 0.7358398 0.0008997917 0.6772461
vn -0.7084961 0.02479553 0.7050781
vn 0 -0.02870178 0.9995117
vn 0.5883789 -0.5756836 0.5683594
vn -0.7358398 0.0008997917 0.6772461
vn 0 -0.7202148 0.6938477
vn -0.5883789 -0.5756836 0.5683594
vn 0.7197266 -0.6943359 -0.005298615
vn 0 -0.7202148 0.6938477
vn 0.5883789 -0.5756836 0.5683594
vn 0 -1 0.006801605
vn -0.5883789 -0.5756836 0.5683594
vn 0.7133789 -0.7006836 0.0002999306
vn -0.7197266 -0.6943359 -0.005298615
vn 0 -1 0
vn 0.7055664 -0.7084961 -0.0001000166
vn -0.7133789 -0.7006836 0.0002999306
vn 0 -1 0
vn 0.7055664 -0.7084961 0
vn -0.7055664 -0.7084961 -0.0001000166
vn 0 -1 0
vn 0.7055664 -0.7084961 -0.008499146
vn -0.7055664 -0.7084961 0
vn 0 -1 -0.0109024
vn 0.5756836 -0.5742188 -0.5820313
vn -0.7055664 -0.7084961 -0.008499146
vn 0 -0.7104492 -0.7041016
vn -0.5756836 -0.5742188 -0.5820313
vn 0.6972656 0.002500534 -0.7167969
vn 0.7114258 0.7026367 -0.01809692
vn 0.5712891 0.5698242 -0.5908203
vn 1 0.009399414 -0.01780701
vn 0.7026367 -0.003599167 -0.7114258
vn 1 0.0164032 -0.002199173
vn 0.7055664 0.7084961 -0.0008001328
vn 1 -0.01059723 -0.01649475
vn 0.5756836 -0.5742188 -0.5820313
vn 0.7055664 -0.7084961 -0.008499146
vn 1 -0.01129913 -0.0006999969
vn 0.7055664 -0.7084961 0
vn 0.9995117 0.02459717 -0.001799583
vn 0.6992188 0.715332 0.0002999306
vn 0.6958008 0.7182617 0.0008997917
vn 1 -0.01319885 0.0109024
vn 0.7055664 -0.7084961 -0.0001000166
vn 0.9995117 0.02609253 -0.0006999969
vn 0.6870117 0.7265625 0.005298615
vn 1 -0.003099442 0.01210022
vn 0.7133789 -0.7006836 0.0002999306
vn 0.9995117 0.03179932 0.01899719
vn 0.5683594 0.5986328 0.5644531
vn 0.7084961 0.02479553 0.7050781
vn 1 0.001600266 -0.005001068
vn 0.7197266 -0.6943359 -0.005298615
vn 0.7358398 0.0008997917 0.6772461
vn 0.5883789 -0.5756836 0.5683594
vn 0.7114258 0.7026367 -0.01809692
vn 0 0.6958008 -0.7182617
vn 0.5712891 0.5698242 -0.5908203
vn 0 1 -0.02049255
vn -0.5712891 0.5698242 -0.5908203
vn 0.7055664 0.7084961 -0.0008001328
vn -0.7114258 0.7026367 -0.01809692
vn 0 1 -0.0005002022
vn 0.6992188 0.715332 0.0002999306
vn -0.7055664 0.7084961 -0.0008001328
vn 0 1 -0.0002000332
vn 0.6958008 0.7182617 0.0008997917
vn -0.6992188 0.715332 0.0002999306
vn 0 1 0
vn 0.6870117 0.7265625 0.005298615
vn -0.6958008 0.7182617 0.0008997917
vn 0 1 0.01649475
vn 0.5683594 0.5986328 0.5644531
vn -0.6870117 0.7265625 0.005298615
vn 0 0.7128906 0.7016602
vn -0.5683594 0.5986328 0.5644531
vn 0.7026367 -0.003599167 -0.7114258
vn 0 -0.7104492 -0.7041016
vn 0.5756836 -0.5742188 -0.5820313
vn 0 -0.01170349 -1
vn -0.5756836 -0.5742188 -0.5820313
vn 0.6972656 0.002500534 -0.7167969
vn -0.7026367 -0.003599167 -0.7114258
vn 0 0.002300262 -1
vn 0.5712891 0.5698242 -0.5908203
vn -0.6972656 0.002500534 -0.7167969
vn 0 0.6958008 -0.7182617
vn -0.5712891 0.5698242 -0.5908203
vn -0.7084961 0.02479553 0.7050781
vn -0.6870117 0.7265625 0.005298615
vn -0.5683594 0.5986328 0.5644531
vn -0.9995117 0.03179932 0.01899719
vn -0.7358398 0.0008997917 0.6772461
vn -0.6958008 0.7182617 0.0008997917
vn -1 0.001600266 -0.005001068
vn -0.5883789 -0.5756836 0.5683594
vn -0.7197266 -0.6943359 -0.005298615
vn -0.9995117 0.02609253 -0.0006999969
vn -0.6992188 0.715332 0.0002999306
vn -1 -0.003099442 0.01210022
vn -0.7133789 -0.7006836 0.0002999306
vn -0.9995117 0.02459717 -0.001799583
vn -1 -0.01319885 0.0109024
vn -0.7055664 -0.7084961 -0.0001000166
vn -1 0.0164032 -0.002199173
vn -0.7055664 0.7084961 -0.0008001328
vn -1 -0.01129913 -0.0006999969
vn -0.7055664 -0.7084961 0
vn -1 0.009399414 -0.01780701
vn -0.7114258 0.7026367 -0.01809692
vn -0.5712891 0.5698242 -0.5908203
vn -0.6972656 0.002500534 -0.7167969
vn -1 -0.01059723 -0.01649475
vn -0.7055664 -0.7084961 -0.008499146
vn -0.7026367 -0.003599167 -0.7114258
vn -0.5756836 -0.5742188 -0.5820313
g Metal_Part_Bot_0
f 3/3/3 2/2/2 1/1/1
f 2/2/2 4/4/4 1/1/1
f 2/2/2 5/5/5 4/4/4
f 1/1/1 4/4/4 6/6/6
f 5/5/5 7/7/7 4/4/4
f 4/4/4 8/8/8 6/6/6
f 4/4/4 7/7/7 8/8/8
f 9/9/9 6/6/6 8/8/8
f 7/7/7 10/10/10 8/8/8
f 11/11/11 9/9/9 8/8/8
f 11/11/11 8/8/8 10/10/10
f 12/12/12 11/11/11 10/10/10
f 15/15/15 14/14/14 13/13/13
f 14/14/14 16/16/16 13/13/13
f 14/14/14 17/17/17 16/16/16
f 18/18/18 13/13/13 16/16/16
f 17/17/17 19/19/19 16/16/16
f 20/20/20 18/18/18 16/16/16
f 20/20/20 16/16/16 19/19/19
f 18/18/18 20/20/20 21/21/21
f 22/22/22 20/20/20 19/19/19
f 20/20/20 23/23/23 21/21/21
f 20/20/20 22/22/22 23/23/23
f 21/21/21 23/23/23 24/24/24
f 22/22/22 25/25/25 23/23/23
f 23/23/23 26/26/26 24/24/24
f 23/23/23 25/25/25 26/26/26
f 27/27/27 24/24/24 26/26/26
f 25/25/25 28/28/28 26/26/26
f 29/29/29 27/27/27 26/26/26
f 29/29/29 26/26/26 28/28/28
f 30/30/30 27/27/27 29/29/29
f 31/31/31 29/29/29 28/28/28
f 32/32/32 30/30/30 29/29/29
f 32/32/32 29/29/29 31/31/31
f 33/33/33 32/32/32 31/31/31
f 36/36/36 35/35/35 34/34/34
f 35/35/35 37/37/37 34/34/34
f 34/34/34 37/37/37 38/38/38
f 37/37/37 35/35/35 39/39/39
f 35/35/35 40/40/40 39/39/39
f 37/37/37 41/41/41 38/38/38
f 37/37/37 39/39/39 41/41/41
f 42/42/42 38/38/38 41/41/41
f 43/43/43 42/42/42 41/41/41
f 43/43/43 41/41/41 44/44/44
f 39/39/39 44/44/44 41/41/41
f 45/45/45 43/43/43 44/44/44
f 46/46/46 39/39/39 40/40/40
f 39/39/39 46/46/46 44/44/44
f 47/47/47 46/46/46 40/40/40
f 47/47/47 48/48/48 46/46/46
f 45/45/45 44/44/44 49/49/49
f 46/46/46 49/49/49 44/44/44
f 50/50/50 45/45/45 49/49/49
f 48/48/48 51/51/51 46/46/46
f 46/46/46 51/51/51 49/49/49
f 48/48/48 52/52/52 51/51/51
f 50/50/50 49/49/49 53/53/53
f 51/51/51 53/53/53 49/49/49
f 54/54/54 50/50/50 53/53/53
f 52/52/52 55/55/55 51/51/51
f 51/51/51 55/55/55 53/53/53
f 52/52/52 56/56/56 55/55/55
f 56/56/56 57/57/57 55/55/55
f 54/54/54 53/53/53 58/58/58
f 55/55/55 58/58/58 53/53/53
f 55/55/55 57/57/57 58/58/58
f 59/59/59 54/54/54 58/58/58
f 57/57/57 60/60/60 58/58/58
f 59/59/59 58/58/58 60/60/60
f 61/61/61 59/59/59 60/60/60
f 64/64/64 63/63/63 62/62/62
f 63/63/63 65/65/65 62/62/62
f 63/63/63 66/66/66 65/65/65
f 62/62/62 65/65/65 67/67/67
f 66/66/66 68/68/68 65/65/65
f 65/65/65 69/69/69 67/67/67
f 65/65/65 68/68/68 69/69/69
f 70/70/70 67/67/67 69/69/69
f 68/68/68 71/71/71 69/69/69
f 72/72/72 70/70/70 69/69/69
f 72/72/72 69/69/69 71/71/71
f 73/73/73 70/70/70 72/72/72
f 74/74/74 72/72/72 71/71/71
f 75/75/75 73/73/73 72/72/72
f 75/75/75 72/72/72 74/74/74
f 76/76/76 73/73/73 75/75/75
f 77/77/77 75/75/75 74/74/74
f 78/78/78 76/76/76 75/75/75
f 78/78/78 75/75/75 77/77/77
f 79/79/79 76/76/76 78/78/78
f 80/80/80 78/78/78 77/77/77
f 81/81/81 79/79/79 78/78/78
f 81/81/81 78/78/78 80/80/80
f 82/82/82 81/81/81 80/80/80
f 85/85/85 84/84/84 83/83/83
f 84/84/84 86/86/86 83/83/83
f 84/84/84 87/87/87 86/86/86
f 88/88/88 83/83/83 86/86/86
f 87/87/87 89/89/89 86/86/86
f 90/90/90 88/88/88 86/86/86
f 90/90/90 86/86/86 89/89/89
f 91/91/91 88/88/88 90/90/90
f 92/92/92 90/90/90 89/89/89
f 93/93/93 91/91/91 90/90/90
f 93/93/93 90/90/90 92/92/92
f 94/94/94 93/93/93 92/92/92
f 97/97/97 96/96/96 95/95/95
f 96/96/96 98/98/98 95/95/95
f 95/95/95 98/98/98 99/99/99
f 96/96/96 100/100/100 98/98/98
f 98/98/98 101/101/101 99/99/99
f 102/102/102 99/99/99 101/101/101
f 103/103/103 102/102/102 101/101/101
f 100/100/100 104/104/104 98/98/98
f 98/98/98 104/104/104 101/101/101
f 100/100/100 105/105/105 104/104/104
f 103/103/103 101/101/101 106/106/106
f 104/104/104 106/106/106 101/101/101
f 107/107/107 103/103/103 106/106/106
f 105/105/105 108/108/108 104/104/104
f 104/104/104 108/108/108 106/106/106
f 107/107/107 106/106/106 109/109/109
f 108/108/108 109/109/109 106/106/106
f 110/110/110 107/107/107 109/109/109
f 108/108/108 105/105/105 111/111/111
f 108/108/108 111/111/111 109/109/109
f 105/105/105 112/112/112 111/111/111
f 110/110/110 109/109/109 113/113/113
f 111/111/111 113/113/113 109/109/109
f 114/114/114 110/110/110 113/113/113
f 115/115/115 111/111/111 112/112/112
f 111/111/111 115/115/115 113/113/113
f 116/116/116 115/115/115 112/112/112
f 116/116/116 117/117/117 115/115/115
f 117/117/117 118/118/118 115/115/115
f 114/114/114 113/113/113 119/119/119
f 115/115/115 119/119/119 113/113/113
f 115/115/115 118/118/118 119/119/119
f 120/120/120 114/114/114 119/119/119
f 118/118/118 121/121/121 119/119/119
f 120/120/120 119/119/119 121/121/121
f 122/122/122 120/120/120 121/121/121
