g Middle
v -0.05556149 0.2128443 0.4323835
v -0.05612031 0.2384823 0.4559362
v -0.03410045 0.2194217 0.4635434
v -0.02649026 0.1902216 0.4306053
v -0.04158019 0.1871091 0.3694495
v 0.01379144 0.2091737 0.4485252
v 0.01257539 0.1846418 0.4227215
v -0.01894216 0.1744552 0.3755752
v 0.05167455 0.1882461 0.4292664
v 0.06207772 0.2169918 0.4618958
v 0.08122696 0.2093873 0.4300405
v 0.08414993 0.2349372 0.4535337
v 0.06376708 0.1844468 0.3676452
v 0.04125629 0.1729331 0.3745443
v 0.01131007 0.1733358 0.3745006
v -0.03784038 0.1629398 0.3241193
v -0.01734279 0.1527548 0.3315941
v 0.01000584 0.1525711 0.3319212
v 0.0369921 0.1513812 0.3306635
v -0.04427351 0.1941277 0.3039339
v -0.04868369 0.2221198 0.3478047
v 0.05724563 0.1605365 0.3224905
v 0.07171319 0.2190762 0.3457428
v -0.03694177 0.2254726 0.2843092
v -0.04058464 0.2563919 0.3253432
v 0.0643962 0.191381 0.3020728
v 0.06476256 0.2537285 0.3235389
v -0.04078257 0.136865 0.2854497
v -0.01962762 0.1255307 0.2919179
v 0.008626099 0.1248043 0.2914152
v -0.04742125 0.1693848 0.2649966
v 0.03656092 0.1241101 0.2909559
v -0.03985325 0.2015324 0.2442816
v 0.05754745 0.13438 0.2837659
v -0.02373205 0.093186 0.2498036
v -0.04684727 0.1054148 0.2424998
v -0.05410137 0.1408848 0.2200795
v 0.007134543 0.09249439 0.2494132
v -0.04583222 0.1760498 0.1975322
v 0.03764218 0.09163562 0.248752
v 0.06495589 0.1665436 0.2630722
v 0.06055753 0.1027013 0.24066
v 0.05814426 0.2230688 0.2826809
v -0.06011286 0.06284938 0.1917875
v -0.06888589 0.1060173 0.164976
v -0.03215488 0.04739375 0.1996158
v 0.00520072 0.04612537 0.1984657
v 0.04216679 0.04551601 0.1983428
v -0.05888372 0.1483851 0.1373335
v -0.08465741 0.003426928 0.129832
v -0.04739501 -0.02017308 0.1357197
v -0.09634713 0.06216953 0.09548087
v 0.002494584 -0.02381695 0.1311226
v -0.08301251 0.1178963 0.0569583
v 0.06995007 0.05956279 0.1895595
v 0.05206601 -0.02268689 0.1340164
v 0.0686471 0.1377825 0.2179772
v 0.05847671 0.1990469 0.2425976
v -0.08840156 -0.01713749 0.07644226
v -0.1053109 0.02287036 0.03354788
v -0.06102129 -0.05394582 0.0666981
v -0.08702996 0.07830555 0.01568098
v 0.0005355935 -0.06004582 0.05850753
v -0.06460275 0.001649051 0.001131049
v -0.05903199 0.08448833 -0.02143208
v 0.0008433441 -0.005269132 -0.008257351
v -0.04520177 0.1324515 0.03855561
v 0.002524958 0.07838993 -0.02962313
v -0.03051599 0.1614434 0.1270098
v 0.004687825 0.1288076 0.0339587
v -0.02237868 0.187366 0.1898463
v 0.006839543 0.1601739 0.1258601
v -0.0183886 0.2117537 0.2370264
v 0.008487912 0.1866744 0.1894561
v -0.01614463 0.236134 0.2785136
v 0.009865179 0.2110269 0.2365236
v -0.01761476 0.2668306 0.3167669
v -0.0542688 0.3028036 0.3751135
v 0.01120393 0.2359487 0.2788414
v -0.02476659 0.3101672 0.3542453
v -0.05504505 0.313308 0.4083005
v 0.01263747 0.2657122 0.3156922
v 0.03899549 0.1858145 0.1887956
v 0.0378 0.2103331 0.2360643
v 0.03819026 0.2347609 0.2775832
v 0.04258375 0.265309 0.3157359
v 0.01429906 0.3045873 0.346362
v -0.03254293 0.3278103 0.3945414
v 0.04380568 0.1595646 0.125737
v 0.05425925 0.1299382 0.03685203
v 0.0638554 0.08138333 -0.02353701
v 0.06609357 -0.001654096 -0.001107321
v 0.06186617 -0.05705243 0.06459365
v 0.08939938 -0.0009721043 0.1268508
v 0.07975756 0.1022607 0.1624301
v 0.06157257 0.1733358 0.1956926
v 0.07117933 0.1450985 0.1351054
v 0.05339815 0.3081917 0.3529068
v 0.08251964 0.2993466 0.3727705
v 0.102575 0.05714244 0.09207359
v 0.09104434 0.1134973 0.05397705
v 0.0636353 0.3253787 0.3928943
v 0.08522518 0.3097624 0.405898
v 0.01534895 0.3175607 0.3795238
v 0.09060989 -0.02166096 0.07337553
v 0.1077901 0.01748493 0.02989759
v 0.09198134 0.07378101 0.01261482
v 0.08308855 0.2749797 0.4338111
v 0.08251964 0.2993466 0.3727705
v 0.06629651 0.2788405 0.4394979
v 0.0916523 0.2564159 0.4048453
v 0.06476256 0.2537285 0.3235389
v 0.07171319 0.2190762 0.3457428
v 0.08122696 0.2093873 0.4300405
v 0.06376708 0.1844468 0.3676452
v 0.08414993 0.2349372 0.4535337
v 0.06207772 0.2169918 0.4618958
v 0.01494787 0.2696183 0.4238524
v 0.01379144 0.2091737 0.4485252
v -0.03410045 0.2194217 0.4635434
v -0.03588607 0.2814237 0.4412478
v -0.05612031 0.2384823 0.4559362
v -0.05390964 0.278442 0.4361574
v -0.05556149 0.2128443 0.4323835
v -0.06467738 0.2603674 0.4075227
v -0.04158019 0.1871091 0.3694495
v -0.0542688 0.3028036 0.3751135
v -0.04868369 0.2221198 0.3478047
v -0.04058464 0.2563919 0.3253432
vt 0.375 0.875
vt 0.375 1
vt 0.4382324 1
vt 0.4382324 0.875
vt 0.375 0.75
vt 0.5014648 1
vt 0.5009766 0.875
vt 0.4382324 0.78125
vt 0.5629883 0.875
vt 0.5629883 1
vt 0.625 0.875
vt 0.625 1
vt 0.625 0.75
vt 0.5629883 0.78125
vt 0.5009766 0.78125
vt 0.3908691 0.71875
vt 0.4382324 0.75
vt 0.5009766 0.75
vt 0.5629883 0.75
vt 0.375 0.625
vt 0.375 0.625
vt 0.609375 0.71875
vt 0.625 0.625
vt 0.3908691 0.53125
vt 0.375 0.5
vt 0.625 0.625
vt 0.625 0.5
vt 0.3908691 0.71875
vt 0.4382324 0.75
vt 0.5009766 0.75
vt 0.375 0.625
vt 0.5629883 0.75
vt 0.3908691 0.53125
vt 0.609375 0.71875
vt 0.4382324 0.75
vt 0.3908691 0.71875
vt 0.375 0.625
vt 0.5009766 0.75
vt 0.3908691 0.53125
vt 0.5629883 0.75
vt 0.625 0.625
vt 0.609375 0.71875
vt 0.609375 0.53125
vt 0.3908691 0.71875
vt 0.375 0.625
vt 0.4382324 0.75
vt 0.5009766 0.75
vt 0.5629883 0.75
vt 0.3908691 0.53125
vt 0.3908691 0.71875
vt 0.4382324 0.75
vt 0.375 0.625
vt 0.5009766 0.75
vt 0.3908691 0.53125
vt 0.609375 0.71875
vt 0.5629883 0.75
vt 0.625 0.625
vt 0.609375 0.53125
vt 0.4030762 0.6943359
vt 0.3908691 0.625
vt 0.4382324 0.71875
vt 0.4030762 0.5556641
vt 0.5009766 0.71875
vt 0.4382324 0.625
vt 0.4382324 0.53125
vt 0.5009766 0.625
vt 0.4382324 0.5
vt 0.5009766 0.53125
vt 0.4382324 0.5
vt 0.5009766 0.5
vt 0.4382324 0.5
vt 0.5009766 0.5
vt 0.4382324 0.5
vt 0.5009766 0.5
vt 0.4382324 0.5
vt 0.5009766 0.5
vt 0.4382324 0.46875
vt 0.375 0.375
vt 0.5009766 0.5
vt 0.4382324 0.375
vt 0.375 0.25
vt 0.5009766 0.46875
vt 0.5629883 0.5
vt 0.5629883 0.5
vt 0.5629883 0.5
vt 0.5629883 0.46875
vt 0.5009766 0.375
vt 0.4382324 0.25
vt 0.5629883 0.5
vt 0.5629883 0.5
vt 0.5629883 0.53125
vt 0.5629883 0.625
vt 0.5629883 0.71875
vt 0.609375 0.71875
vt 0.625 0.625
vt 0.609375 0.53125
vt 0.609375 0.53125
vt 0.5629883 0.375
vt 0.625 0.375
vt 0.625 0.625
vt 0.609375 0.53125
vt 0.5629883 0.25
vt 0.625 0.25
vt 0.5009766 0.25
vt 0.5976563 0.6943359
vt 0.609375 0.625
vt 0.5976563 0.5556641
vt 0.640625 0.125
vt 0.75 0.25
vt 0.5629883 0.125
vt 0.75 0.125
vt 0.875 0.25
vt 0.875 0.125
vt 0.75 0
vt 0.875 0
vt 0.625 0
vt 0.5629883 0
vt 0.5009766 0.125
vt 0.5014648 0
vt 0.4382324 0
vt 0.4382324 0.125
vt 0.375 0
vt 0.3596191 0.125
vt 0.25 0
vt 0.25 0.125
vt 0.125 0
vt 0.25 0.25
vt 0.125 0.125
vt 0.125 0.25
vn -0.8950195 -0.4233398 0.1401367
vn -0.7636719 0.01433563 0.6450195
vn 0.09295654 -0.04904175 0.9946289
vn -0.2802734 -0.8608398 0.4248047
vn -0.8803711 -0.470459 0.05664063
vn 0.01515198 -0.08013916 0.996582
vn -0.01502228 -0.8979492 0.4394531
vn -0.3012695 -0.9042969 0.3029785
vn 0.255127 -0.8740234 0.4138184
vn -0.06280518 -0.04342651 0.9970703
vn 0.8808594 -0.4621582 0.1021729
vn 0.796875 -0.02580261 0.6035156
vn 0.8613281 -0.5073242 0.02224731
vn 0.2697754 -0.9179688 0.2915039
vn -0.0181427 -0.9423828 0.3344727
vn -0.8813477 -0.4101563 0.2351074
vn -0.260498 -0.8339844 0.4868164
vn -0.01325989 -0.8647461 0.5024414
vn 0.2382813 -0.8457031 0.4775391
vn -1 0.002702713 -0.01832581
vn -0.984375 -0.0838623 -0.1539307
vn 0.871582 -0.4472656 0.2004395
vn 0.9731445 -0.1333008 -0.1875
vn -0.8696289 0.4042969 -0.2834473
vn -0.8701172 0.2683105 -0.4138184
vn 0.9975586 -0.04776001 -0.05252075
vn 0.871582 0.2171631 -0.4389648
vn -0.8740234 -0.3452148 0.3415527
vn -0.2565918 -0.7709961 0.5830078
vn -0.01031494 -0.8076172 0.5898438
vn -0.9951172 0.0635376 0.07739258
vn 0.2408447 -0.7822266 0.5742188
vn -0.8623047 0.4731445 -0.1794434
vn 0.871582 -0.3820801 0.3071289
vn -0.2490234 -0.7192383 0.6484375
vn -0.8613281 -0.291748 0.4157715
vn -0.9829102 0.1080322 0.1474609
vn -0.008117676 -0.7612305 0.6484375
vn -0.8496094 0.5175781 -0.09954834
vn 0.2381592 -0.7304688 0.6401367
vn 0.9990234 0.01316833 0.04324341
vn 0.8637695 -0.3283691 0.3818359
vn 0.8833008 0.3530273 -0.3088379
vn -0.8305664 -0.2364502 0.5039063
vn -0.9594727 0.1605225 0.2305908
vn -0.225708 -0.6621094 0.7148438
vn -0.005786896 -0.7080078 0.7060547
vn 0.2194824 -0.671875 0.7070313
vn -0.8188477 0.5737305 -0.01169586
vn -0.8408203 -0.3193359 0.4375
vn -0.2406006 -0.7641602 0.5986328
vn -0.9770508 0.1243286 0.1732178
vn -0.01065063 -0.8144531 0.5805664
vn -0.828125 0.5483398 -0.1149902
vn 0.8393555 -0.2717285 0.4711914
vn 0.2252197 -0.7744141 0.5908203
vn 0.9916992 0.05810547 0.1136475
vn 0.8833008 0.4221191 -0.2047119
vn -0.8725586 -0.486084 0.04940796
vn -0.949707 -0.1585693 -0.2705078
vn -0.354248 -0.9243164 -0.1416016
vn -0.8618164 0.2683105 -0.4309082
vn -0.02841187 -0.9755859 -0.2176514
vn -0.4050293 -0.4868164 -0.7739258
vn -0.3371582 0.2700195 -0.9018555
vn -0.0279541 -0.5366211 -0.8432617
vn -0.217041 0.8706055 -0.4418945
vn -0.01128387 0.2160645 -0.9760742
vn -0.2027588 0.9321289 -0.300293
vn 0.01355743 0.8706055 -0.4919434
vn -0.2258301 0.8969727 -0.3803711
vn 0.0178833 0.9394531 -0.3427734
vn -0.2330322 0.859375 -0.454834
vn 0.0158844 0.909668 -0.4150391
vn -0.2370605 0.7988281 -0.5527344
vn 0.01389313 0.8759766 -0.4821777
vn -0.2788086 0.6630859 -0.6948242
vn -0.8842773 0.3242188 -0.3356934
vn 0.0109787 0.8208008 -0.5708008
vn -0.2570801 0.7548828 -0.6035156
vn -0.7553711 0.5942383 0.276123
vn 0.005493164 0.7021484 -0.7124023
vn 0.2612305 0.8837891 -0.3876953
vn 0.2641602 0.8461914 -0.4626465
vn 0.2617188 0.7856445 -0.5610352
vn 0.2922363 0.6469727 -0.7045898
vn 0.00907135 0.7783203 -0.6279297
vn 0.1068726 0.9199219 0.3776855
vn 0.2424316 0.9204102 -0.3066406
vn 0.2486572 0.8583984 -0.4487305
vn 0.3232422 0.2536621 -0.9116211
vn 0.3583984 -0.5048828 -0.7851563
vn 0.3061523 -0.9399414 -0.1518555
vn 0.8422852 -0.3537598 0.4067383
vn 0.9741211 0.1116943 0.1973877
vn 0.8754883 0.467041 -0.1245117
vn 0.8505859 0.5244141 -0.03570557
vn 0.2783203 0.7392578 -0.6132813
vn 0.8916016 0.2700195 -0.3637695
vn 0.9868164 0.0760498 0.1417236
vn 0.8544922 0.5009766 -0.1373291
vn -0.0489502 0.9228516 0.3818359
vn 0.8051758 0.5415039 0.2425537
vn 0.02975464 0.9365234 0.3493652
vn 0.8544922 -0.519043 0.02453613
vn 0.9345703 -0.2004395 -0.2937012
vn 0.8652344 0.2243652 -0.4487305
vn 0.8154297 0.3024902 0.4936523
vn 0.8916016 0.2700195 -0.3637695
vn -0.1949463 0.5288086 0.8261719
vn 0.9887695 -0.09075928 -0.1203003
vn 0.871582 0.2171631 -0.4389648
vn 0.9731445 -0.1333008 -0.1875
vn 0.8808594 -0.4621582 0.1021729
vn 0.8613281 -0.5073242 0.02224731
vn 0.796875 -0.02580261 0.6035156
vn -0.06280518 -0.04342651 0.9970703
vn 0.027771 0.5366211 0.8432617
vn 0.01515198 -0.08013916 0.996582
vn 0.09295654 -0.04904175 0.9946289
vn 0.2457275 0.5180664 0.8193359
vn -0.7636719 0.01433563 0.6450195
vn -0.7700195 0.3505859 0.5332031
vn -0.8950195 -0.4233398 0.1401367
vn -0.9956055 -0.03900146 -0.08374023
vn -0.8803711 -0.470459 0.05664063
vn -0.8842773 0.3242188 -0.3356934
vn -0.984375 -0.0838623 -0.1539307
vn -0.8701172 0.2683105 -0.4138184
g Middle_0
f 3/3/3 2/2/2 1/1/1
f 4/4/4 3/3/3 1/1/1
f 4/4/4 1/1/1 5/5/5
f 6/6/6 3/3/3 4/4/4
f 7/7/7 6/6/6 4/4/4
f 8/8/8 4/4/4 5/5/5
f 7/7/7 4/4/4 8/8/8
f 7/7/7 9/9/9 6/6/6
f 9/9/9 10/10/10 6/6/6
f 9/9/9 11/11/11 10/10/10
f 11/11/11 12/12/12 10/10/10
f 13/13/13 11/11/11 9/9/9
f 14/14/14 9/9/9 7/7/7
f 14/14/14 13/13/13 9/9/9
f 15/15/15 7/7/7 8/8/8
f 15/15/15 14/14/14 7/7/7
f 5/5/5 16/16/16 8/8/8
f 8/8/8 17/17/17 15/15/15
f 16/16/16 17/17/17 8/8/8
f 15/15/15 18/18/18 14/14/14
f 17/17/17 18/18/18 15/15/15
f 14/14/14 19/19/19 13/13/13
f 18/18/18 19/19/19 14/14/14
f 20/20/20 16/16/16 5/5/5
f 21/21/21 20/20/20 5/5/5
f 19/19/19 22/22/22 13/13/13
f 13/13/13 22/22/22 23/23/23
f 24/24/24 20/20/20 21/21/21
f 25/25/25 24/24/24 21/21/21
f 22/22/22 26/26/26 23/23/23
f 23/23/23 26/26/26 27/27/27
f 16/16/16 28/28/28 17/17/17
f 17/17/17 29/29/29 18/18/18
f 28/28/28 29/29/29 17/17/17
f 18/18/18 30/30/30 19/19/19
f 29/29/29 30/30/30 18/18/18
f 20/20/20 31/31/31 16/16/16
f 31/31/31 28/28/28 16/16/16
f 19/19/19 32/32/32 22/22/22
f 30/30/30 32/32/32 19/19/19
f 24/24/24 33/33/33 20/20/20
f 33/33/33 31/31/31 20/20/20
f 22/22/22 34/34/34 26/26/26
f 32/32/32 34/34/34 22/22/22
f 29/29/29 35/35/35 30/30/30
f 28/28/28 36/36/36 29/29/29
f 36/36/36 35/35/35 29/29/29
f 31/31/31 37/37/37 28/28/28
f 37/37/37 36/36/36 28/28/28
f 30/30/30 38/38/38 32/32/32
f 35/35/35 38/38/38 30/30/30
f 33/33/33 39/39/39 31/31/31
f 39/39/39 37/37/37 31/31/31
f 32/32/32 40/40/40 34/34/34
f 38/38/38 40/40/40 32/32/32
f 34/34/34 41/41/41 26/26/26
f 40/40/40 42/42/42 34/34/34
f 34/34/34 42/42/42 41/41/41
f 26/26/26 41/41/41 43/43/43
f 26/26/26 43/43/43 27/27/27
f 36/36/36 44/44/44 35/35/35
f 37/37/37 45/45/45 36/36/36
f 45/45/45 44/44/44 36/36/36
f 35/35/35 46/46/46 38/38/38
f 44/44/44 46/46/46 35/35/35
f 38/38/38 47/47/47 40/40/40
f 46/46/46 47/47/47 38/38/38
f 40/40/40 48/48/48 42/42/42
f 47/47/47 48/48/48 40/40/40
f 49/49/49 45/45/45 37/37/37
f 39/39/39 49/49/49 37/37/37
f 44/44/44 50/50/50 46/46/46
f 46/46/46 51/51/51 47/47/47
f 50/50/50 51/51/51 46/46/46
f 45/45/45 52/52/52 44/44/44
f 52/52/52 50/50/50 44/44/44
f 47/47/47 53/53/53 48/48/48
f 51/51/51 53/53/53 47/47/47
f 49/49/49 54/54/54 45/45/45
f 54/54/54 52/52/52 45/45/45
f 48/48/48 55/55/55 42/42/42
f 53/53/53 56/56/56 48/48/48
f 48/48/48 56/56/56 55/55/55
f 42/42/42 55/55/55 57/57/57
f 42/42/42 57/57/57 41/41/41
f 41/41/41 57/57/57 58/58/58
f 41/41/41 58/58/58 43/43/43
f 50/50/50 59/59/59 51/51/51
f 52/52/52 60/60/60 50/50/50
f 60/60/60 59/59/59 50/50/50
f 59/59/59 61/61/61 51/51/51
f 51/51/51 61/61/61 53/53/53
f 61/61/61 59/59/59 60/60/60
f 62/62/62 60/60/60 52/52/52
f 54/54/54 62/62/62 52/52/52
f 61/61/61 63/63/63 53/53/53
f 53/53/53 63/63/63 56/56/56
f 64/64/64 61/61/61 60/60/60
f 64/64/64 60/60/60 62/62/62
f 63/63/63 61/61/61 64/64/64
f 65/65/65 62/62/62 54/54/54
f 65/65/65 64/64/64 62/62/62
f 66/66/66 63/63/63 64/64/64
f 66/66/66 64/64/64 65/65/65
f 67/67/67 65/65/65 54/54/54
f 67/67/67 54/54/54 49/49/49
f 68/68/68 66/66/66 65/65/65
f 68/68/68 65/65/65 67/67/67
f 69/69/69 67/67/67 49/49/49
f 69/69/69 49/49/49 39/39/39
f 70/70/70 68/68/68 67/67/67
f 70/70/70 67/67/67 69/69/69
f 71/71/71 69/69/69 39/39/39
f 71/71/71 39/39/39 33/33/33
f 72/72/72 70/70/70 69/69/69
f 72/72/72 69/69/69 71/71/71
f 73/73/73 71/71/71 33/33/33
f 73/73/73 33/33/33 24/24/24
f 74/74/74 72/72/72 71/71/71
f 74/74/74 71/71/71 73/73/73
f 75/75/75 73/73/73 24/24/24
f 75/75/75 24/24/24 25/25/25
f 76/76/76 74/74/74 73/73/73
f 76/76/76 73/73/73 75/75/75
f 77/77/77 75/75/75 25/25/25
f 77/77/77 25/25/25 78/78/78
f 79/79/79 76/76/76 75/75/75
f 79/79/79 75/75/75 77/77/77
f 80/80/80 77/77/77 78/78/78
f 80/80/80 78/78/78 81/81/81
f 82/82/82 79/79/79 77/77/77
f 82/82/82 77/77/77 80/80/80
f 74/74/74 83/83/83 72/72/72
f 76/76/76 84/84/84 74/74/74
f 84/84/84 83/83/83 74/74/74
f 79/79/79 85/85/85 76/76/76
f 85/85/85 84/84/84 76/76/76
f 82/82/82 86/86/86 79/79/79
f 86/86/86 85/85/85 79/79/79
f 87/87/87 82/82/82 80/80/80
f 86/86/86 82/82/82 87/87/87
f 88/88/88 80/80/80 81/81/81
f 87/87/87 80/80/80 88/88/88
f 83/83/83 89/89/89 72/72/72
f 72/72/72 89/89/89 70/70/70
f 89/89/89 90/90/90 70/70/70
f 70/70/70 90/90/90 68/68/68
f 90/90/90 91/91/91 68/68/68
f 68/68/68 91/91/91 66/66/66
f 91/91/91 92/92/92 66/66/66
f 66/66/66 92/92/92 63/63/63
f 92/92/92 93/93/93 63/63/63
f 63/63/63 93/93/93 56/56/56
f 56/56/56 93/93/93 94/94/94
f 56/56/56 94/94/94 55/55/55
f 55/55/55 94/94/94 95/95/95
f 55/55/55 95/95/95 57/57/57
f 57/57/57 95/95/95 96/96/96
f 57/57/57 96/96/96 58/58/58
f 83/83/83 96/96/96 89/89/89
f 58/58/58 96/96/96 83/83/83
f 84/84/84 58/58/58 83/83/83
f 43/43/43 58/58/58 84/84/84
f 85/85/85 43/43/43 84/84/84
f 27/27/27 43/43/43 85/85/85
f 86/86/86 27/27/27 85/85/85
f 96/96/96 97/97/97 89/89/89
f 95/95/95 97/97/97 96/96/96
f 89/89/89 97/97/97 90/90/90
f 27/27/27 86/86/86 98/98/98
f 99/99/99 27/27/27 98/98/98
f 98/98/98 86/86/86 87/87/87
f 95/95/95 100/100/100 97/97/97
f 94/94/94 100/100/100 95/95/95
f 97/97/97 101/101/101 90/90/90
f 100/100/100 101/101/101 97/97/97
f 90/90/90 101/101/101 91/91/91
f 99/99/99 98/98/98 102/102/102
f 103/103/103 99/99/99 102/102/102
f 98/98/98 87/87/87 104/104/104
f 102/102/102 98/98/98 104/104/104
f 104/104/104 87/87/87 88/88/88
f 94/94/94 105/105/105 100/100/100
f 93/93/93 105/105/105 94/94/94
f 105/105/105 106/106/106 100/100/100
f 106/106/106 105/105/105 93/93/93
f 100/100/100 106/106/106 101/101/101
f 92/92/92 106/106/106 93/93/93
f 101/101/101 107/107/107 91/91/91
f 106/106/106 107/107/107 101/101/101
f 107/107/107 106/106/106 92/92/92
f 91/91/91 107/107/107 92/92/92
f 108/108/108 103/103/103 102/102/102
f 109/109/109 103/103/103 108/108/108
f 110/110/110 102/102/102 104/104/104
f 110/110/110 108/108/108 102/102/102
f 111/111/111 109/109/109 108/108/108
f 112/112/112 109/109/109 111/111/111
f 113/113/113 112/112/112 111/111/111
f 113/113/113 111/111/111 114/114/114
f 115/115/115 113/113/113 114/114/114
f 114/114/114 111/111/111 116/116/116
f 111/111/111 108/108/108 116/116/116
f 116/116/116 108/108/108 110/110/110
f 117/117/117 116/116/116 110/110/110
f 117/117/117 110/110/110 118/118/118
f 118/118/118 110/110/110 104/104/104
f 119/119/119 117/117/117 118/118/118
f 119/119/119 118/118/118 120/120/120
f 118/118/118 104/104/104 121/121/121
f 118/118/118 121/121/121 120/120/120
f 104/104/104 88/88/88 121/121/121
f 120/120/120 121/121/121 122/122/122
f 121/121/121 88/88/88 123/123/123
f 121/121/121 123/123/123 122/122/122
f 88/88/88 81/81/81 123/123/123
f 122/122/122 123/123/123 124/124/124
f 123/123/123 81/81/81 125/125/125
f 123/123/123 125/125/125 124/124/124
f 124/124/124 125/125/125 126/126/126
f 81/81/81 127/127/127 125/125/125
f 125/125/125 128/128/128 126/126/126
f 125/125/125 127/127/127 128/128/128
f 127/127/127 129/129/129 128/128/128
