g Object003.003
v 1.143851 -1.616269 -0.01197417
v -1.143989 -1.616116 -0.01151835
v 1.143851 -1.616116 -0.01151831
v -1.143989 1.615724 0.09903303
v 1.143851 1.615561 0.099526
v -1.143989 1.61556 0.09952559
v 1.143851 0.4926966 0.06934419
v 1.143851 0.4926478 0.0698475
v 1.143851 0.9810483 -0.01726374
v 1.143851 0.9810483 -0.01726374
v 1.143851 0.9809498 -0.01676192
v 1.143851 1.460186 0.04975057
v 1.143851 1.460037 0.05024599
v 1.143851 1.615726 0.09903402
v 1.143851 1.460037 0.05024599
v 1.143851 1.615561 0.099526
v -1.143989 -1.616116 -0.01151835
v 1.143851 -1.616269 -0.01197417
v -1.143989 -1.61627 -0.01197386
v 1.143851 1.615561 0.099526
v -1.143989 1.615724 0.09903303
v 1.143851 1.615726 0.09903402
v -1.143989 0.9809486 -0.01676214
v -1.143989 0.4926945 0.06934396
v -1.143989 0.9810456 -0.01726427
v -1.143989 0.4926465 0.06984743
v -1.143989 0.4926945 0.06934396
v -1.143989 -0.0002849694 0.04543952
v 1.143851 0.4926478 0.0698475
v 1.143851 0.4926966 0.06934419
v 1.143851 -0.000282528 0.04593953
v 1.143851 -0.0002831384 0.04543952
v -1.143989 1.460035 0.05024545
v -1.143989 1.460182 0.04974969
v -1.143989 1.61556 0.09952559
v -1.143989 1.615724 0.09903303
v -1.143989 0.9809486 -0.01676214
v -1.143989 0.9810456 -0.01726427
v -1.143989 1.460035 0.05024545
v -1.143989 1.460182 0.04974969
v 1.143851 -1.460593 -0.06080149
v 1.143851 -1.460733 -0.06126383
v 1.143851 -1.616116 -0.01151831
v 1.143851 -1.616269 -0.01197417
v 1.143851 -0.9815105 -0.01674107
v 1.143851 -0.9816057 -0.01722033
v 1.143851 -1.460593 -0.06080149
v 1.143851 -1.460733 -0.06126383
v 1.143851 -0.4932119 -0.08826147
v 1.143851 -0.4932604 -0.08875339
v 1.143851 -0.9815105 -0.01674107
v 1.143851 -0.9816057 -0.01722033
v 1.143851 -0.000282528 0.04593953
v 1.143851 -0.0002831384 0.04543952
v 1.143851 -0.4932119 -0.08826147
v 1.143851 -0.4932604 -0.08875339
v 1.143851 1.615561 0.099526
v -1.143989 1.460035 0.05024545
v -1.143989 1.61556 0.09952559
v 1.143851 1.460037 0.05024599
v -1.143989 0.9809486 -0.01676214
v 1.143851 0.9809498 -0.01676192
v -1.143989 0.4926465 0.06984743
v 1.143851 0.4926478 0.0698475
v -1.143989 -0.0002834435 0.04593953
v 1.143851 -0.000282528 0.04593953
v -1.143989 -0.4932125 -0.08826141
v 1.143851 -0.4932119 -0.08826147
v -1.143989 -0.9815111 -0.01674096
v 1.143851 -0.9815105 -0.01674107
v -1.143989 -1.460593 -0.06080145
v 1.143851 -1.460593 -0.06080149
v -1.143989 -1.616116 -0.01151835
v 1.143851 -1.616116 -0.01151831
v -1.143989 1.615724 0.09903303
v 1.143851 1.460186 0.04975057
v 1.143851 1.615726 0.09903402
v -1.143989 1.460182 0.04974969
v 1.143851 0.9810483 -0.01726374
v -1.143989 0.9810456 -0.01726427
v 1.143851 0.4926966 0.06934419
v -1.143989 0.4926945 0.06934396
v 1.143851 -0.0002831384 0.04543952
v -1.143989 -0.0002849694 0.04543952
v 1.143851 -0.4932604 -0.08875339
v -1.143989 -0.4932622 -0.08875322
v 1.143851 -0.9816057 -0.01722033
v -1.143989 -0.9816073 -0.01722004
v 1.143851 -1.460733 -0.06126383
v -1.143989 -1.460733 -0.06126353
v 1.143851 -1.616269 -0.01197417
v -1.143989 -1.61627 -0.01197386
vt 0.6953125 0.00920105
vt 0.9365234 0.01242065
vt 0.6953125 0.009147644
vt 0.7490234 0.01031494
vt 0.9902344 0.01084137
vt 0.7490234 0.01026154
vt 0.7685547 0.01143646
vt 0.7685547 0.01138306
vt 0.7163086 0.01141357
vt 0.7163086 0.01141357
vt 0.7163086 0.01136017
vt 0.6640625 0.01139069
vt 0.6640625 0.01133728
vt 0.6469727 0.01138306
vt 0.6640625 0.01133728
vt 0.6469727 0.01132965
vt 0.9365234 0.01242065
vt 0.6953125 0.00920105
vt 0.9365234 0.01247406
vt 0.9902344 0.01084137
vt 0.7490234 0.01031494
vt 0.9902344 0.01089478
vt 0.7114258 0.01045227
vt 0.7631836 0.01055908
vt 0.7114258 0.01039124
vt 0.7631836 0.01061249
vt 0.7631836 0.01055908
vt 0.8154297 0.0107193
vt 0.7685547 0.01138306
vt 0.7685547 0.01143646
vt 0.8203125 0.01140594
vt 0.8203125 0.01145935
vt 0.6591797 0.01028442
vt 0.6591797 0.01023102
vt 0.6420898 0.01023102
vt 0.6420898 0.01017761
vt 0.7114258 0.01045227
vt 0.7114258 0.01039124
vt 0.6591797 0.01028442
vt 0.6591797 0.01023102
vt 0.9765625 0.01147461
vt 0.9765625 0.01152802
vt 0.9936523 0.01148224
vt 0.9936523 0.01153564
vt 0.9243164 0.01145172
vt 0.9243164 0.01150513
vt 0.9765625 0.01147461
vt 0.9765625 0.01152802
vt 0.8725586 0.01142883
vt 0.8725586 0.01148224
vt 0.9243164 0.01145172
vt 0.9243164 0.01150513
vt 0.8203125 0.01140594
vt 0.8203125 0.01145935
vt 0.8725586 0.01142883
vt 0.8725586 0.01148224
vt 0.7592773 0.4384766
vt 0.871582 0.4465332
vt 0.871582 0.4384766
vt 0.7592773 0.4465332
vt 0.871582 0.4709473
vt 0.7592773 0.4709473
vt 0.871582 0.4951172
vt 0.7592773 0.4951172
vt 0.871582 0.5195313
vt 0.7592773 0.5195313
vt 0.871582 0.543457
vt 0.7592773 0.543457
vt 0.871582 0.5678711
vt 0.7592773 0.5678711
vt 0.871582 0.5922852
vt 0.7592773 0.5922852
vt 0.871582 0.6000977
vt 0.7592773 0.6000977
vt 0.8798828 0.4379883
vt 0.9907227 0.4458008
vt 0.9907227 0.4379883
vt 0.8798828 0.4458008
vt 0.9907227 0.4697266
vt 0.8798828 0.4697266
vt 0.9907227 0.4936523
vt 0.8798828 0.4936523
vt 0.9907227 0.5175781
vt 0.8798828 0.5175781
vt 0.9907227 0.5415039
vt 0.8798828 0.5415039
vt 0.9907227 0.5654297
vt 0.8798828 0.5654297
vt 0.9907227 0.5893555
vt 0.8798828 0.5893555
vt 0.9907227 0.597168
vt 0.8798828 0.597168
vn 0 -0.9477539 0.3188477
vn 0 -0.9477539 0.3193359
vn 0 -0.9477539 0.3188477
vn -5.364418E-07 0.9487305 0.3156738
vn -5.364418E-07 0.9487305 0.3156738
vn -5.364418E-07 0.9487305 0.3156738
vn 1 0 0
vn 1 0 0
vn 1 0 0
vn 1 0 0
vn 1 0 0
vn 1 0 0
vn 1 0 0
vn 1 0 0
vn 1 -0.0001442432 0
vn 1 -0.0001442432 0
vn 4.768372E-07 -0.9467773 0.3215332
vn 4.768372E-07 -0.9467773 0.3215332
vn 4.768372E-07 -0.9467773 0.3215332
vn -1.132488E-06 0.9482422 0.3178711
vn -1.132488E-06 0.9482422 0.3181152
vn -1.132488E-06 0.9482422 0.3181152
vn -1 0 0
vn -1 -5.155802E-05 0
vn -1 -5.155802E-05 0
vn -1 0 0
vn -1 0 0
vn -1 0 0
vn 1 -2.449751E-05 0
vn 1 -2.449751E-05 0
vn 1 -2.449751E-05 0
vn 1 0 0
vn -1 0 0
vn -1 0 0
vn -1 0 0
vn -1 0 0
vn -1 -0.0004298687 0
vn -1 -0.0004298687 0
vn -1 -0.0004301071 0
vn -1 0.0004794598 0
vn 1 0 0
vn 1 0 0
vn 1 0 0
vn 1 -0.0001555681 0
vn 1 0 0
vn 1 0 0
vn 1 0 0
vn 1 -2.831221E-05 0
vn 1 0 0
vn 1 0 0
vn 1 0 0
vn 1 -5.066395E-05 0
vn 1 -0.000767231 0
vn 1 -0.000767231 0
vn 1 -0.000767231 0
vn 1 0 0
vn 0 -0.302002 0.953125
vn 0 -0.2210693 0.9750977
vn 0 -0.302002 0.953125
vn 0 -0.2210693 0.9750977
vn -1.788139E-07 0.01829529 1
vn 0 0.01829529 1
vn 0 0.06347656 0.9980469
vn 0 0.06347656 0.9980469
vn 0 -0.1564941 0.987793
vn 0 -0.1564941 0.987793
vn 0 -0.06015015 0.9980469
vn 0 -0.06015015 0.9980469
vn 0 0.02685547 0.9995117
vn 0 0.02685547 0.9995117
vn 0 0.1073608 0.9941406
vn 0 0.1073608 0.9941406
vn 0 0.302002 0.953125
vn 0 0.302002 0.953125
vn 0 0.302002 -0.953125
vn 1.192093E-07 0.2210693 -0.9750977
vn 0 0.302002 -0.953125
vn 0 0.2210693 -0.9750977
vn 2.980232E-07 -0.01828003 -1
vn 1.788139E-07 -0.01828003 -1
vn 2.384186E-07 -0.06347656 -0.9980469
vn 1.192093E-07 -0.06347656 -0.9980469
vn 0 0.1564941 -0.987793
vn -1.788139E-07 0.1564941 -0.987793
vn 0 0.06011963 -0.9980469
vn -1.788139E-07 0.06011963 -0.9980469
vn 0 -0.02688599 -0.9995117
vn -1.192093E-07 -0.02688599 -0.9995117
vn 0 -0.1074219 -0.9941406
vn 0 -0.1074219 -0.9941406
vn 0 -0.302002 -0.953125
vn 0 -0.302002 -0.953125
g Object003.003_0
f 3/3/3 2/2/2 1/1/1
f 6/6/6 5/5/5 4/4/4
f 9/9/9 8/8/8 7/7/7
f 11/11/11 8/8/8 10/10/10
f 12/12/12 11/11/11 10/10/10
f 13/13/13 11/11/11 12/12/12
f 14/14/14 13/13/13 12/12/12
f 16/16/16 15/15/15 14/14/14
f 19/19/19 18/18/18 17/17/17
f 22/22/22 21/21/21 20/20/20
f 25/25/25 24/24/24 23/23/23
f 23/23/23 27/27/27 26/26/26
f 28/28/28 26/26/26 27/27/27
f 31/31/31 30/30/30 29/29/29
f 32/32/32 30/30/30 31/31/31
f 35/35/35 34/34/34 33/33/33
f 36/36/36 34/34/34 35/35/35
f 39/39/39 38/38/38 37/37/37
f 40/40/40 38/38/38 39/39/39
f 43/43/43 42/42/42 41/41/41
f 44/44/44 42/42/42 43/43/43
f 47/47/47 46/46/46 45/45/45
f 48/48/48 46/46/46 47/47/47
f 51/51/51 50/50/50 49/49/49
f 52/52/52 50/50/50 51/51/51
f 55/55/55 54/54/54 53/53/53
f 56/56/56 54/54/54 55/55/55
f 59/59/59 58/58/58 57/57/57
f 57/57/57 58/58/58 60/60/60
f 58/58/58 61/61/61 60/60/60
f 60/60/60 61/61/61 62/62/62
f 61/61/61 63/63/63 62/62/62
f 62/62/62 63/63/63 64/64/64
f 63/63/63 65/65/65 64/64/64
f 64/64/64 65/65/65 66/66/66
f 65/65/65 67/67/67 66/66/66
f 66/66/66 67/67/67 68/68/68
f 69/69/69 68/68/68 67/67/67
f 70/70/70 68/68/68 69/69/69
f 71/71/71 70/70/70 69/69/69
f 72/72/72 70/70/70 71/71/71
f 73/73/73 72/72/72 71/71/71
f 74/74/74 72/72/72 73/73/73
f 77/77/77 76/76/76 75/75/75
f 75/75/75 76/76/76 78/78/78
f 76/76/76 79/79/79 78/78/78
f 78/78/78 79/79/79 80/80/80
f 79/79/79 81/81/81 80/80/80
f 80/80/80 81/81/81 82/82/82
f 81/81/81 83/83/83 82/82/82
f 82/82/82 83/83/83 84/84/84
f 83/83/83 85/85/85 84/84/84
f 84/84/84 85/85/85 86/86/86
f 87/87/87 86/86/86 85/85/85
f 88/88/88 86/86/86 87/87/87
f 89/89/89 88/88/88 87/87/87
f 90/90/90 88/88/88 89/89/89
f 91/91/91 90/90/90 89/89/89
f 92/92/92 90/90/90 91/91/91
