g Object040
v -0.1583632 7.629394E-08 -9.155273E-07
v -0.1583632 0.3684734 0.3684726
v -0.1583632 0.1079234 0.260549
v -0.1583632 0.3684734 -0.3684744
v -0.1583632 0.1079234 -0.2605508
v -0.1583632 0.7369467 -9.155273E-07
v -0.1583632 0.6290234 0.260549
v -0.1583632 0.6290234 -0.2605508
v -0.1583632 0.3684734 -0.3684744
v 0.1583633 0.6290234 -0.2605508
v -0.1583632 0.6290234 -0.2605508
v 0.1583633 0.3684734 -0.3684744
v -0.1583632 0.6290234 -0.2605508
v 0.1583633 0.7369467 -9.155273E-07
v -0.1583632 0.7369467 -9.155273E-07
v 0.1583633 0.6290234 -0.2605508
v -0.1583632 0.7369467 -9.155273E-07
v 0.1583633 0.6290234 0.260549
v -0.1583632 0.6290234 0.260549
v 0.1583633 0.7369467 -9.155273E-07
v -0.1583632 0.6290234 0.260549
v 0.1583633 0.3684734 0.3684726
v -0.1583632 0.3684734 0.3684726
v 0.1583633 0.6290234 0.260549
v -0.1583632 0.3684734 0.3684726
v 0.1583633 0.1079234 0.260549
v -0.1583632 0.1079234 0.260549
v 0.1583633 0.3684734 0.3684726
v -0.1583632 0.1079234 0.260549
v 0.1583633 7.629394E-08 -9.155273E-07
v -0.1583632 7.629394E-08 -9.155273E-07
v 0.1583633 0.1079234 0.260549
v -0.1583632 7.629394E-08 -9.155273E-07
v 0.1583633 0.1079234 -0.2605508
v -0.1583632 0.1079234 -0.2605508
v 0.1583633 7.629394E-08 -9.155273E-07
v -0.1583632 0.1079234 -0.2605508
v 0.1583633 0.3684734 -0.3684744
v -0.1583632 0.3684734 -0.3684744
v 0.1583633 0.1079234 -0.2605508
v 0.06639533 0.3684734 -0.2355301
v 0.06639533 0.6040025 -9.155273E-07
v 0.06639533 0.5350175 -0.1665451
v 0.06639533 0.1329443 -9.155273E-07
v 0.06639533 0.2019291 -0.1665451
v 0.06639533 0.3684734 0.2355279
v 0.06639533 0.5350177 0.1665433
v 0.06639533 0.2019291 0.166543
v 0.1583633 0.3684734 -0.2355301
v 0.06639533 0.5350175 -0.1665451
v 0.1583633 0.5350175 -0.1665451
v 0.06639533 0.3684734 -0.2355301
v 0.1583633 0.5350175 -0.1665451
v 0.06639533 0.6040025 -9.155273E-07
v 0.1583633 0.6040025 -9.155273E-07
v 0.06639533 0.5350175 -0.1665451
v 0.1583633 0.6040025 -9.155273E-07
v 0.06639533 0.5350177 0.1665433
v 0.1583633 0.5350176 0.1665433
v 0.06639533 0.6040025 -9.155273E-07
v 0.1583633 0.5350176 0.1665433
v 0.06639533 0.3684734 0.2355279
v 0.1583633 0.3684734 0.2355279
v 0.06639533 0.5350177 0.1665433
v 0.1583633 0.3684734 0.2355279
v 0.06639533 0.2019291 0.166543
v 0.1583633 0.2019291 0.166543
v 0.06639533 0.3684734 0.2355279
v 0.1583633 0.2019291 0.166543
v 0.06639533 0.1329443 -9.155273E-07
v 0.1583633 0.1329443 -9.155273E-07
v 0.06639533 0.2019291 0.166543
v 0.1583633 0.1329443 -9.155273E-07
v 0.06639533 0.2019291 -0.1665451
v 0.1583633 0.2019291 -0.1665451
v 0.06639533 0.1329443 -9.155273E-07
v 0.1583633 0.2019291 -0.1665451
v 0.06639533 0.3684734 -0.2355301
v 0.1583633 0.3684734 -0.2355301
v 0.06639533 0.2019291 -0.1665451
v 0.1583633 0.5350175 -0.1665451
v 0.1583633 0.3684734 -0.3684744
v 0.1583633 0.3684734 -0.2355301
v 0.1583633 0.6290234 -0.2605508
v 0.1583633 0.1079234 -0.2605508
v 0.1583633 0.6040025 -9.155273E-07
v 0.1583633 0.2019291 -0.1665451
v 0.1583633 0.7369467 -9.155273E-07
v 0.1583633 7.629394E-08 -9.155273E-07
v 0.1583633 0.5350176 0.1665433
v 0.1583633 0.1329443 -9.155273E-07
v 0.1583633 0.6290234 0.260549
v 0.1583633 0.1079234 0.260549
v 0.1583633 0.3684734 0.2355279
v 0.1583633 0.2019291 0.166543
v 0.1583633 0.3684734 0.3684726
vt 0.2213846 0.8106747
vt 0.21509 0.8254596
vt 0.2212995 0.819371
vt 0.2065995 0.8043799
vt 0.215296 0.8044651
vt 0.2003048 0.819165
vt 0.2063939 0.8253742
vt 0.2003901 0.8104687
vt 0.8968473 0.4211376
vt 0.9066142 0.4124408
vt 0.8968473 0.4124408
vt 0.9066142 0.4211376
vt 0.3354094 0.8913705
vt 0.3270502 0.8812091
vt 0.3270502 0.8913705
vt 0.3354094 0.8812091
vt 0.3270502 0.8913705
vt 0.318691 0.8812091
vt 0.318691 0.8913705
vt 0.3270502 0.8812091
vt 0.6329695 0.8407581
vt 0.6246102 0.8305967
vt 0.6246102 0.8407581
vt 0.6329695 0.8305967
vt 0.6246102 0.8407581
vt 0.6162511 0.8305967
vt 0.6162511 0.8407581
vt 0.6246102 0.8305967
vt 0.25205 0.9717962
vt 0.243691 0.9616348
vt 0.243691 0.9717962
vt 0.25205 0.9616348
vt 0.243691 0.9717962
vt 0.2353319 0.9616348
vt 0.2353319 0.9717962
vt 0.243691 0.9616348
vt 0.3762362 0.813017
vt 0.3860032 0.8043203
vt 0.3762362 0.8043203
vt 0.3860032 0.813017
vt 0.1528535 0.6512008
vt 0.1623044 0.6552245
vt 0.1584122 0.6512553
vt 0.1488298 0.6606513
vt 0.1488845 0.6550928
vt 0.1582808 0.6646749
vt 0.1622497 0.6607831
vt 0.152722 0.6646204
vt 0.9833201 0.8603918
vt 0.988663 0.8633425
vt 0.988663 0.8603918
vt 0.9833201 0.8633425
vt 0.980355 0.6041204
vt 0.9856982 0.6070709
vt 0.9856982 0.6041204
vt 0.980355 0.6070709
vt 0.9856982 0.6041204
vt 0.9910413 0.6070709
vt 0.9910413 0.6041204
vt 0.9856982 0.6070709
vt 0.9026206 0.8229064
vt 0.8972772 0.8199559
vt 0.8972772 0.8229064
vt 0.9026206 0.8199559
vt 0.8972772 0.8229064
vt 0.891934 0.8199559
vt 0.891934 0.8229064
vt 0.8972772 0.8199559
vt 0.8199599 0.9352337
vt 0.825303 0.9381843
vt 0.825303 0.9352337
vt 0.8199599 0.9381843
vt 0.825303 0.9352337
vt 0.8306461 0.9381843
vt 0.8306461 0.9352337
vt 0.825303 0.9381843
vt 0.977977 0.8603918
vt 0.9833201 0.8633425
vt 0.9833201 0.8603918
vt 0.977977 0.8633425
vt 0.3727983 0.6406321
vt 0.3766558 0.6335417
vt 0.3728528 0.6350735
vt 0.3765703 0.6422379
vt 0.3705666 0.6273322
vt 0.3688292 0.6445243
vt 0.3689606 0.6311041
vt 0.3703609 0.6483266
vt 0.3618704 0.6272472
vt 0.3632705 0.6444696
vt 0.3634021 0.6310498
vt 0.3616646 0.6482416
vt 0.3556608 0.6333361
vt 0.3593785 0.6405005
vt 0.3594328 0.6349418
vt 0.3555755 0.6420321
vn -1 0 0
vn -1 0 0
vn -1 0 0
vn -1 0 0
vn -1 0 0
vn -1 0 0
vn -1 0 0
vn -1 0 0
vn 0 0.3826842 -0.9238792
vn 0 0.3826842 -0.9238792
vn 0 0.3826841 -0.9238792
vn 0 0.3826841 -0.9238792
vn 0 0.9238795 -0.3826834
vn 0 0.9238795 -0.3826835
vn 0 0.9238795 -0.3826834
vn 0 0.9238795 -0.3826834
vn 0 0.9238795 0.3826833
vn 0 0.9238795 0.3826833
vn 0 0.9238795 0.3826833
vn 0 0.9238795 0.3826833
vn 0 0.3826841 0.9238792
vn 0 0.3826841 0.9238792
vn 0 0.3826841 0.9238792
vn 0 0.3826841 0.9238792
vn 0 -0.3826841 0.9238793
vn 0 -0.3826841 0.9238793
vn 0 -0.3826841 0.9238793
vn 0 -0.3826841 0.9238793
vn 0 -0.9238795 0.3826833
vn 0 -0.9238795 0.3826833
vn 0 -0.9238795 0.3826833
vn 0 -0.9238795 0.3826833
vn 0 -0.9238795 -0.3826833
vn 0 -0.9238795 -0.3826833
vn 0 -0.9238795 -0.3826833
vn 0 -0.9238795 -0.3826833
vn 0 -0.3826841 -0.9238793
vn 0 -0.3826841 -0.9238793
vn 0 -0.3826841 -0.9238793
vn 0 -0.3826841 -0.9238793
vn 1 0 0
vn 1 0 0
vn 1 0 0
vn 1 0 0
vn 1 0 0
vn 1 0 0
vn 1 0 0
vn 1 0 0
vn 0 -0.3826841 0.9238793
vn 0 -0.3826841 0.9238793
vn 0 -0.3826841 0.9238793
vn 0 -0.3826841 0.9238793
vn 0 -0.9238793 0.3826841
vn 0 -0.9238793 0.3826841
vn 0 -0.9238793 0.3826841
vn 0 -0.9238793 0.3826841
vn -7.664239E-07 -0.9238794 -0.3826839
vn -7.664239E-07 -0.9238794 -0.3826839
vn -7.664238E-07 -0.9238794 -0.3826839
vn 0 -0.9238795 -0.3826835
vn 0 -0.3826826 -0.9238799
vn 0 -0.3826826 -0.9238799
vn 0 -0.3826826 -0.9238799
vn -3.174623E-07 -0.3826824 -0.92388
vn 0 0.3826837 -0.9238794
vn 0 0.3826837 -0.9238794
vn 0 0.3826838 -0.9238794
vn 0 0.3826838 -0.9238794
vn 0 0.9238793 -0.3826839
vn 0 0.9238793 -0.3826839
vn 0 0.9238793 -0.3826839
vn 0 0.9238793 -0.3826839
vn 0 0.9238796 0.3826833
vn 0 0.9238796 0.3826833
vn 0 0.9238796 0.3826833
vn 0 0.9238796 0.3826833
vn 0 0.3826837 0.9238794
vn 0 0.3826837 0.9238794
vn 0 0.3826838 0.9238794
vn 0 0.3826838 0.9238794
vn 1 0 0
vn 1 0 0
vn 1 0 0
vn 1 0 0
vn 1 0 0
vn 1 0 0
vn 1 0 0
vn 1 0 0
vn 1 0 0
vn 1 0 0
vn 1 0 0
vn 1 0 0
vn 1 0 0
vn 1 0 0
vn 1 0 0
vn 1 0 0
g Object040_0
f 3/3/3 2/2/2 1/1/1
f 2/2/2 4/4/4 1/1/1
f 1/1/1 4/4/4 5/5/5
f 6/6/6 4/4/4 2/2/2
f 7/7/7 6/6/6 2/2/2
f 8/8/8 4/4/4 6/6/6
f 11/11/11 10/10/10 9/9/9
f 12/12/12 9/9/9 10/10/10
f 15/15/15 14/14/14 13/13/13
f 16/16/16 13/13/13 14/14/14
f 19/19/19 18/18/18 17/17/17
f 20/20/20 17/17/17 18/18/18
f 23/23/23 22/22/22 21/21/21
f 24/24/24 21/21/21 22/22/22
f 27/27/27 26/26/26 25/25/25
f 28/28/28 25/25/25 26/26/26
f 31/31/31 30/30/30 29/29/29
f 32/32/32 29/29/29 30/30/30
f 35/35/35 34/34/34 33/33/33
f 36/36/36 33/33/33 34/34/34
f 39/39/39 38/38/38 37/37/37
f 40/40/40 37/37/37 38/38/38
f 43/43/43 42/42/42 41/41/41
f 42/42/42 44/44/44 41/41/41
f 41/41/41 44/44/44 45/45/45
f 46/46/46 44/44/44 42/42/42
f 47/47/47 46/46/46 42/42/42
f 48/48/48 44/44/44 46/46/46
f 51/51/51 50/50/50 49/49/49
f 52/52/52 49/49/49 50/50/50
f 55/55/55 54/54/54 53/53/53
f 56/56/56 53/53/53 54/54/54
f 59/59/59 58/58/58 57/57/57
f 60/60/60 57/57/57 58/58/58
f 63/63/63 62/62/62 61/61/61
f 64/64/64 61/61/61 62/62/62
f 67/67/67 66/66/66 65/65/65
f 68/68/68 65/65/65 66/66/66
f 71/71/71 70/70/70 69/69/69
f 72/72/72 69/69/69 70/70/70
f 75/75/75 74/74/74 73/73/73
f 76/76/76 73/73/73 74/74/74
f 79/79/79 78/78/78 77/77/77
f 80/80/80 77/77/77 78/78/78
f 83/83/83 82/82/82 81/81/81
f 84/84/84 81/81/81 82/82/82
f 82/82/82 83/83/83 85/85/85
f 81/81/81 84/84/84 86/86/86
f 87/87/87 85/85/85 83/83/83
f 88/88/88 86/86/86 84/84/84
f 85/85/85 87/87/87 89/89/89
f 86/86/86 88/88/88 90/90/90
f 91/91/91 89/89/89 87/87/87
f 92/92/92 90/90/90 88/88/88
f 89/89/89 91/91/91 93/93/93
f 90/90/90 92/92/92 94/94/94
f 95/95/95 93/93/93 91/91/91
f 96/96/96 94/94/94 92/92/92
f 93/93/93 95/95/95 96/96/96
f 94/94/94 96/96/96 95/95/95
