g Object003.002
v 1.144526 1.626598 0.1812992
v 1.14452 -0.6261538 0.1813633
v 1.14448 1.626597 0.1818069
v 1.14448 1.626597 0.1818069
v 1.14452 -0.6261538 0.1813633
v 1.144476 -0.626156 0.1818455
v -1.162461 1.626596 0.004606857
v -1.162458 -0.6261564 0.004645996
v -1.162493 1.626595 0.004093151
v -1.162489 -0.6261556 0.004158039
v 0.363418 -1.532589 0.3378978
v 0.3634302 -1.532962 0.3375954
v -0.3875537 -1.532589 0.2802145
v -0.3875561 -1.532962 0.2799113
v -0.3922583 1.626596 -0.1464269
v -0.3922644 1.626596 -0.1469457
v 0.3802637 1.626596 -0.08708828
v 0.3802832 1.626597 -0.0876051
v -1.160807 -0.8832039 0.03128792
v -1.160778 -0.8830965 0.03176113
v -1.155685 -1.127863 0.1138995
v -1.155657 -1.127654 0.1143349
v 1.142028 -0.8830962 0.2086433
v 1.14207 -0.8832023 0.2081754
v 1.134567 -1.127654 0.2902509
v 1.134607 -1.127862 0.2898202
v -1.147374 -1.348069 0.2479185
v -1.147351 -1.34777 0.2482951
v -1.136288 -1.532962 0.426735
v -1.136269 -1.532589 0.427035
v -1.155685 -1.127863 0.1138995
v -1.155657 -1.127654 0.1143349
v -1.147374 -1.348069 0.2479185
v -1.147351 -1.34777 0.2482951
v -1.160778 -0.8830965 0.03176113
v -1.160807 -0.8832039 0.03128792
v -1.162458 -0.6261564 0.004645996
v -1.162489 -0.6261556 0.004158039
v 1.122465 -1.34777 0.4226434
v 1.122499 -1.348068 0.4222706
v 1.106317 -1.532589 0.5992918
v 1.106344 -1.532961 0.5989945
v 1.134567 -1.127654 0.2902509
v 1.134607 -1.127862 0.2898202
v 1.122465 -1.34777 0.4226434
v 1.122499 -1.348068 0.4222706
v 1.14207 -0.8832023 0.2081754
v 1.142028 -0.8830962 0.2086433
v 1.14452 -0.6261538 0.1813633
v 1.144476 -0.626156 0.1818455
v -0.3875537 -1.532589 0.2802145
v -0.3875561 -1.532962 0.2799113
v -1.136269 -1.532589 0.427035
v -1.136288 -1.532962 0.426735
v 0.3634302 -1.532962 0.3375954
v 0.363418 -1.532589 0.3378978
v 1.106344 -1.532961 0.5989945
v 1.106317 -1.532589 0.5992918
v 0.3802637 1.626596 -0.08708828
v 0.3802832 1.626597 -0.0876051
v 1.14448 1.626597 0.1818069
v 1.144526 1.626598 0.1812992
v -0.3922644 1.626596 -0.1469457
v -0.3922583 1.626596 -0.1464269
v -1.162493 1.626595 0.004093151
v -1.162461 1.626596 0.004606857
v 1.144476 -0.626156 0.1818455
v 0.3802637 1.626596 -0.08708828
v 1.14448 1.626597 0.1818069
v 0.3802612 -0.6261562 -0.08704891
v -0.3922583 1.626596 -0.1464269
v 1.142028 -0.8830962 0.2086433
v -0.3922583 -0.6261563 -0.1463873
v -1.162461 1.626596 0.004606857
v -1.162458 -0.6261564 0.004645996
v 0.3791797 -0.8830962 -0.05976963
v 1.134567 -1.127654 0.2902509
v -0.3919568 -0.8830965 -0.1190018
v -1.160778 -0.8830965 0.03176113
v 0.3758875 -1.127654 0.02330419
v 1.122465 -1.34777 0.4226434
v -0.3910364 -1.127654 -0.03560436
v -1.155657 -1.127654 0.1143349
v 0.3705457 -1.34777 0.1580755
v 1.106317 -1.532589 0.5992918
v 0.363418 -1.532589 0.3378978
v -0.3895447 -1.34777 0.09969188
v -1.147351 -1.34777 0.2482951
v -0.3875537 -1.532589 0.2802145
v -1.136269 -1.532589 0.427035
v -1.162489 -0.6261556 0.004158039
v -0.3922644 1.626596 -0.1469457
v -1.162493 1.626595 0.004093151
v -0.3922644 -0.6261549 -0.1468801
v 0.3802832 1.626597 -0.0876051
v -1.160807 -0.8832039 0.03128792
v 0.3802808 -0.6261543 -0.08753981
v 1.144526 1.626598 0.1812992
v 1.14452 -0.6261538 0.1813633
v -0.3919617 -0.8832033 -0.1194798
v -1.155685 -1.127863 0.1138995
v 0.3791992 -0.883203 -0.06024586
v 1.14207 -0.8832023 0.2081754
v -0.3910412 -1.127863 -0.03604427
v -1.147374 -1.348069 0.2479185
v 0.3759045 -1.127863 0.0228659
v 1.134607 -1.127862 0.2898202
v -0.3895483 -1.348069 0.09931125
v -1.136288 -1.532962 0.426735
v -0.3875561 -1.532962 0.2799113
v 0.3705603 -1.348069 0.1576962
v 1.122499 -1.348068 0.4222706
v 0.3634302 -1.532962 0.3375954
v 1.106344 -1.532961 0.5989945
vt 0.6469727 0.01138306
vt 0.8847656 0.01148987
vt 0.6469727 0.01132965
vt 0.6469727 0.01132965
vt 0.8847656 0.01148987
vt 0.8847656 0.01143646
vt 0.6420898 0.01023102
vt 0.8793945 0.01097107
vt 0.6420898 0.01017761
vt 0.8793945 0.01092529
vt 0.7758789 0.01023865
vt 0.7758789 0.01029205
vt 0.8564453 0.01132965
vt 0.8564453 0.01138306
vt 0.8295898 0.01045227
vt 0.8295898 0.01050568
vt 0.909668 0.01064301
vt 0.909668 0.01069641
vt 0.9067383 0.01100922
vt 0.9067383 0.01106262
vt 0.934082 0.01109314
vt 0.934082 0.01114655
vt 0.9116211 0.01144409
vt 0.9116211 0.0114975
vt 0.9389648 0.01145935
vt 0.9389648 0.01151276
vt 0.9614258 0.01117706
vt 0.9614258 0.01123047
vt 0.9887695 0.01126862
vt 0.9887695 0.01131439
vt 0.934082 0.01109314
vt 0.934082 0.01114655
vt 0.9614258 0.01117706
vt 0.9614258 0.01123047
vt 0.9067383 0.01106262
vt 0.9067383 0.01100922
vt 0.8793945 0.01097107
vt 0.8793945 0.01092529
vt 0.9663086 0.01147461
vt 0.9663086 0.01152039
vt 0.9936523 0.01148224
vt 0.9936523 0.01153564
vt 0.9389648 0.01145935
vt 0.9389648 0.01151276
vt 0.9663086 0.01147461
vt 0.9663086 0.01152039
vt 0.9116211 0.0114975
vt 0.9116211 0.01144409
vt 0.8847656 0.01148987
vt 0.8847656 0.01143646
vt 0.8564453 0.01132965
vt 0.8564453 0.01138306
vt 0.9365234 0.01242065
vt 0.9365234 0.01247406
vt 0.7758789 0.01029205
vt 0.7758789 0.01023865
vt 0.6953125 0.00920105
vt 0.6953125 0.009147644
vt 0.909668 0.01064301
vt 0.909668 0.01069641
vt 0.9902344 0.01084137
vt 0.9902344 0.01089478
vt 0.8295898 0.01050568
vt 0.8295898 0.01045227
vt 0.7490234 0.01031494
vt 0.7490234 0.01026154
vt 0.5073242 0.9345703
vt 0.5449219 0.8237305
vt 0.5073242 0.8237305
vt 0.5449219 0.9345703
vt 0.5825195 0.8237305
vt 0.5073242 0.9472656
vt 0.5825195 0.9345703
vt 0.6196289 0.8237305
vt 0.6196289 0.9345703
vt 0.5449219 0.9472656
vt 0.5073242 0.9599609
vt 0.5825195 0.9472656
vt 0.6196289 0.9472656
vt 0.5449219 0.9599609
vt 0.5073242 0.9726563
vt 0.5825195 0.9599609
vt 0.6196289 0.9599609
vt 0.5449219 0.9726563
vt 0.5073242 0.9853516
vt 0.5449219 0.9853516
vt 0.5825195 0.9726563
vt 0.6196289 0.9726563
vt 0.5825195 0.9853516
vt 0.6196289 0.9853516
vt 0.6279297 0.9321289
vt 0.6645508 0.8232422
vt 0.6279297 0.8232422
vt 0.6645508 0.9321289
vt 0.7016602 0.8232422
vt 0.6279297 0.9448242
vt 0.7016602 0.9321289
vt 0.7382813 0.8232422
vt 0.7382813 0.9321289
vt 0.6645508 0.9448242
vt 0.6279297 0.9575195
vt 0.7016602 0.9448242
vt 0.7382813 0.9448242
vt 0.6645508 0.9575195
vt 0.6279297 0.9697266
vt 0.7016602 0.9575195
vt 0.7382813 0.9575195
vt 0.6645508 0.9697266
vt 0.6279297 0.9824219
vt 0.6645508 0.9824219
vt 0.7016602 0.9697266
vt 0.7382813 0.9697266
vt 0.7016602 0.9824219
vt 0.7382813 0.9824219
vn 0.9960938 -1.788139E-07 0.09100342
vn 0.9960938 -1.788139E-07 0.09100342
vn 0.9960938 -1.788139E-07 0.09100342
vn 0.9960938 0 0.09075928
vn 0.9960938 0 0.09075928
vn 0.9960938 0 0.09075928
vn -0.9980469 0 0.06167603
vn -0.9980469 0 0.06167603
vn -0.9980469 0 0.06167603
vn -0.9980469 1.788139E-07 0.06240845
vn -0.05950928 -0.6293945 0.7749023
vn -0.05950928 -0.6298828 0.7744141
vn -0.05950928 -0.6293945 0.7749023
vn -0.05953979 -0.6289063 0.7753906
vn 4.464388E-05 1 -0.001942635
vn 4.464388E-05 1 -0.002038956
vn 4.470348E-05 1 -0.001942635
vn -4.661083E-05 1 0.002038956
vn -0.9980469 -9.775162E-05 0.0617981
vn -0.9980469 -9.775162E-05 0.0617981
vn -0.9980469 -9.775162E-05 0.0617981
vn -0.9980469 2.05636E-05 0.06402588
vn 0.9960938 0 0.09094238
vn 0.9960938 0 0.09094238
vn 0.9960938 0 0.09094238
vn 0.9956055 0.001075745 0.09283447
vn -0.9980469 0.002725601 0.06161499
vn -0.9980469 0.002725601 0.06161499
vn -0.9980469 0.002725601 0.06161499
vn -0.9980469 -0.004241943 0.0614624
vn -0.9980469 -0.0005407333 0.06378174
vn -0.9980469 -0.0005888939 0.06378174
vn -0.9980469 -0.0005407333 0.06378174
vn -0.9980469 0.002773285 0.06161499
vn -0.9980469 -4.893541E-05 0.0617981
vn -0.9980469 -4.893541E-05 0.0617981
vn -0.9980469 -4.893541E-05 0.0617981
vn -0.9980469 9.715557E-05 0.06240845
vn 0.9956055 0.003555298 0.09124756
vn 0.9956055 0.003507614 0.09124756
vn 0.9956055 0.003507614 0.09124756
vn 0.9960938 -0.00108242 0.09051514
vn 0.9956055 -0.001211166 0.0927124
vn 0.9956055 -0.001211166 0.0927124
vn 0.9956055 -0.001211166 0.0927124
vn 0.9956055 0.0003316402 0.09124756
vn 0.9960938 0 0.09094238
vn 0.9960938 0 0.09094238
vn 0.9960938 0 0.09094238
vn 0.9960938 -4.905462E-05 0.09075928
vn 0.1503906 -0.6235352 0.7670898
vn 0.1503906 -0.6235352 0.7670898
vn 0.1503906 -0.6235352 0.7670898
vn 0.1505127 -0.6225586 0.7675781
vn -0.2619629 -0.6152344 0.7436523
vn -0.2619629 -0.6152344 0.7436523
vn -0.2619629 -0.6152344 0.7436523
vn -0.2626953 -0.6113281 0.746582
vn -0.0002053976 1 0.0004880428
vn -0.0002053976 1 0.0004880428
vn -0.0002053976 1 0.0004880428
vn -0.0006160736 1 0.001462936
vn -0.0001161098 1 0.0003354549
vn -0.0001160502 1 0
vn -0.0001161098 1 0.0003356934
vn -0.0003454685 1 -0.002439499
vn -0.331543 0.05099487 0.9418945
vn -0.2060547 1.728535E-05 0.9785156
vn -0.3320313 1.674891E-05 0.9433594
vn -0.2050781 0.05197144 0.9775391
vn 0.05844116 1.752377E-05 0.9980469
vn -0.3244629 0.2095947 0.9223633
vn 0.0581665 0.05279541 0.9970703
vn 0.1923828 1.722574E-05 0.9814453
vn 0.1921387 0.0524292 0.9799805
vn -0.2001953 0.2104492 0.9570313
vn -0.3017578 0.4157715 0.8579102
vn 0.05673218 0.213501 0.9750977
vn 0.1879883 0.2142334 0.9584961
vn -0.1867676 0.416748 0.8896484
vn -0.2641602 0.6049805 0.7509766
vn 0.05285645 0.421875 0.9052734
vn 0.1743164 0.423584 0.8886719
vn -0.1645508 0.6040039 0.7797852
vn -0.2429199 0.6811523 0.6904297
vn -0.15625 0.6918945 0.7050781
vn 0.04644775 0.6098633 0.7910156
vn 0.1519775 0.6132813 0.7753906
vn 0.04406738 0.6982422 0.7143555
vn 0.1387939 0.6928711 0.7075195
vn -0.1921387 -0.0524292 -0.9799805
vn -0.05844116 -2.908707E-05 -0.9980469
vn -0.1923828 -2.861023E-05 -0.9814453
vn -0.0581665 -0.05279541 -0.9970703
vn 0.2060547 -2.861023E-05 -0.9785156
vn -0.1879883 -0.2142334 -0.9584961
vn 0.2050781 -0.05197144 -0.9775391
vn 0.3320313 -2.771616E-05 -0.9433594
vn 0.331543 -0.05099487 -0.9418945
vn -0.05673218 -0.213501 -0.9750977
vn -0.1743164 -0.423584 -0.8886719
vn 0.2001953 -0.2105713 -0.9570313
vn 0.3244629 -0.2095947 -0.9223633
vn -0.05285645 -0.421875 -0.9052734
vn -0.1519775 -0.6132813 -0.7753906
vn 0.1867676 -0.416748 -0.8896484
vn 0.3017578 -0.4157715 -0.8579102
vn -0.04644775 -0.6098633 -0.7910156
vn -0.1387939 -0.6928711 -0.7075195
vn -0.04406738 -0.6982422 -0.7143555
vn 0.1645508 -0.6040039 -0.7797852
vn 0.2641602 -0.6049805 -0.7509766
vn 0.15625 -0.6918945 -0.7050781
vn 0.2429199 -0.6811523 -0.6904297
g Object003.002_0
f 3/3/3 2/2/2 1/1/1
f 6/6/6 5/5/5 4/4/4
f 9/9/9 8/8/8 7/7/7
f 10/10/10 8/8/8 9/9/9
f 13/13/13 12/12/12 11/11/11
f 14/14/14 12/12/12 13/13/13
f 17/17/17 16/16/16 15/15/15
f 18/18/18 16/16/16 17/17/17
f 21/21/21 20/20/20 19/19/19
f 22/22/22 20/20/20 21/21/21
f 25/25/25 24/24/24 23/23/23
f 26/26/26 24/24/24 25/25/25
f 29/29/29 28/28/28 27/27/27
f 30/30/30 28/28/28 29/29/29
f 33/33/33 32/32/32 31/31/31
f 34/34/34 32/32/32 33/33/33
f 37/37/37 36/36/36 35/35/35
f 38/38/38 36/36/36 37/37/37
f 41/41/41 40/40/40 39/39/39
f 42/42/42 40/40/40 41/41/41
f 45/45/45 44/44/44 43/43/43
f 46/46/46 44/44/44 45/45/45
f 49/49/49 48/48/48 47/47/47
f 50/50/50 48/48/48 49/49/49
f 53/53/53 52/52/52 51/51/51
f 54/54/54 52/52/52 53/53/53
f 57/57/57 56/56/56 55/55/55
f 58/58/58 56/56/56 57/57/57
f 61/61/61 60/60/60 59/59/59
f 62/62/62 60/60/60 61/61/61
f 65/65/65 64/64/64 63/63/63
f 66/66/66 64/64/64 65/65/65
f 69/69/69 68/68/68 67/67/67
f 67/67/67 68/68/68 70/70/70
f 71/71/71 70/70/70 68/68/68
f 67/67/67 70/70/70 72/72/72
f 73/73/73 70/70/70 71/71/71
f 74/74/74 73/73/73 71/71/71
f 75/75/75 73/73/73 74/74/74
f 72/72/72 70/70/70 76/76/76
f 73/73/73 76/76/76 70/70/70
f 72/72/72 76/76/76 77/77/77
f 75/75/75 78/78/78 73/73/73
f 78/78/78 76/76/76 73/73/73
f 79/79/79 78/78/78 75/75/75
f 77/77/77 76/76/76 80/80/80
f 78/78/78 80/80/80 76/76/76
f 77/77/77 80/80/80 81/81/81
f 79/79/79 82/82/82 78/78/78
f 82/82/82 80/80/80 78/78/78
f 83/83/83 82/82/82 79/79/79
f 81/81/81 80/80/80 84/84/84
f 82/82/82 84/84/84 80/80/80
f 81/81/81 84/84/84 85/85/85
f 85/85/85 84/84/84 86/86/86
f 83/83/83 87/87/87 82/82/82
f 87/87/87 84/84/84 82/82/82
f 84/84/84 87/87/87 86/86/86
f 88/88/88 87/87/87 83/83/83
f 86/86/86 87/87/87 89/89/89
f 88/88/88 89/89/89 87/87/87
f 90/90/90 89/89/89 88/88/88
f 93/93/93 92/92/92 91/91/91
f 91/91/91 92/92/92 94/94/94
f 95/95/95 94/94/94 92/92/92
f 91/91/91 94/94/94 96/96/96
f 97/97/97 94/94/94 95/95/95
f 98/98/98 97/97/97 95/95/95
f 99/99/99 97/97/97 98/98/98
f 96/96/96 94/94/94 100/100/100
f 97/97/97 100/100/100 94/94/94
f 96/96/96 100/100/100 101/101/101
f 99/99/99 102/102/102 97/97/97
f 102/102/102 100/100/100 97/97/97
f 103/103/103 102/102/102 99/99/99
f 101/101/101 100/100/100 104/104/104
f 102/102/102 104/104/104 100/100/100
f 101/101/101 104/104/104 105/105/105
f 103/103/103 106/106/106 102/102/102
f 106/106/106 104/104/104 102/102/102
f 107/107/107 106/106/106 103/103/103
f 105/105/105 104/104/104 108/108/108
f 106/106/106 108/108/108 104/104/104
f 105/105/105 108/108/108 109/109/109
f 109/109/109 108/108/108 110/110/110
f 107/107/107 111/111/111 106/106/106
f 111/111/111 108/108/108 106/106/106
f 108/108/108 111/111/111 110/110/110
f 112/112/112 111/111/111 107/107/107
f 110/110/110 111/111/111 113/113/113
f 112/112/112 113/113/113 111/111/111
f 114/114/114 113/113/113 112/112/112
