g Object003.001
v 1.180593 1.600959 -0.113812
v 1.138347 -0.1846722 -0.06099872
v 1.180593 1.600909 -0.1132958
v -1.118622 0.8632236 -0.1507908
v -1.118599 0.8642797 -0.1502949
v -1.175981 -0.6924204 0.06556322
v 1.138391 -0.1835168 -0.06067783
v 1.138347 -0.1846722 -0.06099872
v 1.09209 -1.13325 0.1647536
v 1.180593 1.600909 -0.1132958
v 1.138347 -0.1846722 -0.06099872
v 1.138391 -0.1835168 -0.06067783
v -1.175981 -0.6924204 0.06556322
v -1.118599 0.8642797 -0.1502949
v -1.175901 -0.6908255 0.06564447
v 1.09209 -1.13325 0.1647536
v 1.138347 -0.1846722 -0.06099872
v 1.091997 -1.134913 0.1647619
v -1.107146 1.625862 -0.1136864
v -1.118599 0.8642797 -0.1502949
v -1.107145 1.625906 -0.1142025
v -1.118622 0.8632236 -0.1507908
v 1.05734 -1.674371 0.3628462
v 0.3678979 -1.613413 0.354956
v 1.05735 -1.674145 0.3632851
v 0.3678296 -1.61318 0.3553936
v -0.1956628 -1.563358 0.3489447
v -0.1956958 -1.563581 0.3485056
v -0.7591577 -1.513536 0.3424958
v -0.7592902 -1.513749 0.3420556
v -1.223739 -1.472459 0.3371789
v -1.223748 -1.472683 0.3367399
v -1.107145 1.625906 -0.1142025
v -0.4392737 1.618623 -0.1140885
v -1.107146 1.625862 -0.1136864
v -0.4391418 1.618575 -0.1135723
v -0.09515869 1.614823 -0.1135135
v -0.0951831 1.614871 -0.1140295
v 0.248822 1.611072 -0.113455
v 0.248905 1.61112 -0.113971
v 1.180593 1.600909 -0.1132958
v 1.180593 1.600959 -0.113812
v -1.175981 -0.6924204 0.06556322
v -1.175901 -0.6908255 0.06564447
v -1.223748 -1.472683 0.3367399
v -1.223739 -1.472459 0.3371789
v 1.09209 -1.13325 0.1647536
v 1.091997 -1.134913 0.1647619
v 1.05735 -1.674145 0.3632851
v 1.05734 -1.674371 0.3628462
v 0.3678296 -1.61318 0.3553936
v 1.09209 -1.13325 0.1647536
v 1.05735 -1.674145 0.3632851
v 0.3581555 -0.9871835 0.1305782
v -0.1956628 -1.563358 0.3489447
v 1.138391 -0.1835168 -0.06067783
v -0.1325855 -0.8910519 0.1088566
v -0.653515 -0.8111895 0.09938898
v -0.7591577 -1.513536 0.3424958
v -1.223739 -1.472459 0.3371789
v -1.175901 -0.6908255 0.06564447
v -0.2034155 -0.2805136 -0.03667547
v -0.5208563 0.5965618 -0.141269
v -1.118599 0.8642797 -0.1502949
v -0.1543103 0.4287094 -0.1305728
v -0.4391418 1.618575 -0.1135723
v -1.107146 1.625862 -0.1136864
v -0.09515869 1.614823 -0.1135135
v 0.248822 1.611072 -0.113455
v 0.2117261 0.2584479 -0.1159106
v 0.3145129 0.3958468 -0.1283999
v 1.180593 1.600909 -0.1132958
v 0.3223633 0.2064853 -0.1106883
v -1.118622 0.8632236 -0.1507908
v -0.4392737 1.618623 -0.1140885
v -1.107145 1.625906 -0.1142025
v -0.5210711 0.5955606 -0.1417242
v -1.175981 -0.6924204 0.06556322
v -0.654068 -0.8140265 0.0930179
v -1.223748 -1.472683 0.3367399
v -0.7592902 -1.513749 0.3420556
v -0.0951831 1.614871 -0.1140295
v -0.1956958 -1.563581 0.3485056
v -0.1547143 0.4277786 -0.131008
v 0.248905 1.61112 -0.113971
v 0.3145874 0.3958896 -0.1289107
v 1.180593 1.600959 -0.113812
v 1.138347 -0.1846722 -0.06099872
v -0.1330664 -0.8926028 0.1087991
v 0.358258 -0.9888629 0.1305661
v 0.3678979 -1.613413 0.354956
v -0.2042383 -0.2816748 -0.03695917
v 0.2111353 0.2575903 -0.1163301
v 0.3224854 0.2052866 -0.1110659
v 1.091997 -1.134913 0.1647619
v 1.05734 -1.674371 0.3628462
vt 0.6469727 0.01138306
vt 0.831543 0.01146698
vt 0.6469727 0.01132965
vt 0.7250977 0.01043701
vt 0.7250977 0.01049042
vt 0.8969727 0.0109787
vt 0.831543 0.01141357
vt 0.831543 0.01146698
vt 0.9331055 0.01145935
vt 0.6469727 0.01132965
vt 0.831543 0.01146698
vt 0.831543 0.01141357
vt 0.8969727 0.0109787
vt 0.7250977 0.01049042
vt 0.8969727 0.0110321
vt 0.9331055 0.01145935
vt 0.831543 0.01146698
vt 0.9331055 0.01151276
vt 0.6420898 0.01023102
vt 0.7250977 0.01049042
vt 0.6420898 0.01017761
vt 0.7250977 0.01043701
vt 0.6953125 0.00920105
vt 0.7685547 0.01018524
vt 0.6953125 0.009147644
vt 0.7685547 0.01013947
vt 0.828125 0.01094818
vt 0.828125 0.01099396
vt 0.8876953 0.0117569
vt 0.8876953 0.01180267
vt 0.9365234 0.01242065
vt 0.9365234 0.01247406
vt 0.7490234 0.01031494
vt 0.8193359 0.01048279
vt 0.7490234 0.01026154
vt 0.8193359 0.01042938
vt 0.855957 0.01051331
vt 0.855957 0.01056671
vt 0.8920898 0.01060486
vt 0.8920898 0.01065826
vt 0.9902344 0.01084137
vt 0.9902344 0.01089478
vt 0.8969727 0.0109787
vt 0.8969727 0.0110321
vt 0.9887695 0.01126862
vt 0.9887695 0.01131439
vt 0.9331055 0.01145935
vt 0.9331055 0.01151276
vt 0.9936523 0.01148224
vt 0.9936523 0.01153564
vt 0.550293 0.6000977
vt 0.5161133 0.5717773
vt 0.5161133 0.6000977
vt 0.5527344 0.5668945
vt 0.578125 0.6000977
vt 0.5161133 0.5244141
vt 0.5771484 0.5639648
vt 0.6025391 0.5615234
vt 0.605957 0.6000977
vt 0.628418 0.6000977
vt 0.628418 0.5571289
vt 0.5820313 0.5327148
vt 0.5991211 0.4897461
vt 0.628418 0.4772949
vt 0.5805664 0.4973145
vt 0.5957031 0.4384766
vt 0.628418 0.4384766
vt 0.5791016 0.4384766
vt 0.5620117 0.4384766
vt 0.5625 0.5048828
vt 0.5576172 0.4980469
vt 0.5161133 0.4384766
vt 0.5571289 0.5073242
vt 0.6367188 0.4760742
vt 0.6689453 0.4379883
vt 0.6367188 0.4379883
vt 0.6660156 0.4882813
vt 0.6367188 0.5546875
vt 0.6621094 0.559082
vt 0.6367188 0.597168
vt 0.6591797 0.597168
vt 0.6855469 0.4379883
vt 0.6865234 0.597168
vt 0.684082 0.4958496
vt 0.7021484 0.4379883
vt 0.706543 0.496582
vt 0.7475586 0.4379883
vt 0.7475586 0.5224609
vt 0.6875 0.5615234
vt 0.7114258 0.5644531
vt 0.7138672 0.597168
vt 0.6826172 0.5307617
vt 0.7016602 0.503418
vt 0.7075195 0.5058594
vt 0.7475586 0.5693359
vt 0.7475586 0.597168
vn 0.9995117 -0.02372742 -0.002304077
vn 0.9995117 -0.02372742 -0.002304077
vn 0.9995117 -0.02372742 -0.002304077
vn -0.9990234 0.0333252 -0.0254364
vn -0.9990234 0.0333252 -0.0254364
vn -0.9990234 0.0333252 -0.0254364
vn 0.9990234 -0.04376221 0.02078247
vn 0.9990234 -0.04376221 0.02078247
vn 0.9990234 -0.04376221 0.02078247
vn 0.9985352 -0.02500916 -0.04675293
vn 0.9985352 -0.02500916 -0.04675293
vn 0.9985352 -0.02500916 -0.04675293
vn -0.996582 0.04641724 0.06976318
vn -0.996582 0.04641724 0.06976318
vn -0.996582 0.04641724 0.06976318
vn 0.9980469 -0.05581665 -0.03004456
vn 0.9980469 -0.05581665 -0.03004456
vn 0.9980469 -0.05581665 -0.03004456
vn -1 0.01502991 0.0001237392
vn -1 0.01502991 0.0001237392
vn -1 0.01502991 0.0001237392
vn -1 0.014328 0.01501465
vn -0.08349609 -0.8852539 0.4577637
vn -0.08349609 -0.8852539 0.4577637
vn -0.08349609 -0.8852539 0.4577637
vn -0.08349609 -0.8852539 0.4577637
vn -0.08355713 -0.8852539 0.4572754
vn -0.08349609 -0.8857422 0.4567871
vn -0.08361816 -0.8867188 0.4550781
vn -0.08361816 -0.8867188 0.4550781
vn -0.08361816 -0.8867188 0.4550781
vn -0.0836792 -0.887207 0.4538574
vn 0.010849 0.9960938 0.08825684
vn 0.010849 0.9960938 0.08825684
vn 0.010849 0.9960938 0.08825684
vn 0.01084137 0.9956055 0.09301758
vn 0.01084137 0.9956055 0.09295654
vn 0.01084137 0.9956055 0.09094238
vn 0.010849 0.9956055 0.09161377
vn 0.010849 0.9956055 0.09161377
vn 0.010849 0.9956055 0.09161377
vn 0.01083374 0.9951172 0.0993042
vn -0.9980469 0.05151367 -0.027771
vn -0.9980469 0.05151367 -0.027771
vn -0.9980469 0.05151367 -0.027771
vn -0.9980469 0.05792236 -0.008781433
vn 0.9980469 -0.05615234 0.02330017
vn 0.9980469 -0.05615234 0.02330017
vn 0.9980469 -0.05599976 0.02330017
vn 0.9980469 -0.0602417 0.009040833
vn 0.02058411 0.3393555 0.9404297
vn 0.01206207 0.2915039 0.956543
vn 0.01960754 0.3435059 0.9389648
vn 0.01184082 0.2763672 0.9609375
vn 0.02259827 0.3322754 0.9428711
vn -0.005565643 0.1483154 0.9887695
vn 0.01889038 0.282959 0.9589844
vn 0.01832581 0.2597656 0.965332
vn 0.0178833 0.324707 0.9458008
vn 0.01652527 0.3256836 0.9453125
vn 0.002292633 0.2359619 0.9716797
vn 0.0508728 0.1652832 0.9848633
vn 0.004734039 0.06616211 0.9975586
vn 0.006637573 0.03027344 0.9995117
vn 0.01605225 0.07293701 0.9970703
vn -0.005893707 -0.0322876 0.9995117
vn -0.0006942749 -0.04800415 0.9990234
vn -0.004196167 -0.01896667 1
vn -0.0009484291 -0.01316833 1
vn 0.005012512 0.1287842 0.9916992
vn -0.01885986 0.04125977 0.9990234
vn -0.0234375 0.004318237 0.9995117
vn 0.01541138 0.1459961 0.9892578
vn -0.006626129 -0.03041077 -0.9995117
vn 0.005893707 0.03219604 -0.9995117
vn 0.0006928444 0.0479126 -0.9990234
vn -0.005001068 -0.06512451 -0.9980469
vn -0.01229095 -0.2335205 -0.972168
vn -0.01847839 -0.2600098 -0.965332
vn -0.02166748 -0.3303223 -0.9433594
vn -0.01863098 -0.3327637 -0.9428711
vn 0.004192352 0.01887512 -1
vn -0.02047729 -0.3349609 -0.9418945
vn -0.01482391 -0.07202148 -0.9970703
vn 0.0009245872 0.01313019 -1
vn 0.01887512 -0.04125977 -0.9990234
vn 0.02348328 -0.00435257 -0.9995117
vn 0.005569458 -0.1484375 -0.9887695
vn -0.01314545 -0.2832031 -0.9589844
vn -0.01184845 -0.2766113 -0.9609375
vn -0.02059937 -0.3395996 -0.9404297
vn -0.043396 -0.1656494 -0.9853516
vn -0.005004883 -0.1289063 -0.9916992
vn -0.01541901 -0.1461182 -0.9892578
vn -0.0120697 -0.291748 -0.956543
vn -0.0196228 -0.3435059 -0.9389648
g Object003.001_0
f 3/3/3 2/2/2 1/1/1
f 6/6/6 5/5/5 4/4/4
f 9/9/9 8/8/8 7/7/7
f 12/12/12 11/11/11 10/10/10
f 15/15/15 14/14/14 13/13/13
f 18/18/18 17/17/17 16/16/16
f 21/21/21 20/20/20 19/19/19
f 22/22/22 20/20/20 21/21/21
f 25/25/25 24/24/24 23/23/23
f 26/26/26 24/24/24 25/25/25
f 27/27/27 24/24/24 26/26/26
f 28/28/28 24/24/24 27/27/27
f 29/29/29 28/28/28 27/27/27
f 30/30/30 28/28/28 29/29/29
f 31/31/31 30/30/30 29/29/29
f 32/32/32 30/30/30 31/31/31
f 35/35/35 34/34/34 33/33/33
f 36/36/36 34/34/34 35/35/35
f 37/37/37 34/34/34 36/36/36
f 38/38/38 34/34/34 37/37/37
f 39/39/39 38/38/38 37/37/37
f 40/40/40 38/38/38 39/39/39
f 41/41/41 40/40/40 39/39/39
f 42/42/42 40/40/40 41/41/41
f 45/45/45 44/44/44 43/43/43
f 46/46/46 44/44/44 45/45/45
f 49/49/49 48/48/48 47/47/47
f 50/50/50 48/48/48 49/49/49
f 53/53/53 52/52/52 51/51/51
f 52/52/52 54/54/54 51/51/51
f 51/51/51 54/54/54 55/55/55
f 56/56/56 54/54/54 52/52/52
f 54/54/54 57/57/57 55/55/55
f 57/57/57 58/58/58 55/55/55
f 55/55/55 58/58/58 59/59/59
f 59/59/59 58/58/58 60/60/60
f 58/58/58 61/61/61 60/60/60
f 62/62/62 57/57/57 54/54/54
f 58/58/58 57/57/57 62/62/62
f 63/63/63 61/61/61 58/58/58
f 64/64/64 61/61/61 63/63/63
f 62/62/62 65/65/65 58/58/58
f 65/65/65 63/63/63 58/58/58
f 66/66/66 64/64/64 63/63/63
f 67/67/67 64/64/64 66/66/66
f 66/66/66 63/63/63 68/68/68
f 63/63/63 65/65/65 68/68/68
f 68/68/68 65/65/65 69/69/69
f 70/70/70 62/62/62 54/54/54
f 70/70/70 65/65/65 62/62/62
f 69/69/69 65/65/65 71/71/71
f 71/71/71 65/65/65 70/70/70
f 72/72/72 69/69/69 71/71/71
f 72/72/72 71/71/71 56/56/56
f 73/73/73 54/54/54 56/56/56
f 73/73/73 70/70/70 54/54/54
f 71/71/71 73/73/73 56/56/56
f 71/71/71 70/70/70 73/73/73
f 76/76/76 75/75/75 74/74/74
f 75/75/75 77/77/77 74/74/74
f 74/74/74 77/77/77 78/78/78
f 77/77/77 79/79/79 78/78/78
f 78/78/78 79/79/79 80/80/80
f 79/79/79 81/81/81 80/80/80
f 82/82/82 77/77/77 75/75/75
f 83/83/83 81/81/81 79/79/79
f 84/84/84 77/77/77 82/82/82
f 77/77/77 84/84/84 79/79/79
f 85/85/85 84/84/84 82/82/82
f 86/86/86 84/84/84 85/85/85
f 87/87/87 86/86/86 85/85/85
f 87/87/87 88/88/88 86/86/86
f 89/89/89 83/83/83 79/79/79
f 90/90/90 83/83/83 89/89/89
f 91/91/91 83/83/83 90/90/90
f 92/92/92 89/89/89 79/79/79
f 79/79/79 84/84/84 92/92/92
f 90/90/90 89/89/89 92/92/92
f 92/92/92 84/84/84 93/93/93
f 93/93/93 84/84/84 86/86/86
f 93/93/93 90/90/90 92/92/92
f 86/86/86 94/94/94 93/93/93
f 88/88/88 94/94/94 86/86/86
f 94/94/94 90/90/90 93/93/93
f 90/90/90 94/94/94 88/88/88
f 95/95/95 90/90/90 88/88/88
f 91/91/91 90/90/90 95/95/95
f 96/96/96 91/91/91 95/95/95
