g Paint-Drop.003
v -0.0007399374 -0.0002168137 0.0001483762
v -0.000676206 -0.0002819404 0.000122844
v -0.0007493552 2.95043E-06 5.052447E-05
v -0.0003117645 -0.0004479357 0.0002252746
v 0.0001204923 -0.0005252156 4.909992E-05
v -0.0007509577 8.51056E-05 0.0001349068
v -0.0003165051 -0.0001353213 0.0003703761
v -0.0003898564 2.800703E-05 0.0003616893
v 2.270341E-06 -0.0003247696 0.0003349113
v 5.964041E-05 -0.0004930976 0.0002023458
v 0.0002150431 -0.0001940638 0.0003317702
v 0.000290837 -0.0003644103 0.0002347052
v 0.0002555302 -0.0004868206 0.0001028311
v 0.0003669777 -0.0004762706 -0.0002031708
v -0.0001339239 -0.0003315306 -3.831506E-05
v -0.000676206 -0.0002819404 0.000122844
v 0.0004356423 -0.0003628364 5.613804E-05
v -0.0002358889 -9.792745E-05 -0.0001672566
v 0.0004924688 -0.0001134887 0.0001197648
v -0.0005443254 4.652947E-05 -9.460568E-05
v 0.0002021149 -0.0001226258 -0.0003484726
v -0.0006438947 0.0002653697 -5.024791E-05
v -4.544258E-06 0.000281156 -0.0003701425
v 0.0005560282 -0.0001786277 -0.0001015925
v 0.0003685978 -5.758673E-05 -0.0003966701
v 0.0005101761 -0.0001608592 -0.0003087866
v 0.0005801991 2.276897E-05 -0.0001334631
v 0.0004761001 8.679718E-05 -0.0003668141
v 0.0003213272 0.0003138831 -0.0004371798
v 0.0004454437 0.0002829364 -0.0001961791
v 0.0004172608 0.0001583108 5.762815E-05
v 0.0002587619 -2.0729E-05 0.0002613199
v -0.0002533734 0.0001920894 0.0003161108
v 0.00014173 0.0002946702 0.0001420319
v 0.0002379706 0.0004249141 -3.725767E-05
v 0.0001599607 0.0004951879 -0.0002081668
v -0.0001229677 0.0004424807 0.0001068282
v -0.0004109544 0.0002563605 0.000239116
v -0.0003378791 0.0003737703 0.000113225
v -0.0001581785 0.0004754129 -4.576802E-05
v -0.0002260539 0.000426878 -0.0002060366
v 9.201645E-05 0.0004373076 -0.0003717005
vt 0.1393596 0.4675736
vt 0.1432295 0.4712339
vt 0.1257707 0.4451696
vt 0.1238741 0.4802009
vt 0.09548932 0.4952286
vt 0.1279082 0.4498476
vt 0.1271335 0.4720406
vt 0.1300099 0.4660813
vt 0.1157252 0.4840704
vt 0.105593 0.4893112
vt 0.1133993 0.4845102
vt 0.1057441 0.4887155
vt 0.09905314 0.4929875
vt 0.09848144 0.4868445
vt 0.09895539 0.4708476
vt 0.09548932 0.4390762
vt 0.1018921 0.4886342
vt 0.1052763 0.457577
vt 0.1076254 0.4842628
vt 0.1123262 0.4455194
vt 0.1023325 0.4718253
vt 0.1206198 0.447364
vt 0.1097572 0.4599344
vt 0.10379 0.4834107
vt 0.1029658 0.4742551
vt 0.1027186 0.4796284
vt 0.106553 0.4795464
vt 0.10555 0.474516
vt 0.1085311 0.4682659
vt 0.1100424 0.4731749
vt 0.1118732 0.4776729
vt 0.1143455 0.4807047
vt 0.1265679 0.4661083
vt 0.1181472 0.4713665
vt 0.1153071 0.4695279
vt 0.1143282 0.4654037
vt 0.1215738 0.4629421
vt 0.126262 0.4597017
vt 0.1232041 0.457827
vt 0.1194868 0.4600627
vt 0.1165327 0.4570459
vt 0.1117047 0.4629058
vn -0.8848113 -0.4228061 0.1958159
vn -0.6044089 -0.7667121 -0.216431
vn -0.8666499 -0.09091176 -0.4905639
vn -0.3225558 -0.8651748 0.3839666
vn -0.09117112 -0.983909 -0.1536589
vn -0.8575123 0.3333936 0.391818
vn -0.1700717 -0.165773 0.9713882
vn -0.2575885 0.154295 0.9538559
vn 0.05707214 -0.3850009 0.9211499
vn 0.06888533 -0.8451288 0.5301058
vn 0.3570783 -0.03354737 0.9334718
vn 0.5003699 -0.4827751 0.7187199
vn 0.3963185 -0.8569106 0.3295997
vn 0.306572 -0.8158622 -0.4902881
vn -0.3282975 -0.6267858 -0.7066543
vn -0.6044089 -0.7667121 -0.216431
vn 0.7707024 -0.5464326 0.3277642
vn -0.3589977 -0.4515722 -0.816825
vn 0.8051356 0.02008019 0.5927507
vn -0.4566565 -0.2114644 -0.8641456
vn -0.2578785 -0.3486017 -0.9010969
vn -0.7326398 0.5735431 -0.3664521
vn -0.3501789 0.02353438 -0.9363871
vn 0.9554479 -0.2926751 0.03821886
vn 0.1132694 -0.2329031 -0.965881
vn 0.7169547 -0.3035731 -0.6275502
vn 0.9794905 0.1980494 0.03707744
vn 0.7236801 0.1356338 -0.6766761
vn 0.3587748 0.4232647 -0.831942
vn 0.7895834 0.6135148 -0.01254869
vn 0.6692365 0.473743 0.5724422
vn 0.4242649 0.3289327 0.8436839
vn 0.02269906 0.4481127 0.8936889
vn 0.3448642 0.5528704 0.7585532
vn 0.4660527 0.7902135 0.3979417
vn 0.2423017 0.9658446 -0.09183687
vn 0.01195232 0.8431385 0.5375636
vn -0.3595257 0.6354159 0.6833652
vn -0.3585673 0.8516632 0.3822291
vn -0.1983007 0.9789948 0.04739266
vn -0.4034247 0.732925 -0.5477859
vn -0.1118072 0.6696777 -0.7341873
g Paint-Drop.003_0
f 3/3/3 2/2/2 1/1/1
f 1/1/1 2/2/2 4/4/4
f 2/2/2 5/5/5 4/4/4
f 6/6/6 3/3/3 1/1/1
f 1/1/1 4/4/4 7/7/7
f 1/1/1 8/8/8 6/6/6
f 7/7/7 8/8/8 1/1/1
f 4/4/4 9/9/9 7/7/7
f 4/4/4 5/5/5 10/10/10
f 10/10/10 9/9/9 4/4/4
f 7/7/7 9/9/9 11/11/11
f 7/7/7 11/11/11 8/8/8
f 12/12/12 9/9/9 10/10/10
f 12/12/12 11/11/11 9/9/9
f 13/13/13 10/10/10 5/5/5
f 12/12/12 10/10/10 13/13/13
f 14/14/14 13/13/13 5/5/5
f 15/15/15 14/14/14 5/5/5
f 16/16/16 15/15/15 5/5/5
f 12/12/12 13/13/13 17/17/17
f 14/14/14 17/17/17 13/13/13
f 16/16/16 18/18/18 15/15/15
f 15/15/15 18/18/18 14/14/14
f 17/17/17 19/19/19 12/12/12
f 19/19/19 11/11/11 12/12/12
f 20/20/20 18/18/18 16/16/16
f 3/3/3 20/20/20 16/16/16
f 18/18/18 21/21/21 14/14/14
f 20/20/20 21/21/21 18/18/18
f 3/3/3 22/22/22 20/20/20
f 6/6/6 22/22/22 3/3/3
f 20/20/20 23/23/23 21/21/21
f 22/22/22 23/23/23 20/20/20
f 14/14/14 24/24/24 17/17/17
f 24/24/24 19/19/19 17/17/17
f 14/14/14 21/21/21 25/25/25
f 23/23/23 25/25/25 21/21/21
f 26/26/26 24/24/24 14/14/14
f 14/14/14 25/25/25 26/26/26
f 24/24/24 26/26/26 27/27/27
f 24/24/24 27/27/27 19/19/19
f 25/25/25 28/28/28 26/26/26
f 28/28/28 27/27/27 26/26/26
f 29/29/29 28/28/28 25/25/25
f 29/29/29 25/25/25 23/23/23
f 27/27/27 28/28/28 30/30/30
f 29/29/29 30/30/30 28/28/28
f 31/31/31 19/19/19 27/27/27
f 31/31/31 27/27/27 30/30/30
f 31/31/31 32/32/32 19/19/19
f 32/32/32 11/11/11 19/19/19
f 32/32/32 33/33/33 11/11/11
f 33/33/33 8/8/8 11/11/11
f 31/31/31 34/34/34 32/32/32
f 33/33/33 32/32/32 34/34/34
f 31/31/31 30/30/30 35/35/35
f 35/35/35 34/34/34 31/31/31
f 36/36/36 30/30/30 29/29/29
f 35/35/35 30/30/30 36/36/36
f 35/35/35 37/37/37 34/34/34
f 37/37/37 33/33/33 34/34/34
f 35/35/35 36/36/36 37/37/37
f 38/38/38 8/8/8 33/33/33
f 38/38/38 33/33/33 37/37/37
f 6/6/6 8/8/8 38/38/38
f 38/38/38 39/39/39 6/6/6
f 37/37/37 39/39/39 38/38/38
f 6/6/6 39/39/39 22/22/22
f 37/37/37 40/40/40 39/39/39
f 40/40/40 22/22/22 39/39/39
f 36/36/36 40/40/40 37/37/37
f 40/40/40 41/41/41 22/22/22
f 36/36/36 41/41/41 40/40/40
f 41/41/41 23/23/23 22/22/22
f 29/29/29 42/42/42 36/36/36
f 23/23/23 42/42/42 29/29/29
f 42/42/42 23/23/23 41/41/41
f 36/36/36 42/42/42 41/41/41
