g PaintSplat-Dropsy
v -1.397133E-06 0.0006246328 0.000188042
v 0.0002184379 0.0005795669 0.0001377586
v 0.0002407575 0.0005593204 0.0003272349
v -2.650976E-05 0.0004689312 0.0005264938
v 0.0005289543 0.0003316402 0.0001574219
v 0.0005256504 0.0002470636 0.000413217
v 0.0005863017 8.816719E-06 0.0001552922
v 0.0005835748 -0.0003214645 0.0003061882
v 0.0004683345 -0.0003380585 4.803337E-05
v 0.0003607327 -0.0006484794 0.0002024705
v 0.0003408343 1.073837E-05 0.0006597386
v 8.431554E-05 -0.0005922746 0.000558672
v -5.401671E-05 -0.0007327271 0.0002268151
v -0.0001181525 0.000565691 0.0003324119
v -0.000401085 0.0004497671 0.0001501361
v -0.0004537511 0.0003509521 0.0003407479
v -0.0004715687 2.083778E-06 0.000548426
v -0.0005181748 8.924484E-05 0.0001107819
v -9.833932E-05 -5.960464E-05 0.0007483808
v -0.0003084922 -0.0005649185 0.0003480581
v -0.0003827172 -0.0005433988 0.0001622624
v -0.0005533117 -0.0001759577 0.0002074469
v -0.0005543006 5.199909E-05 0.0003096751
v -8.398414E-05 0.0005017996 3.38421E-05
v -1.397133E-06 0.0006246328 0.000188042
v -0.000401085 0.0004497671 0.0001501361
v 0.0002184379 0.0005795669 0.0001377586
v -0.0003681117 0.0001454115 1.295783E-05
v -0.0005181748 8.924484E-05 0.0001107819
v 0.0002615011 0.0004281998 3.440537E-05
v 0.0005289543 0.0003316402 0.0001574219
v -0.0004106414 -0.0001454258 1.187988E-05
v -0.0005533117 -0.0001759577 0.0002074469
v -0.0003827172 -0.0005433988 0.0001622624
v 1.9719E-05 0.0002151632 -4.077785E-05
v 0.0004343015 6.255149E-05 1.040049E-05
v 0.0005863017 8.816719E-06 0.0001552922
v 0.0004683345 -0.0003380585 4.803337E-05
v 8.310318E-05 -0.0003520155 -4.053734E-05
v -0.0001734358 -0.0005998802 5.100555E-05
v -5.401671E-05 -0.0007327271 0.0002268151
v 0.000241459 -0.0006193018 5.885131E-05
v 0.0003607327 -0.0006484794 0.0002024705
vt 0.139454 0.7138047
vt 0.1468961 0.7116948
vt 0.1442332 0.7069031
vt 0.1372113 0.704405
vt 0.1542053 0.7016943
vt 0.1479673 0.6979558
vt 0.1541556 0.6910732
vt 0.147181 0.6846804
vt 0.1525458 0.6792209
vt 0.1413527 0.6750277
vt 0.1410821 0.6939907
vt 0.1335221 0.684087
vt 0.1272963 0.6761504
vt 0.1356705 0.7094239
vt 0.1263268 0.712185
vt 0.1269368 0.7061448
vt 0.1265169 0.6979234
vt 0.1177598 0.7044272
vt 0.133738 0.6949266
vt 0.1239352 0.6849844
vt 0.117988 0.6841563
vt 0.1177598 0.6956481
vt 0.1221503 0.7006813
vt 0.2844208 0.03045499
vt 0.2844793 0.0354687
vt 0.2920127 0.02805982
vt 0.2786095 0.03570182
vt 0.2881307 0.02094259
vt 0.2920127 0.01852804
vt 0.2765456 0.03155932
vt 0.2691342 0.03271152
vt 0.2869133 0.01441658
vt 0.2917857 0.01134979
vt 0.2840612 0.004795781
vt 0.2801305 0.02500592
vt 0.2700074 0.02488565
vt 0.2647453 0.02554783
vt 0.2659246 0.0158945
vt 0.2750304 0.01359391
vt 0.2787514 0.006592886
vt 0.2752348 0.001953125
vt 0.2702083 0.008490042
vt 0.266097 0.006680219
vn -0.08150862 0.9878071 -0.1326405
vn 0.3492211 0.8526762 -0.3885718
vn 0.3952817 0.8317532 0.3897935
vn -0.06451491 0.6588539 0.7494993
vn 0.8148704 0.4819714 -0.3220091
vn 0.7866651 0.3798486 0.4866961
vn 0.9443723 0.04904417 -0.325201
vn 0.9165372 -0.3378287 0.2140828
vn 0.6288176 -0.2615339 -0.732249
vn 0.5900183 -0.8061975 -0.04386245
vn 0.4833913 0.07059027 0.8725536
vn 0.08707614 -0.6631327 0.7434197
vn -0.1418445 -0.9891371 -0.03857424
vn -0.2779246 0.8924215 0.3554457
vn -0.6635957 0.6629762 -0.3465592
vn -0.764509 0.5385874 0.3541889
vn -0.7227799 0.006574148 0.691047
vn -0.848765 0.1675958 -0.5015075
vn -0.1851857 -0.02723788 0.982326
vn -0.6176608 -0.6367496 0.461568
vn -0.7578668 -0.5988183 -0.2589488
vn -0.9570321 -0.2699912 -0.1058036
vn -0.9844152 0.1251957 0.1235013
vn -0.160451 0.5659057 -0.8087064
vn -0.08150862 0.9878071 -0.1326405
vn -0.6635957 0.6629762 -0.3465592
vn 0.3492211 0.8526762 -0.3885718
vn -0.3819252 0.1685688 -0.9086901
vn -0.848765 0.1675958 -0.5015075
vn 0.3031578 0.4163978 -0.8571512
vn 0.8148704 0.4819714 -0.3220091
vn -0.4973631 -0.1226923 -0.8588228
vn -0.9570321 -0.2699912 -0.1058036
vn -0.7578668 -0.5988183 -0.2589488
vn -0.003083653 0.1222223 -0.992498
vn 0.4453209 0.08017147 -0.8917745
vn 0.9443723 0.04904417 -0.325201
vn 0.6288176 -0.2615339 -0.732249
vn 0.03406486 -0.1545516 -0.9873973
vn -0.2777565 -0.5935073 -0.7553809
vn -0.1418445 -0.9891371 -0.03857424
vn 0.2538902 -0.6385289 -0.7265126
vn 0.5900183 -0.8061975 -0.04386245
g PaintSplat-Dropsy_0
f 3/3/3 2/2/2 1/1/1
f 3/3/3 1/1/1 4/4/4
f 3/3/3 5/5/5 2/2/2
f 5/5/5 3/3/3 6/6/6
f 3/3/3 4/4/4 6/6/6
f 7/7/7 5/5/5 6/6/6
f 8/8/8 7/7/7 6/6/6
f 8/8/8 9/9/9 7/7/7
f 9/9/9 8/8/8 10/10/10
f 11/11/11 8/8/8 6/6/6
f 4/4/4 11/11/11 6/6/6
f 10/10/10 8/8/8 12/12/12
f 8/8/8 11/11/11 12/12/12
f 10/10/10 12/12/12 13/13/13
f 4/4/4 1/1/1 14/14/14
f 14/14/14 1/1/1 15/15/15
f 16/16/16 14/14/14 15/15/15
f 4/4/4 14/14/14 16/16/16
f 16/16/16 17/17/17 4/4/4
f 15/15/15 18/18/18 16/16/16
f 19/19/19 11/11/11 4/4/4
f 19/19/19 12/12/12 11/11/11
f 17/17/17 19/19/19 4/4/4
f 17/17/17 12/12/12 19/19/19
f 20/20/20 13/13/13 12/12/12
f 20/20/20 12/12/12 17/17/17
f 21/21/21 13/13/13 20/20/20
f 20/20/20 17/17/17 21/21/21
f 17/17/17 22/22/22 21/21/21
f 16/16/16 18/18/18 23/23/23
f 22/22/22 23/23/23 18/18/18
f 23/23/23 17/17/17 16/16/16
f 17/17/17 23/23/23 22/22/22
f 26/26/26 25/25/25 24/24/24
f 27/27/27 24/24/24 25/25/25
f 26/26/26 24/24/24 28/28/28
f 26/26/26 28/28/28 29/29/29
f 27/27/27 30/30/30 24/24/24
f 31/31/31 30/30/30 27/27/27
f 28/28/28 32/32/32 29/29/29
f 29/29/29 32/32/32 33/33/33
f 32/32/32 34/34/34 33/33/33
f 24/24/24 35/35/35 28/28/28
f 30/30/30 35/35/35 24/24/24
f 35/35/35 32/32/32 28/28/28
f 31/31/31 36/36/36 30/30/30
f 36/36/36 35/35/35 30/30/30
f 31/31/31 37/37/37 36/36/36
f 36/36/36 37/37/37 38/38/38
f 36/36/36 39/39/39 35/35/35
f 35/35/35 39/39/39 32/32/32
f 36/36/36 38/38/38 39/39/39
f 34/34/34 32/32/32 40/40/40
f 39/39/39 40/40/40 32/32/32
f 34/34/34 40/40/40 41/41/41
f 38/38/38 42/42/42 39/39/39
f 40/40/40 39/39/39 42/42/42
f 40/40/40 42/42/42 41/41/41
f 43/43/43 42/42/42 38/38/38
f 42/42/42 43/43/43 41/41/41
