g PaintSplat-Splurf
v 7.478952E-05 -0.0006849074 0.0001600826
v 0.0001515073 -0.000576849 -1.434773E-05
v -3.442168E-06 -0.000491786 0.000133774
v -7.889271E-05 6.016493E-05 5.337894E-05
v 0.0001466274 0.0001186442 -2.846062E-05
v -0.0001328623 -8.661747E-06 0.0001458132
v -0.0003235465 0.0001750731 0.0002089325
v -0.0005841982 0.0004406786 5.585432E-05
v -0.0006503379 0.0009518123 -6.017476E-05
v -0.0007978106 0.0006205368 0.0001760444
v -0.0009714198 0.001065774 4.686236E-05
v -0.001086878 0.001165121 0.0001746315
v -0.001009495 0.001384249 2.405077E-05
v -0.001057075 0.001624773 0.0001580414
v -0.0009418505 0.001837797 7.094949E-05
v -0.0008122688 0.001460962 -4.573554E-05
v -0.0006088453 0.001902869 -4.240394E-05
v -0.0006878513 0.00209969 0.0001028767
v -0.0002360421 0.002248266 0.0001224002
v -8.56167E-05 0.002024322 -5.957186E-06
v 7.287323E-05 0.00208777 0.0001325119
v -0.0001441634 0.001714044 -6.377279E-05
v 0.0003130561 0.001733944 6.909519E-05
v 0.0002759635 0.001898172 0.0002157915
v 0.0003967505 0.001620295 0.0002197924
v 0.0004614258 0.00094141 0.0001010659
v 7.360399E-05 0.0006869053 -6.208658E-05
v 0.0001496291 0.001572485 -3.488481E-05
v 0.0003118366 0.0009346747 -2.06688E-05
v 0.0004430294 0.0002632046 9.51457E-05
v 0.0003054392 0.0002502108 -5.193353E-06
v 0.0003446048 -0.0006647205 -5.72291E-05
v 0.0005488139 -0.0006874394 -7.790327E-07
v 0.000568583 -0.0003782439 0.000109733
v 0.0006277078 -0.0007047153 0.0001238495
v 0.0002402729 -0.001332819 1.10504E-05
v 0.0001231605 -0.0009099412 9.407967E-05
v 0.0001606309 -0.001436571 0.000151625
v 0.0004934305 -0.001820991 8.676082E-05
v 0.0005652565 -0.001398312 0.0001428527
v 0.0004871851 -0.001775161 0.0002195114
v 0.0005730229 -0.002518024 0.0001436201
v 0.0004248172 -0.001780231 9.883642E-06
v 0.0001125795 -0.001866723 0.0001109624
v 0.0001285255 -0.001788064 0.0002278837
v 0.0001195627 -0.002151228 0.0001423505
v 0.0002737355 -0.002178392 -3.019661E-05
v 0.0005067646 -0.002450342 2.788574E-05
v 0.0003334933 -0.002477139 3.40572E-05
v 0.0002884 -0.002507174 0.0001889339
v 0.0004754704 -0.00254959 0.0001248485
v -0.001042536 0.00158992 0.0004105079
v -0.001086878 0.001165121 0.0001746315
v -0.001057075 0.001624773 0.0001580414
v -0.0009418505 0.001837797 7.094949E-05
v -0.0009943086 0.001008031 0.0003294811
v -0.0007978106 0.0006205368 0.0001760444
v -0.000187698 7.073641E-05 0.000387958
v -0.0003235465 0.0001750731 0.0002089325
v -0.0001328623 -8.661747E-06 0.0001458132
v -3.442168E-06 -0.000491786 0.000133774
v -0.0008436328 0.002005596 0.0003057575
v -0.0006878513 0.00209969 0.0001028767
v -0.0008081275 0.001150048 0.0005875602
v 0.0001926702 -0.0001226878 0.0005286717
v 0.0001362407 -0.0005942679 0.0004574007
v 0.000387848 -0.0005802703 0.0004748013
v 0.000254876 -0.001464996 0.0003045341
v 7.478952E-05 -0.0006849074 0.0001600826
v 8.753538E-05 -0.0008844042 0.0002607337
v 0.0001515073 -0.000576849 -1.434773E-05
v 0.0001231605 -0.0009099412 9.407967E-05
v 0.0001606309 -0.001436571 0.000151625
v 0.0001285255 -0.001788064 0.0002278837
v -0.0006536156 0.001873071 0.0006242913
v -0.0003992998 0.001379781 0.0007563448
v 0.000196988 -0.002214196 0.0003139877
v 0.0001195627 -0.002151228 0.0001423505
v 0.0002884 -0.002507174 0.0001889339
v 0.0003774518 -0.002467511 0.0002858594
v 0.0005730229 -0.002518024 0.0001436201
v 0.0003733224 -0.002266294 0.0003552765
v 0.0005053753 -0.002320065 0.0002868765
v 0.0004871851 -0.001775161 0.0002195114
v 0.0004072702 -0.001638001 0.0002907631
v 0.0005751633 -0.0008076024 0.0003073528
v 0.0005652565 -0.001398312 0.0001428527
v 0.0006277078 -0.0007047153 0.0001238495
v 0.000568583 -0.0003782439 0.000109733
v 0.0005457693 -0.0001451063 0.0002201709
v 0.0004537267 0.0002163363 0.0002515381
v 0.0004430294 0.0002632046 9.51457E-05
v 0.0004614258 0.00094141 0.0001010659
v 0.0004446316 0.0008642673 0.0002874753
v 0.0003967505 0.001620295 0.0002197924
v 0.0003240049 0.00164871 0.0004525903
v 0.0002759635 0.001898172 0.0002157915
v -2.992928E-05 0.001651032 0.0006860769
v -9.8719E-05 0.002141459 0.0004290566
v 7.287323E-05 0.00208777 0.0001325119
v -0.0002360421 0.002248266 0.0001224002
v -0.0005648088 0.002160547 0.0002752483
vt 0.7584386 0.2237621
vt 0.7627777 0.2209691
vt 0.7577714 0.21886
vt 0.7580122 0.2048617
vt 0.7641506 0.2040823
vt 0.7554278 0.2068767
vt 0.7505148 0.2023375
vt 0.7481707 0.1938421
vt 0.7485255 0.1822357
vt 0.7424809 0.1903788
vt 0.7410837 0.1792969
vt 0.7368804 0.1772498
vt 0.7409633 0.1722701
vt 0.738306 0.1664479
vt 0.7423353 0.1615685
vt 0.7456713 0.1707748
vt 0.7508969 0.1612121
vt 0.7490615 0.1553788
vt 0.760569 0.1529233
vt 0.7630496 0.1596392
vt 0.7678921 0.1575845
vt 0.7608709 0.1665351
vt 0.7715481 0.1668441
vt 0.7732484 0.1621983
vt 0.7756302 0.1687848
vt 0.774536 0.1849595
vt 0.7637913 0.1901075
vt 0.7671179 0.1702426
vt 0.7699038 0.1848702
vt 0.7725386 0.2011984
vt 0.7683493 0.2012111
vt 0.7672607 0.2233033
vt 0.7722088 0.2241454
vt 0.774629 0.2168524
vt 0.7756302 0.2246858
vt 0.7642318 0.2391643
vt 0.7606268 0.2287292
vt 0.7600321 0.2417434
vt 0.7709949 0.2514667
vt 0.7738131 0.2416819
vt 0.7741148 0.2508152
vt 0.7707271 0.2666936
vt 0.7686386 0.250287
vt 0.759933 0.2524074
vt 0.7571609 0.2503875
vt 0.7592416 0.2593997
vt 0.7646648 0.2591088
vt 0.7686116 0.2638761
vt 0.7658163 0.2644449
vt 0.7640858 0.2678141
vt 0.7681592 0.2661482
vt 0.2098906 0.01556483
vt 0.219074 0.02204329
vt 0.2138148 0.0110135
vt 0.2101551 0.004741943
vt 0.2157733 0.02654595
vt 0.2184156 0.03607946
vt 0.2085446 0.05538244
vt 0.2140631 0.05179535
vt 0.2146502 0.05858863
vt 0.2140688 0.07091215
vt 0.2030122 0.008254862
vt 0.1996034 0.001953125
vt 0.2085454 0.02611084
vt 0.2004826 0.06361164
vt 0.2058371 0.07405134
vt 0.2001433 0.07557337
vt 0.209311 0.09619872
vt 0.2132419 0.07587285
vt 0.2110304 0.0808216
vt 0.2180222 0.07344318
vt 0.2151936 0.08151092
vt 0.2137911 0.09455267
vt 0.2151002 0.1035159
vt 0.1995949 0.01541897
vt 0.1989146 0.02582474
vt 0.2148909 0.1132783
vt 0.219074 0.1119507
vt 0.2149464 0.1206531
vt 0.2122065 0.1186438
vt 0.2074024 0.1221666
vt 0.21154 0.1147355
vt 0.20918 0.1165004
vt 0.2052134 0.1056585
vt 0.2067037 0.1016393
vt 0.1964732 0.08298658
vt 0.1989509 0.0978106
vt 0.1912595 0.08238088
vt 0.1886007 0.07460298
vt 0.1896748 0.06852903
vt 0.1878188 0.05930157
vt 0.1837613 0.05939662
vt 0.1781702 0.04374142
vt 0.1830743 0.04398761
vt 0.1756632 0.02689461
vt 0.1812631 0.02566499
vt 0.1766476 0.01855663
vt 0.1902001 0.02364562
vt 0.1871231 0.01277354
vt 0.1791649 0.01087156
vt 0.1865834 0.004186635
vt 0.1958685 0.006646565
vn -0.9339375 -0.2839178 -0.217144
vn -0.5367103 -0.135733 -0.8327777
vn -0.9096795 -0.3390858 -0.2397997
vn -0.4846487 -0.2995855 -0.8218054
vn -0.06590574 -0.04883565 -0.99663
vn -0.834622 -0.3724108 -0.4058526
vn -0.6622477 -0.739942 -0.1179564
vn -0.5436618 -0.5583304 -0.6266569
vn -0.2048064 -0.1226857 -0.9710832
vn -0.8049259 -0.5921339 -0.03836438
vn -0.640465 -0.2736005 -0.7175984
vn -0.9729854 -0.1978349 -0.1189993
vn -0.6591582 0.01844846 -0.751778
vn -0.9408925 0.270375 -0.2040068
vn -0.7249692 0.4373333 -0.532127
vn -0.2265295 0.0493644 -0.9727526
vn -0.1729646 0.2947754 -0.9397822
vn -0.4264593 0.7738434 -0.4682935
vn 0.07213575 0.9400394 -0.3333503
vn 0.2159267 0.4147896 -0.8839261
vn 0.5811977 0.7503044 -0.3150438
vn 0.06202592 0.09007537 -0.9940016
vn 0.7086141 0.3182178 -0.6297647
vn 0.7981706 0.6019038 0.02521138
vn 0.9729033 0.2296964 -0.02643356
vn 0.9220068 0.05102034 -0.3837973
vn 0.08583338 -0.02935102 -0.995877
vn 0.2857334 0.1055457 -0.9524791
vn 0.4181975 0.02442344 -0.9080276
vn 0.8727718 0.06858918 -0.4832855
vn 0.3628794 0.03084103 -0.9313256
vn 0.02639043 -0.01247719 -0.9995739
vn 0.6106334 0.02478125 -0.7915256
vn 0.9597749 0.1295613 -0.2490904
vn 0.9921715 0.05955816 -0.1097652
vn -0.5358123 -0.05641467 -0.8424503
vn -0.9228268 -0.0743517 -0.3779718
vn -0.9998165 0.01623561 0.01016823
vn 0.9360817 0.006320173 -0.3517258
vn 0.9922816 -0.1161837 -0.04334291
vn 0.9087992 -0.004211634 0.4172126
vn 0.791867 -0.6076 0.06139201
vn 0.4365813 0.002580653 -0.8996611
vn -0.935822 0.01499551 -0.352154
vn -0.8860304 0.07128867 0.4581136
vn -0.9659551 -0.208968 -0.1525224
vn -0.3208181 -0.118044 -0.939756
vn 0.4919479 -0.3046616 -0.8155787
vn -0.3955065 -0.5969171 -0.6980435
vn -0.5870011 -0.7892771 0.1801981
vn 0.1157977 -0.9931446 -0.01595965
vn -0.8527521 0.1914567 0.485961
vn -0.9729854 -0.1978349 -0.1189993
vn -0.9408925 0.270375 -0.2040068
vn -0.7249692 0.4373333 -0.532127
vn -0.8207794 -0.3843698 0.4225885
vn -0.8049259 -0.5921339 -0.03836438
vn -0.7048653 -0.5070255 0.4960746
vn -0.6622477 -0.739942 -0.1179564
vn -0.834622 -0.3724108 -0.4058526
vn -0.9096795 -0.3390858 -0.2397997
vn -0.6770247 0.6947975 0.242681
vn -0.4264593 0.7738434 -0.4682935
vn -0.5314816 -0.2028958 0.8224115
vn 0.07128099 -0.0611698 0.9955788
vn -0.5570225 -0.2304915 0.7978721
vn 0.3820625 -0.04395803 0.9230905
vn -0.4836987 -0.07115295 0.8723376
vn -0.9339375 -0.2839178 -0.217144
vn -0.9795641 -0.1222002 0.1597539
vn -0.5367103 -0.135733 -0.8327777
vn -0.9228268 -0.0743517 -0.3779718
vn -0.9998165 0.01623561 0.01016823
vn -0.8860304 0.07128867 0.4581136
vn -0.3292535 0.4560568 0.8268037
vn -0.09580584 -0.004510283 0.9953898
vn -0.6591454 -0.2056407 0.7233528
vn -0.9659551 -0.208968 -0.1525224
vn -0.5870011 -0.7892771 0.1801981
vn -0.02963243 -0.6324649 0.774022
vn 0.791867 -0.6076 0.06139201
vn 0.08800147 -0.129815 0.9876253
vn 0.6962356 -0.1069456 0.7098019
vn 0.9087992 -0.004211634 0.4172126
vn 0.3725259 -0.02631223 0.9276487
vn 0.8299693 -0.03832036 0.5564912
vn 0.9922816 -0.1161837 -0.04334291
vn 0.9921715 0.05955816 -0.1097652
vn 0.9597749 0.1295613 -0.2490904
vn 0.9615524 0.2077832 0.179564
vn 0.9857889 0.0620658 0.1561028
vn 0.8727718 0.06858918 -0.4832855
vn 0.9220068 0.05102034 -0.3837973
vn 0.9180665 0.01316099 0.3962078
vn 0.9729033 0.2296964 -0.02643356
vn 0.7653089 0.2642766 0.5869074
vn 0.7981706 0.6019038 0.02521138
vn 0.3177595 0.2384776 0.9176913
vn 0.2845423 0.7816895 0.554975
vn 0.5811977 0.7503044 -0.3150438
vn 0.07213575 0.9400394 -0.3333503
vn -0.2983755 0.9156238 0.2694534
g PaintSplat-Splurf_0
f 3/3/3 2/2/2 1/1/1
f 2/2/2 3/3/3 4/4/4
f 5/5/5 2/2/2 4/4/4
f 6/6/6 4/4/4 3/3/3
f 7/7/7 4/4/4 6/6/6
f 7/7/7 8/8/8 4/4/4
f 8/8/8 5/5/5 4/4/4
f 8/8/8 9/9/9 5/5/5
f 10/10/10 8/8/8 7/7/7
f 11/11/11 8/8/8 10/10/10
f 11/11/11 9/9/9 8/8/8
f 12/12/12 11/11/11 10/10/10
f 13/13/13 11/11/11 12/12/12
f 9/9/9 11/11/11 13/13/13
f 14/14/14 13/13/13 12/12/12
f 15/15/15 13/13/13 14/14/14
f 15/15/15 16/16/16 13/13/13
f 16/16/16 9/9/9 13/13/13
f 17/17/17 16/16/16 15/15/15
f 17/17/17 9/9/9 16/16/16
f 18/18/18 17/17/17 15/15/15
f 18/18/18 19/19/19 17/17/17
f 19/19/19 20/20/20 17/17/17
f 21/21/21 20/20/20 19/19/19
f 22/22/22 9/9/9 17/17/17
f 20/20/20 22/22/22 17/17/17
f 23/23/23 20/20/20 21/21/21
f 24/24/24 23/23/23 21/21/21
f 25/25/25 23/23/23 24/24/24
f 25/25/25 26/26/26 23/23/23
f 22/22/22 27/27/27 9/9/9
f 5/5/5 9/9/9 27/27/27
f 20/20/20 28/28/28 22/22/22
f 20/20/20 23/23/23 28/28/28
f 28/28/28 27/27/27 22/22/22
f 23/23/23 26/26/26 29/29/29
f 23/23/23 29/29/29 28/28/28
f 28/28/28 29/29/29 27/27/27
f 29/29/29 5/5/5 27/27/27
f 26/26/26 30/30/30 29/29/29
f 31/31/31 5/5/5 29/29/29
f 30/30/30 31/31/31 29/29/29
f 31/31/31 32/32/32 5/5/5
f 2/2/2 5/5/5 32/32/32
f 30/30/30 33/33/33 31/31/31
f 33/33/33 32/32/32 31/31/31
f 34/34/34 33/33/33 30/30/30
f 34/34/34 35/35/35 33/33/33
f 32/32/32 36/36/36 2/2/2
f 2/2/2 36/36/36 37/37/37
f 37/37/37 36/36/36 38/38/38
f 39/39/39 33/33/33 35/35/35
f 35/35/35 40/40/40 39/39/39
f 40/40/40 41/41/41 39/39/39
f 42/42/42 39/39/39 41/41/41
f 33/33/33 43/43/43 32/32/32
f 33/33/33 39/39/39 43/43/43
f 32/32/32 43/43/43 36/36/36
f 36/36/36 44/44/44 38/38/38
f 38/38/38 44/44/44 45/45/45
f 44/44/44 46/46/46 45/45/45
f 36/36/36 47/47/47 44/44/44
f 36/36/36 43/43/43 47/47/47
f 47/47/47 46/46/46 44/44/44
f 48/48/48 43/43/43 39/39/39
f 48/48/48 39/39/39 42/42/42
f 43/43/43 48/48/48 47/47/47
f 46/46/46 47/47/47 49/49/49
f 48/48/48 49/49/49 47/47/47
f 46/46/46 49/49/49 50/50/50
f 51/51/51 42/42/42 50/50/50
f 42/42/42 51/51/51 48/48/48
f 51/51/51 50/50/50 49/49/49
f 48/48/48 51/51/51 49/49/49
f 54/54/54 53/53/53 52/52/52
f 52/52/52 55/55/55 54/54/54
f 56/56/56 52/52/52 53/53/53
f 56/56/56 53/53/53 57/57/57
f 56/56/56 57/57/57 58/58/58
f 57/57/57 59/59/59 58/58/58
f 58/58/58 59/59/59 60/60/60
f 61/61/61 58/58/58 60/60/60
f 52/52/52 62/62/62 55/55/55
f 62/62/62 63/63/63 55/55/55
f 64/64/64 52/52/52 56/56/56
f 56/56/56 58/58/58 64/64/64
f 65/65/65 64/64/64 58/58/58
f 66/66/66 58/58/58 61/61/61
f 66/66/66 65/65/65 58/58/58
f 65/65/65 66/66/66 67/67/67
f 68/68/68 67/67/67 66/66/66
f 61/61/61 69/69/69 66/66/66
f 69/69/69 70/70/70 66/66/66
f 68/68/68 66/66/66 70/70/70
f 69/69/69 71/71/71 70/70/70
f 70/70/70 71/71/71 72/72/72
f 72/72/72 73/73/73 70/70/70
f 73/73/73 68/68/68 70/70/70
f 73/73/73 74/74/74 68/68/68
f 62/62/62 52/52/52 75/75/75
f 64/64/64 75/75/75 52/52/52
f 65/65/65 76/76/76 64/64/64
f 64/64/64 76/76/76 75/75/75
f 74/74/74 77/77/77 68/68/68
f 78/78/78 77/77/77 74/74/74
f 79/79/79 77/77/77 78/78/78
f 79/79/79 80/80/80 77/77/77
f 81/81/81 80/80/80 79/79/79
f 77/77/77 82/82/82 68/68/68
f 80/80/80 82/82/82 77/77/77
f 81/81/81 83/83/83 80/80/80
f 82/82/82 80/80/80 83/83/83
f 84/84/84 83/83/83 81/81/81
f 68/68/68 82/82/82 85/85/85
f 82/82/82 83/83/83 85/85/85
f 85/85/85 83/83/83 84/84/84
f 85/85/85 67/67/67 68/68/68
f 85/85/85 84/84/84 86/86/86
f 86/86/86 67/67/67 85/85/85
f 87/87/87 86/86/86 84/84/84
f 87/87/87 88/88/88 86/86/86
f 89/89/89 86/86/86 88/88/88
f 90/90/90 86/86/86 89/89/89
f 90/90/90 67/67/67 86/86/86
f 89/89/89 91/91/91 90/90/90
f 91/91/91 67/67/67 90/90/90
f 89/89/89 92/92/92 91/91/91
f 92/92/92 93/93/93 91/91/91
f 67/67/67 91/91/91 94/94/94
f 91/91/91 93/93/93 94/94/94
f 94/94/94 93/93/93 95/95/95
f 65/65/65 67/67/67 94/94/94
f 95/95/95 96/96/96 94/94/94
f 94/94/94 96/96/96 65/65/65
f 95/95/95 97/97/97 96/96/96
f 98/98/98 65/65/65 96/96/96
f 76/76/76 65/65/65 98/98/98
f 75/75/75 76/76/76 98/98/98
f 96/96/96 97/97/97 99/99/99
f 99/99/99 98/98/98 96/96/96
f 75/75/75 98/98/98 99/99/99
f 99/99/99 97/97/97 100/100/100
f 101/101/101 99/99/99 100/100/100
f 99/99/99 102/102/102 75/75/75
f 99/99/99 101/101/101 102/102/102
f 75/75/75 102/102/102 62/62/62
f 63/63/63 102/102/102 101/101/101
f 102/102/102 63/63/63 62/62/62
