g Paint-DripSmall
v -5.135298E-05 -0.001165871 0.0004516017
v -0.0003848629 -0.001111146 0.0005652547
v -0.0003878626 -0.001131785 0.0007312488
v -0.0004387972 -0.0009736907 0.000490719
v -0.0002637799 -0.0008957493 0.0004409444
v 2.758082E-05 -0.001127592 0.0003838062
v -0.0004073562 -0.0006263465 0.0003784359
v -0.0006496568 -0.0004666049 0.0002606094
v 0.0003784472 -0.0002178534 0.0001714015
v 0.0005891654 -0.000490882 0.000306952
v -0.00056263 -0.0004367793 0.0002268195
v -0.0007405023 -0.0002987385 -5.764484E-05
v -0.0001277593 0.0001768095 0.0002730894
v -0.0004808662 0.0003970635 4.483938E-05
v -0.0003085402 0.00101307 0.0001638293
v 0.0008341962 0.0001378348 -0.0002651441
v 0.001082917 -0.000246523 9.366155E-05
v 9.734662E-05 0.0006402152 0.0001966143
v -0.0006696862 -0.0002455826 -6.06072E-05
v -0.0009228569 -0.0002557134 -0.0006398654
v -0.000963692 -0.0002878325 -0.0003452849
v 0.00109347 0.0001592249 -0.0002154469
v 0.00120166 -3.995713E-05 3.122211E-05
v 0.0008748074 0.000468725 -0.0002373946
v -0.0008123879 -8.842938E-05 -0.0005099559
v -0.001307532 -0.000123383 -0.0008146357
v -0.001345161 -0.000109359 -0.0006453311
v -0.001507595 9.629018E-05 -0.0008953047
v -0.001068097 0.0001813098 -0.0009620452
v -0.00120847 -2.821702E-05 -0.0009658873
v -0.001199708 0.0001912011 -0.001085199
v -0.001356311 0.0001354993 -0.001058308
v -0.001130978 0.0005206302 -0.001030699
v -0.0014147 0.0003810877 -0.001096686
v -0.001526838 0.0002812531 -0.0009741116
v -0.001574456 0.0004311571 -0.000781244
v -0.001521538 0.0005550354 -0.0009657204
v -0.001480248 6.959491E-05 -0.0006289947
v -0.001345161 -0.000109359 -0.0006453311
v -0.001312483 0.0005789615 -0.0010938
v -0.001161939 -9.612325E-05 1.786947E-05
v -0.0009876082 -0.0002360049 0.0004538977
v -0.0009447529 -0.000253003 0.0001617479
v -0.000963692 -0.0002878325 -0.0003452849
v -0.0007405023 -0.0002987385 -5.764484E-05
v -0.0006496568 -0.0004666049 0.0002606094
v -0.0008078348 -0.0004254988 0.0003628755
v -0.000636727 -0.0009049157 0.0005051398
v -0.0004387972 -0.0009736907 0.000490719
v -0.0003848629 -0.001111146 0.0005652547
v -0.0006487243 -0.0009831517 0.0007107902
v -0.0003878626 -0.001131785 0.0007312488
v -0.0008804504 -0.000625776 0.0007157671
v -0.0009225315 -0.0004177882 0.0007919085
v -0.0007637905 -0.0007909869 0.0009127259
v -0.0005500719 -0.001007853 0.0009343814
v -0.0002894472 -0.001067284 0.001015166
v -0.0005290565 -0.0008619255 0.001051074
v -0.001016074 -6.246757E-05 0.000555085
v -0.0007199108 0.0007224021 0.0008602118
v -0.0007030687 -0.0005752431 0.001013697
v -3.270063E-05 -0.001147657 0.0007755768
v -5.135298E-05 -0.001165871 0.0004516017
v 0.0002444749 -0.001053695 0.0007005012
v 2.758082E-05 -0.001127592 0.0003838062
v 0.000238177 -0.001037647 0.0008706534
v 0.0005944685 -0.0008231514 0.0007144701
v -0.001026478 0.0005700923 0.0003904951
v -0.0009781321 0.0008242272 0.0002739096
v 0.0004973291 -0.0007648329 0.0004958058
v 0.0005891654 -0.000490882 0.000306952
v 0.000797726 -0.0006188639 0.0005304468
v 0.001082917 -0.000246523 9.366155E-05
v 0.001062188 -0.0004374594 0.0005086994
v 0.000669832 -0.0007259841 0.0008230376
v 0.0002555921 -0.0009251514 0.0009897959
v -0.001414737 0.0006947045 -0.0006423628
v -0.001344804 0.0007641174 -0.0008455681
v -0.001047677 0.0009068196 -0.0001722598
v -0.001118027 0.0008221599 -0.0008325636
v -0.0009898338 0.0009327478 -0.0003830576
v -0.0008309049 0.0008992571 -0.000542289
v -0.0006371834 0.0009691186 -9.557605E-05
v -0.0005776266 0.001058432 3.883362E-05
v -0.0006471 0.0009710464 0.0005931127
v -4.659481E-05 0.001072494 0.0004176521
v -0.0003126517 0.00106457 0.0006729543
v -0.0004238448 0.0009143617 0.0009413206
v -0.0001431297 0.001056139 0.0009163594
v -0.0002830438 0.0006903633 0.001123199
v 4.182432E-05 0.0009768098 0.001120944
v -0.0005303312 -0.0005507683 0.001081144
v 0.0002381356 0.0008646397 0.001196121
v 0.0003299332 0.001064315 0.001105193
v 0.0004484452 0.001139636 0.000979358
v 0.000517552 0.001153747 0.0008013153
v -0.0003574765 -0.0007106133 0.001104522
v 0.0005812845 0.0009721587 0.001115633
v -0.0001263174 -0.0002260932 0.001118801
v -0.0001021869 -0.0008007241 0.001084728
v 0.000431882 0.0007638493 0.00117527
v 0.0005926644 -8.601687E-05 0.001038555
v 0.0009233061 -0.00017827 0.0008666122
v 0.0006993943 0.0007849084 0.00109517
v 0.0007955867 0.00106308 0.0008775925
v 0.0008815859 0.0008077193 0.0009897602
v 0.001038326 -0.0003268916 0.0006768763
v 0.001213658 -4.357863E-05 0.0004419971
v 0.0009222103 0.0004441982 0.0009061599
v 0.001059044 0.0001656259 0.0007747674
v 0.001060958 0.0007028343 0.0007618928
v 0.000981889 0.0009409978 0.0007385671
v 0.0008217111 0.001040904 0.0005291402
v 0.001130595 0.0007042222 0.0005971742
v 0.0011898 -0.0001888718 0.0002664983
v 0.001234167 0.0002616307 0.0001692879
v 0.001069757 0.0008244891 0.0004279685
v 0.001164205 0.0003512609 -0.0001052547
v 0.001190574 0.0005086195 7.307052E-05
v 0.00104494 0.0004841757 -0.0001700902
v 0.001054227 0.0006639551 2.791524E-05
v 0.0009198721 0.0006186172 -9.513139E-05
v 0.0008616684 0.0008589697 0.0002208543
v 0.0005945653 0.0008215715 0.000142734
v 0.0002453321 0.001046922 0.0003666949
v 0.0002419625 0.0009227348 0.0002680349
vt 0.04094867 0.8815822
vt 0.04821631 0.8767688
vt 0.04679132 0.8729493
vt 0.0515762 0.8795573
vt 0.04958829 0.8840709
vt 0.0395096 0.8838205
vt 0.05718438 0.88743
vt 0.0659418 0.8870168
vt 0.04163887 0.9087132
vt 0.03237264 0.906566
vt 0.06561635 0.8893704
vt 0.07825063 0.8904377
vt 0.06019213 0.9074746
vt 0.07304683 0.9087236
vt 0.07389134 0.9249001
vt 0.03516653 0.9260036
vt 0.02422365 0.9275438
vt 0.06017447 0.9188464
vt 0.07681086 0.892558
vt 0.09666342 0.8963712
vt 0.09184389 0.8904347
vt 0.03176973 0.9331008
vt 0.02626193 0.9387109
vt 0.03947863 0.9294131
vt 0.09036109 0.8986977
vt 0.110417 0.9018391
vt 0.1107295 0.8977283
vt 0.1171173 0.9153205
vt 0.102595 0.9061028
vt 0.1075996 0.9046223
vt 0.1074986 0.9085017
vt 0.1116508 0.910713
vt 0.1031021 0.9122501
vt 0.109769 0.9141412
vt 0.1134574 0.9162227
vt 0.1131227 0.9223499
vt 0.1096967 0.9187632
vt 0.1168565 0.9285047
vt 0.1208672 0.9331305
vt 0.1061586 0.9149835
vt 0.1076753 0.9495087
vt 0.1019458 0.9614043
vt 0.1079387 0.959043
vt 0.1192548 0.9497621
vt 0.1151553 0.9607365
vt 0.1071327 0.9716718
vt 0.1033233 0.9684624
vt 0.09469809 0.9838623
vt 0.09391516 0.9898407
vt 0.08771291 0.9928207
vt 0.08851047 0.984791
vt 0.08045442 0.9919855
vt 0.09299126 0.9736078
vt 0.09262089 0.9683704
vt 0.08714984 0.978237
vt 0.08226788 0.9845297
vt 0.07504606 0.9862213
vt 0.08070955 0.9807435
vt 0.09769278 0.9588981
vt 0.08337388 0.945829
vt 0.08534403 0.9737156
vt 0.06667325 0.9905951
vt 0.06158844 0.9979837
vt 0.05740057 0.9882898
vt 0.05730113 0.9980469
vt 0.05968253 0.9856681
vt 0.04795788 0.9793408
vt 0.0924334 0.9428584
vt 0.08934243 0.9366767
vt 0.044243 0.9823989
vt 0.03317728 0.978416
vt 0.03949889 0.9732428
vt 0.02422365 0.9551151
vt 0.03538832 0.9641392
vt 0.0486389 0.9757726
vt 0.06019721 0.9821895
vt 0.1048384 0.9229192
vt 0.1038206 0.9193857
vt 0.09227615 0.9279626
vt 0.09932065 0.917832
vt 0.09233173 0.9236081
vt 0.09087892 0.9190676
vt 0.08234758 0.9224315
vt 0.08043122 0.9248616
vt 0.08084794 0.9372606
vt 0.06838896 0.9297876
vt 0.07405832 0.9361669
vt 0.07650071 0.9435458
vt 0.07107392 0.9407658
vt 0.07411531 0.9496474
vt 0.06769784 0.9450932
vt 0.08080974 0.9740025
vt 0.06406743 0.9480677
vt 0.06278571 0.9440926
vt 0.06077224 0.9414473
vt 0.05937005 0.9381774
vt 0.07641569 0.9778976
vt 0.05857017 0.9459236
vt 0.07151408 0.9683909
vt 0.06994662 0.9801292
vt 0.06049493 0.9500734
vt 0.05410645 0.9639909
vt 0.04478557 0.9629302
vt 0.05552471 0.9487114
vt 0.05493902 0.9419959
vt 0.05249284 0.9469608
vt 0.03921515 0.9631302
vt 0.03322217 0.9528672
vt 0.04819357 0.9524055
vt 0.04255848 0.9548555
vt 0.04742337 0.9462497
vt 0.05050717 0.9423635
vt 0.05236926 0.9370688
vt 0.04501042 0.9438895
vt 0.02885896 0.9526035
vt 0.03355788 0.9424381
vt 0.04606185 0.9396922
vt 0.03482023 0.9358695
vt 0.0379478 0.9380343
vt 0.03804757 0.9329761
vt 0.04169319 0.9347977
vt 0.04208145 0.9315728
vt 0.04798346 0.9338733
vt 0.05220124 0.9289358
vt 0.06203225 0.9287376
vt 0.06060829 0.9259694
vn -0.07528546 -0.8943039 -0.4410813
vn -0.3696279 -0.8225703 -0.4321497
vn -0.2925314 -0.9531521 0.07698278
vn -0.2019128 -0.4353327 -0.877335
vn -0.1932841 -0.2002676 -0.9604864
vn 0.1062853 -0.6965379 -0.7096044
vn 0.1863077 -0.2772857 -0.9425508
vn -0.2576843 -0.7086504 -0.6568207
vn -0.2797545 -0.2951389 -0.9135811
vn 0.1770628 -0.6002719 -0.7799503
vn 0.3358769 -0.5616763 -0.7561126
vn 0.1526084 -0.9467126 -0.2836299
vn 0.08932833 -0.1285247 -0.987675
vn 0.7205609 -0.06061477 -0.6907371
vn 0.404566 0.4656582 -0.7870761
vn -0.1571443 -0.2641458 -0.9515948
vn 0.4475915 -0.6938764 -0.56409
vn -0.1635564 0.07549092 -0.9836414
vn 0.7772732 -0.4447074 -0.4450636
vn 0.4197703 -0.7737052 -0.4745242
vn -0.210339 -0.9774074 -0.02078875
vn 0.5361024 -0.1999188 -0.8201382
vn 0.8654062 -0.3162593 -0.3886542
vn -0.04953683 0.368973 -0.928119
vn 0.877608 -0.1564972 -0.4531145
vn -0.4128815 -0.8386719 -0.3551877
vn -0.6434261 -0.7634206 0.05649675
vn -0.8216796 -0.4738649 -0.3166934
vn 0.758927 -0.1138474 -0.6411464
vn 0.09587684 -0.6416074 -0.7610174
vn 0.3240159 -0.2166538 -0.9209098
vn -0.3293497 -0.433693 -0.8387128
vn 0.6096011 0.2000899 -0.7670401
vn -0.4049315 -0.009207374 -0.9143007
vn -0.8550747 -0.1623579 -0.4924299
vn -0.9869422 0.1228885 0.1041322
vn -0.8000932 0.422364 -0.4259807
vn -0.9063734 -0.3530782 0.2319979
vn -0.6434261 -0.7634206 0.05649675
vn -0.06114494 0.4390566 -0.8963763
vn -0.8152241 -0.5328593 0.2268714
vn -0.9013727 -0.4329279 0.01003007
vn -0.5390356 -0.8391647 -0.07240935
vn -0.210339 -0.9774074 -0.02078875
vn 0.1526084 -0.9467126 -0.2836299
vn -0.2576843 -0.7086504 -0.6568207
vn -0.6527815 -0.5887364 -0.4767243
vn -0.5654953 -0.5858935 -0.5804687
vn -0.2019128 -0.4353327 -0.877335
vn -0.3696279 -0.8225703 -0.4321497
vn -0.6854286 -0.7256764 -0.0598471
vn -0.2925314 -0.9531521 0.07698278
vn -0.9144533 -0.4040362 -0.02302098
vn -0.894928 -0.08817696 0.4374113
vn -0.7725626 -0.4200369 0.4761471
vn -0.5053638 -0.7276777 0.4637809
vn -0.08007903 -0.7079632 0.7016947
vn -0.3511134 -0.3260385 0.8777347
vn -0.9248904 -0.04088757 0.3780289
vn -0.6733564 0.359768 0.6458778
vn -0.5601166 -0.05262358 0.8267407
vn 0.1448186 -0.964 0.2230053
vn -0.07528546 -0.8943039 -0.4410813
vn 0.4712675 -0.8818208 -0.01728722
vn 0.1062853 -0.6965379 -0.7096044
vn 0.3997555 -0.8307546 0.3873529
vn 0.5988733 -0.7996742 -0.04326624
vn -0.8721927 0.2202481 0.4367731
vn -0.7449237 0.5776921 0.3337073
vn 0.5374891 -0.6590544 -0.526073
vn 0.1770628 -0.6002719 -0.7799503
vn 0.4263778 -0.7831246 -0.4526784
vn 0.4475915 -0.6938764 -0.56409
vn 0.77713 -0.6275859 0.04695584
vn 0.6216346 -0.5564292 0.5513231
vn 0.3453478 -0.4745101 0.8096759
vn -0.7821902 0.5950172 0.1847512
vn -0.4692339 0.8344749 -0.2889138
vn -0.5220219 0.8426186 0.1322382
vn 0.1683199 0.8149075 -0.5546117
vn -0.2040499 0.9732369 -0.1057052
vn 0.5740055 0.6607016 -0.4837264
vn 0.6281568 0.4542675 -0.631712
vn 0.04856535 0.9560429 -0.2891773
vn -0.4866003 0.8223811 0.2948043
vn -0.002667255 0.9865615 -0.1633689
vn -0.205131 0.9714921 0.1188458
vn -0.4471005 0.6338902 0.6310977
vn -0.2592613 0.8916439 0.3711532
vn -0.3328121 0.1887369 0.9239126
vn -0.2405817 0.5736674 0.7829599
vn -0.2574653 -0.01904842 0.9660997
vn -0.01757692 0.1853857 0.9825085
vn -0.01517046 0.7024497 0.7115716
vn 0.09370132 0.9266577 0.3640404
vn 0.1139959 0.9927261 -0.03872864
vn -0.07501639 -0.1137374 0.9906747
vn 0.3312221 0.4388628 0.8352792
vn 0.03005282 -0.0609298 0.9976895
vn 0.1005699 -0.1926157 0.976107
vn 0.1869877 -0.008828951 0.9823226
vn 0.3029512 -0.1405229 0.9425889
vn 0.6107885 -0.194646 0.7674962
vn 0.4168606 0.02444338 0.9086416
vn 0.5142053 0.7836182 0.3486193
vn 0.6625035 0.1809379 0.7268773
vn 0.7972828 -0.3244214 0.5090097
vn 0.9644456 -0.1257958 0.2324223
vn 0.6571445 -0.03884781 0.7527629
vn 0.7971883 -0.0458306 0.6019888
vn 0.8553247 0.1378318 0.4994217
vn 0.7571744 0.6140107 0.2228852
vn 0.3684123 0.8941076 -0.254645
vn 0.9428824 0.267202 0.1989367
vn 0.9095599 -0.4040433 -0.09721074
vn 0.9977008 0.05144907 -0.0441166
vn 0.7580375 0.6336381 -0.1545379
vn 0.8469357 0.1732314 -0.5026835
vn 0.9043283 0.3526005 -0.2405476
vn 0.5041277 0.4411932 -0.742431
vn 0.5453143 0.6921045 -0.4728887
vn 0.1416012 0.7250567 -0.6739748
vn 0.2336982 0.8233498 -0.5171849
vn -0.08457742 0.6814631 -0.7269489
vn 0.08418322 0.8597946 -0.5036532
vn 0.01084392 0.4716894 -0.8816981
g Paint-DripSmall_0
f 3/3/3 2/2/2 1/1/1
f 4/4/4 1/1/1 2/2/2
f 1/1/1 4/4/4 5/5/5
f 5/5/5 6/6/6 1/1/1
f 4/4/4 7/7/7 5/5/5
f 4/4/4 8/8/8 7/7/7
f 9/9/9 6/6/6 5/5/5
f 10/10/10 6/6/6 9/9/9
f 7/7/7 8/8/8 11/11/11
f 11/11/11 8/8/8 12/12/12
f 7/7/7 13/13/13 5/5/5
f 13/13/13 9/9/9 5/5/5
f 11/11/11 13/13/13 7/7/7
f 11/11/11 14/14/14 13/13/13
f 14/14/14 15/15/15 13/13/13
f 10/10/10 9/9/9 16/16/16
f 16/16/16 17/17/17 10/10/10
f 13/13/13 18/18/18 9/9/9
f 15/15/15 18/18/18 13/13/13
f 16/16/16 9/9/9 18/18/18
f 19/19/19 11/11/11 12/12/12
f 14/14/14 11/11/11 19/19/19
f 12/12/12 20/20/20 19/19/19
f 21/21/21 20/20/20 12/12/12
f 17/17/17 16/16/16 22/22/22
f 17/17/17 22/22/22 23/23/23
f 18/18/18 24/24/24 16/16/16
f 24/24/24 22/22/22 16/16/16
f 25/25/25 14/14/14 19/19/19
f 20/20/20 25/25/25 19/19/19
f 21/21/21 26/26/26 20/20/20
f 27/27/27 26/26/26 21/21/21
f 28/28/28 26/26/26 27/27/27
f 29/29/29 14/14/14 25/25/25
f 20/20/20 29/29/29 25/25/25
f 26/26/26 30/30/30 20/20/20
f 29/29/29 20/20/20 31/31/31
f 30/30/30 31/31/31 20/20/20
f 26/26/26 32/32/32 30/30/30
f 28/28/28 32/32/32 26/26/26
f 31/31/31 30/30/30 32/32/32
f 33/33/33 14/14/14 29/29/29
f 31/31/31 33/33/33 29/29/29
f 34/34/34 31/31/31 32/32/32
f 35/35/35 32/32/32 28/28/28
f 35/35/35 34/34/34 32/32/32
f 28/28/28 36/36/36 35/35/35
f 36/36/36 37/37/37 35/35/35
f 34/34/34 35/35/35 37/37/37
f 36/36/36 28/28/28 38/38/38
f 38/38/38 28/28/28 39/39/39
f 31/31/31 34/34/34 40/40/40
f 31/31/31 40/40/40 33/33/33
f 40/40/40 34/34/34 37/37/37
f 39/39/39 41/41/41 38/38/38
f 36/36/36 38/38/38 41/41/41
f 36/36/36 41/41/41 42/42/42
f 41/41/41 39/39/39 43/43/43
f 42/42/42 41/41/41 43/43/43
f 39/39/39 44/44/44 43/43/43
f 44/44/44 45/45/45 43/43/43
f 46/46/46 43/43/43 45/45/45
f 46/46/46 47/47/47 43/43/43
f 43/43/43 47/47/47 42/42/42
f 47/47/47 46/46/46 48/48/48
f 47/47/47 48/48/48 42/42/42
f 46/46/46 49/49/49 48/48/48
f 49/49/49 50/50/50 48/48/48
f 51/51/51 48/48/48 50/50/50
f 51/51/51 50/50/50 52/52/52
f 42/42/42 48/48/48 53/53/53
f 53/53/53 48/48/48 51/51/51
f 54/54/54 42/42/42 53/53/53
f 53/53/53 51/51/51 55/55/55
f 54/54/54 53/53/53 55/55/55
f 51/51/51 52/52/52 56/56/56
f 55/55/55 51/51/51 56/56/56
f 56/56/56 52/52/52 57/57/57
f 55/55/55 56/56/56 58/58/58
f 56/56/56 57/57/57 58/58/58
f 54/54/54 59/59/59 42/42/42
f 59/59/59 54/54/54 60/60/60
f 36/36/36 42/42/42 59/59/59
f 54/54/54 55/55/55 61/61/61
f 55/55/55 58/58/58 61/61/61
f 54/54/54 61/61/61 60/60/60
f 57/57/57 52/52/52 62/62/62
f 52/52/52 63/63/63 62/62/62
f 62/62/62 63/63/63 64/64/64
f 63/63/63 65/65/65 64/64/64
f 62/62/62 64/64/64 66/66/66
f 57/57/57 62/62/62 66/66/66
f 65/65/65 67/67/67 64/64/64
f 66/66/66 64/64/64 67/67/67
f 68/68/68 36/36/36 59/59/59
f 68/68/68 59/59/59 60/60/60
f 36/36/36 68/68/68 69/69/69
f 68/68/68 60/60/60 69/69/69
f 67/67/67 65/65/65 70/70/70
f 65/65/65 71/71/71 70/70/70
f 70/70/70 71/71/71 72/72/72
f 70/70/70 72/72/72 67/67/67
f 72/72/72 71/71/71 73/73/73
f 67/67/67 72/72/72 74/74/74
f 72/72/72 73/73/73 74/74/74
f 66/66/66 67/67/67 75/75/75
f 75/75/75 67/67/67 74/74/74
f 57/57/57 66/66/66 76/76/76
f 76/76/76 66/66/66 75/75/75
f 69/69/69 77/77/77 36/36/36
f 77/77/77 37/37/37 36/36/36
f 78/78/78 37/37/37 77/77/77
f 78/78/78 40/40/40 37/37/37
f 79/79/79 77/77/77 69/69/69
f 79/79/79 78/78/78 77/77/77
f 78/78/78 80/80/80 40/40/40
f 80/80/80 33/33/33 40/40/40
f 81/81/81 80/80/80 78/78/78
f 81/81/81 78/78/78 79/79/79
f 80/80/80 82/82/82 33/33/33
f 81/81/81 82/82/82 80/80/80
f 33/33/33 82/82/82 14/14/14
f 14/14/14 82/82/82 83/83/83
f 81/81/81 83/83/83 82/82/82
f 15/15/15 14/14/14 83/83/83
f 83/83/83 81/81/81 84/84/84
f 79/79/79 84/84/84 81/81/81
f 15/15/15 83/83/83 84/84/84
f 85/85/85 79/79/79 69/69/69
f 84/84/84 79/79/79 85/85/85
f 85/85/85 69/69/69 60/60/60
f 84/84/84 86/86/86 15/15/15
f 85/85/85 87/87/87 84/84/84
f 87/87/87 86/86/86 84/84/84
f 88/88/88 85/85/85 60/60/60
f 89/89/89 87/87/87 85/85/85
f 89/89/89 85/85/85 88/88/88
f 60/60/60 90/90/90 88/88/88
f 60/60/60 61/61/61 90/90/90
f 89/89/89 88/88/88 91/91/91
f 90/90/90 91/91/91 88/88/88
f 61/61/61 92/92/92 90/90/90
f 61/61/61 58/58/58 92/92/92
f 90/90/90 93/93/93 91/91/91
f 92/92/92 93/93/93 90/90/90
f 89/89/89 91/91/91 94/94/94
f 91/91/91 93/93/93 94/94/94
f 89/89/89 95/95/95 87/87/87
f 94/94/94 95/95/95 89/89/89
f 87/87/87 96/96/96 86/86/86
f 95/95/95 96/96/96 87/87/87
f 92/92/92 58/58/58 97/97/97
f 58/58/58 57/57/57 97/97/97
f 94/94/94 98/98/98 95/95/95
f 94/94/94 93/93/93 98/98/98
f 99/99/99 93/93/93 92/92/92
f 97/97/97 99/99/99 92/92/92
f 57/57/57 100/100/100 97/97/97
f 97/97/97 100/100/100 99/99/99
f 57/57/57 76/76/76 100/100/100
f 99/99/99 101/101/101 93/93/93
f 93/93/93 101/101/101 98/98/98
f 100/100/100 102/102/102 99/99/99
f 100/100/100 76/76/76 102/102/102
f 99/99/99 102/102/102 101/101/101
f 103/103/103 102/102/102 76/76/76
f 75/75/75 103/103/103 76/76/76
f 104/104/104 101/101/101 102/102/102
f 98/98/98 101/101/101 104/104/104
f 103/103/103 104/104/104 102/102/102
f 95/95/95 98/98/98 105/105/105
f 96/96/96 95/95/95 105/105/105
f 98/98/98 104/104/104 106/106/106
f 98/98/98 106/106/106 105/105/105
f 103/103/103 75/75/75 107/107/107
f 107/107/107 75/75/75 74/74/74
f 74/74/74 108/108/108 107/107/107
f 103/103/103 109/109/109 104/104/104
f 104/104/104 109/109/109 106/106/106
f 110/110/110 103/103/103 107/107/107
f 110/110/110 109/109/109 103/103/103
f 110/110/110 107/107/107 108/108/108
f 111/111/111 109/109/109 110/110/110
f 111/111/111 106/106/106 109/109/109
f 110/110/110 108/108/108 111/111/111
f 106/106/106 112/112/112 105/105/105
f 111/111/111 112/112/112 106/106/106
f 105/105/105 113/113/113 96/96/96
f 112/112/112 113/113/113 105/105/105
f 111/111/111 114/114/114 112/112/112
f 114/114/114 111/111/111 108/108/108
f 115/115/115 108/108/108 74/74/74
f 73/73/73 115/115/115 74/74/74
f 23/23/23 115/115/115 73/73/73
f 115/115/115 23/23/23 108/108/108
f 23/23/23 116/116/116 108/108/108
f 108/108/108 116/116/116 114/114/114
f 114/114/114 117/117/117 112/112/112
f 112/112/112 117/117/117 113/113/113
f 23/23/23 118/118/118 116/116/116
f 22/22/22 118/118/118 23/23/23
f 114/114/114 116/116/116 119/119/119
f 119/119/119 117/117/117 114/114/114
f 118/118/118 119/119/119 116/116/116
f 118/118/118 22/22/22 120/120/120
f 120/120/120 119/119/119 118/118/118
f 120/120/120 22/22/22 24/24/24
f 119/119/119 121/121/121 117/117/117
f 121/121/121 119/119/119 120/120/120
f 121/121/121 113/113/113 117/117/117
f 122/122/122 120/120/120 24/24/24
f 122/122/122 121/121/121 120/120/120
f 113/113/113 121/121/121 123/123/123
f 123/123/123 121/121/121 122/122/122
f 124/124/124 122/122/122 24/24/24
f 123/123/123 122/122/122 124/124/124
f 18/18/18 124/124/124 24/24/24
f 113/113/113 123/123/123 125/125/125
f 125/125/125 123/123/123 124/124/124
f 96/96/96 113/113/113 125/125/125
f 96/96/96 125/125/125 86/86/86
f 86/86/86 125/125/125 15/15/15
f 124/124/124 18/18/18 126/126/126
f 126/126/126 18/18/18 15/15/15
f 125/125/125 124/124/124 126/126/126
f 125/125/125 126/126/126 15/15/15
