g Paint-Drop.005
v 0.0006547316 0.000136674 0.0002122182
v 0.0007781001 3.742933E-05 2.9971E-05
v 0.0007697323 -9.29442E-05 0.0002610868
v 0.0007771119 -9.522557E-05 -0.0001192635
v 0.0006032527 -7.746219E-05 0.0004625922
v 0.0004206207 6.711781E-05 0.0004276079
v 0.000374266 -0.0001660699 0.0005740887
v 7.951148E-05 -6.510287E-05 0.0005439836
v 0.0006095081 -0.0002627036 0.0004477924
v -0.000134745 -0.0002556822 0.0005625135
v -0.0004967108 -6.922394E-05 0.0004764324
v 0.0003207842 -0.000343824 0.0005518669
v 0.0006542977 -0.0004725632 0.0001987082
v 0.0007545613 -0.0002957901 -9.104609E-06
v 0.000530757 -0.0004422822 0.0003963608
v -0.0004256774 -0.0003204229 0.00048881
v -0.000198786 -0.000431394 0.0004861194
v 0.0003028332 -0.0004962233 0.0004441577
v 0.0003641289 -0.0005568418 0.0003248995
v 0.0006135339 -0.0004858425 0.0001216584
v 0.0007135259 -6.312192E-05 -0.0003826588
v -0.0007156876 -0.0002767617 0.0003618103
v -0.0007818377 -7.384628E-05 0.0003259057
v -0.0004650458 -0.000467827 0.0004021722
v -0.0009036192 -0.000333465 7.739365E-05
v -0.0001712774 -0.0004892042 0.0003352553
v 8.338593E-05 -0.0004487893 0.0001843053
v 0.0007128955 0.0001568502 -0.0002862602
v 0.0005841202 0.0001133782 -0.0005964643
v 0.0007781001 3.742933E-05 2.9971E-05
v 0.0005657577 -0.00025581 -0.0001481098
v 0.0004979112 -6.777704E-05 -0.0004519468
v 0.0006407516 0.0002519536 -6.867707E-05
v 0.0006547316 0.000136674 0.0002122182
v 0.0005438483 0.0003377628 -0.0003467888
v -6.020956E-05 0.0006003445 -0.0002996844
v -0.0001508357 -0.0003220835 -1.642644E-05
v 0.00017697 0.0004645741 -0.0005328876
v -0.0002236951 0.0004576236 3.501356E-05
v 0.0004206207 6.711781E-05 0.0004276079
v -0.0005630421 0.0002482647 0.0002837759
v 7.951148E-05 -6.510287E-05 0.0005439836
v -0.0004967108 -6.922394E-05 0.0004764324
v -0.000745883 0.0001214278 0.000290665
v -0.0009085254 1.705348E-05 6.997883E-05
v -0.0007456979 0.0003727067 9.67443E-06
v -0.0005548494 0.0004783958 -5.992055E-06
v -0.0006454538 0.0004921955 -0.0002737349
v -0.0008804889 0.0001548237 -0.0002379304
v -0.0003205269 0.0005979443 -0.0002150148
v -0.0002581798 0.0006010509 -0.0004385477
v -4.064135E-05 0.0004244876 -0.0007103485
v -0.0003974869 0.000496068 -0.0005650979
v -0.0005394556 0.0003596741 -0.0006298989
v -0.0007590032 0.0002570391 -0.0004178184
v -0.0008124491 0.0001069748 -0.0002674156
v -7.893771E-05 0.0003557235 -0.000739606
v -0.0002163218 -0.0001858377 -0.0001669401
v -0.0004451828 0.0001091033 -0.0003472179
v 0.0001541842 9.101033E-06 -0.0005069596
v 0.0003591681 8.838475E-05 -0.0006060082
vt 0.5003226 0.06150924
vt 0.5016644 0.04990662
vt 0.4962467 0.05651123
vt 0.4999084 0.03968852
vt 0.4899125 0.06373425
vt 0.4883546 0.0704278
vt 0.480917 0.06607913
vt 0.4704818 0.06812011
vt 0.4879702 0.06066688
vt 0.4644655 0.06000502
vt 0.4486897 0.05309472
vt 0.4786905 0.06217172
vt 0.4892323 0.05322109
vt 0.4948609 0.04653938
vt 0.4849535 0.05781396
vt 0.4563698 0.05238502
vt 0.4644951 0.05482114
vt 0.4784859 0.05838969
vt 0.4809136 0.05601014
vt 0.4888859 0.0516817
vt 0.4959849 0.03648551
vt 0.4509717 0.0422118
vt 0.4473636 0.03268307
vt 0.4586242 0.04995586
vt 0.4531732 0.03926825
vt 0.466956 0.05192736
vt 0.4749514 0.05169354
vt 0.496848 0.02924251
vt 0.4915714 0.0327912
vt 0.5016644 0.02586979
vt 0.490201 0.04414146
vt 0.4906417 0.03784372
vt 0.4955502 0.0201716
vt 0.4958702 0.01167965
vt 0.4922043 0.02540873
vt 0.477478 0.02112653
vt 0.4716056 0.0460535
vt 0.4834117 0.02618646
vt 0.4705835 0.01572873
vt 0.4855955 0.003256156
vt 0.4555115 0.01758531
vt 0.4715213 0.001953125
vt 0.4509823 0.01269279
vt 0.451054 0.02508157
vt 0.4533877 0.03126846
vt 0.4585812 0.02322183
vt 0.4630506 0.02005616
vt 0.4646969 0.024102
vt 0.4595598 0.03058361
vt 0.4708527 0.02043177
vt 0.4738772 0.02330024
vt 0.4790453 0.02868021
vt 0.4719112 0.02645866
vt 0.4696028 0.02917089
vt 0.4638653 0.02972484
vt 0.4607309 0.03222036
vt 0.4784262 0.03003707
vt 0.4714033 0.04233385
vt 0.4687373 0.03547638
vt 0.4825014 0.03677518
vt 0.4871427 0.03408306
vn 0.5606364 0.7024399 0.4384806
vn 0.9465135 0.3115232 0.08405551
vn 0.922263 0.08363933 0.3774062
vn 0.9872154 -0.05764791 -0.148602
vn 0.5514305 0.2979412 0.7792017
vn 0.1995875 0.6807528 0.7047981
vn 0.2073816 0.1310009 0.9694491
vn -0.02494256 0.4160377 0.9090053
vn 0.6500464 -0.258077 0.7147279
vn -0.1095727 -0.08907594 0.9899795
vn -0.283737 0.2261365 0.9318559
vn 0.1652824 -0.3743946 0.9124201
vn 0.68928 -0.7050323 0.1668008
vn 0.850741 -0.483001 -0.2072431
vn 0.4902897 -0.6233728 0.609116
vn -0.3000852 -0.2437976 0.9222319
vn -0.0993901 -0.6109182 0.7854302
vn 0.08924528 -0.7627555 0.6404994
vn 0.08343217 -0.9928403 0.08548197
vn 0.2802815 -0.8823715 -0.3779719
vn 0.7291033 -0.3991519 -0.5559553
vn -0.6079944 -0.3161754 0.7282691
vn -0.7086916 0.07997349 0.7009711
vn -0.2989115 -0.8580199 0.4176765
vn -0.751165 -0.6434857 -0.1472319
vn -0.07199145 -0.9898105 -0.122851
vn -0.08039886 -0.8729823 -0.48108
vn 0.8837534 0.4178816 -0.2106057
vn 0.5606344 -0.004466548 -0.8280514
vn 0.9465135 0.3115232 0.08405551
vn -0.01953892 -0.8025154 -0.5963114
vn 0.08437591 -0.763081 -0.6407715
vn 0.6107098 0.7728142 0.1726031
vn 0.5606364 0.7024399 0.4384806
vn 0.5761998 0.7930249 -0.1977504
vn 0.2206903 0.9713761 0.08788772
vn -0.06314664 -0.8264424 -0.5594689
vn 0.380404 0.8193535 -0.4288968
vn 0.08495785 0.8280666 0.5541551
vn 0.1995875 0.6807528 0.7047981
vn -0.2078982 0.6550714 0.7264019
vn -0.02494256 0.4160377 0.9090053
vn -0.283737 0.2261365 0.9318559
vn -0.599729 0.4337683 0.6724361
vn -0.9586296 0.1837898 0.2173724
vn -0.6737877 0.6745451 0.3016606
vn -0.2547506 0.8680819 0.4260704
vn -0.586432 0.8003159 -0.1248683
vn -0.9232649 0.07318085 -0.3771292
vn -0.09968998 0.9716827 0.2142304
vn -0.08205476 0.9522006 -0.2942466
vn 0.1381563 0.6170165 -0.7747281
vn -0.3005193 0.7668501 -0.5671237
vn -0.4934234 0.01619234 -0.8696385
vn -0.7658968 0.02962549 -0.6422806
vn -0.4099233 -0.5488092 -0.7285405
vn -0.1086825 -0.1008559 -0.988947
vn -0.1722935 -0.7070243 -0.6858802
vn -0.1950578 -0.6858078 -0.7011563
vn -0.1593595 -0.7085717 -0.6874086
vn 0.0105341 -0.5534555 -0.8328121
g Paint-Drop.005_0
f 3/3/3 2/2/2 1/1/1
f 3/3/3 4/4/4 2/2/2
f 1/1/1 5/5/5 3/3/3
f 5/5/5 1/1/1 6/6/6
f 6/6/6 7/7/7 5/5/5
f 8/8/8 7/7/7 6/6/6
f 9/9/9 3/3/3 5/5/5
f 9/9/9 5/5/5 7/7/7
f 10/10/10 7/7/7 8/8/8
f 11/11/11 10/10/10 8/8/8
f 12/12/12 9/9/9 7/7/7
f 10/10/10 12/12/12 7/7/7
f 13/13/13 3/3/3 9/9/9
f 14/14/14 4/4/4 3/3/3
f 14/14/14 3/3/3 13/13/13
f 12/12/12 15/15/15 9/9/9
f 15/15/15 13/13/13 9/9/9
f 16/16/16 10/10/10 11/11/11
f 10/10/10 17/17/17 12/12/12
f 17/17/17 10/10/10 16/16/16
f 15/15/15 12/12/12 18/18/18
f 18/18/18 12/12/12 17/17/17
f 15/15/15 19/19/19 13/13/13
f 18/18/18 19/19/19 15/15/15
f 13/13/13 20/20/20 14/14/14
f 20/20/20 13/13/13 19/19/19
f 21/21/21 4/4/4 14/14/14
f 21/21/21 14/14/14 20/20/20
f 22/22/22 16/16/16 11/11/11
f 23/23/23 22/22/22 11/11/11
f 24/24/24 17/17/17 16/16/16
f 24/24/24 18/18/18 17/17/17
f 24/24/24 16/16/16 22/22/22
f 25/25/25 24/24/24 22/22/22
f 25/25/25 22/22/22 23/23/23
f 25/25/25 26/26/26 24/24/24
f 26/26/26 18/18/18 24/24/24
f 19/19/19 18/18/18 26/26/26
f 27/27/27 19/19/19 26/26/26
f 27/27/27 20/20/20 19/19/19
f 25/25/25 27/27/27 26/26/26
f 4/4/4 21/21/21 28/28/28
f 21/21/21 29/29/29 28/28/28
f 28/28/28 30/30/30 4/4/4
f 21/21/21 20/20/20 31/31/31
f 27/27/27 31/31/31 20/20/20
f 31/31/31 32/32/32 21/21/21
f 32/32/32 31/31/31 27/27/27
f 32/32/32 29/29/29 21/21/21
f 28/28/28 33/33/33 30/30/30
f 30/30/30 33/33/33 34/34/34
f 28/28/28 35/35/35 33/33/33
f 28/28/28 29/29/29 35/35/35
f 34/34/34 33/33/33 36/36/36
f 33/33/33 35/35/35 36/36/36
f 25/25/25 37/37/37 27/27/27
f 32/32/32 27/27/27 37/37/37
f 29/29/29 38/38/38 35/35/35
f 38/38/38 36/36/36 35/35/35
f 34/34/34 36/36/36 39/39/39
f 34/34/34 39/39/39 40/40/40
f 41/41/41 40/40/40 39/39/39
f 41/41/41 42/42/42 40/40/40
f 43/43/43 42/42/42 41/41/41
f 44/44/44 43/43/43 41/41/41
f 23/23/23 43/43/43 44/44/44
f 23/23/23 44/44/44 45/45/45
f 23/23/23 45/45/45 25/25/25
f 44/44/44 41/41/41 46/46/46
f 44/44/44 46/46/46 45/45/45
f 47/47/47 41/41/41 39/39/39
f 46/46/46 41/41/41 47/47/47
f 47/47/47 48/48/48 46/46/46
f 45/45/45 46/46/46 49/49/49
f 45/45/45 49/49/49 25/25/25
f 48/48/48 49/49/49 46/46/46
f 50/50/50 47/47/47 39/39/39
f 39/39/39 36/36/36 50/50/50
f 47/47/47 50/50/50 48/48/48
f 36/36/36 51/51/51 50/50/50
f 48/48/48 50/50/50 51/51/51
f 36/36/36 38/38/38 51/51/51
f 52/52/52 51/51/51 38/38/38
f 29/29/29 52/52/52 38/38/38
f 48/48/48 51/51/51 53/53/53
f 51/51/51 52/52/52 53/53/53
f 53/53/53 54/54/54 48/48/48
f 52/52/52 54/54/54 53/53/53
f 48/48/48 55/55/55 49/49/49
f 54/54/54 55/55/55 48/48/48
f 55/55/55 56/56/56 49/49/49
f 55/55/55 54/54/54 56/56/56
f 49/49/49 56/56/56 25/25/25
f 29/29/29 57/57/57 52/52/52
f 52/52/52 57/57/57 54/54/54
f 25/25/25 56/56/56 58/58/58
f 25/25/25 58/58/58 37/37/37
f 54/54/54 59/59/59 56/56/56
f 59/59/59 58/58/58 56/56/56
f 57/57/57 59/59/59 54/54/54
f 58/58/58 60/60/60 37/37/37
f 58/58/58 59/59/59 60/60/60
f 59/59/59 57/57/57 60/60/60
f 37/37/37 60/60/60 32/32/32
f 29/29/29 61/61/61 57/57/57
f 61/61/61 29/29/29 32/32/32
f 60/60/60 61/61/61 32/32/32
f 57/57/57 61/61/61 60/60/60
