g Paint-Drop.004
v 0.0001516406 -0.0005434864 0.0002596617
v 0.0005622515 -0.0001338321 -2.671719E-05
v 0.0002612601 -0.000192982 -0.0001263916
v -0.0004381458 -0.0003084964 -5.360842E-05
v 0.0004133619 -0.0003344425 0.0001572621
v 0.0004664988 -0.0001604855 0.0001713884
v 0.0002477486 -0.0002931756 0.0003078532
v 2.08959E-06 -0.0002386087 0.0003830492
v -2.407342E-05 -0.0005333981 0.0002864408
v 0.0001885204 -1.695931E-05 0.000315367
v 0.000554099 6.25956E-05 -9.729862E-06
v 0.0004171519 0.0001742786 0.0001029706
v 0.0005159079 0.0001709276 -0.0002923775
v 0.0002612601 -0.000192982 -0.0001263916
v 0.0004033856 0.00032211 -0.0001465332
v -0.0002708524 -0.000424524 0.0002174151
v -0.0002432846 -0.0002494049 0.0003448463
v -0.0003800665 -0.0002857378 0.0002129614
v -0.0004807223 -0.0001710457 7.441044E-06
v -0.0001896436 -5.059838E-06 0.0003463984
v -0.0003842887 -2.001107E-05 0.0002684915
v 1.848429E-05 0.0001770747 0.0002162659
v -0.0003359082 0.0001675016 0.0001693535
v -0.0004492807 0.0001159012 -4.944444E-05
v 0.0001700366 0.0003575575 -3.101826E-06
v -6.736979E-05 0.0003578723 2.84791E-06
v 4.456803E-05 0.0004466128 -0.0002891731
v -0.0002726516 0.0003218973 -0.0001320624
v -0.0004506969 -8.26776E-05 -0.0002441347
v -0.0004381458 -0.0003084964 -5.360842E-05
v -0.0004023896 0.0001416224 -0.0002842927
v -0.0003078991 0.0001255488 -0.0004587281
v -0.0002425176 0.0002558392 -0.0004398429
v 0.0002301529 0.0003664267 -0.0003604949
v 0.0001658921 0.0003062558 -0.0004597878
v 0.0001267438 0.0001243085 -0.0003935981
vt 0.570691 0.6382806
vt 0.561407 0.6573545
vt 0.5772758 0.6464581
vt 0.5646484 0.6144691
vt 0.565174 0.6474942
vt 0.5624483 0.6497588
vt 0.5652819 0.641007
vt 0.5631824 0.6336506
vt 0.5675676 0.6328002
vt 0.5608225 0.6399722
vt 0.5579174 0.6537091
vt 0.5571228 0.6479539
vt 0.5499213 0.6546879
vt 0.5364457 0.6550658
vt 0.5519803 0.6492543
vt 0.56387 0.6239953
vt 0.5611171 0.6258218
vt 0.5594912 0.6198377
vt 0.5497606 0.6161789
vt 0.5580665 0.6289555
vt 0.555507 0.6233122
vt 0.5565176 0.6362123
vt 0.5528123 0.6269247
vt 0.5475544 0.6235366
vt 0.5529566 0.6420007
vt 0.5515521 0.6357262
vt 0.5477352 0.6405333
vt 0.5479953 0.6308427
vt 0.5406803 0.6231229
vt 0.5364457 0.6193083
vt 0.5434865 0.6276078
vt 0.5408414 0.6317909
vt 0.5430465 0.6337669
vt 0.547294 0.6456421
vt 0.5447356 0.6448813
vt 0.5420521 0.6460968
vn 0.3105874 -0.9180763 0.2463157
vn 0.8766035 -0.4370349 -0.2014118
vn 0.2178176 -0.679419 -0.7006749
vn -0.6163765 -0.7030486 -0.3546867
vn 0.7255841 -0.667422 0.1675583
vn 0.7484509 -0.04273449 0.6618119
vn 0.441653 -0.1640641 0.8820575
vn 0.06167505 -0.07454468 0.9953087
vn -0.152402 -0.8930249 0.4234149
vn 0.3013766 0.316515 0.8994389
vn 0.9240625 0.2697424 0.2708275
vn 0.5475647 0.5532189 0.6277912
vn 0.7933816 0.1023552 -0.6000576
vn 0.2178176 -0.679419 -0.7006749
vn 0.583473 0.8069983 0.0911752
vn -0.5464908 -0.7695052 0.3304684
vn -0.3984565 -0.2069734 0.8935292
vn -0.7916371 -0.36389 0.4908105
vn -0.9874415 -0.111104 0.1123167
vn -0.1636638 0.3535931 0.9209702
vn -0.7135916 0.2068934 0.6693146
vn 0.05231965 0.6566967 0.7523378
vn -0.5247872 0.6588945 0.53894
vn -0.9114693 0.4040594 0.07720019
vn 0.1847576 0.8665843 0.4635691
vn -0.1550687 0.8863556 0.4362653
vn -0.04748379 0.9771324 -0.2072622
vn -0.552984 0.831699 0.04985478
vn -0.7691238 -0.3100955 -0.5588285
vn -0.6163765 -0.7030486 -0.3546867
vn -0.867549 0.3987377 -0.297266
vn -0.4459651 -0.1168437 -0.887391
vn -0.4265882 0.5833899 -0.6911432
vn 0.4011672 0.7998489 -0.4464376
vn 0.2125948 0.2852671 -0.9345728
vn 0.1879515 -0.4867123 -0.8531035
g Paint-Drop.004_0
f 3/3/3 2/2/2 1/1/1
f 3/3/3 1/1/1 4/4/4
f 1/1/1 2/2/2 5/5/5
f 5/5/5 2/2/2 6/6/6
f 7/7/7 1/1/1 5/5/5
f 6/6/6 7/7/7 5/5/5
f 8/8/8 1/1/1 7/7/7
f 4/4/4 1/1/1 9/9/9
f 9/9/9 1/1/1 8/8/8
f 7/7/7 6/6/6 10/10/10
f 8/8/8 7/7/7 10/10/10
f 6/6/6 2/2/2 11/11/11
f 12/12/12 10/10/10 6/6/6
f 11/11/11 12/12/12 6/6/6
f 2/2/2 13/13/13 11/11/11
f 14/14/14 13/13/13 2/2/2
f 12/12/12 11/11/11 15/15/15
f 11/11/11 13/13/13 15/15/15
f 16/16/16 4/4/4 9/9/9
f 17/17/17 9/9/9 8/8/8
f 17/17/17 16/16/16 9/9/9
f 18/18/18 4/4/4 16/16/16
f 17/17/17 18/18/18 16/16/16
f 19/19/19 4/4/4 18/18/18
f 20/20/20 8/8/8 10/10/10
f 17/17/17 8/8/8 20/20/20
f 21/21/21 18/18/18 17/17/17
f 21/21/21 19/19/19 18/18/18
f 21/21/21 17/17/17 20/20/20
f 22/22/22 10/10/10 12/12/12
f 20/20/20 10/10/10 22/22/22
f 20/20/20 23/23/23 21/21/21
f 23/23/23 20/20/20 22/22/22
f 21/21/21 24/24/24 19/19/19
f 23/23/23 24/24/24 21/21/21
f 22/22/22 12/12/12 25/25/25
f 12/12/12 15/15/15 25/25/25
f 23/23/23 22/22/22 26/26/26
f 26/26/26 22/22/22 25/25/25
f 15/15/15 27/27/27 25/25/25
f 25/25/25 27/27/27 26/26/26
f 26/26/26 28/28/28 23/23/23
f 28/28/28 24/24/24 23/23/23
f 26/26/26 27/27/27 28/28/28
f 29/29/29 19/19/19 24/24/24
f 30/30/30 19/19/19 29/29/29
f 28/28/28 31/31/31 24/24/24
f 31/31/31 29/29/29 24/24/24
f 29/29/29 32/32/32 30/30/30
f 31/31/31 32/32/32 29/29/29
f 30/30/30 32/32/32 14/14/14
f 28/28/28 33/33/33 31/31/31
f 28/28/28 27/27/27 33/33/33
f 32/32/32 31/31/31 33/33/33
f 15/15/15 34/34/34 27/27/27
f 13/13/13 34/34/34 15/15/15
f 33/33/33 27/27/27 35/35/35
f 35/35/35 27/27/27 34/34/34
f 33/33/33 35/35/35 32/32/32
f 13/13/13 35/35/35 34/34/34
f 32/32/32 36/36/36 14/14/14
f 32/32/32 35/35/35 36/36/36
f 36/36/36 35/35/35 13/13/13
f 36/36/36 13/13/13 14/14/14
