g PaintSplat-Tripls
v 0.0001238195 0.001489251 0.0001205887
v 0.0004594038 0.001225991 0.0001852577
v 0.0002789376 0.001436087 0.0002689956
v 0.000243354 0.001264051 4.143344E-05
v 0.0007227142 0.0006877911 8.383857E-05
v 0.0007251234 0.0007789325 0.0002172695
v 0.001245836 0.0005059362 0.0001442842
v -0.0001721296 0.001408132 3.629135E-05
v -6.071329E-05 0.001114954 -2.625478E-05
v -0.0003920071 0.001530414 0.0001390167
v 0.0005807829 0.0005722916 -1.084251E-05
v -0.0006044401 0.001201725 7.83341E-06
v 0.001256073 0.0001379085 9.376872E-06
v 0.001120387 -0.0002149034 -2.690746E-05
v 0.00145501 4.668593E-05 0.0001006355
v 0.001509892 6.935238E-05 0.0002511565
v 0.001606484 -0.0003486144 0.0001350866
v 0.001366524 -0.0004271448 2.035366E-05
v 0.001412386 -0.0006490516 0.0001116629
v 0.001549276 -0.0004949784 0.0002526499
v 0.001337798 -0.0007300067 0.0002297859
v 0.0008972458 -0.0008938181 0.000180663
v 0.0008348997 -0.0007830262 3.642188E-05
v 0.0004359407 -0.001314865 0.0001079877
v 0.0004609748 -0.001355941 0.0002332132
v -6.606467E-06 -0.001472886 0.0001017149
v 0.0002575872 -0.001147374 -1.461042E-05
v -0.0005212688 -0.0009773171 -2.868814E-05
v -0.0003460327 -0.001307436 7.128585E-06
v -0.0004302625 -0.001471322 0.0001270785
v -0.0007815144 -0.001192847 4.083501E-05
v -0.0007704242 -0.001382761 0.0002287217
v -0.001057657 -0.0009678614 9.656267E-05
v -0.001075828 -0.001039205 0.0002274381
v -0.001186655 -0.0006853378 0.0002373003
v -0.0008869625 -0.0006737601 -8.945E-06
v -0.001094261 -0.000547936 7.3296E-05
v -0.001128188 -0.0003842437 0.0001872493
v -0.0004261051 6.851435E-05 -2.257986E-05
v -0.0007626708 -6.864309E-05 6.365524E-05
v -0.0008075517 0.0007862353 -1.125229E-05
v -0.0009047808 -0.0001284432 0.0001472427
v -0.0008523926 -2.182603E-05 0.0002501519
v -0.0007307259 0.0001401198 5.945491E-05
v -0.0008292073 0.0001389694 0.0002331926
v -0.00103381 0.0005340278 0.0001431735
v -0.00109508 0.0008098697 0.0001655717
v -0.0008761801 0.001140273 8.62159E-05
v -0.0008821696 0.00124911 0.0002301996
v -0.0004300674 0.001531985 0.0002616419
v 0.0004594038 0.001225991 0.0001852577
v 0.0007251234 0.0007789325 0.0002172695
v 0.0003842632 0.001287426 0.0004561458
v 0.0002789376 0.001436087 0.0002689956
v 0.0007058957 0.0007140696 0.0004264389
v 0.001245836 0.0005059362 0.0001442842
v 6.781232E-05 0.001538454 0.0002960004
v 0.0001238195 0.001489251 0.0001205887
v -0.0003920071 0.001530414 0.0001390167
v -0.0004300674 0.001531985 0.0002616419
v -8.105118E-05 0.001348093 0.0006649266
v 0.00129311 0.0002556598 0.0004794367
v 0.001509892 6.935238E-05 0.0002511565
v 0.001487801 -0.0004447818 0.0004847847
v 0.001606484 -0.0003486144 0.0001350866
v 0.001549276 -0.0004949784 0.0002526499
v 0.001337798 -0.0007300067 0.0002297859
v 0.0002332423 0.0008777821 0.0007604866
v 0.001027076 0.0001210868 0.0007187302
v -0.0004943943 0.001416709 0.0004762103
v -0.000791962 0.001004998 0.0006512479
v -0.0008821696 0.00124911 0.0002301996
v -0.001024539 0.00100281 0.0002860285
v -0.00109508 0.0008098697 0.0001655717
v 0.0009119447 -0.0008838593 0.0003289233
v 0.0008972458 -0.0008938181 0.000180663
v 0.0004609748 -0.001355941 0.0002332132
v 0.0004475639 0.0004458546 0.0006913592
v -4.975427E-05 0.0001151121 0.0007828636
v -0.0009510982 0.0004753589 0.0004521389
v -0.00103381 0.0005340278 0.0001431735
v -0.0008292073 0.0001389694 0.0002331926
v -0.0006506669 8.183718E-06 0.0004991819
v -0.0008523926 -2.182603E-05 0.0002501519
v -0.0009430604 -0.0006400871 0.0006325911
v -0.001128188 -0.0003842437 0.0001872493
v -0.001186655 -0.0006853378 0.0002373003
v -0.0006475347 0.0006389153 0.000754406
v -0.0002557198 0.0007859993 0.0008569275
v -0.001070007 -0.0009828198 0.0003980996
v -0.001075828 -0.001039205 0.0002274381
v -0.0007704242 -0.001382761 0.0002287217
v -0.0005311998 -0.001395829 0.0005182065
v 5.158346E-05 -0.0005254781 0.0008593429
v -0.0004879916 -0.001501451 0.0002581893
v -0.0004302625 -0.001471322 0.0001270785
v -9.149134E-05 -0.00153631 0.0002790807
v -6.606467E-06 -0.001472886 0.0001017149
v 0.000267883 -0.001283728 0.0005918271
v -0.000355247 -0.001055546 0.0007426302
v 0.0007769645 -0.0007239568 0.0005828477
v 0.001035823 -0.0002497268 0.0007367571
vt 0.6655421 0.07340573
vt 0.6566553 0.0691356
vt 0.6605957 0.07444624
vt 0.6624717 0.0681812
vt 0.6489351 0.05647653
vt 0.6478331 0.06037747
vt 0.6354782 0.05274837
vt 0.671976 0.07018562
vt 0.6688249 0.06390017
vt 0.6773782 0.07318282
vt 0.652585 0.05285434
vt 0.6806018 0.06459265
vt 0.6356287 0.04366262
vt 0.6381128 0.03558099
vt 0.6304919 0.04213263
vt 0.6270849 0.04377873
vt 0.6260643 0.03325931
vt 0.6322843 0.03151131
vt 0.6305619 0.02672319
vt 0.6255278 0.02849213
vt 0.6303512 0.02328767
vt 0.6400722 0.01794386
vt 0.643064 0.0216973
vt 0.6511585 0.008215379
vt 0.6491978 0.00568232
vt 0.6609538 0.003055324
vt 0.6559163 0.01207485
vt 0.6740906 0.01436481
vt 0.6695256 0.006966211
vt 0.6714989 0.001953125
vt 0.6796122 0.009082207
vt 0.6806498 0.002842783
vt 0.686184 0.01329433
vt 0.6881676 0.01061043
vt 0.6917763 0.01843442
vt 0.6827601 0.02006917
vt 0.6880416 0.02206202
vt 0.6907192 0.0254837
vt 0.674605 0.0390897
vt 0.6827269 0.03445169
vt 0.6842473 0.055564
vt 0.6866465 0.03235561
vt 0.6878431 0.03573951
vt 0.6824622 0.04003774
vt 0.6874761 0.03947731
vt 0.6902107 0.04985052
vt 0.6917763 0.05623418
vt 0.6864312 0.06310205
vt 0.6883466 0.06649933
vt 0.6797361 0.07483825
vt 0.6040862 0.071971
vt 0.6094897 0.05942718
vt 0.597649 0.07020576
vt 0.5979168 0.0761853
vt 0.604738 0.05598646
vt 0.6194093 0.04680995
vt 0.5930555 0.07869116
vt 0.5963933 0.0817258
vt 0.5842025 0.08606759
vt 0.5821617 0.08343873
vt 0.5872496 0.07184463
vt 0.6125909 0.03908674
vt 0.6193323 0.0331236
vt 0.6107872 0.02308517
vt 0.6194093 0.02147492
vt 0.6148309 0.01950247
vt 0.6091091 0.01392989
vt 0.5911545 0.06091666
vt 0.6038756 0.03812904
vt 0.5798081 0.07755752
vt 0.5719175 0.06988077
vt 0.5682963 0.08096488
vt 0.5643358 0.07481136
vt 0.5585806 0.0729705
vt 0.5969804 0.01178593
vt 0.5979645 0.007890559
vt 0.581066 0.003414454
vt 0.5941502 0.05026247
vt 0.580065 0.04639658
vt 0.5624918 0.06224987
vt 0.5556118 0.06607464
vt 0.5562071 0.05428173
vt 0.5633957 0.04835336
vt 0.554946 0.05024689
vt 0.5562289 0.0330656
vt 0.5465956 0.04140611
vt 0.5453539 0.03326024
vt 0.5721384 0.06176812
vt 0.5807623 0.06170552
vt 0.5501592 0.0260463
vt 0.5465389 0.02373644
vt 0.5522027 0.01342026
vt 0.5606323 0.01552767
vt 0.578369 0.03090686
vt 0.558881 0.009840777
vt 0.5582859 0.00625571
vt 0.5671759 0.006785682
vt 0.5681247 0.001953125
vt 0.5771626 0.01276758
vt 0.5668263 0.02224565
vt 0.5934463 0.01979044
vt 0.6013632 0.03013308
vn 0.3024897 0.764663 -0.5690259
vn 0.7586738 0.5609329 -0.331313
vn 0.5952258 0.8035527 0.003078722
vn 0.3399604 0.3610843 -0.8683577
vn 0.4187861 0.5049719 -0.7547328
vn 0.7291537 0.6800415 -0.07667094
vn 0.629971 0.7103348 -0.3139445
vn 0.005390181 0.4438403 -0.8960897
vn 0.03874331 0.1263806 -0.9912249
vn -0.2128075 0.8461164 -0.4886717
vn 0.1932794 0.1890059 -0.9627668
vn -0.2087973 0.3115914 -0.9269922
vn 0.3101225 0.1880487 -0.931913
vn 0.1020295 -0.02226746 -0.9945321
vn 0.6986004 0.2695006 -0.6628174
vn 0.9283637 0.3556843 0.1078402
vn 0.922922 -0.05989669 -0.3802989
vn 0.299815 -0.1430644 -0.9432092
vn 0.5639465 -0.6131265 -0.5532091
vn 0.8769518 -0.4658991 0.1178717
vn 0.5134336 -0.8506333 0.1131764
vn 0.5247383 -0.7686499 -0.3658241
vn 0.296929 -0.3998286 -0.8671621
vn 0.4151181 -0.6477295 -0.6388453
vn 0.5391032 -0.8418709 0.02492312
vn 0.1429819 -0.7705694 -0.6211109
vn 0.1248203 -0.2467067 -0.961018
vn -0.06824434 -0.08094408 -0.9943796
vn -0.06674494 -0.3571007 -0.9316782
vn -0.1733802 -0.7935262 -0.5833143
vn -0.3659502 -0.4213164 -0.829803
vn -0.5825438 -0.8051758 -0.1110608
vn -0.6772583 -0.3141754 -0.6652932
vn -0.8470243 -0.5235427 -0.09193904
vn -0.9998788 -0.00772277 0.0135175
vn -0.2420145 -0.01041826 -0.9702167
vn -0.6464868 0.108509 -0.7551693
vn -0.8953118 0.4329248 -0.1048467
vn -0.1197284 0.007372972 -0.9927793
vn -0.5309139 0.2592791 -0.8067866
vn -0.3047855 0.02127812 -0.9521832
vn -0.6588606 0.5627291 -0.4992382
vn -0.8973543 0.4232583 0.1249306
vn -0.5544482 -0.11924 -0.8236316
vn -0.9622868 -0.2694154 -0.03767768
vn -0.8663986 -0.279556 -0.4137655
vn -0.9619661 0.07272662 -0.26331
vn -0.5753657 0.4189706 -0.7024371
vn -0.7145643 0.698755 -0.03375649
vn -0.2874553 0.9472479 0.1417423
vn 0.7586738 0.5609329 -0.331313
vn 0.7291537 0.6800415 -0.07667094
vn 0.6454186 0.5943574 0.4797646
vn 0.5952258 0.8035527 0.003078722
vn 0.5976962 0.5522601 0.5811782
vn 0.629971 0.7103348 -0.3139445
vn 0.2125824 0.9620375 0.1711512
vn 0.3024897 0.764663 -0.5690259
vn -0.2128075 0.8461164 -0.4886717
vn -0.2874553 0.9472479 0.1417423
vn 0.07722237 0.6342175 0.7692886
vn 0.6455908 0.4714756 0.6007689
vn 0.9283637 0.3556843 0.1078402
vn 0.7108804 -0.2843021 0.6432894
vn 0.922922 -0.05989669 -0.3802989
vn 0.8769518 -0.4658991 0.1178717
vn 0.5134336 -0.8506333 0.1131764
vn 0.3792074 0.2060968 0.9020675
vn 0.3404198 0.2751348 0.8991191
vn -0.3444969 0.7610081 0.5497167
vn -0.5889295 0.3155755 0.7440256
vn -0.7145643 0.698755 -0.03375649
vn -0.9130897 0.3267876 0.2438793
vn -0.9619661 0.07272662 -0.26331
vn 0.5289424 -0.7649933 0.3674306
vn 0.5247383 -0.7686499 -0.3658241
vn 0.5391032 -0.8418709 0.02492312
vn 0.2717158 0.2077692 0.9396821
vn -0.09082253 0.01649695 0.9957305
vn -0.8317996 -0.2529783 0.4940764
vn -0.8663986 -0.279556 -0.4137655
vn -0.9622868 -0.2694154 -0.03767768
vn -0.6422987 0.0585278 0.7642164
vn -0.8973543 0.4232583 0.1249306
vn -0.5996758 0.05498016 0.7983522
vn -0.8953118 0.4329248 -0.1048467
vn -0.9998788 -0.00772277 0.0135175
vn -0.4450209 -0.1110683 0.8886058
vn -0.05875638 0.1039627 0.992844
vn -0.7749863 -0.3910073 0.4964972
vn -0.8470243 -0.5235427 -0.09193904
vn -0.5825438 -0.8051758 -0.1110608
vn -0.2903579 -0.7083629 0.6433617
vn 0.01619041 -0.08470459 0.9962746
vn -0.2443006 -0.9695919 0.01444988
vn -0.1733802 -0.7935262 -0.5833143
vn 0.09369339 -0.9879975 0.1228108
vn 0.1429819 -0.7705694 -0.6211109
vn 0.3095618 -0.6271296 0.7147586
vn -0.1440541 -0.3221949 0.9356489
vn 0.3632476 -0.4780602 0.7996936
vn 0.3065883 -0.1403109 0.9414438
g PaintSplat-Tripls_0
f 3/3/3 2/2/2 1/1/1
f 1/1/1 2/2/2 4/4/4
f 2/2/2 5/5/5 4/4/4
f 2/2/2 6/6/6 5/5/5
f 7/7/7 5/5/5 6/6/6
f 1/1/1 4/4/4 8/8/8
f 8/8/8 4/4/4 9/9/9
f 1/1/1 8/8/8 10/10/10
f 4/4/4 5/5/5 11/11/11
f 7/7/7 11/11/11 5/5/5
f 4/4/4 11/11/11 9/9/9
f 8/8/8 12/12/12 10/10/10
f 9/9/9 12/12/12 8/8/8
f 7/7/7 13/13/13 11/11/11
f 11/11/11 14/14/14 9/9/9
f 13/13/13 14/14/14 11/11/11
f 15/15/15 13/13/13 7/7/7
f 16/16/16 15/15/15 7/7/7
f 16/16/16 17/17/17 15/15/15
f 17/17/17 13/13/13 15/15/15
f 17/17/17 18/18/18 13/13/13
f 13/13/13 18/18/18 14/14/14
f 17/17/17 19/19/19 18/18/18
f 19/19/19 17/17/17 20/20/20
f 19/19/19 20/20/20 21/21/21
f 22/22/22 19/19/19 21/21/21
f 19/19/19 23/23/23 18/18/18
f 19/19/19 22/22/22 23/23/23
f 18/18/18 23/23/23 14/14/14
f 24/24/24 23/23/23 22/22/22
f 24/24/24 22/22/22 25/25/25
f 24/24/24 25/25/25 26/26/26
f 27/27/27 23/23/23 24/24/24
f 14/14/14 23/23/23 27/27/27
f 24/24/24 26/26/26 27/27/27
f 27/27/27 28/28/28 14/14/14
f 9/9/9 14/14/14 28/28/28
f 27/27/27 26/26/26 29/29/29
f 27/27/27 29/29/29 28/28/28
f 30/30/30 29/29/29 26/26/26
f 31/31/31 29/29/29 30/30/30
f 28/28/28 29/29/29 31/31/31
f 32/32/32 31/31/31 30/30/30
f 33/33/33 31/31/31 32/32/32
f 32/32/32 34/34/34 33/33/33
f 34/34/34 35/35/35 33/33/33
f 36/36/36 28/28/28 31/31/31
f 31/31/31 33/33/33 36/36/36
f 33/33/33 35/35/35 37/37/37
f 37/37/37 36/36/36 33/33/33
f 37/37/37 35/35/35 38/38/38
f 39/39/39 28/28/28 36/36/36
f 9/9/9 28/28/28 39/39/39
f 39/39/39 36/36/36 37/37/37
f 40/40/40 37/37/37 38/38/38
f 39/39/39 37/37/37 40/40/40
f 9/9/9 39/39/39 41/41/41
f 9/9/9 41/41/41 12/12/12
f 42/42/42 40/40/40 38/38/38
f 43/43/43 42/42/42 38/38/38
f 40/40/40 42/42/42 43/43/43
f 39/39/39 40/40/40 44/44/44
f 44/44/44 40/40/40 43/43/43
f 41/41/41 39/39/39 44/44/44
f 45/45/45 44/44/44 43/43/43
f 45/45/45 46/46/46 44/44/44
f 41/41/41 44/44/44 46/46/46
f 41/41/41 46/46/46 47/47/47
f 12/12/12 41/41/41 48/48/48
f 47/47/47 48/48/48 41/41/41
f 12/12/12 48/48/48 10/10/10
f 47/47/47 49/49/49 48/48/48
f 49/49/49 10/10/10 48/48/48
f 50/50/50 10/10/10 49/49/49
f 53/53/53 52/52/52 51/51/51
f 53/53/53 51/51/51 54/54/54
f 55/55/55 52/52/52 53/53/53
f 52/52/52 55/55/55 56/56/56
f 53/53/53 54/54/54 57/57/57
f 57/57/57 54/54/54 58/58/58
f 57/57/57 58/58/58 59/59/59
f 57/57/57 59/59/59 60/60/60
f 53/53/53 57/57/57 61/61/61
f 60/60/60 61/61/61 57/57/57
f 62/62/62 56/56/56 55/55/55
f 62/62/62 63/63/63 56/56/56
f 62/62/62 64/64/64 63/63/63
f 64/64/64 65/65/65 63/63/63
f 66/66/66 65/65/65 64/64/64
f 66/66/66 64/64/64 67/67/67
f 53/53/53 68/68/68 55/55/55
f 53/53/53 61/61/61 68/68/68
f 55/55/55 69/69/69 62/62/62
f 69/69/69 64/64/64 62/62/62
f 70/70/70 61/61/61 60/60/60
f 70/70/70 71/71/71 61/61/61
f 70/70/70 60/60/60 72/72/72
f 70/70/70 72/72/72 71/71/71
f 71/71/71 72/72/72 73/73/73
f 72/72/72 74/74/74 73/73/73
f 73/73/73 74/74/74 71/71/71
f 64/64/64 75/75/75 67/67/67
f 75/75/75 76/76/76 67/67/67
f 76/76/76 75/75/75 77/77/77
f 55/55/55 78/78/78 69/69/69
f 79/79/79 69/69/69 78/78/78
f 68/68/68 78/78/78 55/55/55
f 68/68/68 79/79/79 78/78/78
f 71/71/71 74/74/74 80/80/80
f 74/74/74 81/81/81 80/80/80
f 80/80/80 81/81/81 82/82/82
f 82/82/82 83/83/83 80/80/80
f 83/83/83 82/82/82 84/84/84
f 85/85/85 83/83/83 84/84/84
f 83/83/83 85/85/85 79/79/79
f 84/84/84 86/86/86 85/85/85
f 85/85/85 86/86/86 87/87/87
f 83/83/83 88/88/88 80/80/80
f 80/80/80 88/88/88 71/71/71
f 79/79/79 88/88/88 83/83/83
f 71/71/71 88/88/88 89/89/89
f 89/89/89 88/88/88 79/79/79
f 79/79/79 68/68/68 89/89/89
f 71/71/71 89/89/89 61/61/61
f 89/89/89 68/68/68 61/61/61
f 87/87/87 90/90/90 85/85/85
f 90/90/90 87/87/87 91/91/91
f 90/90/90 91/91/91 92/92/92
f 93/93/93 90/90/90 92/92/92
f 93/93/93 85/85/85 90/90/90
f 85/85/85 94/94/94 79/79/79
f 94/94/94 69/69/69 79/79/79
f 92/92/92 95/95/95 93/93/93
f 96/96/96 95/95/95 92/92/92
f 95/95/95 96/96/96 97/97/97
f 95/95/95 97/97/97 93/93/93
f 96/96/96 98/98/98 97/97/97
f 77/77/77 97/97/97 98/98/98
f 97/97/97 77/77/77 99/99/99
f 99/99/99 93/93/93 97/97/97
f 77/77/77 75/75/75 99/99/99
f 93/93/93 100/100/100 85/85/85
f 85/85/85 100/100/100 94/94/94
f 99/99/99 100/100/100 93/93/93
f 100/100/100 99/99/99 94/94/94
f 75/75/75 101/101/101 99/99/99
f 101/101/101 94/94/94 99/99/99
f 64/64/64 101/101/101 75/75/75
f 94/94/94 102/102/102 69/69/69
f 101/101/101 102/102/102 94/94/94
f 69/69/69 102/102/102 64/64/64
f 101/101/101 64/64/64 102/102/102
