g PaintSplat.-Piff
v -0.0009003729 0.0006782078 6.541271E-05
v -0.001137644 0.0005318618 3.264148E-05
v -0.001125223 0.0005199981 -6.893975E-06
v -0.0008302787 0.0006150556 -3.705452E-05
v 0.0004726936 0.0006664013 -1.134197E-05
v 0.0005368881 0.0007111859 0.0001577191
v 0.0008370153 0.000565691 5.248089E-05
v 0.0007346579 0.0004652905 -8.39753E-05
v 0.001069907 0.0002633858 7.300247E-05
v 0.0002107613 0.0005329084 -9.794335E-05
v -0.0009396013 0.000387044 -0.0001066385
v 0.0009200639 0.0001230454 -0.0001005737
v 0.001104793 -0.000333612 5.787243E-05
v 0.0002735805 0.0003211927 -0.0001438264
v 0.0009416419 -0.0003299522 -8.14722E-05
v 0.0009485846 -0.0006529188 4.399319E-05
v 0.0006730213 -0.0003189063 -0.0001395444
v 0.000752732 -0.0006445288 -6.511132E-05
v 0.0004043663 -0.0009257865 3.502061E-05
v 0.0004307258 -0.0007148242 -0.0001009963
v 2.891589E-06 -0.0007426476 -4.677544E-05
v 5.961791E-05 -0.0005098105 -0.000129771
v -0.0004378193 -0.000210197 -5.40034E-05
v -0.0003833368 0.0001068425 -0.0001246325
v -0.00117849 0.0001991939 -1.247237E-05
v -0.001169752 0.0004732227 3.394445E-05
v -0.0006915206 -0.0001471567 7.590016E-05
v -0.0003867143 -0.0004304743 0.0001066937
v -0.001211453 0.0001794839 6.735434E-05
v -0.001194029 0.0004244351 3.448178E-05
v -0.001169752 0.0004732227 3.394445E-05
v -0.001125223 0.0005199981 -6.893975E-06
v -0.001108448 0.0004637551 0.0001617186
v -0.001137644 0.0005318618 3.264148E-05
v -0.001211453 0.0001794839 6.735434E-05
v -0.0009003729 0.0006782078 6.541271E-05
v -0.001047571 0.0002164102 0.0002316134
v -0.001006439 0.0002878213 0.0003121899
v -0.0006915206 -0.0001471567 7.590016E-05
v -0.0003867143 -0.0004304743 0.0001066937
v -0.0008113537 0.0006334519 0.0002204709
v 0.0005368881 0.0007111859 0.0001577191
v -6.231872E-05 -0.0007860065 0.0001866125
v -0.0004378193 -0.000210197 -5.40034E-05
v 2.891589E-06 -0.0007426476 -4.677544E-05
v 0.0004043663 -0.0009257865 3.502061E-05
v 0.0002821404 0.0006364656 0.00035111
v 0.0001497655 0.0003068113 0.0006107436
v 0.0007855903 0.0003821302 0.0004345753
v 0.0008370153 0.000565691 5.248089E-05
v 0.001069907 0.0002633858 7.300247E-05
v 0.001017902 -0.0001638341 0.0003368454
v 0.001104793 -0.000333612 5.787243E-05
v 0.000519422 -1.73068E-05 0.0006621279
v 6.380124E-05 -0.0001798725 0.0006898566
v 2.105311E-05 -0.0006637097 0.0004425864
v 0.0005979688 -0.0005664802 0.0005102904
v 0.0008780026 -0.0006261372 0.0002506955
v 0.0009485846 -0.0006529188 4.399319E-05
v 0.0002784332 -0.000887177 0.0002302768
v 0.0006543443 -0.0008399176 0.0001656623
vt 0.9466405 0.3080792
vt 0.9529379 0.3111667
vt 0.9534188 0.310203
vt 0.9481041 0.3050731
vt 0.9327698 0.2801524
vt 0.9284069 0.2804351
vt 0.9293306 0.2718167
vt 0.9340342 0.2726702
vt 0.9323274 0.2626801
vt 0.9388075 0.2835059
vt 0.9537652 0.3044625
vt 0.938465 0.2650106
vt 0.9444449 0.2542801
vt 0.9424183 0.2797943
vt 0.946915 0.2589301
vt 0.9534487 0.2535939
vt 0.9500381 0.2645111
vt 0.955457 0.258703
vt 0.9661497 0.2611921
vt 0.9607884 0.2642449
vt 0.9673562 0.2724144
vt 0.9613839 0.274223
vt 0.9614938 0.2883362
vt 0.9538469 0.2906757
vt 0.9594224 0.3070468
vt 0.9551517 0.3107419
vt 0.9640936 0.2947144
vt 0.9673562 0.2854249
vt 0.9611945 0.308501
vt 0.9568538 0.3097782
vt 0.007748483 0.6589538
vt 0.005694337 0.6590762
vt 0.008901383 0.6623858
vt 0.005747532 0.6602066
vt 0.01549057 0.6579503
vt 0.001953125 0.6669765
vt 0.01504268 0.6637273
vt 0.01356515 0.6657825
vt 0.02649427 0.6677158
vt 0.03352079 0.6737651
vt 0.005562714 0.6700411
vt 0.001953125 0.7025386
vt 0.04075019 0.681276
vt 0.03289046 0.6669486
vt 0.04587567 0.6784588
vt 0.04934954 0.6908866
vt 0.007275695 0.6949752
vt 0.01602491 0.6910768
vt 0.01550575 0.7056201
vt 0.006340691 0.7133597
vt 0.01808826 0.7190611
vt 0.0295731 0.709741
vt 0.03741869 0.7162169
vt 0.02374211 0.6974157
vt 0.02542628 0.6882873
vt 0.03561773 0.6853155
vt 0.03524144 0.6971197
vt 0.04061891 0.704091
vt 0.04605606 0.7078081
vt 0.04313783 0.6889991
vt 0.04478244 0.6976802
vn -0.3271772 0.9424456 -0.06892846
vn -0.9446592 0.3274675 -0.0195954
vn -0.6306263 0.4707788 -0.616991
vn -0.109052 0.6099529 -0.7848982
vn 0.1163516 0.7775797 -0.6179256
vn 0.2550719 0.9553598 0.1490845
vn 0.6320049 0.7467677 -0.2071419
vn 0.2977804 0.3765627 -0.8772271
vn 0.9215318 0.360126 -0.1452187
vn 0.01027996 0.3802208 -0.9248386
vn -0.2015408 0.08276362 -0.9759772
vn 0.4386786 0.1170167 -0.8909929
vn 0.956838 -0.2101828 -0.2007097
vn 0.02098225 0.1081646 -0.9939115
vn 0.4537984 -0.1327646 -0.8811586
vn 0.7329414 -0.6183535 -0.2836124
vn 0.1102452 -0.07184988 -0.991304
vn 0.2963971 -0.4216922 -0.8569273
vn 0.06220793 -0.9318076 -0.3575819
vn 0.06198121 -0.3697088 -0.927078
vn -0.4080244 -0.629029 -0.6616938
vn -0.1283171 -0.1714424 -0.9768021
vn -0.3668128 -0.406775 -0.8366496
vn -0.08751295 -0.08055525 -0.992901
vn -0.6347331 -0.3239496 -0.7015486
vn -0.8878463 0.4560202 -0.06143662
vn -0.5975444 -0.7770697 -0.1977455
vn -0.6591644 -0.6835796 -0.3134027
vn -0.886691 -0.4385065 0.1465986
vn -0.9219045 0.3850103 0.04311853
vn -0.8878463 0.4560202 -0.06143662
vn -0.6306263 0.4707788 -0.616991
vn -0.6856151 0.4007929 0.6076981
vn -0.9446592 0.3274675 -0.0195954
vn -0.886691 -0.4385065 0.1465986
vn -0.3271772 0.9424456 -0.06892846
vn -0.6247576 -0.4042996 0.6679968
vn -0.5696528 -0.03341841 0.8212058
vn -0.5975444 -0.7770697 -0.1977455
vn -0.6591644 -0.6835796 -0.3134027
vn -0.2448363 0.7303913 0.6376393
vn 0.2550719 0.9553598 0.1490845
vn -0.5624396 -0.8212732 0.09577101
vn -0.3668128 -0.406775 -0.8366496
vn -0.4080244 -0.629029 -0.6616938
vn 0.06220793 -0.9318076 -0.3575819
vn 0.04754383 0.7936107 0.6065654
vn -0.03729375 0.4061316 0.9130532
vn 0.5277555 0.4752535 0.7039945
vn 0.6320049 0.7467677 -0.2071419
vn 0.9215318 0.360126 -0.1452187
vn 0.788646 -0.06088232 0.6118259
vn 0.956838 -0.2101828 -0.2007097
vn 0.2889331 0.05076813 0.9560022
vn -0.1728413 -0.1591495 0.9720069
vn -0.3133544 -0.6184841 0.7206152
vn 0.3050973 -0.4757378 0.8249783
vn 0.6562899 -0.5436596 0.5231804
vn 0.7329414 -0.6183535 -0.2836124
vn -0.08053385 -0.910256 0.4061384
vn 0.4049556 -0.8848239 0.2304294
g PaintSplat.-Piff_0
f 3/3/3 2/2/2 1/1/1
f 1/1/1 4/4/4 3/3/3
f 5/5/5 4/4/4 1/1/1
f 6/6/6 5/5/5 1/1/1
f 7/7/7 5/5/5 6/6/6
f 7/7/7 8/8/8 5/5/5
f 7/7/7 9/9/9 8/8/8
f 5/5/5 10/10/10 4/4/4
f 8/8/8 10/10/10 5/5/5
f 4/4/4 11/11/11 3/3/3
f 10/10/10 11/11/11 4/4/4
f 9/9/9 12/12/12 8/8/8
f 9/9/9 13/13/13 12/12/12
f 8/8/8 14/14/14 10/10/10
f 14/14/14 11/11/11 10/10/10
f 8/8/8 12/12/12 14/14/14
f 12/12/12 13/13/13 15/15/15
f 16/16/16 15/15/15 13/13/13
f 12/12/12 15/15/15 17/17/17
f 12/12/12 17/17/17 14/14/14
f 18/18/18 15/15/15 16/16/16
f 18/18/18 17/17/17 15/15/15
f 16/16/16 19/19/19 18/18/18
f 19/19/19 20/20/20 18/18/18
f 18/18/18 20/20/20 17/17/17
f 21/21/21 20/20/20 19/19/19
f 17/17/17 20/20/20 22/22/22
f 21/21/21 22/22/22 20/20/20
f 17/17/17 22/22/22 14/14/14
f 22/22/22 21/21/21 23/23/23
f 14/14/14 22/22/22 24/24/24
f 14/14/14 24/24/24 11/11/11
f 22/22/22 23/23/23 24/24/24
f 23/23/23 11/11/11 24/24/24
f 25/25/25 11/11/11 23/23/23
f 3/3/3 11/11/11 25/25/25
f 26/26/26 3/3/3 25/25/25
f 25/25/25 23/23/23 27/27/27
f 28/28/28 27/27/27 23/23/23
f 25/25/25 27/27/27 29/29/29
f 30/30/30 29/29/29 26/26/26
f 25/25/25 29/29/29 30/30/30
f 26/26/26 25/25/25 30/30/30
f 33/33/33 32/32/32 31/31/31
f 32/32/32 33/33/33 34/34/34
f 35/35/35 33/33/33 31/31/31
f 33/33/33 36/36/36 34/34/34
f 35/35/35 37/37/37 33/33/33
f 37/37/37 38/38/38 33/33/33
f 37/37/37 35/35/35 39/39/39
f 40/40/40 37/37/37 39/39/39
f 38/38/38 37/37/37 40/40/40
f 36/36/36 33/33/33 41/41/41
f 41/41/41 33/33/33 38/38/38
f 42/42/42 36/36/36 41/41/41
f 43/43/43 38/38/38 40/40/40
f 40/40/40 44/44/44 43/43/43
f 44/44/44 45/45/45 43/43/43
f 43/43/43 45/45/45 46/46/46
f 47/47/47 42/42/42 41/41/41
f 41/41/41 48/48/48 47/47/47
f 41/41/41 38/38/38 48/48/48
f 47/47/47 49/49/49 42/42/42
f 48/48/48 49/49/49 47/47/47
f 42/42/42 49/49/49 50/50/50
f 49/49/49 51/51/51 50/50/50
f 49/49/49 52/52/52 51/51/51
f 52/52/52 53/53/53 51/51/51
f 48/48/48 54/54/54 49/49/49
f 54/54/54 52/52/52 49/49/49
f 38/38/38 55/55/55 48/48/48
f 55/55/55 54/54/54 48/48/48
f 56/56/56 38/38/38 43/43/43
f 56/56/56 55/55/55 38/38/38
f 54/54/54 55/55/55 57/57/57
f 52/52/52 54/54/54 57/57/57
f 57/57/57 55/55/55 56/56/56
f 53/53/53 52/52/52 58/58/58
f 52/52/52 57/57/57 58/58/58
f 58/58/58 59/59/59 53/53/53
f 43/43/43 60/60/60 56/56/56
f 60/60/60 57/57/57 56/56/56
f 43/43/43 46/46/46 60/60/60
f 59/59/59 61/61/61 46/46/46
f 58/58/58 61/61/61 59/59/59
f 58/58/58 57/57/57 61/61/61
f 57/57/57 60/60/60 61/61/61
f 61/61/61 60/60/60 46/46/46
