g PaintSplat-Dropetydrop
v -0.001003841 0.0003469419 0.000205476
v -0.001262455 0.0002748585 0.0001028383
v -0.0003307366 0.0003682995 0.0001013765
v -0.001098471 0.0001594305 6.971378E-06
v -0.001376397 -9.596824E-05 1.715453E-05
v -0.001460147 9.584427E-05 0.0001607308
v -0.001511654 -0.0002477503 0.0002103877
v -0.0002966672 0.0001834822 -7.790309E-06
v 0.0002000821 0.0009067583 6.894382E-05
v -0.001387981 -0.0004594946 7.811518E-05
v -0.00134586 -0.0005987215 0.0002239165
v -0.001055484 -0.0007739257 0.0001307118
v -0.001098617 -0.0001379681 -4.452137E-05
v -0.0002367824 -0.0001127529 -4.684476E-05
v -0.001073682 -0.0005702066 -2.036076E-06
v 0.000428887 0.0008169746 -2.536384E-05
v -0.0006456029 -0.0007421446 6.613704E-05
v -0.0005430364 -0.0008048105 0.0002331889
v -4.374921E-05 -0.0005711078 0.0001337156
v -0.0006813181 -0.0005370426 -2.528904E-05
v -8.119106E-05 -0.0004417991 1.530381E-05
v 0.000638988 -0.0007376194 0.0001220584
v 0.000662744 0.001015668 2.982678E-05
v 0.0006428242 0.001128998 0.0001464489
v 0.0009790837 0.0006005049 -4.904238E-05
v 0.001078442 0.0008819199 6.57502E-05
v 0.001035404 0.000979495 0.0002487183
v 0.001276988 0.0007458496 0.0002215511
v 0.001244048 0.0004846287 2.074422E-05
v 0.001378004 0.0002640581 0.0001493424
v 0.001240196 -0.0002485323 6.581278E-05
v 0.0005746025 -0.0005318546 -1.119701E-05
v 0.001067565 -0.0001634264 -2.599893E-05
v 0.000669691 -0.0002296305 -5.29146E-05
v 0.0009569817 -0.0004673672 1.732709E-05
v 0.00115066 -0.000480237 0.0001447934
v 0.0009382522 -0.0006410646 0.0002467609
v 0.001035404 0.000979495 0.0002487183
v 0.0009446573 0.0009632921 0.0005055016
v 0.0006428242 0.001128998 0.0001464489
v 0.001276988 0.0007458496 0.0002215511
v 0.0003007305 0.0009763527 0.0004793584
v 0.0002214175 0.001009049 0.0002603945
v 0.0002000821 0.0009067583 6.894382E-05
v -0.0003307366 0.0003682995 0.0001013765
v -0.0002349335 0.0004932356 0.000255053
v -0.0004499555 0.0003715706 0.0002887961
v -0.001003841 0.0003469419 0.000205476
v -0.0002882803 0.0003155708 0.0004542512
v -0.0009990954 0.0002781391 0.0004526654
v -0.001194814 0.0002724647 0.0003238666
v -0.001262455 0.0002748585 0.0001028383
v -0.001460147 9.584427E-05 0.0001607308
v -0.001348009 -5.223274E-05 0.0005176973
v -0.001511654 -0.0002477503 0.0002103877
v -0.0008253097 -4.461765E-05 0.0007582619
v -0.0002057904 4.356384E-05 0.0006699794
v -0.001405952 -0.0004639482 0.0003591478
v -0.00134586 -0.0005987215 0.0002239165
v -0.0008527356 -0.0007785463 0.0005054733
v -0.001055484 -0.0007739257 0.0001307118
v -0.001109437 -0.0003742552 0.0006964171
v -0.000605942 -0.0004107904 0.0007592633
v -0.0008361703 -0.0008044385 0.0003366086
v -0.0005430364 -0.0008048105 0.0002331889
v -7.575273E-05 -0.0003782081 0.0006114641
v -3.123701E-05 -0.0005935764 0.0002804813
v -4.374921E-05 -0.0005711078 0.0001337156
v 0.000638988 -0.0007376194 0.0001220584
v 0.000588603 -0.0007219839 0.0003063086
v 0.0009382522 -0.0006410646 0.0002467609
v 0.0006742757 -0.0005975675 0.000577245
v 0.0004799652 -0.0001100635 0.0009572369
v 0.001142633 -0.0004669905 0.0003512412
v 0.00115066 -0.000480237 0.0001447934
v 0.001117971 -0.0001264048 0.0007446933
v 0.001317188 -0.0002340841 0.0002551267
v 0.001240196 -0.0002485323 6.581278E-05
v 0.001378004 0.0002640581 0.0001493424
v 0.001398545 0.0003113174 0.0003192565
v 0.001241018 0.0004939842 0.0005778572
v 0.0009430075 0.0003521919 0.0008826426
v 0.0004636043 0.0006169033 0.00084317
vt 0.9367049 0.5406449
vt 0.9355706 0.5339584
vt 0.9304188 0.5554443
vt 0.9310759 0.53681
vt 0.9277343 0.5293319
vt 0.9332365 0.527714
vt 0.9261613 0.5231263
vt 0.925212 0.5545594
vt 0.9364102 0.572914
vt 0.9209006 0.5261301
vt 0.9174005 0.52342
vt 0.9110485 0.5289016
vt 0.9248072 0.5346843
vt 0.9180751 0.5530431
vt 0.9161839 0.5315228
vt 0.9314477 0.576636
vt 0.9084956 0.5382179
vt 0.9037504 0.5389149
vt 0.9046279 0.5525265
vt 0.9133707 0.5396407
vt 0.9089996 0.553377
vt 0.8952307 0.5668728
vt 0.9331059 0.5833464
vt 0.9367049 0.5849009
vt 0.9219201 0.5853708
vt 0.9266906 0.5902808
vt 0.9304814 0.5930454
vt 0.9228464 0.5954478
vt 0.9175341 0.5901172
vt 0.9115992 0.5926789
vt 0.9013432 0.5847914
vt 0.9013742 0.5674495
vt 0.9052192 0.5812119
vt 0.9072374 0.5720969
vt 0.8994575 0.5762289
vt 0.8961317 0.5807219
vt 0.892774 0.574686
vt 0.2367797 0.5777932
vt 0.2384167 0.5712956
vt 0.2259861 0.5718475
vt 0.2458455 0.5814426
vt 0.2303998 0.5606625
vt 0.2254984 0.5605675
vt 0.2202042 0.5596502
vt 0.2202346 0.5392482
vt 0.2247748 0.5431504
vt 0.2252859 0.5358106
vt 0.2211131 0.5203323
vt 0.2312037 0.5390539
vt 0.2274887 0.5205421
vt 0.225119 0.5157627
vt 0.2202042 0.5124339
vt 0.2249889 0.5064216
vt 0.2329946 0.5118521
vt 0.2341155 0.5023138
vt 0.2372639 0.5222546
vt 0.2407045 0.5366614
vt 0.2402024 0.5057392
vt 0.2440401 0.5029158
vt 0.2503763 0.5142178
vt 0.2526539 0.5055735
vt 0.2408005 0.514877
vt 0.2455922 0.522963
vt 0.2529781 0.5123131
vt 0.2589131 0.5159644
vt 0.2534456 0.5342066
vt 0.2642418 0.5302067
vt 0.2678905 0.5282252
vt 0.2762518 0.5461818
vt 0.271077 0.54638
vt 0.2741872 0.5557648
vt 0.2651015 0.5501601
vt 0.2521558 0.5513619
vt 0.2695328 0.5617552
vt 0.2745786 0.5641804
vt 0.2585686 0.5619318
vt 0.2675452 0.5687159
vt 0.2721222 0.5714712
vt 0.2595276 0.5789068
vt 0.2563998 0.575464
vt 0.250049 0.571182
vt 0.2491537 0.5626672
vt 0.2406307 0.5581195
vn -0.1433091 0.9881425 -0.05510667
vn -0.4591549 0.7696937 -0.4435631
vn -0.3734448 0.6949017 -0.6145328
vn -0.1258074 0.3656048 -0.9222286
vn -0.536009 0.07096349 -0.8412244
vn -0.8732364 0.4562846 -0.1710631
vn -0.9950098 -0.0828681 -0.05557233
vn -0.1226625 0.2569706 -0.9586031
vn -0.4537671 0.6072179 -0.6522131
vn -0.6730637 -0.3752621 -0.6373097
vn -0.6955266 -0.7184851 -0.00467576
vn -0.3186361 -0.8717486 -0.37219
vn -0.1198957 0.0287879 -0.9923691
vn -0.01017825 -0.01813766 -0.9997837
vn -0.2002323 -0.349498 -0.9152913
vn -0.1118649 0.2538865 -0.9607434
vn 0.08786497 -0.7134602 -0.695165
vn 0.2410801 -0.9695833 -0.04229061
vn 0.05423813 -0.8609449 -0.5057985
vn 0.02716027 -0.2462512 -0.9688255
vn 0.02453262 -0.4022812 -0.9151874
vn 0.08336623 -0.9065071 -0.4138778
vn 0.04706189 0.5474353 -0.8355236
vn 0.02153546 0.9742703 -0.2243513
vn 0.1668227 0.1391363 -0.9761205
vn 0.4915834 0.5771187 -0.6521347
vn 0.5422661 0.8401673 -0.008155044
vn 0.8609655 0.5023319 -0.08000586
vn 0.5981376 0.1559525 -0.7860727
vn 0.9022714 0.00609236 -0.4311255
vn 0.6917764 -0.2787715 -0.666132
vn 0.008401019 -0.3723707 -0.928046
vn 0.2599138 -0.1115644 -0.9591653
vn 0.03552265 -0.0841773 -0.9958174
vn 0.2821656 -0.4390888 -0.8529851
vn 0.6618746 -0.6568135 -0.3612729
vn 0.4496069 -0.8922786 0.04114073
vn 0.5422661 0.8401673 -0.008155044
vn 0.3690254 0.7558332 0.5408663
vn 0.02153546 0.9742703 -0.2243513
vn 0.8609655 0.5023319 -0.08000586
vn -0.3619455 0.7675366 0.5290398
vn -0.5302976 0.8478115 0.0003247855
vn -0.4537671 0.6072179 -0.6522131
vn -0.3734448 0.6949017 -0.6145328
vn -0.6773862 0.7226275 0.137686
vn -0.1780766 0.9667742 0.183402
vn -0.1433091 0.9881425 -0.05510667
vn -0.3362208 0.6711723 0.6606688
vn -0.2222249 0.7932215 0.5669353
vn -0.4598842 0.802391 0.3803619
vn -0.4591549 0.7696937 -0.4435631
vn -0.8732364 0.4562846 -0.1710631
vn -0.6900375 0.2675951 0.6724887
vn -0.9950098 -0.0828681 -0.05557233
vn -0.1324674 0.3272519 0.935606
vn -0.1879674 0.2326358 0.9542269
vn -0.7948841 -0.4310649 0.4270156
vn -0.6955266 -0.7184851 -0.00467576
vn -0.1232006 -0.8335826 0.5384809
vn -0.3186361 -0.8717486 -0.37219
vn -0.4344703 -0.2542534 0.8640548
vn 0.1015391 -0.3245197 0.9404131
vn -0.08418719 -0.9946691 0.05954535
vn 0.2410801 -0.9695833 -0.04229061
vn -0.01320351 -0.573747 0.8189261
vn 0.05869911 -0.9723617 0.2259803
vn 0.05423813 -0.8609449 -0.5057985
vn 0.08336623 -0.9065071 -0.4138778
vn -0.01289986 -0.9666691 0.2557038
vn 0.4496069 -0.8922786 0.04114073
vn 0.1308296 -0.7802904 0.6115803
vn -0.07254012 -0.2542936 0.9644027
vn 0.6696951 -0.6614774 0.3375738
vn 0.6618746 -0.6568135 -0.3612729
vn 0.6181288 -0.3158546 0.7198281
vn 0.9390103 -0.3412794 0.0422844
vn 0.6917764 -0.2787715 -0.666132
vn 0.9022714 0.00609236 -0.4311255
vn 0.9819722 0.0644552 0.177697
vn 0.7662134 0.2815837 0.5776051
vn 0.3808355 0.1909284 0.9047158
vn -0.1834481 0.4412553 0.8784308
g PaintSplat-Dropetydrop_0
f 3/3/3 2/2/2 1/1/1
f 3/3/3 4/4/4 2/2/2
f 2/2/2 4/4/4 5/5/5
f 2/2/2 5/5/5 6/6/6
f 5/5/5 7/7/7 6/6/6
f 8/8/8 4/4/4 3/3/3
f 9/9/9 8/8/8 3/3/3
f 5/5/5 10/10/10 7/7/7
f 11/11/11 7/7/7 10/10/10
f 11/11/11 10/10/10 12/12/12
f 5/5/5 4/4/4 13/13/13
f 8/8/8 13/13/13 4/4/4
f 14/14/14 13/13/13 8/8/8
f 15/15/15 10/10/10 5/5/5
f 10/10/10 15/15/15 12/12/12
f 13/13/13 15/15/15 5/5/5
f 16/16/16 8/8/8 9/9/9
f 16/16/16 14/14/14 8/8/8
f 17/17/17 12/12/12 15/15/15
f 12/12/12 17/17/17 18/18/18
f 18/18/18 17/17/17 19/19/19
f 20/20/20 15/15/15 13/13/13
f 20/20/20 17/17/17 15/15/15
f 14/14/14 20/20/20 13/13/13
f 17/17/17 21/21/21 19/19/19
f 17/17/17 20/20/20 21/21/21
f 21/21/21 20/20/20 14/14/14
f 19/19/19 21/21/21 22/22/22
f 16/16/16 9/9/9 23/23/23
f 24/24/24 23/23/23 9/9/9
f 25/25/25 16/16/16 23/23/23
f 25/25/25 14/14/14 16/16/16
f 26/26/26 23/23/23 24/24/24
f 26/26/26 25/25/25 23/23/23
f 24/24/24 27/27/27 26/26/26
f 27/27/27 28/28/28 26/26/26
f 26/26/26 28/28/28 29/29/29
f 26/26/26 29/29/29 25/25/25
f 28/28/28 30/30/30 29/29/29
f 29/29/29 30/30/30 31/31/31
f 21/21/21 14/14/14 32/32/32
f 32/32/32 22/22/22 21/21/21
f 29/29/29 33/33/33 25/25/25
f 29/29/29 31/31/31 33/33/33
f 34/34/34 14/14/14 25/25/25
f 34/34/34 32/32/32 14/14/14
f 33/33/33 34/34/34 25/25/25
f 33/33/33 32/32/32 34/34/34
f 31/31/31 35/35/35 33/33/33
f 33/33/33 35/35/35 32/32/32
f 32/32/32 35/35/35 22/22/22
f 31/31/31 36/36/36 35/35/35
f 35/35/35 36/36/36 22/22/22
f 36/36/36 37/37/37 22/22/22
f 40/40/40 39/39/39 38/38/38
f 39/39/39 41/41/41 38/38/38
f 42/42/42 39/39/39 40/40/40
f 42/42/42 40/40/40 43/43/43
f 43/43/43 40/40/40 44/44/44
f 43/43/43 44/44/44 45/45/45
f 46/46/46 43/43/43 45/45/45
f 42/42/42 43/43/43 46/46/46
f 47/47/47 46/46/46 45/45/45
f 47/47/47 45/45/45 48/48/48
f 49/49/49 46/46/46 47/47/47
f 42/42/42 46/46/46 49/49/49
f 48/48/48 50/50/50 47/47/47
f 49/49/49 47/47/47 50/50/50
f 50/50/50 48/48/48 51/51/51
f 52/52/52 51/51/51 48/48/48
f 51/51/51 52/52/52 53/53/53
f 51/51/51 53/53/53 54/54/54
f 54/54/54 50/50/50 51/51/51
f 55/55/55 54/54/54 53/53/53
f 49/49/49 50/50/50 56/56/56
f 54/54/54 56/56/56 50/50/50
f 42/42/42 49/49/49 57/57/57
f 56/56/56 57/57/57 49/49/49
f 58/58/58 54/54/54 55/55/55
f 58/58/58 55/55/55 59/59/59
f 58/58/58 59/59/59 60/60/60
f 60/60/60 59/59/59 61/61/61
f 58/58/58 62/62/62 54/54/54
f 54/54/54 62/62/62 56/56/56
f 62/62/62 58/58/58 60/60/60
f 56/56/56 62/62/62 63/63/63
f 56/56/56 63/63/63 57/57/57
f 60/60/60 63/63/63 62/62/62
f 61/61/61 64/64/64 60/60/60
f 61/61/61 65/65/65 64/64/64
f 64/64/64 65/65/65 60/60/60
f 66/66/66 63/63/63 60/60/60
f 63/63/63 66/66/66 57/57/57
f 67/67/67 60/60/60 65/65/65
f 66/66/66 60/60/60 67/67/67
f 68/68/68 67/67/67 65/65/65
f 68/68/68 69/69/69 67/67/67
f 67/67/67 69/69/69 70/70/70
f 70/70/70 69/69/69 71/71/71
f 67/67/67 70/70/70 72/72/72
f 72/72/72 66/66/66 67/67/67
f 72/72/72 70/70/70 71/71/71
f 57/57/57 66/66/66 73/73/73
f 66/66/66 72/72/72 73/73/73
f 71/71/71 74/74/74 72/72/72
f 75/75/75 74/74/74 71/71/71
f 74/74/74 76/76/76 72/72/72
f 73/73/73 72/72/72 76/76/76
f 75/75/75 77/77/77 74/74/74
f 74/74/74 77/77/77 76/76/76
f 78/78/78 77/77/77 75/75/75
f 77/77/77 78/78/78 79/79/79
f 77/77/77 79/79/79 80/80/80
f 80/80/80 76/76/76 77/77/77
f 80/80/80 79/79/79 41/41/41
f 81/81/81 80/80/80 41/41/41
f 81/81/81 76/76/76 80/80/80
f 81/81/81 41/41/41 39/39/39
f 81/81/81 82/82/82 76/76/76
f 76/76/76 82/82/82 73/73/73
f 39/39/39 82/82/82 81/81/81
f 73/73/73 83/83/83 57/57/57
f 83/83/83 73/73/73 82/82/82
f 83/83/83 82/82/82 39/39/39
f 57/57/57 83/83/83 42/42/42
f 42/42/42 83/83/83 39/39/39
