g Paint-Drop.001
v -0.0001886386 -0.0006603797 1.875371E-05
v 0.0002286237 -0.0005609719 -0.000291318
v -0.000382179 -0.0003862198 5.291551E-05
v 0.0001350802 -0.0006485562 -8.793741E-05
v 0.0003089625 -0.0002626134 -0.0004589405
v -0.0003505915 0.0002114904 -0.0003203216
v -0.0006266147 -0.0001639946 0.000135574
v -0.000677408 0.0003250634 -9.819567E-06
v -0.0003957093 0.0006086001 -0.000389972
v -0.0005478418 0.0005301833 -0.0001468936
v 0.0002188832 0.0001615964 -0.0005783036
v 0.0004120326 -0.0003662096 -0.0003989318
v 0.0004314679 -6.332338E-05 -0.0005372539
v 0.0003203809 -0.0005435927 -0.0001898029
v 0.0002939498 0.000336822 -0.0006044212
v 0.0003880429 -0.0004899801 2.616137E-05
v 0.0005081451 -0.0003332268 -7.437974E-05
v 0.0005608189 5.515545E-05 -0.0002260628
v 0.0004585069 0.0003150742 -0.0003340426
v 6.771267E-05 -0.0006232886 0.0001838884
v -0.0001886386 -0.0006603797 1.875371E-05
v -0.0002746379 -0.0006077251 0.0001490328
v -0.000382179 -0.0003862198 5.291551E-05
v -0.0006266147 -0.0001639946 0.000135574
v 0.0004341555 -0.0003537354 0.000126631
v 0.0002019101 -0.0005033378 0.0002756819
v 0.0005180109 -4.829615E-06 -2.507597E-05
v -7.143796E-05 -0.0005090222 0.0003811046
v 0.0003119916 0.0004968309 -0.0003167656
v 0.0004176652 0.0004044235 -0.0001296976
v 0.0004557955 0.0001972282 1.557678E-05
v 0.0003592372 -0.0002246632 0.0002172562
v 0.0001408064 -0.0002671541 0.0003952953
v 0.0003045738 0.000270416 0.0001188776
v 0.0001093525 0.0005559945 -0.0004442802
v 0.000205757 0.000582827 -0.0001527229
v 0.0001837504 0.0004826738 3.701657E-05
v 4.454255E-06 0.0006440165 -0.0001265946
v 5.611718E-05 0.0003513333 0.0001943239
v -6.653428E-05 0.0005312929 0.0001140007
v -2.301037E-05 -0.0003910489 0.0004508254
v -0.0003831357 0.0006058443 -0.0001041129
v -8.356452E-05 -0.000183831 0.0004923543
v -0.0003390038 -0.0002870871 0.0004782805
v -0.0002403915 -7.025927E-05 0.0004927787
v -0.0002600664 0.0005585855 7.594317E-05
v -0.0005863303 0.0004408033 6.164878E-05
v -0.000677408 0.0003250634 -9.819567E-06
v -0.000423243 0.0002646738 0.0003077909
v -0.0006679624 0.0002622181 0.0001527414
v -0.0004658597 -3.630966E-05 0.000419974
v -0.0006333548 -0.0001695596 0.0002767417
v -0.0003486925 -0.0004822272 0.0002964768
vt 0.1778006 0.5757882
vt 0.1794837 0.5867035
vt 0.1892188 0.566495
vt 0.1756632 0.5896631
vt 0.1870696 0.583823
vt 0.2080738 0.5765687
vt 0.2021822 0.5622155
vt 0.2194557 0.5752962
vt 0.216304 0.5857961
vt 0.2202717 0.5854113
vt 0.198874 0.5835466
vt 0.1851539 0.5867702
vt 0.1918979 0.5856881
vt 0.1801337 0.5898454
vt 0.2006767 0.5862682
vt 0.1812034 0.5955392
vt 0.1849746 0.5938011
vt 0.19277 0.5919858
vt 0.1984988 0.5908492
vt 0.1788737 0.6030267
vt 0.1756632 0.6122364
vt 0.1816332 0.6152921
vt 0.1895368 0.6219701
vt 0.2047571 0.6240351
vt 0.185026 0.5979478
vt 0.1832522 0.6029774
vt 0.1918212 0.5954012
vt 0.1855213 0.6094665
vt 0.2032964 0.591362
vt 0.2006683 0.594264
vt 0.196485 0.5962895
vt 0.1887738 0.6004727
vt 0.1902126 0.6057817
vt 0.1997517 0.598716
vt 0.2069043 0.5888566
vt 0.2064818 0.5940121
vt 0.2054734 0.5974946
vt 0.210929 0.5940056
vt 0.2050329 0.6012234
vt 0.2110044 0.5988766
vt 0.1888906 0.6088705
vt 0.2185745 0.5910937
vt 0.1951458 0.6094595
vt 0.1956886 0.6142417
vt 0.200058 0.6112658
vt 0.2151747 0.5972668
vt 0.2207066 0.6001276
vt 0.2239238 0.6057875
vt 0.2115316 0.6073143
vt 0.217809 0.608521
vt 0.204249 0.614491
vt 0.2040788 0.620947
vt 0.1888489 0.6154155
vn -0.4229732 -0.847626 -0.3203495
vn -0.0003984884 -0.7371643 -0.6757134
vn -0.6198449 -0.4608918 -0.635115
vn 0.1956991 -0.9728703 -0.1233907
vn -0.1924599 -0.4047075 -0.8939638
vn -0.5609074 -0.2908911 -0.7750906
vn -0.8598228 -0.3830656 -0.3375878
vn -0.9603781 0.1408259 -0.2405036
vn -0.4889637 0.5940894 -0.6387271
vn -0.7500824 0.6507924 -0.1176673
vn -0.2286973 -0.1933075 -0.954112
vn 0.586555 -0.5145257 -0.625473
vn 0.5511869 -0.1792805 -0.8148935
vn 0.6012634 -0.7826369 -0.1611265
vn 0.3397244 0.3307957 -0.8804326
vn 0.687104 -0.6985992 0.1996179
vn 0.9369625 -0.3463186 0.04652764
vn 0.9919835 0.09053674 -0.08815827
vn 0.8675838 0.4183183 -0.2689018
vn 0.2079897 -0.9081347 0.3633615
vn -0.4229732 -0.847626 -0.3203495
vn -0.5290859 -0.8385092 0.1302704
vn -0.6198449 -0.4608918 -0.635115
vn -0.8598228 -0.3830656 -0.3375878
vn 0.8099782 -0.27325 0.5189118
vn 0.5163627 -0.577203 0.6326185
vn 0.9158432 0.07661773 0.3941587
vn 0.002948232 -0.709305 0.7048955
vn 0.6054559 0.7616307 -0.2309588
vn 0.7737529 0.5881908 0.2352405
vn 0.7971107 0.3166828 0.514127
vn 0.6891829 0.04597809 0.7231271
vn 0.5250621 0.008515975 0.8510213
vn 0.5364067 0.4096015 0.7378986
vn 0.1940356 0.8240674 -0.5322247
vn 0.4423373 0.8846019 0.1477067
vn 0.4363582 0.6755564 0.594319
vn 0.1527551 0.9776354 0.14455
vn 0.3076289 0.4690748 0.8278487
vn 0.149601 0.7276568 0.6694289
vn 0.2181589 -0.3515164 0.9104081
vn -0.2704683 0.9407296 0.2046331
vn 0.2434638 0.102462 0.9644827
vn -0.347289 -0.3171385 0.882504
vn -0.01109807 0.2558107 0.9666631
vn -0.1317203 0.8223065 0.5535898
vn -0.5878532 0.6886838 0.424433
vn -0.9603781 0.1408259 -0.2405036
vn -0.2377111 0.5198299 0.8205305
vn -0.8526434 0.2736973 0.4450721
vn -0.4822881 0.1622224 0.8608612
vn -0.8793625 -0.2850977 0.3813671
vn -0.5259516 -0.6980232 0.485941
g Paint-Drop.001_0
f 3/3/3 2/2/2 1/1/1
f 1/1/1 2/2/2 4/4/4
f 5/5/5 2/2/2 3/3/3
f 3/3/3 6/6/6 5/5/5
f 7/7/7 6/6/6 3/3/3
f 7/7/7 8/8/8 6/6/6
f 6/6/6 8/8/8 9/9/9
f 9/9/9 8/8/8 10/10/10
f 6/6/6 11/11/11 5/5/5
f 6/6/6 9/9/9 11/11/11
f 12/12/12 2/2/2 5/5/5
f 11/11/11 13/13/13 5/5/5
f 5/5/5 13/13/13 12/12/12
f 2/2/2 14/14/14 4/4/4
f 2/2/2 12/12/12 14/14/14
f 9/9/9 15/15/15 11/11/11
f 15/15/15 13/13/13 11/11/11
f 4/4/4 14/14/14 16/16/16
f 12/12/12 17/17/17 14/14/14
f 17/17/17 16/16/16 14/14/14
f 12/12/12 13/13/13 18/18/18
f 17/17/17 12/12/12 18/18/18
f 19/19/19 13/13/13 15/15/15
f 18/18/18 13/13/13 19/19/19
f 20/20/20 4/4/4 16/16/16
f 21/21/21 4/4/4 20/20/20
f 22/22/22 21/21/21 20/20/20
f 22/22/22 23/23/23 21/21/21
f 22/22/22 24/24/24 23/23/23
f 16/16/16 17/17/17 25/25/25
f 26/26/26 20/20/20 16/16/16
f 25/25/25 26/26/26 16/16/16
f 17/17/17 18/18/18 27/27/27
f 17/17/17 27/27/27 25/25/25
f 28/28/28 22/22/22 20/20/20
f 28/28/28 20/20/20 26/26/26
f 19/19/19 15/15/15 29/29/29
f 30/30/30 18/18/18 19/19/19
f 30/30/30 19/19/19 29/29/29
f 31/31/31 27/27/27 18/18/18
f 31/31/31 18/18/18 30/30/30
f 27/27/27 32/32/32 25/25/25
f 31/31/31 32/32/32 27/27/27
f 33/33/33 26/26/26 25/25/25
f 32/32/32 33/33/33 25/25/25
f 31/31/31 34/34/34 32/32/32
f 30/30/30 34/34/34 31/31/31
f 34/34/34 33/33/33 32/32/32
f 15/15/15 35/35/35 29/29/29
f 35/35/35 15/15/15 9/9/9
f 30/30/30 29/29/29 36/36/36
f 36/36/36 29/29/29 35/35/35
f 37/37/37 34/34/34 30/30/30
f 36/36/36 37/37/37 30/30/30
f 35/35/35 9/9/9 38/38/38
f 36/36/36 35/35/35 38/38/38
f 37/37/37 39/39/39 34/34/34
f 34/34/34 39/39/39 33/33/33
f 36/36/36 40/40/40 37/37/37
f 38/38/38 40/40/40 36/36/36
f 40/40/40 39/39/39 37/37/37
f 26/26/26 33/33/33 41/41/41
f 26/26/26 41/41/41 28/28/28
f 38/38/38 9/9/9 42/42/42
f 9/9/9 10/10/10 42/42/42
f 39/39/39 43/43/43 33/33/33
f 33/33/33 43/43/43 41/41/41
f 41/41/41 44/44/44 28/28/28
f 43/43/43 44/44/44 41/41/41
f 39/39/39 45/45/45 43/43/43
f 40/40/40 45/45/45 39/39/39
f 45/45/45 44/44/44 43/43/43
f 38/38/38 46/46/46 40/40/40
f 38/38/38 42/42/42 46/46/46
f 42/42/42 10/10/10 47/47/47
f 47/47/47 46/46/46 42/42/42
f 47/47/47 10/10/10 48/48/48
f 46/46/46 49/49/49 40/40/40
f 49/49/49 45/45/45 40/40/40
f 47/47/47 49/49/49 46/46/46
f 47/47/47 48/48/48 50/50/50
f 47/47/47 50/50/50 49/49/49
f 24/24/24 50/50/50 48/48/48
f 49/49/49 51/51/51 45/45/45
f 50/50/50 51/51/51 49/49/49
f 51/51/51 44/44/44 45/45/45
f 24/24/24 52/52/52 50/50/50
f 52/52/52 51/51/51 50/50/50
f 44/44/44 51/51/51 52/52/52
f 52/52/52 24/24/24 22/22/22
f 44/44/44 52/52/52 53/53/53
f 53/53/53 52/52/52 22/22/22
f 28/28/28 44/44/44 53/53/53
f 28/28/28 53/53/53 22/22/22
