g PaintSplat-DroppyDrop
v -0.001023575 -0.0004085541 0.0002142858
v -0.0009362307 -0.0002931309 5.439959E-05
v -0.0009996536 -0.0001748514 0.000224741
v -0.0004433843 0.0005103826 0.0001373961
v -0.0009424093 -0.0006422758 0.0001423719
v -0.0003306222 0.000475893 4.443131E-05
v 2.096832E-05 0.0007259178 0.0001659479
v 0.0002146164 0.0006363344 6.177805E-05
v 0.0002483463 0.0007142925 0.0002465674
v 0.0005494243 0.0005809116 0.000195912
v 0.0006611556 0.000430479 0.0001029169
v -0.0001148802 0.0003413296 -2.87623E-05
v 0.0004899326 0.0002535105 -9.297803E-06
v 0.0007439852 -9.141445E-05 7.989191E-05
v -0.0006726295 -0.0005148077 -8.101016E-07
v 0.0001770675 -9.946823E-05 -3.272183E-05
v 0.0004347771 -0.000392437 9.118244E-06
v 0.000560205 -0.0005542373 0.0001571252
v -0.0006217748 -0.0007021761 8.873575E-05
v -0.0006363174 -0.0007616091 0.0001787104
v -0.0004433843 0.0005103826 0.0001373961
v 2.096832E-05 0.0007259178 0.0001659479
v 2.892673E-05 0.0006669521 0.0004759478
v 0.0002483463 0.0007142925 0.0002465674
v -0.0004719257 0.0004363489 0.0003616076
v -0.0009996536 -0.0001748514 0.000224741
v -0.0008928373 -0.0002778005 0.000512874
v -0.001023575 -0.0004085541 0.0002142858
v -0.0009424093 -0.0006422758 0.0001423719
v 0.000661135 0.000415492 0.0004594838
v 0.0005494243 0.0005809116 0.000195912
v -0.0002179146 0.0002621174 0.0007638102
v -0.0006394535 -0.0006858206 0.0004040416
v -0.0006363174 -0.0007616091 0.0001787104
v 0.0003596634 0.0001345587 0.0007957672
v -0.0001043507 -0.0002246904 0.0007797148
v 0.0004864344 -0.0005564308 0.0003387167
v 0.000560205 -0.0005542373 0.0001571252
v 0.000373815 -0.0004083061 0.0005695175
v 0.0007439238 -0.0001664209 0.0004460438
v 0.0006981259 0.0004265928 0.0002889322
v 0.0006611556 0.000430479 0.0001029169
v 0.0008041098 0.0001590204 0.0002757593
v 0.0007439852 -9.141445E-05 7.989191E-05
v 0.0007913437 -0.0002155876 0.0002602353
vt 0.2478718 0.2206428
vt 0.2460081 0.2160847
vt 0.2422547 0.2191775
vt 0.2287742 0.2034215
vt 0.2541483 0.2186056
vt 0.2308603 0.2004898
vt 0.2251323 0.1916346
vt 0.229011 0.1876243
vt 0.2246584 0.1856135
vt 0.2296956 0.1789691
vt 0.2347155 0.1771459
vt 0.2350029 0.1959273
vt 0.2388277 0.1824956
vt 0.2480886 0.1771615
vt 0.2516862 0.2110579
vt 0.2457721 0.1909578
vt 0.2534647 0.1862054
vt 0.2589931 0.1834771
vt 0.2565351 0.2109107
vt 0.2589931 0.2118375
vt 0.6313093 0.7036982
vt 0.6299819 0.7207165
vt 0.6386278 0.7192059
vt 0.6349878 0.7273353
vt 0.6386963 0.7050714
vt 0.6517279 0.6871231
vt 0.6559564 0.6949965
vt 0.6595999 0.6860752
vt 0.6680438 0.6861266
vt 0.6491803 0.7303321
vt 0.642217 0.7347503
vt 0.6480045 0.711677
vt 0.6673808 0.698245
vt 0.6736585 0.695963
vt 0.6529341 0.7210445
vt 0.657324 0.7118377
vt 0.6694341 0.72322
vt 0.6736585 0.7272134
vt 0.6634847 0.7201899
vt 0.6606508 0.7286499
vt 0.6487213 0.7339953
vt 0.6475172 0.7393339
vt 0.6551918 0.7341517
vt 0.6631443 0.738362
vt 0.6632555 0.7319758
vn -0.984417 -0.1744284 0.02231228
vn -0.6055144 0.1072108 -0.7885798
vn -0.9173895 0.3953028 -0.04617441
vn -0.5906364 0.7453405 -0.3092186
vn -0.718454 -0.6501433 -0.2472602
vn -0.2927211 0.4608215 -0.8378293
vn -0.1764899 0.9361514 -0.3040918
vn 0.1411324 0.6277133 -0.7655441
vn 0.2686595 0.9625033 0.03754235
vn 0.5208014 0.8371878 -0.166981
vn 0.6620958 0.4459051 -0.6023269
vn -0.06764851 0.1797855 -0.9813769
vn 0.2393331 0.1330334 -0.9617805
vn 0.7112746 -0.09523468 -0.6964329
vn -0.1447806 -0.2335576 -0.9615037
vn 0.03876505 -0.04186049 -0.9983712
vn 0.2315134 -0.3304247 -0.9149979
vn 0.5519388 -0.7687227 -0.3231548
vn -0.0489339 -0.6708765 -0.7399528
vn -0.1057241 -0.9876095 -0.1159738
vn -0.5906364 0.7453405 -0.3092186
vn -0.1764899 0.9361514 -0.3040918
vn -0.08720524 0.8413996 0.5333309
vn 0.2686595 0.9625033 0.03754235
vn -0.6198798 0.6901895 0.3733463
vn -0.9173895 0.3953028 -0.04617441
vn -0.6817901 -0.02120217 0.7312406
vn -0.984417 -0.1744284 0.02231228
vn -0.718454 -0.6501433 -0.2472602
vn 0.6628283 0.5160777 0.5425149
vn 0.5208014 0.8371878 -0.166981
vn -0.2910559 0.3824435 0.8769397
vn -0.2247185 -0.7627953 0.6063374
vn -0.1057241 -0.9876095 -0.1159738
vn 0.3381774 0.1304112 0.9320026
vn -0.04999617 -0.334428 0.9410942
vn 0.4271499 -0.8212256 0.3783275
vn 0.5519388 -0.7687227 -0.3231548
vn 0.3190551 -0.5857888 0.7450203
vn 0.7874364 -0.2571386 0.5601997
vn 0.8379654 0.5434433 0.04983569
vn 0.6620958 0.4459051 -0.6023269
vn 0.9871759 0.1580699 0.02230802
vn 0.7112746 -0.09523468 -0.6964329
vn 0.9350566 -0.3538441 -0.02152721
g PaintSplat-DroppyDrop_0
f 3/3/3 2/2/2 1/1/1
f 4/4/4 2/2/2 3/3/3
f 5/5/5 1/1/1 2/2/2
f 6/6/6 2/2/2 4/4/4
f 7/7/7 6/6/6 4/4/4
f 8/8/8 6/6/6 7/7/7
f 9/9/9 8/8/8 7/7/7
f 9/9/9 10/10/10 8/8/8
f 10/10/10 11/11/11 8/8/8
f 12/12/12 2/2/2 6/6/6
f 8/8/8 12/12/12 6/6/6
f 11/11/11 13/13/13 8/8/8
f 13/13/13 12/12/12 8/8/8
f 14/14/14 13/13/13 11/11/11
f 15/15/15 5/5/5 2/2/2
f 12/12/12 15/15/15 2/2/2
f 13/13/13 16/16/16 12/12/12
f 12/12/12 16/16/16 15/15/15
f 14/14/14 17/17/17 13/13/13
f 13/13/13 17/17/17 16/16/16
f 17/17/17 15/15/15 16/16/16
f 17/17/17 14/14/14 18/18/18
f 15/15/15 19/19/19 5/5/5
f 17/17/17 19/19/19 15/15/15
f 19/19/19 17/17/17 18/18/18
f 5/5/5 19/19/19 20/20/20
f 20/20/20 19/19/19 18/18/18
f 23/23/23 22/22/22 21/21/21
f 24/24/24 22/22/22 23/23/23
f 23/23/23 21/21/21 25/25/25
f 25/25/25 21/21/21 26/26/26
f 27/27/27 25/25/25 26/26/26
f 28/28/28 27/27/27 26/26/26
f 29/29/29 27/27/27 28/28/28
f 30/30/30 24/24/24 23/23/23
f 31/31/31 24/24/24 30/30/30
f 32/32/32 23/23/23 25/25/25
f 25/25/25 27/27/27 32/32/32
f 33/33/33 27/27/27 29/29/29
f 29/29/29 34/34/34 33/33/33
f 32/32/32 35/35/35 23/23/23
f 30/30/30 23/23/23 35/35/35
f 32/32/32 27/27/27 36/36/36
f 33/33/33 36/36/36 27/27/27
f 32/32/32 36/36/36 35/35/35
f 33/33/33 34/34/34 37/37/37
f 34/34/34 38/38/38 37/37/37
f 39/39/39 36/36/36 33/33/33
f 39/39/39 35/35/35 36/36/36
f 37/37/37 39/39/39 33/33/33
f 40/40/40 35/35/35 39/39/39
f 40/40/40 39/39/39 37/37/37
f 38/38/38 40/40/40 37/37/37
f 35/35/35 40/40/40 30/30/30
f 41/41/41 31/31/31 30/30/30
f 41/41/41 42/42/42 31/31/31
f 30/30/30 43/43/43 41/41/41
f 41/41/41 43/43/43 42/42/42
f 43/43/43 30/30/30 40/40/40
f 44/44/44 42/42/42 43/43/43
f 44/44/44 45/45/45 38/38/38
f 45/45/45 40/40/40 38/38/38
f 45/45/45 43/43/43 40/40/40
f 45/45/45 44/44/44 43/43/43
