g Paint-Drop.002
v 0.0002384099 -0.0006781255 -0.000103507
v 0.0003082612 -0.0004821885 -0.0004139697
v 5.00682E-05 -0.0006399264 -0.0001580942
v 0.0002162248 -0.0003042059 -0.0003852212
v -7.565617E-05 -0.0006481892 -2.480745E-06
v -0.0004514483 -0.0002720681 0.0003196204
v -1.173526E-05 -0.0001509294 -0.0002407086
v -0.0005440491 6.51583E-05 0.0001990235
v -0.0005573499 0.0003526041 -0.0001014042
v -0.0006378561 0.0003958869 3.828168E-05
v -0.0005602944 0.0005165878 -0.0001769984
v -0.0005837816 7.27871E-05 0.0003376794
v -0.0004841244 0.0004973647 0.0001210511
v -0.0005956587 0.0003247222 0.0002101588
v -0.0003396833 0.0003785437 0.0003830123
v -0.0003097403 0.0005738055 0.0001300228
v -0.0002203837 0.0001161034 0.0005023074
v -0.000231455 -8.755341E-05 0.0004929328
v -0.0001751783 0.000404841 0.0003646266
v -6.84157E-05 -0.0003958394 0.0004179633
v 3.575087E-05 -0.0001755233 0.0004852641
v -1.049101E-05 0.0001274152 0.0004337597
v -0.0002628296 -0.0004899478 0.0002328086
v -6.237298E-05 -0.0005608834 0.0002646839
v 0.0002303943 -0.0005246587 0.0003275812
v 0.0002275297 -0.0006608616 0.0001540959
v 0.000417839 -0.0006262311 0.0001424587
v 0.0003387329 -0.0004043452 0.0003199637
v 0.0003246364 -0.0001599841 0.0003188693
v 8.607328E-05 0.0003377205 0.0002430463
v 0.0005765494 -0.0003501145 4.871249E-05
v 0.0004119286 -0.0006080744 -0.0001217067
v 0.0003082612 -0.0004821885 -0.0004139697
v 0.0005701568 -0.0004184943 -0.0001283073
v 0.0004941043 -2.087057E-06 4.505157E-05
v 0.0005661407 -5.503639E-05 -0.0001779795
v 0.0004350033 -0.0002373469 -0.0004318333
v 0.0002828375 2.065301E-07 -0.0005131268
v 0.0002162248 -0.0003042059 -0.0003852212
v -9.580314E-05 0.0005270517 0.0001419914
v 0.0003447851 0.0002559274 -7.193207E-05
v 0.0004813275 1.235008E-05 -0.0002993309
v 9.728789E-05 0.0004756972 -7.179379E-05
v 0.000296481 0.0003006404 -0.0002529109
v -9.799957E-05 0.0005895218 -0.0001906431
v 0.0001855588 0.0002727935 -0.0004323471
v -9.553492E-05 0.0005336186 -0.0003873766
v -0.0003060409 0.0006043911 -0.0001748872
v -0.0003071928 0.0005661055 -0.0004082298
v -0.0001147345 0.0004050886 -0.0005040765
v -0.0002239168 0.0003511599 -0.0004804539
v -0.0005573499 0.0003526041 -0.0001014042
v -1.173526E-05 -0.0001509294 -0.0002407086
v 0.0002076667 -0.0001254506 -0.0004456317
vt 0.1356112 0.009779762
vt 0.1206826 0.001953125
vt 0.1267702 0.01024678
vt 0.1136848 0.005693847
vt 0.125468 0.0133756
vt 0.1167804 0.02771085
vt 0.1088516 0.01440298
vt 0.1128044 0.03672083
vt 0.1088516 0.04786445
vt 0.1127916 0.04808082
vt 0.1208541 0.05758337
vt 0.1151092 0.03657108
vt 0.1180154 0.04857017
vt 0.1151489 0.0439666
vt 0.1205482 0.04153863
vt 0.1221586 0.04750456
vt 0.122493 0.03491892
vt 0.1220353 0.03083615
vt 0.1238611 0.04094988
vt 0.1257163 0.02383012
vt 0.1274091 0.02817994
vt 0.1267424 0.03447277
vt 0.1219965 0.02141603
vt 0.1263785 0.01914795
vt 0.1322612 0.02012918
vt 0.1333449 0.01545365
vt 0.1374939 0.01724705
vt 0.1342683 0.02263066
vt 0.1340031 0.02780507
vt 0.1298406 0.03894275
vt 0.1414216 0.02379899
vt 0.1419317 0.01599644
vt 0.1554192 0.02449208
vt 0.1448743 0.02225592
vt 0.1398593 0.03151889
vt 0.144842 0.03177516
vt 0.1509362 0.03082719
vt 0.1503391 0.04086765
vt 0.1562816 0.0346223
vt 0.1267264 0.04439007
vt 0.1383994 0.03814734
vt 0.146176 0.03510237
vt 0.1331334 0.04377254
vt 0.1405454 0.04109775
vt 0.1305798 0.04876127
vt 0.1427824 0.04413493
vt 0.1344232 0.05002217
vt 0.1262823 0.05196462
vt 0.1309121 0.05333943
vt 0.1375706 0.05123961
vt 0.1374216 0.05372193
vt 0.1268061 0.06341678
vt 0.1551506 0.05082563
vt 0.1534754 0.04057688
vn 0.1081749 -0.9667916 -0.231543
vn 0.05909941 -0.5302427 -0.8457837
vn -0.4980222 -0.644913 -0.5797079
vn -0.6334022 -0.2234098 -0.7408709
vn -0.5833909 -0.7673288 -0.2661984
vn -0.8169128 -0.5303974 0.2265659
vn -0.6352155 -0.459422 -0.6208322
vn -0.8161051 -0.4242143 -0.392447
vn -0.7711159 -0.3915376 -0.5020743
vn -0.9756078 0.2193127 -0.009562703
vn -0.802596 0.4743811 -0.3616656
vn -0.8729835 -0.1158501 0.4737917
vn -0.5007504 0.7802998 0.3746749
vn -0.7777601 0.3774534 0.5026113
vn -0.2837062 0.5459868 0.7882951
vn -0.1170151 0.9300799 0.3482224
vn -0.07483606 0.1895564 0.9790137
vn -0.2450107 -0.1761432 0.9533851
vn 0.207226 0.6409577 0.7390741
vn -0.1387345 -0.4940951 0.8582672
vn 0.2443156 -0.05710573 0.9680128
vn 0.4217244 0.3335729 0.8431356
vn -0.6206571 -0.7380619 0.2646683
vn -0.2306818 -0.8083366 0.5416436
vn 0.2164558 -0.5584586 0.8007939
vn 0.04113051 -0.9349632 0.3523521
vn 0.5850729 -0.7213447 0.3706098
vn 0.5837348 -0.1670287 0.7945786
vn 0.6364037 0.196886 0.7458058
vn 0.5773973 0.5909788 0.5633439
vn 0.935836 -0.09463304 0.3394932
vn 0.5553668 -0.7832992 -0.2793028
vn 0.05909941 -0.5302427 -0.8457837
vn 0.9075133 -0.3520488 -0.2290878
vn 0.821416 0.3994117 0.4071191
vn 0.950195 0.2739376 -0.1486197
vn 0.6404833 -0.1206907 -0.7584292
vn 0.2610878 0.05817433 -0.9635606
vn -0.6334022 -0.2234098 -0.7408709
vn 0.3534427 0.859051 0.3702829
vn 0.739585 0.6513256 0.1696729
vn 0.7919857 0.3730873 -0.4832851
vn 0.5752118 0.8108227 0.1081569
vn 0.6926714 0.672411 -0.260902
vn 0.3172694 0.9462127 -0.06341705
vn 0.5315598 0.5269312 -0.663165
vn 0.3539667 0.7967697 -0.4897608
vn -0.1277961 0.9914198 -0.0274788
vn -0.3342979 0.6635065 -0.669331
vn 0.072079 0.3132939 -0.9469169
vn -0.4890118 -0.1999691 -0.8490464
vn -0.7711159 -0.3915376 -0.5020743
vn -0.6352155 -0.459422 -0.6208322
vn -0.4110033 -0.3583296 -0.8382577
g Paint-Drop.002_0
f 3/3/3 2/2/2 1/1/1
f 4/4/4 2/2/2 3/3/3
f 4/4/4 3/3/3 5/5/5
f 5/5/5 3/3/3 1/1/1
f 4/4/4 5/5/5 6/6/6
f 6/6/6 7/7/7 4/4/4
f 8/8/8 7/7/7 6/6/6
f 9/9/9 7/7/7 8/8/8
f 10/10/10 9/9/9 8/8/8
f 11/11/11 9/9/9 10/10/10
f 6/6/6 12/12/12 8/8/8
f 10/10/10 8/8/8 12/12/12
f 13/13/13 11/11/11 10/10/10
f 14/14/14 10/10/10 12/12/12
f 13/13/13 10/10/10 14/14/14
f 13/13/13 14/14/14 15/15/15
f 12/12/12 15/15/15 14/14/14
f 16/16/16 11/11/11 13/13/13
f 13/13/13 15/15/15 16/16/16
f 12/12/12 17/17/17 15/15/15
f 12/12/12 6/6/6 18/18/18
f 18/18/18 17/17/17 12/12/12
f 19/19/19 16/16/16 15/15/15
f 15/15/15 17/17/17 19/19/19
f 20/20/20 18/18/18 6/6/6
f 18/18/18 21/21/21 17/17/17
f 20/20/20 21/21/21 18/18/18
f 19/19/19 17/17/17 22/22/22
f 22/22/22 17/17/17 21/21/21
f 6/6/6 23/23/23 20/20/20
f 23/23/23 6/6/6 5/5/5
f 20/20/20 23/23/23 24/24/24
f 23/23/23 5/5/5 24/24/24
f 20/20/20 24/24/24 25/25/25
f 20/20/20 25/25/25 21/21/21
f 24/24/24 5/5/5 26/26/26
f 26/26/26 25/25/25 24/24/24
f 5/5/5 1/1/1 26/26/26
f 27/27/27 25/25/25 26/26/26
f 26/26/26 1/1/1 27/27/27
f 21/21/21 25/25/25 28/28/28
f 28/28/28 25/25/25 27/27/27
f 22/22/22 21/21/21 29/29/29
f 29/29/29 21/21/21 28/28/28
f 19/19/19 22/22/22 30/30/30
f 30/30/30 22/22/22 29/29/29
f 31/31/31 29/29/29 28/28/28
f 31/31/31 28/28/28 27/27/27
f 1/1/1 32/32/32 27/27/27
f 33/33/33 32/32/32 1/1/1
f 32/32/32 34/34/34 27/27/27
f 27/27/27 34/34/34 31/31/31
f 33/33/33 34/34/34 32/32/32
f 35/35/35 29/29/29 31/31/31
f 30/30/30 29/29/29 35/35/35
f 34/34/34 36/36/36 31/31/31
f 31/31/31 36/36/36 35/35/35
f 37/37/37 34/34/34 33/33/33
f 37/37/37 36/36/36 34/34/34
f 37/37/37 33/33/33 38/38/38
f 38/38/38 33/33/33 39/39/39
f 30/30/30 40/40/40 19/19/19
f 19/19/19 40/40/40 16/16/16
f 30/30/30 35/35/35 41/41/41
f 35/35/35 36/36/36 41/41/41
f 36/36/36 37/37/37 42/42/42
f 42/42/42 37/37/37 38/38/38
f 40/40/40 30/30/30 43/43/43
f 41/41/41 43/43/43 30/30/30
f 41/41/41 36/36/36 44/44/44
f 36/36/36 42/42/42 44/44/44
f 44/44/44 43/43/43 41/41/41
f 43/43/43 45/45/45 40/40/40
f 40/40/40 45/45/45 16/16/16
f 43/43/43 44/44/44 45/45/45
f 44/44/44 42/42/42 46/46/46
f 42/42/42 38/38/38 46/46/46
f 46/46/46 47/47/47 44/44/44
f 44/44/44 47/47/47 45/45/45
f 45/45/45 48/48/48 16/16/16
f 16/16/16 48/48/48 11/11/11
f 45/45/45 49/49/49 48/48/48
f 47/47/47 49/49/49 45/45/45
f 49/49/49 11/11/11 48/48/48
f 46/46/46 50/50/50 47/47/47
f 50/50/50 49/49/49 47/47/47
f 46/46/46 38/38/38 50/50/50
f 49/49/49 51/51/51 11/11/11
f 50/50/50 51/51/51 49/49/49
f 38/38/38 51/51/51 50/50/50
f 11/11/11 51/51/51 52/52/52
f 52/52/52 51/51/51 53/53/53
f 51/51/51 38/38/38 54/54/54
f 53/53/53 51/51/51 54/54/54
f 54/54/54 38/38/38 39/39/39
f 53/53/53 54/54/54 39/39/39
