g pb_Mesh704238
v 0 -7.05925 25.5
v -1.749935 -7.05925 25.5
v 0 13.35002 25.5
v -1.749935 13.35002 25.5
v -1.749935 -7.05925 25.5
v -1.749935 -7.05925 3
v -1.749935 13.35002 25.5
v -1.749935 13.35002 3
v -1.749935 -7.05925 3
v 0 -7.05925 3
v -1.749935 13.35002 3
v 0 13.35002 3
v 0 -7.05925 3
v 0 -7.05925 25.5
v 0 13.35002 3
v 0 13.35002 25.5
v 0 13.35002 25.5
v -1.749935 13.35002 25.5
v 0 13.35002 3
v -1.749935 13.35002 3
v 0 -7.05925 3
v -1.749935 -7.05925 3
v 0 -7.05925 25.5
v -1.749935 -7.05925 25.5
vt 0 -7.05925
vt -1.749935 -7.05925
vt 0 13.35002
vt -1.749935 13.35002
vt 25.5 -7.05925
vt 3 -7.05925
vt 25.5 13.35002
vt 3 13.35002
vt 1.749935 -7.05925
vt 0 -7.05925
vt 1.749935 13.35002
vt 0 13.35002
vt -3 -7.05925
vt -25.5 -7.05925
vt -3 13.35002
vt -25.5 13.35002
vt 0 25.5
vt 1.749935 25.5
vt 0 3
vt 1.749935 3
vt 0 3
vt -1.749935 3
vt 0 25.5
vt -1.749935 25.5
vn 0 0 1
vn 0 0 1
vn 0 0 1
vn 0 0 1
vn -1 0 0
vn -1 0 0
vn -1 0 0
vn -1 0 0
vn 0 0 -1
vn 0 0 -1
vn 0 0 -1
vn 0 0 -1
vn 1 0 0
vn 1 0 0
vn 1 0 0
vn 1 0 0
vn 0 1 0
vn 0 1 0
vn 0 1 0
vn 0 1 0
vn 0 -1 0
vn 0 -1 0
vn 0 -1 0
vn 0 -1 0
g pb_Mesh704238_0
f 3/3/3 2/2/2 1/1/1
f 3/3/3 4/4/4 2/2/2
f 7/7/7 6/6/6 5/5/5
f 7/7/7 8/8/8 6/6/6
f 11/11/11 10/10/10 9/9/9
f 11/11/11 12/12/12 10/10/10
f 15/15/15 14/14/14 13/13/13
f 15/15/15 16/16/16 14/14/14
f 19/19/19 18/18/18 17/17/17
f 19/19/19 20/20/20 18/18/18
f 23/23/23 22/22/22 21/21/21
f 23/23/23 24/24/24 22/22/22
