g pb_Mesh704308
v -10 -20.25 39
v -33.55005 -20.25 39
v -10 0.5 39
v -33.55005 0.5 39
v -33.55005 -20.25 39
v -33.55005 -20.25 -5
v -33.55005 -9.875 -5
v -33.55005 0.5 -5
v -33.55005 0.5 39
v -33.55005 -20.25 -5
v -12.5 -20.25 -5
v -12.5 -9.875 -5
v -33.55005 -9.875 -5
v -12.5 -20.25 -18
v -10 -20.25 -18
v -10 -9.875 -18
v -12.5 -9.875 -18
v -10 -9.875 -18
v -10 0.5 -18
v -12.5 0.5 -18
v -12.5 -9.875 -18
v -12.5 0.5 -5
v -33.55005 0.5 -5
v -33.55005 -9.875 -5
v -12.5 -9.875 -5
v -10 -20.25 -5
v -10 -20.25 39
v -10 0.5 39
v -10 0.5 -5
v -10 -9.875 -5
v -10 0.5 39
v -33.55005 0.5 39
v -33.55005 0.5 -5
v -12.5 0.5 -5
v -10 0.5 -5
v -10 -20.25 -5
v -12.5 -20.25 -5
v -33.55005 -20.25 -5
v -33.55005 -20.25 39
v -10 -20.25 39
v -10 0.5 -18
v -10 0.5 -5
v -12.5 0.5 -5
v -10 0.5 -18
v -12.5 0.5 -18
v -16 0.5 -5
v -16 -9.875 -5
v -16 0.5 -18
v -16 -9.875 -18
v -16 -9.875 -5
v -16 -20.25 -5
v -16 -9.875 -18
v -16 -20.25 -18
v -10 -20.25 -18
v -10 -9.875 -18
v -12.5 -20.25 -5
v -10 -20.25 -5
v -12.5 -20.25 -18
v -10 -20.25 -18
v -12.5 0.5 -5
v -12.5 -9.875 -5
v -16 0.5 -5
v -16 -9.875 -5
v -12.5 0.5 -18
v -12.5 0.5 -5
v -16 0.5 -18
v -16 0.5 -5
v -12.5 -20.25 -5
v -12.5 -20.25 -18
v -16 -20.25 -5
v -16 -20.25 -18
v -12.5 -9.875 -18
v -12.5 0.5 -18
v -16 -9.875 -18
v -16 0.5 -18
v -12.5 -9.875 -5
v -12.5 -20.25 -5
v -16 -9.875 -5
v -16 -20.25 -5
v -12.5 -20.25 -18
v -12.5 -9.875 -18
v -16 -20.25 -18
v -16 -9.875 -18
vt -10 -20.25
vt -33.55005 -20.25
vt -10 0.5
vt -33.55005 0.5
vt 39 -20.25
vt -5 -20.25
vt -5 -9.875
vt -5 0.5
vt 39 0.5
vt 33.55005 -20.25
vt 12.5 -20.25
vt 12.5 -9.875
vt 33.55005 -9.875
vt 12.5 -20.25
vt 10 -20.25
vt 10 -9.875
vt 12.5 -9.875
vt 10 -9.875
vt 10 0.5
vt 12.5 0.5
vt 12.5 -9.875
vt 12.5 0.5
vt 33.55005 0.5
vt 33.55005 -9.875
vt 12.5 -9.875
vt 5 -20.25
vt -39 -20.25
vt -39 0.5
vt 5 0.5
vt 5 -9.875
vt 10 39
vt 33.55005 39
vt 33.55005 -5
vt 12.5 -5
vt 10 -5
vt -10 -5
vt -12.5 -5
vt -33.55005 -5
vt -33.55005 39
vt -10 39
vt 18 0.5
vt 10 -5
vt 12.5 -5
vt 10 -18
vt 12.5 -18
vt -5 0.5
vt -5 -9.875
vt -18 0.5
vt -18 -9.875
vt -5 -9.875
vt -5 -20.25
vt -18 -9.875
vt -18 -20.25
vt 18 -20.25
vt 18 -9.875
vt -12.5 -5
vt -10 -5
vt -12.5 -18
vt -10 -18
vt -12.5 0.5
vt -12.5 -9.875
vt -16 0.5
vt -16 -9.875
vt 12.5 -18
vt 12.5 -5
vt 16 -18
vt 16 -5
vt -12.5 -5
vt -12.5 -18
vt -16 -5
vt -16 -18
vt 12.5 -9.875
vt 12.5 0.5
vt 16 -9.875
vt 16 0.5
vt -12.5 -9.875
vt -12.5 -20.25
vt -16 -9.875
vt -16 -20.25
vt 12.5 -20.25
vt 12.5 -9.875
vt 16 -20.25
vt 16 -9.875
vn 0 0 1
vn 0 0 1
vn 0 0 1
vn 0 0 1
vn -1 0 0
vn -1 0 0
vn -1 0 0
vn -1 0 0
vn -1 0 0
vn 0 0 -1
vn 0 0 -1
vn 0 0 -1
vn 0 0 -1
vn 0 0 -1
vn 0 0 -1
vn 0 0 -1
vn 0 0 -1
vn 0 0 -1
vn 0 0 -1
vn 0 0 -1
vn 0 0 -1
vn 0 0 -1
vn 0 0 -1
vn 0 0 -1
vn 0 0 -1
vn 1 0 0
vn 1 0 0
vn 1 0 0
vn 1 0 0
vn 1 0 0
vn 0 1 0
vn 0 1 0
vn 0 1 0
vn 0 1 0
vn 0 1 0
vn 0 -1 0
vn 0 -1 0
vn 0 -1 0
vn 0 -1 0
vn 0 -1 0
vn 1 0 0
vn 0 1 0
vn 0 1 0
vn 0 1 0
vn 0 1 0
vn -1 0 0
vn -1 0 0
vn -1 0 0
vn -1 0 0
vn -1 0 0
vn -1 0 0
vn -1 0 0
vn -1 0 0
vn 1 0 0
vn 1 0 0
vn 0 -1 0
vn 0 -1 0
vn 0 -1 0
vn 0 -1 0
vn 0 0 1
vn 0 0 1
vn 0 0 1
vn 0 0 1
vn 0 1 0
vn 0 1 0
vn 0 1 0
vn 0 1 0
vn 0 -1 0
vn 0 -1 0
vn 0 -1 0
vn 0 -1 0
vn 0 0 -1
vn 0 0 -1
vn 0 0 -1
vn 0 0 -1
vn 0 0 1
vn 0 0 1
vn 0 0 1
vn 0 0 1
vn 0 0 -1
vn 0 0 -1
vn 0 0 -1
vn 0 0 -1
g pb_Mesh704308_0
f 3/3/3 2/2/2 1/1/1
f 3/3/3 4/4/4 2/2/2
f 7/7/7 6/6/6 5/5/5
f 9/9/9 7/7/7 5/5/5
f 9/9/9 8/8/8 7/7/7
f 12/12/12 11/11/11 13/13/13
f 11/11/11 10/10/10 13/13/13
f 16/16/16 15/15/15 17/17/17
f 15/15/15 14/14/14 17/17/17
f 19/19/19 18/18/18 20/20/20
f 18/18/18 21/21/21 20/20/20
f 22/22/22 25/25/25 23/23/23
f 25/25/25 24/24/24 23/23/23
f 31/31/31 35/35/35 34/34/34
f 34/34/34 33/33/33 32/32/32
f 31/31/31 34/34/34 32/32/32
f 39/39/39 37/37/37 40/40/40
f 39/39/39 38/38/38 37/37/37
f 37/37/37 36/36/36 40/40/40
f 44/44/44 43/43/43 42/42/42
f 44/44/44 45/45/45 43/43/43
f 48/48/48 47/47/47 46/46/46
f 48/48/48 49/49/49 47/47/47
f 52/52/52 51/51/51 50/50/50
f 52/52/52 53/53/53 51/51/51
f 58/58/58 57/57/57 56/56/56
f 58/58/58 59/59/59 57/57/57
f 62/62/62 61/61/61 60/60/60
f 62/62/62 63/63/63 61/61/61
f 66/66/66 65/65/65 64/64/64
f 66/66/66 67/67/67 65/65/65
f 70/70/70 69/69/69 68/68/68
f 70/70/70 71/71/71 69/69/69
f 74/74/74 73/73/73 72/72/72
f 74/74/74 75/75/75 73/73/73
f 78/78/78 77/77/77 76/76/76
f 78/78/78 79/79/79 77/77/77
f 82/82/82 81/81/81 80/80/80
f 82/82/82 83/83/83 81/81/81
f 30/30/30 29/29/29 28/28/28
f 27/27/27 30/30/30 28/28/28
f 27/27/27 26/26/26 30/30/30
f 54/54/54 30/30/30 26/26/26
f 54/54/54 55/55/55 30/30/30
f 55/55/55 29/29/29 30/30/30
f 55/55/55 41/41/41 29/29/29
