g pb_Mesh704952
v -30 -20 46.59
v -30 -20 -9.91
v -30 0.73423 46.59
v -30 0.73423 -9.91
v -29.5 -9.632885 46.59
v -29.5 -14.81644 46.59
v -29.5 -20 46.59
v -30 -20 46.59
v -30 0.73423 46.59
v -29.5 0.73423 46.59
v -29.5 -4.449327 46.59
v -29.5 -9.632885 -9.91
v -29.5 -4.449327 -9.91
v -29.5 0.73423 -9.91
v -30 0.73423 -9.91
v -30 -20 -9.91
v -29.5 -20 -9.91
v -29.5 -14.81644 -9.91
v -5.5 -20 46.59
v -5.5 -14.81644 46.59
v -5.5 -14.81644 32.465
v -5.5 -20 32.465
v -5.5 -14.81644 46.59
v -5.5 -9.632885 46.59
v -5.5 -9.632885 32.465
v -5.5 -14.81644 32.465
v -5.5 -9.632885 32.465
v -5.5 -9.632885 19.25
v -5.5 -14.81644 19.25
v -5.5 -14.81644 32.465
v -5.5 -14.81644 19.25
v -5.5 -20 19.25
v -5.5 -20 32.465
v -5.5 -14.81644 32.465
v -5.5 -9.632885 46.59
v -5.5 -4.449327 46.59
v -5.5 -4.449327 32.465
v -5.5 -9.632885 32.465
v -5.5 -4.449327 46.59
v -5.5 0.73423 46.59
v -5.5 0.73423 32.465
v -5.5 -4.449327 32.465
v -5.5 0.73423 32.465
v -5.5 0.73423 19.25
v -5.5 -4.449327 19.25
v -5.5 -4.449327 32.465
v -5.5 -4.449327 19.25
v -5.5 -9.632885 19.25
v -5.5 -9.632885 32.465
v -5.5 -4.449327 32.465
v -30 0.73423 -9.91
v -29.5 0.73423 -9.91
v -29.5 0.73423 5.25
v -29.5 0.73423 19.25
v -29.5 0.73423 32.465
v -29.5 0.73423 46.59
v -30 0.73423 46.59
v -30 -20 46.59
v -29.5 -20 46.59
v -29.5 -20 32.465
v -29.5 -20 19.25
v -29.5 -20 5.25
v -29.5 -20 -9.91
v -30 -20 -9.91
v -29.5 -14.81644 -9.91
v -29.5 -20 -9.91
v -5.5 -14.81644 -9.91
v -5.5 -20 -9.91
v -29.5 -9.632885 -9.91
v -29.5 -14.81644 -9.91
v -5.5 -9.632885 -9.91
v -5.5 -14.81644 -9.91
v -29.5 -4.449327 -9.91
v -29.5 -9.632885 -9.91
v -5.5 -4.449327 -9.91
v -5.5 -9.632885 -9.91
v -29.5 0.73423 -9.91
v -29.5 -4.449327 -9.91
v -5.5 0.73423 -9.91
v -5.5 -4.449327 -9.91
v -29.5 -9.632885 46.59
v -29.5 -4.449327 46.59
v -5.5 -9.632885 46.59
v -5.5 -4.449327 46.59
v -29.5 -14.81644 19.25
v -29.5 -20 19.25
v -5.5 -14.81644 19.25
v -5.5 -20 19.25
v -29.5 -20 19.25
v -29.5 -20 32.465
v -5.5 -20 19.25
v -5.5 -20 32.465
v -29.5 -20 32.465
v -29.5 -20 46.59
v -5.5 -20 32.465
v -5.5 -20 46.59
v -29.5 -9.632885 19.25
v -29.5 -14.81644 19.25
v -5.5 -9.632885 19.25
v -5.5 -14.81644 19.25
v -29.5 -14.81644 46.59
v -29.5 -9.632885 46.59
v -5.5 -14.81644 46.59
v -5.5 -9.632885 46.59
v -29.5 -4.449327 46.59
v -29.5 0.73423 46.59
v -5.5 -4.449327 46.59
v -5.5 0.73423 46.59
v -29.5 -20 46.59
v -29.5 -14.81644 46.59
v -5.5 -20 46.59
v -5.5 -14.81644 46.59
v -29.5 0.73423 32.465
v -29.5 0.73423 19.25
v -5.5 0.73423 32.465
v -5.5 0.73423 19.25
v -29.5 0.73423 46.59
v -29.5 0.73423 32.465
v -5.5 0.73423 46.59
v -5.5 0.73423 32.465
v -29.5 0.73423 19.25
v -29.5 -4.449327 19.25
v -5.5 0.73423 19.25
v -5.5 -4.449327 19.25
v -29.5 -4.449327 19.25
v -29.5 -9.632885 19.25
v -5.5 -4.449327 19.25
v -5.5 -9.632885 19.25
v -29.5 -20 19.25
v -29.5 -14.81644 19.25
v -29.5 -14.81644 5.25
v -29.5 -17.40822 5.25
v -29.5 -20 5.25
v -29.5 -14.81644 19.25
v -29.5 -9.632885 19.25
v -29.5 -9.632885 5.25
v -29.5 -12.22466 5.25
v -29.5 -14.81644 5.25
v -5.5 -14.81644 5.25
v -5.5 -12.22466 5.25
v -5.5 -9.632885 5.25
v -5.5 -9.632885 -9.91
v -5.5 -14.81644 -9.91
v -5.5 -20 5.25
v -5.5 -17.40822 5.25
v -5.5 -14.81644 5.25
v -5.5 -14.81644 -9.91
v -5.5 -20 -9.91
v -29.5 -9.632885 19.25
v -29.5 -4.449327 19.25
v -29.5 -4.449327 5.25
v -29.5 -7.041106 5.25
v -29.5 -9.632885 5.25
v -29.5 -4.449327 19.25
v -29.5 0.73423 19.25
v -29.5 0.73423 5.25
v -29.5 -1.857549 5.25
v -29.5 -4.449327 5.25
v -5.5 -4.449327 5.25
v -5.5 -1.857549 5.25
v -5.5 0.73423 5.25
v -5.5 0.73423 -9.91
v -5.5 -4.449327 -9.91
v -5.5 -9.632885 5.25
v -5.5 -7.041106 5.25
v -5.5 -4.449327 5.25
v -5.5 -4.449327 -9.91
v -5.5 -9.632885 -9.91
v -29.5 -20 5.25
v -29.5 -17.40822 5.25
v -15.5 -17.40822 5.25
v -15.5 -20 5.25
v -29.5 -17.40822 5.25
v -29.5 -14.81644 5.25
v -15.5 -14.81644 5.25
v -15.5 -17.40822 5.25
v -15.5 -14.81644 19.25
v -5.5 -14.81644 19.25
v -5.5 -17.40822 19.25
v -15.5 -17.40822 19.25
v -5.5 -17.40822 19.25
v -5.5 -20 19.25
v -15.5 -20 19.25
v -15.5 -17.40822 19.25
v -29.5 -9.632885 5.25
v -29.5 -7.041106 5.25
v -15.5 -7.041106 5.25
v -15.5 -9.632885 5.25
v -29.5 -7.041106 5.25
v -29.5 -4.449327 5.25
v -15.5 -4.449327 5.25
v -15.5 -7.041106 5.25
v -15.5 -4.449327 19.25
v -5.5 -4.449327 19.25
v -5.5 -7.041106 19.25
v -15.5 -7.041106 19.25
v -5.5 -7.041106 19.25
v -5.5 -9.632885 19.25
v -15.5 -9.632885 19.25
v -15.5 -7.041106 19.25
v -29.5 -20 -9.91
v -29.5 -20 5.25
v -15.5 -20 5.25
v -5.5 -20 5.25
v -5.5 -20 -9.91
v -29.5 -14.81644 5.25
v -29.5 -12.22466 5.25
v -15.5 -12.22466 5.25
v -15.5 -14.81644 5.25
v -29.5 -12.22466 5.25
v -29.5 -9.632885 5.25
v -15.5 -9.632885 5.25
v -15.5 -12.22466 5.25
v -15.5 -9.632885 19.25
v -5.5 -9.632885 19.25
v -5.5 -12.22466 19.25
v -15.5 -12.22466 19.25
v -5.5 -12.22466 19.25
v -5.5 -14.81644 19.25
v -15.5 -14.81644 19.25
v -15.5 -12.22466 19.25
v -29.5 -4.449327 5.25
v -29.5 -1.857549 5.25
v -15.5 -1.857549 5.25
v -15.5 -4.449327 5.25
v -29.5 -1.857549 5.25
v -29.5 0.73423 5.25
v -15.5 0.73423 5.25
v -15.5 -1.857549 5.25
v -15.5 0.73423 19.25
v -5.5 0.73423 19.25
v -5.5 -1.857549 19.25
v -15.5 -1.857549 19.25
v -5.5 -1.857549 19.25
v -5.5 -4.449327 19.25
v -15.5 -4.449327 19.25
v -15.5 -1.857549 19.25
v -29.5 0.73423 5.25
v -29.5 0.73423 -9.91
v -5.5 0.73423 -9.91
v -5.5 0.73423 5.25
v -15.5 0.73423 5.25
v -5.5 -20 5.25
v -15.5 -20 5.25
v -5.5 -20 19.25
v -15.5 -20 19.25
v -15.5 -20 5.25
v -15.5 -17.40822 5.25
v -15.5 -20 19.25
v -15.5 -17.40822 19.25
v -5.5 -17.40822 5.25
v -5.5 -20 5.25
v -5.5 -17.40822 19.25
v -5.5 -20 19.25
v -15.5 -17.40822 5.25
v -15.5 -14.81644 5.25
v -15.5 -17.40822 19.25
v -15.5 -14.81644 19.25
v -5.5 -14.81644 5.25
v -5.5 -17.40822 5.25
v -5.5 -14.81644 19.25
v -5.5 -17.40822 19.25
v -15.5 -14.81644 5.25
v -15.5 -12.22466 5.25
v -15.5 -14.81644 19.25
v -15.5 -12.22466 19.25
v -5.5 -12.22466 5.25
v -5.5 -14.81644 5.25
v -5.5 -12.22466 19.25
v -5.5 -14.81644 19.25
v -15.5 -12.22466 5.25
v -15.5 -9.632885 5.25
v -15.5 -12.22466 19.25
v -15.5 -9.632885 19.25
v -5.5 -9.632885 5.25
v -5.5 -12.22466 5.25
v -5.5 -9.632885 19.25
v -5.5 -12.22466 19.25
v -15.5 -9.632885 5.25
v -15.5 -7.041106 5.25
v -15.5 -9.632885 19.25
v -15.5 -7.041106 19.25
v -5.5 -7.041106 5.25
v -5.5 -9.632885 5.25
v -5.5 -7.041106 19.25
v -5.5 -9.632885 19.25
v -15.5 -7.041106 5.25
v -15.5 -4.449327 5.25
v -15.5 -7.041106 19.25
v -15.5 -4.449327 19.25
v -5.5 -4.449327 5.25
v -5.5 -7.041106 5.25
v -5.5 -4.449327 19.25
v -5.5 -7.041106 19.25
v -15.5 -4.449327 5.25
v -15.5 -1.857549 5.25
v -15.5 -4.449327 19.25
v -15.5 -1.857549 19.25
v -5.5 -1.857549 5.25
v -5.5 -4.449327 5.25
v -5.5 -1.857549 19.25
v -5.5 -4.449327 19.25
v -15.5 -1.857549 5.25
v -15.5 0.73423 5.25
v -15.5 -1.857549 19.25
v -15.5 0.73423 19.25
v -5.5 0.73423 5.25
v -5.5 -1.857549 5.25
v -5.5 0.73423 19.25
v -5.5 -1.857549 19.25
v -15.5 0.73423 5.25
v -5.5 0.73423 5.25
v -15.5 0.73423 19.25
v -5.5 0.73423 19.25
vt 46.59 -20
vt -9.91 -20
vt 46.59 0.73423
vt -9.91 0.73423
vt -29.5 -9.632885
vt -29.5 -14.81644
vt -29.5 -20
vt -30 -20
vt -30 0.73423
vt -29.5 0.73423
vt -29.5 -4.449327
vt 29.5 -9.632885
vt 29.5 -4.449327
vt 29.5 0.73423
vt 30 0.73423
vt 30 -20
vt 29.5 -20
vt 29.5 -14.81644
vt -46.59 -20
vt -46.59 -14.81644
vt -32.465 -14.81644
vt -32.465 -20
vt -46.59 -14.81644
vt -46.59 -9.632885
vt -32.465 -9.632885
vt -32.465 -14.81644
vt -32.465 -9.632885
vt -19.25 -9.632885
vt -19.25 -14.81644
vt -32.465 -14.81644
vt -19.25 -14.81644
vt -19.25 -20
vt -32.465 -20
vt -32.465 -14.81644
vt -46.59 -9.632885
vt -46.59 -4.449327
vt -32.465 -4.449327
vt -32.465 -9.632885
vt -46.59 -4.449327
vt -46.59 0.73423
vt -32.465 0.73423
vt -32.465 -4.449327
vt -32.465 0.73423
vt -19.25 0.73423
vt -19.25 -4.449327
vt -32.465 -4.449327
vt -19.25 -4.449327
vt -19.25 -9.632885
vt -32.465 -9.632885
vt -32.465 -4.449327
vt 30 -9.91
vt 29.5 -9.91
vt 29.5 5.25
vt 29.5 19.25
vt 29.5 32.465
vt 29.5 46.59
vt 30 46.59
vt -30 46.59
vt -29.5 46.59
vt -29.5 32.465
vt -29.5 19.25
vt -29.5 5.25
vt -29.5 -9.91
vt -30 -9.91
vt 29.5 -14.81644
vt 29.5 -20
vt 5.5 -14.81644
vt 5.5 -20
vt 29.5 -9.632885
vt 29.5 -14.81644
vt 5.5 -9.632885
vt 5.5 -14.81644
vt 29.5 -4.449327
vt 29.5 -9.632885
vt 5.5 -4.449327
vt 5.5 -9.632885
vt 29.5 0.73423
vt 29.5 -4.449327
vt 5.5 0.73423
vt 5.5 -4.449327
vt -29.5 -9.632885
vt -29.5 -4.449327
vt -5.5 -9.632885
vt -5.5 -4.449327
vt 29.5 -14.81644
vt 29.5 -20
vt 5.5 -14.81644
vt 5.5 -20
vt -29.5 19.25
vt -29.5 32.465
vt -5.5 19.25
vt -5.5 32.465
vt -29.5 32.465
vt -29.5 46.59
vt -5.5 32.465
vt -5.5 46.59
vt 29.5 -9.632885
vt 29.5 -14.81644
vt 5.5 -9.632885
vt 5.5 -14.81644
vt -29.5 -14.81644
vt -29.5 -9.632885
vt -5.5 -14.81644
vt -5.5 -9.632885
vt -29.5 -4.449327
vt -29.5 0.73423
vt -5.5 -4.449327
vt -5.5 0.73423
vt -29.5 -20
vt -29.5 -14.81644
vt -5.5 -20
vt -5.5 -14.81644
vt 29.5 32.465
vt 29.5 19.25
vt 5.5 32.465
vt 5.5 19.25
vt 29.5 46.59
vt 29.5 32.465
vt 5.5 46.59
vt 5.5 32.465
vt 29.5 0.73423
vt 29.5 -4.449327
vt 5.5 0.73423
vt 5.5 -4.449327
vt 29.5 -4.449327
vt 29.5 -9.632885
vt 5.5 -4.449327
vt 5.5 -9.632885
vt -19.25 -20
vt -19.25 -14.81644
vt -5.25 -14.81644
vt -5.25 -17.40822
vt -5.25 -20
vt -19.25 -14.81644
vt -19.25 -9.632885
vt -5.25 -9.632885
vt -5.25 -12.22466
vt -5.25 -14.81644
vt -5.25 -14.81644
vt -5.25 -12.22466
vt -5.25 -9.632885
vt 9.91 -9.632885
vt 9.91 -14.81644
vt -5.25 -20
vt -5.25 -17.40822
vt -5.25 -14.81644
vt 9.91 -14.81644
vt 9.91 -20
vt -19.25 -9.632885
vt -19.25 -4.449327
vt -5.25 -4.449327
vt -5.25 -7.041106
vt -5.25 -9.632885
vt -19.25 -4.449327
vt -19.25 0.73423
vt -5.25 0.73423
vt -5.25 -1.857549
vt -5.25 -4.449327
vt -5.25 -4.449327
vt -5.25 -1.857549
vt -5.25 0.73423
vt 9.91 0.73423
vt 9.91 -4.449327
vt -5.25 -9.632885
vt -5.25 -7.041106
vt -5.25 -4.449327
vt 9.91 -4.449327
vt 9.91 -9.632885
vt -29.5 -20
vt -29.5 -17.40822
vt -15.5 -17.40822
vt -15.5 -20
vt -29.5 -17.40822
vt -29.5 -14.81644
vt -15.5 -14.81644
vt -15.5 -17.40822
vt -15.5 -14.81644
vt -5.5 -14.81644
vt -5.5 -17.40822
vt -15.5 -17.40822
vt -5.5 -17.40822
vt -5.5 -20
vt -15.5 -20
vt -15.5 -17.40822
vt -29.5 -9.632885
vt -29.5 -7.041106
vt -15.5 -7.041106
vt -15.5 -9.632885
vt -29.5 -7.041106
vt -29.5 -4.449327
vt -15.5 -4.449327
vt -15.5 -7.041106
vt -15.5 -4.449327
vt -5.5 -4.449327
vt -5.5 -7.041106
vt -15.5 -7.041106
vt -5.5 -7.041106
vt -5.5 -9.632885
vt -15.5 -9.632885
vt -15.5 -7.041106
vt -29.5 -9.91
vt -29.5 5.25
vt -15.5 5.25
vt -5.5 5.25
vt -5.5 -9.91
vt -29.5 -14.81644
vt -29.5 -12.22466
vt -15.5 -12.22466
vt -15.5 -14.81644
vt -29.5 -12.22466
vt -29.5 -9.632885
vt -15.5 -9.632885
vt -15.5 -12.22466
vt -15.5 -9.632885
vt -5.5 -9.632885
vt -5.5 -12.22466
vt -15.5 -12.22466
vt -5.5 -12.22466
vt -5.5 -14.81644
vt -15.5 -14.81644
vt -15.5 -12.22466
vt -29.5 -4.449327
vt -29.5 -1.857549
vt -15.5 -1.857549
vt -15.5 -4.449327
vt -29.5 -1.857549
vt -29.5 0.73423
vt -15.5 0.73423
vt -15.5 -1.857549
vt -15.5 0.73423
vt -5.5 0.73423
vt -5.5 -1.857549
vt -15.5 -1.857549
vt -5.5 -1.857549
vt -5.5 -4.449327
vt -15.5 -4.449327
vt -15.5 -1.857549
vt 29.5 5.25
vt 29.5 -9.91
vt 5.5 -9.91
vt 5.5 5.25
vt 15.5 5.25
vt -5.5 5.25
vt -15.5 5.25
vt -5.5 19.25
vt -15.5 19.25
vt 5.25 -20
vt 5.25 -17.40822
vt 19.25 -20
vt 19.25 -17.40822
vt -5.25 -17.40822
vt -5.25 -20
vt -19.25 -17.40822
vt -19.25 -20
vt 5.25 -17.40822
vt 5.25 -14.81644
vt 19.25 -17.40822
vt 19.25 -14.81644
vt -5.25 -14.81644
vt -5.25 -17.40822
vt -19.25 -14.81644
vt -19.25 -17.40822
vt 5.25 -14.81644
vt 5.25 -12.22466
vt 19.25 -14.81644
vt 19.25 -12.22466
vt -5.25 -12.22466
vt -5.25 -14.81644
vt -19.25 -12.22466
vt -19.25 -14.81644
vt 5.25 -12.22466
vt 5.25 -9.632885
vt 19.25 -12.22466
vt 19.25 -9.632885
vt -5.25 -9.632885
vt -5.25 -12.22466
vt -19.25 -9.632885
vt -19.25 -12.22466
vt 5.25 -9.632885
vt 5.25 -7.041106
vt 19.25 -9.632885
vt 19.25 -7.041106
vt -5.25 -7.041106
vt -5.25 -9.632885
vt -19.25 -7.041106
vt -19.25 -9.632885
vt 5.25 -7.041106
vt 5.25 -4.449327
vt 19.25 -7.041106
vt 19.25 -4.449327
vt -5.25 -4.449327
vt -5.25 -7.041106
vt -19.25 -4.449327
vt -19.25 -7.041106
vt 5.25 -4.449327
vt 5.25 -1.857549
vt 19.25 -4.449327
vt 19.25 -1.857549
vt -5.25 -1.857549
vt -5.25 -4.449327
vt -19.25 -1.857549
vt -19.25 -4.449327
vt 5.25 -1.857549
vt 5.25 0.73423
vt 19.25 -1.857549
vt 19.25 0.73423
vt -5.25 0.73423
vt -5.25 -1.857549
vt -19.25 0.73423
vt -19.25 -1.857549
vt 15.5 5.25
vt 5.5 5.25
vt 15.5 19.25
vt 5.5 19.25
vn -1 0 0
vn -1 0 0
vn -1 0 0
vn -1 0 0
vn 0 0 1
vn 0 0 1
vn 0 0 1
vn 0 0 1
vn 0 0 1
vn 0 0 1
vn 0 0 1
vn 0 0 -1
vn 0 0 -1
vn 0 0 -1
vn 0 0 -1
vn 0 0 -1
vn 0 0 -1
vn 0 0 -1
vn 1 0 0
vn 1 0 0
vn 1 0 0
vn 1 0 0
vn 1 0 0
vn 1 0 0
vn 1 0 0
vn 1 0 0
vn 1 0 0
vn 1 0 0
vn 1 0 0
vn 1 0 0
vn 1 0 0
vn 1 0 0
vn 1 0 0
vn 1 0 0
vn 1 0 0
vn 1 0 0
vn 1 0 0
vn 1 0 0
vn 1 0 0
vn 1 0 0
vn 1 0 0
vn 1 0 0
vn 1 0 0
vn 1 0 0
vn 1 0 0
vn 1 0 0
vn 1 0 0
vn 1 0 0
vn 1 0 0
vn 1 0 0
vn 0 1 0
vn 0 1 0
vn 0 1 0
vn 0 1 0
vn 0 1 0
vn 0 1 0
vn 0 1 0
vn 0 -1 0
vn 0 -1 0
vn 0 -1 0
vn 0 -1 0
vn 0 -1 0
vn 0 -1 0
vn 0 -1 0
vn 0 0 -1
vn 0 0 -1
vn 0 0 -1
vn 0 0 -1
vn 0 0 -1
vn 0 0 -1
vn 0 0 -1
vn 0 0 -1
vn 0 0 -1
vn 0 0 -1
vn 0 0 -1
vn 0 0 -1
vn 0 0 -1
vn 0 0 -1
vn 0 0 -1
vn 0 0 -1
vn 0 0 1
vn 0 0 1
vn 0 0 1
vn 0 0 1
vn 0 0 -1
vn 0 0 -1
vn 0 0 -1
vn 0 0 -1
vn 0 -1 0
vn 0 -1 0
vn 0 -1 0
vn 0 -1 0
vn 0 -1 0
vn 0 -1 0
vn 0 -1 0
vn 0 -1 0
vn 0 0 -1
vn 0 0 -1
vn 0 0 -1
vn 0 0 -1
vn 0 0 1
vn 0 0 1
vn 0 0 1
vn 0 0 1
vn 0 0 1
vn 0 0 1
vn 0 0 1
vn 0 0 1
vn 0 0 1
vn 0 0 1
vn 0 0 1
vn 0 0 1
vn 0 1 0
vn 0 1 0
vn 0 1 0
vn 0 1 0
vn 0 1 0
vn 0 1 0
vn 0 1 0
vn 0 1 0
vn 0 0 -1
vn 0 0 -1
vn 0 0 -1
vn 0 0 -1
vn 0 0 -1
vn 0 0 -1
vn 0 0 -1
vn 0 0 -1
vn 1 0 0
vn 1 0 0
vn 1 0 0
vn 1 0 0
vn 1 0 0
vn 1 0 0
vn 1 0 0
vn 1 0 0
vn 1 0 0
vn 1 0 0
vn 1 0 0
vn 1 0 0
vn 1 0 0
vn 1 0 0
vn 1 0 0
vn 1 0 0
vn 1 0 0
vn 1 0 0
vn 1 0 0
vn 1 0 0
vn 1 0 0
vn 1 0 0
vn 1 0 0
vn 1 0 0
vn 1 0 0
vn 1 0 0
vn 1 0 0
vn 1 0 0
vn 1 0 0
vn 1 0 0
vn 1 0 0
vn 1 0 0
vn 1 0 0
vn 1 0 0
vn 1 0 0
vn 1 0 0
vn 1 0 0
vn 1 0 0
vn 1 0 0
vn 1 0 0
vn 0 0 1
vn 0 0 1
vn 0 0 1
vn 0 0 1
vn 0 0 1
vn 0 0 1
vn 0 0 1
vn 0 0 1
vn 0 0 1
vn 0 0 1
vn 0 0 1
vn 0 0 1
vn 0 0 1
vn 0 0 1
vn 0 0 1
vn 0 0 1
vn 0 0 1
vn 0 0 1
vn 0 0 1
vn 0 0 1
vn 0 0 1
vn 0 0 1
vn 0 0 1
vn 0 0 1
vn 0 0 1
vn 0 0 1
vn 0 0 1
vn 0 0 1
vn 0 0 1
vn 0 0 1
vn 0 0 1
vn 0 0 1
vn 0 -1 0
vn 0 -1 0
vn 0 -1 0
vn 0 -1 0
vn 0 -1 0
vn 0 0 1
vn 0 0 1
vn 0 0 1
vn 0 0 1
vn 0 0 1
vn 0 0 1
vn 0 0 1
vn 0 0 1
vn 0 0 1
vn 0 0 1
vn 0 0 1
vn 0 0 1
vn 0 0 1
vn 0 0 1
vn 0 0 1
vn 0 0 1
vn 0 0 1
vn 0 0 1
vn 0 0 1
vn 0 0 1
vn 0 0 1
vn 0 0 1
vn 0 0 1
vn 0 0 1
vn 0 0 1
vn 0 0 1
vn 0 0 1
vn 0 0 1
vn 0 0 1
vn 0 0 1
vn 0 0 1
vn 0 0 1
vn 0 1 0
vn 0 1 0
vn 0 1 0
vn 0 1 0
vn 0 1 0
vn 0 -1 0
vn 0 -1 0
vn 0 -1 0
vn 0 -1 0
vn -1 0 0
vn -1 0 0
vn -1 0 0
vn -1 0 0
vn 1 0 0
vn 1 0 0
vn 1 0 0
vn 1 0 0
vn -1 0 0
vn -1 0 0
vn -1 0 0
vn -1 0 0
vn 1 0 0
vn 1 0 0
vn 1 0 0
vn 1 0 0
vn -1 0 0
vn -1 0 0
vn -1 0 0
vn -1 0 0
vn 1 0 0
vn 1 0 0
vn 1 0 0
vn 1 0 0
vn -1 0 0
vn -1 0 0
vn -1 0 0
vn -1 0 0
vn 1 0 0
vn 1 0 0
vn 1 0 0
vn 1 0 0
vn -1 0 0
vn -1 0 0
vn -1 0 0
vn -1 0 0
vn 1 0 0
vn 1 0 0
vn 1 0 0
vn 1 0 0
vn -1 0 0
vn -1 0 0
vn -1 0 0
vn -1 0 0
vn 1 0 0
vn 1 0 0
vn 1 0 0
vn 1 0 0
vn -1 0 0
vn -1 0 0
vn -1 0 0
vn -1 0 0
vn 1 0 0
vn 1 0 0
vn 1 0 0
vn 1 0 0
vn -1 0 0
vn -1 0 0
vn -1 0 0
vn -1 0 0
vn 1 0 0
vn 1 0 0
vn 1 0 0
vn 1 0 0
vn 0 1 0
vn 0 1 0
vn 0 1 0
vn 0 1 0
g pb_Mesh704952_0
f 3/3/3 2/2/2 1/1/1
f 3/3/3 4/4/4 2/2/2
f 8/8/8 7/7/7 6/6/6
f 8/8/8 6/6/6 5/5/5
f 9/9/9 8/8/8 5/5/5
f 11/11/11 9/9/9 5/5/5
f 9/9/9 11/11/11 10/10/10
f 14/14/14 13/13/13 15/15/15
f 12/12/12 15/15/15 13/13/13
f 12/12/12 16/16/16 15/15/15
f 12/12/12 18/18/18 16/16/16
f 18/18/18 17/17/17 16/16/16
f 20/20/20 19/19/19 21/21/21
f 19/19/19 22/22/22 21/21/21
f 24/24/24 23/23/23 25/25/25
f 23/23/23 26/26/26 25/25/25
f 29/29/29 28/28/28 27/27/27
f 30/30/30 29/29/29 27/27/27
f 32/32/32 31/31/31 34/34/34
f 33/33/33 32/32/32 34/34/34
f 36/36/36 35/35/35 37/37/37
f 35/35/35 38/38/38 37/37/37
f 40/40/40 39/39/39 41/41/41
f 39/39/39 42/42/42 41/41/41
f 45/45/45 44/44/44 43/43/43
f 46/46/46 45/45/45 43/43/43
f 48/48/48 47/47/47 50/50/50
f 49/49/49 48/48/48 50/50/50
f 53/53/53 52/52/52 51/51/51
f 54/54/54 53/53/53 51/51/51
f 51/51/51 57/57/57 54/54/54
f 57/57/57 55/55/55 54/54/54
f 57/57/57 56/56/56 55/55/55
f 60/60/60 59/59/59 58/58/58
f 61/61/61 60/60/60 58/58/58
f 61/61/61 58/58/58 64/64/64
f 64/64/64 62/62/62 61/61/61
f 64/64/64 63/63/63 62/62/62
f 67/67/67 66/66/66 65/65/65
f 67/67/67 68/68/68 66/66/66
f 71/71/71 70/70/70 69/69/69
f 71/71/71 72/72/72 70/70/70
f 75/75/75 74/74/74 73/73/73
f 75/75/75 76/76/76 74/74/74
f 79/79/79 78/78/78 77/77/77
f 79/79/79 80/80/80 78/78/78
f 83/83/83 82/82/82 81/81/81
f 83/83/83 84/84/84 82/82/82
f 87/87/87 86/86/86 85/85/85
f 87/87/87 88/88/88 86/86/86
f 91/91/91 90/90/90 89/89/89
f 91/91/91 92/92/92 90/90/90
f 95/95/95 94/94/94 93/93/93
f 95/95/95 96/96/96 94/94/94
f 99/99/99 98/98/98 97/97/97
f 99/99/99 100/100/100 98/98/98
f 103/103/103 102/102/102 101/101/101
f 103/103/103 104/104/104 102/102/102
f 107/107/107 106/106/106 105/105/105
f 107/107/107 108/108/108 106/106/106
f 111/111/111 110/110/110 109/109/109
f 111/111/111 112/112/112 110/110/110
f 115/115/115 114/114/114 113/113/113
f 115/115/115 116/116/116 114/114/114
f 119/119/119 118/118/118 117/117/117
f 119/119/119 120/120/120 118/118/118
f 123/123/123 122/122/122 121/121/121
f 123/123/123 124/124/124 122/122/122
f 127/127/127 126/126/126 125/125/125
f 127/127/127 128/128/128 126/126/126
f 132/132/132 131/131/131 130/130/130
f 129/129/129 132/132/132 130/130/130
f 129/129/129 133/133/133 132/132/132
f 137/137/137 136/136/136 135/135/135
f 134/134/134 137/137/137 135/135/135
f 134/134/134 138/138/138 137/137/137
f 141/141/141 140/140/140 142/142/142
f 140/140/140 143/143/143 142/142/142
f 140/140/140 139/139/139 143/143/143
f 146/146/146 145/145/145 147/147/147
f 145/145/145 148/148/148 147/147/147
f 145/145/145 144/144/144 148/148/148
f 152/152/152 151/151/151 150/150/150
f 149/149/149 152/152/152 150/150/150
f 149/149/149 153/153/153 152/152/152
f 157/157/157 156/156/156 155/155/155
f 154/154/154 157/157/157 155/155/155
f 154/154/154 158/158/158 157/157/157
f 161/161/161 160/160/160 162/162/162
f 160/160/160 163/163/163 162/162/162
f 160/160/160 159/159/159 163/163/163
f 166/166/166 165/165/165 167/167/167
f 165/165/165 168/168/168 167/167/167
f 165/165/165 164/164/164 168/168/168
f 170/170/170 169/169/169 172/172/172
f 170/170/170 172/172/172 171/171/171
f 174/174/174 173/173/173 176/176/176
f 174/174/174 176/176/176 175/175/175
f 177/177/177 180/180/180 179/179/179
f 177/177/177 179/179/179 178/178/178
f 184/184/184 183/183/183 182/182/182
f 184/184/184 182/182/182 181/181/181
f 186/186/186 185/185/185 188/188/188
f 186/186/186 188/188/188 187/187/187
f 190/190/190 189/189/189 192/192/192
f 190/190/190 192/192/192 191/191/191
f 193/193/193 196/196/196 195/195/195
f 193/193/193 195/195/195 194/194/194
f 200/200/200 199/199/199 198/198/198
f 200/200/200 198/198/198 197/197/197
f 205/205/205 204/204/204 203/203/203
f 205/205/205 203/203/203 201/201/201
f 202/202/202 201/201/201 203/203/203
f 207/207/207 206/206/206 209/209/209
f 207/207/207 209/209/209 208/208/208
f 211/211/211 210/210/210 213/213/213
f 211/211/211 213/213/213 212/212/212
f 214/214/214 217/217/217 216/216/216
f 214/214/214 216/216/216 215/215/215
f 221/221/221 220/220/220 219/219/219
f 221/221/221 219/219/219 218/218/218
f 223/223/223 222/222/222 225/225/225
f 223/223/223 225/225/225 224/224/224
f 227/227/227 226/226/226 229/229/229
f 227/227/227 229/229/229 228/228/228
f 230/230/230 233/233/233 232/232/232
f 230/230/230 232/232/232 231/231/231
f 237/237/237 236/236/236 235/235/235
f 237/237/237 235/235/235 234/234/234
f 242/242/242 239/239/239 238/238/238
f 239/239/239 242/242/242 240/240/240
f 242/242/242 241/241/241 240/240/240
f 245/245/245 244/244/244 243/243/243
f 245/245/245 246/246/246 244/244/244
f 249/249/249 248/248/248 247/247/247
f 249/249/249 250/250/250 248/248/248
f 253/253/253 252/252/252 251/251/251
f 253/253/253 254/254/254 252/252/252
f 257/257/257 256/256/256 255/255/255
f 257/257/257 258/258/258 256/256/256
f 261/261/261 260/260/260 259/259/259
f 261/261/261 262/262/262 260/260/260
f 265/265/265 264/264/264 263/263/263
f 265/265/265 266/266/266 264/264/264
f 269/269/269 268/268/268 267/267/267
f 269/269/269 270/270/270 268/268/268
f 273/273/273 272/272/272 271/271/271
f 273/273/273 274/274/274 272/272/272
f 277/277/277 276/276/276 275/275/275
f 277/277/277 278/278/278 276/276/276
f 281/281/281 280/280/280 279/279/279
f 281/281/281 282/282/282 280/280/280
f 285/285/285 284/284/284 283/283/283
f 285/285/285 286/286/286 284/284/284
f 289/289/289 288/288/288 287/287/287
f 289/289/289 290/290/290 288/288/288
f 293/293/293 292/292/292 291/291/291
f 293/293/293 294/294/294 292/292/292
f 297/297/297 296/296/296 295/295/295
f 297/297/297 298/298/298 296/296/296
f 301/301/301 300/300/300 299/299/299
f 301/301/301 302/302/302 300/300/300
f 305/305/305 304/304/304 303/303/303
f 305/305/305 306/306/306 304/304/304
f 309/309/309 308/308/308 307/307/307
f 309/309/309 310/310/310 308/308/308
f 313/313/313 312/312/312 311/311/311
f 313/313/313 314/314/314 312/312/312
