g pCone1
v 0.008090175 -0.01 -0.005877856
v 0 0.01 0
v 0.005877856 -0.01 -0.008090175
v 0.009510571 -0.01 -0.003090172
v 0.01 -0.01 0
v 0.009510566 -0.01 0.00309017
v 0.00809017 -0.01 0.005877853
v 0.005877852 -0.01 0.00809017
v 0.005877856 -0.01 -0.008090175
v 0 0.01 0
v 0.003090171 -0.01 -0.00951057
v 0 -0.01 -0.01
v -0.003090171 -0.01 -0.009510569
v -0.005877855 -0.01 -0.008090173
v -0.005877855 -0.01 -0.008090173
v 0 0.01 0
v -0.008090172 -0.01 -0.005877854
v -0.009510567 -0.01 -0.00309017
v -0.01 -0.01 0
v -0.009510567 -0.01 0.00309017
v -0.008090172 -0.01 0.005877853
v -0.005877853 -0.01 0.008090171
v -0.005877853 -0.01 0.008090171
v 0 0.01 0
v -0.00309017 -0.01 0.009510566
v -2.980232E-10 -0.01 0.01
v 0.00309017 -0.01 0.009510566
v 0.005877852 -0.01 0.00809017
v 0.01562747 -0.01020608 0.01135402
v 0.01135402 -0.01056975 0.01562747
v 0.01135402 -0.01020608 0.01562747
v 0.01562747 -0.01056975 0.01135402
v 0.01837119 -0.01020608 0.005969165
v 0.01837119 -0.01056975 0.005969165
v 0.01931662 -0.01020608 1.66594E-09
v 0.01931662 -0.01056975 1.66594E-09
v 0.0183712 -0.01020608 -0.005969162
v 0.0183712 -0.01056975 -0.005969162
v 0.01562748 -0.01020608 -0.01135403
v 0.01562748 -0.01056975 -0.01135403
v 0.01135403 -0.01020608 -0.01562748
v 0.01135403 -0.01056975 -0.01562748
v 0.01135402 -0.01020608 0.01562747
v 0.01135402 -0.01056975 0.01562747
v 0.00596916 -0.01056975 0.01837119
v 0.00596916 -0.01020608 0.01837119
v 3.497777E-10 -0.01056975 0.01931662
v 1.721003E-10 -0.01020608 0.01931662
v -0.005969161 -0.01056975 0.01837119
v -0.005969161 -0.01020608 0.01837119
v -0.01135402 -0.01056975 0.01562747
v -0.01135402 -0.01020608 0.01562747
v -0.01135402 -0.01020608 0.01562747
v -0.01135402 -0.01056975 0.01562747
v -0.01562747 -0.01056975 0.01135402
v -0.01562747 -0.01020608 0.01135402
v -0.01837119 -0.01056975 0.005969165
v -0.01837119 -0.01020608 0.005969165
v -0.01931662 -0.01056975 1.66594E-09
v -0.01931662 -0.01020608 1.66594E-09
v -0.01837119 -0.01056975 -0.00596916
v -0.01837119 -0.01020608 -0.00596916
v -0.01562747 -0.01056975 -0.01135402
v -0.01562747 -0.01020608 -0.01135402
v -0.01135402 -0.01056975 -0.01562747
v -0.01135402 -0.01020608 -0.01562747
v -0.01135402 -0.01020608 -0.01562747
v -0.01135402 -0.01056975 -0.01562747
v -0.005969162 -0.01056975 -0.01837119
v -0.005969162 -0.01020608 -0.01837119
v 9.254577E-10 -0.01056975 -0.01931663
v 7.477803E-10 -0.01020608 -0.01931663
v 0.005969167 -0.01056975 -0.01837119
v 0.005969167 -0.01020608 -0.01837119
v 0.01135403 -0.01056975 -0.01562748
v 0.01135403 -0.01020608 -0.01562748
v 0.009510571 -0.01 -0.003090172
v 0.0183712 -0.01020608 -0.005969162
v 0.01931662 -0.01020608 1.66594E-09
v 0.01 -0.01 0
v 0.008090175 -0.01 -0.005877856
v 0.01837119 -0.01020608 0.005969165
v 0.01562748 -0.01020608 -0.01135403
v 0.009510566 -0.01 0.00309017
v 0.005877856 -0.01 -0.008090175
v 0.01562747 -0.01020608 0.01135402
v 0.01135403 -0.01020608 -0.01562748
v 0.00809017 -0.01 0.005877853
v 0.003090171 -0.01 -0.00951057
v 0.01135402 -0.01020608 0.01562747
v 0.005969167 -0.01020608 -0.01837119
v 0.005877852 -0.01 0.00809017
v 0 -0.01 -0.01
v 0.00596916 -0.01020608 0.01837119
v 7.477803E-10 -0.01020608 -0.01931663
v 0.00309017 -0.01 0.009510566
v -0.003090171 -0.01 -0.009510569
v 1.721003E-10 -0.01020608 0.01931662
v -0.005969162 -0.01020608 -0.01837119
v -2.980232E-10 -0.01 0.01
v -0.005877855 -0.01 -0.008090173
v -0.005969161 -0.01020608 0.01837119
v -0.01135402 -0.01020608 -0.01562747
v -0.00309017 -0.01 0.009510566
v -0.008090172 -0.01 -0.005877854
v -0.01135402 -0.01020608 0.01562747
v -0.01562747 -0.01020608 -0.01135402
v -0.005877853 -0.01 0.008090171
v -0.009510567 -0.01 -0.00309017
v -0.01562747 -0.01020608 0.01135402
v -0.01837119 -0.01020608 -0.00596916
v -0.008090172 -0.01 0.005877853
v -0.01 -0.01 0
v -0.01837119 -0.01020608 0.005969165
v -0.01931662 -0.01020608 1.66594E-09
v -0.009510567 -0.01 0.00309017
v 0.0183712 -0.01056975 -0.005969162
v 0.01442244 -0.01065461 -0.004686133
v 0.01516465 -0.01065461 1.051626E-09
v 0.01931662 -0.01056975 1.66594E-09
v 0.01562748 -0.01056975 -0.01135403
v 0.01442243 -0.01065461 0.004686135
v 0.01837119 -0.01056975 0.005969165
v 0.01226846 -0.01065461 -0.00891356
v 0.01135403 -0.01056975 -0.01562748
v 0.01226846 -0.01065461 0.008913556
v 0.01562747 -0.01056975 0.01135402
v 0.00891356 -0.01065461 -0.01226846
v 0.005969167 -0.01056975 -0.01837119
v 0.008913555 -0.01065461 0.01226846
v 0.01135402 -0.01056975 0.01562747
v 0.004686137 -0.01065461 -0.01442244
v 9.254577E-10 -0.01056975 -0.01931663
v 5.911941E-10 -0.01065461 -0.01516465
v -0.005969162 -0.01056975 -0.01837119
v -0.004686133 -0.01065461 -0.01442244
v -0.01135402 -0.01056975 -0.01562747
v -0.008913557 -0.01065461 -0.01226846
v -0.01562747 -0.01056975 -0.01135402
v -0.01226846 -0.01065461 -0.008913556
v -0.01837119 -0.01056975 -0.00596916
v -0.01442244 -0.01065461 -0.004686132
v -0.01931662 -0.01056975 1.66594E-09
v -0.01516465 -0.01065461 1.051626E-09
v -0.01837119 -0.01056975 0.005969165
v -0.01442244 -0.01065461 0.004686135
v -0.01562747 -0.01056975 0.01135402
v -0.01226846 -0.01065461 0.008913557
v -0.01135402 -0.01056975 0.01562747
v -0.008913555 -0.01065461 0.01226846
v -0.005969161 -0.01056975 0.01837119
v 0.004686131 -0.01065461 0.01442243
v 0.00596916 -0.01056975 0.01837119
v -0.004686133 -0.01065461 0.01442243
v 3.497777E-10 -0.01056975 0.01931662
v 1.392523E-10 -0.01065461 0.01516465
vt 0.3979492 0.4914551
vt 0.3239746 0.7426758
vt 0.4257813 0.4914551
vt 0.362793 0.4914551
vt 0.3239746 0.4914551
vt 0.2851563 0.4914551
vt 0.2502441 0.4914551
vt 0.2224121 0.4914551
vt 0.2164307 0.7426758
vt 0.1425781 0.4914551
vt 0.1813965 0.7426758
vt 0.1425781 0.7426758
vt 0.1037598 0.7426758
vt 0.06872559 0.7426758
vt 0.001914024 0.746582
vt 0.1035767 0.9980469
vt 0.02972412 0.746582
vt 0.0647583 0.746582
vt 0.1035767 0.746582
vt 0.1424561 0.746582
vt 0.1774902 0.746582
vt 0.2053223 0.746582
vt 0.2119141 0.746582
vt 0.2856445 0.9980469
vt 0.2469482 0.746582
vt 0.2856445 0.746582
vt 0.324707 0.746582
vt 0.3596191 0.746582
vt 0.4675293 0.8305664
vt 0.4631348 0.8842773
vt 0.4675293 0.8842773
vt 0.4631348 0.8305664
vt 0.4675293 0.7626953
vt 0.4631348 0.7626953
vt 0.4675293 0.6879883
vt 0.4631348 0.6879883
vt 0.4675293 0.612793
vt 0.4631348 0.612793
vt 0.4675293 0.5449219
vt 0.4631348 0.5449219
vt 0.4675293 0.4914551
vt 0.4631348 0.4914551
vt 0.4467773 0.4914551
vt 0.4421387 0.4914551
vt 0.4421387 0.559082
vt 0.4467773 0.559082
vt 0.4421387 0.6342773
vt 0.4467773 0.6342773
vt 0.4421387 0.7089844
vt 0.4467773 0.7089844
vt 0.4421387 0.7768555
vt 0.4467773 0.7768555
vt 0.4570313 0.4914551
vt 0.4526367 0.4914551
vt 0.4526367 0.5449219
vt 0.4570313 0.5449219
vt 0.4526367 0.612793
vt 0.4570313 0.612793
vt 0.4526367 0.6879883
vt 0.4570313 0.6879883
vt 0.4526367 0.7626953
vt 0.4570313 0.7626953
vt 0.4526367 0.8305664
vt 0.4570313 0.8305664
vt 0.4526367 0.8842773
vt 0.4570313 0.8842773
vt 0.4316406 0.7768555
vt 0.4362793 0.7768555
vt 0.4362793 0.7089844
vt 0.4316406 0.7089844
vt 0.4362793 0.6342773
vt 0.4316406 0.6342773
vt 0.4362793 0.559082
vt 0.4316406 0.559082
vt 0.4362793 0.4914551
vt 0.4316406 0.4914551
vt 0.8359375 0.7729492
vt 0.9472656 0.809082
vt 0.9589844 0.734375
vt 0.8417969 0.734375
vt 0.8178711 0.8081055
vt 0.9472656 0.6591797
vt 0.9125977 0.8769531
vt 0.8359375 0.6953125
vt 0.7900391 0.8359375
vt 0.9125977 0.5913086
vt 0.8588867 0.9306641
vt 0.8178711 0.6601563
vt 0.7553711 0.8535156
vt 0.8588867 0.5375977
vt 0.7915039 0.965332
vt 0.7900391 0.6323242
vt 0.7163086 0.8598633
vt 0.7915039 0.503418
vt 0.7163086 0.9770508
vt 0.7553711 0.6147461
vt 0.6772461 0.8535156
vt 0.7163086 0.4914551
vt 0.6411133 0.965332
vt 0.7163086 0.6083984
vt 0.6425781 0.8359375
vt 0.6411133 0.503418
vt 0.5737305 0.9306641
vt 0.6772461 0.6147461
vt 0.6147461 0.8081055
vt 0.5737305 0.5375977
vt 0.5200195 0.8769531
vt 0.6425781 0.6323242
vt 0.5966797 0.7729492
vt 0.5200195 0.5913086
vt 0.4853516 0.809082
vt 0.6147461 0.6601563
vt 0.5908203 0.734375
vt 0.4853516 0.6591797
vt 0.4736328 0.734375
vt 0.5966797 0.6953125
vt 0.4755859 0.1697998
vt 0.4260254 0.1859131
vt 0.4353027 0.244751
vt 0.4875488 0.244751
vt 0.4411621 0.1020508
vt 0.4260254 0.3037109
vt 0.4755859 0.3198242
vt 0.3989258 0.1326904
vt 0.3874512 0.04837036
vt 0.3989258 0.3569336
vt 0.4411621 0.3874512
vt 0.3566895 0.09057617
vt 0.3198242 0.01387787
vt 0.3566895 0.3989258
vt 0.3874512 0.4411621
vt 0.3037109 0.0635376
vt 0.244751 0.001991272
vt 0.244751 0.0541687
vt 0.1696777 0.01387787
vt 0.185791 0.0635376
vt 0.1019897 0.04837036
vt 0.1326904 0.09057617
vt 0.04827881 0.1020508
vt 0.09051514 0.1326904
vt 0.01379395 0.1697998
vt 0.06341553 0.1859131
vt 0.001914024 0.244751
vt 0.05410767 0.244751
vt 0.01379395 0.3198242
vt 0.06341553 0.3037109
vt 0.04827881 0.3874512
vt 0.09051514 0.3569336
vt 0.1019897 0.4411621
vt 0.1326904 0.3989258
vt 0.1696777 0.4755859
vt 0.3037109 0.4260254
vt 0.3198242 0.4755859
vt 0.185791 0.4260254
vt 0.244751 0.4875488
vt 0.244751 0.4353027
vn 0.3613281 0.8945313 -0.2626953
vn -2.384186E-07 1 -9.536743E-07
vn 0.2626953 0.8945313 -0.3613281
vn 0.4248047 0.8945313 -0.1380615
vn 0.4467773 0.8945313 4.172325E-07
vn 0.4248047 0.8945313 0.1380615
vn 0.3613281 0.8945313 0.2626953
vn 0.2626953 0.8945313 0.3613281
vn 0.2626953 0.8945313 -0.3613281
vn -2.384186E-07 1 -9.536743E-07
vn 0.1380615 0.8945313 -0.4248047
vn 0 0.8945313 -0.4467773
vn -0.1380615 0.8945313 -0.4248047
vn -0.2626953 0.8945313 -0.3613281
vn -0.2626953 0.8945313 -0.3613281
vn -2.384186E-07 1 -9.536743E-07
vn -0.3613281 0.8945313 -0.2626953
vn -0.4248047 0.8945313 -0.1380615
vn -0.4467773 0.8945313 0
vn -0.4248047 0.8945313 0.1380615
vn -0.3613281 0.8945313 0.2626953
vn -0.2626953 0.8945313 0.3613281
vn -0.2626953 0.8945313 0.3613281
vn -2.384186E-07 1 -9.536743E-07
vn -0.1380615 0.8945313 0.4248047
vn 0 0.8945313 0.4467773
vn 0.1380615 0.8945313 0.4248047
vn 0.2626953 0.8945313 0.3613281
vn 0.809082 0 0.5878906
vn 0.07550049 -0.9916992 0.1038818
vn 0.5878906 0 0.809082
vn 0.1038818 -0.9916992 0.07550049
vn 0.9511719 0 0.309082
vn 0.1221313 -0.9916992 0.03967285
vn 1 0 1.013279E-06
vn 0.128418 -0.9916992 1.788139E-07
vn 0.9511719 0 -0.309082
vn 0.1221313 -0.9916992 -0.03967285
vn 0.809082 0 -0.5878906
vn 0.1038818 -0.9916992 -0.07550049
vn 0.5878906 0 -0.809082
vn 0.07550049 -0.9916992 -0.1038818
vn 0.5878906 0 0.809082
vn 0.07550049 -0.9916992 0.1038818
vn 0.03967285 -0.9916992 0.1221313
vn 0.309082 0 0.9511719
vn 0 -0.9916992 0.128418
vn -1.192093E-07 0 1
vn -0.03967285 -0.9916992 0.1221313
vn -0.309082 0 0.9511719
vn -0.07550049 -0.9916992 0.1038818
vn -0.5878906 0 0.809082
vn -0.5878906 0 0.809082
vn -0.07550049 -0.9916992 0.1038818
vn -0.1038818 -0.9916992 0.07550049
vn -0.809082 0 0.5878906
vn -0.1221313 -0.9916992 0.03967285
vn -0.9511719 0 0.309082
vn -0.128418 -0.9916992 0
vn -1 0 0
vn -0.1221313 -0.9916992 -0.03967285
vn -0.9511719 0 -0.309082
vn -0.1038818 -0.9916992 -0.07550049
vn -0.809082 0 -0.5878906
vn -0.07550049 -0.9916992 -0.1038818
vn -0.5878906 0 -0.809082
vn -0.5878906 0 -0.809082
vn -0.07550049 -0.9916992 -0.1038818
vn -0.03967285 -0.9916992 -0.1221313
vn -0.309082 0 -0.9511719
vn 0 -0.9916992 -0.128418
vn -1.192093E-07 0 -1
vn 0.03967285 -0.9916992 -0.1221313
vn 0.309082 0 -0.9511719
vn 0.07550049 -0.9916992 -0.1038818
vn 0.5878906 0 -0.809082
vn 0.4248047 0.8945313 -0.1380615
vn 0.02102661 0.9995117 -0.006832123
vn 0.02210999 0.9995117 0
vn 0.4467773 0.8945313 4.172325E-07
vn 0.3613281 0.8945313 -0.2626953
vn 0.02102661 0.9995117 0.006832123
vn 0.0178833 0.9995117 -0.01300049
vn 0.4248047 0.8945313 0.1380615
vn 0.2626953 0.8945313 -0.3613281
vn 0.0178833 0.9995117 0.01300049
vn 0.01300049 0.9995117 -0.0178833
vn 0.3613281 0.8945313 0.2626953
vn 0.1380615 0.8945313 -0.4248047
vn 0.01300049 0.9995117 0.0178833
vn 0.006832123 0.9995117 -0.02102661
vn 0.2626953 0.8945313 0.3613281
vn 0 0.8945313 -0.4467773
vn 0.006832123 0.9995117 0.02102661
vn 0 0.9995117 -0.02210999
vn 0.1380615 0.8945313 0.4248047
vn -0.1380615 0.8945313 -0.4248047
vn 0 0.9995117 0.02210999
vn -0.006832123 0.9995117 -0.02102661
vn 0 0.8945313 0.4467773
vn -0.2626953 0.8945313 -0.3613281
vn -0.006832123 0.9995117 0.02102661
vn -0.01300049 0.9995117 -0.0178833
vn -0.1380615 0.8945313 0.4248047
vn -0.3613281 0.8945313 -0.2626953
vn -0.01300049 0.9995117 0.0178833
vn -0.0178833 0.9995117 -0.01300049
vn -0.2626953 0.8945313 0.3613281
vn -0.4248047 0.8945313 -0.1380615
vn -0.0178833 0.9995117 0.01300049
vn -0.02102661 0.9995117 -0.006832123
vn -0.3613281 0.8945313 0.2626953
vn -0.4467773 0.8945313 0
vn -0.02102661 0.9995117 0.006832123
vn -0.02210999 0.9995117 0
vn -0.4248047 0.8945313 0.1380615
vn 0.1221313 -0.9916992 -0.03967285
vn 0 -1 0
vn 0 -1 0
vn 0.128418 -0.9916992 1.788139E-07
vn 0.1038818 -0.9916992 -0.07550049
vn 0 -1 0
vn 0.1221313 -0.9916992 0.03967285
vn 0 -1 0
vn 0.07550049 -0.9916992 -0.1038818
vn 0 -1 0
vn 0.1038818 -0.9916992 0.07550049
vn 0 -1 0
vn 0.03967285 -0.9916992 -0.1221313
vn 0 -1 0
vn 0.07550049 -0.9916992 0.1038818
vn 0 -1 0
vn 0 -0.9916992 -0.128418
vn 0 -1 0
vn -0.03967285 -0.9916992 -0.1221313
vn 0 -1 0
vn -0.07550049 -0.9916992 -0.1038818
vn 0 -1 0
vn -0.1038818 -0.9916992 -0.07550049
vn 0 -1 0
vn -0.1221313 -0.9916992 -0.03967285
vn 0 -1 0
vn -0.128418 -0.9916992 0
vn 0 -1 0
vn -0.1221313 -0.9916992 0.03967285
vn 0 -1 0
vn -0.1038818 -0.9916992 0.07550049
vn 0 -1 0
vn -0.07550049 -0.9916992 0.1038818
vn 0 -1 0
vn -0.03967285 -0.9916992 0.1221313
vn 0 -1 0
vn 0.03967285 -0.9916992 0.1221313
vn 0 -1 0
vn 0 -0.9916992 0.128418
vn 0 -1 0
g pCone1_0
f 3/3/3 2/2/2 1/1/1
f 1/1/1 2/2/2 4/4/4
f 4/4/4 2/2/2 5/5/5
f 5/5/5 2/2/2 6/6/6
f 6/6/6 2/2/2 7/7/7
f 7/7/7 2/2/2 8/8/8
f 11/11/11 10/10/10 9/9/9
f 12/12/12 10/10/10 11/11/11
f 13/13/13 10/10/10 12/12/12
f 14/14/14 10/10/10 13/13/13
f 17/17/17 16/16/16 15/15/15
f 18/18/18 16/16/16 17/17/17
f 19/19/19 16/16/16 18/18/18
f 20/20/20 16/16/16 19/19/19
f 21/21/21 16/16/16 20/20/20
f 22/22/22 16/16/16 21/21/21
f 25/25/25 24/24/24 23/23/23
f 26/26/26 24/24/24 25/25/25
f 27/27/27 24/24/24 26/26/26
f 28/28/28 24/24/24 27/27/27
f 31/31/31 30/30/30 29/29/29
f 30/30/30 32/32/32 29/29/29
f 29/29/29 32/32/32 33/33/33
f 32/32/32 34/34/34 33/33/33
f 33/33/33 34/34/34 35/35/35
f 34/34/34 36/36/36 35/35/35
f 35/35/35 36/36/36 37/37/37
f 36/36/36 38/38/38 37/37/37
f 37/37/37 38/38/38 39/39/39
f 38/38/38 40/40/40 39/39/39
f 39/39/39 40/40/40 41/41/41
f 40/40/40 42/42/42 41/41/41
f 45/45/45 44/44/44 43/43/43
f 46/46/46 45/45/45 43/43/43
f 47/47/47 45/45/45 46/46/46
f 48/48/48 47/47/47 46/46/46
f 49/49/49 47/47/47 48/48/48
f 50/50/50 49/49/49 48/48/48
f 51/51/51 49/49/49 50/50/50
f 52/52/52 51/51/51 50/50/50
f 55/55/55 54/54/54 53/53/53
f 56/56/56 55/55/55 53/53/53
f 57/57/57 55/55/55 56/56/56
f 58/58/58 57/57/57 56/56/56
f 59/59/59 57/57/57 58/58/58
f 60/60/60 59/59/59 58/58/58
f 61/61/61 59/59/59 60/60/60
f 62/62/62 61/61/61 60/60/60
f 63/63/63 61/61/61 62/62/62
f 64/64/64 63/63/63 62/62/62
f 65/65/65 63/63/63 64/64/64
f 66/66/66 65/65/65 64/64/64
f 69/69/69 68/68/68 67/67/67
f 70/70/70 69/69/69 67/67/67
f 71/71/71 69/69/69 70/70/70
f 72/72/72 71/71/71 70/70/70
f 73/73/73 71/71/71 72/72/72
f 74/74/74 73/73/73 72/72/72
f 75/75/75 73/73/73 74/74/74
f 76/76/76 75/75/75 74/74/74
f 79/79/79 78/78/78 77/77/77
f 80/80/80 79/79/79 77/77/77
f 77/77/77 78/78/78 81/81/81
f 82/82/82 79/79/79 80/80/80
f 78/78/78 83/83/83 81/81/81
f 84/84/84 82/82/82 80/80/80
f 81/81/81 83/83/83 85/85/85
f 86/86/86 82/82/82 84/84/84
f 83/83/83 87/87/87 85/85/85
f 88/88/88 86/86/86 84/84/84
f 85/85/85 87/87/87 89/89/89
f 90/90/90 86/86/86 88/88/88
f 87/87/87 91/91/91 89/89/89
f 92/92/92 90/90/90 88/88/88
f 89/89/89 91/91/91 93/93/93
f 94/94/94 90/90/90 92/92/92
f 91/91/91 95/95/95 93/93/93
f 96/96/96 94/94/94 92/92/92
f 93/93/93 95/95/95 97/97/97
f 98/98/98 94/94/94 96/96/96
f 95/95/95 99/99/99 97/97/97
f 100/100/100 98/98/98 96/96/96
f 97/97/97 99/99/99 101/101/101
f 102/102/102 98/98/98 100/100/100
f 99/99/99 103/103/103 101/101/101
f 104/104/104 102/102/102 100/100/100
f 101/101/101 103/103/103 105/105/105
f 106/106/106 102/102/102 104/104/104
f 103/103/103 107/107/107 105/105/105
f 108/108/108 106/106/106 104/104/104
f 105/105/105 107/107/107 109/109/109
f 110/110/110 106/106/106 108/108/108
f 107/107/107 111/111/111 109/109/109
f 112/112/112 110/110/110 108/108/108
f 109/109/109 111/111/111 113/113/113
f 114/114/114 110/110/110 112/112/112
f 111/111/111 115/115/115 113/113/113
f 116/116/116 114/114/114 112/112/112
f 113/113/113 115/115/115 116/116/116
f 115/115/115 114/114/114 116/116/116
f 119/119/119 118/118/118 117/117/117
f 120/120/120 119/119/119 117/117/117
f 117/117/117 118/118/118 121/121/121
f 122/122/122 119/119/119 120/120/120
f 123/123/123 122/122/122 120/120/120
f 118/118/118 124/124/124 121/121/121
f 121/121/121 124/124/124 125/125/125
f 126/126/126 122/122/122 123/123/123
f 127/127/127 126/126/126 123/123/123
f 124/124/124 128/128/128 125/125/125
f 125/125/125 128/128/128 129/129/129
f 130/130/130 126/126/126 127/127/127
f 131/131/131 130/130/130 127/127/127
f 128/128/128 132/132/132 129/129/129
f 129/129/129 132/132/132 133/133/133
f 132/132/132 134/134/134 133/133/133
f 133/133/133 134/134/134 135/135/135
f 136/136/136 134/134/134 132/132/132
f 134/134/134 136/136/136 135/135/135
f 132/132/132 128/128/128 136/136/136
f 135/135/135 136/136/136 137/137/137
f 128/128/128 138/138/138 136/136/136
f 136/136/136 138/138/138 137/137/137
f 128/128/128 124/124/124 138/138/138
f 137/137/137 138/138/138 139/139/139
f 124/124/124 140/140/140 138/138/138
f 138/138/138 140/140/140 139/139/139
f 124/124/124 118/118/118 140/140/140
f 139/139/139 140/140/140 141/141/141
f 118/118/118 142/142/142 140/140/140
f 140/140/140 142/142/142 141/141/141
f 118/118/118 119/119/119 142/142/142
f 141/141/141 142/142/142 143/143/143
f 119/119/119 144/144/144 142/142/142
f 142/142/142 144/144/144 143/143/143
f 119/119/119 122/122/122 144/144/144
f 143/143/143 144/144/144 145/145/145
f 122/122/122 146/146/146 144/144/144
f 144/144/144 146/146/146 145/145/145
f 122/122/122 126/126/126 146/146/146
f 145/145/145 146/146/146 147/147/147
f 126/126/126 148/148/148 146/146/146
f 146/146/146 148/148/148 147/147/147
f 147/147/147 148/148/148 149/149/149
f 126/126/126 130/130/130 148/148/148
f 148/148/148 150/150/150 149/149/149
f 130/130/130 150/150/150 148/148/148
f 149/149/149 150/150/150 151/151/151
f 130/130/130 152/152/152 150/150/150
f 152/152/152 130/130/130 131/131/131
f 153/153/153 152/152/152 131/131/131
f 150/150/150 154/154/154 151/151/151
f 152/152/152 154/154/154 150/150/150
f 151/151/151 154/154/154 155/155/155
f 156/156/156 152/152/152 153/153/153
f 155/155/155 156/156/156 153/153/153
f 152/152/152 156/156/156 154/154/154
f 154/154/154 156/156/156 155/155/155
