g Plane
v 0.00218046 0.0236106 -0.00077022
v 0.00188904 0.02381166 -0.00214194
v 0.00225642 0.02378616 -0.00180528
v 0.00134874 0.02377524 -0.0014607
v 0.00148026 0.02403696 -0.00238452
v 0.00034884 0.02413506 -0.00207156
v 0.00210456 0.02316426 0.0002649
v 0.00080844 0.0234681 -0.00077946
v -0.00078258 0.02396238 -0.00175866
v 0.00106884 0.02226558 0.0012669
v -8.321999E-05 0.0226704 7.332E-05
v 0.0017337 0.0217953 0.00151392
v 0.00245898 0.02252268 0.00085278
v 0.0023985 0.021093 0.00176094
v 0.0028134 0.02164914 0.00144072
v 0.0021357 0.02100762 0.00207426
v 0.00101832 0.02147922 0.00222594
v -9.905999E-05 0.02171886 0.00237768
v -0.00155604 0.02316498 -0.0006575999
v -0.00148416 0.02383926 -0.00197838
v -0.00129486 0.02195598 0.00138516
v -0.00092568 0.02131974 0.00240882
v -0.00210348 0.0231591 -0.00123576
v -0.00218574 0.02357586 -0.00219816
v -0.00265098 0.023013 -0.00181398
v -0.00257382 0.02285106 -0.00065766
v -0.00281868 0.02292984 -0.00162588
v -0.00232902 0.02263206 0.00031056
v -0.0017361 0.0214368 0.00170688
v -0.00175236 0.02068554 0.0024399
v -0.00250494 0.0219513 0.00101784
v -0.00217728 0.02068248 0.00202866
v -0.00268092 0.0210354 0.00172518
v 0.00218046 0.02351364 -0.00077022
v 0.00225642 0.0236892 -0.00180528
v 0.00188904 0.0237147 -0.00214194
v 0.00134874 0.02367828 -0.0014607
v 0.00148026 0.02394 -0.00238452
v 0.00034884 0.0240381 -0.00207156
v 0.00210456 0.02306736 0.0002649
v 0.00080844 0.02337114 -0.00077946
v -0.00078258 0.02386542 -0.00175866
v 0.00106884 0.02216862 0.0012669
v -8.321999E-05 0.02257344 7.332E-05
v 0.0017337 0.02169834 0.00151392
v 0.00245898 0.02242578 0.00085278
v 0.0023985 0.0209961 0.00176094
v 0.0028134 0.02155218 0.00144072
v 0.0021357 0.02091066 0.00207426
v 0.00101832 0.02138232 0.00222594
v -9.905999E-05 0.0216219 0.00237768
v -0.00155604 0.02306802 -0.0006575999
v -0.00148416 0.0237423 -0.00197838
v -0.00129486 0.02185902 0.00138516
v -0.00092568 0.02122278 0.00240882
v -0.00210348 0.0230622 -0.00123576
v -0.00218574 0.0234789 -0.00219816
v -0.00265098 0.02291604 -0.00181398
v -0.00257382 0.0227541 -0.00065766
v -0.00281868 0.02283288 -0.00162588
v -0.00232902 0.0225351 0.00031056
v -0.0017361 0.02133984 0.00170688
v -0.00175236 0.02058858 0.0024399
v -0.00250494 0.02185434 0.00101784
v -0.00217728 0.02058552 0.00202866
v -0.00268092 0.0209385 0.00172518
vt 0.8710938 0.3388672
vt 0.9921875 0.5
vt 0.9921875 0.4277344
vt 0.8710938 0.5
vt 0.9921875 0.5761719
vt 0.8603516 0.6806641
vt 0.75 0.25
vt 0.75 0.5
vt 0.7285156 0.7851563
vt 0.5 0.25
vt 0.5341797 0.5
vt 0.5 0.1313477
vt 0.6772461 0.1313477
vt 0.5 0.01264191
vt 0.6049805 0.01264191
vt 0.4401855 0.01264191
vt 0.3449707 0.1405029
vt 0.25 0.2683105
vt 0.5 0.75
vt 0.6723633 0.8774414
vt 0.25 0.5
vt 0.137207 0.342041
vt 0.5 0.8603516
vt 0.6162109 0.9702148
vt 0.5 0.9702148
vt 0.3811035 0.8530273
vt 0.4609375 0.9702148
vt 0.3010254 0.7358398
vt 0.137207 0.5
vt 0.0244751 0.4157715
vt 0.1654053 0.6665039
vt 0.0244751 0.5
vt 0.0297699 0.5966797
vt 0.8710938 0.3388672
vt 0.9921875 0.4277344
vt 0.9921875 0.5
vt 0.8710938 0.5
vt 0.9921875 0.5761719
vt 0.8603516 0.6806641
vt 0.75 0.25
vt 0.75 0.5
vt 0.7285156 0.7851563
vt 0.5 0.25
vt 0.5341797 0.5
vt 0.5 0.1313477
vt 0.6772461 0.1313477
vt 0.5 0.01264191
vt 0.6049805 0.01264191
vt 0.4401855 0.01264191
vt 0.3449707 0.1405029
vt 0.25 0.2683105
vt 0.5 0.75
vt 0.6723633 0.8774414
vt 0.25 0.5
vt 0.137207 0.342041
vt 0.5 0.8603516
vt 0.6162109 0.9702148
vt 0.5 0.9702148
vt 0.3811035 0.8530273
vt 0.4609375 0.9702148
vt 0.3010254 0.7358398
vt 0.137207 0.5
vt 0.0244751 0.4157715
vt 0.1654053 0.6665039
vt 0.0244751 0.5
vt 0.0297699 0.5966797
vn -0.05749512 0.9511719 0.3027344
vn 0.1246338 0.9682617 0.2160645
vn 0.03994751 0.9897461 0.1365967
vn 0.0463562 0.9477539 0.3161621
vn 0.2092285 0.9326172 0.2939453
vn 0.0680542 0.9077148 0.4135742
vn -0.1005249 0.8227539 0.5595703
vn -0.09777832 0.8691406 0.4848633
vn -0.1461182 0.8510742 0.5043945
vn 0.01829529 0.8110352 0.5844727
vn -0.09765625 0.8564453 0.5068359
vn 0.2249756 0.6489258 0.7265625
vn 0.1104126 0.6171875 0.7792969
vn 0.2763672 0.6069336 0.7451172
vn 0.128418 0.527832 0.8393555
vn 0.3991699 0.6582031 0.6386719
vn 0.302002 0.7177734 0.6269531
vn -0.0892334 0.8540039 0.512207
vn -0.1647949 0.8759766 0.4533691
vn -0.4025879 0.8227539 0.4013672
vn -0.1733398 0.8129883 0.5561523
vn -0.407959 0.6923828 0.5952148
vn -0.3823242 0.8710938 0.3081055
vn -0.498291 0.7792969 0.380127
vn -0.4389648 0.8588867 0.2636719
vn -0.3120117 0.9199219 0.2371826
vn -0.3764648 0.9135742 0.1530762
vn -0.104126 0.8574219 0.5043945
vn -0.3288574 0.6533203 0.6821289
vn -0.4980469 0.6113281 0.6152344
vn -0.2161865 0.6616211 0.7177734
vn -0.373291 0.5996094 0.7080078
vn -0.2270508 0.5703125 0.7895508
vn 0.05749512 -0.9511719 -0.3027344
vn -0.03994751 -0.9897461 -0.1365967
vn -0.1246338 -0.9682617 -0.2160645
vn -0.0463562 -0.9477539 -0.3161621
vn -0.2092285 -0.9326172 -0.2939453
vn -0.0680542 -0.9077148 -0.4135742
vn 0.1005859 -0.8227539 -0.5595703
vn 0.09777832 -0.8691406 -0.4848633
vn 0.1461182 -0.8510742 -0.5043945
vn -0.01828003 -0.8110352 -0.5844727
vn 0.09765625 -0.8564453 -0.5068359
vn -0.2249756 -0.6489258 -0.7265625
vn -0.1104126 -0.6171875 -0.7792969
vn -0.2763672 -0.6069336 -0.7451172
vn -0.128418 -0.527832 -0.8393555
vn -0.3991699 -0.6582031 -0.6386719
vn -0.302002 -0.7177734 -0.6269531
vn 0.0892334 -0.8540039 -0.512207
vn 0.1647949 -0.8759766 -0.4533691
vn 0.4025879 -0.8227539 -0.4013672
vn 0.1733398 -0.8129883 -0.5561523
vn 0.407959 -0.6923828 -0.5952148
vn 0.3823242 -0.8710938 -0.3081055
vn 0.498291 -0.7792969 -0.380127
vn 0.4389648 -0.8588867 -0.2634277
vn 0.3120117 -0.9199219 -0.2371826
vn 0.3764648 -0.9135742 -0.1530762
vn 0.104126 -0.8574219 -0.5043945
vn 0.3288574 -0.6533203 -0.6821289
vn 0.4980469 -0.6113281 -0.6152344
vn 0.2161865 -0.6616211 -0.7177734
vn 0.373291 -0.5996094 -0.7080078
vn 0.2269287 -0.5703125 -0.7895508
g Plane_0
f 3/3/3 2/2/2 1/1/1
f 2/2/2 4/4/4 1/1/1
f 2/2/2 5/5/5 4/4/4
f 5/5/5 6/6/6 4/4/4
f 1/1/1 4/4/4 7/7/7
f 4/4/4 6/6/6 8/8/8
f 4/4/4 8/8/8 7/7/7
f 6/6/6 9/9/9 8/8/8
f 7/7/7 8/8/8 10/10/10
f 8/8/8 9/9/9 11/11/11
f 8/8/8 11/11/11 10/10/10
f 7/7/7 10/10/10 12/12/12
f 13/13/13 7/7/7 12/12/12
f 13/13/13 12/12/12 14/14/14
f 15/15/15 13/13/13 14/14/14
f 14/14/14 12/12/12 16/16/16
f 12/12/12 17/17/17 16/16/16
f 12/12/12 10/10/10 17/17/17
f 10/10/10 18/18/18 17/17/17
f 10/10/10 11/11/11 18/18/18
f 9/9/9 19/19/19 11/11/11
f 9/9/9 20/20/20 19/19/19
f 11/11/11 21/21/21 18/18/18
f 11/11/11 19/19/19 21/21/21
f 18/18/18 21/21/21 22/22/22
f 20/20/20 23/23/23 19/19/19
f 20/20/20 24/24/24 23/23/23
f 24/24/24 25/25/25 23/23/23
f 23/23/23 25/25/25 26/26/26
f 25/25/25 27/27/27 26/26/26
f 23/23/23 26/26/26 28/28/28
f 19/19/19 23/23/23 28/28/28
f 19/19/19 28/28/28 21/21/21
f 21/21/21 29/29/29 22/22/22
f 21/21/21 28/28/28 29/29/29
f 22/22/22 29/29/29 30/30/30
f 28/28/28 31/31/31 29/29/29
f 29/29/29 32/32/32 30/30/30
f 29/29/29 31/31/31 32/32/32
f 31/31/31 33/33/33 32/32/32
f 36/36/36 35/35/35 34/34/34
f 37/37/37 36/36/36 34/34/34
f 38/38/38 36/36/36 37/37/37
f 39/39/39 38/38/38 37/37/37
f 37/37/37 34/34/34 40/40/40
f 39/39/39 37/37/37 41/41/41
f 41/41/41 37/37/37 40/40/40
f 42/42/42 39/39/39 41/41/41
f 41/41/41 40/40/40 43/43/43
f 42/42/42 41/41/41 44/44/44
f 44/44/44 41/41/41 43/43/43
f 43/43/43 40/40/40 45/45/45
f 40/40/40 46/46/46 45/45/45
f 45/45/45 46/46/46 47/47/47
f 46/46/46 48/48/48 47/47/47
f 45/45/45 47/47/47 49/49/49
f 50/50/50 45/45/45 49/49/49
f 43/43/43 45/45/45 50/50/50
f 51/51/51 43/43/43 50/50/50
f 44/44/44 43/43/43 51/51/51
f 52/52/52 42/42/42 44/44/44
f 53/53/53 42/42/42 52/52/52
f 54/54/54 44/44/44 51/51/51
f 52/52/52 44/44/44 54/54/54
f 54/54/54 51/51/51 55/55/55
f 56/56/56 53/53/53 52/52/52
f 57/57/57 53/53/53 56/56/56
f 58/58/58 57/57/57 56/56/56
f 58/58/58 56/56/56 59/59/59
f 60/60/60 58/58/58 59/59/59
f 59/59/59 56/56/56 61/61/61
f 56/56/56 52/52/52 61/61/61
f 61/61/61 52/52/52 54/54/54
f 62/62/62 54/54/54 55/55/55
f 61/61/61 54/54/54 62/62/62
f 62/62/62 55/55/55 63/63/63
f 64/64/64 61/61/61 62/62/62
f 65/65/65 62/62/62 63/63/63
f 64/64/64 62/62/62 65/65/65
f 66/66/66 64/64/64 65/65/65
