g plank4
v -0.01704984 -0.3276347 -0.05952379
v -0.02358359 -0.3276347 -0.05952379
v -0.02358359 1.462498 0.4201407
v -0.01704984 1.462498 0.4201407
v -0.01704984 1.462498 0.4201407
v -0.02358359 1.462498 0.4201407
v -0.02358359 1.476581 0.3675824
v -0.01704984 1.476581 0.3675824
v -0.01704984 1.476581 0.3675824
v -0.02358359 1.476581 0.3675824
v -0.02358359 -0.3135519 -0.1120815
v -0.01704984 -0.3135519 -0.1120815
v -0.01704984 -0.3135519 -0.1120815
v -0.02358359 -0.3135519 -0.1120815
v -0.02358359 -0.3276347 -0.05952379
v -0.01704984 -0.3276347 -0.05952379
v -0.02358359 -0.3276347 -0.05952379
v -0.02358359 -0.3135519 -0.1120815
v -0.02358359 1.476581 0.3675824
v -0.02358359 1.462498 0.4201407
v -0.01704984 -0.3135519 -0.1120815
v -0.01704984 -0.3276347 -0.05952379
v -0.01704984 1.462498 0.4201407
v -0.01704984 1.476581 0.3675824
vt 0.3896484 0.6132813
vt 0.3896484 0.6157227
vt 0.9853516 0.6157227
vt 0.9853516 0.6132813
vt 0.3796387 0.6171875
vt 0.3796387 0.6196289
vt 0.3896484 0.6196289
vt 0.3896484 0.6171875
vt 0.3896484 0.6171875
vt 0.3896484 0.6196289
vt 0.9853516 0.6196289
vt 0.9853516 0.6171875
vt 0.3796387 0.6132813
vt 0.3796387 0.6157227
vt 0.3896484 0.6157227
vt 0.3896484 0.6132813
vt 0.3496094 0.5927734
vt 0.3496094 0.6118164
vt 0.9858398 0.6118164
vt 0.9858398 0.5927734
vt 0.3496094 0.5927734
vt 0.3496094 0.6118164
vt 0.9858398 0.6118164
vt 0.9858398 0.5927734
vn 0 -0.2587891 0.9658203
vn 0 -0.2587891 0.9658203
vn 0 -0.2587891 0.9658203
vn 0 -0.2587891 0.9658203
vn 0 0.9658203 0.2587891
vn 0 0.9658203 0.2587891
vn 0 0.9658203 0.2587891
vn 0 0.9658203 0.2587891
vn 0 0.2587891 -0.9658203
vn 0 0.2587891 -0.9658203
vn 0 0.2587891 -0.9658203
vn 0 0.2587891 -0.9658203
vn 0 -0.9658203 -0.2587891
vn 0 -0.9658203 -0.2587891
vn 0 -0.9658203 -0.2587891
vn 0 -0.9658203 -0.2587891
vn -1 -8.940697E-07 0
vn -1 -8.940697E-07 0
vn -1 -8.940697E-07 0
vn -1 -8.940697E-07 0
vn 1 1.788139E-07 0
vn 1 1.788139E-07 0
vn 1 1.788139E-07 0
vn 1 1.788139E-07 0
g plank4_0
f 3/3/3 2/2/2 1/1/1
f 4/4/4 3/3/3 1/1/1
f 7/7/7 6/6/6 5/5/5
f 8/8/8 7/7/7 5/5/5
f 11/11/11 10/10/10 9/9/9
f 12/12/12 11/11/11 9/9/9
f 15/15/15 14/14/14 13/13/13
f 16/16/16 15/15/15 13/13/13
f 19/19/19 18/18/18 17/17/17
f 20/20/20 19/19/19 17/17/17
f 23/23/23 22/22/22 21/21/21
f 24/24/24 23/23/23 21/21/21
