g plank5
v -0.02358356 -0.332205 -0.02296487
v -0.03011627 -0.332205 -0.02296487
v -0.03011627 1.49996 0.2560034
v -0.02358356 1.49996 0.2560034
v -0.02358356 1.49996 0.2560034
v -0.03011627 1.49996 0.2560034
v -0.03011627 1.50815 0.2022111
v -0.02358356 1.50815 0.2022111
v -0.02358356 1.50815 0.2022111
v -0.03011627 1.50815 0.2022111
v -0.03011627 -0.3240146 -0.07675666
v -0.02358356 -0.3240146 -0.07675666
v -0.02358356 -0.3240146 -0.07675666
v -0.03011627 -0.3240146 -0.07675666
v -0.03011627 -0.332205 -0.02296487
v -0.02358356 -0.332205 -0.02296487
v -0.03011627 -0.332205 -0.02296487
v -0.03011627 -0.3240146 -0.07675666
v -0.03011627 1.50815 0.2022111
v -0.03011627 1.49996 0.2560034
v -0.02358356 -0.3240146 -0.07675666
v -0.02358356 -0.332205 -0.02296487
v -0.02358356 1.49996 0.2560034
v -0.02358356 1.50815 0.2022111
vt 0.3896484 0.6132813
vt 0.3896484 0.6157227
vt 0.9853516 0.6157227
vt 0.9853516 0.6132813
vt 0.3796387 0.6171875
vt 0.3796387 0.6196289
vt 0.3896484 0.6196289
vt 0.3896484 0.6171875
vt 0.3896484 0.6171875
vt 0.3896484 0.6196289
vt 0.9853516 0.6196289
vt 0.9853516 0.6171875
vt 0.3796387 0.6132813
vt 0.3796387 0.6157227
vt 0.3896484 0.6157227
vt 0.3896484 0.6132813
vt 0.3496094 0.5927734
vt 0.3496094 0.6118164
vt 0.9858398 0.6118164
vt 0.9858398 0.5927734
vt 0.3496094 0.5927734
vt 0.3496094 0.6118164
vt 0.9858398 0.6118164
vt 0.9858398 0.5927734
vn 0 -0.1505127 0.9887695
vn 0 -0.1505127 0.9887695
vn 0 -0.1505127 0.9887695
vn 0 -0.1505127 0.9887695
vn 0 0.9887695 0.1505127
vn 0 0.9887695 0.1505127
vn 0 0.9887695 0.1505127
vn 0 0.9887695 0.1505127
vn 0 0.1505127 -0.9887695
vn 0 0.1505127 -0.9887695
vn 0 0.1505127 -0.9887695
vn 0 0.1505127 -0.9887695
vn 0 -0.9887695 -0.1505127
vn 0 -0.9887695 -0.1505127
vn 0 -0.9887695 -0.1505127
vn 0 -0.9887695 -0.1505127
vn -1 0 0
vn -1 0 0
vn -1 0 0
vn -1 0 0
vn 1 0 0
vn 1 0 0
vn 1 0 0
vn 1 0 0
g plank5_0
f 3/3/3 2/2/2 1/1/1
f 4/4/4 3/3/3 1/1/1
f 7/7/7 6/6/6 5/5/5
f 8/8/8 7/7/7 5/5/5
f 11/11/11 10/10/10 9/9/9
f 12/12/12 11/11/11 9/9/9
f 15/15/15 14/14/14 13/13/13
f 16/16/16 15/15/15 13/13/13
f 19/19/19 18/18/18 17/17/17
f 20/20/20 19/19/19 17/17/17
f 23/23/23 22/22/22 21/21/21
f 24/24/24 23/23/23 21/21/21
