g pointer_marker_V6_L0
v 7.450581E-09 0.1579999 -0.024
v 0.03996938 0.1450131 0.024
v 7.450581E-09 0.1579999 0.024
v 0.03996938 0.1450131 -0.024
v 0.06467185 0.1110131 0.024
v 0.06467185 0.1110131 -0.024
v 0.06467185 0.06898678 0.024
v 0.06467185 0.06898678 -0.024
v 0.03996941 0.03498679 0.024
v 0.03996941 0.03498679 -0.024
v 1.339533E-08 0.02199994 0.024
v 1.339533E-08 0.02199994 -0.024
v -0.08999996 0.03892461 -0.02400001
v -7.399338E-09 -0.05107534 -0.024
v -7.399338E-09 -0.05107534 0.024
v -0.08999996 0.03892461 0.02400001
v 1.339533E-08 0.02199994 -0.024
v -0.03996939 0.03498678 0.024
v 1.339533E-08 0.02199994 0.024
v -0.03996939 0.03498678 -0.024
v -0.06467184 0.06898679 0.024
v -0.06467184 0.06898679 -0.024
v -0.06467184 0.1110131 0.024
v -0.06467184 0.1110131 -0.024
v -0.03996939 0.1450131 0.024
v -0.03996939 0.1450131 -0.024
v 7.450581E-09 0.1579999 0.024
v 7.450581E-09 0.1579999 -0.024
v 0.08999997 0.03892465 -0.02399999
v 0 -0.18 -0.02399999
v 0 -0.18 0.02399999
v 0.08999997 0.03892465 0.02399999
v 0 -0.18 -0.02399999
v -0.08999996 0.03892461 -0.02400001
v -0.08999996 0.03892461 0.02400001
v 0 -0.18 0.02399999
v 0 -0.18 0.02399999
v -1.274864E-11 -0.1642198 0.02999999
v 0.07306071 0.0135001 0.02999999
v 0.08999997 0.03892465 0.02399999
v 0.08999997 0.03892465 0.02399999
v 0.07306071 0.0135001 0.02999999
v -7.221311E-09 -0.05956062 0.03
v -7.399338E-09 -0.05107534 0.024
v -7.399338E-09 -0.05107534 0.024
v -7.221311E-09 -0.05956062 0.03
v -0.07306069 0.01350007 0.03
v -0.08999996 0.03892461 0.02400001
v -0.08999996 0.03892461 0.02400001
v -0.07306069 0.01350007 0.03
v -1.274864E-11 -0.1642198 0.02999999
v 0 -0.18 0.02399999
v -1.274864E-11 -0.1642198 0.02999999
v -0.07306069 0.01350007 0.03
v -7.221311E-09 -0.05956062 0.03
v 0.07306071 0.0135001 0.02999999
v -0.03626119 0.04009068 0.03
v 0.03626121 0.0400907 0.03
v 1.2581E-08 0.02830871 0.03
v -0.05867184 0.07093631 0.03
v 0.05867185 0.0709363 0.03
v -0.05867184 0.1090636 0.03
v 0.05867185 0.1090636 0.03
v -0.03626119 0.1399092 0.03
v 0.03626118 0.1399092 0.03
v 9.059559E-09 0.1516912 0.03
v 0 -0.18 -0.02399999
v 0.08999997 0.03892465 -0.02399999
v 0.07306071 0.0135001 -0.02999999
v -1.274864E-11 -0.1642198 -0.02999999
v 0.08999997 0.03892465 -0.02399999
v -7.399338E-09 -0.05107534 -0.024
v -7.221311E-09 -0.05956062 -0.03
v 0.07306071 0.0135001 -0.02999999
v -7.399338E-09 -0.05107534 -0.024
v -0.08999996 0.03892461 -0.02400001
v -0.07306069 0.01350007 -0.03
v -7.221311E-09 -0.05956062 -0.03
v -0.08999996 0.03892461 -0.02400001
v 0 -0.18 -0.02399999
v -1.274864E-11 -0.1642198 -0.02999999
v -0.07306069 0.01350007 -0.03
v -1.274864E-11 -0.1642198 -0.02999999
v -7.221311E-09 -0.05956062 -0.03
v -0.07306069 0.01350007 -0.03
v 0.07306071 0.0135001 -0.02999999
v -0.03626119 0.04009068 -0.03
v 1.2581E-08 0.02830871 -0.03
v 0.03626121 0.0400907 -0.03
v -0.05867184 0.07093631 -0.03
v 0.05867185 0.0709363 -0.03
v -0.05867184 0.1090636 -0.03
v 0.05867185 0.1090636 -0.03
v -0.03626119 0.1399092 -0.03
v 0.03626118 0.1399092 -0.03
v 9.059559E-09 0.1516912 -0.03
v -7.399338E-09 -0.05107534 -0.024
v 0.08999997 0.03892465 -0.02399999
v 0.08999997 0.03892465 0.02399999
v -7.399338E-09 -0.05107534 0.024
v -0.03996939 0.03498678 0.024
v -0.03626119 0.04009068 0.03
v 1.2581E-08 0.02830871 0.03
v 1.339533E-08 0.02199994 0.024
v -0.06467184 0.06898679 0.024
v 0.03626121 0.0400907 0.03
v -0.05867184 0.07093631 0.03
v 0.03996941 0.03498679 0.024
v -0.06467184 0.1110131 0.024
v 0.05867185 0.0709363 0.03
v -0.05867184 0.1090636 0.03
v 0.06467185 0.06898678 0.024
v -0.03996939 0.1450131 0.024
v 0.05867185 0.1090636 0.03
v -0.03626119 0.1399092 0.03
v 0.06467185 0.1110131 0.024
v 7.450581E-09 0.1579999 0.024
v 0.03626118 0.1399092 0.03
v 9.059559E-09 0.1516912 0.03
v 0.03996938 0.1450131 0.024
v -0.03996939 0.03498678 -0.024
v 1.2581E-08 0.02830871 -0.03
v -0.03626119 0.04009068 -0.03
v 1.339533E-08 0.02199994 -0.024
v -0.06467184 0.06898679 -0.024
v 0.03626121 0.0400907 -0.03
v -0.05867184 0.07093631 -0.03
v 0.03996941 0.03498679 -0.024
v -0.06467184 0.1110131 -0.024
v 0.05867185 0.0709363 -0.03
v -0.05867184 0.1090636 -0.03
v 0.06467185 0.06898678 -0.024
v -0.03996939 0.1450131 -0.024
v 0.05867185 0.1090636 -0.03
v -0.03626119 0.1399092 -0.03
v 0.06467185 0.1110131 -0.024
v 7.450581E-09 0.1579999 -0.024
v 0.03626118 0.1399092 -0.03
v 9.059559E-09 0.1516912 -0.03
v 0.03996938 0.1450131 -0.024
vt 0.8922146 0.03518142
vt 0.9899465 0.1207501
vt 0.9899465 0.03518142
vt 0.8922146 0.1207501
vt 0.9899465 0.2063192
vt 0.8922146 0.2063192
vt 0.9899465 0.2918881
vt 0.8922147 0.2918881
vt 0.9899465 0.3774571
vt 0.8922147 0.377457
vt 0.9899465 0.4630259
vt 0.8922146 0.4630259
vt 0.7743801 0.4920007
vt 0.77438 0.751151
vt 0.8721116 0.751151
vt 0.8721119 0.4920008
vt 0.01005139 0.9269567
vt 0.09562018 0.829225
vt 0.01005124 0.8292251
vt 0.09562024 0.9269567
vt 0.1811891 0.829225
vt 0.1811891 0.9269567
vt 0.2667581 0.8292249
vt 0.2667581 0.9269566
vt 0.3523268 0.8292249
vt 0.3523268 0.9269566
vt 0.4378958 0.8292249
vt 0.4378958 0.9269565
vt 0.7542772 0.4919941
vt 0.7542772 0.01004939
vt 0.6565453 0.01004939
vt 0.6565453 0.4919941
vt 0.77438 0.01005583
vt 0.7743801 0.4920007
vt 0.8721119 0.4920008
vt 0.8721119 0.01005583
vt 0.4350163 0.4990288
vt 0.4350163 0.4639904
vt 0.2727924 0.0693813
vt 0.2351804 0.01292868
vt 0.2351804 0.01292868
vt 0.2727924 0.0693813
vt 0.4350163 0.2316053
vt 0.4350163 0.2127646
vt 0.4350163 0.2127646
vt 0.4350163 0.2316053
vt 0.5972402 0.06938142
vt 0.6348521 0.01292868
vt 0.6348521 0.01292868
vt 0.5972402 0.06938142
vt 0.4350163 0.4639904
vt 0.4350163 0.4990288
vt 0.4350163 0.4639904
vt 0.5972402 0.06938142
vt 0.4350163 0.2316053
vt 0.2727924 0.0693813
vt 0.1293988 0.4271436
vt 0.2904274 0.4271436
vt 0.2099131 0.4009829
vt 0.07963818 0.4956332
vt 0.340188 0.4956332
vt 0.07963818 0.580291
vt 0.340188 0.580291
vt 0.1293987 0.6487805
vt 0.2904274 0.6487805
vt 0.2099131 0.6749413
vt 0.2122614 0.01004955
vt 0.01242542 0.4961496
vt 0.0500375 0.4396971
vt 0.2122614 0.04508784
vt 0.01242542 0.4961496
vt 0.2122614 0.2963137
vt 0.2122614 0.2774731
vt 0.0500375 0.4396971
vt 0.2122614 0.2963137
vt 0.4120972 0.4961496
vt 0.3744853 0.4396968
vt 0.2122614 0.2774731
vt 0.4120972 0.4961496
vt 0.2122614 0.01004955
vt 0.2122614 0.04508784
vt 0.3744853 0.4396968
vt 0.2122614 0.04508784
vt 0.2122614 0.2774731
vt 0.3744853 0.4396968
vt 0.0500375 0.4396971
vt 0.4106568 0.7844656
vt 0.4911712 0.8106263
vt 0.5716854 0.7844656
vt 0.3608963 0.715976
vt 0.621446 0.715976
vt 0.3608963 0.6313183
vt 0.621446 0.6313183
vt 0.4106568 0.5628285
vt 0.5716854 0.5628285
vt 0.4911711 0.5366679
vt 0.7542771 0.7511444
vt 0.7542772 0.4919941
vt 0.6565453 0.4919941
vt 0.6565453 0.7511444
vt 0.1211651 0.4158109
vt 0.1293988 0.4271436
vt 0.2099131 0.4009829
vt 0.2099131 0.3869749
vt 0.06631578 0.4913045
vt 0.2904274 0.4271436
vt 0.07963818 0.4956332
vt 0.2986611 0.4158109
vt 0.06631578 0.5846196
vt 0.340188 0.4956332
vt 0.07963818 0.580291
vt 0.3535103 0.4913045
vt 0.1211651 0.6601132
vt 0.340188 0.580291
vt 0.1293987 0.6487805
vt 0.3535103 0.5846196
vt 0.2099131 0.6889491
vt 0.2904274 0.6487805
vt 0.2099131 0.6749413
vt 0.2986611 0.6601133
vt 0.4024231 0.7957983
vt 0.4911712 0.8106263
vt 0.4106568 0.7844656
vt 0.4911712 0.8246342
vt 0.3475739 0.7203047
vt 0.5716854 0.7844656
vt 0.3608963 0.715976
vt 0.5799192 0.7957983
vt 0.3475739 0.6269895
vt 0.621446 0.715976
vt 0.3608963 0.6313183
vt 0.6347685 0.7203047
vt 0.4024231 0.5514959
vt 0.621446 0.6313183
vt 0.4106568 0.5628285
vt 0.6347685 0.6269895
vt 0.4911711 0.5226599
vt 0.5716854 0.5628285
vt 0.4911711 0.5366679
vt 0.579919 0.5514959
vn 0 1 0
vn 0.5877851 0.8090171 0
vn 0 1 0
vn 0.5877851 0.8090171 0
vn 0.9510565 0.3090171 0
vn 0.9510565 0.3090171 0
vn 0.9510565 -0.309017 0
vn 0.9510565 -0.309017 0
vn 0.5877854 -0.809017 0
vn 0.5877854 -0.809017 0
vn 0 -1 0
vn 0 -1 0
vn 0.7071068 0.7071068 0
vn 0.7071068 0.7071068 0
vn 0.7071068 0.7071068 0
vn 0.7071068 0.7071068 0
vn 0 -1 0
vn -0.5877852 -0.809017 0
vn 0 -1 0
vn -0.5877852 -0.809017 0
vn -0.9510565 -0.309017 0
vn -0.9510565 -0.309017 0
vn -0.9510565 0.309017 0
vn -0.9510565 0.309017 0
vn -0.5877853 0.809017 0
vn -0.5877853 0.809017 0
vn 0 1 0
vn 0 1 0
vn 0.9248944 -0.3802243 0
vn 0.9248944 -0.3802243 0
vn 0.9248944 -0.3802243 0
vn 0.9248944 -0.3802243 0
vn -0.9248944 -0.3802243 0
vn -0.9248944 -0.3802243 0
vn -0.9248944 -0.3802243 0
vn -0.9248944 -0.3802243 0
vn 0.653999 -0.2688592 0.7071067
vn 0.653999 -0.2688592 0.7071067
vn 0.653999 -0.2688592 0.7071067
vn 0.653999 -0.2688592 0.7071067
vn -0.5 0.4999998 0.7071068
vn -0.5 0.4999998 0.7071068
vn -0.5 0.4999998 0.7071068
vn -0.5 0.4999998 0.7071068
vn 0.5 0.5 0.7071066
vn 0.5 0.5 0.7071066
vn 0.5 0.5 0.7071066
vn 0.5 0.5 0.7071066
vn -0.6539989 -0.2688591 0.7071069
vn -0.6539989 -0.2688591 0.7071069
vn -0.6539989 -0.2688591 0.7071069
vn -0.6539989 -0.2688591 0.7071069
vn 0 0 1
vn 0 0 1
vn 0 0 1
vn 0 0 1
vn 0 0 1
vn 0 0 1
vn 0 0 1
vn 0 0 1
vn 0 0 1
vn 0 0 1
vn 0 0 1
vn 0 0 1
vn 0 0 1
vn 0 0 1
vn 0.653999 -0.2688592 -0.7071067
vn 0.653999 -0.2688592 -0.7071067
vn 0.653999 -0.2688592 -0.7071067
vn 0.653999 -0.2688592 -0.7071067
vn -0.5 0.4999998 -0.7071069
vn -0.5 0.4999998 -0.7071069
vn -0.5 0.4999998 -0.7071069
vn -0.5 0.4999998 -0.7071069
vn 0.5 0.5 -0.7071066
vn 0.5 0.5 -0.7071066
vn 0.5 0.5 -0.7071066
vn 0.5 0.5 -0.7071066
vn -0.6539989 -0.2688591 -0.7071069
vn -0.6539989 -0.2688591 -0.7071069
vn -0.6539989 -0.2688591 -0.7071069
vn -0.6539989 -0.2688591 -0.7071069
vn 0 0 -1
vn 0 0 -1
vn 0 0 -1
vn 0 0 -1
vn 0 0 -1
vn 0 0 -1
vn 0 0 -1
vn 0 0 -1
vn 0 0 -1
vn 0 0 -1
vn 0 0 -1
vn 0 0 -1
vn 0 0 -1
vn 0 0 -1
vn -0.7071068 0.7071067 0
vn -0.7071068 0.7071067 0
vn -0.7071068 0.7071067 0
vn -0.7071068 0.7071067 0
vn -0.4050731 -0.5575356 0.7246169
vn -0.4050732 -0.5575356 0.7246169
vn 0 -0.6891519 0.7246169
vn 0 -0.6891519 0.7246169
vn -0.6554223 -0.2129597 0.7246169
vn 0.4050731 -0.5575355 0.7246171
vn -0.6554223 -0.2129597 0.7246169
vn 0.4050732 -0.5575355 0.7246171
vn -0.6554223 0.2129595 0.7246171
vn 0.6554223 -0.2129595 0.7246171
vn -0.6554223 0.2129594 0.7246171
vn 0.6554223 -0.2129595 0.724617
vn -0.4050733 0.5575354 0.7246171
vn 0.6554223 0.2129595 0.7246169
vn -0.4050733 0.5575355 0.7246171
vn 0.6554223 0.2129595 0.7246169
vn 0 0.6891519 0.7246169
vn 0.405073 0.5575356 0.724617
vn 0 0.6891518 0.7246169
vn 0.4050731 0.5575356 0.724617
vn -0.4050732 -0.5575356 -0.7246169
vn 0 -0.6891519 -0.7246168
vn -0.4050732 -0.5575356 -0.7246169
vn 0 -0.689152 -0.7246168
vn -0.6554223 -0.2129597 -0.724617
vn 0.4050732 -0.5575355 -0.724617
vn -0.6554223 -0.2129597 -0.724617
vn 0.4050732 -0.5575355 -0.7246169
vn -0.6554223 0.2129595 -0.7246171
vn 0.6554223 -0.2129596 -0.7246171
vn -0.6554223 0.2129595 -0.7246171
vn 0.6554223 -0.2129596 -0.724617
vn -0.4050733 0.5575354 -0.724617
vn 0.6554223 0.2129596 -0.7246171
vn -0.4050733 0.5575354 -0.724617
vn 0.6554223 0.2129595 -0.7246169
vn 0 0.6891518 -0.7246169
vn 0.405073 0.5575356 -0.724617
vn 0 0.6891518 -0.7246169
vn 0.4050731 0.5575356 -0.724617
g pointer_marker_V6_L0_0
f 3/3/3 2/2/2 1/1/1
f 2/2/2 4/4/4 1/1/1
f 2/2/2 5/5/5 4/4/4
f 5/5/5 6/6/6 4/4/4
f 5/5/5 7/7/7 6/6/6
f 7/7/7 8/8/8 6/6/6
f 7/7/7 9/9/9 8/8/8
f 9/9/9 10/10/10 8/8/8
f 9/9/9 11/11/11 10/10/10
f 11/11/11 12/12/12 10/10/10
f 15/15/15 14/14/14 13/13/13
f 16/16/16 15/15/15 13/13/13
f 19/19/19 18/18/18 17/17/17
f 18/18/18 20/20/20 17/17/17
f 18/18/18 21/21/21 20/20/20
f 21/21/21 22/22/22 20/20/20
f 21/21/21 23/23/23 22/22/22
f 23/23/23 24/24/24 22/22/22
f 23/23/23 25/25/25 24/24/24
f 25/25/25 26/26/26 24/24/24
f 25/25/25 27/27/27 26/26/26
f 27/27/27 28/28/28 26/26/26
f 31/31/31 30/30/30 29/29/29
f 32/32/32 31/31/31 29/29/29
f 35/35/35 34/34/34 33/33/33
f 36/36/36 35/35/35 33/33/33
f 39/39/39 38/38/38 37/37/37
f 40/40/40 39/39/39 37/37/37
f 43/43/43 42/42/42 41/41/41
f 44/44/44 43/43/43 41/41/41
f 47/47/47 46/46/46 45/45/45
f 48/48/48 47/47/47 45/45/45
f 51/51/51 50/50/50 49/49/49
f 52/52/52 51/51/51 49/49/49
f 55/55/55 54/54/54 53/53/53
f 56/56/56 55/55/55 53/53/53
f 59/59/59 58/58/58 57/57/57
f 57/57/57 58/58/58 60/60/60
f 58/58/58 61/61/61 60/60/60
f 60/60/60 61/61/61 62/62/62
f 61/61/61 63/63/63 62/62/62
f 64/64/64 62/62/62 63/63/63
f 65/65/65 64/64/64 63/63/63
f 66/66/66 64/64/64 65/65/65
f 69/69/69 68/68/68 67/67/67
f 70/70/70 69/69/69 67/67/67
f 73/73/73 72/72/72 71/71/71
f 74/74/74 73/73/73 71/71/71
f 77/77/77 76/76/76 75/75/75
f 78/78/78 77/77/77 75/75/75
f 81/81/81 80/80/80 79/79/79
f 82/82/82 81/81/81 79/79/79
f 85/85/85 84/84/84 83/83/83
f 84/84/84 86/86/86 83/83/83
f 89/89/89 88/88/88 87/87/87
f 89/89/89 87/87/87 90/90/90
f 91/91/91 89/89/89 90/90/90
f 91/91/91 90/90/90 92/92/92
f 93/93/93 91/91/91 92/92/92
f 92/92/92 94/94/94 93/93/93
f 94/94/94 95/95/95 93/93/93
f 94/94/94 96/96/96 95/95/95
f 99/99/99 98/98/98 97/97/97
f 100/100/100 99/99/99 97/97/97
f 103/103/103 102/102/102 101/101/101
f 104/104/104 103/103/103 101/101/101
f 101/101/101 102/102/102 105/105/105
f 106/106/106 103/103/103 104/104/104
f 102/102/102 107/107/107 105/105/105
f 108/108/108 106/106/106 104/104/104
f 105/105/105 107/107/107 109/109/109
f 110/110/110 106/106/106 108/108/108
f 107/107/107 111/111/111 109/109/109
f 112/112/112 110/110/110 108/108/108
f 109/109/109 111/111/111 113/113/113
f 114/114/114 110/110/110 112/112/112
f 111/111/111 115/115/115 113/113/113
f 116/116/116 114/114/114 112/112/112
f 113/113/113 115/115/115 117/117/117
f 118/118/118 114/114/114 116/116/116
f 115/115/115 119/119/119 117/117/117
f 120/120/120 118/118/118 116/116/116
f 117/117/117 119/119/119 120/120/120
f 119/119/119 118/118/118 120/120/120
f 123/123/123 122/122/122 121/121/121
f 122/122/122 124/124/124 121/121/121
f 123/123/123 121/121/121 125/125/125
f 122/122/122 126/126/126 124/124/124
f 127/127/127 123/123/123 125/125/125
f 126/126/126 128/128/128 124/124/124
f 127/127/127 125/125/125 129/129/129
f 126/126/126 130/130/130 128/128/128
f 131/131/131 127/127/127 129/129/129
f 130/130/130 132/132/132 128/128/128
f 131/131/131 129/129/129 133/133/133
f 130/130/130 134/134/134 132/132/132
f 135/135/135 131/131/131 133/133/133
f 134/134/134 136/136/136 132/132/132
f 135/135/135 133/133/133 137/137/137
f 134/134/134 138/138/138 136/136/136
f 139/139/139 135/135/135 137/137/137
f 138/138/138 140/140/140 136/136/136
f 139/139/139 137/137/137 140/140/140
f 138/138/138 139/139/139 140/140/140
