g pointer_marker_V5_L0
v 0.07551469 0.08399995 0.02999999
v -7.577366E-09 0.008485252 0.03
v -0.07551468 0.08399992 0.03
v 0.07551469 0.08399995 -0.02999999
v -0.07551468 0.08399992 -0.03
v -7.577366E-09 0.008485252 -0.03
v 0.08999997 0.08999996 -0.02399999
v -7.399338E-09 -2.980232E-08 -0.024
v -7.399338E-09 -2.980232E-08 0.024
v 0.08999997 0.08999996 0.02399999
v -0.08999996 0.03892461 -0.02400001
v -7.399338E-09 -0.05107534 -0.024
v -7.399338E-09 -0.05107534 0.024
v -0.08999996 0.03892461 0.02400001
v 0 -0.18 -0.02399999
v -0.08999996 0.03892461 -0.02400001
v -0.08999996 0.03892461 0.02400001
v 0 -0.18 0.02399999
v 0.08999997 0.03892465 -0.02399999
v 0 -0.18 -0.02399999
v 0 -0.18 0.02399999
v 0.08999997 0.03892465 0.02399999
v -7.399338E-09 -2.980232E-08 -0.024
v -0.08999996 0.08999992 -0.02400001
v -0.08999996 0.08999992 0.02400001
v -7.399338E-09 -2.980232E-08 0.024
v -0.08999996 0.08999992 -0.02400001
v 0.08999997 0.08999996 -0.02399999
v 0.08999997 0.08999996 0.02399999
v -0.08999996 0.08999992 0.02400001
v 0 -0.18 0.02399999
v -1.274864E-11 -0.1642198 0.02999999
v 0.07306071 0.0135001 0.02999999
v 0.08999997 0.03892465 0.02399999
v 0.08999997 0.03892465 0.02399999
v 0.07306071 0.0135001 0.02999999
v -7.221311E-09 -0.05956062 0.03
v -7.399338E-09 -0.05107534 0.024
v -7.399338E-09 -0.05107534 0.024
v -7.221311E-09 -0.05956062 0.03
v -0.07306069 0.01350007 0.03
v -0.08999996 0.03892461 0.02400001
v -0.08999996 0.03892461 0.02400001
v -0.07306069 0.01350007 0.03
v -1.274864E-11 -0.1642198 0.02999999
v 0 -0.18 0.02399999
v -1.274864E-11 -0.1642198 0.02999999
v -0.07306069 0.01350007 0.03
v -7.221311E-09 -0.05956062 0.03
v 0.07306071 0.0135001 0.02999999
v 0.08999997 0.08999996 0.02399999
v 0.07551469 0.08399995 0.02999999
v -0.07551468 0.08399992 0.03
v -0.08999996 0.08999992 0.02400001
v -0.08999996 0.08999992 0.02400001
v -0.07551468 0.08399992 0.03
v -7.577366E-09 0.008485252 0.03
v -7.399338E-09 -2.980232E-08 0.024
v -7.399338E-09 -2.980232E-08 0.024
v -7.577366E-09 0.008485252 0.03
v 0.07551469 0.08399995 0.02999999
v 0.08999997 0.08999996 0.02399999
v 0 -0.18 -0.02399999
v 0.08999997 0.03892465 -0.02399999
v 0.07306071 0.0135001 -0.02999999
v -1.274864E-11 -0.1642198 -0.02999999
v 0.08999997 0.03892465 -0.02399999
v -7.399338E-09 -0.05107534 -0.024
v -7.221311E-09 -0.05956062 -0.03
v 0.07306071 0.0135001 -0.02999999
v -7.399338E-09 -0.05107534 -0.024
v -0.08999996 0.03892461 -0.02400001
v -0.07306069 0.01350007 -0.03
v -7.221311E-09 -0.05956062 -0.03
v -0.08999996 0.03892461 -0.02400001
v 0 -0.18 -0.02399999
v -1.274864E-11 -0.1642198 -0.02999999
v -0.07306069 0.01350007 -0.03
v -1.274864E-11 -0.1642198 -0.02999999
v -7.221311E-09 -0.05956062 -0.03
v -0.07306069 0.01350007 -0.03
v 0.07306071 0.0135001 -0.02999999
v 0.08999997 0.08999996 -0.02399999
v -0.08999996 0.08999992 -0.02400001
v -0.07551468 0.08399992 -0.03
v 0.07551469 0.08399995 -0.02999999
v -0.08999996 0.08999992 -0.02400001
v -7.399338E-09 -2.980232E-08 -0.024
v -7.577366E-09 0.008485252 -0.03
v -0.07551468 0.08399992 -0.03
v -7.399338E-09 -2.980232E-08 -0.024
v 0.08999997 0.08999996 -0.02399999
v 0.07551469 0.08399995 -0.02999999
v -7.577366E-09 0.008485252 -0.03
v -7.399338E-09 -0.05107534 -0.024
v 0.08999997 0.03892465 -0.02399999
v 0.08999997 0.03892465 0.02399999
v -7.399338E-09 -0.05107534 0.024
vt 0.04497782 0.6837355
vt 0.2179682 0.8567261
vt 0.3909589 0.6837357
vt 0.232914 0.6324177
vt 0.5788948 0.6324175
vt 0.4059046 0.4594272
vt 0.6386583 0.6743714
vt 0.6386582 0.9495628
vt 0.7424394 0.9495628
vt 0.7424393 0.6743714
vt 0.8662195 0.2851917
vt 0.8662196 0.01000042
vt 0.7624387 0.01000035
vt 0.7624386 0.2851916
vt 0.8662196 0.7969685
vt 0.8662195 0.2851917
vt 0.7624386 0.2851916
vt 0.7624385 0.7969683
vt 0.8862192 0.2851917
vt 0.8862192 0.7969683
vt 0.9900004 0.7969683
vt 0.9900002 0.2851917
vt 0.6386582 0.01000035
vt 0.6386582 0.2851918
vt 0.7424394 0.2851918
vt 0.7424394 0.01000043
vt 0.6386582 0.2851918
vt 0.6386583 0.6743714
vt 0.7424393 0.6743714
vt 0.7424394 0.2851918
vt 0.2202476 0.5185333
vt 0.2202476 0.482085
vt 0.05149455 0.07159382
vt 0.01236866 0.01286924
vt 0.01236866 0.01286924
vt 0.05149455 0.07159382
vt 0.2202476 0.2403469
vt 0.2202475 0.2207477
vt 0.2202475 0.2207477
vt 0.2202476 0.2403469
vt 0.3890005 0.07159377
vt 0.428126 0.0128692
vt 0.428126 0.0128692
vt 0.3890005 0.07159377
vt 0.2202476 0.482085
vt 0.2202476 0.5185333
vt 0.2202476 0.482085
vt 0.3890005 0.07159377
vt 0.2202476 0.2403469
vt 0.05149455 0.07159382
vt 0.01179455 0.6699908
vt 0.04497782 0.6837355
vt 0.3909589 0.6837357
vt 0.4241418 0.6699908
vt 0.4241418 0.6699908
vt 0.3909589 0.6837357
vt 0.2179682 0.8567261
vt 0.2179682 0.8761641
vt 0.2179682 0.8761641
vt 0.2179682 0.8567261
vt 0.04497782 0.6837355
vt 0.01179455 0.6699908
vt 0.4098274 0.1099959
vt 0.2019485 0.6156605
vt 0.2410744 0.5569355
vt 0.4098274 0.1464443
vt 0.2019485 0.6156605
vt 0.4098273 0.4077816
vt 0.4098273 0.3881825
vt 0.2410744 0.5569355
vt 0.4098273 0.4077816
vt 0.617706 0.6156605
vt 0.5785802 0.5569355
vt 0.4098273 0.3881825
vt 0.617706 0.6156605
vt 0.4098274 0.1099959
vt 0.4098274 0.1464443
vt 0.5785802 0.5569355
vt 0.4098274 0.1464443
vt 0.4098273 0.3881825
vt 0.5785802 0.5569355
vt 0.2410744 0.5569355
vt 0.1997309 0.6461625
vt 0.6120782 0.6461625
vt 0.5788948 0.6324175
vt 0.232914 0.6324177
vt 0.6120782 0.6461625
vt 0.4059047 0.4399891
vt 0.4059046 0.4594272
vt 0.5788948 0.6324175
vt 0.4059047 0.4399891
vt 0.1997309 0.6461625
vt 0.232914 0.6324177
vt 0.4059046 0.4594272
vt 0.8862192 0.01000035
vt 0.8862192 0.2851917
vt 0.9900002 0.2851917
vt 0.9900004 0.01000043
vn 0 0 1
vn 0 0 1
vn 0 0 1
vn 0 0 -1
vn 0 0 -1
vn 0 0 -1
vn 0.7071068 -0.7071067 0
vn 0.7071068 -0.7071067 0
vn 0.7071068 -0.7071067 0
vn 0.7071068 -0.7071067 0
vn 0.7071068 0.7071068 0
vn 0.7071068 0.7071068 0
vn 0.7071068 0.7071068 0
vn 0.7071068 0.7071068 0
vn -0.9248944 -0.3802243 0
vn -0.9248944 -0.3802243 0
vn -0.9248944 -0.3802243 0
vn -0.9248944 -0.3802243 0
vn 0.9248944 -0.3802243 0
vn 0.9248944 -0.3802243 0
vn 0.9248944 -0.3802243 0
vn 0.9248944 -0.3802243 0
vn -0.7071068 -0.7071068 0
vn -0.7071068 -0.7071068 0
vn -0.7071068 -0.7071068 0
vn -0.7071068 -0.7071068 0
vn 0 1 0
vn 0 1 0
vn 0 1 0
vn 0 1 0
vn 0.653999 -0.2688592 0.7071067
vn 0.653999 -0.2688592 0.7071067
vn 0.653999 -0.2688592 0.7071067
vn 0.653999 -0.2688592 0.7071067
vn -0.5 0.4999998 0.7071068
vn -0.5 0.4999998 0.7071068
vn -0.5 0.4999998 0.7071068
vn -0.5 0.4999998 0.7071068
vn 0.5 0.5 0.7071066
vn 0.5 0.5 0.7071066
vn 0.5 0.5 0.7071066
vn 0.5 0.5 0.7071066
vn -0.6539989 -0.2688591 0.7071069
vn -0.6539989 -0.2688591 0.7071069
vn -0.6539989 -0.2688591 0.7071069
vn -0.6539989 -0.2688591 0.7071069
vn 0 0 1
vn 0 0 1
vn 0 0 1
vn 0 0 1
vn 0 0.7071068 0.7071068
vn 0 0.7071068 0.7071068
vn 0 0.7071068 0.7071068
vn 0 0.7071068 0.7071068
vn -0.4999999 -0.5000001 0.7071068
vn -0.4999999 -0.5000001 0.7071068
vn -0.4999999 -0.5000001 0.7071068
vn -0.4999999 -0.5000001 0.7071068
vn 0.5000002 -0.5000002 0.7071064
vn 0.5000002 -0.5000002 0.7071064
vn 0.5000002 -0.5000002 0.7071064
vn 0.5000002 -0.5000002 0.7071064
vn 0.653999 -0.2688592 -0.7071067
vn 0.653999 -0.2688592 -0.7071067
vn 0.653999 -0.2688592 -0.7071067
vn 0.653999 -0.2688592 -0.7071067
vn -0.5 0.4999998 -0.7071069
vn -0.5 0.4999998 -0.7071069
vn -0.5 0.4999998 -0.7071069
vn -0.5 0.4999998 -0.7071069
vn 0.5 0.5 -0.7071066
vn 0.5 0.5 -0.7071066
vn 0.5 0.5 -0.7071066
vn 0.5 0.5 -0.7071066
vn -0.6539989 -0.2688591 -0.7071069
vn -0.6539989 -0.2688591 -0.7071069
vn -0.6539989 -0.2688591 -0.7071069
vn -0.6539989 -0.2688591 -0.7071069
vn 0 0 -1
vn 0 0 -1
vn 0 0 -1
vn 0 0 -1
vn 0 0.7071068 -0.7071068
vn 0 0.7071068 -0.7071068
vn 0 0.7071068 -0.7071068
vn 0 0.7071068 -0.7071068
vn -0.4999999 -0.5000001 -0.7071068
vn -0.4999999 -0.5000001 -0.7071068
vn -0.4999999 -0.5000001 -0.7071068
vn -0.4999999 -0.5000001 -0.7071068
vn 0.5000002 -0.5000002 -0.7071065
vn 0.5000002 -0.5000002 -0.7071065
vn 0.5000002 -0.5000002 -0.7071065
vn 0.5000002 -0.5000002 -0.7071065
vn -0.7071068 0.7071067 0
vn -0.7071068 0.7071067 0
vn -0.7071068 0.7071067 0
vn -0.7071068 0.7071067 0
g pointer_marker_V5_L0_0
f 3/3/3 2/2/2 1/1/1
f 6/6/6 5/5/5 4/4/4
f 9/9/9 8/8/8 7/7/7
f 10/10/10 9/9/9 7/7/7
f 13/13/13 12/12/12 11/11/11
f 14/14/14 13/13/13 11/11/11
f 17/17/17 16/16/16 15/15/15
f 18/18/18 17/17/17 15/15/15
f 21/21/21 20/20/20 19/19/19
f 22/22/22 21/21/21 19/19/19
f 25/25/25 24/24/24 23/23/23
f 26/26/26 25/25/25 23/23/23
f 29/29/29 28/28/28 27/27/27
f 30/30/30 29/29/29 27/27/27
f 33/33/33 32/32/32 31/31/31
f 34/34/34 33/33/33 31/31/31
f 37/37/37 36/36/36 35/35/35
f 38/38/38 37/37/37 35/35/35
f 41/41/41 40/40/40 39/39/39
f 42/42/42 41/41/41 39/39/39
f 45/45/45 44/44/44 43/43/43
f 46/46/46 45/45/45 43/43/43
f 49/49/49 48/48/48 47/47/47
f 50/50/50 49/49/49 47/47/47
f 53/53/53 52/52/52 51/51/51
f 54/54/54 53/53/53 51/51/51
f 57/57/57 56/56/56 55/55/55
f 58/58/58 57/57/57 55/55/55
f 61/61/61 60/60/60 59/59/59
f 62/62/62 61/61/61 59/59/59
f 65/65/65 64/64/64 63/63/63
f 66/66/66 65/65/65 63/63/63
f 69/69/69 68/68/68 67/67/67
f 70/70/70 69/69/69 67/67/67
f 73/73/73 72/72/72 71/71/71
f 74/74/74 73/73/73 71/71/71
f 77/77/77 76/76/76 75/75/75
f 78/78/78 77/77/77 75/75/75
f 81/81/81 80/80/80 79/79/79
f 80/80/80 82/82/82 79/79/79
f 85/85/85 84/84/84 83/83/83
f 86/86/86 85/85/85 83/83/83
f 89/89/89 88/88/88 87/87/87
f 90/90/90 89/89/89 87/87/87
f 93/93/93 92/92/92 91/91/91
f 94/94/94 93/93/93 91/91/91
f 97/97/97 96/96/96 95/95/95
f 98/98/98 97/97/97 95/95/95
