g Pointer
v -0.05583254 0.1629867 0.3629041
v -0.0572267 0.1852986 0.3815046
v -0.03393771 0.1677869 0.3888292
v -0.02556015 0.1432485 0.3620639
v -0.04212895 0.1445441 0.3094707
v 0.01402981 0.161862 0.3748172
v 0.01352646 0.1406888 0.3542308
v -0.01863596 0.1332541 0.3149888
v 0.0525128 0.1456406 0.35828
v 0.06212751 0.1707306 0.3841732
v 0.08079529 0.1671727 0.3562825
v 0.08287878 0.1895903 0.3747146
v 0.06309448 0.1477688 0.304371
v 0.04149179 0.1350972 0.3120744
v 0.01158596 0.1338913 0.3130659
v -0.03824862 0.1255894 0.2716412
v -0.0169974 0.1164132 0.2782221
v 0.0103117 0.1176655 0.2775534
v 0.03727367 0.1180762 0.275592
v -0.04703688 0.1564547 0.251855
v -0.05184847 0.1791164 0.2881406
v 0.05672578 0.1285 0.2670383
v 0.06840689 0.1828003 0.2823124
v -0.04208382 0.1881542 0.2320583
v -0.04637805 0.2138637 0.2656159
v 0.06150519 0.1597797 0.2465947
v 0.05884526 0.2170868 0.2605165
v -0.04074067 0.1039242 0.2400072
v -0.01879457 0.09377821 0.2457746
v 0.009426098 0.0946327 0.2443914
v -0.04981871 0.1360622 0.2198923
v 0.03732787 0.09549734 0.2430549
v -0.04470691 0.1686259 0.1990738
v 0.05747386 0.1069342 0.2352473
v -0.0221777 0.06639814 0.2116577
v -0.04615501 0.0773554 0.2051618
v -0.05607293 0.1124184 0.1831249
v 0.008651181 0.06741499 0.2102775
v -0.05048722 0.1480273 0.1604508
v 0.03912424 0.06827643 0.2086867
v 0.06242631 0.139501 0.2144524
v 0.06112368 0.08064253 0.1999626
v 0.05289045 0.1910643 0.2274552
v -0.05832405 0.04051451 0.1646534
v -0.07032606 0.08315046 0.1382461
v -0.02931284 0.02671499 0.1716839
v 0.008003636 0.02759245 0.1694555
v 0.04492151 0.02898847 0.1680862
v -0.06357016 0.1260962 0.1105098
v -0.08108018 -0.01196306 0.1160296
v -0.04236547 -0.03282496 0.1216643
v -0.09710531 0.04589247 0.08194789
v 0.007500354 -0.03324686 0.1161667
v -0.0881007 0.1025661 0.04357172
v 0.0715862 0.04449537 0.1583573
v 0.05697886 -0.02978083 0.1168498
v 0.06653135 0.1161744 0.1771832
v 0.05350762 0.1716342 0.194314
v -0.08509956 -0.02723658 0.07115472
v -0.1054819 0.01330053 0.03124394
v -0.05591165 -0.0598456 0.06451466
v -0.0909533 0.06825613 0.01074026
v 0.005639363 -0.06167635 0.05565678
v -0.06452719 -0.001963902 0.003147698
v -0.06440209 0.07866224 -0.02311298
v 0.0009188277 -0.004265156 -0.006829967
v -0.05172623 0.1198803 0.02505434
v -0.002851085 0.07683203 -0.03197113
v -0.03630766 0.1408244 0.09949222
v -0.001860342 0.1194584 0.01955675
v -0.02795406 0.1606267 0.152043
v 0.001008816 0.1417019 0.09726387
v -0.02408275 0.1800467 0.1911963
v 0.00287488 0.1616431 0.1506628
v -0.02211101 0.1998378 0.2254441
v 0.00413786 0.1809012 0.1898131
v -0.02430144 0.2256803 0.2565154
v -0.06134982 0.2529936 0.3059607
v 0.005197965 0.201087 0.224776
v -0.03291659 0.2632566 0.2861396
v -0.06181605 0.2601623 0.3341404
v 0.005920344 0.2263158 0.2545928
v 0.03334801 0.162505 0.1490719
v 0.03203977 0.1817663 0.1884762
v 0.03216 0.2015003 0.222814
v 0.03582624 0.2275217 0.2536015
v 0.006170016 0.2606974 0.2783065
v -0.04058519 0.2762315 0.3202212
v 0.03792675 0.143099 0.09589441
v 0.04761803 0.1229244 0.02023981
v 0.0583411 0.08242361 -0.02906212
v 0.06601565 0.002035121 -0.003178749
v 0.06683155 -0.05608423 0.05856606
v 0.0927722 -0.006636906 0.1076039
v 0.07814276 0.0877001 0.1310505
v 0.05679154 0.1513138 0.1552515
v 0.06634009 0.1300765 0.1042137
v 0.04515636 0.2656492 0.2823557
v 0.07527787 0.2571796 0.2993391
v 0.1015831 0.05198019 0.0723183
v 0.08575162 0.1078923 0.03514616
v 0.05547989 0.2791742 0.3155655
v 0.07828963 0.2644556 0.3273502
v 0.00738226 0.2703067 0.3062091
v 0.09370133 -0.02175875 0.06248911
v 0.1073687 0.01982244 0.02092808
v 0.08784766 0.07373396 0.002074642
v 0.07894919 0.2290919 0.3544602
v 0.07527787 0.2571796 0.2993391
v 0.06212677 0.2313883 0.35972
v 0.08777055 0.2143519 0.3303086
v 0.05884526 0.2170868 0.2605165
v 0.06840689 0.1828003 0.2823124
v 0.08079529 0.1671727 0.3562825
v 0.06309448 0.1477688 0.304371
v 0.08287878 0.1895903 0.3747146
v 0.06212751 0.1707306 0.3841732
v 0.01099182 0.2212145 0.3485947
v 0.01402981 0.161862 0.3748172
v -0.03393771 0.1677869 0.3888292
v -0.03993578 0.2282609 0.3646665
v -0.0572267 0.1852986 0.3815046
v -0.05788812 0.2248995 0.3610919
v -0.05583254 0.1629867 0.3629041
v -0.06837542 0.2095683 0.3378761
v -0.04212895 0.1445441 0.3094707
v -0.06134982 0.2529936 0.3059607
v -0.05184847 0.1791164 0.2881406
v -0.04637805 0.2138637 0.2656159
vt 0.375 0.875
vt 0.375 1
vt 0.4382324 1
vt 0.4382324 0.875
vt 0.375 0.75
vt 0.5014648 1
vt 0.5009766 0.875
vt 0.4382324 0.78125
vt 0.5629883 0.875
vt 0.5629883 1
vt 0.625 0.875
vt 0.625 1
vt 0.625 0.75
vt 0.5629883 0.78125
vt 0.5009766 0.78125
vt 0.3908691 0.71875
vt 0.4382324 0.75
vt 0.5009766 0.75
vt 0.5629883 0.75
vt 0.375 0.625
vt 0.375 0.625
vt 0.609375 0.71875
vt 0.625 0.625
vt 0.3908691 0.53125
vt 0.375 0.5
vt 0.625 0.625
vt 0.625 0.5
vt 0.3908691 0.71875
vt 0.4382324 0.75
vt 0.5009766 0.75
vt 0.375 0.625
vt 0.5629883 0.75
vt 0.3908691 0.53125
vt 0.609375 0.71875
vt 0.4382324 0.75
vt 0.3908691 0.71875
vt 0.375 0.625
vt 0.5009766 0.75
vt 0.3908691 0.53125
vt 0.5629883 0.75
vt 0.625 0.625
vt 0.609375 0.71875
vt 0.609375 0.53125
vt 0.3908691 0.71875
vt 0.375 0.625
vt 0.4382324 0.75
vt 0.5009766 0.75
vt 0.5629883 0.75
vt 0.3908691 0.53125
vt 0.3908691 0.71875
vt 0.4382324 0.75
vt 0.375 0.625
vt 0.5009766 0.75
vt 0.3908691 0.53125
vt 0.609375 0.71875
vt 0.5629883 0.75
vt 0.625 0.625
vt 0.609375 0.53125
vt 0.4030762 0.6943359
vt 0.3908691 0.625
vt 0.4382324 0.71875
vt 0.4030762 0.5556641
vt 0.5009766 0.71875
vt 0.4382324 0.625
vt 0.4382324 0.53125
vt 0.5009766 0.625
vt 0.4382324 0.5
vt 0.5009766 0.53125
vt 0.4382324 0.5
vt 0.5009766 0.5
vt 0.4382324 0.5
vt 0.5009766 0.5
vt 0.4382324 0.5
vt 0.5009766 0.5
vt 0.4382324 0.5
vt 0.5009766 0.5
vt 0.4382324 0.46875
vt 0.375 0.375
vt 0.5009766 0.5
vt 0.4382324 0.375
vt 0.375 0.25
vt 0.5009766 0.46875
vt 0.5629883 0.5
vt 0.5629883 0.5
vt 0.5629883 0.5
vt 0.5629883 0.46875
vt 0.5009766 0.375
vt 0.4382324 0.25
vt 0.5629883 0.5
vt 0.5629883 0.5
vt 0.5629883 0.53125
vt 0.5629883 0.625
vt 0.5629883 0.71875
vt 0.609375 0.71875
vt 0.625 0.625
vt 0.609375 0.53125
vt 0.609375 0.53125
vt 0.5629883 0.375
vt 0.625 0.375
vt 0.625 0.625
vt 0.609375 0.53125
vt 0.5629883 0.25
vt 0.625 0.25
vt 0.5009766 0.25
vt 0.5976563 0.6943359
vt 0.609375 0.625
vt 0.5976563 0.5556641
vt 0.640625 0.125
vt 0.75 0.25
vt 0.5629883 0.125
vt 0.75 0.125
vt 0.875 0.25
vt 0.875 0.125
vt 0.75 0
vt 0.875 0
vt 0.625 0
vt 0.5629883 0
vt 0.5009766 0.125
vt 0.5014648 0
vt 0.4382324 0
vt 0.4382324 0.125
vt 0.375 0
vt 0.3596191 0.125
vt 0.25 0
vt 0.25 0.125
vt 0.125 0
vt 0.25 0.25
vt 0.125 0.125
vt 0.125 0.25
vn -0.8579102 -0.4931641 0.1428223
vn -0.6982422 0.0322876 0.715332
vn 0.1098633 0.03451538 0.9931641
vn -0.2141113 -0.8857422 0.4116211
vn -0.8417969 -0.5385742 0.03884888
vn 0.04779053 0.02270508 0.9985352
vn 0.04833984 -0.9057617 0.4216309
vn -0.2382813 -0.9355469 0.2609863
vn 0.3105469 -0.8696289 0.3842773
vn -0.01663208 0.03213501 0.9995117
vn 0.8999023 -0.4335938 0.04956055
vn 0.7734375 0.07568359 0.6293945
vn 0.8764648 -0.4790039 -0.0489502
vn 0.3232422 -0.9174805 0.2318115
vn 0.04315186 -0.9570313 0.2866211
vn -0.8491211 -0.4643555 0.251709
vn -0.1977539 -0.8530273 0.4833984
vn 0.05047607 -0.8691406 0.4916992
vn 0.2988281 -0.8369141 0.4584961
vn -0.9985352 -0.05801392 0.005012512
vn -0.9741211 -0.1604004 -0.1591797
vn 0.9003906 -0.4035645 0.1624756
vn 0.9624023 -0.1010742 -0.2529297
vn -0.8989258 0.3498535 -0.2631836
vn -0.8862305 0.1901855 -0.4223633
vn 0.9956055 0.003078461 -0.09161377
vn 0.8325195 0.2357178 -0.5009766
vn -0.8408203 -0.3842773 0.3811035
vn -0.1938477 -0.7758789 0.6000977
vn 0.0534668 -0.7998047 0.5976563
vn -0.9926758 0.01609802 0.1216431
vn 0.3017578 -0.7597656 0.5761719
vn -0.8911133 0.4331055 -0.1359863
vn 0.8999023 -0.3237305 0.2922363
vn -0.185791 -0.7114258 0.6777344
vn -0.8237305 -0.3178711 0.4694824
vn -0.9760742 0.07037354 0.2058105
vn 0.05511475 -0.7421875 0.6679688
vn -0.8730469 0.486084 -0.03909302
vn 0.296875 -0.6953125 0.6542969
vn 0.996582 0.07702637 0.02520752
vn 0.887207 -0.2583008 0.3823242
vn 0.8515625 0.3962402 -0.3435059
vn -0.7841797 -0.2467041 0.5693359
vn -0.9433594 0.1339111 0.3029785
vn -0.161499 -0.6381836 0.7529297
vn 0.05633545 -0.6762695 0.734375
vn 0.2751465 -0.6235352 0.7319336
vn -0.8330078 0.5493164 0.0657959
vn -0.7993164 -0.3481445 0.4899902
vn -0.175415 -0.7670898 0.6171875
vn -0.9677734 0.0894165 0.2351074
vn 0.05322266 -0.8066406 0.5883789
vn -0.8525391 0.5195313 -0.05895996
vn 0.8530273 -0.1895752 0.486084
vn 0.2836914 -0.7519531 0.5952148
vn 0.9853516 0.1304932 0.1107178
vn 0.8505859 0.4794922 -0.2156982
vn -0.8330078 -0.5532227 0.01354218
vn -0.9301758 -0.2353516 -0.2819824
vn -0.2858887 -0.9321289 -0.2224121
vn -0.8774414 0.1744385 -0.4470215
vn 0.01426697 -0.9516602 -0.3066406
vn -0.3483887 -0.5161133 -0.7822266
vn -0.3532715 0.170166 -0.9199219
vn -0.02445984 -0.5356445 -0.8442383
vn -0.2756348 0.8662109 -0.4165039
vn -0.05197144 0.1287842 -0.9902344
vn -0.2578125 0.9350586 -0.2426758
vn -0.05001831 0.8774414 -0.4770508
vn -0.2844238 0.8964844 -0.3395996
vn -0.04360962 0.9541016 -0.296875
vn -0.2937012 0.8535156 -0.4306641
vn -0.04690552 0.921875 -0.3847656
vn -0.2978516 0.7802734 -0.5498047
vn -0.04968262 0.8828125 -0.4667969
vn -0.333252 0.6113281 -0.7177734
vn -0.9042969 0.2631836 -0.3356934
vn -0.05285645 0.8164063 -0.574707
vn -0.3129883 0.7285156 -0.609375
vn -0.7314453 0.5698242 0.375
vn -0.05648804 0.668457 -0.7416992
vn 0.1984863 0.9111328 -0.3618164
vn 0.2019043 0.8681641 -0.4538574
vn 0.1988525 0.7944336 -0.5737305
vn 0.2285156 0.6264648 -0.7451172
vn -0.05429077 0.7685547 -0.6376953
vn 0.05740356 0.8901367 0.4519043
vn 0.178833 0.9482422 -0.2624512
vn 0.1837158 0.8803711 -0.4372559
vn 0.2556152 0.1893311 -0.9482422
vn 0.3066406 -0.4953613 -0.8125
vn 0.322998 -0.9125977 -0.2509766
vn 0.8662109 -0.2888184 0.407959
vn 0.9584961 0.1921387 0.2108154
vn 0.8388672 0.5317383 -0.1174316
vn 0.8051758 0.5927734 -0.009025574
vn 0.2116699 0.7426758 -0.6352539
vn 0.8544922 0.307373 -0.4191895
vn 0.9780273 0.1506348 0.1434326
vn 0.8134766 0.565918 -0.1328125
vn -0.06896973 0.8857422 0.4594727
vn 0.7412109 0.6025391 0.2961426
vn -0.005664825 0.8945313 0.4470215
vn 0.8691406 -0.4902344 -0.06256104
vn 0.9165039 -0.1722412 -0.361084
vn 0.8251953 0.2276611 -0.5166016
vn 0.7573242 0.3815918 0.5297852
vn 0.8544922 0.307373 -0.4191895
vn -0.15979 0.5209961 0.8383789
vn 0.9833984 -0.050354 -0.1748047
vn 0.8325195 0.2357178 -0.5009766
vn 0.9624023 -0.1010742 -0.2529297
vn 0.8999023 -0.4335938 0.04956055
vn 0.8764648 -0.4790039 -0.0489502
vn 0.7734375 0.07568359 0.6293945
vn -0.01663208 0.03213501 0.9995117
vn 0.02432251 0.5356445 0.8442383
vn 0.04779053 0.02270508 0.9985352
vn 0.1098633 0.03451538 0.9931641
vn 0.204834 0.5322266 0.8212891
vn -0.6982422 0.0322876 0.715332
vn -0.7109375 0.3442383 0.6132813
vn -0.8579102 -0.4931641 0.1428223
vn -0.9912109 -0.1089478 -0.07617188
vn -0.8417969 -0.5385742 0.03884888
vn -0.9042969 0.2631836 -0.3356934
vn -0.9741211 -0.1604004 -0.1591797
vn -0.8862305 0.1901855 -0.4223633
g Pointer_0
f 3/3/3 2/2/2 1/1/1
f 4/4/4 3/3/3 1/1/1
f 4/4/4 1/1/1 5/5/5
f 6/6/6 3/3/3 4/4/4
f 7/7/7 6/6/6 4/4/4
f 8/8/8 4/4/4 5/5/5
f 7/7/7 4/4/4 8/8/8
f 7/7/7 9/9/9 6/6/6
f 9/9/9 10/10/10 6/6/6
f 9/9/9 11/11/11 10/10/10
f 11/11/11 12/12/12 10/10/10
f 13/13/13 11/11/11 9/9/9
f 14/14/14 9/9/9 7/7/7
f 14/14/14 13/13/13 9/9/9
f 15/15/15 7/7/7 8/8/8
f 15/15/15 14/14/14 7/7/7
f 5/5/5 16/16/16 8/8/8
f 8/8/8 17/17/17 15/15/15
f 16/16/16 17/17/17 8/8/8
f 15/15/15 18/18/18 14/14/14
f 17/17/17 18/18/18 15/15/15
f 14/14/14 19/19/19 13/13/13
f 18/18/18 19/19/19 14/14/14
f 20/20/20 16/16/16 5/5/5
f 21/21/21 20/20/20 5/5/5
f 19/19/19 22/22/22 13/13/13
f 13/13/13 22/22/22 23/23/23
f 24/24/24 20/20/20 21/21/21
f 25/25/25 24/24/24 21/21/21
f 22/22/22 26/26/26 23/23/23
f 23/23/23 26/26/26 27/27/27
f 16/16/16 28/28/28 17/17/17
f 17/17/17 29/29/29 18/18/18
f 28/28/28 29/29/29 17/17/17
f 18/18/18 30/30/30 19/19/19
f 29/29/29 30/30/30 18/18/18
f 20/20/20 31/31/31 16/16/16
f 31/31/31 28/28/28 16/16/16
f 19/19/19 32/32/32 22/22/22
f 30/30/30 32/32/32 19/19/19
f 24/24/24 33/33/33 20/20/20
f 33/33/33 31/31/31 20/20/20
f 22/22/22 34/34/34 26/26/26
f 32/32/32 34/34/34 22/22/22
f 29/29/29 35/35/35 30/30/30
f 28/28/28 36/36/36 29/29/29
f 36/36/36 35/35/35 29/29/29
f 31/31/31 37/37/37 28/28/28
f 37/37/37 36/36/36 28/28/28
f 30/30/30 38/38/38 32/32/32
f 35/35/35 38/38/38 30/30/30
f 33/33/33 39/39/39 31/31/31
f 39/39/39 37/37/37 31/31/31
f 32/32/32 40/40/40 34/34/34
f 38/38/38 40/40/40 32/32/32
f 34/34/34 41/41/41 26/26/26
f 40/40/40 42/42/42 34/34/34
f 34/34/34 42/42/42 41/41/41
f 26/26/26 41/41/41 43/43/43
f 26/26/26 43/43/43 27/27/27
f 36/36/36 44/44/44 35/35/35
f 37/37/37 45/45/45 36/36/36
f 45/45/45 44/44/44 36/36/36
f 35/35/35 46/46/46 38/38/38
f 44/44/44 46/46/46 35/35/35
f 38/38/38 47/47/47 40/40/40
f 46/46/46 47/47/47 38/38/38
f 40/40/40 48/48/48 42/42/42
f 47/47/47 48/48/48 40/40/40
f 49/49/49 45/45/45 37/37/37
f 39/39/39 49/49/49 37/37/37
f 44/44/44 50/50/50 46/46/46
f 46/46/46 51/51/51 47/47/47
f 50/50/50 51/51/51 46/46/46
f 45/45/45 52/52/52 44/44/44
f 52/52/52 50/50/50 44/44/44
f 47/47/47 53/53/53 48/48/48
f 51/51/51 53/53/53 47/47/47
f 49/49/49 54/54/54 45/45/45
f 54/54/54 52/52/52 45/45/45
f 48/48/48 55/55/55 42/42/42
f 53/53/53 56/56/56 48/48/48
f 48/48/48 56/56/56 55/55/55
f 42/42/42 55/55/55 57/57/57
f 42/42/42 57/57/57 41/41/41
f 41/41/41 57/57/57 58/58/58
f 41/41/41 58/58/58 43/43/43
f 50/50/50 59/59/59 51/51/51
f 52/52/52 60/60/60 50/50/50
f 60/60/60 59/59/59 50/50/50
f 59/59/59 61/61/61 51/51/51
f 51/51/51 61/61/61 53/53/53
f 61/61/61 59/59/59 60/60/60
f 62/62/62 60/60/60 52/52/52
f 54/54/54 62/62/62 52/52/52
f 61/61/61 63/63/63 53/53/53
f 53/53/53 63/63/63 56/56/56
f 64/64/64 61/61/61 60/60/60
f 64/64/64 60/60/60 62/62/62
f 63/63/63 61/61/61 64/64/64
f 65/65/65 62/62/62 54/54/54
f 65/65/65 64/64/64 62/62/62
f 66/66/66 63/63/63 64/64/64
f 66/66/66 64/64/64 65/65/65
f 67/67/67 65/65/65 54/54/54
f 67/67/67 54/54/54 49/49/49
f 68/68/68 66/66/66 65/65/65
f 68/68/68 65/65/65 67/67/67
f 69/69/69 67/67/67 49/49/49
f 69/69/69 49/49/49 39/39/39
f 70/70/70 68/68/68 67/67/67
f 70/70/70 67/67/67 69/69/69
f 71/71/71 69/69/69 39/39/39
f 71/71/71 39/39/39 33/33/33
f 72/72/72 70/70/70 69/69/69
f 72/72/72 69/69/69 71/71/71
f 73/73/73 71/71/71 33/33/33
f 73/73/73 33/33/33 24/24/24
f 74/74/74 72/72/72 71/71/71
f 74/74/74 71/71/71 73/73/73
f 75/75/75 73/73/73 24/24/24
f 75/75/75 24/24/24 25/25/25
f 76/76/76 74/74/74 73/73/73
f 76/76/76 73/73/73 75/75/75
f 77/77/77 75/75/75 25/25/25
f 77/77/77 25/25/25 78/78/78
f 79/79/79 76/76/76 75/75/75
f 79/79/79 75/75/75 77/77/77
f 80/80/80 77/77/77 78/78/78
f 80/80/80 78/78/78 81/81/81
f 82/82/82 79/79/79 77/77/77
f 82/82/82 77/77/77 80/80/80
f 74/74/74 83/83/83 72/72/72
f 76/76/76 84/84/84 74/74/74
f 84/84/84 83/83/83 74/74/74
f 79/79/79 85/85/85 76/76/76
f 85/85/85 84/84/84 76/76/76
f 82/82/82 86/86/86 79/79/79
f 86/86/86 85/85/85 79/79/79
f 87/87/87 82/82/82 80/80/80
f 86/86/86 82/82/82 87/87/87
f 88/88/88 80/80/80 81/81/81
f 87/87/87 80/80/80 88/88/88
f 83/83/83 89/89/89 72/72/72
f 72/72/72 89/89/89 70/70/70
f 89/89/89 90/90/90 70/70/70
f 70/70/70 90/90/90 68/68/68
f 90/90/90 91/91/91 68/68/68
f 68/68/68 91/91/91 66/66/66
f 91/91/91 92/92/92 66/66/66
f 66/66/66 92/92/92 63/63/63
f 92/92/92 93/93/93 63/63/63
f 63/63/63 93/93/93 56/56/56
f 56/56/56 93/93/93 94/94/94
f 56/56/56 94/94/94 55/55/55
f 55/55/55 94/94/94 95/95/95
f 55/55/55 95/95/95 57/57/57
f 57/57/57 95/95/95 96/96/96
f 57/57/57 96/96/96 58/58/58
f 83/83/83 96/96/96 89/89/89
f 58/58/58 96/96/96 83/83/83
f 84/84/84 58/58/58 83/83/83
f 43/43/43 58/58/58 84/84/84
f 85/85/85 43/43/43 84/84/84
f 27/27/27 43/43/43 85/85/85
f 86/86/86 27/27/27 85/85/85
f 96/96/96 97/97/97 89/89/89
f 95/95/95 97/97/97 96/96/96
f 89/89/89 97/97/97 90/90/90
f 27/27/27 86/86/86 98/98/98
f 99/99/99 27/27/27 98/98/98
f 98/98/98 86/86/86 87/87/87
f 95/95/95 100/100/100 97/97/97
f 94/94/94 100/100/100 95/95/95
f 97/97/97 101/101/101 90/90/90
f 100/100/100 101/101/101 97/97/97
f 90/90/90 101/101/101 91/91/91
f 99/99/99 98/98/98 102/102/102
f 103/103/103 99/99/99 102/102/102
f 98/98/98 87/87/87 104/104/104
f 102/102/102 98/98/98 104/104/104
f 104/104/104 87/87/87 88/88/88
f 94/94/94 105/105/105 100/100/100
f 93/93/93 105/105/105 94/94/94
f 105/105/105 106/106/106 100/100/100
f 106/106/106 105/105/105 93/93/93
f 100/100/100 106/106/106 101/101/101
f 92/92/92 106/106/106 93/93/93
f 101/101/101 107/107/107 91/91/91
f 106/106/106 107/107/107 101/101/101
f 107/107/107 106/106/106 92/92/92
f 91/91/91 107/107/107 92/92/92
f 108/108/108 103/103/103 102/102/102
f 109/109/109 103/103/103 108/108/108
f 110/110/110 102/102/102 104/104/104
f 110/110/110 108/108/108 102/102/102
f 111/111/111 109/109/109 108/108/108
f 112/112/112 109/109/109 111/111/111
f 113/113/113 112/112/112 111/111/111
f 113/113/113 111/111/111 114/114/114
f 115/115/115 113/113/113 114/114/114
f 114/114/114 111/111/111 116/116/116
f 111/111/111 108/108/108 116/116/116
f 116/116/116 108/108/108 110/110/110
f 117/117/117 116/116/116 110/110/110
f 117/117/117 110/110/110 118/118/118
f 118/118/118 110/110/110 104/104/104
f 119/119/119 117/117/117 118/118/118
f 119/119/119 118/118/118 120/120/120
f 118/118/118 104/104/104 121/121/121
f 118/118/118 121/121/121 120/120/120
f 104/104/104 88/88/88 121/121/121
f 120/120/120 121/121/121 122/122/122
f 121/121/121 88/88/88 123/123/123
f 121/121/121 123/123/123 122/122/122
f 88/88/88 81/81/81 123/123/123
f 122/122/122 123/123/123 124/124/124
f 123/123/123 81/81/81 125/125/125
f 123/123/123 125/125/125 124/124/124
f 124/124/124 125/125/125 126/126/126
f 81/81/81 127/127/127 125/125/125
f 125/125/125 128/128/128 126/126/126
f 125/125/125 127/127/127 128/128/128
f 127/127/127 129/129/129 128/128/128
