g pointer_marker_V7_L0
v -0.08999996 0.03892461 -0.02400001
v -7.399338E-09 -0.05107534 -0.024
v -7.399338E-09 -0.05107534 0.024
v -0.08999996 0.03892461 0.02400001
v 0.08999997 0.03892465 -0.02399999
v 0 -0.18 -0.02399999
v 0 -0.18 0.02399999
v 0.08999997 0.03892465 0.02399999
v 0 -0.18 -0.02399999
v -0.08999996 0.03892461 -0.02400001
v -0.08999996 0.03892461 0.02400001
v 0 -0.18 0.02399999
v 0 -0.18 0.02399999
v -1.274864E-11 -0.1642198 0.02999999
v 0.07306071 0.0135001 0.02999999
v 0.08999997 0.03892465 0.02399999
v 0.08999997 0.03892465 0.02399999
v 0.07306071 0.0135001 0.02999999
v -7.221311E-09 -0.05956062 0.03
v -7.399338E-09 -0.05107534 0.024
v -7.399338E-09 -0.05107534 0.024
v -7.221311E-09 -0.05956062 0.03
v -0.07306069 0.01350007 0.03
v -0.08999996 0.03892461 0.02400001
v -0.08999996 0.03892461 0.02400001
v -0.07306069 0.01350007 0.03
v -1.274864E-11 -0.1642198 0.02999999
v 0 -0.18 0.02399999
v -1.274864E-11 -0.1642198 0.02999999
v -0.07306069 0.01350007 0.03
v -7.221311E-09 -0.05956062 0.03
v 0.07306071 0.0135001 0.02999999
v 0 -0.18 -0.02399999
v 0.08999997 0.03892465 -0.02399999
v 0.07306071 0.0135001 -0.02999999
v -1.274864E-11 -0.1642198 -0.02999999
v 0.08999997 0.03892465 -0.02399999
v -7.399338E-09 -0.05107534 -0.024
v -7.221311E-09 -0.05956062 -0.03
v 0.07306071 0.0135001 -0.02999999
v -7.399338E-09 -0.05107534 -0.024
v -0.08999996 0.03892461 -0.02400001
v -0.07306069 0.01350007 -0.03
v -7.221311E-09 -0.05956062 -0.03
v -0.08999996 0.03892461 -0.02400001
v 0 -0.18 -0.02399999
v -1.274864E-11 -0.1642198 -0.02999999
v -0.07306069 0.01350007 -0.03
v -1.274864E-11 -0.1642198 -0.02999999
v -7.221311E-09 -0.05956062 -0.03
v -0.07306069 0.01350007 -0.03
v 0.07306071 0.0135001 -0.02999999
v -7.399338E-09 -0.05107534 -0.024
v 0.08999997 0.03892465 -0.02399999
v 0.08999997 0.03892465 0.02399999
v -7.399338E-09 -0.05107534 0.024
vt 0.7321868 0.5843533
vt 0.7321867 0.8921857
vt 0.8482775 0.8921857
vt 0.8482778 0.5843534
vt 0.9881182 0.5843573
vt 0.9881182 0.01187779
vt 0.8720271 0.01187779
vt 0.8720271 0.5843573
vt 0.7321867 0.01187362
vt 0.7321868 0.5843533
vt 0.8482778 0.5843534
vt 0.8482779 0.01187362
vt 0.2520642 0.5926972
vt 0.2520642 0.5510768
vt 0.05936601 0.08233911
vt 0.01468851 0.01528169
vt 0.01468851 0.01528169
vt 0.05936601 0.08233911
vt 0.2520642 0.2750373
vt 0.2520642 0.2526574
vt 0.2520642 0.2526574
vt 0.2520642 0.2750373
vt 0.4447623 0.08233925
vt 0.4894398 0.01528169
vt 0.4894398 0.01528169
vt 0.4447623 0.08233925
vt 0.2520642 0.5510768
vt 0.2520642 0.5926972
vt 0.2520642 0.5510768
vt 0.4447623 0.08233925
vt 0.2520642 0.2750373
vt 0.05936601 0.08233911
vt 0.4701351 0.1247241
vt 0.2327594 0.7021396
vt 0.277437 0.6350822
vt 0.4701351 0.1663444
vt 0.2327594 0.7021396
vt 0.4701352 0.4647639
vt 0.4701352 0.4423839
vt 0.277437 0.6350822
vt 0.4701352 0.4647639
vt 0.7075107 0.7021396
vt 0.6628332 0.6350818
vt 0.4701352 0.4423839
vt 0.7075107 0.7021396
vt 0.4701351 0.1247241
vt 0.4701351 0.1663444
vt 0.6628332 0.6350818
vt 0.4701351 0.1663444
vt 0.4701352 0.4423839
vt 0.6628332 0.6350818
vt 0.277437 0.6350822
vt 0.9881181 0.8921897
vt 0.9881182 0.5843573
vt 0.8720271 0.5843573
vt 0.8720271 0.8921897
vn 0.7071068 0.7071068 0
vn 0.7071068 0.7071068 0
vn 0.7071068 0.7071068 0
vn 0.7071068 0.7071068 0
vn 0.9248944 -0.3802243 0
vn 0.9248944 -0.3802243 0
vn 0.9248944 -0.3802243 0
vn 0.9248944 -0.3802243 0
vn -0.9248944 -0.3802243 0
vn -0.9248944 -0.3802243 0
vn -0.9248944 -0.3802243 0
vn -0.9248944 -0.3802243 0
vn 0.653999 -0.2688592 0.7071067
vn 0.653999 -0.2688592 0.7071067
vn 0.653999 -0.2688592 0.7071067
vn 0.653999 -0.2688592 0.7071067
vn -0.5 0.4999998 0.7071068
vn -0.5 0.4999998 0.7071068
vn -0.5 0.4999998 0.7071068
vn -0.5 0.4999998 0.7071068
vn 0.5 0.5 0.7071066
vn 0.5 0.5 0.7071066
vn 0.5 0.5 0.7071066
vn 0.5 0.5 0.7071066
vn -0.6539989 -0.2688591 0.7071069
vn -0.6539989 -0.2688591 0.7071069
vn -0.6539989 -0.2688591 0.7071069
vn -0.6539989 -0.2688591 0.7071069
vn 0 0 1
vn 0 0 1
vn 0 0 1
vn 0 0 1
vn 0.653999 -0.2688592 -0.7071067
vn 0.653999 -0.2688592 -0.7071067
vn 0.653999 -0.2688592 -0.7071067
vn 0.653999 -0.2688592 -0.7071067
vn -0.5 0.4999998 -0.7071069
vn -0.5 0.4999998 -0.7071069
vn -0.5 0.4999998 -0.7071069
vn -0.5 0.4999998 -0.7071069
vn 0.5 0.5 -0.7071066
vn 0.5 0.5 -0.7071066
vn 0.5 0.5 -0.7071066
vn 0.5 0.5 -0.7071066
vn -0.6539989 -0.2688591 -0.7071069
vn -0.6539989 -0.2688591 -0.7071069
vn -0.6539989 -0.2688591 -0.7071069
vn -0.6539989 -0.2688591 -0.7071069
vn 0 0 -1
vn 0 0 -1
vn 0 0 -1
vn 0 0 -1
vn -0.7071068 0.7071067 0
vn -0.7071068 0.7071067 0
vn -0.7071068 0.7071067 0
vn -0.7071068 0.7071067 0
g pointer_marker_V7_L0_0
f 3/3/3 2/2/2 1/1/1
f 4/4/4 3/3/3 1/1/1
f 7/7/7 6/6/6 5/5/5
f 8/8/8 7/7/7 5/5/5
f 11/11/11 10/10/10 9/9/9
f 12/12/12 11/11/11 9/9/9
f 15/15/15 14/14/14 13/13/13
f 16/16/16 15/15/15 13/13/13
f 19/19/19 18/18/18 17/17/17
f 20/20/20 19/19/19 17/17/17
f 23/23/23 22/22/22 21/21/21
f 24/24/24 23/23/23 21/21/21
f 27/27/27 26/26/26 25/25/25
f 28/28/28 27/27/27 25/25/25
f 31/31/31 30/30/30 29/29/29
f 32/32/32 31/31/31 29/29/29
f 35/35/35 34/34/34 33/33/33
f 36/36/36 35/35/35 33/33/33
f 39/39/39 38/38/38 37/37/37
f 40/40/40 39/39/39 37/37/37
f 43/43/43 42/42/42 41/41/41
f 44/44/44 43/43/43 41/41/41
f 47/47/47 46/46/46 45/45/45
f 48/48/48 47/47/47 45/45/45
f 51/51/51 50/50/50 49/49/49
f 50/50/50 52/52/52 49/49/49
f 55/55/55 54/54/54 53/53/53
f 56/56/56 55/55/55 53/53/53
