g pointer_marker_V2_L0
v 0 -0.18 -0.02399999
v -0.06 0.0524499 -0.024
v -0.06 0.0524499 0.024
v 0 -0.18 0.02399999
v 0 0.1799999 -0.024
v 0.06 0.0524499 -0.024
v 0.06 0.0524499 0.024
v 0 0.1799999 0.024
v -0.06 0.0524499 -0.024
v 0 0.1799999 -0.024
v 0 0.1799999 0.024
v -0.06 0.0524499 0.024
v -0.06 0.0524499 0.024
v -0.05364956 0.05185412 0.03
v 0 -0.1559931 0.02999999
v 0 -0.18 0.02399999
v 0 -0.18 0.02399999
v 0 -0.1559931 0.02999999
v 0.05364956 0.05185412 0.03
v 0.06 0.0524499 0.024
v 0.06 0.0524499 0.024
v 0.05364956 0.05185412 0.03
v 0 0.1659042 0.03
v 0 0.1799999 0.024
v 0 0.1799999 0.024
v 0 0.1659042 0.03
v -0.05364956 0.05185412 0.03
v -0.06 0.0524499 0.024
v -0.05364956 0.05185412 0.03
v 0.05364956 0.05185412 0.03
v 0 -0.1559931 0.02999999
v 0 0.1659042 0.03
v -0.06 0.0524499 -0.024
v 0 -0.18 -0.02399999
v 0 -0.1559931 -0.02999999
v -0.05364956 0.05185412 -0.03
v 0 -0.18 -0.02399999
v 0.06 0.0524499 -0.024
v 0.05364956 0.05185412 -0.03
v 0 -0.1559931 -0.02999999
v 0.06 0.0524499 -0.024
v 0 0.1799999 -0.024
v 0 0.1659042 -0.03
v 0.05364956 0.05185412 -0.03
v 0 0.1799999 -0.024
v -0.06 0.0524499 -0.024
v -0.05364956 0.05185412 -0.03
v 0 0.1659042 -0.03
v -0.05364956 0.05185412 -0.03
v 0 -0.1559931 -0.02999999
v 0.05364956 0.05185412 -0.03
v 0 0.1659042 -0.03
v 0.06 0.0524499 -0.024
v 0 -0.18 -0.02399999
v 0 -0.18 0.02399999
v 0.06 0.0524499 0.024
vt 0.9390573 0.9899974
vt 0.9390573 0.3725434
vt 0.8156019 0.3725434
vt 0.8156019 0.9899974
vt 0.7955999 0.989997
vt 0.7955998 0.6274559
vt 0.6721444 0.6274559
vt 0.6721442 0.9899969
vt 0.9390573 0.3725434
vt 0.9390573 0.01000282
vt 0.8156019 0.01000259
vt 0.8156019 0.3725434
vt 0.01015358 0.5739193
vt 0.02701061 0.5766236
vt 0.3050981 0.07383507
vt 0.3211581 0.01161639
vt 0.3211581 0.01161639
vt 0.3050981 0.07383507
vt 0.3050981 0.6484035
vt 0.3211581 0.6541958
vt 0.3211581 0.6541958
vt 0.3050981 0.6484035
vt 0.08975819 0.9080972
vt 0.08032852 0.9446293
vt 0.08032852 0.9446293
vt 0.08975819 0.9080972
vt 0.02701061 0.5766236
vt 0.01015358 0.5739193
vt 0.02701061 0.5766236
vt 0.3050981 0.6484035
vt 0.3050981 0.07383507
vt 0.08975819 0.9080972
vt 0.3411489 0.3819744
vt 0.6521534 0.9442772
vt 0.6360934 0.8820586
vt 0.3580059 0.3792701
vt 0.6521534 0.9442772
vt 0.6521534 0.3016977
vt 0.6360934 0.3074901
vt 0.6360934 0.8820586
vt 0.6521534 0.3016977
vt 0.4113239 0.01126442
vt 0.4207536 0.04779639
vt 0.6360934 0.3074901
vt 0.4113239 0.01126442
vt 0.3411489 0.3819744
vt 0.3580059 0.3792701
vt 0.4207536 0.04779639
vt 0.3580059 0.3792701
vt 0.6360934 0.8820586
vt 0.6360934 0.3074901
vt 0.4207536 0.04779639
vt 0.7955998 0.6274559
vt 0.7955999 0.01000259
vt 0.6721445 0.0100026
vt 0.6721444 0.6274559
vn -0.9682643 -0.2499285 0
vn -0.9682643 -0.2499285 0
vn -0.9682643 -0.2499285 0
vn -0.9682643 -0.2499285 0
vn 0.9048831 0.4256603 0
vn 0.9048831 0.4256603 0
vn 0.9048831 0.4256603 0
vn 0.9048831 0.4256603 0
vn -0.9048831 0.4256604 0
vn -0.9048831 0.4256604 0
vn -0.9048831 0.4256604 0
vn -0.9048831 0.4256604 0
vn -0.6846662 -0.1767262 0.7071066
vn -0.6846662 -0.1767262 0.7071066
vn -0.6846662 -0.1767262 0.7071066
vn -0.6846662 -0.1767262 0.7071066
vn 0.6846662 -0.1767262 0.7071066
vn 0.6846662 -0.1767262 0.7071066
vn 0.6846662 -0.1767262 0.7071066
vn 0.6846662 -0.1767262 0.7071066
vn 0.6398491 0.3009873 0.7071066
vn 0.6398491 0.3009873 0.7071066
vn 0.6398491 0.3009873 0.7071066
vn 0.6398491 0.3009873 0.7071066
vn -0.6398491 0.3009873 0.7071065
vn -0.6398491 0.3009873 0.7071065
vn -0.6398491 0.3009873 0.7071065
vn -0.6398491 0.3009873 0.7071065
vn 0 0 1
vn 0 0 1
vn 0 0 1
vn 0 0 1
vn -0.6846662 -0.1767262 -0.7071066
vn -0.6846662 -0.1767262 -0.7071066
vn -0.6846662 -0.1767262 -0.7071066
vn -0.6846662 -0.1767262 -0.7071066
vn 0.6846662 -0.1767262 -0.7071068
vn 0.6846662 -0.1767262 -0.7071068
vn 0.6846662 -0.1767262 -0.7071068
vn 0.6846662 -0.1767262 -0.7071068
vn 0.6398491 0.3009873 -0.7071066
vn 0.6398491 0.3009873 -0.7071066
vn 0.6398491 0.3009873 -0.7071066
vn 0.6398491 0.3009873 -0.7071066
vn -0.6398491 0.3009873 -0.7071065
vn -0.6398491 0.3009873 -0.7071065
vn -0.6398491 0.3009873 -0.7071065
vn -0.6398491 0.3009873 -0.7071065
vn 0 0 -1
vn 0 0 -1
vn 0 0 -1
vn 0 0 -1
vn 0.9682643 -0.2499285 0
vn 0.9682643 -0.2499285 0
vn 0.9682643 -0.2499285 0
vn 0.9682643 -0.2499285 0
g pointer_marker_V2_L0_0
f 3/3/3 2/2/2 1/1/1
f 4/4/4 3/3/3 1/1/1
f 7/7/7 6/6/6 5/5/5
f 8/8/8 7/7/7 5/5/5
f 11/11/11 10/10/10 9/9/9
f 12/12/12 11/11/11 9/9/9
f 15/15/15 14/14/14 13/13/13
f 16/16/16 15/15/15 13/13/13
f 19/19/19 18/18/18 17/17/17
f 20/20/20 19/19/19 17/17/17
f 23/23/23 22/22/22 21/21/21
f 24/24/24 23/23/23 21/21/21
f 27/27/27 26/26/26 25/25/25
f 28/28/28 27/27/27 25/25/25
f 31/31/31 30/30/30 29/29/29
f 29/29/29 30/30/30 32/32/32
f 35/35/35 34/34/34 33/33/33
f 36/36/36 35/35/35 33/33/33
f 39/39/39 38/38/38 37/37/37
f 40/40/40 39/39/39 37/37/37
f 43/43/43 42/42/42 41/41/41
f 44/44/44 43/43/43 41/41/41
f 47/47/47 46/46/46 45/45/45
f 48/48/48 47/47/47 45/45/45
f 51/51/51 50/50/50 49/49/49
f 51/51/51 49/49/49 52/52/52
f 55/55/55 54/54/54 53/53/53
f 56/56/56 55/55/55 53/53/53
