g priest_mesh01
v -0.8306684 0.6309876 5.678412
v -0.8358954 0.657318 5.392014
v -0.9612087 0.6132494 5.675219
v -0.8519851 0.6995335 5.083376
v -0.6944792 0.6773909 5.104178
v -0.7009687 0.7269747 4.746516
v 0.953396 0.5626625 6.13451
v 0.9491766 0.586635 5.941474
v 0.8347777 0.59753 6.129342
v 0.953396 0.5626625 6.13451
v 0.8347777 0.59753 6.129342
v 0.888047 0.5224243 6.455792
v 1.013901 0.5079648 6.466628
v 0.953396 0.5626625 6.13451
v 0.6996291 0.5918177 6.112662
v 0.7601348 0.5371202 6.44478
v 0.8347777 0.59753 6.129342
v 0.6996291 0.5918177 6.112662
v 0.8347777 0.59753 6.129342
v 0.8244817 0.6157011 5.933553
v 0.8318003 0.630495 5.678412
v 0.9623301 0.6126794 5.675219
v 0.8244817 0.6157011 5.933553
v 0.8347777 0.59753 6.129342
v 0.9491766 0.586635 5.941474
v 0.9623301 0.6126794 5.675219
v 0.9767358 0.6412033 5.383619
v 0.837043 0.6568223 5.392014
v 0.8531576 0.6990283 5.083376
v 0.9767358 0.6412033 5.383619
v 0.695639 0.6769791 5.104178
v 0.9919396 0.680402 5.077091
v 0.8531576 0.6990283 5.083376
v 0.7021574 0.726559 4.746516
v 0.857592 0.7471716 4.726495
v 1.010262 0.7276408 4.707696
v 0.9919396 0.680402 5.077091
v 0.69023 0.635838 5.400969
v 0.695639 0.6769791 5.104178
v 0.7021574 0.726559 4.746516
v 0.71186 0.7861878 4.439912
v 0.8318003 0.630495 5.678412
v 0.837043 0.6568223 5.392014
v 0.69023 0.635838 5.400969
v 1.010262 0.7276408 4.707696
v 0.8781966 0.7994937 4.397101
v 0.71186 0.7861878 4.439912
v 0.7211568 0.8433267 4.146115
v 0.8939277 0.8597324 4.087932
v 1.0377 0.7972651 4.363597
v 1.063991 0.8639816 4.033866
v 1.0377 0.7972651 4.363597
v 1.010262 0.7276408 4.707696
v -1.062721 0.8646114 4.033866
v -1.036469 0.7978797 4.363597
v -0.8926601 0.8602617 4.087932
v -0.8769646 0.8000137 4.397101
v -1.009072 0.7282391 4.707696
v -0.7198989 0.8437534 4.146115
v -0.8563909 0.7476796 4.726495
v -1.009072 0.7282391 4.707696
v -0.990778 0.6809896 5.077091
v -0.710636 0.7866092 4.439912
v -0.8769646 0.8000137 4.397101
v -0.8563909 0.7476796 4.726495
v -0.8519851 0.6995335 5.083376
v -0.990778 0.6809896 5.077091
v -0.9755976 0.6417818 5.383619
v 0.6929371 0.6253585 5.672079
v 0.6954098 0.6157902 5.919625
v 0.8318003 0.630495 5.678412
v 0.6929371 0.6253585 5.672079
v 0.69023 0.635838 5.400969
v 0.8244817 0.6157011 5.933553
v 0.6954098 0.6157902 5.919625
v 0.6996291 0.5918177 6.112662
v -0.9523043 0.5632273 6.13451
v -0.8336653 0.5980242 6.129342
v -0.9480705 0.5871972 5.941474
v -0.6985202 0.592232 6.112662
v -0.8336653 0.5980242 6.129342
v -0.7590583 0.5375703 6.44478
v -0.8869792 0.5229503 6.455792
v -0.7590583 0.5375703 6.44478
v -0.8336653 0.5980242 6.129342
v -0.9523043 0.5632273 6.13451
v 0.888047 0.5224243 6.455792
v 0.8347777 0.59753 6.129342
v 0.7601348 0.5371202 6.44478
v -1.012842 0.5085651 6.466628
v -0.8869792 0.5229503 6.455792
v -0.9523043 0.5632273 6.13451
v -0.689095 0.6362467 5.400969
v -0.6944792 0.6773909 5.104178
v -0.8358954 0.657318 5.392014
v -0.8306684 0.6309876 5.678412
v -0.6918083 0.6257687 5.672079
v -0.689095 0.6362467 5.400969
v -0.6942866 0.6162018 5.919625
v -0.8233584 0.6161894 5.933553
v -0.8306684 0.6309876 5.678412
v -0.9612087 0.6132494 5.675219
v -0.9755976 0.6417818 5.383619
v -0.8358954 0.657318 5.392014
v -0.8519851 0.6995335 5.083376
v -0.8563909 0.7476796 4.726495
v -0.7009687 0.7269747 4.746516
v -0.710636 0.7866092 4.439912
v -0.8233584 0.6161894 5.933553
v -0.9480705 0.5871972 5.941474
v -0.8336653 0.5980242 6.129342
v -0.6985202 0.592232 6.112662
v -0.9480705 0.5871972 5.941474
v -0.8233584 0.6161894 5.933553
v -0.9612087 0.6132494 5.675219
v -0.6942866 0.6162018 5.919625
v -0.6985202 0.592232 6.112662
vt 0.2507324 0.4086914
vt 0.2139893 0.4091797
vt 0.2502441 0.4255371
vt 0.1740723 0.4118652
vt 0.177124 0.3916016
vt 0.1311035 0.3913574
vt 0.3095703 0.4248047
vt 0.284668 0.4243164
vt 0.3083496 0.4089355
vt 0.3095703 0.4248047
vt 0.3083496 0.4089355
vt 0.347168 0.4091797
vt 0.348877 0.425293
vt 0.3095703 0.4248047
vt 0.3063965 0.3918457
vt 0.345459 0.3928223
vt 0.3083496 0.4089355
vt 0.3063965 0.3918457
vt 0.3083496 0.4089355
vt 0.2832031 0.4077148
vt 0.2507324 0.4086914
vt 0.2502441 0.4255371
vt 0.2832031 0.4077148
vt 0.3083496 0.4089355
vt 0.284668 0.4243164
vt 0.2502441 0.4255371
vt 0.2130127 0.427002
vt 0.2139893 0.4091797
vt 0.1740723 0.4118652
vt 0.2130127 0.427002
vt 0.177124 0.3916016
vt 0.173584 0.4296875
vt 0.1740723 0.4118652
vt 0.1311035 0.3913574
vt 0.1281738 0.4116211
vt 0.1258545 0.4313965
vt 0.173584 0.4296875
vt 0.21521 0.3903809
vt 0.177124 0.3916016
vt 0.1311035 0.3913574
vt 0.09112549 0.3928223
vt 0.2507324 0.4086914
vt 0.2139893 0.4091797
vt 0.21521 0.3903809
vt 0.1258545 0.4313965
vt 0.08557129 0.4140625
vt 0.09112549 0.3928223
vt 0.05288696 0.394043
vt 0.0453186 0.4160156
vt 0.08111572 0.4343262
vt 0.03820801 0.4375
vt 0.08111572 0.4343262
vt 0.1258545 0.4313965
vt 0.03820801 0.4375
vt 0.08111572 0.4343262
vt 0.0453186 0.4160156
vt 0.08557129 0.4140625
vt 0.1258545 0.4313965
vt 0.05288696 0.394043
vt 0.1281738 0.4116211
vt 0.1258545 0.4313965
vt 0.173584 0.4296875
vt 0.09112549 0.3928223
vt 0.08557129 0.4140625
vt 0.1281738 0.4116211
vt 0.1740723 0.4118652
vt 0.173584 0.4296875
vt 0.2130127 0.427002
vt 0.2498779 0.3908691
vt 0.2814941 0.3913574
vt 0.2507324 0.4086914
vt 0.2498779 0.3908691
vt 0.21521 0.3903809
vt 0.2832031 0.4077148
vt 0.2814941 0.3913574
vt 0.3063965 0.3918457
vt 0.3095703 0.4248047
vt 0.3083496 0.4089355
vt 0.284668 0.4243164
vt 0.3063965 0.3918457
vt 0.3083496 0.4089355
vt 0.345459 0.3928223
vt 0.347168 0.4091797
vt 0.345459 0.3928223
vt 0.3083496 0.4089355
vt 0.3095703 0.4248047
vt 0.347168 0.4091797
vt 0.3083496 0.4089355
vt 0.345459 0.3928223
vt 0.348877 0.425293
vt 0.347168 0.4091797
vt 0.3095703 0.4248047
vt 0.21521 0.3903809
vt 0.177124 0.3916016
vt 0.2139893 0.4091797
vt 0.2507324 0.4086914
vt 0.2498779 0.3908691
vt 0.21521 0.3903809
vt 0.2814941 0.3913574
vt 0.2832031 0.4077148
vt 0.2507324 0.4086914
vt 0.2502441 0.4255371
vt 0.2130127 0.427002
vt 0.2139893 0.4091797
vt 0.1740723 0.4118652
vt 0.1281738 0.4116211
vt 0.1311035 0.3913574
vt 0.09112549 0.3928223
vt 0.2832031 0.4077148
vt 0.284668 0.4243164
vt 0.3083496 0.4089355
vt 0.3063965 0.3918457
vt 0.284668 0.4243164
vt 0.2832031 0.4077148
vt 0.2502441 0.4255371
vt 0.2814941 0.3913574
vt 0.3063965 0.3918457
vn 0.1669732 -0.9817916 -0.09058277
vn -0.007299205 -0.9930298 -0.1176377
vn -0.001305631 -0.9985389 -0.05402323
vn -0.1231826 -0.9835053 -0.1324508
vn 0.009853766 -0.9909269 -0.1340411
vn -0.1111918 -0.9807099 -0.1607621
vn -0.1285244 -0.9811927 -0.1440215
vn -0.233666 -0.9672149 -0.09947584
vn -0.2434007 -0.9601237 -0.1375452
vn -0.1285244 -0.9811927 -0.1440215
vn -0.2434007 -0.9601237 -0.1375452
vn -0.1007274 -0.9844694 -0.1437851
vn -0.10827 -0.9780456 -0.1780575
vn -0.2434007 -0.9601237 -0.1375452
vn -0.1285244 -0.9811927 -0.1440215
vn -0.05673198 -0.9780041 -0.2007228
vn 0.04933729 -0.9885598 -0.1425323
vn -0.1285244 -0.9811927 -0.1440215
vn 0.04933729 -0.9885598 -0.1425323
vn -0.09713805 -0.9902555 -0.09979065
vn -0.1388026 -0.9860789 -0.09155425
vn 0.03244324 -0.9976289 -0.06069713
vn -0.233666 -0.9672149 -0.09947584
vn -0.1285244 -0.9811927 -0.1440215
vn -0.09713805 -0.9902555 -0.09979065
vn -0.1272061 -0.9831635 -0.1311799
vn -0.1388026 -0.9860789 -0.09155425
vn -0.002103908 -0.9934438 -0.1143017
vn -0.002103908 -0.9934438 -0.1143017
vn -0.1396236 -0.9812171 -0.1331097
vn 0.1260094 -0.9832555 -0.131644
vn -0.1396236 -0.9812171 -0.1331097
vn -0.03762079 -0.9877637 -0.151352
vn 0.1151813 -0.9832416 -0.1413128
vn -0.03762079 -0.9877637 -0.151352
vn -0.1396236 -0.9812171 -0.1331097
vn -0.1061441 -0.9785608 -0.1764995
vn 0.1260094 -0.9832555 -0.131644
vn 0.08714142 -0.9936954 -0.07053927
vn 0.06519927 -0.9825596 -0.1741427
vn 0.1151813 -0.9832416 -0.1413128
vn -0.002103908 -0.9934438 -0.1143017
vn 0.03244324 -0.9976289 -0.06069713
vn 0.08714142 -0.9936954 -0.07053927
vn -0.1061441 -0.9785608 -0.1764995
vn -0.03295936 -0.980009 -0.1962041
vn 0.06519927 -0.9825596 -0.1741427
vn 0.02945491 -0.9813771 -0.1898198
vn -0.03295936 -0.980009 -0.1962041
vn -0.03950525 -0.9787557 -0.201188
vn -0.04868906 -0.9789819 -0.1980499
vn -0.1061441 -0.9785608 -0.1764995
vn -0.04868906 -0.9789819 -0.1980499
vn 0.007059752 -0.9807633 -0.1950732
vn 0.01189028 -0.9821569 -0.1876869
vn 0.007059752 -0.9807633 -0.1950732
vn 0.05158462 -0.978466 -0.1998583
vn 0.1260192 -0.9798727 -0.1548181
vn -0.02998658 -0.9813669 -0.1897893
vn 0.1260192 -0.9798727 -0.1548181
vn 0.01912349 -0.9875902 -0.1558843
vn 0.137873 -0.9814881 -0.1329365
vn 0.01189028 -0.9821569 -0.1876869
vn -0.04852865 -0.9824498 -0.1801037
vn 0.01912349 -0.9875902 -0.1558843
vn 0.137873 -0.9814881 -0.1329365
vn 0.009853766 -0.9909269 -0.1340411
vn 0.1204751 -0.985464 -0.1197768
vn 0.03244324 -0.9976289 -0.06069713
vn 0.01622555 -0.9963577 -0.08371429
vn 0.03244324 -0.9976289 -0.06069713
vn 0.08714142 -0.9936954 -0.07053927
vn 0.03871196 -0.9984897 -0.0389811
vn 0.01622555 -0.9963577 -0.08371429
vn -0.09713805 -0.9902555 -0.09979065
vn 0.04933729 -0.9885598 -0.1425323
vn 0.2472567 -0.9638494 -0.09928989
vn 0.1134301 -0.9833403 -0.1420402
vn 0.2061534 -0.9666666 -0.1518437
vn 0.01983537 -0.9810551 -0.1927111
vn 0.1134301 -0.9833403 -0.1420402
vn -0.03541383 -0.9921436 -0.1199875
vn 0.1134301 -0.9833403 -0.1420402
vn 0.01983537 -0.9810551 -0.1927111
vn 0.1704276 -0.9715018 -0.1647381
vn 0.2061534 -0.9666666 -0.1518437
vn -0.05673198 -0.9780041 -0.2007228
vn -0.1285244 -0.9811927 -0.1440215
vn -0.10827 -0.9780456 -0.1780575
vn 0.2061534 -0.9666666 -0.1518437
vn 0.1704276 -0.9715018 -0.1647381
vn 0.1001455 -0.9845286 -0.1437858
vn -0.007299205 -0.9930298 -0.1176377
vn -0.1231826 -0.9835053 -0.1324508
vn -0.1159647 -0.9880547 -0.10149
vn -0.001305631 -0.9985389 -0.05402323
vn -0.02270299 -0.9978411 -0.06162439
vn -0.1159647 -0.9880547 -0.10149
vn -0.03930454 -0.9984666 -0.03898214
vn -0.001305631 -0.9985389 -0.05402323
vn 0.08165824 -0.99265 -0.08931956
vn 0.1669732 -0.9817916 -0.09058277
vn -0.007299205 -0.9930298 -0.1176377
vn 0.1204751 -0.985464 -0.1197768
vn 0.009853766 -0.9909269 -0.1340411
vn -0.1111918 -0.9807099 -0.1607621
vn 0.01912349 -0.9875902 -0.1558843
vn -0.04852865 -0.9824498 -0.1801037
vn 0.1134301 -0.9833403 -0.1420402
vn 0.2472567 -0.9638494 -0.09928989
vn 0.08165824 -0.99265 -0.08931956
vn -0.03541383 -0.9921436 -0.1199875
vn 0.1669732 -0.9817916 -0.09058277
vn 0.08165824 -0.99265 -0.08931956
vn 0.2472567 -0.9638494 -0.09928989
vn -0.03541383 -0.9921436 -0.1199875
vn -0.02270299 -0.9978411 -0.06162439
g priest_mesh01_0
f 3/3/3 2/2/2 1/1/1
f 5/5/5 2/2/2 4/4/4
f 4/4/4 6/6/6 5/5/5
f 4/4/4 6/6/6 5/5/5
f 9/9/9 8/8/8 7/7/7
f 11/11/11 8/8/8 10/10/10
f 10/10/10 12/12/12 11/11/11
f 12/12/12 14/14/14 13/13/13
f 12/12/12 14/14/14 13/13/13
f 17/17/17 16/16/16 15/15/15
f 19/19/19 16/16/16 18/18/18
f 18/18/18 20/20/20 19/19/19
f 22/22/22 20/20/20 21/21/21
f 25/25/25 24/24/24 23/23/23
f 23/23/23 26/26/26 25/25/25
f 23/23/23 26/26/26 25/25/25
f 26/26/26 28/28/28 27/27/27
f 26/26/26 28/28/28 27/27/27
f 29/29/29 27/27/27 28/28/28
f 29/29/29 30/30/30 28/28/28
f 28/28/28 31/31/31 29/29/29
f 28/28/28 31/31/31 29/29/29
f 30/30/30 33/33/33 32/32/32
f 30/30/30 33/33/33 32/32/32
f 34/34/34 33/33/33 31/31/31
f 34/34/34 33/33/33 31/31/31
f 35/35/35 32/32/32 33/33/33
f 35/35/35 32/32/32 33/33/33
f 33/33/33 34/34/34 35/35/35
f 33/33/33 34/34/34 35/35/35
f 37/37/37 35/35/35 36/36/36
f 37/37/37 35/35/35 36/36/36
f 39/39/39 28/28/28 38/38/38
f 39/39/39 28/28/28 38/38/38
f 41/41/41 35/35/35 40/40/40
f 41/41/41 35/35/35 40/40/40
f 43/43/43 26/26/26 42/42/42
f 43/43/43 26/26/26 42/42/42
f 42/42/42 44/44/44 43/43/43
f 42/42/42 44/44/44 43/43/43
f 46/46/46 45/45/45 35/35/35
f 46/46/46 45/45/45 35/35/35
f 35/35/35 47/47/47 46/46/46
f 35/35/35 47/47/47 46/46/46
f 48/48/48 46/46/46 47/47/47
f 48/48/48 46/46/46 47/47/47
f 46/46/46 48/48/48 49/49/49
f 46/46/46 48/48/48 49/49/49
f 49/49/49 50/50/50 46/46/46
f 49/49/49 50/50/50 46/46/46
f 50/50/50 49/49/49 51/51/51
f 50/50/50 49/49/49 51/51/51
f 53/53/53 46/46/46 52/52/52
f 53/53/53 46/46/46 52/52/52
f 56/56/56 55/55/55 54/54/54
f 56/56/56 55/55/55 54/54/54
f 55/55/55 56/56/56 57/57/57
f 57/57/57 58/58/58 55/55/55
f 57/57/57 58/58/58 55/55/55
f 59/59/59 57/57/57 56/56/56
f 59/59/59 57/57/57 56/56/56
f 61/61/61 57/57/57 60/60/60
f 60/60/60 62/62/62 61/61/61
f 60/60/60 62/62/62 61/61/61
f 64/64/64 59/59/59 63/63/63
f 64/64/64 59/59/59 63/63/63
f 63/63/63 65/65/65 64/64/64
f 67/67/67 65/65/65 66/66/66
f 66/66/66 68/68/68 67/67/67
f 66/66/66 68/68/68 67/67/67
f 71/71/71 70/70/70 69/69/69
f 71/71/71 70/70/70 69/69/69
f 73/73/73 71/71/71 72/72/72
f 73/73/73 71/71/71 72/72/72
f 75/75/75 71/71/71 74/74/74
f 74/74/74 76/76/76 75/75/75
f 74/74/74 76/76/76 75/75/75
f 79/79/79 78/78/78 77/77/77
f 79/79/79 78/78/78 77/77/77
f 82/82/82 81/81/81 80/80/80
f 82/82/82 81/81/81 80/80/80
f 85/85/85 84/84/84 83/83/83
f 85/85/85 84/84/84 83/83/83
f 83/83/83 86/86/86 85/85/85
f 83/83/83 86/86/86 85/85/85
f 89/89/89 88/88/88 87/87/87
f 89/89/89 88/88/88 87/87/87
f 92/92/92 91/91/91 90/90/90
f 92/92/92 91/91/91 90/90/90
f 95/95/95 94/94/94 93/93/93
f 95/95/95 94/94/94 93/93/93
f 93/93/93 96/96/96 95/95/95
f 96/96/96 98/98/98 97/97/97
f 96/96/96 98/98/98 97/97/97
f 99/99/99 96/96/96 97/97/97
f 99/99/99 96/96/96 97/97/97
f 101/101/101 99/99/99 100/100/100
f 101/101/101 99/99/99 100/100/100
f 100/100/100 102/102/102 101/101/101
f 100/100/100 102/102/102 101/101/101
f 104/104/104 102/102/102 103/103/103
f 104/104/104 102/102/102 103/103/103
f 103/103/103 105/105/105 104/104/104
f 107/107/107 105/105/105 106/106/106
f 106/106/106 108/108/108 107/107/107
f 106/106/106 108/108/108 107/107/107
f 111/111/111 110/110/110 109/109/109
f 111/111/111 110/110/110 109/109/109
f 109/109/109 112/112/112 111/111/111
f 109/109/109 112/112/112 111/111/111
f 115/115/115 114/114/114 113/113/113
f 115/115/115 114/114/114 113/113/113
f 117/117/117 114/114/114 116/116/116
f 117/117/117 114/114/114 116/116/116
