g Prop_Streetlight
v -0.2824853 7.616699 -0.881499
v -0.2824853 7.334181 -0.5989795
v -0.3995068 7.334181 -0.881499
v 0.2824756 7.616699 -0.881499
v 0.3994971 7.334181 -0.881499
v 0.2824756 7.334181 -0.5989795
v -0.2824853 7.616699 -1.82917
v -0.3995068 7.334181 -1.82917
v -0.2824853 7.334181 -2.111689
v 0.2824756 7.616699 -1.82917
v 0.2824756 7.334181 -2.111689
v 0.3994971 7.334181 -1.82917
v -4.882812E-06 -1.364692E-16 2.228711
v -0.1758057 -1.302542E-16 2.127212
v -0.1758057 5.537748 2.127212
v -4.882812E-06 5.556286 2.228711
v -0.1758057 -1.302542E-16 2.127212
v -0.1758057 -1.178241E-16 1.924214
v -0.1758057 5.50067 1.924214
v -0.1758057 5.537748 2.127212
v -0.1758057 -1.178241E-16 1.924214
v -4.882812E-06 -1.116091E-16 1.822715
v -4.882812E-06 5.482132 1.822715
v -0.1758057 5.50067 1.924214
v -4.882812E-06 -1.116091E-16 1.822715
v 0.1757959 -1.178241E-16 1.924214
v 0.1757959 5.50067 1.924214
v -4.882812E-06 5.482132 1.822715
v 0.1757959 -1.178241E-16 1.924214
v 0.1757959 -1.302542E-16 2.127212
v 0.1757959 5.537748 2.127212
v 0.1757959 5.50067 1.924214
v 0.1757959 -1.302542E-16 2.127212
v -4.882812E-06 -1.364692E-16 2.228711
v -4.882812E-06 5.556286 2.228711
v 0.1757959 5.537748 2.127212
v -4.882812E-06 5.556286 2.228711
v -0.1758057 5.537748 2.127212
v -0.1758057 7.033539 1.562207
v -4.882812E-06 7.112628 1.640835
v -0.1758057 5.537748 2.127212
v -0.1758057 5.50067 1.924214
v -0.1758057 6.875363 1.404951
v -0.1758057 7.033539 1.562207
v -0.1758057 5.50067 1.924214
v -4.882812E-06 5.482132 1.822715
v -4.882812E-06 6.796275 1.326323
v -0.1758057 6.875363 1.404951
v -4.882812E-06 5.482132 1.822715
v 0.1757959 5.50067 1.924214
v 0.1757959 6.875363 1.404951
v -4.882812E-06 6.796275 1.326323
v 0.1757959 5.50067 1.924214
v 0.1757959 5.537748 2.127212
v 0.1757959 7.033539 1.562207
v 0.1757959 6.875363 1.404951
v 0.1757959 7.549641 0.1710742
v 0.1757959 7.346643 0.1346191
v 0.1757959 5.537748 2.127212
v -4.882812E-06 5.556286 2.228711
v -4.882812E-06 7.112628 1.640835
v 0.1757959 7.033539 1.562207
v -4.882812E-06 7.112628 1.640835
v -0.1758057 7.033539 1.562207
v -0.1758057 7.549641 0.1710742
v -4.882812E-06 7.651141 0.1892969
v -0.1758057 7.033539 1.562207
v -0.1758057 6.875363 1.404951
v -0.1758057 7.346643 0.1346191
v -0.1758057 7.549641 0.1710742
v -0.1758081 7.346642 -0.9717724
v -0.1758081 7.549642 -0.9717724
v -0.1758057 6.875363 1.404951
v -4.882812E-06 6.796275 1.326323
v -4.882812E-06 7.245143 0.1163965
v -0.1758057 7.346643 0.1346191
v -4.882812E-06 6.796275 1.326323
v 0.1757959 6.875363 1.404951
v 0.1757959 7.346643 0.1346191
v -4.882812E-06 7.245143 0.1163965
v 0.1757959 7.033539 1.562207
v -4.882812E-06 7.112628 1.640835
v -4.882812E-06 7.651141 0.1892969
v 0.1757959 7.549641 0.1710742
v -4.882812E-06 7.651141 0.1892969
v -0.1758057 7.549641 0.1710742
v -0.1758081 7.549642 -0.9717724
v -7.324219E-06 7.651142 -0.9717724
v -0.1758057 7.346643 0.1346191
v -4.882812E-06 7.245143 0.1163965
v -7.324219E-06 7.245142 -0.9717724
v -0.1758081 7.346642 -0.9717724
v -4.882812E-06 7.245143 0.1163965
v 0.1757959 7.346643 0.1346191
v 0.1757935 7.346642 -0.9717724
v -7.324219E-06 7.245142 -0.9717724
v 0.1757959 7.346643 0.1346191
v 0.1757959 7.549641 0.1710742
v 0.1757935 7.549642 -0.9717724
v 0.1757935 7.346642 -0.9717724
v 0.1757959 7.549641 0.1710742
v -4.882812E-06 7.651141 0.1892969
v -7.324219E-06 7.651142 -0.9717724
v 0.1757935 7.549642 -0.9717724
v -0.1758081 7.346642 -0.9717724
v -7.324219E-06 7.651142 -0.9717724
v -0.1758081 7.549642 -0.9717724
v -7.324219E-06 7.245142 -0.9717724
v 0.1757935 7.346642 -0.9717724
v 0.1757935 7.549642 -0.9717724
v -0.3995068 7.334181 -0.881499
v -0.2824853 7.334181 -0.5989795
v -0.2824853 7.131364 -0.5989795
v -0.3995068 7.131364 -0.881499
v -0.2824853 7.334181 -0.5989795
v -4.882812E-06 7.334181 -0.4819726
v -4.882812E-06 7.131364 -0.4819726
v -0.2824853 7.131364 -0.5989795
v -0.2824853 7.616699 -0.881499
v -4.882812E-06 7.733707 -0.881499
v -4.882812E-06 7.334181 -0.4819726
v -0.2824853 7.334181 -0.5989795
v -0.1271143 7.204865 -0.7543505
v -4.882812E-06 7.204865 -0.7016992
v 0.1271045 7.204865 -0.7543505
v -0.1965088 7.204865 -0.9218799
v 0.196499 7.204865 -0.9218799
v -0.1965088 7.204865 -1.788789
v 0.196499 7.204865 -1.788789
v -0.1271143 7.204865 -1.956318
v 0.1271045 7.204865 -1.956318
v -4.882812E-06 7.204865 -2.00897
v 0.2824756 7.131364 -0.5989795
v 0.2824756 7.334181 -0.5989795
v 0.3994971 7.334181 -0.881499
v 0.3994971 7.131364 -0.881499
v -4.882812E-06 7.131364 -0.4819726
v -4.882812E-06 7.334181 -0.4819726
v 0.2824756 7.334181 -0.5989795
v 0.2824756 7.131364 -0.5989795
v -4.882812E-06 7.334181 -0.4819726
v -4.882812E-06 7.733707 -0.881499
v 0.2824756 7.616699 -0.881499
v 0.2824756 7.334181 -0.5989795
v -0.3995068 7.334181 -0.881499
v -0.3995068 7.131364 -0.881499
v -0.3995068 7.131364 -1.82917
v -0.3995068 7.334181 -1.82917
v -0.2824853 7.131364 -2.111689
v -0.2824853 7.334181 -2.111689
v -0.3995068 7.334181 -1.82917
v -0.3995068 7.131364 -1.82917
v -4.882812E-06 7.131364 -2.228696
v -4.882812E-06 7.334181 -2.228696
v -0.2824853 7.334181 -2.111689
v -0.2824853 7.131364 -2.111689
v -4.882812E-06 7.334181 -2.228696
v -4.882812E-06 7.733707 -1.82917
v -0.2824853 7.616699 -1.82917
v -0.2824853 7.334181 -2.111689
v 0.3994971 7.334181 -1.82917
v 0.2824756 7.334181 -2.111689
v 0.2824756 7.131364 -2.111689
v 0.3994971 7.131364 -1.82917
v 0.2824756 7.334181 -2.111689
v -4.882812E-06 7.334181 -2.228696
v -4.882812E-06 7.131364 -2.228696
v 0.2824756 7.131364 -2.111689
v 0.2824756 7.616699 -1.82917
v -4.882812E-06 7.733707 -1.82917
v -4.882812E-06 7.334181 -2.228696
v 0.2824756 7.334181 -2.111689
v -0.3995068 7.334181 -0.881499
v -0.3995068 7.334181 -1.82917
v -0.2824853 7.616699 -1.82917
v -0.2824853 7.616699 -0.881499
v -0.2824853 7.616699 -1.82917
v -4.882812E-06 7.733707 -1.82917
v -4.882812E-06 7.733707 -0.881499
v -0.2824853 7.616699 -0.881499
v 0.2824756 7.616699 -0.881499
v 0.2824756 7.616699 -1.82917
v 0.3994971 7.334181 -1.82917
v 0.3994971 7.334181 -0.881499
v -4.882812E-06 7.733707 -0.881499
v -4.882812E-06 7.733707 -1.82917
v 0.2824756 7.616699 -1.82917
v 0.2824756 7.616699 -0.881499
v 0.3994971 7.334181 -0.881499
v 0.3994971 7.334181 -1.82917
v 0.3994971 7.131364 -1.82917
v 0.3994971 7.131364 -0.881499
v -0.1271143 7.131364 -0.7543505
v -0.1271143 7.204865 -0.7543505
v -0.1965088 7.204865 -0.9218799
v -0.1965088 7.131364 -0.9218799
v -0.1965088 7.131364 -0.9218799
v -0.1965088 7.204865 -0.9218799
v -0.1965088 7.204865 -1.788789
v -0.1965088 7.131364 -1.788789
v -0.1965088 7.131364 -1.788789
v -0.1965088 7.204865 -1.788789
v -0.1271143 7.204865 -1.956318
v -0.1271143 7.131364 -1.956318
v -0.1271143 7.131364 -1.956318
v -0.1271143 7.204865 -1.956318
v -4.882812E-06 7.204865 -2.00897
v -4.882812E-06 7.131364 -2.00897
v -4.882812E-06 7.131364 -2.00897
v -4.882812E-06 7.204865 -2.00897
v 0.1271045 7.204865 -1.956318
v 0.1271045 7.131364 -1.956318
v 0.1271045 7.131364 -1.956318
v 0.1271045 7.204865 -1.956318
v 0.196499 7.204865 -1.788789
v 0.196499 7.131364 -1.788789
v 0.196499 7.131364 -1.788789
v 0.196499 7.204865 -1.788789
v 0.196499 7.204865 -0.9218799
v 0.196499 7.131364 -0.9218799
v 0.196499 7.131364 -0.9218799
v 0.196499 7.204865 -0.9218799
v 0.1271045 7.204865 -0.7543505
v 0.1271045 7.131364 -0.7543505
v 0.1271045 7.131364 -0.7543505
v 0.1271045 7.204865 -0.7543505
v -4.882812E-06 7.204865 -0.7016992
v -4.882812E-06 7.131364 -0.7016992
v -4.882812E-06 7.131364 -0.7016992
v -4.882812E-06 7.204865 -0.7016992
v -0.1271143 7.204865 -0.7543505
v -0.1271143 7.131364 -0.7543505
v -0.2824853 7.131364 -0.5989795
v -0.1271143 7.131364 -0.7543505
v -0.1965088 7.131364 -0.9218799
v -0.3995068 7.131364 -0.881499
v -4.882812E-06 7.131364 -0.4819726
v -0.1965088 7.131364 -1.788789
v -4.882812E-06 7.131364 -0.7016992
v -0.3995068 7.131364 -1.82917
v 0.2824756 7.131364 -0.5989795
v -0.1271143 7.131364 -1.956318
v 0.1271045 7.131364 -0.7543505
v -0.2824853 7.131364 -2.111689
v 0.3994971 7.131364 -0.881499
v -4.882812E-06 7.131364 -2.00897
v 0.196499 7.131364 -0.9218799
v -4.882812E-06 7.131364 -2.228696
v 0.3994971 7.131364 -1.82917
v 0.1271045 7.131364 -1.956318
v 0.196499 7.131364 -1.788789
v 0.2824756 7.131364 -2.111689
vt 0.430813 0.7720616
vt 0.4204334 0.7840908
vt 0.4325939 0.7840908
vt 0.4090309 0.7720616
vt 0.4072498 0.7840907
vt 0.4194103 0.7840907
vt 0.4515114 0.7720616
vt 0.4497304 0.7840908
vt 0.4618908 0.7840908
vt 0.4977077 0.7720616
vt 0.487328 0.7840908
vt 0.4994884 0.7840908
vt 0.3297089 0.8536298
vt 0.3297089 0.8617022
vt 0.549925 0.8617022
vt 0.5506622 0.8536298
vt 0.5117875 0.2883698
vt 0.5148033 0.2958577
vt 0.7177048 0.2141343
vt 0.7160566 0.2060954
vt 0.0009803476 0.8633955
vt 0.0009803476 0.8714678
vt 0.2189857 0.8714678
vt 0.2197228 0.8633955
vt 0.2207069 0.8633955
vt 0.2207069 0.8714678
vt 0.4394493 0.8714678
vt 0.4387121 0.8633955
vt 0.9863048 0.2884051
vt 0.9890387 0.2808098
vt 0.7818393 0.2062238
vt 0.7804925 0.2143187
vt 0.4405491 0.8633955
vt 0.4405491 0.8714678
vt 0.6615017 0.8714678
vt 0.6607646 0.8633955
vt 0.9852085 0.819809
vt 0.9847425 0.8117163
vt 0.9211949 0.8095856
vt 0.9190884 0.8175922
vt 0.2770534 0.8340738
vt 0.2787014 0.8421127
vt 0.337124 0.8408426
vt 0.3406224 0.832692
vt 0.62344 0.8313982
vt 0.6229742 0.8233058
vt 0.5671433 0.8214338
vt 0.5650366 0.8294403
vt 0.6629711 0.8434556
vt 0.6621885 0.8515241
vt 0.720624 0.8518568
vt 0.7188328 0.8437744
vt 0.2137712 0.3943763
vt 0.215118 0.3862815
vt 0.1515422 0.3872754
vt 0.1553424 0.3952897
vt 0.1134953 0.4323744
vt 0.1205997 0.4364724
vt 0.2650677 0.8434336
vt 0.2642848 0.8515017
vt 0.3304418 0.851879
vt 0.3286505 0.843796
vt 0.085186 0.843454
vt 0.08691447 0.8515503
vt 0.1459141 0.8523468
vt 0.1467476 0.8442847
vt 0.7224305 0.2060791
vt 0.7189321 0.2142297
vt 0.7551894 0.2540862
vt 0.7621356 0.2497256
vt 0.7716268 0.2948974
vt 0.7791147 0.2918812
vt 0.1876616 0.8435057
vt 0.18939 0.8516023
vt 0.2407042 0.852295
vt 0.2415376 0.8442333
vt 0.2736659 0.8421063
vt 0.2757103 0.8340836
vt 0.2218482 0.8326983
vt 0.2223649 0.8407868
vt 0.5572932 0.8422052
vt 0.5593375 0.8341826
vt 0.4977915 0.8325995
vt 0.4983081 0.8406879
vt 0.6451271 0.8536298
vt 0.6458516 0.8617022
vt 0.6912987 0.8617021
vt 0.6912987 0.8536298
vt 0.6628159 0.8633953
vt 0.6635405 0.8714679
vt 0.706813 0.8714679
vt 0.706813 0.8633954
vt 0.7514988 0.8714678
vt 0.7522233 0.8633955
vt 0.708226 0.8633955
vt 0.708226 0.8714678
vt 0.9768247 0.3226593
vt 0.9697202 0.3185612
vt 0.9543277 0.3613217
vt 0.961923 0.364056
vt 0.7877419 0.8617023
vt 0.7884665 0.8536299
vt 0.7422952 0.8536297
vt 0.7422952 0.8617023
vt 0.9490888 0.7222571
vt 0.9611976 0.729248
vt 0.9571613 0.7222571
vt 0.9450524 0.729248
vt 0.9490888 0.736239
vt 0.9571613 0.736239
vt 0.6327894 0.8726764
vt 0.6206285 0.8726764
vt 0.6206285 0.8807415
vt 0.6327894 0.8807415
vt 0.9931399 0.8536334
vt 0.9809812 0.8536334
vt 0.9809812 0.8616986
vt 0.9931399 0.8616986
vt 0.9301929 0.7688297
vt 0.9331035 0.7570245
vt 0.9106466 0.75775
vt 0.914313 0.7693427
vt 0.199436 0.7352793
vt 0.2015298 0.7302246
vt 0.199436 0.72517
vt 0.192774 0.7380388
vt 0.192774 0.7224104
vt 0.1583004 0.7380388
vt 0.1583004 0.7224104
vt 0.1516381 0.7352793
vt 0.1516381 0.72517
vt 0.1495444 0.7302246
vt 0.6694105 0.8807415
vt 0.6694105 0.8726764
vt 0.6572496 0.8726764
vt 0.6572496 0.8807415
vt 0.5571048 0.8807416
vt 0.5571048 0.8726764
vt 0.544946 0.8726764
vt 0.544946 0.8807416
vt 0.3410608 0.7839772
vt 0.3635291 0.7838634
vt 0.3601799 0.7721751
vt 0.3442919 0.7722555
vt 0.6706103 0.8726763
vt 0.6706103 0.8807416
vt 0.7082959 0.8807416
vt 0.7082959 0.8726763
vt 0.03610954 0.8807416
vt 0.03610954 0.8726763
vt 0.02394906 0.8726763
vt 0.02394906 0.8807416
vt 0.7280033 0.8616986
vt 0.7280033 0.8536334
vt 0.7158444 0.8536334
vt 0.7158444 0.8616986
vt 0.2683069 0.7839773
vt 0.2907752 0.7838633
vt 0.2874258 0.7721751
vt 0.2715377 0.7722557
vt 0.9960705 0.863399
vt 0.98391 0.863399
vt 0.98391 0.8714643
vt 0.9960705 0.8714643
vt 0.7411868 0.8536335
vt 0.729028 0.8536335
vt 0.729028 0.8616986
vt 0.7411868 0.8616986
vt 0.8862478 0.7688296
vt 0.889158 0.7570243
vt 0.8667013 0.7577499
vt 0.8703678 0.7693429
vt 0.116411 0.7841563
vt 0.1540968 0.7841563
vt 0.1540968 0.771996
vt 0.116411 0.771996
vt 0.193159 0.7841556
vt 0.193159 0.7719967
vt 0.1554738 0.7719967
vt 0.1554738 0.7841556
vt 0.2322217 0.7719961
vt 0.1945361 0.7719961
vt 0.1945361 0.7841563
vt 0.2322217 0.7841563
vt 0.1150343 0.7719969
vt 0.07734852 0.7719969
vt 0.07734852 0.7841555
vt 0.1150343 0.7841555
vt 0.5959913 0.8726764
vt 0.5583056 0.8726764
vt 0.5583056 0.8807416
vt 0.5959913 0.8807416
vt 0.9989667 0.8413053
vt 0.9989667 0.8383822
vt 0.9917559 0.8383822
vt 0.9917559 0.8413053
vt 0.09121228 0.9912074
vt 0.09121228 0.9882847
vt 0.05673695 0.9882847
vt 0.05673695 0.9912074
vt 0.1488692 0.9912075
vt 0.1488692 0.9882846
vt 0.1416582 0.9882846
vt 0.1416582 0.9912075
vt 0.1404308 0.9912075
vt 0.1404308 0.9882846
vt 0.1349598 0.9882846
vt 0.1349598 0.9912075
vt 0.9988295 0.2045864
vt 0.9988295 0.2016636
vt 0.993358 0.2016636
vt 0.993358 0.2045864
vt 0.9984788 0.9863246
vt 0.9984788 0.983402
vt 0.9912673 0.983402
vt 0.9912673 0.9863246
vt 0.1336926 0.9912074
vt 0.1336926 0.9882847
vt 0.09921756 0.9882847
vt 0.09921756 0.9912074
vt 0.9784591 0.9863247
vt 0.9784591 0.9834019
vt 0.971248 0.9834019
vt 0.971248 0.9863247
vt 0.9988295 0.851559
vt 0.9988295 0.8486363
vt 0.993358 0.8486363
vt 0.993358 0.851559
vt 0.09795034 0.9912075
vt 0.09795034 0.9882846
vt 0.09247935 0.9882846
vt 0.09247935 0.9912075
vt 0.8052236 0.5883815
vt 0.7990451 0.5822033
vt 0.7923832 0.5849627
vt 0.7939889 0.5930352
vt 0.8098768 0.5771485
vt 0.7579095 0.5849627
vt 0.8011389 0.5771485
vt 0.756304 0.5930352
vt 0.8052236 0.5659152
vt 0.7512478 0.5822033
vt 0.7990451 0.5720939
vt 0.7450694 0.5883815
vt 0.7939889 0.5612617
vt 0.749154 0.5771485
vt 0.7923832 0.5693342
vt 0.7404162 0.5771485
vt 0.756304 0.5612617
vt 0.7512478 0.5720939
vt 0.7579095 0.5693342
vt 0.7450694 0.5659152
vn -0.8628594 0.3574037 0.3574021
vn -0.8628594 0.3574037 0.3574021
vn -0.8628594 0.3574037 0.3574022
vn 0.8628594 0.3574037 0.3574021
vn 0.8628594 0.3574037 0.3574022
vn 0.8628594 0.3574037 0.3574021
vn -0.8628594 0.3574037 -0.3574021
vn -0.8628594 0.3574037 -0.3574022
vn -0.8628594 0.3574037 -0.3574021
vn 0.8628594 0.3574037 -0.3574021
vn 0.8628594 0.3574037 -0.3574021
vn 0.8628594 0.3574037 -0.3574022
vn -0.5000015 0 0.8660246
vn -0.5000015 0 0.8660246
vn -0.5000015 0 0.8660246
vn -0.5000015 0 0.8660246
vn -1 0 0
vn -1 0 0
vn -1 0 0
vn -1 0 0
vn -0.5000015 0 -0.8660246
vn -0.5000015 0 -0.8660246
vn -0.5000015 0 -0.8660246
vn -0.5000015 0 -0.8660246
vn 0.5000015 0 -0.8660246
vn 0.5000015 0 -0.8660246
vn 0.5000015 0 -0.8660246
vn 0.5000015 0 -0.8660246
vn 1 0 0
vn 1 0 0
vn 1 0 0
vn 1 0 0
vn 0.5000015 0 0.8660246
vn 0.5000015 0 0.8660246
vn 0.5000015 0 0.8660246
vn 0.5000015 0 0.8660246
vn -0.500012 0.3060172 0.810149
vn -0.500012 0.3060172 0.810149
vn -0.500012 0.3060172 0.810149
vn -0.500012 0.3060172 0.810149
vn -1 0 0
vn -1 0 0
vn -1 0 0
vn -1 0 0
vn -0.500012 -0.3060176 -0.8101489
vn -0.500012 -0.3060176 -0.8101489
vn -0.500012 -0.3060176 -0.8101488
vn -0.500012 -0.3060176 -0.8101489
vn 0.500012 -0.3060176 -0.8101489
vn 0.500012 -0.3060176 -0.8101489
vn 0.500012 -0.3060176 -0.8101489
vn 0.500012 -0.3060176 -0.8101488
vn 1 0 0
vn 1 0 0
vn 1 0 0
vn 1 0 0
vn 1 0 0
vn 1 0 0
vn 0.500012 0.3060172 0.810149
vn 0.500012 0.3060172 0.810149
vn 0.500012 0.3060172 0.810149
vn 0.500012 0.3060172 0.810149
vn -0.5000031 0.8119475 0.3012279
vn -0.5000032 0.8119474 0.3012279
vn -0.5000031 0.8119474 0.3012279
vn -0.5000031 0.8119475 0.3012279
vn -1 0 0
vn -1 0 0
vn -1 0 0
vn -1 0 0
vn -1 -1.949253E-07 2.170874E-06
vn -1 -1.949253E-07 2.170874E-06
vn -0.5000029 -0.811949 -0.301224
vn -0.5000029 -0.8119491 -0.301224
vn -0.5000028 -0.8119491 -0.301224
vn -0.5000029 -0.8119491 -0.301224
vn 0.5000029 -0.8119491 -0.301224
vn 0.5000029 -0.811949 -0.301224
vn 0.5000029 -0.8119491 -0.301224
vn 0.5000028 -0.8119491 -0.301224
vn 0.5000032 0.8119474 0.3012279
vn 0.5000031 0.8119475 0.3012279
vn 0.5000031 0.8119475 0.3012279
vn 0.5000031 0.8119474 0.3012279
vn -0.5000038 0.8660233 1.977128E-06
vn -0.5000038 0.8660233 1.977128E-06
vn -0.5000038 0.8660232 1.977128E-06
vn -0.5000038 0.8660233 1.977128E-06
vn -0.5000036 -0.8660233 2.075648E-06
vn -0.5000036 -0.8660233 2.075648E-06
vn -0.5000036 -0.8660233 2.075648E-06
vn -0.5000036 -0.8660233 2.075648E-06
vn 0.5000037 -0.8660233 -1.47282E-07
vn 0.5000038 -0.8660233 -1.47282E-07
vn 0.5000038 -0.8660233 -1.47282E-07
vn 0.5000038 -0.8660233 -1.47282E-07
vn 1 1.949253E-07 -2.170874E-06
vn 1 1.949253E-07 -2.170874E-06
vn 1 1.949253E-07 -2.170874E-06
vn 1 1.949253E-07 -2.170874E-06
vn 0.5000038 0.8660233 -1.402913E-07
vn 0.5000038 0.8660233 -1.402913E-07
vn 0.5000038 0.8660233 -1.402913E-07
vn 0.5000038 0.8660233 -1.402912E-07
vn 0 0 -1
vn 0 0 -1
vn 0 0 -1
vn 0 0 -1
vn 0 0 -1
vn 0 0 -1
vn -0.9238818 0 0.382678
vn -0.9238818 0 0.382678
vn -0.9238818 0 0.382678
vn -0.9238818 0 0.382678
vn -0.3826824 0 0.92388
vn -0.3826824 0 0.92388
vn -0.3826824 0 0.92388
vn -0.3826824 0 0.92388
vn -0.2810851 0.6785988 0.6785977
vn -0.2810851 0.6785988 0.6785977
vn -0.2810851 0.6785989 0.6785977
vn -0.281085 0.6785988 0.6785977
vn 0 -1 0
vn 0 -1 0
vn 0 -1 0
vn 0 -1 0
vn 0 -1 0
vn 0 -1 0
vn 0 -1 0
vn 0 -1 0
vn 0 -1 0
vn 0 -1 0
vn 0.9238818 0 0.382678
vn 0.9238818 0 0.382678
vn 0.9238818 0 0.382678
vn 0.9238818 0 0.382678
vn 0.3826824 0 0.92388
vn 0.3826824 0 0.92388
vn 0.3826824 0 0.92388
vn 0.3826824 0 0.92388
vn 0.2810851 0.6785989 0.6785977
vn 0.2810851 0.6785988 0.6785977
vn 0.2810851 0.6785988 0.6785977
vn 0.281085 0.6785988 0.6785977
vn -1 0 0
vn -1 0 0
vn -1 0 0
vn -1 0 0
vn -0.9238818 0 -0.382678
vn -0.9238818 0 -0.382678
vn -0.9238818 0 -0.382678
vn -0.9238818 0 -0.382678
vn -0.3826824 0 -0.92388
vn -0.3826824 0 -0.92388
vn -0.3826824 0 -0.92388
vn -0.3826824 0 -0.92388
vn -0.2810851 0.6785989 -0.6785977
vn -0.2810851 0.6785988 -0.6785977
vn -0.2810851 0.6785988 -0.6785977
vn -0.281085 0.6785988 -0.6785977
vn 0.9238818 0 -0.382678
vn 0.9238818 0 -0.382678
vn 0.9238818 0 -0.382678
vn 0.9238818 0 -0.382678
vn 0.3826824 0 -0.92388
vn 0.3826824 0 -0.92388
vn 0.3826824 0 -0.92388
vn 0.3826824 0 -0.92388
vn 0.2810851 0.6785988 -0.6785977
vn 0.2810851 0.6785988 -0.6785977
vn 0.2810851 0.6785989 -0.6785977
vn 0.281085 0.6785988 -0.6785977
vn -0.9238812 0.3826794 0
vn -0.9238812 0.3826794 0
vn -0.9238812 0.3826794 0
vn -0.9238812 0.3826794 0
vn -0.3826858 0.9238786 0
vn -0.3826858 0.9238786 0
vn -0.3826858 0.9238786 0
vn -0.3826858 0.9238786 0
vn 0.9238812 0.3826794 0
vn 0.9238812 0.3826794 0
vn 0.9238812 0.3826794 0
vn 0.9238812 0.3826794 0
vn 0.3826858 0.9238786 0
vn 0.3826858 0.9238786 0
vn 0.3826858 0.9238786 0
vn 0.3826858 0.9238786 0
vn 1 0 0
vn 1 0 0
vn 1 0 0
vn 1 0 0
vn 0.9238763 0 -0.3826911
vn 0.9238763 0 -0.3826911
vn 0.9238763 0 -0.3826911
vn 0.9238763 0 -0.3826911
vn 1 0 0
vn 1 0 0
vn 1 0 0
vn 1 0 0
vn 0.9238763 0 0.3826911
vn 0.9238763 0 0.3826911
vn 0.9238763 0 0.3826911
vn 0.9238763 0 0.3826911
vn 0.3826893 0 0.9238771
vn 0.3826893 0 0.9238771
vn 0.3826893 0 0.9238771
vn 0.3826893 0 0.9238771
vn -0.3826893 0 0.9238771
vn -0.3826893 0 0.9238771
vn -0.3826893 0 0.9238771
vn -0.3826893 0 0.9238771
vn -0.9238763 0 0.3826911
vn -0.9238763 0 0.3826911
vn -0.9238763 0 0.3826911
vn -0.9238763 0 0.3826911
vn -1 0 0
vn -1 0 0
vn -1 0 0
vn -1 0 0
vn -0.9238763 0 -0.3826911
vn -0.9238763 0 -0.3826911
vn -0.9238763 0 -0.3826911
vn -0.9238763 0 -0.3826911
vn -0.3826893 0 -0.9238771
vn -0.3826893 0 -0.9238771
vn -0.3826893 0 -0.9238771
vn -0.3826893 0 -0.9238771
vn 0.3826893 0 -0.9238771
vn 0.3826893 0 -0.9238771
vn 0.3826893 0 -0.9238771
vn 0.3826893 0 -0.9238771
vn 0 -1 0
vn 0 -1 0
vn 0 -1 0
vn 0 -1 0
vn 0 -1 0
vn 0 -1 0
vn 0 -1 0
vn 0 -1 0
vn 0 -1 0
vn 0 -1 0
vn 0 -1 0
vn 0 -1 0
vn 0 -1 0
vn 0 -1 0
vn 0 -1 0
vn 0 -1 0
vn 0 -1 0
vn 0 -1 0
vn 0 -1 0
vn 0 -1 0
g Prop_Streetlight_0
f 3/3/3 2/2/2 1/1/1
f 6/6/6 5/5/5 4/4/4
f 9/9/9 8/8/8 7/7/7
f 12/12/12 11/11/11 10/10/10
f 15/15/15 14/14/14 13/13/13
f 16/16/16 15/15/15 13/13/13
f 19/19/19 18/18/18 17/17/17
f 20/20/20 19/19/19 17/17/17
f 23/23/23 22/22/22 21/21/21
f 24/24/24 23/23/23 21/21/21
f 27/27/27 26/26/26 25/25/25
f 28/28/28 27/27/27 25/25/25
f 31/31/31 30/30/30 29/29/29
f 32/32/32 31/31/31 29/29/29
f 35/35/35 34/34/34 33/33/33
f 36/36/36 35/35/35 33/33/33
f 39/39/39 38/38/38 37/37/37
f 40/40/40 39/39/39 37/37/37
f 43/43/43 42/42/42 41/41/41
f 44/44/44 43/43/43 41/41/41
f 47/47/47 46/46/46 45/45/45
f 48/48/48 47/47/47 45/45/45
f 51/51/51 50/50/50 49/49/49
f 52/52/52 51/51/51 49/49/49
f 55/55/55 54/54/54 53/53/53
f 56/56/56 55/55/55 53/53/53
f 57/57/57 55/55/55 56/56/56
f 58/58/58 57/57/57 56/56/56
f 61/61/61 60/60/60 59/59/59
f 62/62/62 61/61/61 59/59/59
f 65/65/65 64/64/64 63/63/63
f 66/66/66 65/65/65 63/63/63
f 69/69/69 68/68/68 67/67/67
f 70/70/70 69/69/69 67/67/67
f 71/71/71 69/69/69 70/70/70
f 72/72/72 71/71/71 70/70/70
f 75/75/75 74/74/74 73/73/73
f 76/76/76 75/75/75 73/73/73
f 79/79/79 78/78/78 77/77/77
f 80/80/80 79/79/79 77/77/77
f 83/83/83 82/82/82 81/81/81
f 84/84/84 83/83/83 81/81/81
f 87/87/87 86/86/86 85/85/85
f 88/88/88 87/87/87 85/85/85
f 91/91/91 90/90/90 89/89/89
f 92/92/92 91/91/91 89/89/89
f 95/95/95 94/94/94 93/93/93
f 96/96/96 95/95/95 93/93/93
f 99/99/99 98/98/98 97/97/97
f 100/100/100 99/99/99 97/97/97
f 103/103/103 102/102/102 101/101/101
f 104/104/104 103/103/103 101/101/101
f 107/107/107 106/106/106 105/105/105
f 105/105/105 106/106/106 108/108/108
f 106/106/106 109/109/109 108/108/108
f 109/109/109 106/106/106 110/110/110
f 113/113/113 112/112/112 111/111/111
f 114/114/114 113/113/113 111/111/111
f 117/117/117 116/116/116 115/115/115
f 118/118/118 117/117/117 115/115/115
f 121/121/121 120/120/120 119/119/119
f 122/122/122 121/121/121 119/119/119
f 125/125/125 124/124/124 123/123/123
f 125/125/125 123/123/123 126/126/126
f 126/126/126 127/127/127 125/125/125
f 126/126/126 128/128/128 127/127/127
f 128/128/128 129/129/129 127/127/127
f 129/129/129 128/128/128 130/130/130
f 131/131/131 129/129/129 130/130/130
f 130/130/130 132/132/132 131/131/131
f 135/135/135 134/134/134 133/133/133
f 136/136/136 135/135/135 133/133/133
f 139/139/139 138/138/138 137/137/137
f 140/140/140 139/139/139 137/137/137
f 143/143/143 142/142/142 141/141/141
f 144/144/144 143/143/143 141/141/141
f 147/147/147 146/146/146 145/145/145
f 148/148/148 147/147/147 145/145/145
f 151/151/151 150/150/150 149/149/149
f 152/152/152 151/151/151 149/149/149
f 155/155/155 154/154/154 153/153/153
f 156/156/156 155/155/155 153/153/153
f 159/159/159 158/158/158 157/157/157
f 160/160/160 159/159/159 157/157/157
f 163/163/163 162/162/162 161/161/161
f 164/164/164 163/163/163 161/161/161
f 167/167/167 166/166/166 165/165/165
f 168/168/168 167/167/167 165/165/165
f 171/171/171 170/170/170 169/169/169
f 172/172/172 171/171/171 169/169/169
f 175/175/175 174/174/174 173/173/173
f 176/176/176 175/175/175 173/173/173
f 179/179/179 178/178/178 177/177/177
f 180/180/180 179/179/179 177/177/177
f 183/183/183 182/182/182 181/181/181
f 184/184/184 183/183/183 181/181/181
f 187/187/187 186/186/186 185/185/185
f 188/188/188 187/187/187 185/185/185
f 191/191/191 190/190/190 189/189/189
f 192/192/192 191/191/191 189/189/189
f 195/195/195 194/194/194 193/193/193
f 196/196/196 195/195/195 193/193/193
f 199/199/199 198/198/198 197/197/197
f 200/200/200 199/199/199 197/197/197
f 203/203/203 202/202/202 201/201/201
f 204/204/204 203/203/203 201/201/201
f 207/207/207 206/206/206 205/205/205
f 208/208/208 207/207/207 205/205/205
f 211/211/211 210/210/210 209/209/209
f 212/212/212 211/211/211 209/209/209
f 215/215/215 214/214/214 213/213/213
f 216/216/216 215/215/215 213/213/213
f 219/219/219 218/218/218 217/217/217
f 220/220/220 219/219/219 217/217/217
f 223/223/223 222/222/222 221/221/221
f 224/224/224 223/223/223 221/221/221
f 227/227/227 226/226/226 225/225/225
f 228/228/228 227/227/227 225/225/225
f 231/231/231 230/230/230 229/229/229
f 232/232/232 231/231/231 229/229/229
f 235/235/235 234/234/234 233/233/233
f 236/236/236 235/235/235 233/233/233
f 233/233/233 234/234/234 237/237/237
f 238/238/238 235/235/235 236/236/236
f 234/234/234 239/239/239 237/237/237
f 240/240/240 238/238/238 236/236/236
f 237/237/237 239/239/239 241/241/241
f 242/242/242 238/238/238 240/240/240
f 239/239/239 243/243/243 241/241/241
f 244/244/244 242/242/242 240/240/240
f 241/241/241 243/243/243 245/245/245
f 246/246/246 242/242/242 244/244/244
f 243/243/243 247/247/247 245/245/245
f 248/248/248 246/246/246 244/244/244
f 245/245/245 247/247/247 249/249/249
f 250/250/250 246/246/246 248/248/248
f 247/247/247 251/251/251 249/249/249
f 252/252/252 250/250/250 248/248/248
f 249/249/249 251/251/251 252/252/252
f 251/251/251 250/250/250 252/252/252
