g R_Knee
v 0.0009715188 -0.0004183694 -0.0006397655
v -1.920838E-05 7.013597E-05 0.0002991779
v 0.001677005 0.000173596 -0.0005443368
v -0.001413636 0.0004270579 -0.0005460527
v -1.920838E-05 7.013597E-05 0.0002991779
v -0.001715422 0.000173596 -0.0005443368
v -0.0005034861 0.0007583159 -0.0005459611
v -1.920838E-05 7.013597E-05 0.0002991779
v 0.0004650696 0.0007583152 -0.0005459611
v -1.920838E-05 7.013597E-05 0.0002991779
v 0.001375219 0.0004270581 -0.0005460527
v -1.920838E-05 7.013597E-05 0.0002991779
v 0.001677005 0.000173596 -0.0005443368
v -1.920838E-05 7.013597E-05 0.0002991779
v -0.001715422 0.000173596 -0.0005443368
v -1.920838E-05 7.013597E-05 0.0002991779
v -0.001009936 -0.0004183694 -0.0006397655
v -0.001009935 -0.000372969 -0.003062242
v -1.920829E-05 0.0001296644 -0.004318825
v -0.001715422 0.0002361167 -0.002966814
v 0.001677005 0.0002361167 -0.002966814
v -1.920829E-05 0.0001296644 -0.004318825
v 0.0009715188 -0.000372969 -0.003062242
v -0.001715422 0.0002361167 -0.002966814
v -1.920829E-05 0.0001296644 -0.004318825
v -0.001413636 0.0004969093 -0.002968531
v -1.920829E-05 0.0001296644 -0.004318825
v -0.0005034861 0.0008377472 -0.002968439
v -1.920829E-05 0.0001296644 -0.004318825
v 0.0004650697 0.0008377469 -0.002968439
v -1.920829E-05 0.0001296644 -0.004318825
v 0.001375219 0.0004969093 -0.002968531
v -1.920829E-05 0.0001296644 -0.004318825
v 0.001677005 0.0002361167 -0.002966814
v 0.001375219 0.0004270581 -0.0005460527
v 0.001375219 0.0004969093 -0.002968531
v 0.001677005 0.0002361167 -0.002966814
v 0.001677005 0.000173596 -0.0005443368
v 0.001677005 0.000173596 -0.0005443368
v 0.001677005 0.0002361167 -0.002966814
v 0.0009715188 -0.000372969 -0.003062242
v 0.0009715188 -0.0004183694 -0.0006397655
v -0.001715422 0.000173596 -0.0005443368
v -0.001715422 0.0002361167 -0.002966814
v -0.001413636 0.0004969093 -0.002968531
v -0.001413636 0.0004270579 -0.0005460527
v -0.001413636 0.0004270579 -0.0005460527
v -0.001413636 0.0004969093 -0.002968531
v -0.0005034861 0.0008377472 -0.002968439
v -0.0005034861 0.0007583159 -0.0005459611
v -0.0005034861 0.0007583159 -0.0005459611
v -0.0005034861 0.0008377472 -0.002968439
v 0.0004650697 0.0008377469 -0.002968439
v 0.0004650696 0.0007583152 -0.0005459611
v -0.001009936 -0.0004183694 -0.0006397655
v -0.001009935 -0.000372969 -0.003062242
v -0.001715422 0.0002361167 -0.002966814
v -0.001715422 0.000173596 -0.0005443368
v 0.0004650696 0.0007583152 -0.0005459611
v 0.0004650697 0.0008377469 -0.002968439
v 0.001375219 0.0004969093 -0.002968531
v 0.001375219 0.0004270581 -0.0005460527
v -0.0009529815 -0.0003708129 -0.0006380489
v -1.920838E-05 7.013597E-05 0.0002991779
v -0.0003435067 -0.0001489719 -0.0006381404
v -0.0009529815 -0.0003240371 -0.003060526
v -0.0003435067 -9.578025E-05 -0.003060617
v -1.920829E-05 0.0001296644 -0.004318825
v -0.0003435067 -0.0001489719 -0.0006381404
v -1.920838E-05 7.013597E-05 0.0002991779
v 0.0003050903 -0.0001489724 -0.0006381404
v -0.0003435067 -9.578025E-05 -0.003060617
v 0.0003050904 -9.578079E-05 -0.003060617
v -1.920829E-05 0.0001296644 -0.004318825
v 0.0003050903 -0.0001489724 -0.0006381404
v -1.920838E-05 7.013597E-05 0.0002991779
v 0.0009145648 -0.0003708127 -0.0006380489
v 0.0003050904 -9.578079E-05 -0.003060617
v 0.0009145648 -0.000324037 -0.003060526
v -1.920829E-05 0.0001296644 -0.004318825
v -0.001009936 -0.0004183694 -0.0006397655
v -1.920838E-05 7.013597E-05 0.0002991779
v -0.0009529815 -0.0003708129 -0.0006380489
v -0.001009935 -0.000372969 -0.003062242
v -0.0009529815 -0.0003240371 -0.003060526
v -1.920829E-05 0.0001296644 -0.004318825
v 0.0009145648 -0.0003708127 -0.0006380489
v -1.920838E-05 7.013597E-05 0.0002991779
v 0.0009715188 -0.0004183694 -0.0006397655
v 0.0009145648 -0.000324037 -0.003060526
v 0.0009715188 -0.000372969 -0.003062242
v -1.920829E-05 0.0001296644 -0.004318825
vt 0.8632813 0.1790771
vt 0.8632813 0.1790771
vt 0.8544922 0.1688232
vt 0.8662109 0.3171387
vt 0.8662109 0.3171387
vt 0.8544922 0.3310547
vt 0.8823242 0.2734375
vt 0.8823242 0.2734375
vt 0.8823242 0.2266846
vt 0.8823242 0.2266846
vt 0.8662109 0.1828613
vt 0.8662109 0.1828613
vt 0.8544922 0.1688232
vt 0.8544922 0.1688232
vt 0.8544922 0.3310547
vt 0.8544922 0.3310547
vt 0.8632813 0.3208008
vt 0.8632813 0.3208008
vt 0.8632813 0.3208008
vt 0.8544922 0.3310547
vt 0.8544922 0.1688232
vt 0.8544922 0.1688232
vt 0.8632813 0.1790771
vt 0.8544922 0.3310547
vt 0.8544922 0.3310547
vt 0.8662109 0.3171387
vt 0.8662109 0.3171387
vt 0.8823242 0.2734375
vt 0.8823242 0.2734375
vt 0.8823242 0.2266846
vt 0.8823242 0.2266846
vt 0.8662109 0.1828613
vt 0.8662109 0.1828613
vt 0.8544922 0.1688232
vt 0.8662109 0.1828613
vt 0.8662109 0.1828613
vt 0.8544922 0.1688232
vt 0.8544922 0.1688232
vt 0.8544922 0.1688232
vt 0.8544922 0.1688232
vt 0.8632813 0.1790771
vt 0.8632813 0.1790771
vt 0.8544922 0.3310547
vt 0.8544922 0.3310547
vt 0.8662109 0.3171387
vt 0.8662109 0.3171387
vt 0.8662109 0.3171387
vt 0.8662109 0.3171387
vt 0.8823242 0.2734375
vt 0.8823242 0.2734375
vt 0.8823242 0.2734375
vt 0.8823242 0.2734375
vt 0.8823242 0.2266846
vt 0.8823242 0.2266846
vt 0.8632813 0.3208008
vt 0.8632813 0.3208008
vt 0.8544922 0.3310547
vt 0.8544922 0.3310547
vt 0.8823242 0.2266846
vt 0.8823242 0.2266846
vt 0.8662109 0.1828613
vt 0.8662109 0.1828613
vt 0.8662109 0.3171387
vt 0.8662109 0.3171387
vt 0.8823242 0.2734375
vt 0.8662109 0.3171387
vt 0.8823242 0.2734375
vt 0.8823242 0.2734375
vt 0.8823242 0.2734375
vt 0.8823242 0.2734375
vt 0.8823242 0.2266846
vt 0.8823242 0.2734375
vt 0.8823242 0.2266846
vt 0.8823242 0.2266846
vt 0.8823242 0.2266846
vt 0.8823242 0.2266846
vt 0.8662109 0.1828613
vt 0.8823242 0.2266846
vt 0.8662109 0.1828613
vt 0.8662109 0.1828613
vt 0.8632813 0.3208008
vt 0.8632813 0.3208008
vt 0.8662109 0.3171387
vt 0.8632813 0.3208008
vt 0.8662109 0.3171387
vt 0.8662109 0.3171387
vt 0.8662109 0.1828613
vt 0.8662109 0.1828613
vt 0.8632813 0.1790771
vt 0.8662109 0.1828613
vt 0.8632813 0.1790771
vt 0.8632813 0.1790771
vn 0.390625 -0.5805664 0.7143555
vn 0.390625 -0.5805664 0.7143555
vn 0.390625 -0.5805664 0.7143555
vn -0.3430176 0.5170898 0.7841797
vn 1.192093E-07 0.7011719 0.7128906
vn -0.375 0.4519043 0.8095703
vn -0.1502686 0.7226563 0.6748047
vn 1.192093E-07 0.7011719 0.7128906
vn 0.1502686 0.7226563 0.6748047
vn 1.192093E-07 0.7011719 0.7128906
vn 0.3430176 0.5170898 0.7841797
vn 1.192093E-07 0.7011719 0.7128906
vn 0.375 0.4519043 0.8095703
vn 1.192093E-07 0.7011719 0.7128906
vn -0.390625 -0.5805664 0.7143555
vn -0.390625 -0.5805664 0.7143555
vn -0.390625 -0.5805664 0.7143555
vn -0.5473633 -0.5332031 -0.6450195
vn -0.5473633 -0.5332031 -0.6450195
vn -0.5473633 -0.5332031 -0.6450195
vn 0.5473633 -0.5332031 -0.6450195
vn 0.5473633 -0.5332031 -0.6450195
vn 0.5473633 -0.5332031 -0.6450195
vn -0.4921875 0.5654297 -0.6621094
vn -1.192093E-07 0.8291016 -0.559082
vn -0.435791 0.6469727 -0.6259766
vn -1.192093E-07 0.8291016 -0.559082
vn -0.1733398 0.8452148 -0.5053711
vn -1.192093E-07 0.8291016 -0.559082
vn 0.1733398 0.8452148 -0.5053711
vn -1.192093E-07 0.8291016 -0.559082
vn 0.435791 0.6469727 -0.6259766
vn -1.192093E-07 0.8291016 -0.559082
vn 0.4921875 0.5654297 -0.6621094
vn 0.6484375 0.7612305 0.02079773
vn 0.6484375 0.7612305 0.02079773
vn 0.6484375 0.7612305 0.02079773
vn 0.6484375 0.7612305 0.02079773
vn 0.6494141 -0.7602539 -0.01693726
vn 0.6494141 -0.7602539 -0.01693726
vn 0.6494141 -0.7602539 -0.01693726
vn 0.6494141 -0.7602539 -0.01693726
vn -0.6484375 0.7612305 0.02079773
vn -0.6484375 0.7612305 0.02079773
vn -0.6484375 0.7612305 0.02079773
vn -0.6484375 0.7612305 0.02079773
vn -0.3461914 0.9375 0.02890015
vn -0.3461914 0.9375 0.02890015
vn -0.3461914 0.9375 0.02890015
vn -0.3461914 0.9375 0.02890015
vn 5.364418E-07 0.9995117 0.03277588
vn 5.364418E-07 0.9995117 0.03277588
vn 5.364418E-07 0.9995117 0.03277588
vn 5.364418E-07 0.9995117 0.03277588
vn -0.6494141 -0.7602539 -0.01693726
vn -0.6494141 -0.7602539 -0.01693726
vn -0.6494141 -0.7602539 -0.01693726
vn -0.6494141 -0.7602539 -0.01693726
vn 0.3461914 0.9375 0.02890015
vn 0.3461914 0.9375 0.02890015
vn 0.3461914 0.9375 0.02890015
vn 0.3461914 0.9375 0.02890015
vn 0.3449707 -0.9384766 0.01933289
vn 0.340332 -0.9350586 0.1008301
vn 0.3435059 -0.9379883 0.04718018
vn 0.3476563 -0.9365234 -0.04013062
vn 0.3483887 -0.9360352 -0.05084229
vn 0.3496094 -0.9335938 -0.07714844
vn -8.34465E-07 -0.9960938 0.08911133
vn -8.34465E-07 -0.9736328 0.2276611
vn -8.34465E-07 -0.9960938 0.08911133
vn -8.34465E-07 -0.9956055 -0.09283447
vn -8.34465E-07 -0.9956055 -0.09283447
vn -8.34465E-07 -0.984375 -0.1763916
vn -0.3435059 -0.9379883 0.04718018
vn -0.340332 -0.9350586 0.1008301
vn -0.3449707 -0.9384766 0.01933289
vn -0.3483887 -0.9360352 -0.05084229
vn -0.3476563 -0.9365234 -0.04013062
vn -0.3496094 -0.9335938 -0.07714844
vn 0.6435547 -0.7592773 -0.0958252
vn 0.6210938 -0.734375 -0.2736816
vn 0.6367188 -0.7514648 -0.1727295
vn 0.6459961 -0.7607422 0.0647583
vn 0.6435547 -0.7573242 0.1124268
vn 0.6347656 -0.7460938 0.2020264
vn -0.6367188 -0.7514648 -0.1727295
vn -0.6210938 -0.734375 -0.2736816
vn -0.6435547 -0.7592773 -0.0958252
vn -0.6435547 -0.7573242 0.1124268
vn -0.6459961 -0.7607422 0.0647583
vn -0.6347656 -0.7460938 0.2020264
g R_Knee_0
f 3/3/3 2/2/2 1/1/1
f 6/6/6 5/5/5 4/4/4
f 4/4/4 8/8/8 7/7/7
f 7/7/7 10/10/10 9/9/9
f 9/9/9 12/12/12 11/11/11
f 11/11/11 14/14/14 13/13/13
f 17/17/17 16/16/16 15/15/15
f 20/20/20 19/19/19 18/18/18
f 23/23/23 22/22/22 21/21/21
f 26/26/26 25/25/25 24/24/24
f 28/28/28 27/27/27 26/26/26
f 30/30/30 29/29/29 28/28/28
f 32/32/32 31/31/31 30/30/30
f 34/34/34 33/33/33 32/32/32
f 37/37/37 36/36/36 35/35/35
f 38/38/38 37/37/37 35/35/35
f 41/41/41 40/40/40 39/39/39
f 42/42/42 41/41/41 39/39/39
f 45/45/45 44/44/44 43/43/43
f 46/46/46 45/45/45 43/43/43
f 49/49/49 48/48/48 47/47/47
f 50/50/50 49/49/49 47/47/47
f 53/53/53 52/52/52 51/51/51
f 54/54/54 53/53/53 51/51/51
f 57/57/57 56/56/56 55/55/55
f 58/58/58 57/57/57 55/55/55
f 61/61/61 60/60/60 59/59/59
f 62/62/62 61/61/61 59/59/59
f 65/65/65 64/64/64 63/63/63
f 63/63/63 66/66/66 65/65/65
f 66/66/66 67/67/67 65/65/65
f 66/66/66 68/68/68 67/67/67
f 71/71/71 70/70/70 69/69/69
f 69/69/69 72/72/72 71/71/71
f 72/72/72 73/73/73 71/71/71
f 72/72/72 74/74/74 73/73/73
f 77/77/77 76/76/76 75/75/75
f 75/75/75 78/78/78 77/77/77
f 78/78/78 79/79/79 77/77/77
f 78/78/78 80/80/80 79/79/79
f 83/83/83 82/82/82 81/81/81
f 81/81/81 84/84/84 83/83/83
f 84/84/84 85/85/85 83/83/83
f 84/84/84 86/86/86 85/85/85
f 89/89/89 88/88/88 87/87/87
f 87/87/87 90/90/90 89/89/89
f 90/90/90 91/91/91 89/89/89
f 90/90/90 92/92/92 91/91/91
