g R_Upper_arm
v -0.002506141 0.000213973 -0.001377776
v -0.002473976 0.0001920841 -0.001251108
v -9.125787E-05 -3.362918E-05 0.0004222326
v -0.002473976 0.0001920841 -0.001251108
v -0.002139111 -3.363061E-05 0.0004222326
v -9.125787E-05 -3.362918E-05 0.0004222326
v 0.002323625 0.0002255759 -0.001465084
v 0.002323624 0.002094323 -0.001746913
v 0.002179867 0.001967446 -0.001853306
v 0.002179868 0.0001288043 -0.001599443
v 0.001414334 0.002008063 -0.004884052
v 0.001986667 0.002208726 -0.007744929
v 0.001986668 0.0006729509 -0.007711427
v 0.001440943 0.000581553 -0.004742655
v -9.125948E-05 0.002979368 -0.001581852
v -9.125948E-05 0.002972392 -0.001641339
v 0.002323624 0.002094323 -0.001746913
v 0.002323624 0.002104579 -0.001659436
v -9.125966E-05 0.002986151 -0.001494704
v 0.002291459 0.002114557 -0.00153128
v -9.125975E-05 0.003117592 -0.0003540516
v 0.001956593 0.002307847 0.0001461153
v 0.002323625 0.0002139752 -0.001377776
v 0.002323624 0.002094323 -0.001746913
v 0.002323625 0.0002255759 -0.001465084
v 0.002323624 0.002104579 -0.001659436
v 0.00229146 0.0001920869 -0.001251108
v 0.002291459 0.002114557 -0.00153128
v 0.001956595 -3.362811E-05 0.0004222326
v 0.001956593 0.002307847 0.0001461153
v -9.125912E-05 0.002907949 0.0001461153
v -9.125975E-05 0.003117592 -0.0003540516
v 0.001956593 0.002307847 0.0001461153
v -9.125895E-05 0.002540661 0.000739214
v 0.001601861 0.002043746 0.0007322116
v -9.125805E-05 0.0003191689 0.0009384127
v 0.001601861 0.002043746 0.0007322116
v 0.001601987 0.0003197315 0.0009437843
v -9.125895E-05 0.002540661 0.000739214
v -0.001784503 0.0003197293 0.0009437843
v -0.001784379 0.002043744 0.000732213
v -0.0004717809 0.002800562 -0.004470346
v -0.002169187 0.002208724 -0.007744929
v -9.126037E-05 0.003061928 -0.007731478
v -0.00237926 0.002008062 -0.004170174
v -9.12593E-05 0.002709164 -0.001791238
v -0.002169186 0.001855961 -0.001902165
v -0.002473976 0.0001920841 -0.001251108
v -0.002139112 0.002307845 0.0001461167
v -0.002139111 -3.363061E-05 0.0004222326
v -0.002473977 0.002114555 -0.00153128
v -0.002506141 0.000213973 -0.001377776
v -0.002506142 0.002104577 -0.001659436
v -0.002506141 0.0002255734 -0.001465084
v -0.002506142 0.002094321 -0.001746913
v -0.002362384 0.0001288015 -0.001599443
v -0.002362385 0.001967444 -0.001853305
v -0.002506142 0.002094321 -0.001746913
v -0.002506141 0.0002255734 -0.001465084
v -9.125948E-05 0.002972392 -0.001641339
v 0.002179867 0.001967446 -0.001853306
v 0.002323624 0.002094323 -0.001746913
v -9.125948E-05 0.002886115 -0.001713687
v -0.002506142 0.002094321 -0.001746913
v 0.001986668 0.001855964 -0.001902167
v -0.002362385 0.001967444 -0.001853305
v -9.12593E-05 0.002709164 -0.001791238
v -0.002169186 0.001855961 -0.001902165
v -9.125948E-05 0.002979368 -0.001581852
v -0.002506142 0.002094321 -0.001746913
v -9.125948E-05 0.002972392 -0.001641339
v -0.002506142 0.002104577 -0.001659436
v -0.002473977 0.002114555 -0.00153128
v -9.125966E-05 0.002986151 -0.001494704
v -9.125975E-05 0.003117592 -0.0003540516
v -0.002139112 0.002307845 0.0001461167
v -0.002169186 0.001855961 -0.001902165
v -0.002362385 0.001967444 -0.001853305
v -0.002362384 0.0001288015 -0.001599443
v -0.002169185 0.0003201853 -0.001625868
v -0.0004717809 0.002800562 -0.004470346
v -9.126037E-05 0.003061928 -0.007731478
v 0.001986667 0.002208726 -0.007744929
v 0.001414334 0.002008063 -0.004884052
v -9.12593E-05 0.002709164 -0.001791238
v 0.001986668 0.001855964 -0.001902167
v 0.001986669 0.0003201878 -0.001625868
v 0.002179868 0.0001288043 -0.001599443
v 0.002179867 0.001967446 -0.001853306
v 0.001986668 0.001855964 -0.001902167
v -9.125787E-05 0.0004615921 -0.001625868
v 0.002179868 0.0001288043 -0.001599443
v 0.001986669 0.0003201878 -0.001625868
v -9.125769E-05 0.0001288029 -0.001599443
v -0.002169185 0.0003201853 -0.001625868
v -0.002362384 0.0001288015 -0.001599443
v -0.001895372 0.0009659518 -0.007717914
v -0.001895372 0.000966328 -0.00742327
v -0.001895366 0.002030315 -0.007455247
v -0.001895366 0.002029938 -0.007749892
v 0.001712847 0.00202994 -0.007749892
v 0.001712847 0.002030316 -0.007455247
v 0.001712854 0.0009663302 -0.00742327
v 0.001712854 0.000965954 -0.007717914
v -0.002352651 0.0005815508 -0.004028777
v -0.002169186 0.0006729484 -0.007711427
v -0.002169187 0.002208724 -0.007744929
v -0.00237926 0.002008062 -0.004170174
v -0.002169185 0.0003201853 -0.001625868
v -0.002169186 0.001855961 -0.001902165
v -9.126028E-05 0.002767165 -0.00773986
v -9.126028E-05 0.002767541 -0.007445215
v 0.001712847 0.002030316 -0.007455247
v 0.001712847 0.00202994 -0.007749892
v -0.0004558538 0.0007128972 -0.004385716
v -9.125876E-05 0.0008143555 -0.007711427
v -0.002169186 0.0006729484 -0.007711427
v -0.002352651 0.0005815508 -0.004028777
v -9.125787E-05 0.0004615921 -0.001625868
v -0.002169185 0.0003201853 -0.001625868
v 0.001986669 0.0003201878 -0.001625868
v 0.001440943 0.000581553 -0.004742655
v 0.001440943 0.000581553 -0.004742655
v 0.001986668 0.0006729509 -0.007711427
v -9.125876E-05 0.0008143555 -0.007711427
v -0.0004558538 0.0007128972 -0.004385716
v -0.002139112 0.002307845 0.0001461167
v -9.125975E-05 0.003117592 -0.0003540516
v -9.125912E-05 0.002907949 0.0001461153
v -0.001784379 0.002043744 0.000732213
v -9.125895E-05 0.002540661 0.000739214
v -0.001784503 0.0003197293 0.0009437843
v -0.002139111 -3.363061E-05 0.0004222326
v -0.002139112 0.002307845 0.0001461167
v -0.001784379 0.002043744 0.000732213
v 0.001601861 0.002043746 0.0007322116
v 0.001956593 0.002307847 0.0001461153
v 0.001956595 -3.362811E-05 0.0004222326
v 0.001601987 0.0003197315 0.0009437843
v -9.125805E-05 0.0003191689 0.0009384127
v -0.002139111 -3.363061E-05 0.0004222326
v -0.001784503 0.0003197293 0.0009437843
v -9.125787E-05 -3.362918E-05 0.0004222326
v 0.001601987 0.0003197315 0.0009437843
v 0.001956595 -3.362811E-05 0.0004222326
v -0.001895366 0.002029938 -0.007749892
v -0.002169186 0.0006729484 -0.007711427
v -0.001895372 0.0009659518 -0.007717914
v -0.002169187 0.002208724 -0.007744929
v -9.126028E-05 0.002767165 -0.00773986
v -9.126037E-05 0.003061928 -0.007731478
v 0.001712847 0.00202994 -0.007749892
v 0.001986667 0.002208726 -0.007744929
v 0.001712854 0.000965954 -0.007717914
v 0.001986668 0.0006729509 -0.007711427
v 0.001986667 0.002208726 -0.007744929
v 0.001712847 0.00202994 -0.007749892
v -0.001895372 0.0009659518 -0.007717914
v -0.002169186 0.0006729484 -0.007711427
v -9.125876E-05 0.0008143555 -0.007711427
v -9.125895E-05 0.00108873 -0.007717716
v -9.125895E-05 0.00108873 -0.007717716
v -9.125876E-05 0.0008143555 -0.007711427
v 0.001986668 0.0006729509 -0.007711427
v 0.001712854 0.000965954 -0.007717914
v -9.126028E-05 0.002767165 -0.00773986
v -0.001895366 0.002029938 -0.007749892
v -0.001895366 0.002030315 -0.007455247
v -9.126028E-05 0.002767541 -0.007445215
v 0.001712854 0.000965954 -0.007717914
v 0.001712854 0.0009663302 -0.00742327
v -9.125895E-05 0.001089106 -0.007423072
v -9.125895E-05 0.00108873 -0.007717716
v -0.001895372 0.000966328 -0.00742327
v -0.001895372 0.0009659518 -0.007717914
v -9.12602E-05 0.002463898 -0.007453211
v -0.001895366 0.002030315 -0.007455247
v -0.001613285 0.001846135 -0.007459387
v -9.126028E-05 0.002767541 -0.007445215
v 0.001430766 0.001846136 -0.007459387
v 0.001712847 0.002030316 -0.007455247
v 0.001430812 0.001268131 -0.007430406
v 0.001712854 0.0009663302 -0.00742327
v -0.001613285 0.001846135 -0.007459387
v -0.001895366 0.002030315 -0.007455247
v -0.001895372 0.000966328 -0.00742327
v -0.001613331 0.001268129 -0.007430406
v -0.001613331 0.001268129 -0.007430406
v -0.001895372 0.000966328 -0.00742327
v -9.125895E-05 0.001089106 -0.007423072
v -9.125912E-05 0.001371697 -0.007430801
v -9.125895E-05 0.001089106 -0.007423072
v 0.001712854 0.0009663302 -0.00742327
v 0.001430812 0.001268131 -0.007430406
v 0.001986668 0.001855964 -0.001902167
v 0.001414334 0.002008063 -0.004884052
v 0.001440943 0.000581553 -0.004742655
v 0.001986669 0.0003201878 -0.001625868
v 0.002323625 0.0002255759 -0.001465084
v 0.002179868 0.0001288043 -0.001599443
v -9.125769E-05 0.0001288029 -0.001599443
v -9.125787E-05 -3.362918E-05 0.0004222326
v -0.002362384 0.0001288015 -0.001599443
v -0.002506141 0.0002255734 -0.001465084
v -0.002506141 0.000213973 -0.001377776
v -9.125787E-05 -3.362918E-05 0.0004222326
v 0.002323625 0.0002139752 -0.001377776
v 0.002323625 0.0002255759 -0.001465084
v 0.00229146 0.0001920869 -0.001251108
v 0.001956595 -3.362811E-05 0.0004222326
vt 0.197998 0.6171875
vt 0.1981201 0.6171875
vt 0.25 0.6171875
vt 0.1981201 0.6171875
vt 0.1981201 0.6171875
vt 0.25 0.6171875
vt 0.3017578 0.6171875
vt 0.3017578 0.6171875
vt 0.3017578 0.6171875
vt 0.3017578 0.6171875
vt 0.2919922 0.6171875
vt 0.2919922 0.6171875
vt 0.2973633 0.6171875
vt 0.2973633 0.6171875
vt 0.25 0.6171875
vt 0.2498779 0.6171875
vt 0.3017578 0.6171875
vt 0.302002 0.6171875
vt 0.25 0.6171875
vt 0.302002 0.6171875
vt 0.25 0.6171875
vt 0.302002 0.6171875
vt 0.302002 0.6171875
vt 0.3017578 0.6171875
vt 0.3017578 0.6171875
vt 0.302002 0.6171875
vt 0.302002 0.6171875
vt 0.302002 0.6171875
vt 0.302002 0.6171875
vt 0.302002 0.6171875
vt 0.25 0.6171875
vt 0.25 0.6171875
vt 0.302002 0.6171875
vt 0.25 0.6171875
vt 0.2929688 0.6171875
vt 0.25 0.6171875
vt 0.2929688 0.6171875
vt 0.2929688 0.6171875
vt 0.25 0.6171875
vt 0.2071533 0.6171875
vt 0.2070313 0.6171875
vt 0.25 0.6171875
vt 0.2080078 0.6171875
vt 0.25 0.6171875
vt 0.2080078 0.6171875
vt 0.25 0.6171875
vt 0.2080078 0.6171875
vt 0.1981201 0.6171875
vt 0.1981201 0.6171875
vt 0.1981201 0.6171875
vt 0.1981201 0.6171875
vt 0.197998 0.6171875
vt 0.197998 0.6171875
vt 0.197998 0.6171875
vt 0.197998 0.6171875
vt 0.1982422 0.6171875
vt 0.1982422 0.6171875
vt 0.197998 0.6171875
vt 0.197998 0.6171875
vt 0.2498779 0.6171875
vt 0.3017578 0.6171875
vt 0.3017578 0.6171875
vt 0.25 0.6171875
vt 0.197998 0.6171875
vt 0.2919922 0.6171875
vt 0.1982422 0.6171875
vt 0.25 0.6171875
vt 0.2080078 0.6171875
vt 0.25 0.6171875
vt 0.197998 0.6171875
vt 0.2498779 0.6171875
vt 0.197998 0.6171875
vt 0.1981201 0.6171875
vt 0.25 0.6171875
vt 0.25 0.6171875
vt 0.1981201 0.6171875
vt 0.2080078 0.6171875
vt 0.1982422 0.6171875
vt 0.1982422 0.6171875
vt 0.2026367 0.6171875
vt 0.25 0.6171875
vt 0.25 0.6171875
vt 0.2919922 0.6171875
vt 0.2919922 0.6171875
vt 0.25 0.6171875
vt 0.2919922 0.6171875
vt 0.2973633 0.6171875
vt 0.3017578 0.6171875
vt 0.3017578 0.6171875
vt 0.2919922 0.6171875
vt 0.25 0.6171875
vt 0.3017578 0.6171875
vt 0.2973633 0.6171875
vt 0.25 0.6171875
vt 0.2026367 0.6171875
vt 0.1982422 0.6171875
vt 0.2097168 0.6171875
vt 0.2097168 0.6171875
vt 0.2193604 0.6171875
vt 0.2193604 0.6171875
vt 0.2807617 0.6171875
vt 0.2807617 0.6171875
vt 0.2902832 0.6171875
vt 0.2902832 0.6171875
vt 0.2026367 0.6171875
vt 0.2026367 0.6171875
vt 0.2080078 0.6171875
vt 0.2080078 0.6171875
vt 0.2026367 0.6171875
vt 0.2080078 0.6171875
vt 0.25 0.6171875
vt 0.25 0.6171875
vt 0.2807617 0.6171875
vt 0.2807617 0.6171875
vt 0.25 0.6171875
vt 0.25 0.6171875
vt 0.2026367 0.6171875
vt 0.2026367 0.6171875
vt 0.25 0.6171875
vt 0.2026367 0.6171875
vt 0.2973633 0.6171875
vt 0.2973633 0.6171875
vt 0.2973633 0.6171875
vt 0.2973633 0.6171875
vt 0.25 0.6171875
vt 0.25 0.6171875
vt 0.1981201 0.6171875
vt 0.25 0.6171875
vt 0.25 0.6171875
vt 0.2070313 0.6171875
vt 0.25 0.6171875
vt 0.2071533 0.6171875
vt 0.1981201 0.6171875
vt 0.1981201 0.6171875
vt 0.2070313 0.6171875
vt 0.2929688 0.6171875
vt 0.302002 0.6171875
vt 0.302002 0.6171875
vt 0.2929688 0.6171875
vt 0.25 0.6171875
vt 0.1981201 0.6171875
vt 0.2071533 0.6171875
vt 0.25 0.6171875
vt 0.2929688 0.6171875
vt 0.302002 0.6171875
vt 0.2193604 0.6171875
vt 0.2026367 0.6171875
vt 0.2097168 0.6171875
vt 0.2080078 0.6171875
vt 0.25 0.6171875
vt 0.25 0.6171875
vt 0.2807617 0.6171875
vt 0.2919922 0.6171875
vt 0.2902832 0.6171875
vt 0.2973633 0.6171875
vt 0.2919922 0.6171875
vt 0.2807617 0.6171875
vt 0.2097168 0.6171875
vt 0.2026367 0.6171875
vt 0.25 0.6171875
vt 0.25 0.6171875
vt 0.25 0.6171875
vt 0.25 0.6171875
vt 0.2973633 0.6171875
vt 0.2902832 0.6171875
vt 0.25 0.6171875
vt 0.2193604 0.6171875
vt 0.2193604 0.6171875
vt 0.25 0.6171875
vt 0.2902832 0.6171875
vt 0.2902832 0.6171875
vt 0.25 0.6171875
vt 0.25 0.6171875
vt 0.2097168 0.6171875
vt 0.2097168 0.6171875
vt 0.25 0.6171875
vt 0.2193604 0.6171875
vt 0.229126 0.6171875
vt 0.25 0.6171875
vt 0.2709961 0.6171875
vt 0.2807617 0.6171875
vt 0.2819824 0.6171875
vt 0.2902832 0.6171875
vt 0.229126 0.6171875
vt 0.2193604 0.6171875
vt 0.2097168 0.6171875
vt 0.2181396 0.6171875
vt 0.2181396 0.6171875
vt 0.2097168 0.6171875
vt 0.25 0.6171875
vt 0.25 0.6171875
vt 0.25 0.6171875
vt 0.2902832 0.6171875
vt 0.2819824 0.6171875
vt 0.2919922 0.6171875
vt 0.2919922 0.6171875
vt 0.2973633 0.6171875
vt 0.2973633 0.6171875
vt 0.3017578 0.6171875
vt 0.3017578 0.6171875
vt 0.25 0.6171875
vt 0.25 0.6171875
vt 0.1982422 0.6171875
vt 0.197998 0.6171875
vt 0.197998 0.6171875
vt 0.25 0.6171875
vt 0.302002 0.6171875
vt 0.3017578 0.6171875
vt 0.302002 0.6171875
vt 0.302002 0.6171875
vn -0.02308655 -0.996582 -0.07775879
vn -0.02308655 -0.996582 -0.07775879
vn 5.960464E-07 -0.9970703 -0.07775879
vn -0.02308655 -0.996582 -0.07775879
vn -0.02308655 -0.996582 -0.07775879
vn 5.960464E-07 -0.9970703 -0.07775879
vn 0.6850586 -0.104187 -0.7211914
vn 0.6850586 -0.104187 -0.7211914
vn 0.6850586 -0.104187 -0.7211914
vn 0.6850586 -0.104187 -0.7211914
vn 0.9819336 0.01998901 0.1893311
vn 0.9819336 0.01998901 0.1893311
vn 0.9819336 0.01998901 0.1893311
vn 0.9819336 0.01998901 0.1893311
vn 0.3388672 0.9384766 -0.06420898
vn 0.3354492 0.9355469 -0.1096802
vn 0.3354492 0.9355469 -0.1096802
vn 0.3383789 0.9384766 -0.0713501
vn 0.3510742 0.9355469 -0.04394531
vn 0.3493652 0.9360352 -0.03991699
vn 0.3598633 0.9306641 -0.06445313
vn 0.3598633 0.9306641 -0.06445313
vn 0.9887695 0.02166748 0.1470947
vn 1 4.172325E-07 0
vn 1 4.172325E-07 0
vn 0.9926758 0.0177002 0.1201172
vn 0.9755859 0.029953 0.2165527
vn 0.9746094 0.03109741 0.2220459
vn 0.9804688 0.02558899 0.196167
vn 0.9804688 0.02558899 0.196167
vn 0.2531738 0.8623047 0.4389648
vn 0.2609863 0.8901367 0.373291
vn 0.2458496 0.8359375 0.4909668
vn 0.2423096 0.8232422 0.5136719
vn 0.2423096 0.8232422 0.5136719
vn 1.788139E-07 0.1035767 0.9946289
vn 0.01565552 0.1035156 0.9946289
vn 0.01565552 0.1035156 0.9946289
vn 1.788139E-07 0.1035767 0.9946289
vn -0.01565552 0.1035156 0.9946289
vn -0.01565552 0.1035156 0.9946289
vn -0.378418 0.9238281 0.05728149
vn -0.3796387 0.9248047 0.0296936
vn -0.3796387 0.9248047 0.0296936
vn -0.3781738 0.9238281 0.06311035
vn -0.3764648 0.921875 0.09033203
vn -0.3764648 0.921875 0.09033203
vn -0.9755859 0.029953 0.2165527
vn -0.9804688 0.02558899 0.196167
vn -0.9804688 0.02558899 0.196167
vn -0.9746094 0.03109741 0.2220459
vn -0.9887695 0.02166748 0.1470947
vn -0.9926758 0.0177002 0.1201172
vn -1 -5.364418E-07 0
vn -1 -5.364418E-07 0
vn -0.6850586 -0.104187 -0.7211914
vn -0.6850586 -0.104187 -0.7211914
vn -0.6850586 -0.104187 -0.7211914
vn -0.6850586 -0.104187 -0.7211914
vn 6.556511E-07 0.5703125 -0.8212891
vn 0.1466064 0.4960938 -0.855957
vn 0.1730957 0.5615234 -0.809082
vn 2.384186E-07 0.4885254 -0.8725586
vn -0.1730957 0.5615234 -0.809082
vn 0.08862305 0.3493652 -0.9326172
vn -0.1466064 0.4960938 -0.855957
vn -2.384186E-07 0.3508301 -0.9365234
vn -0.08862305 0.3493652 -0.9326172
vn -0.3388672 0.9384766 -0.06420898
vn -0.3354492 0.9355469 -0.1096802
vn -0.3354492 0.9355469 -0.1096802
vn -0.3383789 0.9384766 -0.0713501
vn -0.3493652 0.9360352 -0.03991699
vn -0.3510742 0.9355469 -0.04394531
vn -0.3598633 0.9306641 -0.06445313
vn -0.3598633 0.9306641 -0.06445313
vn -0.1583252 -0.1531982 -0.9755859
vn -0.1583252 -0.1531982 -0.9755859
vn -0.07781982 -0.1278076 -0.9887695
vn -0.07666016 -0.1274414 -0.9887695
vn 0.3867188 0.9208984 0.04415894
vn 0.3920898 0.9106445 0.1297607
vn 0.3920898 0.9106445 0.1297607
vn 0.3881836 0.9194336 0.06079102
vn 0.3806152 0.9243164 -0.02429199
vn 0.3806152 0.9243164 -0.02429199
vn 0.07666016 -0.1274414 -0.9887695
vn 0.07781982 -0.1278076 -0.9887695
vn 0.1583252 -0.1531982 -0.9755859
vn 0.1583252 -0.1531982 -0.9755859
vn 5.960464E-08 -0.1015015 -0.9946289
vn 0.07781982 -0.1278076 -0.9887695
vn 0.07666016 -0.1274414 -0.9887695
vn 5.960464E-08 -0.1015015 -0.9946289
vn -0.07666016 -0.1274414 -0.9887695
vn -0.07781982 -0.1278076 -0.9887695
vn 1 -5.841255E-06 0
vn 1 -5.841255E-06 0
vn 1 -5.841255E-06 0
vn 1 -5.841255E-06 0
vn -1 -7.033348E-06 0
vn -1 -7.033348E-06 0
vn -1 -7.033348E-06 0
vn -1 -7.033348E-06 0
vn -0.9995117 -0.003871918 0.0219574
vn -0.9985352 -0.01219177 -0.05462646
vn -0.9985352 -0.01219177 -0.05462646
vn -1 -0.005420685 0.007701874
vn -0.996582 0.002923965 0.08422852
vn -0.996582 0.002923965 0.08422852
vn -0.3781738 -0.9257813 0.001181602
vn -0.3781738 -0.9257813 0.001181602
vn -0.3781738 -0.9257813 0.001181602
vn -0.3781738 -0.9257813 0.001181602
vn -0.0001217723 -0.9980469 -0.05975342
vn -0.007629395 -0.9995117 -0.03231812
vn 0.06646729 -0.9975586 -0.02224731
vn 0.06219482 -0.9956055 -0.06842041
vn -0.01369476 -0.9960938 -0.08892822
vn 0.05871582 -0.9926758 -0.1047974
vn -0.07495117 -0.9941406 -0.07513428
vn -0.07336426 -0.9956055 -0.0562439
vn -0.07336426 -0.9956055 -0.0562439
vn -0.07208252 -0.996582 -0.04095459
vn -0.007629395 -0.9995117 -0.03231812
vn -0.0001217723 -0.9980469 -0.05975342
vn -0.2458496 0.8359375 0.4909668
vn -0.2609863 0.8901367 0.373291
vn -0.2531738 0.8623047 0.4389648
vn -0.2423096 0.8232422 0.5136719
vn -0.2423096 0.8232422 0.5136719
vn -0.8427734 0.06414795 0.534668
vn -0.8427734 0.06414795 0.534668
vn -0.8427734 0.06414795 0.534668
vn -0.8427734 0.06414795 0.534668
vn 0.8427734 0.06414795 0.534668
vn 0.8427734 0.06414795 0.534668
vn 0.8427734 0.06414795 0.534668
vn 0.8427734 0.06414795 0.534668
vn 5.364418E-07 -0.8266602 0.5625
vn 0.0006837845 -0.8266602 0.5625
vn 0.0006837845 -0.8266602 0.5625
vn 5.364418E-07 -0.8266602 0.5625
vn -0.0006828308 -0.8266602 0.5625
vn -0.0006828308 -0.8266602 0.5625
vn -0.0100174 0.0003705025 -1
vn -0.007007599 -0.02423096 -0.9995117
vn -0.007007599 -0.02423096 -0.9995117
vn -0.01011658 -0.0001070499 -1
vn 4.768372E-07 0.02560425 -0.9995117
vn 4.768372E-07 0.02560425 -0.9995117
vn 0.0100174 0.0003705025 -1
vn 0.01011658 -0.0001069903 -1
vn 0.007007599 -0.02423096 -0.9995117
vn 0.007007599 -0.02423096 -0.9995117
vn 0.01011658 -0.0001069903 -1
vn 0.0100174 0.0003705025 -1
vn -0.007007599 -0.02423096 -0.9995117
vn -0.007007599 -0.02423096 -0.9995117
vn 0 -0.02330017 -0.9995117
vn 0 -0.02330017 -0.9995117
vn 0 -0.02330017 -0.9995117
vn 0 -0.02330017 -0.9995117
vn 0.007007599 -0.02423096 -0.9995117
vn 0.007007599 -0.02423096 -0.9995117
vn 0.3781738 -0.9257813 0.001182556
vn 0.3781738 -0.9257813 0.001182556
vn 0.3781738 -0.9257813 0.001182556
vn 0.3781738 -0.9257813 0.001182556
vn 0.06787109 0.9975586 -0.001274109
vn 0.06787109 0.9975586 -0.001274109
vn -5.364418E-07 1 -0.00127697
vn -5.364418E-07 1 -0.00127697
vn -0.06787109 0.9975586 -0.001274109
vn -0.06787109 0.9975586 -0.001274109
vn 0 0.02241516 -0.9995117
vn -0.008308411 -0.007751465 -1
vn -0.008224487 -0.007141113 -1
vn 0 0.02241516 -0.9995117
vn 0.008224487 -0.007141113 -1
vn 0.008308411 -0.007751465 -1
vn 0.005256653 -0.03167725 -0.9995117
vn 0.005256653 -0.03167725 -0.9995117
vn -0.008224487 -0.007141113 -1
vn -0.008308411 -0.007751465 -1
vn -0.005256653 -0.03167725 -0.9995117
vn -0.005256653 -0.03167725 -0.9995117
vn -0.005256653 -0.03167725 -0.9995117
vn -0.005256653 -0.03167725 -0.9995117
vn -1.192093E-07 -0.02626038 -0.9995117
vn -1.192093E-07 -0.02626038 -0.9995117
vn -1.192093E-07 -0.02626038 -0.9995117
vn 0.005256653 -0.03167725 -0.9995117
vn 0.005256653 -0.03167725 -0.9995117
vn 0.9833984 -0.01673889 -0.1813965
vn 0.9833984 -0.01673889 -0.1813965
vn 0.9833984 -0.01673889 -0.1813965
vn 0.9833984 -0.01673889 -0.1813965
vn 0.02308655 -0.996582 -0.07775879
vn 0.02308655 -0.996582 -0.07775879
vn 5.960464E-07 -0.9970703 -0.07775879
vn 5.960464E-07 -0.9970703 -0.07775879
vn -0.02308655 -0.996582 -0.07775879
vn -0.02308655 -0.996582 -0.07775879
vn -0.02308655 -0.996582 -0.07775879
vn 5.960464E-07 -0.9970703 -0.07775879
vn 0.02308655 -0.996582 -0.07775879
vn 0.02308655 -0.996582 -0.07775879
vn 0.02308655 -0.996582 -0.07775879
vn 0.02308655 -0.996582 -0.07775879
g R_Upper_arm_0
f 3/3/3 2/2/2 1/1/1
f 6/6/6 5/5/5 4/4/4
f 9/9/9 8/8/8 7/7/7
f 10/10/10 9/9/9 7/7/7
f 13/13/13 12/12/12 11/11/11
f 14/14/14 13/13/13 11/11/11
f 17/17/17 16/16/16 15/15/15
f 18/18/18 17/17/17 15/15/15
f 18/18/18 15/15/15 19/19/19
f 20/20/20 18/18/18 19/19/19
f 20/20/20 19/19/19 21/21/21
f 22/22/22 20/20/20 21/21/21
f 25/25/25 24/24/24 23/23/23
f 24/24/24 26/26/26 23/23/23
f 23/23/23 26/26/26 27/27/27
f 26/26/26 28/28/28 27/27/27
f 27/27/27 28/28/28 29/29/29
f 28/28/28 30/30/30 29/29/29
f 33/33/33 32/32/32 31/31/31
f 33/33/33 31/31/31 34/34/34
f 35/35/35 33/33/33 34/34/34
f 38/38/38 37/37/37 36/36/36
f 37/37/37 39/39/39 36/36/36
f 36/36/36 39/39/39 40/40/40
f 39/39/39 41/41/41 40/40/40
f 44/44/44 43/43/43 42/42/42
f 43/43/43 45/45/45 42/42/42
f 42/42/42 45/45/45 46/46/46
f 45/45/45 47/47/47 46/46/46
f 50/50/50 49/49/49 48/48/48
f 49/49/49 51/51/51 48/48/48
f 48/48/48 51/51/51 52/52/52
f 51/51/51 53/53/53 52/52/52
f 52/52/52 53/53/53 54/54/54
f 53/53/53 55/55/55 54/54/54
f 58/58/58 57/57/57 56/56/56
f 59/59/59 58/58/58 56/56/56
f 62/62/62 61/61/61 60/60/60
f 61/61/61 63/63/63 60/60/60
f 60/60/60 63/63/63 64/64/64
f 63/63/63 61/61/61 65/65/65
f 63/63/63 66/66/66 64/64/64
f 67/67/67 63/63/63 65/65/65
f 66/66/66 63/63/63 67/67/67
f 68/68/68 66/66/66 67/67/67
f 71/71/71 70/70/70 69/69/69
f 70/70/70 72/72/72 69/69/69
f 69/69/69 72/72/72 73/73/73
f 74/74/74 69/69/69 73/73/73
f 74/74/74 73/73/73 75/75/75
f 73/73/73 76/76/76 75/75/75
f 79/79/79 78/78/78 77/77/77
f 80/80/80 79/79/79 77/77/77
f 83/83/83 82/82/82 81/81/81
f 84/84/84 83/83/83 81/81/81
f 84/84/84 81/81/81 85/85/85
f 86/86/86 84/84/84 85/85/85
f 89/89/89 88/88/88 87/87/87
f 90/90/90 89/89/89 87/87/87
f 93/93/93 92/92/92 91/91/91
f 92/92/92 94/94/94 91/91/91
f 91/91/91 94/94/94 95/95/95
f 94/94/94 96/96/96 95/95/95
f 99/99/99 98/98/98 97/97/97
f 100/100/100 99/99/99 97/97/97
f 103/103/103 102/102/102 101/101/101
f 104/104/104 103/103/103 101/101/101
f 107/107/107 106/106/106 105/105/105
f 108/108/108 107/107/107 105/105/105
f 108/108/108 105/105/105 109/109/109
f 110/110/110 108/108/108 109/109/109
f 113/113/113 112/112/112 111/111/111
f 114/114/114 113/113/113 111/111/111
f 117/117/117 116/116/116 115/115/115
f 118/118/118 117/117/117 115/115/115
f 118/118/118 115/115/115 119/119/119
f 120/120/120 118/118/118 119/119/119
f 119/119/119 115/115/115 121/121/121
f 115/115/115 122/122/122 121/121/121
f 125/125/125 124/124/124 123/123/123
f 126/126/126 125/125/125 123/123/123
f 129/129/129 128/128/128 127/127/127
f 129/129/129 127/127/127 130/130/130
f 131/131/131 129/129/129 130/130/130
f 134/134/134 133/133/133 132/132/132
f 135/135/135 134/134/134 132/132/132
f 138/138/138 137/137/137 136/136/136
f 139/139/139 138/138/138 136/136/136
f 142/142/142 141/141/141 140/140/140
f 141/141/141 143/143/143 140/140/140
f 140/140/140 143/143/143 144/144/144
f 143/143/143 145/145/145 144/144/144
f 148/148/148 147/147/147 146/146/146
f 147/147/147 149/149/149 146/146/146
f 146/146/146 149/149/149 150/150/150
f 149/149/149 151/151/151 150/150/150
f 150/150/150 151/151/151 152/152/152
f 151/151/151 153/153/153 152/152/152
f 156/156/156 155/155/155 154/154/154
f 157/157/157 156/156/156 154/154/154
f 160/160/160 159/159/159 158/158/158
f 161/161/161 160/160/160 158/158/158
f 164/164/164 163/163/163 162/162/162
f 165/165/165 164/164/164 162/162/162
f 168/168/168 167/167/167 166/166/166
f 169/169/169 168/168/168 166/166/166
f 172/172/172 171/171/171 170/170/170
f 173/173/173 172/172/172 170/170/170
f 174/174/174 172/172/172 173/173/173
f 175/175/175 174/174/174 173/173/173
f 178/178/178 177/177/177 176/176/176
f 177/177/177 179/179/179 176/176/176
f 176/176/176 179/179/179 180/180/180
f 179/179/179 181/181/181 180/180/180
f 180/180/180 181/181/181 182/182/182
f 181/181/181 183/183/183 182/182/182
f 186/186/186 185/185/185 184/184/184
f 187/187/187 186/186/186 184/184/184
f 190/190/190 189/189/189 188/188/188
f 191/191/191 190/190/190 188/188/188
f 193/193/193 192/192/192 191/191/191
f 194/194/194 193/193/193 191/191/191
f 197/197/197 196/196/196 195/195/195
f 198/198/198 197/197/197 195/195/195
f 201/201/201 200/200/200 199/199/199
f 199/199/199 202/202/202 201/201/201
f 203/203/203 201/201/201 202/202/202
f 202/202/202 204/204/204 203/203/203
f 202/202/202 205/205/205 204/204/204
f 208/208/208 207/207/207 206/206/206
f 207/207/207 209/209/209 206/206/206
f 209/209/209 210/210/210 206/206/206
