g Ring1
v -0.1854102 0 0.5706339
v -0.200088 0 0.6158075
v -0.3805898 0 0.5238371
v -0.352671 0 0.4854102
v 0 0 0.6
v -0.5238369 0 0.3805901
v 0 0 0.6474983
v -0.4854099 0 0.3526713
v 0.1854102 0 0.5706339
v -0.6158074 0 0.2000881
v 0.2000879 0 0.6158075
v -0.5706338 0 0.1854103
v 0.3526711 0 0.4854102
v -0.6474983 0 7.152557E-08
v 0.3805901 0 0.5238371
v -0.5999999 0 7.152557E-08
v 0.4854101 0 0.3526711
v -0.6158074 0 -0.200088
v 0.5238371 0 0.38059
v -0.5706338 0 -0.1854102
v 0.5706338 0 0.1854102
v -0.523837 0 -0.3805901
v 0.6158074 0 0.200088
v -0.4854101 0 -0.3526712
v 0.6 0 0
v -0.3805899 0 -0.5238371
v 0.6474984 0 0
v -0.3526711 0 -0.4854101
v 0.5706338 0 -0.1854102
v -0.200088 0 -0.6158075
v 0.6158074 0 -0.200088
v -0.1854102 0 -0.5706339
v 0.4854101 0 -0.3526711
v 0 0 -0.6474983
v 0.5238371 0 -0.3805899
v 0 0 -0.5999999
v 0.3526711 0 -0.4854101
v 0.2000879 0 -0.6158075
v 0.3805901 0 -0.5238371
v 0.1854102 0 -0.5706339
vt 0.03378296 0.5166016
vt 0.03335571 0.5151367
vt 0.02825928 0.5180664
vt 0.02905273 0.519043
vt 0.03900146 0.515625
vt 0.02423096 0.5219727
vt 0.03900146 0.5141602
vt 0.02532959 0.5229492
vt 0.04425049 0.5166016
vt 0.02168274 0.5268555
vt 0.04467773 0.5151367
vt 0.02296448 0.5273438
vt 0.04901123 0.5185547
vt 0.02082825 0.5327148
vt 0.04980469 0.5175781
vt 0.02217102 0.5327148
vt 0.05279541 0.5224609
vt 0.02177429 0.5385742
vt 0.05389404 0.5214844
vt 0.02305603 0.5380859
vt 0.05526733 0.5273438
vt 0.02441406 0.543457
vt 0.05651855 0.5268555
vt 0.02549744 0.5424805
vt 0.05612183 0.5322266
vt 0.02850342 0.5473633
vt 0.0574646 0.5322266
vt 0.02928162 0.5463867
vt 0.05532837 0.5375977
vt 0.03363037 0.550293
vt 0.05661011 0.5380859
vt 0.0340271 0.5488281
vt 0.05297852 0.5424805
vt 0.03930664 0.5507813
vt 0.05407715 0.543457
vt 0.03930664 0.5498047
vt 0.04925537 0.5463867
vt 0.04495239 0.5498047
vt 0.05004883 0.5473633
vt 0.04452515 0.5488281
vn 0 1 0
vn 0 1 0
vn 0 1 0
vn 0 1 0
vn 0 1 0
vn 0 1 0
vn 0 1 0
vn 0 1 0
vn 0 1 0
vn 0 1 0
vn 0 1 0
vn 0 1 0
vn 0 1 0
vn 0 1 0
vn 0 1 0
vn 0 1 0
vn 0 1 0
vn 0 1 0
vn 0 1 0
vn 0 1 0
vn 0 1 0
vn 0 1 0
vn 0 1 0
vn 0 1 0
vn 0 1 0
vn 0 1 0
vn 0 1 0
vn 0 1 0
vn 0 1 0
vn 0 1 0
vn 0 1 0
vn 0 1 0
vn 0 1 0
vn 0 1 0
vn 0 1 0
vn 0 1 0
vn 0 1 0
vn 0 1 0
vn 0 1 0
vn 0 1 0
g Ring1_0
f 3/3/3 2/2/2 1/1/1
f 4/4/4 3/3/3 1/1/1
f 1/1/1 2/2/2 5/5/5
f 6/6/6 3/3/3 4/4/4
f 2/2/2 7/7/7 5/5/5
f 8/8/8 6/6/6 4/4/4
f 5/5/5 7/7/7 9/9/9
f 10/10/10 6/6/6 8/8/8
f 7/7/7 11/11/11 9/9/9
f 12/12/12 10/10/10 8/8/8
f 9/9/9 11/11/11 13/13/13
f 14/14/14 10/10/10 12/12/12
f 11/11/11 15/15/15 13/13/13
f 16/16/16 14/14/14 12/12/12
f 13/13/13 15/15/15 17/17/17
f 18/18/18 14/14/14 16/16/16
f 15/15/15 19/19/19 17/17/17
f 20/20/20 18/18/18 16/16/16
f 17/17/17 19/19/19 21/21/21
f 22/22/22 18/18/18 20/20/20
f 19/19/19 23/23/23 21/21/21
f 24/24/24 22/22/22 20/20/20
f 21/21/21 23/23/23 25/25/25
f 26/26/26 22/22/22 24/24/24
f 23/23/23 27/27/27 25/25/25
f 28/28/28 26/26/26 24/24/24
f 25/25/25 27/27/27 29/29/29
f 30/30/30 26/26/26 28/28/28
f 27/27/27 31/31/31 29/29/29
f 32/32/32 30/30/30 28/28/28
f 29/29/29 31/31/31 33/33/33
f 34/34/34 30/30/30 32/32/32
f 31/31/31 35/35/35 33/33/33
f 36/36/36 34/34/34 32/32/32
f 33/33/33 35/35/35 37/37/37
f 38/38/38 34/34/34 36/36/36
f 35/35/35 39/39/39 37/37/37
f 40/40/40 38/38/38 36/36/36
f 37/37/37 39/39/39 40/40/40
f 39/39/39 38/38/38 40/40/40
