g Ring2
v -0.1854102 -1.430511E-07 0.5706338
v -0.2000881 -1.430511E-07 0.6158075
v -0.3805898 -1.430511E-07 0.5238371
v -0.352671 -1.430511E-07 0.4854102
v 0 -1.430511E-07 0.6
v -0.523837 -1.430511E-07 0.3805902
v 0 -1.430511E-07 0.6474983
v -0.48541 -1.430511E-07 0.3526713
v 0.1854102 -1.430511E-07 0.5706338
v -0.6158074 -1.430511E-07 0.2000881
v 0.2000881 -1.430511E-07 0.6158075
v -0.5706338 -1.430511E-07 0.1854104
v 0.3526713 -1.430511E-07 0.4854102
v -0.6474983 -1.430511E-07 1.430511E-07
v 0.38059 -1.430511E-07 0.5238371
v -0.5999999 -1.430511E-07 0
v 0.4854101 -1.430511E-07 0.3526711
v -0.6158074 -1.430511E-07 -0.2000879
v 0.5238371 -1.430511E-07 0.3805899
v -0.5706338 -1.430511E-07 -0.1854103
v 0.570634 -1.430511E-07 0.1854102
v -0.523837 -1.430511E-07 -0.3805901
v 0.6158075 -1.430511E-07 0.2000879
v -0.4854101 -1.430511E-07 -0.3526713
v 0.6 -1.430511E-07 0
v -0.3805898 -1.430511E-07 -0.5238373
v 0.6474985 -1.430511E-07 0
v -0.3526711 -1.430511E-07 -0.4854103
v 0.570634 -1.430511E-07 -0.1854103
v -0.2000881 -1.430511E-07 -0.6158074
v 0.6158075 -1.430511E-07 -0.2000879
v -0.1854102 -1.430511E-07 -0.5706338
v 0.4854101 -1.430511E-07 -0.3526711
v 0 -1.430511E-07 -0.6474983
v 0.5238371 -1.430511E-07 -0.38059
v 0 -1.430511E-07 -0.6
v 0.3526713 -1.430511E-07 -0.4854103
v 0.2000881 -1.430511E-07 -0.6158074
v 0.38059 -1.430511E-07 -0.5238373
v 0.1854102 -1.430511E-07 -0.5706338
vt 0.03469849 0.5195313
vt 0.03436279 0.5180664
vt 0.03015137 0.5205078
vt 0.03082275 0.5214844
vt 0.03903198 0.5185547
vt 0.02684021 0.5239258
vt 0.03903198 0.5175781
vt 0.02774048 0.5244141
vt 0.04336548 0.519043
vt 0.0247345 0.527832
vt 0.04370117 0.5180664
vt 0.02578735 0.5283203
vt 0.04730225 0.5209961
vt 0.02403259 0.5327148
vt 0.04794312 0.5205078
vt 0.02513123 0.5327148
vt 0.05041504 0.5244141
vt 0.02481079 0.5375977
vt 0.05130005 0.5234375
vt 0.02586365 0.5371094
vt 0.0524292 0.5283203
vt 0.0269928 0.5415039
vt 0.05349731 0.527832
vt 0.02787781 0.5410156
vt 0.05316162 0.5327148
vt 0.03036499 0.5449219
vt 0.05426025 0.5322266
vt 0.03100586 0.5439453
vt 0.05252075 0.5366211
vt 0.03460693 0.546875
vt 0.05358887 0.5371094
vt 0.03494263 0.5458984
vt 0.05056763 0.5405273
vt 0.03927612 0.5478516
vt 0.05145264 0.5415039
vt 0.03927612 0.5463867
vt 0.04748535 0.5439453
vt 0.04394531 0.546875
vt 0.04815674 0.5449219
vt 0.04360962 0.5458984
vn 0 1 0
vn 0 1 0
vn 0 1 0
vn 0 1 0
vn 0 1 0
vn 0 1 0
vn 0 1 0
vn 0 1 0
vn 0 1 0
vn 0 1 0
vn 0 1 0
vn 0 1 0
vn 0 1 0
vn 0 1 0
vn 0 1 0
vn 0 1 0
vn 0 1 0
vn 0 1 0
vn 0 1 0
vn 0 1 0
vn 0 1 0
vn 0 1 0
vn 0 1 0
vn 0 1 0
vn 0 1 0
vn 0 1 0
vn 0 1 0
vn 0 1 0
vn 0 1 0
vn 0 1 0
vn 0 1 0
vn 0 1 0
vn 0 1 0
vn 0 1 0
vn 0 1 0
vn 0 1 0
vn 0 1 0
vn 0 1 0
vn 0 1 0
vn 0 1 0
g Ring2_0
f 3/3/3 2/2/2 1/1/1
f 4/4/4 3/3/3 1/1/1
f 1/1/1 2/2/2 5/5/5
f 6/6/6 3/3/3 4/4/4
f 2/2/2 7/7/7 5/5/5
f 8/8/8 6/6/6 4/4/4
f 5/5/5 7/7/7 9/9/9
f 10/10/10 6/6/6 8/8/8
f 7/7/7 11/11/11 9/9/9
f 12/12/12 10/10/10 8/8/8
f 9/9/9 11/11/11 13/13/13
f 14/14/14 10/10/10 12/12/12
f 11/11/11 15/15/15 13/13/13
f 16/16/16 14/14/14 12/12/12
f 13/13/13 15/15/15 17/17/17
f 18/18/18 14/14/14 16/16/16
f 15/15/15 19/19/19 17/17/17
f 20/20/20 18/18/18 16/16/16
f 17/17/17 19/19/19 21/21/21
f 22/22/22 18/18/18 20/20/20
f 19/19/19 23/23/23 21/21/21
f 24/24/24 22/22/22 20/20/20
f 21/21/21 23/23/23 25/25/25
f 26/26/26 22/22/22 24/24/24
f 23/23/23 27/27/27 25/25/25
f 28/28/28 26/26/26 24/24/24
f 25/25/25 27/27/27 29/29/29
f 30/30/30 26/26/26 28/28/28
f 27/27/27 31/31/31 29/29/29
f 32/32/32 30/30/30 28/28/28
f 29/29/29 31/31/31 33/33/33
f 34/34/34 30/30/30 32/32/32
f 31/31/31 35/35/35 33/33/33
f 36/36/36 34/34/34 32/32/32
f 33/33/33 35/35/35 37/37/37
f 38/38/38 34/34/34 36/36/36
f 35/35/35 39/39/39 37/37/37
f 40/40/40 38/38/38 36/36/36
f 37/37/37 39/39/39 40/40/40
f 39/39/39 38/38/38 40/40/40
