g Rock_1
v 0.001262949 0.0919945 0.2789856
v 0.0519691 0.08287057 0.2806389
v 0.02183937 0.06506884 0.4006468
v 0.02183937 0.06506884 0.4006468
v -0.07821441 0.06411196 0.4133243
v -0.08940617 0.07613245 0.4106168
v -0.08940617 0.07613245 0.4106168
v -0.07821441 0.06411196 0.4133243
v -0.07253236 -0.05886001 0.3884403
v -0.1158841 0.07887939 0.1681237
v -0.1177626 0.09033822 0.1681076
v -0.08740952 0.09478327 0.3191886
v 0.0519691 0.08287057 0.2806389
v 0.06419708 0.1159446 0.1203947
v 0.06607557 0.1044858 0.1204108
v 0.09876693 -0.08680324 0.002438709
v 0.08212804 -0.07000009 0.08772685
v 0.1057772 -0.07734372 0.00277257
v -0.07741225 -0.0941365 0.1650532
v -0.07013351 -0.1014597 -0.004487664
v -0.07146013 -0.09336731 -0.004499063
v 0.1057772 -0.07734372 0.00277257
v 0.1214775 -0.05089673 0.02484137
v 0.105772 0.0993728 0.025653
v 0.08327057 0.1157254 0.002871662
v 0.08212804 -0.07000009 0.08772685
v 0.09858728 -0.0549836 0.0863018
v 0.1214775 -0.05089673 0.02484137
v 0.1057772 -0.07734372 0.00277257
v 0.02805037 -0.050249 0.273796
v -0.07763749 -0.06024054 0.2767238
v -0.07253236 -0.05886001 0.3884403
v 0.03045897 -0.04150202 0.3781753
v 0.05956658 -0.01619545 0.2688774
v 0.03045897 -0.04150202 0.3781753
v 0.02183937 0.06506884 0.4006468
v 0.0519691 0.08287057 0.2806389
v -0.07741225 -0.0941365 0.1650532
v -0.1158841 0.07887939 0.1681237
v -0.08740952 0.09478327 0.3191886
v -0.07763749 -0.06024054 0.2767238
v -0.08740952 0.09478327 0.3191886
v 0.001262949 0.0919945 0.2789856
v 0.02183937 0.06506884 0.4006468
v -0.08940617 0.07613245 0.4106168
v 0.001262949 0.0919945 0.2789856
v 0.002344775 0.1036773 0.1711863
v 0.06419708 0.1159446 0.1203947
v 0.0519691 0.08287057 0.2806389
v 0.03097219 -0.09151145 0.1694623
v 0.04166435 -0.107557 -0.02523789
v -0.07013351 -0.1014597 -0.004487664
v -0.07741225 -0.0941365 0.1650532
v -0.07013351 -0.1014597 -0.004487664
v 0.04166435 -0.107557 -0.02523789
v 0.005229777 0.1146942 -0.02555069
v -0.07146013 -0.09336731 -0.004499063
v -0.1211839 0.09396329 -0.0055338
v -0.1193054 0.08250445 -0.005517662
v -0.08740952 0.09478327 0.3191886
v -0.08940617 0.07613245 0.4106168
v -0.07253236 -0.05886001 0.3884403
v -0.07763749 -0.06024054 0.2767238
v -0.1193054 0.08250445 -0.005517662
v -0.1211839 0.09396329 -0.0055338
v -0.1177626 0.09033822 0.1681076
v -0.1158841 0.07887939 0.1681237
v 0.005229777 0.1146942 -0.02555069
v 0.0730552 0.125817 0.002510279
v 0.06419708 0.1159446 0.1203947
v 0.002344775 0.1036773 0.1711863
v -0.1211839 0.09396329 -0.0055338
v -0.1177626 0.09033822 0.1681076
v -0.07146013 -0.09336731 -0.004499063
v -0.1193054 0.08250445 -0.005517662
v -0.1158841 0.07887939 0.1681237
v -0.07741225 -0.0941365 0.1650532
v 0.0730552 0.125817 0.002510279
v 0.08327057 0.1157254 0.002871662
v 0.06607557 0.1044858 0.1204108
v 0.06419708 0.1159446 0.1203947
v 0.06818212 -0.02684006 0.1782792
v 0.02805037 -0.050249 0.273796
v 0.03045897 -0.04150202 0.3781753
v 0.05956658 -0.01619545 0.2688774
v 0.09876693 -0.08680324 0.002438709
v 0.1057772 -0.07734372 0.00277257
v 0.08327057 0.1157254 0.002871662
v 0.04166435 -0.107557 -0.02523789
v 0.0730552 0.125817 0.002510279
v 0.005229777 0.1146942 -0.02555069
v 0.08212804 -0.07000009 0.08772685
v 0.09876693 -0.08680324 0.002438709
v 0.04166435 -0.107557 -0.02523789
v 0.03097219 -0.09151145 0.1694623
v 0.08212804 -0.07000009 0.08772685
v 0.03097219 -0.09151145 0.1694623
v 0.02805037 -0.050249 0.273796
v 0.06818212 -0.02684006 0.1782792
v 0.03097219 -0.09151145 0.1694623
v -0.07741225 -0.0941365 0.1650532
v -0.07763749 -0.06024054 0.2767238
v 0.02805037 -0.050249 0.273796
v -0.1177626 0.09033822 0.1681076
v 0.002344775 0.1036773 0.1711863
v 0.001262949 0.0919945 0.2789856
v -0.08740952 0.09478327 0.3191886
v 0.03045897 -0.04150202 0.3781753
v -0.07253236 -0.05886001 0.3884403
v -0.07821441 0.06411196 0.4133243
v 0.02183937 0.06506884 0.4006468
v 0.08857694 0.08813317 0.1204108
v 0.105772 0.0993728 0.025653
v 0.1214775 -0.05089673 0.02484137
v 0.09858728 -0.0549836 0.0863018
v 0.08857694 0.08813317 0.1204108
v 0.09858728 -0.0549836 0.0863018
v 0.08508776 -0.01107941 0.1718664
v 0.07552526 0.005963491 0.2419228
v 0.07240295 0.07487862 0.2487007
v 0.05956658 -0.01619545 0.2688774
v 0.07552526 0.005963491 0.2419228
v 0.08508776 -0.01107941 0.1718664
v 0.06818212 -0.02684006 0.1782792
v 0.06818212 -0.02684006 0.1782792
v 0.08508776 -0.01107941 0.1718664
v 0.09858728 -0.0549836 0.0863018
v 0.08212804 -0.07000009 0.08772685
v 0.08327057 0.1157254 0.002871662
v 0.105772 0.0993728 0.025653
v 0.08857694 0.08813317 0.1204108
v 0.06607557 0.1044858 0.1204108
v 0.0519691 0.08287057 0.2806389
v 0.07240295 0.07487862 0.2487007
v 0.07552526 0.005963491 0.2419228
v 0.05956658 -0.01619545 0.2688774
v 0.06607557 0.1044858 0.1204108
v 0.08857694 0.08813317 0.1204108
v 0.07240295 0.07487862 0.2487007
v 0.0519691 0.08287057 0.2806389
vn 0.1680908 0.9682617 0.185791
vn 0.1680908 0.9682617 0.185791
vn 0.1680908 0.9682617 0.185791
vn 0.1160889 0.3198242 0.9404297
vn 0.1160889 0.3198242 0.9404297
vn 0.1160889 0.3198242 0.9404297
vn -0.4265137 -0.1982422 0.8823242
vn -0.4265137 -0.1982422 0.8823242
vn -0.4265137 -0.1982422 0.8823242
vn -0.9672852 -0.1583252 0.1989746
vn -0.9672852 -0.1583252 0.1989746
vn -0.9672852 -0.1583252 0.1989746
vn 0.980957 0.1610107 0.1080933
vn 0.980957 0.1610107 0.1080933
vn 0.980957 0.1610107 0.1080933
vn 0.7705078 -0.5800781 0.2646484
vn 0.7705078 -0.5800781 0.2646484
vn 0.7705078 -0.5800781 0.2646484
vn -0.9863281 -0.1617432 -0.03533936
vn -0.9863281 -0.1617432 -0.03533936
vn -0.9863281 -0.1617432 -0.03533936
vn 0.7490234 0.08508301 -0.6572266
vn 0.7490234 0.08508301 -0.6572266
vn 0.7490234 0.08508301 -0.6572266
vn 0.7490234 0.08508301 -0.6572266
vn 0.7060547 -0.6665039 0.2392578
vn 0.7060547 -0.6665039 0.2392578
vn 0.7060547 -0.6665039 0.2392578
vn 0.7060547 -0.6665039 0.2392578
vn 0.1324463 -0.9902344 0.04180908
vn 0.1324463 -0.9902344 0.04180908
vn 0.1324463 -0.9902344 0.04180908
vn 0.1324463 -0.9902344 0.04180908
vn 0.9663086 0.03359985 0.2558594
vn 0.9663086 0.03359985 0.2558594
vn 0.9663086 0.03359985 0.2558594
vn 0.9663086 0.03359985 0.2558594
vn -0.9770508 -0.1625977 0.1358643
vn -0.9770508 -0.1625977 0.1358643
vn -0.9770508 -0.1625977 0.1358643
vn -0.9770508 -0.1625977 0.1358643
vn 0.1171265 0.9731445 0.197998
vn 0.1171265 0.9731445 0.197998
vn 0.1171265 0.9731445 0.197998
vn 0.1171265 0.9731445 0.197998
vn 0.04528809 0.9848633 0.166748
vn 0.04528809 0.9848633 0.166748
vn 0.04528809 0.9848633 0.166748
vn 0.04528809 0.9848633 0.166748
vn -0.01102448 -0.9980469 0.06347656
vn -0.01102448 -0.9980469 0.06347656
vn -0.01102448 -0.9980469 0.06347656
vn -0.01102448 -0.9980469 0.06347656
vn -0.1660156 -0.03799438 -0.9853516
vn -0.1660156 -0.03799438 -0.9853516
vn -0.1660156 -0.03799438 -0.9853516
vn -0.1660156 -0.03799438 -0.9853516
vn -0.1660156 -0.03799438 -0.9853516
vn -0.1660156 -0.03799438 -0.9853516
vn -0.9956055 -0.09307861 0.007320404
vn -0.9956055 -0.09307861 0.007320404
vn -0.9956055 -0.09307861 0.007320404
vn -0.9956055 -0.09307861 0.007320404
vn -0.9868164 -0.1617432 0.0160675
vn -0.9868164 -0.1617432 0.0160675
vn -0.9868164 -0.1617432 0.0160675
vn -0.9868164 -0.1617432 0.0160675
vn -0.1671143 0.984375 0.05911255
vn -0.1671143 0.984375 0.05911255
vn -0.1671143 0.984375 0.05911255
vn -0.1671143 0.984375 0.05911255
vn -0.1341553 0.9902344 0.03933716
vn -0.1341553 0.9902344 0.03933716
vn -0.9707031 -0.2401123 -0.01023102
vn -0.9707031 -0.2401123 -0.01023102
vn -0.9707031 -0.2401123 -0.01023102
vn -0.9707031 -0.2401123 -0.01023102
vn 0.8623047 0.4865723 0.1390381
vn 0.8623047 0.4865723 0.1390381
vn 0.8623047 0.4865723 0.1390381
vn 0.8623047 0.4865723 0.1390381
vn 0.7373047 -0.6694336 0.09002686
vn 0.7373047 -0.6694336 0.09002686
vn 0.7373047 -0.6694336 0.09002686
vn 0.7373047 -0.6694336 0.09002686
vn 0.361084 0.05108643 -0.9311523
vn 0.361084 0.05108643 -0.9311523
vn 0.361084 0.05108643 -0.9311523
vn 0.361084 0.05108643 -0.9311523
vn 0.361084 0.05108643 -0.9311523
vn 0.361084 0.05108643 -0.9311523
vn 0.4223633 -0.8945313 0.1461182
vn 0.4223633 -0.8945313 0.1461182
vn 0.4223633 -0.8945313 0.1461182
vn 0.4223633 -0.8945313 0.1461182
vn 0.8120117 -0.5068359 0.2897949
vn 0.8120117 -0.5068359 0.2897949
vn 0.8120117 -0.5068359 0.2897949
vn 0.8120117 -0.5068359 0.2897949
vn 0.05328369 -0.9428711 0.3288574
vn 0.05328369 -0.9428711 0.3288574
vn 0.05328369 -0.9428711 0.3288574
vn 0.05328369 -0.9428711 0.3288574
vn -0.04458618 0.9985352 0.03295898
vn -0.04458618 0.9985352 0.03295898
vn -0.04458618 0.9985352 0.03295898
vn -0.04458618 0.9985352 0.03295898
vn 0.1273193 -0.192749 0.9731445
vn 0.1273193 -0.192749 0.9731445
vn 0.1273193 -0.192749 0.9731445
vn 0.1273193 -0.192749 0.9731445
vn 0.9658203 0.05453491 0.2531738
vn 0.9658203 0.05453491 0.2531738
vn 0.9658203 0.05453491 0.2531738
vn 0.9658203 0.05453491 0.2531738
vn 0.9907227 0.03366089 0.1317139
vn 0.9907227 0.03366089 0.1317139
vn 0.9907227 0.03366089 0.1317139
vn 0.9907227 0.03366089 0.1317139
vn 0.9907227 0.03366089 0.1317139
vn 0.8178711 -0.5444336 0.1864014
vn 0.8178711 -0.5444336 0.1864014
vn 0.8178711 -0.5444336 0.1864014
vn 0.8178711 -0.5444336 0.1864014
vn 0.668457 -0.6201172 0.4106445
vn 0.668457 -0.6201172 0.4106445
vn 0.668457 -0.6201172 0.4106445
vn 0.668457 -0.6201172 0.4106445
vn 0.5205078 0.8364258 0.1728516
vn 0.5205078 0.8364258 0.1728516
vn 0.5205078 0.8364258 0.1728516
vn 0.5205078 0.8364258 0.1728516
vn 0.8510742 -0.003635406 0.5249023
vn 0.8510742 -0.003635406 0.5249023
vn 0.8510742 -0.003635406 0.5249023
vn 0.8510742 -0.003635406 0.5249023
vn 0.5732422 0.8041992 0.1573486
vn 0.5732422 0.8041992 0.1573486
vn 0.5732422 0.8041992 0.1573486
vn 0.5732422 0.8041992 0.1573486
g Rock_1_0
f 3/3/3 2/2/2 1/1/1
f 6/6/6 5/5/5 4/4/4
f 9/9/9 8/8/8 7/7/7
f 12/12/12 11/11/11 10/10/10
f 15/15/15 14/14/14 13/13/13
f 18/18/18 17/17/17 16/16/16
f 21/21/21 20/20/20 19/19/19
f 24/24/24 23/23/23 22/22/22
f 25/25/25 24/24/24 22/22/22
f 28/28/28 27/27/27 26/26/26
f 29/29/29 28/28/28 26/26/26
f 32/32/32 31/31/31 30/30/30
f 33/33/33 32/32/32 30/30/30
f 36/36/36 35/35/35 34/34/34
f 37/37/37 36/36/36 34/34/34
f 40/40/40 39/39/39 38/38/38
f 41/41/41 40/40/40 38/38/38
f 44/44/44 43/43/43 42/42/42
f 45/45/45 44/44/44 42/42/42
f 48/48/48 47/47/47 46/46/46
f 49/49/49 48/48/48 46/46/46
f 52/52/52 51/51/51 50/50/50
f 53/53/53 52/52/52 50/50/50
f 56/56/56 55/55/55 54/54/54
f 54/54/54 57/57/57 56/56/56
f 57/57/57 58/58/58 56/56/56
f 57/57/57 59/59/59 58/58/58
f 62/62/62 61/61/61 60/60/60
f 63/63/63 62/62/62 60/60/60
f 66/66/66 65/65/65 64/64/64
f 67/67/67 66/66/66 64/64/64
f 70/70/70 69/69/69 68/68/68
f 71/71/71 70/70/70 68/68/68
f 71/71/71 68/68/68 72/72/72
f 73/73/73 71/71/71 72/72/72
f 76/76/76 75/75/75 74/74/74
f 77/77/77 76/76/76 74/74/74
f 80/80/80 79/79/79 78/78/78
f 81/81/81 80/80/80 78/78/78
f 84/84/84 83/83/83 82/82/82
f 85/85/85 84/84/84 82/82/82
f 88/88/88 87/87/87 86/86/86
f 86/86/86 89/89/89 88/88/88
f 89/89/89 90/90/90 88/88/88
f 89/89/89 91/91/91 90/90/90
f 94/94/94 93/93/93 92/92/92
f 95/95/95 94/94/94 92/92/92
f 98/98/98 97/97/97 96/96/96
f 99/99/99 98/98/98 96/96/96
f 102/102/102 101/101/101 100/100/100
f 103/103/103 102/102/102 100/100/100
f 106/106/106 105/105/105 104/104/104
f 107/107/107 106/106/106 104/104/104
f 110/110/110 109/109/109 108/108/108
f 111/111/111 110/110/110 108/108/108
f 114/114/114 113/113/113 112/112/112
f 115/115/115 114/114/114 112/112/112
f 118/118/118 117/117/117 116/116/116
f 116/116/116 119/119/119 118/118/118
f 116/116/116 120/120/120 119/119/119
f 123/123/123 122/122/122 121/121/121
f 124/124/124 123/123/123 121/121/121
f 127/127/127 126/126/126 125/125/125
f 128/128/128 127/127/127 125/125/125
f 131/131/131 130/130/130 129/129/129
f 132/132/132 131/131/131 129/129/129
f 135/135/135 134/134/134 133/133/133
f 136/136/136 135/135/135 133/133/133
f 139/139/139 138/138/138 137/137/137
f 140/140/140 139/139/139 137/137/137
