g Rock_3
v 0.02541484 -0.1384989 0.2216335
v 0.03082514 -0.1384989 0.2707616
v 0.04175957 0.05134938 0.2270685
v 0.1123617 0.1119803 -0.04140671
v 0.1388001 0.1236067 -0.001022422
v 0.1236067 0.1442965 -0.001022422
v -0.2143019 0.1158732 0.09339207
v -0.2143019 0.136563 0.09339207
v -0.1481474 0.1352557 0.1872344
v 0.08595064 0.07422901 0.159588
v 0.08381525 0.0978224 0.1163746
v 0.0889888 0.08913215 0.1158439
v 0.1073788 -0.2369692 -0.001022422
v 0.08993606 -0.2027824 0.0384955
v 0.1225721 -0.2223579 -0.001022422
v 0.09716471 -0.2120038 -0.04140671
v 0.1073788 -0.2369692 -0.001022422
v 0.1225721 -0.2223579 -0.001022422
v -0.1966353 -0.199426 0.09105957
v -0.1966353 -0.2140373 -0.001022422
v -0.1875341 -0.1905289 -0.04140671
v 0.005196907 0.1048919 0.1598105
v 0.08595064 0.07422901 0.159588
v 0.04175957 0.05134938 0.2270685
v 0.08381525 0.0978224 0.1163746
v 0.1064191 0.1085659 0.0588017
v 0.1388001 0.1236067 -0.001022422
v 0.1225721 -0.2223579 -0.001022422
v 0.08993606 -0.2027824 0.0384955
v 0.1064191 0.1085659 0.0588017
v 0.08993606 -0.2027824 0.0384955
v 0.08898879 -0.1230974 0.0954245
v 0.0889888 0.08913215 0.1158439
v 0.01094732 -0.1529263 0.1563465
v -0.1789921 -0.1400374 0.1608977
v -0.161349 -0.1393581 0.2307358
v 0.02541484 -0.1384989 0.2216335
v 0.03082514 -0.1384989 0.2707616
v -0.1285629 -0.1264707 0.2773282
v -0.003391843 0.1119803 -0.06066668
v -0.2191344 0.1119803 -0.04140671
v -0.1875341 -0.1905289 -0.04140671
v -0.003391858 -0.2307574 -0.06066668
v 0.08595063 -0.1021217 0.1523535
v 0.02541484 -0.1384989 0.2216335
v 0.04175957 0.05134938 0.2270685
v 0.08595064 0.07422901 0.159588
v 0.1123617 0.1119803 -0.04140671
v -0.003391843 0.1119803 -0.06066668
v -0.003391858 -0.2307574 -0.06066668
v 0.09716471 -0.2120038 -0.04140671
v -0.1966353 -0.199426 0.09105957
v -0.2143019 0.1158732 0.09339207
v -0.1481474 0.1352557 0.1872344
v -0.1789921 -0.1400374 0.1608977
v -0.1481474 0.1352557 0.1872344
v 0.005196907 0.1048919 0.1598105
v 0.04175957 0.05134938 0.2270685
v -0.1513923 0.1028444 0.2361024
v -0.1319634 0.07837828 0.262257
v 0.03082514 -0.1384989 0.2707616
v -0.1285629 -0.1264707 0.2773282
v -0.1319634 0.07837828 0.262257
v 0.04175957 0.05134938 0.2270685
v -0.1513923 0.1028444 0.2361024
v -0.1319634 0.07837828 0.262257
v -0.1285629 -0.1264707 0.2773282
v -0.161349 -0.1393581 0.2307358
v -0.003520214 -0.2260629 0.09105957
v -1.123362E-08 -0.2569952 -0.001022422
v -0.1966353 -0.2140373 -0.001022422
v -0.1966353 -0.199426 0.09105957
v 0.1123617 0.1119803 -0.04140671
v 0.1236067 0.1442965 -0.001022422
v 6.307402E-09 0.1442965 -0.001022422
v -0.003391843 0.1119803 -0.06066668
v -0.1481474 0.1352557 0.1872344
v -0.1513923 0.1028444 0.2361024
v -0.161349 -0.1393581 0.2307358
v -0.1789921 -0.1400374 0.1608977
v -0.003391843 0.1119803 -0.06066668
v 6.307402E-09 0.1442965 -0.001022422
v -0.2303795 0.1442965 -0.001022422
v -0.2191344 0.1119803 -0.04140671
v -0.2191344 0.1119803 -0.04140671
v -0.2303795 0.1442965 -0.001022422
v -0.2143019 0.136563 0.09339207
v -0.2143019 0.1158732 0.09339207
v 6.307402E-09 0.1442965 -0.001022422
v 0.1236067 0.1442965 -0.001022422
v 0.1064191 0.1292556 0.0588017
v 0.002598457 0.1253889 0.09222583
v -0.2303795 0.1442965 -0.001022422
v 6.307402E-09 0.1442965 -0.001022422
v 0.002598457 0.1253889 0.09222583
v -0.2143019 0.136563 0.09339207
v -0.1875341 -0.1905289 -0.04140671
v -0.2191344 0.1119803 -0.04140671
v -0.2143019 0.1158732 0.09339207
v -0.1966353 -0.199426 0.09105957
v 0.1236067 0.1442965 -0.001022422
v 0.1388001 0.1236067 -0.001022422
v 0.1064191 0.1085659 0.0588017
v 0.1064191 0.1292556 0.0588017
v -0.1875341 -0.1905289 -0.04140671
v -0.1966353 -0.2140373 -0.001022422
v -1.123362E-08 -0.2569952 -0.001022422
v -0.003391858 -0.2307574 -0.06066668
v 0.09716471 -0.2120038 -0.04140671
v 0.1225721 -0.2223579 -0.001022422
v 0.1388001 0.1236067 -0.001022422
v 0.1123617 0.1119803 -0.04140671
v 0.08898879 -0.1230974 0.0954245
v 0.01094732 -0.1529263 0.1563465
v 0.02541484 -0.1384989 0.2216335
v 0.08595063 -0.1021217 0.1523535
v -0.003391858 -0.2307574 -0.06066668
v -1.123362E-08 -0.2569952 -0.001022422
v 0.1073788 -0.2369692 -0.001022422
v 0.09716471 -0.2120038 -0.04140671
v 0.08993606 -0.2027824 0.0384955
v 0.1073788 -0.2369692 -0.001022422
v -1.123362E-08 -0.2569952 -0.001022422
v -0.003520214 -0.2260629 0.09105957
v 0.08993606 -0.2027824 0.0384955
v -0.003520214 -0.2260629 0.09105957
v 0.01094732 -0.1529263 0.1563465
v 0.08898879 -0.1230974 0.0954245
v -0.003520214 -0.2260629 0.09105957
v -0.1966353 -0.199426 0.09105957
v -0.1789921 -0.1400374 0.1608977
v 0.01094732 -0.1529263 0.1563465
v -0.2143019 0.136563 0.09339207
v 0.002598457 0.1253889 0.09222583
v 0.005196907 0.1048919 0.1598105
v -0.1481474 0.1352557 0.1872344
v 0.08898879 -0.1230974 0.0954245
v 0.08595063 -0.1021217 0.1523535
v 0.08595064 0.07422901 0.159588
v 0.0889888 0.08913215 0.1158439
v 0.08381525 0.0978224 0.1163746
v 0.1064191 0.1292556 0.0588017
v 0.1064191 0.1085659 0.0588017
v 0.0889888 0.08913215 0.1158439
v 0.08381525 0.0978224 0.1163746
v 0.005196907 0.1048919 0.1598105
v 0.002598457 0.1253889 0.09222583
v 0.1064191 0.1292556 0.0588017
vn 0.9907227 -0.08215332 -0.1090698
vn 0.9907227 -0.08215332 -0.1090698
vn 0.9907227 -0.08215332 -0.1090698
vn 0.6611328 0.4853516 -0.5722656
vn 0.6611328 0.4853516 -0.5722656
vn 0.6611328 0.4853516 -0.5722656
vn -0.8173828 0 0.5761719
vn -0.8173828 0 0.5761719
vn -0.8173828 0 0.5761719
vn 0.8432617 0.4882813 0.2248535
vn 0.8432617 0.4882813 0.2248535
vn 0.8432617 0.4882813 0.2248535
vn 0.5078125 -0.527832 0.6806641
vn 0.5078125 -0.527832 0.6806641
vn 0.5078125 -0.527832 0.6806641
vn 0.5888672 -0.6123047 -0.5273438
vn 0.5888672 -0.6123047 -0.5273438
vn 0.5888672 -0.6123047 -0.5273438
vn -0.9555664 0.2907715 -0.04614258
vn -0.9555664 0.2907715 -0.04614258
vn -0.9555664 0.2907715 -0.04614258
vn 0.3122559 0.8188477 0.4819336
vn 0.3122559 0.8188477 0.4819336
vn 0.3122559 0.8188477 0.4819336
vn 0.3195801 0.8383789 0.4418945
vn 0.8339844 -0.05844116 0.5483398
vn 0.8339844 -0.05844116 0.5483398
vn 0.8339844 -0.05844116 0.5483398
vn 0.8339844 -0.05844116 0.5483398
vn 0.9824219 -0.04510498 0.182251
vn 0.9824219 -0.04510498 0.182251
vn 0.9824219 -0.04510498 0.182251
vn 0.9824219 -0.04510498 0.182251
vn -0.0274353 -0.9926758 0.1174927
vn -0.0274353 -0.9926758 0.1174927
vn -0.0274353 -0.9926758 0.1174927
vn -0.0274353 -0.9926758 0.1174927
vn -0.0254364 -0.9892578 0.1433105
vn -0.0254364 -0.9892578 0.1433105
vn -0.09637451 -0.004718781 -0.9951172
vn -0.09637451 -0.004718781 -0.9951172
vn -0.09637451 -0.004718781 -0.9951172
vn -0.09637451 -0.004718781 -0.9951172
vn 0.8041992 -0.05636597 0.5913086
vn 0.8041992 -0.05636597 0.5913086
vn 0.8041992 -0.05636597 0.5913086
vn 0.8041992 -0.05636597 0.5913086
vn 0.1756592 -0.004005432 -0.984375
vn 0.1756592 -0.004005432 -0.984375
vn 0.1756592 -0.004005432 -0.984375
vn 0.1756592 -0.004005432 -0.984375
vn -0.8896484 -0.002313614 0.456543
vn -0.8896484 -0.002313614 0.456543
vn -0.8896484 -0.002313614 0.456543
vn -0.8896484 -0.002313614 0.456543
vn 0.2474365 0.8115234 0.5297852
vn 0.2474365 0.8115234 0.5297852
vn 0.2474365 0.8115234 0.5297852
vn 0.2474365 0.8115234 0.5297852
vn 0.2373047 0.7910156 0.5639648
vn 0.1396484 0.1431885 0.9799805
vn 0.1396484 0.1431885 0.9799805
vn 0.1396484 0.1431885 0.9799805
vn 0.1396484 0.1431885 0.9799805
vn -0.8100586 0.02459717 0.5854492
vn -0.8100586 0.02459717 0.5854492
vn -0.8100586 0.02459717 0.5854492
vn -0.8100586 0.02459717 0.5854492
vn -0.1708984 -0.9570313 0.2333984
vn -0.1708984 -0.9570313 0.2333984
vn -0.1708984 -0.9570313 0.2333984
vn -0.1708984 -0.9570313 0.2333984
vn 0.04400635 0.8359375 -0.546875
vn 0.04400635 0.8359375 -0.546875
vn 0.04400635 0.8359375 -0.546875
vn 0.04400635 0.8359375 -0.546875
vn -0.987793 0.06939697 0.1384277
vn -0.987793 0.06939697 0.1384277
vn -0.987793 0.06939697 0.1384277
vn -0.987793 0.06939697 0.1384277
vn -0.02348328 0.8388672 -0.5439453
vn -0.02348328 0.8388672 -0.5439453
vn -0.02348328 0.8388672 -0.5439453
vn -0.02348328 0.8388672 -0.5439453
vn -0.9599609 -0.2670898 0.08312988
vn -0.9599609 -0.2670898 0.08312988
vn -0.9599609 -0.2670898 0.08312988
vn -0.9599609 -0.2670898 0.08312988
vn 0.01543427 0.9760742 0.2178955
vn 0.01543427 0.9760742 0.2178955
vn 0.01543427 0.9760742 0.2178955
vn 0.01543427 0.9760742 0.2178955
vn 0.02510071 0.9902344 0.1380615
vn 0.02510071 0.9902344 0.1380615
vn 0.02510071 0.9902344 0.1380615
vn 0.02510071 0.9902344 0.1380615
vn -0.996582 -0.07940674 -0.01741028
vn -0.996582 -0.07940674 -0.01741028
vn -0.996582 -0.07940674 -0.01741028
vn -0.996582 -0.07940674 -0.01741028
vn 0.8476563 0.3112793 0.4294434
vn 0.8476563 0.3112793 0.4294434
vn 0.8476563 0.3112793 0.4294434
vn 0.8476563 0.3112793 0.4294434
vn -0.2125244 -0.8701172 -0.4448242
vn -0.2125244 -0.8701172 -0.4448242
vn -0.2125244 -0.8701172 -0.4448242
vn -0.2125244 -0.8701172 -0.4448242
vn 0.8413086 -0.03945923 -0.5395508
vn 0.8413086 -0.03945923 -0.5395508
vn 0.8413086 -0.03945923 -0.5395508
vn 0.8413086 -0.03945923 -0.5395508
vn 0.5581055 -0.8095703 0.182373
vn 0.5581055 -0.8095703 0.182373
vn 0.5581055 -0.8095703 0.182373
vn 0.5581055 -0.8095703 0.182373
vn 0.2037354 -0.8598633 -0.4680176
vn 0.2037354 -0.8598633 -0.4680176
vn 0.2037354 -0.8598633 -0.4680176
vn 0.2037354 -0.8598633 -0.4680176
vn 0.3007813 -0.8349609 0.4609375
vn 0.3007813 -0.8349609 0.4609375
vn 0.3007813 -0.8349609 0.4609375
vn 0.3007813 -0.8349609 0.4609375
vn 0.5742188 -0.5419922 0.6137695
vn 0.5742188 -0.5419922 0.6137695
vn 0.5742188 -0.5419922 0.6137695
vn 0.5742188 -0.5419922 0.6137695
vn -0.06433105 -0.7045898 0.706543
vn -0.06433105 -0.7045898 0.706543
vn -0.06433105 -0.7045898 0.706543
vn -0.06433105 -0.7045898 0.706543
vn 0.1174927 0.9897461 0.08361816
vn 0.1174927 0.9897461 0.08361816
vn 0.1174927 0.9897461 0.08361816
vn 0.1174927 0.9897461 0.08361816
vn 0.9980469 -0.004306793 0.06051636
vn 0.9980469 -0.004306793 0.06051636
vn 0.9980469 -0.004306793 0.06051636
vn 0.9980469 -0.004306793 0.06051636
vn 0.909668 0.1531982 0.3857422
vn 0.909668 0.1531982 0.3857422
vn 0.909668 0.1531982 0.3857422
vn 0.909668 0.1531982 0.3857422
vn 0.1849365 0.8969727 0.4016113
vn 0.1849365 0.8969727 0.4016113
vn 0.1849365 0.8969727 0.4016113
vn 0.1849365 0.8969727 0.4016113
g Rock_3_0
f 3/3/3 2/2/2 1/1/1
f 6/6/6 5/5/5 4/4/4
f 9/9/9 8/8/8 7/7/7
f 12/12/12 11/11/11 10/10/10
f 15/15/15 14/14/14 13/13/13
f 18/18/18 17/17/17 16/16/16
f 21/21/21 20/20/20 19/19/19
f 24/24/24 23/23/23 22/22/22
f 23/23/23 25/25/25 22/22/22
f 28/28/28 27/27/27 26/26/26
f 29/29/29 28/28/28 26/26/26
f 32/32/32 31/31/31 30/30/30
f 33/33/33 32/32/32 30/30/30
f 36/36/36 35/35/35 34/34/34
f 37/37/37 36/36/36 34/34/34
f 37/37/37 38/38/38 36/36/36
f 38/38/38 39/39/39 36/36/36
f 42/42/42 41/41/41 40/40/40
f 43/43/43 42/42/42 40/40/40
f 46/46/46 45/45/45 44/44/44
f 47/47/47 46/46/46 44/44/44
f 50/50/50 49/49/49 48/48/48
f 51/51/51 50/50/50 48/48/48
f 54/54/54 53/53/53 52/52/52
f 55/55/55 54/54/54 52/52/52
f 58/58/58 57/57/57 56/56/56
f 59/59/59 58/58/58 56/56/56
f 59/59/59 60/60/60 58/58/58
f 63/63/63 62/62/62 61/61/61
f 64/64/64 63/63/63 61/61/61
f 67/67/67 66/66/66 65/65/65
f 68/68/68 67/67/67 65/65/65
f 71/71/71 70/70/70 69/69/69
f 72/72/72 71/71/71 69/69/69
f 75/75/75 74/74/74 73/73/73
f 76/76/76 75/75/75 73/73/73
f 79/79/79 78/78/78 77/77/77
f 80/80/80 79/79/79 77/77/77
f 83/83/83 82/82/82 81/81/81
f 84/84/84 83/83/83 81/81/81
f 87/87/87 86/86/86 85/85/85
f 88/88/88 87/87/87 85/85/85
f 91/91/91 90/90/90 89/89/89
f 92/92/92 91/91/91 89/89/89
f 95/95/95 94/94/94 93/93/93
f 96/96/96 95/95/95 93/93/93
f 99/99/99 98/98/98 97/97/97
f 100/100/100 99/99/99 97/97/97
f 103/103/103 102/102/102 101/101/101
f 104/104/104 103/103/103 101/101/101
f 107/107/107 106/106/106 105/105/105
f 108/108/108 107/107/107 105/105/105
f 111/111/111 110/110/110 109/109/109
f 112/112/112 111/111/111 109/109/109
f 115/115/115 114/114/114 113/113/113
f 116/116/116 115/115/115 113/113/113
f 119/119/119 118/118/118 117/117/117
f 120/120/120 119/119/119 117/117/117
f 123/123/123 122/122/122 121/121/121
f 124/124/124 123/123/123 121/121/121
f 127/127/127 126/126/126 125/125/125
f 128/128/128 127/127/127 125/125/125
f 131/131/131 130/130/130 129/129/129
f 132/132/132 131/131/131 129/129/129
f 135/135/135 134/134/134 133/133/133
f 136/136/136 135/135/135 133/133/133
f 139/139/139 138/138/138 137/137/137
f 140/140/140 139/139/139 137/137/137
f 143/143/143 142/142/142 141/141/141
f 144/144/144 143/143/143 141/141/141
f 147/147/147 146/146/146 145/145/145
f 148/148/148 147/147/147 145/145/145
