g Rock_04_lod
v -1.271146 -2.12943 -0.09034228
v -1.043188 -2.074906 -0.8168507
v -2.109595 -1.162971 -0.2003171
v -1.690896 -1.432571 -1.232575
v -2.153311 -0.8038887 -0.3818773
v -1.986538 0.9001297 -0.6022053
v 0.7501564 -1.974584 -1.101915
v -0.6333818 -2.232413 -0.05253508
v 0.9810257 -2.202222 -0.2327521
v 1.924191 -1.244877 -1.018648
v 2.120676 -0.7326889 -1.217838
v 2.128065 -0.6647968 -0.7582431
v 2.103406 0.7766676 -1.12167
v 2.144176 0.6988687 -0.3499014
v 1.934926 1.0613 -0.009619474
v 1.172161 2.078678 -0.6891873
v 1.646518 1.405184 -1.201607
v -1.597783 1.222531 -1.169125
v -0.8454514 1.838583 -0.2338696
v -1.932582 0.9600315 -0.2327354
v -0.6674966 1.92076 -0.8618914
v -0.3153234 2.02178 -0.1158976
v 1.078095 2.007918 -0.971176
v -1.043188 -2.074906 -0.8168507
v -1.271146 -2.12943 -0.09034228
v -0.6333818 -2.232413 -0.05253508
v -0.5736654 -2.066444 0.08261317
v 0.3719668 -2.14781 0.01410741
v 0.9810257 -2.202222 -0.2327521
v 1.597764 -1.719223 -0.01891112
v 1.924191 -1.244877 -1.018648
v -1.622631 -1.640884 0.001909256
v -2.109595 -1.162971 -0.2003171
v -2.103494 0.06350422 -0.05136416
v -2.153311 -0.8038887 -0.3818773
v -1.986538 0.9001297 -0.6022053
v -1.932582 0.9600315 -0.2327354
v -1.55068 1.122061 0.02580705
v -0.8454514 1.838583 -0.2338696
v -0.3153234 2.02178 -0.1158976
v 1.384499 -1.01847 0.1321357
v 2.091926 -0.674778 -0.2488552
v 2.128065 -0.6647968 -0.7582431
v 1.364025 1.629396 0.04719186
v 1.668677 0.008293152 0.06039756
v 2.011626 -0.04410982 -0.153572
v 2.144176 0.6988687 -0.3499014
v 1.934926 1.0613 -0.009619474
v 1.172161 2.078678 -0.6891873
v 0.7112041 2.051113 -0.07636118
vt 0.4558957 0.4067667
vt 0.4014148 0.4556968
vt 0.5119463 0.4945533
vt 0.45938 0.5447941
vt 0.5418211 0.6053129
vt 0.537579 0.7787947
vt 0.1968738 0.5018566
vt 0.3239489 0.3718908
vt 0.1541601 0.450287
vt 0.07686638 0.5933748
vt 0.08105756 0.6724346
vt 0.02867764 0.668212
vt 0.09803797 0.8163306
vt 0.02484929 0.842166
vt 0.04601192 0.9088457
vt 0.2060141 0.9663153
vt 0.1548831 0.8570929
vt 0.4735444 0.7972665
vt 0.4594012 0.9246281
vt 0.5509909 0.8065141
vt 0.4147509 0.9043344
vt 0.3983559 0.9786094
vt 0.2189471 0.9302234
vt 0.5565659 0.03007229
vt 0.5650297 0.08764859
vt 0.634294 0.06820536
vt 0.6412247 0.0896896
vt 0.7379585 0.07685693
vt 0.7940435 0.05810046
vt 0.8570349 0.1191777
vt 0.9616714 0.1150922
vt 0.5355989 0.1378956
vt 0.4868921 0.1860283
vt 0.4881006 0.3080958
vt 0.4605368 0.2132059
vt 0.4698136 0.3843938
vt 0.4973056 0.4071336
vt 0.5495615 0.4150187
vt 0.6047056 0.5140752
vt 0.6777328 0.5201681
vt 0.8330693 0.1863266
vt 0.9298382 0.2061106
vt 0.9861501 0.1897876
vt 0.8595769 0.4547833
vt 0.8744963 0.293207
vt 0.931664 0.2799233
vt 0.9591096 0.3673066
vt 0.9148012 0.3991666
vt 0.8693802 0.5469494
vt 0.8010877 0.5119142
vn 0.009680033 -0.7693506 0.6387534
vn 0.1837271 -0.646852 -0.7401534
vn -0.8626626 -0.499288 -0.08077548
vn -0.7316943 -0.3826327 -0.564106
vn -0.9321463 0.2714637 -0.2396056
vn -0.6392624 0.4117176 -0.6494861
vn -0.01053556 -0.7350029 -0.6779821
vn -0.4674332 -0.6780889 0.5671874
vn 0.1274991 -0.9428982 -0.3077126
vn 0.4976356 -0.7735711 -0.3923601
vn 0.8207436 -0.3938932 -0.4137971
vn 0.8024715 -0.3084103 0.510806
vn 0.4736778 0.4067737 -0.7811302
vn 0.9420521 -0.09719655 -0.3210775
vn 0.8178807 -0.02844254 0.5746844
vn 0.5106305 0.798523 0.318775
vn 0.1751219 0.3167489 -0.9322031
vn -0.7587695 0.1734448 -0.6278422
vn -0.3710482 0.6812608 0.6310364
vn -0.9312525 0.2400379 0.274136
vn -0.4639702 0.8446152 -0.2671272
vn -0.341501 0.8908429 0.2996262
vn 0.1264794 0.9358714 -0.3288582
vn 0.1837271 -0.646852 -0.7401534
vn 0.009680033 -0.7693506 0.6387534
vn -0.4674332 -0.6780889 0.5671874
vn 0.1095909 -0.7451007 0.6578866
vn 0.5101799 -0.4778202 0.7151254
vn 0.1274991 -0.9428982 -0.3077126
vn 0.1242951 -0.5969298 0.7926067
vn 0.4976356 -0.7735711 -0.3923601
vn -0.4138059 0.1383643 0.8997889
vn -0.8626626 -0.499288 -0.08077548
vn -0.3446157 0.295233 0.8911102
vn -0.9321463 0.2714637 -0.2396056
vn -0.6392624 0.4117176 -0.6494861
vn -0.9312525 0.2400379 0.274136
vn -0.7093927 0.4226502 0.5640291
vn -0.3710482 0.6812608 0.6310364
vn -0.341501 0.8908429 0.2996262
vn 0.07499496 -0.3036543 0.9498262
vn 0.5505183 0.0266916 0.8343964
vn 0.8024715 -0.3084103 0.510806
vn 0.6826451 0.5256996 0.5075781
vn 0.4952828 -0.3092668 0.8118183
vn 0.6654594 0.1453805 0.7321395
vn 0.9420521 -0.09719655 -0.3210775
vn 0.8178807 -0.02844254 0.5746844
vn 0.5106305 0.798523 0.318775
vn -0.3629997 0.7468004 0.5572436
g Rock_04_lod_0
f 3/3/3 2/2/2 1/1/1
f 4/4/4 2/2/2 3/3/3
f 3/3/3 5/5/5 4/4/4
f 5/5/5 6/6/6 4/4/4
f 2/2/2 4/4/4 7/7/7
f 8/8/8 2/2/2 7/7/7
f 9/9/9 8/8/8 7/7/7
f 7/7/7 10/10/10 9/9/9
f 7/7/7 11/11/11 10/10/10
f 11/11/11 7/7/7 4/4/4
f 10/10/10 11/11/11 12/12/12
f 13/13/13 12/12/12 11/11/11
f 12/12/12 13/13/13 14/14/14
f 13/13/13 15/15/15 14/14/14
f 16/16/16 15/15/15 13/13/13
f 13/13/13 11/11/11 17/17/17
f 4/4/4 17/17/17 11/11/11
f 13/13/13 17/17/17 16/16/16
f 18/18/18 4/4/4 6/6/6
f 18/18/18 17/17/17 4/4/4
f 18/18/18 6/6/6 19/19/19
f 6/6/6 20/20/20 19/19/19
f 18/18/18 19/19/19 21/21/21
f 18/18/18 21/21/21 17/17/17
f 21/21/21 19/19/19 22/22/22
f 22/22/22 16/16/16 21/21/21
f 16/16/16 17/17/17 23/23/23
f 23/23/23 17/17/17 21/21/21
f 23/23/23 21/21/21 16/16/16
f 26/26/26 25/25/25 24/24/24
f 27/27/27 25/25/25 26/26/26
f 27/27/27 26/26/26 28/28/28
f 28/28/28 26/26/26 29/29/29
f 29/29/29 30/30/30 28/28/28
f 30/30/30 29/29/29 31/31/31
f 27/27/27 32/32/32 25/25/25
f 25/25/25 32/32/32 33/33/33
f 33/33/33 32/32/32 34/34/34
f 32/32/32 27/27/27 34/34/34
f 34/34/34 35/35/35 33/33/33
f 36/36/36 35/35/35 34/34/34
f 36/36/36 34/34/34 37/37/37
f 38/38/38 37/37/37 34/34/34
f 34/34/34 27/27/27 38/38/38
f 38/38/38 39/39/39 37/37/37
f 38/38/38 40/40/40 39/39/39
f 27/27/27 28/28/28 41/41/41
f 27/27/27 41/41/41 38/38/38
f 30/30/30 41/41/41 28/28/28
f 30/30/30 31/31/31 42/42/42
f 31/31/31 43/43/43 42/42/42
f 40/40/40 38/38/38 44/44/44
f 38/38/38 41/41/41 44/44/44
f 41/41/41 30/30/30 45/45/45
f 42/42/42 45/45/45 30/30/30
f 41/41/41 45/45/45 44/44/44
f 46/46/46 42/42/42 43/43/43
f 42/42/42 46/46/46 45/45/45
f 43/43/43 47/47/47 46/46/46
f 48/48/48 46/46/46 47/47/47
f 46/46/46 48/48/48 45/45/45
f 44/44/44 45/45/45 48/48/48
f 49/49/49 44/44/44 48/48/48
f 50/50/50 49/49/49 40/40/40
f 44/44/44 50/50/50 40/40/40
f 49/49/49 50/50/50 44/44/44
