g Rock_Moss_7
v 0.0001622799 -0.002385937 0.004270422
v 0.0009095171 -0.000938484 0.004202666
v 0.001812439 -0.001548337 0.004245789
v -0.004431747 0.003492617 0.001688919
v -0.003931545 0.002407934 0.003124021
v -0.004833595 0.002239549 0.001932789
v -0.004129736 -0.002767138 0.002950003
v -0.002908274 -0.002938397 0.003549256
v -0.004129332 -0.003702678 0.002963624
v -0.004129332 -0.003702678 0.002963624
v -0.002908274 -0.002938397 0.003549256
v -0.002633277 -0.003425082 0.00295288
v 0.001289963 0.002717177 0.001826418
v 0.001194465 0.004273527 0.0006359973
v 0.00144281 0.002417929 0.001218899
v 0.002355414 -0.001522557 0.002347623
v 0.003127656 -0.001617793 0.00192819
v 0.002195385 -0.002662446 0.002437917
v 0.00144281 0.002417929 0.001218899
v 0.002505743 0.001643674 0.0006970042
v 0.003127656 -0.001617793 0.00192819
v 0.002355414 -0.001522557 0.002347623
v 0.001230772 0.002324134 0.00297819
v 0.001812439 -0.001548337 0.004245789
v 0.0009095171 -0.000938484 0.004202666
v 0.0002986552 0.002983835 0.004352593
v -0.002908274 -0.002938397 0.003549256
v -0.002999171 -0.00246215 0.004417147
v 0.0009095171 -0.000938484 0.004202666
v 0.0001622799 -0.002385937 0.004270422
v 4.37596E-05 0.002974395 0.005307619
v 0.0009095171 -0.000938484 0.004202666
v -0.002436854 -0.001696923 0.005466877
v -0.002906116 0.002348037 0.005460301
v 0.001194465 0.004273527 0.0006359973
v 0.001289963 0.002717177 0.001826418
v -0.0001994665 0.003161084 0.003024562
v -0.00067333 0.004529523 0.001671383
v -0.00067333 0.004529523 0.001671383
v -0.0001994665 0.003161084 0.003024562
v -0.003931545 0.002407934 0.003124021
v -0.004431747 0.003492617 0.001688919
v 0.003127656 -0.001617793 0.00192819
v 0.002633781 -0.003634044 0.001364107
v 0.001929546 -0.00415312 0.001873835
v 0.002195385 -0.002662446 0.002437917
v -0.002633277 -0.003425082 0.00295288
v 0.0001414846 -0.00291022 0.002932955
v -0.00097442 -0.006360121 0.001677544
v -0.003897713 -0.004046815 0.002399541
v -0.004129332 -0.003702678 0.002963624
v -0.003931545 0.002407934 0.003124021
v -0.002908274 -0.002938397 0.003549256
v -0.004129736 -0.002767138 0.002950003
v -0.004833595 0.002239549 0.001932789
v 0.002195385 -0.002662446 0.002437917
v 0.001929546 -0.00415312 0.001873835
v -0.00097442 -0.006360121 0.001677544
v 0.0001414846 -0.00291022 0.002932955
v 0.0009095171 -0.000938484 0.004202666
v -0.002999171 -0.00246215 0.004417147
v -0.002436854 -0.001696923 0.005466877
v 0.0002986552 0.002983835 0.004352593
v 0.0009095171 -0.000938484 0.004202666
v 4.37596E-05 0.002974395 0.005307619
v 0.001812439 -0.001548337 0.004245789
v 0.002355414 -0.001522557 0.002347623
v 0.002195385 -0.002662446 0.002437917
v 0.002355414 -0.001522557 0.002347623
v 0.001812439 -0.001548337 0.004245789
v 0.001230772 0.002324134 0.00297819
v 0.00144281 0.002417929 0.001218899
v 0.001289963 0.002717177 0.001826418
v -0.0001994665 0.003161084 0.003024562
v 0.0002986552 0.002983835 0.004352593
v -0.003800285 0.002486558 0.004520474
v -0.003931545 0.002407934 0.003124021
v -0.003800285 0.002486558 0.004520474
v 0.0002986552 0.002983835 0.004352593
v 4.37596E-05 0.002974395 0.005307619
v -0.002906116 0.002348037 0.005460301
v -0.002999171 -0.00246215 0.004417147
v -0.003800285 0.002486558 0.004520474
v -0.002906116 0.002348037 0.005460301
v -0.002436854 -0.001696923 0.005466877
v 0.0001622799 -0.002385937 0.004270422
v 0.001812439 -0.001548337 0.004245789
v 0.002195385 -0.002662446 0.002437917
v 0.0001414846 -0.00291022 0.002932955
v -0.002908274 -0.002938397 0.003549256
v -0.003931545 0.002407934 0.003124021
v -0.003800285 0.002486558 0.004520474
v -0.002999171 -0.00246215 0.004417147
v 0.001289963 0.002717177 0.001826418
v 0.001230772 0.002324134 0.00297819
v 0.0002986552 0.002983835 0.004352593
v -0.0001994665 0.003161084 0.003024562
v -0.004129736 -0.002767138 0.002950003
v -0.004129332 -0.003702678 0.002963624
v -0.004785742 -0.003270919 -0.002272128
v -0.004840256 -0.002860957 -0.002272129
v 0.001194465 0.004273527 0.0006359973
v -0.00067333 0.004529523 0.001671383
v -0.0006654283 0.004470098 -0.002272128
v 0.001197806 0.004248405 -0.002272129
v -0.00067333 0.004529523 0.001671383
v -0.004431747 0.003492617 0.001688919
v -0.005320766 0.003433193 -0.002272129
v -0.0006654283 0.004470098 -0.002272128
v -0.004431747 0.003492617 0.001688919
v -0.004833595 0.002239549 0.001932789
v -0.005531898 0.001965128 -0.002272128
v -0.005320766 0.003433193 -0.002272129
v 0.0015202 0.002745137 -0.002272128
v 0.002451754 0.002017196 -0.002272128
v 0.002505743 0.001643674 0.0006970042
v 0.00144281 0.002417929 0.001218899
v 0.00144281 0.002417929 0.001218899
v 0.001194465 0.004273527 0.0006359973
v 0.001197806 0.004248405 -0.002272129
v 0.0015202 0.002745137 -0.002272128
v -0.004833595 0.002239549 0.001932789
v -0.004129736 -0.002767138 0.002950003
v -0.004840256 -0.002860957 -0.002272129
v -0.005531898 0.001965128 -0.002272128
v 0.003127656 -0.001617793 0.00192819
v 0.002505743 0.001643674 0.0006970042
v 0.002451754 0.002017196 -0.002272128
v 0.003223561 -0.001760597 -0.002272129
v -0.005320766 0.003433193 -0.002272129
v -0.005531898 0.001965128 -0.002272128
v -0.004840256 -0.002860957 -0.002272129
v -0.004785742 -0.003270919 -0.002272128
v -0.0006654283 0.004470098 -0.002272128
v 0.000381895 -0.002477701 -0.002272129
v 0.001197806 0.004248405 -0.002272129
v 0.0015202 0.002745137 -0.002272128
v 0.002451754 0.002017196 -0.002272128
v -0.0009620461 -0.006453177 -0.002272129
v -0.004782159 -0.004140633 -0.002272129
v 0.002067585 -0.004282101 -0.002272128
v 0.00256146 -0.00226585 -0.002272129
v 0.003223561 -0.001760597 -0.002272129
v 0.002729685 -0.003776848 -0.002272128
v 0.003223561 -0.001760597 -0.002272129
v 0.002729685 -0.003776848 -0.002272128
v 0.002633781 -0.003634044 0.001364107
v 0.003127656 -0.001617793 0.00192819
v -0.00097442 -0.006360121 0.001677544
v 0.002067585 -0.004282101 -0.002272128
v -0.0009620461 -0.006453177 -0.002272129
v 0.001929546 -0.00415312 0.001873835
v 0.002729685 -0.003776848 -0.002272128
v 0.002633781 -0.003634044 0.001364107
v -0.003897713 -0.004046815 0.002399541
v -0.00097442 -0.006360121 0.001677544
v -0.0009620461 -0.006453177 -0.002272129
v -0.004782159 -0.004140633 -0.002272129
v -0.004129332 -0.003702678 0.002963624
v -0.003897713 -0.004046815 0.002399541
v -0.004782159 -0.004140633 -0.002272129
v -0.004785742 -0.003270919 -0.002272128
v -0.002908274 -0.002938397 0.003549256
v 0.0001622799 -0.002385937 0.004270422
v 0.0001414846 -0.00291022 0.002932955
v -0.002633277 -0.003425082 0.00295288
vn -0.01194763 0.05291748 0.9985352
vn -0.01194763 0.05291748 0.9985352
vn -0.01194763 0.05291748 0.9985352
vn -0.7700195 0.3505859 0.5332031
vn -0.7700195 0.3505859 0.5332031
vn -0.7700195 0.3505859 0.5332031
vn -0.4389648 0.01289368 0.8984375
vn -0.4389648 0.01289368 0.8984375
vn -0.4389648 0.01289368 0.8984375
vn 0.1409912 -0.734375 0.6640625
vn 0.1409912 -0.734375 0.6640625
vn 0.1409912 -0.734375 0.6640625
vn 0.9711914 0.1790771 0.1561279
vn 0.9711914 0.1790771 0.1561279
vn 0.9711914 0.1790771 0.1561279
vn 0.4775391 0.002557755 0.878418
vn 0.4775391 0.002557755 0.878418
vn 0.4775391 0.002557755 0.878418
vn 0.5556641 0.3635254 0.7475586
vn 0.5556641 0.3635254 0.7475586
vn 0.5556641 0.3635254 0.7475586
vn 0.5556641 0.3635254 0.7475586
vn 0.6635742 0.2047119 0.7197266
vn 0.6635742 0.2047119 0.7197266
vn 0.6635742 0.2047119 0.7197266
vn 0.6635742 0.2047119 0.7197266
vn 0.05209351 -0.3986816 0.9155273
vn 0.05209351 -0.3986816 0.9155273
vn 0.05209351 -0.3986816 0.9155273
vn 0.05209351 -0.3986816 0.9155273
vn 0.2381592 -0.09350586 0.9667969
vn 0.2381592 -0.09350586 0.9667969
vn 0.2381592 -0.09350586 0.9667969
vn 0.2381592 -0.09350586 0.9667969
vn 0.5214844 0.6152344 0.5908203
vn 0.5214844 0.6152344 0.5908203
vn 0.5214844 0.6152344 0.5908203
vn 0.5214844 0.6152344 0.5908203
vn -0.159668 0.7128906 0.6831055
vn -0.159668 0.7128906 0.6831055
vn -0.159668 0.7128906 0.6831055
vn -0.159668 0.7128906 0.6831055
vn 0.7128906 -0.3498535 0.6079102
vn 0.7128906 -0.3498535 0.6079102
vn 0.7128906 -0.3498535 0.6079102
vn 0.7128906 -0.3498535 0.6079102
vn 0.002784729 -0.4328613 0.9013672
vn 0.002784729 -0.4328613 0.9013672
vn 0.002784729 -0.4328613 0.9013672
vn 0.002784729 -0.4328613 0.9013672
vn 0.002784729 -0.4328613 0.9013672
vn -0.6445313 -0.001020432 0.7646484
vn -0.6445313 -0.001020432 0.7646484
vn -0.6445313 -0.001020432 0.7646484
vn -0.6445313 -0.001020432 0.7646484
vn 0.2490234 -0.3952637 0.8842773
vn 0.2490234 -0.3952637 0.8842773
vn 0.2490234 -0.3952637 0.8842773
vn 0.2490234 -0.3952637 0.8842773
vn 0.3491211 -0.8364258 0.4226074
vn 0.3491211 -0.8364258 0.4226074
vn 0.3491211 -0.8364258 0.4226074
vn 0.956543 0.1391602 0.2565918
vn 0.956543 0.1391602 0.2565918
vn 0.956543 0.1391602 0.2565918
vn 0.9555664 -0.1126099 0.2719727
vn 0.9555664 -0.1126099 0.2719727
vn 0.9555664 -0.1126099 0.2719727
vn 0.9487305 0.2434082 0.2008057
vn 0.9487305 0.2434082 0.2008057
vn 0.9487305 0.2434082 0.2008057
vn 0.9487305 0.2434082 0.2008057
vn 0.9487305 0.2434082 0.2008057
vn -0.1549072 0.9853516 0.07147217
vn -0.1549072 0.9853516 0.07147217
vn -0.1549072 0.9853516 0.07147217
vn -0.1549072 0.9853516 0.07147217
vn -0.1505127 0.9804688 0.1273193
vn -0.1505127 0.9804688 0.1273193
vn -0.1505127 0.9804688 0.1273193
vn -0.1505127 0.9804688 0.1273193
vn -0.7832031 -0.1172485 0.6103516
vn -0.7832031 -0.1172485 0.6103516
vn -0.7832031 -0.1172485 0.6103516
vn -0.7832031 -0.1172485 0.6103516
vn 0.3083496 -0.8286133 0.467041
vn 0.3083496 -0.8286133 0.467041
vn 0.3083496 -0.8286133 0.467041
vn 0.3083496 -0.8286133 0.467041
vn -0.9833984 -0.1723633 0.05975342
vn -0.9833984 -0.1723633 0.05975342
vn -0.9833984 -0.1723633 0.05975342
vn -0.9833984 -0.1723633 0.05975342
vn 0.5048828 0.8564453 0.107666
vn 0.5048828 0.8564453 0.107666
vn 0.5048828 0.8564453 0.107666
vn 0.5048828 0.8564453 0.107666
vn -0.9912109 -0.03915405 0.1282959
vn -0.9912109 -0.03915405 0.1282959
vn -0.9912109 -0.03915405 0.1282959
vn -0.9912109 -0.03915405 0.1282959
vn 0.1237183 0.9921875 -0.01203918
vn 0.1237183 0.9921875 -0.01203918
vn 0.1237183 0.9921875 -0.01203918
vn 0.1237183 0.9921875 -0.01203918
vn -0.2392578 0.9707031 0.01207733
vn -0.2392578 0.9707031 0.01207733
vn -0.2392578 0.9707031 0.01207733
vn -0.2392578 0.9707031 0.01207733
vn -0.956543 0.2313232 0.1765137
vn -0.956543 0.2313232 0.1765137
vn -0.956543 0.2313232 0.1765137
vn -0.956543 0.2313232 0.1765137
vn 0.6137695 0.784668 0.08734131
vn 0.6137695 0.784668 0.08734131
vn 0.6137695 0.784668 0.08734131
vn 0.6137695 0.784668 0.08734131
vn 0.9848633 0.1708984 0.02049255
vn 0.9848633 0.1708984 0.02049255
vn 0.9848633 0.1708984 0.02049255
vn 0.9848633 0.1708984 0.02049255
vn -0.980957 -0.1235352 0.1513672
vn -0.980957 -0.1235352 0.1513672
vn -0.980957 -0.1235352 0.1513672
vn -0.980957 -0.1235352 0.1513672
vn 0.9804688 0.1962891 0.01204681
vn 0.9804688 0.1962891 0.01204681
vn 0.9804688 0.1962891 0.01204681
vn 0.9804688 0.1962891 0.01204681
vn 0 0 -1
vn 0 0 -1
vn 0 0 -1
vn 0 0 -1
vn 0 0 -1
vn 0 0 -1
vn 0 0 -1
vn 0 0 -1
vn 0 0 -1
vn 0 0 -1
vn 0 0 -1
vn 0 0 -1
vn 0 0 -1
vn 0 0 -1
vn 4.172325E-07 0 -1
vn 0.9697266 -0.2420654 0.03256226
vn 0.9697266 -0.2420654 0.03256226
vn 0.9697266 -0.2420654 0.03256226
vn 0.9697266 -0.2420654 0.03256226
vn 0.5927734 -0.8046875 0.03308105
vn 0.5927734 -0.8046875 0.03308105
vn 0.5927734 -0.8046875 0.03308105
vn 0.5927734 -0.8046875 0.03308105
vn 0.6103516 -0.7910156 0.04595947
vn 0.6103516 -0.7910156 0.04595947
vn -0.5585938 -0.8261719 0.07440186
vn -0.5585938 -0.8261719 0.07440186
vn -0.5585938 -0.8261719 0.07440186
vn -0.5585938 -0.8261719 0.07440186
vn -0.9580078 -0.2507324 0.1403809
vn -0.9580078 -0.2507324 0.1403809
vn -0.9580078 -0.2507324 0.1403809
vn -0.9580078 -0.2507324 0.1403809
vn 0.1033325 -0.8759766 0.4714355
vn 0.1033325 -0.8759766 0.4714355
vn 0.1033325 -0.8759766 0.4714355
vn 0.1033325 -0.8759766 0.4714355
g Rock_Moss_7_0
f 3/3/3 2/2/2 1/1/1
f 6/6/6 5/5/5 4/4/4
f 9/9/9 8/8/8 7/7/7
f 12/12/12 11/11/11 10/10/10
f 15/15/15 14/14/14 13/13/13
f 18/18/18 17/17/17 16/16/16
f 21/21/21 20/20/20 19/19/19
f 22/22/22 21/21/21 19/19/19
f 25/25/25 24/24/24 23/23/23
f 26/26/26 25/25/25 23/23/23
f 29/29/29 28/28/28 27/27/27
f 30/30/30 29/29/29 27/27/27
f 33/33/33 32/32/32 31/31/31
f 34/34/34 33/33/33 31/31/31
f 37/37/37 36/36/36 35/35/35
f 38/38/38 37/37/37 35/35/35
f 41/41/41 40/40/40 39/39/39
f 42/42/42 41/41/41 39/39/39
f 45/45/45 44/44/44 43/43/43
f 46/46/46 45/45/45 43/43/43
f 49/49/49 48/48/48 47/47/47
f 47/47/47 50/50/50 49/49/49
f 47/47/47 51/51/51 50/50/50
f 54/54/54 53/53/53 52/52/52
f 55/55/55 54/54/54 52/52/52
f 58/58/58 57/57/57 56/56/56
f 59/59/59 58/58/58 56/56/56
g Rock_Moss_7_1
f 62/62/62 61/61/61 60/60/60
f 65/65/65 64/64/64 63/63/63
f 68/68/68 67/67/67 66/66/66
f 71/71/71 70/70/70 69/69/69
f 69/69/69 72/72/72 71/71/71
f 72/72/72 73/73/73 71/71/71
f 76/76/76 75/75/75 74/74/74
f 77/77/77 76/76/76 74/74/74
f 80/80/80 79/79/79 78/78/78
f 81/81/81 80/80/80 78/78/78
f 84/84/84 83/83/83 82/82/82
f 85/85/85 84/84/84 82/82/82
f 88/88/88 87/87/87 86/86/86
f 89/89/89 88/88/88 86/86/86
f 92/92/92 91/91/91 90/90/90
f 93/93/93 92/92/92 90/90/90
f 96/96/96 95/95/95 94/94/94
f 97/97/97 96/96/96 94/94/94
f 100/100/100 99/99/99 98/98/98
f 101/101/101 100/100/100 98/98/98
f 104/104/104 103/103/103 102/102/102
f 105/105/105 104/104/104 102/102/102
f 108/108/108 107/107/107 106/106/106
f 109/109/109 108/108/108 106/106/106
f 112/112/112 111/111/111 110/110/110
f 113/113/113 112/112/112 110/110/110
f 116/116/116 115/115/115 114/114/114
f 117/117/117 116/116/116 114/114/114
f 120/120/120 119/119/119 118/118/118
f 121/121/121 120/120/120 118/118/118
f 124/124/124 123/123/123 122/122/122
f 125/125/125 124/124/124 122/122/122
f 128/128/128 127/127/127 126/126/126
f 129/129/129 128/128/128 126/126/126
f 132/132/132 131/131/131 130/130/130
f 133/133/133 132/132/132 130/130/130
f 133/133/133 130/130/130 134/134/134
f 135/135/135 133/133/133 134/134/134
f 135/135/135 134/134/134 136/136/136
f 135/135/135 136/136/136 137/137/137
f 135/135/135 137/137/137 138/138/138
f 135/135/135 139/139/139 133/133/133
f 139/139/139 140/140/140 133/133/133
f 141/141/141 139/139/139 135/135/135
f 142/142/142 135/135/135 138/138/138
f 142/142/142 141/141/141 135/135/135
f 138/138/138 143/143/143 142/142/142
f 144/144/144 141/141/141 142/142/142
f 143/143/143 144/144/144 142/142/142
f 147/147/147 146/146/146 145/145/145
f 148/148/148 147/147/147 145/145/145
f 151/151/151 150/150/150 149/149/149
f 150/150/150 152/152/152 149/149/149
f 150/150/150 153/153/153 152/152/152
f 153/153/153 154/154/154 152/152/152
f 157/157/157 156/156/156 155/155/155
f 158/158/158 157/157/157 155/155/155
f 161/161/161 160/160/160 159/159/159
f 162/162/162 161/161/161 159/159/159
f 165/165/165 164/164/164 163/163/163
f 166/166/166 165/165/165 163/163/163
