g Rock_05
v -0.9581769 0.236479 0.009553039
v -0.9273189 0.007287069 -0.423118
v -1.002002 1.154267 0.1151332
v -0.833713 1.094823 -0.5457788
v -0.95914 1.986039 -0.07714868
v -0.726719 1.083152 -0.7672238
v -0.685039 0.04018816 -0.972062
v -0.129209 -0.0008918811 -0.729708
v -0.784159 1.981988 -0.6334837
v -0.671711 1.82588 -0.7917887
v -0.32362 0.6937872 -0.9517709
v -0.814859 2.701165 -0.6368206
v -0.930652 3.701792 -0.1901664
v -0.734237 3.704557 -0.8243844
v -0.8715069 5.528144 -0.2006251
v -0.446502 2.803753 -0.9959095
v -0.103262 2.004945 -0.9835597
v -0.006247 1.210505 -1.019381
v 0.244302 0.7084142 -0.9941949
v 0.788128 1.712411 -0.7916097
v 0.366368 0.08047115 -0.94006
v 0.68679 0.8176581 -0.7134239
v 0.817451 -0.04522488 -0.72181
v 0.852368 0.001366946 0.328026
v 0.934724 0.2576831 -0.3510309
v 0.891219 0.648455 0.2582701
v 0.966215 1.692129 -0.4829427
v 0.892014 1.95321 0.4842113
v 0.707277 2.10118 -0.8559946
v 0.980341 2.630778 -0.4906555
v 0.946242 2.601749 0.5430414
v 0.9351709 3.673499 -0.0488304
v 0.8777589 4.462204 0.6776236
v 0.878679 5.283597 0.4271189
v 0.910991 3.565457 -0.5354344
v 0.222659 3.004083 -0.9435825
v 0.8379629 4.74998 -0.4617452
v 0.572993 3.836312 -0.7927244
v -0.348703 3.668285 -1.017855
v 0.726779 5.477777 -0.3262661
v 0.120835 5.65417 0.6702549
v 0.641259 4.751512 -0.7688482
v -0.556389 5.042577 -0.9265201
v 0.038861 3.997034 -0.9544453
v 0.401853 5.158316 -0.8136911
v -0.165021 5.52296 -0.829545
v -0.689135 5.664632 0.09242892
v 0.443435 5.081772 0.9331788
v 0.878679 5.283597 0.4271189
v 0.8777589 4.462204 0.6776236
v 0.120835 5.65417 0.6702549
v 0.433213 4.07413 0.9786677
v 0.553263 3.686541 0.9700305
v 0.946242 2.601749 0.5430414
v 0.590196 2.797898 0.9657004
v 0.007124 2.543321 1.015156
v 0.892014 1.95321 0.4842113
v -0.132883 3.781092 0.9393175
v 0.527604 2.009804 0.9045523
v -0.113663 4.595972 0.9701207
v -0.641813 4.053885 0.9331306
v 0.016089 5.476134 0.8407798
v -0.559254 4.87399 1.028958
v -0.527573 5.424829 0.8696879
v -0.923739 5.383787 0.2932029
v -0.689135 5.664632 0.09242892
v -0.8715069 5.528144 -0.2006251
v -0.9949279 5.007973 0.5911248
v -0.930652 3.701792 -0.1901664
v -0.972732 3.5548 0.5025676
v -0.95914 1.986039 -0.07714868
v -0.6547629 3.490869 0.9432956
v -0.995858 2.064687 0.5112293
v -1.002002 1.154267 0.1151332
v -0.7217119 2.672741 0.8213894
v -0.751627 1.023705 0.5256432
v -0.9581769 0.236479 0.009553039
v -0.704086 1.899685 0.8726523
v -0.043082 1.851056 0.9274473
v -0.8651519 0.002162924 0.46862
v -0.9273189 0.007287069 -0.423118
v -0.129209 -0.0008918811 -0.729708
v -0.463755 1.464201 0.9348202
v 0.522582 1.156847 0.9717762
v -0.558441 0.07443786 0.8338839
v -0.15822 0.001475844 0.9582589
v 0.852368 0.001366946 0.328026
v 0.06574 0.7796208 0.9337841
v 0.673342 0.9857258 0.8145462
v 0.891219 0.648455 0.2582701
v 0.833544 0.02955887 0.799328
v 0.540388 0.1532609 0.947584
vt 0.1012565 0.04691111
vt 0.07766709 0.1123155
vt 0.2280273 0.01359323
vt 0.2263632 0.1096309
vt 0.3536116 0.03897522
vt 0.2268603 0.1424016
vt 0.1177501 0.172681
vt 0.08636436 0.2237529
vt 0.347893 0.1249645
vt 0.3226976 0.1497478
vt 0.1821952 0.2007204
vt 0.4501058 0.1328194
vt 0.6024616 0.08954963
vt 0.5793366 0.1784829
vt 0.8376414 0.1992568
vt 0.455832 0.2027882
vt 0.3454588 0.2323788
vt 0.2434931 0.2399143
vt 0.1837641 0.2654186
vt 0.294011 0.348329
vt 0.1183043 0.2735218
vt 0.1862349 0.3253533
vt 0.1041768 0.3108789
vt 0.02262267 0.3934744
vt 0.1097452 0.3551415
vt 0.1085245 0.4503865
vt 0.2835701 0.3944703
vt 0.2946686 0.5401655
vt 0.345353 0.3428844
vt 0.4088219 0.4083905
vt 0.3948803 0.5586878
vt 0.5464061 0.469496
vt 0.6716204 0.5586877
vt 0.7889102 0.501773
vt 0.530888 0.405735
vt 0.468709 0.2929901
vt 0.675261 0.4042602
vt 0.5676479 0.3534575
vt 0.5627093 0.2326796
vt 0.7532645 0.3915991
vt 0.9335163 0.4104904
vt 0.6718867 0.3635643
vt 0.7199655 0.2501597
vt 0.5955839 0.2880586
vt 0.713642 0.3399559
vt 0.7571784 0.2956156
vt 0.8889812 0.2365966
vt 0.8404272 0.6770239
vt 0.8963225 0.598703
vt 0.7661389 0.5953945
vt 0.9237688 0.7271883
vt 0.7087265 0.6712921
vt 0.6552228 0.6570019
vt 0.4979991 0.5817673
vt 0.533445 0.6595185
vt 0.5045689 0.742677
vt 0.3979599 0.5928597
vt 0.6731831 0.7491418
vt 0.4207244 0.675061
vt 0.7762154 0.7421653
vt 0.71254 0.8138111
vt 0.8842269 0.7363529
vt 0.8071932 0.7927783
vt 0.8638551 0.7958961
vt 0.8879408 0.8676707
vt 0.9405693 0.8618535
vt 0.9353441 0.9167641
vt 0.8303286 0.8567839
vt 0.6904024 0.9905137
vt 0.6555648 0.8946188
vt 0.4384799 0.9905137
vt 0.6397697 0.8215417
vt 0.4498068 0.9074137
vt 0.3187397 0.9531464
vt 0.5299069 0.8456166
vt 0.3089781 0.8859387
vt 0.1900208 0.9344939
vt 0.4258346 0.8467261
vt 0.4105608 0.7591812
vt 0.196517 0.8760416
vt 0.1257248 0.9566045
vt 0.0211651 0.8809747
vt 0.366159 0.8214121
vt 0.3076941 0.7005446
vt 0.2121171 0.835585
vt 0.1991844 0.7986568
vt 0.124139 0.693872
vt 0.2755422 0.7659512
vt 0.2788869 0.6813259
vt 0.1961003 0.6147774
vt 0.181919 0.7143686
vt 0.2024842 0.7356966
vn -0.7603018 -0.4242217 0.4919117
vn -0.6206449 -0.6206415 -0.4791702
vn -0.7846783 -0.2895288 0.548136
vn -0.700152 0.1399408 -0.7001455
vn -0.7065561 0.04004617 -0.7065229
vn -0.694202 0.1902467 -0.6941828
vn -0.5773575 -0.5773457 -0.5773476
vn 0.006409958 -0.7671179 -0.6414741
vn -0.7040253 0.09343801 -0.7040012
vn -0.5773472 0.5773635 -0.57734
vn -0.6762057 0.2923982 -0.6762021
vn -0.7020959 -0.1188231 -0.7020986
vn -0.7056886 0.06297851 -0.7057175
vn -0.7059736 0.05634697 -0.7059932
vn -0.5773601 0.5773337 -0.5773571
vn -0.6895044 -0.2217964 -0.6894853
vn -0.4847436 -0.06749032 -0.8720485
vn -0.138332 0.1892586 -0.9721345
vn 0.7034149 -0.1022141 -0.7033917
vn 0.7044547 -0.08669111 -0.7044346
vn 0.55908 -0.5862668 -0.586277
vn 0.6917328 -0.2073501 -0.6917454
vn 0.5773513 -0.5773503 -0.5773492
vn 0.6945916 -0.6945819 0.1873459
vn 0.6886585 -0.4038289 -0.6022222
vn 0.7069526 0.02100542 0.7069489
vn 0.6999953 -0.1414638 -0.6999962
vn 0.6952954 -0.1820071 0.6952968
vn 0.7038169 -0.09634918 -0.7038171
vn 0.7065326 0.03995251 -0.7065518
vn 0.6912525 -0.2105053 0.6912724
vn 0.9566563 0.2838976 -0.06489109
vn 0.6886659 0.2268889 0.6886659
vn 0.5773649 0.5773677 0.5773183
vn 0.6737247 0.3035412 -0.673764
vn 0.7011785 0.1293138 -0.7011608
vn 0.6457794 0.4074166 -0.6457404
vn 0.694975 0.1843107 -0.6950104
vn -0.5975906 0.08626115 -0.7971478
vn 0.5773326 0.577372 -0.5773463
vn 0.5334992 0.5980752 0.5980673
vn 0.6630471 0.3474957 -0.6630349
vn -0.5773551 0.5773508 -0.5773448
vn 0.7070511 -0.01381642 -0.7070274
vn 0.5773472 0.5773644 -0.5773391
vn -0.0868081 0.7044369 -0.704438
vn -0.6359556 0.635932 0.4372079
vn 0.5773276 0.5773637 0.5773594
vn 0.5773649 0.5773677 0.5773183
vn 0.6886659 0.2268889 0.6886659
vn 0.5334992 0.5980752 0.5980673
vn 0.6990431 0.150406 0.6990828
vn 0.7057864 0.06076918 0.7058134
vn 0.6912525 -0.2105053 0.6912724
vn 0.7012675 -0.1283674 0.7012458
vn -0.2526132 -0.2661743 0.9302353
vn 0.6952954 -0.1820071 0.6952968
vn -0.1964442 0.02038906 0.980303
vn 0.6983242 -0.1571525 0.6983168
vn 0.228322 0.09886321 0.9685531
vn -0.7009984 -0.1312882 0.7009739
vn 0.4051858 0.6464525 0.64647
vn -0.6686103 0.325442 0.6686163
vn -0.5773718 0.5773447 0.5773344
vn -0.5773643 0.5773354 0.5773511
vn -0.6359556 0.635932 0.4372079
vn -0.5773601 0.5773337 -0.5773571
vn -0.5962432 0.5376222 0.5962017
vn -0.7056886 0.06297851 -0.7057175
vn -0.707007 -0.01533943 0.7070403
vn -0.7065561 0.04004617 -0.7065229
vn -0.7069393 0.02098331 0.7069629
vn -0.7010798 -0.130416 0.7010556
vn -0.7846783 -0.2895288 0.548136
vn -0.7060443 -0.05475748 0.7060476
vn -0.6709585 -0.3155849 0.6709849
vn -0.7603018 -0.4242217 0.4919117
vn -0.6817617 -0.2653855 0.6817415
vn -0.1240503 -0.1666555 0.9781806
vn -0.5773398 -0.5773543 0.5773568
vn -0.6206449 -0.6206415 -0.4791702
vn 0.006409958 -0.7671179 -0.6414741
vn -0.6851127 -0.2475027 0.6851007
vn 0.7036918 0.09836214 0.7036637
vn -0.577361 -0.5773232 0.5773666
vn -0.3337736 -0.6665605 0.6665527
vn 0.6945916 -0.6945819 0.1873459
vn -0.4027765 -0.07124422 0.9125214
vn 0.7045371 0.08519185 0.7045352
vn 0.7069526 0.02100542 0.7069489
vn 0.5773593 -0.577355 0.5773364
vn 0.5773509 -0.5773584 0.5773415
g Rock_05_0
f 3/3/3 2/2/2 1/1/1
f 4/4/4 2/2/2 3/3/3
f 5/5/5 4/4/4 3/3/3
f 2/2/2 4/4/4 6/6/6
f 6/6/6 7/7/7 2/2/2
f 2/2/2 7/7/7 8/8/8
f 9/9/9 4/4/4 5/5/5
f 4/4/4 10/10/10 6/6/6
f 10/10/10 4/4/4 9/9/9
f 11/11/11 7/7/7 6/6/6
f 10/10/10 11/11/11 6/6/6
f 5/5/5 12/12/12 9/9/9
f 12/12/12 5/5/5 13/13/13
f 12/12/12 13/13/13 14/14/14
f 13/13/13 15/15/15 14/14/14
f 16/16/16 9/9/9 12/12/12
f 12/12/12 14/14/14 16/16/16
f 9/9/9 17/17/17 10/10/10
f 9/9/9 16/16/16 17/17/17
f 11/11/11 10/10/10 18/18/18
f 17/17/17 18/18/18 10/10/10
f 19/19/19 7/7/7 11/11/11
f 19/19/19 11/11/11 18/18/18
f 20/20/20 18/18/18 17/17/17
f 19/19/19 18/18/18 20/20/20
f 21/21/21 7/7/7 19/19/19
f 21/21/21 8/8/8 7/7/7
f 19/19/19 22/22/22 21/21/21
f 22/22/22 19/19/19 20/20/20
f 23/23/23 8/8/8 21/21/21
f 23/23/23 21/21/21 22/22/22
f 23/23/23 24/24/24 8/8/8
f 23/23/23 25/25/25 24/24/24
f 23/23/23 22/22/22 25/25/25
f 25/25/25 26/26/26 24/24/24
f 25/25/25 22/22/22 27/27/27
f 26/26/26 25/25/25 27/27/27
f 27/27/27 22/22/22 20/20/20
f 26/26/26 27/27/27 28/28/28
f 20/20/20 17/17/17 29/29/29
f 20/20/20 29/29/29 27/27/27
f 30/30/30 28/28/28 27/27/27
f 27/27/27 29/29/29 30/30/30
f 31/31/31 28/28/28 30/30/30
f 31/31/31 30/30/30 32/32/32
f 32/32/32 33/33/33 31/31/31
f 34/34/34 33/33/33 32/32/32
f 35/35/35 32/32/32 30/30/30
f 29/29/29 35/35/35 30/30/30
f 29/29/29 17/17/17 36/36/36
f 17/17/17 16/16/16 36/36/36
f 32/32/32 37/37/37 34/34/34
f 32/32/32 35/35/35 37/37/37
f 29/29/29 38/38/38 35/35/35
f 38/38/38 29/29/29 36/36/36
f 37/37/37 35/35/35 38/38/38
f 16/16/16 39/39/39 36/36/36
f 38/38/38 36/36/36 39/39/39
f 39/39/39 16/16/16 14/14/14
f 40/40/40 34/34/34 37/37/37
f 34/34/34 40/40/40 41/41/41
f 38/38/38 42/42/42 37/37/37
f 42/42/42 40/40/40 37/37/37
f 14/14/14 43/43/43 39/39/39
f 14/14/14 15/15/15 43/43/43
f 39/39/39 44/44/44 38/38/38
f 44/44/44 42/42/42 38/38/38
f 44/44/44 39/39/39 43/43/43
f 44/44/44 45/45/45 42/42/42
f 45/45/45 40/40/40 42/42/42
f 44/44/44 43/43/43 45/45/45
f 40/40/40 46/46/46 41/41/41
f 46/46/46 40/40/40 45/45/45
f 45/45/45 43/43/43 46/46/46
f 15/15/15 46/46/46 43/43/43
f 41/41/41 46/46/46 47/47/47
f 46/46/46 15/15/15 47/47/47
f 50/50/50 49/49/49 48/48/48
f 51/51/51 48/48/48 49/49/49
f 52/52/52 50/50/50 48/48/48
f 52/52/52 53/53/53 50/50/50
f 50/50/50 53/53/53 54/54/54
f 53/53/53 55/55/55 54/54/54
f 56/56/56 55/55/55 53/53/53
f 57/57/57 54/54/54 55/55/55
f 53/53/53 52/52/52 58/58/58
f 53/53/53 58/58/58 56/56/56
f 56/56/56 59/59/59 55/55/55
f 55/55/55 59/59/59 57/57/57
f 60/60/60 52/52/52 48/48/48
f 61/61/61 58/58/58 52/52/52
f 61/61/61 52/52/52 60/60/60
f 62/62/62 60/60/60 48/48/48
f 62/62/62 48/48/48 51/51/51
f 60/60/60 62/62/62 63/63/63
f 61/61/61 60/60/60 63/63/63
f 62/62/62 51/51/51 64/64/64
f 62/62/62 64/64/64 63/63/63
f 51/51/51 65/65/65 64/64/64
f 66/66/66 65/65/65 51/51/51
f 66/66/66 67/67/67 65/65/65
f 68/68/68 63/63/63 64/64/64
f 64/64/64 65/65/65 68/68/68
f 67/67/67 68/68/68 65/65/65
f 68/68/68 61/61/61 63/63/63
f 67/67/67 69/69/69 68/68/68
f 70/70/70 68/68/68 69/69/69
f 61/61/61 68/68/68 70/70/70
f 70/70/70 69/69/69 71/71/71
f 61/61/61 72/72/72 58/58/58
f 72/72/72 61/61/61 70/70/70
f 58/58/58 72/72/72 56/56/56
f 71/71/71 73/73/73 70/70/70
f 74/74/74 73/73/73 71/71/71
f 72/72/72 70/70/70 75/75/75
f 75/75/75 56/56/56 72/72/72
f 73/73/73 75/75/75 70/70/70
f 76/76/76 73/73/73 74/74/74
f 76/76/76 74/74/74 77/77/77
f 78/78/78 75/75/75 73/73/73
f 56/56/56 75/75/75 78/78/78
f 76/76/76 78/78/78 73/73/73
f 79/79/79 56/56/56 78/78/78
f 56/56/56 79/79/79 59/59/59
f 77/77/77 80/80/80 76/76/76
f 81/81/81 80/80/80 77/77/77
f 82/82/82 80/80/80 81/81/81
f 78/78/78 76/76/76 83/83/83
f 83/83/83 79/79/79 78/78/78
f 59/59/59 79/79/79 84/84/84
f 84/84/84 57/57/57 59/59/59
f 80/80/80 85/85/85 76/76/76
f 76/76/76 85/85/85 83/83/83
f 82/82/82 86/86/86 80/80/80
f 86/86/86 85/85/85 80/80/80
f 87/87/87 86/86/86 82/82/82
f 83/83/83 88/88/88 79/79/79
f 83/83/83 85/85/85 88/88/88
f 79/79/79 88/88/88 84/84/84
f 85/85/85 86/86/86 88/88/88
f 89/89/89 57/57/57 84/84/84
f 57/57/57 89/89/89 90/90/90
f 91/91/91 87/87/87 90/90/90
f 86/86/86 87/87/87 91/91/91
f 90/90/90 89/89/89 91/91/91
f 92/92/92 84/84/84 88/88/88
f 86/86/86 92/92/92 88/88/88
f 86/86/86 91/91/91 92/92/92
f 84/84/84 92/92/92 89/89/89
f 91/91/91 89/89/89 92/92/92
