g Rock_03_lod
v 0.1194582 2.547761 -0.2564313
v -0.484488 2.542033 0.1401317
v -0.5297944 2.016679 -0.8131341
v 0.1194582 2.547761 -0.2564313
v -0.2227986 2.341908 0.7447342
v -0.484488 2.542033 0.1401317
v 0.5640063 2.434988 0.2079191
v 0.2273293 1.921768 0.9171023
v 0.7641189 2.052752 0.5130789
v 0.9478085 2.133559 -0.3462996
v 0.9242227 0.7457231 0.8270181
v 1.10458 0.1859878 0.06305242
v 0.8562853 0.4577776 -0.8547484
v -0.5937101 1.011234 -1.003429
v -1.019018 0.427231 -0.5409882
v -0.06820655 0.3046386 -1.064048
v 0.8562853 0.4577776 -0.8547484
v 0.6528399 1.911934 -0.7734688
v -0.5297944 2.016679 -0.8131341
v 0.9478085 2.133559 -0.3462996
v 0.1194582 2.547761 -0.2564313
v -0.5297944 2.016679 -0.8131341
v -1.019018 0.427231 -0.5409882
v -0.5937101 1.011234 -1.003429
v -1.041434 1.558803 0.2932487
v -0.484488 2.542033 0.1401317
v -0.2227986 2.341908 0.7447342
v -0.8138403 1.141917 0.9638913
v -1.160606 0.4235492 0.3606241
v -0.7462568 0.272729 0.9149128
v -0.8705922 0.03212261 0.146944
v 0.5552006 0.06088011 0.7351447
v -0.8705922 0.03212261 0.146944
v -0.7462568 0.272729 0.9149128
v 0.222967 0.04874691 -0.6855772
v 1.10458 0.1859878 0.06305242
v 0.8562853 0.4577776 -0.8547484
v -0.06820655 0.3046386 -1.064048
v -1.019018 0.427231 -0.5409882
v -1.160606 0.4235492 0.3606241
v 0.9242227 0.7457231 0.8270181
v 0.2273293 1.921768 0.9171023
v 0.7641189 2.052752 0.5130789
v 0.226378 0.4546894 1.071214
v -0.8138403 1.141917 0.9638913
v -0.2227986 2.341908 0.7447342
v -0.7462568 0.272729 0.9149128
v 0.5552006 0.06088011 0.7351447
v 1.10458 0.1859878 0.06305242
vt 0.09102239 0.01214643
vt 0.02956073 0.02428847
vt 0.04615504 0.1700262
vt 0.9130947 0.9019362
vt 0.7380478 0.9056108
vt 0.831875 0.9896469
vt 0.8630903 0.7961284
vt 0.7327358 0.7797045
vt 0.8299519 0.699564
vt 0.9701179 0.7324998
vt 0.7641678 0.55569
vt 0.9011977 0.5243036
vt 0.9945933 0.5780157
vt 0.07071826 0.3707468
vt 0.0160397 0.4905565
vt 0.1917858 0.4911811
vt 0.3418588 0.4028288
vt 0.2536754 0.1256074
vt 0.04615504 0.1700262
vt 0.2798816 0.06552032
vt 0.1759143 0.006271074
vt 0.7271363 0.2014724
vt 0.6098387 0.4967428
vt 0.7271363 0.4129494
vt 0.5616702 0.2332739
vt 0.6544806 0.03708291
vt 0.5351628 0.0103523
vt 0.4218681 0.2483332
vt 0.4728709 0.4416163
vt 0.3833844 0.4209091
vt 0.4561355 0.5031786
vt 0.7188592 0.675773
vt 0.5648116 0.9366357
vt 0.6924168 0.9418403
vt 0.4778783 0.6802934
vt 0.6296371 0.5376523
vt 0.4587531 0.5438869
vt 0.3856569 0.714089
vt 0.4355463 0.9302406
vt 0.5606836 0.9937289
vt 0.02867671 0.8258353
vt 0.1695139 0.5925132
vt 0.07265654 0.6138961
vt 0.1492922 0.8878626
vt 0.3397241 0.7666665
vt 0.2563642 0.5173649
vt 0.3189186 0.9476666
vt 0.0889961 0.9676492
vt 0.005406688 0.9724686
vn 0.07825147 0.9438091 -0.3210935
vn -0.4882122 0.8694554 0.07547345
vn -0.4735646 0.4937987 -0.7293144
vn 0.07825147 0.9438091 -0.3210935
vn -0.1969991 0.7023302 0.6840494
vn -0.4882122 0.8694554 0.07547345
vn 0.4416168 0.8616564 0.250046
vn 0.2291665 0.368699 0.9008573
vn 0.7157649 0.4555894 0.5292626
vn 0.8078811 0.5232565 -0.2711656
vn 0.749784 -0.04632742 0.6600589
vn 0.8177412 -0.5755379 0.007446773
vn 0.6354788 -0.3029069 -0.7102213
vn -0.420345 0.05887211 -0.9054524
vn -0.7853897 -0.3803344 -0.4883736
vn -0.08139479 -0.4565372 -0.8859733
vn 0.6354788 -0.3029069 -0.7102213
vn 0.4044367 0.3817306 -0.8310913
vn -0.4735646 0.4937987 -0.7293144
vn 0.8078811 0.5232565 -0.2711656
vn 0.07825147 0.9438091 -0.3210935
vn -0.4735646 0.4937987 -0.7293144
vn -0.7853897 -0.3803344 -0.4883736
vn -0.420345 0.05887211 -0.9054524
vn -0.9339429 0.3357397 0.1225949
vn -0.4882122 0.8694554 0.07547345
vn -0.1969991 0.7023302 0.6840494
vn -0.5656378 0.1502142 0.8108574
vn -0.9438384 -0.2712856 0.188609
vn -0.4306298 -0.5405304 0.7227621
vn -0.4631603 -0.8862489 -0.006744756
vn 0.3208485 -0.8084233 0.4934652
vn -0.4631603 -0.8862489 -0.006744756
vn -0.4306298 -0.5405304 0.7227621
vn 0.0934194 -0.9227186 -0.3739827
vn 0.8177412 -0.5755379 0.007446773
vn 0.6354788 -0.3029069 -0.7102213
vn -0.08139479 -0.4565372 -0.8859733
vn -0.7853897 -0.3803344 -0.4883736
vn -0.9438384 -0.2712856 0.188609
vn 0.749784 -0.04632742 0.6600589
vn 0.2291665 0.368699 0.9008573
vn 0.7157649 0.4555894 0.5292626
vn 0.1267156 -0.2667376 0.9554026
vn -0.5656378 0.1502142 0.8108574
vn -0.1969991 0.7023302 0.6840494
vn -0.4306298 -0.5405304 0.7227621
vn 0.3208485 -0.8084233 0.4934652
vn 0.8177412 -0.5755379 0.007446773
g Rock_03_lod_0
f 3/3/3 2/2/2 1/1/1
f 6/6/6 5/5/5 4/4/4
f 7/7/7 4/4/4 5/5/5
f 5/5/5 8/8/8 7/7/7
f 9/9/9 7/7/7 8/8/8
f 4/4/4 7/7/7 10/10/10
f 9/9/9 10/10/10 7/7/7
f 11/11/11 10/10/10 9/9/9
f 10/10/10 11/11/11 12/12/12
f 13/13/13 10/10/10 12/12/12
f 16/16/16 15/15/15 14/14/14
f 14/14/14 17/17/17 16/16/16
f 17/17/17 14/14/14 18/18/18
f 19/19/19 18/18/18 14/14/14
f 18/18/18 20/20/20 17/17/17
f 19/19/19 21/21/21 18/18/18
f 20/20/20 18/18/18 21/21/21
f 24/24/24 23/23/23 22/22/22
f 23/23/23 25/25/25 22/22/22
f 26/26/26 22/22/22 25/25/25
f 25/25/25 27/27/27 26/26/26
f 28/28/28 27/27/27 25/25/25
f 23/23/23 29/29/29 25/25/25
f 25/25/25 29/29/29 28/28/28
f 30/30/30 28/28/28 29/29/29
f 30/30/30 29/29/29 31/31/31
f 34/34/34 33/33/33 32/32/32
f 35/35/35 32/32/32 33/33/33
f 36/36/36 32/32/32 35/35/35
f 35/35/35 37/37/37 36/36/36
f 37/37/37 35/35/35 38/38/38
f 39/39/39 38/38/38 35/35/35
f 33/33/33 39/39/39 35/35/35
f 39/39/39 33/33/33 40/40/40
f 43/43/43 42/42/42 41/41/41
f 44/44/44 41/41/41 42/42/42
f 44/44/44 42/42/42 45/45/45
f 46/46/46 45/45/45 42/42/42
f 44/44/44 45/45/45 47/47/47
f 47/47/47 48/48/48 44/44/44
f 41/41/41 44/44/44 48/48/48
f 48/48/48 49/49/49 41/41/41
