g Rock_2
v 0.04175957 0.05134938 0.2270685
v -0.0434701 0.07837827 0.262257
v -0.06289897 0.1028444 0.2361024
v 0.02541484 -0.07978974 0.2216335
v 0.03082514 -0.07978974 0.2707616
v 0.04175957 0.05134938 0.2270685
v 0.1236067 0.1236067 -0.0223948
v 0.1388001 0.1236067 -0.001022422
v 0.1236067 0.1442965 -0.001022422
v 0.1120221 0.1292557 0.0588017
v 0.1272154 0.1085659 0.0588017
v 0.1120221 0.1085659 0.0588017
v 0.1073788 -0.1035807 -0.0223948
v 0.1073788 -0.1181921 -0.001022422
v 0.1225721 -0.1035807 -0.001022422
v 0.1113075 -0.08981992 0.02759887
v 0.0961141 -0.1044312 0.02759887
v 0.08736751 -0.08400529 0.0384955
v 0.005196906 0.08579146 0.1854741
v 0.1004374 0.093525 0.1186258
v 0.09250525 0.08322636 0.159588
v 0.04175957 0.05134938 0.2270685
v -6.041704E-09 -0.1382181 -0.001022422
v -0.1081419 -0.0952602 -0.001022422
v -0.1081419 -0.0952602 0.07364243
v -0.003520209 -0.1218971 0.07364243
v 0.1120221 0.1085659 0.0588017
v 0.08736751 -0.08400529 0.0384955
v 0.07631921 -0.04341248 0.1523535
v 0.09250525 0.08322636 0.159588
v 0.1004374 0.093525 0.1186258
v -0.003520209 -0.1072858 0.09105957
v -0.1081419 -0.08064888 0.09105957
v -0.07285569 -0.08064889 0.2307358
v 0.02541484 -0.07978974 0.2216335
v 5.403022E-09 0.1236067 -0.04547966
v -0.1418861 0.1236067 -0.0223948
v -0.1081419 -0.08064888 -0.0223948
v -5.403022E-09 -0.1236067 -0.04547966
v -0.07285569 -0.08064889 0.2307358
v -0.04006954 -0.06776154 0.2773282
v 0.03082514 -0.07978974 0.2707616
v 0.02541484 -0.07978974 0.2216335
v 0.07631921 -0.04341248 0.1523535
v 0.02541484 -0.07978974 0.2216335
v 0.04175957 0.05134938 0.2270685
v 0.09250525 0.08322636 0.159588
v 0.1236067 0.1236067 -0.0223948
v 5.403022E-09 0.1236067 -0.04547966
v -5.403022E-09 -0.1236067 -0.04547966
v 0.1073788 -0.1035807 -0.0223948
v -0.06289897 0.1028444 0.2361024
v -0.07285569 -0.08064889 0.2307358
v -0.1081419 -0.08064888 0.09105957
v -0.1258086 0.1158732 0.09339207
v -0.1097311 0.1081397 0.1878066
v -0.1097311 0.1081397 0.1878066
v 0.005196906 0.08579146 0.1854741
v 0.04175957 0.05134938 0.2270685
v -0.06289897 0.1028444 0.2361024
v 0.03082514 -0.07978974 0.2707616
v -0.04006954 -0.06776154 0.2773282
v -0.0434701 0.07837827 0.262257
v 0.04175957 0.05134938 0.2270685
v -0.06289897 0.1028444 0.2361024
v -0.0434701 0.07837827 0.262257
v -0.04006954 -0.06776154 0.2773282
v -0.07285569 -0.08064889 0.2307358
v -0.1097311 0.1081397 0.1878066
v -0.09602623 0.1320473 0.1775367
v 0.005196907 0.1064813 0.1673805
v 0.005196906 0.08579146 0.1854741
v -0.003520209 -0.1072858 0.09105957
v -0.003520209 -0.1218971 0.07364243
v -0.1081419 -0.0952602 0.07364243
v -0.1081419 -0.08064888 0.09105957
v 0.1073788 -0.1181921 -0.001022422
v -6.041704E-09 -0.1382181 -0.001022422
v -0.003520209 -0.1218971 0.07364243
v 0.0961141 -0.1044312 0.02759887
v -0.1258086 0.136563 0.09339207
v 0.002598457 0.1253889 0.09222583
v 0.005196907 0.1064813 0.1673805
v -0.09602623 0.1320473 0.1775367
v 0.002598457 0.1253889 0.09222583
v 0.1120221 0.1292557 0.0588017
v 0.0843167 0.1162183 0.1117792
v 0.005196907 0.1064813 0.1673805
v 0.1236067 0.1236067 -0.0223948
v 0.1236067 0.1442965 -0.001022422
v 6.307402E-09 0.1442965 -0.001022422
v 5.403022E-09 0.1236067 -0.04547966
v 0.005196906 0.08579146 0.1854741
v 0.005196907 0.1064813 0.1673805
v 0.0843167 0.1162183 0.1117792
v 0.1004374 0.093525 0.1186258
v -0.1258086 0.1158732 0.09339207
v -0.1258086 0.136563 0.09339207
v -0.09602623 0.1320473 0.1775367
v -0.1097311 0.1081397 0.1878066
v 5.403022E-09 0.1236067 -0.04547966
v 6.307402E-09 0.1442965 -0.001022422
v -0.1418861 0.1442965 -0.001022422
v -0.1418861 0.1236067 -0.0223948
v -0.1418861 0.1236067 -0.0223948
v -0.1418861 0.1442965 -0.001022422
v -0.1258086 0.136563 0.09339207
v -0.1258086 0.1158732 0.09339207
v 6.307402E-09 0.1442965 -0.001022422
v 0.1236067 0.1442965 -0.001022422
v 0.1120221 0.1292557 0.0588017
v 0.002598457 0.1253889 0.09222583
v -0.1418861 0.1442965 -0.001022422
v 6.307402E-09 0.1442965 -0.001022422
v 0.002598457 0.1253889 0.09222583
v -0.1258086 0.136563 0.09339207
v 0.1004374 0.093525 0.1186258
v 0.0843167 0.1162183 0.1117792
v 0.1120221 0.1292557 0.0588017
v 0.1120221 0.1085659 0.0588017
v 0.08736751 -0.08400529 0.0384955
v 0.0961141 -0.1044312 0.02759887
v -0.003520209 -0.1218971 0.07364243
v -0.003520209 -0.1072858 0.09105957
v -0.1081419 -0.08064888 -0.0223948
v -0.1418861 0.1236067 -0.0223948
v -0.1258086 0.1158732 0.09339207
v -0.1081419 -0.08064888 0.09105957
v 0.1388001 0.1236067 -0.001022422
v 0.1225721 -0.1035807 -0.001022422
v 0.1113075 -0.08981992 0.02759887
v 0.1272154 0.1085659 0.0588017
v -0.1081419 -0.08064888 -0.0223948
v -0.1081419 -0.0952602 -0.001022422
v -6.041704E-09 -0.1382181 -0.001022422
v -5.403022E-09 -0.1236067 -0.04547966
v 0.1073788 -0.1035807 -0.0223948
v 0.1225721 -0.1035807 -0.001022422
v 0.1388001 0.1236067 -0.001022422
v 0.1236067 0.1236067 -0.0223948
v 0.1120221 0.1085659 0.0588017
v 0.1272154 0.1085659 0.0588017
v 0.1113075 -0.08981992 0.02759887
v 0.08736751 -0.08400529 0.0384955
v 0.08736751 -0.08400529 0.0384955
v -0.003520209 -0.1072858 0.09105957
v 0.02541484 -0.07978974 0.2216335
v 0.07631921 -0.04341248 0.1523535
v -0.1081419 -0.08064888 0.09105957
v -0.1081419 -0.0952602 0.07364243
v -0.1081419 -0.0952602 -0.001022422
v -0.1081419 -0.08064888 -0.0223948
v -5.403022E-09 -0.1236067 -0.04547966
v -6.041704E-09 -0.1382181 -0.001022422
v 0.1073788 -0.1181921 -0.001022422
v 0.1073788 -0.1035807 -0.0223948
v 0.0961141 -0.1044312 0.02759887
v 0.1113075 -0.08981992 0.02759887
v 0.1225721 -0.1035807 -0.001022422
v 0.1073788 -0.1181921 -0.001022422
v 0.1236067 0.1442965 -0.001022422
v 0.1388001 0.1236067 -0.001022422
v 0.1272154 0.1085659 0.0588017
v 0.1120221 0.1292557 0.0588017
vn 0.4287109 0.7963867 0.4265137
vn 0.4287109 0.7963867 0.4265137
vn 0.4287109 0.7963867 0.4265137
vn 0.9868164 -0.1185303 -0.1087036
vn 0.9868164 -0.1185303 -0.1087036
vn 0.9868164 -0.1185303 -0.1087036
vn 0.6992188 0.5136719 -0.4970703
vn 0.6992188 0.5136719 -0.4970703
vn 0.6992188 0.5136719 -0.4970703
vn 0 0 1
vn 0 0 1
vn 0 0 1
vn 0.621582 -0.6464844 -0.4418945
vn 0.621582 -0.6464844 -0.4418945
vn 0.621582 -0.6464844 -0.4418945
vn 0.3217773 -0.3347168 0.8857422
vn 0.3217773 -0.3347168 0.8857422
vn 0.3217773 -0.3347168 0.8857422
vn 0.1534424 0.8901367 0.4291992
vn 0.1534424 0.8901367 0.4291992
vn 0.1534424 0.8901367 0.4291992
vn 0.1534424 0.8901367 0.4291992
vn -0.3095703 -0.9462891 0.09613037
vn -0.3095703 -0.9462891 0.09613037
vn -0.3095703 -0.9462891 0.09613037
vn -0.3095703 -0.9462891 0.09613037
vn 0.9790039 -0.1381836 0.149292
vn 0.9790039 -0.1381836 0.149292
vn 0.9790039 -0.1381836 0.149292
vn 0.9790039 -0.1381836 0.149292
vn 0.9790039 -0.1381836 0.149292
vn -0.1193237 -0.984375 0.12854
vn -0.1193237 -0.984375 0.12854
vn -0.1193237 -0.984375 0.12854
vn -0.1193237 -0.984375 0.12854
vn -0.1838379 -0.01374054 -0.9829102
vn -0.1838379 -0.01374054 -0.9829102
vn -0.1838379 -0.01374054 -0.9829102
vn -0.1838379 -0.01374054 -0.9829102
vn -0.05096436 -0.9868164 0.1531982
vn -0.05096436 -0.9868164 0.1531982
vn -0.05096436 -0.9868164 0.1531982
vn -0.05096436 -0.9868164 0.1531982
vn 0.8256836 -0.1312256 0.5483398
vn 0.8256836 -0.1312256 0.5483398
vn 0.8256836 -0.1312256 0.5483398
vn 0.8256836 -0.1312256 0.5483398
vn 0.1965332 -0.006725311 -0.9804688
vn 0.1965332 -0.006725311 -0.9804688
vn 0.1965332 -0.006725311 -0.9804688
vn 0.1965332 -0.006725311 -0.9804688
vn -0.9428711 -0.08953857 0.3210449
vn -0.9428711 -0.08953857 0.3210449
vn -0.9428711 -0.08953857 0.3210449
vn -0.9428711 -0.08953857 0.3210449
vn -0.9428711 -0.08953857 0.3210449
vn 0.3220215 0.9394531 0.1166382
vn 0.3220215 0.9394531 0.1166382
vn 0.3220215 0.9394531 0.1166382
vn 0.3220215 0.9394531 0.1166382
vn 0.2978516 0.1901855 0.9355469
vn 0.2978516 0.1901855 0.9355469
vn 0.2978516 0.1901855 0.9355469
vn 0.2978516 0.1901855 0.9355469
vn -0.8095703 0.03335571 0.5864258
vn -0.8095703 0.03335571 0.5864258
vn -0.8095703 0.03335571 0.5864258
vn -0.8095703 0.03335571 0.5864258
vn 0.1590576 0.4946289 0.8544922
vn 0.1590576 0.4946289 0.8544922
vn 0.1590576 0.4946289 0.8544922
vn 0.1590576 0.4946289 0.8544922
vn -0.1914063 -0.7519531 0.6308594
vn -0.1914063 -0.7519531 0.6308594
vn -0.1914063 -0.7519531 0.6308594
vn -0.1914063 -0.7519531 0.6308594
vn 0.2346191 -0.9238281 0.3027344
vn 0.2346191 -0.9238281 0.3027344
vn 0.2346191 -0.9238281 0.3027344
vn 0.2346191 -0.9238281 0.3027344
vn 0.1623535 0.9804688 0.111145
vn 0.1623535 0.9804688 0.111145
vn 0.1623535 0.9804688 0.111145
vn 0.1623535 0.9804688 0.111145
vn 0.04855347 0.9667969 0.2504883
vn 0.04855347 0.9667969 0.2504883
vn 0.04855347 0.9667969 0.2504883
vn 0.04855347 0.9667969 0.2504883
vn 0.04962158 0.8457031 -0.5317383
vn 0.04962158 0.8457031 -0.5317383
vn 0.04962158 0.8457031 -0.5317383
vn 0.04962158 0.8457031 -0.5317383
vn 0.4355469 0.5649414 0.7006836
vn 0.4355469 0.5649414 0.7006836
vn 0.4355469 0.5649414 0.7006836
vn 0.4355469 0.5649414 0.7006836
vn -0.9057617 0.3374023 0.2558594
vn -0.9057617 0.3374023 0.2558594
vn -0.9057617 0.3374023 0.2558594
vn -0.9057617 0.3374023 0.2558594
vn -0.04324341 0.8457031 -0.5317383
vn -0.04324341 0.8457031 -0.5317383
vn -0.04324341 0.8457031 -0.5317383
vn -0.04324341 0.8457031 -0.5317383
vn -0.9863281 -0.07507324 0.1453857
vn -0.9863281 -0.07507324 0.1453857
vn -0.9863281 -0.07507324 0.1453857
vn -0.9863281 -0.07507324 0.1453857
vn 0.0149765 0.9760742 0.2172852
vn 0.0149765 0.9760742 0.2172852
vn 0.0149765 0.9760742 0.2172852
vn 0.0149765 0.9760742 0.2172852
vn 0.04150391 0.9897461 0.1363525
vn 0.04150391 0.9897461 0.1363525
vn 0.04150391 0.9897461 0.1363525
vn 0.04150391 0.9897461 0.1363525
vn 0.8427734 0.3742676 0.3867188
vn 0.8427734 0.3742676 0.3867188
vn 0.8427734 0.3742676 0.3867188
vn 0.8427734 0.3742676 0.3867188
vn 0.4824219 -0.4746094 0.7363281
vn 0.4824219 -0.4746094 0.7363281
vn 0.4824219 -0.4746094 0.7363281
vn 0.4824219 -0.4746094 0.7363281
vn -0.9897461 -0.1273193 0.06512451
vn -0.9897461 -0.1273193 0.06512451
vn -0.9897461 -0.1273193 0.06512451
vn -0.9897461 -0.1273193 0.06512451
vn 0.9643555 -0.09100342 0.2478027
vn 0.9643555 -0.09100342 0.2478027
vn 0.9643555 -0.09100342 0.2478027
vn 0.9643555 -0.09100342 0.2478027
vn -0.3764648 -0.8466797 -0.3759766
vn -0.3764648 -0.8466797 -0.3759766
vn -0.3764648 -0.8466797 -0.3759766
vn -0.3764648 -0.8466797 -0.3759766
vn 0.8134766 -0.05810547 -0.5786133
vn 0.8134766 -0.05810547 -0.5786133
vn 0.8134766 -0.05810547 -0.5786133
vn 0.8134766 -0.05810547 -0.5786133
vn 0.2441406 -0.1514893 0.9580078
vn 0.2441406 -0.1514893 0.9580078
vn 0.2441406 -0.1514893 0.9580078
vn 0.2441406 -0.1514893 0.9580078
vn 0.5175781 -0.8334961 0.1942139
vn 0.5175781 -0.8334961 0.1942139
vn 0.5175781 -0.8334961 0.1942139
vn 0.5175781 -0.8334961 0.1942139
vn -1 0 0
vn -1 0 0
vn -1 0 0
vn -1 0 0
vn 0.2093506 -0.8935547 -0.3967285
vn 0.2093506 -0.8935547 -0.3967285
vn 0.2093506 -0.8935547 -0.3967285
vn 0.2093506 -0.8935547 -0.3967285
vn 0.5893555 -0.612793 0.5263672
vn 0.5893555 -0.612793 0.5263672
vn 0.5893555 -0.612793 0.5263672
vn 0.5893555 -0.612793 0.5263672
vn 0.7709961 0.565918 0.291748
vn 0.7709961 0.565918 0.291748
vn 0.7709961 0.565918 0.291748
vn 0.7709961 0.565918 0.291748
g Rock_2_0
f 3/3/3 2/2/2 1/1/1
f 6/6/6 5/5/5 4/4/4
f 9/9/9 8/8/8 7/7/7
f 12/12/12 11/11/11 10/10/10
f 15/15/15 14/14/14 13/13/13
f 18/18/18 17/17/17 16/16/16
f 21/21/21 20/20/20 19/19/19
f 22/22/22 21/21/21 19/19/19
f 25/25/25 24/24/24 23/23/23
f 26/26/26 25/25/25 23/23/23
f 29/29/29 28/28/28 27/27/27
f 27/27/27 30/30/30 29/29/29
f 27/27/27 31/31/31 30/30/30
f 34/34/34 33/33/33 32/32/32
f 35/35/35 34/34/34 32/32/32
f 38/38/38 37/37/37 36/36/36
f 39/39/39 38/38/38 36/36/36
f 42/42/42 41/41/41 40/40/40
f 43/43/43 42/42/42 40/40/40
f 46/46/46 45/45/45 44/44/44
f 47/47/47 46/46/46 44/44/44
f 50/50/50 49/49/49 48/48/48
f 51/51/51 50/50/50 48/48/48
f 54/54/54 53/53/53 52/52/52
f 52/52/52 55/55/55 54/54/54
f 52/52/52 56/56/56 55/55/55
f 59/59/59 58/58/58 57/57/57
f 60/60/60 59/59/59 57/57/57
f 63/63/63 62/62/62 61/61/61
f 64/64/64 63/63/63 61/61/61
f 67/67/67 66/66/66 65/65/65
f 68/68/68 67/67/67 65/65/65
f 71/71/71 70/70/70 69/69/69
f 72/72/72 71/71/71 69/69/69
f 75/75/75 74/74/74 73/73/73
f 76/76/76 75/75/75 73/73/73
f 79/79/79 78/78/78 77/77/77
f 80/80/80 79/79/79 77/77/77
f 83/83/83 82/82/82 81/81/81
f 84/84/84 83/83/83 81/81/81
f 87/87/87 86/86/86 85/85/85
f 88/88/88 87/87/87 85/85/85
f 91/91/91 90/90/90 89/89/89
f 92/92/92 91/91/91 89/89/89
f 95/95/95 94/94/94 93/93/93
f 96/96/96 95/95/95 93/93/93
f 99/99/99 98/98/98 97/97/97
f 100/100/100 99/99/99 97/97/97
f 103/103/103 102/102/102 101/101/101
f 104/104/104 103/103/103 101/101/101
f 107/107/107 106/106/106 105/105/105
f 108/108/108 107/107/107 105/105/105
f 111/111/111 110/110/110 109/109/109
f 112/112/112 111/111/111 109/109/109
f 115/115/115 114/114/114 113/113/113
f 116/116/116 115/115/115 113/113/113
f 119/119/119 118/118/118 117/117/117
f 120/120/120 119/119/119 117/117/117
f 123/123/123 122/122/122 121/121/121
f 124/124/124 123/123/123 121/121/121
f 127/127/127 126/126/126 125/125/125
f 128/128/128 127/127/127 125/125/125
f 131/131/131 130/130/130 129/129/129
f 132/132/132 131/131/131 129/129/129
f 135/135/135 134/134/134 133/133/133
f 136/136/136 135/135/135 133/133/133
f 139/139/139 138/138/138 137/137/137
f 140/140/140 139/139/139 137/137/137
f 143/143/143 142/142/142 141/141/141
f 144/144/144 143/143/143 141/141/141
f 147/147/147 146/146/146 145/145/145
f 148/148/148 147/147/147 145/145/145
f 151/151/151 150/150/150 149/149/149
f 152/152/152 151/151/151 149/149/149
f 155/155/155 154/154/154 153/153/153
f 156/156/156 155/155/155 153/153/153
f 159/159/159 158/158/158 157/157/157
f 160/160/160 159/159/159 157/157/157
f 163/163/163 162/162/162 161/161/161
f 164/164/164 163/163/163 161/161/161
