g Rock11
v 0.002672075 0.006707325 -0.0008572013
v 0.005974689 0.002547073 0.003575746
v 0.001935028 0.004798339 0.005142103
v 0.002672075 0.006707325 -0.0008572013
v 0.006701696 0.001074101 -0.002630393
v 0.005974689 0.002547073 0.003575746
v 0.002672075 0.006707325 -0.0008572013
v 0.001116487 0.005324445 -0.0049449
v 0.006701696 0.001074101 -0.002630393
v 0.0008902594 0.0007201458 0.006997761
v 0.001935028 0.004798339 0.005142103
v 0.005974689 0.002547073 0.003575746
v 0.005974689 0.002547073 0.003575746
v 0.006377166 -0.003420067 0.001652229
v 0.004386359 -0.003531078 0.004672657
v 0.0008902594 0.0007201458 0.006997761
v 0.005974689 0.002547073 0.003575746
v 0.004386359 -0.003531078 0.004672657
v 0.006377166 -0.003420067 0.001652229
v 0.006701696 0.001074101 -0.002630393
v 0.005131403 -0.00163299 -0.004805524
v 0.006377166 -0.003420067 0.001652229
v 0.005131403 -0.00163299 -0.004805524
v 0.002362705 -0.006003425 -0.003081511
v 0.0010776 -0.003293666 -0.006243852
v 0.002886862 0.001279711 -0.006443585
v -0.0003751036 0.0008083028 -0.00707525
v 0.006377166 -0.003420067 0.001652229
v -0.0002243505 -0.00729892 0.001237734
v 0.004386359 -0.003531078 0.004672657
v 0.0010776 -0.003293666 -0.006243852
v -0.001781528 -0.005103459 -0.00478549
v 0.002362705 -0.006003425 -0.003081511
v 0.00122758 -0.00294205 0.006377171
v 0.004386359 -0.003531078 0.004672657
v -0.0002243505 -0.00729892 0.001237734
v -0.0002243505 -0.00729892 0.001237734
v 0.002362705 -0.006003425 -0.003081511
v -0.001781528 -0.005103459 -0.00478549
v 0.00122758 -0.00294205 0.006377171
v -0.002462258 -0.002463483 0.006352681
v 0.0008902594 0.0007201458 0.006997761
v -0.002462258 -0.002463483 0.006352681
v -0.0002243505 -0.00729892 0.001237734
v -0.004810293 -0.005388745 0.001033326
v -0.001781528 -0.005103459 -0.00478549
v 0.0010776 -0.003293666 -0.006243852
v -0.004138493 -0.001475595 -0.005644096
v -0.004810293 -0.005388745 0.001033326
v -0.006985128 -0.002443825 0.000384147
v -0.002462258 -0.002463483 0.006352681
v -0.002462258 -0.002463483 0.006352681
v -0.006985128 -0.002443825 0.000384147
v -0.004018187 0.001712187 0.005878422
v -0.004138493 -0.001475595 -0.005644096
v -0.004920965 0.002755688 -0.004486414
v -0.006985128 -0.002443825 0.000384147
v -0.004018187 0.001712187 0.005878422
v -0.006985128 -0.002443825 0.000384147
v -0.006644571 0.002685436 0.0006062054
v -0.002462258 -0.002463483 0.006352681
v -0.004018187 0.001712187 0.005878422
v 0.0008902594 0.0007201458 0.006997761
v -0.006644571 0.002685436 0.0006062054
v -0.004920965 0.002755688 -0.004486414
v -0.00295801 0.006301056 -0.001739829
v -0.004126776 0.004629968 0.003625237
v -0.006644571 0.002685436 0.0006062054
v -0.00295801 0.006301056 -0.001739829
v -0.004920965 0.002755688 -0.004486414
v 0.001116487 0.005324445 -0.0049449
v -0.00295801 0.006301056 -0.001739829
v 0.0008902594 0.0007201458 0.006997761
v -0.004018187 0.001712187 0.005878422
v 0.001935028 0.004798339 0.005142103
v -0.004018187 0.001712187 0.005878422
v -0.004126776 0.004629968 0.003625237
v 0.001935028 0.004798339 0.005142103
v -0.004126776 0.004629968 0.003625237
v -0.0009839195 0.006690448 0.002175381
v 0.001935028 0.004798339 0.005142103
v -0.0009839195 0.006690448 0.002175381
v 0.002672075 0.006707325 -0.0008572013
v 0.001935028 0.004798339 0.005142103
v -0.0003751036 0.0008083028 -0.00707525
v 0.002886862 0.001279711 -0.006443585
v 0.001116487 0.005324445 -0.0049449
v 0.001116487 0.005324445 -0.0049449
v 0.002886862 0.001279711 -0.006443585
v 0.006701696 0.001074101 -0.002630393
v 0.002886862 0.001279711 -0.006443585
v 0.005131403 -0.00163299 -0.004805524
v 0.006701696 0.001074101 -0.002630393
v 0.005974689 0.002547073 0.003575746
v 0.006701696 0.001074101 -0.002630393
v 0.006377166 -0.003420067 0.001652229
v 0.002886862 0.001279711 -0.006443585
v 0.0010776 -0.003293666 -0.006243852
v 0.005131403 -0.00163299 -0.004805524
v 0.0008902594 0.0007201458 0.006997761
v 0.004386359 -0.003531078 0.004672657
v 0.00122758 -0.00294205 0.006377171
v 0.005131403 -0.00163299 -0.004805524
v 0.0010776 -0.003293666 -0.006243852
v 0.002362705 -0.006003425 -0.003081511
v 0.002362705 -0.006003425 -0.003081511
v -0.0002243505 -0.00729892 0.001237734
v 0.006377166 -0.003420067 0.001652229
v 0.00122758 -0.00294205 0.006377171
v -0.0002243505 -0.00729892 0.001237734
v -0.002462258 -0.002463483 0.006352681
v -0.0002243505 -0.00729892 0.001237734
v -0.001781528 -0.005103459 -0.00478549
v -0.004810293 -0.005388745 0.001033326
v 0.0010776 -0.003293666 -0.006243852
v -0.0003751036 0.0008083028 -0.00707525
v -0.004138493 -0.001475595 -0.005644096
v -0.006985128 -0.002443825 0.000384147
v -0.004920965 0.002755688 -0.004486414
v -0.006644571 0.002685436 0.0006062054
v -0.004018187 0.001712187 0.005878422
v -0.006644571 0.002685436 0.0006062054
v -0.004126776 0.004629968 0.003625237
v -0.004138493 -0.001475595 -0.005644096
v -0.0003751036 0.0008083028 -0.00707525
v -0.004920965 0.002755688 -0.004486414
v -0.0003751036 0.0008083028 -0.00707525
v 0.001116487 0.005324445 -0.0049449
v -0.004920965 0.002755688 -0.004486414
v -0.004126776 0.004629968 0.003625237
v -0.00295801 0.006301056 -0.001739829
v -0.0009839195 0.006690448 0.002175381
v -0.0009839195 0.006690448 0.002175381
v -0.00295801 0.006301056 -0.001739829
v 0.002672075 0.006707325 -0.0008572013
v 0.001116487 0.005324445 -0.0049449
v 0.002672075 0.006707325 -0.0008572013
v -0.00295801 0.006301056 -0.001739829
v -0.006985128 -0.002443825 0.000384147
v -0.004810293 -0.005388745 0.001033326
v -0.001781528 -0.005103459 -0.00478549
v -0.004138493 -0.001475595 -0.005644096
vt 0.6914063 0.4743652
vt 0.565918 0.6577148
vt 0.6933594 0.7431641
vt 0.6914063 0.4743652
vt 0.527832 0.4013672
vt 0.565918 0.6577148
vt 0.6914063 0.4743652
vt 0.7231445 0.2749023
vt 0.527832 0.4013672
vt 0.6875 0.9223633
vt 0.6933594 0.7431641
vt 0.565918 0.6577148
vt 0.565918 0.6577148
vt 0.4284668 0.5581055
vt 0.3928223 0.7197266
vt 0.6875 0.9223633
vt 0.565918 0.6577148
vt 0.3928223 0.7197266
vt 0.4284668 0.5581055
vt 0.527832 0.4013672
vt 0.451416 0.2714844
vt 0.4284668 0.5581055
vt 0.451416 0.2714844
vt 0.3076172 0.3569336
vt 0.3076172 0.1599121
vt 0.546875 0.1499023
vt 0.1472168 0.04864502
vt 0.4284668 0.5581055
vt 0.2449951 0.5493164
vt 0.3928223 0.7197266
vt 0.3076172 0.1599121
vt 0.1943359 0.2753906
vt 0.3076172 0.3569336
vt 0.3134766 0.8540039
vt 0.3928223 0.7197266
vt 0.2449951 0.5493164
vt 0.2449951 0.5493164
vt 0.3076172 0.3569336
vt 0.1943359 0.2753906
vt 0.3134766 0.8540039
vt 0.1166992 0.8291016
vt 0.171875 1
vt 0.1166992 0.8291016
vt 0.2449951 0.5493164
vt 0.1390381 0.5454102
vt 0.1943359 0.2753906
vt 0.3076172 0.1599121
vt 0.05502319 0.2125244
vt 0.1390381 0.5454102
vt 0.05136108 0.5161133
vt 0.1166992 0.8291016
vt 0.1166992 0.8291016
vt 0.05136108 0.5161133
vt 0.007797241 0.7036133
vt 0.05502319 0.2125244
vt 0 0.3125
vt 0.05136108 0.5161133
vt 0.9199219 0.7890625
vt 1 0.625
vt 0.9404297 0.5229492
vt 0.9882813 0.8544922
vt 0.9199219 0.7890625
vt 0.6875 0.9223633
vt 0.9404297 0.5229492
vt 0.9145508 0.2861328
vt 0.8212891 0.4245605
vt 0.8666992 0.6694336
vt 0.9404297 0.5229492
vt 0.8212891 0.4245605
vt 0.9145508 0.2861328
vt 0.7231445 0.2749023
vt 0.8212891 0.4245605
vt 0.6875 0.9223633
vt 0.9199219 0.7890625
vt 0.6933594 0.7431641
vt 0.9199219 0.7890625
vt 0.8666992 0.6694336
vt 0.6933594 0.7431641
vt 0.8666992 0.6694336
vt 0.7724609 0.5976563
vt 0.6933594 0.7431641
vt 0.7724609 0.5976563
vt 0.6914063 0.4743652
vt 0.6933594 0.7431641
vt 0.847168 0.07202148
vt 0.546875 0.1499023
vt 0.7231445 0.2749023
vt 0.7231445 0.2749023
vt 0.546875 0.1499023
vt 0.527832 0.4013672
vt 0.546875 0.1499023
vt 0.451416 0.2714844
vt 0.527832 0.4013672
vt 0.565918 0.6577148
vt 0.527832 0.4013672
vt 0.4284668 0.5581055
vt 0.546875 0.1499023
vt 0.3076172 0.1599121
vt 0.451416 0.2714844
vt 0.6875 0.9223633
vt 0.3928223 0.7197266
vt 0.3134766 0.8540039
vt 0.451416 0.2714844
vt 0.3076172 0.1599121
vt 0.3076172 0.3569336
vt 0.3076172 0.3569336
vt 0.2449951 0.5493164
vt 0.4284668 0.5581055
vt 0.3134766 0.8540039
vt 0.2449951 0.5493164
vt 0.1166992 0.8291016
vt 0.2449951 0.5493164
vt 0.1943359 0.2753906
vt 0.1390381 0.5454102
vt 0.3076172 0.1599121
vt 0.1472168 0.04864502
vt 0.05502319 0.2125244
vt 1 0.4650879
vt 0.9145508 0.2861328
vt 0.9404297 0.5229492
vt 0.9199219 0.7890625
vt 0.9404297 0.5229492
vt 0.8666992 0.6694336
vt 0.996582 0.1932373
vt 0.847168 0.07202148
vt 0.9145508 0.2861328
vt 0.847168 0.07202148
vt 0.7231445 0.2749023
vt 0.9145508 0.2861328
vt 0.8666992 0.6694336
vt 0.8212891 0.4245605
vt 0.7724609 0.5976563
vt 0.7724609 0.5976563
vt 0.8212891 0.4245605
vt 0.6914063 0.4743652
vt 0.7231445 0.2749023
vt 0.6914063 0.4743652
vt 0.8212891 0.4245605
vt 0.05136108 0.5161133
vt 0.1390381 0.5454102
vt 0.1943359 0.2753906
vt 0.05502319 0.2125244
vn 0.5522461 0.7724609 0.3137207
vn 0.5522461 0.7724609 0.3137207
vn 0.5522461 0.7724609 0.3137207
vn 0.8056641 0.5908203 -0.0458374
vn 0.8056641 0.5908203 -0.0458374
vn 0.8056641 0.5908203 -0.0458374
vn 0.6508789 0.6083984 -0.4536133
vn 0.6508789 0.6083984 -0.4536133
vn 0.6508789 0.6083984 -0.4536133
vn 0.4724121 0.2619629 0.8417969
vn 0.4724121 0.2619629 0.8417969
vn 0.4724121 0.2619629 0.8417969
vn 0.8310547 -0.1190796 0.543457
vn 0.8310547 -0.1190796 0.543457
vn 0.8310547 -0.1190796 0.543457
vn 0.5571289 0.004207611 0.8300781
vn 0.5571289 0.004207611 0.8300781
vn 0.5571289 0.004207611 0.8300781
vn 0.9111328 -0.3168945 -0.2634277
vn 0.9111328 -0.3168945 -0.2634277
vn 0.9111328 -0.3168945 -0.2634277
vn 0.7441406 -0.5927734 -0.3076172
vn 0.7441406 -0.5927734 -0.3076172
vn 0.7441406 -0.5927734 -0.3076172
vn 0.2058105 -0.1238403 -0.9707031
vn 0.2058105 -0.1238403 -0.9707031
vn 0.2058105 -0.1238403 -0.9707031
vn 0.4729004 -0.8349609 0.2810059
vn 0.4729004 -0.8349609 0.2810059
vn 0.4729004 -0.8349609 0.2810059
vn 0.1184082 -0.7294922 -0.6733398
vn 0.1184082 -0.7294922 -0.6733398
vn 0.1184082 -0.7294922 -0.6733398
vn 0.1821289 -0.7749023 0.6054688
vn 0.1821289 -0.7749023 0.6054688
vn 0.1821289 -0.7749023 0.6054688
vn -0.07098389 -0.9428711 -0.3254395
vn -0.07098389 -0.9428711 -0.3254395
vn -0.07098389 -0.9428711 -0.3254395
vn -0.02853394 -0.1695557 0.9848633
vn -0.02853394 -0.1695557 0.9848633
vn -0.02853394 -0.1695557 0.9848633
vn -0.3388672 -0.753418 0.5639648
vn -0.3388672 -0.753418 0.5639648
vn -0.3388672 -0.753418 0.5639648
vn -0.2304688 -0.3632813 -0.902832
vn -0.2304688 -0.3632813 -0.902832
vn -0.2304688 -0.3632813 -0.902832
vn -0.7255859 -0.4150391 0.5488281
vn -0.7255859 -0.4150391 0.5488281
vn -0.7255859 -0.4150391 0.5488281
vn -0.7773438 -0.2227783 0.5883789
vn -0.7773438 -0.2227783 0.5883789
vn -0.7773438 -0.2227783 0.5883789
vn -0.9003906 -0.04806519 -0.4328613
vn -0.9003906 -0.04806519 -0.4328613
vn -0.9003906 -0.04806519 -0.4328613
vn -0.8916016 0.03964233 0.451416
vn -0.8916016 0.03964233 0.451416
vn -0.8916016 0.03964233 0.451416
vn -0.2164307 0.03018188 0.9760742
vn -0.2164307 0.03018188 0.9760742
vn -0.2164307 0.03018188 0.9760742
vn -0.7539063 0.6088867 -0.2468262
vn -0.7539063 0.6088867 -0.2468262
vn -0.7539063 0.6088867 -0.2468262
vn -0.6699219 0.737793 0.08374023
vn -0.6699219 0.737793 0.08374023
vn -0.6699219 0.737793 0.08374023
vn -0.3408203 0.6865234 -0.6425781
vn -0.3408203 0.6865234 -0.6425781
vn -0.3408203 0.6865234 -0.6425781
vn -0.1154785 0.435791 0.8925781
vn -0.1154785 0.435791 0.8925781
vn -0.1154785 0.435791 0.8925781
vn -0.2110596 0.5922852 0.7773438
vn -0.2110596 0.5922852 0.7773438
vn -0.2110596 0.5922852 0.7773438
vn -0.1832275 0.7373047 0.6503906
vn -0.1832275 0.7373047 0.6503906
vn -0.1832275 0.7373047 0.6503906
vn 0.2626953 0.909668 0.3217773
vn 0.2626953 0.909668 0.3217773
vn 0.2626953 0.909668 0.3217773
vn 0.1202393 0.3908691 -0.9125977
vn 0.1202393 0.3908691 -0.9125977
vn 0.1202393 0.3908691 -0.9125977
vn 0.6269531 0.4968262 -0.6000977
vn 0.6269531 0.4968262 -0.6000977
vn 0.6269531 0.4968262 -0.6000977
vn 0.703125 0.1507568 -0.6953125
vn 0.703125 0.1507568 -0.6953125
vn 0.703125 0.1507568 -0.6953125
vn 0.9936523 0.0319519 0.1088257
vn 0.9936523 0.0319519 0.1088257
vn 0.9936523 0.0319519 0.1088257
vn 0.3984375 -0.1967773 -0.8959961
vn 0.3984375 -0.1967773 -0.8959961
vn 0.3984375 -0.1967773 -0.8959961
vn 0.456543 -0.107605 0.8833008
vn 0.456543 -0.107605 0.8833008
vn 0.456543 -0.107605 0.8833008
vn 0.4716797 -0.5654297 -0.6762695
vn 0.4716797 -0.5654297 -0.6762695
vn 0.4716797 -0.5654297 -0.6762695
vn 0.5039063 -0.862793 0.04321289
vn 0.5039063 -0.862793 0.04321289
vn 0.5039063 -0.862793 0.04321289
vn -0.1009521 -0.7446289 0.659668
vn -0.1009521 -0.7446289 0.659668
vn -0.1009521 -0.7446289 0.659668
vn -0.3649902 -0.9013672 -0.2341309
vn -0.3649902 -0.9013672 -0.2341309
vn -0.3649902 -0.9013672 -0.2341309
vn -0.1999512 -0.262207 -0.9438477
vn -0.1999512 -0.262207 -0.9438477
vn -0.1999512 -0.262207 -0.9438477
vn -0.9448242 0.07653809 -0.3186035
vn -0.9448242 0.07653809 -0.3186035
vn -0.9448242 0.07653809 -0.3186035
vn -0.8183594 0.3317871 0.4689941
vn -0.8183594 0.3317871 0.4689941
vn -0.8183594 0.3317871 0.4689941
vn -0.4350586 0.1618652 -0.8857422
vn -0.4350586 0.1618652 -0.8857422
vn -0.4350586 0.1618652 -0.8857422
vn -0.2685547 0.4821777 -0.8339844
vn -0.2685547 0.4821777 -0.8339844
vn -0.2685547 0.4821777 -0.8339844
vn -0.4882813 0.8579102 0.1608887
vn -0.4882813 0.8579102 0.1608887
vn -0.4882813 0.8579102 0.1608887
vn -0.06115723 0.9956055 -0.06817627
vn -0.06115723 0.9956055 -0.06817627
vn -0.06115723 0.9956055 -0.06817627
vn -0.01930237 0.9492188 -0.3137207
vn -0.01930237 0.9492188 -0.3137207
vn -0.01930237 0.9492188 -0.3137207
vn -0.7041016 -0.5795898 -0.4104004
vn -0.7041016 -0.5795898 -0.4104004
vn -0.7041016 -0.5795898 -0.4104004
vn -0.7041016 -0.5795898 -0.4104004
g Rock11_0
f 3/3/3 2/2/2 1/1/1
f 6/6/6 5/5/5 4/4/4
f 9/9/9 8/8/8 7/7/7
f 12/12/12 11/11/11 10/10/10
f 15/15/15 14/14/14 13/13/13
f 18/18/18 17/17/17 16/16/16
f 21/21/21 20/20/20 19/19/19
f 24/24/24 23/23/23 22/22/22
f 27/27/27 26/26/26 25/25/25
f 30/30/30 29/29/29 28/28/28
f 33/33/33 32/32/32 31/31/31
f 36/36/36 35/35/35 34/34/34
f 39/39/39 38/38/38 37/37/37
f 42/42/42 41/41/41 40/40/40
f 45/45/45 44/44/44 43/43/43
f 48/48/48 47/47/47 46/46/46
f 51/51/51 50/50/50 49/49/49
f 54/54/54 53/53/53 52/52/52
f 57/57/57 56/56/56 55/55/55
f 60/60/60 59/59/59 58/58/58
f 63/63/63 62/62/62 61/61/61
f 66/66/66 65/65/65 64/64/64
f 69/69/69 68/68/68 67/67/67
f 72/72/72 71/71/71 70/70/70
f 75/75/75 74/74/74 73/73/73
f 78/78/78 77/77/77 76/76/76
f 81/81/81 80/80/80 79/79/79
f 84/84/84 83/83/83 82/82/82
f 87/87/87 86/86/86 85/85/85
f 90/90/90 89/89/89 88/88/88
f 93/93/93 92/92/92 91/91/91
f 96/96/96 95/95/95 94/94/94
f 99/99/99 98/98/98 97/97/97
f 102/102/102 101/101/101 100/100/100
f 105/105/105 104/104/104 103/103/103
f 108/108/108 107/107/107 106/106/106
f 111/111/111 110/110/110 109/109/109
f 114/114/114 113/113/113 112/112/112
f 117/117/117 116/116/116 115/115/115
f 120/120/120 119/119/119 118/118/118
f 123/123/123 122/122/122 121/121/121
f 126/126/126 125/125/125 124/124/124
f 129/129/129 128/128/128 127/127/127
f 132/132/132 131/131/131 130/130/130
f 135/135/135 134/134/134 133/133/133
f 138/138/138 137/137/137 136/136/136
f 141/141/141 140/140/140 139/139/139
f 142/142/142 141/141/141 139/139/139
