g Rock_02
v 1.033184 0.5413952 0.2116152
v 0.9804837 0.1720441 -0.07567604
v 1.08454 0.3308749 0.3524702
v -0.5957129 0.2541601 -0.8525192
v -0.6877708 0.1895731 -0.7673874
v -0.477763 0.0946798 -0.8060226
v -0.3464343 0.2206718 0.9575261
v -0.09146656 0.5595478 0.971764
v -0.05856605 0.1998008 0.9886985
v 0.8197906 0.18318 0.8072797
v 1.08454 0.3308749 0.3524702
v 0.9804837 0.1720441 -0.07567604
v 0.6161226 0.06811024 -0.6521074
v 0.3173578 0.1264652 0.9393508
v -0.5947884 0.10887 0.6682304
v 0.4639488 0.1729278 0.9775528
v -0.05856605 0.1998008 0.9886985
v -0.3464343 0.2206718 0.9575261
v -0.605665 0.2976974 0.8506984
v -0.7308599 0.2743492 0.6997866
v -0.879097 0.09067953 0.2992361
v -0.8332368 0.02172066 0.005371126
v -0.8733633 0.05701406 -0.3294955
v -0.9320236 0.1499158 -0.1032221
v -0.6753857 -0.001341789 -0.4860517
v -0.7647296 0.119127 -0.6475821
v -0.477763 0.0946798 -0.8060226
v -0.6877708 0.1895731 -0.7673874
v -0.2467086 0.1102809 -0.9833751
v -0.5957129 0.2541601 -0.8525192
v -0.1853843 0.2009744 -1.116209
v -0.02217034 0.06405467 -1.041707
v 0.2872199 0.1897882 -1.043677
v -0.55835 0.8471368 0.2356239
v -0.3944152 0.916371 0.4389155
v -0.5252467 0.8357301 0.4430746
v -0.09306639 0.9966113 0.3896051
v -0.5683213 0.854222 0.1132077
v -0.5038698 0.7525703 0.5969342
v -0.4947538 0.900606 -0.1672879
v -0.240141 0.5961875 0.9413218
v -0.3919056 0.5707826 0.9043277
v -0.09146656 0.5595478 0.971764
v 0.2298544 0.6526016 0.9828261
v 0.5129541 0.7182338 0.9172248
v 0.3463342 0.9813001 0.1896945
v 0.7934449 0.7284244 0.7208387
v 0.8670753 0.7279587 0.6422417
v 0.4209968 0.9808086 0.07835998
v 0.5263016 0.9292075 -0.3859267
v -0.493612 0.8310772 -0.3547024
v 1.038867 0.5864856 0.4120252
v 0.9812582 0.6330397 0.53904
v 1.033184 0.5413952 0.2116152
v 1.07205 0.5402213 0.3279526
v 0.9408838 0.6137263 -0.03546499
v 0.836928 0.6208144 -0.3516417
v 0.7789645 0.6032456 -0.5033337
v 0.5629177 0.7752405 -0.628456
v 0.4444502 0.8676695 -0.6003698
v 0.2134939 0.7845137 -0.7884967
v -0.3600444 0.6258593 -0.8517536
v -0.5478919 0.6922969 -0.5510932
v -0.6024898 0.5909095 -0.6698884
v -0.6318229 0.4610415 -0.7584082
v 1.033184 0.5413952 0.2116152
v 1.088333 0.4659314 0.33354
v 1.07205 0.5402213 0.3279526
v 1.08454 0.3308749 0.3524702
v 0.9408838 0.6137263 -0.03546499
v 0.9804837 0.1720441 -0.07567604
v 1.033184 0.5413952 0.2116152
v 0.836928 0.6208144 -0.3516417
v 0.7789645 0.6032456 -0.5033337
v 0.6161226 0.06811024 -0.6521074
v 0.5427117 0.5732262 -0.7828218
v 0.5863912 0.697463 -0.6802205
v 0.5629177 0.7752405 -0.628456
v 0.4444502 0.8676695 -0.6003698
v 0.2134939 0.7845137 -0.7884967
v 0.3079883 0.4469984 -0.9923971
v 0.2813745 0.28279 -1.044868
v 0.2872199 0.1897882 -1.043677
v 0.03343266 0.2149199 -1.119952
v -0.02217034 0.06405467 -1.041707
v -0.2051681 0.4661278 -1.006723
v -0.3600444 0.6258593 -0.8517536
v -0.09124075 0.2314955 -1.126107
v -0.1853843 0.2009744 -1.116209
v -0.5957129 0.2541601 -0.8525192
v -0.6318229 0.4610415 -0.7584082
v -0.1704192 0.2736443 -1.096082
v -0.1628398 0.22317 -1.121989
v -0.09146656 0.5595478 0.971764
v 0.2298544 0.6526016 0.9828261
v 0.05853627 0.5583593 1.003517
v -0.05856605 0.1998008 0.9886985
v -0.5252467 0.8357301 0.4430746
v -0.3944152 0.916371 0.4389155
v -0.5038698 0.7525703 0.5969342
v -0.7491175 0.6440428 0.2262363
v -0.55835 0.8471368 0.2356239
v -0.5683213 0.854222 0.1132077
v -0.4947538 0.900606 -0.1672879
v -0.493612 0.8310772 -0.3547024
v -0.9320236 0.1499158 -0.1032221
v -0.5478919 0.6922969 -0.5510932
v -0.8733633 0.05701406 -0.3294955
v -0.6024898 0.5909095 -0.6698884
v -0.7647296 0.119127 -0.6475821
v -0.6318229 0.4610415 -0.7584082
v -0.6877708 0.1895731 -0.7673874
v -0.5957129 0.2541601 -0.8525192
v -0.9448134 0.2203951 0.1310152
v -0.879097 0.09067953 0.2992361
v -0.860096 0.425396 0.277167
v -0.7308599 0.2743492 0.6997866
v -0.605665 0.2976974 0.8506984
v -0.3919056 0.5707826 0.9043277
v -0.3464343 0.2206718 0.9575261
v -0.240141 0.5961875 0.9413218
v -0.09146656 0.5595478 0.971764
v -0.05856605 0.1998008 0.9886985
v 0.05853627 0.5583593 1.003517
v 0.4639488 0.1729278 0.9775528
v 0.2298544 0.6526016 0.9828261
v 0.5129541 0.7182338 0.9172248
v 0.6794279 0.669781 0.8702848
v 0.8197906 0.18318 0.8072797
v 0.7934449 0.7284244 0.7208387
v 0.9812582 0.6330397 0.53904
v 0.8670753 0.7279587 0.6422417
v 1.08454 0.3308749 0.3524702
v 1.038867 0.5864856 0.4120252
v 1.088333 0.4659314 0.33354
v 1.07205 0.5402213 0.3279526
vt 0.2181264 0.6827743
vt 0.2181264 0.5795442
vt 0.1694244 0.6444229
vt 0.3585237 0.6281404
vt 0.37666 0.6352206
vt 0.37666 0.5795442
vt 0.2339977 0.5917177
vt 0.271725 0.672494
vt 0.271725 0.5795442
vt 0.3435874 0.5641229
vt 0.462171 0.5004731
vt 0.5015228 0.3923401
vt 0.5015228 0.2168477
vt 0.2138977 0.5253345
vt 0.0467716 0.3432278
vt 0.2404601 0.5535267
vt 0.1209264 0.4857491
vt 0.06006566 0.4402511
vt 0.01472156 0.3821672
vt 0.007935669 0.3322229
vt 0.03415388 0.2241328
vt 0.08655492 0.1657825
vt 0.1228136 0.08713057
vt 0.07627626 0.1290123
vt 0.1902232 0.07933691
vt 0.189538 0.03222529
vt 0.2763898 0.03606771
vt 0.2216479 0.01650341
vt 0.3523366 0.0283414
vt 0.2525139 0.01039242
vt 0.3822481 0.007710648
vt 0.411899 0.04566012
vt 0.4786773 0.0871372
vt 0.943869 0.2866035
vt 0.9046561 0.3434954
vt 0.9395996 0.339871
vt 0.8238021 0.3390259
vt 0.9438656 0.2553717
vt 0.9376075 0.377411
vt 0.918304 0.1865161
vt 0.8761016 0.466536
vt 0.9154401 0.4534053
vt 0.8377186 0.4763533
vt 0.7528237 0.4880046
vt 0.6765006 0.4786425
vt 0.7037861 0.2964999
vt 0.5983377 0.4344699
vt 0.5772592 0.415899
vt 0.6817404 0.2696022
vt 0.6443506 0.1520282
vt 0.9143363 0.1369837
vt 0.5277188 0.3570517
vt 0.5453938 0.3894638
vt 0.525164 0.3046913
vt 0.5173942 0.3351047
vt 0.5439226 0.2416816
vt 0.564581 0.1591583
vt 0.5767193 0.1188693
vt 0.6302415 0.08700559
vt 0.6616522 0.09413944
vt 0.7189188 0.03941189
vt 0.8694933 0.007710648
vt 0.9251014 0.0822842
vt 0.9374297 0.04831502
vt 0.9438689 0.02184737
vt 0.3426523 0.6335152
vt 0.3277797 0.6096044
vt 0.3231007 0.6283873
vt 0.3426523 0.5795442
vt 0.834122 0.5462738
vt 0.9516997 0.5449355
vt 0.8456101 0.5034259
vt 0.8420346 0.5986037
vt 0.8510824 0.6258931
vt 0.9920643 0.6838931
vt 0.863822 0.7074615
vt 0.828568 0.6867071
vt 0.8056847 0.6870813
vt 0.7774821 0.7123166
vt 0.8006008 0.785301
vt 0.8988997 0.7836719
vt 0.9430271 0.7964081
vt 0.9673413 0.7958966
vt 0.9572895 0.8635894
vt 0.9920643 0.8719231
vt 0.8813272 0.9088263
vt 0.8296852 0.9312012
vt 0.9500201 0.8940977
vt 0.9551632 0.9163463
vt 0.9204376 0.9922894
vt 0.861957 0.9906738
vt 0.935838 0.9102058
vt 0.9501901 0.9111516
vt 0.2875963 0.6628647
vt 0.3072294 0.7142901
vt 0.305166 0.6764749
vt 0.3072293 0.5795442
vt 0.7304164 0.6663536
vt 0.7616108 0.6582375
vt 0.7082724 0.6265225
vt 0.6681625 0.7352383
vt 0.7347223 0.7199496
vt 0.7381513 0.7508853
vt 0.7616108 0.8149105
vt 0.7481273 0.8607491
vt 0.5359737 0.8276666
vt 0.7128705 0.9125276
vt 0.5222434 0.8788229
vt 0.6853618 0.945352
vt 0.5533338 0.9496422
vt 0.6522256 0.9687629
vt 0.5798266 0.9739007
vt 0.6054108 0.9884918
vt 0.5477685 0.7711306
vt 0.5173942 0.7243531
vt 0.6031563 0.7298101
vt 0.5675816 0.6156161
vt 0.580819 0.5694346
vt 0.6659083 0.5418629
vt 0.5810526 0.5239963
vt 0.6841991 0.5218537
vt 0.6868453 0.5034259
vt 0.02492074 0.8877233
vt 0.1169002 0.8746753
vt 0.008544544 0.806468
vt 0.1389755 0.8449304
vt 0.1523209 0.788857
vt 0.13741 0.7537711
vt 0.007935669 0.7174072
vt 0.1535531 0.7057297
vt 0.1284091 0.6391662
vt 0.1535531 0.6782683
vt 0.05045975 0.5834771
vt 0.1174693 0.6038509
vt 0.08629508 0.5795442
vt 0.1062514 0.5811558
vn 0.8583571 0.4497028 -0.2469627
vn 0.782853 -0.5890854 -0.2002988
vn 0.942494 -0.3086407 0.1282417
vn -0.5721986 -0.08099712 -0.8161055
vn -0.6962391 -0.2258741 -0.6813457
vn -0.2546236 -0.8252454 -0.5041199
vn -0.2511712 -0.456747 0.8534021
vn -0.1553119 0.4239108 0.892288
vn -0.1024224 -0.5046044 0.8572538
vn 0.585305 -0.5797199 0.5668712
vn 0.942494 -0.3086407 0.1282417
vn 0.782853 -0.5890854 -0.2002988
vn 0.557132 -0.7194648 -0.4146979
vn 0.03054941 -0.8931658 0.4486887
vn -0.3051585 -0.8708874 0.3852706
vn 0.2437599 -0.48871 0.8377014
vn -0.1024224 -0.5046044 0.8572538
vn -0.2511712 -0.456747 0.8534021
vn -0.6490792 -0.08923771 0.7554686
vn -0.8239788 -0.07428291 0.5617303
vn -0.743503 -0.591427 0.3121175
vn -0.39138 -0.9178386 0.06628802
vn -0.855657 -0.4535711 -0.2492474
vn -0.9888086 -0.06128172 -0.1360222
vn -0.2013366 -0.9601716 -0.1937373
vn -0.8040578 -0.3517943 -0.4793034
vn -0.2546236 -0.8252454 -0.5041199
vn -0.6962391 -0.2258741 -0.6813457
vn -0.2876449 -0.8652236 -0.4106684
vn -0.5721986 -0.08099712 -0.8161055
vn -0.3677598 -0.2473604 -0.8964182
vn -0.03137377 -0.9010497 -0.4325795
vn 0.5044753 -0.3580768 -0.7856753
vn -0.5604545 0.8226754 0.09537248
vn -0.2802294 0.9010557 0.3310138
vn -0.630797 0.7088951 0.3155358
vn -0.0870102 0.9696557 0.2284667
vn -0.5904478 0.806918 0.01596135
vn -0.5456523 0.6584512 0.5183682
vn -0.4778715 0.8582032 -0.1874191
vn -0.1555869 0.5339641 0.8310686
vn -0.4341406 0.4624932 0.7730601
vn -0.1553119 0.4239108 0.892288
vn -0.009155816 0.5025628 0.8644922
vn 0.2073811 0.6121633 0.7630525
vn 0.1124011 0.9871945 0.1131946
vn 0.5378724 0.6485354 0.5386049
vn 0.6450245 0.6530205 0.3968724
vn 0.2477196 0.9688134 -0.005981648
vn 0.3549124 0.9110709 -0.2097307
vn -0.5248361 0.7942583 -0.3061061
vn 0.8483942 0.5127782 0.1314753
vn 0.8312529 0.4265065 0.3565259
vn 0.8583571 0.4497028 -0.2469627
vn 0.8827078 0.4622444 -0.08459931
vn 0.8370407 0.5186375 -0.1742932
vn 0.8548719 0.4075222 -0.3211225
vn 0.8264093 0.277301 -0.490053
vn 0.5212058 0.6469142 -0.5566385
vn 0.2045999 0.8606075 -0.466362
vn 0.06021393 0.7784475 -0.6248149
vn -0.3492255 0.6508723 -0.6740971
vn -0.6807054 0.6711224 -0.293658
vn -0.7451985 0.5794768 -0.3299786
vn -0.7584886 0.3613144 -0.5423531
vn 0.8583571 0.4497028 -0.2469627
vn 0.9992181 0.03946089 0.002441509
vn 0.8827078 0.4622444 -0.08459931
vn 0.942494 -0.3086407 0.1282417
vn 0.8370407 0.5186375 -0.1742932
vn 0.782853 -0.5890854 -0.2002988
vn 0.8583571 0.4497028 -0.2469627
vn 0.8548719 0.4075222 -0.3211225
vn 0.8264093 0.277301 -0.490053
vn 0.557132 -0.7194648 -0.4146979
vn 0.6093189 0.2393633 -0.7559338
vn 0.5707747 0.4825125 -0.6643779
vn 0.5212058 0.6469142 -0.5566385
vn 0.2045999 0.8606075 -0.466362
vn 0.06021393 0.7784475 -0.6248149
vn 0.4117937 0.3231358 -0.8520617
vn 0.5081125 0.1230225 -0.8524595
vn 0.5044753 -0.3580768 -0.7856753
vn 0.1190854 -0.05887128 -0.9911371
vn -0.03137377 -0.9010497 -0.4325795
vn -0.2247115 0.4601047 -0.8589578
vn -0.3492255 0.6508723 -0.6740971
vn 0.0233166 0.05655191 -0.9981274
vn -0.3677598 -0.2473604 -0.8964182
vn -0.5721986 -0.08099712 -0.8161055
vn -0.7584886 0.3613144 -0.5423531
vn -0.3112099 0.368526 -0.8759778
vn -0.2290757 0.1456673 -0.9624476
vn -0.1553119 0.4239108 0.892288
vn -0.009155816 0.5025628 0.8644922
vn -0.0943056 0.2207178 0.9707677
vn -0.1024224 -0.5046044 0.8572538
vn -0.630797 0.7088951 0.3155358
vn -0.2802294 0.9010557 0.3310138
vn -0.5456523 0.6584512 0.5183682
vn -0.8384836 0.5396705 0.07550442
vn -0.5604545 0.8226754 0.09537248
vn -0.5904478 0.806918 0.01596135
vn -0.4778715 0.8582032 -0.1874191
vn -0.5248361 0.7942583 -0.3061061
vn -0.9888086 -0.06128172 -0.1360222
vn -0.6807054 0.6711224 -0.293658
vn -0.855657 -0.4535711 -0.2492474
vn -0.7451985 0.5794768 -0.3299786
vn -0.8040578 -0.3517943 -0.4793034
vn -0.7584886 0.3613144 -0.5423531
vn -0.6962391 -0.2258741 -0.6813457
vn -0.5721986 -0.08099712 -0.8161055
vn -0.9955757 0.06610518 0.0667766
vn -0.743503 -0.591427 0.3121175
vn -0.9133857 0.3507293 0.2066776
vn -0.8239788 -0.07428291 0.5617303
vn -0.6490792 -0.08923771 0.7554686
vn -0.4341406 0.4624932 0.7730601
vn -0.2511712 -0.456747 0.8534021
vn -0.1555869 0.5339641 0.8310686
vn -0.1553119 0.4239108 0.892288
vn -0.1024224 -0.5046044 0.8572538
vn -0.0943056 0.2207178 0.9707677
vn 0.2437599 -0.48871 0.8377014
vn -0.009155816 0.5025628 0.8644922
vn 0.2073811 0.6121633 0.7630525
vn 0.5064293 0.361648 0.7827772
vn 0.585305 -0.5797199 0.5668712
vn 0.5378724 0.6485354 0.5386049
vn 0.8312529 0.4265065 0.3565259
vn 0.6450245 0.6530205 0.3968724
vn 0.942494 -0.3086407 0.1282417
vn 0.8483942 0.5127782 0.1314753
vn 0.9992181 0.03946089 0.002441509
vn 0.8827078 0.4622444 -0.08459931
g Rock_02_0
f 3/3/3 2/2/2 1/1/1
f 6/6/6 5/5/5 4/4/4
f 9/9/9 8/8/8 7/7/7
f 12/12/12 11/11/11 10/10/10
f 13/13/13 12/12/12 10/10/10
f 10/10/10 14/14/14 13/13/13
f 15/15/15 13/13/13 14/14/14
f 16/16/16 14/14/14 10/10/10
f 16/16/16 17/17/17 14/14/14
f 15/15/15 14/14/14 17/17/17
f 18/18/18 15/15/15 17/17/17
f 18/18/18 19/19/19 15/15/15
f 19/19/19 20/20/20 15/15/15
f 21/21/21 15/15/15 20/20/20
f 22/22/22 15/15/15 21/21/21
f 22/22/22 13/13/13 15/15/15
f 22/22/22 21/21/21 23/23/23
f 21/21/21 24/24/24 23/23/23
f 23/23/23 25/25/25 22/22/22
f 22/22/22 25/25/25 13/13/13
f 26/26/26 25/25/25 23/23/23
f 26/26/26 27/27/27 25/25/25
f 27/27/27 13/13/13 25/25/25
f 28/28/28 27/27/27 26/26/26
f 29/29/29 13/13/13 27/27/27
f 29/29/29 27/27/27 30/30/30
f 31/31/31 29/29/29 30/30/30
f 32/32/32 29/29/29 31/31/31
f 13/13/13 29/29/29 32/32/32
f 13/13/13 32/32/32 33/33/33
f 36/36/36 35/35/35 34/34/34
f 37/37/37 34/34/34 35/35/35
f 37/37/37 38/38/38 34/34/34
f 35/35/35 39/39/39 37/37/37
f 38/38/38 37/37/37 40/40/40
f 39/39/39 41/41/41 37/37/37
f 42/42/42 41/41/41 39/39/39
f 43/43/43 37/37/37 41/41/41
f 44/44/44 37/37/37 43/43/43
f 45/45/45 37/37/37 44/44/44
f 46/46/46 37/37/37 45/45/45
f 37/37/37 46/46/46 40/40/40
f 46/46/46 45/45/45 47/47/47
f 48/48/48 46/46/46 47/47/47
f 49/49/49 40/40/40 46/46/46
f 49/49/49 46/46/46 48/48/48
f 50/50/50 40/40/40 49/49/49
f 51/51/51 40/40/40 50/50/50
f 52/52/52 49/49/49 48/48/48
f 53/53/53 52/52/52 48/48/48
f 54/54/54 49/49/49 52/52/52
f 55/55/55 54/54/54 52/52/52
f 56/56/56 49/49/49 54/54/54
f 49/49/49 56/56/56 50/50/50
f 56/56/56 57/57/57 50/50/50
f 58/58/58 50/50/50 57/57/57
f 50/50/50 58/58/58 59/59/59
f 60/60/60 50/50/50 59/59/59
f 60/60/60 51/51/51 50/50/50
f 51/51/51 60/60/60 61/61/61
f 62/62/62 51/51/51 61/61/61
f 63/63/63 51/51/51 62/62/62
f 64/64/64 63/63/63 62/62/62
f 62/62/62 65/65/65 64/64/64
f 68/68/68 67/67/67 66/66/66
f 69/69/69 66/66/66 67/67/67
f 72/72/72 71/71/71 70/70/70
f 70/70/70 71/71/71 73/73/73
f 73/73/73 71/71/71 74/74/74
f 75/75/75 74/74/74 71/71/71
f 76/76/76 74/74/74 75/75/75
f 77/77/77 74/74/74 76/76/76
f 77/77/77 78/78/78 74/74/74
f 77/77/77 79/79/79 78/78/78
f 79/79/79 77/77/77 80/80/80
f 76/76/76 80/80/80 77/77/77
f 76/76/76 75/75/75 81/81/81
f 81/81/81 80/80/80 76/76/76
f 81/81/81 75/75/75 82/82/82
f 83/83/83 82/82/82 75/75/75
f 84/84/84 82/82/82 83/83/83
f 84/84/84 81/81/81 82/82/82
f 85/85/85 84/84/84 83/83/83
f 80/80/80 81/81/81 86/86/86
f 84/84/84 86/86/86 81/81/81
f 87/87/87 80/80/80 86/86/86
f 84/84/84 85/85/85 88/88/88
f 86/86/86 84/84/84 88/88/88
f 89/89/89 88/88/88 85/85/85
f 86/86/86 90/90/90 87/87/87
f 91/91/91 87/87/87 90/90/90
f 92/92/92 90/90/90 86/86/86
f 92/92/92 86/86/86 88/88/88
f 90/90/90 92/92/92 89/89/89
f 93/93/93 92/92/92 88/88/88
f 89/89/89 92/92/92 93/93/93
f 88/88/88 89/89/89 93/93/93
f 96/96/96 95/95/95 94/94/94
f 94/94/94 97/97/97 96/96/96
f 100/100/100 99/99/99 98/98/98
f 98/98/98 101/101/101 100/100/100
f 102/102/102 101/101/101 98/98/98
f 103/103/103 101/101/101 102/102/102
f 103/103/103 104/104/104 101/101/101
f 105/105/105 101/101/101 104/104/104
f 106/106/106 101/101/101 105/105/105
f 105/105/105 107/107/107 106/106/106
f 106/106/106 107/107/107 108/108/108
f 109/109/109 108/108/108 107/107/107
f 108/108/108 109/109/109 110/110/110
f 111/111/111 110/110/110 109/109/109
f 110/110/110 111/111/111 112/112/112
f 113/113/113 112/112/112 111/111/111
f 101/101/101 106/106/106 114/114/114
f 106/106/106 115/115/115 114/114/114
f 116/116/116 101/101/101 114/114/114
f 115/115/115 116/116/116 114/114/114
f 115/115/115 117/117/117 116/116/116
f 116/116/116 100/100/100 101/101/101
f 100/100/100 116/116/116 117/117/117
f 118/118/118 100/100/100 117/117/117
f 119/119/119 100/100/100 118/118/118
f 120/120/120 119/119/119 118/118/118
f 119/119/119 120/120/120 121/121/121
f 121/121/121 120/120/120 122/122/122
f 125/125/125 124/124/124 123/123/123
f 125/125/125 126/126/126 124/124/124
f 126/126/126 125/125/125 127/127/127
f 127/127/127 125/125/125 128/128/128
f 125/125/125 129/129/129 128/128/128
f 127/127/127 128/128/128 130/130/130
f 129/129/129 130/130/130 128/128/128
f 130/130/130 129/129/129 131/131/131
f 132/132/132 130/130/130 131/131/131
f 133/133/133 131/131/131 129/129/129
f 131/131/131 133/133/133 134/134/134
f 134/134/134 133/133/133 135/135/135
f 136/136/136 134/134/134 135/135/135
