g Rock_5
v -0.1378659 -0.01367848 0.2825025
v -0.05303916 -0.008208957 0.2947699
v -0.0879996 -0.1193339 0.2754027
v 0.1435578 -0.1642509 0.008519159
v 0.1239889 -0.1372409 0.09291007
v 0.1518025 -0.1490453 0.008777874
v -0.1378659 -0.01367848 0.2825025
v -0.1216418 0.1160493 0.2751139
v -0.05303916 -0.008208957 0.2947699
v 0.08358046 0.2317767 0.008004239
v 0.09624847 0.2200003 0.008300928
v 0.07363805 0.2000653 0.09247779
v -0.1451078 0.1674788 0.1523881
v -0.1380281 0.1682304 0.002702856
v -0.1186443 0.1962978 -0.001480209
v -0.06542329 -0.1933773 0.135646
v -0.05940581 -0.21306 0.03498364
v -0.08673852 -0.1926394 0.03909846
v 0.1518025 -0.1490453 0.008777874
v 0.1702674 -0.1065336 0.044181
v 0.1664324 0.02734718 0.04491825
v 0.1435137 0.02359005 0.00898241
v 0.1239889 -0.1372409 0.09291007
v 0.1433465 -0.1131029 0.0918058
v 0.1702674 -0.1065336 0.044181
v 0.1518025 -0.1490453 0.008777874
v 0.1239889 -0.1372409 0.09291007
v 0.09745459 -0.05075354 0.2332809
v 0.1152024 -0.03097028 0.2210446
v 0.1433465 -0.1131029 0.0918058
v 0.09745459 -0.05075354 0.2332809
v 0.0632214 -0.09143215 0.2674486
v 0.06283624 0.01077315 0.2849394
v 0.1010633 0.01690901 0.2424896
v 0.1239889 -0.1372409 0.09291007
v 0.06382498 -0.1406566 0.1425479
v 0.0632214 -0.09143215 0.2674486
v 0.09745459 -0.05075354 0.2332809
v 0.07639995 -0.1976112 0.006640458
v 0.07639994 -0.2154484 0.04259573
v 0.1435578 -0.182088 0.04447443
v 0.1435578 -0.1642509 0.008519159
v -0.1613277 -0.02639304 0.002476826
v -0.08673851 -0.1748022 0.003143189
v -0.05940581 -0.1952228 -0.0009716323
v -0.0970221 -0.01585117 -0.03162144
v -0.08673851 -0.1748022 0.003143189
v -0.1613277 -0.02639304 0.002476826
v -0.1580757 -0.0256954 0.1553271
v -0.09373876 -0.1448763 0.1391313
v 0.06382498 -0.1406566 0.1425479
v -0.09373876 -0.1448763 0.1391313
v -0.0879996 -0.1193339 0.2754027
v 0.0632214 -0.09143215 0.2674486
v -0.08673851 -0.1748022 0.003143189
v -0.08673852 -0.1926394 0.03909846
v -0.05940581 -0.21306 0.03498364
v -0.05940581 -0.1952228 -0.0009716323
v 0.1435578 -0.1642509 0.008519159
v 0.1518025 -0.1490453 0.008777874
v 0.1435137 0.02359005 0.00898241
v 0.07639995 -0.1976112 0.006640458
v 0.05307969 0.008761371 -0.02755251
v -0.09373876 -0.1448763 0.1391313
v -0.06542329 -0.1933773 0.135646
v -0.08673852 -0.1926394 0.03909846
v -0.08673851 -0.1748022 0.003143189
v 0.0632214 -0.09143215 0.2674486
v -0.0879996 -0.1193339 0.2754027
v -0.05303916 -0.008208957 0.2947699
v 0.06283624 0.01077315 0.2849394
v 0.1444086 0.02384005 0.1183339
v 0.1664324 0.02734718 0.04491825
v 0.1702674 -0.1065336 0.044181
v 0.1433465 -0.1131029 0.0918058
v 0.1444086 0.02384005 0.1183339
v 0.1433465 -0.1131029 0.0918058
v 0.1152024 -0.03097028 0.2210446
v 0.1231796 0.02049979 0.2177308
v -0.1378659 -0.01367848 0.2825025
v -0.1580757 -0.0256954 0.1553271
v -0.1451078 0.1674788 0.1523881
v -0.1216418 0.1160493 0.2751139
v 0.1010633 0.01690901 0.2424896
v 0.1231796 0.02049979 0.2177308
v 0.1152024 -0.03097028 0.2210446
v 0.09745459 -0.05075354 0.2332809
v 0.09624847 0.2200003 0.008300928
v 0.1435137 0.02359005 0.00898241
v 0.1664324 0.02734718 0.04491825
v 0.1273206 0.1856079 0.0438123
v 0.07363805 0.2000653 0.09247779
v 0.09624847 0.2200003 0.008300928
v 0.1273206 0.1856079 0.0438123
v 0.09968988 0.1833684 0.091431
v 0.09968988 0.1833684 0.091431
v 0.1052124 0.08219879 0.1847124
v 0.08232141 0.09699982 0.1976289
v 0.07363805 0.2000653 0.09247779
v 0.08232141 0.09699982 0.1976289
v 0.1010633 0.01690901 0.2424896
v 0.06283624 0.01077315 0.2849394
v 0.03057626 0.1378691 0.2671683
v 0.07363805 0.2000653 0.09247779
v 0.08232141 0.09699982 0.1976289
v 0.03057626 0.1378691 0.2671683
v 0.005554437 0.2137974 0.1557454
v 0.005554437 0.2137974 0.1557454
v -0.1451078 0.1674788 0.1523881
v -0.1186443 0.1962978 -0.001480209
v 0.009287165 0.241943 0.006064279
v -0.1613277 -0.02639304 0.002476826
v -0.0970221 -0.01585117 -0.03162144
v -0.1186443 0.1962978 -0.001480209
v -0.1380281 0.1682304 0.002702856
v -0.1380281 0.1682304 0.002702856
v -0.1451078 0.1674788 0.1523881
v -0.1580757 -0.0256954 0.1553271
v -0.1613277 -0.02639304 0.002476826
v 0.005554437 0.2137974 0.1557454
v 0.03057626 0.1378691 0.2671683
v -0.1216418 0.1160493 0.2751139
v -0.1451078 0.1674788 0.1523881
v 0.05307969 0.008761371 -0.02755251
v 0.1435137 0.02359005 0.00898241
v 0.09624847 0.2200003 0.008300928
v 0.08358046 0.2317767 0.008004239
v 0.009287165 0.241943 0.006064279
v 0.07363805 0.2000653 0.09247779
v 0.005554437 0.2137974 0.1557454
v 0.009287165 0.241943 0.006064279
v 0.08358046 0.2317767 0.008004239
v 0.03057626 0.1378691 0.2671683
v 0.06283624 0.01077315 0.2849394
v -0.05303916 -0.008208957 0.2947699
v -0.1216418 0.1160493 0.2751139
v 0.1444086 0.02384005 0.1183339
v 0.09968988 0.1833684 0.091431
v 0.1273206 0.1856079 0.0438123
v 0.1664324 0.02734718 0.04491825
v 0.1444086 0.02384005 0.1183339
v 0.1231796 0.02049979 0.2177308
v 0.1052124 0.08219879 0.1847124
v 0.09968988 0.1833684 0.091431
v 0.1010633 0.01690901 0.2424896
v 0.08232141 0.09699982 0.1976289
v 0.1052124 0.08219879 0.1847124
v 0.1231796 0.02049979 0.2177308
v 0.06581596 -0.1944032 0.1415173
v 0.07639994 -0.2154484 0.04259573
v -0.05940581 -0.21306 0.03498364
v -0.06542329 -0.1933773 0.135646
v 0.1112661 -0.1615059 0.08309118
v 0.1435578 -0.182088 0.04447443
v 0.07639994 -0.2154484 0.04259573
v 0.06581596 -0.1944032 0.1415173
v 0.1435578 -0.1642509 0.008519159
v 0.1435578 -0.182088 0.04447443
v 0.1112661 -0.1615059 0.08309118
v 0.1239889 -0.1372409 0.09291007
v 0.1239889 -0.1372409 0.09291007
v 0.1112661 -0.1615059 0.08309118
v 0.06581596 -0.1944032 0.1415173
v 0.06382498 -0.1406566 0.1425479
v 0.06382498 -0.1406566 0.1425479
v 0.06581596 -0.1944032 0.1415173
v -0.06542329 -0.1933773 0.135646
v -0.09373876 -0.1448763 0.1391313
v -0.05940581 -0.1952228 -0.0009716323
v -0.05940581 -0.21306 0.03498364
v 0.07639994 -0.2154484 0.04259573
v 0.07639995 -0.1976112 0.006640458
v -0.09373876 -0.1448763 0.1391313
v -0.1580757 -0.0256954 0.1553271
v -0.1378659 -0.01367848 0.2825025
v -0.0879996 -0.1193339 0.2754027
v -0.0970221 -0.01585117 -0.03162144
v 0.05307969 0.008761371 -0.02755251
v 0.009287165 0.241943 0.006064279
v -0.1186443 0.1962978 -0.001480209
v -0.05940581 -0.1952228 -0.0009716323
v 0.07639995 -0.1976112 0.006640458
v 0.05307969 0.008761371 -0.02755251
v -0.0970221 -0.01585117 -0.03162144
vn -0.1337891 -0.1291504 0.9824219
vn -0.1337891 -0.1291504 0.9824219
vn -0.1337891 -0.1291504 0.9824219
vn 0.8251953 -0.4533691 0.3364258
vn 0.8251953 -0.4533691 0.3364258
vn 0.8251953 -0.4533691 0.3364258
vn -0.1474609 0.07458496 0.9863281
vn -0.1474609 0.07458496 0.9863281
vn -0.1474609 0.07458496 0.9863281
vn 0.637207 0.6938477 0.3354492
vn 0.637207 0.6938477 0.3354492
vn 0.637207 0.6938477 0.3354492
vn -0.824707 0.5644531 -0.03619385
vn -0.824707 0.5644531 -0.03619385
vn -0.824707 0.5644531 -0.03619385
vn -0.5820313 -0.8037109 0.1223755
vn -0.5820313 -0.8037109 0.1223755
vn -0.5820313 -0.8037109 0.1223755
vn 0.8544922 0.03536987 -0.5185547
vn 0.8544922 0.03536987 -0.5185547
vn 0.8544922 0.03536987 -0.5185547
vn 0.8544922 0.03536987 -0.5185547
vn 0.737793 -0.5883789 0.3300781
vn 0.737793 -0.5883789 0.3300781
vn 0.737793 -0.5883789 0.3300781
vn 0.737793 -0.5883789 0.3300781
vn 0.7431641 -0.4890137 0.456543
vn 0.7431641 -0.4890137 0.456543
vn 0.7431641 -0.4890137 0.456543
vn 0.7431641 -0.4890137 0.456543
vn 0.7558594 -0.1156006 0.6445313
vn 0.7558594 -0.1156006 0.6445313
vn 0.7558594 -0.1156006 0.6445313
vn 0.7558594 -0.1156006 0.6445313
vn 0.6533203 -0.6445313 0.3967285
vn 0.6533203 -0.6445313 0.3967285
vn 0.6533203 -0.6445313 0.3967285
vn 0.6533203 -0.6445313 0.3967285
vn 0.4160156 -0.8144531 -0.4040527
vn 0.4160156 -0.8144531 -0.4040527
vn 0.4160156 -0.8144531 -0.4040527
vn 0.4160156 -0.8144531 -0.4040527
vn -0.3955078 -0.2205811 -0.8916016
vn -0.3955078 -0.2205811 -0.8916016
vn -0.3955078 -0.2205811 -0.8916016
vn -0.3955078 -0.2205811 -0.8916016
vn -0.8862305 -0.4621582 0.0375061
vn -0.8862305 -0.4621582 0.0375061
vn -0.8862305 -0.4621582 0.0375061
vn -0.8862305 -0.4621582 0.0375061
vn 0.1035156 -0.956543 0.2719727
vn 0.1035156 -0.956543 0.2719727
vn 0.1035156 -0.956543 0.2719727
vn 0.1035156 -0.956543 0.2719727
vn -0.5927734 -0.7211914 -0.3579102
vn -0.5927734 -0.7211914 -0.3579102
vn -0.5927734 -0.7211914 -0.3579102
vn -0.5927734 -0.7211914 -0.3579102
vn 0.2456055 -0.06427002 -0.9672852
vn 0.2456055 -0.06427002 -0.9672852
vn 0.2456055 -0.06427002 -0.9672852
vn 0.2456055 -0.06427002 -0.9672852
vn 0.2456055 -0.06427002 -0.9672852
vn -0.9321289 -0.3483887 0.1010742
vn -0.9321289 -0.3483887 0.1010742
vn -0.9321289 -0.3483887 0.1010742
vn -0.9321289 -0.3483887 0.1010742
vn 0.09753418 -0.1848145 0.9780273
vn 0.09753418 -0.1848145 0.9780273
vn 0.09753418 -0.1848145 0.9780273
vn 0.09753418 -0.1848145 0.9780273
vn 0.9277344 -0.0280304 0.3728027
vn 0.9277344 -0.0280304 0.3728027
vn 0.9277344 -0.0280304 0.3728027
vn 0.9277344 -0.0280304 0.3728027
vn 0.9692383 -0.07550049 0.2352295
vn 0.9692383 -0.07550049 0.2352295
vn 0.9692383 -0.07550049 0.2352295
vn 0.9692383 -0.07550049 0.2352295
vn -0.9780273 0.09436035 0.185791
vn -0.9780273 0.09436035 0.185791
vn -0.9780273 0.09436035 0.185791
vn -0.9780273 0.09436035 0.185791
vn 0.7084961 -0.1034546 0.6982422
vn 0.7084961 -0.1034546 0.6982422
vn 0.7084961 -0.1034546 0.6982422
vn 0.7084961 -0.1034546 0.6982422
vn 0.8208008 0.1972656 -0.5356445
vn 0.8208008 0.1972656 -0.5356445
vn 0.8208008 0.1972656 -0.5356445
vn 0.8208008 0.1972656 -0.5356445
vn 0.5117188 0.7939453 0.3286133
vn 0.5117188 0.7939453 0.3286133
vn 0.5117188 0.7939453 0.3286133
vn 0.5117188 0.7939453 0.3286133
vn 0.5517578 0.6005859 0.5786133
vn 0.5517578 0.6005859 0.5786133
vn 0.5517578 0.6005859 0.5786133
vn 0.5517578 0.6005859 0.5786133
vn 0.7802734 0.348877 0.5185547
vn 0.7802734 0.348877 0.5185547
vn 0.7802734 0.348877 0.5185547
vn 0.7802734 0.348877 0.5185547
vn 0.7011719 0.5991211 0.3862305
vn 0.7011719 0.5991211 0.3862305
vn 0.7011719 0.5991211 0.3862305
vn 0.7011719 0.5991211 0.3862305
vn -0.3151855 0.9379883 0.1446533
vn -0.3151855 0.9379883 0.1446533
vn -0.3151855 0.9379883 0.1446533
vn -0.3151855 0.9379883 0.1446533
vn -0.440918 0.06860352 -0.8950195
vn -0.440918 0.06860352 -0.8950195
vn -0.440918 0.06860352 -0.8950195
vn -0.440918 0.06860352 -0.8950195
vn -0.9956055 0.09301758 -0.01258087
vn -0.9956055 0.09301758 -0.01258087
vn -0.9956055 0.09301758 -0.01258087
vn -0.9956055 0.09301758 -0.01258087
vn -0.1829834 0.847168 0.4987793
vn -0.1829834 0.847168 0.4987793
vn -0.1829834 0.847168 0.4987793
vn -0.1829834 0.847168 0.4987793
vn 0.2131348 0.118042 -0.9697266
vn 0.2131348 0.118042 -0.9697266
vn 0.2131348 0.118042 -0.9697266
vn 0.2131348 0.118042 -0.9697266
vn 0.2131348 0.118042 -0.9697266
vn 0.2653809 0.9301758 0.253418
vn 0.2653809 0.9301758 0.253418
vn 0.2653809 0.9301758 0.253418
vn 0.2653809 0.9301758 0.253418
vn 0.04055786 0.1630859 0.9858398
vn 0.04055786 0.1630859 0.9858398
vn 0.04055786 0.1630859 0.9858398
vn 0.04055786 0.1630859 0.9858398
vn 0.887207 0.2670898 0.3764648
vn 0.887207 0.2670898 0.3764648
vn 0.887207 0.2670898 0.3764648
vn 0.887207 0.2670898 0.3764648
vn 0.9111328 0.3261719 0.2512207
vn 0.9111328 0.3261719 0.2512207
vn 0.9111328 0.3261719 0.2512207
vn 0.9111328 0.3261719 0.2512207
vn 0.6274414 0.4934082 0.6025391
vn 0.6274414 0.4934082 0.6025391
vn 0.6274414 0.4934082 0.6025391
vn 0.6274414 0.4934082 0.6025391
vn -0.02253723 -0.9799805 0.1981201
vn -0.02253723 -0.9799805 0.1981201
vn -0.02253723 -0.9799805 0.1981201
vn -0.02253723 -0.9799805 0.1981201
vn 0.6054688 -0.6894531 0.3974609
vn 0.6054688 -0.6894531 0.3974609
vn 0.6054688 -0.6894531 0.3974609
vn 0.6054688 -0.6894531 0.3974609
vn 0.9169922 -0.02990723 0.3981934
vn 0.9169922 -0.02990723 0.3981934
vn 0.9169922 -0.02990723 0.3981934
vn 0.9169922 -0.02990723 0.3981934
vn 0.7333984 -0.1916504 0.6523438
vn 0.7333984 -0.1916504 0.6523438
vn 0.7333984 -0.1916504 0.6523438
vn 0.7333984 -0.1916504 0.6523438
vn -0.03149414 -0.05340576 0.9980469
vn -0.03149414 -0.05340576 0.9980469
vn -0.03149414 -0.05340576 0.9980469
vn -0.03149414 -0.05340576 0.9980469
vn 0.009155273 -0.8959961 -0.4443359
vn 0.009155273 -0.8959961 -0.4443359
vn 0.009155273 -0.8959961 -0.4443359
vn 0.009155273 -0.8959961 -0.4443359
vn -0.875 -0.4599609 0.1517334
vn -0.875 -0.4599609 0.1517334
vn -0.875 -0.4599609 0.1517334
vn -0.875 -0.4599609 0.1517334
vn 0.005336761 0.1424561 -0.9897461
vn 0.005336761 0.1424561 -0.9897461
vn 0.005336761 0.1424561 -0.9897461
vn 0.005336761 0.1424561 -0.9897461
vn 0.05252075 -0.1574707 -0.9863281
vn 0.05252075 -0.1574707 -0.9863281
vn 0.05252075 -0.1574707 -0.9863281
vn 0.05252075 -0.1574707 -0.9863281
g Rock_5_0
f 3/3/3 2/2/2 1/1/1
f 6/6/6 5/5/5 4/4/4
f 9/9/9 8/8/8 7/7/7
f 12/12/12 11/11/11 10/10/10
f 15/15/15 14/14/14 13/13/13
f 18/18/18 17/17/17 16/16/16
f 21/21/21 20/20/20 19/19/19
f 22/22/22 21/21/21 19/19/19
f 25/25/25 24/24/24 23/23/23
f 26/26/26 25/25/25 23/23/23
f 29/29/29 28/28/28 27/27/27
f 30/30/30 29/29/29 27/27/27
f 33/33/33 32/32/32 31/31/31
f 34/34/34 33/33/33 31/31/31
f 37/37/37 36/36/36 35/35/35
f 38/38/38 37/37/37 35/35/35
f 41/41/41 40/40/40 39/39/39
f 42/42/42 41/41/41 39/39/39
f 45/45/45 44/44/44 43/43/43
f 46/46/46 45/45/45 43/43/43
f 49/49/49 48/48/48 47/47/47
f 50/50/50 49/49/49 47/47/47
f 53/53/53 52/52/52 51/51/51
f 54/54/54 53/53/53 51/51/51
f 57/57/57 56/56/56 55/55/55
f 58/58/58 57/57/57 55/55/55
f 61/61/61 60/60/60 59/59/59
f 59/59/59 62/62/62 61/61/61
f 62/62/62 63/63/63 61/61/61
f 66/66/66 65/65/65 64/64/64
f 67/67/67 66/66/66 64/64/64
f 70/70/70 69/69/69 68/68/68
f 71/71/71 70/70/70 68/68/68
f 74/74/74 73/73/73 72/72/72
f 75/75/75 74/74/74 72/72/72
f 78/78/78 77/77/77 76/76/76
f 79/79/79 78/78/78 76/76/76
f 82/82/82 81/81/81 80/80/80
f 83/83/83 82/82/82 80/80/80
f 86/86/86 85/85/85 84/84/84
f 87/87/87 86/86/86 84/84/84
f 90/90/90 89/89/89 88/88/88
f 91/91/91 90/90/90 88/88/88
f 94/94/94 93/93/93 92/92/92
f 95/95/95 94/94/94 92/92/92
f 98/98/98 97/97/97 96/96/96
f 99/99/99 98/98/98 96/96/96
f 102/102/102 101/101/101 100/100/100
f 103/103/103 102/102/102 100/100/100
f 106/106/106 105/105/105 104/104/104
f 107/107/107 106/106/106 104/104/104
f 110/110/110 109/109/109 108/108/108
f 111/111/111 110/110/110 108/108/108
f 114/114/114 113/113/113 112/112/112
f 115/115/115 114/114/114 112/112/112
f 118/118/118 117/117/117 116/116/116
f 119/119/119 118/118/118 116/116/116
f 122/122/122 121/121/121 120/120/120
f 123/123/123 122/122/122 120/120/120
f 126/126/126 125/125/125 124/124/124
f 124/124/124 127/127/127 126/126/126
f 124/124/124 128/128/128 127/127/127
f 131/131/131 130/130/130 129/129/129
f 132/132/132 131/131/131 129/129/129
f 135/135/135 134/134/134 133/133/133
f 136/136/136 135/135/135 133/133/133
f 139/139/139 138/138/138 137/137/137
f 140/140/140 139/139/139 137/137/137
f 143/143/143 142/142/142 141/141/141
f 144/144/144 143/143/143 141/141/141
f 147/147/147 146/146/146 145/145/145
f 148/148/148 147/147/147 145/145/145
f 151/151/151 150/150/150 149/149/149
f 152/152/152 151/151/151 149/149/149
f 155/155/155 154/154/154 153/153/153
f 156/156/156 155/155/155 153/153/153
f 159/159/159 158/158/158 157/157/157
f 160/160/160 159/159/159 157/157/157
f 163/163/163 162/162/162 161/161/161
f 164/164/164 163/163/163 161/161/161
f 167/167/167 166/166/166 165/165/165
f 168/168/168 167/167/167 165/165/165
f 171/171/171 170/170/170 169/169/169
f 172/172/172 171/171/171 169/169/169
f 175/175/175 174/174/174 173/173/173
f 176/176/176 175/175/175 173/173/173
f 179/179/179 178/178/178 177/177/177
f 180/180/180 179/179/179 177/177/177
f 183/183/183 182/182/182 181/181/181
f 184/184/184 183/183/183 181/181/181
