g round_marker_V1_P1_L0
v 0 0.036 -0.024
v 0.01800002 0.0311769 0.024
v 0 0.036 0.024
v 0.01800002 0.0311769 -0.024
v 0.03117692 0.01799998 0.024
v 0.03117692 0.01799998 -0.024
v 0.036 -1.673684E-08 0.024
v 0.036 -1.673684E-08 -0.024
v 0.03117691 -0.01800001 0.024
v 0.03117691 -0.01800001 -0.024
v 0.01799999 -0.03117692 0.024
v 0.01799999 -0.03117692 -0.024
v -5.435849E-09 -0.036 0.024
v -5.435849E-09 -0.036 -0.024
v -5.435849E-09 -0.036 -0.024
v -0.018 -0.03117691 0.024
v -5.435849E-09 -0.036 0.024
v -0.018 -0.03117691 -0.024
v -0.03117691 -0.018 0.024
v -0.03117691 -0.018 -0.024
v -0.036 -1.57361E-09 0.024
v -0.036 -1.57361E-09 -0.024
v -0.03117692 0.018 0.024
v -0.03117692 0.018 -0.024
v -0.018 0.03117691 0.024
v -0.018 0.03117691 -0.024
v 0 0.036 0.024
v 0 0.036 -0.024
v -8.35E-10 0.02978834 0.03
v 0.01489419 0.02579745 0.03
v -0.01489417 0.02579746 0.03
v 0.02579747 0.01489416 0.03
v -0.02579746 0.01489417 0.03
v 0.02978834 -1.387971E-08 0.03
v -0.02978834 -1.298683E-09 0.03
v 0.02579745 -0.01489418 0.03
v -0.02579746 -0.01489417 0.03
v 0.01489416 -0.02579746 0.03
v -0.01489417 -0.02579746 0.03
v -4.768896E-09 -0.02978834 0.03
v -8.35E-10 0.02978834 -0.03
v -0.01489417 0.02579746 -0.03
v 0.01489419 0.02579745 -0.03
v 0.02579747 0.01489416 -0.03
v -0.02579746 0.01489417 -0.03
v 0.02978834 -1.387971E-08 -0.03
v -0.02978834 -1.298683E-09 -0.03
v 0.02579745 -0.01489418 -0.03
v -0.02579746 -0.01489417 -0.03
v 0.01489416 -0.02579746 -0.03
v -0.01489417 -0.02579746 -0.03
v -4.768896E-09 -0.02978834 -0.03
v -0.018 -0.03117691 0.024
v -0.01489417 -0.02579746 0.03
v -4.768896E-09 -0.02978834 0.03
v -5.435849E-09 -0.036 0.024
v -0.03117691 -0.018 0.024
v 0.01489416 -0.02579746 0.03
v -0.02579746 -0.01489417 0.03
v 0.01799999 -0.03117692 0.024
v -0.036 -1.57361E-09 0.024
v 0.02579745 -0.01489418 0.03
v -0.02978834 -1.298683E-09 0.03
v 0.03117691 -0.01800001 0.024
v -0.03117692 0.018 0.024
v 0.02978834 -1.387971E-08 0.03
v -0.02579746 0.01489417 0.03
v 0.036 -1.673684E-08 0.024
v -0.018 0.03117691 0.024
v 0.02579747 0.01489416 0.03
v -0.01489417 0.02579746 0.03
v 0.03117692 0.01799998 0.024
v 0 0.036 0.024
v 0.01489419 0.02579745 0.03
v -8.35E-10 0.02978834 0.03
v 0.01800002 0.0311769 0.024
v -0.018 -0.03117691 -0.024
v -4.768896E-09 -0.02978834 -0.03
v -0.01489417 -0.02579746 -0.03
v -5.435849E-09 -0.036 -0.024
v -0.03117691 -0.018 -0.024
v 0.01489416 -0.02579746 -0.03
v -0.02579746 -0.01489417 -0.03
v 0.01799999 -0.03117692 -0.024
v -0.036 -1.57361E-09 -0.024
v 0.02579745 -0.01489418 -0.03
v -0.02978834 -1.298683E-09 -0.03
v 0.03117691 -0.01800001 -0.024
v -0.03117692 0.018 -0.024
v 0.02978834 -1.387971E-08 -0.03
v -0.02579746 0.01489417 -0.03
v 0.036 -1.673684E-08 -0.024
v -0.018 0.03117691 -0.024
v 0.02579747 0.01489416 -0.03
v -0.01489417 0.02579746 -0.03
v 0.03117692 0.01799998 -0.024
v 0 0.036 -0.024
v 0.01489419 0.02579745 -0.03
v -8.35E-10 0.02978834 -0.03
v 0.01800002 0.0311769 -0.024
vt 0.2754964 0.6284489
vt 0.009992932 0.5253728
vt 0.009992932 0.6284489
vt 0.2754964 0.5253728
vt 0.009992932 0.4222968
vt 0.2754964 0.4222968
vt 0.009992843 0.3192208
vt 0.2754964 0.3192208
vt 0.009992932 0.2161448
vt 0.2754964 0.2161449
vt 0.009992932 0.1130688
vt 0.2754962 0.1130689
vt 0.009993051 0.009992871
vt 0.2754964 0.009993081
vt 0.2954838 0.009992905
vt 0.5609872 0.1130688
vt 0.5609872 0.009992871
vt 0.2954838 0.1130688
vt 0.5609872 0.2161448
vt 0.2954839 0.2161448
vt 0.5609872 0.3192208
vt 0.2954839 0.3192208
vt 0.5609872 0.4222968
vt 0.2954839 0.4222968
vt 0.5609872 0.5253726
vt 0.2954838 0.5253726
vt 0.5609872 0.6284485
vt 0.2954839 0.6284485
vt 0.6615992 0.3433881
vt 0.740139 0.388733
vt 0.6162545 0.2648486
vt 0.8308284 0.388733
vt 0.6162544 0.174159
vt 0.9093679 0.343388
vt 0.6615993 0.09561935
vt 0.9547127 0.2648486
vt 0.7401389 0.05027462
vt 0.9547128 0.174159
vt 0.8308284 0.05027456
vt 0.909368 0.09561941
vt 0.8740983 0.8730671
vt 0.9194431 0.7945276
vt 0.7955587 0.918412
vt 0.704869 0.918412
vt 0.919443 0.703838
vt 0.6263297 0.8730671
vt 0.8740981 0.6252985
vt 0.5809847 0.7945276
vt 0.7955587 0.5799537
vt 0.5809847 0.7038382
vt 0.7048691 0.5799536
vt 0.6263295 0.6252986
vt 0.8402841 0.01498581
vt 0.8308284 0.05027456
vt 0.909368 0.09561941
vt 0.9352012 0.06978627
vt 0.7306833 0.01498581
vt 0.9547128 0.174159
vt 0.7401389 0.05027462
vt 0.9900016 0.1647033
vt 0.6357661 0.06978627
vt 0.9547127 0.2648486
vt 0.6615993 0.09561935
vt 0.9900016 0.2743042
vt 0.5809658 0.1647033
vt 0.9093679 0.343388
vt 0.6162544 0.174159
vt 0.9352013 0.3692213
vt 0.5809657 0.2743042
vt 0.8308284 0.388733
vt 0.6162545 0.2648486
vt 0.8402842 0.4240217
vt 0.6357661 0.3692212
vt 0.740139 0.388733
vt 0.6615992 0.3433881
vt 0.7306833 0.4240218
vt 0.6954134 0.5446649
vt 0.6263295 0.6252986
vt 0.7048691 0.5799536
vt 0.6004964 0.5994655
vt 0.8050142 0.5446649
vt 0.5809847 0.7038382
vt 0.7955587 0.5799537
vt 0.5456961 0.6943825
vt 0.8999313 0.5994653
vt 0.5809847 0.7945276
vt 0.8740981 0.6252985
vt 0.545696 0.8039833
vt 0.9547318 0.6943823
vt 0.6263297 0.8730671
vt 0.919443 0.703838
vt 0.6004963 0.8989003
vt 0.9547318 0.8039833
vt 0.704869 0.918412
vt 0.9194431 0.7945276
vt 0.6954135 0.9537008
vt 0.8999315 0.8989003
vt 0.7955587 0.918412
vt 0.8740983 0.8730671
vt 0.8050143 0.9537008
vn 0 1 0
vn 0.5000004 0.8660253 0
vn 0 1 0
vn 0.5000004 0.8660253 0
vn 0.8660258 0.4999994 0
vn 0.8660258 0.4999994 0
vn 1 0 0
vn 1 0 0
vn 0.8660253 -0.5000003 0
vn 0.8660253 -0.5000003 0
vn 0.4999998 -0.8660255 0
vn 0.4999998 -0.8660255 0
vn 0 -1 0
vn 0 -1 0
vn 0 -1 0
vn -0.5 -0.8660254 0
vn 0 -1 0
vn -0.5 -0.8660254 0
vn -0.8660254 -0.5 0
vn -0.8660254 -0.5 0
vn -1 0 0
vn -1 0 0
vn -0.8660254 0.5 0
vn -0.8660254 0.5 0
vn -0.5 0.8660254 0
vn -0.5 0.8660254 0
vn 0 1 0
vn 0 1 0
vn 0 0 1
vn 0 0 1
vn 0 0 1
vn 0 0 1
vn 0 0 1
vn 0 0 1
vn 0 0 1
vn 0 0 1
vn 0 0 1
vn 0 0 1
vn 0 0 1
vn 0 0 1
vn 0 0 -1
vn 0 0 -1
vn 0 0 -1
vn 0 0 -1
vn 0 0 -1
vn 0 0 -1
vn 0 0 -1
vn 0 0 -1
vn 0 0 -1
vn 0 0 -1
vn 0 0 -1
vn 0 0 -1
vn -0.3473733 -0.6016681 0.7192547
vn -0.3473733 -0.6016681 0.7192547
vn 0 -0.6947466 0.7192546
vn 0 -0.6947466 0.7192546
vn -0.6016682 -0.3473732 0.7192547
vn 0.3473732 -0.6016684 0.7192546
vn -0.6016682 -0.3473732 0.7192546
vn 0.3473732 -0.6016684 0.7192546
vn -0.6947466 0 0.7192546
vn 0.6016679 -0.3473735 0.7192548
vn -0.6947466 0 0.7192546
vn 0.6016679 -0.3473736 0.7192549
vn -0.6016681 0.3473732 0.7192547
vn 0.6947464 0 0.7192548
vn -0.6016681 0.3473732 0.7192548
vn 0.6947464 0 0.7192548
vn -0.3473733 0.6016681 0.7192546
vn 0.6016685 0.3473729 0.7192546
vn -0.3473733 0.6016681 0.7192546
vn 0.6016685 0.3473729 0.7192546
vn 0 0.6947466 0.7192546
vn 0.3473737 0.601668 0.7192546
vn 0 0.6947467 0.7192546
vn 0.3473737 0.601668 0.7192546
vn -0.3473733 -0.6016682 -0.7192546
vn 0 -0.6947466 -0.7192546
vn -0.3473733 -0.6016681 -0.7192547
vn 0 -0.6947466 -0.7192546
vn -0.6016682 -0.3473732 -0.7192547
vn 0.3473732 -0.6016683 -0.7192546
vn -0.6016682 -0.3473732 -0.7192546
vn 0.3473732 -0.6016683 -0.7192546
vn -0.6947466 0 -0.7192546
vn 0.6016679 -0.3473735 -0.7192548
vn -0.6947466 0 -0.7192546
vn 0.6016679 -0.3473735 -0.7192548
vn -0.6016682 0.3473732 -0.7192547
vn 0.6947464 0 -0.7192547
vn -0.6016681 0.3473732 -0.7192547
vn 0.6947464 0 -0.7192547
vn -0.3473734 0.6016682 -0.7192546
vn 0.6016684 0.3473729 -0.7192546
vn -0.3473734 0.6016682 -0.7192546
vn 0.6016685 0.3473729 -0.7192546
vn 0 0.6947467 -0.7192546
vn 0.3473737 0.601668 -0.7192546
vn 0 0.6947467 -0.7192546
vn 0.3473737 0.601668 -0.7192546
g round_marker_V1_P1_L0_0
f 3/3/3 2/2/2 1/1/1
f 2/2/2 4/4/4 1/1/1
f 2/2/2 5/5/5 4/4/4
f 5/5/5 6/6/6 4/4/4
f 5/5/5 7/7/7 6/6/6
f 7/7/7 8/8/8 6/6/6
f 7/7/7 9/9/9 8/8/8
f 9/9/9 10/10/10 8/8/8
f 9/9/9 11/11/11 10/10/10
f 11/11/11 12/12/12 10/10/10
f 11/11/11 13/13/13 12/12/12
f 13/13/13 14/14/14 12/12/12
f 17/17/17 16/16/16 15/15/15
f 16/16/16 18/18/18 15/15/15
f 16/16/16 19/19/19 18/18/18
f 19/19/19 20/20/20 18/18/18
f 19/19/19 21/21/21 20/20/20
f 21/21/21 22/22/22 20/20/20
f 21/21/21 23/23/23 22/22/22
f 23/23/23 24/24/24 22/22/22
f 23/23/23 25/25/25 24/24/24
f 25/25/25 26/26/26 24/24/24
f 25/25/25 27/27/27 26/26/26
f 27/27/27 28/28/28 26/26/26
f 31/31/31 30/30/30 29/29/29
f 32/32/32 30/30/30 31/31/31
f 33/33/33 32/32/32 31/31/31
f 34/34/34 32/32/32 33/33/33
f 35/35/35 34/34/34 33/33/33
f 36/36/36 34/34/34 35/35/35
f 37/37/37 36/36/36 35/35/35
f 38/38/38 36/36/36 37/37/37
f 39/39/39 38/38/38 37/37/37
f 39/39/39 40/40/40 38/38/38
f 43/43/43 42/42/42 41/41/41
f 43/43/43 44/44/44 42/42/42
f 44/44/44 45/45/45 42/42/42
f 44/44/44 46/46/46 45/45/45
f 46/46/46 47/47/47 45/45/45
f 46/46/46 48/48/48 47/47/47
f 48/48/48 49/49/49 47/47/47
f 48/48/48 50/50/50 49/49/49
f 50/50/50 51/51/51 49/49/49
f 52/52/52 51/51/51 50/50/50
f 55/55/55 54/54/54 53/53/53
f 56/56/56 55/55/55 53/53/53
f 53/53/53 54/54/54 57/57/57
f 58/58/58 55/55/55 56/56/56
f 54/54/54 59/59/59 57/57/57
f 60/60/60 58/58/58 56/56/56
f 57/57/57 59/59/59 61/61/61
f 62/62/62 58/58/58 60/60/60
f 59/59/59 63/63/63 61/61/61
f 64/64/64 62/62/62 60/60/60
f 61/61/61 63/63/63 65/65/65
f 66/66/66 62/62/62 64/64/64
f 63/63/63 67/67/67 65/65/65
f 68/68/68 66/66/66 64/64/64
f 65/65/65 67/67/67 69/69/69
f 70/70/70 66/66/66 68/68/68
f 67/67/67 71/71/71 69/69/69
f 72/72/72 70/70/70 68/68/68
f 69/69/69 71/71/71 73/73/73
f 74/74/74 70/70/70 72/72/72
f 71/71/71 75/75/75 73/73/73
f 76/76/76 74/74/74 72/72/72
f 73/73/73 75/75/75 76/76/76
f 75/75/75 74/74/74 76/76/76
f 79/79/79 78/78/78 77/77/77
f 78/78/78 80/80/80 77/77/77
f 79/79/79 77/77/77 81/81/81
f 78/78/78 82/82/82 80/80/80
f 83/83/83 79/79/79 81/81/81
f 82/82/82 84/84/84 80/80/80
f 83/83/83 81/81/81 85/85/85
f 82/82/82 86/86/86 84/84/84
f 87/87/87 83/83/83 85/85/85
f 86/86/86 88/88/88 84/84/84
f 87/87/87 85/85/85 89/89/89
f 86/86/86 90/90/90 88/88/88
f 91/91/91 87/87/87 89/89/89
f 90/90/90 92/92/92 88/88/88
f 91/91/91 89/89/89 93/93/93
f 90/90/90 94/94/94 92/92/92
f 95/95/95 91/91/91 93/93/93
f 94/94/94 96/96/96 92/92/92
f 95/95/95 93/93/93 97/97/97
f 94/94/94 98/98/98 96/96/96
f 99/99/99 95/95/95 97/97/97
f 98/98/98 100/100/100 96/96/96
f 99/99/99 97/97/97 100/100/100
f 98/98/98 99/99/99 100/100/100
