g round_marker_V1_P3_L2
v -0.05562306 0.1711902 7.482961E-09
v -0.01799999 0.1771491 7.743433E-09
v -0.018 0.1411491 6.169824E-09
v -0.04449846 0.1369522 5.98637E-09
v -0.1058014 0.1456231 6.365387E-09
v -0.0846411 0.1164985 5.092311E-09
v -0.1456231 0.1058014 4.624724E-09
v -0.1164985 0.0846411 3.69978E-09
v -0.1711902 0.05562306 2.431361E-09
v -0.1369522 0.04449845 1.945089E-09
v -0.1771491 0.01800001 7.868053E-10
v -0.1411491 0.01800001 7.868052E-10
vt 0.748745 0.9341167
vt 0.9710551 0.9693272
vt 0.9710549 0.7566078
vt 0.8144789 0.7318088
vt 0.4522478 0.7830439
vt 0.5772811 0.6109505
vt 0.2169463 0.5477424
vt 0.3890398 0.4227092
vt 0.06587346 0.2512453
vt 0.2681815 0.1855113
vt 0.03066311 0.02893545
vt 0.2433825 0.02893545
vn 0 0 1
vn 0 0 1
vn 0 0 1
vn 0 0 1
vn 0 0 1
vn 0 0 1
vn 0 0 1
vn 0 0 1
vn 0 0 1
vn 0 0 1
vn 0 0 1
vn 0 0 1
g round_marker_V1_P3_L2_0
f 3/3/3 2/2/2 1/1/1
f 4/4/4 3/3/3 1/1/1
f 4/4/4 1/1/1 5/5/5
f 6/6/6 4/4/4 5/5/5
f 6/6/6 5/5/5 7/7/7
f 8/8/8 6/6/6 7/7/7
f 8/8/8 7/7/7 9/9/9
f 10/10/10 8/8/8 9/9/9
f 10/10/10 9/9/9 11/11/11
f 12/12/12 10/10/10 11/11/11
