g round_marker_V1_P1_L1
v 0.01799999 -0.03117692 0.03
v -5.435849E-09 -0.036 0.03
v -0.018 -0.03117691 0.03
v 0.03117691 -0.01800001 0.03
v -0.03117691 -0.018 0.03
v 0.036 -1.673684E-08 0.03
v -0.036 -1.57361E-09 0.03
v -0.03117692 0.018 0.03
v 0.03117692 0.01799998 0.03
v -0.018 0.03117691 0.03
v 0.01800002 0.0311769 0.03
v 0 0.036 0.03
v 0 0.036 -0.03
v 0.01800002 0.0311769 0.03
v 0 0.036 0.03
v 0.01800002 0.0311769 -0.03
v 0.03117692 0.01799998 0.03
v 0.03117692 0.01799998 -0.03
v 0.036 -1.673684E-08 0.03
v 0.036 -1.673684E-08 -0.03
v 0.03117691 -0.01800001 0.03
v 0.03117691 -0.01800001 -0.03
v 0.01799999 -0.03117692 0.03
v 0.01799999 -0.03117692 -0.03
v -5.435849E-09 -0.036 0.03
v -5.435849E-09 -0.036 -0.03
v -5.435849E-09 -0.036 -0.03
v -0.018 -0.03117691 0.03
v -5.435849E-09 -0.036 0.03
v -0.018 -0.03117691 -0.03
v -0.03117691 -0.018 0.03
v -0.03117691 -0.018 -0.03
v -0.036 -1.57361E-09 0.03
v -0.036 -1.57361E-09 -0.03
v -0.03117692 0.018 0.03
v -0.03117692 0.018 -0.03
v -0.018 0.03117691 0.03
v -0.018 0.03117691 -0.03
v 0 0.036 0.03
v 0 0.036 -0.03
v 0.01799999 -0.03117692 -0.03
v -0.018 -0.03117691 -0.03
v -5.435849E-09 -0.036 -0.03
v 0.03117691 -0.01800001 -0.03
v -0.03117691 -0.018 -0.03
v 0.036 -1.673684E-08 -0.03
v -0.036 -1.57361E-09 -0.03
v -0.03117692 0.018 -0.03
v 0.03117692 0.01799998 -0.03
v -0.018 0.03117691 -0.03
v 0.01800002 0.0311769 -0.03
v 0 0.036 -0.03
vt 0.6359113 0.6410918
vt 0.5865931 0.7265131
vt 0.5865931 0.8251491
vt 0.7213327 0.5917735
vt 0.635911 0.9105704
vt 0.8199687 0.5917736
vt 0.7213324 0.9598886
vt 0.8199683 0.9598886
vt 0.9053901 0.6410916
vt 0.90539 0.9105706
vt 0.9547081 0.726513
vt 0.954708 0.8251491
vt 0.3276146 0.6018482
vt 0.01003067 0.503212
vt 0.01003067 0.6018482
vt 0.3276146 0.503212
vt 0.01003067 0.404576
vt 0.3276146 0.404576
vt 0.01003076 0.3059399
vt 0.3276146 0.3059399
vt 0.01003082 0.2073037
vt 0.3276148 0.2073039
vt 0.01003082 0.1086677
vt 0.3276148 0.1086677
vt 0.01003082 0.01003153
vt 0.3276146 0.01003154
vt 0.3476795 0.01003153
vt 0.6652633 0.1086677
vt 0.6652632 0.0100317
vt 0.3476794 0.1086676
vt 0.6652633 0.2073038
vt 0.3476794 0.2073037
vt 0.6652632 0.3059399
vt 0.3476794 0.3059399
vt 0.6652633 0.404576
vt 0.3476793 0.4045761
vt 0.6652633 0.5032121
vt 0.3476794 0.5032122
vt 0.6652632 0.6018483
vt 0.3476794 0.6018483
vt 0.2434019 0.9899725
vt 0.05934435 0.9406543
vt 0.1447656 0.9899725
vt 0.3288233 0.9406543
vt 0.01002627 0.8552331
vt 0.3781412 0.855233
vt 0.01002627 0.756597
vt 0.05934429 0.6711757
vt 0.3781412 0.7565969
vt 0.1447655 0.6218575
vt 0.3288233 0.6711755
vt 0.2434017 0.6218574
vn 0 0 1
vn 0 0 1
vn 0 0 1
vn 0 0 1
vn 0 0 1
vn 0 0 1
vn 0 0 1
vn 0 0 1
vn 0 0 1
vn 0 0 1
vn 0 0 1
vn 0 0 1
vn 0 1 0
vn 0.5000005 0.8660251 0
vn 0 1 0
vn 0.5000005 0.8660251 0
vn 0.8660258 0.4999994 0
vn 0.8660258 0.4999994 0
vn 1 0 0
vn 1 0 0
vn 0.8660253 -0.5000004 0
vn 0.8660253 -0.5000004 0
vn 0.4999998 -0.8660255 0
vn 0.4999998 -0.8660255 0
vn 0 -1 0
vn 0 -1 0
vn 0 -1 0
vn -0.5 -0.8660254 0
vn 0 -1 0
vn -0.5 -0.8660254 0
vn -0.8660254 -0.5000001 0
vn -0.8660254 -0.5000001 0
vn -1 0 0
vn -1 0 0
vn -0.8660254 0.4999999 0
vn -0.8660254 0.4999999 0
vn -0.5 0.8660254 0
vn -0.5 0.8660254 0
vn 0 1 0
vn 0 1 0
vn 0 0 -1
vn 0 0 -1
vn 0 0 -1
vn 0 0 -1
vn 0 0 -1
vn 0 0 -1
vn 0 0 -1
vn 0 0 -1
vn 0 0 -1
vn 0 0 -1
vn 0 0 -1
vn 0 0 -1
g round_marker_V1_P1_L1_0
f 3/3/3 2/2/2 1/1/1
f 3/3/3 1/1/1 4/4/4
f 5/5/5 3/3/3 4/4/4
f 5/5/5 4/4/4 6/6/6
f 7/7/7 5/5/5 6/6/6
f 7/7/7 6/6/6 8/8/8
f 6/6/6 9/9/9 8/8/8
f 8/8/8 9/9/9 10/10/10
f 9/9/9 11/11/11 10/10/10
f 10/10/10 11/11/11 12/12/12
f 15/15/15 14/14/14 13/13/13
f 14/14/14 16/16/16 13/13/13
f 14/14/14 17/17/17 16/16/16
f 17/17/17 18/18/18 16/16/16
f 17/17/17 19/19/19 18/18/18
f 19/19/19 20/20/20 18/18/18
f 19/19/19 21/21/21 20/20/20
f 21/21/21 22/22/22 20/20/20
f 21/21/21 23/23/23 22/22/22
f 23/23/23 24/24/24 22/22/22
f 23/23/23 25/25/25 24/24/24
f 25/25/25 26/26/26 24/24/24
f 29/29/29 28/28/28 27/27/27
f 28/28/28 30/30/30 27/27/27
f 28/28/28 31/31/31 30/30/30
f 31/31/31 32/32/32 30/30/30
f 31/31/31 33/33/33 32/32/32
f 33/33/33 34/34/34 32/32/32
f 33/33/33 35/35/35 34/34/34
f 35/35/35 36/36/36 34/34/34
f 35/35/35 37/37/37 36/36/36
f 37/37/37 38/38/38 36/36/36
f 37/37/37 39/39/39 38/38/38
f 39/39/39 40/40/40 38/38/38
f 43/43/43 42/42/42 41/41/41
f 41/41/41 42/42/42 44/44/44
f 42/42/42 45/45/45 44/44/44
f 44/44/44 45/45/45 46/46/46
f 45/45/45 47/47/47 46/46/46
f 46/46/46 47/47/47 48/48/48
f 49/49/49 46/46/46 48/48/48
f 49/49/49 48/48/48 50/50/50
f 51/51/51 49/49/49 50/50/50
f 51/51/51 50/50/50 52/52/52
