g SchroomLeft01
v 0.1361844 0.0332518 -0.0428727
v 0.1764051 -0.0104631 -0.06865297
v 0.1820542 0.05219281 -0.05315591
v 0.1234358 -0.007697264 -0.0467879
v 0.05631765 0.006484624 -0.04509146
v 0.06374954 0.03933426 -0.02673129
v 0.1240641 -0.02781812 -0.03086774
v 0.1225997 -0.03943304 -0.00985393
v 0.1765882 -0.0496125 -0.03177243
v 0.181369 -0.05574338 0.02087404
v 0.128191 -0.02403829 0.03418788
v 0.1858042 -0.02939784 0.05257572
v 0.1251205 -0.00143469 0.04396816
v 0.1813899 0.006252369 0.06354302
v 0.1299487 0.02098877 0.03730552
v 0.189439 0.04564299 0.04805239
v 0.1331835 0.04419056 0.008960547
v 0.1852293 0.07133318 0.00511574
v 0.03113995 0.03725564 0.04013394
v 0.1361844 0.0332518 -0.0428727
v 0.1820542 0.05219281 -0.05315591
v 0.06374954 0.03933426 -0.02673129
v -0.02004488 0.05043219 -0.01267197
v -0.0202852 0.05253284 0.01997455
v -0.07303724 0.06558161 0.01129514
v 0.01256931 0.01202216 0.04343952
v -0.1135096 0.03674789 0.0574732
v -0.1423261 0.0493247 0.03460124
v -0.1492051 0.004585305 0.0503607
v -0.02376064 0.03549856 0.03842405
v -0.0728109 0.02218059 0.05694683
v -0.03387134 -0.0219594 0.02735241
v -0.1176527 -0.01013966 0.06053111
v -0.1317257 -0.03271173 0.03925112
v -0.1618202 -0.02137365 0.006969366
v 0.07929768 -0.03935885 0.003039056
v 0.01638806 -0.03459942 -0.01369816
v -0.1365184 -0.03751515 -0.01106856
v -0.1567281 0.0001219193 -0.03270136
v -0.01462116 -0.01287487 -0.04149754
v -0.1104258 0.000586705 -0.05072901
v -0.1465546 0.02747902 -0.03891908
v -0.004957576 0.01778241 -0.04295931
v -0.08403142 0.04408356 -0.04240956
v -0.02004488 0.05043219 -0.01267197
v -0.1328684 0.05776842 -0.01779151
v -0.1568976 0.04460219 0.004401967
v -0.1423261 0.0493247 0.03460124
v -0.07303724 0.06558161 0.01129514
v -0.06957088 0.0595709 -0.01791758
v 0.1699741 0.05618965 -0.182304
v 0.1758762 0.1375302 -0.1254584
v 0.1703058 0.1689481 -0.07834028
v 0.1809516 0.114924 -0.06988747
v 0.1776115 0.1831919 0.01245849
v 0.1852293 0.07133318 0.00511574
v 0.1666471 0.1743437 0.0578188
v 0.1820542 0.05219281 -0.05315591
v 0.189439 0.04564299 0.04805239
v 0.1764051 -0.0104631 -0.06865297
v 0.1847875 -0.0862415 -0.04864622
v 0.1765882 -0.0496125 -0.03177243
v 0.1684184 -0.0004239726 -0.1894963
v 0.167561 -0.09804161 -0.1549032
v 0.181369 -0.05574338 0.02087404
v 0.1693054 -0.1460099 -0.114982
v 0.1694026 0.1314344 0.1265551
v 0.1854631 -0.1043784 0.03300395
v 0.1858042 -0.02939784 0.05257572
v 0.1792598 -0.1686104 0.006400906
v 0.1858484 -0.1685804 -0.04573408
v 0.18176 -0.1500409 0.07812096
v 0.187916 -0.09981281 0.1281401
v 0.1787052 -0.05179436 0.161613
v 0.1782746 -0.006567174 0.1201904
v 0.1813899 0.006252369 0.06354302
v 0.1680501 -0.008252959 0.1764176
v 0.1713199 0.06103721 0.1718125
v 0.1835088 0.06959265 0.1055123
v 0.1795045 0.09951167 0.158534
v -0.1492051 0.004585305 0.0503607
v -0.1568976 0.04460219 0.004401967
v -0.1423261 0.0493247 0.03460124
v -0.1618202 -0.02137365 0.006969366
v -0.1567281 0.0001219193 -0.03270136
v -0.1465546 0.02747902 -0.03891908
v 0.1776115 0.1831919 0.01245849
v 0.1703058 0.1689481 -0.07834028
v 0.1946559 0.1813619 -0.06093033
v 0.1758762 0.1375302 -0.1254584
v 0.2183318 0.1816367 0.01757631
v 0.1666471 0.1743437 0.0578188
v 0.2111209 0.1146952 0.1371285
v 0.1694026 0.1314344 0.1265551
v 0.1795045 0.09951167 0.158534
v 0.2106682 0.07162748 0.164351
v 0.1713199 0.06103721 0.1718125
v 0.1680501 -0.008252959 0.1764176
v 0.238084 -0.02559356 0.1451123
v 0.1787052 -0.05179436 0.161613
v 0.2321217 -0.09373376 0.1174984
v 0.187916 -0.09981281 0.1281401
v 0.18176 -0.1500409 0.07812096
v 0.224527 0.1323577 -0.1131191
v 0.2255546 0.1679621 -0.05683178
v 0.2172476 0.07211024 -0.1585884
v 0.1699741 0.05618965 -0.182304
v 0.2184762 0.009909838 -0.178566
v 0.1684184 -0.0004239726 -0.1894963
v 0.167561 -0.09804161 -0.1549032
v 0.2795953 0.06369681 -0.09849964
v 0.264037 0.1084096 -0.06276638
v 0.2223954 -0.09266343 -0.1315758
v 0.1693054 -0.1460099 -0.114982
v 0.2179094 -0.1462978 -0.07784473
v 0.1858484 -0.1685804 -0.04573408
v 0.2482332 -0.08942322 -0.1060533
v 0.264876 0.01352889 -0.1278042
v 0.3257731 0.04492299 -0.07270733
v 0.2556196 -0.02828185 -0.1298954
v 0.3138967 -0.00893918 -0.09322155
v 0.2959977 -0.05727989 -0.09042054
v 0.2652352 0.1272789 0.009527537
v 0.3123171 0.07941187 -0.0310404
v 0.2452248 0.1572159 0.01562034
v 0.244442 0.1200527 0.08157054
v 0.2403577 0.07704597 0.1399349
v 0.2759875 0.07722158 0.06286155
v 0.3098302 0.07575317 0.00914615
v 0.3428537 0.03694418 -0.01234867
v 0.3470654 -0.01088822 -0.03600185
v 0.2461462 0.0213874 0.1407765
v 0.2877226 0.03231617 0.07815492
v 0.3341836 0.01604698 0.027954
v 0.3343149 -0.05463876 -0.04358175
v 0.3482325 -0.03467336 -0.00648387
v 0.3262108 -0.0326593 0.0432765
v 0.3121257 -0.0644486 0.04561689
v 0.2875339 -0.09825933 -0.05246822
v 0.3113894 -0.09122281 -0.009499181
v 0.2626475 -0.1242709 -0.03619383
v 0.2764482 -0.111073 0.03418722
v 0.2343465 -0.1497893 -0.03856907
v 0.2076661 -0.1630746 -0.002509031
v 0.1792598 -0.1686104 0.006400906
v 0.210548 -0.142371 0.06719709
vt 0.0791091 0.9411244
vt 0.0807375 0.9318997
vt 0.07241456 0.9371451
vt 0.08580364 0.9394966
vt 0.0877939 0.9501684
vt 0.08164216 0.9514346
vt 0.08978416 0.9376877
vt 0.0937647 0.9366026
vt 0.08797484 0.9288247
vt 0.09448844 0.9259307
vt 0.1013639 0.9333467
vt 0.09955457 0.923941
vt 0.1055254 0.932804
vt 0.1046207 0.9232175
vt 0.1095059 0.9315379
vt 0.1098678 0.921047
vt 0.1154767 0.92991
vt 0.1165623 0.9205043
vt 0.114572 0.9467318
vt 0.1241615 0.9290055
vt 0.1257899 0.9214087
vt 0.1239806 0.9393157
vt 0.1252471 0.9519771
vt 0.1205428 0.9536051
vt 0.1257899 0.9610212
vt 0.1113152 0.9505301
vt 0.120181 0.9687988
vt 0.1245234 0.9727782
vt 0.1169242 0.9758532
vt 0.1169242 0.9550521
vt 0.1163814 0.9631917
vt 0.1067919 0.9590315
vt 0.1143911 0.9706077
vt 0.1109534 0.9733209
vt 0.1084203 0.9798324
vt 0.09774524 0.9425714
vt 0.0981071 0.9530625
vt 0.1046207 0.9758532
vt 0.1002783 0.9816412
vt 0.09412657 0.9595741
vt 0.09629777 0.9747679
vt 0.09503124 0.9820031
vt 0.08906044 0.9601166
vt 0.08924136 0.9733209
vt 0.08218496 0.9651813
vt 0.08869856 0.9816412
vt 0.08869856 0.9870676
vt 0.08308964 0.9876102
vt 0.0801947 0.9754914
vt 0.08435616 0.972959
vt 0.5257381 0.9281297
vt 0.5254022 0.9436512
vt 0.528719 0.9518941
vt 0.5348806 0.9457625
vt 0.5390832 0.961899
vt 0.5483722 0.9469995
vt 0.5457599 0.9651182
vt 0.5426601 0.9392896
vt 0.5561706 0.9475307
vt 0.5462687 0.9298644
vt 0.5556964 0.9219777
vt 0.5544885 0.9282734
vt 0.5298742 0.9202352
vt 0.543031 0.9107949
vt 0.5618195 0.9321233
vt 0.5524671 0.9082224
vt 0.5584293 0.9657773
vt 0.5677648 0.9269912
vt 0.5635767 0.9383579
vt 0.5701008 0.9163204
vt 0.5638331 0.9109843
vt 0.5776299 0.9251307
vt 0.579552 0.9360881
vt 0.579552 0.9453554
vt 0.5702124 0.9474508
vt 0.5618421 0.9439314
vt 0.5776015 0.9524727
vt 0.5706237 0.960843
vt 0.5613426 0.9557606
vt 0.5656634 0.9650806
vt 0.5731302 0.002134216
vt 0.5812817 0.007023674
vt 0.5805573 0.001953125
vt 0.5713188 0.01010222
vt 0.5765719 0.01481059
vt 0.5812817 0.01462949
vt 0.8152472 0.8907162
vt 0.8018555 0.9030182
vt 0.8069227 0.9021137
vt 0.7975121 0.9138731
vt 0.8192285 0.8954199
vt 0.8235719 0.8860122
vt 0.8423926 0.8912588
vt 0.8389542 0.8849269
vt 0.8480028 0.8878214
vt 0.8508982 0.8945152
vt 0.8559654 0.8914397
vt 0.8657377 0.9010282
vt 0.857956 0.9107976
vt 0.8682714 0.9104357
vt 0.8615753 0.9230998
vt 0.8682714 0.922919
vt 0.8662807 0.9375729
vt 0.8054749 0.9151395
vt 0.8109039 0.9051893
vt 0.8042081 0.9285273
vt 0.7975121 0.9346784
vt 0.8080083 0.9393822
vt 0.8033031 0.9453523
vt 0.8197715 0.9578355
vt 0.8159711 0.9234617
vt 0.8159711 0.914235
vt 0.8250195 0.950237
vt 0.8324392 0.9609109
vt 0.8387733 0.9524081
vt 0.8472789 0.9556645
vt 0.8288199 0.946257
vt 0.816333 0.9330502
vt 0.8233908 0.9234617
vt 0.8197715 0.9392013
vt 0.8250195 0.9314218
vt 0.8288199 0.937754
vt 0.8242956 0.9050083
vt 0.8248386 0.9158632
vt 0.821943 0.9003045
vt 0.834249 0.8981336
vt 0.846012 0.8981336
vt 0.8360588 0.9060938
vt 0.8299058 0.9126068
vt 0.8309916 0.9196624
vt 0.8320773 0.9265372
vt 0.8519841 0.9053701
vt 0.8423926 0.9106167
vt 0.8369635 0.9183961
vt 0.834611 0.9319647
vt 0.8369635 0.9267181
vt 0.8429355 0.922738
vt 0.846193 0.9261754
vt 0.8373255 0.9399248
vt 0.8416687 0.9339547
vt 0.8422118 0.9431814
vt 0.8501743 0.9337739
vt 0.8447452 0.9478852
vt 0.8528889 0.9477041
vt 0.8570512 0.9498752
vt 0.8612136 0.9364876
vn -0.2738146 0.6398364 -0.7180772
vn -0.9038868 -0.1437283 -0.402903
vn -0.9271548 0.3127026 -0.2064004
vn -0.2281099 -0.2813031 -0.9321129
vn -0.008090977 0.06653383 -0.9977514
vn 0.01773856 0.8040075 -0.5943545
vn -0.1077349 -0.7740251 -0.6239218
vn -0.1473293 -0.9794445 -0.1377769
vn -0.807308 -0.5343934 -0.2503547
vn -0.8423182 -0.4895619 0.2254528
vn -0.2081532 -0.6896185 0.6936127
vn -0.85709 -0.3193887 0.4042124
vn -0.1615413 -0.08453448 0.9832387
vn -0.866396 0.08775 0.4915873
vn -0.1521025 0.548432 0.8222452
vn -0.9127415 0.270586 0.3060821
vn -0.2070236 0.9539467 0.2170876
vn -0.9348877 0.3508788 0.05356361
vn 0.04095664 0.5673919 0.8224287
vn -0.2738146 0.6398364 -0.7180772
vn -0.9271548 0.3127026 -0.2064004
vn 0.01773856 0.8040075 -0.5943545
vn 0.1181653 0.964991 -0.2341566
vn 0.1095185 0.9342241 0.3394572
vn 0.06074013 0.980101 0.188978
vn 0.002322154 -0.1148167 0.9933839
vn -0.1127328 0.4957126 0.8611389
vn -0.5226545 0.7085456 0.4741259
vn -0.7144703 -0.04362134 0.6983047
vn 0.1095276 0.5907306 0.7994004
vn 0.2014471 0.093438 0.9750324
vn 0.1086398 -0.7275912 0.677354
vn -0.07308625 -0.3605357 0.9298776
vn -0.289241 -0.8176303 0.4978156
vn -0.8832473 -0.4657849 0.05402392
vn -0.02498477 -0.9821516 0.1864242
vn -0.05011497 -0.9706372 -0.2352699
vn -0.305711 -0.8933132 -0.3294425
vn -0.7642595 -0.2126031 -0.6088575
vn 0.01461787 -0.4788817 -0.8777577
vn -0.1221488 -0.2622283 -0.9572439
vn -0.5701143 0.3364225 -0.7495262
vn 0.05704198 0.1728957 -0.983287
vn 0.002871569 0.5623168 -0.826917
vn 0.1181653 0.964991 -0.2341566
vn -0.3507364 0.868532 -0.3501945
vn -0.8462011 0.5328118 0.00744572
vn -0.5226545 0.7085456 0.4741259
vn 0.06074013 0.980101 0.188978
vn 0.1106948 0.9114006 -0.3963529
vn -0.5846967 0.3041094 -0.7520953
vn -0.4033594 0.6308847 -0.6627863
vn -0.7725574 0.5746292 -0.2701041
vn -0.9906394 -0.09051438 0.1021797
vn -0.661585 0.7498556 -0.004674826
vn -0.9348877 0.3508788 0.05356361
vn -0.6832049 0.6839921 0.2557068
vn -0.9271548 0.3127026 -0.2064004
vn -0.9127415 0.270586 0.3060821
vn -0.9038868 -0.1437283 -0.402903
vn -0.998618 -0.005425963 0.0522758
vn -0.807308 -0.5343934 -0.2503547
vn -0.615968 -0.102872 -0.7810254
vn -0.5916861 -0.417023 -0.6899271
vn -0.8423182 -0.4895619 0.2254528
vn -0.5650385 -0.6729577 -0.4773462
vn -0.6836907 0.573898 0.4507859
vn -0.9991391 0.03061008 0.02800017
vn -0.85709 -0.3193887 0.4042124
vn -0.6197165 -0.7696019 0.1538326
vn -0.1384372 -0.9777927 -0.1573417
vn -0.549597 -0.7103255 0.4397509
vn -0.5448967 -0.5558318 0.6278045
vn -0.5343336 -0.4362931 0.7239723
vn -0.9920359 -0.03026904 -0.1222644
vn -0.866396 0.08775 0.4915873
vn -0.6293359 -0.1692349 0.7584826
vn -0.6785309 0.1334673 0.7223451
vn -0.9892546 -0.09788989 -0.1085953
vn -0.2328832 0.5167949 0.8238256
vn -0.7144703 -0.04362134 0.6983047
vn -0.8462011 0.5328118 0.00744572
vn -0.5226545 0.7085456 0.4741259
vn -0.8832473 -0.4657849 0.05402392
vn -0.7642595 -0.2126031 -0.6088575
vn -0.5701143 0.3364225 -0.7495262
vn -0.661585 0.7498556 -0.004674826
vn -0.7725574 0.5746292 -0.2701041
vn 0.05537648 0.9532971 -0.2969141
vn -0.4033594 0.6308847 -0.6627863
vn 0.3959427 0.9018977 0.1726555
vn -0.6832049 0.6839921 0.2557068
vn 0.4139996 0.6656498 0.6208984
vn -0.6836907 0.573898 0.4507859
vn -0.2328832 0.5167949 0.8238256
vn 0.3864884 0.2301631 0.8931134
vn -0.6785309 0.1334673 0.7223451
vn -0.6293359 -0.1692349 0.7584826
vn 0.5677446 -0.1982124 0.7989855
vn -0.5343336 -0.4362931 0.7239723
vn 0.4986914 -0.5493196 0.6704885
vn -0.5448967 -0.5558318 0.6278045
vn -0.549597 -0.7103255 0.4397509
vn 0.5169787 0.6162156 -0.5941476
vn 0.6076058 0.7440004 -0.27799
vn 0.4757982 0.4017457 -0.7824427
vn -0.5846967 0.3041094 -0.7520953
vn 0.4945914 -0.02992707 -0.8686103
vn -0.615968 -0.102872 -0.7810254
vn -0.5916861 -0.417023 -0.6899271
vn 0.6434125 0.4309817 -0.632673
vn 0.7235214 0.6172547 -0.3090524
vn 0.5396348 -0.465783 -0.7013134
vn -0.5650385 -0.6729577 -0.4773462
vn 0.4905814 -0.7623392 -0.4221005
vn -0.1384372 -0.9777927 -0.1573417
vn 0.6122213 -0.5104243 -0.6038643
vn 0.6673357 0.06760727 -0.7416821
vn 0.7842587 0.3648362 -0.5018296
vn 0.6015097 -0.2578003 -0.7561249
vn 0.7205473 -0.08185849 -0.6885571
vn 0.6268659 -0.4305676 -0.6493465
vn 0.7949169 0.5992619 0.09482802
vn 0.7366479 0.6636959 -0.1298366
vn 0.755885 0.6419088 0.1288059
vn 0.7266451 0.5699908 0.3835329
vn 0.7163322 0.3229412 0.6185282
vn 0.8032088 0.4391106 0.4025389
vn 0.766879 0.5635796 0.3070421
vn 0.9314068 0.3545502 0.0823134
vn 0.9641426 -0.02059514 -0.2645847
vn 0.6933194 0.02615694 0.7201555
vn 0.7774082 0.3603183 0.515565
vn 0.8610905 0.2202308 0.4582811
vn 0.8300354 -0.4436496 -0.3379591
vn 0.9617757 -0.2435442 0.1251947
vn 0.8354283 -0.1531071 0.5278426
vn 0.7573592 -0.4598213 0.46365
vn 0.5998988 -0.6962284 -0.394192
vn 0.7214184 -0.6921186 0.02296413
vn 0.633012 -0.7463353 -0.2056198
vn 0.6186183 -0.7334892 0.2816116
vn 0.5529714 -0.8226314 -0.1322884
vn 0.3793871 -0.9190471 0.106854
vn -0.6197165 -0.7696019 0.1538326
vn 0.4464355 -0.8117464 0.3765142
g SchroomLeft01_0
f 3/3/3 2/2/2 1/1/1
f 2/2/2 4/4/4 1/1/1
f 1/1/1 4/4/4 5/5/5
f 1/1/1 5/5/5 6/6/6
f 7/7/7 4/4/4 2/2/2
f 5/5/5 4/4/4 7/7/7
f 7/7/7 2/2/2 8/8/8
f 8/8/8 2/2/2 9/9/9
f 10/10/10 8/8/8 9/9/9
f 10/10/10 11/11/11 8/8/8
f 12/12/12 11/11/11 10/10/10
f 11/11/11 12/12/12 13/13/13
f 12/12/12 14/14/14 13/13/13
f 15/15/15 13/13/13 14/14/14
f 16/16/16 15/15/15 14/14/14
f 16/16/16 17/17/17 15/15/15
f 16/16/16 18/18/18 17/17/17
f 13/13/13 15/15/15 19/19/19
f 19/19/19 15/15/15 17/17/17
f 17/17/17 18/18/18 20/20/20
f 18/18/18 21/21/21 20/20/20
f 22/22/22 17/17/17 20/20/20
f 17/17/17 22/22/22 23/23/23
f 17/17/17 23/23/23 24/24/24
f 17/17/17 24/24/24 19/19/19
f 23/23/23 25/25/25 24/24/24
f 26/26/26 13/13/13 19/19/19
f 11/11/11 13/13/13 26/26/26
f 27/27/27 24/24/24 25/25/25
f 27/27/27 25/25/25 28/28/28
f 29/29/29 27/27/27 28/28/28
f 24/24/24 30/30/30 19/19/19
f 30/30/30 26/26/26 19/19/19
f 27/27/27 30/30/30 24/24/24
f 31/31/31 26/26/26 30/30/30
f 27/27/27 31/31/31 30/30/30
f 32/32/32 11/11/11 26/26/26
f 32/32/32 26/26/26 31/31/31
f 33/33/33 31/31/31 27/27/27
f 33/33/33 27/27/27 29/29/29
f 33/33/33 32/32/32 31/31/31
f 33/33/33 29/29/29 34/34/34
f 32/32/32 33/33/33 34/34/34
f 29/29/29 35/35/35 34/34/34
f 11/11/11 32/32/32 36/36/36
f 8/8/8 11/11/11 36/36/36
f 32/32/32 37/37/37 36/36/36
f 36/36/36 37/37/37 8/8/8
f 37/37/37 32/32/32 34/34/34
f 37/37/37 7/7/7 8/8/8
f 34/34/34 35/35/35 38/38/38
f 34/34/34 38/38/38 37/37/37
f 39/39/39 38/38/38 35/35/35
f 37/37/37 40/40/40 7/7/7
f 38/38/38 40/40/40 37/37/37
f 7/7/7 40/40/40 5/5/5
f 41/41/41 38/38/38 39/39/39
f 41/41/41 40/40/40 38/38/38
f 41/41/41 39/39/39 42/42/42
f 5/5/5 40/40/40 43/43/43
f 43/43/43 40/40/40 41/41/41
f 5/5/5 43/43/43 6/6/6
f 44/44/44 43/43/43 41/41/41
f 6/6/6 43/43/43 44/44/44
f 41/41/41 42/42/42 44/44/44
f 6/6/6 44/44/44 45/45/45
f 44/44/44 42/42/42 46/46/46
f 47/47/47 46/46/46 42/42/42
f 48/48/48 46/46/46 47/47/47
f 48/48/48 49/49/49 46/46/46
f 49/49/49 45/45/45 50/50/50
f 45/45/45 44/44/44 50/50/50
f 50/50/50 46/46/46 49/49/49
f 50/50/50 44/44/44 46/46/46
f 53/53/53 52/52/52 51/51/51
f 53/53/53 51/51/51 54/54/54
f 54/54/54 55/55/55 53/53/53
f 55/55/55 54/54/54 56/56/56
f 55/55/55 56/56/56 57/57/57
f 54/54/54 58/58/58 56/56/56
f 51/51/51 58/58/58 54/54/54
f 57/57/57 56/56/56 59/59/59
f 51/51/51 60/60/60 58/58/58
f 60/60/60 51/51/51 61/61/61
f 60/60/60 61/61/61 62/62/62
f 51/51/51 63/63/63 61/61/61
f 63/63/63 64/64/64 61/61/61
f 61/61/61 65/65/65 62/62/62
f 64/64/64 66/66/66 61/61/61
f 57/57/57 59/59/59 67/67/67
f 65/65/65 61/61/61 68/68/68
f 69/69/69 65/65/65 68/68/68
f 61/61/61 66/66/66 70/70/70
f 68/68/68 61/61/61 70/70/70
f 70/70/70 66/66/66 71/71/71
f 68/68/68 70/70/70 72/72/72
f 72/72/72 73/73/73 68/68/68
f 69/69/69 68/68/68 73/73/73
f 73/73/73 74/74/74 69/69/69
f 69/69/69 74/74/74 75/75/75
f 69/69/69 75/75/75 76/76/76
f 59/59/59 76/76/76 75/75/75
f 77/77/77 75/75/75 74/74/74
f 78/78/78 75/75/75 77/77/77
f 59/59/59 75/75/75 79/79/79
f 78/78/78 79/79/79 75/75/75
f 67/67/67 59/59/59 79/79/79
f 79/79/79 78/78/78 67/67/67
f 67/67/67 78/78/78 80/80/80
f 83/83/83 82/82/82 81/81/81
f 82/82/82 84/84/84 81/81/81
f 82/82/82 85/85/85 84/84/84
f 82/82/82 86/86/86 85/85/85
f 89/89/89 88/88/88 87/87/87
f 90/90/90 88/88/88 89/89/89
f 91/91/91 89/89/89 87/87/87
f 92/92/92 91/91/91 87/87/87
f 92/92/92 93/93/93 91/91/91
f 94/94/94 93/93/93 92/92/92
f 95/95/95 93/93/93 94/94/94
f 95/95/95 96/96/96 93/93/93
f 95/95/95 97/97/97 96/96/96
f 97/97/97 98/98/98 96/96/96
f 98/98/98 99/99/99 96/96/96
f 100/100/100 99/99/99 98/98/98
f 100/100/100 101/101/101 99/99/99
f 102/102/102 101/101/101 100/100/100
f 103/103/103 101/101/101 102/102/102
f 104/104/104 90/90/90 89/89/89
f 105/105/105 89/89/89 91/91/91
f 104/104/104 89/89/89 105/105/105
f 106/106/106 90/90/90 104/104/104
f 106/106/106 107/107/107 90/90/90
f 106/106/106 108/108/108 107/107/107
f 107/107/107 108/108/108 109/109/109
f 109/109/109 108/108/108 110/110/110
f 104/104/104 111/111/111 106/106/106
f 111/111/111 108/108/108 106/106/106
f 105/105/105 112/112/112 104/104/104
f 112/112/112 111/111/111 104/104/104
f 110/110/110 108/108/108 113/113/113
f 110/110/110 113/113/113 114/114/114
f 114/114/114 113/113/113 115/115/115
f 114/114/114 115/115/115 116/116/116
f 113/113/113 108/108/108 117/117/117
f 113/113/113 117/117/117 115/115/115
f 118/118/118 108/108/108 111/111/111
f 119/119/119 111/111/111 112/112/112
f 111/111/111 119/119/119 118/118/118
f 120/120/120 108/108/108 118/118/118
f 117/117/117 108/108/108 120/120/120
f 118/118/118 121/121/121 120/120/120
f 119/119/119 121/121/121 118/118/118
f 120/120/120 122/122/122 117/117/117
f 121/121/121 122/122/122 120/120/120
f 123/123/123 112/112/112 105/105/105
f 124/124/124 119/119/119 112/112/112
f 123/123/123 124/124/124 112/112/112
f 125/125/125 123/123/123 105/105/105
f 91/91/91 125/125/125 105/105/105
f 91/91/91 126/126/126 125/125/125
f 125/125/125 126/126/126 123/123/123
f 91/91/91 93/93/93 126/126/126
f 93/93/93 127/127/127 126/126/126
f 96/96/96 127/127/127 93/93/93
f 123/123/123 126/126/126 128/128/128
f 126/126/126 127/127/127 128/128/128
f 123/123/123 129/129/129 124/124/124
f 123/123/123 128/128/128 129/129/129
f 124/124/124 130/130/130 119/119/119
f 129/129/129 130/130/130 124/124/124
f 121/121/121 119/119/119 131/131/131
f 130/130/130 131/131/131 119/119/119
f 127/127/127 96/96/96 132/132/132
f 96/96/96 99/99/99 132/132/132
f 128/128/128 127/127/127 133/133/133
f 129/129/129 128/128/128 133/133/133
f 133/133/133 127/127/127 132/132/132
f 129/129/129 133/133/133 134/134/134
f 129/129/129 134/134/134 130/130/130
f 133/133/133 132/132/132 134/134/134
f 121/121/121 131/131/131 135/135/135
f 135/135/135 122/122/122 121/121/121
f 136/136/136 131/131/131 130/130/130
f 130/130/130 134/134/134 136/136/136
f 135/135/135 131/131/131 136/136/136
f 134/134/134 132/132/132 137/137/137
f 132/132/132 99/99/99 137/137/137
f 136/136/136 134/134/134 137/137/137
f 137/137/137 99/99/99 138/138/138
f 136/136/136 137/137/137 138/138/138
f 138/138/138 99/99/99 101/101/101
f 139/139/139 122/122/122 135/135/135
f 117/117/117 122/122/122 139/139/139
f 140/140/140 135/135/135 136/136/136
f 136/136/136 138/138/138 140/140/140
f 139/139/139 135/135/135 140/140/140
f 141/141/141 117/117/117 139/139/139
f 140/140/140 141/141/141 139/139/139
f 117/117/117 141/141/141 115/115/115
f 140/140/140 138/138/138 142/142/142
f 138/138/138 101/101/101 142/142/142
f 141/141/141 140/140/140 142/142/142
f 115/115/115 141/141/141 143/143/143
f 142/142/142 143/143/143 141/141/141
f 115/115/115 143/143/143 116/116/116
f 116/116/116 143/143/143 144/144/144
f 143/143/143 142/142/142 144/144/144
f 145/145/145 116/116/116 144/144/144
f 103/103/103 145/145/145 144/144/144
f 142/142/142 101/101/101 146/146/146
f 142/142/142 146/146/146 144/144/144
f 146/146/146 103/103/103 144/144/144
f 146/146/146 101/101/101 103/103/103
