g SchroomLeftLowest01
v -0.08894373 -0.01081325 0.04118828
v -0.07101899 -0.04611557 0.04695133
v -0.1004511 -0.0470083 0.01394456
v -0.08325534 0.02099739 0.01694939
v -0.09392465 -0.03153844 -0.01952806
v -0.0731716 0.009813744 -0.02529486
v -0.06544951 0.02682763 -0.005906478
v -0.06544951 0.02682763 -0.005906478
v 0.0004978319 0.03730107 0.00276147
v -0.08325534 0.02099739 0.01694939
v -0.05598962 0.01381077 0.04721908
v -0.08894373 -0.01081325 0.04118828
v 0.04370161 0.03191135 0.008191228
v 0.03655696 0.005722794 0.03610223
v 0.07602083 0.02426406 0.02721135
v 0.1819016 0.026576 -0.0001886943
v -0.05873352 -0.01155162 0.05390381
v -0.07101899 -0.04611557 0.04695133
v 0.1731998 0.0009301172 0.03127434
v 0.2201549 0.004034681 0.04105763
v 0.233992 0.03397422 0.000336549
v 0.2321898 0.02035866 0.04081704
v 0.2292077 -0.01738001 0.05699445
v 0.2103865 -0.05863488 0.03361018
v 0.1693838 -0.0202562 0.0357285
v 0.153847 -0.03624714 0.02770713
v 0.0337112 -0.03789606 0.02008476
v 0.1610987 -0.05496278 -0.005142504
v 0.2118518 -0.07470914 -0.0350502
v -0.0754544 -0.0644265 0.01298911
v -0.1004511 -0.0470083 0.01394456
v 0.06456305 -0.04913071 0.001961376
v 0.1630289 -0.04566376 -0.02625191
v -0.07612979 -0.06231626 -0.01199304
v -0.09392465 -0.03153844 -0.01952806
v 0.07365299 -0.04866702 -0.01798224
v 0.1676879 -0.0273251 -0.04510164
v 0.2175048 -0.03685404 -0.06008423
v -0.06465568 -0.02969653 -0.03966659
v -0.0731716 0.009813744 -0.02529486
v 0.01423616 -0.04753754 -0.02844969
v 0.06882912 -0.0230768 -0.0404094
v 0.2184039 -0.0004524499 -0.05024175
v 0.2336172 0.01911186 -0.040521
v -0.01145841 0.01433073 -0.03501224
v -0.06544951 0.02682763 -0.005906478
v 0.0004978319 0.03730107 0.00276147
v 0.04898643 0.01255468 -0.03374911
v 0.04370161 0.03191135 0.008191228
v 0.1003623 0.02350397 -0.02758289
v 0.1819016 0.026576 -0.0001886943
v 0.1870897 0.0151099 -0.0343943
v 0.233992 0.03397422 0.000336549
v 0.2321898 0.02035866 0.04081704
v 0.2235979 0.1348049 0.03265221
v 0.2132109 0.07919427 0.1266098
v 0.2046439 0.03396786 0.1617237
v 0.1938734 -0.02950382 0.1673698
v 0.233992 0.03397422 0.000336549
v 0.2389986 0.1253034 -0.01835824
v 0.2292077 -0.01738001 0.05699445
v 0.2336172 0.01911186 -0.040521
v 0.2301774 0.01623976 -0.1193405
v 0.2175048 -0.03685404 -0.06008423
v 0.230259 0.08248466 -0.1078486
v 0.2237737 0.008058388 -0.1517883
v 0.2159957 -0.04830916 -0.1581948
v 0.2121483 -0.09837697 -0.1393474
v 0.2118518 -0.07470914 -0.0350502
v 0.2137564 -0.0466015 0.08523963
v 0.2021548 -0.0952968 0.1441357
v 0.2103865 -0.05863488 0.03361018
v 0.2099408 -0.1102453 -0.06714121
v 0.1970111 -0.1613997 -0.10296
v 0.1973444 -0.1920523 -0.02745146
v 0.2035145 -0.1374729 0.05327736
v 0.1902564 -0.1742857 0.06282192
v 0.2170392 -0.08314293 -0.007171557
v 0.2237737 0.008058388 -0.1517883
v 0.2159957 -0.04830916 -0.1581948
v 0.2609669 -0.05286218 -0.1430232
v 0.2121483 -0.09837697 -0.1393474
v 0.2455082 -0.1402323 -0.0970398
v 0.1970111 -0.1613997 -0.10296
v 0.2369453 -0.183051 -0.03497493
v 0.1973444 -0.1920523 -0.02745146
v 0.2239178 -0.1852172 0.02105251
v 0.1902564 -0.1742857 0.06282192
v 0.2064029 -0.1553195 0.0967639
v 0.2021548 -0.0952968 0.1441357
v 0.2815297 -0.1385777 -0.05649903
v 0.265098 -0.1703663 0.003634666
v 0.2859842 -0.1434713 0.06433012
v 0.2446803 -0.1214802 0.1202985
v 0.3303381 -0.09808869 0.07568282
v 0.3273095 -0.1388875 0.01302897
v 0.2464405 -0.06323557 0.1498703
v 0.1938734 -0.02950382 0.1673698
v 0.2983296 -0.08910708 -0.08569186
v 0.3384034 -0.0988587 -0.04755921
v 0.2473357 0.04228834 0.1532988
v 0.2046439 0.03396786 0.1617237
v 0.3645587 -0.09760427 0.01519302
v 0.3511778 -0.03399218 -0.05036193
v 0.3045275 -0.03283795 -0.0936696
v 0.2766384 -8.533641E-05 -0.1280712
v 0.3155976 0.01303304 -0.06709282
v 0.2786569 0.05287411 -0.1033988
v 0.230259 0.08248466 -0.1078486
v 0.2762753 0.1030208 -0.05859385
v 0.2514936 0.1209845 -0.04830878
v 0.2389986 0.1253034 -0.01835824
v 0.2235979 0.1348049 0.03265221
v 0.2815263 0.1148077 0.007453651
v 0.348189 0.009520646 -0.01337532
v 0.3084267 0.051666 -0.02782996
v 0.313927 0.04937817 0.02740096
v 0.3622877 -0.02825484 -0.01764175
v 0.3634962 -0.0349646 0.02835115
v 0.3495611 -0.05241299 0.05919286
v 0.3086844 0.009883528 0.08024167
v 0.2663457 0.06681813 0.1200782
v 0.2610858 0.1152616 0.04586034
v 0.2223602 0.08366699 0.1343596
v 0.2132109 0.07919427 0.1266098
v 0.2762875 0.001171091 0.1359646
v 0.3022804 -0.03730492 0.1054011
vt 0.5575438 0.0122507
vt 0.5588088 0.01839311
vt 0.5645917 0.01441861
vt 0.5575438 0.005927626
vt 0.5671217 0.009179492
vt 0.5636881 0.002675762
vt 0.5597124 0.001953125
vt 0.9900683 0.98528
vt 0.9888013 0.9746054
vt 0.9864485 0.9881747
vt 0.9821051 0.9834708
vt 0.9795713 0.9892604
vt 0.9864485 0.968092
vt 0.9801143 0.9689967
vt 0.9839149 0.9632071
vt 0.9893443 0.948371
vt 0.9784854 0.9841945
vt 0.9734179 0.9865465
vt 0.982829 0.9480092
vt 0.9853627 0.9404103
vt 0.9933258 0.9422195
vt 0.9880774 0.9386011
vt 0.982286 0.9371537
vt 0.9759518 0.9405913
vt 0.9792093 0.9478283
vt 0.9757707 0.9496375
vt 0.972694 0.9689967
vt 0.9696173 0.9478283
vt 0.9674456 0.9386011
vt 0.9679885 0.9854608
vt 0.9669026 0.9901649
vt 0.9696173 0.9635689
vt 0.9656359 0.9471046
vt 0.9645498 0.9849181
vt 0.9602064 0.9883557
vt 0.9665407 0.9617595
vt 0.9612923 0.9461999
vt 0.9618353 0.9378774
vt 0.9589395 0.9827471
vt 0.9529672 0.9847371
vt 0.963645 0.9711678
vt 0.9605684 0.9621214
vt 0.9567678 0.9382392
vt 0.95351 0.9360682
vt 0.9533291 0.9746054
vt 0.9488046 0.9836516
vt 0.9466328 0.9727962
vt 0.9545959 0.9650163
vt 0.9468138 0.965921
vt 0.9522433 0.9570556
vt 0.9477186 0.9445716
vt 0.9533291 0.943486
vt 0.9466328 0.93643
vt 0.6809551 0.4436228
vt 0.694344 0.4315041
vt 0.6775174 0.4275248
vt 0.6684708 0.4286101
vt 0.6606908 0.4351216
vt 0.6869259 0.446517
vt 0.6990483 0.4383775
vt 0.6749843 0.4459743
vt 0.6898208 0.4526668
vt 0.6981437 0.4617107
vt 0.6854783 0.461168
vt 0.7042954 0.4532093
vt 0.7008577 0.4662325
vt 0.6952488 0.4732867
vt 0.6876497 0.4767233
vt 0.6786031 0.462615
vt 0.6682899 0.4461551
vt 0.6563483 0.4452508
vt 0.6726322 0.4533903
vt 0.6782411 0.4702118
vt 0.6764317 0.4799792
vt 0.6646711 0.4749147
vt 0.6617763 0.4599018
vt 0.6563483 0.4631577
vt 0.6744416 0.4606253
vt 0.142464 0.9658199
vt 0.1542275 0.9707048
vt 0.1560372 0.9641916
vt 0.1661719 0.9705239
vt 0.1748587 0.9614778
vt 0.1819169 0.9663627
vt 0.1853553 0.9517081
vt 0.1924135 0.951889
vt 0.1895179 0.9417574
vt 0.1944041 0.9323495
vt 0.1889748 0.9263791
vt 0.1831836 0.9120863
vt 0.1744968 0.9531554
vt 0.1826408 0.9441094
vt 0.1793832 0.9330732
vt 0.181193 0.9214942
vt 0.1712392 0.9301784
vt 0.1741348 0.9408528
vt 0.1734109 0.9131718
vt 0.1706964 0.9026784
vt 0.1645432 0.9553265
vt 0.166353 0.9477278
vt 0.1558562 0.9084679
vt 0.1574851 0.9021356
vt 0.1674388 0.9388626
vt 0.1574851 0.9455567
vt 0.1551323 0.9536982
vt 0.1478932 0.9580403
vt 0.1493411 0.9470041
vt 0.1402923 0.9508034
vt 0.1305196 0.9511653
vt 0.1363108 0.9406718
vt 0.1325104 0.9375962
vt 0.1312435 0.9314449
vt 0.1305196 0.9211324
vt 0.1377586 0.9294547
vt 0.1531416 0.9386817
vt 0.1455406 0.9386817
vt 0.1486171 0.9299975
vt 0.1580281 0.9406718
vt 0.1605617 0.9347015
vt 0.1641812 0.931083
vt 0.1567611 0.9236653
vt 0.150246 0.9135337
vt 0.1383016 0.9225797
vt 0.1468074 0.9068396
vt 0.1455406 0.9055731
vt 0.1612856 0.9146192
vt 0.1649052 0.922037
vn -0.762432 0.1836776 0.6204516
vn -0.213409 -0.555403 0.8037313
vn -0.9133046 -0.383084 0.1382798
vn -0.6762708 0.7225065 0.1436741
vn -0.8410854 -0.07387853 -0.5358334
vn -0.5235429 0.5182717 -0.6762377
vn -0.3287853 0.9010789 -0.2827666
vn -0.3287853 0.9010789 -0.2827666
vn 0.01369618 0.9997043 -0.0200917
vn -0.6762708 0.7225065 0.1436741
vn -0.1540295 0.6251515 0.7651539
vn -0.762432 0.1836776 0.6204516
vn 0.01945683 0.9883353 0.1510461
vn 0.07327867 0.2264224 0.9712688
vn 0.01784187 0.7300323 0.6831797
vn -0.03098301 0.9874672 0.1547534
vn -0.07346091 0.02140801 0.9970683
vn -0.213409 -0.555403 0.8037313
vn -0.05339755 0.5167063 0.8544959
vn -0.4718093 0.4514275 0.7573699
vn -0.8632529 0.5047194 -0.007248939
vn -0.9786087 0.2048613 0.01889126
vn -0.9842519 0.1521186 0.09004489
vn -0.9116025 -0.2191398 0.3477912
vn -0.09919278 -0.06830195 0.9927213
vn -0.1526021 -0.6269662 0.7639542
vn 0.1133379 -0.5922323 0.7977564
vn -0.2574414 -0.9655277 0.03847164
vn -0.9211736 -0.3642035 -0.1370945
vn -0.2189259 -0.9516038 0.2156888
vn -0.9133046 -0.383084 0.1382798
vn 0.04405256 -0.9600042 0.2764981
vn -0.2863521 -0.7708002 -0.5690953
vn -0.3303867 -0.8360608 -0.4380036
vn -0.8410854 -0.07387853 -0.5358334
vn 0.04511005 -0.917115 -0.396062
vn -0.1838966 -0.335103 -0.9240606
vn -0.8262044 0.01234458 -0.5632352
vn -0.2728091 -0.1847905 -0.9441545
vn -0.5235429 0.5182717 -0.6762377
vn 0.045022 -0.7128127 -0.699908
vn -0.01630884 -0.2635156 -0.9645172
vn 0.02778502 0.3489135 -0.936743
vn -0.8265923 0.4768236 -0.2989722
vn -0.04236945 0.5549755 -0.8307871
vn -0.3287853 0.9010789 -0.2827666
vn 0.01369618 0.9997043 -0.0200917
vn -0.01761997 0.5900224 -0.8071947
vn 0.01945683 0.9883353 0.1510461
vn -0.0167912 0.8492013 -0.5278022
vn -0.03098301 0.9874672 0.1547534
vn -0.03064004 0.8422388 -0.5382333
vn -0.8632529 0.5047194 -0.007248939
vn -0.9786087 0.2048613 0.01889126
vn -0.5634909 0.8253 0.03684976
vn -0.9129162 0.3742923 0.1627553
vn -0.6643422 0.2766422 0.6943476
vn -0.6984059 -0.04324282 0.7143944
vn -0.8632529 0.5047194 -0.007248939
vn -0.759244 0.5979023 -0.2570241
vn -0.9842519 0.1521186 0.09004489
vn -0.8265923 0.4768236 -0.2989722
vn -0.9920452 0.0702107 0.1044836
vn -0.8262044 0.01234458 -0.5632352
vn -0.5516329 0.578619 -0.6007506
vn -0.5415308 0.3347121 -0.7711759
vn -0.6024932 -0.02776123 -0.797641
vn -0.5611181 -0.2939036 -0.7738004
vn -0.9211736 -0.3642035 -0.1370945
vn -0.9707413 0.1925953 -0.1434165
vn -0.6478062 -0.3592517 0.671778
vn -0.9116025 -0.2191398 0.3477912
vn -0.9869941 0.1594508 0.02044883
vn -0.601513 -0.5525706 -0.5769297
vn -0.6481354 -0.7525759 -0.1164045
vn -0.971265 0.2141589 -0.1038277
vn -0.7481017 -0.6088186 0.263977
vn -0.9968703 -0.07903261 0.001858881
vn -0.5415308 0.3347121 -0.7711759
vn -0.6024932 -0.02776123 -0.797641
vn 0.5261616 -0.1871314 -0.8295395
vn -0.5611181 -0.2939036 -0.7738004
vn 0.4773355 -0.6181733 -0.6245099
vn -0.601513 -0.5525706 -0.5769297
vn 0.3840099 -0.8928528 -0.2352667
vn -0.6481354 -0.7525759 -0.1164045
vn 0.1912756 -0.9580116 0.2136061
vn -0.7481017 -0.6088186 0.263977
vn -0.1496085 -0.7591222 0.6335224
vn -0.6478062 -0.3592517 0.671778
vn 0.5667713 -0.6922052 -0.446791
vn 0.4683203 -0.8835048 0.009761345
vn 0.4492129 -0.7755144 0.4436047
vn 0.3203137 -0.5920511 0.7395098
vn 0.6917836 -0.3890198 0.6083578
vn 0.6186762 -0.7853195 0.02264671
vn 0.3848427 -0.2461291 0.8895597
vn -0.6984059 -0.04324282 0.7143944
vn 0.6395942 -0.3693915 -0.6741433
vn 0.7260982 -0.4381572 -0.5299053
vn 0.4249246 0.2898254 0.8575782
vn -0.6643422 0.2766422 0.6943476
vn 0.9216532 -0.3834803 0.05914699
vn 0.83645 0.08367144 -0.5416184
vn 0.751712 -0.01350023 -0.6593533
vn 0.634876 0.1790411 -0.7515829
vn 0.7927044 0.3503456 -0.4988764
vn 0.6257661 0.4313973 -0.6498562
vn -0.5516329 0.578619 -0.6007506
vn 0.6446372 0.6543889 -0.3952442
vn 0.02988446 0.9345481 -0.3545798
vn -0.759244 0.5979023 -0.2570241
vn -0.5634909 0.8253 0.03684976
vn 0.682647 0.7294287 0.04389616
vn 0.8517591 0.508687 -0.1254752
vn 0.8323743 0.5252171 -0.1769179
vn 0.8385347 0.5077276 0.1976671
vn 0.9664687 0.1684241 -0.1938338
vn 0.9390939 0.2178098 0.2658221
vn 0.8235354 0.06081249 0.5639958
vn 0.8114806 0.3227317 0.487179
vn 0.6657076 0.5264966 0.5288049
vn 0.4971114 0.7925331 0.35323
vn -0.124506 0.7503008 0.6492664
vn -0.9129162 0.3742923 0.1627553
vn 0.6939092 0.07858048 0.7157619
vn 0.7903588 0.128299 0.5990595
g SchroomLeftLowest01_0
f 3/3/3 2/2/2 1/1/1
f 1/1/1 4/4/4 3/3/3
f 3/3/3 4/4/4 5/5/5
f 5/5/5 4/4/4 6/6/6
f 4/4/4 7/7/7 6/6/6
f 10/10/10 9/9/9 8/8/8
f 11/11/11 9/9/9 10/10/10
f 12/12/12 11/11/11 10/10/10
f 11/11/11 13/13/13 9/9/9
f 11/11/11 14/14/14 13/13/13
f 14/14/14 15/15/15 13/13/13
f 13/13/13 15/15/15 16/16/16
f 12/12/12 17/17/17 11/11/11
f 11/11/11 17/17/17 14/14/14
f 12/12/12 18/18/18 17/17/17
f 14/14/14 17/17/17 18/18/18
f 16/16/16 15/15/15 19/19/19
f 14/14/14 19/19/19 15/15/15
f 20/20/20 16/16/16 19/19/19
f 20/20/20 21/21/21 16/16/16
f 20/20/20 22/22/22 21/21/21
f 22/22/22 20/20/20 23/23/23
f 24/24/24 23/23/23 20/20/20
f 20/20/20 19/19/19 25/25/25
f 19/19/19 14/14/14 25/25/25
f 20/20/20 25/25/25 24/24/24
f 25/25/25 14/14/14 26/26/26
f 26/26/26 24/24/24 25/25/25
f 14/14/14 18/18/18 27/27/27
f 27/27/27 26/26/26 14/14/14
f 26/26/26 28/28/28 24/24/24
f 24/24/24 28/28/28 29/29/29
f 27/27/27 18/18/18 30/30/30
f 18/18/18 31/31/31 30/30/30
f 32/32/32 26/26/26 27/27/27
f 32/32/32 28/28/28 26/26/26
f 30/30/30 32/32/32 27/27/27
f 29/29/29 28/28/28 33/33/33
f 32/32/32 33/33/33 28/28/28
f 31/31/31 34/34/34 30/30/30
f 31/31/31 35/35/35 34/34/34
f 30/30/30 36/36/36 32/32/32
f 36/36/36 33/33/33 32/32/32
f 30/30/30 34/34/34 36/36/36
f 29/29/29 33/33/33 37/37/37
f 36/36/36 37/37/37 33/33/33
f 29/29/29 37/37/37 38/38/38
f 34/34/34 35/35/35 39/39/39
f 35/35/35 40/40/40 39/39/39
f 34/34/34 41/41/41 36/36/36
f 39/39/39 41/41/41 34/34/34
f 42/42/42 36/36/36 41/41/41
f 42/42/42 37/37/37 36/36/36
f 39/39/39 42/42/42 41/41/41
f 43/43/43 38/38/38 37/37/37
f 42/42/42 43/43/43 37/37/37
f 43/43/43 44/44/44 38/38/38
f 39/39/39 40/40/40 45/45/45
f 39/39/39 45/45/45 42/42/42
f 45/45/45 40/40/40 46/46/46
f 47/47/47 45/45/45 46/46/46
f 45/45/45 48/48/48 42/42/42
f 47/47/47 48/48/48 45/45/45
f 43/43/43 42/42/42 48/48/48
f 49/49/49 48/48/48 47/47/47
f 48/48/48 49/49/49 50/50/50
f 43/43/43 48/48/48 50/50/50
f 51/51/51 50/50/50 49/49/49
f 44/44/44 43/43/43 52/52/52
f 52/52/52 43/43/43 50/50/50
f 51/51/51 52/52/52 50/50/50
f 53/53/53 44/44/44 52/52/52
f 53/53/53 52/52/52 51/51/51
f 56/56/56 55/55/55 54/54/54
f 56/56/56 54/54/54 57/57/57
f 54/54/54 58/58/58 57/57/57
f 59/59/59 54/54/54 55/55/55
f 60/60/60 59/59/59 55/55/55
f 54/54/54 61/61/61 58/58/58
f 59/59/59 60/60/60 62/62/62
f 60/60/60 63/63/63 62/62/62
f 62/62/62 63/63/63 64/64/64
f 60/60/60 65/65/65 63/63/63
f 63/63/63 65/65/65 66/66/66
f 67/67/67 63/63/63 66/66/66
f 63/63/63 67/67/67 68/68/68
f 69/69/69 64/64/64 63/63/63
f 61/61/61 70/70/70 58/58/58
f 58/58/58 70/70/70 71/71/71
f 70/70/70 61/61/61 72/72/72
f 68/68/68 73/73/73 63/63/63
f 69/69/69 63/63/63 73/73/73
f 74/74/74 73/73/73 68/68/68
f 73/73/73 74/74/74 75/75/75
f 71/71/71 70/70/70 76/76/76
f 70/70/70 72/72/72 76/76/76
f 77/77/77 71/71/71 76/76/76
f 75/75/75 77/77/77 76/76/76
f 69/69/69 78/78/78 72/72/72
f 69/69/69 73/73/73 78/78/78
f 72/72/72 78/78/78 76/76/76
f 76/76/76 78/78/78 75/75/75
f 75/75/75 78/78/78 73/73/73
f 81/81/81 80/80/80 79/79/79
f 81/81/81 82/82/82 80/80/80
f 82/82/82 81/81/81 83/83/83
f 82/82/82 83/83/83 84/84/84
f 83/83/83 85/85/85 84/84/84
f 86/86/86 84/84/84 85/85/85
f 86/86/86 85/85/85 87/87/87
f 88/88/88 86/86/86 87/87/87
f 89/89/89 88/88/88 87/87/87
f 90/90/90 88/88/88 89/89/89
f 83/83/83 91/91/91 85/85/85
f 87/87/87 85/85/85 92/92/92
f 85/85/85 91/91/91 92/92/92
f 89/89/89 87/87/87 93/93/93
f 93/93/93 87/87/87 92/92/92
f 94/94/94 90/90/90 89/89/89
f 94/94/94 89/89/89 93/93/93
f 94/94/94 93/93/93 95/95/95
f 96/96/96 93/93/93 92/92/92
f 91/91/91 96/96/96 92/92/92
f 93/93/93 96/96/96 95/95/95
f 97/97/97 90/90/90 94/94/94
f 95/95/95 97/97/97 94/94/94
f 90/90/90 97/97/97 98/98/98
f 99/99/99 91/91/91 83/83/83
f 81/81/81 99/99/99 83/83/83
f 96/96/96 91/91/91 100/100/100
f 99/99/99 100/100/100 91/91/91
f 98/98/98 97/97/97 101/101/101
f 98/98/98 101/101/101 102/102/102
f 96/96/96 100/100/100 103/103/103
f 95/95/95 96/96/96 103/103/103
f 99/99/99 104/104/104 100/100/100
f 100/100/100 104/104/104 103/103/103
f 99/99/99 81/81/81 105/105/105
f 104/104/104 99/99/99 105/105/105
f 81/81/81 106/106/106 105/105/105
f 106/106/106 81/81/81 79/79/79
f 105/105/105 106/106/106 107/107/107
f 104/104/104 105/105/105 107/107/107
f 79/79/79 108/108/108 106/106/106
f 107/107/107 106/106/106 108/108/108
f 108/108/108 79/79/79 109/109/109
f 110/110/110 108/108/108 109/109/109
f 110/110/110 107/107/107 108/108/108
f 111/111/111 110/110/110 109/109/109
f 111/111/111 109/109/109 112/112/112
f 113/113/113 111/111/111 112/112/112
f 114/114/114 110/110/110 111/111/111
f 113/113/113 114/114/114 111/111/111
f 115/115/115 104/104/104 107/107/107
f 107/107/107 110/110/110 116/116/116
f 116/116/116 115/115/115 107/107/107
f 116/116/116 110/110/110 117/117/117
f 114/114/114 117/117/117 110/110/110
f 117/117/117 115/115/115 116/116/116
f 115/115/115 118/118/118 104/104/104
f 104/104/104 118/118/118 103/103/103
f 115/115/115 119/119/119 118/118/118
f 118/118/118 119/119/119 103/103/103
f 117/117/117 119/119/119 115/115/115
f 119/119/119 120/120/120 103/103/103
f 103/103/103 120/120/120 95/95/95
f 119/119/119 117/117/117 121/121/121
f 120/120/120 119/119/119 121/121/121
f 117/117/117 114/114/114 122/122/122
f 121/121/121 117/117/117 122/122/122
f 123/123/123 114/114/114 113/113/113
f 122/122/122 114/114/114 123/123/123
f 124/124/124 123/123/123 113/113/113
f 124/124/124 122/122/122 123/123/123
f 124/124/124 113/113/113 125/125/125
f 125/125/125 102/102/102 124/124/124
f 124/124/124 102/102/102 101/101/101
f 124/124/124 101/101/101 122/122/122
f 126/126/126 122/122/122 101/101/101
f 121/121/121 122/122/122 126/126/126
f 126/126/126 101/101/101 97/97/97
f 95/95/95 126/126/126 97/97/97
f 120/120/120 127/127/127 95/95/95
f 120/120/120 121/121/121 127/127/127
f 95/95/95 127/127/127 126/126/126
f 127/127/127 121/121/121 126/126/126
