g SchroomRightSmallest01
v -0.1325855 0.130242 -0.1076609
v -0.09943721 0.09528617 0.001779905
v -0.1352475 0.07682289 -0.02908458
v -0.08927583 0.09638102 -0.08147904
v -0.1218253 0.06022879 -0.07543156
v -0.01700134 -0.03892427 -0.007002279
v -0.1218253 0.06022879 -0.07543156
v -0.1352475 0.07682289 -0.02908458
v 0.0232542 -0.0275587 -0.03176722
v 0.06616927 -0.04373927 -0.0195936
v -0.1005256 0.06445795 -0.08298481
v -0.08927583 0.09638102 -0.08147904
v 0.1485696 -0.01815839 -0.02866486
v 0.153848 -0.03668211 0.003848569
v 0.002956849 0.01489795 -0.03810366
v 0.2099275 -0.03572861 -0.02303561
v 0.1984261 -0.04728404 0.01441591
v 0.2134883 -0.001149238 -0.03810691
v 0.04316607 0.005603833 -0.02860666
v 0.1756239 0.01312796 -0.02378842
v 0.2120178 0.0377862 -0.01316525
v 0.1573438 0.02724063 -0.003602795
v 0.2002935 0.04105861 0.02366823
v 0.05374403 0.02547491 0.004200313
v 0.1460443 0.01881533 0.02645155
v 0.1873917 0.01766171 0.04183982
v -0.00261806 0.03678408 -0.01686299
v 0.1431154 -0.01391433 0.03638245
v 0.1877196 -0.02508551 0.04574596
v 0.06371789 0.01255858 0.02781215
v -0.0768172 0.1139217 -0.03885754
v -0.1325855 0.130242 -0.1076609
v -0.09943721 0.09528617 0.001779905
v -0.02745309 -0.01134638 0.02812095
v -0.1352475 0.07682289 -0.02908458
v -0.01700134 -0.03892427 -0.007002279
v 0.05344583 -0.03915799 0.01678745
v 0.06616927 -0.04373927 -0.0195936
v 0.153848 -0.03668211 0.003848569
v 0.1984261 -0.04728404 0.01441591
v 0.2120178 0.0377862 -0.01316525
v 0.219824 0.08750889 -0.01499816
v 0.2002935 0.04105861 0.02366823
v 0.2134883 -0.001149238 -0.03810691
v 0.1962099 0.1307387 0.05294313
v 0.2164474 0.1358056 -0.01133368
v 0.2255388 0.09814945 -0.08314256
v 0.2300686 0.007443603 -0.1286907
v 0.2121768 -0.0486857 -0.1282398
v 0.2099275 -0.03572861 -0.02303561
v 0.2030471 -0.1123797 -0.08680362
v 0.1804117 0.05694127 0.1199855
v 0.1984261 -0.04728404 0.01441591
v 0.1831833 -0.1280906 -0.02037835
v 0.1873917 0.01766171 0.04183982
v 0.1800474 -0.1267213 0.03187438
v 0.1822325 -0.08081089 0.07017668
v 0.1877196 -0.02508551 0.04574596
v 0.1725455 0.02389703 0.1288808
v 0.1684692 -0.07406717 0.1040455
v 0.1962099 0.1307387 0.05294313
v 0.220553 0.04727628 0.1185675
v 0.1804117 0.05694127 0.1199855
v 0.1725455 0.02389703 0.1288808
v 0.2101209 -0.03159045 0.1227746
v 0.1684692 -0.07406717 0.1040455
v 0.2334562 0.1065871 0.05876402
v 0.2539291 0.1180861 -0.005077562
v 0.2164474 0.1358056 -0.01133368
v 0.2649429 0.06746347 0.06388927
v 0.2535139 0.113018 -0.03182532
v 0.2255388 0.09814945 -0.08314256
v 0.2572729 0.01683242 0.09463056
v 0.2868243 0.0736715 0.02882926
v 0.2426244 0.07020456 -0.1045777
v 0.2300686 0.007443603 -0.1286907
v 0.2992385 0.03608146 0.06221832
v 0.2069732 -0.09739461 0.08999061
v 0.2537556 -0.04259488 0.0851254
v 0.3040597 -0.01227102 0.06927671
v 0.3280979 0.028118 0.02463924
v 0.3204439 0.04758076 -0.00105587
v 0.3014606 0.05206844 -0.04634595
v 0.265119 0.01790045 -0.1078079
v 0.3334789 -0.003899317 0.01387129
v 0.3194735 0.005541604 -0.03596108
v 0.2625353 -0.03204825 -0.1052362
v 0.2121768 -0.0486857 -0.1282398
v 0.3061974 -0.0292694 -0.03483963
v 0.2433091 -0.1040287 -0.08194932
v 0.2030471 -0.1123797 -0.08680362
v 0.3005076 -0.04170114 0.05743372
v 0.3048807 -0.0519207 0.01193691
v 0.2554424 -0.08830564 0.03770257
v 0.2776316 -0.07023134 -0.02186352
v 0.2402651 -0.1111359 0.031239
v 0.2248452 -0.1194867 -0.06358235
v 0.1831833 -0.1280906 -0.02037835
v 0.2119369 -0.1274799 0.03831771
v 0.1800474 -0.1267213 0.03187438
v 0.1826663 -0.09976414 0.08715008
vt 0.3509192 0.008411655
vt 0.3535112 0.0156364
vt 0.3593463 0.01027625
vt 0.3517009 0.001953125
vt 0.3593463 0.002311817
vt 0.1324021 0.01186082
vt 0.1376379 0.006264882
vt 0.1305196 0.003282415
vt 0.1386191 0.01680726
vt 0.1359904 0.0236694
vt 0.1404919 0.007448403
vt 0.1430932 0.004203769
vt 0.1402222 0.03616263
vt 0.1341369 0.03666586
vt 0.1448166 0.01252463
vt 0.1360907 0.04564154
vt 0.1305196 0.04297486
vt 0.1414372 0.04665535
vt 0.1446632 0.01946957
vt 0.1448899 0.04079587
vt 0.147464 0.04719862
vt 0.1490633 0.03833769
vt 0.1523937 0.04593238
vt 0.1513375 0.02154957
vt 0.154206 0.03695524
vt 0.1560412 0.0438213
vt 0.1497052 0.01173645
vt 0.1597229 0.03644769
vt 0.1617409 0.0438252
vt 0.1557048 0.0238034
vt 0.1486837 0.004872258
vt 0.1482548 0.001953125
vt 0.1554432 0.004260091
vt 0.1610225 0.009826195
vt 0.1634869 0.002078935
vt 0.1680066 0.01047812
vt 0.1651588 0.02205103
vt 0.170925 0.02389133
vt 0.1663983 0.03736417
vt 0.1677597 0.04446751
vt 0.7481807 0.1058462
vt 0.7521503 0.09908841
vt 0.7429766 0.102703
vt 0.7489223 0.1130663
vt 0.7450196 0.08810585
vt 0.7548683 0.09202721
vt 0.7624166 0.1023543
vt 0.7624166 0.1182666
vt 0.7578553 0.1262698
vt 0.7443143 0.1167916
vt 0.7473456 0.1320837
vt 0.7302308 0.09370616
vt 0.7380216 0.1157826
vt 0.7364826 0.1296228
vt 0.738391 0.1047146
vt 0.729368 0.1255421
vt 0.7275927 0.1163865
vt 0.734932 0.1103886
vt 0.7264206 0.09766096
vt 0.7228435 0.113072
vt 0.04496956 0.05600316
vt 0.02462533 0.05315127
vt 0.02409216 0.05911646
vt 0.01630847 0.05724054
vt 0.01275606 0.04578756
vt 0.001953125 0.04140445
vt 0.04000872 0.05032945
vt 0.04795634 0.04119336
vt 0.05362612 0.04439342
vt 0.03421568 0.04557228
vt 0.05010708 0.03694422
vt 0.05556644 0.02715791
vt 0.02423858 0.04501648
vt 0.03818091 0.04014429
vt 0.0505737 0.0218258
vt 0.04570495 0.009237719
vt 0.03075991 0.04008359
vt 0.006951703 0.03491372
vt 0.01703255 0.03816428
vt 0.02499895 0.03663306
vt 0.03283607 0.03408503
vt 0.0368447 0.03289415
vt 0.04129935 0.02810708
vt 0.04286276 0.01581011
vt 0.0303427 0.03040683
vt 0.03471749 0.02534542
vt 0.0356323 0.01122247
vt 0.03463616 0.001953125
vt 0.03035948 0.02222775
vt 0.02228714 0.008734969
vt 0.018292 0.003766709
vt 0.02244505 0.03307024
vt 0.02436075 0.02669307
vt 0.01503717 0.02736171
vt 0.0230435 0.0203726
vt 0.01169628 0.02466986
vt 0.01740143 0.009482349
vt 0.006951703 0.01326501
vt 0.006634243 0.02431057
vt 0.001953125 0.0227963
vt 0.003755042 0.03487945
vn -0.4402267 0.458873 -0.7717746
vn -0.3149371 0.5178133 0.7954144
vn -0.9613253 -0.06488268 0.267664
vn 0.3486143 0.2207117 -0.9109086
vn -0.7646049 -0.2414314 -0.5975702
vn -0.3777537 -0.9248372 -0.04447978
vn -0.7646049 -0.2414314 -0.5975702
vn -0.9613253 -0.06488268 0.267664
vn -0.01172636 -0.4855337 -0.8741393
vn 0.03563325 -0.9001231 -0.4341758
vn -0.0690855 -0.2038589 -0.9765596
vn 0.3486143 0.2207117 -0.9109086
vn -0.006075718 -0.3921974 -0.919861
vn -0.09285319 -0.9953739 0.02468038
vn 0.4680709 0.3462225 -0.8130435
vn -0.8487399 -0.2395327 -0.4714496
vn -0.908412 -0.3936863 -0.140708
vn -0.8067296 0.1594153 -0.5690116
vn 0.1462221 0.4581887 -0.8767452
vn -0.1549597 0.5234883 -0.837823
vn -0.76982 0.4497354 -0.4528964
vn -0.1667603 0.9491871 -0.2668984
vn -0.8342299 0.5363756 -0.1279129
vn 0.03928345 0.9989368 0.02412649
vn -0.1849305 0.7194181 0.669506
vn -0.8298525 0.3898441 0.3992074
vn 0.5914209 0.5698032 -0.570566
vn -0.1426528 -0.3115672 0.9394552
vn -0.9388589 -0.2963044 0.1753498
vn 0.001934607 0.5571671 0.8303981
vn 0.4072866 0.9118251 0.05188947
vn -0.4402267 0.458873 -0.7717746
vn -0.3149371 0.5178133 0.7954144
vn -0.3850924 -0.3915561 0.8356959
vn -0.9613253 -0.06488268 0.267664
vn -0.3777537 -0.9248372 -0.04447978
vn -0.03727969 -0.8392385 0.542484
vn 0.03563325 -0.9001231 -0.4341758
vn -0.09285319 -0.9953739 0.02468038
vn -0.908412 -0.3936863 -0.140708
vn -0.76982 0.4497354 -0.4528964
vn -0.9733788 0.02941497 -0.2273067
vn -0.8342299 0.5363756 -0.1279129
vn -0.8067296 0.1594153 -0.5690116
vn -0.5120862 0.8266898 0.2331346
vn -0.447599 0.863832 -0.231191
vn -0.4588524 0.664919 -0.5893533
vn -0.3363315 0.1749179 -0.9253566
vn -0.483502 -0.1427875 -0.8636189
vn -0.8487399 -0.2395327 -0.4714496
vn -0.5634547 -0.5759921 -0.5922431
vn -0.6373112 0.4669154 0.6130452
vn -0.908412 -0.3936863 -0.140708
vn -0.7385966 -0.6450769 -0.1958335
vn -0.8298525 0.3898441 0.3992074
vn -0.7487901 -0.6561306 0.09384081
vn -0.9251967 0.2128376 -0.3141834
vn -0.9388589 -0.2963044 0.1753498
vn -0.7481545 0.1422276 0.6481019
vn -0.8167933 -0.2941929 0.4962853
vn -0.5120862 0.8266898 0.2331346
vn 0.3913136 0.3237599 0.861425
vn -0.6373112 0.4669154 0.6130452
vn -0.7481545 0.1422276 0.6481019
vn 0.2540907 -0.238365 0.9373473
vn -0.8167933 -0.2941929 0.4962853
vn 0.5171854 0.6864456 0.5111865
vn 0.6368667 0.7691556 0.05291924
vn -0.447599 0.863832 -0.231191
vn 0.5891534 0.5531101 0.5890396
vn 0.5684901 0.7675646 -0.2960806
vn -0.4588524 0.664919 -0.5893533
vn 0.5609713 0.09215694 0.8226897
vn 0.6449766 0.6926749 0.3228105
vn 0.2258239 0.5235841 -0.8215006
vn -0.3363315 0.1749179 -0.9253566
vn 0.6512876 0.394597 0.6481649
vn 0.307265 -0.6514238 0.6937113
vn 0.5374523 -0.3925194 0.7463736
vn 0.6907748 -0.1175784 0.7134462
vn 0.9114456 0.3122343 0.2679116
vn 0.8635501 0.499797 -0.06696473
vn 0.7872816 0.4333648 -0.4386144
vn 0.6555386 0.1229442 -0.7450864
vn 0.9840798 -0.1710477 0.04826735
vn 0.9047171 -0.03964156 -0.4241644
vn 0.6620128 -0.242554 -0.7091591
vn -0.483502 -0.1427875 -0.8636189
vn 0.8278526 -0.4414943 -0.3460389
vn 0.5634941 -0.6688452 -0.4848922
vn -0.5634547 -0.5759921 -0.5922431
vn 0.6764234 -0.5305228 0.5108788
vn 0.7614247 -0.6482152 -0.007037939
vn 0.6650442 -0.651763 0.3645835
vn 0.736495 -0.6702769 -0.09112667
vn 0.6520187 -0.7213426 0.2335308
vn 0.3087377 -0.9280438 -0.2083642
vn -0.7385966 -0.6450769 -0.1958335
vn 0.2476584 -0.9314412 0.2666133
vn -0.7487901 -0.6561306 0.09384081
vn -0.335198 -0.7415553 0.5811523
g SchroomRightSmallest01_0
f 3/3/3 2/2/2 1/1/1
f 1/1/1 4/4/4 3/3/3
f 3/3/3 4/4/4 5/5/5
f 8/8/8 7/7/7 6/6/6
f 7/7/7 9/9/9 6/6/6
f 9/9/9 10/10/10 6/6/6
f 7/7/7 11/11/11 9/9/9
f 7/7/7 12/12/12 11/11/11
f 9/9/9 13/13/13 10/10/10
f 14/14/14 10/10/10 13/13/13
f 9/9/9 11/11/11 15/15/15
f 11/11/11 12/12/12 15/15/15
f 13/13/13 16/16/16 14/14/14
f 14/14/14 16/16/16 17/17/17
f 13/13/13 18/18/18 16/16/16
f 19/19/19 13/13/13 9/9/9
f 19/19/19 9/9/9 15/15/15
f 13/13/13 20/20/20 18/18/18
f 13/13/13 19/19/19 20/20/20
f 18/18/18 20/20/20 21/21/21
f 21/21/21 20/20/20 22/22/22
f 20/20/20 19/19/19 22/22/22
f 21/21/21 22/22/22 23/23/23
f 15/15/15 24/24/24 19/19/19
f 24/24/24 22/22/22 19/19/19
f 25/25/25 23/23/23 22/22/22
f 25/25/25 22/22/22 24/24/24
f 25/25/25 26/26/26 23/23/23
f 24/24/24 15/15/15 27/27/27
f 15/15/15 12/12/12 27/27/27
f 26/26/26 25/25/25 28/28/28
f 29/29/29 26/26/26 28/28/28
f 24/24/24 30/30/30 25/25/25
f 27/27/27 30/30/30 24/24/24
f 30/30/30 28/28/28 25/25/25
f 12/12/12 31/31/31 27/27/27
f 27/27/27 31/31/31 30/30/30
f 12/12/12 32/32/32 31/31/31
f 32/32/32 33/33/33 31/31/31
f 30/30/30 31/31/31 33/33/33
f 34/34/34 30/30/30 33/33/33
f 28/28/28 30/30/30 34/34/34
f 34/34/34 33/33/33 35/35/35
f 36/36/36 34/34/34 35/35/35
f 34/34/34 36/36/36 37/37/37
f 28/28/28 34/34/34 37/37/37
f 36/36/36 38/38/38 37/37/37
f 37/37/37 38/38/38 39/39/39
f 28/28/28 37/37/37 39/39/39
f 39/39/39 29/29/29 28/28/28
f 40/40/40 29/29/29 39/39/39
f 43/43/43 42/42/42 41/41/41
f 41/41/41 42/42/42 44/44/44
f 43/43/43 45/45/45 42/42/42
f 45/45/45 46/46/46 42/42/42
f 42/42/42 46/46/46 47/47/47
f 42/42/42 47/47/47 48/48/48
f 42/42/42 48/48/48 44/44/44
f 44/44/44 48/48/48 49/49/49
f 50/50/50 44/44/44 49/49/49
f 49/49/49 51/51/51 50/50/50
f 45/45/45 43/43/43 52/52/52
f 50/50/50 51/51/51 53/53/53
f 53/53/53 51/51/51 54/54/54
f 52/52/52 43/43/43 55/55/55
f 56/56/56 53/53/53 54/54/54
f 52/52/52 55/55/55 57/57/57
f 56/56/56 57/57/57 53/53/53
f 57/57/57 55/55/55 58/58/58
f 57/57/57 58/58/58 53/53/53
f 59/59/59 52/52/52 57/57/57
f 56/56/56 60/60/60 57/57/57
f 59/59/59 57/57/57 60/60/60
f 63/63/63 62/62/62 61/61/61
f 62/62/62 63/63/63 64/64/64
f 62/62/62 64/64/64 65/65/65
f 66/66/66 65/65/65 64/64/64
f 62/62/62 67/67/67 61/61/61
f 67/67/67 68/68/68 61/61/61
f 68/68/68 69/69/69 61/61/61
f 62/62/62 70/70/70 67/67/67
f 70/70/70 68/68/68 67/67/67
f 68/68/68 71/71/71 69/69/69
f 71/71/71 72/72/72 69/69/69
f 62/62/62 65/65/65 73/73/73
f 62/62/62 73/73/73 70/70/70
f 70/70/70 74/74/74 68/68/68
f 71/71/71 68/68/68 74/74/74
f 75/75/75 72/72/72 71/71/71
f 72/72/72 75/75/75 76/76/76
f 73/73/73 77/77/77 70/70/70
f 77/77/77 74/74/74 70/70/70
f 78/78/78 65/65/65 66/66/66
f 65/65/65 79/79/79 73/73/73
f 78/78/78 79/79/79 65/65/65
f 77/77/77 73/73/73 80/80/80
f 80/80/80 73/73/73 79/79/79
f 77/77/77 81/81/81 74/74/74
f 77/77/77 80/80/80 81/81/81
f 74/74/74 82/82/82 71/71/71
f 74/74/74 81/81/81 82/82/82
f 83/83/83 75/75/75 71/71/71
f 83/83/83 71/71/71 82/82/82
f 84/84/84 76/76/76 75/75/75
f 84/84/84 75/75/75 83/83/83
f 85/85/85 81/81/81 80/80/80
f 81/81/81 85/85/85 82/82/82
f 82/82/82 86/86/86 83/83/83
f 86/86/86 84/84/84 83/83/83
f 82/82/82 85/85/85 86/86/86
f 87/87/87 76/76/76 84/84/84
f 87/87/87 84/84/84 86/86/86
f 88/88/88 76/76/76 87/87/87
f 87/87/87 86/86/86 89/89/89
f 89/89/89 86/86/86 85/85/85
f 90/90/90 88/88/88 87/87/87
f 90/90/90 87/87/87 89/89/89
f 91/91/91 88/88/88 90/90/90
f 92/92/92 85/85/85 80/80/80
f 92/92/92 80/80/80 79/79/79
f 93/93/93 89/89/89 85/85/85
f 92/92/92 93/93/93 85/85/85
f 94/94/94 92/92/92 79/79/79
f 94/94/94 93/93/93 92/92/92
f 89/89/89 93/93/93 95/95/95
f 94/94/94 95/95/95 93/93/93
f 90/90/90 89/89/89 95/95/95
f 96/96/96 94/94/94 79/79/79
f 94/94/94 96/96/96 95/95/95
f 96/96/96 90/90/90 95/95/95
f 78/78/78 96/96/96 79/79/79
f 97/97/97 91/91/91 90/90/90
f 97/97/97 90/90/90 96/96/96
f 97/97/97 98/98/98 91/91/91
f 99/99/99 97/97/97 96/96/96
f 98/98/98 97/97/97 99/99/99
f 99/99/99 96/96/96 78/78/78
f 100/100/100 98/98/98 99/99/99
f 78/78/78 101/101/101 99/99/99
f 101/101/101 100/100/100 99/99/99
f 78/78/78 66/66/66 101/101/101
f 101/101/101 66/66/66 100/100/100
