g Shield_generator:polySurface6
v -0.01049958 -0.06347468 -0.01314896
v -0.009915919 0.06347466 -0.01165478
v -0.01394381 0.06347466 -0.004811808
v -0.01452748 -0.06347468 -0.005428707
v -0.01452748 -0.06347468 0.005428709
v -0.01394383 0.06347466 0.004811815
v -0.01049958 -0.06347468 0.01314897
v -0.009915919 0.06347466 0.01165479
v 0.0432583 -0.06347468 -0.01628612
v 0.04384195 0.06347466 -0.00481181
v 0.04384195 0.06347466 -0.01443544
v 0.0432583 -0.06347468 -0.005428709
v 0.04384195 0.06347466 0.004811818
v 0.0432583 -0.06347468 0.005428707
v 0.04384195 0.06347466 0.01443545
v 0.0432583 -0.06347468 0.01628612
v 0.0432583 -0.06347468 -0.01628612
v -0.01049958 -0.06347468 -0.01314896
v -0.01452748 -0.06347468 -0.005428707
v 0.0432583 -0.06347468 -0.005428709
v 0.0432583 -0.06347468 0.005428707
v -0.01452748 -0.06347468 0.005428709
v 0.0432583 -0.06347468 0.01628612
v -0.01049958 -0.06347468 0.01314897
v 0.0432583 -0.06347468 0.01628612
v -0.01049958 -0.06347468 0.01314897
v -0.009915919 0.06347466 0.01165479
v 0.04384195 0.06347466 0.01443545
v 0.04384195 0.06347466 -0.00481181
v -0.009915919 0.06347466 -0.01165478
v 0.04384195 0.06347466 -0.01443544
v -0.01394381 0.06347466 -0.004811808
v 0.04384195 0.06347466 0.004811818
v -0.01394383 0.06347466 0.004811815
v 0.04384195 0.06347466 0.01443545
v -0.009915919 0.06347466 0.01165479
v 0.04384195 0.06347466 -0.01443544
v -0.009915919 0.06347466 -0.01165478
v -0.01049958 -0.06347468 -0.01314896
v 0.0432583 -0.06347468 -0.01628612
vt 0.4609375 0.01898193
vt 0.2817383 0.02085876
vt 0.2817383 0.03051758
vt 0.4609375 0.02986145
vt 0.4609375 0.04516602
vt 0.2817383 0.0440979
vt 0.4606934 0.05606079
vt 0.2817383 0.05374146
vt 0.458252 0.1777344
vt 0.2797852 0.1566162
vt 0.2792969 0.170166
vt 0.4587402 0.1624756
vt 0.2800293 0.1430664
vt 0.4589844 0.1472168
vt 0.2805176 0.1295166
vt 0.4594727 0.1318359
vt 0.458252 0.1777344
vt 0.4553223 0.2536621
vt 0.4655762 0.2602539
vt 0.4733887 0.1791992
vt 0.4887695 0.1806641
vt 0.480957 0.2617188
vt 0.5039063 0.1821289
vt 0.4921875 0.2570801
vt 0.4594727 0.1318359
vt 0.4606934 0.05606079
vt 0.2817383 0.05374146
vt 0.2805176 0.1295166
vt 0.2658691 0.1704102
vt 0.2766113 0.2459717
vt 0.2792969 0.170166
vt 0.2668457 0.2519531
vt 0.2521973 0.1705322
vt 0.253418 0.2519531
vt 0.2386475 0.1707764
vt 0.2436523 0.24646
vt 0.2792969 0.170166
vt 0.2766113 0.2459717
vt 0.4553223 0.2536621
vt 0.458252 0.1777344
vn -0.875 0.008049011 -0.4841309
vn -0.875 0.008049011 -0.4841309
vn -0.9746094 0.006340027 -0.2235107
vn -0.9746094 0.006347656 -0.2246094
vn -0.9746094 0.006347656 0.2246094
vn -0.9746094 0.006340027 0.2235107
vn -0.875 0.008049011 0.4841309
vn -0.875 0.008049011 0.4841309
vn 1 -0.00459671 0
vn 1 -0.00459671 0
vn 1 -0.00459671 0
vn 1 -0.00459671 0
vn 1 -0.00459671 0
vn 1 -0.00459671 0
vn 1 -0.00459671 0
vn 1 -0.00459671 0
vn 0 -1 -4.649162E-06
vn 0 -1 -4.649162E-06
vn 0 -1 -1.66893E-06
vn 0 -1 -2.086163E-06
vn 0 -1 1.430511E-06
vn 0 -1 1.132488E-06
vn 0 -1 3.159046E-06
vn 0 -1 3.159046E-06
vn -0.05496216 0.01340485 0.9985352
vn -0.05496216 0.01340485 0.9985352
vn -0.05496216 0.01340485 0.9985352
vn -0.05496216 0.01340485 0.9985352
vn 0 1 2.384186E-06
vn 0 1 0
vn 0 1 0
vn 0 1 2.801418E-06
vn 0 1 2.384186E-06
vn 0 1 2.801418E-06
vn 0 1 0
vn 0 1 0
vn -0.05496216 0.01340485 -0.9985352
vn -0.05496216 0.01340485 -0.9985352
vn -0.05496216 0.01340485 -0.9985352
vn -0.05496216 0.01340485 -0.9985352
g Shield_generator:polySurface6_0
f 3/3/3 2/2/2 1/1/1
f 4/4/4 3/3/3 1/1/1
f 4/4/4 5/5/5 3/3/3
f 5/5/5 6/6/6 3/3/3
f 5/5/5 7/7/7 6/6/6
f 7/7/7 8/8/8 6/6/6
f 11/11/11 10/10/10 9/9/9
f 10/10/10 12/12/12 9/9/9
f 10/10/10 13/13/13 12/12/12
f 13/13/13 14/14/14 12/12/12
f 13/13/13 15/15/15 14/14/14
f 15/15/15 16/16/16 14/14/14
f 19/19/19 18/18/18 17/17/17
f 20/20/20 19/19/19 17/17/17
f 20/20/20 21/21/21 19/19/19
f 21/21/21 22/22/22 19/19/19
f 21/21/21 23/23/23 22/22/22
f 23/23/23 24/24/24 22/22/22
f 27/27/27 26/26/26 25/25/25
f 28/28/28 27/27/27 25/25/25
f 31/31/31 30/30/30 29/29/29
f 30/30/30 32/32/32 29/29/29
f 29/29/29 32/32/32 33/33/33
f 32/32/32 34/34/34 33/33/33
f 33/33/33 34/34/34 35/35/35
f 34/34/34 36/36/36 35/35/35
f 39/39/39 38/38/38 37/37/37
f 40/40/40 39/39/39 37/37/37
