g Shield_generator:polySurface3
v -0.134841 -0.08781541 -0.01945327
v -0.1191263 0.1 -0.0172427
v -0.1250854 0.1 -0.007118853
v -0.1408001 -0.08781541 -0.008031526
v -0.1408001 -0.08781541 0.008031493
v -0.1250854 0.1 0.00711883
v -0.134841 -0.08781541 0.01945325
v -0.1191263 0.1 0.01724267
v -0.1135294 -0.08781541 -0.02409454
v -0.134841 -0.08781541 -0.01945327
v -0.1408001 -0.08781541 -0.008031526
v -0.1135294 -0.08781541 -0.008031528
v -0.1135294 -0.08781541 0.00803149
v -0.1408001 -0.08781541 0.008031493
v -0.1135294 -0.08781541 0.02409451
v -0.134841 -0.08781541 0.01945325
v -0.1135294 -0.08781541 0.02409451
v -0.134841 -0.08781541 0.01945325
v -0.1191263 0.1 0.01724267
v -0.09781472 0.1 0.02135652
v -0.09781472 0.1 -0.007118857
v -0.1191263 0.1 -0.0172427
v -0.09781472 0.1 -0.02135654
v -0.1250854 0.1 -0.007118853
v -0.09781473 0.1 0.007118833
v -0.1250854 0.1 0.00711883
v -0.09781472 0.1 0.02135652
v -0.1191263 0.1 0.01724267
v -0.09781472 0.1 -0.02135654
v -0.1191263 0.1 -0.0172427
v -0.134841 -0.08781541 -0.01945327
v -0.1135294 -0.08781541 -0.02409454
vt 0.8999023 0.6035156
vt 0.8579102 0.6855469
vt 0.862793 0.6865234
vt 0.9042969 0.6074219
vt 0.9111328 0.6108398
vt 0.8691406 0.6899414
vt 0.9165039 0.6123047
vt 0.8725586 0.6933594
vt 0.9033203 0.5922852
vt 0.8999023 0.6035156
vt 0.9042969 0.6074219
vt 0.9101563 0.5961914
vt 0.9169922 0.5996094
vt 0.9111328 0.6108398
vt 0.9238281 0.6030273
vt 0.9165039 0.6123047
vt 0.9248047 0.6186523
vt 0.9165039 0.6123047
vt 0.8725586 0.6933594
vt 0.8818359 0.6982422
vt 0.8569336 0.6977539
vt 0.8579102 0.6855469
vt 0.8510742 0.6948242
vt 0.862793 0.6865234
vt 0.8632813 0.7011719
vt 0.8691406 0.6899414
vt 0.8691406 0.7041016
vt 0.8725586 0.6933594
vt 0.8486328 0.6811523
vt 0.8579102 0.6855469
vt 0.8999023 0.6035156
vt 0.8901367 0.6000977
vn -0.8725586 0.07702637 -0.482666
vn -0.8725586 0.07702637 -0.482666
vn -0.9707031 0.08306885 -0.2258301
vn -0.9716797 0.08312988 -0.2209473
vn -0.9716797 0.08312988 0.2209473
vn -0.9707031 0.08306885 0.2258301
vn -0.8725586 0.07702637 0.482666
vn -0.8725586 0.07702637 0.482666
vn 0 -1 0
vn 0 -1 0
vn 0 -1 0
vn 0 -1 0
vn 0 -1 0
vn 0 -1 0
vn 0 -1 0
vn 0 -1 0
vn -0.2011719 0.02972412 0.9790039
vn -0.2011719 0.02972412 0.9790039
vn -0.2011719 0.02972412 0.9790039
vn -0.2011719 0.02972412 0.9790039
vn 0 1 0
vn 0 1 0
vn 0 1 0
vn 0 1 0
vn 0 1 0
vn 0 1 0
vn 0 1 0
vn 0 1 0
vn -0.2011719 0.02972412 -0.9790039
vn -0.2011719 0.02972412 -0.9790039
vn -0.2011719 0.02972412 -0.9790039
vn -0.2011719 0.02972412 -0.9790039
g Shield_generator:polySurface3_0
f 3/3/3 2/2/2 1/1/1
f 4/4/4 3/3/3 1/1/1
f 4/4/4 5/5/5 3/3/3
f 5/5/5 6/6/6 3/3/3
f 5/5/5 7/7/7 6/6/6
f 7/7/7 8/8/8 6/6/6
f 11/11/11 10/10/10 9/9/9
f 12/12/12 11/11/11 9/9/9
f 12/12/12 13/13/13 11/11/11
f 13/13/13 14/14/14 11/11/11
f 13/13/13 15/15/15 14/14/14
f 15/15/15 16/16/16 14/14/14
f 19/19/19 18/18/18 17/17/17
f 20/20/20 19/19/19 17/17/17
f 23/23/23 22/22/22 21/21/21
f 22/22/22 24/24/24 21/21/21
f 21/21/21 24/24/24 25/25/25
f 24/24/24 26/26/26 25/25/25
f 25/25/25 26/26/26 27/27/27
f 26/26/26 28/28/28 27/27/27
f 31/31/31 30/30/30 29/29/29
f 32/32/32 31/31/31 29/29/29
