g Shield_generator:pCylinder17
v 0.005077474 -0.004491448 -0.01562686
v 5.215154E-09 -0.004491448 -4.246167E-09
v 0.013293 -0.004491448 -0.009657935
v -0.005077476 -0.004491448 -0.01562686
v 0.01643104 -0.004491448 -4.246167E-09
v -0.013293 -0.004491448 -0.009657935
v 0.01329299 -0.004491448 0.009657926
v -0.01643104 -0.004491448 -4.246167E-09
v 0.005077474 -0.004491448 0.01562685
v -0.01329299 -0.004491448 0.00965795
v -0.005077476 -0.004491448 0.01562685
v 0.013293 0.004491472 -0.009657935
v 5.215154E-09 0.004491472 -4.246167E-09
v 0.005077474 0.004491472 -0.01562686
v 0.01643104 0.004491472 -4.246167E-09
v -0.005077476 0.004491472 -0.01562686
v 0.01329299 0.004491472 0.009657926
v -0.013293 0.004491472 -0.009657935
v 0.005077474 0.004491472 0.01562685
v -0.01643104 0.004491472 -4.246167E-09
v -0.005077476 0.004491472 0.01562685
v -0.01329299 0.004491472 0.00965795
v 0.013293 -0.004491448 -0.009657935
v 0.013293 0.004491472 -0.009657935
v 0.005077474 0.004491472 -0.01562686
v 0.005077474 -0.004491448 -0.01562686
v 0.01643104 -0.004491448 -4.246167E-09
v -0.005077476 0.004491472 -0.01562686
v 0.01643104 0.004491472 -4.246167E-09
v -0.005077476 -0.004491448 -0.01562686
v 0.01329299 -0.004491448 0.009657926
v -0.013293 0.004491472 -0.009657935
v 0.01329299 0.004491472 0.009657926
v -0.013293 -0.004491448 -0.009657935
v 0.005077474 -0.004491448 0.01562685
v -0.01643104 0.004491472 -4.246167E-09
v 0.005077474 0.004491472 0.01562685
v -0.01643104 -0.004491448 -4.246167E-09
v -0.005077476 -0.004491448 0.01562685
v -0.01329299 0.004491472 0.00965795
v -0.005077476 0.004491472 0.01562685
v -0.01329299 -0.004491448 0.00965795
vt 0.114502 0.314209
vt 0.1446533 0.3239746
vt 0.1259766 0.2983398
vt 0.114502 0.3337402
vt 0.1446533 0.2922363
vt 0.1259766 0.3496094
vt 0.1633301 0.2983398
vt 0.1446533 0.3557129
vt 0.1748047 0.314209
vt 0.1633301 0.3496094
vt 0.1748047 0.3337402
vt 0.07348633 0.3066406
vt 0.05413818 0.3249512
vt 0.08026123 0.3195801
vt 0.06158447 0.2995605
vt 0.07891846 0.3349609
vt 0.0479126 0.2995605
vt 0.0670166 0.3479004
vt 0.03598022 0.3066406
vt 0.04248047 0.3479004
vt 0.02923584 0.3195801
vt 0.0317688 0.3371582
vt 0.08404541 0.296875
vt 0.07348633 0.3066406
vt 0.08026123 0.3195801
vt 0.09570313 0.3161621
vt 0.06530762 0.2861328
vt 0.07891846 0.3349609
vt 0.06158447 0.2995605
vt 0.09283447 0.3464355
vt 0.04415894 0.2861328
vt 0.0670166 0.3479004
vt 0.0479126 0.2995605
vt 0.0715332 0.3652344
vt 0.02545166 0.296875
vt 0.04248047 0.3479004
vt 0.03598022 0.3066406
vt 0.03793335 0.3652344
vt 0.01379395 0.3161621
vt 0.0317688 0.3371582
vt 0.02923584 0.3195801
vt 0.01605225 0.3474121
vn 0 -1 0
vn 0 -1 0
vn 0 -1 0
vn 0 -1 0
vn 0 -1 0
vn 0 -1 -1.907349E-06
vn 0 -1 0
vn 0 -1 -1.907349E-06
vn 0 -1 0
vn 0 -1 0
vn 0 -1 0
vn 0 1 0
vn 0 1 0
vn 0 1 1.907349E-06
vn 0 1 -1.907349E-06
vn 0 1 0
vn 0 1 0
vn 0 1 0
vn 0 1 0
vn 0 1 0
vn 0 1 -1.907349E-06
vn 0 1 0
vn 0.809082 0 -0.5878906
vn 0.809082 0 -0.5878906
vn 0.309082 0 -0.9511719
vn 0.309082 0 -0.9511719
vn 1 0 0
vn -0.309082 0 -0.9511719
vn 1 0 0
vn -0.309082 0 -0.9511719
vn 0.809082 0 0.5878906
vn -0.809082 0 -0.5878906
vn 0.809082 0 0.5878906
vn -0.809082 0 -0.5878906
vn 0.309082 0 0.9511719
vn -1 0 0
vn 0.309082 0 0.9511719
vn -1 0 0
vn -0.309082 0 0.9511719
vn -0.809082 0 0.5878906
vn -0.309082 0 0.9511719
vn -0.809082 0 0.5878906
g Shield_generator:pCylinder17_0
f 3/3/3 2/2/2 1/1/1
f 1/1/1 2/2/2 4/4/4
f 5/5/5 2/2/2 3/3/3
f 4/4/4 2/2/2 6/6/6
f 7/7/7 2/2/2 5/5/5
f 6/6/6 2/2/2 8/8/8
f 9/9/9 2/2/2 7/7/7
f 8/8/8 2/2/2 10/10/10
f 11/11/11 2/2/2 9/9/9
f 10/10/10 2/2/2 11/11/11
f 14/14/14 13/13/13 12/12/12
f 12/12/12 13/13/13 15/15/15
f 16/16/16 13/13/13 14/14/14
f 15/15/15 13/13/13 17/17/17
f 18/18/18 13/13/13 16/16/16
f 17/17/17 13/13/13 19/19/19
f 20/20/20 13/13/13 18/18/18
f 19/19/19 13/13/13 21/21/21
f 22/22/22 13/13/13 20/20/20
f 21/21/21 13/13/13 22/22/22
f 25/25/25 24/24/24 23/23/23
f 26/26/26 25/25/25 23/23/23
f 23/23/23 24/24/24 27/27/27
f 28/28/28 25/25/25 26/26/26
f 24/24/24 29/29/29 27/27/27
f 30/30/30 28/28/28 26/26/26
f 27/27/27 29/29/29 31/31/31
f 32/32/32 28/28/28 30/30/30
f 29/29/29 33/33/33 31/31/31
f 34/34/34 32/32/32 30/30/30
f 31/31/31 33/33/33 35/35/35
f 36/36/36 32/32/32 34/34/34
f 33/33/33 37/37/37 35/35/35
f 38/38/38 36/36/36 34/34/34
f 35/35/35 37/37/37 39/39/39
f 40/40/40 36/36/36 38/38/38
f 37/37/37 41/41/41 39/39/39
f 42/42/42 40/40/40 38/38/38
f 39/39/39 41/41/41 42/42/42
f 41/41/41 40/40/40 42/42/42
