g short_arrow_V1_L0
v 0 -0.09000002 -0.024
v -0.18 -0.18 -0.02399999
v -0.18 -0.18 0.02399999
v 0 -0.09000002 0.024
v 0 0.18 -0.024
v 0.18 -0.18 -0.02399999
v 0.18 -0.18 0.02399999
v 0 0.18 0.024
v -0.18 -0.18 -0.02399999
v 0 0.18 -0.024
v 0 0.18 0.024
v -0.18 -0.18 0.02399999
v 0 -0.09000002 0.024
v 0 -0.08329181 0.03
v 0.1665836 -0.1665836 0.02999999
v 0.18 -0.18 0.02399999
v 0.18 -0.18 0.02399999
v 0.1665836 -0.1665836 0.02999999
v 0 0.1665836 0.03
v 0 0.18 0.024
v 0 0.18 0.024
v 0 0.1665836 0.03
v -0.1665836 -0.1665836 0.02999999
v -0.18 -0.18 0.02399999
v -0.18 -0.18 0.02399999
v -0.1665836 -0.1665836 0.02999999
v 0 -0.08329181 0.03
v 0 -0.09000002 0.024
v 0 0.1665836 0.03
v 0 -0.08329181 0.03
v -0.1665836 -0.1665836 0.02999999
v 0.1665836 -0.1665836 0.02999999
v 0 -0.09000002 -0.024
v 0.18 -0.18 -0.02399999
v 0.1665836 -0.1665836 -0.02999999
v 0 -0.08329181 -0.03
v 0.18 -0.18 -0.02399999
v 0 0.18 -0.024
v 0 0.1665836 -0.03
v 0.1665836 -0.1665836 -0.02999999
v 0 0.18 -0.024
v -0.18 -0.18 -0.02399999
v -0.1665836 -0.1665836 -0.02999999
v 0 0.1665836 -0.03
v -0.18 -0.18 -0.02399999
v 0 -0.09000002 -0.024
v 0 -0.08329181 -0.03
v -0.1665836 -0.1665836 -0.02999999
v 0 0.1665836 -0.03
v -0.1665836 -0.1665836 -0.02999999
v 0 -0.08329181 -0.03
v 0.1665836 -0.1665836 -0.02999999
v 0.18 -0.18 -0.02399999
v 0 -0.09000002 -0.024
v 0 -0.09000002 0.024
v 0.18 -0.18 0.02399999
vt 0.3534801 0.8828757
vt 0.01177197 0.8828759
vt 0.0117719 0.9643778
vt 0.3534801 0.964378
vt 0.6951934 0.6709805
vt 0.01177661 0.6709809
vt 0.01177661 0.7524829
vt 0.6951934 0.7524829
vt 0.01177669 0.8584242
vt 0.6951936 0.8584238
vt 0.6951936 0.7769218
vt 0.01177664 0.776922
vt 0.6710927 0.171616
vt 0.6710927 0.1833399
vt 0.962231 0.03777069
vt 0.985679 0.01432279
vt 0.985679 0.01432279
vt 0.962231 0.03777069
vt 0.6710927 0.6200475
vt 0.6710927 0.6434954
vt 0.6710927 0.6434954
vt 0.6710927 0.6200475
vt 0.3799542 0.03777069
vt 0.3565064 0.01432279
vt 0.3565064 0.01432279
vt 0.3799542 0.03777069
vt 0.6710927 0.1833399
vt 0.6710927 0.171616
vt 0.6710927 0.6200475
vt 0.6710927 0.1833399
vt 0.3799542 0.03777069
vt 0.962231 0.03777069
vt 0.3289067 0.4836489
vt 0.6434928 0.640942
vt 0.6200449 0.6174942
vt 0.3289067 0.4719249
vt 0.6434928 0.640942
vt 0.3289067 0.01176938
vt 0.3289067 0.03521726
vt 0.6200449 0.6174942
vt 0.3289067 0.01176938
vt 0.01432037 0.640942
vt 0.03776824 0.617494
vt 0.3289067 0.03521726
vt 0.01432037 0.640942
vt 0.3289067 0.4836489
vt 0.3289067 0.4719249
vt 0.03776824 0.617494
vt 0.3289067 0.03521726
vt 0.03776824 0.617494
vt 0.3289067 0.4719249
vt 0.6200449 0.6174942
vt 0.7187259 0.8828765
vt 0.3770176 0.8828767
vt 0.3770175 0.9643786
vt 0.7187259 0.9643788
vn 0.4472136 -0.8944272 0
vn 0.4472136 -0.8944272 0
vn 0.4472136 -0.8944272 0
vn 0.4472136 -0.8944272 0
vn 0.8944272 0.4472136 0
vn 0.8944272 0.4472136 0
vn 0.8944272 0.4472136 0
vn 0.8944272 0.4472136 0
vn -0.8944272 0.4472136 0
vn -0.8944272 0.4472136 0
vn -0.8944272 0.4472136 0
vn -0.8944272 0.4472136 0
vn -0.3162276 -0.6324556 0.7071068
vn -0.3162276 -0.6324556 0.7071068
vn -0.3162276 -0.6324556 0.7071068
vn -0.3162276 -0.6324556 0.7071068
vn 0.6324557 0.3162279 0.7071065
vn 0.6324557 0.3162279 0.7071065
vn 0.6324557 0.3162279 0.7071065
vn 0.6324557 0.3162279 0.7071065
vn -0.6324557 0.3162279 0.7071065
vn -0.6324557 0.3162279 0.7071065
vn -0.6324557 0.3162279 0.7071065
vn -0.6324557 0.3162279 0.7071065
vn 0.3162276 -0.6324556 0.7071068
vn 0.3162276 -0.6324556 0.7071068
vn 0.3162276 -0.6324556 0.7071068
vn 0.3162276 -0.6324556 0.7071068
vn 0 0 1
vn 0 0 1
vn 0 0 1
vn 0 0 1
vn -0.3162276 -0.6324555 -0.7071068
vn -0.3162276 -0.6324555 -0.7071068
vn -0.3162276 -0.6324555 -0.7071068
vn -0.3162276 -0.6324555 -0.7071068
vn 0.6324557 0.3162279 -0.7071065
vn 0.6324557 0.3162279 -0.7071065
vn 0.6324557 0.3162279 -0.7071065
vn 0.6324557 0.3162279 -0.7071065
vn -0.6324557 0.3162279 -0.7071065
vn -0.6324557 0.3162279 -0.7071065
vn -0.6324557 0.3162279 -0.7071065
vn -0.6324557 0.3162279 -0.7071065
vn 0.3162276 -0.6324556 -0.7071068
vn 0.3162276 -0.6324556 -0.7071068
vn 0.3162276 -0.6324556 -0.7071068
vn 0.3162276 -0.6324556 -0.7071068
vn 0 0 -1
vn 0 0 -1
vn 0 0 -1
vn 0 0 -1
vn -0.4472136 -0.8944272 0
vn -0.4472136 -0.8944272 0
vn -0.4472136 -0.8944272 0
vn -0.4472136 -0.8944272 0
g short_arrow_V1_L0_0
f 3/3/3 2/2/2 1/1/1
f 4/4/4 3/3/3 1/1/1
f 7/7/7 6/6/6 5/5/5
f 8/8/8 7/7/7 5/5/5
f 11/11/11 10/10/10 9/9/9
f 12/12/12 11/11/11 9/9/9
f 15/15/15 14/14/14 13/13/13
f 16/16/16 15/15/15 13/13/13
f 19/19/19 18/18/18 17/17/17
f 20/20/20 19/19/19 17/17/17
f 23/23/23 22/22/22 21/21/21
f 24/24/24 23/23/23 21/21/21
f 27/27/27 26/26/26 25/25/25
f 28/28/28 27/27/27 25/25/25
f 31/31/31 30/30/30 29/29/29
f 32/32/32 29/29/29 30/30/30
f 35/35/35 34/34/34 33/33/33
f 36/36/36 35/35/35 33/33/33
f 39/39/39 38/38/38 37/37/37
f 40/40/40 39/39/39 37/37/37
f 43/43/43 42/42/42 41/41/41
f 44/44/44 43/43/43 41/41/41
f 47/47/47 46/46/46 45/45/45
f 48/48/48 47/47/47 45/45/45
f 51/51/51 50/50/50 49/49/49
f 49/49/49 52/52/52 51/51/51
f 55/55/55 54/54/54 53/53/53
f 56/56/56 55/55/55 53/53/53
