g short_arrow_V2_L0
v 0.009838699 -0.09491937 -0.024
v 0 -0.09288171 -0.024
v 0 -0.09288171 0.024
v 0.009838699 -0.09491937 0.024
v 0.1531672 -0.1665836 -0.02399999
v 0.1531672 -0.1665836 0.02399999
v 0.1647861 -0.1696969 -0.02399999
v 0.1647861 -0.1696969 0.02399999
v -0.003764906 0.166958 -0.024
v 0.003764906 0.166958 0.024
v -0.003764906 0.166958 0.024
v 0.003764906 0.166958 -0.024
v 0.01028591 0.1594282 0.024
v 0.01028591 0.1594282 -0.024
v 0.1665836 -0.1531672 0.02399999
v 0.1665836 -0.1531672 -0.02399999
v 0.1696969 -0.1647862 0.02399999
v 0.1696969 -0.1647862 -0.02399999
v 0.1647861 -0.1696969 0.02399999
v 0.1647861 -0.1696969 -0.02399999
v -0.01028591 0.1594282 -0.024
v -0.003764906 0.166958 -0.024
v -0.003764906 0.166958 0.024
v -0.01028591 0.1594282 0.024
v -0.1665836 -0.1531672 -0.02399999
v -0.1665836 -0.1531672 0.02399999
v -0.1696969 -0.1647862 -0.02399999
v -0.1696969 -0.1647862 0.02399999
v -0.1647861 -0.1696969 -0.02399999
v -0.1647861 -0.1696969 0.02399999
v -0.1531672 -0.1665836 -0.02399999
v -0.1647861 -0.1696969 -0.02399999
v -0.1647861 -0.1696969 0.02399999
v -0.1531672 -0.1665836 0.02399999
v -0.009838699 -0.09491937 -0.024
v -0.009838699 -0.09491937 0.024
v 0 -0.09288171 -0.024
v 0 -0.09288171 0.024
v 0.005256623 0.1560703 0.03
v -0.001023804 0.160958 0.03
v 0.001023805 0.160958 0.03
v -0.005256623 0.1560703 0.03
v 0 -0.08675438 0.03
v -0.01182193 -0.08920278 0.03
v 0.01182193 -0.08920278 0.03
v -0.1609453 -0.155307 0.02999999
v -0.155307 -0.1609453 0.02999999
v -0.1630048 -0.162993 0.02999999
v 0.1609453 -0.155307 0.02999999
v 0.155307 -0.1609453 0.02999999
v 0.162993 -0.1630048 0.02999999
v 0.005256623 0.1560703 -0.03
v 0.001023805 0.160958 -0.03
v -0.001023804 0.160958 -0.03
v -0.005256623 0.1560703 -0.03
v 0 -0.08675438 -0.03
v -0.01182193 -0.08920278 -0.03
v 0.01182193 -0.08920278 -0.03
v -0.1609453 -0.155307 -0.02999999
v -0.155307 -0.1609453 -0.02999999
v -0.1630048 -0.162993 -0.02999999
v 0.1609453 -0.155307 -0.02999999
v 0.155307 -0.1609453 -0.02999999
v 0.162993 -0.1630048 -0.02999999
v -0.1665836 -0.1531672 0.02399999
v -0.1630048 -0.162993 0.02999999
v -0.1696969 -0.1647862 0.02399999
v -0.1647861 -0.1696969 0.02399999
v -0.1609453 -0.155307 0.02999999
v -0.155307 -0.1609453 0.02999999
v -0.01028591 0.1594282 0.024
v -0.1531672 -0.1665836 0.02399999
v -0.005256623 0.1560703 0.03
v -0.01182193 -0.08920278 0.03
v -0.003764906 0.166958 0.024
v -0.009838699 -0.09491937 0.024
v -0.001023804 0.160958 0.03
v 0 -0.08675438 0.03
v 0.003764906 0.166958 0.024
v 0 -0.09288171 0.024
v 0.001023805 0.160958 0.03
v 0.01182193 -0.08920278 0.03
v 0.01028591 0.1594282 0.024
v 0.009838699 -0.09491937 0.024
v 0.005256623 0.1560703 0.03
v 0.155307 -0.1609453 0.02999999
v 0.1665836 -0.1531672 0.02399999
v 0.1531672 -0.1665836 0.02399999
v 0.1609453 -0.155307 0.02999999
v 0.1696969 -0.1647862 0.02399999
v 0.162993 -0.1630048 0.02999999
v 0.1647861 -0.1696969 0.02399999
v -0.1665836 -0.1531672 -0.02399999
v -0.1696969 -0.1647862 -0.02399999
v -0.1630048 -0.162993 -0.02999999
v -0.1647861 -0.1696969 -0.02399999
v -0.1609453 -0.155307 -0.02999999
v -0.155307 -0.1609453 -0.02999999
v -0.01028591 0.1594282 -0.024
v -0.1531672 -0.1665836 -0.02399999
v -0.005256623 0.1560703 -0.03
v -0.01182193 -0.08920278 -0.03
v -0.003764906 0.166958 -0.024
v -0.009838699 -0.09491937 -0.024
v -0.001023804 0.160958 -0.03
v 0 -0.08675438 -0.03
v 0.003764906 0.166958 -0.024
v 0 -0.09288171 -0.024
v 0.001023805 0.160958 -0.03
v 0.01182193 -0.08920278 -0.03
v 0.01028591 0.1594282 -0.024
v 0.009838699 -0.09491937 -0.024
v 0.005256623 0.1560703 -0.03
v 0.155307 -0.1609453 -0.02999999
v 0.1665836 -0.1531672 -0.02399999
v 0.1531672 -0.1665836 -0.02399999
v 0.1609453 -0.155307 -0.02999999
v 0.1696969 -0.1647862 -0.02399999
v 0.162993 -0.1630048 -0.02999999
v 0.1647861 -0.1696969 -0.02399999
vt 0.1288387 0.9069383
vt 0.1114215 0.9069383
vt 0.1114215 0.990146
vt 0.1288387 0.9901461
vt 0.4066247 0.9069383
vt 0.4066247 0.9901461
vt 0.4274768 0.9069383
vt 0.4274768 0.990146
vt 0.8778379 0.6789143
vt 0.7946301 0.6658614
vt 0.7946301 0.6789143
vt 0.877838 0.6658614
vt 0.7946301 0.6485941
vt 0.877838 0.6485941
vt 0.7946303 0.04274994
vt 0.8778378 0.04275
vt 0.7946303 0.02189807
vt 0.8778378 0.02189807
vt 0.7946303 0.00985924
vt 0.8778378 0.00985924
vt 0.009861094 0.8802577
vt 0.009855218 0.897525
vt 0.09306277 0.8975537
vt 0.09306864 0.8802865
vt 0.01007017 0.2744136
vt 0.09327807 0.2744424
vt 0.01007735 0.2535617
vt 0.09328525 0.2535904
vt 0.01008158 0.2415227
vt 0.09328947 0.2415515
vt 0.4001339 0.8034315
vt 0.379282 0.8034315
vt 0.379282 0.8866395
vt 0.4001339 0.8866395
vt 0.6779199 0.8034315
vt 0.6779199 0.8866394
vt 0.6953371 0.8034315
vt 0.6953371 0.8866393
vt 0.3220246 0.5908165
vt 0.3108311 0.5995278
vt 0.3144805 0.5995278
vt 0.3032869 0.5908165
vt 0.3126558 0.1580309
vt 0.2915856 0.1536671
vt 0.333726 0.1536671
vt 0.02580351 0.03584972
vt 0.03585269 0.0258006
vt 0.02213293 0.02215099
vt 0.599508 0.03584972
vt 0.5894589 0.0258006
vt 0.6031576 0.02213005
vt 0.551662 0.2609239
vt 0.5441177 0.2522129
vt 0.5404684 0.2522129
vt 0.5329243 0.2609239
vt 0.5422931 0.6937097
vt 0.521223 0.6980734
vt 0.5633634 0.6980734
vt 0.2554408 0.8158907
vt 0.2654899 0.8259398
vt 0.2517704 0.8295895
vt 0.8291454 0.8158908
vt 0.8190963 0.8259398
vt 0.8327949 0.8296105
vt 0.01575442 0.03966347
vt 0.02213293 0.02215099
vt 0.01020565 0.01895506
vt 0.01895797 0.01020268
vt 0.02580351 0.03584972
vt 0.03585269 0.0258006
vt 0.2943232 0.5968013
vt 0.03966644 0.01575145
vt 0.3032869 0.5908165
vt 0.2915856 0.1536671
vt 0.3059456 0.6102215
vt 0.2951203 0.1434784
vt 0.3108311 0.5995278
vt 0.3126558 0.1580309
vt 0.3193659 0.6102215
vt 0.3126558 0.1471101
vt 0.3144805 0.5995278
vt 0.333726 0.1536671
vt 0.3309883 0.5968013
vt 0.3301913 0.1434784
vt 0.3220246 0.5908165
vt 0.5894589 0.0258006
vt 0.6095571 0.03966347
vt 0.5856451 0.01575145
vt 0.599508 0.03584972
vt 0.615106 0.01895506
vt 0.6031576 0.02213005
vt 0.6063535 0.01020268
vt 0.2453918 0.8120769
vt 0.239843 0.8327854
vt 0.2517704 0.8295895
vt 0.2485953 0.8415378
vt 0.2554408 0.8158907
vt 0.2654899 0.8259398
vt 0.5239605 0.2549393
vt 0.2693038 0.8359891
vt 0.5329243 0.2609239
vt 0.521223 0.6980734
vt 0.535583 0.2415189
vt 0.5247577 0.7082621
vt 0.5404684 0.2522129
vt 0.5422931 0.6937097
vt 0.5490033 0.2415189
vt 0.5422931 0.7046304
vt 0.5441177 0.2522129
vt 0.5633634 0.6980734
vt 0.5606257 0.2549393
vt 0.5598286 0.7082621
vt 0.551662 0.2609239
vt 0.8190963 0.8259398
vt 0.8391945 0.812077
vt 0.8152823 0.8359891
vt 0.8291454 0.8158908
vt 0.8447434 0.8327854
vt 0.8327949 0.8296105
vt 0.8359909 0.8415378
vn -0.3277616 -0.9447604 0
vn 0 -1 0
vn 0 -1 0
vn -0.3277616 -0.9447604 0
vn -0.354822 -0.9349338 0
vn -0.354822 -0.9349338 0
vn 0.2588194 -0.9659257 0
vn 0.2588194 -0.9659257 0
vn -0.4155399 0.9095749 0
vn 0.4155399 0.9095749 0
vn -0.4155399 0.9095749 0
vn 0.4155399 0.9095749 0
vn 0.8316712 0.5552684 0
vn 0.8316712 0.5552684 0
vn 0.934934 0.3548217 0
vn 0.934934 0.3548217 0
vn 0.9659259 -0.2588186 0
vn 0.9659259 -0.2588186 0
vn 0.2588194 -0.9659257 0
vn 0.2588194 -0.9659257 0
vn -0.8316712 0.5552684 0
vn -0.4155399 0.9095749 0
vn -0.4155399 0.9095749 0
vn -0.8316712 0.5552684 0
vn -0.934934 0.3548217 0
vn -0.934934 0.3548217 0
vn -0.9659259 -0.2588186 0
vn -0.9659259 -0.2588186 0
vn -0.2588194 -0.9659257 0
vn -0.2588194 -0.9659257 0
vn 0.354822 -0.9349338 0
vn -0.2588194 -0.9659257 0
vn -0.2588194 -0.9659257 0
vn 0.354822 -0.9349338 0
vn 0.3277616 -0.9447604 0
vn 0.3277616 -0.9447604 0
vn 0 -1 0
vn 0 -1 0
vn 0 0 1
vn 0 0 1
vn 0 0 1
vn 0 0 1
vn 0 0 1
vn 0 0 1
vn 0 0 1
vn 0 0 1
vn 0 0 1
vn 0 0 1
vn 0 0 1
vn 0 0 1
vn 0 0 1
vn 0 0 -1
vn 0 0 -1
vn 0 0 -1
vn 0 0 -1
vn 0 0 -1
vn 0 0 -1
vn 0 0 -1
vn 0 0 -1
vn 0 0 -1
vn 0 0 -1
vn 0 0 -1
vn 0 0 -1
vn 0 0 -1
vn -0.659409 0.2502559 0.7089088
vn -0.3565544 -0.3554969 0.863997
vn -0.6323462 -0.1694377 0.7559292
vn -0.1692899 -0.6322014 0.7560835
vn -0.659409 0.2502559 0.7089089
vn 0.2499247 -0.6592614 0.7091629
vn -0.585771 0.3910922 0.7098726
vn 0.2499509 -0.6592516 0.7091627
vn -0.585771 0.3910923 0.7098726
vn 0.230783 -0.6652228 0.710083
vn -0.2796039 0.6120246 0.7397617
vn 0.230783 -0.6652228 0.7100831
vn -0.2796039 0.6120247 0.7397617
vn 0 -0.6996443 0.7144914
vn 0.2796039 0.6120246 0.7397618
vn 0 -0.6996443 0.7144914
vn 0.2796039 0.6120246 0.7397618
vn -0.2307829 -0.6652228 0.710083
vn 0.585771 0.3910922 0.7098727
vn -0.2307829 -0.6652228 0.7100831
vn 0.585771 0.3910922 0.7098727
vn -0.2502567 -0.6594093 0.7089082
vn 0.6592514 0.249951 0.709163
vn -0.2502567 -0.6594093 0.7089083
vn 0.6592612 0.2499249 0.709163
vn 0.6322025 -0.1692893 0.7560827
vn 0.355497 -0.3565544 0.863997
vn 0.1694382 -0.6323465 0.7559291
vn -0.659409 0.2502559 -0.7089088
vn -0.6323463 -0.1694378 -0.7559293
vn -0.3565542 -0.3554969 -0.863997
vn -0.1692896 -0.6322014 -0.7560835
vn -0.659409 0.2502559 -0.7089089
vn 0.249925 -0.6592613 -0.7091628
vn -0.585771 0.3910923 -0.7098726
vn 0.2499512 -0.6592516 -0.7091627
vn -0.585771 0.3910923 -0.7098726
vn 0.230783 -0.6652228 -0.7100831
vn -0.2796039 0.6120246 -0.7397617
vn 0.230783 -0.6652228 -0.7100831
vn -0.2796039 0.6120247 -0.7397617
vn 0 -0.6996442 -0.7144914
vn 0.2796039 0.6120246 -0.7397618
vn 0 -0.6996442 -0.7144914
vn 0.2796039 0.6120246 -0.7397618
vn -0.230783 -0.6652226 -0.7100832
vn 0.585771 0.3910922 -0.7098726
vn -0.230783 -0.6652227 -0.7100832
vn 0.5857711 0.3910922 -0.7098726
vn -0.2502569 -0.6594092 -0.7089082
vn 0.6592512 0.2499509 -0.7091631
vn -0.2502569 -0.6594092 -0.7089082
vn 0.6592611 0.2499248 -0.7091631
vn 0.6322024 -0.1692894 -0.7560829
vn 0.3554965 -0.3565544 -0.8639972
vn 0.1694379 -0.6323465 -0.7559291
g short_arrow_V2_L0_0
f 3/3/3 2/2/2 1/1/1
f 4/4/4 3/3/3 1/1/1
f 4/4/4 1/1/1 5/5/5
f 6/6/6 4/4/4 5/5/5
f 6/6/6 5/5/5 7/7/7
f 8/8/8 6/6/6 7/7/7
f 11/11/11 10/10/10 9/9/9
f 10/10/10 12/12/12 9/9/9
f 10/10/10 13/13/13 12/12/12
f 13/13/13 14/14/14 12/12/12
f 13/13/13 15/15/15 14/14/14
f 15/15/15 16/16/16 14/14/14
f 15/15/15 17/17/17 16/16/16
f 17/17/17 18/18/18 16/16/16
f 17/17/17 19/19/19 18/18/18
f 19/19/19 20/20/20 18/18/18
f 23/23/23 22/22/22 21/21/21
f 24/24/24 23/23/23 21/21/21
f 24/24/24 21/21/21 25/25/25
f 26/26/26 24/24/24 25/25/25
f 26/26/26 25/25/25 27/27/27
f 28/28/28 26/26/26 27/27/27
f 28/28/28 27/27/27 29/29/29
f 30/30/30 28/28/28 29/29/29
f 33/33/33 32/32/32 31/31/31
f 34/34/34 33/33/33 31/31/31
f 34/34/34 31/31/31 35/35/35
f 36/36/36 34/34/34 35/35/35
f 36/36/36 35/35/35 37/37/37
f 38/38/38 36/36/36 37/37/37
f 41/41/41 40/40/40 39/39/39
f 40/40/40 42/42/42 39/39/39
f 43/43/43 39/39/39 42/42/42
f 44/44/44 43/43/43 42/42/42
f 45/45/45 39/39/39 43/43/43
f 44/44/44 42/42/42 46/46/46
f 47/47/47 44/44/44 46/46/46
f 48/48/48 47/47/47 46/46/46
f 49/49/49 39/39/39 45/45/45
f 50/50/50 49/49/49 45/45/45
f 51/51/51 49/49/49 50/50/50
f 54/54/54 53/53/53 52/52/52
f 55/55/55 54/54/54 52/52/52
f 52/52/52 56/56/56 55/55/55
f 56/56/56 57/57/57 55/55/55
f 52/52/52 58/58/58 56/56/56
f 55/55/55 57/57/57 59/59/59
f 57/57/57 60/60/60 59/59/59
f 60/60/60 61/61/61 59/59/59
f 52/52/52 62/62/62 58/58/58
f 62/62/62 63/63/63 58/58/58
f 62/62/62 64/64/64 63/63/63
f 67/67/67 66/66/66 65/65/65
f 68/68/68 66/66/66 67/67/67
f 66/66/66 69/69/69 65/65/65
f 70/70/70 66/66/66 68/68/68
f 65/65/65 69/69/69 71/71/71
f 72/72/72 70/70/70 68/68/68
f 69/69/69 73/73/73 71/71/71
f 74/74/74 70/70/70 72/72/72
f 71/71/71 73/73/73 75/75/75
f 76/76/76 74/74/74 72/72/72
f 73/73/73 77/77/77 75/75/75
f 78/78/78 74/74/74 76/76/76
f 75/75/75 77/77/77 79/79/79
f 80/80/80 78/78/78 76/76/76
f 77/77/77 81/81/81 79/79/79
f 82/82/82 78/78/78 80/80/80
f 79/79/79 81/81/81 83/83/83
f 84/84/84 82/82/82 80/80/80
f 81/81/81 85/85/85 83/83/83
f 86/86/86 82/82/82 84/84/84
f 83/83/83 85/85/85 87/87/87
f 88/88/88 86/86/86 84/84/84
f 85/85/85 89/89/89 87/87/87
f 87/87/87 89/89/89 90/90/90
f 91/91/91 86/86/86 88/88/88
f 89/89/89 91/91/91 90/90/90
f 92/92/92 91/91/91 88/88/88
f 90/90/90 91/91/91 92/92/92
f 95/95/95 94/94/94 93/93/93
f 95/95/95 96/96/96 94/94/94
f 97/97/97 95/95/95 93/93/93
f 95/95/95 98/98/98 96/96/96
f 97/97/97 93/93/93 99/99/99
f 98/98/98 100/100/100 96/96/96
f 101/101/101 97/97/97 99/99/99
f 98/98/98 102/102/102 100/100/100
f 101/101/101 99/99/99 103/103/103
f 102/102/102 104/104/104 100/100/100
f 105/105/105 101/101/101 103/103/103
f 102/102/102 106/106/106 104/104/104
f 105/105/105 103/103/103 107/107/107
f 106/106/106 108/108/108 104/104/104
f 109/109/109 105/105/105 107/107/107
f 106/106/106 110/110/110 108/108/108
f 109/109/109 107/107/107 111/111/111
f 110/110/110 112/112/112 108/108/108
f 113/113/113 109/109/109 111/111/111
f 110/110/110 114/114/114 112/112/112
f 113/113/113 111/111/111 115/115/115
f 114/114/114 116/116/116 112/112/112
f 117/117/117 113/113/113 115/115/115
f 117/117/117 115/115/115 118/118/118
f 114/114/114 119/119/119 116/116/116
f 119/119/119 117/117/117 118/118/118
f 119/119/119 120/120/120 116/116/116
f 119/119/119 118/118/118 120/120/120
