g SM_Bld_Section_Door_05_Glass
v 0.2737885 0.7613738 -0.2250404
v 0.2737885 2.130443 -0.2250404
v 1.273968 2.130443 -0.2250404
v 1.273968 0.7613738 -0.2250404
v 0.2737885 2.253571 -0.2250404
v 0.2737885 2.591583 -0.2250404
v 1.273968 2.591583 -0.2250404
v 1.273968 2.253571 -0.2250404
v 3.726032 0.7613738 -0.2250404
v 3.726032 2.130443 -0.2250404
v 4.72621 2.130443 -0.2250404
v 4.72621 0.7613738 -0.2250404
v 3.726032 2.253571 -0.2250404
v 3.726032 2.591583 -0.2250404
v 4.72621 2.591583 -0.2250404
v 4.72621 2.253571 -0.2250404
v 2.575283 0.7613738 -0.2250404
v 2.575283 2.130443 -0.2250404
v 3.575462 2.130443 -0.2250404
v 3.575462 0.7613738 -0.2250404
v 2.575283 2.253571 -0.2250404
v 2.575283 2.591583 -0.2250404
v 3.575462 2.591583 -0.2250404
v 3.575462 2.253571 -0.2250404
vt 0.5023696 0.003607806
vt 0.5023696 0.118931
vt 0.589422 0.118931
vt 0.589422 0.003607806
vt 0.5023696 0.003607806
vt 0.5023696 0.118931
vt 0.589422 0.118931
vt 0.589422 0.003607806
vt 0.5954726 0.003607806
vt 0.5954726 0.118931
vt 0.6783195 0.118931
vt 0.6783195 0.003607806
vt 0.5954726 0.003607806
vt 0.5954726 0.118931
vt 0.6783195 0.118931
vt 0.6783195 0.003607806
vt 0.6865598 0.003607806
vt 0.6865598 0.118931
vt 0.7719493 0.118931
vt 0.7719493 0.003607806
vt 0.6865598 0.003607806
vt 0.6865598 0.118931
vt 0.7719493 0.118931
vt 0.7719493 0.003607806
vn 0 0 1
vn 0 0 1
vn 0 0 1
vn 0 0 1
vn 0 0 1
vn 0 0 1
vn 0 0 1
vn 0 0 1
vn 0 0 1
vn 0 0 1
vn 0 0 1
vn 0 0 1
vn 0 0 1
vn 0 0 1
vn 0 0 1
vn 0 0 1
vn 0 0 1
vn 0 0 1
vn 0 0 1
vn 0 0 1
vn 0 0 1
vn 0 0 1
vn 0 0 1
vn 0 0 1
g SM_Bld_Section_Door_05_Glass_0
f 3/3/3 2/2/2 1/1/1
f 4/4/4 3/3/3 1/1/1
f 7/7/7 6/6/6 5/5/5
f 8/8/8 7/7/7 5/5/5
f 11/11/11 10/10/10 9/9/9
f 12/12/12 11/11/11 9/9/9
f 15/15/15 14/14/14 13/13/13
f 16/16/16 15/15/15 13/13/13
f 19/19/19 18/18/18 17/17/17
f 20/20/20 19/19/19 17/17/17
f 23/23/23 22/22/22 21/21/21
f 24/24/24 23/23/23 21/21/21
