g SM_Bld_Wall_Pillar_05
v -0.4631653 2.193479 -0.03100586
v -0.4631653 2.193479 0.3429291
v -0.4631653 2.537506 -0.03100586
v -0.4631653 2.537506 0.3429291
v 0.4631653 2.537506 -0.03100586
v 0.4631653 2.537506 0.3429291
v 0.4631653 2.193479 -0.03100586
v 0.4631653 2.193479 0.3429291
v 0.2105499 2.07996 -0.03100586
v 0.2105513 2.07996 0.4280655
v 0.2105513 2.651025 0.4280655
v 0.2105499 2.651025 -0.03100586
v -0.2105499 2.07996 -0.03100586
v -0.2105485 2.07996 0.4280655
v -0.2105485 2.651025 0.4280655
v -0.2105499 2.651025 -0.03100586
v 0.202005 2.503136 0.8249145
v 0.202005 0.6590561 0.8249145
v 0.202005 0.3911918 1.029001
v -0.202005 2.503136 0.8249145
v -0.202005 0.6590561 0.8249145
v -0.202005 0.3911918 1.029001
v 0.202005 -1.036906 1.029001
v -0.202005 -1.036906 1.029001
v -0.202005 4.053973 0.8249145
v 0.202005 4.053973 0.8249145
v 0.202005 2.38307 0
v 0.202005 0.6590561 0
v 0.202005 -1.036906 0
v -0.202005 2.38307 0
v -0.202005 0.6590561 0
v -0.202005 -1.036906 0
v -0.202005 4.053973 0
v 0.202005 4.053973 0
v 0.202005 2.654589 1.0056
v -0.202005 2.654589 1.0056
v 0.202005 4.053973 1.0056
v -0.202005 4.053973 1.0056
v 0.1256592 0.7197901 0.8249145
v -0.1256561 0.7197901 0.8249145
v 0.1256592 2.442401 0.8249145
v -0.1256561 2.442401 0.8249145
v 0.08110351 0.7535902 0.7014313
v -0.08110046 0.7535902 0.7014313
v 0.08110351 2.408602 0.7014313
v -0.08110046 2.408602 0.7014313
v 0.06380615 2.122432 0.7601074
v 0.09023269 2.122432 0.6963028
v -0.090233 2.122432 0.6963028
v -0.0638031 2.122432 0.7601074
v 1.678467E-06 2.122432 0.7865402
v 0.06380615 2.188171 0.7601074
v 0.09023269 2.188171 0.6963028
v -0.090233 2.188171 0.6963028
v -0.0638031 2.188171 0.7601074
v 1.678467E-06 2.188171 0.7865402
v 1.373291E-06 2.188171 0.6963028
v 1.373291E-06 2.122432 0.6963028
v 0.04249268 0.7182005 0.738797
v 0.06009079 0.7182005 0.6963058
v -0.06009048 0.7182005 0.6963058
v -0.04248962 0.7182005 0.738797
v 0 0.7182005 0.7563965
v 0.04249268 2.474426 0.738797
v 0.06009079 2.474426 0.6963058
v -0.06009048 2.474426 0.6963058
v -0.04248962 2.474426 0.738797
v 0 2.474426 0.7563965
v 0.06380615 0.9758834 0.7601074
v 0.09023269 0.9758834 0.6963028
v -0.090233 0.9758834 0.6963028
v -0.0638031 0.9758834 0.7601074
v 1.678467E-06 0.9758834 0.7865402
v 0.06380615 1.041622 0.7601074
v 0.09023269 1.041622 0.6963028
v -0.090233 1.041622 0.6963028
v -0.0638031 1.041622 0.7601074
v 1.678467E-06 1.041622 0.7865402
v 1.373291E-06 1.041622 0.6963028
v 1.373291E-06 0.9758834 0.6963028
v -0.4631653 0.7168123 -0.03100586
v -0.4631653 0.7168123 0.3429291
v -0.4631653 1.06084 -0.03100586
v -0.4631653 1.06084 0.3429291
v 0.4631653 1.06084 -0.03100586
v 0.4631653 1.06084 0.3429291
v 0.4631653 0.7168123 -0.03100586
v 0.4631653 0.7168123 0.3429291
v 0.2105499 0.603294 -0.03100586
v 0.2105513 0.603294 0.4280655
v 0.2105513 1.174358 0.4280655
v 0.2105499 1.174358 -0.03100586
v -0.2105499 0.603294 -0.03100586
v -0.2105485 0.603294 0.4280655
v -0.2105485 1.174358 0.4280655
v -0.2105499 1.174358 -0.03100586
v -0.4631653 2.537506 -0.03100586
v -0.4631653 2.537506 0.3429291
v -0.4631653 2.193479 -0.03100586
v -0.4631653 2.193479 0.3429291
v -0.4631653 2.193479 0.3429291
v -0.4631653 2.537506 0.3429291
v -0.2105485 2.651025 0.4280655
v -0.2105485 2.07996 0.4280655
v 0.4631653 2.193479 -0.03100586
v 0.4631653 2.193479 0.3429291
v 0.4631653 2.537506 0.3429291
v 0.4631653 2.193479 0.3429291
v 0.2105513 2.07996 0.4280655
v 0.4631653 2.537506 -0.03100586
v 0.4631653 2.537506 0.3429291
v 0.2105513 2.651025 0.4280655
v 0.2105499 2.07996 -0.03100586
v -0.2105499 2.07996 -0.03100586
v -0.2105485 2.07996 0.4280655
v 0.2105513 2.07996 0.4280655
v -0.2105485 2.651025 0.4280655
v 0.2105513 2.651025 0.4280655
v 0.2105513 2.07996 0.4280655
v -0.2105485 2.07996 0.4280655
v -0.2105499 2.651025 -0.03100586
v 0.2105499 2.651025 -0.03100586
v 0.2105513 2.651025 0.4280655
v -0.2105485 2.651025 0.4280655
v 0.202005 0.3911918 1.029001
v -0.202005 0.3911918 1.029001
v 0.202005 0.6590561 0.8249145
v 0.202005 0.3911918 1.029001
v -0.202005 0.6590561 0.8249145
v -0.202005 0.3911918 1.029001
v 0.202005 -1.036906 1.029001
v -0.202005 -1.036906 1.029001
v 0.202005 -1.036906 1.029001
v 0.202005 -1.036906 0
v -0.202005 -1.036906 0
v -0.202005 -1.036906 1.029001
v -0.202005 4.053973 0.8249145
v -0.202005 4.053973 0
v 0.202005 4.053973 0
v 0.202005 4.053973 0.8249145
v -0.202005 2.503136 0.8249145
v -0.202005 2.654589 1.0056
v 0.202005 2.654589 1.0056
v 0.202005 2.503136 0.8249145
v 0.202005 2.654589 1.0056
v 0.202005 4.053973 1.0056
v 0.202005 4.053973 1.0056
v -0.202005 4.053973 1.0056
v -0.202005 4.053973 1.0056
v -0.202005 2.654589 1.0056
v -0.202005 0.6590561 0.8249145
v 0.202005 0.6590561 0.8249145
v 0.202005 2.503136 0.8249145
v -0.202005 2.503136 0.8249145
v -0.1256561 0.7197901 0.8249145
v -0.08110046 0.7535902 0.7014313
v 0.08110351 0.7535902 0.7014313
v 0.1256592 0.7197901 0.8249145
v 0.1256592 0.7197901 0.8249145
v 0.08110351 0.7535902 0.7014313
v 0.08110351 2.408602 0.7014313
v 0.1256592 2.442401 0.8249145
v 0.1256592 2.442401 0.8249145
v 0.08110351 2.408602 0.7014313
v -0.08110046 2.408602 0.7014313
v -0.1256561 2.442401 0.8249145
v -0.1256561 2.442401 0.8249145
v -0.08110046 2.408602 0.7014313
v -0.08110046 0.7535902 0.7014313
v -0.1256561 0.7197901 0.8249145
v -0.0638031 2.122432 0.7601074
v -0.0638031 2.188171 0.7601074
v 1.678467E-06 2.122432 0.7865402
v 1.678467E-06 2.188171 0.7865402
v 0.06380615 2.188171 0.7601074
v 0.06380615 2.122432 0.7601074
v 0.06380615 2.188171 0.7601074
v 0.09023269 2.188171 0.6963028
v -0.090233 2.188171 0.6963028
v -0.0638031 2.188171 0.7601074
v 1.678467E-06 2.188171 0.7865402
v 0.09023269 2.122432 0.6963028
v 0.06380615 2.122432 0.7601074
v -0.0638031 2.122432 0.7601074
v -0.090233 2.122432 0.6963028
v 1.678467E-06 2.122432 0.7865402
v -0.04248962 0.7182005 0.738797
v -0.04248962 2.474426 0.738797
v 0 0.7182005 0.7563965
v 0 2.474426 0.7563965
v 0.04249268 2.474426 0.738797
v 0.04249268 0.7182005 0.738797
v -0.0638031 0.9758834 0.7601074
v -0.0638031 1.041622 0.7601074
v 1.678467E-06 0.9758834 0.7865402
v 1.678467E-06 1.041622 0.7865402
v 0.06380615 1.041622 0.7601074
v 0.06380615 0.9758834 0.7601074
v 0.06380615 1.041622 0.7601074
v 0.09023269 1.041622 0.6963028
v -0.090233 1.041622 0.6963028
v -0.0638031 1.041622 0.7601074
v 1.678467E-06 1.041622 0.7865402
v 0.09023269 0.9758834 0.6963028
v 0.06380615 0.9758834 0.7601074
v -0.0638031 0.9758834 0.7601074
v -0.090233 0.9758834 0.6963028
v 1.678467E-06 0.9758834 0.7865402
v -0.4631653 1.06084 -0.03100586
v -0.4631653 1.06084 0.3429291
v -0.4631653 0.7168123 -0.03100586
v -0.4631653 0.7168123 0.3429291
v -0.4631653 0.7168123 0.3429291
v -0.4631653 1.06084 0.3429291
v -0.2105485 1.174358 0.4280655
v -0.2105485 0.603294 0.4280655
v 0.4631653 0.7168123 -0.03100586
v 0.4631653 0.7168123 0.3429291
v 0.4631653 1.06084 0.3429291
v 0.4631653 0.7168123 0.3429291
v 0.2105513 0.603294 0.4280655
v 0.4631653 1.06084 -0.03100586
v 0.4631653 1.06084 0.3429291
v 0.2105513 1.174358 0.4280655
v 0.2105499 0.603294 -0.03100586
v -0.2105499 0.603294 -0.03100586
v -0.2105485 0.603294 0.4280655
v 0.2105513 0.603294 0.4280655
v -0.2105485 1.174358 0.4280655
v 0.2105513 1.174358 0.4280655
v 0.2105513 0.603294 0.4280655
v -0.2105485 0.603294 0.4280655
v -0.2105499 1.174358 -0.03100586
v 0.2105499 1.174358 -0.03100586
v 0.2105513 1.174358 0.4280655
v -0.2105485 1.174358 0.4280655
v -0.202005 2.38307 0
v 0.202005 2.38307 0
v 0.202005 4.053973 0
v -0.202005 4.053973 0
v -0.202005 0.6590561 0
v 0.202005 0.6590561 0
v -0.202005 -1.036906 0
v 0.202005 -1.036906 0
v -0.4631653 2.537506 -0.03100586
v -0.4631653 2.193479 -0.03100586
v -0.2105499 2.651025 -0.03100586
v -0.2105499 2.07996 -0.03100586
v 0.2105499 2.651025 -0.03100586
v 0.2105499 2.07996 -0.03100586
v 0.4631653 2.537506 -0.03100586
v 0.4631653 2.193479 -0.03100586
v -0.4631653 1.06084 -0.03100586
v -0.4631653 0.7168123 -0.03100586
v -0.2105499 1.174358 -0.03100586
v -0.2105499 0.603294 -0.03100586
v 0.2105499 1.174358 -0.03100586
v 0.2105499 0.603294 -0.03100586
v 0.4631653 1.06084 -0.03100586
v 0.4631653 0.7168123 -0.03100586
vt 0.2363281 0.2563477
vt 0.2363281 0.2563477
vt 0.2363281 0.2563477
vt 0.2363281 0.2563477
vt 0.2363281 0.2563477
vt 0.2363281 0.2563477
vt 0.2363281 0.2563477
vt 0.2363281 0.2563477
vt 0.2363281 0.2563477
vt 0.2363281 0.2563477
vt 0.2363281 0.2563477
vt 0.2363281 0.2563477
vt 0.2363281 0.2563477
vt 0.2363281 0.2563477
vt 0.2363281 0.2563477
vt 0.2363281 0.2563477
vt 0.2451172 0.326416
vt 0.2451172 0.326416
vt 0.2451172 0.326416
vt 0.2451172 0.326416
vt 0.2451172 0.326416
vt 0.2451172 0.326416
vt 0.2451172 0.326416
vt 0.2451172 0.326416
vt 0.2451172 0.326416
vt 0.2451172 0.326416
vt 0.2451172 0.326416
vt 0.2451172 0.326416
vt 0.2451172 0.326416
vt 0.2451172 0.326416
vt 0.2451172 0.326416
vt 0.2451172 0.326416
vt 0.2451172 0.326416
vt 0.2451172 0.326416
vt 0.2451172 0.326416
vt 0.2451172 0.326416
vt 0.2451172 0.326416
vt 0.2451172 0.326416
vt 0.2451172 0.326416
vt 0.2451172 0.326416
vt 0.2451172 0.326416
vt 0.2451172 0.326416
vt 0.2451172 0.326416
vt 0.2451172 0.326416
vt 0.2451172 0.326416
vt 0.2451172 0.326416
vt 0.2348633 0.3278809
vt 0.2348633 0.3278809
vt 0.2348633 0.3278809
vt 0.2348633 0.3278809
vt 0.2348633 0.3278809
vt 0.2348633 0.3278809
vt 0.2348633 0.3278809
vt 0.2348633 0.3278809
vt 0.2348633 0.3278809
vt 0.2348633 0.3278809
vt 0.2348633 0.3278809
vt 0.2348633 0.3278809
vt 0.2644043 0.02780151
vt 0.2644043 0.02780151
vt 0.2644043 0.02780151
vt 0.2644043 0.02780151
vt 0.2644043 0.02780151
vt 0.2644043 0.02780151
vt 0.2644043 0.02780151
vt 0.2644043 0.02780151
vt 0.2644043 0.02780151
vt 0.2644043 0.02780151
vt 0.2348633 0.3278809
vt 0.2348633 0.3278809
vt 0.2348633 0.3278809
vt 0.2348633 0.3278809
vt 0.2348633 0.3278809
vt 0.2348633 0.3278809
vt 0.2348633 0.3278809
vt 0.2348633 0.3278809
vt 0.2348633 0.3278809
vt 0.2348633 0.3278809
vt 0.2348633 0.3278809
vt 0.2348633 0.3278809
vt 0.2363281 0.2563477
vt 0.2363281 0.2563477
vt 0.2363281 0.2563477
vt 0.2363281 0.2563477
vt 0.2363281 0.2563477
vt 0.2363281 0.2563477
vt 0.2363281 0.2563477
vt 0.2363281 0.2563477
vt 0.2363281 0.2563477
vt 0.2363281 0.2563477
vt 0.2363281 0.2563477
vt 0.2363281 0.2563477
vt 0.2363281 0.2563477
vt 0.2363281 0.2563477
vt 0.2363281 0.2563477
vt 0.2363281 0.2563477
vt 0.2363281 0.2563477
vt 0.2363281 0.2563477
vt 0.2363281 0.2563477
vt 0.2363281 0.2563477
vt 0.2363281 0.2563477
vt 0.2363281 0.2563477
vt 0.2363281 0.2563477
vt 0.2363281 0.2563477
vt 0.2363281 0.2563477
vt 0.2363281 0.2563477
vt 0.2363281 0.2563477
vt 0.2363281 0.2563477
vt 0.2363281 0.2563477
vt 0.2363281 0.2563477
vt 0.2363281 0.2563477
vt 0.2363281 0.2563477
vt 0.2363281 0.2563477
vt 0.2363281 0.2563477
vt 0.2363281 0.2563477
vt 0.2363281 0.2563477
vt 0.2363281 0.2563477
vt 0.2363281 0.2563477
vt 0.2363281 0.2563477
vt 0.2363281 0.2563477
vt 0.2363281 0.2563477
vt 0.2363281 0.2563477
vt 0.2363281 0.2563477
vt 0.2363281 0.2563477
vt 0.2451172 0.326416
vt 0.2451172 0.326416
vt 0.2451172 0.326416
vt 0.2451172 0.326416
vt 0.2451172 0.326416
vt 0.2451172 0.326416
vt 0.2451172 0.326416
vt 0.2451172 0.326416
vt 0.2451172 0.326416
vt 0.2451172 0.326416
vt 0.2451172 0.326416
vt 0.2451172 0.326416
vt 0.2451172 0.326416
vt 0.2451172 0.326416
vt 0.2451172 0.326416
vt 0.2451172 0.326416
vt 0.2451172 0.326416
vt 0.2451172 0.326416
vt 0.2451172 0.326416
vt 0.2451172 0.326416
vt 0.2451172 0.326416
vt 0.2451172 0.326416
vt 0.2451172 0.326416
vt 0.2451172 0.326416
vt 0.2451172 0.326416
vt 0.2451172 0.326416
vt 0.2451172 0.326416
vt 0.2451172 0.326416
vt 0.2451172 0.326416
vt 0.2451172 0.326416
vt 0.2451172 0.326416
vt 0.2451172 0.326416
vt 0.2451172 0.326416
vt 0.2451172 0.326416
vt 0.2451172 0.326416
vt 0.2451172 0.326416
vt 0.2451172 0.326416
vt 0.2451172 0.326416
vt 0.2451172 0.326416
vt 0.2451172 0.326416
vt 0.2451172 0.326416
vt 0.2451172 0.326416
vt 0.2451172 0.326416
vt 0.2451172 0.326416
vt 0.2451172 0.326416
vt 0.2451172 0.326416
vt 0.2348633 0.3278809
vt 0.2348633 0.3278809
vt 0.2348633 0.3278809
vt 0.2348633 0.3278809
vt 0.2348633 0.3278809
vt 0.2348633 0.3278809
vt 0.2348633 0.3278809
vt 0.2348633 0.3278809
vt 0.2348633 0.3278809
vt 0.2348633 0.3278809
vt 0.2348633 0.3278809
vt 0.2348633 0.3278809
vt 0.2348633 0.3278809
vt 0.2348633 0.3278809
vt 0.2348633 0.3278809
vt 0.2348633 0.3278809
vt 0.2644043 0.02780151
vt 0.2644043 0.02780151
vt 0.2644043 0.02780151
vt 0.2644043 0.02780151
vt 0.2644043 0.02780151
vt 0.2644043 0.02780151
vt 0.2348633 0.3278809
vt 0.2348633 0.3278809
vt 0.2348633 0.3278809
vt 0.2348633 0.3278809
vt 0.2348633 0.3278809
vt 0.2348633 0.3278809
vt 0.2348633 0.3278809
vt 0.2348633 0.3278809
vt 0.2348633 0.3278809
vt 0.2348633 0.3278809
vt 0.2348633 0.3278809
vt 0.2348633 0.3278809
vt 0.2348633 0.3278809
vt 0.2348633 0.3278809
vt 0.2348633 0.3278809
vt 0.2348633 0.3278809
vt 0.2363281 0.2563477
vt 0.2363281 0.2563477
vt 0.2363281 0.2563477
vt 0.2363281 0.2563477
vt 0.2363281 0.2563477
vt 0.2363281 0.2563477
vt 0.2363281 0.2563477
vt 0.2363281 0.2563477
vt 0.2363281 0.2563477
vt 0.2363281 0.2563477
vt 0.2363281 0.2563477
vt 0.2363281 0.2563477
vt 0.2363281 0.2563477
vt 0.2363281 0.2563477
vt 0.2363281 0.2563477
vt 0.2363281 0.2563477
vt 0.2363281 0.2563477
vt 0.2363281 0.2563477
vt 0.2363281 0.2563477
vt 0.2363281 0.2563477
vt 0.2363281 0.2563477
vt 0.2363281 0.2563477
vt 0.2363281 0.2563477
vt 0.2363281 0.2563477
vt 0.2363281 0.2563477
vt 0.2363281 0.2563477
vt 0.2363281 0.2563477
vt 0.2363281 0.2563477
vt 0.2329102 0.2536621
vt 0.2329102 0.2536621
vt 0.2329102 0.2536621
vt 0.2329102 0.2536621
vt 0.2329102 0.2536621
vt 0.2329102 0.2536621
vt 0.2329102 0.2536621
vt 0.2329102 0.2536621
vt 0.2363281 0.2563477
vt 0.2363281 0.2563477
vt 0.2363281 0.2563477
vt 0.2363281 0.2563477
vt 0.2363281 0.2563477
vt 0.2363281 0.2563477
vt 0.2363281 0.2563477
vt 0.2363281 0.2563477
vt 0.2363281 0.2563477
vt 0.2363281 0.2563477
vt 0.2363281 0.2563477
vt 0.2363281 0.2563477
vt 0.2363281 0.2563477
vt 0.2363281 0.2563477
vt 0.2363281 0.2563477
vt 0.2363281 0.2563477
vn -1 0 0
vn -1 0 0
vn -1 0 0
vn -1 0 0
vn 1 0 0
vn 1 0 0
vn 1 0 0
vn 1 0 0
vn 0.4099121 -0.9121094 0
vn 0.4099121 -0.9121094 0
vn 0.3193359 0 0.9477539
vn 0.4099121 0.9121094 0
vn -0.4099121 -0.9121094 0
vn -0.4099121 -0.9121094 0
vn -0.4099121 0.9121094 0
vn -0.4099121 0.9121094 0
vn 1 0 0
vn 0 0.605957 0.7954102
vn 0 0.605957 0.7954102
vn -1 0 0
vn 0 0.605957 0.7954102
vn 0 0.605957 0.7954102
vn 0 0 1
vn 0 0 1
vn -1 0 0
vn 1 0 0
vn 1 0 0
vn 1 0 0
vn 1 0 0
vn -1 0 0
vn -1 0 0
vn -1 0 0
vn -1 0 0
vn 1 0 0
vn 0 0 1
vn 0 0 1
vn 0 0 1
vn 0 0 1
vn 0 0 1
vn 0 0 1
vn 0 0 1
vn 0 0 1
vn 0 0 1
vn 0 0 1
vn 0 0 1
vn 0 0 1
vn 0.9238281 0 0.3825684
vn 0.9238281 0 0.3825684
vn -0.9238281 0 0.3828125
vn -0.9238281 0 0.3828125
vn -0.3828125 0 0.9238281
vn 0.9238281 0 0.3825684
vn 0.9238281 0 0.3825684
vn -0.9238281 0 0.3828125
vn -0.9238281 0 0.3828125
vn -0.3828125 0 0.9238281
vn 0 1 0
vn 0 -1 0
vn 0.9238281 0 0.3825684
vn 0.9238281 0 0.3825684
vn -0.9238281 0 0.3828125
vn -0.9238281 0 0.3828125
vn -0.3825684 0 0.9238281
vn 0.9238281 0 0.3825684
vn 0.9238281 0 0.3825684
vn -0.9238281 0 0.3828125
vn -0.9238281 0 0.3828125
vn -0.3825684 0 0.9238281
vn 0.9238281 0 0.3825684
vn 0.9238281 0 0.3825684
vn -0.9238281 0 0.3828125
vn -0.9238281 0 0.3828125
vn -0.3828125 0 0.9238281
vn 0.9238281 0 0.3825684
vn 0.9238281 0 0.3825684
vn -0.9238281 0 0.3828125
vn -0.9238281 0 0.3828125
vn -0.3828125 0 0.9238281
vn 0 1 0
vn 0 -1 0
vn -1 0 0
vn -1 0 0
vn -1 0 0
vn -1 0 0
vn 1 0 0
vn 1 0 0
vn 1 0 0
vn 1 0 0
vn 0.4099121 -0.9121094 0
vn 0.4099121 -0.9121094 0
vn 0.3193359 0 0.9477539
vn 0.4099121 0.9121094 0
vn -0.4099121 -0.9121094 0
vn -0.4099121 -0.9121094 0
vn -0.4099121 0.9121094 0
vn -0.4099121 0.9121094 0
vn -0.4099121 0.9121094 0
vn -0.4099121 0.9121094 0
vn -0.4099121 -0.9121094 0
vn -0.4099121 -0.9121094 0
vn -0.3193359 0 0.9477539
vn -0.3193359 0 0.9477539
vn -0.3193359 0 0.9477539
vn -0.3193359 0 0.9477539
vn 0.4099121 -0.9121094 0
vn 0.4099121 -0.9121094 0
vn 0.3193359 0 0.9477539
vn 0.3193359 0 0.9477539
vn 0.3193359 0 0.9477539
vn 0.4099121 0.9121094 0
vn 0.4099121 0.9121094 0
vn 0.4099121 0.9121094 0
vn 0 -1 0
vn 0 -1 0
vn 0 -1 0
vn 0 -1 0
vn 0 0 1
vn 0 0 1
vn 0 0 1
vn 0 0 1
vn 0 1 0
vn 0 1 0
vn 0 1 0
vn 0 1 0
vn 0 0 1
vn 0 0 1
vn 1 0 0
vn 1 0 0
vn -1 0 0
vn -1 0 0
vn 1 0 0
vn -1 0 0
vn 0 -1 0
vn 0 -1 0
vn 0 -1 0
vn 0 -1 0
vn 0 1 0
vn 0 1 0
vn 0 1 0
vn 0 1 0
vn 0 -0.7666016 0.6425781
vn 0 -0.7666016 0.6425781
vn 0 -0.7666016 0.6425781
vn 0 -0.7666016 0.6425781
vn 1 0 0
vn 1 0 0
vn 0 1 0
vn 0 1 0
vn -1 0 0
vn -1 0 0
vn 0 0 1
vn 0 0 1
vn 0 0 1
vn 0 0 1
vn 0 0.9643555 0.263916
vn 0 0.9643555 0.263916
vn 0 0.9643555 0.263916
vn 0 0.9643555 0.263916
vn -0.9404297 0 0.3393555
vn -0.9404297 0 0.3393555
vn -0.9404297 0 0.3393555
vn -0.9404297 0 0.3393555
vn 0 -0.9643555 0.263916
vn 0 -0.9643555 0.263916
vn 0 -0.9643555 0.263916
vn 0 -0.9643555 0.263916
vn 0.9404297 0 0.3393555
vn 0.9404297 0 0.3393555
vn 0.9404297 0 0.3393555
vn 0.9404297 0 0.3393555
vn -0.3828125 0 0.9238281
vn -0.3828125 0 0.9238281
vn 0.3828125 0 0.9238281
vn 0.3828125 0 0.9238281
vn 0.3828125 0 0.9238281
vn 0.3828125 0 0.9238281
vn 0 1 0
vn 0 1 0
vn 0 1 0
vn 0 1 0
vn 0 1 0
vn 0 -1 0
vn 0 -1 0
vn 0 -1 0
vn 0 -1 0
vn 0 -1 0
vn -0.3825684 0 0.9238281
vn -0.3825684 0 0.9238281
vn 0.3825684 0 0.9238281
vn 0.3825684 0 0.9238281
vn 0.3825684 0 0.9238281
vn 0.3825684 0 0.9238281
vn -0.3828125 0 0.9238281
vn -0.3828125 0 0.9238281
vn 0.3828125 0 0.9238281
vn 0.3828125 0 0.9238281
vn 0.3828125 0 0.9238281
vn 0.3828125 0 0.9238281
vn 0 1 0
vn 0 1 0
vn 0 1 0
vn 0 1 0
vn 0 1 0
vn 0 -1 0
vn 0 -1 0
vn 0 -1 0
vn 0 -1 0
vn 0 -1 0
vn -0.4099121 0.9121094 0
vn -0.4099121 0.9121094 0
vn -0.4099121 -0.9121094 0
vn -0.4099121 -0.9121094 0
vn -0.3193359 0 0.9477539
vn -0.3193359 0 0.9477539
vn -0.3193359 0 0.9477539
vn -0.3193359 0 0.9477539
vn 0.4099121 -0.9121094 0
vn 0.4099121 -0.9121094 0
vn 0.3193359 0 0.9477539
vn 0.3193359 0 0.9477539
vn 0.3193359 0 0.9477539
vn 0.4099121 0.9121094 0
vn 0.4099121 0.9121094 0
vn 0.4099121 0.9121094 0
vn 0 -1 0
vn 0 -1 0
vn 0 -1 0
vn 0 -1 0
vn 0 0 1
vn 0 0 1
vn 0 0 1
vn 0 0 1
vn 0 1 0
vn 0 1 0
vn 0 1 0
vn 0 1 0
vn 0 0 -1
vn 0 0 -1
vn 0 0 -1
vn 0 0 -1
vn 0 0 -1
vn 0 0 -1
vn 0 0 -1
vn 0 0 -1
vn 0 0 -1
vn 0 0 -1
vn 0 0 -1
vn 0 0 -1
vn 0 0 -1
vn 0 0 -1
vn 0 0 -1
vn 0 0 -1
vn 0 0 -1
vn 0 0 -1
vn 0 0 -1
vn 0 0 -1
vn 0 0 -1
vn 0 0 -1
vn 0 0 -1
vn 0 0 -1
g SM_Bld_Wall_Pillar_05_0
f 4/4/4 3/3/3 1/1/1
f 2/2/2 4/4/4 1/1/1
f 15/15/15 16/16/16 97/97/97
f 98/98/98 15/15/15 97/97/97
f 8/8/8 7/7/7 5/5/5
f 6/6/6 8/8/8 5/5/5
f 100/100/100 99/99/99 13/13/13
f 14/14/14 100/100/100 13/13/13
f 103/103/103 102/102/102 101/101/101
f 104/104/104 103/103/103 101/101/101
f 10/10/10 9/9/9 105/105/105
f 106/106/106 10/10/10 105/105/105
f 108/108/108 107/107/107 11/11/11
f 109/109/109 108/108/108 11/11/11
f 111/111/111 110/110/110 12/12/12
f 112/112/112 111/111/111 12/12/12
f 115/115/115 114/114/114 113/113/113
f 116/116/116 115/115/115 113/113/113
f 119/119/119 118/118/118 117/117/117
f 120/120/120 119/119/119 117/117/117
f 123/123/123 122/122/122 121/121/121
f 124/124/124 123/123/123 121/121/121
f 45/45/45 46/46/46 44/44/44
f 43/43/43 45/45/45 44/44/44
f 22/22/22 19/19/19 18/18/18
f 21/21/21 22/22/22 18/18/18
f 24/24/24 23/23/23 125/125/125
f 126/126/126 24/24/24 125/125/125
f 37/37/37 38/38/38 36/36/36
f 35/35/35 37/37/37 36/36/36
f 131/131/131 29/29/29 128/128/128
f 128/128/128 29/29/29 127/127/127
f 29/29/29 28/28/28 127/127/127
f 17/17/17 127/127/127 28/28/28
f 27/27/27 17/17/17 28/28/28
f 17/17/17 27/27/27 26/26/26
f 27/27/27 34/34/34 26/26/26
f 26/26/26 146/146/146 17/17/17
f 146/146/146 145/145/145 17/17/17
f 130/130/130 32/32/32 132/132/132
f 31/31/31 32/32/32 130/130/130
f 129/129/129 31/31/31 130/130/130
f 31/31/31 129/129/129 30/30/30
f 129/129/129 20/20/20 30/30/30
f 33/33/33 30/30/30 20/20/20
f 25/25/25 33/33/33 20/20/20
f 20/20/20 150/150/150 25/25/25
f 150/150/150 149/149/149 25/25/25
f 135/135/135 134/134/134 133/133/133
f 136/136/136 135/135/135 133/133/133
f 139/139/139 138/138/138 137/137/137
f 140/140/140 139/139/139 137/137/137
f 137/137/137 148/148/148 140/140/140
f 148/148/148 147/147/147 140/140/140
f 143/143/143 142/142/142 141/141/141
f 144/144/144 143/143/143 141/141/141
f 157/157/157 156/156/156 155/155/155
f 158/158/158 157/157/157 155/155/155
f 161/161/161 160/160/160 159/159/159
f 162/162/162 161/161/161 159/159/159
f 165/165/165 164/164/164 163/163/163
f 166/166/166 165/165/165 163/163/163
f 169/169/169 168/168/168 167/167/167
f 170/170/170 169/169/169 167/167/167
f 53/53/53 52/52/52 47/47/47
f 48/48/48 53/53/53 47/47/47
f 55/55/55 54/54/54 49/49/49
f 50/50/50 55/55/55 49/49/49
f 56/56/56 172/172/172 171/171/171
f 51/51/51 56/56/56 171/171/171
f 175/175/175 174/174/174 173/173/173
f 176/176/176 175/175/175 173/173/173
f 178/178/178 57/57/57 177/177/177
f 177/177/177 57/57/57 181/181/181
f 181/181/181 57/57/57 180/180/180
f 180/180/180 57/57/57 179/179/179
f 183/183/183 58/58/58 182/182/182
f 186/186/186 58/58/58 183/183/183
f 184/184/184 58/58/58 186/186/186
f 185/185/185 58/58/58 184/184/184
f 65/65/65 64/64/64 59/59/59
f 60/60/60 65/65/65 59/59/59
f 67/67/67 66/66/66 61/61/61
f 62/62/62 67/67/67 61/61/61
f 68/68/68 188/188/188 187/187/187
f 63/63/63 68/68/68 187/187/187
f 191/191/191 190/190/190 189/189/189
f 192/192/192 191/191/191 189/189/189
f 75/75/75 74/74/74 69/69/69
f 70/70/70 75/75/75 69/69/69
f 77/77/77 76/76/76 71/71/71
f 72/72/72 77/77/77 71/71/71
f 78/78/78 194/194/194 193/193/193
f 73/73/73 78/78/78 193/193/193
f 197/197/197 196/196/196 195/195/195
f 198/198/198 197/197/197 195/195/195
f 200/200/200 79/79/79 199/199/199
f 199/199/199 79/79/79 203/203/203
f 203/203/203 79/79/79 202/202/202
f 202/202/202 79/79/79 201/201/201
f 205/205/205 80/80/80 204/204/204
f 208/208/208 80/80/80 205/205/205
f 206/206/206 80/80/80 208/208/208
f 207/207/207 80/80/80 206/206/206
f 84/84/84 83/83/83 81/81/81
f 82/82/82 84/84/84 81/81/81
f 95/95/95 96/96/96 209/209/209
f 210/210/210 95/95/95 209/209/209
f 88/88/88 87/87/87 85/85/85
f 86/86/86 88/88/88 85/85/85
f 212/212/212 211/211/211 93/93/93
f 94/94/94 212/212/212 93/93/93
f 215/215/215 214/214/214 213/213/213
f 216/216/216 215/215/215 213/213/213
f 90/90/90 89/89/89 217/217/217
f 218/218/218 90/90/90 217/217/217
f 220/220/220 219/219/219 91/91/91
f 221/221/221 220/220/220 91/91/91
f 223/223/223 222/222/222 92/92/92
f 224/224/224 223/223/223 92/92/92
f 227/227/227 226/226/226 225/225/225
f 228/228/228 227/227/227 225/225/225
f 231/231/231 230/230/230 229/229/229
f 232/232/232 231/231/231 229/229/229
f 235/235/235 234/234/234 233/233/233
f 236/236/236 235/235/235 233/233/233
f 240/240/240 239/239/239 237/237/237
f 239/239/239 238/238/238 237/237/237
f 241/241/241 237/237/237 238/238/238
f 242/242/242 241/241/241 238/238/238
f 241/241/241 242/242/242 243/243/243
f 242/242/242 244/244/244 243/243/243
f 247/247/247 246/246/246 245/245/245
f 247/247/247 248/248/248 246/246/246
f 249/249/249 248/248/248 247/247/247
f 249/249/249 250/250/250 248/248/248
f 251/251/251 250/250/250 249/249/249
f 252/252/252 250/250/250 251/251/251
f 255/255/255 254/254/254 253/253/253
f 255/255/255 256/256/256 254/254/254
f 257/257/257 256/256/256 255/255/255
f 257/257/257 258/258/258 256/256/256
f 259/259/259 258/258/258 257/257/257
f 260/260/260 258/258/258 259/259/259
f 39/39/39 40/40/40 151/151/151
f 152/152/152 39/39/39 151/151/151
f 151/151/151 40/40/40 154/154/154
f 41/41/41 39/39/39 152/152/152
f 40/40/40 42/42/42 154/154/154
f 153/153/153 41/41/41 152/152/152
f 154/154/154 42/42/42 153/153/153
f 42/42/42 41/41/41 153/153/153
