g SM_Bld_Section_Wall_01
v 1.200518 2.218653 4.768372E-07
v 1.25 2.519586 0
v 1.278654 2.239911 -0.06087159
v 3.825617 1.047198 4.768372E-07
v 3.75 0.557268 4.768372E-07
v 3.713469 1.023804 -0.07760572
v 3.801512 2.406257 4.768372E-07
v 3.75 2.222354 0
v 3.723417 2.389682 -0.05647278
v 3.75 2.564293 0
v 3.801512 2.406257 4.768372E-07
v 3.723417 2.389682 -0.05647278
v 3.75 1.359048 0
v 3.825617 1.047198 4.768372E-07
v 3.713469 1.023804 -0.07760572
v 1.25 1.823001 0
v 1.200518 2.218653 4.768372E-07
v 1.278654 2.239911 -0.06087159
v 3.24992 2.6585 -0.2327852
v 3.363586 2.504763 -0.2327852
v 3.363586 0.4952366 -0.2327852
v 3.24992 0.3415003 -0.2327852
v 1.750082 2.6585 -0.2327852
v 1.750082 0.3415003 -0.2327852
v 1.636415 2.504763 -0.2327852
v 1.636415 0.4952366 -0.2327852
v 5 0 0
v 5 3 0
v 5 3 -5
v 5 0 -5
v 0 0 -5
v 0 3 -5
v 0 3 0
v 0 0 0
v 0 3 0
v 1.25 3 0
v 1.25 2.519586 0
v 1.200518 2.218653 4.768372E-07
v 0 0 0
v 1.25 1.823001 0
v 1.25 0 0
v 5 3 0
v 3.75 3 0
v 3.686975 3 -0.1338854
v 5 3 -5
v 3.686975 3 -5
v 1.313026 3 -5
v 1.313026 3 -0.1338854
v 0 3 0
v 0 3 -5
v 1.25 3 0
v 5 0 -5
v 5 3 -5
v 3.686975 3 -5
v 3.686975 0 -5
v 1.313026 0 -5
v 1.313026 3 -5
v 0 3 -5
v 0 0 -5
v 5 0 0
v 5 0 -5
v 3.686975 0 -5
v 3.686975 0 -0.1338854
v 3.75 0 0
v 1.313026 0 -0.1338854
v 1.313026 0 -5
v 0 0 -5
v 0 0 0
v 1.25 0 0
v 3.315384 0.2693836 -0.1338854
v 3.24992 0.3415003 -0.2327852
v 3.363586 0.4952366 -0.2327852
v 3.438973 0.43269 -0.1338854
v 3.438973 0.43269 -0.1338854
v 3.363586 0.4952366 -0.2327852
v 3.363586 2.504763 -0.2327852
v 3.438973 2.56731 -0.1338854
v 3.438973 2.56731 -0.1338854
v 3.363586 2.504763 -0.2327852
v 3.24992 2.6585 -0.2327852
v 3.315384 2.730616 -0.1338854
v 3.315384 2.730616 -0.1338854
v 3.24992 2.6585 -0.2327852
v 1.750082 2.6585 -0.2327852
v 1.684618 2.730616 -0.1338854
v 1.684618 2.730616 -0.1338854
v 1.750082 2.6585 -0.2327852
v 1.636415 2.504763 -0.2327852
v 1.561029 2.56731 -0.1338854
v 1.561029 2.56731 -0.1338854
v 1.636415 2.504763 -0.2327852
v 1.636415 0.4952366 -0.2327852
v 1.561029 0.43269 -0.1338854
v 1.561029 0.43269 -0.1338854
v 1.636415 0.4952366 -0.2327852
v 1.750082 0.3415003 -0.2327852
v 1.684618 0.2693836 -0.1338854
v 1.684618 0.2693836 -0.1338854
v 1.750082 0.3415003 -0.2327852
v 3.24992 0.3415003 -0.2327852
v 3.315384 0.2693836 -0.1338854
v 1.25 3 0
v 1.278654 2.239911 -0.06087159
v 1.25 2.519586 0
v 1.313026 3 -0.1338854
v 1.313026 0 -0.1338854
v 1.25 1.823001 0
v 1.25 0 0
v 3.75 0 0
v 3.713469 1.023804 -0.07760572
v 3.75 0.557268 4.768372E-07
v 3.686975 0 -0.1338854
v 3.723417 2.389682 -0.05647278
v 3.75 1.359048 0
v 3.75 2.222354 0
v 3.686975 3 -0.1338854
v 3.75 2.564293 0
v 3.75 3 0
v 3.75 3 0
v 3.801512 2.406257 4.768372E-07
v 3.75 2.564293 0
v 5 3 0
v 3.825617 1.047198 4.768372E-07
v 3.75 2.222354 0
v 3.75 1.359048 0
v 5 0 0
v 3.75 0.557268 4.768372E-07
v 3.75 0 0
v 3.686975 0 -0.1338854
v 3.438973 0.43269 -0.1338854
v 3.438973 2.56731 -0.1338854
v 3.315384 0.2693836 -0.1338854
v 3.686975 3 -0.1338854
v 3.315384 2.730616 -0.1338854
v 1.684618 2.730616 -0.1338854
v 1.313026 0 -0.1338854
v 1.684618 0.2693836 -0.1338854
v 1.561029 0.43269 -0.1338854
v 1.313026 3 -0.1338854
v 1.561029 2.56731 -0.1338854
vt 0.9941406 0.3034668
vt 0.9941406 0.3034668
vt 0.9941406 0.3034668
vt 0.9941406 0.3034668
vt 0.9941406 0.3034668
vt 0.9941406 0.3034668
vt 0.9941406 0.3034668
vt 0.9941406 0.3034668
vt 0.9941406 0.3034668
vt 0.9941406 0.3034668
vt 0.9941406 0.3034668
vt 0.9941406 0.3034668
vt 0.9941406 0.3034668
vt 0.9941406 0.3034668
vt 0.9941406 0.3034668
vt 0.9941406 0.3034668
vt 0.9941406 0.3034668
vt 0.9941406 0.3034668
vt 0.9941406 0.2814941
vt 0.9941406 0.2814941
vt 0.9941406 0.2814941
vt 0.9941406 0.2814941
vt 0.9941406 0.2814941
vt 0.9941406 0.2814941
vt 0.9941406 0.2814941
vt 0.9941406 0.2814941
vt 0.9941406 0.3034668
vt 0.9941406 0.3034668
vt 0.9941406 0.3034668
vt 0.9941406 0.3034668
vt 0.9941406 0.3034668
vt 0.9941406 0.3034668
vt 0.9941406 0.3034668
vt 0.9941406 0.3034668
vt 0.9941406 0.3034668
vt 0.9941406 0.3034668
vt 0.9941406 0.3034668
vt 0.9941406 0.3034668
vt 0.9941406 0.3034668
vt 0.9941406 0.3034668
vt 0.9941406 0.3034668
vt 0.9941406 0.3034668
vt 0.9941406 0.3034668
vt 0.9941406 0.3034668
vt 0.9941406 0.3034668
vt 0.9941406 0.3034668
vt 0.9941406 0.3034668
vt 0.9941406 0.3034668
vt 0.9941406 0.3034668
vt 0.9941406 0.3034668
vt 0.9941406 0.3034668
vt 0.9941406 0.3034668
vt 0.9941406 0.3034668
vt 0.9941406 0.3034668
vt 0.9941406 0.3034668
vt 0.9941406 0.3034668
vt 0.9941406 0.3034668
vt 0.9941406 0.3034668
vt 0.9941406 0.3034668
vt 0.9941406 0.3034668
vt 0.9941406 0.3034668
vt 0.9941406 0.3034668
vt 0.9941406 0.3034668
vt 0.9941406 0.3034668
vt 0.9941406 0.3034668
vt 0.9941406 0.3034668
vt 0.9941406 0.3034668
vt 0.9941406 0.3034668
vt 0.9941406 0.3034668
vt 0.9941406 0.2814941
vt 0.9941406 0.2814941
vt 0.9941406 0.2814941
vt 0.9941406 0.2814941
vt 0.9941406 0.2814941
vt 0.9941406 0.2814941
vt 0.9941406 0.2814941
vt 0.9941406 0.2814941
vt 0.9941406 0.2814941
vt 0.9941406 0.2814941
vt 0.9941406 0.2814941
vt 0.9941406 0.2814941
vt 0.9941406 0.2814941
vt 0.9941406 0.2814941
vt 0.9941406 0.2814941
vt 0.9941406 0.2814941
vt 0.9941406 0.2814941
vt 0.9941406 0.2814941
vt 0.9941406 0.2814941
vt 0.9941406 0.2814941
vt 0.9941406 0.2814941
vt 0.9941406 0.2814941
vt 0.9941406 0.2814941
vt 0.9941406 0.2814941
vt 0.9941406 0.2814941
vt 0.9941406 0.2814941
vt 0.9941406 0.2814941
vt 0.9941406 0.2814941
vt 0.9941406 0.2814941
vt 0.9941406 0.2814941
vt 0.9941406 0.2814941
vt 0.9941406 0.2814941
vt 0.9941406 0.3034668
vt 0.9941406 0.3034668
vt 0.9941406 0.3034668
vt 0.9941406 0.3034668
vt 0.9941406 0.3034668
vt 0.9941406 0.3034668
vt 0.9941406 0.3034668
vt 0.9941406 0.3034668
vt 0.9941406 0.3034668
vt 0.9941406 0.3034668
vt 0.9941406 0.3034668
vt 0.9941406 0.3034668
vt 0.9941406 0.3034668
vt 0.9941406 0.3034668
vt 0.9941406 0.3034668
vt 0.9941406 0.3034668
vt 0.9941406 0.3034668
vt 0.9941406 0.3034668
vt 0.9941406 0.3034668
vt 0.9941406 0.3034668
vt 0.9941406 0.3034668
vt 0.9941406 0.3034668
vt 0.9941406 0.3034668
vt 0.9941406 0.3034668
vt 0.9941406 0.3034668
vt 0.9941406 0.3034668
vt 0.9941406 0.3034668
vt 0.9941406 0.3034668
vt 0.9941406 0.3034668
vt 0.9941406 0.3034668
vt 0.9941406 0.3034668
vt 0.9941406 0.3034668
vt 0.9941406 0.3034668
vt 0.9941406 0.3034668
vt 0.9941406 0.3034668
vt 0.9941406 0.3034668
vt 0.9941406 0.3034668
vt 0.9941406 0.3034668
vt 0.9941406 0.3034668
vn 0.628418 -0.1033325 0.7709961
vn 0.628418 -0.1033325 0.7709961
vn 0.628418 -0.1033325 0.7709961
vn -0.5791016 0.0894165 0.8100586
vn -0.5791016 0.0894165 0.8100586
vn -0.5791016 0.0894165 0.8100586
vn -0.6005859 0.168335 0.78125
vn -0.6005859 0.168335 0.78125
vn -0.6005859 0.168335 0.78125
vn -0.5512695 -0.1796875 0.8149414
vn -0.5512695 -0.1796875 0.8149414
vn -0.5512695 -0.1796875 0.8149414
vn -0.5454102 -0.1322021 0.8276367
vn -0.5454102 -0.1322021 0.8276367
vn -0.5454102 -0.1322021 0.8276367
vn 0.6000977 0.07507324 0.7963867
vn 0.6000977 0.07507324 0.7963867
vn 0.6000977 0.07507324 0.7963867
vn 0 0 1
vn 0 0 1
vn 0 0 1
vn 0 0 1
vn 0 0 1
vn 0 0 1
vn 0 0 1
vn 0 0 1
vn 1 0 0
vn 1 0 0
vn 1 0 0
vn 1 0 0
vn -1 0 0
vn -1 0 0
vn -1 0 0
vn -1 0 0
vn 0 0 1
vn 0 0 1
vn 0 0 1
vn 0 0 1
vn 0 0 1
vn 0 0 1
vn 0 0 1
vn 0 1 0
vn 0 1 0
vn 0 1 0
vn 0 1 0
vn 0 1 0
vn 0 1 0
vn 0 1 0
vn 0 1 0
vn 0 1 0
vn 0 1 0
vn 0 0 -1
vn 0 0 -1
vn 0 0 -1
vn 0 0 -1
vn 0 0 -1
vn 0 0 -1
vn 0 0 -1
vn 0 0 -1
vn 0 -1 0
vn 0 -1 0
vn 0 -1 0
vn 0 -1 0
vn 0 -1 0
vn 0 -1 0
vn 0 -1 0
vn 0 -1 0
vn 0 -1 0
vn 0 -1 0
vn -0.5722656 0.4282227 0.6992188
vn -0.5722656 0.4282227 0.6992188
vn -0.5722656 0.4282227 0.6992188
vn -0.5722656 0.4282227 0.6992188
vn -0.7954102 0 0.6064453
vn -0.7954102 0 0.6064453
vn -0.7954102 0 0.6064453
vn -0.7954102 0 0.6064453
vn -0.5722656 -0.4282227 0.6992188
vn -0.5722656 -0.4282227 0.6992188
vn -0.5722656 -0.4282227 0.6992188
vn -0.5722656 -0.4282227 0.6992188
vn 0 -0.8081055 0.5893555
vn 0 -0.8081055 0.5893555
vn 0 -0.8081055 0.5893555
vn 0 -0.8081055 0.5893555
vn 0.5722656 -0.4282227 0.6992188
vn 0.5722656 -0.4282227 0.6992188
vn 0.5722656 -0.4282227 0.6992188
vn 0.5722656 -0.4282227 0.6992188
vn 0.7954102 0 0.6064453
vn 0.7954102 0 0.6064453
vn 0.7954102 0 0.6064453
vn 0.7954102 0 0.6064453
vn 0.5722656 0.4282227 0.6992188
vn 0.5722656 0.4282227 0.6992188
vn 0.5722656 0.4282227 0.6992188
vn 0.5722656 0.4282227 0.6992188
vn 0 0.8081055 0.5893555
vn 0 0.8081055 0.5893555
vn 0 0.8081055 0.5893555
vn 0 0.8081055 0.5893555
vn 0.9047852 0 0.4260254
vn 0.9047852 0 0.4260254
vn 0.9047852 0 0.4260254
vn 0.9047852 0 0.4260254
vn 0.9047852 0 0.4260254
vn 0.9047852 0 0.4260254
vn 0.9047852 0 0.4260254
vn -0.9047852 0 0.4260254
vn -0.9047852 0 0.4260254
vn -0.9047852 0 0.4260254
vn -0.9047852 0 0.4260254
vn -0.9047852 0 0.4260254
vn -0.9047852 0 0.4257813
vn -0.9047852 0 0.4257813
vn -0.9047852 0 0.4260254
vn -0.9047852 0 0.4260254
vn -0.9047852 0 0.4260254
vn 0 0 1
vn 0 0 1
vn 0 0 1
vn 0 0 1
vn 0 0 1
vn 0 0 1
vn 0 0 1
vn 0 0 1
vn 0 0 1
vn 0 0 1
vn 0 0 1
vn 0 0 1
vn 0 0 1
vn 0 0 1
vn 0 0 1
vn 0 0 1
vn 0 0 1
vn 0 0 1
vn 0 0 1
vn 0 0 1
vn 0 0 1
vn 0 0 1
g SM_Bld_Section_Wall_01_0
f 3/3/3 2/2/2 1/1/1
f 6/6/6 5/5/5 4/4/4
f 9/9/9 8/8/8 7/7/7
f 12/12/12 11/11/11 10/10/10
f 15/15/15 14/14/14 13/13/13
f 18/18/18 17/17/17 16/16/16
f 21/21/21 20/20/20 19/19/19
f 19/19/19 22/22/22 21/21/21
f 19/19/19 23/23/23 22/22/22
f 23/23/23 24/24/24 22/22/22
f 23/23/23 25/25/25 24/24/24
f 25/25/25 26/26/26 24/24/24
f 29/29/29 28/28/28 27/27/27
f 30/30/30 29/29/29 27/27/27
f 33/33/33 32/32/32 31/31/31
f 34/34/34 33/33/33 31/31/31
f 37/37/37 36/36/36 35/35/35
f 38/38/38 37/37/37 35/35/35
f 38/38/38 35/35/35 39/39/39
f 40/40/40 38/38/38 39/39/39
f 41/41/41 40/40/40 39/39/39
f 44/44/44 43/43/43 42/42/42
f 44/44/44 42/42/42 45/45/45
f 45/45/45 46/46/46 44/44/44
f 46/46/46 47/47/47 44/44/44
f 47/47/47 48/48/48 44/44/44
f 49/49/49 48/48/48 47/47/47
f 47/47/47 50/50/50 49/49/49
f 49/49/49 51/51/51 48/48/48
f 54/54/54 53/53/53 52/52/52
f 55/55/55 54/54/54 52/52/52
f 55/55/55 56/56/56 54/54/54
f 56/56/56 57/57/57 54/54/54
f 57/57/57 56/56/56 58/58/58
f 56/56/56 59/59/59 58/58/58
f 62/62/62 61/61/61 60/60/60
f 60/60/60 63/63/63 62/62/62
f 60/60/60 64/64/64 63/63/63
f 63/63/63 65/65/65 62/62/62
f 65/65/65 66/66/66 62/62/62
f 67/67/67 66/66/66 65/65/65
f 65/65/65 68/68/68 67/67/67
f 65/65/65 69/69/69 68/68/68
f 72/72/72 71/71/71 70/70/70
f 73/73/73 72/72/72 70/70/70
f 76/76/76 75/75/75 74/74/74
f 77/77/77 76/76/76 74/74/74
f 80/80/80 79/79/79 78/78/78
f 81/81/81 80/80/80 78/78/78
f 84/84/84 83/83/83 82/82/82
f 85/85/85 84/84/84 82/82/82
f 88/88/88 87/87/87 86/86/86
f 89/89/89 88/88/88 86/86/86
f 92/92/92 91/91/91 90/90/90
f 93/93/93 92/92/92 90/90/90
f 96/96/96 95/95/95 94/94/94
f 97/97/97 96/96/96 94/94/94
f 100/100/100 99/99/99 98/98/98
f 101/101/101 100/100/100 98/98/98
f 104/104/104 103/103/103 102/102/102
f 103/103/103 105/105/105 102/102/102
f 103/103/103 106/106/106 105/105/105
f 103/103/103 107/107/107 106/106/106
f 107/107/107 108/108/108 106/106/106
f 111/111/111 110/110/110 109/109/109
f 110/110/110 112/112/112 109/109/109
f 110/110/110 113/113/113 112/112/112
f 110/110/110 114/114/114 113/113/113
f 114/114/114 115/115/115 113/113/113
f 113/113/113 116/116/116 112/112/112
f 113/113/113 117/117/117 116/116/116
f 117/117/117 118/118/118 116/116/116
f 121/121/121 120/120/120 119/119/119
f 120/120/120 122/122/122 119/119/119
f 120/120/120 123/123/123 122/122/122
f 120/120/120 124/124/124 123/123/123
f 124/124/124 125/125/125 123/123/123
f 123/123/123 126/126/126 122/122/122
f 123/123/123 127/127/127 126/126/126
f 127/127/127 128/128/128 126/126/126
f 131/131/131 130/130/130 129/129/129
f 129/129/129 130/130/130 132/132/132
f 133/133/133 131/131/131 129/129/129
f 134/134/134 131/131/131 133/133/133
f 135/135/135 134/134/134 133/133/133
f 129/129/129 132/132/132 136/136/136
f 132/132/132 137/137/137 136/136/136
f 137/137/137 138/138/138 136/136/136
f 139/139/139 135/135/135 133/133/133
f 136/136/136 138/138/138 139/139/139
f 139/139/139 140/140/140 135/135/135
f 138/138/138 140/140/140 139/139/139
