g SM_Bld_Background_Med_08
v 0.170673 0.4282073 -2.583808
v 0.170673 17.43436 -2.583808
v -2.152177 17.43436 -1.829068
v -2.152177 0.4282073 -1.829068
v -2.593822 0.4282073 -1.221194
v -2.593822 17.43436 -1.221194
v -2.593822 17.43436 1.221194
v -2.593822 0.4282073 1.221194
v -2.152177 0.4282073 1.829068
v -2.152177 17.43436 1.829068
v 0.1706728 17.43436 2.583808
v 0.1706728 0.4282073 2.583808
v 0.8852714 0.4282073 2.351621
v 0.8852714 17.43436 2.351621
v 2.320871 17.43436 0.3756865
v 2.320871 0.4282073 0.3756865
v 2.320871 0.4282062 -0.3756865
v 2.320871 17.43436 -0.3756865
v 0.8852714 17.43436 -2.351621
v 0.8852714 0.4282062 -2.351621
v -2.593822 0 -1.685569
v -0.273838 0 0
v 0.6123198 0 -2.727307
v -2.593822 0 1.685569
v 2.593822 0 0
v 0.6123179 0 2.727307
v 0.6123198 17.86256 -2.727307
v -0.273838 17.86256 0
v -2.593822 17.86256 -1.685569
v 2.593822 17.86256 0
v -2.593822 17.86256 1.685569
v 0.6123179 17.86256 2.727307
v 0.6123198 0 -2.727307
v 0.170673 0.4282073 -2.583808
v -2.152177 0.4282073 -1.829068
v -2.593822 0 -1.685569
v 0.6123198 17.86256 -2.727307
v -2.152177 17.43436 -1.829068
v 0.170673 17.43436 -2.583808
v -2.593822 17.86256 -1.685569
v -2.593822 0 -1.685569
v -2.593822 0.4282073 -1.221194
v -2.593822 0.4282073 1.221194
v -2.593822 0 1.685569
v -2.593822 17.86256 -1.685569
v -2.593822 17.43436 1.221194
v -2.593822 17.43436 -1.221194
v -2.593822 17.86256 1.685569
v -2.593822 0 1.685569
v -2.152177 0.4282073 1.829068
v 0.1706728 0.4282073 2.583808
v 0.6123179 0 2.727307
v -2.593822 17.86256 1.685569
v 0.1706728 17.43436 2.583808
v -2.152177 17.43436 1.829068
v 0.6123179 17.86256 2.727307
v 0.6123179 0 2.727307
v 0.8852714 0.4282073 2.351621
v 2.320871 0.4282073 0.3756865
v 2.593822 0 0
v 0.6123179 17.86256 2.727307
v 2.320871 17.43436 0.3756865
v 0.8852714 17.43436 2.351621
v 2.593822 17.86256 0
v 2.593822 0 0
v 2.320871 0.4282062 -0.3756865
v 0.8852714 0.4282062 -2.351621
v 0.6123198 0 -2.727307
v 2.593822 17.86256 0
v 0.8852714 17.43436 -2.351621
v 2.320871 17.43436 -0.3756865
v 0.6123198 17.86256 -2.727307
vt 0.2144775 -0.6777344
vt 0.2144775 1.677734
vt 0.5883789 1.677734
vt 0.5883789 -0.6777344
vt 0.2144775 -0.6777344
vt 0.2144775 1.677734
vt 0.5883789 1.677734
vt 0.5883789 -0.6777344
vt 0.6074219 -0.6777344
vt 0.6074219 1.677734
vt 1.006836 1.677734
vt 1.006836 -0.6777344
vt 0.2144775 -0.6777344
vt 0.2144775 1.677734
vt 0.5883789 1.677734
vt 0.5883789 -0.6777344
vt 0.6074219 -0.6777344
vt 0.6074219 1.677734
vt 1.006836 1.677734
vt 1.006836 -0.6777344
vt 0.6000977 0.9760742
vt 0.6000977 0.9760742
vt 0.6000977 0.9760742
vt 0.6000977 0.9760742
vt 0.6000977 0.9760742
vt 0.6000977 0.9760742
vt 0.6000977 0.9760742
vt 0.6000977 0.9760742
vt 0.6000977 0.9760742
vt 0.6000977 0.9760742
vt 0.6000977 0.9760742
vt 0.6000977 0.9760742
vt 0.6000977 0.9760742
vt 0.6000977 0.9760742
vt 0.6000977 0.9760742
vt 0.6000977 0.9760742
vt 0.6000977 0.9760742
vt 0.6000977 0.9760742
vt 0.6000977 0.9760742
vt 0.6000977 0.9760742
vt 0.6000977 0.9760742
vt 0.6000977 0.9760742
vt 0.6000977 0.9760742
vt 0.6000977 0.9760742
vt 0.6000977 0.9760742
vt 0.6000977 0.9760742
vt 0.6000977 0.9760742
vt 0.6000977 0.9760742
vt 0.6000977 0.9760742
vt 0.6000977 0.9760742
vt 0.6000977 0.9760742
vt 0.6000977 0.9760742
vt 0.6000977 0.9760742
vt 0.6000977 0.9760742
vt 0.6000977 0.9760742
vt 0.6000977 0.9760742
vt 0.6000977 0.9760742
vt 0.6000977 0.9760742
vt 0.6000977 0.9760742
vt 0.6000977 0.9760742
vt 0.6000977 0.9760742
vt 0.6000977 0.9760742
vt 0.6000977 0.9760742
vt 0.6000977 0.9760742
vt 0.6000977 0.9760742
vt 0.6000977 0.9760742
vt 0.6000977 0.9760742
vt 0.6000977 0.9760742
vt 0.6000977 0.9760742
vt 0.6000977 0.9760742
vt 0.6000977 0.9760742
vt 0.6000977 0.9760742
vn -0.309082 0 -0.9511719
vn -0.309082 0 -0.9511719
vn -0.309082 0 -0.9511719
vn -0.309082 0 -0.9511719
vn -1 0 0
vn -1 0 0
vn -1 0 0
vn -1 0 0
vn -0.309082 0 0.9511719
vn -0.309082 0 0.9511719
vn -0.309082 0 0.9511719
vn -0.309082 0 0.9511719
vn 0.809082 0 0.5878906
vn 0.809082 0 0.5878906
vn 0.809082 0 0.5878906
vn 0.809082 0 0.5878906
vn 0.809082 0 -0.5878906
vn 0.809082 0 -0.5878906
vn 0.809082 0 -0.5878906
vn 0.809082 0 -0.5878906
vn 0 -1 0
vn 0 -1 0
vn 0 -1 0
vn 0 -1 0
vn 0 -1 0
vn 0 -1 0
vn 0 1 0
vn 0 1 0
vn 0 1 0
vn 0 1 0
vn 0 1 0
vn 0 1 0
vn -0.309082 0 -0.9511719
vn -0.309082 0 -0.9511719
vn -0.309082 0 -0.9511719
vn -0.309082 0 -0.9511719
vn -0.309082 0 -0.9511719
vn -0.309082 0 -0.9511719
vn -0.309082 0 -0.9511719
vn -0.309082 0 -0.9511719
vn -1 0 0
vn -1 0 0
vn -1 0 0
vn -1 0 0
vn -1 0 0
vn -1 0 0
vn -1 0 0
vn -1 0 0
vn -0.309082 0 0.9511719
vn -0.309082 0 0.9511719
vn -0.309082 0 0.9511719
vn -0.309082 0 0.9511719
vn -0.309082 0 0.9511719
vn -0.309082 0 0.9511719
vn -0.309082 0 0.9511719
vn -0.309082 0 0.9511719
vn 0.809082 0 0.5878906
vn 0.809082 0 0.5878906
vn 0.809082 0 0.5878906
vn 0.809082 0 0.5878906
vn 0.809082 0 0.5878906
vn 0.809082 0 0.5878906
vn 0.809082 0 0.5878906
vn 0.809082 0 0.5878906
vn 0.809082 0 -0.5878906
vn 0.809082 0 -0.5878906
vn 0.809082 0 -0.5878906
vn 0.809082 0 -0.5878906
vn 0.809082 0 -0.5878906
vn 0.809082 0 -0.5878906
vn 0.809082 0 -0.5878906
vn 0.809082 0 -0.5878906
g SM_Bld_Background_Med_08_0
f 3/3/3 2/2/2 1/1/1
f 4/4/4 3/3/3 1/1/1
f 7/7/7 6/6/6 5/5/5
f 8/8/8 7/7/7 5/5/5
f 11/11/11 10/10/10 9/9/9
f 12/12/12 11/11/11 9/9/9
f 15/15/15 14/14/14 13/13/13
f 16/16/16 15/15/15 13/13/13
f 19/19/19 18/18/18 17/17/17
f 20/20/20 19/19/19 17/17/17
f 23/23/23 22/22/22 21/21/21
f 21/21/21 22/22/22 24/24/24
f 25/25/25 22/22/22 23/23/23
f 24/24/24 22/22/22 26/26/26
f 26/26/26 22/22/22 25/25/25
f 29/29/29 28/28/28 27/27/27
f 27/27/27 28/28/28 30/30/30
f 31/31/31 28/28/28 29/29/29
f 30/30/30 28/28/28 32/32/32
f 32/32/32 28/28/28 31/31/31
f 35/35/35 34/34/34 33/33/33
f 36/36/36 35/35/35 33/33/33
f 33/33/33 34/34/34 37/37/37
f 38/38/38 35/35/35 36/36/36
f 34/34/34 39/39/39 37/37/37
f 40/40/40 38/38/38 36/36/36
f 37/37/37 39/39/39 40/40/40
f 39/39/39 38/38/38 40/40/40
f 43/43/43 42/42/42 41/41/41
f 44/44/44 43/43/43 41/41/41
f 41/41/41 42/42/42 45/45/45
f 46/46/46 43/43/43 44/44/44
f 42/42/42 47/47/47 45/45/45
f 48/48/48 46/46/46 44/44/44
f 45/45/45 47/47/47 48/48/48
f 47/47/47 46/46/46 48/48/48
f 51/51/51 50/50/50 49/49/49
f 52/52/52 51/51/51 49/49/49
f 49/49/49 50/50/50 53/53/53
f 54/54/54 51/51/51 52/52/52
f 50/50/50 55/55/55 53/53/53
f 56/56/56 54/54/54 52/52/52
f 53/53/53 55/55/55 56/56/56
f 55/55/55 54/54/54 56/56/56
f 59/59/59 58/58/58 57/57/57
f 60/60/60 59/59/59 57/57/57
f 57/57/57 58/58/58 61/61/61
f 62/62/62 59/59/59 60/60/60
f 58/58/58 63/63/63 61/61/61
f 64/64/64 62/62/62 60/60/60
f 61/61/61 63/63/63 64/64/64
f 63/63/63 62/62/62 64/64/64
f 67/67/67 66/66/66 65/65/65
f 68/68/68 67/67/67 65/65/65
f 65/65/65 66/66/66 69/69/69
f 70/70/70 67/67/67 68/68/68
f 66/66/66 71/71/71 69/69/69
f 72/72/72 70/70/70 68/68/68
f 69/69/69 71/71/71 72/72/72
f 71/71/71 70/70/70 72/72/72
