g SM_Bld_Wall_Pods_Glass_01
v 2.270139 1.247808 0.5787866
v 2.270137 1.946742 0.4228874
v 2.270137 0.8145357 0.6700951
v 2.734544 1.946742 0.4228866
v 2.734546 1.247808 0.5787872
v 2.734547 0.8145357 0.6700943
v 2.044891 1.207982 0.4525757
v 2.04489 2.016575 0.2821762
v 2.37607 0.2439671 0.8254601
v 2.317806 0.2130662 0.7217849
v 2.215729 0.799228 0.6238701
v 2.284016 2.160038 0.3370926
v 2.662385 2.316728 0.3040717
v 2.720668 2.160038 0.3370926
v 2.628609 0.2439671 0.8254592
v 2.959795 2.016575 0.2821762
v 2.959793 1.207982 0.4525757
v 2.788953 0.799228 0.6238715
v 2.686879 0.2130662 0.7217849
v 2.342299 2.316728 0.3040726
v 3.664273 1.247808 0.5787872
v 3.664275 1.946742 0.4228866
v 3.664271 0.8145357 0.6700943
v 4.128682 1.946742 0.4228858
v 4.128684 1.247808 0.5787879
v 4.128682 0.8145357 0.6700934
v 3.439026 1.207982 0.452575
v 3.439027 2.016575 0.282177
v 3.77021 0.2439671 0.8254592
v 3.711943 0.2130662 0.7217858
v 3.609866 0.799228 0.6238708
v 3.678151 2.160038 0.3370917
v 4.056523 2.316728 0.3040726
v 4.114806 2.160038 0.3370934
v 4.022747 0.2439671 0.8254584
v 4.35393 2.016575 0.2821754
v 4.35393 1.207982 0.4525764
v 4.183087 0.799228 0.6238708
v 4.081013 0.2130662 0.7217841
v 3.736433 2.316728 0.3040717
v 1.335727 1.247808 0.5787872
v 1.335728 1.946742 0.4228867
v 1.335725 0.8145357 0.6700943
v 0.871318 1.946742 0.4228875
v 0.8713165 1.247808 0.5787866
v 0.871315 0.8145357 0.6700951
v 1.560974 1.207982 0.4525764
v 1.560973 2.016575 0.2821755
v 1.229793 0.2439671 0.8254592
v 1.288057 0.2130662 0.7217841
v 1.390131 0.799228 0.6238708
v 1.321846 2.160038 0.3370934
v 0.9434769 2.316728 0.3040726
v 0.8851944 2.160038 0.3370918
v 0.9772537 0.2439671 0.8254601
v 0.6460678 2.016575 0.282177
v 0.6460693 1.207982 0.452575
v 0.8169128 0.799228 0.6238708
v 0.9189835 0.2130662 0.7217858
v 1.263564 2.316728 0.3040733
v 2.270137 0.8145357 0.6700951
v 2.270137 1.946742 0.4228874
v 2.04489 2.016575 0.2821762
v 2.734544 1.946742 0.4228866
v 2.720668 2.160038 0.3370926
v 2.734544 1.946742 0.4228866
v 2.959795 2.016575 0.2821762
v 2.734547 0.8145357 0.6700943
v 2.734547 0.8145357 0.6700943
v 2.959793 1.207982 0.4525757
v 2.788953 0.799228 0.6238715
v 2.044891 1.207982 0.4525757
v 2.270137 0.8145357 0.6700951
v 2.215729 0.799228 0.6238701
v 2.270137 0.8145357 0.6700951
v 2.734547 0.8145357 0.6700943
v 2.628609 0.2439671 0.8254592
v 2.37607 0.2439671 0.8254601
v 2.270139 1.247808 0.5787866
v 2.734546 1.247808 0.5787872
v 2.734547 0.8145357 0.6700943
v 2.270137 0.8145357 0.6700951
v 2.734544 1.946742 0.4228866
v 2.270137 1.946742 0.4228874
v 2.270137 1.946742 0.4228874
v 2.284016 2.160038 0.3370926
v 2.662385 2.316728 0.3040717
v 2.734544 1.946742 0.4228866
v 2.270137 1.946742 0.4228874
v 2.342299 2.316728 0.3040726
v 3.664271 0.8145357 0.6700943
v 3.664275 1.946742 0.4228866
v 3.439027 2.016575 0.282177
v 4.128682 1.946742 0.4228858
v 4.114806 2.160038 0.3370934
v 4.128682 1.946742 0.4228858
v 4.35393 2.016575 0.2821754
v 4.128682 0.8145357 0.6700934
v 4.128682 0.8145357 0.6700934
v 4.35393 1.207982 0.4525764
v 4.183087 0.799228 0.6238708
v 3.439026 1.207982 0.452575
v 3.664271 0.8145357 0.6700943
v 3.609866 0.799228 0.6238708
v 3.664271 0.8145357 0.6700943
v 4.128682 0.8145357 0.6700934
v 4.022747 0.2439671 0.8254584
v 3.77021 0.2439671 0.8254592
v 3.664273 1.247808 0.5787872
v 4.128684 1.247808 0.5787879
v 4.128682 0.8145357 0.6700934
v 3.664271 0.8145357 0.6700943
v 4.128682 1.946742 0.4228858
v 3.664275 1.946742 0.4228866
v 3.664275 1.946742 0.4228866
v 3.678151 2.160038 0.3370917
v 4.056523 2.316728 0.3040726
v 4.128682 1.946742 0.4228858
v 3.664275 1.946742 0.4228866
v 3.736433 2.316728 0.3040717
v 1.335725 0.8145357 0.6700943
v 1.335728 1.946742 0.4228867
v 1.560973 2.016575 0.2821755
v 0.871318 1.946742 0.4228875
v 1.335728 1.946742 0.4228867
v 1.335727 1.247808 0.5787872
v 1.335725 0.8145357 0.6700943
v 0.871315 0.8145357 0.6700951
v 1.335725 0.8145357 0.6700943
v 1.229793 0.2439671 0.8254592
v 0.8851944 2.160038 0.3370918
v 0.871318 1.946742 0.4228875
v 0.6460678 2.016575 0.282177
v 0.871318 1.946742 0.4228875
v 0.8713165 1.247808 0.5787866
v 0.871315 0.8145357 0.6700951
v 0.9772537 0.2439671 0.8254601
v 0.871315 0.8145357 0.6700951
v 0.871315 0.8145357 0.6700951
v 0.8169128 0.799228 0.6238708
v 0.6460693 1.207982 0.452575
v 1.560974 1.207982 0.4525764
v 1.390131 0.799228 0.6238708
v 1.335725 0.8145357 0.6700943
v 1.321846 2.160038 0.3370934
v 1.335728 1.946742 0.4228867
v 0.9434769 2.316728 0.3040726
v 1.263564 2.316728 0.3040733
v 1.335728 1.946742 0.4228867
v 0.871318 1.946742 0.4228875
vt 0.3916016 0.09277344
vt 0.3916016 0.09277344
vt 0.3916016 0.09277344
vt 0.3916016 0.09277344
vt 0.3916016 0.09277344
vt 0.3916016 0.09277344
vt 0.3916016 0.09277344
vt 0.3916016 0.09277344
vt 0.3916016 0.09277344
vt 0.3916016 0.09277344
vt 0.3916016 0.09277344
vt 0.3916016 0.09277344
vt 0.3916016 0.09277344
vt 0.3916016 0.09277344
vt 0.3916016 0.09277344
vt 0.3916016 0.09277344
vt 0.3916016 0.09277344
vt 0.3916016 0.09277344
vt 0.3916016 0.09277344
vt 0.3916016 0.09277344
vt 0.3916016 0.09277344
vt 0.3916016 0.09277344
vt 0.3916016 0.09277344
vt 0.3916016 0.09277344
vt 0.3916016 0.09277344
vt 0.3916016 0.09277344
vt 0.3916016 0.09277344
vt 0.3916016 0.09277344
vt 0.3916016 0.09277344
vt 0.3916016 0.09277344
vt 0.3916016 0.09277344
vt 0.3916016 0.09277344
vt 0.3916016 0.09277344
vt 0.3916016 0.09277344
vt 0.3916016 0.09277344
vt 0.3916016 0.09277344
vt 0.3916016 0.09277344
vt 0.3916016 0.09277344
vt 0.3916016 0.09277344
vt 0.3916016 0.09277344
vt 0.3916016 0.09277344
vt 0.3916016 0.09277344
vt 0.3916016 0.09277344
vt 0.3916016 0.09277344
vt 0.3916016 0.09277344
vt 0.3916016 0.09277344
vt 0.3916016 0.09277344
vt 0.3916016 0.09277344
vt 0.3916016 0.09277344
vt 0.3916016 0.09277344
vt 0.3916016 0.09277344
vt 0.3916016 0.09277344
vt 0.3916016 0.09277344
vt 0.3916016 0.09277344
vt 0.3916016 0.09277344
vt 0.3916016 0.09277344
vt 0.3916016 0.09277344
vt 0.3916016 0.09277344
vt 0.3916016 0.09277344
vt 0.3916016 0.09277344
vt 0.3916016 0.09277344
vt 0.3916016 0.09277344
vt 0.3916016 0.09277344
vt 0.3916016 0.09277344
vt 0.3916016 0.09277344
vt 0.3916016 0.09277344
vt 0.3916016 0.09277344
vt 0.3916016 0.09277344
vt 0.3916016 0.09277344
vt 0.3916016 0.09277344
vt 0.3916016 0.09277344
vt 0.3916016 0.09277344
vt 0.3916016 0.09277344
vt 0.3916016 0.09277344
vt 0.3916016 0.09277344
vt 0.3916016 0.09277344
vt 0.3916016 0.09277344
vt 0.3916016 0.09277344
vt 0.3916016 0.09277344
vt 0.3916016 0.09277344
vt 0.3916016 0.09277344
vt 0.3916016 0.09277344
vt 0.3916016 0.09277344
vt 0.3916016 0.09277344
vt 0.3916016 0.09277344
vt 0.3916016 0.09277344
vt 0.3916016 0.09277344
vt 0.3916016 0.09277344
vt 0.3916016 0.09277344
vt 0.3916016 0.09277344
vt 0.3916016 0.09277344
vt 0.3916016 0.09277344
vt 0.3916016 0.09277344
vt 0.3916016 0.09277344
vt 0.3916016 0.09277344
vt 0.3916016 0.09277344
vt 0.3916016 0.09277344
vt 0.3916016 0.09277344
vt 0.3916016 0.09277344
vt 0.3916016 0.09277344
vt 0.3916016 0.09277344
vt 0.3916016 0.09277344
vt 0.3916016 0.09277344
vt 0.3916016 0.09277344
vt 0.3916016 0.09277344
vt 0.3916016 0.09277344
vt 0.3916016 0.09277344
vt 0.3916016 0.09277344
vt 0.3916016 0.09277344
vt 0.3916016 0.09277344
vt 0.3916016 0.09277344
vt 0.3916016 0.09277344
vt 0.3916016 0.09277344
vt 0.3916016 0.09277344
vt 0.3916016 0.09277344
vt 0.3916016 0.09277344
vt 0.3916016 0.09277344
vt 0.3916016 0.09277344
vt 0.3916016 0.09277344
vt 0.3916016 0.09277344
vt 0.3916016 0.09277344
vt 0.3916016 0.09277344
vt 0.3916016 0.09277344
vt 0.3916016 0.09277344
vt 0.3916016 0.09277344
vt 0.3916016 0.09277344
vt 0.3916016 0.09277344
vt 0.3916016 0.09277344
vt 0.3916016 0.09277344
vt 0.3916016 0.09277344
vt 0.3916016 0.09277344
vt 0.3916016 0.09277344
vt 0.3916016 0.09277344
vt 0.3916016 0.09277344
vt 0.3916016 0.09277344
vt 0.3916016 0.09277344
vt 0.3916016 0.09277344
vt 0.3916016 0.09277344
vt 0.3916016 0.09277344
vt 0.3916016 0.09277344
vt 0.3916016 0.09277344
vt 0.3916016 0.09277344
vt 0.3916016 0.09277344
vt 0.3916016 0.09277344
vt 0.3916016 0.09277344
vt 0.3916016 0.09277344
vt 0.3916016 0.09277344
vt 0.3916016 0.09277344
vt 0.3916016 0.09277344
vt 0.3916016 0.09277344
vn -0.498291 0.1811523 0.8476563
vn -0.4919434 0.1842041 0.8510742
vn -0.5048828 0.1779785 0.8447266
vn 0.4956055 0.3518066 0.7944336
vn 0.498291 0.1811523 0.8476563
vn 0.5048828 0.1779785 0.8447266
vn -0.498291 0.1811523 0.8476563
vn -0.4919434 0.1842041 0.8510742
vn -0.7978516 -0.01139069 0.6030273
vn -0.7978516 -0.01139069 0.6030273
vn -0.7978516 -0.01139069 0.6030273
vn -0.4101563 0.3632813 0.8364258
vn 0.4956055 0.3518066 0.7944336
vn 0.4956055 0.3518066 0.7944336
vn 0.7978516 -0.01138306 0.6030273
vn 0.4101563 0.3632813 0.8364258
vn 0.498291 0.1811523 0.8476563
vn 0.7978516 -0.01138306 0.6030273
vn 0.7978516 -0.01138306 0.6030273
vn -0.4956055 0.3518066 0.7939453
vn -0.498291 0.1811523 0.8476563
vn -0.4919434 0.1842041 0.8510742
vn -0.5048828 0.1779785 0.8447266
vn 0.4956055 0.3518066 0.7944336
vn 0.498291 0.1811523 0.8476563
vn 0.5048828 0.1779785 0.8447266
vn -0.498291 0.1811523 0.8476563
vn -0.4919434 0.1842041 0.8510742
vn -0.7978516 -0.01139069 0.6030273
vn -0.7978516 -0.01139069 0.6030273
vn -0.7978516 -0.01139069 0.6030273
vn -0.4101563 0.3632813 0.8364258
vn 0.4956055 0.3518066 0.7944336
vn 0.4956055 0.3518066 0.7944336
vn 0.7978516 -0.01139069 0.6030273
vn 0.4101563 0.3632813 0.8364258
vn 0.498291 0.1811523 0.8476563
vn 0.7978516 -0.01139069 0.6030273
vn 0.7978516 -0.01139069 0.6030273
vn -0.4956055 0.3518066 0.7944336
vn 0.498291 0.1811523 0.8476563
vn 0.4919434 0.1842041 0.8510742
vn 0.5048828 0.1779785 0.8447266
vn -0.4956055 0.3518066 0.7939453
vn 0 0.2119141 0.9770508
vn 0 0.2061768 0.9785156
vn 0.498291 0.1811523 0.8476563
vn 0.4919434 0.1842041 0.8510742
vn 0.7978516 -0.01139069 0.6030273
vn 0.7978516 -0.01139069 0.6030273
vn 0.7978516 -0.01139069 0.6030273
vn 0.4101563 0.3632813 0.8364258
vn -0.4956055 0.3518066 0.7939453
vn -0.4956055 0.3518066 0.7939453
vn 0 0.2626953 0.9648438
vn -0.4099121 0.3632813 0.8364258
vn -0.498291 0.1811523 0.8476563
vn -0.7978516 -0.01139069 0.6030273
vn -0.7978516 -0.01139069 0.6030273
vn 0.4956055 0.3518066 0.7939453
vn -0.7978516 -0.01139069 0.6030273
vn -0.4101563 0.3632813 0.8364258
vn -0.4101563 0.3632813 0.8364258
vn 0.4101563 0.3632813 0.8364258
vn 0.4101563 0.3632813 0.8364258
vn 0.4919434 0.1842041 0.8510742
vn 0.4919434 0.1842041 0.8510742
vn 0.7978516 -0.01138306 0.6030273
vn 0.6538086 0.04324341 0.7553711
vn 0.6538086 0.04324341 0.7553711
vn 0.6538086 0.04324341 0.7553711
vn -0.6538086 0.04324341 0.7553711
vn -0.6538086 0.04324341 0.7553711
vn -0.6538086 0.04324341 0.7553711
vn 0 0.2626953 0.9648438
vn 0 0.2626953 0.9648438
vn 0 0.2626953 0.9648438
vn 0 0.2626953 0.9648438
vn 0 0.2119141 0.9770508
vn 0 0.2119141 0.9770508
vn 0 0.2061768 0.9785156
vn 0 0.2061768 0.9785156
vn 0 0.2176514 0.9760742
vn 0 0.2176514 0.9760742
vn -0.4956055 0.3518066 0.7939453
vn -0.4956055 0.3518066 0.7939453
vn 0 0.3056641 0.9521484
vn 0 0.3056641 0.9521484
vn 0 0.3056641 0.9521484
vn 0 0.3056641 0.9521484
vn -0.7978516 -0.01139069 0.6030273
vn -0.4101563 0.3632813 0.8364258
vn -0.4101563 0.3632813 0.8364258
vn 0.4101563 0.3632813 0.8364258
vn 0.4101563 0.3632813 0.8364258
vn 0.4919434 0.1842041 0.8510742
vn 0.4919434 0.1842041 0.8510742
vn 0.7978516 -0.01139069 0.6030273
vn 0.6538086 0.04324341 0.7553711
vn 0.6538086 0.04324341 0.7553711
vn 0.6538086 0.04324341 0.7553711
vn -0.6538086 0.04324341 0.7553711
vn -0.6538086 0.04324341 0.7553711
vn -0.6538086 0.04324341 0.7553711
vn 0 0.2626953 0.9648438
vn 0 0.2626953 0.9648438
vn 0 0.2626953 0.9648438
vn 0 0.2626953 0.9648438
vn 0 0.2119141 0.9770508
vn 0 0.2119141 0.9770508
vn 0 0.2061768 0.9785156
vn 0 0.2061768 0.9785156
vn 0 0.2176514 0.9760742
vn 0 0.2176514 0.9760742
vn -0.4956055 0.3518066 0.7944336
vn -0.4956055 0.3518066 0.7944336
vn 0 0.3056641 0.9521484
vn 0 0.3056641 0.9521484
vn 0 0.3056641 0.9521484
vn 0 0.3056641 0.9521484
vn 0.7978516 -0.01139069 0.6030273
vn 0.4101563 0.3632813 0.8364258
vn 0.4101563 0.3632813 0.8364258
vn 0 0.2176514 0.9760742
vn 0 0.2176514 0.9760742
vn 0 0.2119141 0.9770508
vn 0 0.2061768 0.9785156
vn 0 0.2626953 0.9648438
vn 0 0.2626953 0.9648438
vn 0 0.2626953 0.9648438
vn -0.4099121 0.3632813 0.8364258
vn -0.4099121 0.3632813 0.8364258
vn -0.4919434 0.1842041 0.8510742
vn -0.4919434 0.1842041 0.8510742
vn -0.498291 0.1811523 0.8476563
vn -0.5048828 0.1779785 0.8447266
vn -0.7978516 -0.01139069 0.6030273
vn -0.7978516 -0.01139069 0.6030273
vn -0.6538086 0.04321289 0.7553711
vn -0.6538086 0.04321289 0.7553711
vn -0.6538086 0.04321289 0.7553711
vn 0.6538086 0.04321289 0.7553711
vn 0.6538086 0.04321289 0.7553711
vn 0.6538086 0.04321289 0.7553711
vn 0.4956055 0.3518066 0.7939453
vn 0.4956055 0.3518066 0.7939453
vn 0 0.3056641 0.9521484
vn 0 0.3056641 0.9521484
vn 0 0.3056641 0.9521484
vn 0 0.3056641 0.9521484
g SM_Bld_Wall_Pods_Glass_01_0
f 12/12/12 63/63/63 62/62/62
f 14/14/14 13/13/13 4/4/4
f 65/65/65 64/64/64 16/16/16
f 71/71/71 70/70/70 69/69/69
f 74/74/74 73/73/73 72/72/72
f 86/86/86 85/85/85 20/20/20
f 32/32/32 93/93/93 92/92/92
f 34/34/34 33/33/33 24/24/24
f 95/95/95 94/94/94 36/36/36
f 101/101/101 100/100/100 99/99/99
f 104/104/104 103/103/103 102/102/102
f 116/116/116 115/115/115 40/40/40
f 123/123/123 52/52/52 122/122/122
f 53/53/53 54/54/54 44/44/44
f 132/132/132 131/131/131 56/56/56
f 141/141/141 140/140/140 139/139/139
f 144/144/144 143/143/143 142/142/142
f 146/146/146 145/145/145 60/60/60
f 2/2/2 8/8/8 1/1/1
f 8/8/8 7/7/7 1/1/1
f 3/3/3 1/1/1 7/7/7
f 9/9/9 61/61/61 11/11/11
f 10/10/10 9/9/9 11/11/11
f 67/67/67 66/66/66 17/17/17
f 66/66/66 5/5/5 17/17/17
f 17/17/17 5/5/5 6/6/6
f 18/18/18 68/68/68 15/15/15
f 19/19/19 18/18/18 15/15/15
f 77/77/77 76/76/76 75/75/75
f 78/78/78 77/77/77 75/75/75
f 82/82/82 81/81/81 79/79/79
f 81/81/81 80/80/80 79/79/79
f 79/79/79 80/80/80 83/83/83
f 84/84/84 79/79/79 83/83/83
f 89/89/89 88/88/88 87/87/87
f 90/90/90 89/89/89 87/87/87
f 22/22/22 28/28/28 21/21/21
f 28/28/28 27/27/27 21/21/21
f 23/23/23 21/21/21 27/27/27
f 29/29/29 91/91/91 31/31/31
f 30/30/30 29/29/29 31/31/31
f 97/97/97 96/96/96 37/37/37
f 96/96/96 25/25/25 37/37/37
f 37/37/37 25/25/25 26/26/26
f 38/38/38 98/98/98 35/35/35
f 39/39/39 38/38/38 35/35/35
f 107/107/107 106/106/106 105/105/105
f 108/108/108 107/107/107 105/105/105
f 112/112/112 111/111/111 109/109/109
f 111/111/111 110/110/110 109/109/109
f 109/109/109 110/110/110 113/113/113
f 114/114/114 109/109/109 113/113/113
f 119/119/119 118/118/118 117/117/117
f 120/120/120 119/119/119 117/117/117
f 48/48/48 42/42/42 41/41/41
f 47/47/47 48/48/48 41/41/41
f 41/41/41 43/43/43 47/47/47
f 49/49/49 50/50/50 51/51/51
f 121/121/121 49/49/49 51/51/51
f 126/126/126 125/125/125 124/124/124
f 45/45/45 126/126/126 124/124/124
f 127/127/127 126/126/126 45/45/45
f 46/46/46 127/127/127 45/45/45
f 130/130/130 129/129/129 128/128/128
f 55/55/55 130/130/130 128/128/128
f 134/134/134 133/133/133 57/57/57
f 135/135/135 134/134/134 57/57/57
f 135/135/135 57/57/57 136/136/136
f 58/58/58 59/59/59 137/137/137
f 138/138/138 58/58/58 137/137/137
f 149/149/149 148/148/148 147/147/147
f 150/150/150 149/149/149 147/147/147
