g SM_Bld_Background_Med_09
v -2.489446 19.83081 2.960563
v 1.71877 28.83263 2.960563
v 1.71877 19.83081 2.960563
v -2.489446 19.83081 -1.897632
v 1.71877 19.83081 -1.897632
v 1.71877 28.83263 -1.897632
v -2.621358 20.42673 2.631292
v -2.621358 20.42673 -1.56836
v 1.910203 30.03728 -1.56836
v 1.910203 30.03728 2.631292
v -2.784677 0 -1.897632
v -2.784677 0 2.960563
v 2.073518 0 2.960563
v 2.073518 0 -1.897632
v 2.073518 19.83081 2.677168
v 2.073518 29.866 2.677168
v 2.073518 29.866 -1.614237
v 2.073518 19.83081 -1.614237
v -2.784677 0.3506823 -1.614237
v -2.784677 19.79635 -1.614237
v -2.784677 19.79635 2.677168
v -2.784677 0.3506823 2.677168
v -2.489446 0.3488655 2.960563
v -2.489446 19.83081 2.960563
v 1.71877 19.83081 2.960563
v 1.71877 0.3488655 2.960563
v 2.073518 0.3484592 2.677168
v 2.073518 19.83081 2.677168
v 2.073518 19.83081 -1.614237
v 2.073518 0.3484592 -1.614237
v -2.489446 19.83081 -1.897632
v -2.489446 0.3488655 -1.897632
v 1.71877 0.3488655 -1.897632
v 1.71877 19.83081 -1.897632
v 2.073518 0 -1.897632
v 1.71877 0.3488655 -1.897632
v -2.489446 0.3488655 -1.897632
v 1.71877 19.83081 -1.897632
v -2.784677 0 -1.897632
v 2.073518 19.83081 -1.897631
v -2.489446 19.83081 -1.897632
v 2.073518 30.38364 -1.897632
v -2.784677 20.08036 -1.897632
v 1.71877 28.83263 -1.897632
v 2.073518 0 2.960563
v 2.073518 0.3484592 2.677168
v 2.073518 0.3484592 -1.614237
v 2.073518 19.83081 2.677168
v 2.073518 0 -1.897632
v 2.073518 19.83081 2.960563
v 2.073518 30.38364 2.960563
v 2.073518 29.866 2.677168
v 2.073518 19.83081 -1.614237
v 2.073518 19.83081 -1.897631
v 2.073518 30.38364 -1.897632
v 2.073518 29.866 -1.614237
v 1.71877 19.83081 2.960563
v 2.073518 30.38364 2.960563
v 2.073518 19.83081 2.960563
v 2.073518 0 2.960563
v 1.71877 28.83263 2.960563
v 1.71877 0.3488655 2.960563
v -2.489446 19.83081 2.960563
v -2.784677 0 2.960563
v -2.784677 20.08036 2.960563
v -2.489446 0.3488655 2.960563
v -2.784677 0 -1.897632
v -2.784677 0.3506823 -1.614237
v -2.784677 0.3506823 2.677168
v -2.784677 0 2.960563
v -2.784677 20.08036 -1.897632
v -2.784677 19.79635 2.677168
v -2.784677 19.79635 -1.614237
v -2.784677 20.08036 2.960563
v -2.784677 20.08036 2.960563
v -2.621358 20.42673 2.631292
v 1.910203 30.03728 2.631292
v 2.073518 30.38364 2.960563
v -2.784677 20.08036 -1.897632
v 1.910203 30.03728 -1.56836
v -2.621358 20.42673 -1.56836
v 2.073518 30.38364 -1.897632
vt 0.01361084 -0.002054214
vt 0.5981445 1.15625
vt 0.5981445 -0.002054214
vt 0.01608276 -0.002965927
vt 0.6005859 -0.002965927
vt 0.6005859 1.155273
vt 0.8310547 -0.1365967
vt 0.1687012 -0.1365967
vt 0.1687012 1.104492
vt 0.8310547 1.104492
vt 0.6142578 0.9682617
vt 0.6142578 0.9682617
vt 0.6142578 0.9682617
vt 0.6142578 0.9682617
vt 0.009216309 -0.1101074
vt 0.009216309 1.083008
vt 0.6020508 1.083008
vt 0.6020508 -0.1101074
vt 0.009216309 -0.7988281
vt 0.009216309 1.771484
vt 0.6020508 1.771484
vt 0.6020508 -0.7988281
vt 0.009216309 -0.7988281
vt 0.009216309 1.771484
vt 0.6020508 1.771484
vt 0.6020508 -0.7988281
vt 0.009216309 -0.7988281
vt 0.009216309 1.771484
vt 0.6020508 1.771484
vt 0.6020508 -0.7988281
vt 0.6020508 1.771484
vt 0.6020508 -0.7988281
vt 0.009216309 -0.7988281
vt 0.009216309 1.771484
vt 0.6142578 0.9682617
vt 0.6142578 0.9682617
vt 0.6142578 0.9682617
vt 0.6142578 0.9682617
vt 0.6142578 0.9682617
vt 0.6142578 0.9682617
vt 0.6142578 0.9682617
vt 0.6142578 0.9682617
vt 0.6142578 0.9682617
vt 0.6142578 0.9682617
vt 0.6142578 0.9682617
vt 0.6142578 0.9682617
vt 0.6142578 0.9682617
vt 0.6142578 0.9682617
vt 0.6142578 0.9682617
vt 0.6142578 0.9682617
vt 0.6142578 0.9682617
vt 0.6142578 0.9682617
vt 0.6142578 0.9682617
vt 0.6142578 0.9682617
vt 0.6142578 0.9682617
vt 0.6142578 0.9682617
vt 0.6142578 0.9682617
vt 0.6142578 0.9682617
vt 0.6142578 0.9682617
vt 0.6142578 0.9682617
vt 0.6142578 0.9682617
vt 0.6142578 0.9682617
vt 0.6142578 0.9682617
vt 0.6142578 0.9682617
vt 0.6142578 0.9682617
vt 0.6142578 0.9682617
vt 0.6142578 0.9682617
vt 0.6142578 0.9682617
vt 0.6142578 0.9682617
vt 0.6142578 0.9682617
vt 0.6142578 0.9682617
vt 0.6142578 0.9682617
vt 0.6142578 0.9682617
vt 0.6142578 0.9682617
vt 0.5976563 0.9697266
vt 0.5976563 0.9697266
vt 0.5976563 0.9697266
vt 0.5976563 0.9697266
vt 0.5976563 0.9697266
vt 0.5976563 0.9697266
vt 0.5976563 0.9697266
vt 0.5976563 0.9697266
vn 0 0 1
vn 0 0 1
vn 0 0 1
vn 0 0 -1
vn 0 0 -1
vn 0 0 -1
vn -0.9042969 0.4265137 0
vn -0.9042969 0.4265137 0
vn -0.9042969 0.4265137 0
vn -0.9042969 0.4265137 0
vn 0 -1 0
vn 0 -1 0
vn 0 -1 0
vn 0 -1 0
vn 1 0 0
vn 1 0 0
vn 1 0 0
vn 1 0 0
vn -1 0 0
vn -1 0 0
vn -1 0 0
vn -1 0 0
vn 0 0 1
vn 0 0 1
vn 0 0 1
vn 0 0 1
vn 1 0 0
vn 1 0 0
vn 1 0 0
vn 1 0 0
vn 0 0 -1
vn 0 0 -1
vn 0 0 -1
vn 0 0 -1
vn 0 0 -1
vn 0 0 -1
vn 0 0 -1
vn 0 0 -1
vn 0 0 -1
vn 0 0 -1
vn 0 0 -1
vn 0 0 -1
vn 0 0 -1
vn 0 0 -1
vn 1 0 0
vn 1 0 0
vn 1 0 0
vn 1 0 0
vn 1 0 0
vn 1 0 0
vn 1 0 0
vn 1 0 0
vn 1 0 0
vn 1 0 0
vn 1 0 0
vn 1 0 0
vn 0 0 1
vn 0 0 1
vn 0 0 1
vn 0 0 1
vn 0 0 1
vn 0 0 1
vn 0 0 1
vn 0 0 1
vn 0 0 1
vn 0 0 1
vn -1 0 0
vn -1 0 0
vn -1 0 0
vn -1 0 0
vn -1 0 0
vn -1 0 0
vn -1 0 0
vn -1 0 0
vn -0.9042969 0.4265137 0
vn -0.9042969 0.4265137 0
vn -0.9042969 0.4265137 0
vn -0.9042969 0.4265137 0
vn -0.9042969 0.4265137 0
vn -0.9042969 0.4265137 0
vn -0.9042969 0.4265137 0
vn -0.9042969 0.4265137 0
g SM_Bld_Background_Med_09_0
f 3/3/3 2/2/2 1/1/1
f 6/6/6 5/5/5 4/4/4
f 9/9/9 8/8/8 7/7/7
f 10/10/10 9/9/9 7/7/7
f 13/13/13 12/12/12 11/11/11
f 14/14/14 13/13/13 11/11/11
f 17/17/17 16/16/16 15/15/15
f 18/18/18 17/17/17 15/15/15
f 21/21/21 20/20/20 19/19/19
f 22/22/22 21/21/21 19/19/19
f 25/25/25 24/24/24 23/23/23
f 26/26/26 25/25/25 23/23/23
f 29/29/29 28/28/28 27/27/27
f 30/30/30 29/29/29 27/27/27
f 33/33/33 32/32/32 31/31/31
f 34/34/34 33/33/33 31/31/31
f 37/37/37 36/36/36 35/35/35
f 35/35/35 36/36/36 38/38/38
f 39/39/39 37/37/37 35/35/35
f 40/40/40 35/35/35 38/38/38
f 41/41/41 37/37/37 39/39/39
f 40/40/40 38/38/38 42/42/42
f 43/43/43 41/41/41 39/39/39
f 38/38/38 44/44/44 42/42/42
f 44/44/44 41/41/41 43/43/43
f 42/42/42 44/44/44 43/43/43
f 47/47/47 46/46/46 45/45/45
f 45/45/45 46/46/46 48/48/48
f 49/49/49 47/47/47 45/45/45
f 50/50/50 45/45/45 48/48/48
f 50/50/50 48/48/48 51/51/51
f 48/48/48 52/52/52 51/51/51
f 53/53/53 47/47/47 49/49/49
f 54/54/54 53/53/53 49/49/49
f 51/51/51 52/52/52 55/55/55
f 54/54/54 55/55/55 53/53/53
f 52/52/52 56/56/56 55/55/55
f 55/55/55 56/56/56 53/53/53
f 59/59/59 58/58/58 57/57/57
f 59/59/59 57/57/57 60/60/60
f 58/58/58 61/61/61 57/57/57
f 57/57/57 62/62/62 60/60/60
f 63/63/63 61/61/61 58/58/58
f 60/60/60 62/62/62 64/64/64
f 65/65/65 63/63/63 58/58/58
f 62/62/62 66/66/66 64/64/64
f 66/66/66 63/63/63 65/65/65
f 64/64/64 66/66/66 65/65/65
f 69/69/69 68/68/68 67/67/67
f 70/70/70 69/69/69 67/67/67
f 67/67/67 68/68/68 71/71/71
f 72/72/72 69/69/69 70/70/70
f 68/68/68 73/73/73 71/71/71
f 74/74/74 72/72/72 70/70/70
f 71/71/71 73/73/73 74/74/74
f 73/73/73 72/72/72 74/74/74
f 77/77/77 76/76/76 75/75/75
f 78/78/78 77/77/77 75/75/75
f 75/75/75 76/76/76 79/79/79
f 80/80/80 77/77/77 78/78/78
f 76/76/76 81/81/81 79/79/79
f 82/82/82 80/80/80 78/78/78
f 79/79/79 81/81/81 82/82/82
f 81/81/81 80/80/80 82/82/82
