g SM_Bld_Wall_Corner_Pillar_Wide_05
v -0.04867982 3.0139 -0.03689905
v -0.04867982 0.7591016 -0.03689905
v -0.04867982 4.053973 -0.03689905
v 1.5 3.124774 0.9395248
v 1 2.57909 0.4135834
v 1 1.131996 0.4135834
v 1.5 0.6219944 0.9395248
v 1.5 3.124774 -0.03689905
v 1 2.57909 -0.03689905
v 1 1.131996 -0.03689905
v 1.5 0.6219944 -0.03689905
v 1.5 4.053973 -0.03689905
v 1.5 4.053973 0.9395248
v 0.9395248 3.124774 1.5
v 0.4135834 2.57909 1
v 0.4135834 1.131996 1
v 0.9395248 0.6219944 1.5
v -0.04867982 3.124774 1.5
v -0.04867982 2.57909 1
v -0.04867982 1.131996 1
v -0.04867982 0.6219944 1.5
v -0.04867982 4.053973 1.5
v 0.9395248 4.053973 1.5
v 1 1.903755 0.4135834
v 1 1.903755 -0.03689981
v -0.04867982 1.903755 -0.03689981
v -0.04867982 1.903755 1
v 0.4135834 1.903755 1
v 1 1.71101 0.4135841
v 1 1.71101 -0.03689981
v -0.04867944 1.71101 -0.03689981
v -0.04867944 1.71101 1
v 0.4135834 1.71101 1
v 0.9395248 0.4726142 1.5
v 1.5 0.4726142 0.9395248
v 1.5 0.4726142 -0.03689905
v -0.04867982 0.4726142 -0.03689905
v -0.04867982 0.4726142 1.5
v -0.04867982 0.6921114 1.474393
v 0.9125888 0.6921114 1.474393
v 1.474392 0.6921114 0.9125885
v 1.474392 0.6921114 -0.03689905
v 1.520687 -1.036906 0.9447525
v -0.06936654 -1.036906 -0.05758538
v 1.520687 -1.036906 -0.05758538
v 0.9447525 -1.036906 1.520688
v -0.06936654 -1.036906 1.520688
v 0.9287472 0.4036969 1.45735
v 1.45735 0.4036969 0.9287475
v 1.45735 0.4036969 0.005751557
v -0.006029596 0.4036969 0.005751557
v -0.006029596 0.4036969 1.45735
v 0.9287472 0.1880934 1.457349
v 1.45735 0.1880934 0.9287475
v 1.45735 0.1880934 0.005751557
v -0.006029596 -0.0719425 0.005751557
v -0.006029596 0.1880934 1.457349
v 0.9447522 0.05884968 1.520686
v 1.520687 0.05884968 0.9447525
v 1.520687 0.05884968 -0.05758538
v -0.06936654 -0.2011862 -0.05758538
v -0.06936654 0.05884968 1.520686
v 1 2.57909 0.4135834
v 1 2.57909 -0.03689905
v 1.5 3.124774 -0.03689905
v 1.5 3.124774 0.9395248
v 1 2.57909 -0.03689905
v 1.5 3.124774 -0.03689905
v 1 1.903755 -0.03689981
v 1.5 0.6219944 -0.03689905
v 1.474392 0.6921114 -0.03689905
v 1 1.131996 -0.03689905
v 1.5 0.4726142 -0.03689905
v 1.5 4.053973 -0.03689905
v 1.5 4.053973 -0.03689905
v 1.5 4.053973 0.9395248
v -0.04867982 4.053973 -0.03689905
v 1.5 3.124774 0.9395248
v 1.5 4.053973 0.9395248
v 1 2.57909 0.4135834
v 0.9395248 3.124774 1.5
v 1.5 3.124774 0.9395248
v 1 1.903755 0.4135834
v 0.4135834 2.57909 1
v 1 2.57909 0.4135834
v 1 1.131996 0.4135834
v 1.474392 0.6921114 0.9125885
v 1.5 0.4726142 0.9395248
v 1.5 0.6219944 0.9395248
v 0.9395248 3.124774 1.5
v 0.4135834 2.57909 1
v 0.4135834 2.57909 1
v 0.4135834 1.903755 1
v -0.04867982 2.57909 1
v 0.4135834 1.131996 1
v 0.9125888 0.6921114 1.474393
v 0.9395248 0.6219944 1.5
v 0.9395248 0.4726142 1.5
v -0.04867982 3.124774 1.5
v 0.9395248 4.053973 1.5
v 0.9395248 3.124774 1.5
v -0.04867982 2.57909 1
v -0.04867982 3.0139 -0.03689905
v -0.04867982 3.124774 1.5
v -0.04867982 1.903755 1
v -0.04867982 1.903755 -0.03689981
v -0.04867982 0.6219944 1.5
v -0.04867982 0.7591016 -0.03689905
v -0.04867982 1.131996 1
v -0.04867982 0.6921114 1.474393
v -0.04867982 0.4726142 1.5
v -0.04867982 0.4726142 -0.03689905
v -0.04867982 4.053973 -0.03689905
v -0.04867982 4.053973 1.5
v -0.04867982 4.053973 1.5
v 0.9395248 4.053973 1.5
v 0.4135834 1.903755 1
v 1 1.903755 0.4135834
v 1 1.903755 -0.03689981
v 1 1.71101 0.4135841
v 1 1.903755 0.4135834
v 1 1.71101 -0.03689981
v 1 1.903755 -0.03689981
v -0.04867982 1.903755 -0.03689981
v -0.04867944 1.71101 -0.03689981
v -0.04867982 1.903755 -0.03689981
v -0.04867982 1.903755 1
v 0.4135834 1.903755 1
v 0.4135834 1.71101 1
v -0.04867944 1.71101 1
v -0.04867982 1.903755 1
v 0.4135834 1.131996 1
v 0.4135834 1.71101 1
v 1 1.71101 0.4135841
v 1 1.131996 0.4135834
v 1 1.71101 -0.03689981
v 1 1.131996 -0.03689905
v 1 1.131996 0.4135834
v 1 1.71101 0.4135841
v 1 1.71101 -0.03689981
v -0.04867944 1.71101 -0.03689981
v -0.04867944 1.71101 -0.03689981
v -0.04867944 1.71101 1
v 0.4135834 1.71101 1
v 0.4135834 1.131996 1
v -0.04867982 1.131996 1
v -0.04867944 1.71101 1
v 1.45735 0.1880934 0.9287475
v 1.45735 0.4036969 0.9287475
v 1.45735 0.1880934 0.005751557
v 1.45735 0.4036969 0.005751557
v -0.006029596 -0.0719425 0.005751557
v -0.006029596 0.4036969 0.005751557
v 0.9287472 0.4036969 1.45735
v 0.9287472 0.1880934 1.457349
v -0.006029596 0.1880934 1.457349
v -0.006029596 0.4036969 1.45735
v 0.9125888 0.6921114 1.474393
v 0.9395248 0.6219944 1.5
v -0.04867982 0.6219944 1.5
v -0.04867982 0.6921114 1.474393
v 0.9395248 0.6219944 1.5
v 0.9125888 0.6921114 1.474393
v 1.474392 0.6921114 0.9125885
v 1.5 0.6219944 0.9395248
v 1.474392 0.6921114 -0.03689905
v 1.5 0.6219944 -0.03689905
v 1.5 0.6219944 0.9395248
v 1.474392 0.6921114 0.9125885
v 0.9287472 0.4036969 1.45735
v 0.9395248 0.4726142 1.5
v 1.5 0.4726142 0.9395248
v 1.45735 0.4036969 0.9287475
v 1.5 0.4726142 -0.03689905
v 1.45735 0.4036969 0.005751557
v 1.45735 0.4036969 0.9287475
v 1.5 0.4726142 0.9395248
v -0.04867982 0.4726142 -0.03689905
v -0.006029596 0.4036969 0.005751557
v 1.45735 0.4036969 0.005751557
v 1.5 0.4726142 -0.03689905
v -0.04867982 0.4726142 1.5
v -0.006029596 0.4036969 1.45735
v -0.006029596 0.4036969 0.005751557
v -0.04867982 0.4726142 -0.03689905
v 0.9395248 0.4726142 1.5
v 0.9287472 0.4036969 1.45735
v -0.006029596 0.4036969 1.45735
v -0.04867982 0.4726142 1.5
v 0.9287472 0.1880934 1.457349
v 1.45735 0.1880934 0.9287475
v 1.45735 0.1880934 0.005751557
v 1.520687 0.05884968 0.9447525
v 1.45735 0.1880934 0.9287475
v 1.520687 0.05884968 -0.05758538
v 1.45735 0.1880934 0.005751557
v -0.006029596 -0.0719425 0.005751557
v -0.06936654 -0.2011862 -0.05758538
v -0.006029596 -0.0719425 0.005751557
v -0.006029596 0.1880934 1.457349
v 0.9287472 0.1880934 1.457349
v 0.9447522 0.05884968 1.520686
v -0.06936654 0.05884968 1.520686
v -0.006029596 0.1880934 1.457349
v 0.9447525 -1.036906 1.520688
v 0.9447522 0.05884968 1.520686
v 1.520687 0.05884968 0.9447525
v 1.520687 -1.036906 0.9447525
v 1.520687 0.05884968 -0.05758538
v 1.520687 -1.036906 -0.05758538
v 1.520687 -1.036906 0.9447525
v 1.520687 0.05884968 0.9447525
v 1.520687 -1.036906 -0.05758538
v 1.520687 0.05884968 -0.05758538
v -0.06936654 -0.2011862 -0.05758538
v -0.06936654 -1.036906 -0.05758538
v -0.06936654 -1.036906 1.520688
v -0.06936654 -1.036906 -0.05758538
v -0.06936654 -0.2011862 -0.05758538
v -0.06936654 0.05884968 1.520686
v 0.9447522 0.05884968 1.520686
v 0.9447525 -1.036906 1.520688
v -0.06936654 -1.036906 1.520688
v -0.06936654 0.05884968 1.520686
vt 0.2467041 0.378418
vt 0.2467041 0.378418
vt 0.2467041 0.378418
vt 0.2467041 0.378418
vt 0.2467041 0.378418
vt 0.2467041 0.378418
vt 0.2467041 0.378418
vt 0.2467041 0.378418
vt 0.2467041 0.378418
vt 0.2467041 0.378418
vt 0.2467041 0.378418
vt 0.2467041 0.378418
vt 0.2467041 0.378418
vt 0.2467041 0.378418
vt 0.2467041 0.378418
vt 0.2467041 0.378418
vt 0.2467041 0.378418
vt 0.2467041 0.378418
vt 0.2467041 0.378418
vt 0.2467041 0.378418
vt 0.2467041 0.378418
vt 0.2467041 0.378418
vt 0.2467041 0.378418
vt 0.2467041 0.378418
vt 0.2467041 0.378418
vt 0.2467041 0.378418
vt 0.2467041 0.378418
vt 0.2467041 0.378418
vt 0.3088379 0.3806152
vt 0.3088379 0.3806152
vt 0.3088379 0.3806152
vt 0.3088379 0.3806152
vt 0.3088379 0.3806152
vt 0.2467041 0.378418
vt 0.2467041 0.378418
vt 0.2467041 0.378418
vt 0.2467041 0.378418
vt 0.2467041 0.378418
vt 0.2467041 0.378418
vt 0.2467041 0.378418
vt 0.2467041 0.378418
vt 0.2467041 0.378418
vt 0.234375 0.3283691
vt 0.234375 0.3283691
vt 0.234375 0.3283691
vt 0.234375 0.3283691
vt 0.234375 0.3283691
vt 0.2352295 0.2800293
vt 0.2352295 0.2800293
vt 0.2352295 0.2800293
vt 0.2352295 0.2800293
vt 0.2352295 0.2800293
vt 0.2352295 0.2800293
vt 0.2352295 0.2800293
vt 0.2352295 0.2800293
vt 0.2352295 0.2800293
vt 0.2352295 0.2800293
vt 0.234375 0.3283691
vt 0.234375 0.3283691
vt 0.234375 0.3283691
vt 0.234375 0.3283691
vt 0.234375 0.3283691
vt 0.2467041 0.378418
vt 0.2467041 0.378418
vt 0.2467041 0.378418
vt 0.2467041 0.378418
vt 0.2467041 0.378418
vt 0.2467041 0.378418
vt 0.2467041 0.378418
vt 0.2467041 0.378418
vt 0.2467041 0.378418
vt 0.2467041 0.378418
vt 0.2467041 0.378418
vt 0.2467041 0.378418
vt 0.2467041 0.378418
vt 0.2467041 0.378418
vt 0.2467041 0.378418
vt 0.2467041 0.378418
vt 0.2467041 0.378418
vt 0.2467041 0.378418
vt 0.2467041 0.378418
vt 0.2467041 0.378418
vt 0.2467041 0.378418
vt 0.2467041 0.378418
vt 0.2467041 0.378418
vt 0.2467041 0.378418
vt 0.2467041 0.378418
vt 0.2467041 0.378418
vt 0.2467041 0.378418
vt 0.2467041 0.378418
vt 0.2467041 0.378418
vt 0.2467041 0.378418
vt 0.2467041 0.378418
vt 0.2467041 0.378418
vt 0.2467041 0.378418
vt 0.2467041 0.378418
vt 0.2467041 0.378418
vt 0.2467041 0.378418
vt 0.2467041 0.378418
vt 0.2467041 0.378418
vt 0.2467041 0.378418
vt 0.2467041 0.378418
vt 0.2467041 0.378418
vt 0.2467041 0.378418
vt 0.2467041 0.378418
vt 0.2467041 0.378418
vt 0.2467041 0.378418
vt 0.2467041 0.378418
vt 0.2467041 0.378418
vt 0.2467041 0.378418
vt 0.2467041 0.378418
vt 0.2467041 0.378418
vt 0.2467041 0.378418
vt 0.2467041 0.378418
vt 0.2467041 0.378418
vt 0.2467041 0.378418
vt 0.3088379 0.3806152
vt 0.3088379 0.3806152
vt 0.3088379 0.3806152
vt 0.3088379 0.3806152
vt 0.3088379 0.3806152
vt 0.3088379 0.3806152
vt 0.3088379 0.3806152
vt 0.3088379 0.3806152
vt 0.3088379 0.3806152
vt 0.3088379 0.3806152
vt 0.3088379 0.3806152
vt 0.3088379 0.3806152
vt 0.3088379 0.3806152
vt 0.3088379 0.3806152
vt 0.3088379 0.3806152
vt 0.2467041 0.378418
vt 0.2467041 0.378418
vt 0.2467041 0.378418
vt 0.2467041 0.378418
vt 0.2467041 0.378418
vt 0.2467041 0.378418
vt 0.2467041 0.378418
vt 0.2467041 0.378418
vt 0.2467041 0.378418
vt 0.2467041 0.378418
vt 0.2467041 0.378418
vt 0.2467041 0.378418
vt 0.2467041 0.378418
vt 0.2467041 0.378418
vt 0.2467041 0.378418
vt 0.2467041 0.378418
vt 0.2352295 0.2800293
vt 0.2352295 0.2800293
vt 0.2352295 0.2800293
vt 0.2352295 0.2800293
vt 0.2352295 0.2800293
vt 0.2352295 0.2800293
vt 0.2352295 0.2800293
vt 0.2352295 0.2800293
vt 0.2352295 0.2800293
vt 0.2352295 0.2800293
vt 0.2467041 0.378418
vt 0.2467041 0.378418
vt 0.2467041 0.378418
vt 0.2467041 0.378418
vt 0.2467041 0.378418
vt 0.2467041 0.378418
vt 0.2467041 0.378418
vt 0.2467041 0.378418
vt 0.2467041 0.378418
vt 0.2467041 0.378418
vt 0.2467041 0.378418
vt 0.2467041 0.378418
vt 0.2467041 0.378418
vt 0.2467041 0.378418
vt 0.2467041 0.378418
vt 0.2467041 0.378418
vt 0.2467041 0.378418
vt 0.2467041 0.378418
vt 0.2467041 0.378418
vt 0.2467041 0.378418
vt 0.2467041 0.378418
vt 0.2467041 0.378418
vt 0.2467041 0.378418
vt 0.2467041 0.378418
vt 0.2467041 0.378418
vt 0.2467041 0.378418
vt 0.2467041 0.378418
vt 0.2467041 0.378418
vt 0.2467041 0.378418
vt 0.2467041 0.378418
vt 0.2467041 0.378418
vt 0.2467041 0.378418
vt 0.234375 0.3283691
vt 0.234375 0.3283691
vt 0.234375 0.3283691
vt 0.234375 0.3283691
vt 0.234375 0.3283691
vt 0.234375 0.3283691
vt 0.234375 0.3283691
vt 0.234375 0.3283691
vt 0.234375 0.3283691
vt 0.234375 0.3283691
vt 0.234375 0.3283691
vt 0.234375 0.3283691
vt 0.234375 0.3283691
vt 0.234375 0.3283691
vt 0.234375 0.3283691
vt 0.234375 0.3283691
vt 0.234375 0.3283691
vt 0.234375 0.3283691
vt 0.234375 0.3283691
vt 0.234375 0.3283691
vt 0.234375 0.3283691
vt 0.234375 0.3283691
vt 0.234375 0.3283691
vt 0.234375 0.3283691
vt 0.234375 0.3283691
vt 0.234375 0.3283691
vt 0.234375 0.3283691
vt 0.234375 0.3283691
vt 0.234375 0.3283691
vt 0.234375 0.3283691
vt 0.234375 0.3283691
vt 0.234375 0.3283691
vt 0.234375 0.3283691
vt 0.234375 0.3283691
vt 0.234375 0.3283691
vn 0 0 -1
vn 0 0 -1
vn 0 0 -1
vn 0.7373047 -0.6757813 0
vn 0.7373047 -0.6757813 0
vn 0.6801758 0.7333984 0
vn 1 0 0
vn 0.7373047 -0.6757813 0
vn 0.7373047 -0.6757813 0
vn 0.6801758 0.7333984 0
vn 1 0 0
vn 1 0 0
vn 1 0 0
vn 0.7070313 0 0.7070313
vn 0.4250488 -0.7993164 0.4250488
vn 0.3808594 0.8427734 0.3808594
vn 0.7070313 0 0.7070313
vn 0 -0.6757813 0.7373047
vn 0 -0.6757813 0.7373047
vn 0 0.7333984 0.6801758
vn 0 0 1
vn 0 0 1
vn 0.7070313 0 0.7070313
vn 1 0 0
vn 1 0 0
vn 0 0 -1
vn 0 0 1
vn 0.7070313 0 0.7070313
vn 0.7070313 0 0.7070313
vn 1 0 0
vn 0 0 -1
vn -1 0 0
vn 0.7070313 0 0.7070313
vn 0.7070313 0 0.7070313
vn 1 0 0
vn 1 0 0
vn 0 0 -1
vn 0 0 1
vn 0 0.7333984 0.6801758
vn 0.3808594 0.8427734 0.3808594
vn 0.6801758 0.7333984 0
vn 0.6801758 0.7333984 0
vn 0 -1 0
vn 0 -1 0
vn 0 -1 0
vn 0 -1 0
vn 0 -1 0
vn 0.7070313 0 0.7070313
vn 0.7070313 0 0.7070313
vn 1 0 0
vn 0 0 -1
vn -1 0 0
vn 0.7070313 0 0.7070313
vn 0.7070313 0 0.7070313
vn 1 0 0
vn 0 0 -1
vn -1 0 0
vn 0.6484375 0.3981934 0.6484375
vn 0.6484375 0.3981934 0.6484375
vn 0.8979492 0.4399414 0
vn -0.07476807 0.4387207 -0.8955078
vn -0.8955078 0.4387207 -0.07531738
vn 1 0 0
vn 1 0 0
vn 1 0 0
vn 1 0 0
vn 0 0 -1
vn 0 0 -1
vn 0 0 -1
vn 0 0 -1
vn 0 0 -1
vn 0 0 -1
vn 0 0 -1
vn 0 0 -1
vn 0 1 0
vn 0 1 0
vn 0 1 0
vn 0.7070313 0 0.7070313
vn 0.7070313 0 0.7070313
vn 0.4250488 -0.7993164 0.4250488
vn 0.4250488 -0.7993164 0.4250488
vn 0.4250488 -0.7993164 0.4250488
vn 0.7070313 0 0.7070313
vn 0.7070313 0 0.7070313
vn 0.7070313 0 0.7070313
vn 0.3808594 0.8427734 0.3808594
vn 0.3808594 0.8427734 0.3808594
vn 0.7070313 0 0.7070313
vn 0.7070313 0 0.7070313
vn 0 -0.6757813 0.7373047
vn 0 -0.6757813 0.7373047
vn 0 0 1
vn 0 0 1
vn 0 0 1
vn 0 0.7333984 0.6801758
vn 0 0.7333984 0.6801758
vn 0 0 1
vn 0 0 1
vn 0 0 1
vn 0 0 1
vn 0 0 1
vn -1 0 0
vn -1 0 0
vn -1 0 0
vn -1 0 0
vn -1 0 0
vn -1 0 0
vn -1 0 0
vn -1 0 0
vn -1 0 0
vn -1 0 0
vn -1 0 0
vn -1 0 0
vn -1 0 0
vn 0 1 0
vn 0 1 0
vn 0.7070313 0 0.7070313
vn 0.7070313 0 0.7070313
vn 1 0 0
vn 1 0 0
vn 1 0 0
vn 0 0 -1
vn 0 0 -1
vn 0 0 -1
vn -1 0 0
vn -1 0 0
vn -1 0 0
vn 0 0 1
vn 0 0 1
vn 0 0 1
vn 0 0 1
vn 0.7070313 0 0.7070313
vn 0.7070313 0 0.7070313
vn 0.7070313 0 0.7070313
vn 0.7070313 0 0.7070313
vn 1 0 0
vn 1 0 0
vn 1 0 0
vn 1 0 0
vn 0 0 -1
vn 0 0 -1
vn -1 0 0
vn -1 0 0
vn 0 0 1
vn 0 0 1
vn 0 0 1
vn 0 0 1
vn 1 0 0
vn 1 0 0
vn 0 0 -1
vn 0 0 -1
vn -1 0 0
vn -1 0 0
vn 0 0 1
vn 0 0 1
vn 0 0 1
vn 0 0 1
vn 0 0.3430176 0.9394531
vn 0 0.3430176 0.9394531
vn 0 0.3430176 0.9394531
vn 0 0.3430176 0.9394531
vn 0.625 0.4682617 0.625
vn 0.625 0.4682617 0.625
vn 0.625 0.4682617 0.625
vn 0.625 0.4682617 0.625
vn 0.9394531 0.3430176 0
vn 0.9394531 0.3430176 0
vn 0.9394531 0.3430176 0
vn 0.9394531 0.3430176 0
vn 0.6201172 -0.4807129 0.6201172
vn 0.6201172 -0.4807129 0.6201172
vn 0.6201172 -0.4807129 0.6201172
vn 0.6201172 -0.4807129 0.6201172
vn 0.8500977 -0.5263672 0
vn 0.8500977 -0.5263672 0
vn 0.8500977 -0.5263672 0
vn 0.8500977 -0.5263672 0
vn 0 -0.5263672 -0.8500977
vn 0 -0.5263672 -0.8500977
vn 0 -0.5263672 -0.8500977
vn 0 -0.5263672 -0.8500977
vn -0.8500977 -0.5263672 0
vn -0.8500977 -0.5263672 0
vn -0.8500977 -0.5263672 0
vn -0.8500977 -0.5263672 0
vn 0 -0.5263672 0.8500977
vn 0 -0.5263672 0.8500977
vn 0 -0.5263672 0.8500977
vn 0 -0.5263672 0.8500977
vn 0.6484375 0.3981934 0.6484375
vn 0.6484375 0.3981934 0.6484375
vn 0.8979492 0.4399414 0
vn 0.8979492 0.4399414 0
vn 0.8979492 0.4399414 0
vn -0.07476807 0.4387207 -0.8955078
vn -0.07476807 0.4387207 -0.8955078
vn -0.07476807 0.4387207 -0.8955078
vn -0.8955078 0.4387207 -0.07531738
vn -0.8955078 0.4387207 -0.07531738
vn -0.8955078 0.4387207 -0.07531738
vn 0 0.4399414 0.8979492
vn 0 0.4399414 0.8979492
vn 0 0.4399414 0.8979492
vn 0 0.4399414 0.8979492
vn 0.7070313 0 0.7070313
vn 0.7070313 0 0.7070313
vn 0.7070313 0 0.7070313
vn 0.7070313 0 0.7070313
vn 1 0 0
vn 1 0 0
vn 1 0 0
vn 1 0 0
vn 0 0 -1
vn 0 0 -1
vn 0 0 -1
vn 0 0 -1
vn -1 0 0
vn -1 0 0
vn -1 0 0
vn -1 0 0
vn 0 0 1
vn 0 0 1
vn 0 0 1
vn 0 0 1
g SM_Bld_Wall_Corner_Pillar_Wide_05_0
f 9/9/9 8/8/8 4/4/4
f 5/5/5 9/9/9 4/4/4
f 25/25/25 64/64/64 63/63/63
f 24/24/24 25/25/25 63/63/63
f 42/42/42 10/10/10 6/6/6
f 41/41/41 42/42/42 6/6/6
f 36/36/36 11/11/11 7/7/7
f 35/35/35 36/36/36 7/7/7
f 13/13/13 66/66/66 65/65/65
f 12/12/12 13/13/13 65/65/65
f 26/26/26 1/1/1 69/69/69
f 1/1/1 67/67/67 69/69/69
f 1/1/1 68/68/68 67/67/67
f 1/1/1 3/3/3 68/68/68
f 3/3/3 74/74/74 68/68/68
f 72/72/72 71/71/71 70/70/70
f 2/2/2 72/72/72 70/70/70
f 2/2/2 70/70/70 73/73/73
f 37/37/37 2/2/2 73/73/73
f 2/2/2 141/141/141 72/72/72
f 141/141/141 140/140/140 72/72/72
f 44/44/44 45/45/45 43/43/43
f 43/43/43 46/46/46 44/44/44
f 47/47/47 44/44/44 46/46/46
f 77/77/77 76/76/76 75/75/75
f 116/116/116 76/76/76 77/77/77
f 116/116/116 77/77/77 115/115/115
f 23/23/23 14/14/14 78/78/78
f 79/79/79 23/23/23 78/78/78
f 81/81/81 15/15/15 80/80/80
f 82/82/82 81/81/81 80/80/80
f 84/84/84 28/28/28 83/83/83
f 85/85/85 84/84/84 83/83/83
f 86/86/86 16/16/16 40/40/40
f 87/87/87 86/86/86 40/40/40
f 17/17/17 34/34/34 88/88/88
f 89/89/89 17/17/17 88/88/88
f 19/19/19 91/91/91 90/90/90
f 18/18/18 19/19/19 90/90/90
f 27/27/27 93/93/93 92/92/92
f 94/94/94 27/27/27 92/92/92
f 39/39/39 96/96/96 95/95/95
f 20/20/20 39/39/39 95/95/95
f 38/38/38 98/98/98 97/97/97
f 21/21/21 38/38/38 97/97/97
f 100/100/100 22/22/22 99/99/99
f 101/101/101 100/100/100 99/99/99
f 103/103/103 106/106/106 105/105/105
f 102/102/102 103/103/103 105/105/105
f 104/104/104 103/103/103 102/102/102
f 113/113/113 103/103/103 104/104/104
f 114/114/114 113/113/113 104/104/104
f 110/110/110 109/109/109 107/107/107
f 109/109/109 108/108/108 107/107/107
f 107/107/107 108/108/108 111/111/111
f 108/108/108 112/112/112 111/111/111
f 142/142/142 108/108/108 109/109/109
f 143/143/143 142/142/142 109/109/109
f 117/117/117 33/33/33 29/29/29
f 118/118/118 117/117/117 29/29/29
f 120/120/120 30/30/30 119/119/119
f 121/121/121 120/120/120 119/119/119
f 124/124/124 123/123/123 122/122/122
f 31/31/31 124/124/124 122/122/122
f 126/126/126 125/125/125 32/32/32
f 127/127/127 126/126/126 32/32/32
f 130/130/130 129/129/129 128/128/128
f 131/131/131 130/130/130 128/128/128
f 134/134/134 133/133/133 132/132/132
f 135/135/135 134/134/134 132/132/132
f 138/138/138 137/137/137 136/136/136
f 139/139/139 138/138/138 136/136/136
f 146/146/146 145/145/145 144/144/144
f 147/147/147 146/146/146 144/144/144
f 49/49/49 48/48/48 53/53/53
f 54/54/54 49/49/49 53/53/53
f 148/148/148 55/55/55 50/50/50
f 149/149/149 148/148/148 50/50/50
f 51/51/51 151/151/151 150/150/150
f 56/56/56 51/51/51 150/150/150
f 153/153/153 152/152/152 57/57/57
f 52/52/52 153/153/153 57/57/57
f 156/156/156 155/155/155 154/154/154
f 157/157/157 156/156/156 154/154/154
f 160/160/160 159/159/159 158/158/158
f 161/161/161 160/160/160 158/158/158
f 164/164/164 163/163/163 162/162/162
f 165/165/165 164/164/164 162/162/162
f 168/168/168 167/167/167 166/166/166
f 169/169/169 168/168/168 166/166/166
f 172/172/172 171/171/171 170/170/170
f 173/173/173 172/172/172 170/170/170
f 176/176/176 175/175/175 174/174/174
f 177/177/177 176/176/176 174/174/174
f 180/180/180 179/179/179 178/178/178
f 181/181/181 180/180/180 178/178/178
f 184/184/184 183/183/183 182/182/182
f 185/185/185 184/184/184 182/182/182
f 188/188/188 187/187/187 186/186/186
f 189/189/189 188/188/188 186/186/186
f 191/191/191 190/190/190 58/58/58
f 59/59/59 191/191/191 58/58/58
f 193/193/193 60/60/60 192/192/192
f 194/194/194 193/193/193 192/192/192
f 197/197/197 196/196/196 195/195/195
f 61/61/61 197/197/197 195/195/195
f 199/199/199 198/198/198 62/62/62
f 200/200/200 199/199/199 62/62/62
f 203/203/203 202/202/202 201/201/201
f 204/204/204 203/203/203 201/201/201
f 207/207/207 206/206/206 205/205/205
f 208/208/208 207/207/207 205/205/205
f 211/211/211 210/210/210 209/209/209
f 212/212/212 211/211/211 209/209/209
f 215/215/215 214/214/214 213/213/213
f 216/216/216 215/215/215 213/213/213
f 219/219/219 218/218/218 217/217/217
f 220/220/220 219/219/219 217/217/217
f 223/223/223 222/222/222 221/221/221
f 224/224/224 223/223/223 221/221/221
