g SM_Bld_Lift_Wall_Door_01
v 0.3322288 0.7062392 -0.03674777
v 0.4371468 -0.5799714 -0.03674775
v 0.4371468 0.5799712 -0.03674775
v 0.3322288 -0.7062389 -0.03674777
v -0.4903946 1.177065 -0.03674771
v 0.3322288 1.177065 -0.03674777
v -0.4903946 -1.177065 -0.03674771
v 0.3322288 -1.177065 -0.03674777
v 0.3322288 0.7062392 -0.03674777
v 0.3854775 1.177065 -0.03674778
v 0.3322288 1.177065 -0.03674777
v 0.3854775 0.7322451 -0.03674778
v 0.4371468 0.5799712 -0.03674775
v 0.4903946 0.6001134 -0.03674776
v 0.4371468 -0.5799714 -0.03674775
v 0.4903946 -0.6001132 -0.03674776
v 0.3322288 -0.7062389 -0.03674777
v 0.3854775 -0.7322451 -0.03674778
v 0.3322288 -1.177065 -0.03674777
v 0.3854775 -1.177065 -0.03674778
v 0.2308693 0.698808 0.03674774
v 0.3213028 0.5581781 0.03674778
v 0.3213028 -0.5581782 0.03674778
v 0.2308693 -0.6988074 0.03674774
v 0.1861259 0.8086873 0.03674776
v 0.2308693 1.059875 0.03674774
v -0.306926 0.8086872 0.0367478
v -0.3745514 1.059875 0.03674782
v -0.306926 0.6112425 0.0367478
v -0.3745514 -1.059875 0.03674782
v 0.2308693 -1.059875 0.03674774
v 0.1861259 0.6112148 0.03674776
v 0.3322288 0.7062392 0.03674772
v 0.3322288 1.177065 0.03674772
v 0.3854775 1.177065 0.0367477
v 0.3854775 0.7322451 0.0367477
v 0.4371468 0.5799712 0.03674774
v 0.4903946 0.6001134 0.03674772
v 0.4371468 -0.5799714 0.03674774
v 0.4903946 -0.6001132 0.03674772
v 0.3322288 -0.7062389 0.03674772
v 0.3854775 -0.7322451 0.0367477
v 0.3322288 -1.177065 0.03674772
v 0.3854775 -1.177065 0.0367477
v -0.2810364 0.7801095 0.01105949
v 0.1602333 0.7801098 0.01105956
v 0.1602333 0.6397922 0.01105956
v -0.2810364 0.6398119 0.01105949
v -0.4903946 1.177065 0.03674778
v -0.4903946 1.177065 0.03674778
v -0.4903946 -1.177065 0.03674778
v 0.3322288 1.177065 0.03674772
v -0.4903946 1.177065 -0.03674771
v 0.3322288 1.177065 -0.03674777
v -0.4903946 -1.177065 0.03674778
v 0.3322288 -1.177065 0.03674772
v 0.3322288 -1.177065 -0.03674777
v -0.4903946 -1.177065 -0.03674771
v 0.3854775 0.7322451 0.0367477
v 0.3854775 1.177065 0.0367477
v 0.3854775 1.177065 -0.03674778
v 0.3854775 0.7322451 -0.03674778
v 0.3854775 1.177065 0.0367477
v 0.3322288 1.177065 0.03674772
v 0.3322288 1.177065 -0.03674777
v 0.3854775 1.177065 -0.03674778
v 0.4903946 0.6001134 0.03674772
v 0.3854775 0.7322451 0.0367477
v 0.3854775 0.7322451 -0.03674778
v 0.4903946 0.6001134 -0.03674776
v 0.4903946 -0.6001132 0.03674772
v 0.4903946 0.6001134 0.03674772
v 0.4903946 0.6001134 -0.03674776
v 0.4903946 -0.6001132 -0.03674776
v 0.3854775 -0.7322451 0.0367477
v 0.4903946 -0.6001132 0.03674772
v 0.4903946 -0.6001132 -0.03674776
v 0.3854775 -0.7322451 -0.03674778
v 0.3322288 -1.177065 0.03674772
v 0.3854775 -1.177065 0.0367477
v 0.3854775 -1.177065 -0.03674778
v 0.3322288 -1.177065 -0.03674777
v 0.3854775 -1.177065 0.0367477
v 0.3854775 -0.7322451 0.0367477
v 0.3854775 -0.7322451 -0.03674778
v 0.3854775 -1.177065 -0.03674778
v -0.4903946 1.177065 0.03674778
v -0.4903946 -1.177065 0.03674778
v -0.4903946 -1.177065 -0.03674771
v -0.4903946 1.177065 -0.03674771
v -0.306926 0.8086872 0.0367478
v -0.2810364 0.7801095 0.01105949
v -0.2810364 0.6398119 0.01105949
v -0.306926 0.6112425 0.0367478
v -0.306926 0.6112425 0.0367478
v -0.2810364 0.6398119 0.01105949
v 0.1602333 0.6397922 0.01105956
v 0.1861259 0.6112148 0.03674776
v 0.1861259 0.6112148 0.03674776
v 0.1602333 0.6397922 0.01105956
v 0.1602333 0.7801098 0.01105956
v 0.1861259 0.8086873 0.03674776
v 0.1861259 0.8086873 0.03674776
v 0.1602333 0.7801098 0.01105956
v -0.2810364 0.7801095 0.01105949
v -0.306926 0.8086872 0.0367478
v -0.4903946 1.177065 0.03674778
v -0.3745514 1.059875 0.03674782
v -0.3745514 -1.059875 0.03674782
v -0.4903946 -1.177065 0.03674778
v 0.3322288 1.177065 0.03674772
v 0.2308693 -1.059875 0.03674774
v 0.2308693 1.059875 0.03674774
v 0.3322288 -1.177065 0.03674772
v 0.3322288 0.7062392 0.03674772
v 0.2308693 -0.6988074 0.03674774
v 0.2308693 0.698808 0.03674774
v 0.3322288 -0.7062389 0.03674772
v 0.4371468 0.5799712 0.03674774
v 0.3213028 -0.5581782 0.03674778
v 0.3213028 0.5581781 0.03674778
v 0.4371468 -0.5799714 0.03674774
vt 0.2460938 0.329834
vt 0.2460938 0.329834
vt 0.2460938 0.329834
vt 0.2460938 0.329834
vt 0.2460938 0.329834
vt 0.2460938 0.329834
vt 0.2460938 0.329834
vt 0.2460938 0.329834
vt 0.2348633 0.2512207
vt 0.2348633 0.2512207
vt 0.2348633 0.2512207
vt 0.2348633 0.2512207
vt 0.2348633 0.2512207
vt 0.2348633 0.2512207
vt 0.2348633 0.2512207
vt 0.2348633 0.2512207
vt 0.2348633 0.2512207
vt 0.2348633 0.2512207
vt 0.2348633 0.2512207
vt 0.2348633 0.2512207
vt 0.2452393 0.3027344
vt 0.2452393 0.3027344
vt 0.2452393 0.3027344
vt 0.2452393 0.3027344
vt 0.2452393 0.3027344
vt 0.2452393 0.3027344
vt 0.2452393 0.3027344
vt 0.2452393 0.3027344
vt 0.2452393 0.3027344
vt 0.2452393 0.3027344
vt 0.2452393 0.3027344
vt 0.2452393 0.3027344
vt 0.2348633 0.2512207
vt 0.2348633 0.2512207
vt 0.2348633 0.2512207
vt 0.2348633 0.2512207
vt 0.2348633 0.2512207
vt 0.2348633 0.2512207
vt 0.2348633 0.2512207
vt 0.2348633 0.2512207
vt 0.2348633 0.2512207
vt 0.2348633 0.2512207
vt 0.2348633 0.2512207
vt 0.2348633 0.2512207
vt 0.2348633 0.2790527
vt 0.2348633 0.2790527
vt 0.2348633 0.2790527
vt 0.2348633 0.2790527
vt 0.2460938 0.329834
vt 0.2460938 0.329834
vt 0.2460938 0.329834
vt 0.2460938 0.329834
vt 0.2460938 0.329834
vt 0.2460938 0.329834
vt 0.2460938 0.329834
vt 0.2460938 0.329834
vt 0.2460938 0.329834
vt 0.2460938 0.329834
vt 0.2348633 0.2512207
vt 0.2348633 0.2512207
vt 0.2348633 0.2512207
vt 0.2348633 0.2512207
vt 0.2348633 0.2512207
vt 0.2348633 0.2512207
vt 0.2348633 0.2512207
vt 0.2348633 0.2512207
vt 0.2348633 0.2512207
vt 0.2348633 0.2512207
vt 0.2348633 0.2512207
vt 0.2348633 0.2512207
vt 0.2348633 0.2512207
vt 0.2348633 0.2512207
vt 0.2348633 0.2512207
vt 0.2348633 0.2512207
vt 0.2348633 0.2512207
vt 0.2348633 0.2512207
vt 0.2348633 0.2512207
vt 0.2348633 0.2512207
vt 0.2348633 0.2512207
vt 0.2348633 0.2512207
vt 0.2348633 0.2512207
vt 0.2348633 0.2512207
vt 0.2348633 0.2512207
vt 0.2348633 0.2512207
vt 0.2348633 0.2512207
vt 0.2348633 0.2512207
vt 0.2460938 0.329834
vt 0.2460938 0.329834
vt 0.2460938 0.329834
vt 0.2460938 0.329834
vt 0.2348633 0.2790527
vt 0.2348633 0.2790527
vt 0.2348633 0.2790527
vt 0.2348633 0.2790527
vt 0.2348633 0.2790527
vt 0.2348633 0.2790527
vt 0.2348633 0.2790527
vt 0.2348633 0.2790527
vt 0.2348633 0.2790527
vt 0.2348633 0.2790527
vt 0.2348633 0.2790527
vt 0.2348633 0.2790527
vt 0.2348633 0.2790527
vt 0.2348633 0.2790527
vt 0.2348633 0.2790527
vt 0.2348633 0.2790527
vt 0.2460938 0.329834
vt 0.2460938 0.329834
vt 0.2460938 0.329834
vt 0.2460938 0.329834
vt 0.2460938 0.329834
vt 0.2460938 0.329834
vt 0.2460938 0.329834
vt 0.2460938 0.329834
vt 0.2460938 0.329834
vt 0.2460938 0.329834
vt 0.2460938 0.329834
vt 0.2460938 0.329834
vt 0.2460938 0.329834
vt 0.2460938 0.329834
vt 0.2460938 0.329834
vt 0.2460938 0.329834
vn 0 0 -1
vn 0 0 -1
vn 0 0 -1
vn 0 0 -1
vn 0 0 -1
vn 0 0 -1
vn 0 0 -1
vn 0 0 -1
vn 0 0 -1
vn 0 0 -1
vn 0 0 -1
vn 0 0 -1
vn 0 0 -1
vn 0 0 -1
vn 0 0 -1
vn 0 0 -1
vn 0 0 -1
vn 0 0 -1
vn 0 0 -1
vn 0 0 -1
vn 0 0 1
vn 0 0 1
vn 0 0 1
vn 0 0 1
vn 0 0 1
vn 0 0 1
vn 0 0 1
vn 0 0 1
vn 0 0 1
vn 0 0 1
vn 0 0 1
vn 0 0 1
vn 0 0 1
vn 0 0 1
vn 0 0 1
vn 0 0 1
vn 0 0 1
vn 0 0 1
vn 0 0 1
vn 0 0 1
vn 0 0 1
vn 0 0 1
vn 0 0 1
vn 0 0 1
vn 0 0 1
vn 0 0 1
vn 0 0 1
vn 0 0 1
vn 0 1 0
vn 0 1 0
vn 0 1 0
vn 0 1 0
vn 0 1 0
vn 0 1 0
vn 0 -1 0
vn 0 -1 0
vn 0 -1 0
vn 0 -1 0
vn 1 0 0
vn 1 0 0
vn 1 0 0
vn 1 0 0
vn 0 1 0
vn 0 1 0
vn 0 1 0
vn 0 1 0
vn 0.7832031 0.6220703 0
vn 0.7832031 0.6220703 0
vn 0.7832031 0.6220703 0
vn 0.7832031 0.6220703 0
vn 1 0 0
vn 1 0 0
vn 1 0 0
vn 1 0 0
vn 0.7832031 -0.6220703 0
vn 0.7832031 -0.6220703 0
vn 0.7832031 -0.6220703 0
vn 0.7832031 -0.6220703 0
vn 0 -1 0
vn 0 -1 0
vn 0 -1 0
vn 0 -1 0
vn 1 0 0
vn 1 0 0
vn 1 0 0
vn 1 0 0
vn -1 0 0
vn -1 0 0
vn -1 0 0
vn -1 0 0
vn 0.7041016 0 0.7099609
vn 0.7041016 0 0.7099609
vn 0.7041016 0 0.7099609
vn 0.7041016 0 0.7099609
vn 3.391504E-05 0.668457 0.7436523
vn 3.391504E-05 0.668457 0.7436523
vn 3.391504E-05 0.668457 0.7436523
vn 3.391504E-05 0.668457 0.7436523
vn -0.7041016 0 0.7099609
vn -0.7041016 0 0.7099609
vn -0.7041016 0 0.7099609
vn -0.7041016 0 0.7099609
vn 0 -0.668457 0.7436523
vn 0 -0.668457 0.7436523
vn 0 -0.668457 0.7436523
vn 0 -0.668457 0.7436523
vn 0 0 1
vn 0 0 1
vn 0 0 1
vn 0 0 1
vn 0 0 1
vn 0 0 1
vn 0 0 1
vn 0 0 1
vn 0 0 1
vn 0 0 1
vn 0 0 1
vn 0 0 1
vn 0 0 1
vn 0 0 1
vn 0 0 1
vn 0 0 1
g SM_Bld_Lift_Wall_Door_01_0
f 3/3/3 2/2/2 1/1/1
f 2/2/2 4/4/4 1/1/1
f 5/5/5 1/1/1 4/4/4
f 1/1/1 5/5/5 6/6/6
f 5/5/5 4/4/4 7/7/7
f 4/4/4 8/8/8 7/7/7
f 11/11/11 10/10/10 9/9/9
f 10/10/10 12/12/12 9/9/9
f 9/9/9 12/12/12 13/13/13
f 12/12/12 14/14/14 13/13/13
f 13/13/13 14/14/14 15/15/15
f 14/14/14 16/16/16 15/15/15
f 15/15/15 16/16/16 17/17/17
f 16/16/16 18/18/18 17/17/17
f 17/17/17 18/18/18 19/19/19
f 18/18/18 20/20/20 19/19/19
f 23/23/23 22/22/22 21/21/21
f 24/24/24 23/23/23 21/21/21
f 21/21/21 25/25/25 24/24/24
f 26/26/26 25/25/25 21/21/21
f 27/27/27 25/25/25 26/26/26
f 28/28/28 27/27/27 26/26/26
f 29/29/29 27/27/27 28/28/28
f 30/30/30 29/29/29 28/28/28
f 31/31/31 24/24/24 30/30/30
f 25/25/25 32/32/32 24/24/24
f 32/32/32 29/29/29 30/30/30
f 24/24/24 32/32/32 30/30/30
f 35/35/35 34/34/34 33/33/33
f 36/36/36 35/35/35 33/33/33
f 36/36/36 33/33/33 37/37/37
f 38/38/38 36/36/36 37/37/37
f 38/38/38 37/37/37 39/39/39
f 40/40/40 38/38/38 39/39/39
f 40/40/40 39/39/39 41/41/41
f 42/42/42 40/40/40 41/41/41
f 42/42/42 41/41/41 43/43/43
f 44/44/44 42/42/42 43/43/43
f 47/47/47 46/46/46 45/45/45
f 48/48/48 47/47/47 45/45/45
f 51/51/51 50/50/50 49/49/49
f 50/50/50 52/52/52 49/49/49
f 53/53/53 49/49/49 52/52/52
f 54/54/54 53/53/53 52/52/52
f 57/57/57 56/56/56 55/55/55
f 58/58/58 57/57/57 55/55/55
f 61/61/61 60/60/60 59/59/59
f 62/62/62 61/61/61 59/59/59
f 65/65/65 64/64/64 63/63/63
f 66/66/66 65/65/65 63/63/63
f 69/69/69 68/68/68 67/67/67
f 70/70/70 69/69/69 67/67/67
f 73/73/73 72/72/72 71/71/71
f 74/74/74 73/73/73 71/71/71
f 77/77/77 76/76/76 75/75/75
f 78/78/78 77/77/77 75/75/75
f 81/81/81 80/80/80 79/79/79
f 82/82/82 81/81/81 79/79/79
f 85/85/85 84/84/84 83/83/83
f 86/86/86 85/85/85 83/83/83
f 89/89/89 88/88/88 87/87/87
f 90/90/90 89/89/89 87/87/87
f 93/93/93 92/92/92 91/91/91
f 94/94/94 93/93/93 91/91/91
f 97/97/97 96/96/96 95/95/95
f 98/98/98 97/97/97 95/95/95
f 101/101/101 100/100/100 99/99/99
f 102/102/102 101/101/101 99/99/99
f 105/105/105 104/104/104 103/103/103
f 106/106/106 105/105/105 103/103/103
f 109/109/109 108/108/108 107/107/107
f 110/110/110 109/109/109 107/107/107
f 107/107/107 108/108/108 111/111/111
f 112/112/112 109/109/109 110/110/110
f 108/108/108 113/113/113 111/111/111
f 114/114/114 112/112/112 110/110/110
f 111/111/111 113/113/113 115/115/115
f 116/116/116 112/112/112 114/114/114
f 113/113/113 117/117/117 115/115/115
f 118/118/118 116/116/116 114/114/114
f 115/115/115 117/117/117 119/119/119
f 120/120/120 116/116/116 118/118/118
f 117/117/117 121/121/121 119/119/119
f 122/122/122 120/120/120 118/118/118
f 119/119/119 121/121/121 122/122/122
f 121/121/121 120/120/120 122/122/122
