g SM_Bld_Section_Corner_01_Glass
v 4.091759 2.389733 -2.080178
v 4.584842 2.389733 -2.573266
v 4.584842 0.9800889 -2.573266
v 4.091755 0.9800889 -2.080178
v 2.426735 0.9800889 -0.4151573
v 2.426735 2.389733 -0.4151573
v 2.919823 2.389733 -0.908245
v 2.919823 0.9800889 -0.9082455
v 3.007698 2.389733 -0.9961213
v 3.473152 2.389733 -1.461573
v 3.473152 0.9800889 -1.461573
v 3.007698 0.9800889 -0.9961218
v 3.538429 2.389733 -1.52685
v 4.003879 2.389733 -1.992302
v 4.003879 0.9800889 -1.992302
v 3.538429 0.9800889 -1.52685
v 4.003879 0.8631528 -1.992302
v 4.003879 0.2443737 -1.992302
v 3.538429 0.2443737 -1.52685
v 3.538429 0.8631528 -1.52685
v 3.473152 0.8631528 -1.461572
v 3.473152 0.2443737 -1.461573
v 3.007698 0.2443737 -0.9961213
v 3.007698 0.8631528 -0.9961213
vt 0.5022604 0.118826
vt 0.5875659 0.118826
vt 0.5875659 0.004136175
vt 0.5022604 0.004136175
vt 0.6862553 0.004136175
vt 0.6862553 0.118826
vt 0.7709869 0.118826
vt 0.7709869 0.004136175
vt 0.5022604 0.118826
vt 0.5875659 0.118826
vt 0.5875658 0.004136175
vt 0.5022604 0.004136175
vt 0.5937722 0.118826
vt 0.6785038 0.118826
vt 0.6785038 0.004136175
vt 0.5937722 0.004136175
vt 0.770987 0.1186435
vt 0.770987 0.004175227
vt 0.6862553 0.004175227
vt 0.6862554 0.1186435
vt 0.6785038 0.1186435
vt 0.6785038 0.004175227
vt 0.5937721 0.004175227
vt 0.5937721 0.1186435
vn 0.7071081 -9.934643E-07 0.7071053
vn 0.7071081 -9.934643E-07 0.7071053
vn 0.7071081 -9.934643E-07 0.7071053
vn 0.7071081 -9.934643E-07 0.7071054
vn 0.7071069 0 0.7071066
vn 0.7071069 0 0.7071066
vn 0.7071069 0 0.7071066
vn 0.7071069 0 0.7071066
vn 0.7071043 -1.052447E-07 0.7071092
vn 0.7071043 -1.052447E-07 0.7071093
vn 0.7071043 -1.052447E-07 0.7071092
vn 0.7071043 -1.052447E-07 0.7071092
vn 0.7071078 0 0.7071056
vn 0.7071078 0 0.7071057
vn 0.7071078 0 0.7071056
vn 0.7071078 0 0.7071056
vn 0.7071082 0 0.7071053
vn 0.7071082 0 0.7071053
vn 0.7071082 0 0.7071053
vn 0.7071082 0 0.7071053
vn 0.7071042 -3.069871E-07 0.7071093
vn 0.7071043 -3.069871E-07 0.7071093
vn 0.7071043 -3.069871E-07 0.7071093
vn 0.7071043 -3.069871E-07 0.7071093
g SM_Bld_Section_Corner_01_Glass_0
f 3/3/3 2/2/2 1/1/1
f 4/4/4 3/3/3 1/1/1
f 7/7/7 6/6/6 5/5/5
f 8/8/8 7/7/7 5/5/5
f 11/11/11 10/10/10 9/9/9
f 12/12/12 11/11/11 9/9/9
f 15/15/15 14/14/14 13/13/13
f 16/16/16 15/15/15 13/13/13
f 19/19/19 18/18/18 17/17/17
f 20/20/20 19/19/19 17/17/17
f 23/23/23 22/22/22 21/21/21
f 24/24/24 23/23/23 21/21/21
