g SM_Bld_Large_Part_08
v -1.335476 2.746342 -0.300476
v -1.335476 3.918436 -0.300476
v -1.335476 3.918436 0.3004761
v -1.335476 2.746342 0.3004761
v -1.268112 4.212822 -0.1877899
v -0.971859 4.416937 0.2817421
v -1.268112 4.212822 0.1877899
v -0.971859 4.416937 -0.2817421
v 1.335472 5.813147 0.2817421
v 1.335472 5.813147 -0.2817421
v 1.335472 5.548655 -0.4508133
v 1.335472 2.746342 -0.4508133
v 1.335472 2.746342 0.4508133
v 1.335472 5.548655 0.4508133
v -0.7764853 1.523645E-08 -0.3502349
v -1.176979 1.523645E-08 -0.2124634
v -1.176979 1.523645E-08 0.2124634
v -0.7764853 1.523645E-08 0.350235
v -1.335476 2.746342 0.3004761
v -1.335476 3.918436 0.3004761
v -0.971859 4.152444 0.4508133
v -0.9395142 2.746342 0.4508133
v -0.971859 4.152444 -0.4508132
v -1.335476 3.918436 -0.300476
v -1.335476 2.746342 -0.300476
v -0.9395142 2.746342 -0.4508133
v -0.9395142 2.746342 -0.350235
v -1.176979 2.746342 -0.2124634
v -1.176979 2.38931 -0.2124634
v -0.7764853 2.38931 -0.3502349
v -1.176979 2.38931 -0.2124634
v -1.176979 2.746342 -0.2124634
v -1.176979 2.746342 0.2124634
v -1.176979 2.38931 0.2124634
v -1.176979 1.523645E-08 -0.2124634
v -1.176979 1.523645E-08 0.2124634
v -1.176979 2.38931 0.2124634
v -1.176979 2.746342 0.2124634
v -0.9395142 2.746342 0.350235
v -0.7764853 2.38931 0.350235
v 1.335472 2.746342 -0.4508133
v -0.248085 2.352743 -0.4508133
v -0.248085 2.352743 0.4508133
v 1.335472 2.746342 0.4508133
v -0.4563866 4.069986 0.3215408
v 1.021442 4.933117 0.3215408
v 1.021442 3.530591 0.3215408
v -0.4605598 2.935502 0.3215408
v 1.021442 3.530591 -0.3215446
v 1.021442 4.933117 -0.3215446
v -0.4563866 4.069986 -0.3215446
v -0.4605599 2.935502 -0.3215447
v -0.248085 2.53655E-07 0.4508133
v -0.248085 2.53655E-07 -0.4508133
v -0.7764854 1.523645E-08 -0.4508132
v -0.7764853 1.523645E-08 -0.3502349
v -0.7764853 1.523645E-08 0.350235
v -0.7764854 1.523645E-08 0.4508133
v -0.9395142 2.746342 -0.4508133
v -0.9395142 2.746342 -0.350235
v -0.7764853 2.38931 -0.3502349
v -0.7764854 2.38931 -0.4508132
v -1.335476 2.746342 -0.300476
v -0.9395142 2.746342 -0.350235
v -0.9395142 2.746342 -0.4508133
v -1.176979 2.746342 -0.2124634
v -1.335476 2.746342 0.3004761
v -1.176979 2.746342 0.2124634
v -0.9395142 2.746342 0.4508133
v -0.9395142 2.746342 0.350235
v -0.7764853 2.38931 0.350235
v -0.9395142 2.746342 0.350235
v -0.9395142 2.746342 0.4508133
v -0.7764854 2.38931 0.4508133
v -1.301796 4.065629 -0.244133
v -1.268112 4.212822 -0.1877899
v -1.268112 4.212822 0.1877899
v -1.301796 4.065629 0.244133
v -1.301796 4.065629 0.244133
v -1.268112 4.212822 0.1877899
v -0.971859 4.416937 0.2817421
v -0.971859 4.284691 0.3662796
v -0.971859 4.284691 -0.3662795
v -0.971859 4.416937 -0.2817421
v -1.268112 4.212822 -0.1877899
v -1.301796 4.065629 -0.244133
v -0.971859 4.284691 0.3662796
v -0.971859 4.416937 0.2817421
v 1.335472 5.813147 0.2817421
v 1.335472 5.680901 0.3662796
v 1.335472 5.680901 0.3662796
v 1.335472 5.813147 0.2817421
v 1.335472 5.813147 -0.2817421
v 1.335472 5.680901 -0.3662796
v 1.335472 5.680901 -0.3662796
v 1.335472 5.813147 -0.2817421
v -0.971859 4.416937 -0.2817421
v -0.971859 4.284691 -0.3662795
v -1.176979 1.523645E-08 0.2124634
v -1.176979 2.38931 0.2124634
v -0.7764853 2.38931 0.350235
v -0.7764853 1.523645E-08 0.350235
v -0.7764854 1.523645E-08 0.4508133
v -0.7764853 1.523645E-08 0.350235
v -0.7764853 2.38931 0.350235
v -0.7764854 2.38931 0.4508133
v -0.248085 2.352743 0.4508133
v -0.248085 2.53655E-07 0.4508133
v -0.7764854 1.523645E-08 0.4508133
v -0.7764854 2.38931 0.4508133
v -0.9395142 2.746342 0.4508133
v -0.5439034 2.863697 0.4508133
v -0.971859 4.152444 0.4508133
v 1.335472 2.746342 0.4508133
v -0.5393486 4.086074 0.4508133
v 1.082714 3.458786 0.4508133
v 1.335472 5.548655 0.4508133
v 1.082714 5.036481 0.4508133
v -0.248085 2.352743 -0.4508133
v -0.248085 2.53655E-07 -0.4508133
v -0.248085 2.53655E-07 0.4508133
v -0.248085 2.352743 0.4508133
v -0.248085 2.53655E-07 -0.4508133
v -0.7764854 2.38931 -0.4508132
v -0.7764854 1.523645E-08 -0.4508132
v -0.248085 2.352743 -0.4508133
v -0.9395142 2.746342 -0.4508133
v -0.5439034 2.863697 -0.4508133
v -0.5393486 4.086074 -0.4508132
v -0.971859 4.152444 -0.4508132
v 1.082714 5.036481 -0.4508133
v 1.335472 5.548655 -0.4508133
v 1.082714 3.458786 -0.4508133
v 1.335472 2.746342 -0.4508133
v -0.7764853 2.38931 -0.3502349
v -0.7764853 1.523645E-08 -0.3502349
v -0.7764854 1.523645E-08 -0.4508132
v -0.7764854 2.38931 -0.4508132
v -1.176979 2.38931 -0.2124634
v -1.176979 1.523645E-08 -0.2124634
v -0.7764853 1.523645E-08 -0.3502349
v -0.7764853 2.38931 -0.3502349
v -0.5393486 4.086074 0.4508133
v -0.4563866 4.069986 0.3215408
v -0.4605598 2.935502 0.3215408
v -0.5439034 2.863697 0.4508133
v -0.5439034 2.863697 0.4508133
v -0.4605598 2.935502 0.3215408
v 1.021442 3.530591 0.3215408
v 1.082714 3.458786 0.4508133
v 1.082714 3.458786 0.4508133
v 1.021442 3.530591 0.3215408
v 1.021442 4.933117 0.3215408
v 1.082714 5.036481 0.4508133
v 1.082714 5.036481 0.4508133
v 1.021442 4.933117 0.3215408
v -0.4563866 4.069986 0.3215408
v -0.5393486 4.086074 0.4508133
v 1.082714 3.458786 -0.4508133
v 1.021442 3.530591 -0.3215446
v -0.4605599 2.935502 -0.3215447
v -0.5439034 2.863697 -0.4508133
v -0.5439034 2.863697 -0.4508133
v -0.4605599 2.935502 -0.3215447
v -0.4563866 4.069986 -0.3215446
v -0.5393486 4.086074 -0.4508132
v -0.5393486 4.086074 -0.4508132
v -0.4563866 4.069986 -0.3215446
v 1.021442 4.933117 -0.3215446
v 1.082714 5.036481 -0.4508133
v 1.082714 5.036481 -0.4508133
v 1.021442 4.933117 -0.3215446
v 1.021442 3.530591 -0.3215446
v 1.082714 3.458786 -0.4508133
v -0.971859 4.152444 -0.4508132
v -0.971859 4.284691 -0.3662795
v -1.301796 4.065629 -0.244133
v -1.335476 3.918436 -0.300476
v -1.335476 3.918436 -0.300476
v -1.301796 4.065629 -0.244133
v -1.301796 4.065629 0.244133
v -1.335476 3.918436 0.3004761
v -1.335476 3.918436 0.3004761
v -1.301796 4.065629 0.244133
v -0.971859 4.284691 0.3662796
v -0.971859 4.152444 0.4508133
v -0.971859 4.152444 0.4508133
v -0.971859 4.284691 0.3662796
v 1.335472 5.680901 0.3662796
v 1.335472 5.548655 0.4508133
v 1.335472 5.548655 0.4508133
v 1.335472 5.680901 0.3662796
v 1.335472 5.680901 -0.3662796
v 1.335472 5.548655 -0.4508133
v 1.335472 5.548655 -0.4508133
v 1.335472 5.680901 -0.3662796
v -0.971859 4.284691 -0.3662795
v -0.971859 4.152444 -0.4508132
vt 0.9941406 0.3034668
vt 0.9941406 0.3034668
vt 0.9941406 0.3034668
vt 0.9941406 0.3034668
vt 0.9941406 0.3034668
vt 0.9941406 0.3034668
vt 0.9941406 0.3034668
vt 0.9941406 0.3034668
vt 0.9941406 0.3034668
vt 0.9941406 0.3034668
vt 0.9941406 0.3034668
vt 0.9941406 0.3034668
vt 0.9941406 0.3034668
vt 0.9941406 0.3034668
vt 0.2454834 0.3046875
vt 0.2454834 0.3046875
vt 0.2454834 0.3046875
vt 0.2454834 0.3046875
vt 0.9941406 0.3034668
vt 0.9941406 0.3034668
vt 0.9941406 0.3034668
vt 0.9941406 0.3034668
vt 0.9941406 0.3034668
vt 0.9941406 0.3034668
vt 0.9941406 0.3034668
vt 0.9941406 0.3034668
vt 0.2454834 0.3046875
vt 0.2454834 0.3046875
vt 0.2454834 0.3046875
vt 0.2454834 0.3046875
vt 0.2454834 0.3046875
vt 0.2454834 0.3046875
vt 0.2454834 0.3046875
vt 0.2454834 0.3046875
vt 0.2454834 0.3046875
vt 0.2454834 0.3046875
vt 0.2454834 0.3046875
vt 0.2454834 0.3046875
vt 0.2454834 0.3046875
vt 0.2454834 0.3046875
vt 0.9941406 0.3034668
vt 0.9941406 0.3034668
vt 0.9941406 0.3034668
vt 0.9941406 0.3034668
vt 0.2454834 0.3046875
vt 0.2454834 0.3046875
vt 0.2454834 0.3046875
vt 0.2454834 0.3046875
vt 0.2454834 0.3046875
vt 0.2454834 0.3046875
vt 0.2454834 0.3046875
vt 0.2454834 0.3046875
vt 0.9941406 0.3034668
vt 0.9941406 0.3034668
vt 0.9941406 0.3034668
vt 0.9941406 0.3034668
vt 0.9941406 0.3034668
vt 0.9941406 0.3034668
vt 0.9941406 0.3034668
vt 0.9941406 0.3034668
vt 0.9941406 0.3034668
vt 0.9941406 0.3034668
vt 0.9941406 0.3034668
vt 0.9941406 0.3034668
vt 0.9941406 0.3034668
vt 0.9941406 0.3034668
vt 0.9941406 0.3034668
vt 0.9941406 0.3034668
vt 0.9941406 0.3034668
vt 0.9941406 0.3034668
vt 0.9941406 0.3034668
vt 0.9941406 0.3034668
vt 0.9941406 0.3034668
vt 0.9941406 0.3034668
vt 0.9941406 0.3034668
vt 0.9941406 0.3034668
vt 0.9941406 0.3034668
vt 0.9941406 0.3034668
vt 0.9941406 0.3034668
vt 0.9941406 0.3034668
vt 0.9941406 0.3034668
vt 0.9941406 0.3034668
vt 0.9941406 0.3034668
vt 0.9941406 0.3034668
vt 0.9941406 0.3034668
vt 0.9941406 0.3034668
vt 0.9941406 0.3034668
vt 0.9941406 0.3034668
vt 0.9941406 0.3034668
vt 0.9941406 0.3034668
vt 0.9941406 0.3034668
vt 0.9941406 0.3034668
vt 0.9941406 0.3034668
vt 0.9941406 0.3034668
vt 0.9941406 0.3034668
vt 0.9941406 0.3034668
vt 0.9941406 0.3034668
vt 0.9941406 0.3034668
vt 0.2454834 0.3046875
vt 0.2454834 0.3046875
vt 0.2454834 0.3046875
vt 0.2454834 0.3046875
vt 0.9941406 0.3034668
vt 0.9941406 0.3034668
vt 0.9941406 0.3034668
vt 0.9941406 0.3034668
vt 0.9941406 0.3034668
vt 0.9941406 0.3034668
vt 0.9941406 0.3034668
vt 0.9941406 0.3034668
vt 0.9941406 0.3034668
vt 0.9941406 0.3034668
vt 0.9941406 0.3034668
vt 0.9941406 0.3034668
vt 0.9941406 0.3034668
vt 0.9941406 0.3034668
vt 0.9941406 0.3034668
vt 0.9941406 0.3034668
vt 0.9941406 0.3034668
vt 0.9941406 0.3034668
vt 0.9941406 0.3034668
vt 0.9941406 0.3034668
vt 0.9941406 0.3034668
vt 0.9941406 0.3034668
vt 0.9941406 0.3034668
vt 0.9941406 0.3034668
vt 0.9941406 0.3034668
vt 0.9941406 0.3034668
vt 0.9941406 0.3034668
vt 0.9941406 0.3034668
vt 0.9941406 0.3034668
vt 0.9941406 0.3034668
vt 0.9941406 0.3034668
vt 0.9941406 0.3034668
vt 0.9941406 0.3034668
vt 0.9941406 0.3034668
vt 0.9941406 0.3034668
vt 0.9941406 0.3034668
vt 0.2454834 0.3046875
vt 0.2454834 0.3046875
vt 0.2454834 0.3046875
vt 0.2454834 0.3046875
vt 0.9941406 0.3034668
vt 0.9941406 0.3034668
vt 0.9941406 0.3034668
vt 0.9941406 0.3034668
vt 0.9941406 0.3034668
vt 0.9941406 0.3034668
vt 0.9941406 0.3034668
vt 0.9941406 0.3034668
vt 0.9941406 0.3034668
vt 0.9941406 0.3034668
vt 0.9941406 0.3034668
vt 0.9941406 0.3034668
vt 0.9941406 0.3034668
vt 0.9941406 0.3034668
vt 0.9941406 0.3034668
vt 0.9941406 0.3034668
vt 0.9941406 0.3034668
vt 0.9941406 0.3034668
vt 0.9941406 0.3034668
vt 0.9941406 0.3034668
vt 0.9941406 0.3034668
vt 0.9941406 0.3034668
vt 0.9941406 0.3034668
vt 0.9941406 0.3034668
vt 0.9941406 0.3034668
vt 0.9941406 0.3034668
vt 0.9941406 0.3034668
vt 0.9941406 0.3034668
vt 0.9941406 0.3034668
vt 0.9941406 0.3034668
vt 0.9941406 0.3034668
vt 0.9941406 0.3034668
vt 0.04992676 0.2098389
vt 0.04992676 0.2098389
vt 0.04992676 0.2098389
vt 0.04992676 0.2098389
vt 0.04992676 0.2098389
vt 0.04992676 0.2098389
vt 0.04992676 0.2098389
vt 0.04992676 0.2098389
vt 0.04992676 0.2098389
vt 0.04992676 0.2098389
vt 0.04992676 0.2098389
vt 0.04992676 0.2098389
vt 0.04992676 0.2098389
vt 0.04992676 0.2098389
vt 0.04992676 0.2098389
vt 0.04992676 0.2098389
vt 0.04992676 0.2098389
vt 0.04992676 0.2098389
vt 0.04992676 0.2098389
vt 0.04992676 0.2098389
vt 0.04992676 0.2098389
vt 0.04992676 0.2098389
vt 0.04992676 0.2098389
vt 0.04992676 0.2098389
vn -1 0 0
vn -1 0 0
vn -1 0 0
vn -1 0 0
vn -0.5673828 0.8232422 0
vn -0.5429688 0.8398438 0
vn -0.5673828 0.8232422 0
vn -0.5429688 0.8398438 0
vn -0.5175781 0.8554688 0
vn -0.5175781 0.8554688 0
vn 1 0 0
vn 1 0 0
vn 1 0 0
vn 1 0 0
vn 0 -1 0
vn 0 -1 0
vn 0 -1 0
vn 0 -1 0
vn -0.3669434 -0.004600525 0.9301758
vn -0.3669434 -0.004600525 0.9301758
vn -0.3669434 -0.004600525 0.9301758
vn -0.3669434 -0.004600525 0.9301758
vn -0.3669434 -0.004600525 -0.9301758
vn -0.3669434 -0.004600525 -0.9301758
vn -0.3669434 -0.004600525 -0.9301758
vn -0.3669434 -0.004600525 -0.9301758
vn -0.3947754 -0.09014893 -0.9140625
vn -0.3947754 -0.09014893 -0.9140625
vn -0.3947754 -0.09014893 -0.9140625
vn -0.3947754 -0.09014893 -0.9140625
vn -1 0 0
vn -1 0 0
vn -1 0 0
vn -1 0 0
vn -1 0 0
vn -1 0 0
vn -0.3947754 -0.09014893 0.9140625
vn -0.3947754 -0.09014893 0.9140625
vn -0.3947754 -0.09014893 0.9140625
vn -0.3947754 -0.09014893 0.9140625
vn 0.2412109 -0.9707031 0
vn 0.2412109 -0.9707031 0
vn 0.2412109 -0.9707031 0
vn 0.2412109 -0.9707031 0
vn 0 0 1
vn 0 0 1
vn 0 0 1
vn 0 0 1
vn 0 0 -1
vn 0 0 -1
vn 0 0 -1
vn 0 0 -1
vn 0 -1 0
vn 0 -1 0
vn 0 -1 0
vn 0 -1 0
vn 0 -1 0
vn 0 -1 0
vn -0.909668 -0.4152832 0
vn -0.909668 -0.4152832 0
vn -0.909668 -0.4152832 0
vn -0.909668 -0.4152832 0
vn 0 -1 0
vn 0 -1 0
vn 0 -1 0
vn 0 -1 0
vn 0 -1 0
vn 0 -1 0
vn 0 -1 0
vn 0 -1 0
vn -0.909668 -0.4152832 0
vn -0.909668 -0.4152832 0
vn -0.909668 -0.4152832 0
vn -0.909668 -0.4152832 0
vn -0.9746094 0.2230225 0
vn -0.9746094 0.2230225 0
vn -0.9746094 0.2230225 0
vn -0.9746094 0.2230225 0
vn -0.5493164 0.4279785 0.7177734
vn -0.5400391 0.4299316 0.7236328
vn -0.5400391 0.4299316 0.7236328
vn -0.5493164 0.4279785 0.7177734
vn -0.5493164 0.4279785 -0.7177734
vn -0.5400391 0.4299316 -0.7236328
vn -0.5400391 0.4299316 -0.7236328
vn -0.5493164 0.4279785 -0.7177734
vn -0.3098145 0.512207 0.8012695
vn -0.3098145 0.512207 0.8012695
vn -0.3098145 0.512207 0.8012695
vn -0.3098145 0.512207 0.8012695
vn 1 0 0
vn 1 0 0
vn 1 0 0
vn 1 0 0
vn -0.3098145 0.512207 -0.8012695
vn -0.3098145 0.512207 -0.8012695
vn -0.3098145 0.512207 -0.8012695
vn -0.3098145 0.512207 -0.8012695
vn -0.3251953 0 0.9458008
vn -0.3251953 0 0.9458008
vn -0.3251953 0 0.9458008
vn -0.3251953 0 0.9458008
vn -1 0 0
vn -1 0 0
vn -1 0 0
vn -1 0 0
vn 0 0 1
vn 0 0 1
vn 0 0 1
vn 0 0 1
vn 0 0 1
vn 0 0 1
vn 0 0 1
vn 0 0 1
vn 0 0 1
vn 0 0 1
vn 0 0 1
vn 0 0 1
vn 1 0 0
vn 1 0 0
vn 1 0 0
vn 1 0 0
vn 0 0 -1
vn 0 0 -1
vn 0 0 -1
vn 0 0 -1
vn 0 0 -1
vn 0 0 -1
vn 0 0 -1
vn 0 0 -1
vn 0 0 -1
vn 0 0 -1
vn 0 0 -1
vn 0 0 -1
vn -1 0 0
vn -1 0 0
vn -1 0 0
vn -1 0 0
vn -0.3251953 0 -0.9458008
vn -0.3251953 0 -0.9458008
vn -0.3251953 0 -0.9458008
vn -0.3251953 0 -0.9458008
vn 0.8413086 -0.003116608 0.5405273
vn 0.8413086 -0.003116608 0.5405273
vn 0.8413086 -0.003116608 0.5405273
vn 0.8413086 -0.003116608 0.5405273
vn -0.3212891 0.8393555 0.4387207
vn -0.3212891 0.8393555 0.4387207
vn -0.3212891 0.8393555 0.4387207
vn -0.3212891 0.8393555 0.4387207
vn -0.9038086 0 0.4282227
vn -0.9038086 0 0.4282227
vn -0.9038086 0 0.4282227
vn -0.9038086 0 0.4282227
vn 0.4619141 -0.7895508 0.4035645
vn 0.4619141 -0.7895508 0.4035645
vn 0.4619141 -0.7895508 0.4035645
vn 0.4619141 -0.7895508 0.4035645
vn -0.3212891 0.8393555 -0.4387207
vn -0.3212891 0.8393555 -0.4387207
vn -0.3212891 0.8393555 -0.4387207
vn -0.3212891 0.8393555 -0.4387207
vn 0.8413086 -0.0031147 -0.5405273
vn 0.8413086 -0.0031147 -0.5405273
vn 0.8413086 -0.0031147 -0.5405273
vn 0.8413086 -0.0031147 -0.5405273
vn 0.4619141 -0.7895508 -0.4035645
vn 0.4619141 -0.7895508 -0.4035645
vn 0.4619141 -0.7895508 -0.4035645
vn 0.4619141 -0.7895508 -0.4035645
vn -0.9038086 0 -0.4282227
vn -0.9038086 0 -0.4282227
vn -0.9038086 0 -0.4282227
vn -0.9038086 0 -0.4282227
vn -0.5581055 0.4262695 -0.7119141
vn -0.5493164 0.4279785 -0.7177734
vn -0.5493164 0.4279785 -0.7177734
vn -0.5581055 0.4262695 -0.7119141
vn -0.9746094 0.2230225 0
vn -0.9746094 0.2230225 0
vn -0.9746094 0.2230225 0
vn -0.9746094 0.2230225 0
vn -0.5581055 0.4262695 0.7119141
vn -0.5493164 0.4279785 0.7177734
vn -0.5493164 0.4279785 0.7177734
vn -0.5581055 0.4262695 0.7119141
vn -0.3098145 0.512207 0.8012695
vn -0.3098145 0.512207 0.8012695
vn -0.3098145 0.512207 0.8012695
vn -0.3098145 0.512207 0.8012695
vn 1 0 0
vn 1 0 0
vn 1 0 0
vn 1 0 0
vn -0.3098145 0.512207 -0.8012695
vn -0.3098145 0.512207 -0.8012695
vn -0.3098145 0.512207 -0.8012695
vn -0.3098145 0.512207 -0.8012695
g SM_Bld_Large_Part_08_0
f 3/3/3 2/2/2 1/1/1
f 4/4/4 3/3/3 1/1/1
f 7/7/7 6/6/6 5/5/5
f 6/6/6 8/8/8 5/5/5
f 6/6/6 9/9/9 8/8/8
f 9/9/9 10/10/10 8/8/8
f 13/13/13 12/12/12 11/11/11
f 14/14/14 13/13/13 11/11/11
f 17/17/17 16/16/16 15/15/15
f 18/18/18 17/17/17 15/15/15
f 21/21/21 20/20/20 19/19/19
f 22/22/22 21/21/21 19/19/19
f 25/25/25 24/24/24 23/23/23
f 26/26/26 25/25/25 23/23/23
f 29/29/29 28/28/28 27/27/27
f 30/30/30 29/29/29 27/27/27
f 33/33/33 32/32/32 31/31/31
f 34/34/34 33/33/33 31/31/31
f 34/34/34 31/31/31 35/35/35
f 36/36/36 34/34/34 35/35/35
f 39/39/39 38/38/38 37/37/37
f 40/40/40 39/39/39 37/37/37
f 43/43/43 42/42/42 41/41/41
f 44/44/44 43/43/43 41/41/41
f 47/47/47 46/46/46 45/45/45
f 48/48/48 47/47/47 45/45/45
f 51/51/51 50/50/50 49/49/49
f 52/52/52 51/51/51 49/49/49
f 55/55/55 54/54/54 53/53/53
f 53/53/53 56/56/56 55/55/55
f 53/53/53 57/57/57 56/56/56
f 53/53/53 58/58/58 57/57/57
f 61/61/61 60/60/60 59/59/59
f 62/62/62 61/61/61 59/59/59
f 65/65/65 64/64/64 63/63/63
f 64/64/64 66/66/66 63/63/63
f 63/63/63 66/66/66 67/67/67
f 66/66/66 68/68/68 67/67/67
f 67/67/67 68/68/68 69/69/69
f 68/68/68 70/70/70 69/69/69
f 73/73/73 72/72/72 71/71/71
f 74/74/74 73/73/73 71/71/71
f 77/77/77 76/76/76 75/75/75
f 78/78/78 77/77/77 75/75/75
f 81/81/81 80/80/80 79/79/79
f 82/82/82 81/81/81 79/79/79
f 85/85/85 84/84/84 83/83/83
f 86/86/86 85/85/85 83/83/83
f 89/89/89 88/88/88 87/87/87
f 90/90/90 89/89/89 87/87/87
f 93/93/93 92/92/92 91/91/91
f 94/94/94 93/93/93 91/91/91
f 97/97/97 96/96/96 95/95/95
f 98/98/98 97/97/97 95/95/95
f 101/101/101 100/100/100 99/99/99
f 102/102/102 101/101/101 99/99/99
f 105/105/105 104/104/104 103/103/103
f 106/106/106 105/105/105 103/103/103
f 109/109/109 108/108/108 107/107/107
f 110/110/110 109/109/109 107/107/107
f 111/111/111 110/110/110 107/107/107
f 112/112/112 111/111/111 107/107/107
f 111/111/111 112/112/112 113/113/113
f 112/112/112 107/107/107 114/114/114
f 112/112/112 115/115/115 113/113/113
f 116/116/116 112/112/112 114/114/114
f 113/113/113 115/115/115 117/117/117
f 118/118/118 116/116/116 114/114/114
f 117/117/117 118/118/118 114/114/114
f 115/115/115 118/118/118 117/117/117
f 121/121/121 120/120/120 119/119/119
f 122/122/122 121/121/121 119/119/119
f 125/125/125 124/124/124 123/123/123
f 124/124/124 126/126/126 123/123/123
f 126/126/126 124/124/124 127/127/127
f 128/128/128 126/126/126 127/127/127
f 129/129/129 128/128/128 127/127/127
f 130/130/130 129/129/129 127/127/127
f 131/131/131 129/129/129 130/130/130
f 132/132/132 131/131/131 130/130/130
f 128/128/128 133/133/133 126/126/126
f 133/133/133 131/131/131 132/132/132
f 133/133/133 134/134/134 126/126/126
f 134/134/134 133/133/133 132/132/132
f 137/137/137 136/136/136 135/135/135
f 138/138/138 137/137/137 135/135/135
f 141/141/141 140/140/140 139/139/139
f 142/142/142 141/141/141 139/139/139
f 145/145/145 144/144/144 143/143/143
f 146/146/146 145/145/145 143/143/143
f 149/149/149 148/148/148 147/147/147
f 150/150/150 149/149/149 147/147/147
f 153/153/153 152/152/152 151/151/151
f 154/154/154 153/153/153 151/151/151
f 157/157/157 156/156/156 155/155/155
f 158/158/158 157/157/157 155/155/155
f 161/161/161 160/160/160 159/159/159
f 162/162/162 161/161/161 159/159/159
f 165/165/165 164/164/164 163/163/163
f 166/166/166 165/165/165 163/163/163
f 169/169/169 168/168/168 167/167/167
f 170/170/170 169/169/169 167/167/167
f 173/173/173 172/172/172 171/171/171
f 174/174/174 173/173/173 171/171/171
f 177/177/177 176/176/176 175/175/175
f 178/178/178 177/177/177 175/175/175
f 181/181/181 180/180/180 179/179/179
f 182/182/182 181/181/181 179/179/179
f 185/185/185 184/184/184 183/183/183
f 186/186/186 185/185/185 183/183/183
f 189/189/189 188/188/188 187/187/187
f 190/190/190 189/189/189 187/187/187
f 193/193/193 192/192/192 191/191/191
f 194/194/194 193/193/193 191/191/191
f 197/197/197 196/196/196 195/195/195
f 198/198/198 197/197/197 195/195/195
