g SM_Bld_Warehouse_Door_Bottom_Glass_01
v -0.9883537 0.1917365 0.04340172
v -1.116932 -0.1230528 0.04340172
v -1.116932 0.1230526 0.04340172
v -0.9878157 -0.1917365 0.04340172
v 0.9879265 0.1917365 0.04340172
v 0.9882774 -0.1917365 0.04340172
v 1.116932 0.1230526 0.04340172
v 1.116932 -0.1230528 0.04340172
v -0.9883537 0.1917365 -0.04340172
v -1.116932 0.1230526 -0.04340172
v -1.116932 -0.1230528 -0.04340172
v -0.9878157 -0.1917365 -0.04340172
v 0.9879265 0.1917365 -0.04340172
v 0.9882774 -0.1917365 -0.04340172
v 1.116932 0.1230526 -0.04340172
v 1.116932 -0.1230528 -0.04340172
vt 0.5087891 0.1192017
vt 0.5039063 0.0243988
vt 0.5039063 0.09851074
vt 0.5087891 0.003713608
vt 0.5810547 0.1192017
vt 0.5810547 0.003713608
vt 0.5859375 0.09851074
vt 0.5859375 0.0243988
vt 0.5087891 0.1192017
vt 0.5039063 0.09851074
vt 0.5039063 0.0243988
vt 0.5087891 0.003713608
vt 0.5810547 0.1192017
vt 0.5810547 0.003713608
vt 0.5859375 0.09851074
vt 0.5859375 0.0243988
vn 0 0 1
vn 0 0 1
vn 0 0 1
vn 0 0 1
vn 0 0 1
vn 0 0 1
vn 0 0 1
vn 0 0 1
vn 0 0 -1
vn 0 0 -1
vn 0 0 -1
vn 0 0 -1
vn 0 0 -1
vn 0 0 -1
vn 0 0 -1
vn 0 0 -1
g SM_Bld_Warehouse_Door_Bottom_Glass_01_0
f 3/3/3 2/2/2 1/1/1
f 2/2/2 4/4/4 1/1/1
f 1/1/1 4/4/4 5/5/5
f 4/4/4 6/6/6 5/5/5
f 7/7/7 5/5/5 6/6/6
f 8/8/8 7/7/7 6/6/6
f 11/11/11 10/10/10 9/9/9
f 12/12/12 11/11/11 9/9/9
f 12/12/12 9/9/9 13/13/13
f 14/14/14 12/12/12 13/13/13
f 13/13/13 15/15/15 14/14/14
f 15/15/15 16/16/16 14/14/14
