g SM_Bld_Warehouse_Door_Glass_01
v 13.72849 1.172339 -5.062226
v 14.76324 1.172339 -5.062226
v 14.76324 2.763987 -5.062226
v 13.72849 2.763987 -5.062226
v 6.27151 1.172339 -5.062226
v 6.27151 2.763987 -5.062226
v 5.236756 2.763987 -5.062226
v 5.236756 1.172339 -5.062226
v 13.72849 1.172339 -5.01005
v 13.72849 2.763987 -5.01005
v 14.76324 2.763987 -5.01005
v 14.76324 1.172339 -5.01005
v 6.27151 1.172339 -5.01005
v 5.236756 1.172339 -5.01005
v 5.236756 2.763987 -5.01005
v 6.27151 2.763987 -5.01005
vt 0.5859375 0.002689362
vt 0.5039063 0.002689362
vt 0.5039063 0.1195068
vt 0.5859375 0.1195068
vt 0.5859375 0.002689362
vt 0.5859375 0.1195068
vt 0.5039063 0.1195068
vt 0.5039063 0.002689362
vt 0.5859375 0.002689362
vt 0.5859375 0.1195068
vt 0.5039063 0.1195068
vt 0.5039063 0.002689362
vt 0.5859375 0.002689362
vt 0.5039063 0.002689362
vt 0.5039063 0.1195068
vt 0.5859375 0.1195068
vn 0 0 -1
vn 0 0 -1
vn 0 0 -1
vn 0 0 -1
vn 0 0 -1
vn 0 0 -1
vn 0 0 -1
vn 0 0 -1
vn 0 0 1
vn 0 0 1
vn 0 0 1
vn 0 0 1
vn 0 0 1
vn 0 0 1
vn 0 0 1
vn 0 0 1
g SM_Bld_Warehouse_Door_Glass_01_0
f 3/3/3 2/2/2 1/1/1
f 4/4/4 3/3/3 1/1/1
f 7/7/7 6/6/6 5/5/5
f 8/8/8 7/7/7 5/5/5
f 11/11/11 10/10/10 9/9/9
f 12/12/12 11/11/11 9/9/9
f 15/15/15 14/14/14 13/13/13
f 16/16/16 15/15/15 13/13/13
