g SM_Bld_Background_Med_06
v -1.341606 25.18828 2.488243
v 1.341601 25.18828 2.488243
v 1.341601 0.2865936 2.488243
v -1.341606 0.2865936 2.488243
v -1.341606 0.2865936 -2.488239
v 1.341601 0.2865936 -2.488239
v 1.341601 25.18828 -2.488239
v -1.341606 25.18828 -2.488239
v 2.488239 25.18828 1.364189
v 2.488239 25.18828 -1.36419
v 2.488239 0.2865936 -1.36419
v 2.488239 0.2865936 1.364189
v -2.488244 25.18828 -1.36419
v -2.488244 25.18828 1.364189
v -2.488244 0.2865936 1.364189
v -2.488244 0.2865936 -1.36419
v -2.488244 25.47487 -1.502983
v -1.502995 25.47487 -2.488239
v 1.50299 25.47487 -2.488239
v 2.488239 25.47487 -1.502983
v -2.488244 25.47487 1.502983
v 2.488239 25.47487 1.502983
v -1.502995 25.47487 2.488243
v 1.50299 25.47487 2.488243
v 2.488239 0 -1.502983
v 1.50299 0 -2.488239
v -1.502995 0 -2.488239
v -2.488244 0 -1.502983
v 2.488239 0 1.502983
v -2.488244 0 1.502983
v 1.50299 0 2.488243
v -1.502995 0 2.488243
v -2.410325 0.2865936 1.580904
v -2.410325 25.18828 1.580904
v -1.580914 25.18828 2.410322
v -1.580914 0.2865936 2.410322
v 1.580909 0.2865936 2.410322
v 1.580909 25.18828 2.410322
v 2.41032 25.18828 1.580904
v 2.41032 0.2865936 1.580904
v -2.410325 25.18828 -1.5809
v -2.410325 0.2865936 -1.5809
v -1.580914 0.2865936 -2.410322
v -1.580914 25.18828 -2.410322
v 1.580909 25.18828 -2.410322
v 1.580909 0.2865936 -2.410322
v 2.41032 0.2865936 -1.5809
v 2.41032 25.18828 -1.5809
v -1.502995 25.47487 2.488243
v -1.341606 25.18828 2.488243
v -1.341606 0.2865936 2.488243
v -1.502995 0 2.488243
v 1.50299 25.47487 2.488243
v 1.341601 0.2865936 2.488243
v 1.341601 25.18828 2.488243
v 1.50299 0 2.488243
v -1.502995 0 -2.488239
v -1.341606 0.2865936 -2.488239
v -1.341606 25.18828 -2.488239
v -1.502995 25.47487 -2.488239
v 1.50299 0 -2.488239
v 1.341601 25.18828 -2.488239
v 1.341601 0.2865936 -2.488239
v 1.50299 25.47487 -2.488239
v 2.488239 25.47487 1.502983
v 2.488239 25.18828 1.364189
v 2.488239 0.2865936 1.364189
v 2.488239 0 1.502983
v 2.488239 25.47487 -1.502983
v 2.488239 0.2865936 -1.36419
v 2.488239 25.18828 -1.36419
v 2.488239 0 -1.502983
v -2.488244 25.47487 -1.502983
v -2.488244 25.18828 -1.36419
v -2.488244 0.2865936 -1.36419
v -2.488244 0 -1.502983
v -2.488244 25.47487 1.502983
v -2.488244 0.2865936 1.364189
v -2.488244 25.18828 1.364189
v -2.488244 0 1.502983
v -2.488244 0 1.502983
v -2.410325 0.2865936 1.580904
v -1.580914 0.2865936 2.410322
v -1.502995 0 2.488243
v -2.488244 25.47487 1.502983
v -1.580914 25.18828 2.410322
v -2.410325 25.18828 1.580904
v -1.502995 25.47487 2.488243
v 1.50299 0 2.488243
v 1.580909 0.2865936 2.410322
v 2.41032 0.2865936 1.580904
v 2.488239 0 1.502983
v 1.50299 25.47487 2.488243
v 2.41032 25.18828 1.580904
v 1.580909 25.18828 2.410322
v 2.488239 25.47487 1.502983
v -2.488244 25.47487 -1.502983
v -2.410325 25.18828 -1.5809
v -1.580914 25.18828 -2.410322
v -1.502995 25.47487 -2.488239
v -2.488244 0 -1.502983
v -1.580914 0.2865936 -2.410322
v -2.410325 0.2865936 -1.5809
v -1.502995 0 -2.488239
v 1.50299 25.47487 -2.488239
v 1.580909 25.18828 -2.410322
v 2.41032 25.18828 -1.5809
v 2.488239 25.47487 -1.502983
v 1.50299 0 -2.488239
v 2.41032 0.2865936 -1.5809
v 1.580909 0.2865936 -2.410322
v 2.488239 0 -1.502983
vt 0.2042236 2.021484
vt 0.5947266 2.021484
vt 0.5947266 -1.020508
vt 0.2042236 -1.020508
vt 0.5947266 -1.020508
vt 0.2042236 -1.020508
vt 0.2042236 2.021484
vt 0.5947266 2.021484
vt 0.2042236 2.021484
vt 0.5947266 2.021484
vt 0.5947266 -1.020508
vt 0.2042236 -1.020508
vt 0.2042236 2.021484
vt 0.5947266 2.021484
vt 0.5947266 -1.020508
vt 0.2042236 -1.020508
vt 0.6040039 0.9624023
vt 0.6040039 0.9624023
vt 0.6040039 0.9624023
vt 0.6040039 0.9624023
vt 0.6040039 0.9624023
vt 0.6040039 0.9624023
vt 0.6040039 0.9624023
vt 0.6040039 0.9624023
vt 0.6040039 0.9624023
vt 0.6040039 0.9624023
vt 0.6040039 0.9624023
vt 0.6040039 0.9624023
vt 0.6040039 0.9624023
vt 0.6040039 0.9624023
vt 0.6040039 0.9624023
vt 0.6040039 0.9624023
vt 0.4160156 -1.020508
vt 0.4160156 2.021484
vt 0.5839844 2.021484
vt 0.5839844 -1.020508
vt 0.4160156 -1.020508
vt 0.4160156 2.021484
vt 0.5839844 2.021484
vt 0.5839844 -1.020508
vt 0.5839844 2.021484
vt 0.5839844 -1.020508
vt 0.4160156 -1.020508
vt 0.4160156 2.021484
vt 0.5839844 2.021484
vt 0.5839844 -1.020508
vt 0.4160156 -1.020508
vt 0.4160156 2.021484
vt 0.6040039 0.9624023
vt 0.6040039 0.9624023
vt 0.6040039 0.9624023
vt 0.6040039 0.9624023
vt 0.6040039 0.9624023
vt 0.6040039 0.9624023
vt 0.6040039 0.9624023
vt 0.6040039 0.9624023
vt 0.6040039 0.9624023
vt 0.6040039 0.9624023
vt 0.6040039 0.9624023
vt 0.6040039 0.9624023
vt 0.6040039 0.9624023
vt 0.6040039 0.9624023
vt 0.6040039 0.9624023
vt 0.6040039 0.9624023
vt 0.6040039 0.9624023
vt 0.6040039 0.9624023
vt 0.6040039 0.9624023
vt 0.6040039 0.9624023
vt 0.6040039 0.9624023
vt 0.6040039 0.9624023
vt 0.6040039 0.9624023
vt 0.6040039 0.9624023
vt 0.6040039 0.9624023
vt 0.6040039 0.9624023
vt 0.6040039 0.9624023
vt 0.6040039 0.9624023
vt 0.6040039 0.9624023
vt 0.6040039 0.9624023
vt 0.6040039 0.9624023
vt 0.6040039 0.9624023
vt 0.6040039 0.9624023
vt 0.6040039 0.9624023
vt 0.6040039 0.9624023
vt 0.6040039 0.9624023
vt 0.6040039 0.9624023
vt 0.6040039 0.9624023
vt 0.6040039 0.9624023
vt 0.6040039 0.9624023
vt 0.6040039 0.9624023
vt 0.6040039 0.9624023
vt 0.6040039 0.9624023
vt 0.6040039 0.9624023
vt 0.6040039 0.9624023
vt 0.6040039 0.9624023
vt 0.6040039 0.9624023
vt 0.6040039 0.9624023
vt 0.6040039 0.9624023
vt 0.6040039 0.9624023
vt 0.6040039 0.9624023
vt 0.6040039 0.9624023
vt 0.6040039 0.9624023
vt 0.6040039 0.9624023
vt 0.6040039 0.9624023
vt 0.6040039 0.9624023
vt 0.6040039 0.9624023
vt 0.6040039 0.9624023
vt 0.6040039 0.9624023
vt 0.6040039 0.9624023
vt 0.6040039 0.9624023
vt 0.6040039 0.9624023
vt 0.6040039 0.9624023
vt 0.6040039 0.9624023
vn 0 0 1
vn 0 0 1
vn 0 0 1
vn 0 0 1
vn 0 0 -1
vn 0 0 -1
vn 0 0 -1
vn 0 0 -1
vn 1 0 0
vn 1 0 0
vn 1 0 0
vn 1 0 0
vn -1 0 0
vn -1 0 0
vn -1 0 0
vn -1 0 0
vn 0 1 0
vn 0 1 0
vn 0 1 0
vn 0 1 0
vn 0 1 0
vn 0 1 0
vn 0 1 0
vn 0 1 0
vn 0 -1 0
vn 0 -1 0
vn 0 -1 0
vn 0 -1 0
vn 0 -1 0
vn 0 -1 0
vn 0 -1 0
vn 0 -1 0
vn -0.7070313 0 0.7070313
vn -0.7070313 0 0.7070313
vn -0.7070313 0 0.7070313
vn -0.7070313 0 0.7070313
vn 0.7070313 0 0.7070313
vn 0.7070313 0 0.7070313
vn 0.7070313 0 0.7070313
vn 0.7070313 0 0.7070313
vn -0.7070313 0 -0.7070313
vn -0.7070313 0 -0.7070313
vn -0.7070313 0 -0.7070313
vn -0.7070313 0 -0.7070313
vn 0.7070313 0 -0.7070313
vn 0.7070313 0 -0.7070313
vn 0.7070313 0 -0.7070313
vn 0.7070313 0 -0.7070313
vn 0 0 1
vn 0 0 1
vn 0 0 1
vn 0 0 1
vn 0 0 1
vn 0 0 1
vn 0 0 1
vn 0 0 1
vn 0 0 -1
vn 0 0 -1
vn 0 0 -1
vn 0 0 -1
vn 0 0 -1
vn 0 0 -1
vn 0 0 -1
vn 0 0 -1
vn 1 0 0
vn 1 0 0
vn 1 0 0
vn 1 0 0
vn 1 0 0
vn 1 0 0
vn 1 0 0
vn 1 0 0
vn -1 0 0
vn -1 0 0
vn -1 0 0
vn -1 0 0
vn -1 0 0
vn -1 0 0
vn -1 0 0
vn -1 0 0
vn -0.7070313 0 0.7070313
vn -0.7070313 0 0.7070313
vn -0.7070313 0 0.7070313
vn -0.7070313 0 0.7070313
vn -0.7070313 0 0.7070313
vn -0.7070313 0 0.7070313
vn -0.7070313 0 0.7070313
vn -0.7070313 0 0.7070313
vn 0.7070313 0 0.7070313
vn 0.7070313 0 0.7070313
vn 0.7070313 0 0.7070313
vn 0.7070313 0 0.7070313
vn 0.7070313 0 0.7070313
vn 0.7070313 0 0.7070313
vn 0.7070313 0 0.7070313
vn 0.7070313 0 0.7070313
vn -0.7070313 0 -0.7070313
vn -0.7070313 0 -0.7070313
vn -0.7070313 0 -0.7070313
vn -0.7070313 0 -0.7070313
vn -0.7070313 0 -0.7070313
vn -0.7070313 0 -0.7070313
vn -0.7070313 0 -0.7070313
vn -0.7070313 0 -0.7070313
vn 0.7070313 0 -0.7070313
vn 0.7070313 0 -0.7070313
vn 0.7070313 0 -0.7070313
vn 0.7070313 0 -0.7070313
vn 0.7070313 0 -0.7070313
vn 0.7070313 0 -0.7070313
vn 0.7070313 0 -0.7070313
vn 0.7070313 0 -0.7070313
g SM_Bld_Background_Med_06_0
f 3/3/3 2/2/2 1/1/1
f 4/4/4 3/3/3 1/1/1
f 7/7/7 6/6/6 5/5/5
f 8/8/8 7/7/7 5/5/5
f 11/11/11 10/10/10 9/9/9
f 12/12/12 11/11/11 9/9/9
f 15/15/15 14/14/14 13/13/13
f 16/16/16 15/15/15 13/13/13
f 19/19/19 18/18/18 17/17/17
f 17/17/17 20/20/20 19/19/19
f 17/17/17 21/21/21 20/20/20
f 21/21/21 22/22/22 20/20/20
f 21/21/21 23/23/23 22/22/22
f 23/23/23 24/24/24 22/22/22
f 27/27/27 26/26/26 25/25/25
f 25/25/25 28/28/28 27/27/27
f 25/25/25 29/29/29 28/28/28
f 29/29/29 30/30/30 28/28/28
f 29/29/29 31/31/31 30/30/30
f 31/31/31 32/32/32 30/30/30
f 35/35/35 34/34/34 33/33/33
f 36/36/36 35/35/35 33/33/33
f 39/39/39 38/38/38 37/37/37
f 40/40/40 39/39/39 37/37/37
f 43/43/43 42/42/42 41/41/41
f 44/44/44 43/43/43 41/41/41
f 47/47/47 46/46/46 45/45/45
f 48/48/48 47/47/47 45/45/45
f 51/51/51 50/50/50 49/49/49
f 52/52/52 51/51/51 49/49/49
f 49/49/49 50/50/50 53/53/53
f 54/54/54 51/51/51 52/52/52
f 50/50/50 55/55/55 53/53/53
f 56/56/56 54/54/54 52/52/52
f 53/53/53 55/55/55 56/56/56
f 55/55/55 54/54/54 56/56/56
f 59/59/59 58/58/58 57/57/57
f 60/60/60 59/59/59 57/57/57
f 57/57/57 58/58/58 61/61/61
f 62/62/62 59/59/59 60/60/60
f 58/58/58 63/63/63 61/61/61
f 64/64/64 62/62/62 60/60/60
f 61/61/61 63/63/63 64/64/64
f 63/63/63 62/62/62 64/64/64
f 67/67/67 66/66/66 65/65/65
f 68/68/68 67/67/67 65/65/65
f 65/65/65 66/66/66 69/69/69
f 70/70/70 67/67/67 68/68/68
f 66/66/66 71/71/71 69/69/69
f 72/72/72 70/70/70 68/68/68
f 69/69/69 71/71/71 72/72/72
f 71/71/71 70/70/70 72/72/72
f 75/75/75 74/74/74 73/73/73
f 76/76/76 75/75/75 73/73/73
f 73/73/73 74/74/74 77/77/77
f 78/78/78 75/75/75 76/76/76
f 74/74/74 79/79/79 77/77/77
f 80/80/80 78/78/78 76/76/76
f 77/77/77 79/79/79 80/80/80
f 79/79/79 78/78/78 80/80/80
f 83/83/83 82/82/82 81/81/81
f 84/84/84 83/83/83 81/81/81
f 81/81/81 82/82/82 85/85/85
f 86/86/86 83/83/83 84/84/84
f 82/82/82 87/87/87 85/85/85
f 88/88/88 86/86/86 84/84/84
f 85/85/85 87/87/87 88/88/88
f 87/87/87 86/86/86 88/88/88
f 91/91/91 90/90/90 89/89/89
f 92/92/92 91/91/91 89/89/89
f 89/89/89 90/90/90 93/93/93
f 94/94/94 91/91/91 92/92/92
f 90/90/90 95/95/95 93/93/93
f 96/96/96 94/94/94 92/92/92
f 93/93/93 95/95/95 96/96/96
f 95/95/95 94/94/94 96/96/96
f 99/99/99 98/98/98 97/97/97
f 100/100/100 99/99/99 97/97/97
f 97/97/97 98/98/98 101/101/101
f 102/102/102 99/99/99 100/100/100
f 98/98/98 103/103/103 101/101/101
f 104/104/104 102/102/102 100/100/100
f 101/101/101 103/103/103 104/104/104
f 103/103/103 102/102/102 104/104/104
f 107/107/107 106/106/106 105/105/105
f 108/108/108 107/107/107 105/105/105
f 105/105/105 106/106/106 109/109/109
f 110/110/110 107/107/107 108/108/108
f 106/106/106 111/111/111 109/109/109
f 112/112/112 110/110/110 108/108/108
f 109/109/109 111/111/111 112/112/112
f 111/111/111 110/110/110 112/112/112
