g SM_Bld_Bank_Door_Bottom_01_Glass
v 9.552592 0.1940258 -5.127882
v 9.256016 0.1940257 -5.127882
v 9.256016 0.8724685 -5.127882
v 9.552592 0.8724685 -5.127882
v 9.735476 0.3223316 -5.127882
v 9.76857 1.057407 -5.127882
v 10.31081 0.3223316 -5.127882
v 10.27772 1.057407 -5.127882
v 10.4937 0.1940258 -5.127882
v 10.4937 0.8724685 -5.127882
v 10.79028 0.8724685 -5.127882
v 10.79028 0.1940257 -5.127882
v 9.552592 0.1940258 -5.160458
v 9.256016 0.8724685 -5.160458
v 9.256016 0.1940257 -5.160458
v 9.552592 0.8724685 -5.160458
v 9.735476 0.3223316 -5.160458
v 9.76857 1.057407 -5.160458
v 10.31081 0.3223316 -5.160458
v 10.27772 1.057407 -5.160458
v 10.4937 0.1940258 -5.160458
v 10.4937 0.8724685 -5.160458
v 10.79028 0.8724685 -5.160458
v 10.79028 0.1940257 -5.160458
vt 0.7041016 0.00402832
vt 0.6884766 0.00402832
vt 0.6884766 0.09338379
vt 0.7041016 0.09338379
vt 0.7143555 0.0209198
vt 0.7158203 0.1177368
vt 0.7451172 0.0209198
vt 0.7436523 0.1177368
vt 0.7548828 0.00402832
vt 0.7548828 0.09338379
vt 0.7709961 0.09338379
vt 0.7709961 0.00402832
vt 0.7548828 0.00402832
vt 0.7705078 0.09338379
vt 0.7705078 0.00402832
vt 0.7548828 0.09338379
vt 0.7451172 0.0209198
vt 0.7431641 0.1177368
vt 0.7143555 0.0209198
vt 0.7163086 0.1177368
vt 0.7045898 0.00402832
vt 0.7045898 0.09338379
vt 0.6889648 0.09338379
vt 0.6889648 0.00402832
vn 0 0 1
vn 0 0 1
vn 0 0 1
vn 0 0 1
vn 0 0 1
vn 0 0 1
vn 0 0 1
vn 0 0 1
vn 0 0 1
vn 0 0 1
vn 0 0 1
vn 0 0 1
vn 0 0 -1
vn 0 0 -1
vn 0 0 -1
vn 0 0 -1
vn 0 0 -1
vn 0 0 -1
vn 0 0 -1
vn 0 0 -1
vn 0 0 -1
vn 0 0 -1
vn 0 0 -1
vn 0 0 -1
g SM_Bld_Bank_Door_Bottom_01_Glass_0
f 3/3/3 2/2/2 1/1/1
f 4/4/4 3/3/3 1/1/1
f 4/4/4 1/1/1 5/5/5
f 6/6/6 4/4/4 5/5/5
f 6/6/6 5/5/5 7/7/7
f 8/8/8 6/6/6 7/7/7
f 8/8/8 7/7/7 9/9/9
f 10/10/10 8/8/8 9/9/9
f 10/10/10 9/9/9 11/11/11
f 9/9/9 12/12/12 11/11/11
f 15/15/15 14/14/14 13/13/13
f 14/14/14 16/16/16 13/13/13
f 13/13/13 16/16/16 17/17/17
f 16/16/16 18/18/18 17/17/17
f 17/17/17 18/18/18 19/19/19
f 18/18/18 20/20/20 19/19/19
f 19/19/19 20/20/20 21/21/21
f 20/20/20 22/22/22 21/21/21
f 21/21/21 22/22/22 23/23/23
f 24/24/24 21/21/21 23/23/23
