g SM_Bld_Wall_Exterior_02
v 0 3.734555 0.1338348
v 0 3.212679 0.5008575
v 5 3.734555 0.1338348
v 5 3.212679 0.5008575
v 5 4 0.1338348
v 0 4 0.1338348
v 0 3.734555 0
v 0 3.212679 0
v 0 0.6590561 0
v 0 7.629394E-07 0
v 5 3.734555 0
v 5 3.212679 0
v 5 0.6590561 0
v 5 7.629394E-07 0
v 0 -0.9954407 0
v 5 -0.9954407 0
v 5 4 0
v 0 4 0
v 5 1.178722 0
v 5 1.178722 0.5008575
v 0 1.178722 0.5008575
v 0 1.178722 0
v 4 1.178722 0.5008575
v 3.721985 0.7436734 0.5008575
v 1.278015 0.7436734 0.5008568
v 1 1.178722 0.5008575
v 0 0.6590561 0.620755
v 0 7.629394E-07 0.2537323
v 0 -0.9954407 0.2537323
v 1 1.178722 0.620755
v 0 1.178722 0.620755
v 4 1.178722 0.620755
v 5 1.178722 0.620755
v 5 0.6590561 0.620755
v 5 7.629394E-07 0.2537323
v 5 -0.9954407 0.2537323
v 3.721985 0.7436734 0.620755
v 1.278015 0.7436734 0.6207542
v 0.34823 2.758806 0.5008575
v 1.095102 1.291486 0.5008583
v 0.34823 1.291486 0.5008575
v 3.904898 1.291486 0.5008575
v 4.65177 2.758806 0.5008575
v 4.65177 1.291486 0.5008575
v 3.64451 0.9178015 0.5008575
v 1.35549 0.9178015 0.5008575
v 0.3927917 2.670842 0.3950195
v 1.124197 1.348451 0.3950195
v 0.3927917 1.348451 0.3950195
v 3.875803 1.348451 0.3950195
v 4.607205 2.670842 0.3950195
v 4.607205 1.348451 0.3950195
v 3.620807 1.005766 0.3950195
v 1.379193 1.005766 0.3950195
v 4.382645 2.905084 0.5008575
v 4.343655 2.81712 0.3950195
v 0.6173523 2.905084 0.5008583
v 0.6563416 2.81712 0.3950195
v 0 7.629394E-07 0.2537323
v 5 7.629394E-07 0.2537323
v 0 3.734555 0.1338348
v 5 3.734555 0.1338348
v 0 3.734555 0.1338348
v 0 3.212679 0.5008575
v 0 0.6590561 0.620755
v 0 7.629394E-07 0.2537323
v 5 3.212679 0.5008575
v 5 3.734555 0.1338348
v 0 7.629394E-07 0.2537323
v 0 -0.9954407 0.2537323
v 5 -0.9954407 0.2537323
v 0 -0.9954407 0
v 0 -0.9954407 0.2537323
v 5 4 0.1338348
v 0 4 0.1338348
v 0 4 0.1338348
v 0 4 0
v 5 4 0
v 5 4 0.1338348
v 0 0.6590561 0.620755
v 0 1.178722 0
v 0 1.178722 0
v 0 1.178722 0.5008575
v 0 1.178722 0.620755
v 1 1.178722 0.620755
v 5 1.178722 0.5008575
v 5 1.178722 0
v 5 0.6590561 0.620755
v 5 1.178722 0.620755
v 5 1.178722 0.5008575
v 5 1.178722 0
v 5 7.629394E-07 0.2537323
v 5 -0.9954407 0.2537323
v 5 7.629394E-07 0.2537323
v 5 -0.9954407 0
v 4 1.178722 0.5008575
v 4 1.178722 0.620755
v 1.278015 0.7436734 0.6207542
v 3.721985 0.7436734 0.5008575
v 3.721985 0.7436734 0.620755
v 1 1.178722 0.5008575
v 1.278015 0.7436734 0.5008568
v 1.278015 0.7436734 0.6207542
v 1 1.178722 0.620755
v 0 3.212679 0.5008575
v 1 1.178722 0.5008575
v 0 1.178722 0.5008575
v 5 3.212679 0.5008575
v 5 1.178722 0.5008575
v 4 1.178722 0.5008575
v 3.721985 0.7436734 0.5008575
v 1.278015 0.7436734 0.5008568
v 0.34823 2.758806 0.5008575
v 0.6173523 2.905084 0.5008583
v 1.095102 1.291486 0.5008583
v 0.34823 1.291486 0.5008575
v 0.34823 1.291486 0.5008575
v 0.34823 2.758806 0.5008575
v 0.3927917 2.670842 0.3950195
v 0.3927917 1.348451 0.3950195
v 4.65177 2.758806 0.5008575
v 4.65177 1.291486 0.5008575
v 4.607205 1.348451 0.3950195
v 4.607205 2.670842 0.3950195
v 4.65177 1.291486 0.5008575
v 3.904898 1.291486 0.5008575
v 3.875803 1.348451 0.3950195
v 4.607205 1.348451 0.3950195
v 3.904898 1.291486 0.5008575
v 3.64451 0.9178015 0.5008575
v 3.875803 1.348451 0.3950195
v 1.35549 0.9178015 0.5008575
v 3.620807 1.005766 0.3950195
v 3.64451 0.9178015 0.5008575
v 1.35549 0.9178015 0.5008575
v 1.095102 1.291486 0.5008583
v 1.124197 1.348451 0.3950195
v 1.379193 1.005766 0.3950195
v 1.379193 1.005766 0.3950195
v 1.124197 1.348451 0.3950195
v 3.620807 1.005766 0.3950195
v 3.721985 0.7436734 0.620755
v 5 0.6590561 0.620755
v 0 1.178722 0.620755
v 4 1.178722 0.620755
v 5 1.178722 0.620755
v 0.6563416 2.81712 0.3950195
v 0.3927917 2.670842 0.3950195
v 0.3927917 1.348451 0.3950195
v 4.607205 2.670842 0.3950195
v 4.343655 2.81712 0.3950195
v 4.382645 2.905084 0.5008575
v 4.65177 2.758806 0.5008575
v 4.343655 2.81712 0.3950195
v 0.6563416 2.81712 0.3950195
v 0.6173523 2.905084 0.5008583
v 4.382645 2.905084 0.5008575
v 0 4 0
v 0 3.734555 0
v 5 3.734555 0
v 5 4 0
v 5 3.212679 0
v 0 3.212679 0
v 5 1.178722 0
v 0 1.178722 0
v 0 0.6590561 0
v 5 0.6590561 0
v 5 7.629394E-07 0
v 0 7.629394E-07 0
v 0 -0.9954407 0
v 5 -0.9954407 0
vt 0.2441406 0.3491211
vt 0.2441406 0.3491211
vt 0.2441406 0.3491211
vt 0.2441406 0.3491211
vt 0.2441406 0.3491211
vt 0.2441406 0.3491211
vt 0.2441406 0.3491211
vt 0.2441406 0.3491211
vt 0.3093262 0.3847656
vt 0.3093262 0.3847656
vt 0.2441406 0.3491211
vt 0.2441406 0.3491211
vt 0.3093262 0.3847656
vt 0.3093262 0.3847656
vt 0.3093262 0.3847656
vt 0.3093262 0.3847656
vt 0.2441406 0.3491211
vt 0.2441406 0.3491211
vt 0.2441406 0.3491211
vt 0.2441406 0.3491211
vt 0.2441406 0.3491211
vt 0.2441406 0.3491211
vt 0.307373 0.3815918
vt 0.307373 0.3815918
vt 0.307373 0.3815918
vt 0.307373 0.3815918
vt 0.307373 0.3815918
vt 0.307373 0.3815918
vt 0.307373 0.3815918
vt 0.307373 0.3815918
vt 0.307373 0.3815918
vt 0.307373 0.3815918
vt 0.307373 0.3815918
vt 0.307373 0.3815918
vt 0.307373 0.3815918
vt 0.307373 0.3815918
vt 0.307373 0.3815918
vt 0.307373 0.3815918
vt 0.2441406 0.3491211
vt 0.2441406 0.3491211
vt 0.2441406 0.3491211
vt 0.2441406 0.3491211
vt 0.2441406 0.3491211
vt 0.2441406 0.3491211
vt 0.2441406 0.3491211
vt 0.2441406 0.3491211
vt 0.2348633 0.277832
vt 0.2348633 0.277832
vt 0.2348633 0.277832
vt 0.5791016 0.2978516
vt 0.5410156 0.3710938
vt 0.5410156 0.2978516
vt 0.2348633 0.277832
vt 0.2348633 0.277832
vt 0.2441406 0.3491211
vt 0.5546875 0.3793945
vt 0.2441406 0.3491211
vt 0.2348633 0.277832
vt 0.307373 0.3815918
vt 0.307373 0.3815918
vt 0.2441406 0.3491211
vt 0.2441406 0.3491211
vt 0.2441406 0.3491211
vt 0.2441406 0.3491211
vt 0.307373 0.3815918
vt 0.307373 0.3815918
vt 0.2441406 0.3491211
vt 0.2441406 0.3491211
vt 0.307373 0.3815918
vt 0.307373 0.3815918
vt 0.307373 0.3815918
vt 0.3093262 0.3847656
vt 0.307373 0.3815918
vt 0.2441406 0.3491211
vt 0.2441406 0.3491211
vt 0.2441406 0.3491211
vt 0.2441406 0.3491211
vt 0.2441406 0.3491211
vt 0.2441406 0.3491211
vt 0.307373 0.3815918
vt 0.3093262 0.3847656
vt 0.3093262 0.3847656
vt 0.307373 0.3815918
vt 0.307373 0.3815918
vt 0.307373 0.3815918
vt 0.307373 0.3815918
vt 0.3093262 0.3847656
vt 0.307373 0.3815918
vt 0.307373 0.3815918
vt 0.3093262 0.3847656
vt 0.3093262 0.3847656
vt 0.307373 0.3815918
vt 0.307373 0.3815918
vt 0.307373 0.3815918
vt 0.3093262 0.3847656
vt 0.307373 0.3815918
vt 0.307373 0.3815918
vt 0.307373 0.3815918
vt 0.307373 0.3815918
vt 0.307373 0.3815918
vt 0.307373 0.3815918
vt 0.307373 0.3815918
vt 0.307373 0.3815918
vt 0.307373 0.3815918
vt 0.2441406 0.3491211
vt 0.2441406 0.3491211
vt 0.2441406 0.3491211
vt 0.2441406 0.3491211
vt 0.2441406 0.3491211
vt 0.2441406 0.3491211
vt 0.2441406 0.3491211
vt 0.2441406 0.3491211
vt 0.2348633 0.277832
vt 0.2348633 0.277832
vt 0.2348633 0.277832
vt 0.2348633 0.277832
vt 0.2348633 0.277832
vt 0.2348633 0.277832
vt 0.2348633 0.277832
vt 0.2348633 0.277832
vt 0.2348633 0.277832
vt 0.2348633 0.277832
vt 0.2348633 0.277832
vt 0.2348633 0.277832
vt 0.2348633 0.277832
vt 0.2348633 0.277832
vt 0.2348633 0.277832
vt 0.2348633 0.277832
vt 0.2348633 0.277832
vt 0.2348633 0.277832
vt 0.2348633 0.277832
vt 0.2348633 0.277832
vt 0.2348633 0.277832
vt 0.2348633 0.277832
vt 0.2348633 0.277832
vt 0.2348633 0.277832
vt 0.2348633 0.277832
vt 0.2348633 0.277832
vt 0.7084961 0.2788086
vt 0.7216797 0.2978516
vt 0.5922852 0.2788086
vt 0.307373 0.3815918
vt 0.307373 0.3815918
vt 0.307373 0.3815918
vt 0.307373 0.3815918
vt 0.307373 0.3815918
vt 0.7460938 0.3793945
vt 0.7597656 0.3710938
vt 0.7597656 0.2978516
vt 0.2348633 0.277832
vt 0.2348633 0.277832
vt 0.2348633 0.277832
vt 0.2348633 0.277832
vt 0.2348633 0.277832
vt 0.2348633 0.277832
vt 0.2348633 0.277832
vt 0.2348633 0.277832
vt 0.2349854 0.2536621
vt 0.2349854 0.2536621
vt 0.2349854 0.2536621
vt 0.2349854 0.2536621
vt 0.2349854 0.2536621
vt 0.2349854 0.2536621
vt 0.2349854 0.2536621
vt 0.2349854 0.2536621
vt 0.2349854 0.2536621
vt 0.2349854 0.2536621
vt 0.2349854 0.2536621
vt 0.2349854 0.2536621
vt 0.2349854 0.2536621
vt 0.2349854 0.2536621
vn 0 0.5751953 0.8178711
vn 0 0.5751953 0.8178711
vn 0 0.5751953 0.8178711
vn 0 0.5751953 0.8178711
vn 0 0 1
vn 0 0 1
vn -1 0 0
vn -1 0 0
vn -1 0 0
vn -1 0 0
vn 1 0 0
vn 1 0 0
vn 1 0 0
vn 1 0 0
vn -1 0 0
vn 0 -1 0
vn 1 0 0
vn -1 0 0
vn 1 0 0
vn 1 0 0
vn -1 0 0
vn -1 0 0
vn 0 1 0
vn -0.8427734 0.5385742 0
vn 0 1 0
vn 0 1 0
vn 0 -0.4865723 0.8735352
vn 0 -0.4865723 0.8735352
vn 0 0 1
vn 0 0 1
vn -1 0 0
vn 0 1 0
vn 0 1 0
vn 0 -0.4865723 0.8735352
vn 0 -0.4865723 0.8735352
vn 0 0 1
vn -0.8427734 0.5385742 0
vn 0 0 1
vn 0 0 1
vn 0 0 1
vn 0 0 1
vn 0 0 1
vn 0 0 1
vn 0 0 1
vn 0 0 1
vn 0 0 1
vn 0.3544922 -0.6455078 0.6762695
vn 0 0.8803711 0.473877
vn 0 0.8803711 0.473877
vn 0 0 1
vn 0 0 1
vn 0 0 1
vn -0.6953125 0.5004883 0.5161133
vn 0 0.769043 0.6391602
vn 0 0 1
vn 0 0 1
vn 0 0 1
vn 0.3544922 -0.6455078 0.6762695
vn 0 0 1
vn 0 0 1
vn 0 0 1
vn 0 0 1
vn -1 0 0
vn -1 0 0
vn -1 0 0
vn -1 0 0
vn 1 0 0
vn 1 0 0
vn -1 0 0
vn -1 0 0
vn 0 -1 0
vn 0 -1 0
vn 0 -1 0
vn 1 0 0
vn -1 0 0
vn 0 1 0
vn 0 1 0
vn 0 1 0
vn 0 1 0
vn 0 0 1
vn -1 0 0
vn 0 1 0
vn 0 1 0
vn 0 1 0
vn 0 1 0
vn 0 1 0
vn 1 0 0
vn 1 0 0
vn 1 0 0
vn 0 1 0
vn 0 1 0
vn 1 0 0
vn 1 0 0
vn 1 0 0
vn 1 0 0
vn -0.8427734 0.5385742 0
vn -0.8427734 0.5385742 0
vn 0 1 0
vn 0 1 0
vn 0 1 0
vn 0.8427734 0.5385742 0
vn 0.8427734 0.5385742 0
vn 0.8427734 0.5385742 0
vn 0.8427734 0.5385742 0
vn 0 0 1
vn 0 0 1
vn 0 0 1
vn 0 0 1
vn 0 0 1
vn 0 0 1
vn 0 0 1
vn 0 0 1
vn 0.3544922 -0.6455078 0.6762695
vn 0.3544922 -0.6455078 0.6762695
vn 0 0.8803711 0.473877
vn 0 0.8803711 0.473877
vn 0.921875 0 0.3879395
vn 0.921875 0 0.3879395
vn 0.921875 0 0.3879395
vn 0.921875 0 0.3879395
vn -0.9213867 0 0.3881836
vn -0.9213867 0 0.3881836
vn -0.9213867 0 0.3881836
vn -0.9213867 0 0.3881836
vn 0 0.8803711 0.473877
vn 0 0.8803711 0.473877
vn 0 0.8803711 0.473877
vn 0 0.8803711 0.473877
vn -0.6953125 0.5004883 0.5161133
vn -0.6953125 0.5004883 0.5161133
vn -0.6953125 0.5004883 0.5161133
vn 0 0.769043 0.6391602
vn 0 0.769043 0.6391602
vn 0 0.769043 0.6391602
vn 0.6953125 0.5004883 0.5161133
vn 0.6953125 0.5004883 0.5161133
vn 0.6953125 0.5004883 0.5161133
vn 0.6953125 0.5004883 0.5161133
vn 0 0 1
vn 0 0 1
vn 0 0 1
vn 0 0 1
vn 0 0 1
vn 0 0 1
vn 0 0 1
vn 0 0 1
vn 0 0 1
vn 0 0 1
vn 0 0 1
vn -0.3544922 -0.6455078 0.6762695
vn -0.3544922 -0.6455078 0.6762695
vn -0.3544922 -0.6455078 0.6762695
vn -0.3544922 -0.6455078 0.6762695
vn 0 -0.769043 0.6391602
vn 0 -0.769043 0.6391602
vn 0 -0.769043 0.6391602
vn 0 -0.769043 0.6391602
vn 0 0 -1
vn 0 0 -1
vn 0 0 -1
vn 0 0 -1
vn 0 0 -1
vn 0 0 -1
vn 0 0 -1
vn 0 0 -1
vn 0 0 -1
vn 0 0 -1
vn 0 0 -1
vn 0 0 -1
vn 0 0 -1
vn 0 0 -1
g SM_Bld_Wall_Exterior_02_0
f 91/91/91 90/90/90 33/33/33
f 33/33/33 86/86/86 23/23/23
f 32/32/32 33/33/33 23/23/23
f 3/3/3 1/1/1 2/2/2
f 4/4/4 3/3/3 2/2/2
f 52/52/52 51/51/51 50/50/50
f 50/50/50 51/51/51 56/56/56
f 56/56/56 147/147/147 50/50/50
f 147/147/147 140/140/140 50/50/50
f 147/147/147 148/148/148 140/140/140
f 149/149/149 140/140/140 148/148/148
f 50/50/50 140/140/140 139/139/139
f 141/141/141 50/50/50 139/139/139
f 34/34/34 27/27/27 28/28/28
f 35/35/35 34/34/34 28/28/28
f 60/60/60 59/59/59 29/29/29
f 36/36/36 60/60/60 29/29/29
f 5/5/5 6/6/6 61/61/61
f 62/62/62 5/5/5 61/61/61
f 22/22/22 21/21/21 64/64/64
f 8/8/8 22/22/22 64/64/64
f 8/8/8 64/64/64 63/63/63
f 7/7/7 8/8/8 63/63/63
f 7/7/7 63/63/63 75/75/75
f 18/18/18 7/7/7 75/75/75
f 66/66/66 65/65/65 10/10/10
f 65/65/65 9/9/9 10/10/10
f 9/9/9 65/65/65 31/31/31
f 31/31/31 81/81/81 9/9/9
f 69/69/69 10/10/10 15/15/15
f 70/70/70 69/69/69 15/15/15
f 19/19/19 12/12/12 20/20/20
f 12/12/12 67/67/67 20/20/20
f 12/12/12 11/11/11 67/67/67
f 11/11/11 68/68/68 67/67/67
f 11/11/11 17/17/17 68/68/68
f 17/17/17 74/74/74 68/68/68
f 72/72/72 16/16/16 71/71/71
f 73/73/73 72/72/72 71/71/71
f 78/78/78 77/77/77 76/76/76
f 79/79/79 78/78/78 76/76/76
f 84/84/84 83/83/83 82/82/82
f 84/84/84 85/85/85 83/83/83
f 85/85/85 26/26/26 83/83/83
f 87/87/87 89/89/89 88/88/88
f 88/88/88 13/13/13 87/87/87
f 13/13/13 88/88/88 14/14/14
f 88/88/88 92/92/92 14/14/14
f 14/14/14 94/94/94 93/93/93
f 95/95/95 14/14/14 93/93/93
f 97/97/97 96/96/96 24/24/24
f 37/37/37 97/97/97 24/24/24
f 99/99/99 25/25/25 98/98/98
f 100/100/100 99/99/99 98/98/98
f 103/103/103 102/102/102 101/101/101
f 104/104/104 103/103/103 101/101/101
f 113/113/113 47/47/47 58/58/58
f 114/114/114 113/113/113 58/58/58
f 49/49/49 116/116/116 115/115/115
f 48/48/48 49/49/49 115/115/115
f 119/119/119 118/118/118 117/117/117
f 120/120/120 119/119/119 117/117/117
f 123/123/123 122/122/122 121/121/121
f 124/124/124 123/123/123 121/121/121
f 127/127/127 126/126/126 125/125/125
f 128/128/128 127/127/127 125/125/125
f 53/53/53 130/130/130 129/129/129
f 131/131/131 53/53/53 129/129/129
f 133/133/133 54/54/54 132/132/132
f 134/134/134 133/133/133 132/132/132
f 137/137/137 136/136/136 135/135/135
f 138/138/138 137/137/137 135/135/135
f 144/144/144 80/80/80 30/30/30
f 30/30/30 80/80/80 38/38/38
f 142/142/142 38/38/38 80/80/80
f 143/143/143 142/142/142 80/80/80
f 145/145/145 142/142/142 143/143/143
f 146/146/146 145/145/145 143/143/143
f 152/152/152 151/151/151 150/150/150
f 153/153/153 152/152/152 150/150/150
f 156/156/156 155/155/155 154/154/154
f 157/157/157 156/156/156 154/154/154
f 161/161/161 160/160/160 158/158/158
f 160/160/160 159/159/159 158/158/158
f 159/159/159 160/160/160 162/162/162
f 163/163/163 159/159/159 162/162/162
f 163/163/163 162/162/162 164/164/164
f 165/165/165 163/163/163 164/164/164
f 164/164/164 167/167/167 165/165/165
f 167/167/167 166/166/166 165/165/165
f 166/166/166 167/167/167 168/168/168
f 169/169/169 166/166/166 168/168/168
f 169/169/169 168/168/168 170/170/170
f 168/168/168 171/171/171 170/170/170
f 43/43/43 44/44/44 108/108/108
f 43/43/43 108/108/108 55/55/55
f 55/55/55 108/108/108 57/57/57
f 44/44/44 109/109/109 108/108/108
f 108/108/108 105/105/105 57/57/57
f 44/44/44 42/42/42 109/109/109
f 57/57/57 105/105/105 39/39/39
f 42/42/42 110/110/110 109/109/109
f 39/39/39 105/105/105 107/107/107
f 41/41/41 39/39/39 107/107/107
f 41/41/41 107/107/107 106/106/106
f 40/40/40 41/41/41 106/106/106
f 42/42/42 45/45/45 110/110/110
f 45/45/45 111/111/111 110/110/110
f 40/40/40 106/106/106 112/112/112
f 111/111/111 45/45/45 112/112/112
f 46/46/46 40/40/40 112/112/112
f 45/45/45 46/46/46 112/112/112
