g SM_Bld_Wall_Corner_Pillar_01
v 0.9380775 3 -0.2020043
v 0.4203796 2.462918 -0.2020043
v 0.4203796 0.6590561 -0.2020043
v 0.9380775 0.07790785 -0.2020043
v 0.9380775 3 0.4319382
v 0.4203796 2.462918 0.202005
v 0.4203796 0.6590561 0.202005
v 0.9380775 0.07790785 0.4319382
v 0.9380775 -1.036906 -0.2020043
v 0.9380775 -1.036906 0.4319382
v 0.9380775 4.053973 0.4319382
v 0.9380775 4.053973 -0.2020043
v -0.202005 3 -0.2020043
v -0.202005 2.462918 -0.2020043
v -0.202005 0.6590561 -0.2020043
v -0.202005 0.07790785 -0.2020043
v -0.202005 -1.036906 -0.2020043
v 0.2020042 -1.036906 0.202005
v 0.2020042 4.053973 0.202005
v -0.202005 4.053973 -0.2020043
v 0.4018356 3 0.9380767
v 0.2020042 2.462918 0.4203796
v 0.2020042 0.6590561 0.4203796
v 0.4018356 0.07790785 0.9380767
v -0.202005 3 0.9380767
v -0.202005 2.462918 0.4203796
v -0.202005 0.6590561 0.4203796
v -0.202005 0.07790785 0.9380767
v 0.4018356 -1.036906 0.9380767
v -0.202005 -1.036906 0.9380767
v -0.202005 4.053973 0.9380767
v 0.4018356 4.053973 0.9380767
v -0.202005 3.114019 -0.2020043
v 0.9380775 3.114019 -0.2020043
v 0.9380775 3.114019 0.4319382
v 0.4018356 3.114019 0.9380767
v -0.202005 3.114019 0.9380767
v 0.9961357 3.160854 -0.2020043
v 0.9870323 3.160854 0.4530487
v 0.9961357 4.053973 -0.2020043
v 0.9870323 4.053973 0.4530487
v 0.4217613 3.160854 0.9882156
v 0.4217613 4.053973 0.9882156
v -0.202005 3.160854 0.9961334
v -0.202005 4.053973 0.9961334
v -0.202005 0.7424892 -0.2020043
v -0.202005 0.7424892 0.4203796
v 0.2020042 0.7424892 0.4203796
v 0.4203796 0.7424892 0.202005
v 0.4203796 0.7424892 -0.2020043
v -0.202005 2.389709 -0.2020043
v -0.202005 2.389709 0.4203796
v 0.2020042 2.389709 0.4203796
v 0.4203804 2.389709 0.202005
v 0.4203804 2.389709 -0.2020043
v -0.09803238 2.318693 0.5007401
v 0.2304161 2.318693 0.4889717
v -0.09803238 0.8156982 0.5007401
v 0.2304161 0.8156982 0.4889717
v 0.4889725 2.318693 0.2304169
v 0.4889717 0.8156982 0.2304169
v 0.5007408 2.318693 -0.1077362
v 0.5007401 0.8156982 -0.1077362
v 0.4203796 2.462918 -0.2020043
v 0.4203796 2.462918 0.202005
v 0.9380775 0.07790785 -0.2020043
v 0.9380775 0.07790785 0.4319382
v 0.9380775 3 0.4319382
v 0.9380775 3 -0.2020043
v 0.9380775 3 -0.2020043
v 0.4203796 2.462918 -0.2020043
v 0.4203796 2.462918 -0.2020043
v -0.202005 2.462918 -0.2020043
v 0.4203804 2.389709 -0.2020043
v 0.4203796 0.6590561 -0.2020043
v 0.9380775 0.07790785 -0.2020043
v 0.9380775 -1.036906 -0.2020043
v 0.9380775 -1.036906 -0.2020043
v -0.202005 -1.036906 -0.2020043
v 0.9380775 -1.036906 0.4319382
v 0.9380775 3.114019 -0.2020043
v 0.2020042 2.462918 0.4203796
v -0.202005 2.462918 0.4203796
v 0.4018356 0.07790785 0.9380767
v -0.202005 0.07790785 0.9380767
v -0.202005 3 0.9380767
v 0.4018356 3 0.9380767
v -0.202005 2.462918 0.4203796
v -0.202005 2.462918 -0.2020043
v -0.202005 3 -0.2020043
v -0.202005 3 0.9380767
v -0.202005 2.389709 0.4203796
v -0.202005 2.389709 -0.2020043
v -0.202005 2.462918 -0.2020043
v -0.202005 2.462918 0.4203796
v -0.202005 0.07790785 0.9380767
v -0.202005 0.07790785 -0.2020043
v -0.202005 0.6590561 -0.2020043
v -0.202005 0.6590561 0.4203796
v -0.202005 -1.036906 0.9380767
v -0.202005 -1.036906 -0.2020043
v 0.4018356 -1.036906 0.9380767
v -0.202005 -1.036906 0.9380767
v -0.202005 3.114019 -0.2020043
v -0.202005 3.114019 0.9380767
v 0.4018356 3.114019 0.9380767
v 0.9380775 3.114019 0.4319382
v 0.9380775 3 0.4319382
v 0.4018356 3 0.9380767
v 0.4203796 2.462918 0.202005
v 0.2020042 2.462918 0.4203796
v 0.4018356 3 0.9380767
v 0.9380775 3 0.4319382
v 0.2020042 2.462918 0.4203796
v 0.4203796 2.462918 0.202005
v 0.4203804 2.389709 0.202005
v 0.2020042 2.389709 0.4203796
v 0.9380775 0.07790785 0.4319382
v 0.4018356 0.07790785 0.9380767
v 0.2020042 0.6590561 0.4203796
v 0.4203796 0.6590561 0.202005
v 0.4018356 0.07790785 0.9380767
v 0.9380775 0.07790785 0.4319382
v 0.9380775 -1.036906 0.4319382
v 0.4018356 -1.036906 0.9380767
v 0.9380775 4.053973 -0.2020043
v -0.202005 4.053973 -0.2020043
v -0.202005 3.114019 -0.2020043
v 0.9380775 3.114019 -0.2020043
v 0.9870323 4.053973 0.4530487
v 0.9870323 3.160854 0.4530487
v 0.4217613 4.053973 0.9882156
v 0.4217613 3.160854 0.9882156
v -0.202005 3.114019 -0.2020043
v -0.202005 4.053973 -0.2020043
v -0.202005 4.053973 0.9380767
v -0.202005 3.114019 0.9380767
v 0.9380775 3.114019 0.4319382
v 0.9870323 3.160854 0.4530487
v 0.9961357 3.160854 -0.2020043
v 0.9380775 3.114019 -0.2020043
v 0.9961357 3.160854 -0.2020043
v 0.9961357 4.053973 -0.2020043
v 0.9961357 4.053973 -0.2020043
v 0.9870323 4.053973 0.4530487
v 0.4018356 3.114019 0.9380767
v 0.4217613 3.160854 0.9882156
v 0.9870323 3.160854 0.4530487
v 0.9380775 3.114019 0.4319382
v 0.4217613 4.053973 0.9882156
v -0.202005 3.114019 0.9380767
v -0.202005 3.160854 0.9961334
v 0.4217613 3.160854 0.9882156
v 0.4018356 3.114019 0.9380767
v -0.202005 4.053973 0.9961334
v -0.202005 4.053973 0.9961334
v -0.202005 3.160854 0.9961334
v -0.202005 0.6590561 0.4203796
v -0.202005 0.6590561 -0.2020043
v 0.2020042 0.6590561 0.4203796
v -0.202005 0.6590561 0.4203796
v -0.202005 0.7424892 0.4203796
v 0.4203796 0.6590561 0.202005
v 0.2020042 0.6590561 0.4203796
v 0.2020042 0.7424892 0.4203796
v 0.4203796 0.6590561 -0.2020043
v 0.4203796 0.6590561 0.202005
v 0.4203796 0.7424892 0.202005
v -0.202005 0.7424892 -0.2020043
v -0.202005 0.6590561 -0.2020043
v 0.4203796 0.6590561 -0.2020043
v 0.4203796 0.7424892 -0.2020043
v -0.202005 0.7424892 0.4203796
v -0.202005 0.7424892 -0.2020043
v -0.202005 2.389709 -0.2020043
v -0.202005 2.389709 0.4203796
v 0.2304161 0.8156982 0.4889717
v 0.2304161 2.318693 0.4889717
v 0.4889717 0.8156982 0.2304169
v 0.4889725 2.318693 0.2304169
v -0.202005 2.389709 -0.2020043
v -0.202005 0.7424892 -0.2020043
v 0.4203796 0.7424892 -0.2020043
v 0.4203804 2.389709 -0.2020043
v 0.2020042 2.389709 0.4203796
v 0.2304161 2.318693 0.4889717
v -0.09803238 2.318693 0.5007401
v -0.202005 2.389709 0.4203796
v -0.202005 2.389709 0.4203796
v -0.09803238 2.318693 0.5007401
v -0.09803238 0.8156982 0.5007401
v -0.202005 0.7424892 0.4203796
v -0.202005 0.7424892 0.4203796
v -0.09803238 0.8156982 0.5007401
v 0.2304161 0.8156982 0.4889717
v 0.2020042 0.7424892 0.4203796
v 0.4203804 2.389709 0.202005
v 0.4889725 2.318693 0.2304169
v 0.2304161 2.318693 0.4889717
v 0.2020042 2.389709 0.4203796
v 0.2020042 0.7424892 0.4203796
v 0.2304161 0.8156982 0.4889717
v 0.4889717 0.8156982 0.2304169
v 0.4203796 0.7424892 0.202005
v 0.4203804 2.389709 -0.2020043
v 0.5007408 2.318693 -0.1077362
v 0.4889725 2.318693 0.2304169
v 0.4203804 2.389709 0.202005
v 0.4203796 0.7424892 0.202005
v 0.4889717 0.8156982 0.2304169
v 0.5007401 0.8156982 -0.1077362
v 0.4203796 0.7424892 -0.2020043
v 0.4203796 0.7424892 -0.2020043
v 0.5007401 0.8156982 -0.1077362
v 0.5007408 2.318693 -0.1077362
v 0.4203804 2.389709 -0.2020043
vt 0.2446289 0.3046875
vt 0.2446289 0.3046875
vt 0.2456055 0.3000488
vt 0.2456055 0.3000488
vt 0.2446289 0.3046875
vt 0.2446289 0.3046875
vt 0.2456055 0.3000488
vt 0.2456055 0.3000488
vt 0.2456055 0.3000488
vt 0.2456055 0.3000488
vt 0.2436523 0.3798828
vt 0.2436523 0.3798828
vt 0.2446289 0.3046875
vt 0.2446289 0.3046875
vt 0.2456055 0.3000488
vt 0.2456055 0.3000488
vt 0.2456055 0.3000488
vt 0.2456055 0.3000488
vt 0.2436523 0.3798828
vt 0.2436523 0.3798828
vt 0.2446289 0.3046875
vt 0.2446289 0.3046875
vt 0.2456055 0.3000488
vt 0.2456055 0.3000488
vt 0.2446289 0.3046875
vt 0.2446289 0.3046875
vt 0.2456055 0.3000488
vt 0.2456055 0.3000488
vt 0.2456055 0.3000488
vt 0.2456055 0.3000488
vt 0.2436523 0.3798828
vt 0.2436523 0.3798828
vt 0.2446289 0.3046875
vt 0.2446289 0.3046875
vt 0.2446289 0.3046875
vt 0.2446289 0.3046875
vt 0.2446289 0.3046875
vt 0.2436523 0.3798828
vt 0.2436523 0.3798828
vt 0.2436523 0.3798828
vt 0.2436523 0.3798828
vt 0.2436523 0.3798828
vt 0.2436523 0.3798828
vt 0.2436523 0.3798828
vt 0.2436523 0.3798828
vt 0.2333984 0.2512207
vt 0.2333984 0.2512207
vt 0.2333984 0.2512207
vt 0.2333984 0.2512207
vt 0.2333984 0.2512207
vt 0.2333984 0.2512207
vt 0.2333984 0.2512207
vt 0.2333984 0.2512207
vt 0.2333984 0.2512207
vt 0.2333984 0.2512207
vt 0.2436523 0.3798828
vt 0.2436523 0.3798828
vt 0.2436523 0.3798828
vt 0.2436523 0.3798828
vt 0.2436523 0.3798828
vt 0.2436523 0.3798828
vt 0.2436523 0.3798828
vt 0.2436523 0.3798828
vt 0.2333984 0.2512207
vt 0.2333984 0.2512207
vt 0.2456055 0.3000488
vt 0.2456055 0.3000488
vt 0.2446289 0.3046875
vt 0.2446289 0.3046875
vt 0.2446289 0.3046875
vt 0.2446289 0.3046875
vt 0.2333984 0.2512207
vt 0.2333984 0.2512207
vt 0.2333984 0.2512207
vt 0.2456055 0.3000488
vt 0.2456055 0.3000488
vt 0.2456055 0.3000488
vt 0.2456055 0.3000488
vt 0.2456055 0.3000488
vt 0.2456055 0.3000488
vt 0.2446289 0.3046875
vt 0.2333984 0.2512207
vt 0.2333984 0.2512207
vt 0.2456055 0.3000488
vt 0.2456055 0.3000488
vt 0.2446289 0.3046875
vt 0.2446289 0.3046875
vt 0.2446289 0.3046875
vt 0.2446289 0.3046875
vt 0.2446289 0.3046875
vt 0.2446289 0.3046875
vt 0.2333984 0.2512207
vt 0.2333984 0.2512207
vt 0.2333984 0.2512207
vt 0.2333984 0.2512207
vt 0.2456055 0.3000488
vt 0.2456055 0.3000488
vt 0.2456055 0.3000488
vt 0.2456055 0.3000488
vt 0.2456055 0.3000488
vt 0.2456055 0.3000488
vt 0.2456055 0.3000488
vt 0.2456055 0.3000488
vt 0.2446289 0.3046875
vt 0.2446289 0.3046875
vt 0.2446289 0.3046875
vt 0.2446289 0.3046875
vt 0.2446289 0.3046875
vt 0.2446289 0.3046875
vt 0.2446289 0.3046875
vt 0.2446289 0.3046875
vt 0.2446289 0.3046875
vt 0.2446289 0.3046875
vt 0.2333984 0.2512207
vt 0.2333984 0.2512207
vt 0.2333984 0.2512207
vt 0.2333984 0.2512207
vt 0.2456055 0.3000488
vt 0.2456055 0.3000488
vt 0.2456055 0.3000488
vt 0.2456055 0.3000488
vt 0.2456055 0.3000488
vt 0.2456055 0.3000488
vt 0.2456055 0.3000488
vt 0.2456055 0.3000488
vt 0.2436523 0.3798828
vt 0.2436523 0.3798828
vt 0.2436523 0.3798828
vt 0.2436523 0.3798828
vt 0.2436523 0.3798828
vt 0.2436523 0.3798828
vt 0.2436523 0.3798828
vt 0.2436523 0.3798828
vt 0.2436523 0.3798828
vt 0.2436523 0.3798828
vt 0.2436523 0.3798828
vt 0.2436523 0.3798828
vt 0.2436523 0.3798828
vt 0.2436523 0.3798828
vt 0.2436523 0.3798828
vt 0.2436523 0.3798828
vt 0.2436523 0.3798828
vt 0.2436523 0.3798828
vt 0.2436523 0.3798828
vt 0.2436523 0.3798828
vt 0.2436523 0.3798828
vt 0.2436523 0.3798828
vt 0.2436523 0.3798828
vt 0.2436523 0.3798828
vt 0.2436523 0.3798828
vt 0.2436523 0.3798828
vt 0.2436523 0.3798828
vt 0.2436523 0.3798828
vt 0.2436523 0.3798828
vt 0.2436523 0.3798828
vt 0.2436523 0.3798828
vt 0.2436523 0.3798828
vt 0.2333984 0.2512207
vt 0.2333984 0.2512207
vt 0.2333984 0.2512207
vt 0.2333984 0.2512207
vt 0.2333984 0.2512207
vt 0.2333984 0.2512207
vt 0.2333984 0.2512207
vt 0.2333984 0.2512207
vt 0.2333984 0.2512207
vt 0.2333984 0.2512207
vt 0.2333984 0.2512207
vt 0.2333984 0.2512207
vt 0.2333984 0.2512207
vt 0.2333984 0.2512207
vt 0.2333984 0.2512207
vt 0.2436523 0.3798828
vt 0.2436523 0.3798828
vt 0.2436523 0.3798828
vt 0.2436523 0.3798828
vt 0.2436523 0.3798828
vt 0.2436523 0.3798828
vt 0.2436523 0.3798828
vt 0.2436523 0.3798828
vt 0.2436523 0.3798828
vt 0.2436523 0.3798828
vt 0.2436523 0.3798828
vt 0.2436523 0.3798828
vt 0.2436523 0.3798828
vt 0.2436523 0.3798828
vt 0.2436523 0.3798828
vt 0.2436523 0.3798828
vt 0.2436523 0.3798828
vt 0.2436523 0.3798828
vt 0.2436523 0.3798828
vt 0.2436523 0.3798828
vt 0.2436523 0.3798828
vt 0.2436523 0.3798828
vt 0.2436523 0.3798828
vt 0.2436523 0.3798828
vt 0.2436523 0.3798828
vt 0.2436523 0.3798828
vt 0.2436523 0.3798828
vt 0.2436523 0.3798828
vt 0.2436523 0.3798828
vt 0.2436523 0.3798828
vt 0.2436523 0.3798828
vt 0.2436523 0.3798828
vt 0.2436523 0.3798828
vt 0.2436523 0.3798828
vt 0.2436523 0.3798828
vt 0.2436523 0.3798828
vt 0.2436523 0.3798828
vt 0.2436523 0.3798828
vt 0.2436523 0.3798828
vt 0.2436523 0.3798828
vt 0.2436523 0.3798828
vt 0.2436523 0.3798828
vt 0.2436523 0.3798828
vt 0.2436523 0.3798828
vn 0.7202148 -0.6938477 0
vn 0.7202148 -0.6938477 0
vn 0.746582 0.6650391 0
vn 0.746582 0.6650391 0
vn 0.7202148 -0.6938477 0
vn 0.7202148 -0.6938477 0
vn 0.746582 0.6650391 0
vn 0.746582 0.6650391 0
vn 1 0 0
vn 1 0 0
vn 0 1 0
vn 0 1 0
vn 0 0 -1
vn 0 0 -1
vn 0 0 -1
vn 0 0 -1
vn 0 0 -1
vn 0 -1 0
vn 0 1 0
vn 0 1 0
vn 0 -0.6938477 0.7202148
vn 0 -0.6938477 0.7202148
vn 0 0.6650391 0.746582
vn 0 0.6650391 0.746582
vn 0 -0.6938477 0.7202148
vn 0 -0.6938477 0.7202148
vn 0 0.6650391 0.746582
vn 0 0.6650391 0.746582
vn 0 0 1
vn 0 0 1
vn 0 1 0
vn 0 1 0
vn 0 0 -1
vn 1 0 0
vn 1 0 0
vn 0 0 1
vn 0 0 1
vn 1 0 0.01389313
vn 1 0 0.01389313
vn 1 0 0.01389313
vn 1 0 0.01389313
vn 0.6875 0 0.7260742
vn 0.6875 0 0.7260742
vn 0.01269531 0 1
vn 0.01269531 0 1
vn -1 0 0
vn -1 0 0
vn 0 0 1
vn 0.7070313 0 0.7070313
vn 1 0 0
vn 0 0 -1
vn 0 0 1
vn 0 0 1
vn 1 1.043081E-05 0
vn 1 1.043081E-05 0
vn 0.03579712 0 0.9995117
vn 0.03579712 0 0.9995117
vn 0.03579712 0 0.9995117
vn 0.03579712 0 0.9995117
vn 0.7070313 0 0.7070313
vn 0.7070313 0 0.7070313
vn 0.9995117 0 0.03479004
vn 0.9995117 0 0.03479004
vn 1 1.043081E-05 0
vn 1 1.043081E-05 0
vn 1 0 0
vn 1 0 0
vn 1 0 0
vn 1 0 0
vn 0 0 -1
vn 0 0 -1
vn 0 0 -1
vn 0 0 -1
vn 0 0 -1
vn 0 0 -1
vn 0 0 -1
vn 0 0 -1
vn 0 -1 0
vn 0 -1 0
vn 0 -1 0
vn 0 0 -1
vn 0 0 1
vn 0 0 1
vn 0 0 1
vn 0 0 1
vn 0 0 1
vn 0 0 1
vn -1 0 0
vn -1 0 0
vn -1 0 0
vn -1 0 0
vn -1 0 0
vn -1 0 0
vn -1 0 0
vn -1 0 0
vn -1 0 0
vn -1 0 0
vn -1 0 0
vn -1 0 0
vn -1 0 0
vn -1 0 0
vn 0 -1 0
vn 0 -1 0
vn -1 0 0
vn -1 0 0
vn 0.6865234 0 0.7270508
vn 0.6865234 0 0.7270508
vn 0.6865234 0 0.7270508
vn 0.6865234 0 0.7270508
vn 0.4985352 -0.6943359 0.519043
vn 0.4985352 -0.6943359 0.519043
vn 0.4985352 -0.6943359 0.519043
vn 0.4985352 -0.6943359 0.519043
vn 0.7070313 0 0.7070313
vn 0.7070313 0 0.7070313
vn 0.7070313 0 0.7070313
vn 0.7070313 0 0.7070313
vn 0.5170898 0.6655273 0.5385742
vn 0.5170898 0.6655273 0.5385742
vn 0.5170898 0.6655273 0.5385742
vn 0.5170898 0.6655273 0.5385742
vn 0.6865234 0 0.7270508
vn 0.6865234 0 0.7270508
vn 0.6865234 0 0.7270508
vn 0.6865234 0 0.7270508
vn 0 0 -1
vn 0 0 -1
vn 0 0 -1
vn 0 0 -1
vn 0.6875 0 0.7260742
vn 0.6875 0 0.7260742
vn 0.01269531 0 1
vn 0.01269531 0 1
vn -1 0 0
vn -1 0 0
vn -1 0 0
vn -1 0 0
vn 0.6582031 -0.7529297 0.004646301
vn 0.6582031 -0.7529297 0.004646301
vn 0.6582031 -0.7529297 0.004646301
vn 0.6582031 -0.7529297 0.004646301
vn 0 0 -1
vn 0 0 -1
vn 0 1 0
vn 0 1 0
vn 0.4719238 -0.7265625 0.4992676
vn 0.4719238 -0.7265625 0.4992676
vn 0.4719238 -0.7265625 0.4992676
vn 0.4719238 -0.7265625 0.4992676
vn 0 1 0
vn 0.004219055 -0.7563477 0.6542969
vn 0.004219055 -0.7563477 0.6542969
vn 0.004219055 -0.7563477 0.6542969
vn 0.004219055 -0.7563477 0.6542969
vn 0 1 0
vn -1 0 0
vn -1 0 0
vn -1 0 0
vn -1 0 0
vn 0 0 1
vn 0 0 1
vn 0 0 1
vn 0.7070313 0 0.7070313
vn 0.7070313 0 0.7070313
vn 0.7070313 0 0.7070313
vn 1 0 0
vn 1 0 0
vn 1 0 0
vn 0 0 -1
vn 0 0 -1
vn 0 0 -1
vn 0 0 -1
vn -1 0 0
vn -1 0 0
vn -1 0 0
vn -1 0 0
vn 0.7070313 0 0.7070313
vn 0.7070313 0 0.7070313
vn 0.9995117 0 0.03479004
vn 0.9995117 0 0.03479004
vn 0 0 -1
vn 0 0 -1
vn 0 0 -1
vn 0 0 -1
vn 0.01100159 0.7285156 0.6850586
vn 0.01100159 0.7285156 0.6850586
vn 0.01100159 0.7285156 0.6850586
vn 0.01100159 0.7285156 0.6850586
vn -0.6113281 0 0.7910156
vn -0.6113281 0 0.7910156
vn -0.6113281 0 0.7910156
vn -0.6113281 0 0.7910156
vn 0.01118469 -0.7182617 0.6958008
vn 0.01118469 -0.7182617 0.6958008
vn 0.01118469 -0.7182617 0.6958008
vn 0.01118469 -0.7182617 0.6958008
vn 0.5087891 0.6948242 0.5087891
vn 0.5087891 0.6948242 0.5087891
vn 0.5087891 0.6948242 0.5087891
vn 0.5087891 0.6948242 0.5087891
vn 0.5161133 -0.6835938 0.5161133
vn 0.5161133 -0.6835938 0.5161133
vn 0.5161133 -0.6835938 0.5161133
vn 0.5161133 -0.6835938 0.5161133
vn 0.6855469 0.7280273 0.01086426
vn 0.6855469 0.7280273 0.01086426
vn 0.6855469 0.7280273 0.01086426
vn 0.6855469 0.7280273 0.01086426
vn 0.6962891 -0.7177734 0.01103973
vn 0.6962891 -0.7177734 0.01103973
vn 0.6962891 -0.7177734 0.01103973
vn 0.6962891 -0.7177734 0.01103973
vn 0.7612305 0 -0.6489258
vn 0.7612305 0 -0.6489258
vn 0.7612305 0 -0.6489258
vn 0.7612305 0 -0.6489258
g SM_Bld_Wall_Corner_Pillar_01_0
f 6/6/6 2/2/2 1/1/1
f 5/5/5 6/6/6 1/1/1
f 54/54/54 55/55/55 64/64/64
f 65/65/65 54/54/54 64/64/64
f 8/8/8 4/4/4 3/3/3
f 7/7/7 8/8/8 3/3/3
f 10/10/10 9/9/9 66/66/66
f 67/67/67 10/10/10 66/66/66
f 34/34/34 35/35/35 68/68/68
f 69/69/69 34/34/34 68/68/68
f 71/71/71 14/14/14 70/70/70
f 14/14/14 13/13/13 70/70/70
f 70/70/70 13/13/13 81/81/81
f 13/13/13 33/33/33 81/81/81
f 51/51/51 73/73/73 72/72/72
f 74/74/74 51/51/51 72/72/72
f 16/16/16 15/15/15 75/75/75
f 76/76/76 16/16/16 75/75/75
f 17/17/17 16/16/16 76/76/76
f 77/77/77 17/17/17 76/76/76
f 26/26/26 22/22/22 21/21/21
f 25/25/25 26/26/26 21/21/21
f 52/52/52 53/53/53 82/82/82
f 83/83/83 52/52/52 82/82/82
f 28/28/28 24/24/24 23/23/23
f 27/27/27 28/28/28 23/23/23
f 30/30/30 29/29/29 84/84/84
f 85/85/85 30/30/30 84/84/84
f 36/36/36 37/37/37 86/86/86
f 87/87/87 36/36/36 86/86/86
f 90/90/90 89/89/89 88/88/88
f 91/91/91 90/90/90 88/88/88
f 104/104/104 90/90/90 91/91/91
f 105/105/105 104/104/104 91/91/91
f 94/94/94 93/93/93 92/92/92
f 95/95/95 94/94/94 92/92/92
f 99/99/99 98/98/98 96/96/96
f 98/98/98 97/97/97 96/96/96
f 96/96/96 97/97/97 100/100/100
f 97/97/97 101/101/101 100/100/100
f 103/103/103 79/79/79 102/102/102
f 79/79/79 18/18/18 102/102/102
f 80/80/80 102/102/102 18/18/18
f 18/18/18 79/79/79 78/78/78
f 80/80/80 18/18/18 78/78/78
f 108/108/108 107/107/107 106/106/106
f 109/109/109 108/108/108 106/106/106
f 112/112/112 111/111/111 110/110/110
f 113/113/113 112/112/112 110/110/110
f 116/116/116 115/115/115 114/114/114
f 117/117/117 116/116/116 114/114/114
f 120/120/120 119/119/119 118/118/118
f 121/121/121 120/120/120 118/118/118
f 124/124/124 123/123/123 122/122/122
f 125/125/125 124/124/124 122/122/122
f 128/128/128 127/127/127 126/126/126
f 129/129/129 128/128/128 126/126/126
f 126/126/126 143/143/143 129/129/129
f 143/143/143 142/142/142 129/129/129
f 40/40/40 41/41/41 39/39/39
f 38/38/38 40/40/40 39/39/39
f 131/131/131 130/130/130 43/43/43
f 42/42/42 131/131/131 43/43/43
f 132/132/132 45/45/45 44/44/44
f 133/133/133 132/132/132 44/44/44
f 136/136/136 135/135/135 134/134/134
f 137/137/137 136/136/136 134/134/134
f 137/137/137 157/157/157 136/136/136
f 157/157/157 156/156/156 136/136/136
f 140/140/140 139/139/139 138/138/138
f 141/141/141 140/140/140 138/138/138
f 145/145/145 144/144/144 12/12/12
f 11/11/11 145/145/145 12/12/12
f 12/12/12 20/20/20 11/11/11
f 150/150/150 145/145/145 11/11/11
f 20/20/20 19/19/19 11/11/11
f 19/19/19 20/20/20 31/31/31
f 32/32/32 150/150/150 11/11/11
f 11/11/11 19/19/19 32/32/32
f 32/32/32 19/19/19 31/31/31
f 155/155/155 150/150/150 32/32/32
f 31/31/31 155/155/155 32/32/32
f 148/148/148 147/147/147 146/146/146
f 149/149/149 148/148/148 146/146/146
f 153/153/153 152/152/152 151/151/151
f 154/154/154 153/153/153 151/151/151
f 46/46/46 159/159/159 158/158/158
f 47/47/47 46/46/46 158/158/158
f 161/161/161 160/160/160 48/48/48
f 162/162/162 161/161/161 48/48/48
f 164/164/164 163/163/163 49/49/49
f 165/165/165 164/164/164 49/49/49
f 167/167/167 166/166/166 50/50/50
f 168/168/168 167/167/167 50/50/50
f 171/171/171 170/170/170 169/169/169
f 172/172/172 171/171/171 169/169/169
f 175/175/175 174/174/174 173/173/173
f 176/176/176 175/175/175 173/173/173
f 58/58/58 59/59/59 57/57/57
f 56/56/56 58/58/58 57/57/57
f 177/177/177 61/61/61 60/60/60
f 178/178/178 177/177/177 60/60/60
f 179/179/179 63/63/63 62/62/62
f 180/180/180 179/179/179 62/62/62
f 183/183/183 182/182/182 181/181/181
f 184/184/184 183/183/183 181/181/181
f 187/187/187 186/186/186 185/185/185
f 188/188/188 187/187/187 185/185/185
f 191/191/191 190/190/190 189/189/189
f 192/192/192 191/191/191 189/189/189
f 195/195/195 194/194/194 193/193/193
f 196/196/196 195/195/195 193/193/193
f 199/199/199 198/198/198 197/197/197
f 200/200/200 199/199/199 197/197/197
f 203/203/203 202/202/202 201/201/201
f 204/204/204 203/203/203 201/201/201
f 207/207/207 206/206/206 205/205/205
f 208/208/208 207/207/207 205/205/205
f 211/211/211 210/210/210 209/209/209
f 212/212/212 211/211/211 209/209/209
f 215/215/215 214/214/214 213/213/213
f 216/216/216 215/215/215 213/213/213
