g SM_Conveyerbelt_Streachable
v 0.5458575 4.414014 -0.2176282
v 0 4.414014 -0.2176282
v 0 0 -0.2176282
v 0.5458575 0 -0.2176282
v 0 4.414014 -0.2176282
v 0 4.414014 0
v 0 0 0
v 0 0 -0.2176282
v 0 4.414014 0
v 0.5458575 4.414014 0
v 0.5458575 0 0
v 0 0 0
v 0.5458575 4.414014 0
v 0.5458575 4.414014 -0.2176282
v 0.5458575 0 -0.2176282
v 0.5458575 0 0
v 0.5458575 4.414014 -2.490078
v 0.5458575 0 -2.490078
v 0 0 -2.490078
v 0 4.414014 -2.490078
v 0 4.414014 -2.490078
v 0 0 -2.490078
v 0 0 -2.707706
v 0 4.414014 -2.707706
v 0 4.414014 -2.707706
v 0 0 -2.707706
v 0.5458575 0 -2.707706
v 0.5458575 4.414014 -2.707706
v 0.5458575 4.414014 -2.707706
v 0.5458575 0 -2.707706
v 0.5458575 0 -2.490078
v 0.5458575 4.414014 -2.490078
vt 0.9472656 0.7226563
vt 0.9472656 0.6855469
vt 0.6455078 0.6855469
vt 0.6455078 0.7226563
vt 0.9472656 0.7900391
vt 0.9472656 0.7749023
vt 0.6455078 0.7749023
vt 0.6455078 0.7900391
vt 0.9472656 0.7749023
vt 0.9472656 0.737793
vt 0.6455078 0.737793
vt 0.6455078 0.7749023
vt 0.9472656 0.737793
vt 0.9472656 0.7226563
vt 0.6455078 0.7226563
vt 0.6455078 0.737793
vt 0.6191406 0.7202148
vt 0.317627 0.7202148
vt 0.317627 0.6831055
vt 0.6191406 0.6831055
vt 0.6191406 0.7875977
vt 0.317627 0.7875977
vt 0.317627 0.7724609
vt 0.6191406 0.7724609
vt 0.6191406 0.7724609
vt 0.317627 0.7724609
vt 0.317627 0.7353516
vt 0.6191406 0.7353516
vt 0.6191406 0.7353516
vt 0.317627 0.7353516
vt 0.317627 0.7202148
vt 0.6191406 0.7202148
vn 0 0 -1
vn 0 0 -1
vn 0 0 -1
vn 0 0 -1
vn -1 0 0
vn -1 0 0
vn -1 0 0
vn -1 0 0
vn 0 0 1
vn 0 0 1
vn 0 0 1
vn 0 0 1
vn 1 0 0
vn 1 0 0
vn 1 0 0
vn 1 0 0
vn 0 0 1
vn 0 0 1
vn 0 0 1
vn 0 0 1
vn -1 0 0
vn -1 0 0
vn -1 0 0
vn -1 0 0
vn 0 0 -1
vn 0 0 -1
vn 0 0 -1
vn 0 0 -1
vn 1 0 0
vn 1 0 0
vn 1 0 0
vn 1 0 0
g SM_Conveyerbelt_Streachable_0
f 3/3/3 2/2/2 1/1/1
f 4/4/4 3/3/3 1/1/1
f 7/7/7 6/6/6 5/5/5
f 8/8/8 7/7/7 5/5/5
f 11/11/11 10/10/10 9/9/9
f 12/12/12 11/11/11 9/9/9
f 15/15/15 14/14/14 13/13/13
f 16/16/16 15/15/15 13/13/13
f 19/19/19 18/18/18 17/17/17
f 20/20/20 19/19/19 17/17/17
f 23/23/23 22/22/22 21/21/21
f 24/24/24 23/23/23 21/21/21
f 27/27/27 26/26/26 25/25/25
f 28/28/28 27/27/27 25/25/25
f 31/31/31 30/30/30 29/29/29
f 32/32/32 31/31/31 29/29/29
