g SM_Chr_Attach_SpaceHelmet_Glass_01
v -0.1066969 -0.09711991 0.09738572
v -0.1306828 -0.0466272 0.1073134
v -0.07543793 -0.03595138 0.1763964
v -0.06158966 -0.08840317 0.1537917
v -0.06158966 -0.08840317 0.1537917
v -0.07543793 -0.03595138 0.1763964
v 2.792358E-05 -0.03204392 0.2016825
v 2.792358E-05 -0.08521255 0.1744378
v 2.792358E-05 -0.08521255 0.1744378
v 2.792358E-05 -0.03204392 0.2016825
v 0.07549378 -0.03595138 0.1763964
v 0.06164536 -0.08840317 0.1537917
v 0.06164536 -0.08840317 0.1537917
v 0.07549378 -0.03595138 0.1763964
v 0.1307385 -0.0466272 0.1073134
v 0.1067526 -0.09711991 0.09738572
v -0.1306828 -0.0466272 0.1073134
v -0.145761 0.01073868 0.1095943
v -0.08414321 0.02264587 0.1866463
v -0.07543793 -0.03595138 0.1763964
v -0.07543793 -0.03595138 0.1763964
v -0.08414321 0.02264587 0.1866463
v 2.792358E-05 0.02700424 0.2148494
v 2.792358E-05 -0.03204392 0.2016825
v 2.792358E-05 -0.03204392 0.2016825
v 2.792358E-05 0.02700424 0.2148494
v 0.08419906 0.02264587 0.1866463
v 0.07549378 -0.03595138 0.1763964
v 0.07549378 -0.03595138 0.1763964
v 0.08419906 0.02264587 0.1866463
v 0.1458167 0.01073868 0.1095943
v 0.1307385 -0.0466272 0.1073134
v -0.145761 0.01073868 0.1095943
v -0.1509039 0.07106826 0.1040729
v -0.08711258 0.08339553 0.1838431
v -0.08414321 0.02264587 0.1866463
v -0.08414321 0.02264587 0.1866463
v -0.08711258 0.08339553 0.1838431
v 2.792358E-05 0.08790756 0.213041
v 2.792358E-05 0.02700424 0.2148494
v 2.792358E-05 0.02700424 0.2148494
v 2.792358E-05 0.08790756 0.213041
v 0.08716827 0.08339553 0.1838431
v 0.08419906 0.02264587 0.1866463
v 0.08419906 0.02264587 0.1866463
v 0.08716827 0.08339553 0.1838431
v 0.1509596 0.07106826 0.1040729
v 0.1458167 0.01073868 0.1095943
v -0.1509039 0.07106826 0.1040729
v -0.145761 0.1302504 0.09112557
v -0.08414321 0.1421576 0.1681776
v -0.08711258 0.08339553 0.1838431
v -0.08711258 0.08339553 0.1838431
v -0.08414321 0.1421576 0.1681776
v 2.792358E-05 0.146516 0.1963806
v 2.792358E-05 0.08790756 0.213041
v 2.792358E-05 0.08790756 0.213041
v 2.792358E-05 0.146516 0.1963806
v 0.08419906 0.1421576 0.1681776
v 0.08716827 0.08339553 0.1838431
v 0.08716827 0.08339553 0.1838431
v 0.08419906 0.1421576 0.1681776
v 0.1458167 0.1302504 0.09112557
v 0.1509596 0.07106826 0.1040729
v -0.145761 0.1302504 0.09112557
v -0.1306828 0.1842515 0.07163456
v -0.07543793 0.1949274 0.1407175
v -0.08414321 0.1421576 0.1681776
v -0.08414321 0.1421576 0.1681776
v -0.07543793 0.1949274 0.1407175
v 2.792358E-05 0.198835 0.1660037
v 2.792358E-05 0.146516 0.1963806
v 2.792358E-05 0.146516 0.1963806
v 2.792358E-05 0.198835 0.1660037
v 0.07549378 0.1949274 0.1407175
v 0.08419906 0.1421576 0.1681776
v 0.08419906 0.1421576 0.1681776
v 0.07549378 0.1949274 0.1407175
v 0.1307385 0.1842515 0.07163456
v 0.1458167 0.1302504 0.09112557
vt 0.3894043 0.0892334
vt 0.3894043 0.0892334
vt 0.3894043 0.0892334
vt 0.3894043 0.0892334
vt 0.3894043 0.0892334
vt 0.3894043 0.0892334
vt 0.3894043 0.0892334
vt 0.3894043 0.0892334
vt 0.3894043 0.0892334
vt 0.3894043 0.0892334
vt 0.3894043 0.0892334
vt 0.3894043 0.0892334
vt 0.3894043 0.0892334
vt 0.3894043 0.0892334
vt 0.3894043 0.0892334
vt 0.3894043 0.0892334
vt 0.3894043 0.0892334
vt 0.3894043 0.0892334
vt 0.3894043 0.0892334
vt 0.3894043 0.0892334
vt 0.3894043 0.0892334
vt 0.3894043 0.0892334
vt 0.3894043 0.0892334
vt 0.3894043 0.0892334
vt 0.3894043 0.0892334
vt 0.3894043 0.0892334
vt 0.3894043 0.0892334
vt 0.3894043 0.0892334
vt 0.3894043 0.0892334
vt 0.3894043 0.0892334
vt 0.3894043 0.0892334
vt 0.3894043 0.0892334
vt 0.3894043 0.0892334
vt 0.3894043 0.0892334
vt 0.3894043 0.0892334
vt 0.3894043 0.0892334
vt 0.3894043 0.0892334
vt 0.3894043 0.0892334
vt 0.3894043 0.0892334
vt 0.3894043 0.0892334
vt 0.3894043 0.0892334
vt 0.3894043 0.0892334
vt 0.3894043 0.0892334
vt 0.3894043 0.0892334
vt 0.3894043 0.0892334
vt 0.3894043 0.0892334
vt 0.3894043 0.0892334
vt 0.3894043 0.0892334
vt 0.3894043 0.0892334
vt 0.3894043 0.0892334
vt 0.3894043 0.0892334
vt 0.3894043 0.0892334
vt 0.3894043 0.0892334
vt 0.3894043 0.0892334
vt 0.3894043 0.0892334
vt 0.3894043 0.0892334
vt 0.3894043 0.0892334
vt 0.3894043 0.0892334
vt 0.3894043 0.0892334
vt 0.3894043 0.0892334
vt 0.3894043 0.0892334
vt 0.3894043 0.0892334
vt 0.3894043 0.0892334
vt 0.3894043 0.0892334
vt 0.3894043 0.0892334
vt 0.3894043 0.0892334
vt 0.3894043 0.0892334
vt 0.3894043 0.0892334
vt 0.3894043 0.0892334
vt 0.3894043 0.0892334
vt 0.3894043 0.0892334
vt 0.3894043 0.0892334
vt 0.3894043 0.0892334
vt 0.3894043 0.0892334
vt 0.3894043 0.0892334
vt 0.3894043 0.0892334
vt 0.3894043 0.0892334
vt 0.3894043 0.0892334
vt 0.3894043 0.0892334
vt 0.3894043 0.0892334
vn -0.6689453 -0.4360352 0.6020508
vn -0.6689453 -0.4360352 0.6020508
vn -0.6689453 -0.4360352 0.6020508
vn -0.6689453 -0.4360352 0.6020508
vn -0.2648926 -0.4396973 0.8583984
vn -0.2648926 -0.4396973 0.8583984
vn -0.2648926 -0.4396973 0.8583984
vn -0.2648926 -0.4396973 0.8583984
vn 0.2648926 -0.4396973 0.8583984
vn 0.2648926 -0.4396973 0.8583984
vn 0.2648926 -0.4396973 0.8583984
vn 0.2648926 -0.4396973 0.8583984
vn 0.6689453 -0.4360352 0.6020508
vn 0.6689453 -0.4360352 0.6020508
vn 0.6689453 -0.4360352 0.6020508
vn 0.6689453 -0.4360352 0.6020508
vn -0.7446289 -0.2208252 0.6298828
vn -0.7446289 -0.2208252 0.6298828
vn -0.7446289 -0.2208252 0.6298828
vn -0.7446289 -0.2208252 0.6298828
vn -0.3010254 -0.2075195 0.9306641
vn -0.3010254 -0.2075195 0.9306641
vn -0.3010254 -0.2075195 0.9306641
vn -0.3010254 -0.2075195 0.9306641
vn 0.3010254 -0.2075195 0.9306641
vn 0.3010254 -0.2075195 0.9306641
vn 0.3010254 -0.2075195 0.9306641
vn 0.3010254 -0.2075195 0.9306641
vn 0.7446289 -0.2208252 0.6298828
vn 0.7446289 -0.2208252 0.6298828
vn 0.7446289 -0.2208252 0.6298828
vn 0.7446289 -0.2208252 0.6298828
vn -0.7802734 -0.009277344 0.6254883
vn -0.7802734 -0.009277344 0.6254883
vn -0.7802734 -0.009277344 0.6254883
vn -0.7802734 -0.009277344 0.6254883
vn -0.3188477 0.02812195 0.9472656
vn -0.3188477 0.02812195 0.9472656
vn -0.3188477 0.02812195 0.9472656
vn -0.3188477 0.02812195 0.9472656
vn 0.3188477 0.02813721 0.9472656
vn 0.3188477 0.02813721 0.9472656
vn 0.3188477 0.02813721 0.9472656
vn 0.3188477 0.02813721 0.9472656
vn 0.7802734 -0.009277344 0.6254883
vn 0.7802734 -0.009277344 0.6254883
vn 0.7802734 -0.009277344 0.6254883
vn 0.7802734 -0.009277344 0.6254883
vn -0.7802734 0.1976318 0.5932617
vn -0.7802734 0.1976318 0.5932617
vn -0.7802734 0.1976318 0.5932617
vn -0.7802734 0.1976318 0.5932617
vn -0.3188477 0.2592773 0.9116211
vn -0.3188477 0.2592773 0.9116211
vn -0.3188477 0.2592773 0.9116211
vn -0.3188477 0.2592773 0.9116211
vn 0.3188477 0.2592773 0.9116211
vn 0.3188477 0.2592773 0.9116211
vn 0.3188477 0.2592773 0.9116211
vn 0.3188477 0.2592773 0.9116211
vn 0.7802734 0.1976318 0.5932617
vn 0.7802734 0.1976318 0.5932617
vn 0.7802734 0.1976318 0.5932617
vn 0.7802734 0.1976318 0.5932617
vn -0.7446289 0.4006348 0.5336914
vn -0.7446289 0.4006348 0.5336914
vn -0.7446289 0.4006348 0.5336914
vn -0.7446289 0.4006348 0.5336914
vn -0.3010254 0.4787598 0.824707
vn -0.3010254 0.4787598 0.824707
vn -0.3010254 0.4787598 0.824707
vn -0.3010254 0.4787598 0.824707
vn 0.3010254 0.4787598 0.824707
vn 0.3010254 0.4787598 0.824707
vn 0.3010254 0.4787598 0.824707
vn 0.3010254 0.4787598 0.824707
vn 0.7446289 0.4006348 0.5336914
vn 0.7446289 0.4006348 0.5336914
vn 0.7446289 0.4006348 0.5336914
vn 0.7446289 0.4006348 0.5336914
g SM_Chr_Attach_SpaceHelmet_Glass_01_0
f 3/3/3 2/2/2 1/1/1
f 4/4/4 3/3/3 1/1/1
f 7/7/7 6/6/6 5/5/5
f 8/8/8 7/7/7 5/5/5
f 11/11/11 10/10/10 9/9/9
f 12/12/12 11/11/11 9/9/9
f 15/15/15 14/14/14 13/13/13
f 16/16/16 15/15/15 13/13/13
f 19/19/19 18/18/18 17/17/17
f 20/20/20 19/19/19 17/17/17
f 23/23/23 22/22/22 21/21/21
f 24/24/24 23/23/23 21/21/21
f 27/27/27 26/26/26 25/25/25
f 28/28/28 27/27/27 25/25/25
f 31/31/31 30/30/30 29/29/29
f 32/32/32 31/31/31 29/29/29
f 35/35/35 34/34/34 33/33/33
f 36/36/36 35/35/35 33/33/33
f 39/39/39 38/38/38 37/37/37
f 40/40/40 39/39/39 37/37/37
f 43/43/43 42/42/42 41/41/41
f 44/44/44 43/43/43 41/41/41
f 47/47/47 46/46/46 45/45/45
f 48/48/48 47/47/47 45/45/45
f 51/51/51 50/50/50 49/49/49
f 52/52/52 51/51/51 49/49/49
f 55/55/55 54/54/54 53/53/53
f 56/56/56 55/55/55 53/53/53
f 59/59/59 58/58/58 57/57/57
f 60/60/60 59/59/59 57/57/57
f 63/63/63 62/62/62 61/61/61
f 64/64/64 63/63/63 61/61/61
f 67/67/67 66/66/66 65/65/65
f 68/68/68 67/67/67 65/65/65
f 71/71/71 70/70/70 69/69/69
f 72/72/72 71/71/71 69/69/69
f 75/75/75 74/74/74 73/73/73
f 76/76/76 75/75/75 73/73/73
f 79/79/79 78/78/78 77/77/77
f 80/80/80 79/79/79 77/77/77
