g SM_DrawerLid
v 0.008710395 0.02274076 0.02499657
v -0.01113265 0.01451031 0.02499657
v -0.01113266 0.02274076 0.02499657
v 0.008710387 0.01451031 0.02499657
v -0.006218108 0.008498531 0.02499657
v 0.003795851 0.008498531 0.02499657
v 0.01001962 0.02368045 0.02380239
v -0.01244188 0.02368045 0.02380239
v -0.01244188 0.01436393 0.02380239
v 0.01001961 0.01436393 0.02380239
v 0.004456563 0.007558831 0.02380238
v -0.00687882 0.007558831 0.02380239
v -0.01113266 0.02274076 0.02499657
v -0.01113265 0.01451031 0.02499657
v -0.01244188 0.01436393 0.02380239
v -0.006218108 0.008498531 0.02499657
v -0.01244188 0.02368045 0.02380239
v -0.00687882 0.007558831 0.02380239
v 0.003795851 0.008498531 0.02499657
v 0.004456563 0.007558831 0.02380238
v 0.008710387 0.01451031 0.02499657
v 0.01001961 0.01436393 0.02380239
v 0.008710395 0.02274076 0.02499657
v 0.01001962 0.02368045 0.02380239
vt 1.733398 0.3427734
vt 1.862305 0.03701782
vt 1.736328 0.040802
vt 1.862305 0.3479004
vt 1.955078 0.1142578
vt 1.955078 0.2702637
vt 1.710938 0.3664551
vt 1.713867 0.01705933
vt 1.569336 0.01591492
vt 1.566406 0.3649902
vt 1.460938 0.2775879
vt 1.462891 0.1014404
vt 1.736328 0.040802
vt 1.862305 0.03701782
vt 1.866211 0.008995056
vt 1.955078 0.1142578
vt 1.713867 0.01705933
vt 1.977539 0.1005249
vt 1.955078 0.2702637
vt 1.977539 0.2839355
vt 1.862305 0.3479004
vt 1.866211 0.3759766
vt 1.733398 0.3427734
vt 1.710938 0.3664551
vn 0 0 1
vn 0 0 1
vn 0 0 1
vn 0 0 1
vn 0 0 1
vn 0 0 1
vn 0 0 -1
vn 0 0 -1
vn 0 0 -1
vn 0 0 -1
vn 0 0 -1
vn 0 0 -1
vn -0.2332764 0.6235352 0.7460938
vn -0.6386719 -0.2438965 0.7299805
vn -0.6494141 -0.1922607 0.7358398
vn -0.2548828 -0.6865234 0.6811523
vn -0.2958984 0.565918 0.7695313
vn -0.2990723 -0.6625977 0.6870117
vn 0.2548828 -0.6865234 0.6811523
vn 0.2990723 -0.6625977 0.6870117
vn 0.6386719 -0.2438965 0.7299805
vn 0.6494141 -0.1922607 0.7358398
vn 0.2332764 0.6235352 0.7460938
vn 0.2958984 0.565918 0.7695313
g SM_DrawerLid_0
f 3/3/3 2/2/2 1/1/1
f 2/2/2 4/4/4 1/1/1
f 2/2/2 5/5/5 4/4/4
f 5/5/5 6/6/6 4/4/4
f 9/9/9 8/8/8 7/7/7
f 10/10/10 9/9/9 7/7/7
f 10/10/10 11/11/11 9/9/9
f 11/11/11 12/12/12 9/9/9
f 15/15/15 14/14/14 13/13/13
f 16/16/16 14/14/14 15/15/15
f 17/17/17 15/15/15 13/13/13
f 18/18/18 16/16/16 15/15/15
f 19/19/19 16/16/16 18/18/18
f 20/20/20 19/19/19 18/18/18
f 21/21/21 19/19/19 20/20/20
f 22/22/22 21/21/21 20/20/20
f 17/17/17 13/13/13 23/23/23
f 21/21/21 22/22/22 23/23/23
f 24/24/24 17/17/17 23/23/23
f 22/22/22 24/24/24 23/23/23
