g SM_Env_Ground_Tile_Half_04
v 0.448483 -0.03205418 -1.860769
v 0.6392456 -0.03205418 -2.051526
v 1.860754 -0.03205418 -2.051526
v 2.051517 -0.03205418 -1.860769
v 0.448483 -0.03205418 -0.6392594
v 2.051517 -0.03205418 -0.6392594
v 0.6392456 -0.03205418 -0.4485028
v 1.860754 -0.03205418 -0.4485028
v 2.420261 -4.609574E-16 -2.14176
v 2.393406 -0.02339294 -2.12129
v 2.121277 -0.02339294 -2.393415
v 2.141739 -5.228021E-16 -2.420271
v 2.141739 -5.228021E-16 -2.420271
v 2.121277 -0.02339294 -2.393415
v 0.3787231 -0.02339294 -2.393415
v 0.3582608 -5.228021E-16 -2.420271
v 0.3582608 -5.228021E-16 -2.420271
v 0.3787231 -0.02339294 -2.393415
v 0.106594 -0.02339294 -2.12129
v 0.07973912 -4.609574E-16 -2.14176
v 0.07973912 -4.609574E-16 -2.14176
v 0.106594 -0.02339294 -2.12129
v 0.106594 -0.02339294 -0.3787365
v 0.07973912 -6.494519E-17 -0.3582745
v 0.07973912 -6.494519E-17 -0.3582745
v 0.106594 -0.02339294 -0.3787365
v 0.3787231 -0.02339294 -0.1066132
v 0.3582608 -3.100776E-18 -0.07974052
v 0.3582608 -3.100776E-18 -0.07974052
v 0.3787231 -0.02339294 -0.1066132
v 2.121277 -0.02339294 -0.1066132
v 2.141739 -3.100776E-18 -0.07974052
v 2.141739 -3.100776E-18 -0.07974052
v 2.121277 -0.02339294 -0.1066132
v 2.393406 -0.02339294 -0.3787365
v 2.420261 -6.494519E-17 -0.3582745
v 2.420261 -6.494519E-17 -0.3582745
v 2.393406 -0.02339294 -0.3787365
v 2.393406 -0.02339294 -2.12129
v 2.420261 -4.609574E-16 -2.14176
v 2.393406 -0.02339294 -2.12129
v 2.35849 -6.4802E-15 -2.094686
v 2.094672 -6.4802E-15 -2.358505
v 2.121277 -0.02339294 -2.393415
v 2.121277 -0.02339294 -2.393415
v 2.094672 -6.4802E-15 -2.358505
v 0.4053276 -6.4802E-15 -2.358505
v 0.3787231 -0.02339294 -2.393415
v 0.3787231 -0.02339294 -2.393415
v 0.4053276 -6.4802E-15 -2.358505
v 0.1415094 -6.4802E-15 -2.094686
v 0.106594 -0.02339294 -2.12129
v 0.106594 -0.02339294 -2.12129
v 0.1415094 -6.4802E-15 -2.094686
v 0.1415094 -6.4802E-15 -0.4053478
v 0.106594 -0.02339294 -0.3787365
v 0.106594 -0.02339294 -0.3787365
v 0.1415094 -6.4802E-15 -0.4053478
v 0.4053276 -6.4802E-15 -0.1415234
v 0.3787231 -0.02339294 -0.1066132
v 0.3787231 -0.02339294 -0.1066132
v 0.4053276 -6.4802E-15 -0.1415234
v 2.094672 -6.4802E-15 -0.1415234
v 2.121277 -0.02339294 -0.1066132
v 2.121277 -0.02339294 -0.1066132
v 2.094672 -6.4802E-15 -0.1415234
v 2.35849 -6.4802E-15 -0.4053478
v 2.393406 -0.02339294 -0.3787365
v 2.393406 -0.02339294 -0.3787365
v 2.35849 -6.4802E-15 -0.4053478
v 2.35849 -6.4802E-15 -2.094686
v 2.393406 -0.02339294 -2.12129
v 2.080296 -6.4802E-15 -1.882698
v 2.051517 -0.03205418 -1.860769
v 1.860754 -0.03205418 -2.051526
v 1.882683 -6.4802E-15 -2.080305
v 1.882683 -6.4802E-15 -2.080305
v 1.860754 -0.03205418 -2.051526
v 0.6392456 -0.03205418 -2.051526
v 0.6173168 -6.4802E-15 -2.080305
v 0.6173168 -6.4802E-15 -2.080305
v 0.6392456 -0.03205418 -2.051526
v 0.448483 -0.03205418 -1.860769
v 0.4197037 -6.4802E-15 -1.882698
v 0.4197037 -6.4802E-15 -1.882698
v 0.448483 -0.03205418 -1.860769
v 0.448483 -0.03205418 -0.6392594
v 0.4197037 -6.4802E-15 -0.6173306
v 0.4197037 -6.4802E-15 -0.6173306
v 0.448483 -0.03205418 -0.6392594
v 0.6392456 -0.03205418 -0.4485028
v 0.6173168 -6.4802E-15 -0.4197235
v 0.6173168 -6.4802E-15 -0.4197235
v 0.6392456 -0.03205418 -0.4485028
v 1.860754 -0.03205418 -0.4485028
v 1.882683 -6.4802E-15 -0.4197235
v 1.882683 -6.4802E-15 -0.4197235
v 1.860754 -0.03205418 -0.4485028
v 2.051517 -0.03205418 -0.6392594
v 2.080296 -6.4802E-15 -0.6173306
v 2.080296 -6.4802E-15 -0.6173306
v 2.051517 -0.03205418 -0.6392594
v 2.051517 -0.03205418 -1.860769
v 2.080296 -6.4802E-15 -1.882698
v 2.420261 -4.609574E-16 -2.14176
v 2.141739 -5.228021E-16 -2.420271
v 2.5 -5.405072E-16 -2.499996
v 0.3582608 -5.228021E-16 -2.420271
v 2.5 0 3.814697E-06
v 2.420261 -6.494519E-17 -0.3582745
v 2.141739 -3.100776E-18 -0.07974052
v 2.980232E-08 -5.405072E-16 -2.499996
v 0.07973912 -4.609574E-16 -2.14176
v 0.07973912 -6.494519E-17 -0.3582745
v 2.980232E-08 0 3.814697E-06
v 0.3582608 -3.100776E-18 -0.07974052
v 2.35849 -6.4802E-15 -2.094686
v 2.080296 -6.4802E-15 -1.882698
v 1.882683 -6.4802E-15 -2.080305
v 2.094672 -6.4802E-15 -2.358505
v 2.35849 -6.4802E-15 -0.4053478
v 0.6173168 -6.4802E-15 -2.080305
v 2.080296 -6.4802E-15 -0.6173306
v 0.4053276 -6.4802E-15 -2.358505
v 2.094672 -6.4802E-15 -0.1415234
v 0.4197037 -6.4802E-15 -1.882698
v 1.882683 -6.4802E-15 -0.4197235
v 0.1415094 -6.4802E-15 -2.094686
v 0.4053276 -6.4802E-15 -0.1415234
v 0.4197037 -6.4802E-15 -0.6173306
v 0.6173168 -6.4802E-15 -0.4197235
v 0.1415094 -6.4802E-15 -0.4053478
vt 0.1013184 0.3037109
vt 0.1013184 0.3037109
vt 0.1013184 0.3037109
vt 0.1013184 0.3037109
vt 0.1013184 0.3037109
vt 0.1013184 0.3037109
vt 0.1013184 0.3037109
vt 0.1013184 0.3037109
vt 0.1013184 0.3037109
vt 0.1013184 0.3037109
vt 0.1013184 0.3037109
vt 0.1013184 0.3037109
vt 0.1013184 0.3037109
vt 0.1013184 0.3037109
vt 0.1013184 0.3037109
vt 0.1013184 0.3037109
vt 0.1013184 0.3037109
vt 0.1013184 0.3037109
vt 0.1013184 0.3037109
vt 0.1013184 0.3037109
vt 0.1013184 0.3037109
vt 0.1013184 0.3037109
vt 0.1013184 0.3037109
vt 0.1013184 0.3037109
vt 0.1013184 0.3037109
vt 0.1013184 0.3037109
vt 0.1013184 0.3037109
vt 0.1013184 0.3037109
vt 0.1013184 0.3037109
vt 0.1013184 0.3037109
vt 0.1013184 0.3037109
vt 0.1013184 0.3037109
vt 0.1013184 0.3037109
vt 0.1013184 0.3037109
vt 0.1013184 0.3037109
vt 0.1013184 0.3037109
vt 0.1013184 0.3037109
vt 0.1013184 0.3037109
vt 0.1013184 0.3037109
vt 0.1013184 0.3037109
vt 0.1021118 0.2319336
vt 0.1021118 0.2319336
vt 0.1021118 0.2319336
vt 0.1021118 0.2319336
vt 0.1021118 0.2319336
vt 0.1021118 0.2319336
vt 0.1021118 0.2319336
vt 0.1021118 0.2319336
vt 0.1021118 0.2319336
vt 0.1021118 0.2319336
vt 0.1021118 0.2319336
vt 0.1021118 0.2319336
vt 0.1021118 0.2319336
vt 0.1021118 0.2319336
vt 0.1021118 0.2319336
vt 0.1021118 0.2319336
vt 0.1021118 0.2319336
vt 0.1021118 0.2319336
vt 0.1021118 0.2319336
vt 0.1021118 0.2319336
vt 0.1021118 0.2319336
vt 0.1021118 0.2319336
vt 0.1021118 0.2319336
vt 0.1021118 0.2319336
vt 0.1021118 0.2319336
vt 0.1021118 0.2319336
vt 0.1021118 0.2319336
vt 0.1021118 0.2319336
vt 0.1021118 0.2319336
vt 0.1021118 0.2319336
vt 0.1021118 0.2319336
vt 0.1021118 0.2319336
vt 0.1021118 0.2319336
vt 0.1021118 0.2319336
vt 0.1021118 0.2319336
vt 0.1021118 0.2319336
vt 0.1021118 0.2319336
vt 0.1021118 0.2319336
vt 0.1021118 0.2319336
vt 0.1021118 0.2319336
vt 0.1021118 0.2319336
vt 0.1021118 0.2319336
vt 0.1021118 0.2319336
vt 0.1021118 0.2319336
vt 0.1021118 0.2319336
vt 0.1021118 0.2319336
vt 0.1021118 0.2319336
vt 0.1021118 0.2319336
vt 0.1021118 0.2319336
vt 0.1021118 0.2319336
vt 0.1021118 0.2319336
vt 0.1021118 0.2319336
vt 0.1021118 0.2319336
vt 0.1021118 0.2319336
vt 0.1021118 0.2319336
vt 0.1021118 0.2319336
vt 0.1021118 0.2319336
vt 0.1021118 0.2319336
vt 0.1021118 0.2319336
vt 0.1021118 0.2319336
vt 0.1021118 0.2319336
vt 0.1021118 0.2319336
vt 0.1021118 0.2319336
vt 0.1021118 0.2319336
vt 0.1013184 0.3037109
vt 0.1013184 0.3037109
vt 0.1013184 0.3037109
vt 0.1013184 0.3037109
vt 0.1013184 0.3037109
vt 0.1013184 0.3037109
vt 0.1013184 0.3037109
vt 0.1013184 0.3037109
vt 0.1013184 0.3037109
vt 0.1013184 0.3037109
vt 0.1013184 0.3037109
vt 0.1013184 0.3037109
vt 0.1021118 0.2319336
vt 0.1021118 0.2319336
vt 0.1021118 0.2319336
vt 0.1021118 0.2319336
vt 0.1021118 0.2319336
vt 0.1021118 0.2319336
vt 0.1021118 0.2319336
vt 0.1021118 0.2319336
vt 0.1021118 0.2319336
vt 0.1021118 0.2319336
vt 0.1021118 0.2319336
vt 0.1021118 0.2319336
vt 0.1021118 0.2319336
vt 0.1021118 0.2319336
vt 0.1021118 0.2319336
vt 0.1021118 0.2319336
vn 0 1 0
vn 0 1 0
vn 0 1 0
vn 0 1 0
vn 0 1 0
vn 0 1 0
vn 0 1 0
vn 0 1 0
vn -0.4050293 0.8193359 0.4052734
vn -0.4050293 0.8193359 0.4052734
vn -0.4050293 0.8193359 0.4052734
vn -0.4050293 0.8193359 0.4052734
vn 0 0.7539063 0.6567383
vn 0 0.7539063 0.6567383
vn 0 0.7539063 0.6567383
vn 0 0.7539063 0.6567383
vn 0.4050293 0.8193359 0.4052734
vn 0.4050293 0.8193359 0.4052734
vn 0.4050293 0.8193359 0.4052734
vn 0.4050293 0.8193359 0.4052734
vn 0.6567383 0.7539063 0
vn 0.6567383 0.7539063 0
vn 0.6567383 0.7539063 0
vn 0.6567383 0.7539063 0
vn 0.4050293 0.8198242 -0.4050293
vn 0.4050293 0.8198242 -0.4050293
vn 0.4050293 0.8198242 -0.4050293
vn 0.4050293 0.8198242 -0.4050293
vn 0 0.7543945 -0.6567383
vn 0 0.7543945 -0.6567383
vn 0 0.7543945 -0.6567383
vn 0 0.7543945 -0.6567383
vn -0.4050293 0.8198242 -0.4050293
vn -0.4050293 0.8198242 -0.4050293
vn -0.4050293 0.8198242 -0.4050293
vn -0.4050293 0.8198242 -0.4050293
vn -0.6567383 0.7539063 0
vn -0.6567383 0.7539063 0
vn -0.6567383 0.7539063 0
vn -0.6567383 0.7539063 0
vn 0.3349609 0.8808594 -0.3349609
vn 0.3349609 0.8808594 -0.3349609
vn 0.3349609 0.8808594 -0.3349609
vn 0.3349609 0.8808594 -0.3349609
vn 0 0.8305664 -0.5566406
vn 0 0.8305664 -0.5566406
vn 0 0.8305664 -0.5566406
vn 0 0.8305664 -0.5566406
vn -0.3349609 0.8808594 -0.3349609
vn -0.3349609 0.8808594 -0.3349609
vn -0.3349609 0.8808594 -0.3349609
vn -0.3349609 0.8808594 -0.3349609
vn -0.5566406 0.8305664 0
vn -0.5566406 0.8305664 0
vn -0.5566406 0.8305664 0
vn -0.5566406 0.8305664 0
vn -0.3349609 0.8808594 0.3349609
vn -0.3349609 0.8808594 0.3349609
vn -0.3349609 0.8808594 0.3349609
vn -0.3349609 0.8808594 0.3349609
vn 0 0.8305664 0.5566406
vn 0 0.8305664 0.5566406
vn 0 0.8305664 0.5566406
vn 0 0.8305664 0.5566406
vn 0.3349609 0.8808594 0.3349609
vn 0.3349609 0.8808594 0.3349609
vn 0.3349609 0.8808594 0.3349609
vn 0.3349609 0.8808594 0.3349609
vn 0.5566406 0.8305664 0
vn 0.5566406 0.8305664 0
vn 0.5566406 0.8305664 0
vn 0.5566406 0.8305664 0
vn -0.4711914 0.7456055 0.4711914
vn -0.4711914 0.7456055 0.4711914
vn -0.4711914 0.7456055 0.4711914
vn -0.4711914 0.7456055 0.4711914
vn 0 0.6679688 0.7441406
vn 0 0.6679688 0.7441406
vn 0 0.6679688 0.7441406
vn 0 0.6679688 0.7441406
vn 0.4711914 0.7456055 0.4711914
vn 0.4711914 0.7456055 0.4711914
vn 0.4711914 0.7456055 0.4711914
vn 0.4711914 0.7456055 0.4711914
vn 0.7441406 0.6679688 0
vn 0.7441406 0.6679688 0
vn 0.7441406 0.6679688 0
vn 0.7441406 0.6679688 0
vn 0.4711914 0.7456055 -0.4711914
vn 0.4711914 0.7456055 -0.4711914
vn 0.4711914 0.7456055 -0.4711914
vn 0.4711914 0.7456055 -0.4711914
vn 0 0.6679688 -0.7441406
vn 0 0.6679688 -0.7441406
vn 0 0.6679688 -0.7441406
vn 0 0.6679688 -0.7441406
vn -0.4711914 0.7456055 -0.4711914
vn -0.4711914 0.7456055 -0.4711914
vn -0.4711914 0.7456055 -0.4711914
vn -0.4711914 0.7456055 -0.4711914
vn -0.7441406 0.6679688 0
vn -0.7441406 0.6679688 0
vn -0.7441406 0.6679688 0
vn -0.7441406 0.6679688 0
vn 0 1 0
vn 0 1 0
vn 0 1 0
vn 0 1 0
vn 0 1 0
vn 0 1 0
vn 0 1 0
vn 0 1 0
vn 0 1 0
vn 0 1 0
vn 0 1 0
vn 0 1 0
vn 0 1 0
vn 0 1 0
vn 0 1 0
vn 0 1 0
vn 0 1 0
vn 0 1 0
vn 0 1 0
vn 0 1 0
vn 0 1 0
vn 0 1 0
vn 0 1 0
vn 0 1 0
vn 0 1 0
vn 0 1 0
vn 0 1 0
vn 0 1 0
g SM_Env_Ground_Tile_Half_04_0
f 3/3/3 2/2/2 1/1/1
f 1/1/1 4/4/4 3/3/3
f 1/1/1 5/5/5 4/4/4
f 5/5/5 6/6/6 4/4/4
f 5/5/5 7/7/7 6/6/6
f 7/7/7 8/8/8 6/6/6
f 11/11/11 10/10/10 9/9/9
f 12/12/12 11/11/11 9/9/9
f 15/15/15 14/14/14 13/13/13
f 16/16/16 15/15/15 13/13/13
f 19/19/19 18/18/18 17/17/17
f 20/20/20 19/19/19 17/17/17
f 23/23/23 22/22/22 21/21/21
f 24/24/24 23/23/23 21/21/21
f 27/27/27 26/26/26 25/25/25
f 28/28/28 27/27/27 25/25/25
f 31/31/31 30/30/30 29/29/29
f 32/32/32 31/31/31 29/29/29
f 35/35/35 34/34/34 33/33/33
f 36/36/36 35/35/35 33/33/33
f 39/39/39 38/38/38 37/37/37
f 40/40/40 39/39/39 37/37/37
f 43/43/43 42/42/42 41/41/41
f 44/44/44 43/43/43 41/41/41
f 47/47/47 46/46/46 45/45/45
f 48/48/48 47/47/47 45/45/45
f 51/51/51 50/50/50 49/49/49
f 52/52/52 51/51/51 49/49/49
f 55/55/55 54/54/54 53/53/53
f 56/56/56 55/55/55 53/53/53
f 59/59/59 58/58/58 57/57/57
f 60/60/60 59/59/59 57/57/57
f 63/63/63 62/62/62 61/61/61
f 64/64/64 63/63/63 61/61/61
f 67/67/67 66/66/66 65/65/65
f 68/68/68 67/67/67 65/65/65
f 71/71/71 70/70/70 69/69/69
f 72/72/72 71/71/71 69/69/69
f 75/75/75 74/74/74 73/73/73
f 76/76/76 75/75/75 73/73/73
f 79/79/79 78/78/78 77/77/77
f 80/80/80 79/79/79 77/77/77
f 83/83/83 82/82/82 81/81/81
f 84/84/84 83/83/83 81/81/81
f 87/87/87 86/86/86 85/85/85
f 88/88/88 87/87/87 85/85/85
f 91/91/91 90/90/90 89/89/89
f 92/92/92 91/91/91 89/89/89
f 95/95/95 94/94/94 93/93/93
f 96/96/96 95/95/95 93/93/93
f 99/99/99 98/98/98 97/97/97
f 100/100/100 99/99/99 97/97/97
f 103/103/103 102/102/102 101/101/101
f 104/104/104 103/103/103 101/101/101
f 107/107/107 106/106/106 105/105/105
f 108/108/108 106/106/106 107/107/107
f 107/107/107 105/105/105 109/109/109
f 105/105/105 110/110/110 109/109/109
f 111/111/111 109/109/109 110/110/110
f 112/112/112 108/108/108 107/107/107
f 112/112/112 113/113/113 108/108/108
f 114/114/114 113/113/113 112/112/112
f 109/109/109 111/111/111 115/115/115
f 115/115/115 114/114/114 112/112/112
f 111/111/111 116/116/116 115/115/115
f 114/114/114 115/115/115 116/116/116
f 119/119/119 118/118/118 117/117/117
f 120/120/120 119/119/119 117/117/117
f 117/117/117 118/118/118 121/121/121
f 122/122/122 119/119/119 120/120/120
f 118/118/118 123/123/123 121/121/121
f 124/124/124 122/122/122 120/120/120
f 121/121/121 123/123/123 125/125/125
f 126/126/126 122/122/122 124/124/124
f 123/123/123 127/127/127 125/125/125
f 128/128/128 126/126/126 124/124/124
f 125/125/125 127/127/127 129/129/129
f 130/130/130 126/126/126 128/128/128
f 127/127/127 131/131/131 129/129/129
f 132/132/132 130/130/130 128/128/128
f 129/129/129 131/131/131 132/132/132
f 131/131/131 130/130/130 132/132/132
