g SM_Env_Wall_03
v 0.009189444 0.009436518 0
v 0.01260324 0.009436517 0
v 0.0115305 0.008666102 0
v 6.67572E-08 0.01954635 0
v 0.001567364 0.01913181 0
v 6.67572E-08 0.01856949 0
v 6.67572E-08 0.02201043 0
v 6.67572E-08 0.02237121 0
v 0.009872198 0.02277547 0
v 0.01161982 0.02163597 0
v 0.01237174 0.0222922 0
v 0.02648503 0.02201043 0
v 0.02619697 0.02247275 0
v 0.02919774 0.023097 0
v 0.05000006 0.02237121 0
v 0.05000006 0.02201043 0
v 6.67572E-08 0.01980105 0.0002542305
v 6.67572E-08 0.02175324 0.0002542305
v 0.01161982 0.02137878 0.0002542305
v 0.01162586 0.01980105 0.0002542305
v 0.02254769 0.01991464 0.0002542305
v 0.02648503 0.02175324 0.0002542305
v 0.03450402 0.02003899 0.0002542305
v 0.05000006 0.01980105 0.0002542305
v 0.05000006 0.02175324 0.0002542305
v 0.001567364 0.01394488 0
v 0.001567364 0.01913181 0
v 0.01163902 0.01913181 0
v 0.01163902 0.01394488 0
v 6.67572E-08 0.003156322 0
v 6.67572E-08 0.009436515 0
v 0.004771318 0.004385874 0
v 0.009189444 0.009436518 0
v 0.0115305 0.008666102 0
v 0.0233027 0.003860916 0
v 0.00954422 0.002984692 0
v 0.01260324 0.009436517 0
v 0.03486915 0.009436513 0
v 0.0363227 0.00898361 0
v 0.04147193 0.00890254 0
v 0.05000006 0.009436515 0
v 0.04305356 0.009436512 0
v 0.04200744 0.004105634 0
v 0.05000006 0.003156322 0
v 0.02506145 0.003156321 0
v 0.03699791 0.003082081 0
v 0.02544222 0.001241336 0.001032677
v 0.05000006 0.001241336 0.001032677
v 0.05000006 0 0.001032677
v 0.02551382 0 0.001032677
v 6.67572E-08 0 0.001032677
v 6.67572E-08 0.001241336 0.001032677
v 0.05000006 0.001645493 0
v 0.05000006 0.001241336 0.001032677
v 0.03964356 0.001645493 0
v 0.03330363 0.001645493 0
v 0.02544222 0.001241336 0.001032677
v 0.02554335 0.001645493 0
v 0.01919459 0.001645493 0
v 0.01094694 0.001645493 0
v 6.67572E-08 0.001241336 0.001032677
v 0.006028919 0.001645493 0
v 6.67572E-08 0.001645493 0
v 0.03450402 0.01978429 0
v 0.05000006 0.01954635 0
v 0.05000006 0.01856949 0
v 0.0350311 0.01943233 0
v 0.0226011 0.01944463 0
v 0.01570951 0.01857056 0
v 0.02263908 0.01966089 0
v 0.01163902 0.01913181 0
v 0.01162586 0.01954635 0
v 6.67572E-08 0.01954635 0
v 0.001567364 0.01913181 0
v 0.001567364 0.01913181 0
v 6.67572E-08 0.009436515 0
v 6.67572E-08 0.01856949 0
v 0.001567364 0.01394488 0
v 0.009189444 0.009436518 0
v 0.01163902 0.01394488 0
v 0.01260324 0.009436517 0
v 0.03486915 0.009436513 0
v 0.04305356 0.009436512 0
v 0.05000006 0.009436515 0
v 0.01570951 0.01857056 0
v 0.01163902 0.01913181 0
v 0.0350311 0.01943233 0
v 0.05000006 0.01856949 0
v 0.04200744 0.004105634 0
v 0.05000006 0.003156322 0
v 0.05000006 0.001645493 0
v 0.03964356 0.001645493 0
v 0.03699791 0.003082081 0
v 0.03330363 0.001645493 0
v 0.02506145 0.003156321 0
v 0.02554335 0.001645493 0
v 0.0233027 0.003860916 0
v 0.01919459 0.001645493 0
v 0.00954422 0.002984692 0
v 0.01094694 0.001645493 0
v 0.004771318 0.004385874 0
v 0.006028919 0.001645493 0
v 6.67572E-08 0.001645493 0
v 6.67572E-08 0.003156322 0
v 0.03486915 0.009436513 0
v 0.04305356 0.009436512 0
v 0.04147193 0.00890254 0
v 0.0363227 0.00898361 0
v 0.05000006 0.02824383 0
v 0.05000006 0.02687263 0
v 0.04731805 0.02682304 0
v 0.03598559 0.02824383 0
v 0.03617885 0.02544539 0
v 0.01246922 0.02824383 0
v 0.01263347 0.02685939 0
v 6.67572E-08 0.02824383 0
v 0.00237216 0.02590957 0
v 6.67572E-08 0.02687263 0
v 0.05000006 0.02687263 0
v 0.05000006 0.02237121 0
v 0.02919774 0.023097 0
v 0.04731805 0.02682304 0
v 0.02619697 0.02247275 0
v 0.03617885 0.02544539 0
v 0.01237174 0.0222922 0
v 0.01263347 0.02685939 0
v 0.009872198 0.02277547 0
v 0.00237216 0.02590957 0
v 6.67572E-08 0.02237121 0
v 6.67572E-08 0.02687263 0
v 6.67572E-08 0.01954635 0
v 6.67572E-08 0.01980105 0.0002542305
v 0.01162586 0.01980105 0.0002542305
v 0.01162586 0.01954635 0
v 0.02254769 0.01991464 0.0002542305
v 0.02263908 0.01966089 0
v 0.03450402 0.01978429 0
v 0.03450402 0.02003899 0.0002542305
v 0.05000006 0.01980105 0.0002542305
v 0.05000006 0.01954635 0
v 0.01161982 0.02163597 0
v 6.67572E-08 0.02175324 0.0002542305
v 6.67572E-08 0.02201043 0
v 0.01161982 0.02137878 0.0002542305
v 0.02648503 0.02201043 0
v 0.02648503 0.02175324 0.0002542305
v 0.05000006 0.02201043 0
v 0.05000006 0.02175324 0.0002542305
v 6.67572E-08 0.02824383 0
v 6.67572E-08 0.02879829 0.002648602
v 0.01246922 0.02879829 0.002648602
v 0.01246922 0.02824383 0
v 0.03598559 0.02879829 0.002648602
v 0.03598559 0.02824383 0
v 0.05000006 0.02879829 0.002648602
v 0.05000006 0.02824383 0
v 6.67572E-08 0.02879829 0.002648602
v 6.67572E-08 0.02938682 0.002648602
v 0.01246922 0.02938682 0.002648602
v 0.01246922 0.02879829 0.002648602
v 0.03598559 0.02938682 0.002648602
v 0.03598559 0.02879829 0.002648602
v 0.05000006 0.02938682 0.002648602
v 0.05000006 0.02879829 0.002648602
vt 0.269043 0.3256836
vt 0.269043 0.3256836
vt 0.269043 0.3256836
vt 0.2712402 0.2790527
vt 0.2712402 0.2790527
vt 0.2712402 0.2790527
vt 0.2700195 0.2800293
vt 0.2700195 0.2800293
vt 0.2700195 0.2800293
vt 0.2700195 0.2800293
vt 0.2700195 0.2800293
vt 0.2700195 0.2800293
vt 0.2700195 0.2800293
vt 0.2700195 0.2800293
vt 0.2700195 0.2800293
vt 0.2700195 0.2800293
vt 0.04766846 0.2122803
vt 0.04766846 0.2122803
vt 0.04766846 0.2122803
vt 0.04766846 0.2122803
vt 0.04766846 0.2122803
vt 0.04766846 0.2122803
vt 0.04766846 0.2122803
vt 0.04766846 0.2122803
vt 0.04766846 0.2122803
vt 0.2705078 0.3308105
vt 0.2705078 0.3308105
vt 0.2705078 0.3308105
vt 0.2705078 0.3308105
vt 0.04766846 0.2122803
vt 0.04766846 0.2122803
vt 0.04766846 0.2122803
vt 0.04766846 0.2122803
vt 0.04766846 0.2122803
vt 0.04766846 0.2122803
vt 0.04766846 0.2122803
vt 0.04766846 0.2122803
vt 0.04766846 0.2122803
vt 0.04766846 0.2122803
vt 0.04766846 0.2122803
vt 0.04766846 0.2122803
vt 0.04766846 0.2122803
vt 0.04766846 0.2122803
vt 0.04766846 0.2122803
vt 0.04766846 0.2122803
vt 0.04766846 0.2122803
vt 0.2351074 0.2783203
vt 0.2351074 0.2783203
vt 0.2351074 0.2783203
vt 0.2351074 0.2783203
vt 0.2351074 0.2783203
vt 0.2351074 0.2783203
vt 0.2351074 0.2783203
vt 0.2351074 0.2783203
vt 0.2351074 0.2783203
vt 0.2351074 0.2783203
vt 0.2351074 0.2783203
vt 0.2351074 0.2783203
vt 0.2351074 0.2783203
vt 0.2351074 0.2783203
vt 0.2351074 0.2783203
vt 0.2351074 0.2783203
vt 0.2351074 0.2783203
vt 0.269043 0.2790527
vt 0.269043 0.2790527
vt 0.269043 0.2790527
vt 0.269043 0.2790527
vt 0.269043 0.2790527
vt 0.269043 0.2790527
vt 0.269043 0.2790527
vt 0.269043 0.2790527
vt 0.269043 0.2790527
vt 0.269043 0.2790527
vt 0.269043 0.2790527
vt 0.2700195 0.3244629
vt 0.2700195 0.3244629
vt 0.2700195 0.3244629
vt 0.2700195 0.3244629
vt 0.2700195 0.3244629
vt 0.2700195 0.3244629
vt 0.2700195 0.3244629
vt 0.2700195 0.3244629
vt 0.2700195 0.3244629
vt 0.2700195 0.3244629
vt 0.2700195 0.3244629
vt 0.2700195 0.3244629
vt 0.2700195 0.3244629
vt 0.2700195 0.3244629
vt 0.04959106 0.2042236
vt 0.04959106 0.2042236
vt 0.04959106 0.2042236
vt 0.04959106 0.2042236
vt 0.04959106 0.2042236
vt 0.04959106 0.2042236
vt 0.04959106 0.2042236
vt 0.04959106 0.2042236
vt 0.04959106 0.2042236
vt 0.04959106 0.2042236
vt 0.04959106 0.2042236
vt 0.04959106 0.2042236
vt 0.04959106 0.2042236
vt 0.04959106 0.2042236
vt 0.04959106 0.2042236
vt 0.04959106 0.2042236
vt 0.269043 0.3256836
vt 0.269043 0.3256836
vt 0.269043 0.3256836
vt 0.269043 0.3256836
vt 0.2702637 0.2768555
vt 0.2702637 0.2768555
vt 0.2702637 0.2768555
vt 0.2702637 0.2768555
vt 0.2702637 0.2768555
vt 0.2702637 0.2768555
vt 0.2702637 0.2768555
vt 0.2702637 0.2768555
vt 0.2702637 0.2768555
vt 0.2702637 0.2768555
vt 0.2700195 0.3244629
vt 0.2700195 0.3244629
vt 0.2700195 0.3244629
vt 0.2700195 0.3244629
vt 0.2700195 0.3244629
vt 0.2700195 0.3244629
vt 0.2700195 0.3244629
vt 0.2700195 0.3244629
vt 0.2700195 0.3244629
vt 0.2700195 0.3244629
vt 0.2700195 0.3244629
vt 0.2700195 0.3244629
vt 0.04766846 0.2122803
vt 0.04766846 0.2122803
vt 0.04766846 0.2122803
vt 0.04766846 0.2122803
vt 0.04766846 0.2122803
vt 0.04766846 0.2122803
vt 0.04766846 0.2122803
vt 0.04766846 0.2122803
vt 0.04766846 0.2122803
vt 0.04766846 0.2122803
vt 0.04766846 0.2122803
vt 0.04766846 0.2122803
vt 0.04766846 0.2122803
vt 0.04766846 0.2122803
vt 0.04766846 0.2122803
vt 0.04766846 0.2122803
vt 0.04766846 0.2122803
vt 0.04766846 0.2122803
vt 0.2335205 0.3032227
vt 0.2335205 0.3032227
vt 0.2335205 0.3032227
vt 0.2335205 0.3032227
vt 0.2335205 0.3032227
vt 0.2335205 0.3032227
vt 0.2335205 0.3032227
vt 0.2335205 0.3032227
vt 0.2335205 0.3032227
vt 0.2335205 0.3032227
vt 0.2335205 0.3032227
vt 0.2335205 0.3032227
vt 0.2335205 0.3032227
vt 0.2335205 0.3032227
vt 0.2335205 0.3032227
vt 0.2335205 0.3032227
vn 0 0 1
vn 0 0 1
vn 0 0 1
vn 0 0 1
vn 0 0 1
vn 0 0 1
vn 0 0 1
vn 0 0 1
vn 0 0 1
vn 0 0 1
vn 0 0 1
vn 0 0 1
vn 0 0 1
vn 0 0 1
vn 0 0 1
vn 0 0 1
vn 0 0 1
vn 0 0 1
vn 0 0 1
vn 0 0 1
vn 0 0 1
vn 0 0 1
vn 0 0 1
vn 0 0 1
vn 0 0 1
vn 0 0 1
vn 0 0 1
vn 0 0 1
vn 0 0 1
vn 0 0 1
vn 0 0 1
vn 0 0 1
vn 0 0 1
vn 0 0 1
vn 0 0 1
vn 0 0 1
vn 0 0 1
vn 0 0 1
vn 0 0 1
vn 0 0 1
vn 0 0 1
vn 0 0 1
vn 0 0 1
vn 0 0 1
vn 0 0 1
vn 0 0 1
vn 0 0 1
vn 0 0 1
vn 0 0 1
vn 0 0 1
vn 0 0 1
vn 0 0 1
vn 0 0.9311523 0.364502
vn 0 0.9311523 0.364502
vn 0 0.9311523 0.364502
vn 0 0.9311523 0.364502
vn 0 0.9311523 0.364502
vn 0 0.9311523 0.364502
vn 0 0.9311523 0.364502
vn 0 0.9311523 0.364502
vn 0 0.9311523 0.364502
vn 0 0.9311523 0.364502
vn 0 0.9311523 0.364502
vn 0 0 1
vn 0 0 1
vn 0 0 1
vn 0 0 1
vn 0 0 1
vn 0 0 1
vn 0 0 1
vn 0 0 1
vn 0 0 1
vn 0 0 1
vn 0 0 1
vn 0 0 1
vn 0 0 1
vn 0 0 1
vn 0 0 1
vn 0 0 1
vn 0 0 1
vn 0 0 1
vn 0 0 1
vn 0 0 1
vn 0 0 1
vn 0 0 1
vn 0 0 1
vn 0 0 1
vn 0 0 1
vn 0 0 1
vn 0 0 1
vn 0 0 1
vn 0 0 1
vn 0 0 1
vn 0 0 1
vn 0 0 1
vn 0 0 1
vn 0 0 1
vn 0 0 1
vn 0 0 1
vn 0 0 1
vn 0 0 1
vn 0 0 1
vn 0 0 1
vn 0 0 1
vn 0 0 1
vn 0 0 1
vn 0 0 1
vn 0 0 1
vn 0 0 1
vn 0 0 1
vn 0 0 1
vn 0 0 1
vn 0 0 1
vn 0 0 1
vn 0 0 1
vn 0 0 1
vn 0 0 1
vn 0 0 1
vn 0 0 1
vn 0 0 1
vn 0 0 1
vn 0 0 1
vn 0 0 1
vn 0 0 1
vn 0 0 1
vn 0 0 1
vn 0 0 1
vn 0 0 1
vn 0 0 1
vn 0 0 1
vn 0 -0.706543 0.7075195
vn 0 -0.706543 0.7075195
vn 0.003673553 -0.706543 0.7075195
vn 0.003673553 -0.706543 0.7075195
vn 0.007347107 -0.706543 0.7075195
vn 0.007347107 -0.706543 0.7075195
vn -0.001749992 -0.706543 0.7075195
vn -0.001749992 -0.706543 0.7075195
vn -0.010849 -0.706543 0.7075195
vn -0.010849 -0.706543 0.7075195
vn 0.002471924 0.703125 0.7114258
vn 0.02264404 0.7026367 0.7109375
vn 0.02264404 0.7026367 0.7109375
vn 0.002471924 0.703125 0.7114258
vn -0.008850098 0.703125 0.7109375
vn -0.008850098 0.703125 0.7109375
vn 0 0.703125 0.7114258
vn 0 0.703125 0.7114258
vn 0 -0.9790039 0.2049561
vn 0 -0.9790039 0.2049561
vn 0 -0.9790039 0.2049561
vn 0 -0.9790039 0.2049561
vn 0 -0.9790039 0.2049561
vn 0 -0.9790039 0.2049561
vn 0 -0.9790039 0.2049561
vn 0 -0.9790039 0.2049561
vn 0 0 1
vn 0 0 1
vn 0 0 1
vn 0 0 1
vn 0 0 1
vn 0 0 1
vn 0 0 1
vn 0 0 1
g SM_Env_Wall_03_0
f 3/3/3 2/2/2 1/1/1
f 6/6/6 5/5/5 4/4/4
f 9/9/9 8/8/8 7/7/7
f 10/10/10 9/9/9 7/7/7
f 11/11/11 9/9/9 10/10/10
f 11/11/11 10/10/10 12/12/12
f 13/13/13 11/11/11 12/12/12
f 13/13/13 12/12/12 14/14/14
f 14/14/14 12/12/12 15/15/15
f 12/12/12 16/16/16 15/15/15
f 19/19/19 18/18/18 17/17/17
f 20/20/20 19/19/19 17/17/17
f 19/19/19 20/20/20 21/21/21
f 22/22/22 19/19/19 21/21/21
f 21/21/21 23/23/23 22/22/22
f 23/23/23 24/24/24 22/22/22
f 24/24/24 25/25/25 22/22/22
f 28/28/28 27/27/27 26/26/26
f 29/29/29 28/28/28 26/26/26
f 32/32/32 31/31/31 30/30/30
f 33/33/33 31/31/31 32/32/32
f 34/34/34 33/33/33 32/32/32
f 34/34/34 32/32/32 35/35/35
f 32/32/32 36/36/36 35/35/35
f 37/37/37 34/34/34 35/35/35
f 38/38/38 37/37/37 35/35/35
f 39/39/39 38/38/38 35/35/35
f 40/40/40 39/39/39 35/35/35
f 40/40/40 35/35/35 41/41/41
f 41/41/41 42/42/42 40/40/40
f 35/35/35 43/43/43 41/41/41
f 43/43/43 44/44/44 41/41/41
f 35/35/35 45/45/45 43/43/43
f 45/45/45 46/46/46 43/43/43
f 49/49/49 48/48/48 47/47/47
f 50/50/50 49/49/49 47/47/47
f 50/50/50 47/47/47 51/51/51
f 47/47/47 52/52/52 51/51/51
f 55/55/55 54/54/54 53/53/53
f 55/55/55 56/56/56 54/54/54
f 56/56/56 57/57/57 54/54/54
f 56/56/56 58/58/58 57/57/57
f 58/58/58 59/59/59 57/57/57
f 59/59/59 60/60/60 57/57/57
f 60/60/60 61/61/61 57/57/57
f 60/60/60 62/62/62 61/61/61
f 62/62/62 63/63/63 61/61/61
f 66/66/66 65/65/65 64/64/64
f 67/67/67 66/66/66 64/64/64
f 67/67/67 64/64/64 68/68/68
f 69/69/69 67/67/67 68/68/68
f 68/68/68 64/64/64 70/70/70
f 69/69/69 68/68/68 71/71/71
f 68/68/68 70/70/70 71/71/71
f 70/70/70 72/72/72 71/71/71
f 72/72/72 73/73/73 71/71/71
f 73/73/73 74/74/74 71/71/71
f 77/77/77 76/76/76 75/75/75
f 76/76/76 78/78/78 75/75/75
f 78/78/78 76/76/76 79/79/79
f 80/80/80 78/78/78 79/79/79
f 80/80/80 79/79/79 81/81/81
f 80/80/80 81/81/81 82/82/82
f 80/80/80 82/82/82 83/83/83
f 83/83/83 84/84/84 80/80/80
f 80/80/80 84/84/84 85/85/85
f 80/80/80 85/85/85 86/86/86
f 84/84/84 87/87/87 85/85/85
f 87/87/87 84/84/84 88/88/88
f 91/91/91 90/90/90 89/89/89
f 92/92/92 91/91/91 89/89/89
f 92/92/92 89/89/89 93/93/93
f 94/94/94 92/92/92 93/93/93
f 94/94/94 93/93/93 95/95/95
f 96/96/96 94/94/94 95/95/95
f 96/96/96 95/95/95 97/97/97
f 98/98/98 96/96/96 97/97/97
f 98/98/98 97/97/97 99/99/99
f 100/100/100 98/98/98 99/99/99
f 100/100/100 99/99/99 101/101/101
f 102/102/102 100/100/100 101/101/101
f 102/102/102 101/101/101 103/103/103
f 101/101/101 104/104/104 103/103/103
f 107/107/107 106/106/106 105/105/105
f 108/108/108 107/107/107 105/105/105
f 111/111/111 110/110/110 109/109/109
f 111/111/111 109/109/109 112/112/112
f 113/113/113 111/111/111 112/112/112
f 113/113/113 112/112/112 114/114/114
f 115/115/115 113/113/113 114/114/114
f 115/115/115 114/114/114 116/116/116
f 117/117/117 115/115/115 116/116/116
f 117/117/117 116/116/116 118/118/118
f 121/121/121 120/120/120 119/119/119
f 122/122/122 121/121/121 119/119/119
f 123/123/123 121/121/121 122/122/122
f 124/124/124 123/123/123 122/122/122
f 123/123/123 124/124/124 125/125/125
f 124/124/124 126/126/126 125/125/125
f 125/125/125 126/126/126 127/127/127
f 126/126/126 128/128/128 127/127/127
f 127/127/127 128/128/128 129/129/129
f 128/128/128 130/130/130 129/129/129
f 133/133/133 132/132/132 131/131/131
f 134/134/134 133/133/133 131/131/131
f 135/135/135 133/133/133 134/134/134
f 136/136/136 135/135/135 134/134/134
f 136/136/136 137/137/137 135/135/135
f 137/137/137 138/138/138 135/135/135
f 139/139/139 138/138/138 137/137/137
f 140/140/140 139/139/139 137/137/137
f 143/143/143 142/142/142 141/141/141
f 142/142/142 144/144/144 141/141/141
f 141/141/141 144/144/144 145/145/145
f 144/144/144 146/146/146 145/145/145
f 145/145/145 146/146/146 147/147/147
f 146/146/146 148/148/148 147/147/147
f 151/151/151 150/150/150 149/149/149
f 152/152/152 151/151/151 149/149/149
f 153/153/153 151/151/151 152/152/152
f 154/154/154 153/153/153 152/152/152
f 155/155/155 153/153/153 154/154/154
f 156/156/156 155/155/155 154/154/154
f 159/159/159 158/158/158 157/157/157
f 160/160/160 159/159/159 157/157/157
f 161/161/161 159/159/159 160/160/160
f 162/162/162 161/161/161 160/160/160
f 163/163/163 161/161/161 162/162/162
f 164/164/164 163/163/163 162/162/162
