g SM_Icon_Lightning
v -0.09285542 0.005525547 0.02416046
v -0.09712467 0.01005276 0.02416046
v -0.04197048 0.143743 0.02416046
v 0.007283745 0.04500257 0.02416046
v 0.06199436 0.143743 0.02416046
v 0.05928554 0.1503257 0.02416046
v -0.03282116 0.1503257 0.02416046
v 0.09578441 0.04500257 0.02416046
v -0.01324238 0.005525545 0.02416046
v 0.09958278 0.04129306 0.02416046
v -0.09958278 -0.1503257 0.02416046
v -0.03282116 0.1503257 0.02416046
v -0.03282116 0.1503257 -0.02416046
v 0.05928554 0.1503257 -0.02416046
v 0.05928554 0.1503257 0.02416046
v 0.09578441 0.04500257 0.02416046
v 0.007283745 0.04500257 0.02416046
v 0.007283745 0.04500257 -0.02416046
v 0.09578441 0.04500257 -0.02416046
v 0.007283745 0.04500257 0.02416046
v 0.06199436 0.143743 0.02416046
v 0.06199436 0.143743 -0.02416046
v 0.007283745 0.04500257 -0.02416046
v -0.04197048 0.143743 -0.02416046
v -0.03282116 0.1503257 -0.02416046
v -0.03282116 0.1503257 0.02416046
v -0.04197048 0.143743 0.02416046
v 0.09958278 0.04129306 0.02416046
v 0.09578441 0.04500257 0.02416046
v 0.09578441 0.04500257 -0.02416046
v 0.09958278 0.04129306 -0.02416046
v -0.09958278 -0.1503257 -0.02416046
v -0.01324238 0.005525545 -0.02416046
v -0.01324238 0.005525545 0.02416046
v -0.09958278 -0.1503257 0.02416046
v 0.05928554 0.1503257 -0.02416046
v -0.03282116 0.1503257 -0.02416046
v -0.04197048 0.143743 -0.02416046
v 0.06199436 0.143743 -0.02416046
v 0.007283745 0.04500257 -0.02416046
v -0.09712467 0.01005276 -0.02416046
v -0.09285542 0.005525547 -0.02416046
v 0.09578441 0.04500257 -0.02416046
v -0.01324238 0.005525545 -0.02416046
v 0.09958278 0.04129306 -0.02416046
v -0.09958278 -0.1503257 -0.02416046
v 0.06199436 0.143743 0.02416046
v 0.05928554 0.1503257 0.02416046
v 0.05928554 0.1503257 -0.02416046
v 0.06199436 0.143743 -0.02416046
v -0.09712467 0.01005276 -0.02416046
v -0.04197048 0.143743 -0.02416046
v -0.04197048 0.143743 0.02416046
v -0.09712467 0.01005276 0.02416046
v -0.09285542 0.005525547 -0.02416046
v -0.09285542 0.005525547 0.02416046
v -0.01324238 0.005525545 0.02416046
v -0.01324238 0.005525545 -0.02416046
v -0.09285542 0.005525547 -0.02416046
v -0.09712467 0.01005276 -0.02416046
v -0.09712467 0.01005276 0.02416046
v -0.09285542 0.005525547 0.02416046
v -0.09958278 -0.1503257 -0.02416046
v -0.09958278 -0.1503257 0.02416046
v 0.09958278 0.04129306 0.02416046
v 0.09958278 0.04129306 -0.02416046
vt 0.3590545 0.02646061
vt 0.3590545 0.02649572
vt 0.3590545 0.02696905
vt 0.3601392 0.02591828
vt 0.3601392 0.02693515
vt 0.3601392 0.02700294
vt 0.3590545 0.02700294
vt 0.3598967 0.02591828
vt 0.3590545 0.02631944
vt 0.3598807 0.02591828
vt 0.3590545 0.02591828
vt 0.3590545 0.02700294
vt 0.3590545 0.0280876
vt 0.3601392 0.0280876
vt 0.3601392 0.02700294
vt 0.3598967 0.03025692
vt 0.3601392 0.03025692
vt 0.3601392 0.02917227
vt 0.3599155 0.02917226
vt 0.3601392 0.02591828
vt 0.3601392 0.02693515
vt 0.3612239 0.02693515
vt 0.3612239 0.02591828
vt 0.3579699 0.02696905
vt 0.3579699 0.02700294
vt 0.3590545 0.02700294
vt 0.3590545 0.02696905
vt 0.3598807 0.03025692
vt 0.3598967 0.03025692
vt 0.3599155 0.02917226
vt 0.3598765 0.02917226
vt 0.3579699 0.02591828
vt 0.3579699 0.02627173
vt 0.3590545 0.02631944
vt 0.3590545 0.02591828
vt 0.3601392 0.0280876
vt 0.3590545 0.0280876
vt 0.3590545 0.0281215
vt 0.3601392 0.02815539
vt 0.3601392 0.02917227
vt 0.3590545 0.02861328
vt 0.3590545 0.02862993
vt 0.3599155 0.02917226
vt 0.3590545 0.0288188
vt 0.3598765 0.02917226
vt 0.3590545 0.02917227
vt 0.3601392 0.02693515
vt 0.3601392 0.02700294
vt 0.3612239 0.02700294
vt 0.3612239 0.02693515
vt 0.3579699 0.02647726
vt 0.3579699 0.02696905
vt 0.3590545 0.02696905
vt 0.3590545 0.02649572
vt 0.3579699 0.02646061
vt 0.3590545 0.02646061
vt 0.3590545 0.02631944
vt 0.3579699 0.02627173
vt 0.3579699 0.02646061
vt 0.3579699 0.02647726
vt 0.3590545 0.02649572
vt 0.3590545 0.02646061
vt 0.3590545 0.02917227
vt 0.3590545 0.03025692
vt 0.3598807 0.03025692
vt 0.3598765 0.02917226
vn 0 0 1
vn 0 0 1
vn 0 0 1
vn 0 0 1
vn 0 0 1
vn 0 0 1
vn 0 0 1
vn 0 0 1
vn 0 0 1
vn 0 0 1
vn 0 0 1
vn 0 1 0
vn 0 1 0
vn 0 1 0
vn 0 1 0
vn 0 1 0
vn 0 1 0
vn 0 1 0
vn 0 1 0
vn 0.8747027 -0.4846598 0
vn 0.8747027 -0.4846598 0
vn 0.8747027 -0.4846598 0
vn 0.8747027 -0.4846598 0
vn -0.5840234 0.8117368 0
vn -0.5840234 0.8117368 0
vn -0.5840234 0.8117368 0
vn -0.5840234 0.8117368 0
vn 0.6986887 0.7154258 0
vn 0.6986887 0.7154258 0
vn 0.6986887 0.7154258 0
vn 0.6986887 0.7154258 0
vn -0.8747372 0.4845977 0
vn -0.8747372 0.4845977 0
vn -0.8747372 0.4845977 0
vn -0.8747372 0.4845977 0
vn 0 0 -1
vn 0 0 -1
vn 0 0 -1
vn 0 0 -1
vn 0 0 -1
vn 0 0 -1
vn 0 0 -1
vn 0 0 -1
vn 0 0 -1
vn 0 0 -1
vn 0 0 -1
vn 0.9247624 0.3805448 0
vn 0.9247624 0.3805448 0
vn 0.9247624 0.3805448 0
vn 0.9247624 0.3805448 0
vn -0.9244217 0.381372 0
vn -0.9244217 0.381372 0
vn -0.9244217 0.381372 0
vn -0.9244217 0.381372 0
vn 0 -1 0
vn 0 -1 0
vn 0 -1 0
vn 0 -1 0
vn -0.7275297 -0.6860762 0
vn -0.7275297 -0.6860762 0
vn -0.7275297 -0.6860762 0
vn -0.7275297 -0.6860762 0
vn 0.6933219 -0.720628 0
vn 0.6933219 -0.720628 0
vn 0.6933219 -0.720628 0
vn 0.6933219 -0.720628 0
g SM_Icon_Lightning_0
f 3/3/3 2/2/2 1/1/1
f 3/3/3 1/1/1 4/4/4
f 4/4/4 5/5/5 3/3/3
f 5/5/5 6/6/6 3/3/3
f 6/6/6 7/7/7 3/3/3
f 8/8/8 4/4/4 1/1/1
f 9/9/9 8/8/8 1/1/1
f 9/9/9 10/10/10 8/8/8
f 9/9/9 11/11/11 10/10/10
f 14/14/14 13/13/13 12/12/12
f 15/15/15 14/14/14 12/12/12
f 18/18/18 17/17/17 16/16/16
f 19/19/19 18/18/18 16/16/16
f 22/22/22 21/21/21 20/20/20
f 23/23/23 22/22/22 20/20/20
f 26/26/26 25/25/25 24/24/24
f 27/27/27 26/26/26 24/24/24
f 30/30/30 29/29/29 28/28/28
f 31/31/31 30/30/30 28/28/28
f 34/34/34 33/33/33 32/32/32
f 35/35/35 34/34/34 32/32/32
f 38/38/38 37/37/37 36/36/36
f 39/39/39 38/38/38 36/36/36
f 38/38/38 39/39/39 40/40/40
f 41/41/41 38/38/38 40/40/40
f 42/42/42 41/41/41 40/40/40
f 40/40/40 43/43/43 42/42/42
f 43/43/43 44/44/44 42/42/42
f 43/43/43 45/45/45 44/44/44
f 45/45/45 46/46/46 44/44/44
f 49/49/49 48/48/48 47/47/47
f 50/50/50 49/49/49 47/47/47
f 53/53/53 52/52/52 51/51/51
f 54/54/54 53/53/53 51/51/51
f 57/57/57 56/56/56 55/55/55
f 58/58/58 57/57/57 55/55/55
f 61/61/61 60/60/60 59/59/59
f 62/62/62 61/61/61 59/59/59
f 65/65/65 64/64/64 63/63/63
f 66/66/66 65/65/65 63/63/63
