g SM_Prop_Stool_01
v 0.1133489 0.1934715 -0.1963265
v -0.11335 0.1934715 -0.1963266
v -0.226699 0.1934715 2.288818E-07
v -0.11335 0.1934715 0.1963266
v 0.1133489 0.1934715 0.1963266
v 0.2266986 0.1934715 2.288818E-07
v -0.11335 0.2479811 -0.1963266
v -0.226699 0.2479811 2.288818E-07
v -0.11335 0.2479811 0.1963266
v 0.1133489 0.2479811 0.1963266
v 0.2266986 0.2479811 2.288818E-07
v 0.1133489 0.2479811 -0.1963265
v 0.07868157 0.1934715 -0.1362793
v -0.07868187 0.1934715 -0.1362793
v 0.1573624 0.1934715 2.288818E-07
v 0.07868157 0.1934715 0.1362795
v -0.07868187 0.1934715 0.1362795
v -0.1573624 0.1934715 2.288818E-07
v -0.1573624 0.2479811 2.288818E-07
v -0.0786808 0.2479811 0.1362795
v 0.07868157 0.2479811 0.1362795
v 0.157363 0.2479811 2.288818E-07
v 0.07868157 0.2479811 -0.1362793
v -0.0786808 0.2479811 -0.1362793
v 0.08446877 0 -0.1463037
v -0.08446877 0 -0.1463038
v -0.1689371 0 7.629394E-08
v -0.08446877 0 0.1463038
v 0.08446877 0 0.1463038
v 0.1689371 0 7.629394E-08
v -3.814697E-07 0 7.629394E-08
v 0.0257608 0.5257219 -0.04461883
v -0.0257608 0.5257219 -0.04461883
v -0.05152168 0.5257219 7.629394E-08
v -0.0257608 0.5257219 0.04461899
v 0.0257608 0.5257219 0.04461899
v 0.05152206 0.5257219 7.629394E-08
v 0.1342439 0.5786394 -0.2325166
v -0.1342436 0.5786394 -0.2325166
v -0.1342436 0.6600966 -0.2325166
v 0.1342439 0.6600966 -0.2325166
v -0.2684872 0.5786394 7.629394E-08
v -0.2684872 0.6600966 7.629394E-08
v -0.1342436 0.5786394 0.2325166
v -0.1342436 0.6600966 0.2325166
v 0.1342439 0.5786394 0.2325166
v 0.1342439 0.6600966 0.2325166
v 0.2684872 0.5786394 7.629394E-08
v 0.2684872 0.6600966 7.629394E-08
v 0 0.6600966 7.629394E-08
v -0.08446877 0.04113544 -0.1463038
v -0.1689371 0.04113544 7.629394E-08
v -0.08446877 0.04113544 0.1463038
v 0.08446877 0.04113544 0.1463038
v 0.1689371 0.04113544 7.629394E-08
v 0.08446877 0.04113544 -0.1463037
v 0.05152206 0.06573525 7.629394E-08
v 0.0257608 0.06573525 0.04461899
v -0.0257608 0.06573525 0.04461899
v -0.05152168 0.06573525 7.629394E-08
v -0.0257608 0.06573525 -0.04461883
v 0.0257608 0.06573525 -0.04461883
v -0.226699 0.1934715 2.288818E-07
v -0.226699 0.2479811 2.288818E-07
v -0.11335 0.1934715 0.1963266
v -0.11335 0.2479811 0.1963266
v 0.1133489 0.1934715 0.1963266
v 0.1133489 0.2479811 0.1963266
v 0.2266986 0.1934715 2.288818E-07
v 0.2266986 0.2479811 2.288818E-07
v 0.1133489 0.1934715 -0.1963265
v 0.1133489 0.2479811 -0.1963265
v -0.11335 0.2479811 -0.1963266
v -0.11335 0.1934715 -0.1963266
v -0.11335 0.1934715 -0.1963266
v 0.1133489 0.1934715 -0.1963265
v 0.2266986 0.1934715 2.288818E-07
v 0.1133489 0.1934715 0.1963266
v -0.11335 0.1934715 0.1963266
v -0.226699 0.1934715 2.288818E-07
v -0.226699 0.2479811 2.288818E-07
v -0.11335 0.2479811 0.1963266
v 0.1133489 0.2479811 0.1963266
v 0.2266986 0.2479811 2.288818E-07
v 0.1133489 0.2479811 -0.1963265
v -0.11335 0.2479811 -0.1963266
v -0.07868187 0.1934715 -0.1362793
v -0.0786808 0.2479811 -0.1362793
v 0.07868157 0.2479811 -0.1362793
v 0.07868157 0.1934715 -0.1362793
v 0.07868157 0.1934715 -0.1362793
v 0.07868157 0.2479811 -0.1362793
v 0.157363 0.2479811 2.288818E-07
v 0.1573624 0.1934715 2.288818E-07
v 0.1573624 0.1934715 2.288818E-07
v 0.157363 0.2479811 2.288818E-07
v 0.07868157 0.2479811 0.1362795
v 0.07868157 0.1934715 0.1362795
v 0.07868157 0.1934715 0.1362795
v 0.07868157 0.2479811 0.1362795
v -0.0786808 0.2479811 0.1362795
v -0.07868187 0.1934715 0.1362795
v -0.07868187 0.1934715 0.1362795
v -0.0786808 0.2479811 0.1362795
v -0.1573624 0.2479811 2.288818E-07
v -0.1573624 0.1934715 2.288818E-07
v -0.1573624 0.1934715 2.288818E-07
v -0.1573624 0.2479811 2.288818E-07
v -0.0786808 0.2479811 -0.1362793
v -0.07868187 0.1934715 -0.1362793
v -0.1342436 0.5786394 -0.2325166
v -0.1342436 0.6600966 -0.2325166
v -0.2684872 0.5786394 7.629394E-08
v -0.2684872 0.6600966 7.629394E-08
v -0.1342436 0.5786394 0.2325166
v -0.1342436 0.6600966 0.2325166
v 0.1342439 0.5786394 0.2325166
v 0.1342439 0.6600966 0.2325166
v 0.2684872 0.5786394 7.629394E-08
v 0.2684872 0.6600966 7.629394E-08
v 0.1342439 0.6600966 -0.2325166
v 0.1342439 0.5786394 -0.2325166
v 0.1342439 0.6600966 -0.2325166
v -0.1342436 0.6600966 -0.2325166
v -0.2684872 0.6600966 7.629394E-08
v -0.1342436 0.6600966 0.2325166
v 0.1342439 0.6600966 0.2325166
v 0.2684872 0.6600966 7.629394E-08
v -0.08446877 0.04113544 -0.1463038
v -0.0257608 0.06573525 -0.04461883
v -0.1689371 0.04113544 7.629394E-08
v -0.05152168 0.06573525 7.629394E-08
v -0.08446877 0.04113544 0.1463038
v -0.0257608 0.06573525 0.04461899
v 0.08446877 0.04113544 0.1463038
v 0.0257608 0.06573525 0.04461899
v 0.1689371 0.04113544 7.629394E-08
v 0.05152206 0.06573525 7.629394E-08
v 0.0257608 0.06573525 -0.04461883
v 0.08446877 0.04113544 -0.1463037
v 0.1342439 0.5786394 -0.2325166
v -0.1342436 0.5786394 -0.2325166
v -0.0257608 0.5257219 -0.04461883
v -0.1342436 0.5786394 -0.2325166
v -0.2684872 0.5786394 7.629394E-08
v -0.05152168 0.5257219 7.629394E-08
v -0.2684872 0.5786394 7.629394E-08
v -0.1342436 0.5786394 0.2325166
v -0.0257608 0.5257219 0.04461899
v -0.1342436 0.5786394 0.2325166
v 0.1342439 0.5786394 0.2325166
v 0.0257608 0.5257219 0.04461899
v 0.1342439 0.5786394 0.2325166
v 0.2684872 0.5786394 7.629394E-08
v 0.05152206 0.5257219 7.629394E-08
v 0.2684872 0.5786394 7.629394E-08
v 0.1342439 0.5786394 -0.2325166
v 0.0257608 0.5257219 -0.04461883
v -0.08446877 0 -0.1463038
v -0.08446877 0.04113544 -0.1463038
v -0.1689371 0.04113544 7.629394E-08
v -0.1689371 0 7.629394E-08
v -0.1689371 0 7.629394E-08
v -0.1689371 0.04113544 7.629394E-08
v -0.08446877 0.04113544 0.1463038
v -0.08446877 0 0.1463038
v -0.08446877 0 0.1463038
v -0.08446877 0.04113544 0.1463038
v 0.08446877 0.04113544 0.1463038
v 0.08446877 0 0.1463038
v 0.08446877 0 0.1463038
v 0.08446877 0.04113544 0.1463038
v 0.1689371 0.04113544 7.629394E-08
v 0.1689371 0 7.629394E-08
v 0.1689371 0 7.629394E-08
v 0.1689371 0.04113544 7.629394E-08
v 0.08446877 0.04113544 -0.1463037
v 0.08446877 0 -0.1463037
v 0.08446877 0 -0.1463037
v 0.08446877 0.04113544 -0.1463037
v -0.08446877 0.04113544 -0.1463038
v -0.08446877 0 -0.1463038
v 0.0257608 0.06573525 0.04461899
v 0.0257608 0.5257219 0.04461899
v 0.05152206 0.5257219 7.629394E-08
v 0.05152206 0.06573525 7.629394E-08
v -0.0257608 0.06573525 0.04461899
v -0.0257608 0.5257219 0.04461899
v 0.0257608 0.5257219 0.04461899
v 0.0257608 0.06573525 0.04461899
v -0.05152168 0.06573525 7.629394E-08
v -0.05152168 0.5257219 7.629394E-08
v -0.0257608 0.5257219 0.04461899
v -0.0257608 0.06573525 0.04461899
v -0.0257608 0.06573525 -0.04461883
v -0.0257608 0.5257219 -0.04461883
v -0.05152168 0.5257219 7.629394E-08
v -0.05152168 0.06573525 7.629394E-08
v 0.0257608 0.06573525 -0.04461883
v 0.0257608 0.5257219 -0.04461883
v -0.0257608 0.5257219 -0.04461883
v -0.0257608 0.06573525 -0.04461883
v 0.05152206 0.06573525 7.629394E-08
v 0.05152206 0.5257219 7.629394E-08
v 0.0257608 0.5257219 -0.04461883
v 0.0257608 0.06573525 -0.04461883
vt 0.1160889 0.3041992
vt 0.1160889 0.3041992
vt 0.1160889 0.3041992
vt 0.1160889 0.3041992
vt 0.1160889 0.3041992
vt 0.1160889 0.3041992
vt 0.1160889 0.3041992
vt 0.1160889 0.3041992
vt 0.1160889 0.3041992
vt 0.1160889 0.3041992
vt 0.1160889 0.3041992
vt 0.1160889 0.3041992
vt 0.1160889 0.3041992
vt 0.1160889 0.3041992
vt 0.1160889 0.3041992
vt 0.1160889 0.3041992
vt 0.1160889 0.3041992
vt 0.1160889 0.3041992
vt 0.1160889 0.3041992
vt 0.1160889 0.3041992
vt 0.1160889 0.3041992
vt 0.1160889 0.3041992
vt 0.1160889 0.3041992
vt 0.1160889 0.3041992
vt 0.1160889 0.3041992
vt 0.1160889 0.3041992
vt 0.1160889 0.3041992
vt 0.1160889 0.3041992
vt 0.1160889 0.3041992
vt 0.1160889 0.3041992
vt 0.1160889 0.3041992
vt 0.03875732 0.3771973
vt 0.03875732 0.3771973
vt 0.03875732 0.3771973
vt 0.03875732 0.3771973
vt 0.03875732 0.3771973
vt 0.03875732 0.3771973
vt 0.03875732 0.3771973
vt 0.03875732 0.3771973
vt 0.03875732 0.3771973
vt 0.03875732 0.3771973
vt 0.03875732 0.3771973
vt 0.03875732 0.3771973
vt 0.03875732 0.3771973
vt 0.03875732 0.3771973
vt 0.03875732 0.3771973
vt 0.03875732 0.3771973
vt 0.03875732 0.3771973
vt 0.03875732 0.3771973
vt 0.03875732 0.3771973
vt 0.1160889 0.3041992
vt 0.1160889 0.3041992
vt 0.1160889 0.3041992
vt 0.1160889 0.3041992
vt 0.1160889 0.3041992
vt 0.1160889 0.3041992
vt 0.1160889 0.3041992
vt 0.1160889 0.3041992
vt 0.1160889 0.3041992
vt 0.1160889 0.3041992
vt 0.1160889 0.3041992
vt 0.1160889 0.3041992
vt 0.1160889 0.3041992
vt 0.1160889 0.3041992
vt 0.1160889 0.3041992
vt 0.1160889 0.3041992
vt 0.1160889 0.3041992
vt 0.1160889 0.3041992
vt 0.1160889 0.3041992
vt 0.1160889 0.3041992
vt 0.1160889 0.3041992
vt 0.1160889 0.3041992
vt 0.1160889 0.3041992
vt 0.1160889 0.3041992
vt 0.1160889 0.3041992
vt 0.1160889 0.3041992
vt 0.1160889 0.3041992
vt 0.1160889 0.3041992
vt 0.1160889 0.3041992
vt 0.1160889 0.3041992
vt 0.1160889 0.3041992
vt 0.1160889 0.3041992
vt 0.1160889 0.3041992
vt 0.1160889 0.3041992
vt 0.1160889 0.3041992
vt 0.1160889 0.3041992
vt 0.1160889 0.3041992
vt 0.1160889 0.3041992
vt 0.1160889 0.3041992
vt 0.1160889 0.3041992
vt 0.1160889 0.3041992
vt 0.1160889 0.3041992
vt 0.1160889 0.3041992
vt 0.1160889 0.3041992
vt 0.1160889 0.3041992
vt 0.1160889 0.3041992
vt 0.1160889 0.3041992
vt 0.1160889 0.3041992
vt 0.1160889 0.3041992
vt 0.1160889 0.3041992
vt 0.1160889 0.3041992
vt 0.1160889 0.3041992
vt 0.1160889 0.3041992
vt 0.1160889 0.3041992
vt 0.1160889 0.3041992
vt 0.1160889 0.3041992
vt 0.1160889 0.3041992
vt 0.1160889 0.3041992
vt 0.1160889 0.3041992
vt 0.1160889 0.3041992
vt 0.03875732 0.3771973
vt 0.03875732 0.3771973
vt 0.03875732 0.3771973
vt 0.03875732 0.3771973
vt 0.03875732 0.3771973
vt 0.03875732 0.3771973
vt 0.03875732 0.3771973
vt 0.03875732 0.3771973
vt 0.03875732 0.3771973
vt 0.03875732 0.3771973
vt 0.03875732 0.3771973
vt 0.03875732 0.3771973
vt 0.03875732 0.3771973
vt 0.03875732 0.3771973
vt 0.03875732 0.3771973
vt 0.03875732 0.3771973
vt 0.03875732 0.3771973
vt 0.03875732 0.3771973
vt 0.1160889 0.3041992
vt 0.1160889 0.3041992
vt 0.1160889 0.3041992
vt 0.1160889 0.3041992
vt 0.1160889 0.3041992
vt 0.1160889 0.3041992
vt 0.1160889 0.3041992
vt 0.1160889 0.3041992
vt 0.1160889 0.3041992
vt 0.1160889 0.3041992
vt 0.1160889 0.3041992
vt 0.1160889 0.3041992
vt 0.03875732 0.3771973
vt 0.03875732 0.3771973
vt 0.03875732 0.3771973
vt 0.03875732 0.3771973
vt 0.03875732 0.3771973
vt 0.03875732 0.3771973
vt 0.03875732 0.3771973
vt 0.03875732 0.3771973
vt 0.03875732 0.3771973
vt 0.03875732 0.3771973
vt 0.03875732 0.3771973
vt 0.03875732 0.3771973
vt 0.03875732 0.3771973
vt 0.03875732 0.3771973
vt 0.03875732 0.3771973
vt 0.03875732 0.3771973
vt 0.03875732 0.3771973
vt 0.03875732 0.3771973
vt 0.1160889 0.3041992
vt 0.1160889 0.3041992
vt 0.1160889 0.3041992
vt 0.1160889 0.3041992
vt 0.1160889 0.3041992
vt 0.1160889 0.3041992
vt 0.1160889 0.3041992
vt 0.1160889 0.3041992
vt 0.1160889 0.3041992
vt 0.1160889 0.3041992
vt 0.1160889 0.3041992
vt 0.1160889 0.3041992
vt 0.1160889 0.3041992
vt 0.1160889 0.3041992
vt 0.1160889 0.3041992
vt 0.1160889 0.3041992
vt 0.1160889 0.3041992
vt 0.1160889 0.3041992
vt 0.1160889 0.3041992
vt 0.1160889 0.3041992
vt 0.1160889 0.3041992
vt 0.1160889 0.3041992
vt 0.1160889 0.3041992
vt 0.1160889 0.3041992
vt 0.1160889 0.3041992
vt 0.1160889 0.3041992
vt 0.1160889 0.3041992
vt 0.1160889 0.3041992
vt 0.1160889 0.3041992
vt 0.1160889 0.3041992
vt 0.1160889 0.3041992
vt 0.1160889 0.3041992
vt 0.1160889 0.3041992
vt 0.1160889 0.3041992
vt 0.1160889 0.3041992
vt 0.1160889 0.3041992
vt 0.1160889 0.3041992
vt 0.1160889 0.3041992
vt 0.1160889 0.3041992
vt 0.1160889 0.3041992
vt 0.1160889 0.3041992
vt 0.1160889 0.3041992
vt 0.1160889 0.3041992
vt 0.1160889 0.3041992
vt 0.1160889 0.3041992
vt 0.1160889 0.3041992
vt 0.1160889 0.3041992
vt 0.1160889 0.3041992
vn 0.8662109 0 -0.5
vn -0.8662109 0 -0.5
vn -0.8662109 0 -0.5
vn -0.8662109 0 0.5
vn 0 0 1
vn 0.8662109 0 0.5
vn -0.8662109 0 -0.5
vn -0.8662109 0 -0.5
vn -0.8662109 0 0.5
vn 0 0 1
vn 0.8662109 0 0.5
vn 0.8662109 0 -0.5
vn 0 -1 0
vn 0 -1 0
vn 0 -1 0
vn 0 -1 0
vn 0 -1 0
vn 0 -1 0
vn 0 1 0
vn 0 1 0
vn 0 1 0
vn 0 1 0
vn 0 1 0
vn 0 1 0
vn 0 -1 0
vn 0 -1 0
vn 0 -1 0
vn 0 -1 0
vn 0 -1 0
vn 0 -1 0
vn 0 -1 0
vn 0 -0.9624023 -0.2709961
vn 0 -0.9624023 -0.2709961
vn -0.2347412 -0.9624023 -0.135498
vn -0.2347412 -0.9624023 0.135498
vn 0 -0.9624023 0.2709961
vn 0.2347412 -0.9624023 0.135498
vn 0 0 -1
vn 0 0 -1
vn 0 0 -1
vn 0 0 -1
vn -0.8662109 0 -0.5
vn -0.8662109 0 -0.5
vn -0.8662109 0 0.5
vn -0.8662109 0 0.5
vn 0 0 1
vn 0 0 1
vn 0.8662109 0 0.5
vn 0.8662109 0 0.5
vn 0 1 0
vn 0 0.972168 -0.2351074
vn -0.2036133 0.972168 -0.1175537
vn -0.2036133 0.972168 0.1175537
vn 0 0.972168 0.2351074
vn 0.2036133 0.972168 0.1175537
vn 0 0.972168 -0.2351074
vn 0.2036133 0.972168 0.1175537
vn 0 0.972168 0.2351074
vn -0.2036133 0.972168 0.1175537
vn -0.2036133 0.972168 -0.1175537
vn 0 0.972168 -0.2351074
vn 0 0.972168 -0.2351074
vn -0.8662109 0 0.5
vn -0.8662109 0 0.5
vn 0 0 1
vn 0 0 1
vn 0.8662109 0 0.5
vn 0.8662109 0 0.5
vn 0.8662109 0 -0.5
vn 0.8662109 0 -0.5
vn 0 0 -1
vn 0 0 -1
vn 0 0 -1
vn 0 0 -1
vn 0 -1 0
vn 0 -1 0
vn 0 -1 0
vn 0 -1 0
vn 0 -1 0
vn 0 -1 0
vn 0 1 0
vn 0 1 0
vn 0 1 0
vn 0 1 0
vn 0 1 0
vn 0 1 0
vn 0 0 1
vn 0 0 1
vn 0 0 1
vn 0 0 1
vn -0.8662109 0 0.5
vn -0.8662109 0 0.5
vn -0.8662109 0 0.5
vn -0.8662109 0 0.5
vn -0.8662109 0 -0.5
vn -0.8662109 0 -0.5
vn -0.8662109 0 -0.5
vn -0.8662109 0 -0.5
vn 0 0 -1
vn 0 0 -1
vn 0 0 -1
vn 0 0 -1
vn 0.8662109 0 -0.5
vn 0.8662109 0 -0.5
vn 0.8662109 0 -0.5
vn 0.8662109 0 -0.5
vn 0.8662109 0 0.5
vn 0.8662109 0 0.5
vn 0.8662109 0 0.5
vn 0.8662109 0 0.5
vn -0.8662109 0 -0.5
vn -0.8662109 0 -0.5
vn -0.8662109 0 0.5
vn -0.8662109 0 0.5
vn 0 0 1
vn 0 0 1
vn 0.8662109 0 0.5
vn 0.8662109 0 0.5
vn 0.8662109 0 -0.5
vn 0.8662109 0 -0.5
vn 0.8662109 0 -0.5
vn 0.8662109 0 -0.5
vn 0 1 0
vn 0 1 0
vn 0 1 0
vn 0 1 0
vn 0 1 0
vn 0 1 0
vn -0.2036133 0.972168 -0.1175537
vn -0.2036133 0.972168 -0.1175537
vn -0.2036133 0.972168 0.1175537
vn -0.2036133 0.972168 0.1175537
vn 0 0.972168 0.2351074
vn 0 0.972168 0.2351074
vn 0.2036133 0.972168 0.1175537
vn 0.2036133 0.972168 0.1175537
vn 0.2036133 0.972168 -0.1175537
vn 0.2036133 0.972168 -0.1175537
vn 0.2036133 0.972168 -0.1175537
vn 0.2036133 0.972168 -0.1175537
vn 0 -0.9624023 -0.2709961
vn 0 -0.9624023 -0.2709961
vn -0.2347412 -0.9624023 -0.135498
vn -0.2347412 -0.9624023 -0.135498
vn -0.2347412 -0.9624023 -0.135498
vn -0.2347412 -0.9624023 0.135498
vn -0.2347412 -0.9624023 0.135498
vn -0.2347412 -0.9624023 0.135498
vn 0 -0.9624023 0.2709961
vn 0 -0.9624023 0.2709961
vn 0 -0.9624023 0.2709961
vn 0.2347412 -0.9624023 0.135498
vn 0.2347412 -0.9624023 0.135498
vn 0.2347412 -0.9624023 0.135498
vn 0.2347412 -0.9624023 -0.135498
vn 0.2347412 -0.9624023 -0.135498
vn 0.2347412 -0.9624023 -0.135498
vn 0.2347412 -0.9624023 -0.135498
vn -0.8662109 0 -0.5
vn -0.8662109 0 -0.5
vn -0.8662109 0 -0.5
vn -0.8662109 0 -0.5
vn -0.8662109 0 0.5
vn -0.8662109 0 0.5
vn -0.8662109 0 0.5
vn -0.8662109 0 0.5
vn 0 0 1
vn 0 0 1
vn 0 0 1
vn 0 0 1
vn 0.8662109 0 0.5
vn 0.8662109 0 0.5
vn 0.8662109 0 0.5
vn 0.8662109 0 0.5
vn 0.8662109 0 -0.5
vn 0.8662109 0 -0.5
vn 0.8662109 0 -0.5
vn 0.8662109 0 -0.5
vn 0 0 -1
vn 0 0 -1
vn 0 0 -1
vn 0 0 -1
vn 0.8662109 0 0.5
vn 0.8662109 0 0.5
vn 0.8662109 0 0.5
vn 0.8662109 0 0.5
vn 0 0 1
vn 0 0 1
vn 0 0 1
vn 0 0 1
vn -0.8662109 0 0.5
vn -0.8662109 0 0.5
vn -0.8662109 0 0.5
vn -0.8662109 0 0.5
vn -0.8662109 0 -0.5
vn -0.8662109 0 -0.5
vn -0.8662109 0 -0.5
vn -0.8662109 0 -0.5
vn 0 0 -1
vn 0 0 -1
vn 0 0 -1
vn 0 0 -1
vn 0.8662109 0 -0.5
vn 0.8662109 0 -0.5
vn 0.8662109 0 -0.5
vn 0.8662109 0 -0.5
g SM_Prop_Stool_01_0
f 8/8/8 7/7/7 2/2/2
f 3/3/3 8/8/8 2/2/2
f 9/9/9 64/64/64 63/63/63
f 4/4/4 9/9/9 63/63/63
f 10/10/10 66/66/66 65/65/65
f 5/5/5 10/10/10 65/65/65
f 11/11/11 68/68/68 67/67/67
f 6/6/6 11/11/11 67/67/67
f 12/12/12 70/70/70 69/69/69
f 1/1/1 12/12/12 69/69/69
f 73/73/73 72/72/72 71/71/71
f 74/74/74 73/73/73 71/71/71
f 89/89/89 88/88/88 87/87/87
f 90/90/90 89/89/89 87/87/87
f 93/93/93 92/92/92 91/91/91
f 94/94/94 93/93/93 91/91/91
f 97/97/97 96/96/96 95/95/95
f 98/98/98 97/97/97 95/95/95
f 101/101/101 100/100/100 99/99/99
f 102/102/102 101/101/101 99/99/99
f 105/105/105 104/104/104 103/103/103
f 106/106/106 105/105/105 103/103/103
f 109/109/109 108/108/108 107/107/107
f 110/110/110 109/109/109 107/107/107
f 40/40/40 41/41/41 38/38/38
f 39/39/39 40/40/40 38/38/38
f 43/43/43 112/112/112 111/111/111
f 42/42/42 43/43/43 111/111/111
f 45/45/45 114/114/114 113/113/113
f 44/44/44 45/45/45 113/113/113
f 47/47/47 116/116/116 115/115/115
f 46/46/46 47/47/47 115/115/115
f 49/49/49 118/118/118 117/117/117
f 48/48/48 49/49/49 117/117/117
f 121/121/121 120/120/120 119/119/119
f 122/122/122 121/121/121 119/119/119
f 61/61/61 62/62/62 56/56/56
f 51/51/51 61/61/61 56/56/56
f 60/60/60 130/130/130 129/129/129
f 52/52/52 60/60/60 129/129/129
f 59/59/59 132/132/132 131/131/131
f 53/53/53 59/59/59 131/131/131
f 58/58/58 134/134/134 133/133/133
f 54/54/54 58/58/58 133/133/133
f 57/57/57 136/136/136 135/135/135
f 55/55/55 57/57/57 135/135/135
f 139/139/139 138/138/138 137/137/137
f 140/140/140 139/139/139 137/137/137
f 142/142/142 141/141/141 32/32/32
f 33/33/33 142/142/142 32/32/32
f 145/145/145 144/144/144 143/143/143
f 34/34/34 145/145/145 143/143/143
f 148/148/148 147/147/147 146/146/146
f 35/35/35 148/148/148 146/146/146
f 151/151/151 150/150/150 149/149/149
f 36/36/36 151/151/151 149/149/149
f 154/154/154 153/153/153 152/152/152
f 37/37/37 154/154/154 152/152/152
f 157/157/157 156/156/156 155/155/155
f 158/158/158 157/157/157 155/155/155
f 161/161/161 160/160/160 159/159/159
f 162/162/162 161/161/161 159/159/159
f 165/165/165 164/164/164 163/163/163
f 166/166/166 165/165/165 163/163/163
f 169/169/169 168/168/168 167/167/167
f 170/170/170 169/169/169 167/167/167
f 173/173/173 172/172/172 171/171/171
f 174/174/174 173/173/173 171/171/171
f 177/177/177 176/176/176 175/175/175
f 178/178/178 177/177/177 175/175/175
f 181/181/181 180/180/180 179/179/179
f 182/182/182 181/181/181 179/179/179
f 185/185/185 184/184/184 183/183/183
f 186/186/186 185/185/185 183/183/183
f 189/189/189 188/188/188 187/187/187
f 190/190/190 189/189/189 187/187/187
f 193/193/193 192/192/192 191/191/191
f 194/194/194 193/193/193 191/191/191
f 197/197/197 196/196/196 195/195/195
f 198/198/198 197/197/197 195/195/195
f 201/201/201 200/200/200 199/199/199
f 202/202/202 201/201/201 199/199/199
f 205/205/205 204/204/204 203/203/203
f 206/206/206 205/205/205 203/203/203
f 25/25/25 31/31/31 26/26/26
f 26/26/26 31/31/31 27/27/27
f 30/30/30 31/31/31 25/25/25
f 27/27/27 31/31/31 28/28/28
f 29/29/29 31/31/31 30/30/30
f 28/28/28 31/31/31 29/29/29
f 124/124/124 50/50/50 123/123/123
f 123/123/123 50/50/50 128/128/128
f 125/125/125 50/50/50 124/124/124
f 128/128/128 50/50/50 127/127/127
f 126/126/126 50/50/50 125/125/125
f 127/127/127 50/50/50 126/126/126
f 13/13/13 14/14/14 75/75/75
f 76/76/76 13/13/13 75/75/75
f 75/75/75 14/14/14 80/80/80
f 15/15/15 13/13/13 76/76/76
f 14/14/14 18/18/18 80/80/80
f 77/77/77 15/15/15 76/76/76
f 80/80/80 18/18/18 79/79/79
f 16/16/16 15/15/15 77/77/77
f 18/18/18 17/17/17 79/79/79
f 78/78/78 16/16/16 77/77/77
f 79/79/79 17/17/17 78/78/78
f 17/17/17 16/16/16 78/78/78
f 20/20/20 19/19/19 81/81/81
f 82/82/82 20/20/20 81/81/81
f 81/81/81 19/19/19 86/86/86
f 21/21/21 20/20/20 82/82/82
f 19/19/19 24/24/24 86/86/86
f 83/83/83 21/21/21 82/82/82
f 86/86/86 24/24/24 85/85/85
f 22/22/22 21/21/21 83/83/83
f 24/24/24 23/23/23 85/85/85
f 84/84/84 22/22/22 83/83/83
f 85/85/85 23/23/23 84/84/84
f 23/23/23 22/22/22 84/84/84
