g SM_Prop_Wall_Panel_Small_02
v -0.2370777 -0.2370777 0.1092244
v 0.2370776 -0.2370777 0.1092244
v -0.23512 0.2295839 0.08737192
v 0.2370776 0.2370779 0.1092244
v -0.2503533 0.2503532 -3.814697E-07
v 0.2503532 0.2503532 -3.814697E-07
v -0.2503533 -0.1997923 -3.814697E-07
v 0.2503532 -0.2503532 -3.814697E-07
v -0.0247561 -0.02475624 0.2079563
v -0.2503533 -0.2503532 0.08737915
v 0.2503532 0.2503532 0.08737898
v 0.2503532 -0.2503532 0.08737915
v -0.04970543 0.0497057 0.1963556
v 0.02847805 0.02847824 0.2062267
v 0.01855071 -0.01855049 0.2108431
v 0.151546 0.1515463 0.148997
v 0.07525192 0.07525215 0.1844748
v 0.0983438 0.1339033 0.1572014
v 0.1412767 0.08119869 0.1537735
v 0.2503532 0.01044521 0.08737908
v 0.2503532 -0.1536898 0.08737911
v 0.2370777 -0.1151394 0.1092244
v 0.2370776 -0.02359581 0.1092244
v 0.2117207 -0.06663627 0.1210157
v 0.2503532 -0.07389641 0.05191812
v 0.2306734 -0.07427311 0.08737909
v 0.2503532 0.1067938 0.08737903
v 0.2503532 0.03093166 0.08737903
v 0.2370776 0.06832294 0.1092244
v 0.2503532 0.08032856 0.06282878
v -0.1776048 -0.2370777 0.1092244
v -0.01930003 -0.2370777 0.1092244
v -0.08818994 -0.2503532 0.08737915
v -0.08121791 -0.2175808 0.1182907
v -0.1866479 0.2503532 0.08737911
v -0.2064007 0.2370779 0.1092244
v -0.2188803 0.2188803 0.1176855
v -0.2370777 0.1993166 0.1092244
v -0.2503533 0.1713179 0.08737915
v -0.2503533 0.2503532 0.06148195
v -0.2053758 -0.2503532 -3.814697E-07
v -0.2503532 -0.2503532 0.04107456
v 0.2503532 0.2503532 -3.814697E-07
v -0.2503533 0.2503532 -3.814697E-07
v -0.2503533 -0.1997923 -3.814697E-07
v -0.2053758 -0.2503532 -3.814697E-07
v 0.2503532 -0.2503532 -3.814697E-07
v 0.01855071 -0.01855049 0.2108431
v 0.2370776 -0.2370777 0.1092244
v -0.0247561 -0.02475624 0.2079563
v -0.2370777 -0.2370777 0.1092244
v 0.2503532 0.2503532 0.08737898
v 0.2370776 0.2370779 0.1092244
v -0.2064007 0.2370779 0.1092244
v -0.1866479 0.2503532 0.08737911
v 0.2503532 -0.1536898 0.08737911
v 0.2503532 -0.2503532 0.08737915
v 0.2370776 -0.2370777 0.1092244
v 0.2370777 -0.1151394 0.1092244
v -0.0247561 -0.02475624 0.2079563
v -0.04970543 0.0497057 0.1963556
v 0.01855071 -0.01855049 0.2108431
v 0.0983438 0.1339033 0.1572014
v 0.151546 0.1515463 0.148997
v 0.2503532 -0.1536898 0.08737911
v 0.2370777 -0.1151394 0.1092244
v 0.2117207 -0.06663627 0.1210157
v 0.2503532 -0.1536898 0.08737911
v 0.2306734 -0.07427311 0.08737909
v 0.2503532 -0.07389641 0.05191812
v 0.2306734 -0.07427311 0.08737909
v 0.2503532 -0.07389641 0.05191812
v 0.2503532 0.01044521 0.08737908
v 0.2306734 -0.07427311 0.08737909
v 0.2117207 -0.06663627 0.1210157
v 0.2503532 0.2503532 0.08737898
v 0.2370776 0.2370779 0.1092244
v 0.2503532 0.01044521 0.08737908
v 0.2370776 -0.02359581 0.1092244
v 0.2503532 0.03093166 0.08737903
v 0.2370776 0.06832294 0.1092244
v 0.2370776 0.06832294 0.1092244
v 0.2503532 0.1067938 0.08737903
v 0.2503532 0.08032856 0.06282878
v -0.08121791 -0.2175808 0.1182907
v -0.2503533 -0.2503532 0.08737915
v -0.2370777 -0.2370777 0.1092244
v -0.1776048 -0.2370777 0.1092244
v -0.08818994 -0.2503532 0.08737915
v -0.01930003 -0.2370777 0.1092244
v 0.2370776 -0.2370777 0.1092244
v 0.2503532 -0.2503532 0.08737915
v -0.01930003 -0.2370777 0.1092244
v -0.08818994 -0.2503532 0.08737915
v -0.08121791 -0.2175808 0.1182907
v -0.2064007 0.2370779 0.1092244
v -0.1866479 0.2503532 0.08737911
v -0.23512 0.2295839 0.08737192
v -0.2064007 0.2370779 0.1092244
v -0.2188803 0.2188803 0.1176855
v -0.2370777 0.1993166 0.1092244
v -0.23512 0.2295839 0.08737192
v -0.2188803 0.2188803 0.1176855
v -0.23512 0.2295839 0.08737192
v -0.2370777 0.1993166 0.1092244
v -0.2503533 0.1713179 0.08737915
v -0.2503533 0.2503532 0.06148195
v -0.23512 0.2295839 0.08737192
v -0.2503533 0.1713179 0.08737915
v -0.1866479 0.2503532 0.08737911
v -0.23512 0.2295839 0.08737192
v -0.2503533 0.2503532 0.06148195
v -0.2503532 -0.2503532 0.04107456
v -0.2503533 -0.2503532 0.08737915
v -0.08818994 -0.2503532 0.08737915
v -0.2053758 -0.2503532 -3.814697E-07
v -0.2503533 0.1713179 0.08737915
v -0.2503533 -0.2503532 0.08737915
v -0.2503532 -0.2503532 0.04107456
v -0.2503533 -0.1997923 -3.814697E-07
v -0.2503533 0.2503532 -3.814697E-07
v -0.2503533 0.2503532 0.06148195
v 0.0983438 0.1339033 0.1572014
v 0.1412767 0.08119869 0.1537735
v -0.2370777 -0.2370777 0.1092244
v -0.1776048 -0.2370777 0.1092244
v 0.02847805 0.02847824 0.2062267
v 0.07525192 0.07525215 0.1844748
v 0.1412767 0.08119869 0.1537735
v 0.2370776 0.2370779 0.1092244
v 0.2370776 0.06832294 0.1092244
v 0.151546 0.1515463 0.148997
v 0.2370776 -0.02359581 0.1092244
v 0.2503532 0.01044521 0.08737908
v 0.2503532 0.03093166 0.08737903
v 0.2503532 0.08032856 0.06282878
v 0.2503532 0.2503532 -3.814697E-07
v 0.2503532 0.1067938 0.08737903
v 0.2503532 0.2503532 0.08737898
v 0.07525192 0.07525215 0.1844748
v 0.02847805 0.02847824 0.2062267
v -0.04970543 0.0497057 0.1963556
v 0.2503532 -0.2503532 0.08737915
v 0.2503532 -0.2503532 -3.814697E-07
v -0.2370777 0.1993166 0.1092244
v -0.2188803 0.2188803 0.1176855
vt 0.2449951 0.3554688
vt 0.2449951 0.3554688
vt 0.2449951 0.3554688
vt 0.2449951 0.3554688
vt 0.2449951 0.3554688
vt 0.2449951 0.3554688
vt 0.2449951 0.3554688
vt 0.2449951 0.3554688
vt 0.2449951 0.3554688
vt 0.2449951 0.3554688
vt 0.2449951 0.3554688
vt 0.2449951 0.3554688
vt 0.2449951 0.3554688
vt 0.2449951 0.3554688
vt 0.2449951 0.3554688
vt 0.2449951 0.3554688
vt 0.2449951 0.3554688
vt 0.2449951 0.3554688
vt 0.2449951 0.3554688
vt 0.2449951 0.3554688
vt 0.2449951 0.3554688
vt 0.2449951 0.3554688
vt 0.2449951 0.3554688
vt 0.2449951 0.3554688
vt 0.2449951 0.3554688
vt 0.2449951 0.3554688
vt 0.2449951 0.3554688
vt 0.2449951 0.3554688
vt 0.2449951 0.3554688
vt 0.2449951 0.3554688
vt 0.2449951 0.3554688
vt 0.2449951 0.3554688
vt 0.2449951 0.3554688
vt 0.2449951 0.3554688
vt 0.2449951 0.3554688
vt 0.2449951 0.3554688
vt 0.2449951 0.3554688
vt 0.2449951 0.3554688
vt 0.2449951 0.3554688
vt 0.2449951 0.3554688
vt 0.2449951 0.3554688
vt 0.2449951 0.3554688
vt 0.2449951 0.3554688
vt 0.2449951 0.3554688
vt 0.2449951 0.3554688
vt 0.2449951 0.3554688
vt 0.2449951 0.3554688
vt 0.2449951 0.3554688
vt 0.2449951 0.3554688
vt 0.2449951 0.3554688
vt 0.2449951 0.3554688
vt 0.2449951 0.3554688
vt 0.2449951 0.3554688
vt 0.2449951 0.3554688
vt 0.2449951 0.3554688
vt 0.2449951 0.3554688
vt 0.2449951 0.3554688
vt 0.2449951 0.3554688
vt 0.2449951 0.3554688
vt 0.2449951 0.3554688
vt 0.2449951 0.3554688
vt 0.2449951 0.3554688
vt 0.2449951 0.3554688
vt 0.2449951 0.3554688
vt 0.2449951 0.3554688
vt 0.2449951 0.3554688
vt 0.2449951 0.3554688
vt 0.2449951 0.3554688
vt 0.2449951 0.3554688
vt 0.2449951 0.3554688
vt 0.2449951 0.3554688
vt 0.2449951 0.3554688
vt 0.2449951 0.3554688
vt 0.2449951 0.3554688
vt 0.2449951 0.3554688
vt 0.2449951 0.3554688
vt 0.2449951 0.3554688
vt 0.2449951 0.3554688
vt 0.2449951 0.3554688
vt 0.2449951 0.3554688
vt 0.2449951 0.3554688
vt 0.2449951 0.3554688
vt 0.2449951 0.3554688
vt 0.2449951 0.3554688
vt 0.2449951 0.3554688
vt 0.2449951 0.3554688
vt 0.2449951 0.3554688
vt 0.2449951 0.3554688
vt 0.2449951 0.3554688
vt 0.2449951 0.3554688
vt 0.2449951 0.3554688
vt 0.2449951 0.3554688
vt 0.2449951 0.3554688
vt 0.2449951 0.3554688
vt 0.2449951 0.3554688
vt 0.2449951 0.3554688
vt 0.2449951 0.3554688
vt 0.2449951 0.3554688
vt 0.2449951 0.3554688
vt 0.2449951 0.3554688
vt 0.2449951 0.3554688
vt 0.2449951 0.3554688
vt 0.2449951 0.3554688
vt 0.2449951 0.3554688
vt 0.2449951 0.3554688
vt 0.2449951 0.3554688
vt 0.2449951 0.3554688
vt 0.2449951 0.3554688
vt 0.2449951 0.3554688
vt 0.2449951 0.3554688
vt 0.2449951 0.3554688
vt 0.2449951 0.3554688
vt 0.2449951 0.3554688
vt 0.2449951 0.3554688
vt 0.2449951 0.3554688
vt 0.2449951 0.3554688
vt 0.2449951 0.3554688
vt 0.2449951 0.3554688
vt 0.2449951 0.3554688
vt 0.2449951 0.3554688
vt 0.2449951 0.3554688
vt 0.2449951 0.3554688
vt 0.2449951 0.3554688
vt 0.2449951 0.3554688
vt 0.2449951 0.3554688
vt 0.2449951 0.3554688
vt 0.2449951 0.3554688
vt 0.2449951 0.3554688
vt 0.2449951 0.3554688
vt 0.2449951 0.3554688
vt 0.2449951 0.3554688
vt 0.2449951 0.3554688
vt 0.2449951 0.3554688
vt 0.2449951 0.3554688
vt 0.2449951 0.3554688
vt 0.2449951 0.3554688
vt 0.2449951 0.3554688
vt 0.2449951 0.3554688
vt 0.2449951 0.3554688
vt 0.2449951 0.3554688
vt 0.2449951 0.3554688
vt 0.2449951 0.3554688
vt 0.2449951 0.3554688
vt 0.2449951 0.3554688
vt 0.2449951 0.3554688
vt 0.2449951 0.3554688
vn -0.4216309 0 0.9067383
vn 0.4216309 0 0.9067383
vn -0.3859863 0.9008789 0.1983643
vn 0 0.4216309 0.9067383
vn 0 1 0
vn 0 1 0
vn 0 0 -1
vn 0 0 -1
vn -7.748604E-06 -0.4216309 0.9067383
vn -0.8544922 0 0.5195313
vn 0 1 0
vn 1 0 0
vn -0.4216309 0 0.9067383
vn -0.08685303 0.1189575 0.9892578
vn 0.4216309 6.079674E-06 0.9067383
vn 0 0.4216309 0.9067383
vn 0.3879395 0.2585449 0.8847656
vn 0 0.4216309 0.9067383
vn 0.1369629 0.04718018 0.9892578
vn 0.8579102 -0.1992188 0.473877
vn 1 0 0
vn 0.4216309 0 0.9067383
vn 0.8823242 -0.2758789 0.3813477
vn 0.4216309 0 0.9067383
vn 1 0 0
vn 0.9121094 0.2949219 0.2844238
vn 0.8544922 0 0.5195313
vn 0.8544922 0 0.5195313
vn 0.8544922 0 0.5195313
vn 0.9389648 0.1531982 0.3083496
vn 0.0725708 -0.6923828 0.7177734
vn -7.748604E-06 -0.4216309 0.9067383
vn 0.0725708 -0.6923828 0.7177734
vn 0 -0.4216309 0.9067383
vn 0 1 0
vn -3.695488E-06 0.4216309 0.9067383
vn -5.841255E-06 0.4216309 0.9067383
vn -0.8544922 0 0.5195313
vn -0.8544922 0 0.5195313
vn 0 1 0
vn 0 0 -1
vn -0.578125 -0.5146484 -0.6333008
vn 0 0 -1
vn 0 0 -1
vn -0.578125 -0.5146484 -0.6333008
vn -0.578125 -0.5146484 -0.6333008
vn 1 0 0
vn -1.15633E-05 -0.4216309 0.9067383
vn 0 -0.4216309 0.9067383
vn -0.4216309 0 0.9067383
vn -0.8544922 0 0.5195313
vn 0 0.8544922 0.5195313
vn 0 0.8544922 0.5195313
vn 0 0.8544922 0.5195313
vn 0 0.8544922 0.5195313
vn 0.8544922 0 0.5195313
vn 0.8544922 0 0.5195313
vn 0.8544922 0 0.5195313
vn 0.8544922 0 0.5195313
vn -0.08685303 0.1189575 0.9892578
vn -0.09124756 0.1233521 0.9882813
vn -0.08239746 0.114563 0.9902344
vn 0.1369629 0.04718018 0.9892578
vn 0.1369629 0.04718018 0.9892578
vn 0.9121094 0.2949219 0.2844238
vn 0.9121094 0.2949219 0.2844238
vn 0.9121094 0.2949219 0.2844238
vn 0.8535156 0.2115479 0.4760742
vn 0.8535156 0.2115479 0.4760742
vn 0.8535156 0.2115479 0.4760742
vn 0.8579102 -0.1992188 0.473877
vn 0.8579102 -0.1992188 0.473877
vn 0.8823242 -0.2758789 0.3813477
vn 0.8823242 -0.2758789 0.3813477
vn 0.8823242 -0.2758789 0.3813477
vn 0.8544922 0 0.5195313
vn 0.8544922 0 0.5195313
vn 0.8544922 0 0.5195313
vn 0.8544922 0 0.5195313
vn 0.9389648 0.1531982 0.3083496
vn 0.9389648 0.1531982 0.3083496
vn 0.9541016 -0.2042236 0.2200928
vn 0.9541016 -0.2042236 0.2200928
vn 0.9541016 -0.2042236 0.2200928
vn 0.0725708 -0.6923828 0.7177734
vn 0 -0.8544922 0.5195313
vn 0 -0.8544922 0.5195313
vn 0 -0.8544922 0.5195313
vn 0 -0.8544922 0.5195313
vn 0 -0.8544922 0.5195313
vn 0 -0.8544922 0.5195313
vn 0 -0.8544922 0.5195313
vn -0.1036377 -0.6708984 0.734375
vn -0.1036377 -0.6708984 0.734375
vn -0.1036377 -0.6708984 0.734375
vn -0.3859863 0.9008789 0.1983643
vn -0.3859863 0.9008789 0.1983643
vn -0.5664063 0.6333008 0.5273438
vn -0.5664063 0.6333008 0.5273438
vn -0.5664063 0.6333008 0.5273438
vn -0.7197266 0.4362793 0.5395508
vn -0.7197266 0.4362793 0.5395508
vn -0.7197266 0.4362793 0.5395508
vn -0.9355469 0.2446289 0.2548828
vn -0.9355469 0.2446289 0.2548828
vn -0.9355469 0.2446289 0.2548828
vn -0.765625 0.2003174 0.6113281
vn -0.765625 0.2003174 0.6113281
vn -0.765625 0.2003174 0.6113281
vn -0.282959 0.6601563 0.6958008
vn -0.282959 0.6601563 0.6958008
vn -0.282959 0.6601563 0.6958008
vn 0 -1 0
vn 0 -1 0
vn 0 -1 0
vn 0 -1 0
vn -1 0 0
vn -1 0 0
vn -1 0 0
vn -1 0 0
vn -1 0 0
vn -1 0 0
vn 0.3879395 0.2585449 0.8847656
vn 0.3879395 0.2585449 0.8847656
vn 0 -0.4216309 0.9067383
vn 0 -0.4216309 0.9067383
vn 0.4216309 1.853704E-05 0.9067383
vn 0.4216309 1.853704E-05 0.9067383
vn 0.4216309 4.172325E-06 0.9067383
vn 0.4216309 0 0.9067383
vn 0.4216309 0 0.9067383
vn 0.4216309 0 0.9067383
vn 0.4216309 0 0.9067383
vn 1 0 0
vn 1 0 0
vn 1 0 0
vn 1 0 0
vn 1 0 0
vn 1 0 0
vn 0 0.4216309 0.9067383
vn 0 0.4216309 0.9067383
vn 5.304813E-06 0.4216309 0.9067383
vn 0 -1 0
vn 0 -1 0
vn -0.4216309 0 0.9067383
vn -0.4216309 0 0.9067383
g SM_Prop_Wall_Panel_Small_02_0
f 46/46/46 42/42/42 45/45/45
f 19/19/19 64/64/64 63/63/63
f 70/70/70 69/69/69 68/68/68
f 72/72/72 20/20/20 71/71/71
f 30/30/30 81/81/81 80/80/80
f 84/84/84 83/83/83 82/82/82
f 85/85/85 31/31/31 33/33/33
f 95/95/95 94/94/94 93/93/93
f 97/97/97 3/3/3 96/96/96
f 100/100/100 99/99/99 98/98/98
f 103/103/103 102/102/102 101/101/101
f 106/106/106 105/105/105 104/104/104
f 109/109/109 108/108/108 107/107/107
f 112/112/112 111/111/111 110/110/110
f 124/124/124 123/123/123 17/17/17
f 2/2/2 22/22/22 24/24/24
f 15/15/15 2/2/2 24/24/24
f 129/129/129 15/15/15 24/24/24
f 129/129/129 24/24/24 133/133/133
f 133/133/133 131/131/131 129/129/129
f 129/129/129 131/131/131 130/130/130
f 132/132/132 129/129/129 130/130/130
f 129/129/129 128/128/128 15/15/15
f 128/128/128 127/127/127 15/15/15
f 6/6/6 5/5/5 40/40/40
f 40/40/40 11/11/11 6/6/6
f 40/40/40 35/35/35 11/11/11
f 43/43/43 8/8/8 41/41/41
f 41/41/41 44/44/44 43/43/43
f 41/41/41 7/7/7 44/44/44
f 21/21/21 12/12/12 47/47/47
f 25/25/25 21/21/21 47/47/47
f 25/25/25 47/47/47 137/137/137
f 136/136/136 25/25/25 137/137/137
f 138/138/138 136/136/136 137/137/137
f 139/139/139 138/138/138 137/137/137
f 136/136/136 135/135/135 25/25/25
f 135/135/135 134/134/134 25/25/25
f 32/32/32 49/49/49 48/48/48
f 48/48/48 9/9/9 32/32/32
f 9/9/9 34/34/34 32/32/32
f 34/34/34 9/9/9 125/125/125
f 126/126/126 34/34/34 125/125/125
f 16/16/16 4/4/4 36/36/36
f 36/36/36 18/18/18 16/16/16
f 36/36/36 37/37/37 18/18/18
f 37/37/37 142/142/142 18/18/18
f 142/142/142 141/141/141 18/18/18
f 141/141/141 140/140/140 18/18/18
f 50/50/50 13/13/13 1/1/1
f 13/13/13 146/146/146 1/1/1
f 146/146/146 145/145/145 1/1/1
f 10/10/10 51/51/51 38/38/38
f 39/39/39 10/10/10 38/38/38
f 54/54/54 53/53/53 52/52/52
f 55/55/55 54/54/54 52/52/52
f 58/58/58 57/57/57 56/56/56
f 59/59/59 58/58/58 56/56/56
f 61/61/61 60/60/60 14/14/14
f 14/14/14 60/60/60 62/62/62
f 66/66/66 65/65/65 26/26/26
f 67/67/67 66/66/66 26/26/26
f 75/75/75 74/74/74 73/73/73
f 23/23/23 75/75/75 73/73/73
f 29/29/29 27/27/27 76/76/76
f 77/77/77 29/29/29 76/76/76
f 29/29/29 79/79/79 28/28/28
f 79/79/79 78/78/78 28/28/28
f 88/88/88 87/87/87 86/86/86
f 89/89/89 88/88/88 86/86/86
f 89/89/89 92/92/92 90/90/90
f 92/92/92 91/91/91 90/90/90
f 115/115/115 114/114/114 113/113/113
f 116/116/116 115/115/115 113/113/113
f 116/116/116 144/144/144 115/115/115
f 144/144/144 143/143/143 115/115/115
f 119/119/119 118/118/118 117/117/117
f 117/117/117 120/120/120 119/119/119
f 117/117/117 121/121/121 120/120/120
f 117/117/117 122/122/122 121/121/121
