g SM_Prop_Sidewalk_Panel_02
v 0.3722534 0 -0.372263
v 0.3033066 0.04501697 -0.3023863
v -0.3271637 0.04501697 -0.3271437
v -0.3722687 0 -0.372263
v 0.03924561 0.05811012 -0.1495976
v 0.04051208 0.05811012 -0.1082015
v -0.04704285 0.05811012 -0.1055236
v -0.04830933 0.05811012 -0.1469121
v 0.3271408 0.04501697 0.3271465
v 0.3722534 0 0.3722577
v -0.3722687 0 0.3722577
v -0.3114929 0.04501697 0.2920055
v -0.3722687 0 -0.372263
v -0.3271637 0.04501697 -0.3271437
v -0.3025589 0.04501697 0.03538275
v -0.3722687 0 0.02758026
v -0.3722687 0 0.3722577
v -0.3114929 0.04501697 0.2920055
v 0.3722534 0 0.1402869
v 0.3071747 0.04501697 0.1517777
v 0.3033066 0.04501697 -0.3023863
v 0.3722534 0 -0.372263
v 0.2098465 0.04501697 -0.2231164
v 0.2001114 0.05502507 -0.2127652
v -0.2092133 0.05502507 -0.1980176
v -0.2231293 0.04501697 -0.2098565
v -0.2231293 0.04501697 -0.2098565
v -0.2092133 0.05502507 -0.1980176
v -0.1981659 0.05502507 -0.08927679
v -0.2148285 0.04501697 -0.08744097
v -0.2165833 0.04501697 0.2379704
v -0.200119 0.05502507 0.2127657
v -0.2165833 0.04501697 0.2379704
v -0.200119 0.05502507 0.2127657
v 0.2127609 0.05502507 0.2001228
v 0.2231216 0.04501697 0.209856
v 0.2256088 0.04501697 0.001866341
v 0.2001114 0.05502507 -0.2127652
v 0.2098465 0.04501697 -0.2231164
v 0.2114029 0.05502507 0.001396656
v 0.2231216 0.04501697 0.209856
v 0.2127609 0.05502507 0.2001228
v 0.1850204 0.05502507 -0.1966739
v 0.1785355 0.04232407 -0.1898174
v -0.189827 0.04232407 -0.1785412
v -0.1966324 0.05502507 -0.1849856
v -0.1966324 0.05502507 -0.1849856
v -0.189827 0.04232407 -0.1785412
v -0.182579 0.04232407 -0.09082031
v -0.189476 0.05502507 -0.08700848
v -0.1849442 0.05502507 0.1966738
v -0.1785355 0.04232407 0.1898179
v -0.1849442 0.05502507 0.1966738
v -0.1785355 0.04232407 0.1898179
v 0.189827 0.04232407 0.1785417
v 0.1967087 0.05502507 0.184978
v 0.2002563 0.05502507 0.000474453
v 0.1785355 0.04232407 -0.1898174
v 0.1850204 0.05502507 -0.1966739
v 0.1932297 0.04232407 0.0004634857
v 0.1967087 0.05502507 0.184978
v 0.189827 0.04232407 0.1785417
v 0.1697388 0.04232407 -0.1805015
v 0.1452408 0.05811012 -0.1597133
v -0.1698685 0.05811012 -0.1597743
v -0.1805344 0.04232407 -0.1697745
v -0.1805344 0.04232407 -0.1697745
v -0.1698685 0.05811012 -0.1597743
v -0.1519089 0.05811012 -0.0802083
v -0.1735916 0.04232407 -0.09277391
v -0.1698074 0.04232407 0.180501
v -0.1622086 0.05811012 0.1632223
v 0.160408 0.05811012 0.152236
v 0.1804657 0.04232407 0.1697741
v 0.1842194 0.04232407 -2.384186E-06
v 0.1738358 0.05811012 -0.0003838539
v 0.1452408 0.05811012 -0.1597133
v 0.1697388 0.04232407 -0.1805015
v 0.3722534 0 0.3722577
v 0.3271408 0.04501697 0.3271465
v 0.3071747 0.04501697 0.1517777
v 0.3722534 0 0.1402869
v -0.1519089 0.05811012 -0.0802083
v -0.1622086 0.05811012 0.1632223
v -0.1698074 0.04232407 0.180501
v -0.1735916 0.04232407 -0.09277391
v 0.1804657 0.04232407 0.1697741
v 0.160408 0.05811012 0.152236
v 0.1738358 0.05811012 -0.0003838539
v 0.1842194 0.04232407 -2.384186E-06
v -0.3114929 0.04501697 0.2920055
v -0.2165833 0.04501697 0.2379704
v 0.2231216 0.04501697 0.209856
v -0.2148285 0.04501697 -0.08744097
v 0.3271408 0.04501697 0.3271465
v -0.3025589 0.04501697 0.03538275
v 0.2256088 0.04501697 0.001866341
v -0.3271637 0.04501697 -0.3271437
v 0.3071747 0.04501697 0.1517777
v -0.2231293 0.04501697 -0.2098565
v 0.2098465 0.04501697 -0.2231164
v 0.3033066 0.04501697 -0.3023863
v 0.2001114 0.05502507 -0.2127652
v 0.1850204 0.05502507 -0.1966739
v -0.1966324 0.05502507 -0.1849856
v 0.2002563 0.05502507 0.000474453
v -0.2092133 0.05502507 -0.1980176
v 0.2114029 0.05502507 0.001396656
v 0.2127609 0.05502507 0.2001228
v 0.1967087 0.05502507 0.184978
v -0.189476 0.05502507 -0.08700848
v -0.1981659 0.05502507 -0.08927679
v -0.200119 0.05502507 0.2127657
v -0.1849442 0.05502507 0.1966738
v -0.1785355 0.04232407 0.1898179
v -0.1698074 0.04232407 0.180501
v 0.1804657 0.04232407 0.1697741
v -0.1735916 0.04232407 -0.09277391
v 0.189827 0.04232407 0.1785417
v -0.182579 0.04232407 -0.09082031
v 0.1842194 0.04232407 -2.384186E-06
v -0.189827 0.04232407 -0.1785412
v 0.1932297 0.04232407 0.0004634857
v -0.1805344 0.04232407 -0.1697745
v 0.1697388 0.04232407 -0.1805015
v 0.1785355 0.04232407 -0.1898174
v -0.1698685 0.05811012 -0.1597743
v -0.04704285 0.05811012 -0.1055236
v -0.1519089 0.05811012 -0.0802083
v -0.1622086 0.05811012 0.1632223
v -0.04830933 0.05811012 -0.1469121
v 0.1452408 0.05811012 -0.1597133
v 0.03924561 0.05811012 -0.1495976
v 0.1738358 0.05811012 -0.0003838539
v 0.04051208 0.05811012 -0.1082015
v 0.160408 0.05811012 0.152236
vt 0.1046753 0.3293457
vt 0.1046753 0.3293457
vt 0.1046753 0.3293457
vt 0.1046753 0.3293457
vt 0.07983398 0.2318115
vt 0.07983398 0.2318115
vt 0.07983398 0.2318115
vt 0.07983398 0.2318115
vt 0.1046753 0.3293457
vt 0.1046753 0.3293457
vt 0.1046753 0.3293457
vt 0.1046753 0.3293457
vt 0.1046753 0.3293457
vt 0.1046753 0.3293457
vt 0.1046753 0.3293457
vt 0.1046753 0.3293457
vt 0.1046753 0.3293457
vt 0.1046753 0.3293457
vt 0.1046753 0.3293457
vt 0.1046753 0.3293457
vt 0.1046753 0.3293457
vt 0.1046753 0.3293457
vt 0.1202393 0.2751465
vt 0.1202393 0.2751465
vt 0.1202393 0.2751465
vt 0.1202393 0.2751465
vt 0.1202393 0.2751465
vt 0.1202393 0.2751465
vt 0.1202393 0.2751465
vt 0.1202393 0.2751465
vt 0.1202393 0.2751465
vt 0.1202393 0.2751465
vt 0.1202393 0.2751465
vt 0.1202393 0.2751465
vt 0.1202393 0.2751465
vt 0.1202393 0.2751465
vt 0.1202393 0.2751465
vt 0.1202393 0.2751465
vt 0.1202393 0.2751465
vt 0.1202393 0.2751465
vt 0.1202393 0.2751465
vt 0.1202393 0.2751465
vt 0.1202393 0.2751465
vt 0.1202393 0.2751465
vt 0.1202393 0.2751465
vt 0.1202393 0.2751465
vt 0.1202393 0.2751465
vt 0.1202393 0.2751465
vt 0.1202393 0.2751465
vt 0.1202393 0.2751465
vt 0.1202393 0.2751465
vt 0.1202393 0.2751465
vt 0.1202393 0.2751465
vt 0.1202393 0.2751465
vt 0.1202393 0.2751465
vt 0.1202393 0.2751465
vt 0.1202393 0.2751465
vt 0.1202393 0.2751465
vt 0.1202393 0.2751465
vt 0.1202393 0.2751465
vt 0.1202393 0.2751465
vt 0.1202393 0.2751465
vt 0.1202393 0.2751465
vt 0.1202393 0.2751465
vt 0.1202393 0.2751465
vt 0.1202393 0.2751465
vt 0.1202393 0.2751465
vt 0.1202393 0.2751465
vt 0.1202393 0.2751465
vt 0.1202393 0.2751465
vt 0.1202393 0.2751465
vt 0.1202393 0.2751465
vt 0.1202393 0.2751465
vt 0.1202393 0.2751465
vt 0.1202393 0.2751465
vt 0.1202393 0.2751465
vt 0.1202393 0.2751465
vt 0.1202393 0.2751465
vt 0.1046753 0.3293457
vt 0.1046753 0.3293457
vt 0.1046753 0.3293457
vt 0.1046753 0.3293457
vt 0.1202393 0.2751465
vt 0.1202393 0.2751465
vt 0.1202393 0.2751465
vt 0.1202393 0.2751465
vt 0.1202393 0.2751465
vt 0.1202393 0.2751465
vt 0.1202393 0.2751465
vt 0.1202393 0.2751465
vt 0.1046753 0.3293457
vt 0.1046753 0.3293457
vt 0.1046753 0.3293457
vt 0.1046753 0.3293457
vt 0.1046753 0.3293457
vt 0.1046753 0.3293457
vt 0.1046753 0.3293457
vt 0.1046753 0.3293457
vt 0.1046753 0.3293457
vt 0.1046753 0.3293457
vt 0.1046753 0.3293457
vt 0.1046753 0.3293457
vt 0.1202393 0.2751465
vt 0.1202393 0.2751465
vt 0.1202393 0.2751465
vt 0.1202393 0.2751465
vt 0.1202393 0.2751465
vt 0.1202393 0.2751465
vt 0.1202393 0.2751465
vt 0.1202393 0.2751465
vt 0.1202393 0.2751465
vt 0.1202393 0.2751465
vt 0.1202393 0.2751465
vt 0.1202393 0.2751465
vt 0.1043701 0.01309204
vt 0.1043701 0.01309204
vt 0.1043701 0.01309204
vt 0.1043701 0.01309204
vt 0.1043701 0.01309204
vt 0.1043701 0.01309204
vt 0.1043701 0.01309204
vt 0.1043701 0.01309204
vt 0.1043701 0.01309204
vt 0.1043701 0.01309204
vt 0.1043701 0.01309204
vt 0.1043701 0.01309204
vt 0.1202393 0.2751465
vt 0.1202393 0.2751465
vt 0.1202393 0.2751465
vt 0.1202393 0.2751465
vt 0.1202393 0.2751465
vt 0.1202393 0.2751465
vt 0.1202393 0.2751465
vt 0.1202393 0.2751465
vt 0.1202393 0.2751465
vt 0.1202393 0.2751465
vn 0.01107025 0.7885742 -0.6152344
vn 0.01107025 0.7885742 -0.6152344
vn 0.01107025 0.7885742 -0.6152344
vn 0.01107025 0.7885742 -0.6152344
vn 0 1 0
vn 0 1 0
vn 0 1 0
vn 0 1 0
vn -0.01478577 0.8129883 0.5820313
vn -0.01478577 0.8129883 0.5820313
vn -0.01478577 0.8129883 0.5820313
vn -0.01478577 0.8129883 0.5820313
vn -0.6225586 0.7822266 0.02009583
vn -0.6225586 0.7822266 0.02009583
vn -0.597168 0.8022461 0.005809784
vn -0.597168 0.8022461 0.005809784
vn -0.5712891 0.8208008 -0.008483887
vn -0.5712891 0.8208008 -0.008483887
vn 0.5566406 0.8305664 -0.002227783
vn 0.5566406 0.8305664 -0.002227783
vn 0.5566406 0.8305664 -0.002227783
vn 0.5566406 0.8305664 -0.002227783
vn -0.02218628 0.7446289 -0.6674805
vn -0.02218628 0.7446289 -0.6674805
vn -0.02218628 0.7446289 -0.6674805
vn -0.02218628 0.7446289 -0.6674805
vn -0.5576172 0.8286133 0.04669189
vn -0.5576172 0.8286133 0.04669189
vn -0.5385742 0.8422852 0.02182007
vn -0.5385742 0.8422852 0.02182007
vn -0.519043 0.8549805 -0.003067017
vn -0.519043 0.8549805 -0.003067017
vn 0.02391052 0.8657227 0.5
vn 0.02391052 0.8657227 0.5
vn 0.02391052 0.8657227 0.5
vn 0.02391052 0.8657227 0.5
vn 0.6313477 0.7753906 -0.01858521
vn 0.6313477 0.7744141 -0.03890991
vn 0.6313477 0.7744141 -0.03890991
vn 0.6313477 0.7753906 -0.01858521
vn 0.6313477 0.7753906 0.001752853
vn 0.6313477 0.7753906 0.001752853
vn 0.02711487 0.4638672 0.8852539
vn 0.02711487 0.4638672 0.8852539
vn 0.02711487 0.4638672 0.8852539
vn 0.02711487 0.4638672 0.8852539
vn 0.8808594 0.4682617 -0.06835938
vn 0.8808594 0.4682617 -0.06835938
vn 0.8823242 0.4685059 -0.04089355
vn 0.8823242 0.4685059 -0.04089355
vn 0.8833008 0.4682617 -0.01342773
vn 0.8833008 0.4682617 -0.01342773
vn -0.02711487 0.4638672 -0.8852539
vn -0.02711487 0.4638672 -0.8852539
vn -0.02711487 0.4638672 -0.8852539
vn -0.02711487 0.4638672 -0.8852539
vn -0.875 0.4833984 0.02536011
vn -0.8730469 0.482666 0.06744385
vn -0.8730469 0.482666 0.06744385
vn -0.875 0.4833984 0.02536011
vn -0.875 0.4833984 -0.01676941
vn -0.875 0.4833984 -0.01676941
vn -0.01151276 0.6953125 -0.7182617
vn -0.01151276 0.6953125 -0.7182617
vn -0.01151276 0.6953125 -0.7182617
vn -0.01151276 0.6953125 -0.7182617
vn -0.734375 0.6689453 0.1167603
vn -0.734375 0.6689453 0.1167603
vn -0.734375 0.6689453 0.1167603
vn -0.734375 0.6689453 0.1167603
vn 0.02153015 0.7446289 0.6674805
vn 0.02153015 0.7446289 0.6674805
vn 0.02153015 0.7446289 0.6674805
vn 0.02153015 0.7446289 0.6674805
vn 0.6420898 0.762207 -0.0814209
vn 0.6420898 0.762207 -0.0814209
vn 0.6420898 0.762207 -0.0814209
vn 0.6420898 0.762207 -0.0814209
vn 0.6381836 0.7695313 -0.03128052
vn 0.6381836 0.7695313 -0.03128052
vn 0.6381836 0.7695313 -0.03128052
vn 0.6381836 0.7695313 -0.03128052
vn -0.7338867 0.6791992 -0.009254456
vn -0.7338867 0.6791992 -0.009254456
vn -0.7338867 0.6791992 -0.009254456
vn -0.7338867 0.6791992 -0.009254456
vn 0.7084961 0.7045898 0.03775024
vn 0.7084961 0.7045898 0.03775024
vn 0.7084961 0.7045898 0.03775024
vn 0.7084961 0.7045898 0.03775024
vn 0 1 0
vn 0 1 0
vn 0 1 0
vn 0 1 0
vn 0 1 0
vn 0 1 0
vn 0 1 0
vn 0 1 0
vn 0 1 0
vn 0 1 0
vn 0 1 0
vn 0 1 0
vn 0 1 0
vn 0 1 0
vn 0 1 0
vn 0 1 0
vn 0 1 0
vn 0 1 0
vn 0 1 0
vn 0 1 0
vn 0 1 0
vn 0 1 0
vn 0 1 0
vn 0 1 0
vn 0 1 0
vn 0 1 0
vn 0 1 0
vn 0 1 0
vn 0 1 0
vn 0 1 0
vn 0 1 0
vn 0 1 0
vn 0 1 0
vn 0 1 0
vn 0 1 0
vn 0 1 0
vn 0 1 0
vn 0 1 0
vn 0 1 0
vn 0 1 0
vn 0 1 0
vn 0 1 0
vn 0 1 0
vn 0 1 0
vn 0 1 0
vn 0 1 0
g SM_Prop_Sidewalk_Panel_02_0
f 3/3/3 2/2/2 1/1/1
f 4/4/4 3/3/3 1/1/1
f 7/7/7 6/6/6 5/5/5
f 8/8/8 7/7/7 5/5/5
f 11/11/11 10/10/10 9/9/9
f 12/12/12 11/11/11 9/9/9
f 15/15/15 14/14/14 13/13/13
f 16/16/16 15/15/15 13/13/13
f 16/16/16 17/17/17 15/15/15
f 17/17/17 18/18/18 15/15/15
f 21/21/21 20/20/20 19/19/19
f 22/22/22 21/21/21 19/19/19
f 25/25/25 24/24/24 23/23/23
f 26/26/26 25/25/25 23/23/23
f 29/29/29 28/28/28 27/27/27
f 30/30/30 29/29/29 27/27/27
f 30/30/30 31/31/31 29/29/29
f 31/31/31 32/32/32 29/29/29
f 35/35/35 34/34/34 33/33/33
f 36/36/36 35/35/35 33/33/33
f 39/39/39 38/38/38 37/37/37
f 38/38/38 40/40/40 37/37/37
f 37/37/37 40/40/40 41/41/41
f 40/40/40 42/42/42 41/41/41
f 45/45/45 44/44/44 43/43/43
f 46/46/46 45/45/45 43/43/43
f 49/49/49 48/48/48 47/47/47
f 50/50/50 49/49/49 47/47/47
f 50/50/50 51/51/51 49/49/49
f 51/51/51 52/52/52 49/49/49
f 55/55/55 54/54/54 53/53/53
f 56/56/56 55/55/55 53/53/53
f 59/59/59 58/58/58 57/57/57
f 58/58/58 60/60/60 57/57/57
f 57/57/57 60/60/60 61/61/61
f 60/60/60 62/62/62 61/61/61
f 65/65/65 64/64/64 63/63/63
f 66/66/66 65/65/65 63/63/63
f 69/69/69 68/68/68 67/67/67
f 70/70/70 69/69/69 67/67/67
f 73/73/73 72/72/72 71/71/71
f 74/74/74 73/73/73 71/71/71
f 77/77/77 76/76/76 75/75/75
f 78/78/78 77/77/77 75/75/75
f 81/81/81 80/80/80 79/79/79
f 82/82/82 81/81/81 79/79/79
f 85/85/85 84/84/84 83/83/83
f 86/86/86 85/85/85 83/83/83
f 89/89/89 88/88/88 87/87/87
f 90/90/90 89/89/89 87/87/87
f 93/93/93 92/92/92 91/91/91
f 91/91/91 92/92/92 94/94/94
f 95/95/95 93/93/93 91/91/91
f 96/96/96 91/91/91 94/94/94
f 97/97/97 93/93/93 95/95/95
f 96/96/96 94/94/94 98/98/98
f 99/99/99 97/97/97 95/95/95
f 94/94/94 100/100/100 98/98/98
f 101/101/101 97/97/97 99/99/99
f 98/98/98 100/100/100 102/102/102
f 102/102/102 101/101/101 99/99/99
f 100/100/100 101/101/101 102/102/102
f 105/105/105 104/104/104 103/103/103
f 103/103/103 104/104/104 106/106/106
f 107/107/107 105/105/105 103/103/103
f 108/108/108 103/103/103 106/106/106
f 108/108/108 106/106/106 109/109/109
f 106/106/106 110/110/110 109/109/109
f 111/111/111 105/105/105 107/107/107
f 112/112/112 111/111/111 107/107/107
f 109/109/109 110/110/110 113/113/113
f 112/112/112 113/113/113 111/111/111
f 110/110/110 114/114/114 113/113/113
f 113/113/113 114/114/114 111/111/111
f 117/117/117 116/116/116 115/115/115
f 115/115/115 116/116/116 118/118/118
f 119/119/119 117/117/117 115/115/115
f 120/120/120 115/115/115 118/118/118
f 121/121/121 117/117/117 119/119/119
f 120/120/120 118/118/118 122/122/122
f 123/123/123 121/121/121 119/119/119
f 118/118/118 124/124/124 122/122/122
f 125/125/125 121/121/121 123/123/123
f 122/122/122 124/124/124 126/126/126
f 126/126/126 125/125/125 123/123/123
f 124/124/124 125/125/125 126/126/126
f 129/129/129 128/128/128 127/127/127
f 129/129/129 130/130/130 128/128/128
f 128/128/128 131/131/131 127/127/127
f 127/127/127 131/131/131 132/132/132
f 131/131/131 133/133/133 132/132/132
f 132/132/132 133/133/133 134/134/134
f 135/135/135 128/128/128 130/130/130
f 133/133/133 135/135/135 134/134/134
f 136/136/136 135/135/135 130/130/130
f 134/134/134 135/135/135 136/136/136
