g SM_Prop_Detail_Pipe_Corner_01
v -0.6489546 1.526757 2.288818E-06
v -0.6087691 1.623774 -7.629394E-07
v -0.6489546 1.720791 2.288818E-06
v -0.7459717 1.760977 7.629394E-07
v -0.8429887 1.720791 -7.629394E-07
v -0.8831756 1.623774 7.629394E-07
v -0.8429887 1.526757 -7.629394E-07
v -0.7459717 1.486571 7.629394E-07
v -0.7459717 1.623774 7.629394E-07
v 0 1.623774 0.60877
v -3.051758E-06 1.720791 0.6489525
v -3.051758E-06 1.760977 0.7459709
v 0 1.720791 0.8429893
v -3.051758E-06 1.623774 0.8831749
v 0 1.526757 0.8429893
v -3.051758E-06 1.486571 0.7459709
v -3.051758E-06 1.526757 0.6489525
v -3.051758E-06 1.623774 0.7459709
v -0.4588806 1.526757 0.4588814
v -0.4304643 1.623774 0.4304649
v -0.4588806 1.720791 0.4588814
v -0.5274811 1.760977 0.5274833
v -0.5960832 1.720791 0.5960838
v -0.6244978 1.623774 0.6244987
v -0.5960832 1.526757 0.5960838
v -0.5274811 1.486571 0.5274833
v -0.5995575 1.526757 0.2483436
v -0.5624298 1.623774 0.2329658
v -0.5995575 1.720791 0.2483436
v -0.689189 1.760977 0.2854698
v -0.7788208 1.720791 0.3225975
v -0.8159468 1.623774 0.3379753
v -0.7788208 1.526757 0.3225975
v -0.689189 1.486571 0.2854698
v -0.3225982 1.526757 0.77882
v -0.3379761 1.623774 0.8159477
v -0.3225982 1.720791 0.77882
v -0.2854706 1.760977 0.6891884
v -0.2483429 1.720791 0.5995567
v -0.2329651 1.623774 0.5624306
v -0.2483429 1.526757 0.5995567
v -0.2854706 1.486571 0.6891884
v -0.4588806 1.720791 0.4588814
v -0.2483429 1.720791 0.5995567
v -0.5274811 1.760977 0.5274833
v -0.2854706 1.760977 0.6891884
v -0.5960832 1.720791 0.5960838
v -0.3225982 1.720791 0.77882
v -0.6244978 1.623774 0.6244987
v -0.3379761 1.623774 0.8159477
v -0.5960832 1.526757 0.5960838
v -0.3225982 1.526757 0.77882
v -0.5274811 1.486571 0.5274833
v -0.2854706 1.486571 0.6891884
v -0.4588806 1.526757 0.4588814
v -0.2483429 1.526757 0.5995567
v -0.2329651 1.623774 0.5624306
v -0.4304643 1.623774 0.4304649
v -0.4588806 1.526757 0.4588814
v -0.4304643 1.623774 0.4304649
v -0.5624298 1.623774 0.2329658
v -0.4304643 1.623774 0.4304649
v -0.4588806 1.720791 0.4588814
v -0.5995575 1.720791 0.2483436
v -0.4588806 1.720791 0.4588814
v -0.5274811 1.760977 0.5274833
v -0.689189 1.760977 0.2854698
v -0.5274811 1.760977 0.5274833
v -0.5960832 1.720791 0.5960838
v -0.7788208 1.720791 0.3225975
v -0.5960832 1.720791 0.5960838
v -0.6244978 1.623774 0.6244987
v -0.8159468 1.623774 0.3379753
v -0.6244978 1.623774 0.6244987
v -0.5960832 1.526757 0.5960838
v -0.7788208 1.526757 0.3225975
v -0.5960832 1.526757 0.5960838
v -0.5274811 1.486571 0.5274833
v -0.689189 1.486571 0.2854698
v -0.5274811 1.486571 0.5274833
v -0.4588806 1.526757 0.4588814
v -0.5995575 1.526757 0.2483436
v -0.6489546 1.526757 2.288818E-06
v -0.5995575 1.526757 0.2483436
v -0.5624298 1.623774 0.2329658
v -0.6087691 1.623774 -7.629394E-07
v -0.6087691 1.623774 -7.629394E-07
v -0.5624298 1.623774 0.2329658
v -0.5995575 1.720791 0.2483436
v -0.6489546 1.720791 2.288818E-06
v -0.6489546 1.720791 2.288818E-06
v -0.5995575 1.720791 0.2483436
v -0.689189 1.760977 0.2854698
v -0.7459717 1.760977 7.629394E-07
v -0.7459717 1.760977 7.629394E-07
v -0.689189 1.760977 0.2854698
v -0.7788208 1.720791 0.3225975
v -0.8429887 1.720791 -7.629394E-07
v -0.8429887 1.720791 -7.629394E-07
v -0.7788208 1.720791 0.3225975
v -0.8159468 1.623774 0.3379753
v -0.8831756 1.623774 7.629394E-07
v -0.8831756 1.623774 7.629394E-07
v -0.8159468 1.623774 0.3379753
v -0.7788208 1.526757 0.3225975
v -0.8429887 1.526757 -7.629394E-07
v -0.8429887 1.526757 -7.629394E-07
v -0.7788208 1.526757 0.3225975
v -0.689189 1.486571 0.2854698
v -0.7459717 1.486571 7.629394E-07
v -0.7459717 1.486571 7.629394E-07
v -0.689189 1.486571 0.2854698
v -0.5995575 1.526757 0.2483436
v -0.6489546 1.526757 2.288818E-06
v -0.3379761 1.623774 0.8159477
v -3.051758E-06 1.623774 0.8831749
v 0 1.526757 0.8429893
v -0.3225982 1.526757 0.77882
v -0.3225982 1.720791 0.77882
v 0 1.720791 0.8429893
v -3.051758E-06 1.623774 0.8831749
v -0.3379761 1.623774 0.8159477
v -0.2854706 1.760977 0.6891884
v -3.051758E-06 1.760977 0.7459709
v 0 1.720791 0.8429893
v -0.3225982 1.720791 0.77882
v -0.2483429 1.720791 0.5995567
v -3.051758E-06 1.720791 0.6489525
v -3.051758E-06 1.760977 0.7459709
v -0.2854706 1.760977 0.6891884
v -0.2329651 1.623774 0.5624306
v 0 1.623774 0.60877
v -3.051758E-06 1.720791 0.6489525
v -0.2483429 1.720791 0.5995567
v -0.2483429 1.526757 0.5995567
v -3.051758E-06 1.526757 0.6489525
v 0 1.623774 0.60877
v -0.2329651 1.623774 0.5624306
v -0.2854706 1.486571 0.6891884
v -3.051758E-06 1.486571 0.7459709
v -3.051758E-06 1.526757 0.6489525
v -0.2483429 1.526757 0.5995567
v -0.3225982 1.526757 0.77882
v 0 1.526757 0.8429893
v -3.051758E-06 1.486571 0.7459709
v -0.2854706 1.486571 0.6891884
vt 0.2456055 0.2768555
vt 0.2456055 0.2768555
vt 0.2456055 0.2768555
vt 0.2456055 0.2768555
vt 0.2456055 0.2768555
vt 0.2456055 0.2768555
vt 0.2456055 0.2768555
vt 0.2456055 0.2768555
vt 0.2456055 0.2768555
vt 0.2462158 0.2788086
vt 0.2462158 0.2788086
vt 0.2462158 0.2788086
vt 0.2462158 0.2788086
vt 0.2462158 0.2788086
vt 0.2462158 0.2788086
vt 0.2462158 0.2788086
vt 0.2462158 0.2788086
vt 0.2462158 0.2788086
vt 0.2456055 0.2768555
vt 0.2456055 0.2768555
vt 0.2456055 0.2768555
vt 0.2456055 0.2768555
vt 0.2456055 0.2768555
vt 0.2456055 0.2768555
vt 0.2456055 0.2768555
vt 0.2456055 0.2768555
vt 0.2456055 0.2768555
vt 0.2456055 0.2768555
vt 0.2456055 0.2768555
vt 0.2456055 0.2768555
vt 0.2456055 0.2768555
vt 0.2456055 0.2768555
vt 0.2456055 0.2768555
vt 0.2456055 0.2768555
vt 0.2456055 0.2768555
vt 0.2456055 0.2768555
vt 0.2456055 0.2768555
vt 0.2456055 0.2768555
vt 0.2456055 0.2768555
vt 0.2456055 0.2768555
vt 0.2456055 0.2768555
vt 0.2456055 0.2768555
vt 0.2456055 0.2768555
vt 0.2456055 0.2768555
vt 0.2456055 0.2768555
vt 0.2456055 0.2768555
vt 0.2456055 0.2768555
vt 0.2456055 0.2768555
vt 0.2456055 0.2768555
vt 0.2456055 0.2768555
vt 0.2456055 0.2768555
vt 0.2456055 0.2768555
vt 0.2456055 0.2768555
vt 0.2456055 0.2768555
vt 0.2456055 0.2768555
vt 0.2456055 0.2768555
vt 0.2456055 0.2768555
vt 0.2456055 0.2768555
vt 0.2456055 0.2768555
vt 0.2456055 0.2768555
vt 0.2456055 0.2768555
vt 0.2456055 0.2768555
vt 0.2456055 0.2768555
vt 0.2456055 0.2768555
vt 0.2456055 0.2768555
vt 0.2456055 0.2768555
vt 0.2456055 0.2768555
vt 0.2456055 0.2768555
vt 0.2456055 0.2768555
vt 0.2456055 0.2768555
vt 0.2456055 0.2768555
vt 0.2456055 0.2768555
vt 0.2456055 0.2768555
vt 0.2456055 0.2768555
vt 0.2456055 0.2768555
vt 0.2456055 0.2768555
vt 0.2456055 0.2768555
vt 0.2456055 0.2768555
vt 0.2456055 0.2768555
vt 0.2456055 0.2768555
vt 0.2456055 0.2768555
vt 0.2456055 0.2768555
vt 0.2456055 0.2768555
vt 0.2456055 0.2768555
vt 0.2456055 0.2768555
vt 0.2456055 0.2768555
vt 0.2456055 0.2768555
vt 0.2456055 0.2768555
vt 0.2456055 0.2768555
vt 0.2456055 0.2768555
vt 0.2456055 0.2768555
vt 0.2456055 0.2768555
vt 0.2456055 0.2768555
vt 0.2456055 0.2768555
vt 0.2456055 0.2768555
vt 0.2456055 0.2768555
vt 0.2456055 0.2768555
vt 0.2456055 0.2768555
vt 0.2456055 0.2768555
vt 0.2456055 0.2768555
vt 0.2456055 0.2768555
vt 0.2456055 0.2768555
vt 0.2456055 0.2768555
vt 0.2456055 0.2768555
vt 0.2456055 0.2768555
vt 0.2456055 0.2768555
vt 0.2456055 0.2768555
vt 0.2456055 0.2768555
vt 0.2456055 0.2768555
vt 0.2456055 0.2768555
vt 0.2456055 0.2768555
vt 0.2456055 0.2768555
vt 0.2456055 0.2768555
vt 0.2456055 0.2768555
vt 0.2456055 0.2768555
vt 0.2456055 0.2768555
vt 0.2456055 0.2768555
vt 0.2456055 0.2768555
vt 0.2456055 0.2768555
vt 0.2456055 0.2768555
vt 0.2456055 0.2768555
vt 0.2456055 0.2768555
vt 0.2456055 0.2768555
vt 0.2456055 0.2768555
vt 0.2456055 0.2768555
vt 0.2456055 0.2768555
vt 0.2456055 0.2768555
vt 0.2456055 0.2768555
vt 0.2456055 0.2768555
vt 0.2456055 0.2768555
vt 0.2456055 0.2768555
vt 0.2456055 0.2768555
vt 0.2456055 0.2768555
vt 0.2456055 0.2768555
vt 0.2456055 0.2768555
vt 0.2456055 0.2768555
vt 0.2456055 0.2768555
vt 0.2456055 0.2768555
vt 0.2456055 0.2768555
vt 0.2456055 0.2768555
vt 0.2456055 0.2768555
vt 0.2456055 0.2768555
vt 0.2456055 0.2768555
vt 0.2456055 0.2768555
vt 0.2456055 0.2768555
vt 0.2456055 0.2768555
vn 0 -1.341105E-05 -1
vn -1.114607E-05 0 -1
vn 0 1.341105E-05 -1
vn 1.573563E-05 0 -1
vn 7.867813E-06 -7.867813E-06 -1
vn 0 0 -1
vn 7.867813E-06 7.867813E-06 -1
vn 1.573563E-05 0 -1
vn 5.066395E-06 0 -1
vn 1 0 2.223253E-05
vn 1 1.114607E-05 1.114607E-05
vn 1 0 -1.573563E-05
vn 1 -1.573563E-05 -1.573563E-05
vn 1 0 0
vn 1 1.573563E-05 -1.573563E-05
vn 1 0 -1.573563E-05
vn 1 -1.114607E-05 1.114607E-05
vn 1 0 -2.324581E-06
vn 0.2161865 -0.9213867 -0.3234863
vn 0.5146484 0.3764648 -0.7705078
vn 0.5146484 0.3764648 -0.7705078
vn 0.2161865 0.9213867 -0.3234863
vn -0.2161865 0.9213867 0.3234863
vn -0.5146484 0.3764648 0.7705078
vn -0.5146484 -0.3764648 0.7705078
vn -0.2161865 -0.9213867 0.3234863
vn 0.7705078 -0.3764648 -0.5146484
vn 0.7705078 -0.3764648 -0.5146484
vn 0.7705078 0.3764648 -0.5146484
vn 0.3234863 0.9213867 -0.2161865
vn -0.3234863 0.9213867 0.2161865
vn -0.7705078 0.3764648 0.5146484
vn -0.7705078 -0.3764648 0.5146484
vn -0.3234863 -0.9213867 0.2161865
vn -0.5146484 -0.3764648 0.7705078
vn -0.5146484 0.3764648 0.7705078
vn -0.2161865 0.9213867 0.3234863
vn 0.2161865 0.9213867 -0.3234863
vn 0.5146484 0.3764648 -0.7705078
vn 0.5146484 0.3764648 -0.7705078
vn 0.2161865 -0.9213867 -0.3234863
vn -0.2161865 -0.9213867 0.3234863
vn 0.2161865 0.9213867 -0.3234863
vn 0.2161865 0.9213867 -0.3234863
vn -0.2161865 0.9213867 0.3234863
vn -0.2161865 0.9213867 0.3234863
vn -0.5146484 0.3764648 0.7705078
vn -0.5146484 0.3764648 0.7705078
vn -0.5146484 -0.3764648 0.7705078
vn -0.5146484 -0.3764648 0.7705078
vn -0.2161865 -0.9213867 0.3234863
vn -0.2161865 -0.9213867 0.3234863
vn 0.2161865 -0.9213867 -0.3234863
vn 0.2161865 -0.9213867 -0.3234863
vn 0.5146484 -0.3764648 -0.7705078
vn 0.5146484 -0.3764648 -0.7705078
vn 0.5146484 -0.3764648 -0.7705078
vn 0.5146484 -0.3764648 -0.7705078
vn 0.7705078 -0.3764648 -0.5146484
vn 0.7705078 -0.3764648 -0.5146484
vn 0.7705078 0.3764648 -0.5146484
vn 0.7705078 0.3764648 -0.5146484
vn 0.7705078 0.3764648 -0.5146484
vn 0.3234863 0.9213867 -0.2161865
vn 0.3234863 0.9213867 -0.2161865
vn 0.3234863 0.9213867 -0.2161865
vn -0.3234863 0.9213867 0.2161865
vn -0.3234863 0.9213867 0.2161865
vn -0.3234863 0.9213867 0.2161865
vn -0.7705078 0.3764648 0.5146484
vn -0.7705078 0.3764648 0.5146484
vn -0.7705078 0.3764648 0.5146484
vn -0.7705078 -0.3764648 0.5146484
vn -0.7705078 -0.3764648 0.5146484
vn -0.7705078 -0.3764648 0.5146484
vn -0.3234863 -0.9213867 0.2161865
vn -0.3234863 -0.9213867 0.2161865
vn -0.3234863 -0.9213867 0.2161865
vn 0.3234863 -0.9213867 -0.2161865
vn 0.3234863 -0.9213867 -0.2161865
vn 0.3234863 -0.9213867 -0.2161865
vn 0.3234863 -0.9213867 -0.2161865
vn 0.9086914 -0.3764648 -0.1807861
vn 0.9086914 -0.3764648 -0.1807861
vn 0.9086914 -0.3764648 -0.1807861
vn 0.9086914 -0.3764648 -0.1807861
vn 0.9086914 0.3764648 -0.1807861
vn 0.9086914 0.3764648 -0.1807861
vn 0.9086914 0.3764648 -0.1807861
vn 0.9086914 0.3764648 -0.1807861
vn 0.3815918 0.9213867 -0.07592773
vn 0.3815918 0.9213867 -0.07592773
vn 0.3815918 0.9213867 -0.07592773
vn 0.3815918 0.9213867 -0.07592773
vn -0.3815918 0.9213867 0.07592773
vn -0.3815918 0.9213867 0.07592773
vn -0.3815918 0.9213867 0.07592773
vn -0.3815918 0.9213867 0.07592773
vn -0.9086914 0.3764648 0.1807861
vn -0.9086914 0.3764648 0.1807861
vn -0.9086914 0.3764648 0.1807861
vn -0.9086914 0.3764648 0.1807861
vn -0.9086914 -0.3764648 0.1807861
vn -0.9086914 -0.3764648 0.1807861
vn -0.9086914 -0.3764648 0.1807861
vn -0.9086914 -0.3764648 0.1807861
vn -0.3815918 -0.9213867 0.07592773
vn -0.3815918 -0.9213867 0.07592773
vn -0.3815918 -0.9213867 0.07592773
vn -0.3815918 -0.9213867 0.07592773
vn 0.3815918 -0.9213867 -0.07592773
vn 0.3815918 -0.9213867 -0.07592773
vn 0.3815918 -0.9213867 -0.07592773
vn 0.3815918 -0.9213867 -0.07592773
vn -0.1807861 -0.3764648 0.9086914
vn -0.1807861 -0.3764648 0.9086914
vn -0.1807861 -0.3764648 0.9086914
vn -0.1807861 -0.3764648 0.9086914
vn -0.1807861 0.3764648 0.9086914
vn -0.1807861 0.3764648 0.9086914
vn -0.1807861 0.3764648 0.9086914
vn -0.1807861 0.3764648 0.9086914
vn -0.07592773 0.9213867 0.3815918
vn -0.07592773 0.9213867 0.3815918
vn -0.07592773 0.9213867 0.3815918
vn -0.07592773 0.9213867 0.3815918
vn 0.07592773 0.9213867 -0.3815918
vn 0.07592773 0.9213867 -0.3815918
vn 0.07592773 0.9213867 -0.3815918
vn 0.07592773 0.9213867 -0.3815918
vn 0.1807861 0.3764648 -0.9086914
vn 0.1807861 0.3764648 -0.9086914
vn 0.1807861 0.3764648 -0.9086914
vn 0.1807861 0.3764648 -0.9086914
vn 0.1807861 -0.3764648 -0.9086914
vn 0.1807861 -0.3764648 -0.9086914
vn 0.1807861 -0.3764648 -0.9086914
vn 0.1807861 -0.3764648 -0.9086914
vn 0.07592773 -0.9213867 -0.3815918
vn 0.07592773 -0.9213867 -0.3815918
vn 0.07592773 -0.9213867 -0.3815918
vn 0.07592773 -0.9213867 -0.3815918
vn -0.07592773 -0.9213867 0.3815918
vn -0.07592773 -0.9213867 0.3815918
vn -0.07592773 -0.9213867 0.3815918
vn -0.07592773 -0.9213867 0.3815918
g SM_Prop_Detail_Pipe_Corner_01_0
f 39/39/39 40/40/40 20/20/20
f 21/21/21 39/39/39 20/20/20
f 38/38/38 44/44/44 43/43/43
f 22/22/22 38/38/38 43/43/43
f 37/37/37 46/46/46 45/45/45
f 23/23/23 37/37/37 45/45/45
f 36/36/36 48/48/48 47/47/47
f 24/24/24 36/36/36 47/47/47
f 35/35/35 50/50/50 49/49/49
f 25/25/25 35/35/35 49/49/49
f 42/42/42 52/52/52 51/51/51
f 26/26/26 42/42/42 51/51/51
f 41/41/41 54/54/54 53/53/53
f 19/19/19 41/41/41 53/53/53
f 57/57/57 56/56/56 55/55/55
f 58/58/58 57/57/57 55/55/55
f 60/60/60 59/59/59 27/27/27
f 28/28/28 60/60/60 27/27/27
f 63/63/63 62/62/62 61/61/61
f 29/29/29 63/63/63 61/61/61
f 66/66/66 65/65/65 64/64/64
f 30/30/30 66/66/66 64/64/64
f 69/69/69 68/68/68 67/67/67
f 31/31/31 69/69/69 67/67/67
f 72/72/72 71/71/71 70/70/70
f 32/32/32 72/72/72 70/70/70
f 75/75/75 74/74/74 73/73/73
f 33/33/33 75/75/75 73/73/73
f 78/78/78 77/77/77 76/76/76
f 34/34/34 78/78/78 76/76/76
f 81/81/81 80/80/80 79/79/79
f 82/82/82 81/81/81 79/79/79
f 85/85/85 84/84/84 83/83/83
f 86/86/86 85/85/85 83/83/83
f 89/89/89 88/88/88 87/87/87
f 90/90/90 89/89/89 87/87/87
f 93/93/93 92/92/92 91/91/91
f 94/94/94 93/93/93 91/91/91
f 97/97/97 96/96/96 95/95/95
f 98/98/98 97/97/97 95/95/95
f 101/101/101 100/100/100 99/99/99
f 102/102/102 101/101/101 99/99/99
f 105/105/105 104/104/104 103/103/103
f 106/106/106 105/105/105 103/103/103
f 109/109/109 108/108/108 107/107/107
f 110/110/110 109/109/109 107/107/107
f 113/113/113 112/112/112 111/111/111
f 114/114/114 113/113/113 111/111/111
f 117/117/117 116/116/116 115/115/115
f 118/118/118 117/117/117 115/115/115
f 121/121/121 120/120/120 119/119/119
f 122/122/122 121/121/121 119/119/119
f 125/125/125 124/124/124 123/123/123
f 126/126/126 125/125/125 123/123/123
f 129/129/129 128/128/128 127/127/127
f 130/130/130 129/129/129 127/127/127
f 133/133/133 132/132/132 131/131/131
f 134/134/134 133/133/133 131/131/131
f 137/137/137 136/136/136 135/135/135
f 138/138/138 137/137/137 135/135/135
f 141/141/141 140/140/140 139/139/139
f 142/142/142 141/141/141 139/139/139
f 145/145/145 144/144/144 143/143/143
f 146/146/146 145/145/145 143/143/143
f 1/1/1 9/9/9 2/2/2
f 2/2/2 9/9/9 3/3/3
f 8/8/8 9/9/9 1/1/1
f 3/3/3 9/9/9 4/4/4
f 7/7/7 9/9/9 8/8/8
f 4/4/4 9/9/9 5/5/5
f 6/6/6 9/9/9 7/7/7
f 5/5/5 9/9/9 6/6/6
f 11/11/11 18/18/18 10/10/10
f 10/10/10 18/18/18 17/17/17
f 12/12/12 18/18/18 11/11/11
f 17/17/17 18/18/18 16/16/16
f 13/13/13 18/18/18 12/12/12
f 16/16/16 18/18/18 15/15/15
f 14/14/14 18/18/18 13/13/13
f 15/15/15 18/18/18 14/14/14
