g SM_Prop_Sidewalk_Panel_05
v 0.1419449 0 -0.3478308
v 0.1239815 0.09772968 -0.3038168
v -0.127161 0.09772968 -0.3025084
v -0.1455803 0 -0.3463268
v -0.1455803 0 -0.3463268
v -0.127161 0.09772968 -0.3025084
v -0.3038197 0.09772968 -0.1239882
v -0.3478336 0 -0.1419506
v -0.3478336 0 -0.1419506
v -0.3038197 0.09772968 -0.1239882
v -0.3025112 0.09772968 0.1271553
v -0.3463287 0 0.1455746
v -0.3463287 0 0.1455746
v -0.3025112 0.09772968 0.1271553
v -0.1239872 0.09772968 0.3038244
v -0.1419525 0 0.3478279
v -0.1419525 0 0.3478279
v -0.1239872 0.09772968 0.3038244
v 0.1271572 0.09772968 0.3025026
v 0.1455784 0 0.3463259
v 0.1455784 0 0.3463259
v 0.1271572 0.09772968 0.3025026
v 0.3038158 0.09772968 0.1239958
v 0.3478241 0 0.1419468
v 0.3478241 0 0.1419468
v 0.3038158 0.09772968 0.1239958
v 0.3024998 0.09772968 -0.1271639
v 0.3463173 0 -0.1455832
v 0.3463173 0 -0.1455832
v 0.3024998 0.09772968 -0.1271639
v 0.1239815 0.09772968 -0.3038168
v 0.1419449 0 -0.3478308
v 0.1100883 0.09772968 -0.2697706
v 0.08496666 0.06350016 -0.2082033
v -0.08713722 0.06350016 -0.2072926
v -0.1129074 0.09772968 -0.2685976
v -0.1129074 0.09772968 -0.2685976
v -0.08713722 0.06350016 -0.2072926
v -0.2081985 0.06350016 -0.08496952
v -0.2697678 0.09772968 -0.110096
v -0.2697678 0.09772968 -0.110096
v -0.2081985 0.06350016 -0.08496952
v -0.2073059 0.06350016 0.08713531
v -0.2686119 0.09772968 0.1129055
v -0.2686119 0.09772968 0.1129055
v -0.2073059 0.06350016 0.08713531
v -0.08496094 0.06350016 0.2082062
v -0.1100864 0.09772968 0.2697754
v -0.1100864 0.09772968 0.2697754
v -0.08496094 0.06350016 0.2082062
v 0.08714485 0.06350016 0.2073135
v 0.112915 0.09772968 0.2686186
v 0.112915 0.09772968 0.2686186
v 0.08714485 0.06350016 0.2073135
v 0.2082043 0.06350016 0.08497238
v 0.2697697 0.09772968 0.1101017
v 0.2697697 0.09772968 0.1101017
v 0.2082043 0.06350016 0.08497238
v 0.2073059 0.06350016 -0.08714867
v 0.26861 0.09772968 -0.1129189
v 0.26861 0.09772968 -0.1129189
v 0.2073059 0.06350016 -0.08714867
v 0.08496666 0.06350016 -0.2082033
v 0.1100883 0.09772968 -0.2697706
v 0.08496666 0.06350016 -0.2082033
v 0.07505226 0.1053253 -0.1839066
v -0.07697487 0.1053253 -0.1831169
v -0.08713722 0.06350016 -0.2072926
v -0.08713722 0.06350016 -0.2072926
v -0.07697487 0.1053253 -0.1831169
v -0.1839066 0.1053253 -0.07505226
v -0.2081985 0.06350016 -0.08496952
v -0.2081985 0.06350016 -0.08496952
v -0.1839066 0.1053253 -0.07505226
v -0.1831245 0.1053253 0.07697105
v -0.2073059 0.06350016 0.08713531
v -0.2073059 0.06350016 0.08713531
v -0.1831245 0.1053253 0.07697105
v -0.07504463 0.1053253 0.1839275
v -0.08496094 0.06350016 0.2082062
v -0.08496094 0.06350016 0.2082062
v -0.07504463 0.1053253 0.1839275
v 0.0769825 0.1053253 0.1831379
v 0.08714485 0.06350016 0.2073135
v 0.08714485 0.06350016 0.2073135
v 0.0769825 0.1053253 0.1831379
v 0.1839142 0.1053253 0.07507324
v 0.2082043 0.06350016 0.08497238
v 0.2082043 0.06350016 0.08497238
v 0.1839142 0.1053253 0.07507324
v 0.1831131 0.1053253 -0.07697964
v 0.2073059 0.06350016 -0.08714867
v 0.2073059 0.06350016 -0.08714867
v 0.1831131 0.1053253 -0.07697964
v 0.07505226 0.1053253 -0.1839066
v 0.08496666 0.06350016 -0.2082033
v 0.04796791 0.1053253 -0.117548
v 0.0292244 0.06270867 -0.07159042
v -0.02996063 0.06270867 -0.07127762
v -0.04919624 0.1053253 -0.1170359
v -0.04919624 0.1053253 -0.1170359
v -0.02996063 0.06270867 -0.07127762
v -0.07160187 0.06270867 -0.02920723
v -0.1175518 0.1053253 -0.04796982
v -0.1175518 0.1053253 -0.04796982
v -0.07160187 0.06270867 -0.02920723
v -0.07128906 0.06270867 0.0299778
v -0.117054 0.1053253 0.04921532
v -0.117054 0.1053253 0.04921532
v -0.07128906 0.06270867 0.0299778
v -0.02922249 0.06270867 0.07161045
v -0.047966 0.1053253 0.1175709
v -0.047966 0.1053253 0.1175709
v -0.02922249 0.06270867 0.07161045
v 0.02997398 0.06270867 0.07130241
v 0.04920769 0.1053253 0.1170616
v 0.04920769 0.1053253 0.1170616
v 0.02997398 0.06270867 0.07130241
v 0.07160378 0.06270867 0.02922916
v 0.1175537 0.1053253 0.04799271
v 0.1175537 0.1053253 0.04799271
v 0.07160378 0.06270867 0.02922916
v 0.07128906 0.06270867 -0.02995682
v 0.1170559 0.1053253 -0.04919434
v 0.1170559 0.1053253 -0.04919434
v 0.07128906 0.06270867 -0.02995682
v 0.0292244 0.06270867 -0.07159042
v 0.04796791 0.1053253 -0.117548
v 0.0292244 0.06270867 -0.07159042
v 3.814697E-06 0.06270867 1.049042E-05
v -0.02996063 0.06270867 -0.07127762
v 0.07128906 0.06270867 -0.02995682
v -0.07160187 0.06270867 -0.02920723
v 0.07160378 0.06270867 0.02922916
v -0.07128906 0.06270867 0.0299778
v 0.02997398 0.06270867 0.07130241
v -0.02922249 0.06270867 0.07161045
v -0.1455803 0 -0.3463268
v -3.814697E-06 0 -5.722046E-06
v 0.1419449 0 -0.3478308
v -0.3478336 0 -0.1419506
v 0.3463173 0 -0.1455832
v -0.3463287 0 0.1455746
v 0.3478241 0 0.1419468
v -0.1419525 0 0.3478279
v 0.1455784 0 0.3463259
v 0.1239815 0.09772968 -0.3038168
v 0.1100883 0.09772968 -0.2697706
v -0.1129074 0.09772968 -0.2685976
v -0.127161 0.09772968 -0.3025084
v 0.3024998 0.09772968 -0.1271639
v -0.2697678 0.09772968 -0.110096
v 0.26861 0.09772968 -0.1129189
v -0.3038197 0.09772968 -0.1239882
v 0.3038158 0.09772968 0.1239958
v -0.2686119 0.09772968 0.1129055
v 0.2697697 0.09772968 0.1101017
v -0.3025112 0.09772968 0.1271553
v 0.1271572 0.09772968 0.3025026
v -0.1100864 0.09772968 0.2697754
v 0.112915 0.09772968 0.2686186
v -0.1239872 0.09772968 0.3038244
v 0.07505226 0.1053253 -0.1839066
v 0.04796791 0.1053253 -0.117548
v -0.04919624 0.1053253 -0.1170359
v -0.07697487 0.1053253 -0.1831169
v 0.1831131 0.1053253 -0.07697964
v -0.1175518 0.1053253 -0.04796982
v 0.1170559 0.1053253 -0.04919434
v -0.1839066 0.1053253 -0.07505226
v 0.1839142 0.1053253 0.07507324
v -0.117054 0.1053253 0.04921532
v 0.1175537 0.1053253 0.04799271
v -0.1831245 0.1053253 0.07697105
v 0.0769825 0.1053253 0.1831379
v -0.047966 0.1053253 0.1175709
v 0.04920769 0.1053253 0.1170616
v -0.07504463 0.1053253 0.1839275
vt 0.2432861 0.302002
vt 0.2432861 0.302002
vt 0.2432861 0.302002
vt 0.2432861 0.302002
vt 0.2432861 0.302002
vt 0.2432861 0.302002
vt 0.2432861 0.302002
vt 0.2432861 0.302002
vt 0.2432861 0.302002
vt 0.2432861 0.302002
vt 0.2432861 0.302002
vt 0.2432861 0.302002
vt 0.2432861 0.302002
vt 0.2432861 0.302002
vt 0.2432861 0.302002
vt 0.2432861 0.302002
vt 0.2432861 0.302002
vt 0.2432861 0.302002
vt 0.2432861 0.302002
vt 0.2432861 0.302002
vt 0.2432861 0.302002
vt 0.2432861 0.302002
vt 0.2432861 0.302002
vt 0.2432861 0.302002
vt 0.2432861 0.302002
vt 0.2432861 0.302002
vt 0.2432861 0.302002
vt 0.2432861 0.302002
vt 0.2432861 0.302002
vt 0.2432861 0.302002
vt 0.2432861 0.302002
vt 0.2432861 0.302002
vt 0.2432861 0.302002
vt 0.2432861 0.302002
vt 0.2432861 0.302002
vt 0.2432861 0.302002
vt 0.2432861 0.302002
vt 0.2432861 0.302002
vt 0.2432861 0.302002
vt 0.2432861 0.302002
vt 0.2432861 0.302002
vt 0.2432861 0.302002
vt 0.2432861 0.302002
vt 0.2432861 0.302002
vt 0.2432861 0.302002
vt 0.2432861 0.302002
vt 0.2432861 0.302002
vt 0.2432861 0.302002
vt 0.2432861 0.302002
vt 0.2432861 0.302002
vt 0.2432861 0.302002
vt 0.2432861 0.302002
vt 0.2432861 0.302002
vt 0.2432861 0.302002
vt 0.2432861 0.302002
vt 0.2432861 0.302002
vt 0.2432861 0.302002
vt 0.2432861 0.302002
vt 0.2432861 0.302002
vt 0.2432861 0.302002
vt 0.2432861 0.302002
vt 0.2432861 0.302002
vt 0.2432861 0.302002
vt 0.2432861 0.302002
vt 0.2446289 0.3540039
vt 0.2446289 0.3540039
vt 0.2446289 0.3540039
vt 0.2446289 0.3540039
vt 0.2446289 0.3540039
vt 0.2446289 0.3540039
vt 0.2446289 0.3540039
vt 0.2446289 0.3540039
vt 0.2446289 0.3540039
vt 0.2446289 0.3540039
vt 0.2446289 0.3540039
vt 0.2446289 0.3540039
vt 0.2446289 0.3540039
vt 0.2446289 0.3540039
vt 0.2446289 0.3540039
vt 0.2446289 0.3540039
vt 0.2446289 0.3540039
vt 0.2446289 0.3540039
vt 0.2446289 0.3540039
vt 0.2446289 0.3540039
vt 0.2446289 0.3540039
vt 0.2446289 0.3540039
vt 0.2446289 0.3540039
vt 0.2446289 0.3540039
vt 0.2446289 0.3540039
vt 0.2446289 0.3540039
vt 0.2446289 0.3540039
vt 0.2446289 0.3540039
vt 0.2446289 0.3540039
vt 0.2446289 0.3540039
vt 0.2446289 0.3540039
vt 0.2446289 0.3540039
vt 0.2446289 0.3540039
vt 0.2446289 0.3540039
vt 0.2446289 0.3540039
vt 0.2446289 0.3540039
vt 0.2446289 0.3540039
vt 0.2446289 0.3540039
vt 0.2446289 0.3540039
vt 0.2446289 0.3540039
vt 0.2446289 0.3540039
vt 0.2446289 0.3540039
vt 0.2446289 0.3540039
vt 0.2446289 0.3540039
vt 0.2446289 0.3540039
vt 0.2446289 0.3540039
vt 0.2446289 0.3540039
vt 0.2446289 0.3540039
vt 0.2446289 0.3540039
vt 0.2446289 0.3540039
vt 0.2446289 0.3540039
vt 0.2446289 0.3540039
vt 0.2446289 0.3540039
vt 0.2446289 0.3540039
vt 0.2446289 0.3540039
vt 0.2446289 0.3540039
vt 0.2446289 0.3540039
vt 0.2446289 0.3540039
vt 0.2446289 0.3540039
vt 0.2446289 0.3540039
vt 0.2446289 0.3540039
vt 0.2446289 0.3540039
vt 0.2446289 0.3540039
vt 0.2446289 0.3540039
vt 0.01029968 0.01109314
vt 0.01029968 0.01109314
vt 0.01029968 0.01109314
vt 0.01029968 0.01109314
vt 0.01029968 0.01109314
vt 0.01029968 0.01109314
vt 0.01029968 0.01109314
vt 0.01029968 0.01109314
vt 0.01029968 0.01109314
vt 0.2432861 0.302002
vt 0.2432861 0.302002
vt 0.2432861 0.302002
vt 0.2432861 0.302002
vt 0.2432861 0.302002
vt 0.2432861 0.302002
vt 0.2432861 0.302002
vt 0.2432861 0.302002
vt 0.2432861 0.302002
vt 0.2432861 0.302002
vt 0.2432861 0.302002
vt 0.2432861 0.302002
vt 0.2432861 0.302002
vt 0.2432861 0.302002
vt 0.2432861 0.302002
vt 0.2432861 0.302002
vt 0.2432861 0.302002
vt 0.2432861 0.302002
vt 0.2432861 0.302002
vt 0.2432861 0.302002
vt 0.2432861 0.302002
vt 0.2432861 0.302002
vt 0.2432861 0.302002
vt 0.2432861 0.302002
vt 0.2432861 0.302002
vt 0.2446289 0.3540039
vt 0.2446289 0.3540039
vt 0.2446289 0.3540039
vt 0.2446289 0.3540039
vt 0.2446289 0.3540039
vt 0.2446289 0.3540039
vt 0.2446289 0.3540039
vt 0.2446289 0.3540039
vt 0.2446289 0.3540039
vt 0.2446289 0.3540039
vt 0.2446289 0.3540039
vt 0.2446289 0.3540039
vt 0.2446289 0.3540039
vt 0.2446289 0.3540039
vt 0.2446289 0.3540039
vt 0.2446289 0.3540039
vn -0.004760742 0.4099121 -0.9121094
vn -0.004760742 0.4099121 -0.9121094
vn -0.004760742 0.4099121 -0.9121094
vn -0.004760742 0.4099121 -0.9121094
vn -0.6484375 0.4099121 -0.6416016
vn -0.6484375 0.4099121 -0.6416016
vn -0.6484375 0.4099121 -0.6416016
vn -0.6484375 0.4099121 -0.6416016
vn -0.9121094 0.4099121 0.004764557
vn -0.9121094 0.4099121 0.004764557
vn -0.9121094 0.4099121 0.004764557
vn -0.9121094 0.4099121 0.004764557
vn -0.6416016 0.4099121 0.6484375
vn -0.6416016 0.4099121 0.6484375
vn -0.6416016 0.4099121 0.6484375
vn -0.6416016 0.4099121 0.6484375
vn 0.004779816 0.4099121 0.9121094
vn 0.004779816 0.4099121 0.9121094
vn 0.004779816 0.4099121 0.9121094
vn 0.004779816 0.4099121 0.9121094
vn 0.6484375 0.4099121 0.6416016
vn 0.6484375 0.4099121 0.6416016
vn 0.6484375 0.4099121 0.6416016
vn 0.6484375 0.4099121 0.6416016
vn 0.9121094 0.4099121 -0.004779816
vn 0.9121094 0.4099121 -0.004779816
vn 0.9121094 0.4099121 -0.004779816
vn 0.9121094 0.4099121 -0.004779816
vn 0.6416016 0.4099121 -0.6484375
vn 0.6416016 0.4099121 -0.6484375
vn 0.6416016 0.4099121 -0.6484375
vn 0.6416016 0.4099121 -0.6484375
vn 0.002567291 0.8735352 0.4868164
vn 0.002567291 0.8735352 0.4868164
vn 0.002567291 0.8735352 0.4868164
vn 0.002567291 0.8735352 0.4868164
vn 0.3459473 0.8735352 0.3422852
vn 0.3459473 0.8735352 0.3422852
vn 0.3459473 0.8735352 0.3422852
vn 0.3459473 0.8735352 0.3422852
vn 0.4865723 0.8735352 -0.002523422
vn 0.4865723 0.8735352 -0.002523422
vn 0.4865723 0.8735352 -0.002523422
vn 0.4865723 0.8735352 -0.002523422
vn 0.3422852 0.8735352 -0.3459473
vn 0.3422852 0.8735352 -0.3459473
vn 0.3422852 0.8735352 -0.3459473
vn 0.3422852 0.8735352 -0.3459473
vn -0.00252533 0.8735352 -0.4865723
vn -0.00252533 0.8735352 -0.4865723
vn -0.00252533 0.8735352 -0.4865723
vn -0.00252533 0.8735352 -0.4865723
vn -0.3459473 0.8735352 -0.3422852
vn -0.3459473 0.8735352 -0.3422852
vn -0.3459473 0.8735352 -0.3422852
vn -0.3459473 0.8735352 -0.3422852
vn -0.4868164 0.8735352 0.002534866
vn -0.4868164 0.8735352 0.002534866
vn -0.4868164 0.8735352 0.002534866
vn -0.4868164 0.8735352 0.002534866
vn -0.3422852 0.8735352 0.3459473
vn -0.3422852 0.8735352 0.3459473
vn -0.3422852 0.8735352 0.3459473
vn -0.3422852 0.8735352 0.3459473
vn -0.00453949 0.5014648 -0.8652344
vn -0.00453949 0.5014648 -0.8652344
vn -0.00453949 0.5014648 -0.8652344
vn -0.00453949 0.5014648 -0.8652344
vn -0.6152344 0.5014648 -0.6083984
vn -0.6152344 0.5014648 -0.6083984
vn -0.6152344 0.5014648 -0.6083984
vn -0.6152344 0.5014648 -0.6083984
vn -0.8652344 0.5014648 0.004470825
vn -0.8652344 0.5014648 0.004470825
vn -0.8652344 0.5014648 0.004470825
vn -0.8652344 0.5014648 0.004470825
vn -0.6083984 0.5014648 0.6152344
vn -0.6083984 0.5014648 0.6152344
vn -0.6083984 0.5014648 0.6152344
vn -0.6083984 0.5014648 0.6152344
vn 0.004489899 0.5014648 0.8652344
vn 0.004489899 0.5014648 0.8652344
vn 0.004489899 0.5014648 0.8652344
vn 0.004489899 0.5014648 0.8652344
vn 0.6152344 0.5014648 0.6083984
vn 0.6152344 0.5014648 0.6083984
vn 0.6152344 0.5014648 0.6083984
vn 0.6152344 0.5014648 0.6083984
vn 0.8652344 0.5014648 -0.004535675
vn 0.8652344 0.5014648 -0.004535675
vn 0.8652344 0.5014648 -0.004535675
vn 0.8652344 0.5014648 -0.004535675
vn 0.6083984 0.5014648 -0.6147461
vn 0.6083984 0.5014648 -0.6147461
vn 0.6083984 0.5014648 -0.6147461
vn 0.6083984 0.5014648 -0.6147461
vn 0.003591537 0.7324219 0.6806641
vn 0.003591537 0.7324219 0.6806641
vn 0.003591537 0.7324219 0.6806641
vn 0.003591537 0.7324219 0.6806641
vn 0.4838867 0.7324219 0.4787598
vn 0.4838867 0.7324219 0.4787598
vn 0.4838867 0.7324219 0.4787598
vn 0.4838867 0.7324219 0.4787598
vn 0.6806641 0.7324219 -0.003528595
vn 0.6806641 0.7324219 -0.003528595
vn 0.6806641 0.7324219 -0.003528595
vn 0.6806641 0.7324219 -0.003528595
vn 0.4787598 0.7324219 -0.4838867
vn 0.4787598 0.7324219 -0.4838867
vn 0.4787598 0.7324219 -0.4838867
vn 0.4787598 0.7324219 -0.4838867
vn -0.003557205 0.7324219 -0.6806641
vn -0.003557205 0.7324219 -0.6806641
vn -0.003557205 0.7324219 -0.6806641
vn -0.003557205 0.7324219 -0.6806641
vn -0.4838867 0.7324219 -0.4787598
vn -0.4838867 0.7324219 -0.4787598
vn -0.4838867 0.7324219 -0.4787598
vn -0.4838867 0.7324219 -0.4787598
vn -0.6806641 0.7324219 0.003536224
vn -0.6806641 0.7324219 0.003536224
vn -0.6806641 0.7324219 0.003536224
vn -0.6806641 0.7324219 0.003536224
vn -0.4787598 0.7324219 0.4838867
vn -0.4787598 0.7324219 0.4838867
vn -0.4787598 0.7324219 0.4838867
vn -0.4787598 0.7324219 0.4838867
vn 0 1 0
vn 0 1 0
vn 0 1 0
vn 0 1 0
vn 0 1 0
vn 0 1 0
vn 0 1 0
vn 0 1 0
vn 0 1 0
vn 0 -1 0
vn 0 -1 0
vn 0 -1 0
vn 0 -1 0
vn 0 -1 0
vn 0 -1 0
vn 0 -1 0
vn 0 -1 0
vn 0 -1 0
vn 0 1 0
vn 0 1 0
vn 0 1 0
vn 0 1 0
vn 0 1 0
vn 0 1 0
vn 0 1 0
vn 0 1 0
vn 0 1 0
vn 0 1 0
vn 0 1 0
vn 0 1 0
vn 0 1 0
vn 0 1 0
vn 0 1 0
vn 0 1 0
vn 0 1 0
vn 0 1 0
vn 0 1 0
vn 0 1 0
vn 0 1 0
vn 0 1 0
vn 0 1 0
vn 0 1 0
vn 0 1 0
vn 0 1 0
vn 0 1 0
vn 0 1 0
vn 0 1 0
vn 0 1 0
vn 0 1 0
vn 0 1 0
g SM_Prop_Sidewalk_Panel_05_0
f 3/3/3 2/2/2 1/1/1
f 4/4/4 3/3/3 1/1/1
f 7/7/7 6/6/6 5/5/5
f 8/8/8 7/7/7 5/5/5
f 11/11/11 10/10/10 9/9/9
f 12/12/12 11/11/11 9/9/9
f 15/15/15 14/14/14 13/13/13
f 16/16/16 15/15/15 13/13/13
f 19/19/19 18/18/18 17/17/17
f 20/20/20 19/19/19 17/17/17
f 23/23/23 22/22/22 21/21/21
f 24/24/24 23/23/23 21/21/21
f 27/27/27 26/26/26 25/25/25
f 28/28/28 27/27/27 25/25/25
f 31/31/31 30/30/30 29/29/29
f 32/32/32 31/31/31 29/29/29
f 35/35/35 34/34/34 33/33/33
f 36/36/36 35/35/35 33/33/33
f 39/39/39 38/38/38 37/37/37
f 40/40/40 39/39/39 37/37/37
f 43/43/43 42/42/42 41/41/41
f 44/44/44 43/43/43 41/41/41
f 47/47/47 46/46/46 45/45/45
f 48/48/48 47/47/47 45/45/45
f 51/51/51 50/50/50 49/49/49
f 52/52/52 51/51/51 49/49/49
f 55/55/55 54/54/54 53/53/53
f 56/56/56 55/55/55 53/53/53
f 59/59/59 58/58/58 57/57/57
f 60/60/60 59/59/59 57/57/57
f 63/63/63 62/62/62 61/61/61
f 64/64/64 63/63/63 61/61/61
f 67/67/67 66/66/66 65/65/65
f 68/68/68 67/67/67 65/65/65
f 71/71/71 70/70/70 69/69/69
f 72/72/72 71/71/71 69/69/69
f 75/75/75 74/74/74 73/73/73
f 76/76/76 75/75/75 73/73/73
f 79/79/79 78/78/78 77/77/77
f 80/80/80 79/79/79 77/77/77
f 83/83/83 82/82/82 81/81/81
f 84/84/84 83/83/83 81/81/81
f 87/87/87 86/86/86 85/85/85
f 88/88/88 87/87/87 85/85/85
f 91/91/91 90/90/90 89/89/89
f 92/92/92 91/91/91 89/89/89
f 95/95/95 94/94/94 93/93/93
f 96/96/96 95/95/95 93/93/93
f 99/99/99 98/98/98 97/97/97
f 100/100/100 99/99/99 97/97/97
f 103/103/103 102/102/102 101/101/101
f 104/104/104 103/103/103 101/101/101
f 107/107/107 106/106/106 105/105/105
f 108/108/108 107/107/107 105/105/105
f 111/111/111 110/110/110 109/109/109
f 112/112/112 111/111/111 109/109/109
f 115/115/115 114/114/114 113/113/113
f 116/116/116 115/115/115 113/113/113
f 119/119/119 118/118/118 117/117/117
f 120/120/120 119/119/119 117/117/117
f 123/123/123 122/122/122 121/121/121
f 124/124/124 123/123/123 121/121/121
f 127/127/127 126/126/126 125/125/125
f 128/128/128 127/127/127 125/125/125
f 131/131/131 130/130/130 129/129/129
f 129/129/129 130/130/130 132/132/132
f 133/133/133 130/130/130 131/131/131
f 132/132/132 130/130/130 134/134/134
f 135/135/135 130/130/130 133/133/133
f 134/134/134 130/130/130 136/136/136
f 137/137/137 130/130/130 135/135/135
f 136/136/136 130/130/130 137/137/137
f 140/140/140 139/139/139 138/138/138
f 138/138/138 139/139/139 141/141/141
f 142/142/142 139/139/139 140/140/140
f 141/141/141 139/139/139 143/143/143
f 144/144/144 139/139/139 142/142/142
f 143/143/143 139/139/139 145/145/145
f 146/146/146 139/139/139 144/144/144
f 145/145/145 139/139/139 146/146/146
f 149/149/149 148/148/148 147/147/147
f 150/150/150 149/149/149 147/147/147
f 147/147/147 148/148/148 151/151/151
f 152/152/152 149/149/149 150/150/150
f 148/148/148 153/153/153 151/151/151
f 154/154/154 152/152/152 150/150/150
f 151/151/151 153/153/153 155/155/155
f 156/156/156 152/152/152 154/154/154
f 153/153/153 157/157/157 155/155/155
f 158/158/158 156/156/156 154/154/154
f 155/155/155 157/157/157 159/159/159
f 160/160/160 156/156/156 158/158/158
f 157/157/157 161/161/161 159/159/159
f 162/162/162 160/160/160 158/158/158
f 159/159/159 161/161/161 162/162/162
f 161/161/161 160/160/160 162/162/162
f 165/165/165 164/164/164 163/163/163
f 166/166/166 165/165/165 163/163/163
f 163/163/163 164/164/164 167/167/167
f 168/168/168 165/165/165 166/166/166
f 164/164/164 169/169/169 167/167/167
f 170/170/170 168/168/168 166/166/166
f 167/167/167 169/169/169 171/171/171
f 172/172/172 168/168/168 170/170/170
f 169/169/169 173/173/173 171/171/171
f 174/174/174 172/172/172 170/170/170
f 171/171/171 173/173/173 175/175/175
f 176/176/176 172/172/172 174/174/174
f 173/173/173 177/177/177 175/175/175
f 178/178/178 176/176/176 174/174/174
f 175/175/175 177/177/177 178/178/178
f 177/177/177 176/176/176 178/178/178
