g SM_Prop_Door_03
v 0.09245117 1.091096 -0.3981012
v 0.09245056 1.091096 0.3981
v -0.09245178 1.091096 0.3981
v -0.09245117 1.091096 -0.3981012
v 0.09245117 0.9025522 -0.5416449
v 0.09245117 1.091096 -0.3981012
v -0.09245117 1.091096 -0.3981012
v -0.09245117 0.9025522 -0.5416449
v -0.09245178 0.9025528 0.5416449
v -0.09245178 1.091096 0.3981
v 0.09245056 1.091096 0.3981
v 0.09245056 0.9025522 0.5416449
v -0.09245178 -1.091096 0.5416449
v 0.0924472 -0.4008839 0.5416449
v 0.09245056 -1.091096 0.5416449
v -0.09245178 -0.4008839 0.5416449
v 0.09245056 0.9025522 0.5416449
v -0.09245178 0.9025528 0.5416449
v 0.09245117 -1.091096 -0.5416449
v -0.09245117 -0.4008839 -0.5416449
v -0.09245117 -1.091096 -0.5416449
v 0.0924475 -0.4008839 -0.5416449
v -0.09245117 0.9025522 -0.5416449
v 0.09245117 0.9025522 -0.5416449
v 0.09245056 -1.091096 0.5416449
v 0.09245117 -1.091096 -0.5416449
v -0.09245117 -1.091096 -0.5416449
v -0.09245178 -1.091096 0.5416449
v 0.09245117 0.9947898 0.3574103
v 0.09245117 0.8687121 0.2753546
v 0.09245117 0.8687121 0.4622589
v 0.09245117 0.9438022 0.1919855
v 0.09245086 0.9947898 -0.3574103
v 0.09245056 0.9438022 -0.1919879
v 0.09245178 0.8687121 -0.2753534
v 0.09245056 0.8687121 -0.4622589
v 0.09245117 -0.2917458 0.2753546
v 0.0924475 -0.2917458 0.4622589
v 0.09245117 0.8687121 0.4622589
v 0.09245117 0.8687121 0.2753546
v 0.09245117 -0.2046019 0.1919855
v 0.09245117 0.9438022 0.1919855
v 0.09245056 0.9438022 -0.1919879
v 0.09245056 -0.2046019 -0.1919879
v 0.09245178 -0.2917458 -0.2753534
v 0.09245178 0.8687121 -0.2753534
v 0.09245056 0.8687121 -0.4622589
v 0.0924472 -0.2917458 -0.4622589
v 0.09245117 -0.4280949 0.2753546
v 0.09245117 -0.4280949 0.4622589
v 0.0924475 -0.2917458 0.4622589
v 0.09245117 -0.2917458 0.2753546
v 0.09245117 -0.3409508 0.1919855
v 0.09245117 -0.2046019 0.1919855
v 0.09245056 -0.3409508 -0.1919879
v 0.09245056 -0.2046019 -0.1919879
v 0.09245178 -0.4280949 -0.2753534
v 0.09245178 -0.2917458 -0.2753534
v 0.0924472 -0.2917458 -0.4622589
v 0.09245056 -0.4280949 -0.4622589
v 0.09245117 -0.8710808 0.4622589
v 0.09245117 -0.4280949 0.4622589
v 0.09245117 -0.4280949 0.2753546
v 0.09245117 -0.8710808 0.2753546
v 0.09245117 -0.3409508 0.1919855
v 0.09245117 -0.9396849 0.1919855
v 0.09245056 -0.3409508 -0.1919879
v 0.09245056 -0.9396849 -0.1919879
v 0.09245178 -0.4280949 -0.2753534
v 0.09245178 -0.8710808 -0.2753534
v 0.09245056 -0.4280949 -0.4622589
v 0.09245056 -0.8710808 -0.4622589
v -0.09245117 -0.4280949 0.4622589
v -0.09245117 -0.8710808 0.4622589
v -0.09245117 -0.8710808 0.2753546
v -0.09245117 -0.4280949 0.2753546
v -0.09245117 -0.9396849 0.1919855
v -0.09245117 -0.3409508 0.1919855
v -0.09245178 -0.9396849 -0.1919879
v -0.09245178 -0.3409508 -0.1919879
v -0.09245056 -0.8710808 -0.2753534
v -0.09245056 -0.4280949 -0.2753534
v -0.09245178 -0.8710808 -0.4622589
v -0.09245178 -0.4280949 -0.4622589
v -0.09245117 -0.2917458 0.4622589
v -0.09245117 -0.4280949 0.4622589
v -0.09245117 -0.4280949 0.2753546
v -0.09245117 -0.2917458 0.2753546
v -0.09245117 -0.2046009 0.1919855
v -0.09245117 -0.3409508 0.1919855
v -0.09245178 -0.2046009 -0.1919879
v -0.09245178 -0.3409508 -0.1919879
v -0.09245056 -0.2917458 -0.2753534
v -0.09245056 -0.4280949 -0.2753534
v -0.09245178 -0.2917458 -0.4622589
v -0.09245178 -0.4280949 -0.4622589
v -0.09245117 0.8687132 0.4622589
v -0.09245117 -0.2917458 0.4622589
v -0.09245117 -0.2917458 0.2753546
v -0.09245117 0.8687132 0.2753546
v -0.09245117 0.9438022 0.1919855
v -0.09245117 -0.2046009 0.1919855
v -0.09245178 0.9438022 -0.1919879
v -0.09245178 -0.2046009 -0.1919879
v -0.09245056 0.8687132 -0.2753534
v -0.09245056 -0.2917458 -0.2753534
v -0.09245178 0.8687132 -0.4622589
v -0.09245178 -0.2917458 -0.4622589
v -0.09245117 0.9947898 0.3574103
v -0.09245117 0.8687132 0.4622589
v -0.09245117 0.8687132 0.2753546
v -0.09245117 0.9438022 0.1919855
v -0.09245148 0.9947898 -0.3574103
v -0.09245178 0.9438022 -0.1919879
v -0.09245056 0.8687132 -0.2753534
v -0.09245178 0.8687132 -0.4622589
v -0.09245117 -0.8710808 0.4622589
v -0.09245117 -1.012449 0.4622589
v -0.09245117 -0.8710808 0.2753546
v -0.09245117 -0.9396849 0.1919855
v -0.09245178 -1.012449 -0.4622589
v -0.09245178 -0.9396849 -0.1919879
v -0.09245056 -0.8710808 -0.2753534
v -0.09245178 -0.8710808 -0.4622589
v 0.09245117 -1.012449 0.4622589
v 0.09245117 -0.8710808 0.4622589
v 0.09245117 -0.8710808 0.2753546
v 0.09245117 -0.9396849 0.1919855
v 0.09245056 -1.012449 -0.4622589
v 0.09245056 -0.9396849 -0.1919879
v 0.09245178 -0.8710808 -0.2753534
v 0.09245056 -0.8710808 -0.4622589
v 0.09245117 -1.012449 0.4622589
v 0.09245056 -1.012449 -0.4622589
v 0.09245117 -1.091096 -0.5416449
v 0.09245056 -0.8710808 -0.4622589
v 0.09245056 -1.091096 0.5416449
v 0.09245117 -0.8710808 0.4622589
v 0.09245117 -0.4280949 0.4622589
v 0.0924472 -0.4008839 0.5416449
v 0.0924475 -0.2917458 0.4622589
v 0.09245056 0.9025522 0.5416449
v 0.09245117 0.8687121 0.4622589
v 0.0924475 -0.4008839 -0.5416449
v 0.09245056 -0.4280949 -0.4622589
v 0.0924472 -0.2917458 -0.4622589
v 0.09245056 1.091096 0.3981
v 0.09245117 0.9947898 0.3574103
v 0.09245117 0.9025522 -0.5416449
v 0.09245056 0.8687121 -0.4622589
v 0.09245086 0.9947898 -0.3574103
v 0.09245117 1.091096 -0.3981012
v -0.09245178 -1.091096 0.5416449
v -0.09245178 -1.012449 -0.4622589
v -0.09245117 -1.012449 0.4622589
v -0.09245117 -0.8710808 0.4622589
v -0.09245117 -1.091096 -0.5416449
v -0.09245178 -0.8710808 -0.4622589
v -0.09245178 -0.4280949 -0.4622589
v -0.09245117 -0.4008839 -0.5416449
v -0.09245178 -0.2917458 -0.4622589
v -0.09245117 0.9025522 -0.5416449
v -0.09245178 0.8687132 -0.4622589
v -0.09245178 -0.4008839 0.5416449
v -0.09245117 -0.4280949 0.4622589
v -0.09245117 -0.2917458 0.4622589
v -0.09245117 1.091096 -0.3981012
v -0.09245148 0.9947898 -0.3574103
v -0.09245178 0.9025528 0.5416449
v -0.09245117 0.8687132 0.4622589
v -0.09245117 0.9947898 0.3574103
v -0.09245178 1.091096 0.3981
vt 0.232422 0.225609
vt 0.232422 0.225609
vt 0.232422 0.225609
vt 0.232422 0.225609
vt 0.232422 0.225609
vt 0.232422 0.225609
vt 0.232422 0.225609
vt 0.232422 0.225609
vt 0.232422 0.225609
vt 0.232422 0.225609
vt 0.232422 0.225609
vt 0.232422 0.225609
vt 0.232422 0.225609
vt 0.232422 0.225609
vt 0.232422 0.225609
vt 0.232422 0.225609
vt 0.232422 0.225609
vt 0.232422 0.225609
vt 0.232422 0.225609
vt 0.232422 0.225609
vt 0.232422 0.225609
vt 0.232422 0.225609
vt 0.232422 0.225609
vt 0.232422 0.225609
vt 0.232422 0.225609
vt 0.232422 0.225609
vt 0.232422 0.225609
vt 0.232422 0.225609
vt 0.244575 0.303013
vt 0.244575 0.303013
vt 0.244575 0.303013
vt 0.244575 0.303013
vt 0.244575 0.303013
vt 0.244575 0.303013
vt 0.244575 0.303013
vt 0.244575 0.303013
vt 0.244615 0.377841
vt 0.244615 0.377841
vt 0.244615 0.377841
vt 0.244615 0.377841
vt 0.244615 0.377841
vt 0.244615 0.377841
vt 0.244615 0.377841
vt 0.244615 0.377841
vt 0.244615 0.377841
vt 0.244615 0.377841
vt 0.244615 0.377841
vt 0.244615 0.377841
vt 0.244575 0.303013
vt 0.244575 0.303013
vt 0.244575 0.303013
vt 0.244575 0.303013
vt 0.244575 0.303013
vt 0.244575 0.303013
vt 0.244575 0.303013
vt 0.244575 0.303013
vt 0.244575 0.303013
vt 0.244575 0.303013
vt 0.244575 0.303013
vt 0.244575 0.303013
vt 0.244575 0.352473
vt 0.244575 0.352473
vt 0.244575 0.352473
vt 0.244575 0.352473
vt 0.244575 0.352473
vt 0.244575 0.352473
vt 0.244575 0.352473
vt 0.244575 0.352473
vt 0.244575 0.352473
vt 0.244575 0.352473
vt 0.244575 0.352473
vt 0.244575 0.352473
vt 0.244575 0.352473
vt 0.244575 0.352473
vt 0.244575 0.352473
vt 0.244575 0.352473
vt 0.244575 0.352473
vt 0.244575 0.352473
vt 0.244575 0.352473
vt 0.244575 0.352473
vt 0.244575 0.352473
vt 0.244575 0.352473
vt 0.244575 0.352473
vt 0.244575 0.352473
vt 0.244575 0.303013
vt 0.244575 0.303013
vt 0.244575 0.303013
vt 0.244575 0.303013
vt 0.244575 0.303013
vt 0.244575 0.303013
vt 0.244575 0.303013
vt 0.244575 0.303013
vt 0.244575 0.303013
vt 0.244575 0.303013
vt 0.244575 0.303013
vt 0.244575 0.303013
vt 0.244615 0.377841
vt 0.244615 0.377841
vt 0.244615 0.377841
vt 0.244615 0.377841
vt 0.244615 0.377841
vt 0.244615 0.377841
vt 0.244615 0.377841
vt 0.244615 0.377841
vt 0.244615 0.377841
vt 0.244615 0.377841
vt 0.244615 0.377841
vt 0.244615 0.377841
vt 0.244575 0.303013
vt 0.244575 0.303013
vt 0.244575 0.303013
vt 0.244575 0.303013
vt 0.244575 0.303013
vt 0.244575 0.303013
vt 0.244575 0.303013
vt 0.244575 0.303013
vt 0.244575 0.303013
vt 0.244575 0.303013
vt 0.244575 0.303013
vt 0.244575 0.303013
vt 0.244575 0.303013
vt 0.244575 0.303013
vt 0.244575 0.303013
vt 0.244575 0.303013
vt 0.244575 0.303013
vt 0.244575 0.303013
vt 0.244575 0.303013
vt 0.244575 0.303013
vt 0.244575 0.303013
vt 0.244575 0.303013
vt 0.244575 0.303013
vt 0.244575 0.303013
vt 0.232422 0.225609
vt 0.232422 0.225609
vt 0.232422 0.225609
vt 0.232422 0.225609
vt 0.232422 0.225609
vt 0.232422 0.225609
vt 0.232422 0.225609
vt 0.232422 0.225609
vt 0.232422 0.225609
vt 0.232422 0.225609
vt 0.232422 0.225609
vt 0.232422 0.225609
vt 0.232422 0.225609
vt 0.232422 0.225609
vt 0.232422 0.225609
vt 0.232422 0.225609
vt 0.232422 0.225609
vt 0.232422 0.225609
vt 0.232422 0.225609
vt 0.232422 0.225609
vt 0.232422 0.225609
vt 0.232422 0.225609
vt 0.232422 0.225609
vt 0.232422 0.225609
vt 0.232422 0.225609
vt 0.232422 0.225609
vt 0.232422 0.225609
vt 0.232422 0.225609
vt 0.232422 0.225609
vt 0.232422 0.225609
vt 0.232422 0.225609
vt 0.232422 0.225609
vt 0.232422 0.225609
vt 0.232422 0.225609
vt 0.232422 0.225609
vt 0.232422 0.225609
vt 0.232422 0.225609
vt 0.232422 0.225609
vt 0.232422 0.225609
vt 0.232422 0.225609
vn 0 1 0
vn 0 1 0
vn 0 1 0
vn 0 1 0
vn 0 0.6057531 -0.7956526
vn 0 0.6057531 -0.7956526
vn 0 0.6057531 -0.7956526
vn 0 0.6057531 -0.7956526
vn 0 0.605757 0.7956497
vn 0 0.605757 0.7956497
vn 0 0.605757 0.7956497
vn 0 0.605757 0.7956497
vn 0 0 1
vn 0 0 1
vn 0 0 1
vn 0 0 1
vn 0 0 1
vn 0 0 1
vn 0 0 -1
vn 0 0 -1
vn 0 0 -1
vn 0 0 -1
vn 0 0 -1
vn 0 0 -1
vn 0 -1 0
vn 0 -1 0
vn 0 -1 0
vn 0 -1 0
vn 1 0 0
vn 1 0 0
vn 1 0 4.922575E-06
vn 1 0 0
vn 1 0 0
vn 1 0 4.331927E-06
vn 1 3.037602E-06 0
vn 1 0 -2.845761E-06
vn 1 2.962824E-06 4.898375E-06
vn 1 8.965218E-06 1.61943E-05
vn 1 0 4.922575E-06
vn 1 0 0
vn 1 0 0
vn 1 0 0
vn 1 0 4.331927E-06
vn 1 0 6.526611E-06
vn 1 2.715922E-06 0
vn 1 3.037602E-06 0
vn 1 0 -2.845761E-06
vn 1 8.158767E-06 -1.347712E-05
vn 1 3.357292E-06 0
vn 1 1.081246E-05 2.07485E-05
vn 1 8.965218E-06 1.61943E-05
vn 1 2.962824E-06 4.898375E-06
vn 1 0 0
vn 1 0 0
vn 1 0 6.526611E-06
vn 1 0 6.526611E-06
vn 1 3.077518E-06 0
vn 1 2.715922E-06 0
vn 1 8.158767E-06 -1.347712E-05
vn 1 1.004047E-05 -1.783668E-05
vn 1 0 1.002931E-05
vn 1 1.081246E-05 2.07485E-05
vn 1 3.357292E-06 0
vn 1 0 0
vn 1 0 0
vn 1 0 0
vn 1 0 6.526611E-06
vn 1 -3.351804E-06 3.932471E-06
vn 1 3.077518E-06 0
vn 1 -3.351804E-06 0
vn 1 1.004047E-05 -1.783668E-05
vn 1 0 -6.16875E-06
vn -1 0 -3.844202E-06
vn -1 0 -3.844202E-06
vn -1 0 0
vn -1 0 0
vn -1 0 0
vn -1 0 0
vn -1 3.351804E-06 -3.932471E-06
vn -1 0 -6.526611E-06
vn -1 3.351804E-06 0
vn -1 0 -4.055833E-06
vn -1 0 0
vn -1 0 0
vn -1 0 -3.844202E-06
vn -1 0 -3.844202E-06
vn -1 0 0
vn -1 0 0
vn -1 0 0
vn -1 0 0
vn -1 0 -6.526611E-06
vn -1 0 -6.526611E-06
vn -1 0 -4.055833E-06
vn -1 0 -4.055833E-06
vn -1 0 0
vn -1 0 0
vn -1 0 -3.29167E-06
vn -1 0 -3.844202E-06
vn -1 0 0
vn -1 0 0
vn -1 0 0
vn -1 0 0
vn -1 0 -4.331936E-06
vn -1 0 -6.526611E-06
vn -1 -3.399233E-06 0
vn -1 0 -4.055833E-06
vn -1 0 0
vn -1 0 0
vn -1 0 0
vn -1 0 -3.29167E-06
vn -1 0 0
vn -1 0 0
vn -1 0 0
vn -1 0 -4.331936E-06
vn -1 -3.399233E-06 0
vn -1 0 0
vn -1 0 -3.844202E-06
vn -1 0 0
vn -1 0 0
vn -1 0 0
vn -1 2.681444E-06 0
vn -1 3.351804E-06 -3.932471E-06
vn -1 3.351804E-06 0
vn -1 0 0
vn 1 0 0
vn 1 0 1.002931E-05
vn 1 0 0
vn 1 0 0
vn 1 -2.681444E-06 0
vn 1 -3.351804E-06 3.932471E-06
vn 1 -3.351804E-06 0
vn 1 0 -6.16875E-06
vn 1 0 0
vn 1 -2.681444E-06 0
vn 1 0 -3.870918E-06
vn 1 0 -6.16875E-06
vn 1 0 1.337241E-05
vn 1 0 1.002931E-05
vn 1 1.081246E-05 2.07485E-05
vn 1 8.990643E-06 2.587084E-05
vn 1 8.965218E-06 1.61943E-05
vn 1 0 0
vn 1 0 4.922575E-06
vn 1 8.334347E-06 -1.406227E-05
vn 1 1.004047E-05 -1.783668E-05
vn 1 8.158767E-06 -1.347712E-05
vn 1 0 0
vn 1 0 0
vn 1 0 5.32975E-06
vn 1 0 -2.845761E-06
vn 1 0 0
vn 1 0 0
vn -1 0 -5.125603E-06
vn -1 2.681444E-06 0
vn -1 0 0
vn -1 0 -3.844202E-06
vn -1 0 -5.125603E-06
vn -1 0 0
vn -1 0 0
vn -1 0 -7.688403E-06
vn -1 0 0
vn -1 0 -5.615289E-06
vn -1 0 0
vn -1 0 -7.688403E-06
vn -1 0 -3.844202E-06
vn -1 0 -3.844202E-06
vn -1 0 0
vn -1 0 0
vn -1 0 -6.58334E-06
vn -1 0 -3.29167E-06
vn -1 0 0
vn -1 0 0
g SM_Prop_Door_03_0
f 3/3/3 2/2/2 1/1/1
f 4/4/4 3/3/3 1/1/1
f 7/7/7 6/6/6 5/5/5
f 8/8/8 7/7/7 5/5/5
f 11/11/11 10/10/10 9/9/9
f 12/12/12 11/11/11 9/9/9
f 15/15/15 14/14/14 13/13/13
f 14/14/14 16/16/16 13/13/13
f 14/14/14 17/17/17 16/16/16
f 17/17/17 18/18/18 16/16/16
f 21/21/21 20/20/20 19/19/19
f 20/20/20 22/22/22 19/19/19
f 20/20/20 23/23/23 22/22/22
f 23/23/23 24/24/24 22/22/22
f 27/27/27 26/26/26 25/25/25
f 28/28/28 27/27/27 25/25/25
f 31/31/31 30/30/30 29/29/29
f 30/30/30 32/32/32 29/29/29
f 33/33/33 29/29/29 32/32/32
f 34/34/34 33/33/33 32/32/32
f 34/34/34 35/35/35 33/33/33
f 35/35/35 36/36/36 33/33/33
f 39/39/39 38/38/38 37/37/37
f 40/40/40 39/39/39 37/37/37
f 40/40/40 37/37/37 41/41/41
f 42/42/42 40/40/40 41/41/41
f 43/43/43 42/42/42 41/41/41
f 44/44/44 43/43/43 41/41/41
f 43/43/43 44/44/44 45/45/45
f 46/46/46 43/43/43 45/45/45
f 46/46/46 45/45/45 47/47/47
f 45/45/45 48/48/48 47/47/47
f 51/51/51 50/50/50 49/49/49
f 52/52/52 51/51/51 49/49/49
f 52/52/52 49/49/49 53/53/53
f 54/54/54 52/52/52 53/53/53
f 54/54/54 53/53/53 55/55/55
f 56/56/56 54/54/54 55/55/55
f 56/56/56 55/55/55 57/57/57
f 58/58/58 56/56/56 57/57/57
f 58/58/58 57/57/57 59/59/59
f 57/57/57 60/60/60 59/59/59
f 63/63/63 62/62/62 61/61/61
f 64/64/64 63/63/63 61/61/61
f 65/65/65 63/63/63 64/64/64
f 66/66/66 65/65/65 64/64/64
f 67/67/67 65/65/65 66/66/66
f 68/68/68 67/67/67 66/66/66
f 69/69/69 67/67/67 68/68/68
f 70/70/70 69/69/69 68/68/68
f 69/69/69 70/70/70 71/71/71
f 70/70/70 72/72/72 71/71/71
f 75/75/75 74/74/74 73/73/73
f 76/76/76 75/75/75 73/73/73
f 75/75/75 76/76/76 77/77/77
f 76/76/76 78/78/78 77/77/77
f 79/79/79 77/77/77 78/78/78
f 80/80/80 79/79/79 78/78/78
f 79/79/79 80/80/80 81/81/81
f 80/80/80 82/82/82 81/81/81
f 81/81/81 82/82/82 83/83/83
f 82/82/82 84/84/84 83/83/83
f 87/87/87 86/86/86 85/85/85
f 88/88/88 87/87/87 85/85/85
f 88/88/88 89/89/89 87/87/87
f 89/89/89 90/90/90 87/87/87
f 90/90/90 89/89/89 91/91/91
f 92/92/92 90/90/90 91/91/91
f 91/91/91 93/93/93 92/92/92
f 93/93/93 94/94/94 92/92/92
f 93/93/93 95/95/95 94/94/94
f 95/95/95 96/96/96 94/94/94
f 99/99/99 98/98/98 97/97/97
f 100/100/100 99/99/99 97/97/97
f 100/100/100 101/101/101 99/99/99
f 101/101/101 102/102/102 99/99/99
f 102/102/102 101/101/101 103/103/103
f 104/104/104 102/102/102 103/103/103
f 103/103/103 105/105/105 104/104/104
f 105/105/105 106/106/106 104/104/104
f 105/105/105 107/107/107 106/106/106
f 107/107/107 108/108/108 106/106/106
f 111/111/111 110/110/110 109/109/109
f 112/112/112 111/111/111 109/109/109
f 112/112/112 109/109/109 113/113/113
f 114/114/114 112/112/112 113/113/113
f 115/115/115 114/114/114 113/113/113
f 116/116/116 115/115/115 113/113/113
f 119/119/119 118/118/118 117/117/117
f 119/119/119 120/120/120 118/118/118
f 121/121/121 118/118/118 120/120/120
f 122/122/122 121/121/121 120/120/120
f 122/122/122 123/123/123 121/121/121
f 123/123/123 124/124/124 121/121/121
f 127/127/127 126/126/126 125/125/125
f 128/128/128 127/127/127 125/125/125
f 128/128/128 125/125/125 129/129/129
f 130/130/130 128/128/128 129/129/129
f 131/131/131 130/130/130 129/129/129
f 131/131/131 129/129/129 132/132/132
f 135/135/135 134/134/134 133/133/133
f 136/136/136 134/134/134 135/135/135
f 137/137/137 135/135/135 133/133/133
f 137/137/137 133/133/133 138/138/138
f 137/137/137 138/138/138 139/139/139
f 140/140/140 137/137/137 139/139/139
f 140/140/140 139/139/139 141/141/141
f 140/140/140 141/141/141 142/142/142
f 141/141/141 143/143/143 142/142/142
f 136/136/136 135/135/135 144/144/144
f 145/145/145 136/136/136 144/144/144
f 146/146/146 145/145/145 144/144/144
f 147/147/147 142/142/142 143/143/143
f 148/148/148 147/147/147 143/143/143
f 146/146/146 144/144/144 149/149/149
f 150/150/150 146/146/146 149/149/149
f 147/147/147 148/148/148 151/151/151
f 150/150/150 149/149/149 151/151/151
f 152/152/152 147/147/147 151/151/151
f 149/149/149 152/152/152 151/151/151
f 155/155/155 154/154/154 153/153/153
f 156/156/156 155/155/155 153/153/153
f 154/154/154 157/157/157 153/153/153
f 157/157/157 154/154/154 158/158/158
f 157/157/157 158/158/158 159/159/159
f 160/160/160 157/157/157 159/159/159
f 160/160/160 159/159/159 161/161/161
f 160/160/160 161/161/161 162/162/162
f 161/161/161 163/163/163 162/162/162
f 156/156/156 153/153/153 164/164/164
f 165/165/165 156/156/156 164/164/164
f 166/166/166 165/165/165 164/164/164
f 167/167/167 162/162/162 163/163/163
f 168/168/168 167/167/167 163/163/163
f 166/166/166 164/164/164 169/169/169
f 170/170/170 166/166/166 169/169/169
f 168/168/168 171/171/171 167/167/167
f 170/170/170 169/169/169 171/171/171
f 171/171/171 172/172/172 167/167/167
f 169/169/169 172/172/172 171/171/171
