g SM_Prop_Wires_05
v 0.1052673 -0.8011031 0.07674102
v 0.1148132 -0.8011031 0.04478302
v 0.07330627 -0.8011031 0.06719818
v 0.08285522 -0.8011031 0.03523712
v -0.03236084 -0.9577144 -0.0247757
v -0.003637695 -0.9577144 -0.04173584
v -0.04931946 -0.9577144 -0.05349579
v -0.02059631 -0.9577144 -0.07045746
v 0.02774963 -0.8556334 -0.002891541
v 0.05403747 -0.8714846 -0.02439117
v 0.01079102 -0.8556334 -0.03161163
v 0.03707886 -0.8714846 -0.05311279
v 0.04292908 0.9569647 0.01598358
v 0.05247498 0.9557793 -0.01597748
v 0.01096802 0.9570776 0.006437683
v 0.02051392 0.9558921 -0.02552032
v -0.03236084 0.9566259 -0.0247757
v -0.003637695 0.9556797 -0.04173584
v -0.04931641 0.9559033 -0.05349579
v -0.02059937 0.9549569 -0.07045746
v -0.02209778 0.9577145 0.01227875
v 0.006625366 0.956768 -0.004681396
v -0.03905639 0.9569916 -0.01644135
v -0.01033325 0.9560453 -0.03340149
v 0.06670837 -0.320563 0.03915863
v 0.07671203 -0.3245779 0.007647705
v -0.03236084 -0.3237449 -0.0247757
v -0.003640747 -0.3264 -0.04173584
v -0.002554321 -0.3227087 0.005860901
v 0.02616577 -0.3253637 -0.01110077
v 0.03479919 -0.3209908 0.02966309
v 0.04480286 -0.3250057 -0.001849365
v -0.04931641 -0.3267871 -0.05349579
v -0.02059631 -0.329442 -0.07045746
v -0.01951599 -0.3257509 -0.02286072
v 0.009210205 -0.3284058 -0.03982086
v 0.01522522 0.07333917 0.01222382
v 0.02626953 0.07168268 -0.02475128
v -0.05452576 0.07862797 -0.0571167
v -0.02130127 0.07520933 -0.07674102
v -0.04265442 0.07825827 -0.01424561
v -0.009420776 0.07483909 -0.03386841
v 0.05220032 0.07009609 0.02326813
v 0.06324463 0.06843967 -0.0137085
v -0.034906 0.07737459 -0.02388763
v -0.001678467 0.07395577 -0.04351196
v -0.02303162 0.07700491 0.01898346
v 0.01019897 0.07358572 -0.0006393432
v -0.08285827 -0.5015152 -0.03266449
v -0.07331238 -0.5015152 -0.0646225
v -0.1148193 -0.5015152 -0.04220886
v -0.1052734 -0.5015152 -0.07416839
v -0.05628967 0.9569647 -0.02672272
v -0.04674377 0.9557793 -0.05868072
v -0.08825073 0.9570776 -0.03626861
v -0.07870483 0.9558921 -0.06822662
v -0.0675293 -0.1529541 -0.01966095
v -0.05752563 -0.156969 -0.0511734
v -0.09944153 -0.1533819 -0.02915802
v -0.08943481 -0.1573967 -0.06066895
v -0.08399353 0.175393 -0.03048096
v -0.07294922 0.1737365 -0.06745758
v -0.04701843 0.1721499 -0.01943664
v -0.03597412 0.1704935 -0.05641327
v 0.1052673 -0.8011031 0.07674102
v 0.1148132 -0.8011031 0.04478302
v 0.1148132 -0.8011031 0.04478302
v 0.07671203 -0.3245779 0.007647705
v 0.08285522 -0.8011031 0.03523712
v 0.07330627 -0.8011031 0.06719818
v 0.06670837 -0.320563 0.03915863
v 0.1052673 -0.8011031 0.07674102
v -0.03236084 -0.9577144 -0.0247757
v -0.003637695 -0.9577144 -0.04173584
v -0.003637695 -0.9577144 -0.04173584
v -0.003640747 -0.3264 -0.04173584
v -0.02059631 -0.9577144 -0.07045746
v -0.04931946 -0.9577144 -0.05349579
v -0.03236084 -0.3237449 -0.0247757
v -0.03236084 -0.9577144 -0.0247757
v 0.02774963 -0.8556334 -0.002891541
v 0.05403747 -0.8714846 -0.02439117
v 0.05403747 -0.8714846 -0.02439117
v 0.02616577 -0.3253637 -0.01110077
v 0.03707886 -0.8714846 -0.05311279
v 0.01079102 -0.8556334 -0.03161163
v -0.002554321 -0.3227087 0.005860901
v 0.02774963 -0.8556334 -0.002891541
v 0.06670837 -0.320563 0.03915863
v 0.07671203 -0.3245779 0.007647705
v 0.06324463 0.06843967 -0.0137085
v 0.02626953 0.07168268 -0.02475128
v 0.01522522 0.07333917 0.01222382
v 0.05220032 0.07009609 0.02326813
v -0.001678467 0.07395577 -0.04351196
v -0.02130127 0.07520933 -0.07674102
v -0.05452576 0.07862797 -0.0571167
v -0.034906 0.07737459 -0.02388763
v -0.002554321 -0.3227087 0.005860901
v 0.02616577 -0.3253637 -0.01110077
v 0.01019897 0.07358572 -0.0006393432
v -0.009420776 0.07483909 -0.03386841
v -0.04265442 0.07825827 -0.01424561
v -0.02303162 0.07700491 0.01898346
v 0.03479919 -0.3209908 0.02966309
v 0.07330627 -0.8011031 0.06719818
v 0.08285522 -0.8011031 0.03523712
v 0.04480286 -0.3250057 -0.001849365
v -0.04931641 -0.3267871 -0.05349579
v -0.04931946 -0.9577144 -0.05349579
v -0.02059631 -0.9577144 -0.07045746
v -0.02059631 -0.329442 -0.07045746
v -0.01951599 -0.3257509 -0.02286072
v 0.01079102 -0.8556334 -0.03161163
v 0.03707886 -0.8714846 -0.05311279
v 0.009210205 -0.3284058 -0.03982086
v 0.01522522 0.07333917 0.01222382
v 0.02626953 0.07168268 -0.02475128
v -0.01951599 -0.3257509 -0.02286072
v 0.009210205 -0.3284058 -0.03982086
v 0.05247498 0.9557793 -0.01597748
v 0.02051392 0.9558921 -0.02552032
v 0.01096802 0.9570776 0.006437683
v 0.04292908 0.9569647 0.01598358
v -0.003637695 0.9556797 -0.04173584
v -0.02059937 0.9549569 -0.07045746
v -0.04931641 0.9559033 -0.05349579
v -0.03236084 0.9566259 -0.0247757
v 0.006625366 0.956768 -0.004681396
v -0.01033325 0.9560453 -0.03340149
v -0.04265442 0.07825827 -0.01424561
v -0.03905639 0.9569916 -0.01644135
v -0.02209778 0.9577145 0.01227875
v -0.02303162 0.07700491 0.01898346
v -0.08285827 -0.5015152 -0.03266449
v -0.07331238 -0.5015152 -0.0646225
v -0.07331238 -0.5015152 -0.0646225
v -0.05752563 -0.156969 -0.0511734
v -0.1052734 -0.5015152 -0.07416839
v -0.1148193 -0.5015152 -0.04220886
v -0.0675293 -0.1529541 -0.01966095
v -0.08285827 -0.5015152 -0.03266449
v -0.05752563 -0.156969 -0.0511734
v -0.03597412 0.1704935 -0.05641327
v -0.07294922 0.1737365 -0.06745758
v -0.08943481 -0.1573967 -0.06066895
v -0.08399353 0.175393 -0.03048096
v -0.04701843 0.1721499 -0.01943664
v -0.09944153 -0.1533819 -0.02915802
v -0.1148193 -0.5015152 -0.04220886
v -0.1052734 -0.5015152 -0.07416839
v -0.08943481 -0.1573967 -0.06066895
v -0.08399353 0.175393 -0.03048096
v -0.07294922 0.1737365 -0.06745758
v -0.04701843 0.1721499 -0.01943664
v -0.03597412 0.1704935 -0.05641327
v -0.04674377 0.9557793 -0.05868072
v -0.07870483 0.9558921 -0.06822662
v -0.08825073 0.9570776 -0.03626861
v -0.05628967 0.9569647 -0.02672272
vt 0.2330322 0.2322998
vt 0.2330322 0.2322998
vt 0.2330322 0.2322998
vt 0.2330322 0.2322998
vt 0.2330322 0.2322998
vt 0.2330322 0.2322998
vt 0.2330322 0.2322998
vt 0.2330322 0.2322998
vt 0.2330322 0.2322998
vt 0.2330322 0.2322998
vt 0.2330322 0.2322998
vt 0.2330322 0.2322998
vt 0.2330322 0.2322998
vt 0.2330322 0.2322998
vt 0.2330322 0.2322998
vt 0.2330322 0.2322998
vt 0.2330322 0.2322998
vt 0.2330322 0.2322998
vt 0.2330322 0.2322998
vt 0.2330322 0.2322998
vt 0.2330322 0.2322998
vt 0.2330322 0.2322998
vt 0.2330322 0.2322998
vt 0.2330322 0.2322998
vt 0.2330322 0.2322998
vt 0.2330322 0.2322998
vt 0.2330322 0.2322998
vt 0.2330322 0.2322998
vt 0.2330322 0.2322998
vt 0.2330322 0.2322998
vt 0.2330322 0.2322998
vt 0.2330322 0.2322998
vt 0.2330322 0.2322998
vt 0.2330322 0.2322998
vt 0.2330322 0.2322998
vt 0.2330322 0.2322998
vt 0.2330322 0.2322998
vt 0.2330322 0.2322998
vt 0.2330322 0.2322998
vt 0.2330322 0.2322998
vt 0.2330322 0.2322998
vt 0.2330322 0.2322998
vt 0.2330322 0.2322998
vt 0.2330322 0.2322998
vt 0.2330322 0.2322998
vt 0.2330322 0.2322998
vt 0.2330322 0.2322998
vt 0.2330322 0.2322998
vt 0.2330322 0.2322998
vt 0.2330322 0.2322998
vt 0.2330322 0.2322998
vt 0.2330322 0.2322998
vt 0.2330322 0.2322998
vt 0.2330322 0.2322998
vt 0.2330322 0.2322998
vt 0.2330322 0.2322998
vt 0.2330322 0.2322998
vt 0.2330322 0.2322998
vt 0.2330322 0.2322998
vt 0.2330322 0.2322998
vt 0.2330322 0.2322998
vt 0.2330322 0.2322998
vt 0.2330322 0.2322998
vt 0.2330322 0.2322998
vt 0.2330322 0.2322998
vt 0.2330322 0.2322998
vt 0.2330322 0.2322998
vt 0.2330322 0.2322998
vt 0.2330322 0.2322998
vt 0.2330322 0.2322998
vt 0.2330322 0.2322998
vt 0.2330322 0.2322998
vt 0.2330322 0.2322998
vt 0.2330322 0.2322998
vt 0.2330322 0.2322998
vt 0.2330322 0.2322998
vt 0.2330322 0.2322998
vt 0.2330322 0.2322998
vt 0.2330322 0.2322998
vt 0.2330322 0.2322998
vt 0.2330322 0.2322998
vt 0.2330322 0.2322998
vt 0.2330322 0.2322998
vt 0.2330322 0.2322998
vt 0.2330322 0.2322998
vt 0.2330322 0.2322998
vt 0.2330322 0.2322998
vt 0.2330322 0.2322998
vt 0.2330322 0.2322998
vt 0.2330322 0.2322998
vt 0.2330322 0.2322998
vt 0.2330322 0.2322998
vt 0.2330322 0.2322998
vt 0.2330322 0.2322998
vt 0.2330322 0.2322998
vt 0.2330322 0.2322998
vt 0.2330322 0.2322998
vt 0.2330322 0.2322998
vt 0.2330322 0.2322998
vt 0.2330322 0.2322998
vt 0.2330322 0.2322998
vt 0.2330322 0.2322998
vt 0.2330322 0.2322998
vt 0.2330322 0.2322998
vt 0.2330322 0.2322998
vt 0.2330322 0.2322998
vt 0.2330322 0.2322998
vt 0.2330322 0.2322998
vt 0.2330322 0.2322998
vt 0.2330322 0.2322998
vt 0.2330322 0.2322998
vt 0.2330322 0.2322998
vt 0.2330322 0.2322998
vt 0.2330322 0.2322998
vt 0.2330322 0.2322998
vt 0.2330322 0.2322998
vt 0.2330322 0.2322998
vt 0.2330322 0.2322998
vt 0.2330322 0.2322998
vt 0.2330322 0.2322998
vt 0.2330322 0.2322998
vt 0.2330322 0.2322998
vt 0.2330322 0.2322998
vt 0.2330322 0.2322998
vt 0.2330322 0.2322998
vt 0.2330322 0.2322998
vt 0.2330322 0.2322998
vt 0.2330322 0.2322998
vt 0.2330322 0.2322998
vt 0.2330322 0.2322998
vt 0.2330322 0.2322998
vt 0.2330322 0.2322998
vt 0.2330322 0.2322998
vt 0.2330322 0.2322998
vt 0.2330322 0.2322998
vt 0.2330322 0.2322998
vt 0.2330322 0.2322998
vt 0.2330322 0.2322998
vt 0.2330322 0.2322998
vt 0.2330322 0.2322998
vt 0.2330322 0.2322998
vt 0.2330322 0.2322998
vt 0.2330322 0.2322998
vt 0.2330322 0.2322998
vt 0.2330322 0.2322998
vt 0.2330322 0.2322998
vt 0.2330322 0.2322998
vt 0.2330322 0.2322998
vt 0.2330322 0.2322998
vt 0.2330322 0.2322998
vt 0.2330322 0.2322998
vt 0.2330322 0.2322998
vt 0.2330322 0.2322998
vt 0.2330322 0.2322998
vt 0.2330322 0.2322998
vt 0.2330322 0.2322998
vt 0.2330322 0.2322998
vt 0.2330322 0.2322998
vt 0.2330322 0.2322998
vt 0.2330322 0.2322998
vn 0.9526367 0.09875488 0.2871094
vn 0.9526367 0.09875488 0.2871094
vn 0 -1 0
vn 0 -1 0
vn 0.5083008 0 0.8608398
vn 0.5083008 0 0.8608398
vn 0 -1 0
vn 0 -1 0
vn 0.5761719 0.01437378 0.8173828
vn 0.5761719 0.01437378 0.8173828
vn -0.3676758 -0.9042969 0.2171631
vn -0.3676758 -0.9042969 0.2171631
vn 0.9580078 0.01235962 0.2856445
vn 0.9580078 0.01235962 0.2856445
vn -0.9580078 -0.0064888 -0.2858887
vn -0.9580078 -0.0064888 -0.2858887
vn 0.5083008 -0.000603199 0.8608398
vn 0.5083008 -0.000603199 0.8608398
vn -0.5083008 0.006565094 -0.8613281
vn -0.5083008 0.006565094 -0.8613281
vn 0.5087891 0.006008148 0.8608398
vn 0.5087891 0.006008148 0.8608398
vn -0.5083008 -7.003546E-05 -0.8613281
vn -0.5083008 -7.003546E-05 -0.8613281
vn 0.9526367 0.09875488 0.2871094
vn 0.9526367 0.09875488 0.2871094
vn 0.5083008 0.0006628036 0.8608398
vn 0.5083008 0.0006628036 0.8608398
vn 0.5761719 0.01437378 0.8173828
vn 0.5761719 0.01437378 0.8173828
vn -0.2851563 0.04013062 0.9575195
vn 0.2849121 -0.04696655 -0.9575195
vn -0.8608398 -0.003276825 0.5083008
vn 0.8613281 -0.00321579 -0.5083008
vn -0.8583984 -0.05886841 0.5092773
vn 0.8588867 0.05194092 -0.5092773
vn -0.9580078 -0.0064888 -0.2858887
vn -0.9580078 -0.0064888 -0.2858887
vn -0.5087891 -0.003837585 -0.8608398
vn -0.5087891 -0.003837585 -0.8608398
vn -0.5087891 -0.005443573 -0.8608398
vn -0.5087891 -0.005443573 -0.8608398
vn 0.9570313 0.03013611 0.2878418
vn 0.9570313 0.03013611 0.2878418
vn 0.5083008 0.0003602505 0.8608398
vn 0.5083008 0.0003602505 0.8608398
vn 0.5087891 0.001886368 0.8608398
vn 0.5087891 0.001886368 0.8608398
vn 0.953125 -0.05413818 0.2971191
vn 0.953125 -0.05413818 0.2971191
vn 0 -1 0
vn 0 -1 0
vn 0.9580078 0.01396942 0.2856445
vn 0.9580078 0.01396942 0.2856445
vn -0.9580078 -0.007335663 -0.2858887
vn -0.9580078 -0.007335663 -0.2858887
vn 0.953125 -0.05664063 0.2973633
vn 0.953125 -0.05664063 0.2973633
vn -0.2854004 -0.002981186 0.9584961
vn 0.2854004 0.02438354 -0.9580078
vn -0.9580078 -0.007335663 -0.2858887
vn -0.9580078 -0.007335663 -0.2858887
vn 0.9526367 -0.05911255 0.2976074
vn 0.9526367 -0.05911255 0.2976074
vn 0 -1 0
vn 0 -1 0
vn 0.2856445 -0.05172729 -0.9570313
vn 0.2849121 -0.04696655 -0.9575195
vn 0.2856445 -0.05172729 -0.9570313
vn -0.2856445 0.0519104 0.9570313
vn -0.2851563 0.04013062 0.9575195
vn -0.2856445 0.0519104 0.9570313
vn 0 -1 0
vn 0 -1 0
vn 0.8613281 0 -0.5083008
vn 0.8613281 -0.00321579 -0.5083008
vn 0.8613281 0 -0.5083008
vn -0.8613281 0 0.5083008
vn -0.8608398 -0.003276825 0.5083008
vn -0.8613281 0 0.5083008
vn -0.3676758 -0.9042969 0.2171631
vn -0.3676758 -0.9042969 0.2171631
vn 0.8583984 0.05636597 -0.5097656
vn 0.8588867 0.05194092 -0.5092773
vn 0.8583984 0.05636597 -0.5097656
vn -0.8583984 -0.05734253 0.5097656
vn -0.8583984 -0.05886841 0.5092773
vn -0.8583984 -0.05734253 0.5097656
vn 0.9560547 0.04788208 0.2897949
vn 0.9560547 0.04788208 0.2897949
vn 0.2851563 -0.02058411 -0.9584961
vn 0.2851563 -0.02058411 -0.9584961
vn -0.2854004 0.01661682 0.9584961
vn -0.2854004 0.01661682 0.9584961
vn 0.8613281 -0.001746178 -0.5083008
vn 0.8613281 -0.001746178 -0.5083008
vn -0.8608398 -0.001771927 0.5083008
vn -0.8608398 -0.001771927 0.5083008
vn 0.5083008 -0.002233505 0.8613281
vn 0.5083008 -0.002233505 0.8613281
vn 0.859375 0.04748535 -0.5087891
vn 0.859375 0.04748535 -0.5087891
vn -0.8588867 -0.06036377 0.5087891
vn -0.8588867 -0.06036377 0.5087891
vn -0.9541016 -0.07971191 -0.2880859
vn -0.9526367 -0.09869385 -0.2873535
vn -0.9526367 -0.09869385 -0.2873535
vn -0.9541016 -0.07971191 -0.2880859
vn -0.5087891 -0.007118225 -0.8608398
vn -0.5083008 0 -0.8608398
vn -0.5083008 0 -0.8608398
vn -0.5087891 -0.007118225 -0.8608398
vn -0.5761719 -0.01445007 -0.8173828
vn -0.5761719 -0.01445007 -0.8173828
vn -0.5761719 -0.01445007 -0.8173828
vn -0.5761719 -0.01445007 -0.8173828
vn -0.9555664 -0.0607605 -0.2885742
vn -0.9555664 -0.0607605 -0.2885742
vn -0.5092773 -0.01081848 -0.8603516
vn -0.5092773 -0.01081848 -0.8603516
vn 0.2861328 0.001026154 -0.9580078
vn 0.2861328 0.001026154 -0.9580078
vn -0.2858887 0.004890442 0.9580078
vn -0.2858887 0.004890442 0.9580078
vn 0.8608398 0.002941132 -0.5083008
vn 0.8608398 0.002941132 -0.5083008
vn -0.8613281 0.003009796 0.5083008
vn -0.8613281 0.003009796 0.5083008
vn 0.8613281 0.001158714 -0.5083008
vn 0.8613281 0.001158714 -0.5083008
vn -0.8608398 0.00479126 0.5083008
vn -0.8608398 0.00479126 0.5083008
vn -0.8608398 0.00479126 0.5083008
vn -0.8608398 0.00479126 0.5083008
vn 0 -1 0
vn 0 -1 0
vn 0.2854004 0.02438354 -0.9580078
vn 0.2854004 0.02438354 -0.9580078
vn 0.2854004 0.02438354 -0.9580078
vn -0.2854004 -0.02325439 0.9580078
vn -0.2854004 -0.002981186 0.9584961
vn -0.2854004 -0.02325439 0.9580078
vn 0.2844238 -0.03390503 -0.9580078
vn 0.2854004 -0.01638794 -0.9584961
vn 0.2854004 -0.01638794 -0.9584961
vn 0.2844238 -0.03390503 -0.9580078
vn -0.2854004 0.01140594 0.9584961
vn -0.2854004 0.01140594 0.9584961
vn -0.9536133 0.04846191 -0.296875
vn -0.953125 0.05438232 -0.2971191
vn -0.953125 0.05438232 -0.2971191
vn -0.9536133 0.04846191 -0.296875
vn -0.9541016 0.04251099 -0.296875
vn -0.9541016 0.04251099 -0.296875
vn 0.9580078 0.01396942 0.2856445
vn 0.9580078 0.01396942 0.2856445
vn 0.2861328 0.001161575 -0.9580078
vn 0.2861328 0.001161575 -0.9580078
vn -0.2858887 0.005527496 0.9580078
vn -0.2858887 0.005527496 0.9580078
g SM_Prop_Wires_05_0
f 26/26/26 25/25/25 1/1/1
f 2/2/2 26/26/26 1/1/1
f 66/66/66 65/65/65 3/3/3
f 4/4/4 66/66/66 3/3/3
f 69/69/69 32/32/32 67/67/67
f 32/32/32 68/68/68 67/67/67
f 32/32/32 92/92/92 68/68/68
f 92/92/92 91/91/91 68/68/68
f 92/92/92 122/122/122 91/91/91
f 122/122/122 121/121/121 91/91/91
f 72/72/72 71/71/71 70/70/70
f 71/71/71 31/31/31 70/70/70
f 71/71/71 94/94/94 31/31/31
f 94/94/94 93/93/93 31/31/31
f 94/94/94 124/124/124 93/93/93
f 124/124/124 123/123/123 93/93/93
f 6/6/6 28/28/28 5/5/5
f 28/28/28 27/27/27 5/5/5
f 28/28/28 46/46/46 27/27/27
f 46/46/46 45/45/45 27/27/27
f 46/46/46 18/18/18 45/45/45
f 18/18/18 17/17/17 45/45/45
f 74/74/74 73/73/73 7/7/7
f 8/8/8 74/74/74 7/7/7
f 77/77/77 34/34/34 75/75/75
f 34/34/34 76/76/76 75/75/75
f 34/34/34 96/96/96 76/76/76
f 96/96/96 95/95/95 76/76/76
f 96/96/96 126/126/126 95/95/95
f 126/126/126 125/125/125 95/95/95
f 80/80/80 79/79/79 78/78/78
f 79/79/79 33/33/33 78/78/78
f 79/79/79 98/98/98 33/33/33
f 98/98/98 97/97/97 33/33/33
f 98/98/98 128/128/128 97/97/97
f 128/128/128 127/127/127 97/97/97
f 30/30/30 29/29/29 9/9/9
f 10/10/10 30/30/30 9/9/9
f 82/82/82 81/81/81 11/11/11
f 12/12/12 82/82/82 11/11/11
f 85/85/85 36/36/36 83/83/83
f 36/36/36 84/84/84 83/83/83
f 36/36/36 102/102/102 84/84/84
f 102/102/102 101/101/101 84/84/84
f 102/102/102 130/130/130 101/101/101
f 130/130/130 129/129/129 101/101/101
f 88/88/88 87/87/87 86/86/86
f 87/87/87 35/35/35 86/86/86
f 87/87/87 104/104/104 35/35/35
f 104/104/104 103/103/103 35/35/35
f 38/38/38 37/37/37 15/15/15
f 16/16/16 38/38/38 15/15/15
f 20/20/20 40/40/40 19/19/19
f 40/40/40 39/39/39 19/19/19
f 40/40/40 112/112/112 39/39/39
f 112/112/112 109/109/109 39/39/39
f 112/112/112 111/111/111 109/109/109
f 111/111/111 110/110/110 109/109/109
f 24/24/24 42/42/42 23/23/23
f 42/42/42 41/41/41 23/23/23
f 42/42/42 120/120/120 41/41/41
f 120/120/120 119/119/119 41/41/41
f 90/90/90 44/44/44 89/89/89
f 44/44/44 43/43/43 89/89/89
f 44/44/44 14/14/14 43/43/43
f 14/14/14 13/13/13 43/43/43
f 100/100/100 48/48/48 99/99/99
f 48/48/48 47/47/47 99/99/99
f 48/48/48 22/22/22 47/47/47
f 22/22/22 21/21/21 47/47/47
f 107/107/107 106/106/106 105/105/105
f 108/108/108 107/107/107 105/105/105
f 108/108/108 105/105/105 117/117/117
f 118/118/118 108/108/108 117/117/117
f 115/115/115 114/114/114 113/113/113
f 116/116/116 115/115/115 113/113/113
f 133/133/133 132/132/132 131/131/131
f 134/134/134 133/133/133 131/131/131
f 50/50/50 58/58/58 49/49/49
f 58/58/58 57/57/57 49/49/49
f 58/58/58 64/64/64 57/57/57
f 64/64/64 63/63/63 57/57/57
f 136/136/136 135/135/135 51/51/51
f 52/52/52 136/136/136 51/51/51
f 60/60/60 138/138/138 137/137/137
f 139/139/139 60/60/60 137/137/137
f 142/142/142 141/141/141 140/140/140
f 141/141/141 59/59/59 140/140/140
f 141/141/141 148/148/148 59/59/59
f 148/148/148 147/147/147 59/59/59
f 148/148/148 160/160/160 147/147/147
f 160/160/160 159/159/159 147/147/147
f 62/62/62 61/61/61 55/55/55
f 56/56/56 62/62/62 55/55/55
f 146/146/146 145/145/145 143/143/143
f 145/145/145 144/144/144 143/143/143
f 145/145/145 158/158/158 144/144/144
f 158/158/158 157/157/157 144/144/144
f 151/151/151 150/150/150 149/149/149
f 152/152/152 151/151/151 149/149/149
f 152/152/152 149/149/149 153/153/153
f 154/154/154 152/152/152 153/153/153
f 54/54/54 53/53/53 155/155/155
f 156/156/156 54/54/54 155/155/155
