g SM_Prop_Window_01
v -0.1517334 0.5506288 0.2431402
v -0.2018547 0.4889228 0.2431402
v -0.2280769 0.5506288 0.1418419
v -0.2280769 0.5506288 0.1418419
v -0.2018547 0.4889228 0.2431402
v -0.3505402 0.4281663 0.2431402
v 0.4755821 -0.3031253 0.2431402
v 0.5027237 -0.2082358 0.2431402
v 0.5506287 -0.2280785 0.1637545
v 0.5506287 -0.2280785 0.1637545
v 0.5027237 -0.2082358 0.2431402
v 0.5506248 -0.1672522 0.2431402
v -0.1843338 -0.4450217 0.1732483
v -0.2017288 -0.4870185 0.2431402
v -0.2471695 -0.3821872 0.2431402
v -0.2017288 -0.4870185 0.2431402
v -0.1843338 -0.4450217 0.1732483
v -0.09506226 -0.4450217 0.2431402
v -0.5506287 0.228078 0
v -0.5506287 0.228078 0.2431402
v -0.5506287 -0.2280783 0.2431402
v -0.5506287 -0.2280783 0
v -0.5506287 -0.2280783 0
v -0.5506287 -0.2280783 0.2431402
v -0.2280769 -0.5506289 0.2431402
v -0.2280769 -0.5506289 0
v -0.2280769 -0.5506289 0
v -0.2280769 -0.5506289 0.2431402
v 0.2280769 -0.550629 0.2431402
v 0.2280769 -0.550629 0
v 0.5506287 0.228078 0
v 0.5506287 0.228078 0.2431402
v 0.2280769 0.5506283 0.2431402
v 0.2280769 0.5506283 0
v -0.1843338 0.4450215 0
v -0.1843338 0.4450215 0.1202679
v 0.1843338 0.4450212 0.1202679
v 0.1843338 0.4450212 0
v -0.4450226 0.1843339 0
v -0.4450226 0.1843339 0.1202679
v -0.1843338 0.4450215 0.1202679
v -0.1843338 0.4450215 0
v -0.4450226 -0.1843344 0
v -0.4450226 -0.1843344 0.1202679
v -0.4450226 0.1843339 0.1202679
v -0.4450226 0.1843339 0
v -0.1843338 -0.4450217 0
v -0.1843338 -0.4450217 0.1202679
v -0.4450226 -0.1843344 0.1202679
v -0.4450226 -0.1843344 0
v 0.1843338 -0.4450217 0
v 0.1843338 -0.4450217 0.1202679
v -0.1843338 -0.4450217 0.1202679
v -0.1843338 -0.4450217 0
v 0.4450226 -0.1843344 0
v 0.4450226 -0.1843344 0.1202679
v 0.1843338 -0.4450217 0.1202679
v 0.1843338 -0.4450217 0
v 0.4450226 0.1843339 0
v 0.4450226 0.1843339 0.1202679
v 0.4450226 -0.1843344 0.1202679
v 0.4450226 -0.1843344 0
v 0.1843338 0.4450212 0
v 0.1843338 0.4450212 0.1202679
v 0.4450226 0.1843339 0.1202679
v 0.4450226 0.1843339 0
v 0.1843338 0.4450212 0.2431402
v 0.1843338 0.4450212 0.1732483
v -0.1843338 0.4450215 0.1732483
v -0.1843338 0.4450215 0.2431402
v -0.1843338 0.4450215 0.2431402
v -0.1843338 0.4450215 0.1732483
v -0.4450226 0.1843339 0.1732483
v -0.4450226 0.1843339 0.2431402
v -0.4450226 0.1843339 0.2431402
v -0.4450226 0.1843339 0.1732483
v -0.4450226 -0.1843344 0.1732483
v -0.4450226 -0.1843344 0.2431402
v -0.4450226 -0.1843344 0.2431402
v -0.4450226 -0.1843344 0.1732483
v -0.1843338 -0.4450217 0.1732483
v -0.2471695 -0.3821872 0.2431402
v -0.1843338 -0.4450217 0.1732483
v 0.1843338 -0.4450217 0.1732483
v 0.1843338 -0.4450217 0.2431402
v -0.09506226 -0.4450217 0.2431402
v 0.1843338 -0.4450217 0.2431402
v 0.1843338 -0.4450217 0.1732483
v 0.4450226 -0.1843344 0.1732483
v 0.4450226 -0.1843344 0.2431402
v 0.4450226 -0.1843344 0.2431402
v 0.4450226 -0.1843344 0.1732483
v 0.4450226 0.1843339 0.1732483
v 0.4450226 0.1843339 0.2431402
v 0.4450226 0.1843339 0.2431402
v 0.4450226 0.1843339 0.1732483
v 0.1843338 0.4450212 0.1732483
v 0.1843338 0.4450212 0.2431402
v -0.5506287 0.228078 0.2431402
v -0.5506287 0.228078 0
v -0.2280769 0.5506288 0
v -0.2280769 0.5506288 0.1418419
v -0.3505402 0.4281663 0.2431402
v -0.2280769 0.5506288 0.1418419
v -0.2280769 0.5506288 0
v 0.2280769 0.5506283 0
v 0.2280769 0.5506283 0.2431402
v -0.1517334 0.5506288 0.2431402
v 0.5506287 -0.2280785 0.1637545
v 0.5506287 -0.2280783 0
v 0.2280769 -0.550629 0
v 0.2280769 -0.550629 0.2431402
v 0.4755821 -0.3031253 0.2431402
v 0.5506287 -0.2280783 0
v 0.5506287 -0.2280785 0.1637545
v 0.5506248 -0.1672522 0.2431402
v 0.5506287 0.228078 0
v 0.5506287 0.228078 0.2431402
v -0.2471695 -0.3821872 0.2431402
v -0.2017288 -0.4870185 0.2431402
v -0.2280769 -0.5506289 0.2431402
v -0.09506226 -0.4450217 0.2431402
v 0.1843338 -0.4450217 0.2431402
v -0.5506287 -0.2280783 0.2431402
v 0.2280769 -0.550629 0.2431402
v -0.4450226 -0.1843344 0.2431402
v -0.5506287 0.228078 0.2431402
v 0.4450226 -0.1843344 0.2431402
v 0.4755821 -0.3031253 0.2431402
v 0.5027237 -0.2082358 0.2431402
v -0.4450226 0.1843339 0.2431402
v -0.3505402 0.4281663 0.2431402
v -0.2018547 0.4889228 0.2431402
v -0.1843338 0.4450215 0.2431402
v -0.1517334 0.5506288 0.2431402
v 0.4450226 0.1843339 0.2431402
v 0.5506248 -0.1672522 0.2431402
v 0.5506287 0.228078 0.2431402
v 0.1843338 0.4450212 0.2431402
v 0.2280769 0.5506283 0.2431402
v -0.1843338 0.4450215 0.1202679
v 0 -2.384186E-07 0.1202679
v 0.1843338 0.4450212 0.1202679
v -0.4450226 0.1843339 0.1202679
v 0.4450226 0.1843339 0.1202679
v -0.4450226 -0.1843344 0.1202679
v 0.4450226 -0.1843344 0.1202679
v -0.1843338 -0.4450217 0.1202679
v 0.1843338 -0.4450217 0.1202679
v 0.1843338 0.4450212 0.1732483
v 0 -2.384186E-07 0.1732483
v -0.1843338 0.4450215 0.1732483
v 0.4450226 0.1843339 0.1732483
v -0.4450226 0.1843339 0.1732483
v 0.4450226 -0.1843344 0.1732483
v -0.4450226 -0.1843344 0.1732483
v 0.1843338 -0.4450217 0.1732483
v -0.1843338 -0.4450217 0.1732483
v -0.2280769 0.5506288 0
v -0.1843338 0.4450215 0
v 0.1843338 0.4450212 0
v 0.2280769 0.5506283 0
v -0.5506287 0.228078 0
v 0.4450226 0.1843339 0
v -0.4450226 0.1843339 0
v 0.5506287 0.228078 0
v -0.5506287 -0.2280783 0
v 0.4450226 -0.1843344 0
v -0.4450226 -0.1843344 0
v 0.5506287 -0.2280783 0
v -0.2280769 -0.5506289 0
v 0.1843338 -0.4450217 0
v -0.1843338 -0.4450217 0
v 0.2280769 -0.550629 0
vt 0.2451172 0.28125
vt 0.2451172 0.28125
vt 0.2451172 0.28125
vt 0.2451172 0.28125
vt 0.2451172 0.28125
vt 0.2451172 0.28125
vt 0.2451172 0.28125
vt 0.2451172 0.28125
vt 0.2451172 0.28125
vt 0.2451172 0.28125
vt 0.2451172 0.28125
vt 0.2451172 0.28125
vt 0.2451172 0.28125
vt 0.2451172 0.28125
vt 0.2451172 0.28125
vt 0.2451172 0.28125
vt 0.2451172 0.28125
vt 0.2451172 0.28125
vt 0.2451172 0.28125
vt 0.2451172 0.28125
vt 0.2451172 0.28125
vt 0.2451172 0.28125
vt 0.2451172 0.28125
vt 0.2451172 0.28125
vt 0.2451172 0.28125
vt 0.2451172 0.28125
vt 0.2451172 0.28125
vt 0.2451172 0.28125
vt 0.2451172 0.28125
vt 0.2451172 0.28125
vt 0.2451172 0.28125
vt 0.2451172 0.28125
vt 0.2451172 0.28125
vt 0.2451172 0.28125
vt 0.2451172 0.28125
vt 0.2451172 0.28125
vt 0.2451172 0.28125
vt 0.2451172 0.28125
vt 0.2451172 0.28125
vt 0.2451172 0.28125
vt 0.2451172 0.28125
vt 0.2451172 0.28125
vt 0.2451172 0.28125
vt 0.2451172 0.28125
vt 0.2451172 0.28125
vt 0.2451172 0.28125
vt 0.2451172 0.28125
vt 0.2451172 0.28125
vt 0.2451172 0.28125
vt 0.2451172 0.28125
vt 0.2451172 0.28125
vt 0.2451172 0.28125
vt 0.2451172 0.28125
vt 0.2451172 0.28125
vt 0.2451172 0.28125
vt 0.2451172 0.28125
vt 0.2451172 0.28125
vt 0.2451172 0.28125
vt 0.2451172 0.28125
vt 0.2451172 0.28125
vt 0.2451172 0.28125
vt 0.2451172 0.28125
vt 0.2451172 0.28125
vt 0.2451172 0.28125
vt 0.2451172 0.28125
vt 0.2451172 0.28125
vt 0.2451172 0.28125
vt 0.2451172 0.28125
vt 0.2451172 0.28125
vt 0.2451172 0.28125
vt 0.2451172 0.28125
vt 0.2451172 0.28125
vt 0.2451172 0.28125
vt 0.2451172 0.28125
vt 0.2451172 0.28125
vt 0.2451172 0.28125
vt 0.2451172 0.28125
vt 0.2451172 0.28125
vt 0.2451172 0.28125
vt 0.2451172 0.28125
vt 0.2451172 0.28125
vt 0.2451172 0.28125
vt 0.2451172 0.28125
vt 0.2451172 0.28125
vt 0.2451172 0.28125
vt 0.2451172 0.28125
vt 0.2451172 0.28125
vt 0.2451172 0.28125
vt 0.2451172 0.28125
vt 0.2451172 0.28125
vt 0.2451172 0.28125
vt 0.2451172 0.28125
vt 0.2451172 0.28125
vt 0.2451172 0.28125
vt 0.2451172 0.28125
vt 0.2451172 0.28125
vt 0.2451172 0.28125
vt 0.2451172 0.28125
vt 0.2451172 0.28125
vt 0.2451172 0.28125
vt 0.2451172 0.28125
vt 0.2451172 0.28125
vt 0.2451172 0.28125
vt 0.2451172 0.28125
vt 0.2451172 0.28125
vt 0.2451172 0.28125
vt 0.2451172 0.28125
vt 0.2451172 0.28125
vt 0.2451172 0.28125
vt 0.2451172 0.28125
vt 0.2451172 0.28125
vt 0.2451172 0.28125
vt 0.2451172 0.28125
vt 0.2451172 0.28125
vt 0.2451172 0.28125
vt 0.2451172 0.28125
vt 0.2451172 0.28125
vt 0.2451172 0.28125
vt 0.2451172 0.28125
vt 0.2451172 0.28125
vt 0.2451172 0.28125
vt 0.2451172 0.28125
vt 0.2451172 0.28125
vt 0.2451172 0.28125
vt 0.2451172 0.28125
vt 0.2451172 0.28125
vt 0.2451172 0.28125
vt 0.2451172 0.28125
vt 0.2451172 0.28125
vt 0.2451172 0.28125
vt 0.2451172 0.28125
vt 0.2451172 0.28125
vt 0.2451172 0.28125
vt 0.2451172 0.28125
vt 0.2451172 0.28125
vt 0.2451172 0.28125
vt 0.2451172 0.28125
vt 0.2451172 0.28125
vt 0.2451172 0.28125
vt 0.2451172 0.28125
vt 0.565918 0.12146
vt 0.5473633 0.06225586
vt 0.5292969 0.12146
vt 0.5922852 0.08679199
vt 0.5009766 0.08679199
vt 0.5922852 0.03771973
vt 0.5009766 0.03771973
vt 0.565918 0.001685143
vt 0.5292969 0.001685143
vt 0.565918 0.12146
vt 0.5473633 0.06225586
vt 0.5292969 0.12146
vt 0.5922852 0.08679199
vt 0.5009766 0.08679199
vt 0.5922852 0.03771973
vt 0.5009766 0.03771973
vt 0.565918 0.001685143
vt 0.5292969 0.001685143
vt 0.2451172 0.28125
vt 0.2451172 0.28125
vt 0.2451172 0.28125
vt 0.2451172 0.28125
vt 0.2451172 0.28125
vt 0.2451172 0.28125
vt 0.2451172 0.28125
vt 0.2451172 0.28125
vt 0.2451172 0.28125
vt 0.2451172 0.28125
vt 0.2451172 0.28125
vt 0.2451172 0.28125
vt 0.2451172 0.28125
vt 0.2451172 0.28125
vt 0.2451172 0.28125
vt 0.2451172 0.28125
vn -0.6699219 0.5444336 0.5048828
vn -0.6699219 0.5444336 0.5048828
vn -0.6699219 0.5444336 0.5048828
vn -0.3154297 0.7719727 0.5517578
vn -0.3154297 0.7719727 0.5517578
vn -0.3154297 0.7719727 0.5517578
vn 0.8066406 -0.2307129 0.5444336
vn 0.8066406 -0.2307129 0.5444336
vn 0.8066406 -0.2307129 0.5444336
vn 0.5620117 -0.6567383 0.5029297
vn 0.5620117 -0.6567383 0.5029297
vn 0.5620117 -0.6567383 0.5029297
vn 0.8310547 0.3603516 0.4233398
vn 0.8310547 0.3603516 0.4233398
vn 0.8310547 0.3603516 0.4233398
vn -0.3317871 0.8427734 0.4238281
vn -0.3317871 0.8427734 0.4238281
vn -0.3317871 0.8427734 0.4238281
vn -1 0 0
vn -1 0 0
vn -1 0 0
vn -1 0 0
vn -0.7070313 -0.7070313 0
vn -0.7070313 -0.7070313 0
vn -0.7070313 -0.7070313 0
vn -0.7070313 -0.7070313 0
vn 0 -1 0
vn 0 -1 0
vn 0 -1 0
vn 0 -1 0
vn 0.7070313 0.7070313 0
vn 0.7070313 0.7070313 0
vn 0.7070313 0.7070313 0
vn 0.7070313 0.7070313 0
vn 0 -1 0
vn 0 -1 0
vn 0 -1 0
vn 0 -1 0
vn 0.7070313 -0.7070313 0
vn 0.7070313 -0.7070313 0
vn 0.7070313 -0.7070313 0
vn 0.7070313 -0.7070313 0
vn 1 0 0
vn 1 0 0
vn 1 0 0
vn 1 0 0
vn 0.7070313 0.7070313 0
vn 0.7070313 0.7070313 0
vn 0.7070313 0.7070313 0
vn 0.7070313 0.7070313 0
vn 0 1 0
vn 0 1 0
vn 0 1 0
vn 0 1 0
vn -0.7070313 0.7070313 0
vn -0.7070313 0.7070313 0
vn -0.7070313 0.7070313 0
vn -0.7070313 0.7070313 0
vn -1 0 0
vn -1 0 0
vn -1 0 0
vn -1 0 0
vn -0.7070313 -0.7070313 0
vn -0.7070313 -0.7070313 0
vn -0.7070313 -0.7070313 0
vn -0.7070313 -0.7070313 0
vn 0 -1 0
vn 0 -1 0
vn 0 -1 0
vn 0 -1 0
vn 0.7070313 -0.7070313 0
vn 0.7070313 -0.7070313 0
vn 0.7070313 -0.7070313 0
vn 0.7070313 -0.7070313 0
vn 1 0 0
vn 1 0 0
vn 1 0 0
vn 1 0 0
vn 0.7070313 0.7070313 0
vn 0.7070313 0.7070313 0
vn 0.7070313 0.7070313 0
vn 0.7070313 0.7070313 0
vn 0 1 0
vn 0 1 0
vn 0 1 0
vn 0 1 0
vn -0.7070313 0.7070313 0
vn -0.7070313 0.7070313 0
vn -0.7070313 0.7070313 0
vn -0.7070313 0.7070313 0
vn -1 0 0
vn -1 0 0
vn -1 0 0
vn -1 0 0
vn -0.7070313 -0.7070313 0
vn -0.7070313 -0.7070313 0
vn -0.7070313 -0.7070313 0
vn -0.7070313 -0.7070313 0
vn -0.7070313 0.7070313 0
vn -0.7070313 0.7070313 0
vn -0.7070313 0.7070313 0
vn -0.7070313 0.7070313 0
vn -0.7070313 0.7070313 0
vn 0 1 0
vn 0 1 0
vn 0 1 0
vn 0 1 0
vn 0 1 0
vn 0.7070313 -0.7070313 0
vn 0.7070313 -0.7070313 0
vn 0.7070313 -0.7070313 0
vn 0.7070313 -0.7070313 0
vn 0.7070313 -0.7070313 0
vn 1 3.135204E-05 7.867813E-06
vn 1 6.270409E-05 0
vn 1 1.770258E-05 5.245209E-06
vn 1 0 7.867813E-06
vn 1 0 0
vn 0 0 1
vn 0 0 1
vn 0 0 1
vn 0 0 1
vn 0 0 1
vn 0 0 1
vn 0 0 1
vn 0 0 1
vn 0 0 1
vn 0 0 1
vn 0 0 1
vn 0 0 1
vn 0 0 1
vn 0 0 1
vn 0 0 1
vn 0 0 1
vn 0 0 1
vn 0 0 1
vn 0 0 1
vn 0 0 1
vn 0 0 1
vn 0 0 1
vn 0 0 -1
vn 0 0 -1
vn 0 0 -1
vn 0 0 -1
vn 0 0 -1
vn 0 0 -1
vn 0 0 -1
vn 0 0 -1
vn 0 0 -1
vn 0 0 1
vn 0 0 1
vn 0 0 1
vn 0 0 1
vn 0 0 1
vn 0 0 1
vn 0 0 1
vn 0 0 1
vn 0 0 1
vn 0 0 -1
vn 0 0 -1
vn 0 0 -1
vn 0 0 -1
vn 0 0 -1
vn 0 0 -1
vn 0 0 -1
vn 0 0 -1
vn 0 0 -1
vn 0 0 -1
vn 0 0 -1
vn 0 0 -1
vn 0 0 -1
vn 0 0 -1
vn 0 0 -1
vn 0 0 -1
g SM_Prop_Window_01_0
f 3/3/3 2/2/2 1/1/1
f 6/6/6 5/5/5 4/4/4
f 9/9/9 8/8/8 7/7/7
f 12/12/12 11/11/11 10/10/10
f 15/15/15 14/14/14 13/13/13
f 18/18/18 17/17/17 16/16/16
f 21/21/21 20/20/20 19/19/19
f 22/22/22 21/21/21 19/19/19
f 25/25/25 24/24/24 23/23/23
f 26/26/26 25/25/25 23/23/23
f 29/29/29 28/28/28 27/27/27
f 30/30/30 29/29/29 27/27/27
f 33/33/33 32/32/32 31/31/31
f 34/34/34 33/33/33 31/31/31
f 37/37/37 36/36/36 35/35/35
f 38/38/38 37/37/37 35/35/35
f 41/41/41 40/40/40 39/39/39
f 42/42/42 41/41/41 39/39/39
f 45/45/45 44/44/44 43/43/43
f 46/46/46 45/45/45 43/43/43
f 49/49/49 48/48/48 47/47/47
f 50/50/50 49/49/49 47/47/47
f 53/53/53 52/52/52 51/51/51
f 54/54/54 53/53/53 51/51/51
f 57/57/57 56/56/56 55/55/55
f 58/58/58 57/57/57 55/55/55
f 61/61/61 60/60/60 59/59/59
f 62/62/62 61/61/61 59/59/59
f 65/65/65 64/64/64 63/63/63
f 66/66/66 65/65/65 63/63/63
f 69/69/69 68/68/68 67/67/67
f 70/70/70 69/69/69 67/67/67
f 73/73/73 72/72/72 71/71/71
f 74/74/74 73/73/73 71/71/71
f 77/77/77 76/76/76 75/75/75
f 78/78/78 77/77/77 75/75/75
f 81/81/81 80/80/80 79/79/79
f 82/82/82 81/81/81 79/79/79
f 85/85/85 84/84/84 83/83/83
f 86/86/86 85/85/85 83/83/83
f 89/89/89 88/88/88 87/87/87
f 90/90/90 89/89/89 87/87/87
f 93/93/93 92/92/92 91/91/91
f 94/94/94 93/93/93 91/91/91
f 97/97/97 96/96/96 95/95/95
f 98/98/98 97/97/97 95/95/95
f 101/101/101 100/100/100 99/99/99
f 99/99/99 102/102/102 101/101/101
f 99/99/99 103/103/103 102/102/102
f 106/106/106 105/105/105 104/104/104
f 104/104/104 107/107/107 106/106/106
f 104/104/104 108/108/108 107/107/107
f 111/111/111 110/110/110 109/109/109
f 109/109/109 112/112/112 111/111/111
f 109/109/109 113/113/113 112/112/112
f 116/116/116 115/115/115 114/114/114
f 114/114/114 117/117/117 116/116/116
f 117/117/117 118/118/118 116/116/116
f 121/121/121 120/120/120 119/119/119
f 122/122/122 120/120/120 121/121/121
f 123/123/123 122/122/122 121/121/121
f 119/119/119 124/124/124 121/121/121
f 121/121/121 125/125/125 123/123/123
f 119/119/119 126/126/126 124/124/124
f 124/124/124 126/126/126 127/127/127
f 128/128/128 123/123/123 125/125/125
f 128/128/128 125/125/125 129/129/129
f 129/129/129 130/130/130 128/128/128
f 126/126/126 131/131/131 127/127/127
f 132/132/132 127/127/127 131/131/131
f 133/133/133 132/132/132 131/131/131
f 131/131/131 134/134/134 133/133/133
f 135/135/135 133/133/133 134/134/134
f 136/136/136 128/128/128 130/130/130
f 136/136/136 130/130/130 137/137/137
f 137/137/137 138/138/138 136/136/136
f 135/135/135 134/134/134 139/139/139
f 139/139/139 136/136/136 138/138/138
f 139/139/139 140/140/140 135/135/135
f 140/140/140 139/139/139 138/138/138
f 143/143/143 142/142/142 141/141/141
f 141/141/141 142/142/142 144/144/144
f 145/145/145 142/142/142 143/143/143
f 144/144/144 142/142/142 146/146/146
f 147/147/147 142/142/142 145/145/145
f 146/146/146 142/142/142 148/148/148
f 149/149/149 142/142/142 147/147/147
f 148/148/148 142/142/142 149/149/149
f 152/152/152 151/151/151 150/150/150
f 150/150/150 151/151/151 153/153/153
f 154/154/154 151/151/151 152/152/152
f 153/153/153 151/151/151 155/155/155
f 156/156/156 151/151/151 154/154/154
f 155/155/155 151/151/151 157/157/157
f 158/158/158 151/151/151 156/156/156
f 157/157/157 151/151/151 158/158/158
f 161/161/161 160/160/160 159/159/159
f 162/162/162 161/161/161 159/159/159
f 159/159/159 160/160/160 163/163/163
f 164/164/164 161/161/161 162/162/162
f 160/160/160 165/165/165 163/163/163
f 166/166/166 164/164/164 162/162/162
f 163/163/163 165/165/165 167/167/167
f 168/168/168 164/164/164 166/166/166
f 165/165/165 169/169/169 167/167/167
f 170/170/170 168/168/168 166/166/166
f 167/167/167 169/169/169 171/171/171
f 172/172/172 168/168/168 170/170/170
f 169/169/169 173/173/173 171/171/171
f 174/174/174 172/172/172 170/170/170
f 171/171/171 173/173/173 174/174/174
f 173/173/173 172/172/172 174/174/174
