g SM_Prop_Medical_Isolator_Glass_01
v -0.3583038 0.9105912 0.5670235
v 0.357608 0.9105912 0.5670235
v -0.3603889 1.252378 0.5670235
v 0.357608 1.252378 0.5670235
v -0.3603889 1.252378 -0.5689216
v 0.357608 1.252378 -0.5689216
v -0.3583038 0.9105912 -0.5689216
v 0.357608 0.9105912 -0.5689216
v -0.1949722 1.480623 0.5641159
v 0.1961334 1.480623 0.5641159
v 0.1961334 1.480623 -0.5641159
v -0.1949722 1.480623 -0.5641159
v 0.357608 0.9105912 -0.5641159
v 0.357608 1.252378 -0.5641159
v 0.357608 1.252378 0.5641159
v 0.357608 0.9105912 0.5641159
v 0.357608 0.9105912 0
v 0.357608 1.252378 0.08461761
v 0.357608 1.119411 -0.3303894
v 0.357608 1.081485 0
v 0.357608 1.122439 0.312413
v 0.357608 1.019661 -0.3303894
v 0.357608 0.996038 0
v 0.357608 1.020171 0.312413
v 0.357608 1.122439 0.1436211
v 0.357608 1.020171 0.1436211
v 0.357608 1.119411 -0.1657532
v 0.357608 1.019661 -0.1657532
v 0.357608 1.161884 0.2280174
v 0.357608 0.9807255 0.2280174
v 0.357608 1.153189 -0.2480713
v 0.357608 0.9858825 -0.2480713
v -0.3583038 0.9105912 -0.5689216
v -0.3603889 1.252378 -0.5689216
v -0.3603889 1.252378 0.5670235
v -0.3583038 0.9105912 0.5670235
v 0.357608 1.252378 0.5670235
v 0.1961334 1.480623 0.5641159
v 0.357608 1.252378 -0.5689216
v 0.1961334 1.480623 -0.5641159
v -0.3603889 1.252378 -0.5689216
v -0.1949722 1.480623 -0.5641159
v -0.1949722 1.480623 0.5641159
v -0.3603889 1.252378 0.5670235
vt 0.3859863 0.09710693
vt 0.3859863 0.09710693
vt 0.3859863 0.09710693
vt 0.3859863 0.09710693
vt 0.3859863 0.09710693
vt 0.3859863 0.09710693
vt 0.3859863 0.09710693
vt 0.3859863 0.09710693
vt 0.3859863 0.09710693
vt 0.3859863 0.09710693
vt 0.3859863 0.09710693
vt 0.3859863 0.09710693
vt 0.3859863 0.09710693
vt 0.3859863 0.09710693
vt 0.3859863 0.09710693
vt 0.3859863 0.09710693
vt 0.3859863 0.09710693
vt 0.3859863 0.09710693
vt 0.3859863 0.09710693
vt 0.3859863 0.09710693
vt 0.3859863 0.09710693
vt 0.3859863 0.09710693
vt 0.3859863 0.09710693
vt 0.3859863 0.09710693
vt 0.3859863 0.09710693
vt 0.3859863 0.09710693
vt 0.3859863 0.09710693
vt 0.3859863 0.09710693
vt 0.3859863 0.09710693
vt 0.3859863 0.09710693
vt 0.3859863 0.09710693
vt 0.3859863 0.09710693
vt 0.3859863 0.09710693
vt 0.3859863 0.09710693
vt 0.3859863 0.09710693
vt 0.3859863 0.09710693
vt 0.3859863 0.09710693
vt 0.3859863 0.09710693
vt 0.3859863 0.09710693
vt 0.3859863 0.09710693
vt 0.3859863 0.09710693
vt 0.3859863 0.09710693
vt 0.3859863 0.09710693
vt 0.3859863 0.09710693
vn 0 0 1
vn 0 0 1
vn 0 0.006370544 1
vn 0 0.006370544 1
vn 0 0.01052856 -1
vn 0 0.01052856 -1
vn 0 0 -1
vn 0 0 -1
vn 0 0.01274109 1
vn 0 0.01274109 1
vn 0.8164063 0.5776367 0
vn 0 0.02105713 -1
vn 1 0 0
vn 1 0 0
vn 1 0 0
vn 1 0 0
vn 1 0 0
vn 1 0 0
vn 1 0 0
vn 1 0 0
vn 1 0 0
vn 1 0 0
vn 1 0 0
vn 1 0 0
vn 1 0 0
vn 1 0 0
vn 1 0 0
vn 1 0 0
vn 1 0 0
vn 1 0 0
vn 1 0 0
vn 1 0 0
vn -1 -0.006099701 0
vn -1 -0.006099701 0
vn -1 -0.006099701 0
vn -1 -0.006099701 0
vn 0.8164063 0.5776367 0
vn 0.8164063 0.5776367 0
vn 0.8164063 0.5776367 0
vn 0 0.02105713 -1
vn -0.8095703 0.5869141 0
vn -0.8095703 0.5869141 0
vn -0.8095703 0.5869141 0
vn -0.8095703 0.5869141 0
g SM_Prop_Medical_Isolator_Glass_01_0
f 2/2/2 4/4/4 1/1/1
f 4/4/4 3/3/3 1/1/1
f 4/4/4 10/10/10 3/3/3
f 10/10/10 9/9/9 3/3/3
f 8/8/8 7/7/7 5/5/5
f 6/6/6 8/8/8 5/5/5
f 5/5/5 12/12/12 6/6/6
f 12/12/12 40/40/40 6/6/6
f 35/35/35 34/34/34 33/33/33
f 36/36/36 35/35/35 33/33/33
f 11/11/11 38/38/38 37/37/37
f 39/39/39 11/11/11 37/37/37
f 43/43/43 42/42/42 41/41/41
f 44/44/44 43/43/43 41/41/41
f 21/21/21 15/15/15 16/16/16
f 21/21/21 18/18/18 15/15/15
f 24/24/24 21/21/21 16/16/16
f 16/16/16 30/30/30 24/24/24
f 29/29/29 18/18/18 21/21/21
f 16/16/16 17/17/17 30/30/30
f 25/25/25 18/18/18 29/29/29
f 26/26/26 30/30/30 17/17/17
f 20/20/20 25/25/25 26/26/26
f 20/20/20 18/18/18 25/25/25
f 23/23/23 26/26/26 17/17/17
f 20/20/20 26/26/26 23/23/23
f 28/28/28 23/23/23 17/17/17
f 28/28/28 20/20/20 23/23/23
f 32/32/32 28/28/28 17/17/17
f 28/28/28 27/27/27 20/20/20
f 27/27/27 18/18/18 20/20/20
f 31/31/31 18/18/18 27/27/27
f 31/31/31 14/14/14 18/18/18
f 19/19/19 14/14/14 31/31/31
f 32/32/32 17/17/17 13/13/13
f 14/14/14 19/19/19 13/13/13
f 32/32/32 13/13/13 22/22/22
f 13/13/13 19/19/19 22/22/22
