g SM_Prop_Sidewalk_Rubble_01
v 0.05470276 0.1097796 0.0666008
v 0.005249023 0.1097796 0.1276894
v -0.0811615 0.1097796 0.1043053
v 0.3675995 0.05453752 0.1737404
v 0.338028 0.05453752 0.2102623
v 0.2863617 0.05453752 0.1962776
v -0.2902489 0.05453752 0.1454697
v -0.3372307 0.05453752 0.1455841
v -0.3589897 0.05453752 0.09668732
v 0.1467857 0.03916422 -0.1567001
v 0.1450653 0.03916422 -0.1948547
v 0.1840171 0.03916422 -0.214222
v 0.02566528 0 -0.09734726
v 0.005249023 0.1097796 -0.01726913
v -0.0811615 0.1097796 0.006122589
v -0.1562042 0 -0.04812241
v 0.005249023 0.1097796 -0.01726913
v 0.05470276 0.1097796 0.0666008
v -0.0811615 0.1097796 0.1043053
v -0.0811615 0.1097796 0.006122589
v 0.005249023 0.1097796 0.1276894
v 0.02566528 0 0.2077675
v -0.1562042 0 0.1585426
v -0.0811615 0.1097796 0.1043053
v -0.1562042 0 -0.04812241
v -0.0811615 0.1097796 0.006122589
v -0.0811615 0.1097796 0.1043053
v -0.1562042 0 0.1585426
v 0.1297455 0 0.07918167
v 0.05470276 0.1097796 0.0666008
v 0.005249023 0.1097796 -0.01726913
v 0.02566528 0 -0.09734726
v 0.02566528 0 0.2077675
v 0.005249023 0.1097796 0.1276894
v 0.05470276 0.1097796 0.0666008
v 0.1297455 0 0.07918167
v 0.350235 0 0.07571793
v 0.338028 0.05453752 0.1236
v 0.2863617 0.05453752 0.1375771
v 0.2415009 0 0.1051521
v 0.338028 0.05453752 0.1236
v 0.3675995 0.05453752 0.1737404
v 0.2863617 0.05453752 0.1962776
v 0.2863617 0.05453752 0.1375771
v 0.338028 0.05453752 0.2102623
v 0.350235 0 0.2581367
v 0.2415009 0 0.2287025
v 0.2863617 0.05453752 0.1962776
v 0.2415009 0 0.1051521
v 0.2863617 0.05453752 0.1375771
v 0.2863617 0.05453752 0.1962776
v 0.2415009 0 0.2287025
v 0.4124603 0 0.1812553
v 0.3675995 0.05453752 0.1737404
v 0.338028 0.05453752 0.1236
v 0.350235 0 0.07571793
v 0.350235 0 0.2581367
v 0.338028 0.05453752 0.2102623
v 0.3675995 0.05453752 0.1737404
v 0.4124603 0 0.1812553
v -0.2251549 0 0.07014465
v -0.2700157 0.05453752 0.09088898
v -0.3134422 0.05453752 0.05963898
v -0.3166161 0 0.004371643
v -0.2700157 0.05453752 0.09088898
v -0.2902489 0.05453752 0.1454697
v -0.3589897 0.05453752 0.09668732
v -0.3134422 0.05453752 0.05963898
v -0.3372307 0.05453752 0.1455841
v -0.3666649 0 0.1852646
v -0.4124565 0 0.08234406
v -0.3589897 0.05453752 0.09668732
v -0.3166161 0 0.004371643
v -0.3134422 0.05453752 0.05963898
v -0.3589897 0.05453752 0.09668732
v -0.4124565 0 0.08234406
v -0.2677574 0 0.1850204
v -0.2902489 0.05453752 0.1454697
v -0.2700157 0.05453752 0.09088898
v -0.2251549 0 0.07014465
v -0.3666649 0 0.1852646
v -0.3372307 0.05453752 0.1455841
v -0.2902489 0.05453752 0.1454697
v -0.2677574 0 0.1850204
v 0.2102127 0 -0.1064644
v 0.1918106 0.03916422 -0.1421623
v 0.2156791 0.03916422 -0.1785278
v 0.2604523 0 -0.1830101
v 0.1918106 0.03916422 -0.1421623
v 0.1467857 0.03916422 -0.1567001
v 0.1840171 0.03916422 -0.214222
v 0.2156791 0.03916422 -0.1785278
v 0.1450653 0.03916422 -0.1948547
v 0.1118164 0 -0.2173805
v 0.1938057 0 -0.2581367
v 0.1840171 0.03916422 -0.214222
v 0.2604523 0 -0.1830101
v 0.2156791 0.03916422 -0.1785278
v 0.1840171 0.03916422 -0.214222
v 0.1938057 0 -0.2581367
v 0.115448 0 -0.1370735
v 0.1467857 0.03916422 -0.1567001
v 0.1918106 0.03916422 -0.1421623
v 0.2102127 0 -0.1064644
v 0.1118164 0 -0.2173805
v 0.1450653 0.03916422 -0.1948547
v 0.1467857 0.03916422 -0.1567001
v 0.115448 0 -0.1370735
vt 0.4338379 0.4765625
vt 0.4338379 0.4765625
vt 0.4338379 0.4765625
vt 0.4338379 0.4765625
vt 0.4338379 0.4765625
vt 0.4338379 0.4765625
vt 0.4338379 0.4765625
vt 0.4338379 0.4765625
vt 0.4338379 0.4765625
vt 0.4338379 0.4765625
vt 0.4338379 0.4765625
vt 0.4338379 0.4765625
vt 0.4338379 0.4765625
vt 0.4338379 0.4765625
vt 0.4338379 0.4765625
vt 0.4338379 0.4765625
vt 0.4338379 0.4765625
vt 0.4338379 0.4765625
vt 0.4338379 0.4765625
vt 0.4338379 0.4765625
vt 0.4338379 0.4765625
vt 0.4338379 0.4765625
vt 0.4338379 0.4765625
vt 0.4338379 0.4765625
vt 0.4338379 0.4765625
vt 0.4338379 0.4765625
vt 0.4338379 0.4765625
vt 0.4338379 0.4765625
vt 0.4338379 0.4765625
vt 0.4338379 0.4765625
vt 0.4338379 0.4765625
vt 0.4338379 0.4765625
vt 0.4338379 0.4765625
vt 0.4338379 0.4765625
vt 0.4338379 0.4765625
vt 0.4338379 0.4765625
vt 0.4338379 0.4765625
vt 0.4338379 0.4765625
vt 0.4338379 0.4765625
vt 0.4338379 0.4765625
vt 0.4338379 0.4765625
vt 0.4338379 0.4765625
vt 0.4338379 0.4765625
vt 0.4338379 0.4765625
vt 0.4338379 0.4765625
vt 0.4338379 0.4765625
vt 0.4338379 0.4765625
vt 0.4338379 0.4765625
vt 0.4338379 0.4765625
vt 0.4338379 0.4765625
vt 0.4338379 0.4765625
vt 0.4338379 0.4765625
vt 0.4338379 0.4765625
vt 0.4338379 0.4765625
vt 0.4338379 0.4765625
vt 0.4338379 0.4765625
vt 0.4338379 0.4765625
vt 0.4338379 0.4765625
vt 0.4338379 0.4765625
vt 0.4338379 0.4765625
vt 0.4338379 0.4765625
vt 0.4338379 0.4765625
vt 0.4338379 0.4765625
vt 0.4338379 0.4765625
vt 0.4338379 0.4765625
vt 0.4338379 0.4765625
vt 0.4338379 0.4765625
vt 0.4338379 0.4765625
vt 0.4338379 0.4765625
vt 0.4338379 0.4765625
vt 0.4338379 0.4765625
vt 0.4338379 0.4765625
vt 0.4338379 0.4765625
vt 0.4338379 0.4765625
vt 0.4338379 0.4765625
vt 0.4338379 0.4765625
vt 0.4338379 0.4765625
vt 0.4338379 0.4765625
vt 0.4338379 0.4765625
vt 0.4338379 0.4765625
vt 0.4338379 0.4765625
vt 0.4338379 0.4765625
vt 0.4338379 0.4765625
vt 0.4338379 0.4765625
vt 0.4338379 0.4765625
vt 0.4338379 0.4765625
vt 0.4338379 0.4765625
vt 0.4338379 0.4765625
vt 0.4338379 0.4765625
vt 0.4338379 0.4765625
vt 0.4338379 0.4765625
vt 0.4338379 0.4765625
vt 0.4338379 0.4765625
vt 0.4338379 0.4765625
vt 0.4338379 0.4765625
vt 0.4338379 0.4765625
vt 0.4338379 0.4765625
vt 0.4338379 0.4765625
vt 0.4338379 0.4765625
vt 0.4338379 0.4765625
vt 0.4338379 0.4765625
vt 0.4338379 0.4765625
vt 0.4338379 0.4765625
vt 0.4338379 0.4765625
vt 0.4338379 0.4765625
vt 0.4338379 0.4765625
vt 0.4338379 0.4765625
vt 0.4338379 0.4765625
vn 0 1 0
vn 0 1 0
vn 0 1 0
vn 0 1 0
vn 0 1 0
vn 0 1 0
vn 0 1 0
vn 0 1 0
vn 0 1 0
vn 0 1 0
vn 0 1 0
vn 0 1 0
vn -0.2185059 0.5483398 -0.8071289
vn -0.2185059 0.5483398 -0.8071289
vn -0.2185059 0.5483398 -0.8071289
vn -0.2185059 0.5483398 -0.8071289
vn 0 1 0
vn 0 1 0
vn 0 1 0
vn 0 1 0
vn -0.2185059 0.5483398 0.8071289
vn -0.2185059 0.5483398 0.8071289
vn -0.2185059 0.5483398 0.8071289
vn -0.2185059 0.5483398 0.8071289
vn -0.8256836 0.5644531 0
vn -0.8256836 0.5644531 0
vn -0.8256836 0.5644531 0
vn -0.8256836 0.5644531 0
vn 0.7607422 0.46875 -0.4487305
vn 0.7607422 0.46875 -0.4487305
vn 0.7607422 0.46875 -0.4487305
vn 0.7607422 0.46875 -0.4487305
vn 0.6655273 0.5166016 0.5385742
vn 0.6655273 0.5166016 0.5385742
vn 0.6655273 0.5166016 0.5385742
vn 0.6655273 0.5166016 0.5385742
vn -0.2050781 0.6191406 -0.7578125
vn -0.2050781 0.6191406 -0.7578125
vn -0.2050781 0.6191406 -0.7578125
vn -0.2050781 0.6191406 -0.7578125
vn 0 1 0
vn 0 1 0
vn 0 1 0
vn 0 1 0
vn -0.2052002 0.6191406 0.7578125
vn -0.2052002 0.6191406 0.7578125
vn -0.2052002 0.6191406 0.7578125
vn -0.2052002 0.6191406 0.7578125
vn -0.7724609 0.6352539 0
vn -0.7724609 0.6352539 0
vn -0.7724609 0.6352539 0
vn -0.7724609 0.6352539 0
vn 0.7260742 0.5380859 -0.4279785
vn 0.7260742 0.5380859 -0.4279785
vn 0.7260742 0.5380859 -0.4279785
vn 0.7260742 0.5380859 -0.4279785
vn 0.6289063 0.5874023 0.5092773
vn 0.6289063 0.5874023 0.5092773
vn 0.6289063 0.5874023 0.5092773
vn 0.6289063 0.5874023 0.5092773
vn 0.4584961 0.6191406 -0.637207
vn 0.4584961 0.6191406 -0.637207
vn 0.4584961 0.6191406 -0.637207
vn 0.4584961 0.6191406 -0.637207
vn 0 1 0
vn 0 1 0
vn 0 1 0
vn 0 1 0
vn -0.7172852 0.6191406 0.3190918
vn -0.7172852 0.6191406 0.3190918
vn -0.7172852 0.6191406 0.3190918
vn -0.7172852 0.6191406 0.3190918
vn -0.4873047 0.6352539 -0.5991211
vn -0.4873047 0.6352539 -0.5991211
vn -0.4873047 0.6352539 -0.5991211
vn -0.4873047 0.6352539 -0.5991211
vn 0.7900391 0.5385742 0.2929688
vn 0.7900391 0.5385742 0.2929688
vn 0.7900391 0.5385742 0.2929688
vn 0.7900391 0.5385742 0.2929688
vn 0.001989365 0.5874023 0.809082
vn 0.001989365 0.5874023 0.809082
vn 0.001989365 0.5874023 0.809082
vn 0.001989365 0.5874023 0.809082
vn 0.6235352 0.6660156 0.4091797
vn 0.6235352 0.6660156 0.4091797
vn 0.6235352 0.6660156 0.4091797
vn 0.6235352 0.6660156 0.4091797
vn 0 1 0
vn 0 1 0
vn 0 1 0
vn 0 1 0
vn -0.3320313 0.6660156 -0.6679688
vn -0.3320313 0.6660156 -0.6679688
vn -0.3320313 0.6660156 -0.6679688
vn -0.3320313 0.6660156 -0.6679688
vn 0.5473633 0.6816406 -0.4855957
vn 0.5473633 0.6816406 -0.4855957
vn 0.5473633 0.6816406 -0.4855957
vn 0.5473633 0.6816406 -0.4855957
vn -0.2490234 0.5859375 0.7709961
vn -0.2490234 0.5859375 0.7709961
vn -0.2490234 0.5859375 0.7709961
vn -0.2490234 0.5859375 0.7709961
vn -0.7714844 0.6352539 0.03485107
vn -0.7714844 0.6352539 0.03485107
vn -0.7714844 0.6352539 0.03485107
vn -0.7714844 0.6352539 0.03485107
g SM_Prop_Sidewalk_Rubble_01_0
f 3/3/3 2/2/2 1/1/1
f 6/6/6 5/5/5 4/4/4
f 9/9/9 8/8/8 7/7/7
f 12/12/12 11/11/11 10/10/10
f 15/15/15 14/14/14 13/13/13
f 16/16/16 15/15/15 13/13/13
f 19/19/19 18/18/18 17/17/17
f 20/20/20 19/19/19 17/17/17
f 23/23/23 22/22/22 21/21/21
f 24/24/24 23/23/23 21/21/21
f 27/27/27 26/26/26 25/25/25
f 28/28/28 27/27/27 25/25/25
f 31/31/31 30/30/30 29/29/29
f 32/32/32 31/31/31 29/29/29
f 35/35/35 34/34/34 33/33/33
f 36/36/36 35/35/35 33/33/33
f 39/39/39 38/38/38 37/37/37
f 40/40/40 39/39/39 37/37/37
f 43/43/43 42/42/42 41/41/41
f 44/44/44 43/43/43 41/41/41
f 47/47/47 46/46/46 45/45/45
f 48/48/48 47/47/47 45/45/45
f 51/51/51 50/50/50 49/49/49
f 52/52/52 51/51/51 49/49/49
f 55/55/55 54/54/54 53/53/53
f 56/56/56 55/55/55 53/53/53
f 59/59/59 58/58/58 57/57/57
f 60/60/60 59/59/59 57/57/57
f 63/63/63 62/62/62 61/61/61
f 64/64/64 63/63/63 61/61/61
f 67/67/67 66/66/66 65/65/65
f 68/68/68 67/67/67 65/65/65
f 71/71/71 70/70/70 69/69/69
f 72/72/72 71/71/71 69/69/69
f 75/75/75 74/74/74 73/73/73
f 76/76/76 75/75/75 73/73/73
f 79/79/79 78/78/78 77/77/77
f 80/80/80 79/79/79 77/77/77
f 83/83/83 82/82/82 81/81/81
f 84/84/84 83/83/83 81/81/81
f 87/87/87 86/86/86 85/85/85
f 88/88/88 87/87/87 85/85/85
f 91/91/91 90/90/90 89/89/89
f 92/92/92 91/91/91 89/89/89
f 95/95/95 94/94/94 93/93/93
f 96/96/96 95/95/95 93/93/93
f 99/99/99 98/98/98 97/97/97
f 100/100/100 99/99/99 97/97/97
f 103/103/103 102/102/102 101/101/101
f 104/104/104 103/103/103 101/101/101
f 107/107/107 106/106/106 105/105/105
f 108/108/108 107/107/107 105/105/105
