g SM_Prop_EscapePod_Door_01
v -0.9628009 -0.5701292 0.1753466
v -0.9628009 1.073381 0.1753466
v -0.9628009 1.073381 -0.1753469
v -0.9628009 -0.5701292 -0.1753469
v -0.2764322 -1.805647 -0.1753469
v -0.2764322 -1.805647 0.1753466
v -0.2764322 1.805647 0.1753466
v -0.2764322 1.805647 -0.1753469
v 0.7126982 1.805647 0.1753466
v 0.7126982 -1.805647 0.1753466
v 0.7126982 1.805647 -0.1753469
v 0.7126982 -1.805647 -0.1753469
v 0.6576781 1.549827 0.1753466
v 0.6576781 -1.350469 0.1753466
v -0.1007379 -1.350469 0.1753466
v -0.1007379 1.549827 0.1753466
v -0.6864063 -0.1739404 0.1753466
v -0.6864063 0.3664474 0.1753466
v 0.5968084 1.491871 0.1167154
v 0.5968084 -1.292514 0.1167154
v -0.04609849 -1.292514 0.1167154
v -0.04609849 1.491871 0.1167154
v -0.6158538 -0.1630052 0.1167154
v -0.6158538 0.355786 0.1167154
v 0.7531226 1.788597 0.1480929
v 0.7531226 -1.788598 0.1480929
v 0.7531226 1.788597 -0.1480947
v 0.7531226 -1.788598 -0.1480947
v 0.4583708 1.315599 0.1167154
v 0.4583708 -1.116242 0.1167154
v 0.09233915 -1.116242 0.1167154
v 0.09233915 1.315599 0.1167154
v 0.7531226 1.114509 0.1480929
v 0.7531226 0.3245387 0.1480929
v 0.7531226 -0.3245388 0.1480929
v 0.7531226 -1.114509 0.1480929
v 0.7531226 -1.114509 -0.1480947
v 0.7531226 -0.3245388 -0.1480947
v 0.7531226 0.3245387 -0.1480947
v 0.7531226 1.114509 -0.1480947
v 0.9628004 -1.035119 -0.1480947
v 0.9628004 -0.3943548 -0.1480947
v 0.9628004 -0.3943548 0.1480929
v 0.9628004 -1.035119 0.1480929
v 0.9628004 0.3943547 -0.1480947
v 0.9628004 1.035119 -0.1480947
v 0.9628004 1.035119 0.1480929
v 0.9628004 0.3943547 0.1480929
v 0.7126982 1.805647 -0.1753469
v -0.2764322 1.805647 -0.1753469
v 0.7126982 -1.805647 -0.1753469
v -0.2764322 -1.805647 -0.1753469
v -0.2764322 -1.805647 0.1753466
v -0.2764322 -1.805647 -0.1753469
v -0.9628009 -0.5701292 -0.1753469
v -0.9628009 -0.5701292 0.1753466
v -0.2764322 1.805647 -0.1753469
v -0.2764322 1.805647 0.1753466
v -0.9628009 1.073381 0.1753466
v -0.9628009 1.073381 -0.1753469
v -0.9628009 1.073381 -0.1753469
v -0.9628009 -0.5701292 -0.1753469
v 0.7126982 1.805647 0.1753466
v 0.7126982 -1.805647 0.1753466
v -0.2764322 -1.805647 0.1753466
v -0.2764322 1.805647 0.1753466
v -0.9628009 -0.5701292 0.1753466
v -0.9628009 1.073381 0.1753466
v 0.6576781 1.549827 0.1753466
v 0.6576781 -1.350469 0.1753466
v 0.6576781 -1.350469 0.1753466
v -0.1007379 -1.350469 0.1753466
v -0.04609849 -1.292514 0.1167154
v 0.5968084 -1.292514 0.1167154
v -0.1007379 1.549827 0.1753466
v 0.6576781 1.549827 0.1753466
v 0.5968084 1.491871 0.1167154
v -0.04609849 1.491871 0.1167154
v -0.1007379 -1.350469 0.1753466
v -0.6864063 -0.1739404 0.1753466
v -0.6158538 -0.1630052 0.1167154
v -0.04609849 -1.292514 0.1167154
v -0.6864063 -0.1739404 0.1753466
v -0.6864063 0.3664474 0.1753466
v -0.6158538 0.355786 0.1167154
v -0.6158538 -0.1630052 0.1167154
v -0.6864063 0.3664474 0.1753466
v -0.1007379 1.549827 0.1753466
v -0.04609849 1.491871 0.1167154
v -0.6158538 0.355786 0.1167154
v 0.7126982 1.805647 0.1753466
v 0.7531226 -1.114509 0.1480929
v 0.7531226 -1.788598 0.1480929
v 0.7126982 -1.805647 0.1753466
v 0.7126982 1.805647 0.1753466
v 0.7126982 1.805647 -0.1753469
v 0.7531226 1.788597 0.1480929
v 0.7126982 -1.805647 -0.1753469
v 0.7531226 -1.788598 -0.1480947
v 0.7531226 -1.114509 -0.1480947
v 0.7531226 1.788597 -0.1480947
v 0.7126982 1.805647 -0.1753469
v 0.7126982 -1.805647 -0.1753469
v 0.7126982 -1.805647 0.1753466
v 0.7531226 -1.788598 0.1480929
v 0.7531226 -1.788598 -0.1480947
v 0.5968084 1.491871 0.1167154
v 0.5968084 -1.292514 0.1167154
v 0.4583708 -1.116242 0.1167154
v 0.4583708 1.315599 0.1167154
v 0.09233915 -1.116242 0.1167154
v 0.09233915 1.315599 0.1167154
v 0.7531226 -0.3245388 -0.1480947
v 0.7531226 -0.3245388 0.1480929
v 0.7531226 0.3245387 0.1480929
v 0.7531226 0.3245387 -0.1480947
v 0.7531226 1.114509 -0.1480947
v 0.7531226 1.114509 0.1480929
v 0.7531226 1.788597 0.1480929
v 0.7531226 1.788597 -0.1480947
v 0.7531226 -1.114509 -0.1480947
v 0.9628004 -1.035119 -0.1480947
v 0.9628004 -0.3943548 -0.1480947
v 0.7531226 -0.3245388 -0.1480947
v 0.7531226 -0.3245388 -0.1480947
v 0.9628004 -0.3943548 -0.1480947
v 0.9628004 -0.3943548 0.1480929
v 0.7531226 -0.3245388 0.1480929
v 0.7531226 -0.3245388 0.1480929
v 0.9628004 -0.3943548 0.1480929
v 0.9628004 -1.035119 0.1480929
v 0.7531226 -1.114509 0.1480929
v 0.7531226 -1.114509 0.1480929
v 0.9628004 -1.035119 0.1480929
v 0.9628004 -1.035119 -0.1480947
v 0.7531226 -1.114509 -0.1480947
v 0.7531226 0.3245387 -0.1480947
v 0.9628004 0.3943547 -0.1480947
v 0.9628004 1.035119 -0.1480947
v 0.7531226 1.114509 -0.1480947
v 0.7531226 1.114509 -0.1480947
v 0.9628004 1.035119 -0.1480947
v 0.9628004 1.035119 0.1480929
v 0.7531226 1.114509 0.1480929
v 0.7531226 1.114509 0.1480929
v 0.9628004 1.035119 0.1480929
v 0.9628004 0.3943547 0.1480929
v 0.7531226 0.3245387 0.1480929
v 0.7531226 0.3245387 0.1480929
v 0.9628004 0.3943547 0.1480929
v 0.9628004 0.3943547 -0.1480947
v 0.7531226 0.3245387 -0.1480947
vt 0.2442627 0.3032227
vt 0.2442627 0.3032227
vt 0.2442627 0.3032227
vt 0.2442627 0.3032227
vt 0.2442627 0.3032227
vt 0.2442627 0.3032227
vt 0.2442627 0.3032227
vt 0.2442627 0.3032227
vt 0.2442627 0.3032227
vt 0.2442627 0.3032227
vt 0.2442627 0.3032227
vt 0.2442627 0.3032227
vt 0.2442627 0.3032227
vt 0.2442627 0.3032227
vt 0.2442627 0.3032227
vt 0.2442627 0.3032227
vt 0.2442627 0.3032227
vt 0.2442627 0.3032227
vt 0.2442627 0.3032227
vt 0.2442627 0.3032227
vt 0.2458496 0.277832
vt 0.2458496 0.277832
vt 0.2458496 0.277832
vt 0.2458496 0.277832
vt 0.2442627 0.3032227
vt 0.2442627 0.3032227
vt 0.2442627 0.3032227
vt 0.2442627 0.3032227
vt 0.2451172 0.2509766
vt 0.2451172 0.2509766
vt 0.2451172 0.2509766
vt 0.2451172 0.2509766
vt 0.2442627 0.3032227
vt 0.2442627 0.3032227
vt 0.2442627 0.3032227
vt 0.2442627 0.3032227
vt 0.2442627 0.3032227
vt 0.2442627 0.3032227
vt 0.2442627 0.3032227
vt 0.2442627 0.3032227
vt 0.2442627 0.3032227
vt 0.2442627 0.3032227
vt 0.2442627 0.3032227
vt 0.2442627 0.3032227
vt 0.2442627 0.3032227
vt 0.2442627 0.3032227
vt 0.2442627 0.3032227
vt 0.2442627 0.3032227
vt 0.2442627 0.3032227
vt 0.2442627 0.3032227
vt 0.2442627 0.3032227
vt 0.2442627 0.3032227
vt 0.2442627 0.3032227
vt 0.2442627 0.3032227
vt 0.2442627 0.3032227
vt 0.2442627 0.3032227
vt 0.2442627 0.3032227
vt 0.2442627 0.3032227
vt 0.2442627 0.3032227
vt 0.2442627 0.3032227
vt 0.2442627 0.3032227
vt 0.2442627 0.3032227
vt 0.2442627 0.3032227
vt 0.2442627 0.3032227
vt 0.2442627 0.3032227
vt 0.2442627 0.3032227
vt 0.2442627 0.3032227
vt 0.2442627 0.3032227
vt 0.2442627 0.3032227
vt 0.2442627 0.3032227
vt 0.2442627 0.3032227
vt 0.2442627 0.3032227
vt 0.2442627 0.3032227
vt 0.2442627 0.3032227
vt 0.2442627 0.3032227
vt 0.2442627 0.3032227
vt 0.2442627 0.3032227
vt 0.2442627 0.3032227
vt 0.2442627 0.3032227
vt 0.2442627 0.3032227
vt 0.2442627 0.3032227
vt 0.2442627 0.3032227
vt 0.2442627 0.3032227
vt 0.2442627 0.3032227
vt 0.2442627 0.3032227
vt 0.2442627 0.3032227
vt 0.2442627 0.3032227
vt 0.2442627 0.3032227
vt 0.2442627 0.3032227
vt 0.2442627 0.3032227
vt 0.2442627 0.3032227
vt 0.2442627 0.3032227
vt 0.2442627 0.3032227
vt 0.2442627 0.3032227
vt 0.2442627 0.3032227
vt 0.2442627 0.3032227
vt 0.2442627 0.3032227
vt 0.2442627 0.3032227
vt 0.2442627 0.3032227
vt 0.2442627 0.3032227
vt 0.2442627 0.3032227
vt 0.2442627 0.3032227
vt 0.2442627 0.3032227
vt 0.2442627 0.3032227
vt 0.2442627 0.3032227
vt 0.2442627 0.3032227
vt 0.2458496 0.277832
vt 0.2458496 0.277832
vt 0.2458496 0.277832
vt 0.2458496 0.277832
vt 0.2458496 0.277832
vt 0.2458496 0.277832
vt 0.2442627 0.3032227
vt 0.2442627 0.3032227
vt 0.2442627 0.3032227
vt 0.2442627 0.3032227
vt 0.2442627 0.3032227
vt 0.2442627 0.3032227
vt 0.2442627 0.3032227
vt 0.2442627 0.3032227
vt 0.2442627 0.3032227
vt 0.2442627 0.3032227
vt 0.2442627 0.3032227
vt 0.2442627 0.3032227
vt 0.2442627 0.3032227
vt 0.2442627 0.3032227
vt 0.2442627 0.3032227
vt 0.2442627 0.3032227
vt 0.2442627 0.3032227
vt 0.2442627 0.3032227
vt 0.2442627 0.3032227
vt 0.2442627 0.3032227
vt 0.2442627 0.3032227
vt 0.2442627 0.3032227
vt 0.2442627 0.3032227
vt 0.2442627 0.3032227
vt 0.2442627 0.3032227
vt 0.2442627 0.3032227
vt 0.2442627 0.3032227
vt 0.2442627 0.3032227
vt 0.2442627 0.3032227
vt 0.2442627 0.3032227
vt 0.2442627 0.3032227
vt 0.2442627 0.3032227
vt 0.2442627 0.3032227
vt 0.2442627 0.3032227
vt 0.2442627 0.3032227
vt 0.2442627 0.3032227
vt 0.2442627 0.3032227
vt 0.2442627 0.3032227
vt 0.2442627 0.3032227
vt 0.2442627 0.3032227
vn -1 0 0
vn -1 0 0
vn -1 0 0
vn -1 0 0
vn 0 0 -1
vn 0 -1 0
vn 0 1 0
vn 0 1 0
vn 0 1 0
vn 0 -1 0
vn 0 1 0
vn 0 0 -1
vn 0 0 1
vn 0 0 1
vn 0 0 1
vn 0 0 1
vn 0 0 1
vn 0 0 1
vn -0.6938477 0 0.7202148
vn -0.6938477 0 0.7202148
vn 0 0 1
vn 0 0 1
vn 0 0 1
vn 0 0 1
vn 0.559082 0 0.8291016
vn 1 0 0
vn 0.3886719 0.9213867 0
vn 1 0 0
vn 0 0 1
vn 0 0 1
vn 0 0 1
vn 0 0 1
vn 0.559082 0 0.8291016
vn 0.559082 0 0.8291016
vn 0.559082 0 0.8291016
vn 1 0 0
vn 1 0 0
vn 0.559082 0 -0.8291016
vn 0.559082 0 -0.8291016
vn 0.559082 0 -0.8291016
vn 1 0 0
vn 1 0 0
vn 1 0 0
vn 1 0 0
vn 1 0 0
vn 1 0 0
vn 1 0 0
vn 1 0 0
vn 0 0 -1
vn 0 0 -1
vn 0 -1 0
vn 0 -1 0
vn -0.8740234 -0.4855957 0
vn -0.8740234 -0.4855957 0
vn -0.8740234 -0.4855957 0
vn -0.8740234 -0.4855957 0
vn -0.7294922 0.684082 0
vn -0.7294922 0.684082 0
vn -0.7294922 0.684082 0
vn -0.7294922 0.684082 0
vn 0 0 -1
vn 0 0 -1
vn 0 0 1
vn 0 0 1
vn 0 0 1
vn 0 0 1
vn 0 0 1
vn 0 0 1
vn -0.6938477 0 0.7202148
vn -0.6938477 0 0.7202148
vn 0 0.7114258 0.703125
vn 0 0.7114258 0.703125
vn 0 0.7114258 0.703125
vn 0 0.7114258 0.703125
vn 0 -0.7114258 0.703125
vn 0 -0.7114258 0.703125
vn 0 -0.7114258 0.703125
vn 0 -0.7114258 0.703125
vn 0.5673828 0.2841797 0.7729492
vn 0.5673828 0.2841797 0.7729492
vn 0.5673828 0.2841797 0.7729492
vn 0.5673828 0.2841797 0.7729492
vn 0.6391602 0 0.769043
vn 0.6391602 0 0.769043
vn 0.6391602 0 0.769043
vn 0.6391602 0 0.769043
vn 0.5683594 -0.2832031 0.7724609
vn 0.5683594 -0.2832031 0.7724609
vn 0.5683594 -0.2832031 0.7724609
vn 0.5683594 -0.2832031 0.7724609
vn 0.559082 0 0.8291016
vn 0.559082 0 0.8291016
vn 0.559082 0 0.8291016
vn 0.559082 0 0.8291016
vn 0.3886719 0.9213867 0
vn 0.3886719 0.9213867 0
vn 0.3886719 0.9213867 0
vn 0.559082 0 -0.8291016
vn 0.559082 0 -0.8291016
vn 0.559082 0 -0.8291016
vn 0.559082 0 -0.8291016
vn 0.559082 0 -0.8291016
vn 0.3886719 -0.9213867 0
vn 0.3886719 -0.9213867 0
vn 0.3886719 -0.9213867 0
vn 0.3886719 -0.9213867 0
vn 0 0 1
vn 0 0 1
vn 0 0 1
vn 0 0 1
vn 0 0 1
vn 0 0 1
vn 1 0 0
vn 1 0 0
vn 1 0 0
vn 1 0 0
vn 1 0 0
vn 1 0 0
vn 1 0 0
vn 1 0 0
vn 0 0 -1
vn 0 0 -1
vn 0 0 -1
vn 0 0 -1
vn 0.315918 0.9487305 0
vn 0.315918 0.9487305 0
vn 0.315918 0.9487305 0
vn 0.315918 0.9487305 0
vn 0 0 1
vn 0 0 1
vn 0 0 1
vn 0 0 1
vn 0.3540039 -0.9350586 0
vn 0.3540039 -0.9350586 0
vn 0.3540039 -0.9350586 0
vn 0.3540039 -0.9350586 0
vn 0 0 -1
vn 0 0 -1
vn 0 0 -1
vn 0 0 -1
vn 0.3540039 0.9350586 0
vn 0.3540039 0.9350586 0
vn 0.3540039 0.9350586 0
vn 0.3540039 0.9350586 0
vn 0 0 1
vn 0 0 1
vn 0 0 1
vn 0 0 1
vn 0.315918 -0.9487305 0
vn 0.315918 -0.9487305 0
vn 0.315918 -0.9487305 0
vn 0.315918 -0.9487305 0
g SM_Prop_EscapePod_Door_01_0
f 31/31/31 30/30/30 29/29/29
f 32/32/32 31/31/31 29/29/29
f 7/7/7 9/9/9 11/11/11
f 8/8/8 7/7/7 11/11/11
f 50/50/50 49/49/49 12/12/12
f 5/5/5 50/50/50 12/12/12
f 61/61/61 50/50/50 5/5/5
f 62/62/62 61/61/61 5/5/5
f 52/52/52 51/51/51 10/10/10
f 6/6/6 52/52/52 10/10/10
f 3/3/3 4/4/4 1/1/1
f 2/2/2 3/3/3 1/1/1
f 55/55/55 54/54/54 53/53/53
f 56/56/56 55/55/55 53/53/53
f 24/24/24 23/23/23 22/22/22
f 23/23/23 21/21/21 22/22/22
f 112/112/112 22/22/22 21/21/21
f 111/111/111 112/112/112 21/21/21
f 112/112/112 110/110/110 22/22/22
f 111/111/111 21/21/21 108/108/108
f 110/110/110 107/107/107 22/22/22
f 109/109/109 111/111/111 108/108/108
f 109/109/109 108/108/108 107/107/107
f 110/110/110 109/109/109 107/107/107
f 59/59/59 58/58/58 57/57/57
f 60/60/60 59/59/59 57/57/57
f 37/37/37 36/36/36 26/26/26
f 28/28/28 37/37/37 26/26/26
f 20/20/20 70/70/70 69/69/69
f 19/19/19 20/20/20 69/69/69
f 73/73/73 72/72/72 71/71/71
f 74/74/74 73/73/73 71/71/71
f 77/77/77 76/76/76 75/75/75
f 78/78/78 77/77/77 75/75/75
f 81/81/81 80/80/80 79/79/79
f 82/82/82 81/81/81 79/79/79
f 85/85/85 84/84/84 83/83/83
f 86/86/86 85/85/85 83/83/83
f 89/89/89 88/88/88 87/87/87
f 90/90/90 89/89/89 87/87/87
f 33/33/33 25/25/25 91/91/91
f 91/91/91 34/34/34 33/33/33
f 91/91/91 35/35/35 34/34/34
f 91/91/91 92/92/92 35/35/35
f 91/91/91 93/93/93 92/92/92
f 91/91/91 94/94/94 93/93/93
f 27/27/27 96/96/96 95/95/95
f 97/97/97 27/27/27 95/95/95
f 100/100/100 99/99/99 98/98/98
f 98/98/98 38/38/38 100/100/100
f 98/98/98 39/39/39 38/38/38
f 98/98/98 40/40/40 39/39/39
f 98/98/98 101/101/101 40/40/40
f 98/98/98 102/102/102 101/101/101
f 105/105/105 104/104/104 103/103/103
f 106/106/106 105/105/105 103/103/103
f 115/115/115 114/114/114 113/113/113
f 116/116/116 115/115/115 113/113/113
f 43/43/43 44/44/44 41/41/41
f 42/42/42 43/43/43 41/41/41
f 119/119/119 118/118/118 117/117/117
f 120/120/120 119/119/119 117/117/117
f 47/47/47 48/48/48 45/45/45
f 46/46/46 47/47/47 45/45/45
f 123/123/123 122/122/122 121/121/121
f 124/124/124 123/123/123 121/121/121
f 127/127/127 126/126/126 125/125/125
f 128/128/128 127/127/127 125/125/125
f 131/131/131 130/130/130 129/129/129
f 132/132/132 131/131/131 129/129/129
f 135/135/135 134/134/134 133/133/133
f 136/136/136 135/135/135 133/133/133
f 139/139/139 138/138/138 137/137/137
f 140/140/140 139/139/139 137/137/137
f 143/143/143 142/142/142 141/141/141
f 144/144/144 143/143/143 141/141/141
f 147/147/147 146/146/146 145/145/145
f 148/148/148 147/147/147 145/145/145
f 151/151/151 150/150/150 149/149/149
f 152/152/152 151/151/151 149/149/149
f 13/13/13 14/14/14 63/63/63
f 14/14/14 64/64/64 63/63/63
f 13/13/13 63/63/63 66/66/66
f 14/14/14 15/15/15 64/64/64
f 16/16/16 13/13/13 66/66/66
f 15/15/15 65/65/65 64/64/64
f 16/16/16 66/66/66 68/68/68
f 15/15/15 17/17/17 65/65/65
f 18/18/18 16/16/16 68/68/68
f 17/17/17 67/67/67 65/65/65
f 18/18/18 68/68/68 67/67/67
f 17/17/17 18/18/18 67/67/67
