g SM_Prop_WoodenPath_01
v 0.4414139 0.04469299 0.3659973
v 0.4414349 0.0266212 0.3977566
v 0.390337 0.04469299 0.3965874
v -0.427579 0.08938599 0.4262867
v -0.427579 0.08938599 -0.4529572
v -0.2976103 0.08938599 -0.4529572
v -0.3117075 0.08938599 0.2003441
v -0.2976103 0.08938599 0.4389706
v -0.2976103 0.08938599 -0.4529572
v -0.2976103 0.04469299 -0.4529572
v -0.3117075 0.04469299 0.1898804
v -0.3117075 0.08938599 0.2003441
v -0.2976103 0.08938599 0.4389706
v -0.2976103 0.04469299 0.4389706
v -0.2976103 0.08938599 0.4389706
v -0.2976103 0.04469299 0.4389706
v -0.427579 0.04469299 0.4262867
v -0.427579 0.08938599 0.4262867
v -0.427579 0.08938599 -0.4529572
v -0.427579 0.04469299 -0.4529572
v -0.2976103 0.04469299 -0.4529572
v -0.2976103 0.08938599 -0.4529572
v -0.427579 0.08938599 0.4262867
v -0.427579 0.04469299 0.4262867
v -0.427579 0.04469299 -0.4529572
v -0.427579 0.08938599 -0.4529572
v -0.3117075 0.04469299 0.1898804
v -0.2976103 0.04469299 -0.4529572
v -0.427579 0.04469299 -0.4529572
v -0.427579 0.04469299 0.4262867
v -0.2976103 0.04469299 0.4389706
v 0.4505739 0.08938599 -0.4529572
v 0.4505739 0.08938599 0.4389706
v 0.3420362 0.08938599 0.4389706
v 0.3206053 0.08938599 -0.4529572
v 0.4505739 0.08938599 -0.4529572
v 0.4505739 0.04469299 -0.4529572
v 0.4505739 0.04469299 0.4389706
v 0.4505739 0.08938599 0.4389706
v 0.4505739 0.08938599 0.4389706
v 0.4505739 0.04469299 0.4389706
v 0.3420362 0.04469299 0.4389706
v 0.3420362 0.08938599 0.4389706
v 0.3206053 0.08938599 -0.4529572
v 0.3206053 0.04469299 -0.4529572
v 0.4505739 0.04469299 -0.4529572
v 0.4505739 0.08938599 -0.4529572
v 0.3420362 0.08938599 0.4389706
v 0.3420362 0.04469299 0.4389706
v 0.3206053 0.04469299 -0.4529572
v 0.3206053 0.08938599 -0.4529572
v 0.3206053 0.04469299 -0.4529572
v 0.3420362 0.04469299 0.4389706
v 0.4505739 0.04469299 0.4389706
v 0.4505739 0.04469299 -0.4529572
v -0.4504929 0.04469299 0.3983212
v -0.4504929 0 0.3983212
v -0.4505749 0 0.2683525
v -0.4505749 0.04469299 0.2683525
v -0.4505749 0.04469299 0.2683525
v -0.4505749 0 0.2683525
v 0.4413528 0 0.2677879
v 0.4413528 0.04469299 0.2677879
v 0.4414349 0 0.3977566
v 0.4413528 0 0.2677879
v -0.4505749 0 0.2683525
v -0.1478806 0 0.3840313
v -0.4504929 0 0.3983212
v -0.1478806 0 0.3840313
v -0.4504929 0 0.3983212
v -0.4504929 0.04469299 0.3983212
v -0.1583443 0.04469299 0.3840389
v 0.390337 0.04469299 0.3965874
v 0.4414349 0 0.3977566
v 0.4414349 0.0266212 0.3977566
v 0.4413528 0.04469299 0.2677879
v 0.4413528 0 0.2677879
v 0.4414349 0 0.3977566
v 0.4414349 0.0266212 0.3977566
v 0.4414139 0.04469299 0.3659973
v -0.4505749 0.04469299 0.2683525
v 0.4413528 0.04469299 0.2677879
v 0.4414139 0.04469299 0.3659973
v -0.1583443 0.04469299 0.3840389
v 0.390337 0.04469299 0.3965874
v -0.4504929 0.04469299 0.3983212
v -0.4504929 0.04469299 -0.2725105
v -0.4504929 0 -0.2725105
v -0.4505749 0 -0.4024773
v -0.4505749 0.04469299 -0.4024773
v -0.4505749 0.04469299 -0.4024773
v -0.4505749 0 -0.4024773
v 0.4413528 0 -0.4030418
v 0.4413528 0.04469299 -0.4030418
v 0.4414349 0 -0.2730751
v 0.4413528 0 -0.4030418
v -0.4505749 0 -0.4024773
v -0.1478806 0 -0.2867984
v -0.4504929 0 -0.2725105
v -0.1478806 0 -0.2867984
v -0.4504929 0 -0.2725105
v -0.4504929 0.04469299 -0.2725105
v -0.1583443 0.04469299 -0.2867928
v 0.4380264 0.04469299 -0.2761078
v 0.4414349 0 -0.2730751
v 0.4413528 0.04469299 -0.4030418
v 0.4413528 0 -0.4030418
v 0.4414349 0 -0.2730751
v 0.4380264 0.04469299 -0.2761078
v -0.4504929 0.04469299 -0.2725105
v -0.4505749 0.04469299 -0.4024773
v -0.1583443 0.04469299 -0.2867928
v 0.4380264 0.04469299 -0.2761078
v 0.4413528 0.04469299 -0.4030418
v -0.08251859 0.08938599 0.4529591
v -0.08251859 0.08938599 -0.4354553
v 0.0260191 0.08938599 -0.4354553
v 0.04745007 0.08938599 0.4389706
v -0.08251859 0.08938599 0.4529591
v -0.08251859 0.04469299 0.4529591
v -0.08251859 0.04469299 -0.4354553
v -0.08251859 0.08938599 -0.4354553
v -0.08251859 0.08938599 -0.4354553
v -0.08251859 0.04469299 -0.4354553
v 0.0260191 0.04469299 -0.4354553
v 0.0260191 0.08938599 -0.4354553
v 0.04745007 0.08938599 0.4389706
v 0.04745007 0.04469299 0.4389706
v -0.08251859 0.04469299 0.4529591
v -0.08251859 0.08938599 0.4529591
v 0.0260191 0.08938599 -0.4354553
v 0.0260191 0.04469299 -0.4354553
v 0.04745007 0.04469299 0.4389706
v 0.04745007 0.08938599 0.4389706
v 0.04745007 0.04469299 0.4389706
v 0.0260191 0.04469299 -0.4354553
v -0.08251859 0.04469299 -0.4354553
v -0.08251859 0.04469299 0.4529591
v 0.2088881 0.08938599 -0.4529572
v 0.2088881 0.08938599 0.4389706
v 0.1003504 0.08938599 0.4389706
v 0.07891941 0.08938599 -0.4529572
v 0.2088881 0.08938599 -0.4529572
v 0.2088881 0.04469299 -0.4529572
v 0.2088881 0.04469299 0.4389706
v 0.2088881 0.08938599 0.4389706
v 0.2088881 0.08938599 0.4389706
v 0.2088881 0.04469299 0.4389706
v 0.1003504 0.04469299 0.4389706
v 0.1003504 0.08938599 0.4389706
v 0.07891941 0.08938599 -0.4529572
v 0.07891941 0.04469299 -0.4529572
v 0.2088881 0.04469299 -0.4529572
v 0.2088881 0.08938599 -0.4529572
v 0.1003504 0.08938599 0.4389706
v 0.1003504 0.04469299 0.4389706
v 0.07891941 0.04469299 -0.4529572
v 0.07891941 0.08938599 -0.4529572
v 0.07891941 0.04469299 -0.4529572
v 0.1003504 0.04469299 0.4389706
v 0.2088881 0.04469299 0.4389706
v 0.2088881 0.04469299 -0.4529572
v -0.1238365 0.08938599 -0.4529552
v -0.1238365 0.08938599 0.4389725
v -0.2323742 0.08938599 0.4389725
v -0.2538052 0.08938599 -0.4529552
v -0.1238365 0.08938599 -0.4529552
v -0.1238365 0.04469299 -0.4529552
v -0.1238365 0.04469299 0.4389725
v -0.1238365 0.08938599 0.4389725
v -0.1238365 0.08938599 0.4389725
v -0.1238365 0.04469299 0.4389725
v -0.2323742 0.04469299 0.4389725
v -0.2323742 0.08938599 0.4389725
v -0.2538052 0.08938599 -0.4529552
v -0.2538052 0.04469299 -0.4529552
v -0.1238365 0.04469299 -0.4529552
v -0.1238365 0.08938599 -0.4529552
v -0.2323742 0.08938599 0.4389725
v -0.2323742 0.04469299 0.4389725
v -0.2538052 0.04469299 -0.4529552
v -0.2538052 0.08938599 -0.4529552
v -0.2538052 0.04469299 -0.4529552
v -0.2323742 0.04469299 0.4389725
v -0.1238365 0.04469299 0.4389725
v -0.1238365 0.04469299 -0.4529552
vt 0.2214355 0.3039551
vt 0.2218018 0.3039551
vt 0.2213135 0.3039551
vt 0.2214355 0.3039551
vt 0.2214355 0.3039551
vt 0.2214355 0.3039551
vt 0.2214355 0.3039551
vt 0.2214355 0.3039551
vt 0.2213135 0.3039551
vt 0.2213135 0.3044434
vt 0.2215576 0.3044434
vt 0.2215576 0.3039551
vt 0.2218018 0.3039551
vt 0.2218018 0.3044434
vt 0.2213135 0.3039551
vt 0.2213135 0.3044434
vt 0.2218018 0.3044434
vt 0.2218018 0.3039551
vt 0.2213135 0.3039551
vt 0.2213135 0.3044434
vt 0.2218018 0.3044434
vt 0.2218018 0.3039551
vt 0.2213135 0.3039551
vt 0.2213135 0.3044434
vt 0.2218018 0.3044434
vt 0.2218018 0.3039551
vt 0.2213135 0.3044434
vt 0.2213135 0.3044434
vt 0.2213135 0.3044434
vt 0.2213135 0.3044434
vt 0.2213135 0.3044434
vt 0.2214355 0.3039551
vt 0.2214355 0.3039551
vt 0.2214355 0.3039551
vt 0.2214355 0.3039551
vt 0.2213135 0.3039551
vt 0.2213135 0.3044434
vt 0.2218018 0.3044434
vt 0.2218018 0.3039551
vt 0.2213135 0.3039551
vt 0.2213135 0.3044434
vt 0.2218018 0.3044434
vt 0.2218018 0.3039551
vt 0.2213135 0.3039551
vt 0.2213135 0.3044434
vt 0.2218018 0.3044434
vt 0.2218018 0.3039551
vt 0.2213135 0.3039551
vt 0.2213135 0.3044434
vt 0.2218018 0.3044434
vt 0.2218018 0.3039551
vt 0.2213135 0.3044434
vt 0.2213135 0.3044434
vt 0.2213135 0.3044434
vt 0.2213135 0.3044434
vt 0.2213135 0.3039551
vt 0.2213135 0.3044434
vt 0.2218018 0.3044434
vt 0.2218018 0.3039551
vt 0.2213135 0.3039551
vt 0.2213135 0.3044434
vt 0.2218018 0.3044434
vt 0.2218018 0.3039551
vt 0.2213135 0.3044434
vt 0.2213135 0.3044434
vt 0.2213135 0.3044434
vt 0.2213135 0.3044434
vt 0.2213135 0.3044434
vt 0.2215576 0.3044434
vt 0.2218018 0.3044434
vt 0.2218018 0.3039551
vt 0.2215576 0.3039551
vt 0.2213135 0.3039551
vt 0.2213135 0.3044434
vt 0.2213135 0.3039551
vt 0.2213135 0.3039551
vt 0.2213135 0.3044434
vt 0.2218018 0.3044434
vt 0.2218018 0.3039551
vt 0.2216797 0.3039551
vt 0.2214355 0.3039551
vt 0.2214355 0.3039551
vt 0.2214355 0.3039551
vt 0.2214355 0.3039551
vt 0.2214355 0.3039551
vt 0.2214355 0.3039551
vt 0.2213135 0.3039551
vt 0.2213135 0.3044434
vt 0.2218018 0.3044434
vt 0.2218018 0.3039551
vt 0.2213135 0.3039551
vt 0.2213135 0.3044434
vt 0.2218018 0.3044434
vt 0.2218018 0.3039551
vt 0.2213135 0.3044434
vt 0.2213135 0.3044434
vt 0.2213135 0.3044434
vt 0.2213135 0.3044434
vt 0.2213135 0.3044434
vt 0.2215576 0.3044434
vt 0.2218018 0.3044434
vt 0.2218018 0.3039551
vt 0.2215576 0.3039551
vt 0.2213135 0.3039551
vt 0.2213135 0.3044434
vt 0.2213135 0.3039551
vt 0.2213135 0.3044434
vt 0.2218018 0.3044434
vt 0.2218018 0.3039551
vt 0.2214355 0.3039551
vt 0.2214355 0.3039551
vt 0.2214355 0.3039551
vt 0.2214355 0.3039551
vt 0.2214355 0.3039551
vt 0.2214355 0.3039551
vt 0.2214355 0.3039551
vt 0.2214355 0.3039551
vt 0.2214355 0.3039551
vt 0.2213135 0.3039551
vt 0.2213135 0.3044434
vt 0.2218018 0.3044434
vt 0.2218018 0.3039551
vt 0.2213135 0.3039551
vt 0.2213135 0.3044434
vt 0.2218018 0.3044434
vt 0.2218018 0.3039551
vt 0.2213135 0.3039551
vt 0.2213135 0.3044434
vt 0.2218018 0.3044434
vt 0.2218018 0.3039551
vt 0.2213135 0.3039551
vt 0.2213135 0.3044434
vt 0.2218018 0.3044434
vt 0.2218018 0.3039551
vt 0.2213135 0.3044434
vt 0.2213135 0.3044434
vt 0.2213135 0.3044434
vt 0.2213135 0.3044434
vt 0.2214355 0.3039551
vt 0.2214355 0.3039551
vt 0.2214355 0.3039551
vt 0.2214355 0.3039551
vt 0.2213135 0.3039551
vt 0.2213135 0.3044434
vt 0.2218018 0.3044434
vt 0.2218018 0.3039551
vt 0.2213135 0.3039551
vt 0.2213135 0.3044434
vt 0.2218018 0.3044434
vt 0.2218018 0.3039551
vt 0.2213135 0.3039551
vt 0.2213135 0.3044434
vt 0.2218018 0.3044434
vt 0.2218018 0.3039551
vt 0.2213135 0.3039551
vt 0.2213135 0.3044434
vt 0.2218018 0.3044434
vt 0.2218018 0.3039551
vt 0.2213135 0.3044434
vt 0.2213135 0.3044434
vt 0.2213135 0.3044434
vt 0.2213135 0.3044434
vt 0.2214355 0.3039551
vt 0.2214355 0.3039551
vt 0.2214355 0.3039551
vt 0.2214355 0.3039551
vt 0.2213135 0.3039551
vt 0.2213135 0.3044434
vt 0.2218018 0.3044434
vt 0.2218018 0.3039551
vt 0.2213135 0.3039551
vt 0.2213135 0.3044434
vt 0.2218018 0.3044434
vt 0.2218018 0.3039551
vt 0.2213135 0.3039551
vt 0.2213135 0.3044434
vt 0.2218018 0.3044434
vt 0.2218018 0.3039551
vt 0.2213135 0.3039551
vt 0.2213135 0.3044434
vt 0.2218018 0.3044434
vt 0.2218018 0.3039551
vt 0.2213135 0.3044434
vt 0.2213135 0.3044434
vt 0.2213135 0.3044434
vt 0.2213135 0.3044434
vn 0.2839355 0.8334961 0.4741211
vn 0.2839355 0.8334961 0.4741211
vn 0.2839355 0.8334961 0.4741211
vn 0 1 0
vn 0 1 0
vn 0 1 0
vn 0 1 0
vn 0 1 0
vn 1 -0.00254631 0.02174377
vn 1 -0.00254631 0.02174377
vn 1 0.00210762 -0.01799011
vn 1 0.00210762 -0.01799011
vn 0.9985352 0.006755829 -0.05770874
vn 0.9985352 0.006755829 -0.05770874
vn -0.09710693 0 0.9951172
vn -0.09710693 0 0.9951172
vn -0.09710693 0 0.9951172
vn -0.09710693 0 0.9951172
vn 0 0 -1
vn 0 0 -1
vn 0 0 -1
vn 0 0 -1
vn -1 0 0
vn -1 0 0
vn -1 0 0
vn -1 0 0
vn 0 -1 0
vn 0 -1 0
vn 0 -1 0
vn 0 -1 0
vn 0 -1 0
vn 0 1 0
vn 0 1 0
vn 0 1 0
vn 0 1 0
vn 1 0 0
vn 1 0 0
vn 1 0 0
vn 1 0 0
vn 0 0 1
vn 0 0 1
vn 0 0 1
vn 0 0 1
vn 0 0 -1
vn 0 0 -1
vn 0 0 -1
vn 0 0 -1
vn -0.9995117 0 0.02401733
vn -0.9995117 0 0.02401733
vn -0.9995117 0 0.02401733
vn -0.9995117 0 0.02401733
vn 0 -1 0
vn 0 -1 0
vn 0 -1 0
vn 0 -1 0
vn -1 0 0.0006308556
vn -1 0 0.0006308556
vn -1 0 0.0006308556
vn -1 0 0.0006308556
vn -0.0006327629 0 -1
vn -0.0006327629 0 -1
vn -0.0006327629 0 -1
vn -0.0006327629 0 -1
vn 0 -1 0
vn 0 -1 0
vn 0 -1 0
vn 0 -1 0
vn 0 -1 0
vn 0.0006122589 -0.0001530647 1
vn 0.04797363 0.005531311 0.9990234
vn 0.04797363 0.005531311 0.9990234
vn 0.01256561 0 1
vn -0.02301025 -0.001996994 0.9995117
vn -0.02308655 -0.000233531 0.9995117
vn -0.02287292 0 0.9995117
vn 1 2.294779E-05 -0.0006279945
vn 1 0 -0.0006308556
vn 1 0 -0.0006308556
vn 1 3.439188E-05 -0.0006260872
vn 1 6.878376E-05 -0.0006213188
vn 0 1 0
vn 0 1 0
vn 0 1 0
vn 0 1 0
vn 0 1 0
vn 0 1 0
vn -1 0 0.0006308556
vn -1 0 0.0006308556
vn -1 0 0.0006308556
vn -1 0 0.0006308556
vn -0.0006327629 0 -1
vn -0.0006327629 0 -1
vn -0.0006327629 0 -1
vn -0.0006327629 0 -1
vn 0 -1 0
vn 0 -1 0
vn 0 -1 0
vn 0 -1 0
vn 0 -1 0
vn 0.01371002 0.01811218 0.9995117
vn 0.04797363 0.005554199 0.9990234
vn 0.04797363 0.005554199 0.9990234
vn 0.01371002 0.01811218 0.9995117
vn -0.02056885 0.03065491 0.9995117
vn -0.02056885 0.03065491 0.9995117
vn 0.9990234 0.03851318 0.01261902
vn 0.9990234 0.03851318 0.01261902
vn 0.9990234 0.03851318 0.01261902
vn 0.9990234 0.03851318 0.01261902
vn 0 1 0
vn 0 1 0
vn 0 1 0
vn 0 1 0
vn 0 1 0
vn 0 1 0
vn 0 1 0
vn 0 1 0
vn 0 1 0
vn -1 0 0
vn -1 0 0
vn -1 0 0
vn -1 0 0
vn 0 0 -1
vn 0 0 -1
vn 0 0 -1
vn 0 0 -1
vn 0.1069946 0 0.9941406
vn 0.1069946 0 0.9941406
vn 0.1069946 0 0.9941406
vn 0.1069946 0 0.9941406
vn 0.9995117 0 -0.02450562
vn 0.9995117 0 -0.02450562
vn 0.9995117 0 -0.02450562
vn 0.9995117 0 -0.02450562
vn 0 -1 0
vn 0 -1 0
vn 0 -1 0
vn 0 -1 0
vn 0 1 0
vn 0 1 0
vn 0 1 0
vn 0 1 0
vn 1 0 0
vn 1 0 0
vn 1 0 0
vn 1 0 0
vn 0 0 1
vn 0 0 1
vn 0 0 1
vn 0 0 1
vn 0 0 -1
vn 0 0 -1
vn 0 0 -1
vn 0 0 -1
vn -0.9995117 0 0.02401733
vn -0.9995117 0 0.02401733
vn -0.9995117 0 0.02401733
vn -0.9995117 0 0.02401733
vn 0 -1 0
vn 0 -1 0
vn 0 -1 0
vn 0 -1 0
vn 0 1 0
vn 0 1 0
vn 0 1 0
vn 0 1 0
vn 1 0 0
vn 1 0 0
vn 1 0 0
vn 1 0 0
vn 0 0 1
vn 0 0 1
vn 0 0 1
vn 0 0 1
vn 0 0 -1
vn 0 0 -1
vn 0 0 -1
vn 0 0 -1
vn -0.9995117 0 0.02401733
vn -0.9995117 0 0.02401733
vn -0.9995117 0 0.02401733
vn -0.9995117 0 0.02401733
vn 0 -1 0
vn 0 -1 0
vn 0 -1 0
vn 0 -1 0
g SM_Prop_WoodenPath_01_0
f 3/3/3 2/2/2 1/1/1
f 6/6/6 5/5/5 4/4/4
f 4/4/4 7/7/7 6/6/6
f 4/4/4 8/8/8 7/7/7
f 11/11/11 10/10/10 9/9/9
f 12/12/12 11/11/11 9/9/9
f 12/12/12 13/13/13 11/11/11
f 13/13/13 14/14/14 11/11/11
f 17/17/17 16/16/16 15/15/15
f 18/18/18 17/17/17 15/15/15
f 21/21/21 20/20/20 19/19/19
f 22/22/22 21/21/21 19/19/19
f 25/25/25 24/24/24 23/23/23
f 26/26/26 25/25/25 23/23/23
f 29/29/29 28/28/28 27/27/27
f 27/27/27 30/30/30 29/29/29
f 27/27/27 31/31/31 30/30/30
f 34/34/34 33/33/33 32/32/32
f 35/35/35 34/34/34 32/32/32
f 38/38/38 37/37/37 36/36/36
f 39/39/39 38/38/38 36/36/36
f 42/42/42 41/41/41 40/40/40
f 43/43/43 42/42/42 40/40/40
f 46/46/46 45/45/45 44/44/44
f 47/47/47 46/46/46 44/44/44
f 50/50/50 49/49/49 48/48/48
f 51/51/51 50/50/50 48/48/48
f 54/54/54 53/53/53 52/52/52
f 55/55/55 54/54/54 52/52/52
f 58/58/58 57/57/57 56/56/56
f 59/59/59 58/58/58 56/56/56
f 62/62/62 61/61/61 60/60/60
f 63/63/63 62/62/62 60/60/60
f 66/66/66 65/65/65 64/64/64
f 64/64/64 67/67/67 66/66/66
f 66/66/66 67/67/67 68/68/68
f 71/71/71 70/70/70 69/69/69
f 72/72/72 71/71/71 69/69/69
f 73/73/73 72/72/72 69/69/69
f 73/73/73 69/69/69 74/74/74
f 74/74/74 75/75/75 73/73/73
f 78/78/78 77/77/77 76/76/76
f 76/76/76 79/79/79 78/78/78
f 76/76/76 80/80/80 79/79/79
f 83/83/83 82/82/82 81/81/81
f 81/81/81 84/84/84 83/83/83
f 83/83/83 84/84/84 85/85/85
f 81/81/81 86/86/86 84/84/84
f 89/89/89 88/88/88 87/87/87
f 90/90/90 89/89/89 87/87/87
f 93/93/93 92/92/92 91/91/91
f 94/94/94 93/93/93 91/91/91
f 97/97/97 96/96/96 95/95/95
f 95/95/95 98/98/98 97/97/97
f 97/97/97 98/98/98 99/99/99
f 102/102/102 101/101/101 100/100/100
f 103/103/103 102/102/102 100/100/100
f 103/103/103 100/100/100 104/104/104
f 100/100/100 105/105/105 104/104/104
f 108/108/108 107/107/107 106/106/106
f 109/109/109 108/108/108 106/106/106
f 112/112/112 111/111/111 110/110/110
f 111/111/111 112/112/112 113/113/113
f 113/113/113 114/114/114 111/111/111
f 117/117/117 116/116/116 115/115/115
f 118/118/118 117/117/117 115/115/115
f 121/121/121 120/120/120 119/119/119
f 122/122/122 121/121/121 119/119/119
f 125/125/125 124/124/124 123/123/123
f 126/126/126 125/125/125 123/123/123
f 129/129/129 128/128/128 127/127/127
f 130/130/130 129/129/129 127/127/127
f 133/133/133 132/132/132 131/131/131
f 134/134/134 133/133/133 131/131/131
f 137/137/137 136/136/136 135/135/135
f 138/138/138 137/137/137 135/135/135
f 141/141/141 140/140/140 139/139/139
f 142/142/142 141/141/141 139/139/139
f 145/145/145 144/144/144 143/143/143
f 146/146/146 145/145/145 143/143/143
f 149/149/149 148/148/148 147/147/147
f 150/150/150 149/149/149 147/147/147
f 153/153/153 152/152/152 151/151/151
f 154/154/154 153/153/153 151/151/151
f 157/157/157 156/156/156 155/155/155
f 158/158/158 157/157/157 155/155/155
f 161/161/161 160/160/160 159/159/159
f 162/162/162 161/161/161 159/159/159
f 165/165/165 164/164/164 163/163/163
f 166/166/166 165/165/165 163/163/163
f 169/169/169 168/168/168 167/167/167
f 170/170/170 169/169/169 167/167/167
f 173/173/173 172/172/172 171/171/171
f 174/174/174 173/173/173 171/171/171
f 177/177/177 176/176/176 175/175/175
f 178/178/178 177/177/177 175/175/175
f 181/181/181 180/180/180 179/179/179
f 182/182/182 181/181/181 179/179/179
f 185/185/185 184/184/184 183/183/183
f 186/186/186 185/185/185 183/183/183
