g SM_Prop_StripClub_Pole_01
v 0.02 0 -0.03464073
v 0.02 2.288346 -0.03464134
v -0.02 2.288346 -0.03464134
v -0.02 0 -0.03464073
v -0.02 0 -0.03464073
v -0.02 2.288346 -0.03464134
v -0.04 2.288346 -3.48866E-07
v -0.04 0 2.614856E-07
v -0.04 0 2.614856E-07
v -0.04 2.288346 -3.48866E-07
v -0.02 2.288346 0.03464065
v -0.02 0 0.03464127
v -0.02 0 0.03464127
v -0.02 2.288346 0.03464065
v 0.02 2.288346 0.03464065
v 0.02 0 0.03464127
v 0.02 0 0.03464127
v 0.02 2.288346 0.03464065
v 0.04 2.288346 -3.414154E-07
v 0.04 0 2.689362E-07
v 0.04 0 2.689362E-07
v 0.04 2.288346 -3.414154E-07
v 0.02 2.288346 -0.03464134
v 0.02 0 -0.03464073
vt 0.2453849 0.3783348
vt 0.2453849 0.379185
vt 0.2454791 0.379185
vt 0.2454791 0.3783348
vt 0.2454791 0.3783348
vt 0.2454791 0.379185
vt 0.2455733 0.379185
vt 0.2455733 0.3783348
vt 0.2455733 0.3783348
vt 0.2455733 0.379185
vt 0.2456675 0.379185
vt 0.2456675 0.3783348
vt 0.2456675 0.3783348
vt 0.2456675 0.379185
vt 0.2457618 0.379185
vt 0.2457618 0.3783348
vt 0.2457618 0.3783348
vt 0.2457618 0.379185
vt 0.245856 0.379185
vt 0.245856 0.3783348
vt 0.245856 0.3783348
vt 0.245856 0.379185
vt 0.2459502 0.379185
vt 0.2459502 0.3783348
vn 0 0 -1
vn 0 0 -1
vn 0 0 -1
vn 0 0 -1
vn -0.8660253 0 -0.5000002
vn -0.8660253 0 -0.5000002
vn -0.8660253 0 -0.5000002
vn -0.8660253 0 -0.5000002
vn -0.8660253 0 0.5000002
vn -0.8660253 0 0.5000002
vn -0.8660253 0 0.5000002
vn -0.8660253 0 0.5000002
vn 0 0 1
vn 0 0 1
vn 0 0 1
vn 0 0 1
vn 0.8660253 0 0.5000002
vn 0.8660253 0 0.5000002
vn 0.8660253 0 0.5000002
vn 0.8660253 0 0.5000002
vn 0.8660253 0 -0.5000002
vn 0.8660253 0 -0.5000002
vn 0.8660253 0 -0.5000002
vn 0.8660253 0 -0.5000002
g SM_Prop_StripClub_Pole_01_0
f 3/3/3 2/2/2 1/1/1
f 4/4/4 3/3/3 1/1/1
f 7/7/7 6/6/6 5/5/5
f 8/8/8 7/7/7 5/5/5
f 11/11/11 10/10/10 9/9/9
f 12/12/12 11/11/11 9/9/9
f 15/15/15 14/14/14 13/13/13
f 16/16/16 15/15/15 13/13/13
f 19/19/19 18/18/18 17/17/17
f 20/20/20 19/19/19 17/17/17
f 23/23/23 22/22/22 21/21/21
f 24/24/24 23/23/23 21/21/21
