g SM_Prop_Pad_01
v 0.1596319 0.2241621 -0.02805321
v 0.08425941 0.2241621 -0.02805321
v 0.04657341 0.1588879 -0.02805321
v 0.08425941 0.09361359 -0.02805321
v 0.1596319 0.09361359 -0.02805321
v 0.1973179 0.1588878 -0.02805321
v 0.1596319 0.2241621 0.02564918
v 0.08425941 0.2241621 0.02564918
v 0.04657341 0.1588879 0.02564918
v 0.08425941 0.09361359 0.02564918
v 0.1596319 0.09361359 0.02564918
v 0.1973179 0.1588878 0.02564918
v 0.1461884 0.2008775 -0.02805321
v 0.09770271 0.2008775 -0.02805321
v 0.1219456 0.1588878 -0.02805321
v 0.07346031 0.1588879 -0.02805321
v 0.09770271 0.1168982 -0.02805321
v 0.1461884 0.1168982 -0.02805321
v 0.170431 0.1588878 -0.02805321
v 0.1461884 0.2008775 0.02564918
v 0.09770271 0.2008775 0.02564918
v 0.1219456 0.1588878 0.02564918
v 0.07346031 0.1588879 0.02564918
v 0.09770271 0.1168982 0.02564918
v 0.1461884 0.1168982 0.02564918
v 0.170431 0.1588878 0.02564918
v -0.1931858 -0.1981312 0.02658119
v 0.07076377 -0.1981312 0.02658119
v -0.1931858 -0.1981312 -0.01834282
v 0.07076377 -0.1981312 -0.01834282
v -0.1527973 -0.1752181 0.02658119
v 0.07076377 -0.1752181 0.02658119
v -0.1931858 -0.09935653 0.02658119
v -0.1931858 -0.09935669 -0.01834282
v -0.1713489 -0.08417083 0.02658119
v -0.1713489 -0.08417083 -0.01834282
v -0.1413575 -0.164368 0.0149836
v 0.07076377 -0.164368 0.0149836
v -0.1689085 -0.2205836 -0.008896255
v 0.04648613 -0.2205836 -0.008896255
v 0.04648613 -0.2205836 0.01713463
v -0.1689085 -0.2205836 0.01713463
v 0.07076377 -0.164368 -0.01834282
v -0.1413575 -0.164368 -0.01834282
v -0.1713489 0.1430473 -0.01834282
v -0.1713489 0.1430473 0.02658119
v -0.1527973 0.1430473 0.02658119
v -0.1413575 0.1430473 0.0149836
v -0.1413575 0.1430473 -0.01834282
v -0.1343208 -0.155689 0.007778244
v 0.1124908 -0.155689 0.007778244
v -0.1343208 0.1611148 0.007778244
v -0.1343208 0.1611148 -0.009651565
v -0.1343208 -0.155689 -0.009651565
v 0.1124908 -0.155689 -0.009651565
v 0.1386459 -0.1310549 -0.009651565
v 0.1386459 -0.1310549 0.007778244
v 0.1386459 0.1611148 -0.009651565
v 0.1386459 0.1611148 0.007778244
v -0.1184127 0.1855371 0.007778244
v 0.1124908 0.1855371 0.007778244
v 0.1124908 0.1855371 -0.009651565
v -0.1184127 0.1855371 -0.009651565
v 0.08425941 0.2241621 -0.02805321
v 0.08425941 0.2241621 0.02564918
v 0.04657341 0.1588879 -0.02805321
v 0.04657341 0.1588879 0.02564918
v 0.08425941 0.09361359 -0.02805321
v 0.08425941 0.09361359 0.02564918
v 0.1596319 0.09361359 -0.02805321
v 0.1596319 0.09361359 0.02564918
v 0.1973179 0.1588878 -0.02805321
v 0.1973179 0.1588878 0.02564918
v 0.1596319 0.2241621 0.02564918
v 0.1596319 0.2241621 -0.02805321
v 0.08425941 0.2241621 -0.02805321
v 0.09770271 0.2008775 -0.02805321
v 0.1461884 0.2008775 -0.02805321
v 0.1596319 0.2241621 -0.02805321
v 0.04657341 0.1588879 -0.02805321
v 0.07346031 0.1588879 -0.02805321
v 0.08425941 0.09361359 -0.02805321
v 0.09770271 0.1168982 -0.02805321
v 0.1596319 0.09361359 -0.02805321
v 0.1461884 0.1168982 -0.02805321
v 0.1973179 0.1588878 -0.02805321
v 0.170431 0.1588878 -0.02805321
v 0.1596319 0.2241621 0.02564918
v 0.1461884 0.2008775 0.02564918
v 0.09770271 0.2008775 0.02564918
v 0.08425941 0.2241621 0.02564918
v 0.07346031 0.1588879 0.02564918
v 0.04657341 0.1588879 0.02564918
v 0.09770271 0.1168982 0.02564918
v 0.08425941 0.09361359 0.02564918
v 0.1461884 0.1168982 0.02564918
v 0.1596319 0.09361359 0.02564918
v 0.170431 0.1588878 0.02564918
v 0.1973179 0.1588878 0.02564918
v -0.1931858 -0.1981312 0.02658119
v -0.1931858 -0.09935653 0.02658119
v -0.1931858 -0.09935669 -0.01834282
v -0.1931858 -0.09935653 0.02658119
v -0.1713489 -0.08417083 0.02658119
v -0.1527973 -0.1752181 0.02658119
v 0.07076377 -0.1752181 0.02658119
v -0.1931858 -0.1981312 -0.01834282
v -0.1689085 -0.2205836 -0.008896255
v 0.04648613 -0.2205836 -0.008896255
v 0.07076377 -0.1981312 -0.01834282
v 0.04648613 -0.2205836 -0.008896255
v 0.04648613 -0.2205836 0.01713463
v 0.07076377 -0.1981312 0.02658119
v 0.07076377 -0.1981312 0.02658119
v 0.04648613 -0.2205836 0.01713463
v -0.1689085 -0.2205836 0.01713463
v -0.1931858 -0.1981312 0.02658119
v -0.1931858 -0.1981312 0.02658119
v -0.1689085 -0.2205836 0.01713463
v -0.1689085 -0.2205836 -0.008896255
v -0.1931858 -0.1981312 -0.01834282
v -0.1931858 -0.09935669 -0.01834282
v -0.1713489 -0.08417083 -0.01834282
v -0.1931858 -0.1981312 -0.01834282
v 0.07076377 -0.1981312 -0.01834282
v 0.07076377 -0.164368 -0.01834282
v 0.07076377 -0.164368 0.0149836
v -0.1413575 -0.164368 0.0149836
v -0.1413575 -0.164368 -0.01834282
v -0.1713489 -0.08417083 -0.01834282
v -0.1713489 -0.08417083 0.02658119
v -0.1713489 0.1430473 0.02658119
v -0.1413575 -0.164368 0.0149836
v -0.1527973 -0.1752181 0.02658119
v -0.1527973 0.1430473 0.02658119
v -0.1413575 -0.164368 -0.01834282
v -0.1413575 -0.164368 0.0149836
v -0.1413575 0.1430473 0.0149836
v -0.1413575 0.1430473 -0.01834282
v -0.1713489 0.1430473 -0.01834282
v -0.1713489 0.1430473 0.02658119
v -0.1713489 0.1430473 -0.01834282
v -0.1413575 0.1430473 -0.01834282
v -0.1413575 0.1430473 0.0149836
v -0.1527973 0.1430473 0.02658119
v 0.07076377 -0.164368 -0.01834282
v 0.07076377 -0.1981312 -0.01834282
v 0.07076377 -0.1981312 0.02658119
v 0.07076377 -0.1752181 0.02658119
v 0.07076377 -0.164368 0.0149836
v 0.1124908 0.1855371 -0.009651565
v -0.1184127 0.1855371 -0.009651565
v 0.1124908 -0.155689 -0.009651565
v 0.1386459 0.1611148 -0.009651565
v 0.1386459 -0.1310549 -0.009651565
v -0.1343208 -0.155689 -0.009651565
v -0.1343208 0.1611148 -0.009651565
v -0.1343208 -0.155689 0.007778244
v 0.1124908 -0.155689 0.007778244
v 0.1386459 -0.1310549 0.007778244
v 0.1386459 -0.1310549 -0.009651565
v 0.1124908 -0.155689 -0.009651565
v 0.1124908 -0.155689 0.007778244
v -0.1343208 -0.155689 0.007778244
v -0.1343208 0.1611148 0.007778244
v 0.1386459 0.1611148 -0.009651565
v 0.1386459 0.1611148 0.007778244
v 0.1124908 0.1855371 0.007778244
v 0.1124908 0.1855371 -0.009651565
v -0.1343208 0.1611148 -0.009651565
v -0.1184127 0.1855371 -0.009651565
v -0.1184127 0.1855371 0.007778244
v -0.1343208 0.1611148 0.007778244
v 0.1124908 0.1855371 0.007778244
v 0.1386459 0.1611148 0.007778244
v 0.1386459 -0.1310549 0.007778244
v -0.1184127 0.1855371 0.007778244
v -0.1343208 -0.155689 -0.009651565
vt 0.2434082 0.3791504
vt 0.2434082 0.3791504
vt 0.2434082 0.3791504
vt 0.2434082 0.3791504
vt 0.2434082 0.3791504
vt 0.2434082 0.3791504
vt 0.2434082 0.3791504
vt 0.2434082 0.3791504
vt 0.2434082 0.3791504
vt 0.2434082 0.3791504
vt 0.2434082 0.3791504
vt 0.2434082 0.3791504
vt 0.4567871 0.0259552
vt 0.4567871 0.0259552
vt 0.4567871 0.0259552
vt 0.4567871 0.0259552
vt 0.4567871 0.0259552
vt 0.4567871 0.0259552
vt 0.4567871 0.0259552
vt 0.4567871 0.0259552
vt 0.4567871 0.0259552
vt 0.4567871 0.0259552
vt 0.4567871 0.0259552
vt 0.4567871 0.0259552
vt 0.4567871 0.0259552
vt 0.4567871 0.0259552
vt 0.244751 0.376709
vt 0.244751 0.376709
vt 0.244751 0.376709
vt 0.244751 0.376709
vt 0.244751 0.376709
vt 0.244751 0.376709
vt 0.244751 0.376709
vt 0.244751 0.376709
vt 0.244751 0.376709
vt 0.244751 0.376709
vt 0.244751 0.376709
vt 0.244751 0.376709
vt 0.244751 0.376709
vt 0.244751 0.376709
vt 0.244751 0.376709
vt 0.244751 0.376709
vt 0.244751 0.376709
vt 0.244751 0.376709
vt 0.244751 0.376709
vt 0.244751 0.376709
vt 0.244751 0.376709
vt 0.244751 0.376709
vt 0.244751 0.376709
vt 0.4545898 0.02536011
vt 0.4545898 0.02536011
vt 0.4545898 0.02536011
vt 0.4545898 0.02536011
vt 0.4545898 0.02536011
vt 0.4545898 0.02536011
vt 0.4545898 0.02536011
vt 0.4545898 0.02536011
vt 0.4545898 0.02536011
vt 0.4545898 0.02536011
vt 0.4545898 0.02536011
vt 0.4545898 0.02536011
vt 0.4545898 0.02536011
vt 0.4545898 0.02536011
vt 0.2434082 0.3791504
vt 0.2434082 0.3791504
vt 0.2434082 0.3791504
vt 0.2434082 0.3791504
vt 0.2434082 0.3791504
vt 0.2434082 0.3791504
vt 0.2434082 0.3791504
vt 0.2434082 0.3791504
vt 0.2434082 0.3791504
vt 0.2434082 0.3791504
vt 0.2434082 0.3791504
vt 0.2434082 0.3791504
vt 0.2434082 0.3791504
vt 0.2434082 0.3791504
vt 0.2434082 0.3791504
vt 0.2434082 0.3791504
vt 0.2434082 0.3791504
vt 0.2434082 0.3791504
vt 0.2434082 0.3791504
vt 0.2434082 0.3791504
vt 0.2434082 0.3791504
vt 0.2434082 0.3791504
vt 0.2434082 0.3791504
vt 0.2434082 0.3791504
vt 0.2434082 0.3791504
vt 0.2434082 0.3791504
vt 0.2434082 0.3791504
vt 0.2434082 0.3791504
vt 0.2434082 0.3791504
vt 0.2434082 0.3791504
vt 0.2434082 0.3791504
vt 0.2434082 0.3791504
vt 0.2434082 0.3791504
vt 0.2434082 0.3791504
vt 0.2434082 0.3791504
vt 0.2434082 0.3791504
vt 0.244751 0.376709
vt 0.244751 0.376709
vt 0.244751 0.376709
vt 0.244751 0.376709
vt 0.244751 0.376709
vt 0.244751 0.376709
vt 0.244751 0.376709
vt 0.244751 0.376709
vt 0.244751 0.376709
vt 0.244751 0.376709
vt 0.244751 0.376709
vt 0.244751 0.376709
vt 0.244751 0.376709
vt 0.244751 0.376709
vt 0.244751 0.376709
vt 0.244751 0.376709
vt 0.244751 0.376709
vt 0.244751 0.376709
vt 0.244751 0.376709
vt 0.244751 0.376709
vt 0.244751 0.376709
vt 0.244751 0.376709
vt 0.244751 0.376709
vt 0.244751 0.376709
vt 0.244751 0.376709
vt 0.244751 0.376709
vt 0.244751 0.376709
vt 0.244751 0.376709
vt 0.244751 0.376709
vt 0.244751 0.376709
vt 0.244751 0.376709
vt 0.244751 0.376709
vt 0.244751 0.376709
vt 0.244751 0.376709
vt 0.244751 0.376709
vt 0.244751 0.376709
vt 0.244751 0.376709
vt 0.244751 0.376709
vt 0.244751 0.376709
vt 0.244751 0.376709
vt 0.244751 0.376709
vt 0.244751 0.376709
vt 0.244751 0.376709
vt 0.244751 0.376709
vt 0.244751 0.376709
vt 0.244751 0.376709
vt 0.244751 0.376709
vt 0.244751 0.376709
vt 0.244751 0.376709
vt 0.244751 0.376709
vt 0.244751 0.376709
vt 0.4545898 0.02536011
vt 0.4545898 0.02536011
vt 0.4545898 0.02536011
vt 0.4545898 0.02536011
vt 0.4545898 0.02536011
vt 0.4545898 0.02536011
vt 0.4545898 0.02536011
vt 0.4545898 0.02536011
vt 0.4545898 0.02536011
vt 0.4545898 0.02536011
vt 0.4545898 0.02536011
vt 0.4545898 0.02536011
vt 0.4545898 0.02536011
vt 0.4545898 0.02536011
vt 0.4545898 0.02536011
vt 0.4545898 0.02536011
vt 0.4545898 0.02536011
vt 0.4545898 0.02536011
vt 0.4545898 0.02536011
vt 0.4545898 0.02536011
vt 0.4545898 0.02536011
vt 0.4545898 0.02536011
vt 0.4545898 0.02536011
vt 0.4545898 0.02536011
vt 0.4545898 0.02536011
vt 0.4545898 0.02536011
vt 0.4545898 0.02536011
vt 0.4545898 0.02536011
vn 0 1 0
vn 0 1 0
vn -0.8662109 0.5 0
vn -0.8662109 -0.5 0
vn 0 -1 0
vn 0.8662109 -0.5 0
vn 0 1 0
vn 0 1 0
vn -0.8662109 0.5 0
vn -0.8662109 -0.5 0
vn 0 -1 0
vn 0.8662109 -0.5 0
vn 0 0 -1
vn 0 0 -1
vn 0 0 -1
vn 0 0 -1
vn 0 0 -1
vn 0 0 -1
vn 0 0 -1
vn 0 0 1
vn 0 0 1
vn 0 0 1
vn 0 0 1
vn 0 0 1
vn 0 0 1
vn 0 0 1
vn 0 0 1
vn 0 0 1
vn -1 0 0
vn 0 -0.3876953 -0.921875
vn 0 0 1
vn 0 0 1
vn -1 0 0
vn -1 0 0
vn -0.5708008 0.8208008 0
vn -0.5708008 0.8208008 0
vn 0 0.7304688 0.6831055
vn 0 0.7304688 0.6831055
vn 0 -1 0
vn 0 -1 0
vn 0 -1 0
vn 0 -1 0
vn 0 0 -1
vn 0 0 -1
vn -1 0 0
vn -1 0 0
vn 0 0 1
vn 0.7119141 0 0.7021484
vn 1 0 0
vn 0 -1 0
vn 0 -1 0
vn -1 0 0
vn 0 0 -1
vn 0 -1 0
vn 0 0 -1
vn 0 0 -1
vn 1 0 0
vn 0 0 -1
vn 1 0 0
vn 0 1 0
vn 0 1 0
vn 0 1 0
vn 0 1 0
vn -0.8662109 0.5 0
vn -0.8662109 0.5 0
vn -0.8662109 -0.5 0
vn -0.8662109 -0.5 0
vn 0 -1 0
vn 0 -1 0
vn 0.8662109 -0.5 0
vn 0.8662109 -0.5 0
vn 0.8662109 0.5 0
vn 0.8662109 0.5 0
vn 0.8662109 0.5 0
vn 0.8662109 0.5 0
vn 0 0 -1
vn 0 0 -1
vn 0 0 -1
vn 0 0 -1
vn 0 0 -1
vn 0 0 -1
vn 0 0 -1
vn 0 0 -1
vn 0 0 -1
vn 0 0 -1
vn 0 0 -1
vn 0 0 -1
vn 0 0 1
vn 0 0 1
vn 0 0 1
vn 0 0 1
vn 0 0 1
vn 0 0 1
vn 0 0 1
vn 0 0 1
vn 0 0 1
vn 0 0 1
vn 0 0 1
vn 0 0 1
vn -1 0 0
vn 0 0 1
vn -0.5708008 0.8208008 0
vn -0.5708008 0.8208008 0
vn 0 0 1
vn 0 0.7304688 0.6831055
vn 0 0.7304688 0.6831055
vn 0 -0.3876953 -0.921875
vn 0 -0.3876953 -0.921875
vn 0 -0.3876953 -0.921875
vn 0.6791992 -0.734375 0
vn 0.6791992 -0.734375 0
vn 0.6791992 -0.734375 0
vn 0.6791992 -0.734375 0
vn 0 -0.3876953 0.921875
vn 0 -0.3876953 0.921875
vn 0 -0.3876953 0.921875
vn 0 -0.3876953 0.921875
vn -0.6791992 -0.734375 0
vn -0.6791992 -0.734375 0
vn -0.6791992 -0.734375 0
vn -0.6791992 -0.734375 0
vn 0 0 -1
vn 0 0 -1
vn 0 0 -1
vn 0 0 -1
vn 0 1 0
vn 0 1 0
vn 0 1 0
vn 0 1 0
vn -1 0 0
vn -1 0 0
vn 0 0 1
vn 0.7119141 0 0.7021484
vn 0.7119141 0 0.7021484
vn 0.7119141 0 0.7021484
vn 1 0 0
vn 1 0 0
vn 1 0 0
vn 0 0 -1
vn 0 0 -1
vn 0 1 0
vn 0 1 0
vn 0 1 0
vn 0 1 0
vn 0 1 0
vn 1 0 0
vn 1 0 0
vn 1 0 0
vn 1 0 0
vn 1 0 0
vn 0 0 -1
vn 0 0 -1
vn 0 -1 0
vn 1 0 0
vn 1 0 0
vn -1 0 0
vn -1 0 0
vn -1 0 0
vn 0.6855469 -0.7280273 0
vn 0.6855469 -0.7280273 0
vn 0.6855469 -0.7280273 0
vn 0.6855469 -0.7280273 0
vn 0 0 1
vn 0 0 1
vn 0 0 1
vn 0.6826172 0.730957 0
vn 0.6826172 0.730957 0
vn 0.6826172 0.730957 0
vn 0.6826172 0.730957 0
vn -0.8378906 0.5458984 0
vn -0.8378906 0.5458984 0
vn -0.8378906 0.5458984 0
vn -0.8378906 0.5458984 0
vn 0 0 1
vn 0 0 1
vn 0 0 1
vn 0 0 1
vn 0 0 -1
g SM_Prop_Pad_01_0
f 8/8/8 7/7/7 1/1/1
f 2/2/2 8/8/8 1/1/1
f 9/9/9 65/65/65 64/64/64
f 3/3/3 9/9/9 64/64/64
f 10/10/10 67/67/67 66/66/66
f 4/4/4 10/10/10 66/66/66
f 11/11/11 69/69/69 68/68/68
f 5/5/5 11/11/11 68/68/68
f 12/12/12 71/71/71 70/70/70
f 6/6/6 12/12/12 70/70/70
f 74/74/74 73/73/73 72/72/72
f 75/75/75 74/74/74 72/72/72
f 41/41/41 42/42/42 39/39/39
f 40/40/40 41/41/41 39/39/39
f 28/28/28 32/32/32 27/27/27
f 32/32/32 31/31/31 27/27/27
f 31/31/31 101/101/101 27/27/27
f 31/31/31 104/104/104 101/101/101
f 132/132/132 104/104/104 31/31/31
f 47/47/47 132/132/132 31/31/31
f 33/33/33 34/34/34 29/29/29
f 100/100/100 33/33/33 29/29/29
f 35/35/35 36/36/36 102/102/102
f 103/103/103 35/35/35 102/102/102
f 38/38/38 37/37/37 105/105/105
f 106/106/106 38/38/38 105/105/105
f 109/109/109 108/108/108 107/107/107
f 30/30/30 109/109/109 107/107/107
f 112/112/112 111/111/111 110/110/110
f 113/113/113 112/112/112 110/110/110
f 116/116/116 115/115/115 114/114/114
f 117/117/117 116/116/116 114/114/114
f 120/120/120 119/119/119 118/118/118
f 121/121/121 120/120/120 118/118/118
f 44/44/44 43/43/43 125/125/125
f 124/124/124 44/44/44 125/125/125
f 122/122/122 44/44/44 124/124/124
f 123/123/123 44/44/44 122/122/122
f 139/139/139 44/44/44 123/123/123
f 140/140/140 139/139/139 123/123/123
f 128/128/128 127/127/127 126/126/126
f 129/129/129 128/128/128 126/126/126
f 46/46/46 45/45/45 130/130/130
f 131/131/131 46/46/46 130/130/130
f 134/134/134 133/133/133 48/48/48
f 135/135/135 134/134/134 48/48/48
f 138/138/138 137/137/137 136/136/136
f 49/49/49 138/138/138 136/136/136
f 143/143/143 142/142/142 141/141/141
f 141/141/141 144/144/144 143/143/143
f 141/141/141 145/145/145 144/144/144
f 148/148/148 147/147/147 146/146/146
f 146/146/146 149/149/149 148/148/148
f 146/146/146 150/150/150 149/149/149
f 62/62/62 63/63/63 60/60/60
f 61/61/61 62/62/62 60/60/60
f 58/58/58 56/56/56 55/55/55
f 55/55/55 151/151/151 58/58/58
f 55/55/55 53/53/53 151/151/151
f 53/53/53 152/152/152 151/151/151
f 178/178/178 53/53/53 55/55/55
f 51/51/51 50/50/50 54/54/54
f 153/153/153 51/51/51 54/54/54
f 154/154/154 59/59/59 57/57/57
f 155/155/155 154/154/154 57/57/57
f 52/52/52 157/157/157 156/156/156
f 158/158/158 52/52/52 156/156/156
f 161/161/161 160/160/160 159/159/159
f 162/162/162 161/161/161 159/159/159
f 165/165/165 164/164/164 163/163/163
f 177/177/177 165/165/165 163/163/163
f 174/174/174 177/177/177 163/163/163
f 174/174/174 163/163/163 176/176/176
f 176/176/176 175/175/175 174/174/174
f 168/168/168 167/167/167 166/166/166
f 169/169/169 168/168/168 166/166/166
f 172/172/172 171/171/171 170/170/170
f 173/173/173 172/172/172 170/170/170
f 13/13/13 15/15/15 14/14/14
f 14/14/14 15/15/15 16/16/16
f 19/19/19 15/15/15 13/13/13
f 16/16/16 15/15/15 17/17/17
f 18/18/18 15/15/15 19/19/19
f 17/17/17 15/15/15 18/18/18
f 21/21/21 22/22/22 20/20/20
f 20/20/20 22/22/22 26/26/26
f 23/23/23 22/22/22 21/21/21
f 26/26/26 22/22/22 25/25/25
f 24/24/24 22/22/22 23/23/23
f 25/25/25 22/22/22 24/24/24
f 78/78/78 77/77/77 76/76/76
f 79/79/79 78/78/78 76/76/76
f 76/76/76 77/77/77 80/80/80
f 87/87/87 78/78/78 79/79/79
f 77/77/77 81/81/81 80/80/80
f 86/86/86 87/87/87 79/79/79
f 80/80/80 81/81/81 82/82/82
f 85/85/85 87/87/87 86/86/86
f 81/81/81 83/83/83 82/82/82
f 84/84/84 85/85/85 86/86/86
f 82/82/82 83/83/83 84/84/84
f 83/83/83 85/85/85 84/84/84
f 90/90/90 89/89/89 88/88/88
f 91/91/91 90/90/90 88/88/88
f 88/88/88 89/89/89 99/99/99
f 92/92/92 90/90/90 91/91/91
f 89/89/89 98/98/98 99/99/99
f 93/93/93 92/92/92 91/91/91
f 99/99/99 98/98/98 97/97/97
f 94/94/94 92/92/92 93/93/93
f 98/98/98 96/96/96 97/97/97
f 95/95/95 94/94/94 93/93/93
f 97/97/97 96/96/96 95/95/95
f 96/96/96 94/94/94 95/95/95
