g SM_Prop_Bank_Booth_01_Glass
v 0.9304256 1.018199 -0.3386545
v 0.9304256 1.092269 -0.3386545
v 0.4656563 1.018199 -0.3386545
v 0.4656563 2.277398 -0.3386545
v 0.9994116 1.182317 -0.3386545
v 2.03435 2.277398 -0.3386545
v 1.498584 1.182317 -0.3386545
v 1.567571 1.092269 -0.3386545
v 2.03435 1.018199 -0.3386545
v 1.567571 1.018199 -0.3386545
v 0.9304256 1.018199 -0.3180437
v 0.4656563 1.018199 -0.3180437
v 0.9304256 1.092269 -0.3180437
v 0.4656563 2.277398 -0.3180437
v 0.9994116 1.182317 -0.3180437
v 2.03435 2.277398 -0.3180437
v 1.498584 1.182317 -0.3180437
v 1.567571 1.092269 -0.3180437
v 2.03435 1.018199 -0.3180437
v 1.567571 1.018199 -0.3180437
v 0.9304256 1.018199 -0.3180437
v 0.9304256 1.092269 -0.3180437
v 0.9304256 1.092269 -0.3386545
v 0.9304256 1.018199 -0.3386545
v 1.567571 1.092269 -0.3180437
v 1.567571 1.018199 -0.3180437
v 1.567571 1.018199 -0.3386545
v 1.567571 1.092269 -0.3386545
v 0.9304256 1.092269 -0.3180437
v 0.9994116 1.182317 -0.3180437
v 0.9994116 1.182317 -0.3386545
v 0.9304256 1.092269 -0.3386545
v 0.9994116 1.182317 -0.3180437
v 1.498584 1.182317 -0.3180437
v 1.498584 1.182317 -0.3386545
v 0.9994116 1.182317 -0.3386545
v 1.498584 1.182317 -0.3180437
v 1.567571 1.092269 -0.3180437
v 1.567571 1.092269 -0.3386545
v 1.498584 1.182317 -0.3386545
vt 0.5615234 0.003349304
vt 0.5615234 0.01065826
vt 0.5869141 0.003349304
vt 0.5869141 0.1196289
vt 0.5581055 0.01879883
vt 0.5024414 0.1196289
vt 0.5317383 0.01879883
vt 0.527832 0.01065826
vt 0.5024414 0.003349304
vt 0.527832 0.003349304
vt 0.527832 0.003349304
vt 0.5029297 0.003349304
vt 0.527832 0.01065826
vt 0.5029297 0.1196289
vt 0.5317383 0.01879883
vt 0.5869141 0.1196289
vt 0.5581055 0.01879883
vt 0.5615234 0.01065826
vt 0.5869141 0.003349304
vt 0.5615234 0.003349304
vt 0.527832 0.003349304
vt 0.527832 0.01065826
vt 0.5615234 0.01065826
vt 0.5615234 0.003349304
vt 0.5615234 0.01065826
vt 0.5615234 0.003349304
vt 0.527832 0.003349304
vt 0.527832 0.01065826
vt 0.527832 0.01065826
vt 0.5317383 0.01879883
vt 0.5581055 0.01879883
vt 0.5615234 0.01065826
vt 0.5317383 0.01879883
vt 0.5581055 0.01879883
vt 0.5317383 0.01879883
vt 0.5581055 0.01879883
vt 0.5581055 0.01879883
vt 0.5615234 0.01065826
vt 0.527832 0.01065826
vt 0.5317383 0.01879883
vn 0 0 -1
vn 0 0 -1
vn 0 0 -1
vn 0 0 -1
vn 0 0 -1
vn 0 0 -1
vn 0 0 -1
vn 0 0 -1
vn 0 0 -1
vn 0 0 -1
vn 0 0 1
vn 0 0 1
vn 0 0 1
vn 0 0 1
vn 0 0 1
vn 0 0 1
vn 0 0 1
vn 0 0 1
vn 0 0 1
vn 0 0 1
vn 1 0 0
vn 1 0 0
vn 1 0 0
vn 1 0 0
vn -1 0 0
vn -1 0 0
vn -1 0 0
vn -1 0 0
vn 0.7939453 -0.6079102 0
vn 0.7939453 -0.6079102 0
vn 0.7939453 -0.6079102 0
vn 0.7939453 -0.6079102 0
vn 0 -1 0
vn 0 -1 0
vn 0 -1 0
vn 0 -1 0
vn -0.7939453 -0.6083984 0
vn -0.7939453 -0.6083984 0
vn -0.7939453 -0.6083984 0
vn -0.7939453 -0.6083984 0
g SM_Prop_Bank_Booth_01_Glass_0
f 3/3/3 2/2/2 1/1/1
f 2/2/2 3/3/3 4/4/4
f 2/2/2 4/4/4 5/5/5
f 5/5/5 4/4/4 6/6/6
f 7/7/7 5/5/5 6/6/6
f 7/7/7 6/6/6 8/8/8
f 9/9/9 8/8/8 6/6/6
f 10/10/10 8/8/8 9/9/9
f 13/13/13 12/12/12 11/11/11
f 12/12/12 13/13/13 14/14/14
f 14/14/14 13/13/13 15/15/15
f 14/14/14 15/15/15 16/16/16
f 15/15/15 17/17/17 16/16/16
f 16/16/16 17/17/17 18/18/18
f 18/18/18 19/19/19 16/16/16
f 18/18/18 20/20/20 19/19/19
f 23/23/23 22/22/22 21/21/21
f 24/24/24 23/23/23 21/21/21
f 27/27/27 26/26/26 25/25/25
f 28/28/28 27/27/27 25/25/25
f 31/31/31 30/30/30 29/29/29
f 32/32/32 31/31/31 29/29/29
f 35/35/35 34/34/34 33/33/33
f 36/36/36 35/35/35 33/33/33
f 39/39/39 38/38/38 37/37/37
f 40/40/40 39/39/39 37/37/37
