g SM_Prop_Beam_02
v 1.407894 2.50573 0.1021636
v 1.466778 2.471734 0.1021636
v 0.3109894 0.4698486 0.1021636
v 0.2521057 0.5038453 0.1021636
v 0.3301277 0.4588032 0.06808233
v 0.3109894 0.4698486 0.1021636
v 1.466778 2.471734 0.1021636
v 1.485912 2.460686 0.06808233
v 0.2521057 0.5038453 0.1021636
v 0.2329712 0.5148927 0.06808233
v 1.38876 2.516778 0.06808233
v 1.407894 2.50573 0.1021636
v 1.407894 2.50573 -0.102164
v 0.2521057 0.5038453 -0.102164
v 0.3109894 0.4698486 -0.102164
v 1.466778 2.471734 -0.102164
v 0.3301277 0.4588032 -0.06808281
v 1.485912 2.460686 -0.06808281
v 1.466778 2.471734 -0.102164
v 0.3109894 0.4698486 -0.102164
v 0.2521057 0.5038453 -0.102164
v 1.407894 2.50573 -0.102164
v 1.38876 2.516778 -0.06808281
v 0.2329712 0.5148927 -0.06808281
v 1.331989 2.6475 0.1108603
v 1.354942 2.779182 0.140724
v 1.730072 2.562599 0.140724
v 1.62751 2.47688 0.1108603
v 1.936172 3.002942 0.140724
v 1.936172 3.002942 -0.1407245
v 1.936172 2.786359 -0.1407245
v 1.936172 2.786359 0.140724
v 1.354942 2.779182 -0.1407245
v 1.331985 2.647502 -0.1108608
v 1.62751 2.47688 -0.1108608
v 1.730072 2.562599 -0.1407245
v -0.2266159 0.2165829 -0.1407245
v -0.2266159 0.2165829 0.140724
v -0.2266159 -3.576279E-07 0.140724
v -0.2266159 -3.576279E-07 -0.1407245
v 1.62751 2.47688 0.1108603
v 1.730072 2.562599 0.140724
v 1.730072 2.562599 -0.1407245
v 1.62751 2.47688 -0.1108608
v 1.331985 2.647502 -0.1108608
v 1.354942 2.779182 -0.1407245
v 1.354942 2.779182 0.140724
v 1.331989 2.6475 0.1108603
v 0 0.4323569 0.1407242
v 0.09137726 0.4987008 0.1108603
v 0.3869019 0.3280785 0.1108603
v 0.3751373 0.2157738 0.1407242
v 0.3751373 0.2157738 0.1407242
v 0.3869019 0.3280785 0.1108603
v 0.386898 0.3280784 -0.1108608
v 0.3751373 0.2157737 -0.1407245
v 0.09138107 0.4986991 -0.1108608
v 3.814697E-06 0.4323568 -0.1407245
v 0.3751373 0.2157737 -0.1407245
v 0.386898 0.3280784 -0.1108608
v 3.814697E-06 0.4323568 -0.1407245
v 0.09138107 0.4986991 -0.1108608
v 0.09137726 0.4987008 0.1108603
v 0 0.4323569 0.1407242
v 1.730072 2.562599 0.140724
v 1.859261 2.786357 0.140724
v 1.859261 2.786357 -0.1407245
v 1.730072 2.562599 -0.1407245
v 1.354942 2.779182 0.140724
v 1.859261 2.786357 0.140724
v 1.730072 2.562599 0.140724
v 1.484127 3.002941 0.140724
v 1.936172 2.786359 0.140724
v 1.936172 3.002942 0.140724
v 1.354942 2.779182 -0.1407245
v 1.484127 3.002941 -0.1407245
v 1.484127 3.002941 0.140724
v 1.354942 2.779182 0.140724
v 1.484127 3.002941 -0.1407245
v 1.354942 2.779182 -0.1407245
v 1.730072 2.562599 -0.1407245
v 1.859261 2.786357 -0.1407245
v 1.936172 3.002942 -0.1407245
v 1.936172 2.786359 -0.1407245
v -0.1245728 0.2165833 0.140724
v 0 0.4323569 0.1407242
v 0.3751373 0.2157738 0.1407242
v 0.2505608 1.192093E-07 0.140724
v -0.2266159 0.2165829 0.140724
v -0.2266159 -3.576279E-07 0.140724
v 0.2505608 1.192093E-07 0.140724
v 0.3751373 0.2157738 0.1407242
v 0.3751373 0.2157737 -0.1407245
v 0.2505608 1.192093E-07 -0.1407245
v 3.814697E-06 0.4323568 -0.1407245
v 0.2505608 1.192093E-07 -0.1407245
v 0.3751373 0.2157737 -0.1407245
v -0.1245728 0.2165833 -0.1407245
v -0.2266159 -3.576279E-07 -0.1407245
v -0.2266159 0.2165829 -0.1407245
v -0.1245728 0.2165833 -0.1407245
v 3.814697E-06 0.4323568 -0.1407245
v 0 0.4323569 0.1407242
v -0.1245728 0.2165833 0.140724
v 0.3789597 0.4798029 0.06808233
v 0.2267456 0.5676843 0.06808233
v 1.339931 2.495775 0.06808233
v 1.492142 2.407896 0.06808233
v 1.62751 2.47688 -0.1108608
v 0.386898 0.3280784 -0.1108608
v 0.3869019 0.3280785 0.1108603
v 1.62751 2.47688 0.1108603
v 0.2267494 0.5676825 -0.06808281
v 0.3789597 0.4798028 -0.06808281
v 1.492142 2.407896 -0.06808281
v 1.339928 2.495778 -0.06808281
v 1.331989 2.6475 0.1108603
v 0.09137726 0.4987008 0.1108603
v 0.09138107 0.4986991 -0.1108608
v 1.331985 2.647502 -0.1108608
v 0.1825333 0.5440149 0.1108603
v 0.2267456 0.5676843 0.06808233
v 0.3789597 0.4798029 0.06808233
v 0.3805618 0.4296825 0.1108603
v 0.3789597 0.4798029 0.06808233
v 1.492142 2.407896 0.06808233
v 1.53635 2.431566 0.1108603
v 0.3805618 0.4296825 0.1108603
v 1.53635 2.431566 0.1108603
v 1.492142 2.407896 0.06808233
v 1.339931 2.495775 0.06808233
v 1.338326 2.545896 0.1108603
v 0.2267456 0.5676843 0.06808233
v 0.1825333 0.5440149 0.1108603
v 1.338326 2.545896 0.1108603
v 1.339931 2.495775 0.06808233
v 0.3805618 0.4296824 -0.1108608
v 0.3789597 0.4798028 -0.06808281
v 0.2267494 0.5676825 -0.06808281
v 0.1825409 0.5440131 -0.1108608
v 0.2267494 0.5676825 -0.06808281
v 1.339928 2.495778 -0.06808281
v 1.338322 2.545898 -0.1108608
v 0.1825409 0.5440131 -0.1108608
v 1.338322 2.545898 -0.1108608
v 1.339928 2.495778 -0.06808281
v 1.492142 2.407896 -0.06808281
v 1.53635 2.431566 -0.1108608
v 0.3789597 0.4798028 -0.06808281
v 0.3805618 0.4296824 -0.1108608
v 1.53635 2.431566 -0.1108608
v 1.492142 2.407896 -0.06808281
v 0.2505608 1.192093E-07 -0.1407245
v -0.2266159 -3.576279E-07 -0.1407245
v -0.2266159 -3.576279E-07 0.140724
v 0.2505608 1.192093E-07 0.140724
v -0.1245728 0.2165833 0.140724
v -0.2266159 0.2165829 0.140724
v -0.2266159 0.2165829 -0.1407245
v -0.1245728 0.2165833 -0.1407245
v 1.859261 2.786357 0.140724
v 1.936172 2.786359 0.140724
v 1.936172 2.786359 -0.1407245
v 1.859261 2.786357 -0.1407245
v 1.484127 3.002941 -0.1407245
v 1.936172 3.002942 -0.1407245
v 1.936172 3.002942 0.140724
v 1.484127 3.002941 0.140724
v 0.09137726 0.4987008 0.1108603
v 0.1825333 0.5440149 0.1108603
v 0.3805618 0.4296825 0.1108603
v 1.338326 2.545896 0.1108603
v 0.3869019 0.3280785 0.1108603
v 1.331989 2.6475 0.1108603
v 1.62751 2.47688 0.1108603
v 1.53635 2.431566 0.1108603
v 0.386898 0.3280784 -0.1108608
v 0.3805618 0.4296824 -0.1108608
v 0.1825409 0.5440131 -0.1108608
v 1.53635 2.431566 -0.1108608
v 0.09138107 0.4986991 -0.1108608
v 1.62751 2.47688 -0.1108608
v 1.331985 2.647502 -0.1108608
v 1.338322 2.545898 -0.1108608
vt 0.2454834 0.3527832
vt 0.2454834 0.3527832
vt 0.2454834 0.3527832
vt 0.2454834 0.3527832
vt 0.2454834 0.3527832
vt 0.2454834 0.3527832
vt 0.2454834 0.3527832
vt 0.2454834 0.3527832
vt 0.2454834 0.3527832
vt 0.2454834 0.3527832
vt 0.2454834 0.3527832
vt 0.2454834 0.3527832
vt 0.2454834 0.3527832
vt 0.2454834 0.3527832
vt 0.2454834 0.3527832
vt 0.2454834 0.3527832
vt 0.2454834 0.3527832
vt 0.2454834 0.3527832
vt 0.2454834 0.3527832
vt 0.2454834 0.3527832
vt 0.2454834 0.3527832
vt 0.2454834 0.3527832
vt 0.2454834 0.3527832
vt 0.2454834 0.3527832
vt 0.2451172 0.2988281
vt 0.2451172 0.2988281
vt 0.2451172 0.2988281
vt 0.2451172 0.2988281
vt 0.2451172 0.2988281
vt 0.2451172 0.2988281
vt 0.2451172 0.2988281
vt 0.2451172 0.2988281
vt 0.2451172 0.2988281
vt 0.2451172 0.2988281
vt 0.2451172 0.2988281
vt 0.2451172 0.2988281
vt 0.2451172 0.2988281
vt 0.2451172 0.2988281
vt 0.2451172 0.2988281
vt 0.2451172 0.2988281
vt 0.2451172 0.2988281
vt 0.2451172 0.2988281
vt 0.2451172 0.2988281
vt 0.2451172 0.2988281
vt 0.2451172 0.2988281
vt 0.2451172 0.2988281
vt 0.2451172 0.2988281
vt 0.2451172 0.2988281
vt 0.2451172 0.2988281
vt 0.2451172 0.2988281
vt 0.2451172 0.2988281
vt 0.2451172 0.2988281
vt 0.2451172 0.2988281
vt 0.2451172 0.2988281
vt 0.2451172 0.2988281
vt 0.2451172 0.2988281
vt 0.2451172 0.2988281
vt 0.2451172 0.2988281
vt 0.2451172 0.2988281
vt 0.2451172 0.2988281
vt 0.2451172 0.2988281
vt 0.2451172 0.2988281
vt 0.2451172 0.2988281
vt 0.2451172 0.2988281
vt 0.2451172 0.2988281
vt 0.2451172 0.2988281
vt 0.2451172 0.2988281
vt 0.2451172 0.2988281
vt 0.2451172 0.2988281
vt 0.2451172 0.2988281
vt 0.2451172 0.2988281
vt 0.2451172 0.2988281
vt 0.2451172 0.2988281
vt 0.2451172 0.2988281
vt 0.2451172 0.2988281
vt 0.2451172 0.2988281
vt 0.2451172 0.2988281
vt 0.2451172 0.2988281
vt 0.2451172 0.2988281
vt 0.2451172 0.2988281
vt 0.2451172 0.2988281
vt 0.2451172 0.2988281
vt 0.2451172 0.2988281
vt 0.2451172 0.2988281
vt 0.2451172 0.2988281
vt 0.2451172 0.2988281
vt 0.2451172 0.2988281
vt 0.2451172 0.2988281
vt 0.2451172 0.2988281
vt 0.2451172 0.2988281
vt 0.2451172 0.2988281
vt 0.2451172 0.2988281
vt 0.2451172 0.2988281
vt 0.2451172 0.2988281
vt 0.2451172 0.2988281
vt 0.2451172 0.2988281
vt 0.2451172 0.2988281
vt 0.2451172 0.2988281
vt 0.2451172 0.2988281
vt 0.2451172 0.2988281
vt 0.2451172 0.2988281
vt 0.2451172 0.2988281
vt 0.2451172 0.2988281
vt 0.2451172 0.2988281
vt 0.2453613 0.2751465
vt 0.2453613 0.2751465
vt 0.2453613 0.2751465
vt 0.2453613 0.2751465
vt 0.2451172 0.2988281
vt 0.2451172 0.2988281
vt 0.2451172 0.2988281
vt 0.2451172 0.2988281
vt 0.2453613 0.2751465
vt 0.2453613 0.2751465
vt 0.2453613 0.2751465
vt 0.2453613 0.2751465
vt 0.2451172 0.2988281
vt 0.2451172 0.2988281
vt 0.2451172 0.2988281
vt 0.2451172 0.2988281
vt 0.2451172 0.2988281
vt 0.2451172 0.2988281
vt 0.2451172 0.2988281
vt 0.2451172 0.2988281
vt 0.2451172 0.2988281
vt 0.2451172 0.2988281
vt 0.2451172 0.2988281
vt 0.2451172 0.2988281
vt 0.2451172 0.2988281
vt 0.2451172 0.2988281
vt 0.2451172 0.2988281
vt 0.2451172 0.2988281
vt 0.2451172 0.2988281
vt 0.2451172 0.2988281
vt 0.2451172 0.2988281
vt 0.2451172 0.2988281
vt 0.2451172 0.2988281
vt 0.2451172 0.2988281
vt 0.2451172 0.2988281
vt 0.2451172 0.2988281
vt 0.2451172 0.2988281
vt 0.2451172 0.2988281
vt 0.2451172 0.2988281
vt 0.2451172 0.2988281
vt 0.2451172 0.2988281
vt 0.2451172 0.2988281
vt 0.2451172 0.2988281
vt 0.2451172 0.2988281
vt 0.2451172 0.2988281
vt 0.2451172 0.2988281
vt 0.2451172 0.2988281
vt 0.2451172 0.2988281
vt 0.2451172 0.2988281
vt 0.2451172 0.2988281
vt 0.2451172 0.2988281
vt 0.2451172 0.2988281
vt 0.2451172 0.2988281
vt 0.2451172 0.2988281
vt 0.2451172 0.2988281
vt 0.2451172 0.2988281
vt 0.2451172 0.2988281
vt 0.2451172 0.2988281
vt 0.2451172 0.2988281
vt 0.2451172 0.2988281
vt 0.2451172 0.2988281
vt 0.2451172 0.2988281
vt 0.2451172 0.2988281
vt 0.2451172 0.2988281
vt 0.2451172 0.2988281
vt 0.2451172 0.2988281
vt 0.2451172 0.2988281
vt 0.2451172 0.2988281
vt 0.2451172 0.2988281
vt 0.2451172 0.2988281
vt 0.2451172 0.2988281
vt 0.2451172 0.2988281
vt 0.2451172 0.2988281
vt 0.2451172 0.2988281
vt 0.2451172 0.2988281
vt 0.2451172 0.2988281
vt 0.2451172 0.2988281
vt 0.2451172 0.2988281
vt 0.2451172 0.2988281
vt 0.2451172 0.2988281
vn 0 0 1
vn 0 0 1
vn 0 0 1
vn 0 0 1
vn 0.7265625 -0.4194336 0.5439453
vn 0.7265625 -0.4194336 0.5439453
vn 0.7265625 -0.4194336 0.5439453
vn 0.7265625 -0.4194336 0.5439453
vn -0.7265625 0.4194336 0.5439453
vn -0.7265625 0.4194336 0.5439453
vn -0.7265625 0.4194336 0.5439453
vn -0.7265625 0.4194336 0.5439453
vn 0 0 -1
vn 0 0 -1
vn 0 0 -1
vn 0 0 -1
vn 0.7265625 -0.4194336 -0.5439453
vn 0.7265625 -0.4194336 -0.5439453
vn 0.7265625 -0.4194336 -0.5439453
vn 0.7265625 -0.4194336 -0.5439453
vn -0.7265625 0.4194336 -0.5439453
vn -0.7265625 0.4194336 -0.5439453
vn -0.7265625 0.4194336 -0.5439453
vn -0.7265625 0.4194336 -0.5439453
vn -0.1157227 -0.2004395 0.9726563
vn -0.1157227 -0.2004395 0.9726563
vn -0.1157227 -0.2004395 0.9726563
vn -0.1157227 -0.2004395 0.9726563
vn 1 0 0
vn 1 0 0
vn 1 0 0
vn 1 0 0
vn -0.1157227 -0.2004395 -0.9726563
vn -0.1157227 -0.2004395 -0.9726563
vn -0.1157227 -0.2004395 -0.9726563
vn -0.1157227 -0.2004395 -0.9726563
vn -1 0 0
vn -1 0 0
vn -1 0 0
vn -1 0 0
vn 0.6411133 -0.7670898 0
vn 0.6411133 -0.7670898 0
vn 0.6411133 -0.7670898 0
vn 0.6411133 -0.7670898 0
vn -0.9853516 0.1717529 0
vn -0.9853516 0.1717529 0
vn -0.9853516 0.1717529 0
vn -0.9853516 0.1717529 0
vn 0.1390381 0.2408447 0.9604492
vn 0.1390381 0.2408447 0.9604492
vn 0.1390381 0.2408447 0.9604492
vn 0.1390381 0.2408447 0.9604492
vn 0.9946289 -0.104187 0
vn 0.9946289 -0.104187 0
vn 0.9946289 -0.104187 0
vn 0.9946289 -0.104187 0
vn 0.1390381 0.2408447 -0.9604492
vn 0.1390381 0.2408447 -0.9604492
vn 0.1390381 0.2408447 -0.9604492
vn 0.1390381 0.2408447 -0.9604492
vn -0.5874023 0.809082 -1.186132E-05
vn -0.5874023 0.809082 -1.186132E-05
vn -0.5874023 0.809082 -1.186132E-05
vn -0.5874023 0.809082 -1.186132E-05
vn 0.8662109 -0.5 0
vn 0.8662109 -0.5 0
vn 0.8662109 -0.5 0
vn 0.8662109 -0.5 0
vn 0 0 1
vn 0 0 1
vn 0 0 1
vn 0 0 1
vn 0 0 1
vn 0 0 1
vn -0.8662109 0.5 0
vn -0.8662109 0.5 0
vn -0.8662109 0.5 0
vn -0.8662109 0.5 0
vn 0 0 -1
vn 0 0 -1
vn 0 0 -1
vn 0 0 -1
vn 0 0 -1
vn 0 0 -1
vn 0 0 1
vn 0 0 1
vn 0 0 1
vn 0 0 1
vn 0 0 1
vn 0 0 1
vn 0.8662109 -0.5 0
vn 0.8662109 -0.5 0
vn 0.8662109 -0.5 0
vn 0.8662109 -0.5 0
vn 0 0 -1
vn 0 0 -1
vn 0 0 -1
vn 0 0 -1
vn 0 0 -1
vn 0 0 -1
vn -0.8662109 0.5 0
vn -0.8662109 0.5 0
vn -0.8662109 0.5 0
vn -0.8662109 0.5 0
vn 0 0 1
vn 0 0 1
vn 0 0 1
vn 0 0 1
vn 0.8662109 -0.5 0
vn 0.8662109 -0.5 0
vn 0.8662109 -0.5 0
vn 0.8662109 -0.5 0
vn 0 0 -1
vn 0 0 -1
vn 0 0 -1
vn 0 0 -1
vn -0.8662109 0.5 0
vn -0.8662109 0.5 0
vn -0.8662109 0.5 0
vn -0.8662109 0.5 0
vn 0.354248 0.6137695 0.7055664
vn 0.354248 0.6137695 0.7055664
vn 0.354248 0.6137695 0.7055664
vn 0.354248 0.6137695 0.7055664
vn -0.7368164 0.425293 0.5258789
vn -0.7368164 0.425293 0.5258789
vn -0.7368164 0.425293 0.5258789
vn -0.7368164 0.425293 0.5258789
vn -0.354248 -0.6137695 0.7055664
vn -0.354248 -0.6137695 0.7055664
vn -0.354248 -0.6137695 0.7055664
vn -0.354248 -0.6137695 0.7055664
vn 0.7368164 -0.425293 0.5258789
vn 0.7368164 -0.425293 0.5258789
vn 0.7368164 -0.425293 0.5258789
vn 0.7368164 -0.425293 0.5258789
vn 0.354248 0.6137695 -0.7055664
vn 0.354248 0.6137695 -0.7055664
vn 0.354248 0.6137695 -0.7055664
vn 0.354248 0.6137695 -0.7055664
vn 0.7368164 -0.425293 -0.5258789
vn 0.7368164 -0.425293 -0.5258789
vn 0.7368164 -0.425293 -0.5258789
vn 0.7368164 -0.425293 -0.5258789
vn -0.354248 -0.6137695 -0.7055664
vn -0.354248 -0.6137695 -0.7055664
vn -0.354248 -0.6137695 -0.7055664
vn -0.354248 -0.6137695 -0.7055664
vn -0.7368164 0.425293 -0.5258789
vn -0.7368164 0.425293 -0.5258789
vn -0.7368164 0.425293 -0.5258789
vn -0.7368164 0.425293 -0.5258789
vn 0 -1 0
vn 0 -1 0
vn 0 -1 0
vn 0 -1 0
vn 0 1 0
vn 0 1 0
vn 0 1 0
vn 0 1 0
vn 2.378225E-05 -1 0
vn 2.378225E-05 -1 0
vn 2.378225E-05 -1 0
vn 2.378225E-05 -1 0
vn 0 1 0
vn 0 1 0
vn 0 1 0
vn 0 1 0
vn 0 0 1
vn 0 0 1
vn 0 0 1
vn 0 0 1
vn 0 0 1
vn 0 0 1
vn 0 0 1
vn 0 0 1
vn 0 0 -1
vn 0 0 -1
vn 0 0 -1
vn 0 0 -1
vn 0 0 -1
vn 0 0 -1
vn 0 0 -1
vn 0 0 -1
g SM_Prop_Beam_02_0
f 3/3/3 2/2/2 1/1/1
f 4/4/4 3/3/3 1/1/1
f 7/7/7 6/6/6 5/5/5
f 8/8/8 7/7/7 5/5/5
f 11/11/11 10/10/10 9/9/9
f 12/12/12 11/11/11 9/9/9
f 15/15/15 14/14/14 13/13/13
f 16/16/16 15/15/15 13/13/13
f 19/19/19 18/18/18 17/17/17
f 20/20/20 19/19/19 17/17/17
f 23/23/23 22/22/22 21/21/21
f 24/24/24 23/23/23 21/21/21
f 27/27/27 26/26/26 25/25/25
f 28/28/28 27/27/27 25/25/25
f 31/31/31 30/30/30 29/29/29
f 32/32/32 31/31/31 29/29/29
f 35/35/35 34/34/34 33/33/33
f 36/36/36 35/35/35 33/33/33
f 39/39/39 38/38/38 37/37/37
f 40/40/40 39/39/39 37/37/37
f 43/43/43 42/42/42 41/41/41
f 44/44/44 43/43/43 41/41/41
f 47/47/47 46/46/46 45/45/45
f 48/48/48 47/47/47 45/45/45
f 51/51/51 50/50/50 49/49/49
f 52/52/52 51/51/51 49/49/49
f 55/55/55 54/54/54 53/53/53
f 56/56/56 55/55/55 53/53/53
f 59/59/59 58/58/58 57/57/57
f 60/60/60 59/59/59 57/57/57
f 63/63/63 62/62/62 61/61/61
f 64/64/64 63/63/63 61/61/61
f 67/67/67 66/66/66 65/65/65
f 68/68/68 67/67/67 65/65/65
f 71/71/71 70/70/70 69/69/69
f 70/70/70 72/72/72 69/69/69
f 70/70/70 73/73/73 72/72/72
f 73/73/73 74/74/74 72/72/72
f 77/77/77 76/76/76 75/75/75
f 78/78/78 77/77/77 75/75/75
f 81/81/81 80/80/80 79/79/79
f 82/82/82 81/81/81 79/79/79
f 79/79/79 83/83/83 82/82/82
f 83/83/83 84/84/84 82/82/82
f 87/87/87 86/86/86 85/85/85
f 88/88/88 87/87/87 85/85/85
f 85/85/85 89/89/89 88/88/88
f 89/89/89 90/90/90 88/88/88
f 93/93/93 92/92/92 91/91/91
f 94/94/94 93/93/93 91/91/91
f 97/97/97 96/96/96 95/95/95
f 96/96/96 98/98/98 95/95/95
f 96/96/96 99/99/99 98/98/98
f 99/99/99 100/100/100 98/98/98
f 103/103/103 102/102/102 101/101/101
f 104/104/104 103/103/103 101/101/101
f 107/107/107 106/106/106 105/105/105
f 108/108/108 107/107/107 105/105/105
f 111/111/111 110/110/110 109/109/109
f 112/112/112 111/111/111 109/109/109
f 115/115/115 114/114/114 113/113/113
f 116/116/116 115/115/115 113/113/113
f 119/119/119 118/118/118 117/117/117
f 120/120/120 119/119/119 117/117/117
f 123/123/123 122/122/122 121/121/121
f 124/124/124 123/123/123 121/121/121
f 127/127/127 126/126/126 125/125/125
f 128/128/128 127/127/127 125/125/125
f 131/131/131 130/130/130 129/129/129
f 132/132/132 131/131/131 129/129/129
f 135/135/135 134/134/134 133/133/133
f 136/136/136 135/135/135 133/133/133
f 139/139/139 138/138/138 137/137/137
f 140/140/140 139/139/139 137/137/137
f 143/143/143 142/142/142 141/141/141
f 144/144/144 143/143/143 141/141/141
f 147/147/147 146/146/146 145/145/145
f 148/148/148 147/147/147 145/145/145
f 151/151/151 150/150/150 149/149/149
f 152/152/152 151/151/151 149/149/149
f 155/155/155 154/154/154 153/153/153
f 156/156/156 155/155/155 153/153/153
f 159/159/159 158/158/158 157/157/157
f 160/160/160 159/159/159 157/157/157
f 163/163/163 162/162/162 161/161/161
f 164/164/164 163/163/163 161/161/161
f 167/167/167 166/166/166 165/165/165
f 168/168/168 167/167/167 165/165/165
f 171/171/171 170/170/170 169/169/169
f 169/169/169 170/170/170 172/172/172
f 173/173/173 171/171/171 169/169/169
f 174/174/174 169/169/169 172/172/172
f 173/173/173 175/175/175 171/171/171
f 174/174/174 172/172/172 175/175/175
f 175/175/175 176/176/176 171/171/171
f 172/172/172 176/176/176 175/175/175
f 179/179/179 178/178/178 177/177/177
f 177/177/177 178/178/178 180/180/180
f 181/181/181 179/179/179 177/177/177
f 182/182/182 177/177/177 180/180/180
f 181/181/181 183/183/183 179/179/179
f 182/182/182 180/180/180 183/183/183
f 183/183/183 184/184/184 179/179/179
f 180/180/180 184/184/184 183/183/183
