g SM_Prop_Posters_02
v 0.4524088 0.01650614 0.1042023
v 0.3767856 0.01650614 0.1032031
v 0.4497025 0.01650614 0.05879547
v 0.3267172 0.01650614 -0.1288896
v 0.4645737 0.01650614 0.05528
v 0.4455499 0.01650614 -0.1298981
v 0.002677002 0.01650614 0.1566406
v 0.3947907 0.01650614 0.1899085
v 0.02739319 0.01650614 0.2698145
v -0.05965973 0.01650614 -0.2561197
v 0.2857843 0.01650614 -0.3285181
v -0.3503464 0.01650614 -0.1773761
v -0.4645734 0.01650614 -0.4368881
v -0.1978641 0.01650614 -0.5581685
v -0.09091492 0.01650614 0.2681513
v -0.07315613 0.01650614 0.2766989
v -0.3850443 0.01650614 0.2154984
v -0.4553314 0.01650614 0.4777851
v -0.1710257 0.01650614 0.5581684
v -0.4192133 0.01650614 0.2131223
v -0.4199842 0.01650614 -0.1773804
v -0.1710257 0.01650614 0.5581684
v -0.1710257 0 0.5581684
v -0.4553314 0.01650614 0.4777851
v -0.4553314 0 0.4777851
v -0.09091492 0.01650614 0.2681513
v -0.09091492 0 0.2681513
v -0.1710257 0.01650614 0.5581684
v -0.1710257 0 0.5581684
v -0.07315613 0.01650614 0.2766989
v -0.07315613 0 0.2766989
v -0.09091492 0.01650614 0.2681513
v -0.09091492 0 0.2681513
v 0.002677002 0.01650614 0.1566406
v 0.002677002 0 0.1566406
v -0.07315613 0.01650614 0.2766989
v -0.07315613 0 0.2766989
v 0.02739319 0.01650614 0.2698145
v 0.02739319 0 0.2698145
v 0.002677002 0.01650614 0.1566406
v 0.002677002 0 0.1566406
v 0.3947907 0.01650614 0.1899085
v 0.3947907 0 0.1899085
v 0.02739319 0.01650614 0.2698145
v 0.02739319 0 0.2698145
v 0.3767856 0.01650614 0.1032031
v 0.3767856 0 0.1032031
v 0.3947907 0.01650614 0.1899085
v 0.3947907 0 0.1899085
v 0.4524088 0.01650614 0.1042023
v 0.4524088 0 0.1042023
v 0.3767856 0.01650614 0.1032031
v 0.3767856 0 0.1032031
v 0.4497025 0.01650614 0.05879547
v 0.4497025 0 0.05879547
v 0.4524088 0.01650614 0.1042023
v 0.4524088 0 0.1042023
v 0.4645737 0.01650614 0.05528
v 0.4645737 0 0.05528
v 0.4497025 0.01650614 0.05879547
v 0.4497025 0 0.05879547
v 0.4455499 0.01650614 -0.1298981
v 0.4455499 0 -0.1298981
v 0.4645737 0.01650614 0.05528
v 0.4645737 0 0.05528
v 0.3267172 0.01650614 -0.1288896
v 0.3267172 0 -0.1288896
v 0.4455499 0.01650614 -0.1298981
v 0.4455499 0 -0.1298981
v 0.2857843 0.01650614 -0.3285181
v 0.2857843 0 -0.3285181
v 0.3267172 0.01650614 -0.1288896
v 0.3267172 0 -0.1288896
v -0.05965973 0.01650614 -0.2561197
v -0.05965973 0 -0.2561197
v 0.2857843 0.01650614 -0.3285181
v 0.2857843 0 -0.3285181
v -0.1978641 0.01650614 -0.5581685
v -0.1978641 0 -0.5581685
v -0.05965973 0.01650614 -0.2561197
v -0.05965973 0 -0.2561197
v -0.4645734 0.01650614 -0.4368881
v -0.4645734 0 -0.4368881
v -0.1978641 0.01650614 -0.5581685
v -0.1978641 0 -0.5581685
v -0.3503464 0.01650614 -0.1773761
v -0.3503464 0 -0.1773761
v -0.4645734 0.01650614 -0.4368881
v -0.4645734 0 -0.4368881
v -0.4199842 0.01650614 -0.1773804
v -0.4199842 0 -0.1773804
v -0.3503464 0.01650614 -0.1773761
v -0.3503464 0 -0.1773761
v -0.4192133 0.01650614 0.2131223
v -0.4192133 0 0.2131223
v -0.4199842 0.01650614 -0.1773804
v -0.4199842 0 -0.1773804
v -0.3850443 0.01650614 0.2154984
v -0.3850443 0 0.2154984
v -0.4192133 0.01650614 0.2131223
v -0.4192133 0 0.2131223
v -0.4553314 0.01650614 0.4777851
v -0.4553314 0 0.4777851
v -0.3850443 0.01650614 0.2154984
v -0.3850443 0 0.2154984
vt 0.2825506 0.7183352
vt 0.264315 0.7185776
vt 0.2818972 0.7292807
vt 0.2522453 0.7745185
vt 0.2854922 0.730133
vt 0.28089 0.7747625
vt 0.1741425 0.7056901
vt 0.2686602 0.6976718
vt 0.1801026 0.6784098
vt 0.159109 0.8051901
vt 0.2423782 0.8226448
vt 0.08903697 0.7862076
vt 0.06148637 0.8487726
vt 0.1257877 0.8780022
vt 0.1515847 0.6788098
vt 0.1558655 0.6767495
vt 0.08067616 0.691498
vt 0.06373596 0.6282698
vt 0.1322778 0.6088988
vt 0.07243813 0.6920697
vt 0.07224662 0.7862067
vt 0.2882587 0.691829
vt 0.2882587 0.689061
vt 0.2827227 0.691829
vt 0.2827227 0.689061
vt 0.2882587 0.691829
vt 0.2882587 0.689061
vt 0.2827227 0.691829
vt 0.2827228 0.689061
vt 0.2882587 0.691829
vt 0.2882586 0.689061
vt 0.2827227 0.691829
vt 0.2827228 0.689061
vt 0.2882587 0.691829
vt 0.2882587 0.689061
vt 0.2827227 0.691829
vt 0.2827228 0.689061
vt 0.2882587 0.691829
vt 0.2882587 0.689061
vt 0.2827227 0.691829
vt 0.2827227 0.689061
vt 0.2882587 0.691829
vt 0.2882587 0.689061
vt 0.2827227 0.691829
vt 0.2827227 0.689061
vt 0.2882587 0.691829
vt 0.2882587 0.689061
vt 0.2827227 0.691829
vt 0.2827228 0.689061
vt 0.2882587 0.691829
vt 0.2882587 0.689061
vt 0.2827227 0.691829
vt 0.2827228 0.689061
vt 0.2882587 0.691829
vt 0.2882587 0.689061
vt 0.2827227 0.691829
vt 0.2827228 0.689061
vt 0.2882587 0.691829
vt 0.2882586 0.689061
vt 0.2827227 0.691829
vt 0.2827228 0.689061
vt 0.2882587 0.691829
vt 0.2882587 0.689061
vt 0.2827227 0.691829
vt 0.2827228 0.689061
vt 0.2882587 0.691829
vt 0.2882587 0.689061
vt 0.2827227 0.691829
vt 0.2827228 0.689061
vt 0.2882587 0.691829
vt 0.2882587 0.689061
vt 0.2827227 0.691829
vt 0.2827227 0.689061
vt 0.2882587 0.691829
vt 0.2882587 0.689061
vt 0.2827227 0.691829
vt 0.2827227 0.689061
vt 0.2882587 0.691829
vt 0.2882587 0.689061
vt 0.2827227 0.691829
vt 0.2827227 0.689061
vt 0.2882587 0.691829
vt 0.2882587 0.689061
vt 0.2827227 0.691829
vt 0.2827227 0.689061
vt 0.2882587 0.691829
vt 0.2882587 0.689061
vt 0.2827227 0.691829
vt 0.2827227 0.689061
vt 0.2882587 0.691829
vt 0.2882587 0.689061
vt 0.2827227 0.691829
vt 0.2827228 0.689061
vt 0.2882587 0.691829
vt 0.2882587 0.689061
vt 0.2827227 0.691829
vt 0.2827228 0.689061
vt 0.2882587 0.691829
vt 0.2882587 0.689061
vt 0.2827227 0.691829
vt 0.2827228 0.689061
vt 0.2882587 0.691829
vt 0.2882587 0.689061
vt 0.2827227 0.691829
vt 0.2827227 0.689061
vn 0 1 0
vn 0 1 0
vn 0 1 0
vn 0 1 0
vn 0 1 0
vn 0 1 0
vn 0 1 0
vn 0 1 0
vn 0 1 0
vn 0 1 0
vn 0 1 0
vn 0 1 0
vn 0 1 0
vn 0 1 0
vn 0 1 0
vn 0 1 0
vn 0 1 0
vn 0 1 0
vn 0 1 0
vn 0 1 0
vn 0 1 0
vn -0.27207 0 0.9622775
vn -0.27207 0 0.9622775
vn -0.27207 0 0.9622775
vn -0.27207 0 0.9622775
vn 0.9639021 0 0.2662566
vn 0.9639021 0 0.2662566
vn 0.9639021 0 0.2662566
vn 0.9639021 0 0.2662566
vn -0.4336978 0 0.9010584
vn -0.4336978 0 0.9010584
vn -0.4336978 0 0.9010584
vn -0.4336978 0 0.9010584
vn 0.8454672 0 0.5340275
vn 0.8454672 0 0.5340275
vn 0.8454672 0 0.5340275
vn 0.8454672 0 0.5340275
vn -0.9769732 0 0.2133625
vn -0.9769732 0 0.2133625
vn -0.9769732 0 0.2133625
vn -0.9769732 0 0.2133625
vn 0.2125236 0 0.9771559
vn 0.2125236 0 0.9771559
vn 0.2125236 0 0.9771559
vn 0.2125236 0 0.9771559
vn 0.9791121 0 -0.2033206
vn 0.9791121 0 -0.2033206
vn 0.9791121 0 -0.2033206
vn 0.9791121 0 -0.2033206
vn -0.01321101 0 0.9999127
vn -0.01321101 0 0.9999127
vn -0.01321101 0 0.9999127
vn -0.01321101 0 0.9999127
vn 0.9982286 0 -0.0594956
vn 0.9982286 0 -0.0594956
vn 0.9982286 0 -0.0594956
vn 0.9982286 0 -0.0594956
vn 0.2300538 0 0.973178
vn 0.2300538 0 0.973178
vn 0.2300538 0 0.973178
vn 0.2300538 0 0.973178
vn 0.9947644 0 -0.1021943
vn 0.9947644 0 -0.1021943
vn 0.9947644 0 -0.1021943
vn 0.9947644 0 -0.1021943
vn -0.008485895 0 -0.999964
vn -0.008485895 0 -0.999964
vn -0.008485895 0 -0.999964
vn -0.008485895 0 -0.999964
vn 0.9796187 0 -0.2008665
vn 0.9796187 0 -0.2008665
vn 0.9796187 0 -0.2008665
vn 0.9796187 0 -0.2008665
vn -0.2051241 0 -0.978736
vn -0.2051241 0 -0.978736
vn -0.2051241 0 -0.978736
vn -0.2051241 0 -0.978736
vn 0.9093322 0 -0.4160708
vn 0.9093322 0 -0.4160708
vn 0.9093322 0 -0.4160708
vn 0.9093322 0 -0.4160708
vn -0.4139412 0 -0.9103036
vn -0.4139412 0 -0.9103036
vn -0.4139412 0 -0.9103036
vn -0.4139412 0 -0.9103036
vn -0.9152607 0 0.402862
vn -0.9152607 0 0.402862
vn -0.9152607 0 0.402862
vn -0.9152607 0 0.402862
vn 6.135263E-05 0 -1
vn 6.135263E-05 0 -1
vn 6.135263E-05 0 -1
vn 6.135263E-05 0 -1
vn -0.9999981 0 0.001974052
vn -0.9999981 0 0.001974052
vn -0.9999981 0 0.001974052
vn -0.9999981 0 0.001974052
vn -0.06937213 0 0.9975909
vn -0.06937213 0 0.9975909
vn -0.06937213 0 0.9975909
vn -0.06937213 0 0.9975909
vn -0.9659188 0 -0.2588453
vn -0.9659188 0 -0.2588453
vn -0.9659188 0 -0.2588453
vn -0.9659188 0 -0.2588453
g SM_Prop_Posters_02_0
f 3/3/3 2/2/2 1/1/1
f 4/4/4 2/2/2 3/3/3
f 4/4/4 3/3/3 5/5/5
f 4/4/4 5/5/5 6/6/6
f 4/4/4 7/7/7 2/2/2
f 2/2/2 7/7/7 8/8/8
f 8/8/8 7/7/7 9/9/9
f 10/10/10 7/7/7 4/4/4
f 10/10/10 4/4/4 11/11/11
f 12/12/12 7/7/7 10/10/10
f 12/12/12 10/10/10 13/13/13
f 13/13/13 10/10/10 14/14/14
f 7/7/7 12/12/12 15/15/15
f 7/7/7 15/15/15 16/16/16
f 15/15/15 12/12/12 17/17/17
f 15/15/15 17/17/17 18/18/18
f 15/15/15 18/18/18 19/19/19
f 17/17/17 12/12/12 20/20/20
f 20/20/20 12/12/12 21/21/21
f 24/24/24 23/23/23 22/22/22
f 24/24/24 25/25/25 23/23/23
f 28/28/28 27/27/27 26/26/26
f 28/28/28 29/29/29 27/27/27
f 32/32/32 31/31/31 30/30/30
f 32/32/32 33/33/33 31/31/31
f 36/36/36 35/35/35 34/34/34
f 36/36/36 37/37/37 35/35/35
f 40/40/40 39/39/39 38/38/38
f 40/40/40 41/41/41 39/39/39
f 44/44/44 43/43/43 42/42/42
f 44/44/44 45/45/45 43/43/43
f 48/48/48 47/47/47 46/46/46
f 48/48/48 49/49/49 47/47/47
f 52/52/52 51/51/51 50/50/50
f 52/52/52 53/53/53 51/51/51
f 56/56/56 55/55/55 54/54/54
f 56/56/56 57/57/57 55/55/55
f 60/60/60 59/59/59 58/58/58
f 60/60/60 61/61/61 59/59/59
f 64/64/64 63/63/63 62/62/62
f 64/64/64 65/65/65 63/63/63
f 68/68/68 67/67/67 66/66/66
f 68/68/68 69/69/69 67/67/67
f 72/72/72 71/71/71 70/70/70
f 72/72/72 73/73/73 71/71/71
f 76/76/76 75/75/75 74/74/74
f 76/76/76 77/77/77 75/75/75
f 80/80/80 79/79/79 78/78/78
f 80/80/80 81/81/81 79/79/79
f 84/84/84 83/83/83 82/82/82
f 84/84/84 85/85/85 83/83/83
f 88/88/88 87/87/87 86/86/86
f 88/88/88 89/89/89 87/87/87
f 92/92/92 91/91/91 90/90/90
f 92/92/92 93/93/93 91/91/91
f 96/96/96 95/95/95 94/94/94
f 96/96/96 97/97/97 95/95/95
f 100/100/100 99/99/99 98/98/98
f 100/100/100 101/101/101 99/99/99
f 104/104/104 103/103/103 102/102/102
f 104/104/104 105/105/105 103/103/103
