g SM_Prop_Vent_02
v 0.3916716 1.649544 0.9378691
v -0.3916712 1.649544 0.9378691
v -0.3916712 1.993585 0.9378691
v 0.3916716 1.993584 0.9378691
v 0.3916716 1.993584 -0.255024
v -0.3916712 1.993585 -0.255024
v -0.3916716 1.649544 -0.255024
v 0.3916716 1.649544 -0.255024
v 0.5 1.649544 0.841423
v 0.5 1.993584 0.841423
v 0.5 1.993584 -0.158577
v 0.5 1.649544 -0.158577
v 0.5 0.6013118 0.2127619
v 0.5 0.6013118 -0.7872381
v -0.5 1.649544 -0.158577
v -0.5 1.993584 -0.158577
v -0.5 1.993584 0.841423
v -0.5 1.649544 0.841423
v -0.5 0.6013118 -0.7872381
v -0.5 0.6013118 0.2127619
v 0.3471317 1.993584 0.8700428
v -0.3471317 1.993585 0.8700428
v -0.3471317 1.902235 0.8700428
v 0.3471317 1.902235 0.8700428
v 0.4431415 1.993584 0.784564
v 0.4431415 1.902235 0.784564
v 0.4431415 1.902235 -0.1017189
v 0.4431415 1.993584 -0.1017189
v 0.3471317 1.902235 -0.1871977
v -0.3471317 1.902235 -0.1871977
v -0.3471317 1.993585 -0.1871977
v 0.3471317 1.993584 -0.1871977
v -0.4431415 1.993584 -0.1017189
v -0.4431415 1.902235 -0.1017189
v -0.4431415 1.902235 0.784564
v -0.4431415 1.993584 0.784564
v 0.3916716 0.6013118 0.3092079
v -0.3916712 0.6013118 0.3092079
v -0.3916712 1.649544 0.9378691
v 0.3916716 1.649544 0.9378691
v -0.3916716 1.649544 -0.255024
v -0.3916716 0.6013118 -0.8836851
v 0.3916716 0.6013118 -0.8836851
v 0.3916716 1.649544 -0.255024
v 0.3916716 0.1117965 0.3092079
v -0.3916712 0.1117965 0.3092079
v -0.3916716 0.4833592 0.3092079
v 0.3916716 0.4833592 0.3092079
v 0.5 0.1117965 0.2127619
v 0.5 0.4833592 0.2127619
v 0.5 0.4833592 -0.7872381
v 0.5 0.1117965 -0.7872381
v 0.3916716 0.4833592 -0.8836851
v -0.3916712 0.4833592 -0.8836851
v -0.3916716 0.1117965 -0.8836851
v 0.3916716 0.1117965 -0.8836851
v -0.5 0.1117965 -0.7872381
v -0.5 0.4833592 -0.7872381
v -0.5 0.4833592 0.2127619
v -0.5 0.1117965 0.2127619
v 0.4272537 0 0.3633929
v -0.4272537 0 0.3633929
v -0.4272537 0.1117965 0.3633929
v 0.4272537 0.1117965 0.3633929
v 0.545423 0 0.2581844
v 0.545423 0.1117965 0.2581844
v 0.545423 0.1117965 -0.8326616
v 0.545423 0 -0.8326616
v -0.4272537 0.1117965 -0.937869
v -0.4272537 0 -0.937869
v 0.4272537 0 -0.937869
v 0.4272537 0.1117965 -0.937869
v -0.545423 0 -0.8326616
v -0.545423 0.1117965 -0.8326616
v -0.545423 0.1117965 0.2581844
v -0.545423 0 0.2581844
v 0.545423 0.4833592 0.2581844
v 0.545423 0.6013118 0.2581844
v 0.545423 0.6013118 -0.8326616
v 0.545423 0.4833592 -0.8326616
v -0.4272537 0.4833592 0.3633929
v -0.4272537 0.6013118 0.3633929
v 0.4272537 0.6013118 0.3633929
v 0.4272537 0.4833592 0.3633929
v -0.545423 0.4833592 -0.8326616
v -0.545423 0.6013118 -0.8326616
v -0.545423 0.6013118 0.2581844
v -0.545423 0.4833592 0.2581844
v -0.4272537 0.6013118 -0.937869
v -0.4272537 0.4833592 -0.937869
v 0.4272537 0.4833592 -0.937869
v 0.4272537 0.6013118 -0.937869
v -0.545423 0.6013118 -0.8326616
v -0.545423 0.4833592 -0.8326616
v -0.4272537 0.4833592 -0.937869
v -0.4272537 0.6013118 -0.937869
v -0.5 1.649544 -0.158577
v -0.5 0.6013118 -0.7872381
v -0.3916716 0.6013118 -0.8836851
v -0.3916716 1.649544 -0.255024
v -0.5 1.993584 -0.158577
v -0.5 1.649544 -0.158577
v -0.3916716 1.649544 -0.255024
v -0.3916712 1.993585 -0.255024
v -0.3471317 1.902235 -0.1871977
v -0.4431415 1.902235 -0.1017189
v -0.4431415 1.993584 -0.1017189
v -0.3471317 1.993585 -0.1871977
v -0.4431415 1.902235 0.784564
v -0.4431415 1.902235 -0.1017189
v -0.3471317 1.902235 -0.1871977
v -0.3471317 1.902235 0.8700428
v 0.3471317 1.902235 0.8700428
v 0.3471317 1.902235 -0.1871977
v 0.4431415 1.902235 0.784564
v 0.4431415 1.902235 -0.1017189
v -0.4431415 1.993584 0.784564
v -0.4431415 1.902235 0.784564
v -0.3471317 1.902235 0.8700428
v -0.3471317 1.993585 0.8700428
v -0.5 1.649544 0.841423
v -0.5 1.993584 0.841423
v -0.3916712 1.993585 0.9378691
v -0.3916712 1.649544 0.9378691
v -0.5 0.6013118 0.2127619
v -0.5 1.649544 0.841423
v -0.3916712 1.649544 0.9378691
v -0.3916712 0.6013118 0.3092079
v -0.545423 0.4833592 0.2581844
v -0.545423 0.6013118 0.2581844
v -0.4272537 0.6013118 0.3633929
v -0.4272537 0.4833592 0.3633929
v -0.5 0.1117965 0.2127619
v -0.5 0.4833592 0.2127619
v -0.3916716 0.4833592 0.3092079
v -0.3916712 0.1117965 0.3092079
v -0.545423 0 0.2581844
v -0.545423 0.1117965 0.2581844
v -0.4272537 0.1117965 0.3633929
v -0.4272537 0 0.3633929
v -0.4272537 0 -0.937869
v -0.545423 0 -0.8326616
v -0.545423 0 0.2581844
v -0.4272537 0 0.3633929
v 0.4272537 0 -0.937869
v 0.4272537 0 0.3633929
v 0.545423 0 0.2581844
v 0.545423 0 -0.8326616
v -0.545423 0.1117965 -0.8326616
v -0.545423 0 -0.8326616
v -0.4272537 0 -0.937869
v -0.4272537 0.1117965 -0.937869
v -0.5 0.4833592 -0.7872381
v -0.5 0.1117965 -0.7872381
v -0.3916716 0.1117965 -0.8836851
v -0.3916712 0.4833592 -0.8836851
v 0.4272537 0 -0.937869
v 0.545423 0 -0.8326616
v 0.545423 0.1117965 -0.8326616
v 0.4272537 0.1117965 -0.937869
v 0.4272537 0.1117965 0.3633929
v 0.545423 0.1117965 0.2581844
v 0.545423 0 0.2581844
v 0.4272537 0 0.3633929
v 0.3916716 0.4833592 0.3092079
v 0.5 0.4833592 0.2127619
v 0.5 0.1117965 0.2127619
v 0.3916716 0.1117965 0.3092079
v 0.4272537 0.6013118 0.3633929
v 0.545423 0.6013118 0.2581844
v 0.545423 0.4833592 0.2581844
v 0.4272537 0.4833592 0.3633929
v 0.3916716 1.649544 0.9378691
v 0.5 1.649544 0.841423
v 0.5 0.6013118 0.2127619
v 0.3916716 0.6013118 0.3092079
v 0.3916716 1.993584 0.9378691
v 0.5 1.993584 0.841423
v 0.5 1.649544 0.841423
v 0.3916716 1.649544 0.9378691
v 0.3471317 1.902235 0.8700428
v 0.4431415 1.902235 0.784564
v 0.4431415 1.993584 0.784564
v 0.3471317 1.993584 0.8700428
v 0.4431415 1.993584 -0.1017189
v 0.4431415 1.902235 -0.1017189
v 0.3471317 1.902235 -0.1871977
v 0.3471317 1.993584 -0.1871977
v 0.3916716 1.649544 -0.255024
v 0.5 1.649544 -0.158577
v 0.5 1.993584 -0.158577
v 0.3916716 1.993584 -0.255024
v 0.3916716 0.6013118 -0.8836851
v 0.5 0.6013118 -0.7872381
v 0.5 1.649544 -0.158577
v 0.3916716 1.649544 -0.255024
v 0.4272537 0.4833592 -0.937869
v 0.545423 0.4833592 -0.8326616
v 0.545423 0.6013118 -0.8326616
v 0.4272537 0.6013118 -0.937869
v 0.3916716 0.1117965 -0.8836851
v 0.5 0.1117965 -0.7872381
v 0.5 0.4833592 -0.7872381
v 0.3916716 0.4833592 -0.8836851
v 0.5 1.993584 0.841423
v 0.4431415 1.993584 0.784564
v 0.4431415 1.993584 -0.1017189
v 0.3471317 1.993584 0.8700428
v 0.5 1.993584 -0.158577
v 0.3916716 1.993584 0.9378691
v 0.3471317 1.993584 -0.1871977
v 0.3916716 1.993584 -0.255024
v -0.3916712 1.993585 -0.255024
v -0.3471317 1.993585 -0.1871977
v -0.3471317 1.993585 0.8700428
v -0.3916712 1.993585 0.9378691
v -0.5 1.993584 0.841423
v -0.4431415 1.993584 0.784564
v -0.5 1.993584 -0.158577
v -0.4431415 1.993584 -0.1017189
v 0.4272537 0.1117965 0.3633929
v -0.3916712 0.1117965 0.3092079
v 0.3916716 0.1117965 0.3092079
v 0.5 0.1117965 0.2127619
v -0.4272537 0.1117965 0.3633929
v 0.545423 0.1117965 0.2581844
v -0.5 0.1117965 0.2127619
v -0.545423 0.1117965 0.2581844
v -0.545423 0.1117965 -0.8326616
v -0.5 0.1117965 -0.7872381
v -0.4272537 0.1117965 -0.937869
v -0.3916716 0.1117965 -0.8836851
v 0.5 0.1117965 -0.7872381
v 0.545423 0.1117965 -0.8326616
v 0.4272537 0.1117965 -0.937869
v 0.3916716 0.1117965 -0.8836851
v 0.5 0.4833592 0.2127619
v 0.545423 0.4833592 0.2581844
v 0.545423 0.4833592 -0.8326616
v 0.4272537 0.4833592 0.3633929
v 0.5 0.4833592 -0.7872381
v 0.3916716 0.4833592 0.3092079
v -0.3916716 0.4833592 0.3092079
v -0.4272537 0.4833592 0.3633929
v -0.5 0.4833592 0.2127619
v -0.545423 0.4833592 0.2581844
v 0.4272537 0.4833592 -0.937869
v 0.3916716 0.4833592 -0.8836851
v -0.3916712 0.4833592 -0.8836851
v -0.4272537 0.4833592 -0.937869
v -0.5 0.4833592 -0.7872381
v -0.545423 0.4833592 -0.8326616
v 0.5 0.6013118 -0.7872381
v 0.545423 0.6013118 -0.8326616
v 0.545423 0.6013118 0.2581844
v 0.4272537 0.6013118 -0.937869
v 0.5 0.6013118 0.2127619
v 0.3916716 0.6013118 -0.8836851
v -0.3916716 0.6013118 -0.8836851
v -0.4272537 0.6013118 -0.937869
v -0.5 0.6013118 -0.7872381
v -0.545423 0.6013118 -0.8326616
v 0.4272537 0.6013118 0.3633929
v 0.3916716 0.6013118 0.3092079
v -0.3916712 0.6013118 0.3092079
v -0.4272537 0.6013118 0.3633929
v -0.5 0.6013118 0.2127619
v -0.545423 0.6013118 0.2581844
vt 0.2432861 0.3566895
vt 0.2432861 0.3566895
vt 0.2432861 0.3566895
vt 0.2432861 0.3566895
vt 0.2432861 0.3566895
vt 0.2432861 0.3566895
vt 0.2432861 0.3566895
vt 0.2432861 0.3566895
vt 0.2432861 0.3566895
vt 0.2432861 0.3566895
vt 0.2432861 0.3566895
vt 0.2432861 0.3566895
vt 0.2432861 0.3566895
vt 0.2432861 0.3566895
vt 0.2432861 0.3566895
vt 0.2432861 0.3566895
vt 0.2432861 0.3566895
vt 0.2432861 0.3566895
vt 0.2432861 0.3566895
vt 0.2432861 0.3566895
vt 0.2432861 0.3566895
vt 0.2432861 0.3566895
vt 0.2432861 0.3566895
vt 0.2432861 0.3566895
vt 0.2432861 0.3566895
vt 0.2432861 0.3566895
vt 0.2432861 0.3566895
vt 0.2432861 0.3566895
vt 0.2432861 0.3566895
vt 0.2432861 0.3566895
vt 0.2432861 0.3566895
vt 0.2432861 0.3566895
vt 0.2432861 0.3566895
vt 0.2432861 0.3566895
vt 0.2432861 0.3566895
vt 0.2432861 0.3566895
vt 0.2432861 0.3566895
vt 0.2432861 0.3566895
vt 0.2432861 0.3566895
vt 0.2432861 0.3566895
vt 0.2432861 0.3566895
vt 0.2432861 0.3566895
vt 0.2432861 0.3566895
vt 0.2432861 0.3566895
vt 0.2432861 0.3049316
vt 0.2432861 0.3049316
vt 0.2432861 0.3049316
vt 0.2432861 0.3049316
vt 0.2432861 0.3049316
vt 0.2432861 0.3049316
vt 0.2432861 0.3049316
vt 0.2432861 0.3049316
vt 0.2432861 0.3049316
vt 0.2432861 0.3049316
vt 0.2432861 0.3049316
vt 0.2432861 0.3049316
vt 0.2432861 0.3049316
vt 0.2432861 0.3049316
vt 0.2432861 0.3049316
vt 0.2432861 0.3049316
vt 0.2432861 0.3049316
vt 0.2432861 0.3049316
vt 0.2432861 0.3049316
vt 0.2432861 0.3049316
vt 0.2432861 0.3049316
vt 0.2432861 0.3049316
vt 0.2432861 0.3049316
vt 0.2432861 0.3049316
vt 0.2432861 0.3049316
vt 0.2432861 0.3049316
vt 0.2432861 0.3049316
vt 0.2432861 0.3049316
vt 0.2432861 0.3049316
vt 0.2432861 0.3049316
vt 0.2432861 0.3049316
vt 0.2432861 0.3049316
vt 0.2432861 0.3049316
vt 0.2432861 0.3049316
vt 0.2432861 0.3049316
vt 0.2432861 0.3049316
vt 0.2432861 0.3049316
vt 0.2432861 0.3049316
vt 0.2432861 0.3049316
vt 0.2432861 0.3049316
vt 0.2432861 0.3049316
vt 0.2432861 0.3049316
vt 0.2432861 0.3049316
vt 0.2432861 0.3049316
vt 0.2432861 0.3049316
vt 0.2432861 0.3049316
vt 0.2432861 0.3049316
vt 0.2432861 0.3049316
vt 0.2432861 0.3049316
vt 0.2432861 0.3049316
vt 0.2432861 0.3049316
vt 0.2432861 0.3049316
vt 0.2432861 0.3566895
vt 0.2432861 0.3566895
vt 0.2432861 0.3566895
vt 0.2432861 0.3566895
vt 0.2432861 0.3566895
vt 0.2432861 0.3566895
vt 0.2432861 0.3566895
vt 0.2432861 0.3566895
vt 0.2432861 0.3566895
vt 0.2432861 0.3566895
vt 0.2432861 0.3566895
vt 0.2432861 0.3566895
vt 0.1118164 0.03016663
vt 0.1118164 0.07562256
vt 0.1156006 0.08026123
vt 0.1156006 0.02552795
vt 0.1461182 0.02552795
vt 0.1461182 0.08026123
vt 0.1500244 0.03016663
vt 0.1500244 0.07562256
vt 0.2432861 0.3566895
vt 0.2432861 0.3566895
vt 0.2432861 0.3566895
vt 0.2432861 0.3566895
vt 0.2432861 0.3566895
vt 0.2432861 0.3566895
vt 0.2432861 0.3566895
vt 0.2432861 0.3566895
vt 0.2432861 0.3566895
vt 0.2432861 0.3566895
vt 0.2432861 0.3566895
vt 0.2432861 0.3566895
vt 0.2432861 0.3049316
vt 0.2432861 0.3049316
vt 0.2432861 0.3049316
vt 0.2432861 0.3049316
vt 0.2432861 0.3049316
vt 0.2432861 0.3049316
vt 0.2432861 0.3049316
vt 0.2432861 0.3049316
vt 0.2432861 0.3049316
vt 0.2432861 0.3049316
vt 0.2432861 0.3049316
vt 0.2432861 0.3049316
vt 0.2432861 0.3049316
vt 0.2432861 0.3049316
vt 0.2432861 0.3049316
vt 0.2432861 0.3049316
vt 0.2432861 0.3049316
vt 0.2432861 0.3049316
vt 0.2432861 0.3049316
vt 0.2432861 0.3049316
vt 0.2432861 0.3049316
vt 0.2432861 0.3049316
vt 0.2432861 0.3049316
vt 0.2432861 0.3049316
vt 0.2432861 0.3049316
vt 0.2432861 0.3049316
vt 0.2432861 0.3049316
vt 0.2432861 0.3049316
vt 0.2432861 0.3049316
vt 0.2432861 0.3049316
vt 0.2432861 0.3049316
vt 0.2432861 0.3049316
vt 0.2432861 0.3049316
vt 0.2432861 0.3049316
vt 0.2432861 0.3049316
vt 0.2432861 0.3049316
vt 0.2432861 0.3049316
vt 0.2432861 0.3049316
vt 0.2432861 0.3049316
vt 0.2432861 0.3049316
vt 0.2432861 0.3049316
vt 0.2432861 0.3049316
vt 0.2432861 0.3049316
vt 0.2432861 0.3049316
vt 0.2432861 0.3566895
vt 0.2432861 0.3566895
vt 0.2432861 0.3566895
vt 0.2432861 0.3566895
vt 0.2432861 0.3566895
vt 0.2432861 0.3566895
vt 0.2432861 0.3566895
vt 0.2432861 0.3566895
vt 0.2432861 0.3566895
vt 0.2432861 0.3566895
vt 0.2432861 0.3566895
vt 0.2432861 0.3566895
vt 0.2432861 0.3566895
vt 0.2432861 0.3566895
vt 0.2432861 0.3566895
vt 0.2432861 0.3566895
vt 0.2432861 0.3566895
vt 0.2432861 0.3566895
vt 0.2432861 0.3566895
vt 0.2432861 0.3566895
vt 0.2432861 0.3566895
vt 0.2432861 0.3566895
vt 0.2432861 0.3566895
vt 0.2432861 0.3566895
vt 0.2432861 0.3049316
vt 0.2432861 0.3049316
vt 0.2432861 0.3049316
vt 0.2432861 0.3049316
vt 0.2432861 0.3049316
vt 0.2432861 0.3049316
vt 0.2432861 0.3049316
vt 0.2432861 0.3049316
vt 0.2432861 0.3566895
vt 0.2432861 0.3566895
vt 0.2432861 0.3566895
vt 0.2432861 0.3566895
vt 0.2432861 0.3566895
vt 0.2432861 0.3566895
vt 0.2432861 0.3566895
vt 0.2432861 0.3566895
vt 0.2432861 0.3566895
vt 0.2432861 0.3566895
vt 0.2432861 0.3566895
vt 0.2432861 0.3566895
vt 0.2432861 0.3566895
vt 0.2432861 0.3566895
vt 0.2432861 0.3566895
vt 0.2432861 0.3566895
vt 0.2432861 0.3049316
vt 0.2432861 0.3049316
vt 0.2432861 0.3049316
vt 0.2432861 0.3049316
vt 0.2432861 0.3049316
vt 0.2432861 0.3049316
vt 0.2432861 0.3049316
vt 0.2432861 0.3049316
vt 0.2432861 0.3049316
vt 0.2432861 0.3049316
vt 0.2432861 0.3049316
vt 0.2432861 0.3049316
vt 0.2432861 0.3049316
vt 0.2432861 0.3049316
vt 0.2432861 0.3049316
vt 0.2432861 0.3049316
vt 0.2432861 0.3049316
vt 0.2432861 0.3049316
vt 0.2432861 0.3049316
vt 0.2432861 0.3049316
vt 0.2432861 0.3049316
vt 0.2432861 0.3049316
vt 0.2432861 0.3049316
vt 0.2432861 0.3049316
vt 0.2432861 0.3049316
vt 0.2432861 0.3049316
vt 0.2432861 0.3049316
vt 0.2432861 0.3049316
vt 0.2432861 0.3049316
vt 0.2432861 0.3049316
vt 0.2432861 0.3049316
vt 0.2432861 0.3049316
vt 0.2432861 0.3049316
vt 0.2432861 0.3049316
vt 0.2432861 0.3049316
vt 0.2432861 0.3049316
vt 0.2432861 0.3049316
vt 0.2432861 0.3049316
vt 0.2432861 0.3049316
vt 0.2432861 0.3049316
vt 0.2432861 0.3049316
vt 0.2432861 0.3049316
vt 0.2432861 0.3049316
vt 0.2432861 0.3049316
vt 0.2432861 0.3049316
vt 0.2432861 0.3049316
vt 0.2432861 0.3049316
vt 0.2432861 0.3049316
vn 0 0 1
vn 0 0 1
vn 0 0 1
vn 0 0 1
vn 0 0 -1
vn 0 0 -1
vn 0 0 -1
vn 0 0 -1
vn 1 0 0
vn 1 0 0
vn 1 0 0
vn 1 0 0
vn 1 0 0
vn 1 0 0
vn -1 0 0
vn -1 0 0
vn -1 0 0
vn -1 0 0
vn -1 0 0
vn -1 0 0
vn 0 0 -1
vn 0 0 -1
vn 0 0 -1
vn 0 0 -1
vn -1 0 0
vn -1 0 0
vn -1 0 0
vn -1 0 0
vn 0 0 1
vn 0 0 1
vn 0 0 1
vn 0 0 1
vn 1 0 0
vn 1 0 0
vn 1 0 0
vn 1 0 0
vn 0 -0.5141602 0.8574219
vn 0 -0.5141602 0.8574219
vn 0 -0.5141602 0.8574219
vn 0 -0.5141602 0.8574219
vn 0 0.5141602 -0.8574219
vn 0 0.5141602 -0.8574219
vn 0 0.5141602 -0.8574219
vn 0 0.5141602 -0.8574219
vn 0 0 1
vn 0 0 1
vn 0 0 1
vn 0 0 1
vn 1 0 0
vn 1 0 0
vn 1 0 0
vn 1 0 0
vn 0 0 -1
vn 0 0 -1
vn 0 0 -1
vn 0 0 -1
vn -1 0 0
vn -1 0 0
vn -1 0 0
vn -1 0 0
vn 0 0 1
vn 0 0 1
vn 0 0 1
vn 0 0 1
vn 1 0 0
vn 1 0 0
vn 1 0 0
vn 1 0 0
vn 0 0 -1
vn 0 0 -1
vn 0 0 -1
vn 0 0 -1
vn -1 0 0
vn -1 0 0
vn -1 0 0
vn -1 0 0
vn 1 0 0
vn 1 0 0
vn 1 0 0
vn 1 0 0
vn 0 0 1
vn 0 0 1
vn 0 0 1
vn 0 0 1
vn -1 0 0
vn -1 0 0
vn -1 0 0
vn -1 0 0
vn 0 0 -1
vn 0 0 -1
vn 0 0 -1
vn 0 0 -1
vn -0.6650391 0 -0.7470703
vn -0.6650391 0 -0.7470703
vn -0.6650391 0 -0.7470703
vn -0.6650391 0 -0.7470703
vn -0.6069336 0.4086914 -0.6816406
vn -0.6069336 0.4086914 -0.6816406
vn -0.6069336 0.4086914 -0.6816406
vn -0.6069336 0.4086914 -0.6816406
vn -0.6650391 0 -0.7470703
vn -0.6650391 0 -0.7470703
vn -0.6650391 0 -0.7470703
vn -0.6650391 0 -0.7470703
vn 0.6650391 0 0.7470703
vn 0.6650391 0 0.7470703
vn 0.6650391 0 0.7470703
vn 0.6650391 0 0.7470703
vn 0 1 0
vn 0 1 0
vn 0 1 0
vn 0 1 0
vn 0 1 0
vn 0 1 0
vn 0 1 0
vn 0 1 0
vn 0.6650391 0 -0.7470703
vn 0.6650391 0 -0.7470703
vn 0.6650391 0 -0.7470703
vn 0.6650391 0 -0.7470703
vn -0.6650391 0 0.7470703
vn -0.6650391 0 0.7470703
vn -0.6650391 0 0.7470703
vn -0.6650391 0 0.7470703
vn -0.6069336 -0.4086914 0.6816406
vn -0.6069336 -0.4086914 0.6816406
vn -0.6069336 -0.4086914 0.6816406
vn -0.6069336 -0.4086914 0.6816406
vn -0.6650391 0 0.7470703
vn -0.6650391 0 0.7470703
vn -0.6650391 0 0.7470703
vn -0.6650391 0 0.7470703
vn -0.6650391 0 0.7470703
vn -0.6650391 0 0.7470703
vn -0.6650391 0 0.7470703
vn -0.6650391 0 0.7470703
vn -0.6650391 0 0.7470703
vn -0.6650391 0 0.7470703
vn -0.6650391 0 0.7470703
vn -0.6650391 0 0.7470703
vn 0 -1 0
vn 0 -1 0
vn 0 -1 0
vn 0 -1 0
vn 0 -1 0
vn 0 -1 0
vn 0 -1 0
vn 0 -1 0
vn -0.6650391 0 -0.7470703
vn -0.6650391 0 -0.7470703
vn -0.6650391 0 -0.7470703
vn -0.6650391 0 -0.7470703
vn -0.6650391 0 -0.7470703
vn -0.6650391 0 -0.7470703
vn -0.6650391 0 -0.7470703
vn -0.6650391 0 -0.7470703
vn 0.6650391 0 -0.7470703
vn 0.6650391 0 -0.7470703
vn 0.6650391 0 -0.7470703
vn 0.6650391 0 -0.7470703
vn 0.6650391 0 0.7470703
vn 0.6650391 0 0.7470703
vn 0.6650391 0 0.7470703
vn 0.6650391 0 0.7470703
vn 0.6650391 0 0.7470703
vn 0.6650391 0 0.7470703
vn 0.6650391 0 0.7470703
vn 0.6650391 0 0.7470703
vn 0.6650391 0 0.7470703
vn 0.6650391 0 0.7470703
vn 0.6650391 0 0.7470703
vn 0.6650391 0 0.7470703
vn 0.6069336 -0.4086914 0.6816406
vn 0.6069336 -0.4086914 0.6816406
vn 0.6069336 -0.4086914 0.6816406
vn 0.6069336 -0.4086914 0.6816406
vn 0.6650391 0 0.7470703
vn 0.6650391 0 0.7470703
vn 0.6650391 0 0.7470703
vn 0.6650391 0 0.7470703
vn -0.6650391 0 -0.7470703
vn -0.6650391 0 -0.7470703
vn -0.6650391 0 -0.7470703
vn -0.6650391 0 -0.7470703
vn -0.6650391 0 0.7470703
vn -0.6650391 0 0.7470703
vn -0.6650391 0 0.7470703
vn -0.6650391 0 0.7470703
vn 0.6650391 0 -0.7470703
vn 0.6650391 0 -0.7470703
vn 0.6650391 0 -0.7470703
vn 0.6650391 0 -0.7470703
vn 0.6069336 0.4086914 -0.6816406
vn 0.6069336 0.4086914 -0.6816406
vn 0.6069336 0.4086914 -0.6816406
vn 0.6069336 0.4086914 -0.6816406
vn 0.6650391 0 -0.7470703
vn 0.6650391 0 -0.7470703
vn 0.6650391 0 -0.7470703
vn 0.6650391 0 -0.7470703
vn 0.6650391 0 -0.7470703
vn 0.6650391 0 -0.7470703
vn 0.6650391 0 -0.7470703
vn 0.6650391 0 -0.7470703
vn 0 1 0
vn 0 1 0
vn 0 1 0
vn 0 1 0
vn 0 1 0
vn 0 1 0
vn 0 1 0
vn 0 1 0
vn 0 1 0
vn 0 1 0
vn 0 1 0
vn 0 1 0
vn 0 1 0
vn 0 1 0
vn 0 1 0
vn 0 1 0
vn 0 1 0
vn 0 1 0
vn 0 1 0
vn 0 1 0
vn 0 1 0
vn 0 1 0
vn 0 1 0
vn 0 1 0
vn 0 1 0
vn 0 1 0
vn 0 1 0
vn 0 1 0
vn 0 1 0
vn 0 1 0
vn 0 1 0
vn 0 1 0
vn 0 -1 0
vn 0 -1 0
vn 0 -1 0
vn 0 -1 0
vn 0 -1 0
vn 0 -1 0
vn 0 -1 0
vn 0 -1 0
vn 0 -1 0
vn 0 -1 0
vn 0 -1 0
vn 0 -1 0
vn 0 -1 0
vn 0 -1 0
vn 0 -1 0
vn 0 -1 0
vn 0 1 0
vn 0 1 0
vn 0 1 0
vn 0 1 0
vn 0 1 0
vn 0 1 0
vn 0 1 0
vn 0 1 0
vn 0 1 0
vn 0 1 0
vn 0 1 0
vn 0 1 0
vn 0 1 0
vn 0 1 0
vn 0 1 0
vn 0 1 0
g SM_Prop_Vent_02_0
f 3/3/3 2/2/2 1/1/1
f 4/4/4 3/3/3 1/1/1
f 7/7/7 6/6/6 5/5/5
f 8/8/8 7/7/7 5/5/5
f 11/11/11 10/10/10 9/9/9
f 12/12/12 11/11/11 9/9/9
f 12/12/12 9/9/9 13/13/13
f 14/14/14 12/12/12 13/13/13
f 17/17/17 16/16/16 15/15/15
f 18/18/18 17/17/17 15/15/15
f 18/18/18 15/15/15 19/19/19
f 20/20/20 18/18/18 19/19/19
f 23/23/23 22/22/22 21/21/21
f 24/24/24 23/23/23 21/21/21
f 27/27/27 26/26/26 25/25/25
f 28/28/28 27/27/27 25/25/25
f 31/31/31 30/30/30 29/29/29
f 32/32/32 31/31/31 29/29/29
f 35/35/35 34/34/34 33/33/33
f 36/36/36 35/35/35 33/33/33
f 39/39/39 38/38/38 37/37/37
f 40/40/40 39/39/39 37/37/37
f 43/43/43 42/42/42 41/41/41
f 44/44/44 43/43/43 41/41/41
f 47/47/47 46/46/46 45/45/45
f 48/48/48 47/47/47 45/45/45
f 51/51/51 50/50/50 49/49/49
f 52/52/52 51/51/51 49/49/49
f 55/55/55 54/54/54 53/53/53
f 56/56/56 55/55/55 53/53/53
f 59/59/59 58/58/58 57/57/57
f 60/60/60 59/59/59 57/57/57
f 63/63/63 62/62/62 61/61/61
f 64/64/64 63/63/63 61/61/61
f 67/67/67 66/66/66 65/65/65
f 68/68/68 67/67/67 65/65/65
f 71/71/71 70/70/70 69/69/69
f 72/72/72 71/71/71 69/69/69
f 75/75/75 74/74/74 73/73/73
f 76/76/76 75/75/75 73/73/73
f 79/79/79 78/78/78 77/77/77
f 80/80/80 79/79/79 77/77/77
f 83/83/83 82/82/82 81/81/81
f 84/84/84 83/83/83 81/81/81
f 87/87/87 86/86/86 85/85/85
f 88/88/88 87/87/87 85/85/85
f 91/91/91 90/90/90 89/89/89
f 92/92/92 91/91/91 89/89/89
f 95/95/95 94/94/94 93/93/93
f 96/96/96 95/95/95 93/93/93
f 99/99/99 98/98/98 97/97/97
f 100/100/100 99/99/99 97/97/97
f 103/103/103 102/102/102 101/101/101
f 104/104/104 103/103/103 101/101/101
f 107/107/107 106/106/106 105/105/105
f 108/108/108 107/107/107 105/105/105
f 111/111/111 110/110/110 109/109/109
f 112/112/112 111/111/111 109/109/109
f 111/111/111 112/112/112 113/113/113
f 114/114/114 111/111/111 113/113/113
f 113/113/113 115/115/115 114/114/114
f 115/115/115 116/116/116 114/114/114
f 119/119/119 118/118/118 117/117/117
f 120/120/120 119/119/119 117/117/117
f 123/123/123 122/122/122 121/121/121
f 124/124/124 123/123/123 121/121/121
f 127/127/127 126/126/126 125/125/125
f 128/128/128 127/127/127 125/125/125
f 131/131/131 130/130/130 129/129/129
f 132/132/132 131/131/131 129/129/129
f 135/135/135 134/134/134 133/133/133
f 136/136/136 135/135/135 133/133/133
f 139/139/139 138/138/138 137/137/137
f 140/140/140 139/139/139 137/137/137
f 143/143/143 142/142/142 141/141/141
f 144/144/144 143/143/143 141/141/141
f 144/144/144 141/141/141 145/145/145
f 146/146/146 144/144/144 145/145/145
f 146/146/146 145/145/145 147/147/147
f 145/145/145 148/148/148 147/147/147
f 151/151/151 150/150/150 149/149/149
f 152/152/152 151/151/151 149/149/149
f 155/155/155 154/154/154 153/153/153
f 156/156/156 155/155/155 153/153/153
f 159/159/159 158/158/158 157/157/157
f 160/160/160 159/159/159 157/157/157
f 163/163/163 162/162/162 161/161/161
f 164/164/164 163/163/163 161/161/161
f 167/167/167 166/166/166 165/165/165
f 168/168/168 167/167/167 165/165/165
f 171/171/171 170/170/170 169/169/169
f 172/172/172 171/171/171 169/169/169
f 175/175/175 174/174/174 173/173/173
f 176/176/176 175/175/175 173/173/173
f 179/179/179 178/178/178 177/177/177
f 180/180/180 179/179/179 177/177/177
f 183/183/183 182/182/182 181/181/181
f 184/184/184 183/183/183 181/181/181
f 187/187/187 186/186/186 185/185/185
f 188/188/188 187/187/187 185/185/185
f 191/191/191 190/190/190 189/189/189
f 192/192/192 191/191/191 189/189/189
f 195/195/195 194/194/194 193/193/193
f 196/196/196 195/195/195 193/193/193
f 199/199/199 198/198/198 197/197/197
f 200/200/200 199/199/199 197/197/197
f 203/203/203 202/202/202 201/201/201
f 204/204/204 203/203/203 201/201/201
f 207/207/207 206/206/206 205/205/205
f 205/205/205 206/206/206 208/208/208
f 209/209/209 207/207/207 205/205/205
f 210/210/210 205/205/205 208/208/208
f 211/211/211 207/207/207 209/209/209
f 212/212/212 211/211/211 209/209/209
f 212/212/212 213/213/213 211/211/211
f 213/213/213 214/214/214 211/211/211
f 208/208/208 215/215/215 210/210/210
f 215/215/215 216/216/216 210/210/210
f 216/216/216 215/215/215 217/217/217
f 215/215/215 218/218/218 217/217/217
f 213/213/213 219/219/219 214/214/214
f 217/217/217 218/218/218 219/219/219
f 219/219/219 220/220/220 214/214/214
f 218/218/218 220/220/220 219/219/219
f 223/223/223 222/222/222 221/221/221
f 223/223/223 221/221/221 224/224/224
f 222/222/222 225/225/225 221/221/221
f 221/221/221 226/226/226 224/224/224
f 222/222/222 227/227/227 225/225/225
f 227/227/227 228/228/228 225/225/225
f 229/229/229 228/228/228 227/227/227
f 230/230/230 229/229/229 227/227/227
f 231/231/231 229/229/229 230/230/230
f 232/232/232 231/231/231 230/230/230
f 224/224/224 226/226/226 233/233/233
f 226/226/226 234/234/234 233/233/233
f 235/235/235 231/231/231 232/232/232
f 233/233/233 234/234/234 235/235/235
f 236/236/236 235/235/235 232/232/232
f 236/236/236 233/233/233 235/235/235
f 239/239/239 238/238/238 237/237/237
f 237/237/237 238/238/238 240/240/240
f 241/241/241 239/239/239 237/237/237
f 242/242/242 237/237/237 240/240/240
f 242/242/242 240/240/240 243/243/243
f 240/240/240 244/244/244 243/243/243
f 243/243/243 244/244/244 245/245/245
f 244/244/244 246/246/246 245/245/245
f 247/247/247 239/239/239 241/241/241
f 248/248/248 247/247/247 241/241/241
f 248/248/248 249/249/249 247/247/247
f 249/249/249 250/250/250 247/247/247
f 245/245/245 246/246/246 251/251/251
f 249/249/249 251/251/251 250/250/250
f 246/246/246 252/252/252 251/251/251
f 251/251/251 252/252/252 250/250/250
f 255/255/255 254/254/254 253/253/253
f 253/253/253 254/254/254 256/256/256
f 257/257/257 255/255/255 253/253/253
f 258/258/258 253/253/253 256/256/256
f 258/258/258 256/256/256 259/259/259
f 256/256/256 260/260/260 259/259/259
f 259/259/259 260/260/260 261/261/261
f 260/260/260 262/262/262 261/261/261
f 263/263/263 255/255/255 257/257/257
f 264/264/264 263/263/263 257/257/257
f 264/264/264 265/265/265 263/263/263
f 265/265/265 266/266/266 263/263/263
f 261/261/261 262/262/262 267/267/267
f 265/265/265 267/267/267 266/266/266
f 262/262/262 268/268/268 267/267/267
f 267/267/267 268/268/268 266/266/266
