g SM_Prop_Sidewalk_Panel_01
v 0.3722534 0 -0.372263
v 0.303299 0.04501697 -0.302392
v 0.04025269 0.04501697 -0.3328934
v 0.007736206 0 -0.372263
v 0.3271332 0.04501697 0.3271474
v 0.3722534 0 0.3722582
v 0.007736206 0 0.3722582
v -0.06594849 0.04501697 0.3218384
v -0.3722687 0 -0.372263
v -0.3271637 0.04501697 -0.3271427
v -0.3025665 0.04501697 0.03538418
v -0.3722687 0 0.02758121
v -0.3722687 0 0.3722582
v -0.3114929 0.04501697 0.2920084
v 0.3722534 0 0.1402874
v 0.3071747 0.04501697 0.1517782
v 0.303299 0.04501697 -0.302392
v 0.3722534 0 -0.372263
v 0.1984806 0.04501697 -0.2112894
v 0.1892509 0.05502507 -0.2014875
v -0.0005054474 0.05502507 -0.2574835
v -0.002256393 0.04501697 -0.2679749
v -0.2115116 0.04501697 -0.1987324
v -0.1983414 0.05502507 -0.1875229
v -0.2450333 0.05502507 -0.01075077
v -0.2608204 0.04501697 -0.009010315
v 0.01031494 0.04501697 0.2673025
v 0.009820938 0.05502507 0.2577982
v 0.2012386 0.05502507 0.1894712
v 0.211031 0.04501697 0.1986952
v 0.2520313 0.04501697 0.007896423
v 0.2385769 0.05502507 0.007450104
v 0.1892509 0.05502507 -0.2014875
v 0.1984806 0.04501697 -0.2112894
v 0.1504059 0.05502507 -0.1607876
v 0.1451111 0.04232407 -0.1551933
v -0.00227356 0.04232407 -0.2049084
v -0.002304077 0.05502507 -0.2103472
v -0.161499 0.05502507 -0.1512356
v -0.1559296 0.04232407 -0.1459694
v -0.1993561 0.04232407 -0.01058769
v -0.2049866 0.05502507 -0.00746727
v 0.007247925 0.05502507 0.2096958
v 0.006942749 0.04232407 0.2042685
v 0.1543274 0.04232407 0.1458454
v 0.1599579 0.05502507 0.1511087
v 0.1961975 0.05502507 0.005631447
v 0.1904602 0.04232407 0.005616188
v 0.1451111 0.04232407 -0.1551933
v 0.1504059 0.05502507 -0.1607876
v 0.1258793 0.04232407 -0.1351309
v 0.1075516 0.05811012 -0.1195755
v -0.007863998 0.05811012 -0.1692533
v -0.002429962 0.04232407 -0.1808491
v -0.1361866 0.04232407 -0.1271038
v -0.1147575 0.05811012 -0.113471
v -0.1599503 0.05811012 -0.001774788
v -0.1761532 0.04232407 -0.01117802
v 0.00560379 0.04232407 0.1802216
v 0.005098343 0.05811012 0.1679144
v 0.1173153 0.05811012 0.1096258
v 0.1339111 0.04232407 0.1269379
v 0.1672421 0.04232407 0.004771233
v 0.1540146 0.05811012 0.004487991
v 0.1075516 0.05811012 -0.1195755
v 0.1258793 0.04232407 -0.1351309
v 0.211031 0.04501697 0.1986952
v 0.2012386 0.05502507 0.1894712
v 0.2385769 0.05502507 0.007450104
v 0.2520313 0.04501697 0.007896423
v 0.3722534 0 0.3722582
v 0.3271332 0.04501697 0.3271474
v 0.3071747 0.04501697 0.1517782
v 0.3722534 0 0.1402874
v -0.2450333 0.05502507 -0.01075077
v -0.1897316 0.05502507 0.2014503
v -0.1989403 0.04501697 0.2112522
v -0.2608204 0.04501697 -0.009010315
v -0.1993561 0.04232407 -0.01058769
v -0.1467133 0.04232407 0.1550694
v -0.151947 0.05502507 0.1606607
v -0.2049866 0.05502507 -0.00746727
v -0.1599503 0.05811012 -0.001774788
v -0.1207924 0.05811012 0.1224184
v -0.1281567 0.04232407 0.1349669
v -0.1761532 0.04232407 -0.01117802
v 0.1339111 0.04232407 0.1269379
v 0.1173153 0.05811012 0.1096258
v 0.1540146 0.05811012 0.004487991
v 0.1672421 0.04232407 0.004771233
v 0.1599579 0.05502507 0.1511087
v 0.1543274 0.04232407 0.1458454
v 0.1904602 0.04232407 0.005616188
v 0.1961975 0.05502507 0.005631447
v 0.007736206 0 -0.372263
v 0.04025269 0.04501697 -0.3328934
v -0.3271637 0.04501697 -0.3271427
v -0.3722687 0 -0.372263
v -0.0005054474 0.05502507 -0.2574835
v -0.1983414 0.05502507 -0.1875229
v -0.2115116 0.04501697 -0.1987324
v -0.002256393 0.04501697 -0.2679749
v -0.00227356 0.04232407 -0.2049084
v -0.1559296 0.04232407 -0.1459694
v -0.161499 0.05502507 -0.1512356
v -0.002304077 0.05502507 -0.2103472
v -0.007863998 0.05811012 -0.1692533
v -0.1147575 0.05811012 -0.113471
v -0.1361866 0.04232407 -0.1271038
v -0.002429962 0.04232407 -0.1808491
v -0.1318984 0.05811012 -0.001576663
v -0.09479246 0.05811012 -0.09331379
v -0.006988859 0.05811012 -0.1391305
v 0.00737319 0.05811012 -0.0244357
v 0.08780567 0.05811012 -0.09833124
v 0.1259628 0.05811012 0.003566496
v 0.09582702 0.05811012 0.08991937
v 0.003662836 0.05811012 0.1377935
v -0.09974795 0.05811012 0.1004258
v -0.1281567 0.04232407 0.1349669
v -0.1207924 0.05811012 0.1224184
v 0.005098343 0.05811012 0.1679144
v 0.00560379 0.04232407 0.1802216
v -0.151947 0.05502507 0.1606607
v -0.1467133 0.04232407 0.1550694
v 0.006942749 0.04232407 0.2042685
v 0.007247925 0.05502507 0.2096958
v -0.1989403 0.04501697 0.2112522
v -0.1897316 0.05502507 0.2014503
v 0.009820938 0.05502507 0.2577982
v 0.01031494 0.04501697 0.2673025
v 0.007736206 0 0.3722582
v -0.3722687 0 0.3722582
v -0.3114929 0.04501697 0.2920084
v -0.06594849 0.04501697 0.3218384
v -0.3271637 0.04501697 -0.3271427
v -0.2115116 0.04501697 -0.1987324
v -0.2608204 0.04501697 -0.009010315
v -0.002256393 0.04501697 -0.2679749
v -0.3025665 0.04501697 0.03538418
v 0.04025269 0.04501697 -0.3328934
v 0.303299 0.04501697 -0.302392
v 0.1984806 0.04501697 -0.2112894
v 0.3071747 0.04501697 0.1517782
v 0.2520313 0.04501697 0.007896423
v 0.3271332 0.04501697 0.3271474
v 0.211031 0.04501697 0.1986952
v -0.06594849 0.04501697 0.3218384
v 0.01031494 0.04501697 0.2673025
v -0.3114929 0.04501697 0.2920084
v -0.1989403 0.04501697 0.2112522
v 0.1892509 0.05502507 -0.2014875
v 0.1504059 0.05502507 -0.1607876
v -0.002304077 0.05502507 -0.2103472
v 0.1961975 0.05502507 0.005631447
v -0.0005054474 0.05502507 -0.2574835
v 0.2385769 0.05502507 0.007450104
v 0.2012386 0.05502507 0.1894712
v 0.1599579 0.05502507 0.1511087
v 0.009820938 0.05502507 0.2577982
v 0.007247925 0.05502507 0.2096958
v -0.1983414 0.05502507 -0.1875229
v -0.161499 0.05502507 -0.1512356
v -0.1897316 0.05502507 0.2014503
v -0.151947 0.05502507 0.1606607
v -0.2049866 0.05502507 -0.00746727
v -0.2450333 0.05502507 -0.01075077
v -0.1559296 0.04232407 -0.1459694
v -0.1361866 0.04232407 -0.1271038
v -0.1761532 0.04232407 -0.01117802
v -0.002429962 0.04232407 -0.1808491
v -0.1993561 0.04232407 -0.01058769
v -0.00227356 0.04232407 -0.2049084
v 0.1451111 0.04232407 -0.1551933
v 0.1258793 0.04232407 -0.1351309
v 0.1904602 0.04232407 0.005616188
v 0.1672421 0.04232407 0.004771233
v 0.1543274 0.04232407 0.1458454
v 0.1339111 0.04232407 0.1269379
v 0.006942749 0.04232407 0.2042685
v 0.00560379 0.04232407 0.1802216
v -0.1467133 0.04232407 0.1550694
v -0.1281567 0.04232407 0.1349669
v 0.005098343 0.05811012 0.1679144
v 0.003662836 0.05811012 0.1377935
v 0.09582702 0.05811012 0.08991937
v 0.1173153 0.05811012 0.1096258
v -0.1207924 0.05811012 0.1224184
v 0.1259628 0.05811012 0.003566496
v -0.09974795 0.05811012 0.1004258
v 0.1540146 0.05811012 0.004487991
v -0.1599503 0.05811012 -0.001774788
v 0.08780567 0.05811012 -0.09833124
v -0.1318984 0.05811012 -0.001576663
v 0.1075516 0.05811012 -0.1195755
v -0.1147575 0.05811012 -0.113471
v -0.006988859 0.05811012 -0.1391305
v -0.09479246 0.05811012 -0.09331379
v -0.007863998 0.05811012 -0.1692533
vt 0.1046753 0.3293457
vt 0.1046753 0.3293457
vt 0.1046753 0.3293457
vt 0.1046753 0.3293457
vt 0.1046753 0.3293457
vt 0.1046753 0.3293457
vt 0.1046753 0.3293457
vt 0.1046753 0.3293457
vt 0.1046753 0.3293457
vt 0.1046753 0.3293457
vt 0.1046753 0.3293457
vt 0.1046753 0.3293457
vt 0.1046753 0.3293457
vt 0.1046753 0.3293457
vt 0.1046753 0.3293457
vt 0.1046753 0.3293457
vt 0.1046753 0.3293457
vt 0.1046753 0.3293457
vt 0.1202393 0.2751465
vt 0.1202393 0.2751465
vt 0.1202393 0.2751465
vt 0.1202393 0.2751465
vt 0.1202393 0.2751465
vt 0.1202393 0.2751465
vt 0.1202393 0.2751465
vt 0.1202393 0.2751465
vt 0.1202393 0.2751465
vt 0.1202393 0.2751465
vt 0.1202393 0.2751465
vt 0.1202393 0.2751465
vt 0.1202393 0.2751465
vt 0.1202393 0.2751465
vt 0.1202393 0.2751465
vt 0.1202393 0.2751465
vt 0.1202393 0.2751465
vt 0.1202393 0.2751465
vt 0.1202393 0.2751465
vt 0.1202393 0.2751465
vt 0.1202393 0.2751465
vt 0.1202393 0.2751465
vt 0.1202393 0.2751465
vt 0.1202393 0.2751465
vt 0.1202393 0.2751465
vt 0.1202393 0.2751465
vt 0.1202393 0.2751465
vt 0.1202393 0.2751465
vt 0.1202393 0.2751465
vt 0.1202393 0.2751465
vt 0.1202393 0.2751465
vt 0.1202393 0.2751465
vt 0.1202393 0.2751465
vt 0.1202393 0.2751465
vt 0.1202393 0.2751465
vt 0.1202393 0.2751465
vt 0.1202393 0.2751465
vt 0.1202393 0.2751465
vt 0.1202393 0.2751465
vt 0.1202393 0.2751465
vt 0.1202393 0.2751465
vt 0.1202393 0.2751465
vt 0.1202393 0.2751465
vt 0.1202393 0.2751465
vt 0.1202393 0.2751465
vt 0.1202393 0.2751465
vt 0.1202393 0.2751465
vt 0.1202393 0.2751465
vt 0.1202393 0.2751465
vt 0.1202393 0.2751465
vt 0.1202393 0.2751465
vt 0.1202393 0.2751465
vt 0.1046753 0.3293457
vt 0.1046753 0.3293457
vt 0.1046753 0.3293457
vt 0.1046753 0.3293457
vt 0.1202393 0.2751465
vt 0.1202393 0.2751465
vt 0.1202393 0.2751465
vt 0.1202393 0.2751465
vt 0.1202393 0.2751465
vt 0.1202393 0.2751465
vt 0.1202393 0.2751465
vt 0.1202393 0.2751465
vt 0.1202393 0.2751465
vt 0.1202393 0.2751465
vt 0.1202393 0.2751465
vt 0.1202393 0.2751465
vt 0.1202393 0.2751465
vt 0.1202393 0.2751465
vt 0.1202393 0.2751465
vt 0.1202393 0.2751465
vt 0.1202393 0.2751465
vt 0.1202393 0.2751465
vt 0.1202393 0.2751465
vt 0.1202393 0.2751465
vt 0.1046753 0.3293457
vt 0.1046753 0.3293457
vt 0.1046753 0.3293457
vt 0.1046753 0.3293457
vt 0.1202393 0.2751465
vt 0.1202393 0.2751465
vt 0.1202393 0.2751465
vt 0.1202393 0.2751465
vt 0.1202393 0.2751465
vt 0.1202393 0.2751465
vt 0.1202393 0.2751465
vt 0.1202393 0.2751465
vt 0.1202393 0.2751465
vt 0.1202393 0.2751465
vt 0.1202393 0.2751465
vt 0.1202393 0.2751465
vt 0.1236572 0.2314453
vt 0.1236572 0.2314453
vt 0.1236572 0.2314453
vt 0.1236572 0.2314453
vt 0.1236572 0.2314453
vt 0.1236572 0.2314453
vt 0.1236572 0.2314453
vt 0.1236572 0.2314453
vt 0.1236572 0.2314453
vt 0.1202393 0.2751465
vt 0.1202393 0.2751465
vt 0.1202393 0.2751465
vt 0.1202393 0.2751465
vt 0.1202393 0.2751465
vt 0.1202393 0.2751465
vt 0.1202393 0.2751465
vt 0.1202393 0.2751465
vt 0.1202393 0.2751465
vt 0.1202393 0.2751465
vt 0.1202393 0.2751465
vt 0.1202393 0.2751465
vt 0.1046753 0.3293457
vt 0.1046753 0.3293457
vt 0.1046753 0.3293457
vt 0.1046753 0.3293457
vt 0.1046753 0.3293457
vt 0.1046753 0.3293457
vt 0.1046753 0.3293457
vt 0.1046753 0.3293457
vt 0.1046753 0.3293457
vt 0.1046753 0.3293457
vt 0.1046753 0.3293457
vt 0.1046753 0.3293457
vt 0.1046753 0.3293457
vt 0.1046753 0.3293457
vt 0.1046753 0.3293457
vt 0.1046753 0.3293457
vt 0.1046753 0.3293457
vt 0.1046753 0.3293457
vt 0.1046753 0.3293457
vt 0.1046753 0.3293457
vt 0.1202393 0.2751465
vt 0.1202393 0.2751465
vt 0.1202393 0.2751465
vt 0.1202393 0.2751465
vt 0.1202393 0.2751465
vt 0.1202393 0.2751465
vt 0.1202393 0.2751465
vt 0.1202393 0.2751465
vt 0.1202393 0.2751465
vt 0.1202393 0.2751465
vt 0.1202393 0.2751465
vt 0.1202393 0.2751465
vt 0.1202393 0.2751465
vt 0.1202393 0.2751465
vt 0.1202393 0.2751465
vt 0.1202393 0.2751465
vt 0.1043701 0.01309204
vt 0.1043701 0.01309204
vt 0.1043701 0.01309204
vt 0.1043701 0.01309204
vt 0.1043701 0.01309204
vt 0.1043701 0.01309204
vt 0.1043701 0.01309204
vt 0.1043701 0.01309204
vt 0.1043701 0.01309204
vt 0.1043701 0.01309204
vt 0.1043701 0.01309204
vt 0.1043701 0.01309204
vt 0.1043701 0.01309204
vt 0.1043701 0.01309204
vt 0.1043701 0.01309204
vt 0.1043701 0.01309204
vt 0.1202393 0.2751465
vt 0.1202393 0.2751465
vt 0.1202393 0.2751465
vt 0.1202393 0.2751465
vt 0.1202393 0.2751465
vt 0.1202393 0.2751465
vt 0.1202393 0.2751465
vt 0.1202393 0.2751465
vt 0.1202393 0.2751465
vt 0.1202393 0.2751465
vt 0.1202393 0.2751465
vt 0.1202393 0.2751465
vt 0.1202393 0.2751465
vt 0.1202393 0.2751465
vt 0.1202393 0.2751465
vt 0.1202393 0.2751465
vn 0.03059387 0.7763672 -0.6293945
vn 0.03059387 0.7763672 -0.6293945
vn 0.03059387 0.7763672 -0.6293945
vn 0.03059387 0.7763672 -0.6293945
vn -0.004829407 0.7246094 0.6889648
vn -0.004829407 0.7246094 0.6889648
vn -0.004829407 0.7246094 0.6889648
vn -0.004829407 0.7246094 0.6889648
vn -0.6225586 0.7822266 0.02009583
vn -0.6225586 0.7822266 0.02009583
vn -0.597168 0.8022461 0.005809784
vn -0.597168 0.8022461 0.005809784
vn -0.5712891 0.8208008 -0.008476257
vn -0.5712891 0.8208008 -0.008476257
vn 0.5566406 0.8305664 -0.002231598
vn 0.5566406 0.8305664 -0.002231598
vn 0.5566406 0.8305664 -0.002231598
vn 0.5566406 0.8305664 -0.002231598
vn 0.1885986 0.7329102 -0.6533203
vn 0.1885986 0.7329102 -0.6533203
vn 0.1885986 0.7329102 -0.6533203
vn 0.1885986 0.7329102 -0.6533203
vn -0.5317383 0.8354492 -0.1392822
vn -0.5317383 0.8354492 -0.1392822
vn -0.5317383 0.8354492 -0.1392822
vn -0.5317383 0.8354492 -0.1392822
vn 0.2270508 0.7250977 0.6503906
vn 0.2270508 0.7250977 0.6503906
vn 0.2270508 0.7250977 0.6503906
vn 0.2270508 0.7250977 0.6503906
vn 0.6191406 0.7709961 -0.1488037
vn 0.6191406 0.7709961 -0.1488037
vn 0.6191406 0.7709961 -0.1488037
vn 0.6191406 0.7709961 -0.1488037
vn -0.2834473 0.4309082 0.8569336
vn -0.2834473 0.4309082 0.8569336
vn -0.2834473 0.4309082 0.8569336
vn -0.2834473 0.4309082 0.8569336
vn 0.8720703 0.4074707 0.2714844
vn 0.8720703 0.4074707 0.2714844
vn 0.8720703 0.4074707 0.2714844
vn 0.8720703 0.4074707 0.2714844
vn -0.3278809 0.4304199 -0.8408203
vn -0.3278809 0.4304199 -0.8408203
vn -0.3278809 0.4304199 -0.8408203
vn -0.3278809 0.4304199 -0.8408203
vn -0.8691406 0.4306641 0.2421875
vn -0.8691406 0.4306641 0.2421875
vn -0.8691406 0.4306641 0.2421875
vn -0.8691406 0.4306641 0.2421875
vn 0.248291 0.7324219 -0.6342773
vn 0.248291 0.7324219 -0.6342773
vn 0.248291 0.7324219 -0.6342773
vn 0.248291 0.7324219 -0.6342773
vn -0.5517578 0.8081055 -0.2064209
vn -0.5517578 0.8081055 -0.2064209
vn -0.5517578 0.8081055 -0.2064209
vn -0.5517578 0.8081055 -0.2064209
vn 0.2861328 0.7333984 0.6166992
vn 0.2861328 0.7333984 0.6166992
vn 0.2861328 0.7333984 0.6166992
vn 0.2861328 0.7333984 0.6166992
vn 0.6376953 0.7402344 -0.2122803
vn 0.6376953 0.7402344 -0.2122803
vn 0.6376953 0.7402344 -0.2122803
vn 0.6376953 0.7402344 -0.2122803
vn 0.6157227 0.7773438 0.1293945
vn 0.6157227 0.7773438 0.1293945
vn 0.6157227 0.7773438 0.1293945
vn 0.6157227 0.7773438 0.1293945
vn 0.6381836 0.7695313 -0.03125
vn 0.6381836 0.7695313 -0.03125
vn 0.6381836 0.7695313 -0.03125
vn 0.6381836 0.7695313 -0.03125
vn -0.5727539 0.8046875 0.1552734
vn -0.5727539 0.8046875 0.1552734
vn -0.5727539 0.8046875 0.1552734
vn -0.5727539 0.8046875 0.1552734
vn 0.8486328 0.4553223 -0.2687988
vn 0.8486328 0.4553223 -0.2687988
vn 0.8486328 0.4553223 -0.2687988
vn 0.8486328 0.4553223 -0.2687988
vn -0.7646484 0.5952148 0.246582
vn -0.7646484 0.5952148 0.246582
vn -0.7646484 0.5952148 0.246582
vn -0.7646484 0.5952148 0.246582
vn 0.6538086 0.7294922 0.201416
vn 0.6538086 0.7294922 0.201416
vn 0.6538086 0.7294922 0.201416
vn 0.6538086 0.7294922 0.201416
vn -0.8720703 0.4362793 -0.2209473
vn -0.8720703 0.4362793 -0.2209473
vn -0.8720703 0.4362793 -0.2209473
vn -0.8720703 0.4362793 -0.2209473
vn -0.005592346 0.6870117 -0.7265625
vn -0.005592346 0.6870117 -0.7265625
vn -0.005592346 0.6870117 -0.7265625
vn -0.005592346 0.6870117 -0.7265625
vn -0.2004395 0.7851563 -0.5864258
vn -0.2004395 0.7851563 -0.5864258
vn -0.2004395 0.7851563 -0.5864258
vn -0.2004395 0.7851563 -0.5864258
vn 0.3193359 0.427002 0.8461914
vn 0.3193359 0.427002 0.8461914
vn 0.3193359 0.427002 0.8461914
vn 0.3193359 0.427002 0.8461914
vn -0.3022461 0.6835938 -0.6640625
vn -0.3022461 0.6835938 -0.6640625
vn -0.3022461 0.6835938 -0.6640625
vn -0.3022461 0.6835938 -0.6640625
vn 0 1 0
vn 0 1 0
vn 0 1 0
vn 0 1 0
vn 0 1 0
vn 0 1 0
vn 0 1 0
vn 0 1 0
vn 0 1 0
vn -0.2558594 0.6318359 0.7319336
vn -0.2558594 0.6318359 0.7319336
vn -0.2558594 0.6318359 0.7319336
vn -0.2558594 0.6318359 0.7319336
vn 0.2709961 0.4267578 -0.862793
vn 0.2709961 0.4267578 -0.862793
vn 0.2709961 0.4267578 -0.862793
vn 0.2709961 0.4267578 -0.862793
vn -0.1832275 0.7226563 0.6665039
vn -0.1832275 0.7226563 0.6665039
vn -0.1832275 0.7226563 0.6665039
vn -0.1832275 0.7226563 0.6665039
vn -0.02713013 0.8217773 0.5688477
vn -0.02713013 0.8217773 0.5688477
vn -0.02713013 0.8217773 0.5688477
vn -0.02713013 0.8217773 0.5688477
vn 0 1 0
vn 0 1 0
vn 0 1 0
vn 0 1 0
vn 0 1 0
vn 0 1 0
vn 0 1 0
vn 0 1 0
vn 0 1 0
vn 0 1 0
vn 0 1 0
vn 0 1 0
vn 0 1 0
vn 0 1 0
vn 0 1 0
vn 0 1 0
vn 0 1 0
vn 0 1 0
vn 0 1 0
vn 0 1 0
vn 0 1 0
vn 0 1 0
vn 0 1 0
vn 0 1 0
vn 0 1 0
vn 0 1 0
vn 0 1 0
vn 0 1 0
vn 0 1 0
vn 0 1 0
vn 0 1 0
vn 0 1 0
vn 0 1 0
vn 0 1 0
vn 0 1 0
vn 0 1 0
vn 0 1 0
vn 0 1 0
vn 0 1 0
vn 0 1 0
vn 0 1 0
vn 0 1 0
vn 0 1 0
vn 0 1 0
vn 0 1 0
vn 0 1 0
vn 0 1 0
vn 0 1 0
vn 0 1 0
vn 0 1 0
vn 0 1 0
vn 0 1 0
vn 0 1 0
vn 0 1 0
vn 0 1 0
vn 0 1 0
vn 0 1 0
vn 0 1 0
vn 0 1 0
vn 0 1 0
vn 0 1 0
vn 0 1 0
vn 0 1 0
vn 0 1 0
g SM_Prop_Sidewalk_Panel_01_0
f 3/3/3 2/2/2 1/1/1
f 4/4/4 3/3/3 1/1/1
f 7/7/7 6/6/6 5/5/5
f 8/8/8 7/7/7 5/5/5
f 11/11/11 10/10/10 9/9/9
f 12/12/12 11/11/11 9/9/9
f 12/12/12 13/13/13 11/11/11
f 13/13/13 14/14/14 11/11/11
f 17/17/17 16/16/16 15/15/15
f 18/18/18 17/17/17 15/15/15
f 21/21/21 20/20/20 19/19/19
f 22/22/22 21/21/21 19/19/19
f 25/25/25 24/24/24 23/23/23
f 26/26/26 25/25/25 23/23/23
f 29/29/29 28/28/28 27/27/27
f 30/30/30 29/29/29 27/27/27
f 33/33/33 32/32/32 31/31/31
f 34/34/34 33/33/33 31/31/31
f 37/37/37 36/36/36 35/35/35
f 38/38/38 37/37/37 35/35/35
f 41/41/41 40/40/40 39/39/39
f 42/42/42 41/41/41 39/39/39
f 45/45/45 44/44/44 43/43/43
f 46/46/46 45/45/45 43/43/43
f 49/49/49 48/48/48 47/47/47
f 50/50/50 49/49/49 47/47/47
f 53/53/53 52/52/52 51/51/51
f 54/54/54 53/53/53 51/51/51
f 57/57/57 56/56/56 55/55/55
f 58/58/58 57/57/57 55/55/55
f 61/61/61 60/60/60 59/59/59
f 62/62/62 61/61/61 59/59/59
f 65/65/65 64/64/64 63/63/63
f 66/66/66 65/65/65 63/63/63
f 69/69/69 68/68/68 67/67/67
f 70/70/70 69/69/69 67/67/67
f 73/73/73 72/72/72 71/71/71
f 74/74/74 73/73/73 71/71/71
f 77/77/77 76/76/76 75/75/75
f 78/78/78 77/77/77 75/75/75
f 81/81/81 80/80/80 79/79/79
f 82/82/82 81/81/81 79/79/79
f 85/85/85 84/84/84 83/83/83
f 86/86/86 85/85/85 83/83/83
f 89/89/89 88/88/88 87/87/87
f 90/90/90 89/89/89 87/87/87
f 93/93/93 92/92/92 91/91/91
f 94/94/94 93/93/93 91/91/91
f 97/97/97 96/96/96 95/95/95
f 98/98/98 97/97/97 95/95/95
f 101/101/101 100/100/100 99/99/99
f 102/102/102 101/101/101 99/99/99
f 105/105/105 104/104/104 103/103/103
f 106/106/106 105/105/105 103/103/103
f 109/109/109 108/108/108 107/107/107
f 110/110/110 109/109/109 107/107/107
f 113/113/113 112/112/112 111/111/111
f 114/114/114 113/113/113 111/111/111
f 115/115/115 113/113/113 114/114/114
f 116/116/116 115/115/115 114/114/114
f 117/117/117 116/116/116 114/114/114
f 118/118/118 117/117/117 114/114/114
f 118/118/118 114/114/114 111/111/111
f 119/119/119 118/118/118 111/111/111
f 122/122/122 121/121/121 120/120/120
f 123/123/123 122/122/122 120/120/120
f 126/126/126 125/125/125 124/124/124
f 127/127/127 126/126/126 124/124/124
f 130/130/130 129/129/129 128/128/128
f 131/131/131 130/130/130 128/128/128
f 134/134/134 133/133/133 132/132/132
f 135/135/135 134/134/134 132/132/132
f 138/138/138 137/137/137 136/136/136
f 136/136/136 137/137/137 139/139/139
f 140/140/140 138/138/138 136/136/136
f 141/141/141 136/136/136 139/139/139
f 141/141/141 139/139/139 142/142/142
f 139/139/139 143/143/143 142/142/142
f 142/142/142 143/143/143 144/144/144
f 143/143/143 145/145/145 144/144/144
f 144/144/144 145/145/145 146/146/146
f 145/145/145 147/147/147 146/146/146
f 146/146/146 147/147/147 148/148/148
f 147/147/147 149/149/149 148/148/148
f 140/140/140 150/150/150 138/138/138
f 148/148/148 149/149/149 150/150/150
f 150/150/150 151/151/151 138/138/138
f 149/149/149 151/151/151 150/150/150
f 154/154/154 153/153/153 152/152/152
f 152/152/152 153/153/153 155/155/155
f 156/156/156 154/154/154 152/152/152
f 157/157/157 152/152/152 155/155/155
f 157/157/157 155/155/155 158/158/158
f 155/155/155 159/159/159 158/158/158
f 158/158/158 159/159/159 160/160/160
f 159/159/159 161/161/161 160/160/160
f 156/156/156 162/162/162 154/154/154
f 162/162/162 163/163/163 154/154/154
f 160/160/160 161/161/161 164/164/164
f 161/161/161 165/165/165 164/164/164
f 166/166/166 163/163/163 162/162/162
f 164/164/164 165/165/165 166/166/166
f 167/167/167 166/166/166 162/162/162
f 167/167/167 164/164/164 166/166/166
f 170/170/170 169/169/169 168/168/168
f 168/168/168 169/169/169 171/171/171
f 172/172/172 170/170/170 168/168/168
f 173/173/173 168/168/168 171/171/171
f 173/173/173 171/171/171 174/174/174
f 171/171/171 175/175/175 174/174/174
f 174/174/174 175/175/175 176/176/176
f 175/175/175 177/177/177 176/176/176
f 176/176/176 177/177/177 178/178/178
f 177/177/177 179/179/179 178/178/178
f 178/178/178 179/179/179 180/180/180
f 179/179/179 181/181/181 180/180/180
f 172/172/172 182/182/182 170/170/170
f 180/180/180 181/181/181 182/182/182
f 182/182/182 183/183/183 170/170/170
f 181/181/181 183/183/183 182/182/182
f 186/186/186 185/185/185 184/184/184
f 187/187/187 186/186/186 184/184/184
f 184/184/184 185/185/185 188/188/188
f 189/189/189 186/186/186 187/187/187
f 185/185/185 190/190/190 188/188/188
f 191/191/191 189/189/189 187/187/187
f 188/188/188 190/190/190 192/192/192
f 193/193/193 189/189/189 191/191/191
f 190/190/190 194/194/194 192/192/192
f 195/195/195 193/193/193 191/191/191
f 192/192/192 194/194/194 196/196/196
f 197/197/197 193/193/193 195/195/195
f 194/194/194 198/198/198 196/196/196
f 199/199/199 197/197/197 195/195/195
f 196/196/196 198/198/198 199/199/199
f 198/198/198 197/197/197 199/199/199
