g SM_Prop_CornerTable_01
v -0.800341 0.8642056 1.295805
v -0.800341 0.9078615 1.295805
v -0.800341 0.9489974 -0.6357061
v 1.351575 0.9489974 -0.526956
v -0.800341 0.8642056 -0.6357061
v 1.351575 0.8642056 -0.526956
v -0.6301529 0.9489974 -0.7837203
v -0.5441879 0.9489974 1.388404
v -0.5441879 0.8642056 1.388404
v -0.6301529 0.8642056 -0.7837203
v 1.25701 0.9489974 -0.7837203
v 1.25701 0.8642056 -0.7837203
v 0.001032638 0.8642056 -0.1323551
v 0.001032638 0.8642056 -0.002107239
v -0.133609 0.8642056 -0.002107239
v -0.1395012 0.8642056 -0.1349495
v 0 0.1562859 -0.1349499
v 0 0.1562859 0
v -0.1395012 0.1562859 0
v -0.1395012 0.1562859 -0.1349499
v 0.0943222 0.1044052 -0.2261928
v 0.0943222 0.1044052 0.09124374
v -0.2338241 0.1044052 0.09124374
v -0.2338241 0.1044052 -0.2261928
v 0.0943222 2.980232E-08 -0.2261928
v 0.0943222 2.980232E-08 0.09124374
v -0.2338241 2.980232E-08 0.09124374
v -0.2338241 2.980232E-08 -0.2261928
v 1.156567 0.9245715 -0.7837203
v 1.156567 0.8886314 -0.7837203
v -0.5297111 0.8886314 -0.7837203
v -0.5297111 0.9245715 -0.7837203
v -0.800341 0.8886314 -0.5329039
v -0.800341 0.8886314 1.193002
v -0.800341 0.9245715 1.193002
v -0.800341 0.9245715 -0.5329039
v 1.189539 0.9489974 -0.7040808
v -0.5626831 0.9489974 -0.7040808
v -0.5522857 0.9489974 1.290502
v -0.7207016 0.9489974 1.226749
v -0.7207016 0.9489974 -0.5666502
v 1.252618 0.9489974 -0.5339994
v 1.142052 0.9153656 -0.6480269
v -0.5151939 0.9153656 -0.6480269
v -0.5494041 0.9153656 1.212916
v -0.6646476 0.9153656 1.178146
v -0.6646476 0.9153656 -0.5180464
v 1.174386 0.9153656 -0.5302778
v -0.4964249 0.9245715 1.340148
v -0.4964249 0.8886314 1.340148
v 1.303812 0.8886314 -0.4786989
v 1.303812 0.9245715 -0.4786989
v -0.7207016 0.9489974 0.9685642
v -0.7207016 0.9489974 0.5951241
v -0.7683029 0.9489974 0.7298706
v -0.6862693 0.9283385 0.7621307
v 0.7482575 0.9489974 -0.02416191
v 1.038784 0.9489974 -0.3178434
v 0.9268978 0.9489974 -0.1365459
v 0.8628456 0.933296 -0.1751778
v -0.7144893 0.9489974 1.326841
v -0.800341 0.9489974 1.233083
v -0.800341 0.8642056 1.295805
v -0.5441879 0.8642056 1.388404
v -0.800341 0.8642056 -0.6357061
v -0.6301529 0.8642056 -0.7837203
v 1.351575 0.8642056 -0.526956
v 1.25701 0.8642056 -0.7837203
v 0.001032638 0.8642056 -0.1323551
v 0.001032638 0.8642056 -0.002107239
v 0.001032638 0.8642056 -0.002107239
v 0 0.1562859 0
v -0.133609 0.8642056 -0.002107239
v -0.133609 0.8642056 -0.002107239
v -0.1395012 0.1562859 0
v -0.1395012 0.8642056 -0.1349495
v -0.1395012 0.8642056 -0.1349495
v -0.1395012 0.1562859 -0.1349499
v 0 0.1562859 -0.1349499
v 0.001032638 0.8642056 -0.1323551
v 0 0.1562859 -0.1349499
v 0 0.1562859 0
v 0 0.1562859 0
v 0.0943222 0.1044052 0.09124374
v -0.1395012 0.1562859 0
v -0.1395012 0.1562859 0
v -0.2338241 0.1044052 0.09124374
v -0.1395012 0.1562859 -0.1349499
v -0.1395012 0.1562859 -0.1349499
v -0.2338241 0.1044052 -0.2261928
v 0.0943222 0.1044052 -0.2261928
v 0 0.1562859 -0.1349499
v 0.0943222 0.1044052 -0.2261928
v 0.0943222 2.980232E-08 -0.2261928
v 0.0943222 2.980232E-08 0.09124374
v 0.0943222 0.1044052 0.09124374
v 0.0943222 0.1044052 0.09124374
v 0.0943222 2.980232E-08 0.09124374
v -0.2338241 2.980232E-08 0.09124374
v -0.2338241 0.1044052 0.09124374
v -0.2338241 0.1044052 0.09124374
v -0.2338241 2.980232E-08 0.09124374
v -0.2338241 2.980232E-08 -0.2261928
v -0.2338241 0.1044052 -0.2261928
v -0.2338241 0.1044052 -0.2261928
v -0.2338241 2.980232E-08 -0.2261928
v 0.0943222 2.980232E-08 -0.2261928
v 0.0943222 0.1044052 -0.2261928
v 1.25701 0.9489974 -0.7837203
v 1.156567 0.9245715 -0.7837203
v 1.156567 0.8886314 -0.7837203
v 1.25701 0.8642056 -0.7837203
v -0.5297111 0.8886314 -0.7837203
v -0.6301529 0.8642056 -0.7837203
v -0.5297111 0.9245715 -0.7837203
v -0.6301529 0.9489974 -0.7837203
v -0.800341 0.8642056 -0.6357061
v -0.800341 0.8886314 -0.5329039
v -0.800341 0.8886314 1.193002
v -0.800341 0.8642056 1.295805
v -0.800341 0.9078615 1.295805
v -0.800341 0.9245715 1.193002
v -0.800341 0.9489974 -0.6357061
v -0.800341 0.9245715 -0.5329039
v 1.25701 0.9489974 -0.7837203
v -0.6301529 0.9489974 -0.7837203
v 1.351575 0.9489974 -0.526956
v -0.5441879 0.9489974 1.388404
v -0.800341 0.9078615 1.295805
v -0.800341 0.9489974 1.233083
v -0.7144893 0.9489974 1.326841
v -0.800341 0.9489974 -0.6357061
v -0.800341 0.9489974 1.233083
v 1.189539 0.9489974 -0.7040808
v 1.142052 0.9153656 -0.6480269
v -0.5151939 0.9153656 -0.6480269
v -0.5626831 0.9489974 -0.7040808
v 1.252618 0.9489974 -0.5339994
v -0.6646476 0.9153656 1.178146
v -0.5626831 0.9489974 -0.7040808
v -0.5151939 0.9153656 -0.6480269
v -0.6646476 0.9153656 -0.5180464
v -0.7207016 0.9489974 -0.5666502
v -0.6646476 0.9153656 -0.5180464
v -0.6646476 0.9153656 1.178146
v 1.252618 0.9489974 -0.5339994
v 1.174386 0.9153656 -0.5302778
v 1.142052 0.9153656 -0.6480269
v 1.189539 0.9489974 -0.7040808
v -0.5441879 0.9489974 1.388404
v -0.4964249 0.9245715 1.340148
v -0.4964249 0.8886314 1.340148
v -0.5441879 0.8642056 1.388404
v 1.303812 0.8886314 -0.4786989
v 1.351575 0.8642056 -0.526956
v 1.303812 0.9245715 -0.4786989
v 1.351575 0.9489974 -0.526956
v -0.5494041 0.9153656 1.212916
v 1.174386 0.9153656 -0.5302778
v -0.6862693 0.9283385 0.7621307
v -0.7683029 0.9489974 0.7298706
v -0.6862693 0.9283385 0.7621307
v -0.7683029 0.9489974 0.7298706
v 0.8628456 0.933296 -0.1751778
v 1.038784 0.9489974 -0.3178434
v 0.9268978 0.9489974 -0.1365459
v 0.8628456 0.933296 -0.1751778
v 0.9268978 0.9489974 -0.1365459
v -0.7207016 0.9489974 1.226749
v -0.5522857 0.9489974 1.290502
v -0.7144893 0.9489974 1.326841
v -0.5494041 0.9153656 1.212916
v 0.7482575 0.9489974 -0.02416191
v -0.5522857 0.9489974 1.290502
v 1.038784 0.9489974 -0.3178434
v 0.7482575 0.9489974 -0.02416191
v -0.7207016 0.9489974 0.9685642
v -0.7207016 0.9489974 0.5951241
v -0.7207016 0.9489974 -0.5666502
v -0.7207016 0.9489974 0.5951241
v -0.7207016 0.9489974 1.226749
v -0.7207016 0.9489974 0.9685642
vt 0.2457275 0.3793945
vt 0.2457275 0.3793945
vt 0.2457275 0.3793945
vt 0.2457275 0.3793945
vt 0.2457275 0.3793945
vt 0.2457275 0.3793945
vt 0.2457275 0.3793945
vt 0.2457275 0.3793945
vt 0.2457275 0.3793945
vt 0.2457275 0.3793945
vt 0.2457275 0.3793945
vt 0.2457275 0.3793945
vt 0.2457275 0.3793945
vt 0.2457275 0.3793945
vt 0.2457275 0.3793945
vt 0.2457275 0.3793945
vt 0.2457275 0.3061523
vt 0.2457275 0.3061523
vt 0.2457275 0.3061523
vt 0.2457275 0.3061523
vt 0.2457275 0.3061523
vt 0.2457275 0.3061523
vt 0.2457275 0.3061523
vt 0.2457275 0.3061523
vt 0.2457275 0.3061523
vt 0.2457275 0.3061523
vt 0.2457275 0.3061523
vt 0.2457275 0.3061523
vt 0.4555664 0.02745056
vt 0.4555664 0.02745056
vt 0.4555664 0.02745056
vt 0.4555664 0.02745056
vt 0.4555664 0.02745056
vt 0.4555664 0.02745056
vt 0.4555664 0.02745056
vt 0.4555664 0.02745056
vt 0.2457275 0.3793945
vt 0.2457275 0.3793945
vt 0.2457275 0.3793945
vt 0.2457275 0.3793945
vt 0.2457275 0.3793945
vt 0.2457275 0.3793945
vt 0.2457275 0.3549805
vt 0.2457275 0.3549805
vt 0.2457275 0.3793945
vt 0.2457275 0.3549805
vt 0.2457275 0.3549805
vt 0.2457275 0.3793945
vt 0.4555664 0.02745056
vt 0.4555664 0.02745056
vt 0.4555664 0.02745056
vt 0.4555664 0.02745056
vt 0.2457275 0.3793945
vt 0.2457275 0.3793945
vt 0.2457275 0.3793945
vt 0.2457275 0.3793945
vt 0.2457275 0.3793945
vt 0.2457275 0.3793945
vt 0.2457275 0.3793945
vt 0.2457275 0.3793945
vt 0.2457275 0.3793945
vt 0.2457275 0.3793945
vt 0.2457275 0.3793945
vt 0.2457275 0.3793945
vt 0.2457275 0.3793945
vt 0.2457275 0.3793945
vt 0.2457275 0.3793945
vt 0.2457275 0.3793945
vt 0.2457275 0.3061523
vt 0.2457275 0.3061523
vt 0.2457275 0.3061523
vt 0.2457275 0.3061523
vt 0.2457275 0.3061523
vt 0.2457275 0.3061523
vt 0.2457275 0.3061523
vt 0.2457275 0.3061523
vt 0.2457275 0.3061523
vt 0.2457275 0.3061523
vt 0.2457275 0.3061523
vt 0.2457275 0.3061523
vt 0.2457275 0.3061523
vt 0.2457275 0.3061523
vt 0.2457275 0.3061523
vt 0.2457275 0.3061523
vt 0.2457275 0.3061523
vt 0.2457275 0.3061523
vt 0.2457275 0.3061523
vt 0.2457275 0.3061523
vt 0.2457275 0.3061523
vt 0.2457275 0.3061523
vt 0.2457275 0.3061523
vt 0.2457275 0.3061523
vt 0.2457275 0.3061523
vt 0.2457275 0.3061523
vt 0.2457275 0.3061523
vt 0.2457275 0.3061523
vt 0.2457275 0.3061523
vt 0.2457275 0.3061523
vt 0.2457275 0.3061523
vt 0.2457275 0.3061523
vt 0.2457275 0.3061523
vt 0.2457275 0.3061523
vt 0.2457275 0.3061523
vt 0.2457275 0.3061523
vt 0.2457275 0.3061523
vt 0.2457275 0.3061523
vt 0.2457275 0.3061523
vt 0.2457275 0.3061523
vt 0.2457275 0.3793945
vt 0.2457275 0.3793945
vt 0.2457275 0.3793945
vt 0.2457275 0.3793945
vt 0.2457275 0.3793945
vt 0.2457275 0.3793945
vt 0.2457275 0.3793945
vt 0.2457275 0.3793945
vt 0.2457275 0.3793945
vt 0.2457275 0.3793945
vt 0.2457275 0.3793945
vt 0.2457275 0.3793945
vt 0.2457275 0.3793945
vt 0.2457275 0.3793945
vt 0.2457275 0.3793945
vt 0.2457275 0.3793945
vt 0.2457275 0.3793945
vt 0.2457275 0.3793945
vt 0.2457275 0.3793945
vt 0.2457275 0.3793945
vt 0.2457275 0.3793945
vt 0.2457275 0.3793945
vt 0.2457275 0.3793945
vt 0.2457275 0.3793945
vt 0.2457275 0.3793945
vt 0.2457275 0.3793945
vt 0.2457275 0.3793945
vt 0.2457275 0.3793945
vt 0.2457275 0.3793945
vt 0.2457275 0.3793945
vt 0.2457275 0.3793945
vt 0.2457275 0.3793945
vt 0.2457275 0.3793945
vt 0.2457275 0.3793945
vt 0.2457275 0.3793945
vt 0.2457275 0.3793945
vt 0.2457275 0.3793945
vt 0.2457275 0.3793945
vt 0.2457275 0.3793945
vt 0.2457275 0.3793945
vt 0.2457275 0.3793945
vt 0.2457275 0.3793945
vt 0.2457275 0.3793945
vt 0.2457275 0.3793945
vt 0.2457275 0.3793945
vt 0.2457275 0.3793945
vt 0.2457275 0.3793945
vt 0.2457275 0.3793945
vt 0.2457275 0.3793945
vt 0.2457275 0.3549805
vt 0.2457275 0.3549805
vt 0.2457275 0.3793945
vt 0.2457275 0.3793945
vt 0.2457275 0.3793945
vt 0.2457275 0.3793945
vt 0.2457275 0.3793945
vt 0.2457275 0.3793945
vt 0.2457275 0.3793945
vt 0.2457275 0.3793945
vt 0.2457275 0.3793945
vt 0.2457275 0.3793945
vt 0.2457275 0.3793945
vt 0.2457275 0.3793945
vt 0.2457275 0.3793945
vt 0.2457275 0.3793945
vt 0.2457275 0.3793945
vt 0.2457275 0.3793945
vt 0.2457275 0.3793945
vt 0.2457275 0.3793945
vt 0.2457275 0.3793945
vt 0.2457275 0.3793945
vt 0.2457275 0.3793945
vt 0.2457275 0.3793945
vt 0.2457275 0.3793945
vn -0.3400879 0 0.9404297
vn -0.3400879 0 0.9404297
vn -0.65625 0 -0.7543945
vn 0.9384766 0 -0.3457031
vn 0 -1 0
vn 0.9384766 0 -0.3457031
vn -0.65625 0 -0.7543945
vn -0.3400879 0 0.9404297
vn -0.3400879 0 0.9404297
vn 0 -1 0
vn 0.9384766 0 -0.3457031
vn 0.9384766 0 -0.3457031
vn 0 -1 0
vn 0 -1 0
vn 0 -1 0
vn 0 -1 0
vn 1 -0.001459122 0
vn 1 -0.001459122 0
vn 0 0.002977371 1
vn -0.9995117 0.004192352 0.02200317
vn 0.4819336 0.8759766 0
vn 0.4819336 0.8759766 0
vn 0 0.8691406 0.4943848
vn -0.4819336 0.8759766 0
vn 0 -1 0
vn 0 -1 0
vn 0 -1 0
vn 0 -1 0
vn 0 0 -1
vn 0 0 -1
vn 0 0 -1
vn 0 0 -1
vn -1 0 0
vn -1 0 0
vn -1 0 0
vn -1 0 0
vn 0 1 0
vn 0 1 0
vn 0.1433105 0.8994141 -0.4125977
vn 0.1433105 0.8994141 -0.4125977
vn 0 1 0
vn 0 1 0
vn 0 1 0
vn 0 1 0
vn 0.1433105 0.8994141 -0.4125977
vn 0 1 0
vn 0 1 0
vn -0.3813477 0.84375 -0.3771973
vn 0.7109375 5.066395E-06 0.7036133
vn 0.7109375 -5.066395E-06 0.7036133
vn 0.7109375 -5.066395E-06 0.7036133
vn 0.7109375 5.066395E-06 0.7036133
vn 0.2631836 0.9633789 -0.05249023
vn 0.215332 0.9736328 0.0760498
vn 0 1 0
vn 0.5146484 0.8574219 0
vn -0.1218262 0.9736328 -0.1936035
vn -0.3808594 0.8442383 -0.376709
vn 0 1 0
vn -0.3818359 0.84375 -0.3776855
vn -0.3400879 0 0.9404297
vn -1 0 0
vn 0 -1 0
vn 0 -1 0
vn -0.65625 0 -0.7543945
vn -0.65625 0 -0.7543945
vn 0 -1 0
vn 0 -1 0
vn 1 -0.001459122 0
vn 1 -0.001459122 0
vn 0 0.002977371 1
vn 0 0.002977371 1
vn 0 0.002977371 1
vn -0.9995117 0.004192352 0.02200317
vn -0.9995117 0.004192352 0.02200317
vn -0.9995117 0.004192352 0.02200317
vn 0.009262085 0.001826286 -1
vn 0.009262085 0.001826286 -1
vn 0.009262085 0.001826286 -1
vn 0.009262085 0.001826286 -1
vn 0.4819336 0.8759766 0
vn 0.4819336 0.8759766 0
vn 0 0.8691406 0.4943848
vn 0 0.8691406 0.4943848
vn 0 0.8691406 0.4943848
vn -0.4819336 0.8759766 0
vn -0.4819336 0.8759766 0
vn -0.4819336 0.8759766 0
vn 0 0.8691406 -0.4943848
vn 0 0.8691406 -0.4943848
vn 0 0.8691406 -0.4943848
vn 0 0.8691406 -0.4943848
vn 1 0 0
vn 1 0 0
vn 1 0 0
vn 1 0 0
vn 0 0 1
vn 0 0 1
vn 0 0 1
vn 0 0 1
vn -1 0 0
vn -1 0 0
vn -1 0 0
vn -1 0 0
vn 0 0 -1
vn 0 0 -1
vn 0 0 -1
vn 0 0 -1
vn 0 0 -1
vn 0 0 -1
vn 0 0 -1
vn 0 0 -1
vn 0 0 -1
vn 0 0 -1
vn 0 0 -1
vn 0 0 -1
vn -1 0 0
vn -1 0 0
vn -1 0 0
vn -1 0 0
vn -1 0 0
vn -1 0 0
vn -1 0 0
vn -1 0 0
vn 0 1 0
vn 0 1 0
vn 0 1 0
vn 0 1 0
vn -0.5136719 0.7172852 0.470459
vn -0.5136719 0.7172852 0.470459
vn -0.5136719 0.7172852 0.470459
vn 0 1 0
vn 0 1 0
vn 0 0.8574219 0.5146484
vn 0 0.8574219 0.5146484
vn 0 0.8574219 0.5146484
vn 0 0.8574219 0.5146484
vn -0.3808594 0.8442383 -0.376709
vn 0.1433105 0.8994141 -0.4125977
vn 0.2731934 0.9091797 0.314209
vn 0.2731934 0.9091797 0.314209
vn 0.2731934 0.9091797 0.314209
vn 0.2731934 0.9091797 0.314209
vn 0.5146484 0.8574219 0
vn 0.5146484 0.8574219 0
vn -0.4155273 0.8989258 0.1376953
vn -0.4155273 0.8989258 0.1376953
vn -0.4155273 0.8989258 0.1376953
vn -0.4155273 0.8989258 0.1376953
vn 0.7109375 7.629395E-06 0.7036133
vn 0.7109375 5.066395E-06 0.7036133
vn 0.7109375 -5.066395E-06 0.7036133
vn 0.7109375 -7.629395E-06 0.7036133
vn 0.7109375 -5.066395E-06 0.7036133
vn 0.7109375 -7.629395E-06 0.7036133
vn 0.7109375 5.066395E-06 0.7036133
vn 0.7109375 7.629395E-06 0.7036133
vn 0 1 0
vn 0 1 0
vn 0.2631836 0.9633789 -0.05249023
vn 0.2631836 0.9633789 -0.05249023
vn 0.215332 0.9736328 0.0760498
vn 0.215332 0.9736328 0.0760498
vn -0.1748047 0.9785156 -0.1079102
vn -0.1748047 0.9785156 -0.1079102
vn -0.1748047 0.9785156 -0.1079102
vn -0.1218262 0.9736328 -0.1936035
vn -0.1218262 0.9736328 -0.1936035
vn 0 1 0
vn 0 1 0
vn 0 1 0
vn -0.3823242 0.8432617 -0.3781738
vn -0.3828125 0.8427734 -0.378418
vn -0.3828125 0.8427734 -0.378418
vn 0 1 0
vn 0 1 0
vn 0 1 0
vn 0 1 0
vn 0.5146484 0.8574219 0
vn 0.5146484 0.8574219 0
vn 0.5146484 0.8574219 0
vn 0.5146484 0.8574219 0
g SM_Prop_CornerTable_01_0
f 131/131/131 130/130/130 129/129/129
f 161/161/161 53/53/53 160/160/160
f 163/163/163 162/162/162 54/54/54
f 166/166/166 165/165/165 164/164/164
f 168/168/168 167/167/167 57/57/57
f 44/44/44 47/47/47 46/46/46
f 43/43/43 44/44/44 46/46/46
f 43/43/43 46/46/46 158/158/158
f 159/159/159 43/43/43 158/158/158
f 31/31/31 32/32/32 29/29/29
f 30/30/30 31/31/31 29/29/29
f 27/27/27 28/28/28 25/25/25
f 26/26/26 27/27/27 25/25/25
f 35/35/35 36/36/36 33/33/33
f 34/34/34 35/35/35 33/33/33
f 9/9/9 8/8/8 61/61/61
f 61/61/61 1/1/1 9/9/9
f 61/61/61 2/2/2 1/1/1
f 64/64/64 63/63/63 5/5/5
f 10/10/10 64/64/64 5/5/5
f 10/10/10 16/16/16 64/64/64
f 16/16/16 15/15/15 64/64/64
f 64/64/64 15/15/15 14/14/14
f 67/67/67 64/64/64 14/14/14
f 13/13/13 16/16/16 10/10/10
f 67/67/67 14/14/14 13/13/13
f 68/68/68 13/13/13 10/10/10
f 13/13/13 68/68/68 67/67/67
f 66/66/66 65/65/65 3/3/3
f 7/7/7 66/66/66 3/3/3
f 4/4/4 6/6/6 12/12/12
f 11/11/11 4/4/4 12/12/12
f 18/18/18 17/17/17 69/69/69
f 70/70/70 18/18/18 69/69/69
f 19/19/19 72/72/72 71/71/71
f 73/73/73 19/19/19 71/71/71
f 20/20/20 75/75/75 74/74/74
f 76/76/76 20/20/20 74/74/74
f 79/79/79 78/78/78 77/77/77
f 80/80/80 79/79/79 77/77/77
f 22/22/22 21/21/21 81/81/81
f 82/82/82 22/22/22 81/81/81
f 23/23/23 84/84/84 83/83/83
f 85/85/85 23/23/23 83/83/83
f 24/24/24 87/87/87 86/86/86
f 88/88/88 24/24/24 86/86/86
f 91/91/91 90/90/90 89/89/89
f 92/92/92 91/91/91 89/89/89
f 95/95/95 94/94/94 93/93/93
f 96/96/96 95/95/95 93/93/93
f 99/99/99 98/98/98 97/97/97
f 100/100/100 99/99/99 97/97/97
f 103/103/103 102/102/102 101/101/101
f 104/104/104 103/103/103 101/101/101
f 107/107/107 106/106/106 105/105/105
f 108/108/108 107/107/107 105/105/105
f 51/51/51 52/52/52 49/49/49
f 50/50/50 51/51/51 49/49/49
f 136/136/136 135/135/135 134/134/134
f 137/137/137 136/136/136 134/134/134
f 58/58/58 138/138/138 48/48/48
f 60/60/60 58/58/58 48/48/48
f 60/60/60 48/48/48 172/172/172
f 173/173/173 60/60/60 172/172/172
f 174/174/174 173/173/173 172/172/172
f 45/45/45 139/139/139 40/40/40
f 39/39/39 45/45/45 40/40/40
f 142/142/142 141/141/141 140/140/140
f 143/143/143 142/142/142 140/140/140
f 148/148/148 147/147/147 146/146/146
f 149/149/149 148/148/148 146/146/146
f 42/42/42 175/175/175 59/59/59
f 127/127/127 42/42/42 59/59/59
f 37/37/37 42/42/42 127/127/127
f 125/125/125 37/37/37 127/127/127
f 38/38/38 37/37/37 125/125/125
f 126/126/126 38/38/38 125/125/125
f 41/41/41 38/38/38 126/126/126
f 132/132/132 41/41/41 126/126/126
f 178/178/178 41/41/41 132/132/132
f 55/55/55 178/178/178 132/132/132
f 133/133/133 55/55/55 132/132/132
f 128/128/128 127/127/127 59/59/59
f 133/133/133 169/169/169 55/55/55
f 169/169/169 177/177/177 55/55/55
f 171/171/171 169/169/169 133/133/133
f 171/171/171 128/128/128 169/169/169
f 128/128/128 170/170/170 169/169/169
f 128/128/128 59/59/59 170/170/170
f 59/59/59 176/176/176 170/170/170
f 180/180/180 56/56/56 179/179/179
f 56/56/56 144/144/144 179/179/179
f 56/56/56 145/145/145 144/144/144
f 56/56/56 182/182/182 145/145/145
f 182/182/182 181/181/181 145/145/145
f 120/120/120 119/119/119 117/117/117
f 119/119/119 120/120/120 121/121/121
f 119/119/119 118/118/118 117/117/117
f 121/121/121 122/122/122 119/119/119
f 117/117/117 118/118/118 123/123/123
f 121/121/121 62/62/62 122/122/122
f 118/118/118 124/124/124 123/123/123
f 124/124/124 122/122/122 62/62/62
f 123/123/123 124/124/124 62/62/62
f 111/111/111 110/110/110 109/109/109
f 112/112/112 111/111/111 109/109/109
f 109/109/109 110/110/110 116/116/116
f 113/113/113 111/111/111 112/112/112
f 110/110/110 115/115/115 116/116/116
f 114/114/114 113/113/113 112/112/112
f 116/116/116 115/115/115 114/114/114
f 115/115/115 113/113/113 114/114/114
f 152/152/152 151/151/151 150/150/150
f 153/153/153 152/152/152 150/150/150
f 150/150/150 151/151/151 157/157/157
f 154/154/154 152/152/152 153/153/153
f 151/151/151 156/156/156 157/157/157
f 155/155/155 154/154/154 153/153/153
f 157/157/157 156/156/156 155/155/155
f 156/156/156 154/154/154 155/155/155
