g SM_Prop_Cables_02
v 3.656343 -0.3956237 0.003044129
v 4.551803 -0.3857114 0.03151321
v 4.551803 -0.3857114 0.003265381
v 3.656343 -0.3956237 0.03173447
v 2.760882 -0.3857114 0.03151321
v 2.760882 -0.3857114 0.003265381
v 4.554264 -0.3596554 0.003707886
v 4.554264 -0.3596554 0.03107071
v 3.656343 -0.3696399 0.03083801
v 3.656343 -0.3696399 0.003940582
v 2.758422 -0.3596554 0.003707886
v 2.758422 -0.3596554 0.03107071
v 5.602313 -0.3027432 0.03184509
v 6.54023 -0.1483126 0.03081131
v 6.531128 -0.1757622 0.03176498
v 5.607659 -0.2764461 0.0307045
v 4.551803 -0.3857114 0.03151321
v 4.554264 -0.3596554 0.03107071
v 3.656343 -0.3956237 0.03173447
v 3.656343 -0.3696399 0.03083801
v 2.758422 -0.3596554 0.03107071
v 2.760882 -0.3857114 0.03151321
v 1.705027 -0.2764461 0.0307045
v 1.710373 -0.3027432 0.03184509
v 0.772455 -0.1483126 0.03081131
v 0.7815569 -0.1757622 0.03176498
v 5.602313 -0.3027432 0.002933502
v 5.602313 -0.3027432 0.03184509
v 6.531128 -0.1757622 0.03176498
v 6.531128 -0.1757622 0.003009796
v 5.607659 -0.2764461 0.004074097
v 6.531128 -0.1757622 0.003009796
v 6.540231 -0.1483126 0.003967285
v 5.602313 -0.3027432 0.002933502
v 4.554264 -0.3596554 0.003707886
v 4.551803 -0.3857114 0.003265381
v 3.656343 -0.3696399 0.003940582
v 3.656343 -0.3956237 0.003044129
v 2.760882 -0.3857114 0.003265381
v 2.758422 -0.3596554 0.003707886
v 1.710373 -0.3027432 0.002933502
v 1.705027 -0.2764461 0.004074097
v 0.7815569 -0.1757622 0.003009796
v 0.7724541 -0.1483126 0.003967285
v 6.540231 -0.1483126 0.003967285
v 6.54023 -0.1483126 0.03081131
v 5.607659 -0.2764461 0.0307045
v 5.607659 -0.2764461 0.004074097
v 4.551803 -0.3857114 0.003265381
v 4.551803 -0.3857114 0.03151321
v 5.602313 -0.3027432 0.03184509
v 5.602313 -0.3027432 0.002933502
v 5.607659 -0.2764461 0.004074097
v 5.607659 -0.2764461 0.0307045
v 4.554264 -0.3596554 0.03107071
v 4.554264 -0.3596554 0.003707886
v 6.531128 -0.1757622 0.03176498
v 6.54023 -0.1483126 0.03081131
v 7.312685 0 0.03477859
v 7.301847 -0.02778053 0.02872086
v 6.531128 -0.1757622 0.003009796
v 6.531128 -0.1757622 0.03176498
v 7.301847 -0.02778053 0.02872086
v 7.301847 -0.02778053 0.00605774
v 6.540231 -0.1483126 0.003967285
v 6.531128 -0.1757622 0.003009796
v 7.301847 -0.02778053 0.00605774
v 7.312685 0 -5.551115E-20
v 7.312685 0 0.03477859
v 6.54023 -0.1483126 0.03081131
v 6.540231 -0.1483126 0.003967285
v 7.312685 0 -5.551115E-20
v 1.710373 -0.3027432 0.002933502
v 0.7815569 -0.1757622 0.003009796
v 0.7815569 -0.1757622 0.03176498
v 1.710373 -0.3027432 0.03184509
v 0.7724541 -0.1483126 0.003967285
v 1.705027 -0.2764461 0.004074097
v 1.705027 -0.2764461 0.0307045
v 0.772455 -0.1483126 0.03081131
v 2.760882 -0.3857114 0.003265381
v 1.710373 -0.3027432 0.002933502
v 1.710373 -0.3027432 0.03184509
v 2.760882 -0.3857114 0.03151321
v 1.705027 -0.2764461 0.004074097
v 2.758422 -0.3596554 0.003707886
v 2.758422 -0.3596554 0.03107071
v 1.705027 -0.2764461 0.0307045
v 0.7815569 -0.1757622 0.03176498
v 0.01083851 -0.02778053 0.02872086
v 0 0 0.03477859
v 0.772455 -0.1483126 0.03081131
v 0.7815569 -0.1757622 0.003009796
v 0.01083851 -0.02778053 0.00605774
v 0.01083851 -0.02778053 0.02872086
v 0.7815569 -0.1757622 0.03176498
v 0.7724541 -0.1483126 0.003967285
v 0 0 -5.551115E-20
v 0.01083851 -0.02778053 0.00605774
v 0.7815569 -0.1757622 0.003009796
v 0 0 0.03477859
v 0 0 -5.551115E-20
v 0.7724541 -0.1483126 0.003967285
v 0.772455 -0.1483126 0.03081131
vt 0.2362077 0.253579
vt 0.2362076 0.253579
vt 0.2362077 0.253579
vt 0.2362076 0.253579
vt 0.2362076 0.253579
vt 0.2362077 0.253579
vt 0.2362077 0.253579
vt 0.2362076 0.253579
vt 0.2362076 0.253579
vt 0.2362077 0.253579
vt 0.2362077 0.253579
vt 0.2362076 0.253579
vt 0.2362076 0.253579
vt 0.2362076 0.253579
vt 0.2362076 0.253579
vt 0.2362076 0.253579
vt 0.2362076 0.253579
vt 0.2362076 0.253579
vt 0.2362076 0.253579
vt 0.2362076 0.253579
vt 0.2362076 0.253579
vt 0.2362076 0.253579
vt 0.2362076 0.253579
vt 0.2362076 0.253579
vt 0.2362076 0.253579
vt 0.2362076 0.253579
vt 0.2362077 0.253579
vt 0.2362076 0.253579
vt 0.2362076 0.253579
vt 0.2362077 0.253579
vt 0.2362077 0.253579
vt 0.2362077 0.253579
vt 0.2362077 0.253579
vt 0.2362077 0.253579
vt 0.2362077 0.253579
vt 0.2362077 0.253579
vt 0.2362077 0.253579
vt 0.2362077 0.253579
vt 0.2362077 0.253579
vt 0.2362077 0.253579
vt 0.2362077 0.253579
vt 0.2362077 0.253579
vt 0.2362077 0.253579
vt 0.2362077 0.253579
vt 0.2362077 0.253579
vt 0.2362076 0.253579
vt 0.2362076 0.253579
vt 0.2362077 0.253579
vt 0.2362077 0.253579
vt 0.2362076 0.253579
vt 0.2362076 0.253579
vt 0.2362077 0.253579
vt 0.2362077 0.253579
vt 0.2362076 0.253579
vt 0.2362076 0.253579
vt 0.2362077 0.253579
vt 0.2362076 0.253579
vt 0.2362076 0.253579
vt 0.2362076 0.253579
vt 0.2362076 0.253579
vt 0.2362077 0.253579
vt 0.2362076 0.253579
vt 0.2362076 0.253579
vt 0.2362077 0.253579
vt 0.2362077 0.253579
vt 0.2362077 0.253579
vt 0.2362077 0.253579
vt 0.2362077 0.253579
vt 0.2362076 0.253579
vt 0.2362076 0.253579
vt 0.2362077 0.253579
vt 0.2362077 0.253579
vt 0.2362077 0.253579
vt 0.2362077 0.253579
vt 0.2362076 0.253579
vt 0.2362076 0.253579
vt 0.2362077 0.253579
vt 0.2362077 0.253579
vt 0.2362076 0.253579
vt 0.2362076 0.253579
vt 0.2362077 0.253579
vt 0.2362077 0.253579
vt 0.2362076 0.253579
vt 0.2362076 0.253579
vt 0.2362077 0.253579
vt 0.2362077 0.253579
vt 0.2362076 0.253579
vt 0.2362076 0.253579
vt 0.2362076 0.253579
vt 0.2362076 0.253579
vt 0.2362076 0.253579
vt 0.2362076 0.253579
vt 0.2362077 0.253579
vt 0.2362077 0.253579
vt 0.2362076 0.253579
vt 0.2362076 0.253579
vt 0.2362077 0.253579
vt 0.2362077 0.253579
vt 0.2362077 0.253579
vt 0.2362077 0.253579
vt 0.2362076 0.253579
vt 0.2362077 0.253579
vt 0.2362077 0.253579
vt 0.2362076 0.253579
vn 0 -1 0
vn 0.01106882 -0.9999387 0
vn 0.01106882 -0.9999387 0
vn 0 -1 0
vn -0.01106881 -0.9999387 0
vn -0.01106881 -0.9999387 0
vn -0.01111889 0.9999382 0
vn -0.01111889 0.9999382 0
vn 0 1 0
vn 0 1 0
vn 0.01111889 0.9999382 0
vn 0.01111889 0.9999382 0
vn -0.003977185 0.03550484 0.9993616
vn -0.005555014 0.04042633 0.9991671
vn -0.005555014 0.04042633 0.9991671
vn -0.003977185 0.03550484 0.9993616
vn -0.001345576 0.02815869 0.9996026
vn -0.001345576 0.02815869 0.9996026
vn 0 0.02573477 0.9996688
vn 0 0.02573477 0.9996688
vn 0.001345577 0.02815868 0.9996026
vn 0.001345577 0.02815868 0.9996026
vn 0.003977185 0.03550486 0.9993616
vn 0.003977185 0.03550486 0.9993616
vn 0.005555015 0.04042638 0.9991671
vn 0.005555015 0.04042638 0.9991671
vn 0.1354529 -0.9907837 0
vn 0.1354529 -0.9907837 0
vn 0.1354529 -0.9907837 0
vn 0.1354529 -0.9907837 0
vn -0.00398329 0.03554194 -0.9993603
vn -0.005567226 0.0405005 -0.999164
vn -0.005567226 0.0405005 -0.999164
vn -0.00398329 0.03554194 -0.9993603
vn -0.001345576 0.02815869 -0.9996026
vn -0.001345576 0.02815869 -0.9996026
vn 0 0.02573477 -0.9996688
vn 0 0.02573477 -0.9996688
vn 0.001345577 0.02815868 -0.9996026
vn 0.001345577 0.02815868 -0.9996026
vn 0.003983292 0.03554196 -0.9993603
vn 0.003983292 0.03554196 -0.9993603
vn 0.005567227 0.04050056 -0.999164
vn 0.005567227 0.04050056 -0.999164
vn -0.1361192 0.9906924 0
vn -0.1361192 0.9906924 0
vn -0.1361192 0.9906924 0
vn -0.1361192 0.9906924 0
vn 0.07873376 -0.9968957 0
vn 0.07873376 -0.9968957 0
vn 0.07873376 -0.9968957 0
vn 0.07873376 -0.9968957 0
vn -0.07874621 0.9968947 0
vn -0.07874621 0.9968947 0
vn -0.07874621 0.9968947 0
vn -0.07874621 0.9968947 0
vn 0.01832992 -0.09856673 0.9949616
vn 0.01832992 -0.09856673 0.9949616
vn 0.01832992 -0.09856673 0.9949616
vn 0.01832992 -0.09856673 0.9949616
vn 0.1885605 -0.9820616 0
vn 0.1885605 -0.9820616 0
vn 0.1885605 -0.9820616 0
vn 0.1885605 -0.9820616 0
vn 0.0183186 -0.09849492 -0.994969
vn 0.0183186 -0.09849492 -0.994969
vn 0.0183186 -0.09849492 -0.994969
vn 0.0183186 -0.09849492 -0.994969
vn -0.1885576 0.9820622 0
vn -0.1885576 0.9820622 0
vn -0.1885576 0.9820622 0
vn -0.1885576 0.9820622 0
vn -0.1354528 -0.9907838 0
vn -0.1354528 -0.9907838 0
vn -0.1354528 -0.9907838 0
vn -0.1354528 -0.9907838 0
vn 0.1361191 0.9906924 0
vn 0.1361191 0.9906924 0
vn 0.1361191 0.9906924 0
vn 0.1361191 0.9906924 0
vn -0.0787339 -0.9968957 0
vn -0.0787339 -0.9968957 0
vn -0.0787339 -0.9968957 0
vn -0.0787339 -0.9968957 0
vn 0.07874621 0.9968947 0
vn 0.07874621 0.9968947 0
vn 0.07874621 0.9968947 0
vn 0.07874621 0.9968947 0
vn -0.01832992 -0.09856671 0.9949616
vn -0.01832992 -0.09856671 0.9949616
vn -0.01832992 -0.09856671 0.9949616
vn -0.01832992 -0.09856671 0.9949616
vn -0.1885606 -0.9820616 0
vn -0.1885606 -0.9820616 0
vn -0.1885606 -0.9820616 0
vn -0.1885606 -0.9820616 0
vn -0.0183186 -0.09849489 -0.994969
vn -0.0183186 -0.09849489 -0.994969
vn -0.0183186 -0.09849489 -0.994969
vn -0.0183186 -0.09849489 -0.994969
vn 0.1885576 0.9820622 0
vn 0.1885576 0.9820622 0
vn 0.1885576 0.9820622 0
vn 0.1885576 0.9820622 0
g SM_Prop_Cables_02_0
f 3/3/3 2/2/2 1/1/1
f 2/2/2 4/4/4 1/1/1
f 4/4/4 5/5/5 1/1/1
f 5/5/5 6/6/6 1/1/1
f 9/9/9 8/8/8 7/7/7
f 10/10/10 9/9/9 7/7/7
f 9/9/9 10/10/10 11/11/11
f 12/12/12 9/9/9 11/11/11
f 15/15/15 14/14/14 13/13/13
f 14/14/14 16/16/16 13/13/13
f 13/13/13 16/16/16 17/17/17
f 16/16/16 18/18/18 17/17/17
f 17/17/17 18/18/18 19/19/19
f 18/18/18 20/20/20 19/19/19
f 20/20/20 21/21/21 19/19/19
f 21/21/21 22/22/22 19/19/19
f 21/21/21 23/23/23 22/22/22
f 23/23/23 24/24/24 22/22/22
f 23/23/23 25/25/25 24/24/24
f 25/25/25 26/26/26 24/24/24
f 29/29/29 28/28/28 27/27/27
f 30/30/30 29/29/29 27/27/27
f 33/33/33 32/32/32 31/31/31
f 32/32/32 34/34/34 31/31/31
f 31/31/31 34/34/34 35/35/35
f 34/34/34 36/36/36 35/35/35
f 35/35/35 36/36/36 37/37/37
f 36/36/36 38/38/38 37/37/37
f 38/38/38 39/39/39 37/37/37
f 39/39/39 40/40/40 37/37/37
f 39/39/39 41/41/41 40/40/40
f 41/41/41 42/42/42 40/40/40
f 41/41/41 43/43/43 42/42/42
f 43/43/43 44/44/44 42/42/42
f 47/47/47 46/46/46 45/45/45
f 48/48/48 47/47/47 45/45/45
f 51/51/51 50/50/50 49/49/49
f 52/52/52 51/51/51 49/49/49
f 55/55/55 54/54/54 53/53/53
f 56/56/56 55/55/55 53/53/53
f 59/59/59 58/58/58 57/57/57
f 60/60/60 59/59/59 57/57/57
f 63/63/63 62/62/62 61/61/61
f 64/64/64 63/63/63 61/61/61
f 67/67/67 66/66/66 65/65/65
f 68/68/68 67/67/67 65/65/65
f 71/71/71 70/70/70 69/69/69
f 72/72/72 71/71/71 69/69/69
f 75/75/75 74/74/74 73/73/73
f 76/76/76 75/75/75 73/73/73
f 79/79/79 78/78/78 77/77/77
f 80/80/80 79/79/79 77/77/77
f 83/83/83 82/82/82 81/81/81
f 84/84/84 83/83/83 81/81/81
f 87/87/87 86/86/86 85/85/85
f 88/88/88 87/87/87 85/85/85
f 91/91/91 90/90/90 89/89/89
f 92/92/92 91/91/91 89/89/89
f 95/95/95 94/94/94 93/93/93
f 96/96/96 95/95/95 93/93/93
f 99/99/99 98/98/98 97/97/97
f 100/100/100 99/99/99 97/97/97
f 103/103/103 102/102/102 101/101/101
f 104/104/104 103/103/103 101/101/101
