g SM_Prop_SciFi_Pad_01
v -1.05861 0.1202801 0.7512641
v 1.058612 0.1202801 0.7512632
v 1.058612 1.490116E-07 0.7512632
v -1.05861 1.490116E-07 0.7512641
v -1.05861 1.490116E-07 -0.7512669
v 1.058612 1.490116E-07 -0.7512679
v 1.058612 0.1202801 -0.7512679
v -1.05861 0.1202801 -0.7512669
v 1.141108 0.1202801 0.6671299
v 1.141108 0.1202801 -0.6671347
v 1.141108 1.490116E-07 -0.6671347
v 1.141108 1.490116E-07 0.6671299
v -1.141109 0.1202801 -0.6671337
v -1.141109 0.1202801 0.6671309
v -1.141109 1.490116E-07 0.6671309
v -1.141109 1.490116E-07 -0.6671337
v -1.141109 1.490116E-07 0.6671309
v -1.141109 0.1202801 0.6671309
v -1.05861 0.1202801 0.7512641
v -1.05861 1.490116E-07 0.7512641
v 1.058612 1.490116E-07 0.7512632
v 1.058612 0.1202801 0.7512632
v 1.141108 0.1202801 0.6671299
v 1.141108 1.490116E-07 0.6671299
v -1.141109 0.1202801 -0.6671337
v -1.141109 1.490116E-07 -0.6671337
v -1.05861 1.490116E-07 -0.7512669
v -1.05861 0.1202801 -0.7512669
v 1.058612 0.1202801 -0.7512679
v 1.058612 1.490116E-07 -0.7512679
v 1.141108 1.490116E-07 -0.6671347
v 1.141108 0.1202801 -0.6671347
v 1.015746 1.490116E-07 0.6931238
v 9.536743E-07 8.940697E-08 -1.430511E-06
v -1.015745 1.490116E-07 0.6931248
v 1.094904 1.490116E-07 0.6155
v -1.094904 1.490116E-07 0.6155009
v 1.094904 1.490116E-07 -0.6155042
v -1.094904 1.490116E-07 -0.6155033
v 1.015746 1.490116E-07 -0.6931271
v -1.015745 1.490116E-07 -0.6931261
v -1.094904 0.1202801 -0.6155033
v 9.536743E-07 0.1202798 -1.430511E-06
v -1.094904 0.1202801 0.6155009
v -1.015745 0.1202801 -0.6931261
v -1.015745 0.1202801 0.6931248
v 1.015746 0.1202801 -0.6931271
v 1.015746 0.1202801 0.6931238
v 1.094904 0.1202801 -0.6155042
v 1.094904 0.1202801 0.6155
v 1.058612 1.490116E-07 0.7512632
v 1.015746 1.490116E-07 0.6931238
v -1.015745 1.490116E-07 0.6931248
v -1.05861 1.490116E-07 0.7512641
v 1.141108 1.490116E-07 0.6671299
v -1.094904 1.490116E-07 0.6155009
v 1.094904 1.490116E-07 0.6155
v -1.141109 1.490116E-07 0.6671309
v 1.141108 1.490116E-07 -0.6671347
v -1.094904 1.490116E-07 -0.6155033
v 1.094904 1.490116E-07 -0.6155042
v -1.141109 1.490116E-07 -0.6671337
v 1.058612 1.490116E-07 -0.7512679
v -1.015745 1.490116E-07 -0.6931261
v 1.015746 1.490116E-07 -0.6931271
v -1.05861 1.490116E-07 -0.7512669
v -1.141109 0.1202801 -0.6671337
v -1.094904 0.1202801 -0.6155033
v -1.094904 0.1202801 0.6155009
v -1.141109 0.1202801 0.6671309
v -1.05861 0.1202801 -0.7512669
v -1.015745 0.1202801 0.6931248
v -1.015745 0.1202801 -0.6931261
v -1.05861 0.1202801 0.7512641
v 1.058612 0.1202801 -0.7512679
v 1.015746 0.1202801 0.6931238
v 1.015746 0.1202801 -0.6931271
v 1.058612 0.1202801 0.7512632
v 1.141108 0.1202801 -0.6671347
v 1.094904 0.1202801 0.6155
v 1.094904 0.1202801 -0.6155042
v 1.141108 0.1202801 0.6671299
vt 0.7631836 0.659668
vt 0.6337891 0.659668
vt 0.6337891 0.6640625
vt 0.7631836 0.6640625
vt 0.6352539 0.6640625
vt 0.7646484 0.6640625
vt 0.7646484 0.659668
vt 0.6352539 0.659668
vt 0.6289063 0.659668
vt 0.5493164 0.659668
vt 0.5493164 0.6640625
vt 0.6289063 0.6640625
vt 0.6303711 0.659668
vt 0.550293 0.659668
vt 0.550293 0.6640625
vt 0.6303711 0.6640625
vt 0.7680664 0.6640625
vt 0.7680664 0.659668
vt 0.7631836 0.659668
vt 0.7631836 0.6640625
vt 0.6337891 0.6640625
vt 0.6337891 0.659668
vt 0.6289063 0.659668
vt 0.6289063 0.6640625
vt 0.6303711 0.659668
vt 0.6303711 0.6640625
vt 0.6352539 0.6640625
vt 0.6352539 0.659668
vt 0.5439453 0.659668
vt 0.5439453 0.6640625
vt 0.5493164 0.6640625
vt 0.5493164 0.659668
vt 0.2330322 0.25
vt 0.2330322 0.25
vt 0.2330322 0.25
vt 0.2330322 0.25
vt 0.2330322 0.25
vt 0.2330322 0.25
vt 0.2330322 0.25
vt 0.2330322 0.25
vt 0.2330322 0.25
vt 0.2330322 0.25
vt 0.2330322 0.25
vt 0.2330322 0.25
vt 0.2330322 0.25
vt 0.2330322 0.25
vt 0.2330322 0.25
vt 0.2330322 0.25
vt 0.2330322 0.25
vt 0.2330322 0.25
vt 0.2329102 0.2805176
vt 0.2329102 0.2805176
vt 0.2329102 0.2805176
vt 0.2329102 0.2805176
vt 0.2329102 0.2805176
vt 0.2329102 0.2805176
vt 0.2329102 0.2805176
vt 0.2329102 0.2805176
vt 0.2329102 0.2805176
vt 0.2329102 0.2805176
vt 0.2329102 0.2805176
vt 0.2329102 0.2805176
vt 0.2329102 0.2805176
vt 0.2329102 0.2805176
vt 0.2329102 0.2805176
vt 0.2329102 0.2805176
vt 0.2329102 0.2805176
vt 0.2329102 0.2805176
vt 0.2329102 0.2805176
vt 0.2329102 0.2805176
vt 0.2329102 0.2805176
vt 0.2329102 0.2805176
vt 0.2329102 0.2805176
vt 0.2329102 0.2805176
vt 0.2329102 0.2805176
vt 0.2329102 0.2805176
vt 0.2329102 0.2805176
vt 0.2329102 0.2805176
vt 0.2329102 0.2805176
vt 0.2329102 0.2805176
vt 0.2329102 0.2805176
vt 0.2329102 0.2805176
vn 0 0 1
vn 0 0 1
vn 0 0 1
vn 0 0 1
vn 0 0 -1
vn 0 0 -1
vn 0 0 -1
vn 0 0 -1
vn 1 0 0
vn 1 0 0
vn 1 0 0
vn 1 0 0
vn -1 0 0
vn -1 0 0
vn -1 0 0
vn -1 0 0
vn -0.7138672 0 0.7001953
vn -0.7138672 0 0.7001953
vn -0.7138672 0 0.7001953
vn -0.7138672 0 0.7001953
vn 0.7138672 0 0.7001953
vn 0.7138672 0 0.7001953
vn 0.7138672 0 0.7001953
vn 0.7138672 0 0.7001953
vn -0.7138672 0 -0.7001953
vn -0.7138672 0 -0.7001953
vn -0.7138672 0 -0.7001953
vn -0.7138672 0 -0.7001953
vn 0.7138672 0 -0.7001953
vn 0.7138672 0 -0.7001953
vn 0.7138672 0 -0.7001953
vn 0.7138672 0 -0.7001953
vn 0 -1 0
vn 0 -1 0
vn 0 -1 0
vn 0 -1 0
vn 0 -1 0
vn 0 -1 0
vn 0 -1 0
vn 0 -1 0
vn 0 -1 0
vn 0 1 0
vn 0 1 0
vn 0 1 0
vn 0 1 0
vn 0 1 0
vn 0 1 0
vn 0 1 0
vn 0 1 0
vn 0 1 0
vn 0 -1 0
vn 0 -1 0
vn 0 -1 0
vn 0 -1 0
vn 0 -1 0
vn 0 -1 0
vn 0 -1 0
vn 0 -1 0
vn 0 -1 0
vn 0 -1 0
vn 0 -1 0
vn 0 -1 0
vn 0 -1 0
vn 0 -1 0
vn 0 -1 0
vn 0 -1 0
vn 0 1 0
vn 0 1 0
vn 0 1 0
vn 0 1 0
vn 0 1 0
vn 0 1 0
vn 0 1 0
vn 0 1 0
vn 0 1 0
vn 0 1 0
vn 0 1 0
vn 0 1 0
vn 0 1 0
vn 0 1 0
vn 0 1 0
vn 0 1 0
g SM_Prop_SciFi_Pad_01_0
f 3/3/3 2/2/2 1/1/1
f 4/4/4 3/3/3 1/1/1
f 7/7/7 6/6/6 5/5/5
f 8/8/8 7/7/7 5/5/5
f 11/11/11 10/10/10 9/9/9
f 12/12/12 11/11/11 9/9/9
f 15/15/15 14/14/14 13/13/13
f 16/16/16 15/15/15 13/13/13
f 19/19/19 18/18/18 17/17/17
f 20/20/20 19/19/19 17/17/17
f 23/23/23 22/22/22 21/21/21
f 24/24/24 23/23/23 21/21/21
f 27/27/27 26/26/26 25/25/25
f 28/28/28 27/27/27 25/25/25
f 31/31/31 30/30/30 29/29/29
f 32/32/32 31/31/31 29/29/29
f 35/35/35 34/34/34 33/33/33
f 33/33/33 34/34/34 36/36/36
f 37/37/37 34/34/34 35/35/35
f 36/36/36 34/34/34 38/38/38
f 39/39/39 34/34/34 37/37/37
f 38/38/38 34/34/34 40/40/40
f 41/41/41 34/34/34 39/39/39
f 40/40/40 34/34/34 41/41/41
f 44/44/44 43/43/43 42/42/42
f 42/42/42 43/43/43 45/45/45
f 46/46/46 43/43/43 44/44/44
f 45/45/45 43/43/43 47/47/47
f 48/48/48 43/43/43 46/46/46
f 47/47/47 43/43/43 49/49/49
f 50/50/50 43/43/43 48/48/48
f 49/49/49 43/43/43 50/50/50
f 53/53/53 52/52/52 51/51/51
f 54/54/54 53/53/53 51/51/51
f 51/51/51 52/52/52 55/55/55
f 56/56/56 53/53/53 54/54/54
f 52/52/52 57/57/57 55/55/55
f 58/58/58 56/56/56 54/54/54
f 55/55/55 57/57/57 59/59/59
f 60/60/60 56/56/56 58/58/58
f 57/57/57 61/61/61 59/59/59
f 62/62/62 60/60/60 58/58/58
f 59/59/59 61/61/61 63/63/63
f 64/64/64 60/60/60 62/62/62
f 61/61/61 65/65/65 63/63/63
f 66/66/66 64/64/64 62/62/62
f 63/63/63 65/65/65 66/66/66
f 65/65/65 64/64/64 66/66/66
f 69/69/69 68/68/68 67/67/67
f 70/70/70 69/69/69 67/67/67
f 67/67/67 68/68/68 71/71/71
f 72/72/72 69/69/69 70/70/70
f 68/68/68 73/73/73 71/71/71
f 74/74/74 72/72/72 70/70/70
f 71/71/71 73/73/73 75/75/75
f 76/76/76 72/72/72 74/74/74
f 73/73/73 77/77/77 75/75/75
f 78/78/78 76/76/76 74/74/74
f 75/75/75 77/77/77 79/79/79
f 80/80/80 76/76/76 78/78/78
f 77/77/77 81/81/81 79/79/79
f 82/82/82 80/80/80 78/78/78
f 79/79/79 81/81/81 82/82/82
f 81/81/81 80/80/80 82/82/82
