g SM_Prop_Detail_Wire_03
v -0.1951549 0.2075628 -0.01058719
v -0.2077519 0.2075628 -0.006511118
v -0.2077519 0.2075628 0.006511117
v -0.1951549 0.2075628 0.01058719
v -0.187429 0.2075628 7.45058E-10
v 0.1951542 0.2075628 -0.01058719
v 0.2077512 0.2075628 -0.006511117
v 0.2077512 0.2075628 0.006511117
v 0.1951542 0.2075628 0.01058719
v 0.1874283 0.2075628 9.313226E-10
v 0.1690084 0.1101743 0.01058719
v 0.1623177 0.1140372 1.117587E-09
v 0.1690084 0.1101743 -0.01058719
v 0.1799178 0.1038758 -0.006511118
v 0.1799178 0.1038758 0.006511117
v 0.09757692 0.03874284 0.0105872
v 0.09371398 0.04543358 1.024455E-09
v 0.09757692 0.03874284 -0.01058719
v 0.1038754 0.02783347 -0.006511118
v 0.1038754 0.02783347 0.006511117
v -3.33786E-07 0.01259708 0.0105872
v -3.33786E-07 0.02032289 5.587935E-10
v -3.33786E-07 0.01259708 -0.0105872
v -3.33786E-07 4.768371E-08 -0.006511118
v -3.33786E-07 4.768371E-08 0.006511117
v -0.09757762 0.03874284 0.01058719
v -0.09371471 0.04543363 7.45058E-10
v -0.09757762 0.03874284 -0.01058719
v -0.1038761 0.02783347 -0.006511118
v -0.1038761 0.02783347 0.006511117
v -0.1690091 0.1101744 0.01058719
v -0.1623183 0.1140373 9.313226E-10
v -0.1690091 0.1101744 -0.01058719
v -0.1799185 0.1038758 -0.006511118
v -0.1799185 0.1038758 0.006511117
v -0.1951549 0.3308431 -0.01058719
v -0.2077519 0.3308431 -0.006511118
v -0.2077519 0.3308431 0.006511117
v -0.1951549 0.3308431 0.01058719
v -0.187429 0.3308431 7.45058E-10
v 0.1951542 0.3308431 -0.01058719
v 0.2077512 0.3308431 -0.006511117
v 0.2077512 0.3308431 0.006511117
v 0.1951542 0.3308431 0.01058719
v 0.1874283 0.3308431 9.313226E-10
v -0.2077519 0.2075628 -0.006511118
v -0.1799185 0.1038758 -0.006511118
v -0.1799185 0.1038758 0.006511117
v -0.2077519 0.2075628 0.006511117
v -0.1951549 0.2075628 0.01058719
v -0.1690091 0.1101744 0.01058719
v -0.187429 0.2075628 7.45058E-10
v -0.1951549 0.2075628 -0.01058719
v -0.1690091 0.1101744 -0.01058719
v -0.1623183 0.1140373 9.313226E-10
v 0.1874283 0.2075628 9.313226E-10
v 0.1623177 0.1140372 1.117587E-09
v 0.1951542 0.2075628 -0.01058719
v 0.1690084 0.1101743 -0.01058719
v 0.2077512 0.2075628 -0.006511117
v 0.1799178 0.1038758 -0.006511118
v 0.2077512 0.2075628 0.006511117
v 0.1799178 0.1038758 0.006511117
v 0.1690084 0.1101743 0.01058719
v 0.1951542 0.2075628 0.01058719
v 0.1623177 0.1140372 1.117587E-09
v 0.1690084 0.1101743 0.01058719
v 0.1690084 0.1101743 -0.01058719
v 0.1623177 0.1140372 1.117587E-09
v 0.09371398 0.04543358 1.024455E-09
v 0.1799178 0.1038758 -0.006511118
v 0.1690084 0.1101743 -0.01058719
v 0.09757692 0.03874284 -0.01058719
v 0.1799178 0.1038758 0.006511117
v 0.1799178 0.1038758 -0.006511118
v 0.1038754 0.02783347 -0.006511118
v 0.1799178 0.1038758 0.006511117
v 0.1038754 0.02783347 0.006511117
v 0.09757692 0.03874284 0.0105872
v 0.1690084 0.1101743 0.01058719
v 0.09371398 0.04543358 1.024455E-09
v 0.09757692 0.03874284 0.0105872
v 0.09757692 0.03874284 -0.01058719
v 0.09371398 0.04543358 1.024455E-09
v -3.33786E-07 0.02032289 5.587935E-10
v 0.1038754 0.02783347 -0.006511118
v 0.09757692 0.03874284 -0.01058719
v -3.33786E-07 0.01259708 -0.0105872
v 0.1038754 0.02783347 0.006511117
v 0.1038754 0.02783347 -0.006511118
v -3.33786E-07 4.768371E-08 -0.006511118
v 0.1038754 0.02783347 0.006511117
v -3.33786E-07 4.768371E-08 0.006511117
v -3.33786E-07 0.01259708 0.0105872
v 0.09757692 0.03874284 0.0105872
v -3.33786E-07 0.02032289 5.587935E-10
v -3.33786E-07 0.01259708 0.0105872
v -3.33786E-07 0.01259708 -0.0105872
v -3.33786E-07 0.02032289 5.587935E-10
v -0.09371471 0.04543363 7.45058E-10
v -3.33786E-07 4.768371E-08 -0.006511118
v -3.33786E-07 0.01259708 -0.0105872
v -0.09757762 0.03874284 -0.01058719
v -3.33786E-07 4.768371E-08 0.006511117
v -3.33786E-07 4.768371E-08 -0.006511118
v -0.1038761 0.02783347 -0.006511118
v -3.33786E-07 4.768371E-08 0.006511117
v -0.1038761 0.02783347 0.006511117
v -0.09757762 0.03874284 0.01058719
v -3.33786E-07 0.01259708 0.0105872
v -0.1690091 0.1101744 0.01058719
v -0.1623183 0.1140373 9.313226E-10
v -0.09371471 0.04543363 7.45058E-10
v -0.09757762 0.03874284 0.01058719
v -0.1690091 0.1101744 -0.01058719
v -0.09757762 0.03874284 -0.01058719
v -0.09371471 0.04543363 7.45058E-10
v -0.1623183 0.1140373 9.313226E-10
v -0.1799185 0.1038758 -0.006511118
v -0.1038761 0.02783347 -0.006511118
v -0.09757762 0.03874284 -0.01058719
v -0.1690091 0.1101744 -0.01058719
v -0.1799185 0.1038758 0.006511117
v -0.1038761 0.02783347 0.006511117
v -0.1038761 0.02783347 -0.006511118
v -0.1799185 0.1038758 -0.006511118
v -0.1038761 0.02783347 0.006511117
v -0.1799185 0.1038758 0.006511117
v -0.1690091 0.1101744 0.01058719
v -0.09757762 0.03874284 0.01058719
v -0.1951549 0.2075628 -0.01058719
v -0.2077519 0.2075628 -0.006511118
v -0.2077519 0.2075628 -0.006511118
v -0.2077519 0.3308431 -0.006511118
v -0.2077519 0.2075628 0.006511117
v -0.2077519 0.2075628 0.006511117
v -0.2077519 0.3308431 0.006511117
v -0.1951549 0.2075628 0.01058719
v -0.1951549 0.2075628 0.01058719
v -0.1951549 0.3308431 0.01058719
v -0.187429 0.2075628 7.45058E-10
v -0.187429 0.2075628 7.45058E-10
v -0.187429 0.3308431 7.45058E-10
v -0.1951549 0.3308431 -0.01058719
v -0.1951549 0.2075628 -0.01058719
v 0.2077512 0.2075628 -0.006511117
v 0.1951542 0.2075628 -0.01058719
v 0.2077512 0.2075628 0.006511117
v 0.2077512 0.3308431 -0.006511117
v 0.2077512 0.2075628 -0.006511117
v 0.1951542 0.2075628 0.01058719
v 0.2077512 0.3308431 0.006511117
v 0.2077512 0.2075628 0.006511117
v 0.1874283 0.2075628 9.313226E-10
v 0.1951542 0.3308431 0.01058719
v 0.1951542 0.2075628 0.01058719
v 0.1951542 0.2075628 -0.01058719
v 0.1951542 0.3308431 -0.01058719
v 0.1874283 0.3308431 9.313226E-10
v 0.1874283 0.2075628 9.313226E-10
vt 0.234375 0.2775879
vt 0.234375 0.2775879
vt 0.234375 0.2775879
vt 0.234375 0.2775879
vt 0.234375 0.2775879
vt 0.234375 0.2775879
vt 0.234375 0.2775879
vt 0.234375 0.2775879
vt 0.234375 0.2775879
vt 0.234375 0.2775879
vt 0.234375 0.2775879
vt 0.234375 0.2775879
vt 0.234375 0.2775879
vt 0.234375 0.2775879
vt 0.234375 0.2775879
vt 0.234375 0.2775879
vt 0.234375 0.2775879
vt 0.234375 0.2775879
vt 0.234375 0.2775879
vt 0.234375 0.2775879
vt 0.234375 0.2775879
vt 0.234375 0.2775879
vt 0.234375 0.2775879
vt 0.234375 0.2775879
vt 0.234375 0.2775879
vt 0.234375 0.2775879
vt 0.234375 0.2775879
vt 0.234375 0.2775879
vt 0.234375 0.2775879
vt 0.234375 0.2775879
vt 0.234375 0.2775879
vt 0.234375 0.2775879
vt 0.234375 0.2775879
vt 0.234375 0.2775879
vt 0.234375 0.2775879
vt 0.234375 0.2775879
vt 0.234375 0.2775879
vt 0.234375 0.2775879
vt 0.234375 0.2775879
vt 0.234375 0.2775879
vt 0.234375 0.2775879
vt 0.234375 0.2775879
vt 0.234375 0.2775879
vt 0.234375 0.2775879
vt 0.234375 0.2775879
vt 0.234375 0.2775879
vt 0.234375 0.2775879
vt 0.234375 0.2775879
vt 0.234375 0.2775879
vt 0.234375 0.2775879
vt 0.234375 0.2775879
vt 0.234375 0.2775879
vt 0.234375 0.2775879
vt 0.234375 0.2775879
vt 0.234375 0.2775879
vt 0.234375 0.2775879
vt 0.234375 0.2775879
vt 0.234375 0.2775879
vt 0.234375 0.2775879
vt 0.234375 0.2775879
vt 0.234375 0.2775879
vt 0.234375 0.2775879
vt 0.234375 0.2775879
vt 0.234375 0.2775879
vt 0.234375 0.2775879
vt 0.234375 0.2775879
vt 0.234375 0.2775879
vt 0.234375 0.2775879
vt 0.234375 0.2775879
vt 0.234375 0.2775879
vt 0.234375 0.2775879
vt 0.234375 0.2775879
vt 0.234375 0.2775879
vt 0.234375 0.2775879
vt 0.234375 0.2775879
vt 0.234375 0.2775879
vt 0.234375 0.2775879
vt 0.234375 0.2775879
vt 0.234375 0.2775879
vt 0.234375 0.2775879
vt 0.234375 0.2775879
vt 0.234375 0.2775879
vt 0.234375 0.2775879
vt 0.234375 0.2775879
vt 0.234375 0.2775879
vt 0.234375 0.2775879
vt 0.234375 0.2775879
vt 0.234375 0.2775879
vt 0.234375 0.2775879
vt 0.234375 0.2775879
vt 0.234375 0.2775879
vt 0.234375 0.2775879
vt 0.234375 0.2775879
vt 0.234375 0.2775879
vt 0.234375 0.2775879
vt 0.234375 0.2775879
vt 0.234375 0.2775879
vt 0.234375 0.2775879
vt 0.234375 0.2775879
vt 0.234375 0.2775879
vt 0.234375 0.2775879
vt 0.234375 0.2775879
vt 0.234375 0.2775879
vt 0.234375 0.2775879
vt 0.234375 0.2775879
vt 0.234375 0.2775879
vt 0.234375 0.2775879
vt 0.234375 0.2775879
vt 0.234375 0.2775879
vt 0.234375 0.2775879
vt 0.234375 0.2775879
vt 0.234375 0.2775879
vt 0.234375 0.2775879
vt 0.234375 0.2775879
vt 0.234375 0.2775879
vt 0.234375 0.2775879
vt 0.234375 0.2775879
vt 0.234375 0.2775879
vt 0.234375 0.2775879
vt 0.234375 0.2775879
vt 0.234375 0.2775879
vt 0.234375 0.2775879
vt 0.234375 0.2775879
vt 0.234375 0.2775879
vt 0.234375 0.2775879
vt 0.234375 0.2775879
vt 0.234375 0.2775879
vt 0.234375 0.2775879
vt 0.234375 0.2775879
vt 0.234375 0.2775879
vt 0.234375 0.2775879
vt 0.234375 0.2775879
vt 0.234375 0.2775879
vt 0.234375 0.2775879
vt 0.234375 0.2775879
vt 0.234375 0.2775879
vt 0.234375 0.2775879
vt 0.234375 0.2775879
vt 0.234375 0.2775879
vt 0.234375 0.2775879
vt 0.234375 0.2775879
vt 0.234375 0.2775879
vt 0.234375 0.2775879
vt 0.234375 0.2775879
vt 0.234375 0.2775879
vt 0.234375 0.2775879
vt 0.234375 0.2775879
vt 0.234375 0.2775879
vt 0.234375 0.2775879
vt 0.234375 0.2775879
vt 0.234375 0.2775879
vt 0.234375 0.2775879
vt 0.234375 0.2775879
vt 0.234375 0.2775879
vt 0.234375 0.2775879
vt 0.234375 0.2775879
vt 0.234375 0.2775879
vt 0.234375 0.2775879
vt 0.234375 0.2775879
vt 0.234375 0.2775879
vn -0.3068848 -0.08233643 -0.9482422
vn -0.3068848 -0.08233643 -0.9482422
vn -0.9658203 -0.2592773 0
vn -0.3068848 -0.08233643 0.9482422
vn 0.7895508 0.2119141 0.5761719
vn -0.7895508 0.2119141 -0.5761719
vn 0.3068848 -0.08233643 -0.9482422
vn 0.9658203 -0.2592773 0
vn -0.7895508 0.2119141 0.5761719
vn -0.7895508 0.2119141 0.5761719
vn -0.7895508 0.2119141 0.5761719
vn -0.7895508 0.2119141 0.5761719
vn -0.7895508 0.2119141 -0.5761719
vn 0.3068848 -0.08233643 -0.9482422
vn 0.9658203 -0.2592773 0
vn -0.578125 0.578125 0.5761719
vn -0.578125 0.578125 0.5761719
vn -0.578125 0.578125 -0.5761719
vn 0.2246094 -0.2246094 -0.9482422
vn 0.7070313 -0.7070313 0
vn -0.2115479 0.7895508 0.5761719
vn -0.2115479 0.7895508 0.5761719
vn -0.2115479 0.7895508 -0.5761719
vn 0.08221436 -0.3068848 -0.9482422
vn 0.2587891 -0.9658203 0
vn 0.2115479 0.7895508 0.5761719
vn 0.2115479 0.7895508 0.5761719
vn 0.2115479 0.7895508 -0.5761719
vn -0.08221436 -0.3068848 -0.9482422
vn -0.2587891 -0.9658203 0
vn -0.3068848 -0.08233643 0.9482422
vn 0.7895508 0.2119141 0.5761719
vn -0.3068848 -0.08233643 -0.9482422
vn -0.3068848 -0.08233643 -0.9482422
vn -0.9658203 -0.2592773 0
vn -0.3078613 0 -0.9516602
vn -0.3078613 0 -0.9516602
vn -1 0 0
vn -0.3078613 0 0.9516602
vn 0.8076172 0 0.5893555
vn 0.3078613 0 -0.9516602
vn 0.3078613 0 -0.9516602
vn 1 0 0
vn 0.3078613 0 0.9516602
vn -0.8076172 0 0.5893555
vn -0.9658203 -0.2592773 0
vn -0.9658203 -0.2592773 0
vn -0.3068848 -0.08233643 0.9482422
vn -0.3068848 -0.08233643 0.9482422
vn 0.7895508 0.2119141 0.5761719
vn 0.7895508 0.2119141 0.5761719
vn 0.7895508 0.2119141 -0.5761719
vn 0.7895508 0.2119141 -0.5761719
vn 0.7895508 0.2119141 -0.5761719
vn 0.7895508 0.2119141 -0.5761719
vn -0.7895508 0.2119141 -0.5761719
vn -0.7895508 0.2119141 -0.5761719
vn 0.3068848 -0.08233643 -0.9482422
vn 0.3068848 -0.08233643 -0.9482422
vn 0.9658203 -0.2592773 0
vn 0.9658203 -0.2592773 0
vn 0.3068848 -0.08233643 0.9482422
vn 0.3068848 -0.08233643 0.9482422
vn 0.3068848 -0.08233643 0.9482422
vn 0.3068848 -0.08233643 0.9482422
vn -0.578125 0.578125 0.5761719
vn -0.578125 0.578125 0.5761719
vn -0.578125 0.578125 -0.5761719
vn -0.578125 0.578125 -0.5761719
vn -0.578125 0.578125 -0.5761719
vn 0.2246094 -0.2246094 -0.9482422
vn 0.2246094 -0.2246094 -0.9482422
vn 0.2246094 -0.2246094 -0.9482422
vn 0.7070313 -0.7070313 0
vn 0.7070313 -0.7070313 0
vn 0.7070313 -0.7070313 0
vn 0.2246094 -0.2246094 0.9482422
vn 0.2246094 -0.2246094 0.9482422
vn 0.2246094 -0.2246094 0.9482422
vn 0.2246094 -0.2246094 0.9482422
vn -0.2115479 0.7895508 0.5761719
vn -0.2115479 0.7895508 0.5761719
vn -0.2115479 0.7895508 -0.5761719
vn -0.2115479 0.7895508 -0.5761719
vn -0.2115479 0.7895508 -0.5761719
vn 0.08221436 -0.3068848 -0.9482422
vn 0.08221436 -0.3068848 -0.9482422
vn 0.08221436 -0.3068848 -0.9482422
vn 0.2587891 -0.9658203 0
vn 0.2587891 -0.9658203 0
vn 0.2587891 -0.9658203 0
vn 0.08221436 -0.3068848 0.9482422
vn 0.08221436 -0.3068848 0.9482422
vn 0.08221436 -0.3068848 0.9482422
vn 0.08221436 -0.3068848 0.9482422
vn 0.2115479 0.7895508 0.5761719
vn 0.2115479 0.7895508 0.5761719
vn 0.2115479 0.7895508 -0.5761719
vn 0.2115479 0.7895508 -0.5761719
vn 0.2115479 0.7895508 -0.5761719
vn -0.08221436 -0.3068848 -0.9482422
vn -0.08221436 -0.3068848 -0.9482422
vn -0.08221436 -0.3068848 -0.9482422
vn -0.2587891 -0.9658203 0
vn -0.2587891 -0.9658203 0
vn -0.2587891 -0.9658203 0
vn -0.08221436 -0.3068848 0.9482422
vn -0.08221436 -0.3068848 0.9482422
vn -0.08221436 -0.3068848 0.9482422
vn -0.08221436 -0.3068848 0.9482422
vn 0.578125 0.578125 0.5761719
vn 0.578125 0.578125 0.5761719
vn 0.578125 0.578125 0.5761719
vn 0.578125 0.578125 0.5761719
vn 0.578125 0.578125 -0.5761719
vn 0.578125 0.578125 -0.5761719
vn 0.578125 0.578125 -0.5761719
vn 0.578125 0.578125 -0.5761719
vn -0.2246094 -0.2246094 -0.9482422
vn -0.2246094 -0.2246094 -0.9482422
vn -0.2246094 -0.2246094 -0.9482422
vn -0.2246094 -0.2246094 -0.9482422
vn -0.7070313 -0.7070313 0
vn -0.7070313 -0.7070313 0
vn -0.7070313 -0.7070313 0
vn -0.7070313 -0.7070313 0
vn -0.2246094 -0.2246094 0.9482422
vn -0.2246094 -0.2246094 0.9482422
vn -0.2246094 -0.2246094 0.9482422
vn -0.2246094 -0.2246094 0.9482422
vn -0.3078613 0 -0.9516602
vn -0.3078613 0 -0.9516602
vn -1 0 0
vn -1 0 0
vn -1 0 0
vn -0.3078613 0 0.9516602
vn -0.3078613 0 0.9516602
vn -0.3078613 0 0.9516602
vn 0.8076172 0 0.5893555
vn 0.8076172 0 0.5893555
vn 0.8076172 0 0.5893555
vn 0.8076172 0 -0.5893555
vn 0.8076172 0 -0.5893555
vn 0.8076172 0 -0.5893555
vn 0.8076172 0 -0.5893555
vn 0.3078613 0 -0.9516602
vn 0.3078613 0 -0.9516602
vn 1 0 0
vn 1 0 0
vn 1 0 0
vn 0.3078613 0 0.9516602
vn 0.3078613 0 0.9516602
vn 0.3078613 0 0.9516602
vn -0.8076172 0 0.5893555
vn -0.8076172 0 0.5893555
vn -0.8076172 0 0.5893555
vn -0.8076172 0 -0.5893555
vn -0.8076172 0 -0.5893555
vn -0.8076172 0 -0.5893555
vn -0.8076172 0 -0.5893555
g SM_Prop_Detail_Wire_03_0
f 34/34/34 2/2/2 1/1/1
f 33/33/33 34/34/34 1/1/1
f 35/35/35 3/3/3 46/46/46
f 47/47/47 35/35/35 46/46/46
f 4/4/4 49/49/49 48/48/48
f 31/31/31 4/4/4 48/48/48
f 32/32/32 5/5/5 50/50/50
f 51/51/51 32/32/32 50/50/50
f 54/54/54 53/53/53 52/52/52
f 55/55/55 54/54/54 52/52/52
f 10/10/10 12/12/12 11/11/11
f 9/9/9 10/10/10 11/11/11
f 56/56/56 6/6/6 13/13/13
f 57/57/57 56/56/56 13/13/13
f 58/58/58 7/7/7 14/14/14
f 59/59/59 58/58/58 14/14/14
f 60/60/60 8/8/8 15/15/15
f 61/61/61 60/60/60 15/15/15
f 64/64/64 63/63/63 62/62/62
f 65/65/65 64/64/64 62/62/62
f 66/66/66 17/17/17 16/16/16
f 67/67/67 66/66/66 16/16/16
f 69/69/69 68/68/68 18/18/18
f 70/70/70 69/69/69 18/18/18
f 72/72/72 71/71/71 19/19/19
f 73/73/73 72/72/72 19/19/19
f 75/75/75 74/74/74 20/20/20
f 76/76/76 75/75/75 20/20/20
f 79/79/79 78/78/78 77/77/77
f 80/80/80 79/79/79 77/77/77
f 81/81/81 22/22/22 21/21/21
f 82/82/82 81/81/81 21/21/21
f 84/84/84 83/83/83 23/23/23
f 85/85/85 84/84/84 23/23/23
f 87/87/87 86/86/86 24/24/24
f 88/88/88 87/87/87 24/24/24
f 90/90/90 89/89/89 25/25/25
f 91/91/91 90/90/90 25/25/25
f 94/94/94 93/93/93 92/92/92
f 95/95/95 94/94/94 92/92/92
f 96/96/96 27/27/27 26/26/26
f 97/97/97 96/96/96 26/26/26
f 99/99/99 98/98/98 28/28/28
f 100/100/100 99/99/99 28/28/28
f 102/102/102 101/101/101 29/29/29
f 103/103/103 102/102/102 29/29/29
f 105/105/105 104/104/104 30/30/30
f 106/106/106 105/105/105 30/30/30
f 109/109/109 108/108/108 107/107/107
f 110/110/110 109/109/109 107/107/107
f 113/113/113 112/112/112 111/111/111
f 114/114/114 113/113/113 111/111/111
f 117/117/117 116/116/116 115/115/115
f 118/118/118 117/117/117 115/115/115
f 121/121/121 120/120/120 119/119/119
f 122/122/122 121/121/121 119/119/119
f 125/125/125 124/124/124 123/123/123
f 126/126/126 125/125/125 123/123/123
f 129/129/129 128/128/128 127/127/127
f 130/130/130 129/129/129 127/127/127
f 37/37/37 36/36/36 131/131/131
f 132/132/132 37/37/37 131/131/131
f 38/38/38 134/134/134 133/133/133
f 135/135/135 38/38/38 133/133/133
f 39/39/39 137/137/137 136/136/136
f 138/138/138 39/39/39 136/136/136
f 40/40/40 140/140/140 139/139/139
f 141/141/141 40/40/40 139/139/139
f 144/144/144 143/143/143 142/142/142
f 145/145/145 144/144/144 142/142/142
f 41/41/41 42/42/42 146/146/146
f 147/147/147 41/41/41 146/146/146
f 149/149/149 43/43/43 148/148/148
f 150/150/150 149/149/149 148/148/148
f 152/152/152 44/44/44 151/151/151
f 153/153/153 152/152/152 151/151/151
f 155/155/155 45/45/45 154/154/154
f 156/156/156 155/155/155 154/154/154
f 159/159/159 158/158/158 157/157/157
f 160/160/160 159/159/159 157/157/157
