g SM_Prop_Sidewalk_Barrier_01
v 0.03846169 1.173041 -0.03844643
v 7.629395E-06 1.205151 0
v 7.629395E-06 1.173041 -0.05436897
v 7.629395E-06 1.173041 -0.05436897
v 7.629395E-06 1.205151 0
v -0.03844643 1.173041 -0.03844643
v -0.03844643 1.173041 -0.03844643
v 7.629395E-06 1.205151 0
v -0.05437279 1.173041 0
v -0.05437279 1.173041 0
v 7.629395E-06 1.205151 0
v -0.03844643 1.173041 0.03845404
v -0.03844643 1.173041 0.03845404
v 7.629395E-06 1.205151 0
v 7.629395E-06 1.173041 0.05438041
v 7.629395E-06 1.173041 0.05438041
v 7.629395E-06 1.205151 0
v 0.03846169 1.173041 0.03845404
v 0.03846169 1.173041 0.03845404
v 7.629395E-06 1.205151 0
v 0.05438805 1.173041 0
v 0.05438805 1.173041 0
v 7.629395E-06 1.205151 0
v 0.03846169 1.173041 -0.03844643
v 0.03846169 0.0903819 -0.03844643
v 0.0006504059 0.4943214 -0.05435944
v 7.629395E-06 0.0903819 -0.05436897
v 0.03583336 0.5011032 -0.04172993
v 7.629395E-06 0.9564431 -0.05436897
v 0.03846169 0.9564431 -0.03844643
v 7.629395E-06 0.0903819 -0.05436897
v -0.03336334 0.4898549 -0.03803539
v -0.03844643 0.0903819 -0.03844643
v 0.0006504059 0.4943214 -0.05435944
v -0.03844643 0.9564431 -0.03844643
v 7.629395E-06 0.9564431 -0.05436897
v -0.03844643 0.0903819 -0.03844643
v -0.04628181 0.4903208 -0.002315521
v -0.05437279 0.0903819 0
v -0.03336334 0.4898549 -0.03803539
v -0.05437279 0.9564431 0
v -0.03844643 0.9564431 -0.03844643
v -0.05437279 0.0903819 0
v -0.03053856 0.4954457 0.03188132
v -0.03844643 0.0903819 0.03845404
v -0.04628181 0.4903208 -0.002315521
v -0.03844643 0.9564431 0.03845404
v -0.05437279 0.9564431 0
v -0.03844643 0.0903819 0.03845404
v 0.004644394 0.5022277 0.04451371
v 7.629395E-06 0.0903819 0.05438041
v -0.03053856 0.4954457 0.03188132
v 7.629395E-06 0.9564431 0.05438041
v -0.03844643 0.9564431 0.03845404
v 7.629395E-06 0.0903819 0.05438041
v 0.03865814 0.506694 0.02818681
v 0.03846169 0.0903819 0.03845404
v 0.004644394 0.5022277 0.04451371
v 0.03846169 0.9564431 0.03845404
v 7.629395E-06 0.9564431 0.05438041
v 0.03846169 0.0903819 0.03845404
v 0.05157661 0.5062276 -0.007540703
v 0.05438805 0.0903819 0
v 0.03865814 0.506694 0.02818681
v 0.05438805 0.9564431 0
v 0.03846169 0.9564431 0.03845404
v 0.05438805 0.0903819 0
v 0.03583336 0.5011032 -0.04172993
v 0.03846169 0.0903819 -0.03844643
v 0.05157661 0.5062276 -0.007540703
v 0.03846169 0.9564431 -0.03844643
v 0.05438805 0.9564431 0
v 7.629395E-06 0.0903819 -0.05436897
v 7.629395E-06 0.06532782 -0.156395
v 0.1106052 0.06532782 -0.1105833
v 0.03846169 0.0903819 -0.03844643
v -0.03844643 0.0903819 -0.03844643
v -0.11059 0.06532782 -0.1105833
v 7.629395E-06 0.06532782 -0.156395
v 7.629395E-06 0.0903819 -0.05436897
v -0.05437279 0.0903819 0
v -0.1564026 0.06532782 -3.814697E-06
v -0.11059 0.06532782 -0.1105833
v -0.03844643 0.0903819 -0.03844643
v -0.03844643 0.0903819 0.03845404
v -0.11059 0.06532782 0.1105938
v -0.1564026 0.06532782 -3.814697E-06
v -0.05437279 0.0903819 0
v 7.629395E-06 0.0903819 0.05438041
v 7.629395E-06 0.06532782 0.1564054
v -0.11059 0.06532782 0.1105938
v -0.03844643 0.0903819 0.03845404
v 0.03846169 0.0903819 0.03845404
v 0.1106052 0.06532782 0.1105938
v 7.629395E-06 0.06532782 0.1564054
v 7.629395E-06 0.0903819 0.05438041
v 0.05438805 0.0903819 0
v 0.1564064 0.06532782 -3.814697E-06
v 0.1106052 0.06532782 0.1105938
v 0.03846169 0.0903819 0.03845404
v 0.03846169 0.0903819 -0.03844643
v 0.1106052 0.06532782 -0.1105833
v 0.1564064 0.06532782 -3.814697E-06
v 0.05438805 0.0903819 0
v 7.629395E-06 0.06532782 -0.156395
v 7.629395E-06 0 -0.156395
v 0.1106052 0 -0.1105833
v 0.1106052 0.06532782 -0.1105833
v -0.11059 0.06532782 -0.1105833
v -0.11059 0 -0.1105833
v 7.629395E-06 0 -0.156395
v 7.629395E-06 0.06532782 -0.156395
v -0.1564026 0.06532782 -3.814697E-06
v -0.1564026 0 -3.814697E-06
v -0.11059 0 -0.1105833
v -0.11059 0.06532782 -0.1105833
v -0.11059 0.06532782 0.1105938
v -0.11059 0 0.1105938
v -0.1564026 0 -3.814697E-06
v -0.1564026 0.06532782 -3.814697E-06
v 7.629395E-06 0.06532782 0.1564054
v 7.629395E-06 0 0.1564054
v -0.11059 0 0.1105938
v -0.11059 0.06532782 0.1105938
v 0.1106052 0.06532782 0.1105938
v 0.1106052 0 0.1105938
v 7.629395E-06 0 0.1564054
v 7.629395E-06 0.06532782 0.1564054
v 0.1564064 0.06532782 -3.814697E-06
v 0.1564064 0 -3.814697E-06
v 0.1106052 0 0.1105938
v 0.1106052 0.06532782 0.1105938
v 0.1106052 0.06532782 -0.1105833
v 0.1106052 0 -0.1105833
v 0.1564064 0 -3.814697E-06
v 0.1564064 0.06532782 -3.814697E-06
v 7.629395E-06 1.039832 -0.05436897
v 7.629395E-06 1.173041 -0.05436897
v -0.03844643 1.173041 -0.03844643
v -0.03844643 1.039832 -0.03844643
v 0.03846169 1.039832 -0.03844643
v 0.03846169 1.173041 -0.03844643
v 7.629395E-06 1.173041 -0.05436897
v 7.629395E-06 1.039832 -0.05436897
v 0.05438805 1.039832 0
v 0.05438805 1.173041 0
v 0.03846169 1.173041 -0.03844643
v 0.03846169 1.039832 -0.03844643
v 0.03846169 1.039832 0.03845404
v 0.03846169 1.173041 0.03845404
v 0.05438805 1.173041 0
v 0.05438805 1.039832 0
v 7.629395E-06 1.039832 0.05438041
v 7.629395E-06 1.173041 0.05438041
v 0.03846169 1.173041 0.03845404
v 0.03846169 1.039832 0.03845404
v -0.03844643 1.039832 0.03845404
v -0.03844643 1.173041 0.03845404
v 7.629395E-06 1.173041 0.05438041
v 7.629395E-06 1.039832 0.05438041
v -0.05437279 1.039832 0
v -0.05437279 1.173041 0
v -0.03844643 1.173041 0.03845404
v -0.03844643 1.039832 0.03845404
v -0.03844643 1.039832 -0.03844643
v -0.03844643 1.173041 -0.03844643
v -0.05437279 1.173041 0
v -0.05437279 1.039832 0
v 7.629395E-06 0.9564431 -0.05436897
v 7.629395E-06 1.039832 -0.05436897
v -0.03844643 1.039832 -0.03844643
v -0.03844643 0.9564431 -0.03844643
v 0.03846169 0.9564431 -0.03844643
v 0.03846169 1.039832 -0.03844643
v 7.629395E-06 1.039832 -0.05436897
v 7.629395E-06 0.9564431 -0.05436897
v 0.05438805 0.9564431 0
v 0.05438805 1.039832 0
v 0.03846169 1.039832 -0.03844643
v 0.03846169 0.9564431 -0.03844643
v 0.03846169 0.9564431 0.03845404
v 0.03846169 1.039832 0.03845404
v 0.05438805 1.039832 0
v 0.05438805 0.9564431 0
v 7.629395E-06 0.9564431 0.05438041
v 7.629395E-06 1.039832 0.05438041
v 0.03846169 1.039832 0.03845404
v 0.03846169 0.9564431 0.03845404
v -0.03844643 0.9564431 0.03845404
v -0.03844643 1.039832 0.03845404
v 7.629395E-06 1.039832 0.05438041
v 7.629395E-06 0.9564431 0.05438041
v -0.05437279 0.9564431 0
v -0.05437279 1.039832 0
v -0.03844643 1.039832 0.03845404
v -0.03844643 0.9564431 0.03845404
v -0.03844643 0.9564431 -0.03844643
v -0.03844643 1.039832 -0.03844643
v -0.05437279 1.039832 0
v -0.05437279 0.9564431 0
v 7.629395E-06 0 -0.156395
v 7.629395E-06 0 -3.814697E-06
v 0.1106052 0 -0.1105833
v -0.11059 0 -0.1105833
v 0.1564064 0 -3.814697E-06
v -0.1564026 0 -3.814697E-06
v 0.1106052 0 0.1105938
v -0.11059 0 0.1105938
v 7.629395E-06 0 0.1564054
vt 0.04788208 0.2086182
vt 0.04788208 0.2086182
vt 0.04788208 0.2086182
vt 0.04788208 0.2086182
vt 0.04788208 0.2086182
vt 0.04788208 0.2086182
vt 0.04788208 0.2086182
vt 0.04788208 0.2086182
vt 0.04788208 0.2086182
vt 0.04788208 0.2086182
vt 0.04788208 0.2086182
vt 0.04788208 0.2086182
vt 0.04788208 0.2086182
vt 0.04788208 0.2086182
vt 0.04788208 0.2086182
vt 0.04788208 0.2086182
vt 0.04788208 0.2086182
vt 0.04788208 0.2086182
vt 0.04788208 0.2086182
vt 0.04788208 0.2086182
vt 0.04788208 0.2086182
vt 0.04788208 0.2086182
vt 0.04788208 0.2086182
vt 0.04788208 0.2086182
vt 0.04788208 0.2086182
vt 0.04788208 0.2086182
vt 0.04788208 0.2086182
vt 0.04788208 0.2086182
vt 0.04788208 0.2086182
vt 0.04788208 0.2086182
vt 0.04788208 0.2086182
vt 0.04788208 0.2086182
vt 0.04788208 0.2086182
vt 0.04788208 0.2086182
vt 0.04788208 0.2086182
vt 0.04788208 0.2086182
vt 0.04788208 0.2086182
vt 0.04788208 0.2086182
vt 0.04788208 0.2086182
vt 0.04788208 0.2086182
vt 0.04788208 0.2086182
vt 0.04788208 0.2086182
vt 0.04788208 0.2086182
vt 0.04788208 0.2086182
vt 0.04788208 0.2086182
vt 0.04788208 0.2086182
vt 0.04788208 0.2086182
vt 0.04788208 0.2086182
vt 0.04788208 0.2086182
vt 0.04788208 0.2086182
vt 0.04788208 0.2086182
vt 0.04788208 0.2086182
vt 0.04788208 0.2086182
vt 0.04788208 0.2086182
vt 0.04788208 0.2086182
vt 0.04788208 0.2086182
vt 0.04788208 0.2086182
vt 0.04788208 0.2086182
vt 0.04788208 0.2086182
vt 0.04788208 0.2086182
vt 0.04788208 0.2086182
vt 0.04788208 0.2086182
vt 0.04788208 0.2086182
vt 0.04788208 0.2086182
vt 0.04788208 0.2086182
vt 0.04788208 0.2086182
vt 0.04788208 0.2086182
vt 0.04788208 0.2086182
vt 0.04788208 0.2086182
vt 0.04788208 0.2086182
vt 0.04788208 0.2086182
vt 0.04788208 0.2086182
vt 0.2432861 0.2797852
vt 0.2432861 0.2797852
vt 0.2432861 0.2797852
vt 0.2432861 0.2797852
vt 0.2432861 0.2797852
vt 0.2432861 0.2797852
vt 0.2432861 0.2797852
vt 0.2432861 0.2797852
vt 0.2432861 0.2797852
vt 0.2432861 0.2797852
vt 0.2432861 0.2797852
vt 0.2432861 0.2797852
vt 0.2432861 0.2797852
vt 0.2432861 0.2797852
vt 0.2432861 0.2797852
vt 0.2432861 0.2797852
vt 0.2432861 0.2797852
vt 0.2432861 0.2797852
vt 0.2432861 0.2797852
vt 0.2432861 0.2797852
vt 0.2432861 0.2797852
vt 0.2432861 0.2797852
vt 0.2432861 0.2797852
vt 0.2432861 0.2797852
vt 0.2432861 0.2797852
vt 0.2432861 0.2797852
vt 0.2432861 0.2797852
vt 0.2432861 0.2797852
vt 0.2432861 0.2797852
vt 0.2432861 0.2797852
vt 0.2432861 0.2797852
vt 0.2432861 0.2797852
vt 0.2432861 0.2797852
vt 0.2432861 0.2797852
vt 0.2432861 0.2797852
vt 0.2432861 0.2797852
vt 0.2432861 0.2797852
vt 0.2432861 0.2797852
vt 0.2432861 0.2797852
vt 0.2432861 0.2797852
vt 0.2432861 0.2797852
vt 0.2432861 0.2797852
vt 0.2432861 0.2797852
vt 0.2432861 0.2797852
vt 0.2432861 0.2797852
vt 0.2432861 0.2797852
vt 0.2432861 0.2797852
vt 0.2432861 0.2797852
vt 0.2432861 0.2797852
vt 0.2432861 0.2797852
vt 0.2432861 0.2797852
vt 0.2432861 0.2797852
vt 0.2432861 0.2797852
vt 0.2432861 0.2797852
vt 0.2432861 0.2797852
vt 0.2432861 0.2797852
vt 0.2432861 0.2797852
vt 0.2432861 0.2797852
vt 0.2432861 0.2797852
vt 0.2432861 0.2797852
vt 0.2432861 0.2797852
vt 0.2432861 0.2797852
vt 0.2432861 0.2797852
vt 0.2432861 0.2797852
vt 0.04788208 0.2086182
vt 0.04788208 0.2086182
vt 0.04788208 0.2086182
vt 0.04788208 0.2086182
vt 0.04788208 0.2086182
vt 0.04788208 0.2086182
vt 0.04788208 0.2086182
vt 0.04788208 0.2086182
vt 0.04788208 0.2086182
vt 0.04788208 0.2086182
vt 0.04788208 0.2086182
vt 0.04788208 0.2086182
vt 0.04788208 0.2086182
vt 0.04788208 0.2086182
vt 0.04788208 0.2086182
vt 0.04788208 0.2086182
vt 0.04788208 0.2086182
vt 0.04788208 0.2086182
vt 0.04788208 0.2086182
vt 0.04788208 0.2086182
vt 0.04788208 0.2086182
vt 0.04788208 0.2086182
vt 0.04788208 0.2086182
vt 0.04788208 0.2086182
vt 0.04788208 0.2086182
vt 0.04788208 0.2086182
vt 0.04788208 0.2086182
vt 0.04788208 0.2086182
vt 0.04788208 0.2086182
vt 0.04788208 0.2086182
vt 0.04788208 0.2086182
vt 0.04788208 0.2086182
vt 0.1392822 0.4455566
vt 0.1392822 0.4455566
vt 0.1392822 0.4455566
vt 0.1392822 0.4455566
vt 0.1392822 0.4455566
vt 0.1392822 0.4455566
vt 0.1392822 0.4455566
vt 0.1392822 0.4455566
vt 0.1392822 0.4455566
vt 0.1392822 0.4455566
vt 0.1392822 0.4455566
vt 0.1392822 0.4455566
vt 0.1392822 0.4455566
vt 0.1392822 0.4455566
vt 0.1392822 0.4455566
vt 0.1392822 0.4455566
vt 0.1392822 0.4455566
vt 0.1392822 0.4455566
vt 0.1392822 0.4455566
vt 0.1392822 0.4455566
vt 0.1392822 0.4455566
vt 0.1392822 0.4455566
vt 0.1392822 0.4455566
vt 0.1392822 0.4455566
vt 0.1392822 0.4455566
vt 0.1392822 0.4455566
vt 0.1392822 0.4455566
vt 0.1392822 0.4455566
vt 0.1392822 0.4455566
vt 0.1392822 0.4455566
vt 0.1392822 0.4455566
vt 0.1392822 0.4455566
vt 0.2432861 0.2797852
vt 0.2432861 0.2797852
vt 0.2432861 0.2797852
vt 0.2432861 0.2797852
vt 0.2432861 0.2797852
vt 0.2432861 0.2797852
vt 0.2432861 0.2797852
vt 0.2432861 0.2797852
vt 0.2432861 0.2797852
vn 0.2060547 0.8427734 -0.4975586
vn 0.2060547 0.8427734 -0.4975586
vn 0.2060547 0.8427734 -0.4975586
vn -0.2060547 0.8427734 -0.4975586
vn -0.2060547 0.8427734 -0.4975586
vn -0.2060547 0.8427734 -0.4975586
vn -0.4975586 0.8427734 -0.2060547
vn -0.4975586 0.8427734 -0.2060547
vn -0.4975586 0.8427734 -0.2060547
vn -0.4975586 0.8427734 0.2060547
vn -0.4975586 0.8427734 0.2060547
vn -0.4975586 0.8427734 0.2060547
vn -0.2060547 0.8427734 0.4975586
vn -0.2060547 0.8427734 0.4975586
vn -0.2060547 0.8427734 0.4975586
vn 0.2060547 0.8427734 0.4975586
vn 0.2060547 0.8427734 0.4975586
vn 0.2060547 0.8427734 0.4975586
vn 0.4975586 0.8427734 0.2060547
vn 0.4975586 0.8427734 0.2060547
vn 0.4975586 0.8427734 0.2060547
vn 0.4975586 0.8427734 -0.2060547
vn 0.4975586 0.8427734 -0.2060547
vn 0.4975586 0.8427734 -0.2060547
vn 0.3618164 -0.002864838 -0.9321289
vn 0.3615723 -0.0001597404 -0.9321289
vn 0.3618164 -0.002864838 -0.9321289
vn 0.3615723 -0.0001597404 -0.9321289
vn 0.3720703 0.001273155 -0.9282227
vn 0.3720703 0.001273155 -0.9282227
vn -0.4067383 0.003376007 -0.9135742
vn -0.4064941 0.0002287626 -0.9135742
vn -0.4067383 0.003376007 -0.9135742
vn -0.4064941 0.0002287626 -0.9135742
vn -0.3945313 -0.001460075 -0.9189453
vn -0.3945313 -0.001460075 -0.9189453
vn -0.9316406 0.01449585 -0.3625488
vn -0.9321289 0.001034737 -0.3625488
vn -0.9316406 0.01449585 -0.3625488
vn -0.9321289 0.001034737 -0.3625488
vn -0.9282227 -0.006210327 -0.3725586
vn -0.9282227 -0.006210327 -0.3725586
vn -0.9169922 0.02262878 0.3981934
vn -0.9165039 0.001486778 0.3994141
vn -0.9169922 0.02262878 0.3981934
vn -0.9165039 0.001486778 0.3994141
vn -0.9199219 -0.00982666 0.3916016
vn -0.9199219 -0.00982666 0.3916016
vn -0.3635254 0.02432251 0.9311523
vn -0.3618164 0.001317978 0.9321289
vn -0.3635254 0.02432251 0.9311523
vn -0.3618164 0.001317978 0.9321289
vn -0.3713379 -0.01084137 0.9287109
vn -0.3713379 -0.01084137 0.9287109
vn 0.4055176 0.01985168 0.9140625
vn 0.4064941 0.0008473396 0.9135742
vn 0.4055176 0.01985168 0.9140625
vn 0.4064941 0.0008473396 0.9135742
vn 0.3950195 -0.009078979 0.918457
vn 0.3950195 -0.009078979 0.918457
vn 0.9321289 0.01068115 0.3623047
vn 0.9321289 0.0004012585 0.3623047
vn 0.9321289 0.01068115 0.3623047
vn 0.9321289 0.0004012585 0.3623047
vn 0.9282227 -0.004940033 0.3725586
vn 0.9282227 -0.004940033 0.3725586
vn 0.9165039 0.0007982254 -0.3996582
vn 0.9165039 3.415346E-05 -0.3996582
vn 0.9165039 0.0007982254 -0.3996582
vn 0.9165039 3.415346E-05 -0.3996582
vn 0.9204102 -0.0003650188 -0.3911133
vn 0.9204102 -0.0003650188 -0.3911133
vn 0.09832764 0.9663086 -0.2373047
vn 0.09832764 0.9663086 -0.2373047
vn 0.09832764 0.9663086 -0.2373047
vn 0.09832764 0.9663086 -0.2373047
vn -0.09832764 0.9663086 -0.2373047
vn -0.09832764 0.9663086 -0.2373047
vn -0.09832764 0.9663086 -0.2373047
vn -0.09832764 0.9663086 -0.2373047
vn -0.2373047 0.9663086 -0.09832764
vn -0.2373047 0.9663086 -0.09832764
vn -0.2373047 0.9663086 -0.09832764
vn -0.2373047 0.9663086 -0.09832764
vn -0.2373047 0.9663086 0.09832764
vn -0.2373047 0.9663086 0.09832764
vn -0.2373047 0.9663086 0.09832764
vn -0.2373047 0.9663086 0.09832764
vn -0.09832764 0.9663086 0.2373047
vn -0.09832764 0.9663086 0.2373047
vn -0.09832764 0.9663086 0.2373047
vn -0.09832764 0.9663086 0.2373047
vn 0.09832764 0.9663086 0.2373047
vn 0.09832764 0.9663086 0.2373047
vn 0.09832764 0.9663086 0.2373047
vn 0.09832764 0.9663086 0.2373047
vn 0.2373047 0.9663086 0.0982666
vn 0.2373047 0.9663086 0.0982666
vn 0.2373047 0.9663086 0.0982666
vn 0.2373047 0.9663086 0.0982666
vn 0.2373047 0.9663086 -0.09832764
vn 0.2373047 0.9663086 -0.09832764
vn 0.2373047 0.9663086 -0.09832764
vn 0.2373047 0.9663086 -0.09832764
vn 0.3825684 0 -0.9238281
vn 0.3825684 0 -0.9238281
vn 0.3825684 0 -0.9238281
vn 0.3825684 0 -0.9238281
vn -0.3825684 0 -0.9238281
vn -0.3825684 0 -0.9238281
vn -0.3825684 0 -0.9238281
vn -0.3825684 0 -0.9238281
vn -0.9238281 0 -0.3828125
vn -0.9238281 0 -0.3828125
vn -0.9238281 0 -0.3828125
vn -0.9238281 0 -0.3828125
vn -0.9238281 0 0.3828125
vn -0.9238281 0 0.3828125
vn -0.9238281 0 0.3828125
vn -0.9238281 0 0.3828125
vn -0.3825684 0 0.9238281
vn -0.3825684 0 0.9238281
vn -0.3825684 0 0.9238281
vn -0.3825684 0 0.9238281
vn 0.3825684 0 0.9238281
vn 0.3825684 0 0.9238281
vn 0.3825684 0 0.9238281
vn 0.3825684 0 0.9238281
vn 0.9238281 0 0.3825684
vn 0.9238281 0 0.3825684
vn 0.9238281 0 0.3825684
vn 0.9238281 0 0.3825684
vn 0.9238281 0 -0.3825684
vn 0.9238281 0 -0.3825684
vn 0.9238281 0 -0.3825684
vn 0.9238281 0 -0.3825684
vn -0.3825684 0 -0.9238281
vn -0.3825684 0 -0.9238281
vn -0.3825684 0 -0.9238281
vn -0.3825684 0 -0.9238281
vn 0.3825684 0 -0.9238281
vn 0.3825684 0 -0.9238281
vn 0.3825684 0 -0.9238281
vn 0.3825684 0 -0.9238281
vn 0.9238281 0 -0.3828125
vn 0.9238281 0 -0.3828125
vn 0.9238281 0 -0.3828125
vn 0.9238281 0 -0.3828125
vn 0.9238281 0 0.3825684
vn 0.9238281 0 0.3825684
vn 0.9238281 0 0.3825684
vn 0.9238281 0 0.3825684
vn 0.3825684 0 0.9238281
vn 0.3825684 0 0.9238281
vn 0.3825684 0 0.9238281
vn 0.3825684 0 0.9238281
vn -0.3825684 0 0.9238281
vn -0.3825684 0 0.9238281
vn -0.3825684 0 0.9238281
vn -0.3825684 0 0.9238281
vn -0.9238281 0 0.3825684
vn -0.9238281 0 0.3825684
vn -0.9238281 0 0.3825684
vn -0.9238281 0 0.3825684
vn -0.9238281 0 -0.3828125
vn -0.9238281 0 -0.3828125
vn -0.9238281 0 -0.3828125
vn -0.9238281 0 -0.3828125
vn -0.3945313 -0.001460075 -0.9189453
vn -0.3825684 0 -0.9238281
vn -0.3825684 0 -0.9238281
vn -0.3945313 -0.001460075 -0.9189453
vn 0.3720703 0.001273155 -0.9282227
vn 0.3825684 0 -0.9238281
vn 0.3825684 0 -0.9238281
vn 0.3720703 0.001273155 -0.9282227
vn 0.9204102 -0.0003650188 -0.3911133
vn 0.9238281 0 -0.3828125
vn 0.9238281 0 -0.3828125
vn 0.9204102 -0.0003650188 -0.3911133
vn 0.9282227 -0.004940033 0.3725586
vn 0.9238281 0 0.3825684
vn 0.9238281 0 0.3825684
vn 0.9282227 -0.004940033 0.3725586
vn 0.3950195 -0.009078979 0.918457
vn 0.3825684 0 0.9238281
vn 0.3825684 0 0.9238281
vn 0.3950195 -0.009078979 0.918457
vn -0.3713379 -0.01084137 0.9287109
vn -0.3825684 0 0.9238281
vn -0.3825684 0 0.9238281
vn -0.3713379 -0.01084137 0.9287109
vn -0.9199219 -0.00982666 0.3916016
vn -0.9238281 0 0.3825684
vn -0.9238281 0 0.3825684
vn -0.9199219 -0.00982666 0.3916016
vn -0.9282227 -0.006210327 -0.3725586
vn -0.9238281 0 -0.3828125
vn -0.9238281 0 -0.3828125
vn -0.9282227 -0.006210327 -0.3725586
vn 0 -1 0
vn 0 -1 0
vn 0 -1 0
vn 0 -1 0
vn 0 -1 0
vn 0 -1 0
vn 0 -1 0
vn 0 -1 0
vn 0 -1 0
g SM_Prop_Sidewalk_Barrier_01_0
f 3/3/3 2/2/2 1/1/1
f 6/6/6 5/5/5 4/4/4
f 9/9/9 8/8/8 7/7/7
f 12/12/12 11/11/11 10/10/10
f 15/15/15 14/14/14 13/13/13
f 18/18/18 17/17/17 16/16/16
f 21/21/21 20/20/20 19/19/19
f 24/24/24 23/23/23 22/22/22
f 27/27/27 26/26/26 25/25/25
f 26/26/26 28/28/28 25/25/25
f 26/26/26 29/29/29 28/28/28
f 29/29/29 30/30/30 28/28/28
f 33/33/33 32/32/32 31/31/31
f 32/32/32 34/34/34 31/31/31
f 32/32/32 35/35/35 34/34/34
f 35/35/35 36/36/36 34/34/34
f 39/39/39 38/38/38 37/37/37
f 38/38/38 40/40/40 37/37/37
f 38/38/38 41/41/41 40/40/40
f 41/41/41 42/42/42 40/40/40
f 45/45/45 44/44/44 43/43/43
f 44/44/44 46/46/46 43/43/43
f 44/44/44 47/47/47 46/46/46
f 47/47/47 48/48/48 46/46/46
f 51/51/51 50/50/50 49/49/49
f 50/50/50 52/52/52 49/49/49
f 50/50/50 53/53/53 52/52/52
f 53/53/53 54/54/54 52/52/52
f 57/57/57 56/56/56 55/55/55
f 56/56/56 58/58/58 55/55/55
f 56/56/56 59/59/59 58/58/58
f 59/59/59 60/60/60 58/58/58
f 63/63/63 62/62/62 61/61/61
f 62/62/62 64/64/64 61/61/61
f 62/62/62 65/65/65 64/64/64
f 65/65/65 66/66/66 64/64/64
f 69/69/69 68/68/68 67/67/67
f 68/68/68 70/70/70 67/67/67
f 68/68/68 71/71/71 70/70/70
f 71/71/71 72/72/72 70/70/70
f 75/75/75 74/74/74 73/73/73
f 76/76/76 75/75/75 73/73/73
f 79/79/79 78/78/78 77/77/77
f 80/80/80 79/79/79 77/77/77
f 83/83/83 82/82/82 81/81/81
f 84/84/84 83/83/83 81/81/81
f 87/87/87 86/86/86 85/85/85
f 88/88/88 87/87/87 85/85/85
f 91/91/91 90/90/90 89/89/89
f 92/92/92 91/91/91 89/89/89
f 95/95/95 94/94/94 93/93/93
f 96/96/96 95/95/95 93/93/93
f 99/99/99 98/98/98 97/97/97
f 100/100/100 99/99/99 97/97/97
f 103/103/103 102/102/102 101/101/101
f 104/104/104 103/103/103 101/101/101
f 107/107/107 106/106/106 105/105/105
f 108/108/108 107/107/107 105/105/105
f 111/111/111 110/110/110 109/109/109
f 112/112/112 111/111/111 109/109/109
f 115/115/115 114/114/114 113/113/113
f 116/116/116 115/115/115 113/113/113
f 119/119/119 118/118/118 117/117/117
f 120/120/120 119/119/119 117/117/117
f 123/123/123 122/122/122 121/121/121
f 124/124/124 123/123/123 121/121/121
f 127/127/127 126/126/126 125/125/125
f 128/128/128 127/127/127 125/125/125
f 131/131/131 130/130/130 129/129/129
f 132/132/132 131/131/131 129/129/129
f 135/135/135 134/134/134 133/133/133
f 136/136/136 135/135/135 133/133/133
f 139/139/139 138/138/138 137/137/137
f 140/140/140 139/139/139 137/137/137
f 143/143/143 142/142/142 141/141/141
f 144/144/144 143/143/143 141/141/141
f 147/147/147 146/146/146 145/145/145
f 148/148/148 147/147/147 145/145/145
f 151/151/151 150/150/150 149/149/149
f 152/152/152 151/151/151 149/149/149
f 155/155/155 154/154/154 153/153/153
f 156/156/156 155/155/155 153/153/153
f 159/159/159 158/158/158 157/157/157
f 160/160/160 159/159/159 157/157/157
f 163/163/163 162/162/162 161/161/161
f 164/164/164 163/163/163 161/161/161
f 167/167/167 166/166/166 165/165/165
f 168/168/168 167/167/167 165/165/165
f 171/171/171 170/170/170 169/169/169
f 172/172/172 171/171/171 169/169/169
f 175/175/175 174/174/174 173/173/173
f 176/176/176 175/175/175 173/173/173
f 179/179/179 178/178/178 177/177/177
f 180/180/180 179/179/179 177/177/177
f 183/183/183 182/182/182 181/181/181
f 184/184/184 183/183/183 181/181/181
f 187/187/187 186/186/186 185/185/185
f 188/188/188 187/187/187 185/185/185
f 191/191/191 190/190/190 189/189/189
f 192/192/192 191/191/191 189/189/189
f 195/195/195 194/194/194 193/193/193
f 196/196/196 195/195/195 193/193/193
f 199/199/199 198/198/198 197/197/197
f 200/200/200 199/199/199 197/197/197
f 203/203/203 202/202/202 201/201/201
f 201/201/201 202/202/202 204/204/204
f 205/205/205 202/202/202 203/203/203
f 204/204/204 202/202/202 206/206/206
f 207/207/207 202/202/202 205/205/205
f 206/206/206 202/202/202 208/208/208
f 209/209/209 202/202/202 207/207/207
f 208/208/208 202/202/202 209/209/209
