g SM_Prop_JarLiquid_02
v 0.09242624 -0.06827407 -2.498002E-18
v 0.09709116 0.06827407 -1.302941E-11
v 0.06865381 0.06827407 0.06865381
v 0.0653552 -0.06827407 0.06535522
v 0.0653552 -0.06827407 -0.06535522
v 0.06865381 0.06827407 -0.06865381
v 0.09709116 0.06827407 -1.302941E-11
v 0.09242624 -0.06827407 -2.498002E-18
v -1.311701E-08 -0.06827407 -0.09242623
v -1.379334E-08 0.06827407 -0.09709116
v 0.06865381 0.06827407 -0.06865381
v 0.0653552 -0.06827407 -0.06535522
v -0.06535523 -0.06827407 -0.06535522
v -0.06865384 0.06827407 -0.06865381
v -1.379334E-08 0.06827407 -0.09709116
v -1.311701E-08 -0.06827407 -0.09242623
v -0.09242624 -0.06827407 4.135541E-11
v -0.09709116 0.06827407 2.173242E-11
v -0.06865384 0.06827407 -0.06865381
v -0.06535523 -0.06827407 -0.06535522
v -0.06535523 -0.06827407 0.06535522
v -0.06865384 0.06827407 0.06865381
v -0.09709116 0.06827407 2.173242E-11
v -0.09242624 -0.06827407 4.135541E-11
v -1.311701E-08 -0.06827407 0.09242623
v -1.379334E-08 0.06827407 0.09709116
v -0.06865384 0.06827407 0.06865381
v -0.06535523 -0.06827407 0.06535522
v 0.0653552 -0.06827407 0.06535522
v 0.06865381 0.06827407 0.06865381
v -1.379334E-08 0.06827407 0.09709116
v -1.311701E-08 -0.06827407 0.09242623
v -0.06865384 0.06827407 0.06865381
v -1.379334E-08 0.06827407 0.09709116
v -1.207763E-08 0.1043288 0.08497778
v -0.06008838 0.1043288 0.06008836
v -0.09709116 0.06827407 2.173242E-11
v -0.06865384 0.06827407 0.06865381
v -0.06008838 0.1043288 0.06008836
v -0.08497778 0.1043288 1.1134E-11
v -0.06865384 0.06827407 -0.06865381
v -0.09709116 0.06827407 2.173242E-11
v -0.08497778 0.1043288 1.1134E-11
v -0.06008838 0.1043288 -0.06008836
v -1.379334E-08 0.06827407 -0.09709116
v -0.06865384 0.06827407 -0.06865381
v -0.06008838 0.1043288 -0.06008836
v -1.207763E-08 0.1043288 -0.08497778
v 0.06865381 0.06827407 -0.06865381
v -1.379334E-08 0.06827407 -0.09709116
v -1.207763E-08 0.1043288 -0.08497778
v 0.06008835 0.1043288 -0.06008836
v 0.09709116 0.06827407 -1.302941E-11
v 0.06865381 0.06827407 -0.06865381
v 0.06008835 0.1043288 -0.06008836
v 0.08497778 0.1043288 -1.613721E-11
v 0.06865381 0.06827407 0.06865381
v 0.09709116 0.06827407 -1.302941E-11
v 0.08497778 0.1043288 -1.613721E-11
v 0.06008835 0.1043288 0.06008836
v -1.379334E-08 0.06827407 0.09709116
v 0.06865381 0.06827407 0.06865381
v 0.06008835 0.1043288 0.06008836
v -1.207763E-08 0.1043288 0.08497778
v -0.06008838 0.1043288 -0.06008836
v -0.08497778 0.1043288 1.1134E-11
v -0.06543873 0.1264342 -1.74337E-17
v -0.04627218 0.1264342 -0.04627217
v -1.207763E-08 0.1043288 -0.08497778
v -0.06008838 0.1043288 -0.06008836
v -0.04627218 0.1264342 -0.04627217
v -9.30624E-09 0.1264342 -0.06543873
v 0.06008835 0.1043288 -0.06008836
v -1.207763E-08 0.1043288 -0.08497778
v -9.30624E-09 0.1264342 -0.06543873
v 0.04627216 0.1264342 -0.04627217
v 0.08497778 0.1043288 -1.613721E-11
v 0.06008835 0.1043288 -0.06008836
v 0.04627216 0.1264342 -0.04627217
v 0.06543873 0.1264342 -1.757242E-11
v 0.06008835 0.1043288 0.06008836
v 0.08497778 0.1043288 -1.613721E-11
v 0.06543873 0.1264342 -1.757242E-11
v 0.04627216 0.1264342 0.04627217
v -1.207763E-08 0.1043288 0.08497778
v 0.06008835 0.1043288 0.06008836
v 0.04627216 0.1264342 0.04627217
v -9.30624E-09 0.1264342 0.06543873
v -0.06008838 0.1043288 0.06008836
v -1.207763E-08 0.1043288 0.08497778
v -9.30624E-09 0.1264342 0.06543873
v -0.04627218 0.1264342 0.04627217
v -0.08497778 0.1043288 1.1134E-11
v -0.06008838 0.1043288 0.06008836
v -0.04627218 0.1264342 0.04627217
v -0.06543873 0.1264342 -1.74337E-17
vt 0.1464964 0.3777744
vt 0.1464964 0.3780392
vt 0.1459374 0.378019
vt 0.1459374 0.3777542
vt 0.1465086 0.3778034
vt 0.1465086 0.3780682
vt 0.1464964 0.3780392
vt 0.1464964 0.3777744
vt 0.1459668 0.3778242
vt 0.1459668 0.3780891
vt 0.1465086 0.3780682
vt 0.1465086 0.3778034
vt 0.1451886 0.3778247
vt 0.1451886 0.3780895
vt 0.1459668 0.3780891
vt 0.1459668 0.3778242
vt 0.1446296 0.3778045
vt 0.1446296 0.3780693
vt 0.1451886 0.3780895
vt 0.1451886 0.3778247
vt 0.1446174 0.3777754
vt 0.1446174 0.3780403
vt 0.1446296 0.3780693
vt 0.1446296 0.3778045
vt 0.1451591 0.3777546
vt 0.1451591 0.3780194
vt 0.1446174 0.3780403
vt 0.1446174 0.3777754
vt 0.1459374 0.3777542
vt 0.1459374 0.378019
vt 0.1451591 0.3780194
vt 0.1451591 0.3777546
vt 0.1446174 0.3780403
vt 0.1451591 0.3780194
vt 0.1451591 0.3781518
vt 0.1446174 0.3781727
vt 0.1446296 0.3780693
vt 0.1446174 0.3780403
vt 0.1446174 0.3781727
vt 0.1446296 0.3782017
vt 0.1451886 0.3780895
vt 0.1446296 0.3780693
vt 0.1446296 0.3782017
vt 0.1451886 0.3782219
vt 0.1459668 0.3780891
vt 0.1451886 0.3780895
vt 0.1451886 0.3782219
vt 0.1459668 0.3782215
vt 0.1465086 0.3780682
vt 0.1459668 0.3780891
vt 0.1459668 0.3782215
vt 0.1465086 0.3782007
vt 0.1464964 0.3780392
vt 0.1465086 0.3780682
vt 0.1465086 0.3782007
vt 0.1464964 0.3781716
vt 0.1459374 0.378019
vt 0.1464964 0.3780392
vt 0.1464964 0.3781716
vt 0.1459374 0.3781514
vt 0.1451591 0.3780194
vt 0.1459374 0.378019
vt 0.1459374 0.3781514
vt 0.1451591 0.3781518
vt 0.1451886 0.3782219
vt 0.1446296 0.3782017
vt 0.1446296 0.3783342
vt 0.1451886 0.3783544
vt 0.1459668 0.3782215
vt 0.1451886 0.3782219
vt 0.1451886 0.3783544
vt 0.1459668 0.3783539
vt 0.1465086 0.3782007
vt 0.1459668 0.3782215
vt 0.1459668 0.3783539
vt 0.1465086 0.378333
vt 0.1464964 0.3781716
vt 0.1465086 0.3782007
vt 0.1465086 0.378333
vt 0.1464964 0.378304
vt 0.1459374 0.3781514
vt 0.1464964 0.3781716
vt 0.1464964 0.378304
vt 0.1459374 0.3782838
vt 0.1451591 0.3781518
vt 0.1459374 0.3781514
vt 0.1459374 0.3782838
vt 0.1451591 0.3782842
vt 0.1446174 0.3781727
vt 0.1451591 0.3781518
vt 0.1451591 0.3782842
vt 0.1446174 0.3783051
vt 0.1446296 0.3782017
vt 0.1446174 0.3781727
vt 0.1446174 0.3783051
vt 0.1446296 0.3783342
vn -0.9234197 0.03154698 -0.3824932
vn -0.9234197 0.03154698 -0.3824932
vn -0.9234197 0.03154698 -0.3824932
vn -0.9234197 0.03154698 -0.3824932
vn -0.9234197 0.03154698 0.3824932
vn -0.9234197 0.03154698 0.3824932
vn -0.9234197 0.03154698 0.3824932
vn -0.9234197 0.03154698 0.3824932
vn -0.382493 0.03154699 0.9234197
vn -0.382493 0.03154699 0.9234197
vn -0.382493 0.03154699 0.9234197
vn -0.382493 0.03154699 0.9234197
vn 0.382493 0.03154699 0.9234197
vn 0.382493 0.03154699 0.9234197
vn 0.382493 0.03154699 0.9234197
vn 0.382493 0.03154699 0.9234197
vn 0.9234197 0.03154697 0.3824928
vn 0.9234197 0.03154697 0.3824928
vn 0.9234197 0.03154697 0.3824928
vn 0.9234197 0.03154697 0.3824928
vn 0.9234197 0.03154697 -0.3824928
vn 0.9234197 0.03154697 -0.3824928
vn 0.9234197 0.03154697 -0.3824928
vn 0.9234197 0.03154697 -0.3824928
vn 0.382493 0.03154699 -0.9234197
vn 0.382493 0.03154699 -0.9234197
vn 0.382493 0.03154699 -0.9234197
vn 0.382493 0.03154699 -0.9234197
vn -0.382493 0.03154699 -0.9234197
vn -0.382493 0.03154699 -0.9234197
vn -0.382493 0.03154699 -0.9234197
vn -0.382493 0.03154699 -0.9234197
vn 0.3654818 -0.296445 -0.8823511
vn 0.3654818 -0.296445 -0.8823511
vn 0.3654818 -0.296445 -0.8823511
vn 0.3654818 -0.296445 -0.8823511
vn 0.8823512 -0.2964451 -0.3654816
vn 0.8823512 -0.2964451 -0.3654816
vn 0.8823512 -0.2964451 -0.3654816
vn 0.8823512 -0.2964451 -0.3654816
vn 0.8823512 -0.2964451 0.3654816
vn 0.8823512 -0.2964451 0.3654816
vn 0.8823512 -0.2964451 0.3654816
vn 0.8823512 -0.2964451 0.3654816
vn 0.3654818 -0.296445 0.8823511
vn 0.3654818 -0.296445 0.8823511
vn 0.3654818 -0.296445 0.8823511
vn 0.3654818 -0.296445 0.8823511
vn -0.3654818 -0.296445 0.8823511
vn -0.3654818 -0.296445 0.8823511
vn -0.3654818 -0.296445 0.8823511
vn -0.3654818 -0.296445 0.8823511
vn -0.882351 -0.296445 0.3654819
vn -0.882351 -0.296445 0.3654819
vn -0.882351 -0.296445 0.3654819
vn -0.882351 -0.296445 0.3654819
vn -0.882351 -0.296445 -0.3654819
vn -0.882351 -0.296445 -0.3654819
vn -0.882351 -0.296445 -0.3654819
vn -0.882351 -0.296445 -0.3654819
vn -0.3654818 -0.296445 -0.8823511
vn -0.3654818 -0.296445 -0.8823511
vn -0.3654818 -0.296445 -0.8823511
vn -0.3654818 -0.296445 -0.8823511
vn 0.7155899 -0.6325141 0.2964068
vn 0.7155899 -0.6325141 0.2964068
vn 0.7155899 -0.6325141 0.2964068
vn 0.7155899 -0.6325141 0.2964068
vn 0.2964069 -0.6325142 0.7155899
vn 0.2964069 -0.6325142 0.7155899
vn 0.2964069 -0.6325142 0.7155899
vn 0.2964069 -0.6325142 0.7155899
vn -0.296407 -0.6325141 0.7155899
vn -0.296407 -0.6325141 0.7155899
vn -0.296407 -0.6325141 0.7155899
vn -0.296407 -0.6325141 0.7155899
vn -0.7155898 -0.6325141 0.2964072
vn -0.7155898 -0.6325141 0.2964072
vn -0.7155898 -0.6325141 0.2964072
vn -0.7155898 -0.6325141 0.2964072
vn -0.7155898 -0.6325141 -0.2964072
vn -0.7155898 -0.6325141 -0.2964072
vn -0.7155898 -0.6325141 -0.2964072
vn -0.7155898 -0.6325141 -0.2964072
vn -0.296407 -0.6325141 -0.7155899
vn -0.296407 -0.6325141 -0.7155899
vn -0.296407 -0.6325141 -0.7155899
vn -0.296407 -0.6325141 -0.7155899
vn 0.2964069 -0.6325142 -0.7155899
vn 0.2964069 -0.6325142 -0.7155899
vn 0.2964069 -0.6325142 -0.7155899
vn 0.2964069 -0.6325142 -0.7155899
vn 0.7155899 -0.6325141 -0.2964068
vn 0.7155899 -0.6325141 -0.2964068
vn 0.7155899 -0.6325141 -0.2964068
vn 0.7155899 -0.6325141 -0.2964068
g SM_Prop_JarLiquid_02_0
f 3/3/3 2/2/2 1/1/1
f 4/4/4 3/3/3 1/1/1
f 7/7/7 6/6/6 5/5/5
f 8/8/8 7/7/7 5/5/5
f 11/11/11 10/10/10 9/9/9
f 12/12/12 11/11/11 9/9/9
f 15/15/15 14/14/14 13/13/13
f 16/16/16 15/15/15 13/13/13
f 19/19/19 18/18/18 17/17/17
f 20/20/20 19/19/19 17/17/17
f 23/23/23 22/22/22 21/21/21
f 24/24/24 23/23/23 21/21/21
f 27/27/27 26/26/26 25/25/25
f 28/28/28 27/27/27 25/25/25
f 31/31/31 30/30/30 29/29/29
f 32/32/32 31/31/31 29/29/29
f 35/35/35 34/34/34 33/33/33
f 36/36/36 35/35/35 33/33/33
f 39/39/39 38/38/38 37/37/37
f 40/40/40 39/39/39 37/37/37
f 43/43/43 42/42/42 41/41/41
f 44/44/44 43/43/43 41/41/41
f 47/47/47 46/46/46 45/45/45
f 48/48/48 47/47/47 45/45/45
f 51/51/51 50/50/50 49/49/49
f 52/52/52 51/51/51 49/49/49
f 55/55/55 54/54/54 53/53/53
f 56/56/56 55/55/55 53/53/53
f 59/59/59 58/58/58 57/57/57
f 60/60/60 59/59/59 57/57/57
f 63/63/63 62/62/62 61/61/61
f 64/64/64 63/63/63 61/61/61
f 67/67/67 66/66/66 65/65/65
f 68/68/68 67/67/67 65/65/65
f 71/71/71 70/70/70 69/69/69
f 72/72/72 71/71/71 69/69/69
f 75/75/75 74/74/74 73/73/73
f 76/76/76 75/75/75 73/73/73
f 79/79/79 78/78/78 77/77/77
f 80/80/80 79/79/79 77/77/77
f 83/83/83 82/82/82 81/81/81
f 84/84/84 83/83/83 81/81/81
f 87/87/87 86/86/86 85/85/85
f 88/88/88 87/87/87 85/85/85
f 91/91/91 90/90/90 89/89/89
f 92/92/92 91/91/91 89/89/89
f 95/95/95 94/94/94 93/93/93
f 96/96/96 95/95/95 93/93/93
