g SM_Prop_Door_03_Glass
v -1.052774 1.253387 0.01825333
v -1.052773 2.48096 0.01825333
v -0.09797475 2.48096 0.01825333
v -0.09797475 1.253387 0.01825333
v -1.052774 1.253387 -0.01825714
v -0.09797475 1.253387 -0.01825714
v -0.09797475 2.48096 -0.01825714
v -1.052773 2.48096 -0.01825714
v -1.052773 0.1081132 -0.01825714
v -0.09797475 0.1081132 -0.01825714
v -0.09797475 1.071914 -0.01825714
v -1.052774 1.071914 -0.01825714
v -1.052773 0.1081132 0.01825333
v -1.052774 1.071914 0.01825333
v -0.09797475 1.071914 0.01825333
v -0.09797475 0.1081132 0.01825333
vt 0.5014648 0.001634598
vt 0.5014648 0.1218872
vt 0.5922852 0.1218872
vt 0.5922852 0.001634598
vt 0.5922852 0.001634598
vt 0.5009766 0.001634598
vt 0.5009766 0.1218872
vt 0.5922852 0.1218872
vt 0.5922852 0.001634598
vt 0.5009766 0.001634598
vt 0.5009766 0.1218872
vt 0.5922852 0.1218872
vt 0.5014648 0.001634598
vt 0.5014648 0.1218872
vt 0.5922852 0.1218872
vt 0.5922852 0.001634598
vn 0 0 1
vn 0 0 1
vn 0 0 1
vn 0 0 1
vn 0 0 -1
vn 0 0 -1
vn 0 0 -1
vn 0 0 -1
vn 0 0 -1
vn 0 0 -1
vn 0 0 -1
vn 0 0 -1
vn 0 0 1
vn 0 0 1
vn 0 0 1
vn 0 0 1
g SM_Prop_Door_03_Glass_0
f 3/3/3 2/2/2 1/1/1
f 4/4/4 3/3/3 1/1/1
f 7/7/7 6/6/6 5/5/5
f 8/8/8 7/7/7 5/5/5
f 11/11/11 10/10/10 9/9/9
f 12/12/12 11/11/11 9/9/9
f 15/15/15 14/14/14 13/13/13
f 16/16/16 15/15/15 13/13/13
