g SM_Prop_Posters_03
v -0.3027118 0.01650614 0.09397736
v -0.3000766 0.01650614 -0.04181916
v -0.1412622 0.01650614 0.09475281
v -0.1771851 0.01650614 -0.04185547
v 0.1156851 0.01650614 -0.0931836
v 0.006601868 0.01650614 0.2160358
v -0.1038437 0.01650614 0.2427545
v 0.3027118 0.01650614 -0.09204713
v 0.007697449 0.01650614 0.332536
v 0.301102 0.01650614 0.33496
v 0.1038071 0.01650614 -0.148151
v -0.2066495 0.01650614 -0.1694968
v 0.005621948 0.01650614 -0.2249536
v 0.1422897 0.01650614 -0.2234235
v 0.1404044 0.01650614 -0.1492865
v 0.006346741 0.01650614 -0.3341034
v 0.1408545 0.01650614 -0.3349603
v -0.3027118 0.01650614 0.09397736
v -0.3027118 0 0.09397736
v -0.3000766 0.01650614 -0.04181916
v -0.3000766 0 -0.04181916
v -0.1412622 0.01650614 0.09475281
v -0.1412622 0 0.09475281
v -0.3027118 0.01650614 0.09397736
v -0.3027118 0 0.09397736
v -0.1038437 0.01650614 0.2427545
v -0.1038437 0 0.2427545
v -0.1412622 0.01650614 0.09475281
v -0.1412622 0 0.09475281
v 0.006601868 0.01650614 0.2160358
v 0.006601868 0 0.2160358
v -0.1038437 0.01650614 0.2427545
v -0.1038437 0 0.2427545
v 0.007697449 0.01650614 0.332536
v 0.007697449 0 0.332536
v 0.006601868 0.01650614 0.2160358
v 0.006601868 0 0.2160358
v 0.301102 0.01650614 0.33496
v 0.301102 0 0.33496
v 0.007697449 0.01650614 0.332536
v 0.007697449 0 0.332536
v 0.3027118 0.01650614 -0.09204713
v 0.3027118 0 -0.09204713
v 0.301102 0.01650614 0.33496
v 0.301102 0 0.33496
v 0.1156851 0.01650614 -0.0931836
v 0.1156851 1.192093E-09 -0.0931836
v 0.3027118 0.01650614 -0.09204713
v 0.3027118 0 -0.09204713
v 0.1404044 0.01650614 -0.1492865
v 0.1404044 0 -0.1492865
v 0.1038071 0.01650614 -0.148151
v 0.1038071 0 -0.148151
v 0.1422897 0.01650614 -0.2234235
v 0.1422897 0 -0.2234235
v 0.1404044 0.01650614 -0.1492865
v 0.1404044 0 -0.1492865
v 0.1408545 0.01650614 -0.3349603
v 0.1408545 0 -0.3349603
v 0.1422897 0.01650614 -0.2234235
v 0.1422897 0 -0.2234235
v 0.006346741 0.01650614 -0.3341034
v 0.006346741 0 -0.3341034
v 0.1408545 0.01650614 -0.3349603
v 0.1408545 0 -0.3349603
v 0.005621948 0.01650614 -0.2249536
v 0.005621948 0 -0.2249536
v 0.006346741 0.01650614 -0.3341034
v 0.006346741 0 -0.3341034
v -0.2066495 0.01650614 -0.1694968
v -0.2066495 0 -0.1694968
v 0.005621948 0.01650614 -0.2249536
v 0.005621948 0 -0.2249536
v -0.1771851 0.01650614 -0.04185547
v -0.1771851 0 -0.04185547
v -0.2066495 0.01650614 -0.1694968
v -0.2066495 0 -0.1694968
v -0.3000766 0.01650614 -0.04181916
v -0.3000766 0 -0.04181916
v -0.1771851 0.01650614 -0.04185547
v -0.1771851 0 -0.04185547
v 0.1038071 0.01650614 -0.148151
v 0.1038071 0 -0.148151
v 0.1156851 0.01650614 -0.0931836
v 0.1156851 1.192093E-09 -0.0931836
vt 0.1601046 0.5845827
vt 0.1607372 0.6173182
vt 0.1990237 0.5843967
vt 0.1903615 0.6173277
vt 0.2609598 0.6297026
vt 0.2346703 0.5551608
vt 0.2080468 0.5487192
vt 0.3060445 0.6294298
vt 0.2349367 0.5270769
vt 0.3056649 0.5264943
vt 0.2580954 0.6429532
vt 0.1832562 0.648097
vt 0.2344253 0.6614668
vt 0.2673706 0.6610988
vt 0.2669175 0.6432271
vt 0.2345979 0.6877787
vt 0.2670223 0.6879861
vt 0.2882587 0.691829
vt 0.2882587 0.689061
vt 0.2827227 0.691829
vt 0.2827228 0.689061
vt 0.2882587 0.691829
vt 0.2882587 0.689061
vt 0.2827227 0.691829
vt 0.2827228 0.689061
vt 0.2882587 0.691829
vt 0.2882587 0.689061
vt 0.2827227 0.691829
vt 0.2827227 0.689061
vt 0.2882587 0.691829
vt 0.2882587 0.689061
vt 0.2827227 0.691829
vt 0.2827227 0.689061
vt 0.2882587 0.691829
vt 0.2882587 0.689061
vt 0.2827227 0.691829
vt 0.2827228 0.689061
vt 0.2882587 0.691829
vt 0.2882587 0.689061
vt 0.2827227 0.691829
vt 0.2827227 0.689061
vt 0.2882587 0.691829
vt 0.2882587 0.689061
vt 0.2827227 0.691829
vt 0.2827228 0.689061
vt 0.2882587 0.691829
vt 0.2882587 0.689061
vt 0.2827227 0.691829
vt 0.2827227 0.689061
vt 0.2882587 0.691829
vt 0.2882587 0.689061
vt 0.2827227 0.691829
vt 0.2827228 0.689061
vt 0.2882587 0.691829
vt 0.2882587 0.689061
vt 0.2827227 0.691829
vt 0.2827228 0.689061
vt 0.2882587 0.691829
vt 0.2882587 0.689061
vt 0.2827227 0.691829
vt 0.2827227 0.689061
vt 0.2882587 0.691829
vt 0.2882587 0.689061
vt 0.2827227 0.691829
vt 0.2827227 0.689061
vt 0.2882587 0.691829
vt 0.2882587 0.689061
vt 0.2827227 0.691829
vt 0.2827227 0.689061
vt 0.2882587 0.691829
vt 0.2882587 0.689061
vt 0.2827227 0.691829
vt 0.2827227 0.689061
vt 0.2882587 0.691829
vt 0.2882587 0.689061
vt 0.2827227 0.691829
vt 0.2827227 0.689061
vt 0.2882587 0.691829
vt 0.2882587 0.689061
vt 0.2827227 0.691829
vt 0.2827228 0.689061
vt 0.2882587 0.691829
vt 0.2882587 0.689061
vt 0.2827227 0.691829
vt 0.2827228 0.689061
vn 0 1 0
vn 0 1 0
vn 0 1 0
vn 0 1 0
vn 0 1 0
vn 0 1 0
vn 0 1 0
vn 0 1 0
vn 0 1 0
vn 0 1 0
vn 0 1 0
vn 0 1 0
vn 0 1 0
vn 0 1 0
vn 0 1 0
vn 0 1 0
vn 0 1 0
vn -0.9998118 0 -0.0194018
vn -0.9998118 0 -0.0194018
vn -0.9998118 0 -0.0194018
vn -0.9998118 0 -0.0194018
vn -0.004803002 0 0.9999884
vn -0.004803002 0 0.9999884
vn -0.004803002 0 0.9999884
vn -0.004803002 0 0.9999884
vn -0.9694947 0 0.2451124
vn -0.9694947 0 0.2451124
vn -0.9694947 0 0.2451124
vn -0.9694947 0 0.2451124
vn 0.2351351 0 0.9719627
vn 0.2351351 0 0.9719627
vn 0.2351351 0 0.9719627
vn 0.2351351 0 0.9719627
vn -0.9999558 0 0.009403693
vn -0.9999558 0 0.009403693
vn -0.9999558 0 0.009403693
vn -0.9999558 0 0.009403693
vn -0.008261389 0 0.9999659
vn -0.008261389 0 0.9999659
vn -0.008261389 0 0.9999659
vn -0.008261389 0 0.9999659
vn 0.999993 0 0.003769939
vn 0.999993 0 0.003769939
vn 0.999993 0 0.003769939
vn 0.999993 0 0.003769939
vn 0.006076426 0 -0.9999815
vn 0.006076426 0 -0.9999815
vn 0.006076426 0 -0.9999815
vn 0.006076426 0 -0.9999815
vn 0.03101358 0 0.999519
vn 0.03101358 0 0.999519
vn 0.03101358 0 0.999519
vn 0.03101358 0 0.999519
vn 1 0 -0.0001036315
vn 0.9999199 0 0.01266164
vn 0.9996768 0 0.02542277
vn 0.9996768 0 0.02542277
vn 0.9999173 0 -0.0128668
vn 0.9999173 0 -0.0128668
vn 1 0 -0.0001036315
vn 0.9999199 0 0.01266164
vn -0.006370758 0 -0.9999797
vn -0.006370758 0 -0.9999797
vn -0.006370758 0 -0.9999797
vn -0.006370758 0 -0.9999797
vn -0.9999779 0 -0.006640201
vn -0.9999779 0 -0.006640201
vn -0.9999779 0 -0.006640201
vn -0.9999779 0 -0.006640201
vn -0.2527705 0 -0.9675262
vn -0.2527705 0 -0.9675262
vn -0.2527705 0 -0.9675262
vn -0.2527705 0 -0.9675262
vn -0.9743766 0 0.2249228
vn -0.9743766 0 0.2249228
vn -0.9743766 0 0.2249228
vn -0.9743766 0 0.2249228
vn -0.000295512 0 -1
vn -0.000295512 0 -1
vn -0.000295512 0 -1
vn -0.000295512 0 -1
vn 0.9774391 0 -0.2112176
vn 0.9774391 0 -0.2112176
vn 0.9774391 0 -0.2112176
vn 0.9774391 0 -0.2112176
g SM_Prop_Posters_03_0
f 3/3/3 2/2/2 1/1/1
f 3/3/3 4/4/4 2/2/2
f 5/5/5 4/4/4 3/3/3
f 5/5/5 3/3/3 6/6/6
f 6/6/6 3/3/3 7/7/7
f 5/5/5 6/6/6 8/8/8
f 8/8/8 6/6/6 9/9/9
f 8/8/8 9/9/9 10/10/10
f 11/11/11 4/4/4 5/5/5
f 11/11/11 12/12/12 4/4/4
f 11/11/11 13/13/13 12/12/12
f 14/14/14 13/13/13 11/11/11
f 14/14/14 11/11/11 15/15/15
f 13/13/13 14/14/14 16/16/16
f 16/16/16 14/14/14 17/17/17
f 20/20/20 19/19/19 18/18/18
f 20/20/20 21/21/21 19/19/19
f 24/24/24 23/23/23 22/22/22
f 24/24/24 25/25/25 23/23/23
f 28/28/28 27/27/27 26/26/26
f 28/28/28 29/29/29 27/27/27
f 32/32/32 31/31/31 30/30/30
f 32/32/32 33/33/33 31/31/31
f 36/36/36 35/35/35 34/34/34
f 36/36/36 37/37/37 35/35/35
f 40/40/40 39/39/39 38/38/38
f 40/40/40 41/41/41 39/39/39
f 44/44/44 43/43/43 42/42/42
f 44/44/44 45/45/45 43/43/43
f 48/48/48 47/47/47 46/46/46
f 48/48/48 49/49/49 47/47/47
f 52/52/52 51/51/51 50/50/50
f 52/52/52 53/53/53 51/51/51
f 56/56/56 55/55/55 54/54/54
f 56/56/56 57/57/57 55/55/55
f 60/60/60 59/59/59 58/58/58
f 60/60/60 61/61/61 59/59/59
f 64/64/64 63/63/63 62/62/62
f 64/64/64 65/65/65 63/63/63
f 68/68/68 67/67/67 66/66/66
f 68/68/68 69/69/69 67/67/67
f 72/72/72 71/71/71 70/70/70
f 72/72/72 73/73/73 71/71/71
f 76/76/76 75/75/75 74/74/74
f 76/76/76 77/77/77 75/75/75
f 80/80/80 79/79/79 78/78/78
f 80/80/80 81/81/81 79/79/79
f 84/84/84 83/83/83 82/82/82
f 84/84/84 85/85/85 83/83/83
