g SM_Prop_Bank_Door_Left_01
v 0.1554585 -0.4048908 0.0469017
v 0.3530064 0.1506596 0.0469017
v 0.3882389 0.1506595 0.0469017
v 0.1170026 -0.4048908 0.0469017
v 0.1170026 -1.094839 0.0469017
v 0.1554585 -1.094839 0.0469017
v 0.1545942 -1.214673 0.0469017
v -0.3087331 -1.094839 0.0469017
v -0.3882388 -1.214673 0.04690075
v -0.3882388 -0.4048908 0.0469017
v -0.3087331 -0.4048908 0.0469017
v -0.3882388 0.1506596 0.0469017
v -0.3087331 0.1506596 0.0469017
v -0.3087331 1.130177 0.0469017
v -0.3882388 1.214673 0.04690075
v 0.3873728 1.214673 0.0469017
v 0.3530064 1.130177 0.0469017
v 0.3882389 1.130177 0.0469017
v 0.3530064 0.1506596 0.0469017
v 0.3882389 0.1506595 0.0469017
v 0.06128883 -1.048843 0.07925224
v -0.2824648 -1.048843 0.07925224
v -0.2777309 -0.407369 0.07925224
v 0.06602272 -0.407369 0.07925224
v -0.2698611 0.1667935 0.07925224
v 0.3078672 0.1667935 0.07925224
v 0.3110029 1.064877 0.07925224
v -0.2667294 1.064877 0.07925224
v 0.1170026 -1.094839 0.0469017
v 0.06128883 -1.048843 0.07925224
v 0.06602272 -0.407369 0.07925224
v 0.1170026 -0.4048908 0.0469017
v -0.3087331 -0.4048908 0.0469017
v -0.2777309 -0.407369 0.07925224
v -0.2824648 -1.048843 0.07925224
v -0.3087331 -1.094839 0.0469017
v -0.3087331 -1.094839 0.0469017
v -0.2824648 -1.048843 0.07925224
v 0.06128883 -1.048843 0.07925224
v 0.1170026 -1.094839 0.0469017
v 0.1170026 -0.4048908 0.0469017
v 0.06602272 -0.407369 0.07925224
v 0.3078672 0.1667935 0.07925224
v 0.3530064 0.1506596 0.0469017
v -0.3087331 0.1506596 0.0469017
v -0.2777309 -0.407369 0.07925224
v -0.3087331 -0.4048908 0.0469017
v -0.2698611 0.1667935 0.07925224
v -0.3087331 1.130177 0.0469017
v -0.2667294 1.064877 0.07925224
v 0.3530064 1.130177 0.0469017
v 0.3110029 1.064877 0.07925224
v -0.2667294 1.064877 0.07925224
v -0.3087331 1.130177 0.0469017
v 0.3530064 0.1506596 0.0469017
v 0.3078672 0.1667935 0.07925224
v 0.3110029 1.064877 0.07925224
v 0.3530064 1.130177 0.0469017
v -0.3882388 -1.214673 0.04690075
v -0.3882388 -1.214673 -0.04690071
v -0.3882388 -0.4048908 -0.0469017
v -0.3882388 -0.4048908 0.0469017
v -0.3882388 0.1506596 -0.0469017
v -0.3882388 0.1506596 0.0469017
v -0.3882388 1.214673 -0.04690071
v -0.3882388 1.214673 0.04690075
v -0.3882388 1.214673 0.04690075
v -0.3882388 1.214673 -0.04690071
v 0.3873728 1.214673 -0.0469017
v 0.3873728 1.214673 0.0469017
v 0.3873728 1.214673 0.0469017
v 0.3873728 1.214673 -0.0469017
v 0.3882389 1.130177 -0.0469017
v 0.3882389 1.130177 0.0469017
v 0.3882389 0.1506595 -0.0469017
v 0.3882389 0.1506595 0.0469017
v 0.3882389 0.1506595 0.0469017
v 0.3882389 0.1506595 -0.0469017
v 0.1554585 -0.4048908 -0.0469017
v 0.1554585 -0.4048908 0.0469017
v 0.1554585 -0.4048908 0.0469017
v 0.1554585 -0.4048908 -0.0469017
v 0.1554585 -1.094839 -0.0469017
v 0.1554585 -1.094839 0.0469017
v 0.1545942 -1.214673 -0.0469017
v 0.1545942 -1.214673 0.0469017
v 0.1554585 -0.4048908 -0.0469017
v 0.3882389 0.1506595 -0.0469017
v 0.3530064 0.1506596 -0.0469017
v 0.1170026 -0.4048908 -0.0469017
v 0.1170026 -1.094839 -0.0469017
v 0.1554585 -1.094839 -0.0469017
v 0.1545942 -1.214673 -0.0469017
v -0.3087331 -1.094839 -0.0469017
v -0.3882388 -1.214673 -0.04690071
v -0.3882388 -0.4048908 -0.0469017
v -0.3087331 -0.4048908 -0.0469017
v -0.3882388 0.1506596 -0.0469017
v -0.3087331 0.1506596 -0.0469017
v -0.3087331 1.130177 -0.0469017
v -0.3882388 1.214673 -0.04690071
v 0.3873728 1.214673 -0.0469017
v 0.3530064 1.130177 -0.0469017
v 0.3882389 1.130177 -0.0469017
v 0.3530064 0.1506596 -0.0469017
v 0.3882389 0.1506595 -0.0469017
v 0.06128883 -1.048843 -0.07925224
v -0.2777309 -0.407369 -0.07925224
v -0.2824648 -1.048843 -0.07925224
v 0.06602272 -0.407369 -0.07925224
v -0.2698611 0.1667935 -0.07925224
v 0.3078672 0.1667935 -0.07925224
v 0.3110029 1.064877 -0.07925224
v -0.2667294 1.064877 -0.07925224
v 0.1170026 -1.094839 -0.0469017
v 0.1170026 -0.4048908 -0.0469017
v 0.06602272 -0.407369 -0.07925224
v 0.06128883 -1.048843 -0.07925224
v -0.3087331 -0.4048908 -0.0469017
v -0.3087331 -1.094839 -0.0469017
v -0.2824648 -1.048843 -0.07925224
v -0.2777309 -0.407369 -0.07925224
v -0.3087331 -1.094839 -0.0469017
v 0.1170026 -1.094839 -0.0469017
v 0.06128883 -1.048843 -0.07925224
v -0.2824648 -1.048843 -0.07925224
v 0.1170026 -0.4048908 -0.0469017
v 0.3530064 0.1506596 -0.0469017
v 0.3078672 0.1667935 -0.07925224
v 0.06602272 -0.407369 -0.07925224
v -0.3087331 0.1506596 -0.0469017
v -0.3087331 -0.4048908 -0.0469017
v -0.2777309 -0.407369 -0.07925224
v -0.2698611 0.1667935 -0.07925224
v -0.3087331 1.130177 -0.0469017
v -0.2667294 1.064877 -0.07925224
v 0.3530064 1.130177 -0.0469017
v -0.3087331 1.130177 -0.0469017
v -0.2667294 1.064877 -0.07925224
v 0.3110029 1.064877 -0.07925224
v 0.3530064 0.1506596 -0.0469017
v 0.3530064 1.130177 -0.0469017
v 0.3110029 1.064877 -0.07925224
v 0.3078672 0.1667935 -0.07925224
v -0.3882388 -1.214673 0.04690075
v 0.1545942 -1.214673 0.0469017
v 0.1545942 -1.214673 -0.0469017
v -0.3882388 -1.214673 -0.04690071
vt 0.08068848 0.3054199
vt 0.08068848 0.3054199
vt 0.08068848 0.3054199
vt 0.08068848 0.3054199
vt 0.08068848 0.3054199
vt 0.08068848 0.3054199
vt 0.08068848 0.3054199
vt 0.08068848 0.3054199
vt 0.08068848 0.3054199
vt 0.08068848 0.3054199
vt 0.08068848 0.3054199
vt 0.08068848 0.3054199
vt 0.08068848 0.3054199
vt 0.08068848 0.3054199
vt 0.08068848 0.3054199
vt 0.08068848 0.3054199
vt 0.08068848 0.3054199
vt 0.08068848 0.3054199
vt 0.08068848 0.3054199
vt 0.08068848 0.3054199
vt 0.2695313 0.3027344
vt 0.2695313 0.3027344
vt 0.2695313 0.3027344
vt 0.2695313 0.3027344
vt 0.2695313 0.3027344
vt 0.2695313 0.3027344
vt 0.2695313 0.3027344
vt 0.2695313 0.3027344
vt 0.2695313 0.3027344
vt 0.2695313 0.3027344
vt 0.2695313 0.3027344
vt 0.2695313 0.3027344
vt 0.2695313 0.3027344
vt 0.2695313 0.3027344
vt 0.2695313 0.3027344
vt 0.2695313 0.3027344
vt 0.2695313 0.3027344
vt 0.2695313 0.3027344
vt 0.2695313 0.3027344
vt 0.2695313 0.3027344
vt 0.2695313 0.3027344
vt 0.2695313 0.3027344
vt 0.2695313 0.3027344
vt 0.2695313 0.3027344
vt 0.2695313 0.3027344
vt 0.2695313 0.3027344
vt 0.2695313 0.3027344
vt 0.2695313 0.3027344
vt 0.2695313 0.3027344
vt 0.2695313 0.3027344
vt 0.2695313 0.3027344
vt 0.2695313 0.3027344
vt 0.2695313 0.3027344
vt 0.2695313 0.3027344
vt 0.2695313 0.3027344
vt 0.2695313 0.3027344
vt 0.2695313 0.3027344
vt 0.2695313 0.3027344
vt 0.2348633 0.2298584
vt 0.2348633 0.2298584
vt 0.2348633 0.2298584
vt 0.2348633 0.2298584
vt 0.2348633 0.2298584
vt 0.2348633 0.2298584
vt 0.2348633 0.2298584
vt 0.2348633 0.2298584
vt 0.2348633 0.2298584
vt 0.2348633 0.2298584
vt 0.2348633 0.2298584
vt 0.2348633 0.2298584
vt 0.2348633 0.2298584
vt 0.2348633 0.2298584
vt 0.2348633 0.2298584
vt 0.2348633 0.2298584
vt 0.2348633 0.2298584
vt 0.2348633 0.2298584
vt 0.2348633 0.2298584
vt 0.2348633 0.2298584
vt 0.2348633 0.2298584
vt 0.2348633 0.2298584
vt 0.2348633 0.2298584
vt 0.2348633 0.2298584
vt 0.2348633 0.2298584
vt 0.2348633 0.2298584
vt 0.2348633 0.2298584
vt 0.2348633 0.2298584
vt 0.08068848 0.3054199
vt 0.08068848 0.3054199
vt 0.08068848 0.3054199
vt 0.08068848 0.3054199
vt 0.08068848 0.3054199
vt 0.08068848 0.3054199
vt 0.08068848 0.3054199
vt 0.08068848 0.3054199
vt 0.08068848 0.3054199
vt 0.08068848 0.3054199
vt 0.08068848 0.3054199
vt 0.08068848 0.3054199
vt 0.08068848 0.3054199
vt 0.08068848 0.3054199
vt 0.08068848 0.3054199
vt 0.08068848 0.3054199
vt 0.08068848 0.3054199
vt 0.08068848 0.3054199
vt 0.08068848 0.3054199
vt 0.08068848 0.3054199
vt 0.2695313 0.3027344
vt 0.2695313 0.3027344
vt 0.2695313 0.3027344
vt 0.2695313 0.3027344
vt 0.2695313 0.3027344
vt 0.2695313 0.3027344
vt 0.2695313 0.3027344
vt 0.2695313 0.3027344
vt 0.2695313 0.3027344
vt 0.2695313 0.3027344
vt 0.2695313 0.3027344
vt 0.2695313 0.3027344
vt 0.2695313 0.3027344
vt 0.2695313 0.3027344
vt 0.2695313 0.3027344
vt 0.2695313 0.3027344
vt 0.2695313 0.3027344
vt 0.2695313 0.3027344
vt 0.2695313 0.3027344
vt 0.2695313 0.3027344
vt 0.2695313 0.3027344
vt 0.2695313 0.3027344
vt 0.2695313 0.3027344
vt 0.2695313 0.3027344
vt 0.2695313 0.3027344
vt 0.2695313 0.3027344
vt 0.2695313 0.3027344
vt 0.2695313 0.3027344
vt 0.2695313 0.3027344
vt 0.2695313 0.3027344
vt 0.2695313 0.3027344
vt 0.2695313 0.3027344
vt 0.2695313 0.3027344
vt 0.2695313 0.3027344
vt 0.2695313 0.3027344
vt 0.2695313 0.3027344
vt 0.2695313 0.3027344
vt 0.2695313 0.3027344
vt 0.2348633 0.2298584
vt 0.2348633 0.2298584
vt 0.2348633 0.2298584
vt 0.2348633 0.2298584
vn 0 0 1
vn 0 0 1
vn 0 0 1
vn 0 0 1
vn 0 0 1
vn 0 0 1
vn 0 0 1
vn 0 0 1
vn 0 0 1
vn 0 0 1
vn 0 0 1
vn 0 0 1
vn 0 0 1
vn 0 0 1
vn 0 0 1
vn 0 0 1
vn 0 0 1
vn 0 0 1
vn 0 0 1
vn 0 0 1
vn 0 0 1
vn 0 0 1
vn 0 0 1
vn 0 0 1
vn 0 0 1
vn 0 0 1
vn 0 0 1
vn 0 0 1
vn 0.5180664 -0.001841545 0.8554688
vn 0.5180664 -0.001841545 0.8554688
vn 0.5180664 -0.001841545 0.8554688
vn 0.5180664 -0.001841545 0.8554688
vn -0.7495117 0.002664566 0.6616211
vn -0.7495117 0.002664566 0.6616211
vn -0.7495117 0.002664566 0.6616211
vn -0.7495117 0.002664566 0.6616211
vn 0 -0.5751953 0.8178711
vn 0 -0.5751953 0.8178711
vn 0 -0.5751953 0.8178711
vn 0 -0.5751953 0.8178711
vn 0.5229492 -0.2210693 0.8232422
vn 0.5229492 -0.2210693 0.8232422
vn 0.5229492 -0.2210693 0.8232422
vn 0.5229492 -0.2210693 0.8232422
vn -0.6523438 0.002891541 0.7578125
vn -0.6796875 0.004737854 0.7333984
vn -0.6796875 0.004737854 0.7333984
vn -0.6523438 0.002891541 0.7578125
vn -0.6245117 0.001041412 0.78125
vn -0.6245117 0.001041412 0.78125
vn 0 0.4438477 0.8959961
vn 0 0.4438477 0.8959961
vn 0 0.4438477 0.8959961
vn 0 0.4438477 0.8959961
vn 0.5966797 -0.0009965897 0.8027344
vn 0.5966797 -0.0009965897 0.8027344
vn 0.5966797 -0.0009965897 0.8027344
vn 0.5966797 -0.0009965897 0.8027344
vn -1 0 0
vn -1 0 0
vn -1 0 0
vn -1 0 0
vn -1 0 0
vn -1 0 0
vn -1 0 0
vn -1 0 0
vn 0 1 0
vn 0 1 0
vn 0 1 0
vn 0 1 0
vn 1 0.01024628 0
vn 1 0.01024628 0
vn 1 0.005123138 0
vn 1 0.005123138 0
vn 1 0 0
vn 1 0 0
vn 0.9223633 -0.3864746 0
vn 0.9223633 -0.3864746 0
vn 0.9223633 -0.3864746 0
vn 0.9223633 -0.3864746 0
vn 1 0 0
vn 1 0 0
vn 1 -0.003606796 0
vn 1 -0.003606796 0
vn 1 -0.007213593 0
vn 1 -0.007213593 0
vn 0 0 -1
vn 0 0 -1
vn 0 0 -1
vn 0 0 -1
vn 0 0 -1
vn 0 0 -1
vn 0 0 -1
vn 0 0 -1
vn 0 0 -1
vn 0 0 -1
vn 0 0 -1
vn 0 0 -1
vn 0 0 -1
vn 0 0 -1
vn 0 0 -1
vn 0 0 -1
vn 0 0 -1
vn 0 0 -1
vn 0 0 -1
vn 0 0 -1
vn 0 0 -1
vn 0 0 -1
vn 0 0 -1
vn 0 0 -1
vn 0 0 -1
vn 0 0 -1
vn 0 0 -1
vn 0 0 -1
vn 0.5180664 -0.001841545 -0.8554688
vn 0.5180664 -0.001841545 -0.8554688
vn 0.5180664 -0.001841545 -0.8554688
vn 0.5180664 -0.001841545 -0.8554688
vn -0.7495117 0.002664566 -0.6616211
vn -0.7495117 0.002664566 -0.6616211
vn -0.7495117 0.002664566 -0.6616211
vn -0.7495117 0.002664566 -0.6616211
vn 0 -0.5751953 -0.8178711
vn 0 -0.5751953 -0.8178711
vn 0 -0.5751953 -0.8178711
vn 0 -0.5751953 -0.8178711
vn 0.5229492 -0.2210693 -0.8232422
vn 0.5229492 -0.2210693 -0.8232422
vn 0.5229492 -0.2210693 -0.8232422
vn 0.5229492 -0.2210693 -0.8232422
vn -0.6523438 0.002891541 -0.7578125
vn -0.6796875 0.004737854 -0.7333984
vn -0.6796875 0.004737854 -0.7333984
vn -0.6523438 0.002891541 -0.7578125
vn -0.6245117 0.001041412 -0.78125
vn -0.6245117 0.001041412 -0.78125
vn 0 0.4438477 -0.8959961
vn 0 0.4438477 -0.8959961
vn 0 0.4438477 -0.8959961
vn 0 0.4438477 -0.8959961
vn 0.5966797 -0.0009965897 -0.8027344
vn 0.5966797 -0.0009965897 -0.8027344
vn 0.5966797 -0.0009965897 -0.8027344
vn 0.5966797 -0.0009965897 -0.8027344
vn 0 -1 0
vn 0 -1 0
vn 0 -1 0
vn 0 -1 0
g SM_Prop_Bank_Door_Left_01_0
f 3/3/3 2/2/2 1/1/1
f 2/2/2 4/4/4 1/1/1
f 1/1/1 4/4/4 5/5/5
f 6/6/6 1/1/1 5/5/5
f 6/6/6 5/5/5 7/7/7
f 5/5/5 8/8/8 7/7/7
f 8/8/8 9/9/9 7/7/7
f 10/10/10 9/9/9 8/8/8
f 11/11/11 10/10/10 8/8/8
f 12/12/12 10/10/10 11/11/11
f 13/13/13 12/12/12 11/11/11
f 12/12/12 13/13/13 14/14/14
f 15/15/15 12/12/12 14/14/14
f 15/15/15 14/14/14 16/16/16
f 14/14/14 17/17/17 16/16/16
f 18/18/18 16/16/16 17/17/17
f 18/18/18 17/17/17 19/19/19
f 20/20/20 18/18/18 19/19/19
f 23/23/23 22/22/22 21/21/21
f 24/24/24 23/23/23 21/21/21
f 25/25/25 23/23/23 24/24/24
f 26/26/26 25/25/25 24/24/24
f 25/25/25 26/26/26 27/27/27
f 28/28/28 25/25/25 27/27/27
f 31/31/31 30/30/30 29/29/29
f 32/32/32 31/31/31 29/29/29
f 35/35/35 34/34/34 33/33/33
f 36/36/36 35/35/35 33/33/33
f 39/39/39 38/38/38 37/37/37
f 40/40/40 39/39/39 37/37/37
f 43/43/43 42/42/42 41/41/41
f 44/44/44 43/43/43 41/41/41
f 47/47/47 46/46/46 45/45/45
f 46/46/46 48/48/48 45/45/45
f 45/45/45 48/48/48 49/49/49
f 48/48/48 50/50/50 49/49/49
f 53/53/53 52/52/52 51/51/51
f 54/54/54 53/53/53 51/51/51
f 57/57/57 56/56/56 55/55/55
f 58/58/58 57/57/57 55/55/55
f 61/61/61 60/60/60 59/59/59
f 62/62/62 61/61/61 59/59/59
f 63/63/63 61/61/61 62/62/62
f 64/64/64 63/63/63 62/62/62
f 65/65/65 63/63/63 64/64/64
f 66/66/66 65/65/65 64/64/64
f 69/69/69 68/68/68 67/67/67
f 70/70/70 69/69/69 67/67/67
f 73/73/73 72/72/72 71/71/71
f 74/74/74 73/73/73 71/71/71
f 75/75/75 73/73/73 74/74/74
f 76/76/76 75/75/75 74/74/74
f 79/79/79 78/78/78 77/77/77
f 80/80/80 79/79/79 77/77/77
f 83/83/83 82/82/82 81/81/81
f 84/84/84 83/83/83 81/81/81
f 85/85/85 83/83/83 84/84/84
f 86/86/86 85/85/85 84/84/84
f 89/89/89 88/88/88 87/87/87
f 90/90/90 89/89/89 87/87/87
f 90/90/90 87/87/87 91/91/91
f 87/87/87 92/92/92 91/91/91
f 91/91/91 92/92/92 93/93/93
f 94/94/94 91/91/91 93/93/93
f 95/95/95 94/94/94 93/93/93
f 95/95/95 96/96/96 94/94/94
f 96/96/96 97/97/97 94/94/94
f 96/96/96 98/98/98 97/97/97
f 98/98/98 99/99/99 97/97/97
f 99/99/99 98/98/98 100/100/100
f 98/98/98 101/101/101 100/100/100
f 100/100/100 101/101/101 102/102/102
f 103/103/103 100/100/100 102/102/102
f 102/102/102 104/104/104 103/103/103
f 103/103/103 104/104/104 105/105/105
f 104/104/104 106/106/106 105/105/105
f 109/109/109 108/108/108 107/107/107
f 108/108/108 110/110/110 107/107/107
f 108/108/108 111/111/111 110/110/110
f 111/111/111 112/112/112 110/110/110
f 112/112/112 111/111/111 113/113/113
f 111/111/111 114/114/114 113/113/113
f 117/117/117 116/116/116 115/115/115
f 118/118/118 117/117/117 115/115/115
f 121/121/121 120/120/120 119/119/119
f 122/122/122 121/121/121 119/119/119
f 125/125/125 124/124/124 123/123/123
f 126/126/126 125/125/125 123/123/123
f 129/129/129 128/128/128 127/127/127
f 130/130/130 129/129/129 127/127/127
f 133/133/133 132/132/132 131/131/131
f 134/134/134 133/133/133 131/131/131
f 134/134/134 131/131/131 135/135/135
f 136/136/136 134/134/134 135/135/135
f 139/139/139 138/138/138 137/137/137
f 140/140/140 139/139/139 137/137/137
f 143/143/143 142/142/142 141/141/141
f 144/144/144 143/143/143 141/141/141
f 147/147/147 146/146/146 145/145/145
f 148/148/148 147/147/147 145/145/145
