g SM_Prop_JarLiquid_01
v 0.06122285 0.01694743 -0.06122283
v 0.06535524 0.02560382 -0.06535522
v 2.502996E-08 0.02560382 -0.09242623
v 2.587966E-08 0.01694743 -0.08658209
v 2.587966E-08 0.01694743 -0.08658209
v 2.502996E-08 0.02560382 -0.09242623
v -0.0653552 0.02560382 -0.06535522
v -0.06122283 0.01694743 -0.06122283
v -0.06122283 0.01694743 -0.06122283
v -0.0653552 0.02560382 -0.06535522
v -0.0924262 0.02560381 4.135541E-11
v -0.08658205 0.01694743 3.697262E-11
v -0.08658205 0.01694743 3.697262E-11
v -0.0924262 0.02560381 4.135541E-11
v -0.0653552 0.02560382 0.06535522
v -0.06122283 0.01694743 0.06122283
v -0.06122283 0.01694743 0.06122283
v -0.0653552 0.02560382 0.06535522
v 2.502996E-08 0.02560382 0.09242623
v 2.587966E-08 0.01694743 0.08658209
v 2.587966E-08 0.01694743 0.08658209
v 2.502996E-08 0.02560382 0.09242623
v 0.06535524 0.02560382 0.06535522
v 0.06122285 0.01694743 0.06122283
v 0.06122285 0.01694743 0.06122283
v 0.06535524 0.02560382 0.06535522
v 0.09242628 0.02560382 -2.498002E-18
v 0.08658212 0.01694743 -2.498002E-18
v 0.08658212 0.01694743 -2.498002E-18
v 0.09242628 0.02560382 -2.498002E-18
v 0.06535524 0.02560382 -0.06535522
v 0.06122285 0.01694743 -0.06122283
v 0.06528852 0.07257859 -0.06528849
v 0.09233192 0.07257859 -2.47941E-11
v 0.09287188 0.07785803 7.69988E-11
v 0.06567033 0.07785803 -0.06567031
v 2.501617E-08 0.07257859 -0.09233186
v 0.06528852 0.07257859 -0.06528849
v 0.06567033 0.07785803 -0.06567031
v 2.501617E-08 0.07785803 -0.09287184
v -0.06528847 0.07257859 -0.06528849
v 2.501617E-08 0.07257859 -0.09233186
v 2.501617E-08 0.07785803 -0.09287184
v -0.06567029 0.07785803 -0.06567031
v -0.09233183 0.07257859 -2.459838E-17
v -0.06528847 0.07257859 -0.06528849
v -0.06567029 0.07785803 -0.06567031
v -0.09287181 0.07785803 7.699878E-11
v -0.06528847 0.07257859 0.06528849
v -0.09233183 0.07257859 -2.459838E-17
v -0.09287181 0.07785803 7.699878E-11
v -0.06567029 0.07785803 0.06567031
v 2.501617E-08 0.07257859 0.09233186
v -0.06528847 0.07257859 0.06528849
v -0.06567029 0.07785803 0.06567031
v 2.501617E-08 0.07785803 0.09287184
v 0.06528852 0.07257859 0.06528849
v 2.501617E-08 0.07257859 0.09233186
v 2.501617E-08 0.07785803 0.09287184
v 0.06567033 0.07785803 0.06567031
v 0.09233192 0.07257859 -2.47941E-11
v 0.06528852 0.07257859 0.06528849
v 0.06567033 0.07785803 0.06567031
v 0.09287188 0.07785803 7.69988E-11
v 0.09242628 0.02560382 -2.498002E-18
v 0.06535524 0.02560382 0.06535522
v 0.06528852 0.07257859 0.06528849
v 0.09233192 0.07257859 -2.47941E-11
v 0.06535524 0.02560382 -0.06535522
v 0.09242628 0.02560382 -2.498002E-18
v 0.09233192 0.07257859 -2.47941E-11
v 0.06528852 0.07257859 -0.06528849
v 2.502996E-08 0.02560382 -0.09242623
v 0.06535524 0.02560382 -0.06535522
v 0.06528852 0.07257859 -0.06528849
v 2.501617E-08 0.07257859 -0.09233186
v -0.0653552 0.02560382 -0.06535522
v 2.502996E-08 0.02560382 -0.09242623
v 2.501617E-08 0.07257859 -0.09233186
v -0.06528847 0.07257859 -0.06528849
v -0.0924262 0.02560381 4.135541E-11
v -0.0653552 0.02560382 -0.06535522
v -0.06528847 0.07257859 -0.06528849
v -0.09233183 0.07257859 -2.459838E-17
v -0.0653552 0.02560382 0.06535522
v -0.0924262 0.02560381 4.135541E-11
v -0.09233183 0.07257859 -2.459838E-17
v -0.06528847 0.07257859 0.06528849
v 2.502996E-08 0.02560382 0.09242623
v -0.0653552 0.02560382 0.06535522
v -0.06528847 0.07257859 0.06528849
v 2.501617E-08 0.07257859 0.09233186
v 0.06535524 0.02560382 0.06535522
v 2.502996E-08 0.02560382 0.09242623
v 2.501617E-08 0.07257859 0.09233186
v 0.06528852 0.07257859 0.06528849
v 0.06567033 0.07785803 -0.06567031
v 2.501617E-08 0.07696523 7.255736E-11
v 2.501617E-08 0.07785803 -0.09287184
v 0.09287188 0.07785803 7.69988E-11
v -0.06567029 0.07785803 -0.06567031
v 0.06567033 0.07785803 0.06567031
v -0.09287181 0.07785803 7.699878E-11
v 2.501617E-08 0.07785803 0.09287184
v -0.06567029 0.07785803 0.06567031
v 2.587966E-08 0.01694743 -0.08658209
v 2.596432E-08 0.0173421 -1.053636E-11
v 0.06122285 0.01694743 -0.06122283
v -0.06122283 0.01694743 -0.06122283
v 0.08658212 0.01694743 -2.498002E-18
v -0.08658205 0.01694743 3.697262E-11
v 0.06122285 0.01694743 0.06122283
v -0.06122283 0.01694743 0.06122283
v 2.587966E-08 0.01694743 0.08658209
vt 0.1465086 0.303028
vt 0.1465086 0.3035576
vt 0.1459668 0.3035785
vt 0.1459668 0.3030488
vt 0.1459668 0.3030488
vt 0.1459668 0.3035785
vt 0.1451886 0.3035789
vt 0.1451886 0.3030493
vt 0.1451886 0.3030493
vt 0.1451886 0.3035789
vt 0.1446296 0.3035587
vt 0.1446296 0.3030291
vt 0.1446296 0.3030291
vt 0.1446296 0.3035587
vt 0.1446174 0.3035297
vt 0.1446174 0.303
vt 0.1446174 0.303
vt 0.1446174 0.3035297
vt 0.1451591 0.3035088
vt 0.1451591 0.3029792
vt 0.1451591 0.3029792
vt 0.1451591 0.3035088
vt 0.1459374 0.3035084
vt 0.1459374 0.3029788
vt 0.1459374 0.3029788
vt 0.1459374 0.3035084
vt 0.1464964 0.3035286
vt 0.1464964 0.302999
vt 0.1464964 0.302999
vt 0.1464964 0.3035286
vt 0.1465086 0.3035576
vt 0.1465086 0.303028
vt 0.1460685 0.327187
vt 0.1460599 0.3271666
vt 0.1460599 0.3272178
vt 0.1460685 0.3272382
vt 0.1456884 0.3272016
vt 0.1460685 0.327187
vt 0.1460685 0.3272382
vt 0.1456884 0.3272528
vt 0.1451424 0.327202
vt 0.1456884 0.3272016
vt 0.1456884 0.3272528
vt 0.1451424 0.3272531
vt 0.1447502 0.3271878
vt 0.1451424 0.327202
vt 0.1451424 0.3272531
vt 0.1447502 0.327239
vt 0.1447416 0.3271674
vt 0.1447502 0.3271878
vt 0.1447502 0.327239
vt 0.1447416 0.3272186
vt 0.1451216 0.3271528
vt 0.1447416 0.3271674
vt 0.1447416 0.3272186
vt 0.1451216 0.327204
vt 0.1456677 0.3271525
vt 0.1451216 0.3271528
vt 0.1451216 0.327204
vt 0.1456677 0.3272036
vt 0.1460599 0.3271666
vt 0.1456677 0.3271525
vt 0.1456677 0.3272036
vt 0.1460599 0.3272178
vt 0.1464964 0.3035286
vt 0.1459374 0.3035084
vt 0.1459374 0.304038
vt 0.1464964 0.3040582
vt 0.1465086 0.3035576
vt 0.1464964 0.3035286
vt 0.1464964 0.3040582
vt 0.1465086 0.3040873
vt 0.1459668 0.3035785
vt 0.1465086 0.3035576
vt 0.1465086 0.3040873
vt 0.1459668 0.3041081
vt 0.1451886 0.3035789
vt 0.1459668 0.3035785
vt 0.1459668 0.3041081
vt 0.1451886 0.3041086
vt 0.1446296 0.3035587
vt 0.1451886 0.3035789
vt 0.1451886 0.3041086
vt 0.1446296 0.3040884
vt 0.1446174 0.3035297
vt 0.1446296 0.3035587
vt 0.1446296 0.3040884
vt 0.1446174 0.3040593
vt 0.1451591 0.3035088
vt 0.1446174 0.3035297
vt 0.1446174 0.3040593
vt 0.1451591 0.3040385
vt 0.1459374 0.3035084
vt 0.1451591 0.3035088
vt 0.1451591 0.3040385
vt 0.1459374 0.304038
vt 0.1465086 0.3041603
vt 0.1455629 0.3041463
vt 0.1459668 0.3041811
vt 0.1464964 0.3041312
vt 0.1451886 0.3041816
vt 0.1459374 0.304111
vt 0.1446296 0.3041614
vt 0.1451591 0.3041114
vt 0.1446174 0.3041323
vt 0.1459668 0.3030488
vt 0.1455629 0.303014
vt 0.1465086 0.303028
vt 0.1451886 0.3030493
vt 0.1464964 0.302999
vt 0.1446296 0.3030291
vt 0.1459374 0.3029788
vt 0.1446174 0.303
vt 0.1451591 0.3029792
vn 0.3246995 -0.5292248 -0.783895
vn 0.3246995 -0.5292248 -0.783895
vn 0.3246995 -0.5292248 -0.783895
vn 0.3246995 -0.5292248 -0.783895
vn -0.3246996 -0.5292245 -0.7838952
vn -0.3246996 -0.5292245 -0.7838952
vn -0.3246996 -0.5292245 -0.7838952
vn -0.3246996 -0.5292245 -0.7838952
vn -0.7838953 -0.5292244 -0.3246993
vn -0.7838953 -0.5292244 -0.3246993
vn -0.7838953 -0.5292244 -0.3246993
vn -0.7838953 -0.5292244 -0.3246993
vn -0.7838953 -0.5292244 0.3246993
vn -0.7838953 -0.5292244 0.3246993
vn -0.7838953 -0.5292244 0.3246993
vn -0.7838953 -0.5292244 0.3246993
vn -0.3246996 -0.5292245 0.7838952
vn -0.3246996 -0.5292245 0.7838952
vn -0.3246996 -0.5292245 0.7838952
vn -0.3246996 -0.5292245 0.7838952
vn 0.3246995 -0.5292248 0.783895
vn 0.3246995 -0.5292248 0.783895
vn 0.3246995 -0.5292248 0.783895
vn 0.3246995 -0.5292248 0.783895
vn 0.7838948 -0.5292249 0.3246997
vn 0.7838948 -0.5292249 0.3246997
vn 0.7838948 -0.5292249 0.3246997
vn 0.7838948 -0.5292249 0.3246997
vn 0.7838948 -0.5292249 -0.3246997
vn 0.7838948 -0.5292249 -0.3246997
vn 0.7838948 -0.5292249 -0.3246997
vn 0.7838948 -0.5292249 -0.3246997
vn 0.9197822 -0.09407359 -0.3809865
vn 0.9197822 -0.09407359 -0.3809865
vn 0.9197822 -0.09407359 -0.3809865
vn 0.9197822 -0.09407359 -0.3809865
vn 0.3809862 -0.09407362 -0.9197825
vn 0.3809862 -0.09407362 -0.9197825
vn 0.3809862 -0.09407362 -0.9197825
vn 0.3809862 -0.09407362 -0.9197825
vn -0.3809862 -0.09407362 -0.9197825
vn -0.3809862 -0.09407362 -0.9197825
vn -0.3809862 -0.09407362 -0.9197825
vn -0.3809862 -0.09407362 -0.9197825
vn -0.9197825 -0.09407362 -0.3809862
vn -0.9197825 -0.09407362 -0.3809862
vn -0.9197825 -0.09407362 -0.3809862
vn -0.9197825 -0.09407362 -0.3809862
vn -0.9197825 -0.09407362 0.3809862
vn -0.9197825 -0.09407362 0.3809862
vn -0.9197825 -0.09407362 0.3809862
vn -0.9197825 -0.09407362 0.3809862
vn -0.3809862 -0.09407362 0.9197825
vn -0.3809862 -0.09407362 0.9197825
vn -0.3809862 -0.09407362 0.9197825
vn -0.3809862 -0.09407362 0.9197825
vn 0.3809862 -0.09407362 0.9197825
vn 0.3809862 -0.09407362 0.9197825
vn 0.3809862 -0.09407362 0.9197825
vn 0.3809862 -0.09407362 0.9197825
vn 0.9197822 -0.09407359 0.3809865
vn 0.9197822 -0.09407359 0.3809865
vn 0.9197822 -0.09407359 0.3809865
vn 0.9197822 -0.09407359 0.3809865
vn 0.9238779 0.001855891 0.382683
vn 0.9238779 0.001855891 0.382683
vn 0.9238779 0.001855891 0.382683
vn 0.9238779 0.001855891 0.382683
vn 0.9238779 0.001855891 -0.382683
vn 0.9238779 0.001855891 -0.382683
vn 0.9238779 0.001855891 -0.382683
vn 0.9238779 0.001855891 -0.382683
vn 0.3826827 0.001855891 -0.923878
vn 0.3826827 0.001855891 -0.923878
vn 0.3826827 0.001855891 -0.923878
vn 0.3826827 0.001855891 -0.923878
vn -0.3826827 0.001855891 -0.923878
vn -0.3826827 0.001855891 -0.923878
vn -0.3826827 0.001855891 -0.923878
vn -0.3826827 0.001855891 -0.923878
vn -0.923878 0.00185592 -0.3826827
vn -0.923878 0.00185592 -0.3826827
vn -0.923878 0.00185592 -0.3826827
vn -0.923878 0.00185592 -0.3826827
vn -0.923878 0.00185592 0.3826827
vn -0.923878 0.00185592 0.3826827
vn -0.923878 0.00185592 0.3826827
vn -0.923878 0.00185592 0.3826827
vn -0.3826827 0.001855891 0.923878
vn -0.3826827 0.001855891 0.923878
vn -0.3826827 0.001855891 0.923878
vn -0.3826827 0.001855891 0.923878
vn 0.3826827 0.001855891 0.923878
vn 0.3826827 0.001855891 0.923878
vn 0.3826827 0.001855891 0.923878
vn 0.3826827 0.001855891 0.923878
vn -0.006797323 0.9999539 0.006797326
vn 0 1 0
vn 0 0.9999539 0.00961287
vn -0.009612869 0.9999539 0
vn 0.006797325 0.9999539 0.006797325
vn -0.006797323 0.9999539 -0.006797326
vn 0.00961287 0.9999539 0
vn 0 0.9999539 -0.00961287
vn 0.006797325 0.9999539 -0.006797324
vn 0 -0.9999896 0.00455831
vn 0 -1 0
vn -0.003223209 -0.9999896 0.00322321
vn 0.003223219 -0.9999896 0.003223218
vn -0.004558309 -0.9999896 0
vn 0.004558311 -0.9999896 0
vn -0.00322321 -0.9999896 -0.00322321
vn 0.00322322 -0.9999896 -0.003223218
vn 0 -0.9999896 -0.00455831
g SM_Prop_JarLiquid_01_0
f 3/3/3 2/2/2 1/1/1
f 4/4/4 3/3/3 1/1/1
f 7/7/7 6/6/6 5/5/5
f 8/8/8 7/7/7 5/5/5
f 11/11/11 10/10/10 9/9/9
f 12/12/12 11/11/11 9/9/9
f 15/15/15 14/14/14 13/13/13
f 16/16/16 15/15/15 13/13/13
f 19/19/19 18/18/18 17/17/17
f 20/20/20 19/19/19 17/17/17
f 23/23/23 22/22/22 21/21/21
f 24/24/24 23/23/23 21/21/21
f 27/27/27 26/26/26 25/25/25
f 28/28/28 27/27/27 25/25/25
f 31/31/31 30/30/30 29/29/29
f 32/32/32 31/31/31 29/29/29
f 35/35/35 34/34/34 33/33/33
f 36/36/36 35/35/35 33/33/33
f 39/39/39 38/38/38 37/37/37
f 40/40/40 39/39/39 37/37/37
f 43/43/43 42/42/42 41/41/41
f 44/44/44 43/43/43 41/41/41
f 47/47/47 46/46/46 45/45/45
f 48/48/48 47/47/47 45/45/45
f 51/51/51 50/50/50 49/49/49
f 52/52/52 51/51/51 49/49/49
f 55/55/55 54/54/54 53/53/53
f 56/56/56 55/55/55 53/53/53
f 59/59/59 58/58/58 57/57/57
f 60/60/60 59/59/59 57/57/57
f 63/63/63 62/62/62 61/61/61
f 64/64/64 63/63/63 61/61/61
f 67/67/67 66/66/66 65/65/65
f 68/68/68 67/67/67 65/65/65
f 71/71/71 70/70/70 69/69/69
f 72/72/72 71/71/71 69/69/69
f 75/75/75 74/74/74 73/73/73
f 76/76/76 75/75/75 73/73/73
f 79/79/79 78/78/78 77/77/77
f 80/80/80 79/79/79 77/77/77
f 83/83/83 82/82/82 81/81/81
f 84/84/84 83/83/83 81/81/81
f 87/87/87 86/86/86 85/85/85
f 88/88/88 87/87/87 85/85/85
f 91/91/91 90/90/90 89/89/89
f 92/92/92 91/91/91 89/89/89
f 95/95/95 94/94/94 93/93/93
f 96/96/96 95/95/95 93/93/93
f 99/99/99 98/98/98 97/97/97
f 97/97/97 98/98/98 100/100/100
f 101/101/101 98/98/98 99/99/99
f 100/100/100 98/98/98 102/102/102
f 103/103/103 98/98/98 101/101/101
f 102/102/102 98/98/98 104/104/104
f 105/105/105 98/98/98 103/103/103
f 104/104/104 98/98/98 105/105/105
f 108/108/108 107/107/107 106/106/106
f 106/106/106 107/107/107 109/109/109
f 110/110/110 107/107/107 108/108/108
f 109/109/109 107/107/107 111/111/111
f 112/112/112 107/107/107 110/110/110
f 111/111/111 107/107/107 113/113/113
f 114/114/114 107/107/107 112/112/112
f 113/113/113 107/107/107 114/114/114
