g SM_Prop_Sidewalk_Panel_06
v 0.1750679 0.09740207 0.1734772
v 0.2171974 0.078407 0.2171974
v -0.2171898 0.078407 0.2171974
v -0.1757698 0.09634975 0.1757698
v -0.1757698 0.09634975 0.1757698
v -0.2171898 0.078407 0.2171974
v -0.2171898 0.078407 -0.217186
v -0.175663 0.0971364 -0.175602
v -0.175663 0.0971364 -0.175602
v -0.2171898 0.078407 -0.217186
v 0.2171974 0.078407 -0.217186
v 0.1757774 0.09634975 -0.175766
v 0.1757774 0.09634975 -0.175766
v 0.2171974 0.078407 -0.217186
v 0.2171974 0.078407 0.2171974
v 0.1750679 0.09740207 0.1734772
v 0.1074333 0.05349623 0.3483086
v 0.1074333 0.01936738 0.3483086
v -0.1074257 0.01936738 0.3483086
v -0.1074257 0.05679319 0.3483086
v -0.3483009 0.05679319 0.1074333
v -0.3483009 0.01936738 0.1074333
v -0.3483009 0.01936738 -0.1074219
v -0.3483009 0.05380191 -0.1074219
v -0.1074257 0.05679319 -0.3482971
v -0.1074257 0.01936738 -0.3482971
v 0.1074333 0.01936738 -0.3482971
v 0.1074333 0.05367702 -0.3482971
v 0.3483086 0.05679319 -0.1074219
v 0.3483086 0.01936738 -0.1074219
v 0.3483086 0.01936738 0.1074333
v 0.3483086 0.05679319 0.1074333
v -0.2171898 0.078407 0.2171974
v -0.1303139 0.01936738 0.2171974
v -0.2171898 0.0193674 0.2171974
v -0.1303139 0.069746 0.2171974
v 0.2171974 0.078407 0.2171974
v 0.1303215 0.06644905 0.2171974
v 0.2171974 0.0193674 0.2171974
v 0.1303215 0.01936738 0.2171974
v -0.2171898 0.078407 -0.217186
v -0.2171898 0.01936738 -0.1303101
v -0.2171898 0.0193674 -0.217186
v -0.2171898 0.06675471 -0.1303101
v -0.2171898 0.078407 0.2171974
v -0.2171898 0.069746 0.1303215
v -0.2171898 0.0193674 0.2171974
v -0.2171898 0.01936738 0.1303215
v 0.2171974 0.078407 -0.217186
v 0.1303215 0.01936738 -0.217186
v 0.2171974 0.0193674 -0.217186
v 0.1303215 0.069746 -0.217186
v -0.2171898 0.078407 -0.217186
v -0.1303139 0.069746 -0.217186
v -0.2171898 0.0193674 -0.217186
v -0.1303139 0.01936738 -0.217186
v 0.2171974 0.078407 0.2171974
v 0.2171974 0.01936738 0.1303215
v 0.2171974 0.0193674 0.2171974
v 0.2171974 0.069746 0.1303215
v 0.2171974 0.078407 -0.217186
v 0.2171974 0.069746 -0.1303101
v 0.2171974 0.0193674 -0.217186
v 0.2171974 0.01936738 -0.1303101
v 0.1303215 0.06644905 0.2171974
v 0.1074333 0.05349623 0.3483086
v -0.1074257 0.05679319 0.3483086
v -0.1303139 0.069746 0.2171974
v -0.1303139 0.069746 0.2171974
v -0.1074257 0.05679319 0.3483086
v -0.1074257 0.01936738 0.3483086
v -0.1303139 0.01936738 0.2171974
v 0.1303215 0.01936738 0.2171974
v 0.1074333 0.01936738 0.3483086
v 0.1074333 0.05349623 0.3483086
v 0.1303215 0.06644905 0.2171974
v -0.2171898 0.069746 0.1303215
v -0.3483009 0.05679319 0.1074333
v -0.3483009 0.05380191 -0.1074219
v -0.2171898 0.06675471 -0.1303101
v -0.2171898 0.06675471 -0.1303101
v -0.3483009 0.05380191 -0.1074219
v -0.3483009 0.01936738 -0.1074219
v -0.2171898 0.01936738 -0.1303101
v -0.2171898 0.01936738 0.1303215
v -0.3483009 0.01936738 0.1074333
v -0.3483009 0.05679319 0.1074333
v -0.2171898 0.069746 0.1303215
v -0.1303139 0.069746 -0.217186
v -0.1074257 0.05679319 -0.3482971
v 0.1074333 0.05367702 -0.3482971
v 0.1303215 0.069746 -0.217186
v 0.1303215 0.069746 -0.217186
v 0.1074333 0.05367702 -0.3482971
v 0.1074333 0.01936738 -0.3482971
v 0.1303215 0.01936738 -0.217186
v -0.1303139 0.01936738 -0.217186
v -0.1074257 0.01936738 -0.3482971
v -0.1074257 0.05679319 -0.3482971
v -0.1303139 0.069746 -0.217186
v 0.2171974 0.069746 -0.1303101
v 0.3483086 0.05679319 -0.1074219
v 0.3483086 0.05679319 0.1074333
v 0.2171974 0.069746 0.1303215
v 0.2171974 0.069746 0.1303215
v 0.3483086 0.05679319 0.1074333
v 0.3483086 0.01936738 0.1074333
v 0.2171974 0.01936738 0.1303215
v 0.2171974 0.01936738 -0.1303101
v 0.3483086 0.01936738 -0.1074219
v 0.3483086 0.05679319 -0.1074219
v 0.2171974 0.069746 -0.1303101
v -0.1185217 0.1043045 -0.1184845
v 0.1186028 0.1036106 -0.1185951
v 0.1181211 0.1045388 0.1170464
v -0.1185999 0.1036106 0.1185989
v -0.1591377 0.09712663 -0.1590843
v -0.1529503 0.08116464 -0.1529007
v -0.1530495 0.0804186 0.1530457
v -0.1592369 0.09636952 0.1592369
v -0.1592369 0.09636952 0.1592369
v -0.1530495 0.0804186 0.1530457
v 0.1524353 0.08141661 0.1510468
v 0.1586037 0.09738231 0.1571579
v 0.1586037 0.09738231 0.1571579
v 0.1524353 0.08141661 0.1510468
v 0.1530495 0.0804186 -0.1530418
v 0.1592445 0.09636952 -0.1592331
v 0.1592445 0.09636952 -0.1592331
v 0.1530495 0.0804186 -0.1530418
v -0.1529503 0.08116464 -0.1529007
v -0.1591377 0.09712663 -0.1590843
v -0.1359081 0.08115812 -0.1358604
v -0.1185217 0.1043045 -0.1184845
v -0.1185999 0.1036106 0.1185989
v -0.1359959 0.0804318 0.1359901
v -0.1359959 0.0804318 0.1359901
v -0.1185999 0.1036106 0.1185989
v 0.1181211 0.1045388 0.1170464
v 0.1354475 0.08140342 0.1342163
v 0.1354475 0.08140342 0.1342163
v 0.1181211 0.1045388 0.1170464
v 0.1186028 0.1036106 -0.1185951
v 0.1359997 0.0804318 -0.1359863
v 0.1359997 0.0804318 -0.1359863
v 0.1186028 0.1036106 -0.1185951
v -0.1185217 0.1043045 -0.1184845
v -0.1359081 0.08115812 -0.1358604
v -0.175663 0.0971364 -0.175602
v -0.1591377 0.09712663 -0.1590843
v -0.1592369 0.09636952 0.1592369
v -0.1757698 0.09634975 0.1757698
v 0.1757774 0.09634975 -0.175766
v 0.1586037 0.09738231 0.1571579
v 0.1592445 0.09636952 -0.1592331
v 0.1750679 0.09740207 0.1734772
v -0.1529503 0.08116464 -0.1529007
v -0.1359081 0.08115812 -0.1358604
v -0.1359959 0.0804318 0.1359901
v -0.1530495 0.0804186 0.1530457
v 0.1530495 0.0804186 -0.1530418
v 0.1354475 0.08140342 0.1342163
v 0.1359997 0.0804318 -0.1359863
v 0.1524353 0.08141661 0.1510468
vt 0.2458496 0.2790527
vt 0.2458496 0.2790527
vt 0.2458496 0.2790527
vt 0.2458496 0.2790527
vt 0.2458496 0.2790527
vt 0.2458496 0.2790527
vt 0.2458496 0.2790527
vt 0.2458496 0.2790527
vt 0.2458496 0.2790527
vt 0.2458496 0.2790527
vt 0.2458496 0.2790527
vt 0.2458496 0.2790527
vt 0.2458496 0.2790527
vt 0.2458496 0.2790527
vt 0.2458496 0.2790527
vt 0.2458496 0.2790527
vt 0.2452393 0.3239746
vt 0.2452393 0.3239746
vt 0.2452393 0.3239746
vt 0.2452393 0.3239746
vt 0.2452393 0.3239746
vt 0.2452393 0.3239746
vt 0.2452393 0.3239746
vt 0.2452393 0.3239746
vt 0.2452393 0.3239746
vt 0.2452393 0.3239746
vt 0.2452393 0.3239746
vt 0.2452393 0.3239746
vt 0.2452393 0.3239746
vt 0.2452393 0.3239746
vt 0.2452393 0.3239746
vt 0.2452393 0.3239746
vt 0.2458496 0.2790527
vt 0.2458496 0.2790527
vt 0.2458496 0.2790527
vt 0.2458496 0.2790527
vt 0.2458496 0.2790527
vt 0.2458496 0.2790527
vt 0.2458496 0.2790527
vt 0.2458496 0.2790527
vt 0.2458496 0.2790527
vt 0.2458496 0.2790527
vt 0.2458496 0.2790527
vt 0.2458496 0.2790527
vt 0.2458496 0.2790527
vt 0.2458496 0.2790527
vt 0.2458496 0.2790527
vt 0.2458496 0.2790527
vt 0.2458496 0.2790527
vt 0.2458496 0.2790527
vt 0.2458496 0.2790527
vt 0.2458496 0.2790527
vt 0.2458496 0.2790527
vt 0.2458496 0.2790527
vt 0.2458496 0.2790527
vt 0.2458496 0.2790527
vt 0.2458496 0.2790527
vt 0.2458496 0.2790527
vt 0.2458496 0.2790527
vt 0.2458496 0.2790527
vt 0.2458496 0.2790527
vt 0.2458496 0.2790527
vt 0.2458496 0.2790527
vt 0.2458496 0.2790527
vt 0.2452393 0.3239746
vt 0.2452393 0.3239746
vt 0.2452393 0.3239746
vt 0.2452393 0.3239746
vt 0.2452393 0.3239746
vt 0.2452393 0.3239746
vt 0.2452393 0.3239746
vt 0.2452393 0.3239746
vt 0.2452393 0.3239746
vt 0.2452393 0.3239746
vt 0.2452393 0.3239746
vt 0.2452393 0.3239746
vt 0.2452393 0.3239746
vt 0.2452393 0.3239746
vt 0.2452393 0.3239746
vt 0.2452393 0.3239746
vt 0.2452393 0.3239746
vt 0.2452393 0.3239746
vt 0.2452393 0.3239746
vt 0.2452393 0.3239746
vt 0.2452393 0.3239746
vt 0.2452393 0.3239746
vt 0.2452393 0.3239746
vt 0.2452393 0.3239746
vt 0.2452393 0.3239746
vt 0.2452393 0.3239746
vt 0.2452393 0.3239746
vt 0.2452393 0.3239746
vt 0.2452393 0.3239746
vt 0.2452393 0.3239746
vt 0.2452393 0.3239746
vt 0.2452393 0.3239746
vt 0.2452393 0.3239746
vt 0.2452393 0.3239746
vt 0.2452393 0.3239746
vt 0.2452393 0.3239746
vt 0.2452393 0.3239746
vt 0.2452393 0.3239746
vt 0.2452393 0.3239746
vt 0.2452393 0.3239746
vt 0.2452393 0.3239746
vt 0.2452393 0.3239746
vt 0.2452393 0.3239746
vt 0.2452393 0.3239746
vt 0.2452393 0.3239746
vt 0.2452393 0.3239746
vt 0.2452393 0.3239746
vt 0.2452393 0.3239746
vt 0.2458496 0.2790527
vt 0.2458496 0.2790527
vt 0.2458496 0.2790527
vt 0.2458496 0.2790527
vt 0.2458496 0.2790527
vt 0.2458496 0.2790527
vt 0.2458496 0.2790527
vt 0.2458496 0.2790527
vt 0.2458496 0.2790527
vt 0.2458496 0.2790527
vt 0.2458496 0.2790527
vt 0.2458496 0.2790527
vt 0.2458496 0.2790527
vt 0.2458496 0.2790527
vt 0.2458496 0.2790527
vt 0.2458496 0.2790527
vt 0.2458496 0.2790527
vt 0.2458496 0.2790527
vt 0.2458496 0.2790527
vt 0.2458496 0.2790527
vt 0.2458496 0.2790527
vt 0.2458496 0.2790527
vt 0.2458496 0.2790527
vt 0.2458496 0.2790527
vt 0.2458496 0.2790527
vt 0.2458496 0.2790527
vt 0.2458496 0.2790527
vt 0.2458496 0.2790527
vt 0.2458496 0.2790527
vt 0.2458496 0.2790527
vt 0.2458496 0.2790527
vt 0.2458496 0.2790527
vt 0.2458496 0.2790527
vt 0.2458496 0.2790527
vt 0.2458496 0.2790527
vt 0.2458496 0.2790527
vt 0.2458496 0.2790527
vt 0.2458496 0.2790527
vt 0.2458496 0.2790527
vt 0.2458496 0.2790527
vt 0.2458496 0.2790527
vt 0.2458496 0.2790527
vt 0.2458496 0.2790527
vt 0.2458496 0.2790527
vt 0.0814209 0.2316895
vt 0.0814209 0.2316895
vt 0.0814209 0.2316895
vt 0.0814209 0.2316895
vt 0.0814209 0.2316895
vt 0.0814209 0.2316895
vt 0.0814209 0.2316895
vt 0.0814209 0.2316895
vn -6.747246E-05 0.9174805 0.3979492
vn -6.747246E-05 0.9174805 0.3979492
vn -6.747246E-05 0.9174805 0.3979492
vn -6.747246E-05 0.9174805 0.3979492
vn -0.4042969 0.9145508 0.0008606911
vn -0.4042969 0.9145508 0.0008606911
vn -0.4042969 0.9145508 0.0008606911
vn -0.4042969 0.9145508 0.0008606911
vn 0.0008311272 0.9145508 -0.4040527
vn 0.0008311272 0.9145508 -0.4040527
vn 0.0008311272 0.9145508 -0.4040527
vn 0.0008311272 0.9145508 -0.4040527
vn 0.4042969 0.9145508 -0.0008621216
vn 0.4042969 0.9145508 -0.0008621216
vn 0.4042969 0.9145508 -0.0008621216
vn 0.4042969 0.9145508 -0.0008621216
vn 0 0 1
vn 0 0 1
vn 0 0 1
vn 0 0 1
vn -1 0 0
vn -1 0 0
vn -1 0 0
vn -1 0 0
vn 0 0 -1
vn 0 0 -1
vn 0 0 -1
vn 0 0 -1
vn 1 0 0
vn 1 0 0
vn 1 0 0
vn 1 0 0
vn 0 0 1
vn 0 0 1
vn 0 0 1
vn 0 0 1
vn 0 0 1
vn 0 0 1
vn 0 0 1
vn 0 0 1
vn -1 0 0
vn -1 0 0
vn -1 0 0
vn -1 0 0
vn -1 0 0
vn -1 0 0
vn -1 0 0
vn -1 0 0
vn 0 0 -1
vn 0 0 -1
vn 0 0 -1
vn 0 0 -1
vn 0 0 -1
vn 0 0 -1
vn 0 0 -1
vn 0 0 -1
vn 1 0 0
vn 1 0 0
vn 1 0 0
vn 1 0 0
vn 1 0 0
vn 1 0 0
vn 1 0 0
vn 1 0 0
vn 0.01380157 0.9951172 0.09832764
vn 0.01380157 0.9951172 0.09832764
vn 0.01380157 0.9951172 0.09832764
vn 0.01380157 0.9951172 0.09832764
vn -0.9848633 0 0.1719971
vn -0.9848633 0 0.1719971
vn -0.9848633 0 0.1719971
vn -0.9848633 0 0.1719971
vn 0.9848633 0 0.1719971
vn 0.9848633 0 0.1719971
vn 0.9848633 0 0.1719971
vn 0.9848633 0 0.1719971
vn -0.09832764 0.9951172 -0.01251984
vn -0.09832764 0.9951172 -0.01251984
vn -0.09832764 0.9951172 -0.01251984
vn -0.09832764 0.9951172 -0.01251984
vn -0.1719971 0 -0.9848633
vn -0.1719971 0 -0.9848633
vn -0.1719971 0 -0.9848633
vn -0.1719971 0 -0.9848633
vn -0.1719971 0 0.9848633
vn -0.1719971 0 0.9848633
vn -0.1719971 0 0.9848633
vn -0.1719971 0 0.9848633
vn 0.006515503 0.9941406 -0.1099854
vn 0.006515503 0.9941406 -0.1099854
vn 0.006515503 0.9941406 -0.1099854
vn 0.006515503 0.9941406 -0.1099854
vn 0.9848633 0 -0.1719971
vn 0.9848633 0 -0.1719971
vn 0.9848633 0 -0.1719971
vn 0.9848633 0 -0.1719971
vn -0.9848633 0 -0.1719971
vn -0.9848633 0 -0.1719971
vn -0.9848633 0 -0.1719971
vn -0.9848633 0 -0.1719971
vn 0.09832764 0.9951172 0
vn 0.09832764 0.9951172 0
vn 0.09832764 0.9951172 0
vn 0.09832764 0.9951172 0
vn 0.1719971 0 0.9848633
vn 0.1719971 0 0.9848633
vn 0.1719971 0 0.9848633
vn 0.1719971 0 0.9848633
vn 0.1719971 0 -0.9848633
vn 0.1719971 0 -0.9848633
vn 0.1719971 0 -0.9848633
vn 0.1719971 0 -0.9848633
vn -0.0004963875 1 -0.0004963875
vn -0.0004963875 1 -0.0004963875
vn -0.0004963875 1 -0.0004963875
vn -0.0004963875 1 -0.0004963875
vn 0.9321289 0.3615723 0.001166344
vn 0.9321289 0.3615723 0.001166344
vn 0.9321289 0.3615723 0.001166344
vn 0.9321289 0.3615723 0.001166344
vn -0.007263184 0.3596191 -0.9331055
vn -0.007263184 0.3596191 -0.9331055
vn -0.007263184 0.3596191 -0.9331055
vn -0.007263184 0.3596191 -0.9331055
vn -0.9326172 0.361084 -0.00305748
vn -0.9326172 0.361084 -0.00305748
vn -0.9326172 0.361084 -0.00305748
vn -0.9326172 0.361084 -0.00305748
vn 0.001303673 0.3615723 0.9321289
vn 0.001303673 0.3615723 0.9321289
vn 0.001303673 0.3615723 0.9321289
vn 0.001303673 0.3615723 0.9321289
vn -0.7998047 0.6005859 0.001414299
vn -0.7998047 0.6005859 0.001414299
vn -0.7998047 0.6005859 0.001414299
vn -0.7998047 0.6005859 0.001414299
vn 0.003009796 0.5981445 0.8012695
vn 0.003009796 0.5981445 0.8012695
vn 0.003009796 0.5981445 0.8012695
vn 0.003009796 0.5981445 0.8012695
vn 0.800293 0.6000977 -0.000617981
vn 0.800293 0.6000977 -0.000617981
vn 0.800293 0.6000977 -0.000617981
vn 0.800293 0.6000977 -0.000617981
vn 0.001302719 0.6000977 -0.7998047
vn 0.001302719 0.6000977 -0.7998047
vn 0.001302719 0.6000977 -0.7998047
vn 0.001302719 0.6000977 -0.7998047
vn 0.001001358 1 0.001001358
vn 0.001001358 1 0.001001358
vn -0.001694679 1 0.001149178
vn -0.001694679 1 0.001149178
vn 0.001142502 1 -0.001702309
vn -0.001554489 1 -0.001554489
vn 0.001142502 1 -0.001702309
vn -0.001554489 1 -0.001554489
vn 0.00117588 1 0.00117588
vn 0.00117588 1 0.00117588
vn -0.001804352 1 0.001271248
vn -0.001804352 1 0.001271248
vn 0.001262665 1 -0.001812935
vn -0.001718521 1 -0.001717567
vn 0.001262665 1 -0.001812935
vn -0.001718521 1 -0.001717567
g SM_Prop_Sidewalk_Panel_06_0
f 3/3/3 2/2/2 1/1/1
f 4/4/4 3/3/3 1/1/1
f 7/7/7 6/6/6 5/5/5
f 8/8/8 7/7/7 5/5/5
f 11/11/11 10/10/10 9/9/9
f 12/12/12 11/11/11 9/9/9
f 15/15/15 14/14/14 13/13/13
f 16/16/16 15/15/15 13/13/13
f 19/19/19 18/18/18 17/17/17
f 20/20/20 19/19/19 17/17/17
f 23/23/23 22/22/22 21/21/21
f 24/24/24 23/23/23 21/21/21
f 27/27/27 26/26/26 25/25/25
f 28/28/28 27/27/27 25/25/25
f 31/31/31 30/30/30 29/29/29
f 32/32/32 31/31/31 29/29/29
f 35/35/35 34/34/34 33/33/33
f 34/34/34 36/36/36 33/33/33
f 33/33/33 36/36/36 37/37/37
f 36/36/36 38/38/38 37/37/37
f 37/37/37 38/38/38 39/39/39
f 38/38/38 40/40/40 39/39/39
f 43/43/43 42/42/42 41/41/41
f 42/42/42 44/44/44 41/41/41
f 41/41/41 44/44/44 45/45/45
f 44/44/44 46/46/46 45/45/45
f 45/45/45 46/46/46 47/47/47
f 46/46/46 48/48/48 47/47/47
f 51/51/51 50/50/50 49/49/49
f 50/50/50 52/52/52 49/49/49
f 49/49/49 52/52/52 53/53/53
f 52/52/52 54/54/54 53/53/53
f 53/53/53 54/54/54 55/55/55
f 54/54/54 56/56/56 55/55/55
f 59/59/59 58/58/58 57/57/57
f 58/58/58 60/60/60 57/57/57
f 57/57/57 60/60/60 61/61/61
f 60/60/60 62/62/62 61/61/61
f 61/61/61 62/62/62 63/63/63
f 62/62/62 64/64/64 63/63/63
f 67/67/67 66/66/66 65/65/65
f 68/68/68 67/67/67 65/65/65
f 71/71/71 70/70/70 69/69/69
f 72/72/72 71/71/71 69/69/69
f 75/75/75 74/74/74 73/73/73
f 76/76/76 75/75/75 73/73/73
f 79/79/79 78/78/78 77/77/77
f 80/80/80 79/79/79 77/77/77
f 83/83/83 82/82/82 81/81/81
f 84/84/84 83/83/83 81/81/81
f 87/87/87 86/86/86 85/85/85
f 88/88/88 87/87/87 85/85/85
f 91/91/91 90/90/90 89/89/89
f 92/92/92 91/91/91 89/89/89
f 95/95/95 94/94/94 93/93/93
f 96/96/96 95/95/95 93/93/93
f 99/99/99 98/98/98 97/97/97
f 100/100/100 99/99/99 97/97/97
f 103/103/103 102/102/102 101/101/101
f 104/104/104 103/103/103 101/101/101
f 107/107/107 106/106/106 105/105/105
f 108/108/108 107/107/107 105/105/105
f 111/111/111 110/110/110 109/109/109
f 112/112/112 111/111/111 109/109/109
f 115/115/115 114/114/114 113/113/113
f 116/116/116 115/115/115 113/113/113
f 119/119/119 118/118/118 117/117/117
f 120/120/120 119/119/119 117/117/117
f 123/123/123 122/122/122 121/121/121
f 124/124/124 123/123/123 121/121/121
f 127/127/127 126/126/126 125/125/125
f 128/128/128 127/127/127 125/125/125
f 131/131/131 130/130/130 129/129/129
f 132/132/132 131/131/131 129/129/129
f 135/135/135 134/134/134 133/133/133
f 136/136/136 135/135/135 133/133/133
f 139/139/139 138/138/138 137/137/137
f 140/140/140 139/139/139 137/137/137
f 143/143/143 142/142/142 141/141/141
f 144/144/144 143/143/143 141/141/141
f 147/147/147 146/146/146 145/145/145
f 148/148/148 147/147/147 145/145/145
f 151/151/151 150/150/150 149/149/149
f 152/152/152 151/151/151 149/149/149
f 149/149/149 150/150/150 153/153/153
f 154/154/154 151/151/151 152/152/152
f 150/150/150 155/155/155 153/153/153
f 156/156/156 154/154/154 152/152/152
f 153/153/153 155/155/155 156/156/156
f 155/155/155 154/154/154 156/156/156
f 159/159/159 158/158/158 157/157/157
f 160/160/160 159/159/159 157/157/157
f 157/157/157 158/158/158 161/161/161
f 162/162/162 159/159/159 160/160/160
f 158/158/158 163/163/163 161/161/161
f 164/164/164 162/162/162 160/160/160
f 161/161/161 163/163/163 164/164/164
f 163/163/163 162/162/162 164/164/164
