g SM_Prop_Door_03
v -1.155918 0.9357001 0.0836792
v -1.155918 1.382212 0.0836792
v -0.9854527 1.382212 0.0836792
v -0.9854527 0.9357001 0.0836792
v -0.9297619 0.9981502 0.0836792
v -0.9297619 1.319762 0.0836792
v -1.155918 1.382212 0.0836792
v -1.155918 1.382212 -0.08368301
v -0.9854527 1.382212 -0.08368301
v -0.9854527 1.382212 0.0836792
v -1.155918 1.382212 -0.08368301
v -1.155918 0.9357001 -0.08368301
v -0.9854527 0.9357001 -0.08368301
v -0.9854527 1.382212 -0.08368301
v -0.9297619 1.319762 -0.08368301
v -0.9297619 0.9981502 -0.08368301
v -1.155918 0.9357001 -0.08368301
v -1.155918 0.9357001 0.0836792
v -0.9854527 0.9357001 0.0836792
v -0.9854527 0.9357001 -0.08368301
v -0.9297619 0.9981502 0.0836792
v -0.9297619 1.319762 0.0836792
v -0.9297619 1.319762 -0.08368301
v -0.9297619 0.9981502 -0.08368301
v -1.155918 0.9357001 -0.08368301
v -1.155918 1.382212 -0.08368301
v -1.155918 1.382212 0.0836792
v -1.155918 0.9357001 0.0836792
v 0 2.589073 -0.05796051
v 0 2.589073 0.05796051
v -1.150747 2.589073 0.05796051
v -1.150747 2.589073 -0.05796051
v 0 1.16265 -0.0579586
v 0 2.589073 0.05796051
v 0 2.589073 -0.05796051
v 0 1.16265 0.0579567
v 0 0 -0.05796051
v 0 0 0.05796051
v 0 0 -0.05796051
v -1.150747 0 -0.05796051
v -1.150747 0 0.05796051
v 0 0 0.05796051
v -1.150747 1.16265 -0.0579586
v -1.150747 2.589073 -0.05796051
v -1.150747 2.589073 0.05796051
v -1.150747 1.16265 0.0579567
v -1.150747 0 -0.05796051
v -1.150747 0 0.05796051
v -0.09797475 2.48096 -0.05796051
v -0.09797475 2.48096 0.05796051
v -0.09797475 1.253387 0.0579567
v -0.09797475 1.253387 -0.0579586
v -0.09797475 1.253387 -0.0579586
v -0.09797475 1.253387 0.0579567
v -1.052774 1.253387 0.0579567
v -1.052774 1.253387 -0.0579586
v -0.09797475 1.071914 -0.0579586
v -0.09797475 1.071914 0.0579567
v -0.09797475 0.1081132 0.05796051
v -0.09797475 0.1081132 -0.05796051
v -0.09797475 0.1081132 -0.05796051
v -0.09797475 0.1081132 0.05796051
v -1.052773 0.1081132 0.05796051
v -1.052773 0.1081132 -0.05796051
v -0.09797475 2.48096 -0.05796051
v -1.052773 2.48096 -0.05796051
v -1.052773 2.48096 0.05796051
v -0.09797475 2.48096 0.05796051
v -1.052773 2.48096 -0.05796051
v -1.052774 1.253387 -0.0579586
v -1.052774 1.253387 0.0579567
v -1.052773 2.48096 0.05796051
v -0.09797475 1.071914 -0.0579586
v -1.052774 1.071914 -0.0579586
v -1.052774 1.071914 0.0579567
v -0.09797475 1.071914 0.0579567
v -1.052774 1.071914 -0.0579586
v -1.052773 0.1081132 -0.05796051
v -1.052773 0.1081132 0.05796051
v -1.052774 1.071914 0.0579567
v -0.9854527 0.9357001 0.0836792
v -0.9297619 0.9981502 0.0836792
v -0.9297619 0.9981502 -0.08368301
v -0.9854527 0.9357001 -0.08368301
v -0.9854527 1.382212 -0.08368301
v -0.9297619 1.319762 -0.08368301
v -0.9297619 1.319762 0.0836792
v -0.9854527 1.382212 0.0836792
v -1.150747 0 -0.05796051
v -0.09797475 0.1081132 -0.05796051
v -1.052773 0.1081132 -0.05796051
v -1.052774 1.071914 -0.0579586
v 0 0 -0.05796051
v -0.09797475 1.071914 -0.0579586
v 0 1.16265 -0.0579586
v -1.150747 1.16265 -0.0579586
v -0.09797475 1.253387 -0.0579586
v 0 2.589073 -0.05796051
v -0.09797475 2.48096 -0.05796051
v -1.052773 2.48096 -0.05796051
v -1.150747 2.589073 -0.05796051
v -1.052774 1.253387 -0.0579586
v -1.150747 0 0.05796051
v -1.052773 0.1081132 0.05796051
v -0.09797475 0.1081132 0.05796051
v -1.052774 1.071914 0.0579567
v 0 0 0.05796051
v -0.09797475 1.071914 0.0579567
v 0 1.16265 0.0579567
v -1.150747 1.16265 0.0579567
v -0.09797475 1.253387 0.0579567
v 0 2.589073 0.05796051
v -0.09797475 2.48096 0.05796051
v -1.052773 2.48096 0.05796051
v -1.150747 2.589073 0.05796051
v -1.052774 1.253387 0.0579567
vt 0.243042 0.3276367
vt 0.243042 0.3276367
vt 0.243042 0.3276367
vt 0.243042 0.3276367
vt 0.243042 0.3276367
vt 0.243042 0.3276367
vt 0.243042 0.3276367
vt 0.243042 0.3276367
vt 0.243042 0.3276367
vt 0.243042 0.3276367
vt 0.243042 0.3276367
vt 0.243042 0.3276367
vt 0.243042 0.3276367
vt 0.243042 0.3276367
vt 0.243042 0.3276367
vt 0.243042 0.3276367
vt 0.243042 0.3276367
vt 0.243042 0.3276367
vt 0.243042 0.3276367
vt 0.243042 0.3276367
vt 0.243042 0.3276367
vt 0.243042 0.3276367
vt 0.243042 0.3276367
vt 0.243042 0.3276367
vt 0.243042 0.3276367
vt 0.243042 0.3276367
vt 0.243042 0.3276367
vt 0.243042 0.3276367
vt 0.2436523 0.279541
vt 0.2436523 0.279541
vt 0.2436523 0.279541
vt 0.2436523 0.279541
vt 0.2436523 0.279541
vt 0.2436523 0.279541
vt 0.2436523 0.279541
vt 0.2436523 0.279541
vt 0.2436523 0.279541
vt 0.2436523 0.279541
vt 0.2436523 0.279541
vt 0.2436523 0.279541
vt 0.2436523 0.279541
vt 0.2436523 0.279541
vt 0.2436523 0.279541
vt 0.2436523 0.279541
vt 0.2436523 0.279541
vt 0.2436523 0.279541
vt 0.2436523 0.279541
vt 0.2436523 0.279541
vt 0.2436523 0.279541
vt 0.2436523 0.279541
vt 0.2436523 0.279541
vt 0.2436523 0.279541
vt 0.2436523 0.279541
vt 0.2436523 0.279541
vt 0.2436523 0.279541
vt 0.2436523 0.279541
vt 0.2436523 0.279541
vt 0.2436523 0.279541
vt 0.2436523 0.279541
vt 0.2436523 0.279541
vt 0.2436523 0.279541
vt 0.2436523 0.279541
vt 0.2436523 0.279541
vt 0.2436523 0.279541
vt 0.2436523 0.279541
vt 0.2436523 0.279541
vt 0.2436523 0.279541
vt 0.2436523 0.279541
vt 0.2436523 0.279541
vt 0.2436523 0.279541
vt 0.2436523 0.279541
vt 0.2436523 0.279541
vt 0.2436523 0.279541
vt 0.2436523 0.279541
vt 0.2436523 0.279541
vt 0.2436523 0.279541
vt 0.2436523 0.279541
vt 0.2436523 0.279541
vt 0.2436523 0.279541
vt 0.2436523 0.279541
vt 0.243042 0.3276367
vt 0.243042 0.3276367
vt 0.243042 0.3276367
vt 0.243042 0.3276367
vt 0.243042 0.3276367
vt 0.243042 0.3276367
vt 0.243042 0.3276367
vt 0.243042 0.3276367
vt 0.2436523 0.279541
vt 0.2436523 0.279541
vt 0.2436523 0.279541
vt 0.2436523 0.279541
vt 0.2436523 0.279541
vt 0.2436523 0.279541
vt 0.2436523 0.279541
vt 0.2436523 0.279541
vt 0.2436523 0.279541
vt 0.2436523 0.279541
vt 0.2436523 0.279541
vt 0.2436523 0.279541
vt 0.2436523 0.279541
vt 0.2436523 0.279541
vt 0.2436523 0.279541
vt 0.2436523 0.279541
vt 0.2436523 0.279541
vt 0.2436523 0.279541
vt 0.2436523 0.279541
vt 0.2436523 0.279541
vt 0.2436523 0.279541
vt 0.2436523 0.279541
vt 0.2436523 0.279541
vt 0.2436523 0.279541
vt 0.2436523 0.279541
vt 0.2436523 0.279541
vt 0.2436523 0.279541
vt 0.2436523 0.279541
vn 0 0 1
vn 0 0 1
vn 0 0 1
vn 0 0 1
vn 0 0 1
vn 0 0 1
vn 0 1 0
vn 0 1 0
vn 0 1 0
vn 0 1 0
vn 0 0 -1
vn 0 0 -1
vn 0 0 -1
vn 0 0 -1
vn 0 0 -1
vn 0 0 -1
vn 0 -1 0
vn 0 -1 0
vn 0 -1 0
vn 0 -1 0
vn 1 0 0
vn 1 0 0
vn 1 0 0
vn 1 0 0
vn -1 0 0
vn -1 0 0
vn -1 0 0
vn -1 0 0
vn 0 1 0
vn 0 1 0
vn 0 1 0
vn 0 1 0
vn 1 0 0
vn 1 0 0
vn 1 0 0
vn 1 0 0
vn 1 0 0
vn 1 0 0
vn 0 -1 0
vn 0 -1 0
vn 0 -1 0
vn 0 -1 0
vn -1 0 0
vn -1 0 0
vn -1 0 0
vn -1 0 0
vn -1 0 0
vn -1 0 0
vn -1 0 0
vn -1 0 0
vn -1 0 0
vn -1 0 0
vn 0 1 0
vn 0 1 0
vn 0 1 0
vn 0 1 0
vn -1 0 0
vn -1 0 0
vn -1 0 0
vn -1 0 0
vn 0 1 0
vn 0 1 0
vn 0 1 0
vn 0 1 0
vn 0 -1 0
vn 0 -1 0
vn 0 -1 0
vn 0 -1 0
vn 1 0 0
vn 1 0 0
vn 1 0 0
vn 1 0 0
vn 0 -1 0
vn 0 -1 0
vn 0 -1 0
vn 0 -1 0
vn 1 0 0
vn 1 0 0
vn 1 0 0
vn 1 0 0
vn 0.746582 -0.6655273 0
vn 0.746582 -0.6655273 0
vn 0.746582 -0.6655273 0
vn 0.746582 -0.6655273 0
vn 0.746582 0.6655273 0
vn 0.746582 0.6655273 0
vn 0.746582 0.6655273 0
vn 0.746582 0.6655273 0
vn 0 0 -1
vn 0 0 -1
vn 0 0 -1
vn 0 0 -1
vn 0 0 -1
vn 0 0 -1
vn 0 0 -1
vn 0 0 -1
vn 0 0 -1
vn 0 0 -1
vn 0 0 -1
vn 0 0 -1
vn 0 0 -1
vn 0 0 -1
vn 0 0 1
vn 0 0 1
vn 0 0 1
vn 0 0 1
vn 0 0 1
vn 0 0 1
vn 0 0 1
vn 0 0 1
vn 0 0 1
vn 0 0 1
vn 0 0 1
vn 0 0 1
vn 0 0 1
vn 0 0 1
g SM_Prop_Door_03_0
f 3/3/3 2/2/2 1/1/1
f 4/4/4 3/3/3 1/1/1
f 4/4/4 5/5/5 3/3/3
f 5/5/5 6/6/6 3/3/3
f 9/9/9 8/8/8 7/7/7
f 10/10/10 9/9/9 7/7/7
f 13/13/13 12/12/12 11/11/11
f 14/14/14 13/13/13 11/11/11
f 14/14/14 15/15/15 13/13/13
f 15/15/15 16/16/16 13/13/13
f 19/19/19 18/18/18 17/17/17
f 20/20/20 19/19/19 17/17/17
f 23/23/23 22/22/22 21/21/21
f 24/24/24 23/23/23 21/21/21
f 27/27/27 26/26/26 25/25/25
f 28/28/28 27/27/27 25/25/25
f 31/31/31 30/30/30 29/29/29
f 32/32/32 31/31/31 29/29/29
f 35/35/35 34/34/34 33/33/33
f 34/34/34 36/36/36 33/33/33
f 33/33/33 36/36/36 37/37/37
f 36/36/36 38/38/38 37/37/37
f 41/41/41 40/40/40 39/39/39
f 42/42/42 41/41/41 39/39/39
f 45/45/45 44/44/44 43/43/43
f 46/46/46 45/45/45 43/43/43
f 46/46/46 43/43/43 47/47/47
f 48/48/48 46/46/46 47/47/47
f 51/51/51 50/50/50 49/49/49
f 52/52/52 51/51/51 49/49/49
f 55/55/55 54/54/54 53/53/53
f 56/56/56 55/55/55 53/53/53
f 59/59/59 58/58/58 57/57/57
f 60/60/60 59/59/59 57/57/57
f 63/63/63 62/62/62 61/61/61
f 64/64/64 63/63/63 61/61/61
f 67/67/67 66/66/66 65/65/65
f 68/68/68 67/67/67 65/65/65
f 71/71/71 70/70/70 69/69/69
f 72/72/72 71/71/71 69/69/69
f 75/75/75 74/74/74 73/73/73
f 76/76/76 75/75/75 73/73/73
f 79/79/79 78/78/78 77/77/77
f 80/80/80 79/79/79 77/77/77
f 83/83/83 82/82/82 81/81/81
f 84/84/84 83/83/83 81/81/81
f 87/87/87 86/86/86 85/85/85
f 88/88/88 87/87/87 85/85/85
f 91/91/91 90/90/90 89/89/89
f 91/91/91 89/89/89 92/92/92
f 90/90/90 93/93/93 89/89/89
f 90/90/90 94/94/94 93/93/93
f 94/94/94 95/95/95 93/93/93
f 89/89/89 96/96/96 92/92/92
f 97/97/97 95/95/95 94/94/94
f 97/97/97 94/94/94 92/92/92
f 98/98/98 95/95/95 97/97/97
f 99/99/99 98/98/98 97/97/97
f 99/99/99 100/100/100 98/98/98
f 100/100/100 101/101/101 98/98/98
f 102/102/102 97/97/97 92/92/92
f 92/92/92 96/96/96 102/102/102
f 102/102/102 96/96/96 101/101/101
f 100/100/100 102/102/102 101/101/101
f 105/105/105 104/104/104 103/103/103
f 103/103/103 104/104/104 106/106/106
f 107/107/107 105/105/105 103/103/103
f 108/108/108 105/105/105 107/107/107
f 109/109/109 108/108/108 107/107/107
f 110/110/110 103/103/103 106/106/106
f 109/109/109 111/111/111 108/108/108
f 108/108/108 111/111/111 106/106/106
f 109/109/109 112/112/112 111/111/111
f 112/112/112 113/113/113 111/111/111
f 114/114/114 113/113/113 112/112/112
f 115/115/115 114/114/114 112/112/112
f 111/111/111 116/116/116 106/106/106
f 110/110/110 106/106/106 116/116/116
f 116/116/116 114/114/114 115/115/115
f 110/110/110 116/116/116 115/115/115
