g SM_Prop_MarketTable_03
v -1.15464 0.8656607 0.3992724
v -1.15464 0.8630648 -0.4398899
v -1.107528 0.8563517 -0.4021663
v -1.107528 0.8563517 -0.4021663
v -1.107528 0.867771 0.3874135
v -1.15464 0.8656607 0.3992724
v -1.15464 0.8656607 0.3992724
v -1.109704 0.8597082 0.4327226
v -1.15464 0.8218319 0.4327226
v -0.6429017 0.8597082 0.4327226
v -0.683594 0.8116689 0.4327226
v -0.7158806 0.8597082 0.3981576
v -0.683594 0.8116689 0.4327226
v -0.7897906 0.8597082 0.4327226
v -0.7158806 0.8597082 0.3981576
v 1.060557 0.769725 0.334403
v -1.063113 0.769725 0.334403
v -1.063113 0.769725 -0.369904
v 1.060557 0.769725 -0.369904
v 1.152075 0.7542815 -0.4398899
v -1.15464 0.7542815 -0.4398899
v -1.15464 0.7542815 0.4327226
v 1.152075 0.7542815 0.4327226
v 1.152075 0.7542815 -0.4398899
v 1.152075 0.7542815 0.4327226
v 1.152075 0.8597082 0.4327226
v 1.152075 0.8630648 -0.4398899
v 1.152075 0.8630648 -0.4398899
v -1.15464 0.8630648 -0.4398899
v -1.15464 0.7542815 -0.4398899
v 1.152075 0.7542815 -0.4398899
v -1.15464 0.8218319 0.4327226
v -1.15464 0.7542815 0.4327226
v -1.15464 0.7542815 -0.4398899
v -1.15464 0.8630648 -0.4398899
v -1.15464 0.8656607 0.3992724
v 1.104973 0.8563517 -0.4021663
v -1.107528 0.8563517 -0.4021663
v -1.15464 0.8630648 -0.4398899
v 1.152075 0.8630648 -0.4398899
v -1.107528 0.867771 0.3874135
v -1.123354 0.8650623 0.4026351
v -1.15464 0.8656607 0.3992724
v -1.109704 0.8597082 0.4327226
v -0.7158806 0.8597082 0.3981576
v -0.7897906 0.8597082 0.4327226
v 1.152075 0.8597082 0.4327226
v -0.6429017 0.8597082 0.4327226
v 1.104973 0.867771 0.3874135
v 1.152075 0.8630648 -0.4398899
v 1.152075 0.8597082 0.4327226
v 1.104973 0.867771 0.3874135
v 1.104973 0.8563517 -0.4021663
v 1.060557 0.769725 0.334403
v 1.104973 0.867771 0.3874135
v -1.107528 0.867771 0.3874135
v -1.063113 0.769725 0.334403
v 1.060557 0.769725 -0.369904
v 1.104973 0.8563517 -0.4021663
v 1.104973 0.867771 0.3874135
v 1.060557 0.769725 0.334403
v 1.060557 0.769725 -0.369904
v -1.063113 0.769725 -0.369904
v -1.107528 0.8563517 -0.4021663
v 1.104973 0.8563517 -0.4021663
v -1.063113 0.769725 -0.369904
v -1.063113 0.769725 0.334403
v -1.107528 0.867771 0.3874135
v -1.107528 0.8563517 -0.4021663
v 1.152075 0.7542815 0.4327226
v -0.6429017 0.8597082 0.4327226
v 1.152075 0.8597082 0.4327226
v -0.683594 0.8116689 0.4327226
v -1.15464 0.7542815 0.4327226
v -0.7897906 0.8597082 0.4327226
v -1.15464 0.8218319 0.4327226
v -1.109704 0.8597082 0.4327226
v -0.7158806 0.8597082 0.3981576
v -1.123354 0.8650623 0.4026351
v -1.107528 0.867771 0.3874135
v 1.104973 0.867771 0.3874135
vt 0.9941406 0.3034668
vt 0.9941406 0.3034668
vt 0.9941406 0.3034668
vt 0.9941406 0.3034668
vt 0.9941406 0.3034668
vt 0.9941406 0.3034668
vt 0.9941406 0.3034668
vt 0.9941406 0.3034668
vt 0.9941406 0.3034668
vt 0.9941406 0.3034668
vt 0.9941406 0.3034668
vt 0.9941406 0.3034668
vt 0.9941406 0.3034668
vt 0.9941406 0.3034668
vt 0.9941406 0.3034668
vt 0.2454834 0.3044434
vt 0.2454834 0.3044434
vt 0.2454834 0.3044434
vt 0.2454834 0.3044434
vt 0.9941406 0.3034668
vt 0.9941406 0.3034668
vt 0.9941406 0.3034668
vt 0.9941406 0.3034668
vt 0.9941406 0.3034668
vt 0.9941406 0.3034668
vt 0.9941406 0.3034668
vt 0.9941406 0.3034668
vt 0.9941406 0.3034668
vt 0.9941406 0.3034668
vt 0.9941406 0.3034668
vt 0.9941406 0.3034668
vt 0.9941406 0.3034668
vt 0.9941406 0.3034668
vt 0.9941406 0.3034668
vt 0.9941406 0.3034668
vt 0.9941406 0.3034668
vt 0.9941406 0.3034668
vt 0.9941406 0.3034668
vt 0.9941406 0.3034668
vt 0.9941406 0.3034668
vt 0.9941406 0.3034668
vt 0.9941406 0.3034668
vt 0.9941406 0.3034668
vt 0.9941406 0.3034668
vt 0.9941406 0.3034668
vt 0.9941406 0.3034668
vt 0.9941406 0.3034668
vt 0.9941406 0.3034668
vt 0.9941406 0.3034668
vt 0.9941406 0.3034668
vt 0.9941406 0.3034668
vt 0.9941406 0.3034668
vt 0.9941406 0.3034668
vt 0.2454834 0.3044434
vt 0.2454834 0.3044434
vt 0.2454834 0.3044434
vt 0.2454834 0.3044434
vt 0.2454834 0.3044434
vt 0.2454834 0.3044434
vt 0.2454834 0.3044434
vt 0.2454834 0.3044434
vt 0.2454834 0.3044434
vt 0.2454834 0.3044434
vt 0.2454834 0.3044434
vt 0.2454834 0.3044434
vt 0.2454834 0.3044434
vt 0.2454834 0.3044434
vt 0.2454834 0.3044434
vt 0.2454834 0.3044434
vt 0.9941406 0.3034668
vt 0.9941406 0.3034668
vt 0.9941406 0.3034668
vt 0.9941406 0.3034668
vt 0.9941406 0.3034668
vt 0.9941406 0.3034668
vt 0.9941406 0.3034668
vt 0.9941406 0.3034668
vt 0.9941406 0.3034668
vt 0.9941406 0.3034668
vt 0.9941406 0.3034668
vt 0.9941406 0.3034668
vn 0.1434326 0.9897461 -0.003061295
vn 0.1434326 0.9897461 -0.003061295
vn 0.1434326 0.9897461 -0.003061295
vn -0.04837036 0.9985352 -0.01444244
vn -0.04837036 0.9985352 -0.01444244
vn -0.04837036 0.9985352 -0.01444244
vn -0.4553223 0.5400391 0.7075195
vn -0.4553223 0.5400391 0.7075195
vn -0.4553223 0.5400391 0.7075195
vn -0.4023438 0.3408203 0.8496094
vn -0.4023438 0.3408203 0.8496094
vn -0.4023438 0.3408203 0.8496094
vn 0.3093262 0.6835938 0.6611328
vn 0.3093262 0.6835938 0.6611328
vn 0.3093262 0.6835938 0.6611328
vn 0 1 0
vn 0 1 0
vn 0 1 0
vn 0 1 0
vn 0 -1 0
vn 0 -1 0
vn 0 -1 0
vn 0 -1 0
vn 1 0 0
vn 1 0 0
vn 1 0 0
vn 1 0 0
vn 0 0 -1
vn 0 0 -1
vn 0 0 -1
vn 0 0 -1
vn -1 0 0
vn -1 0 0
vn -1 0 0
vn -1 0 0
vn -1 0 0
vn 0 0.984375 0.1751709
vn 0 0.984375 0.1751709
vn 0 0.984375 0.1751709
vn 0 0.984375 0.1751709
vn 0 0.984375 0.1751709
vn 0.002630234 0.9892578 0.1468506
vn 0 0.984375 0.1751709
vn 0.003944397 0.9912109 0.1326904
vn 0.002986908 0.9951172 0.09655762
vn 0.007881165 0.9960938 0.08984375
vn -0.001911163 0.9946289 0.1032715
vn -0.001911163 0.9946289 0.1032715
vn -0.001911163 0.9946289 0.1032715
vn 0.0147171 1 -0.00484848
vn 0.0147171 1 -0.00484848
vn 0.0147171 1 -0.00484848
vn 0.0147171 1 -0.00484848
vn 0 0.4755859 -0.8798828
vn 0 0.4755859 -0.8798828
vn 0 0.4755859 -0.8798828
vn 0 0.4755859 -0.8798828
vn -0.9008789 0.4338379 -0.003314972
vn -0.9008789 0.4338379 -0.003314972
vn -0.9008789 0.4338379 -0.003314972
vn -0.9008789 0.4338379 -0.003314972
vn 0 0.3491211 0.9370117
vn 0 0.3491211 0.9370117
vn 0 0.3491211 0.9370117
vn 0 0.3491211 0.9370117
vn 0.9008789 0.4338379 -0.003314972
vn 0.9008789 0.4338379 -0.003314972
vn 0.9008789 0.4338379 -0.003314972
vn 0.9008789 0.4338379 -0.003314972
vn 0 0 1
vn 0 0 1
vn 0 0 1
vn 0 0 1
vn 0 0 1
vn 0 0 1
vn 0 0 1
vn 0 0 1
vn 0.002641678 0.84375 0.5366211
vn 0.002641678 0.84375 0.5366211
vn 0.002641678 0.84375 0.5366211
vn 0.002641678 0.84375 0.5366211
g SM_Prop_MarketTable_03_0
f 3/3/3 2/2/2 1/1/1
f 6/6/6 5/5/5 4/4/4
f 9/9/9 8/8/8 7/7/7
f 12/12/12 11/11/11 10/10/10
f 15/15/15 14/14/14 13/13/13
f 18/18/18 17/17/17 16/16/16
f 19/19/19 18/18/18 16/16/16
f 22/22/22 21/21/21 20/20/20
f 23/23/23 22/22/22 20/20/20
f 26/26/26 25/25/25 24/24/24
f 27/27/27 26/26/26 24/24/24
f 30/30/30 29/29/29 28/28/28
f 31/31/31 30/30/30 28/28/28
f 34/34/34 33/33/33 32/32/32
f 32/32/32 35/35/35 34/34/34
f 32/32/32 36/36/36 35/35/35
f 39/39/39 38/38/38 37/37/37
f 40/40/40 39/39/39 37/37/37
f 43/43/43 42/42/42 41/41/41
f 43/43/43 44/44/44 42/42/42
f 42/42/42 44/44/44 45/45/45
f 44/44/44 46/46/46 45/45/45
f 45/45/45 48/48/48 47/47/47
f 49/49/49 45/45/45 47/47/47
f 52/52/52 51/51/51 50/50/50
f 53/53/53 52/52/52 50/50/50
f 56/56/56 55/55/55 54/54/54
f 57/57/57 56/56/56 54/54/54
f 60/60/60 59/59/59 58/58/58
f 61/61/61 60/60/60 58/58/58
f 64/64/64 63/63/63 62/62/62
f 65/65/65 64/64/64 62/62/62
f 68/68/68 67/67/67 66/66/66
f 69/69/69 68/68/68 66/66/66
f 72/72/72 71/71/71 70/70/70
f 71/71/71 73/73/73 70/70/70
f 73/73/73 74/74/74 70/70/70
f 73/73/73 75/75/75 74/74/74
f 75/75/75 76/76/76 74/74/74
f 75/75/75 77/77/77 76/76/76
f 80/80/80 79/79/79 78/78/78
f 81/81/81 80/80/80 78/78/78
