g SM_Prop_Detail_Wire_04
v 0.2290832 0.1382152 -0.01324596
v 0.2369625 0.1278123 -0.008186452
v 0.2369625 0.1278123 0.00818645
v 0.2290832 0.1382152 0.01324595
v 0.2242133 0.1446447 1.490116E-09
v -0.227239 0.3920321 -0.01330312
v -0.236962 0.3854007 -0.008197968
v -0.236962 0.3854007 0.008197968
v -0.227239 0.3920321 0.01330312
v -0.2212625 0.3961293 1.84425E-18
v -0.2299317 0.390199 1.812268E-18
v -0.1919078 0.2496207 0.0132936
v -0.2015383 0.2427932 0.008196048
v -0.2015383 0.2427932 -0.008196048
v -0.1919078 0.2496207 -0.0132936
v -0.1859686 0.2537951 2.483527E-10
v -0.136314 0.1245597 0.01328407
v -0.1434222 0.1128631 0.008194127
v -0.1434222 0.1128631 -0.008194129
v -0.136314 0.1245597 -0.01328407
v -0.1319214 0.1317485 4.967053E-10
v -0.05161007 0.04206239 0.01327454
v -0.05512976 0.02728971 0.008192208
v -0.05512976 0.02728971 -0.00819221
v -0.05161007 0.04206239 -0.01327454
v -0.0494264 0.05116397 7.45058E-10
v 0.04838175 0.01559945 0.01326501
v 0.04896355 2.980232E-08 0.008190288
v 0.04896355 2.980232E-08 -0.008190291
v 0.04838175 0.01559945 -0.01326501
v 0.04802953 0.02522601 9.934107E-10
v 0.1473299 0.04949448 0.01325548
v 0.1519137 0.03543188 0.008188369
v 0.1519137 0.03543188 -0.008188372
v 0.1473299 0.04949448 -0.01325549
v 0.144502 0.05818158 1.241763E-09
v 0.2369625 0.1278123 -0.008186452
v 0.1519137 0.03543188 -0.008188372
v 0.1519137 0.03543188 0.008188369
v 0.2369625 0.1278123 0.00818645
v 0.2290832 0.1382152 0.01324595
v 0.1473299 0.04949448 0.01325548
v 0.2242133 0.1446447 1.490116E-09
v 0.144502 0.05818158 1.241763E-09
v 0.1473299 0.04949448 -0.01325549
v 0.2290832 0.1382152 -0.01324596
v -0.236962 0.3854007 0.008197968
v -0.227239 0.3920321 0.01330312
v -0.236962 0.3854007 -0.008197968
v -0.236962 0.3854007 0.008197968
v -0.2015383 0.2427932 0.008196048
v -0.227239 0.3920321 -0.01330312
v -0.236962 0.3854007 -0.008197968
v -0.2015383 0.2427932 -0.008196048
v -0.2212625 0.3961293 1.84425E-18
v -0.227239 0.3920321 -0.01330312
v -0.1919078 0.2496207 -0.0132936
v -0.1919078 0.2496207 0.0132936
v -0.227239 0.3920321 0.01330312
v -0.2212625 0.3961293 1.84425E-18
v -0.1859686 0.2537951 2.483527E-10
v -0.2015383 0.2427932 0.008196048
v -0.1919078 0.2496207 0.0132936
v -0.2015383 0.2427932 -0.008196048
v -0.2015383 0.2427932 0.008196048
v -0.1434222 0.1128631 0.008194127
v -0.1919078 0.2496207 -0.0132936
v -0.2015383 0.2427932 -0.008196048
v -0.1434222 0.1128631 -0.008194129
v -0.1859686 0.2537951 2.483527E-10
v -0.1919078 0.2496207 -0.0132936
v -0.136314 0.1245597 -0.01328407
v -0.136314 0.1245597 0.01328407
v -0.1919078 0.2496207 0.0132936
v -0.1859686 0.2537951 2.483527E-10
v -0.1319214 0.1317485 4.967053E-10
v -0.1434222 0.1128631 0.008194127
v -0.136314 0.1245597 0.01328407
v -0.1434222 0.1128631 -0.008194129
v -0.1434222 0.1128631 0.008194127
v -0.05512976 0.02728971 0.008192208
v -0.136314 0.1245597 -0.01328407
v -0.1434222 0.1128631 -0.008194129
v -0.05512976 0.02728971 -0.00819221
v -0.1319214 0.1317485 4.967053E-10
v -0.136314 0.1245597 -0.01328407
v -0.05161007 0.04206239 -0.01327454
v -0.05161007 0.04206239 0.01327454
v -0.136314 0.1245597 0.01328407
v -0.1319214 0.1317485 4.967053E-10
v -0.0494264 0.05116397 7.45058E-10
v -0.05512976 0.02728971 0.008192208
v -0.05161007 0.04206239 0.01327454
v -0.05512976 0.02728971 -0.00819221
v -0.05512976 0.02728971 0.008192208
v 0.04896355 2.980232E-08 0.008190288
v -0.05161007 0.04206239 -0.01327454
v -0.05512976 0.02728971 -0.00819221
v 0.04896355 2.980232E-08 -0.008190291
v -0.0494264 0.05116397 7.45058E-10
v -0.05161007 0.04206239 -0.01327454
v 0.04838175 0.01559945 -0.01326501
v 0.04838175 0.01559945 0.01326501
v -0.05161007 0.04206239 0.01327454
v -0.0494264 0.05116397 7.45058E-10
v 0.04802953 0.02522601 9.934107E-10
v 0.04896355 2.980232E-08 0.008190288
v 0.04838175 0.01559945 0.01326501
v 0.1473299 0.04949448 0.01325548
v 0.1519137 0.03543188 0.008188369
v 0.1519137 0.03543188 -0.008188372
v 0.04896355 2.980232E-08 -0.008190291
v 0.04896355 2.980232E-08 0.008190288
v 0.1519137 0.03543188 0.008188369
v 0.1473299 0.04949448 -0.01325549
v 0.04838175 0.01559945 -0.01326501
v 0.04896355 2.980232E-08 -0.008190291
v 0.1519137 0.03543188 -0.008188372
v 0.144502 0.05818158 1.241763E-09
v 0.04802953 0.02522601 9.934107E-10
v 0.04838175 0.01559945 -0.01326501
v 0.1473299 0.04949448 -0.01325549
v 0.1473299 0.04949448 0.01325548
v 0.04838175 0.01559945 0.01326501
v 0.04802953 0.02522601 9.934107E-10
v 0.144502 0.05818158 1.241763E-09
vt 0.234375 0.2775879
vt 0.234375 0.2775879
vt 0.234375 0.2775879
vt 0.234375 0.2775879
vt 0.234375 0.2775879
vt 0.234375 0.2775879
vt 0.234375 0.2775879
vt 0.234375 0.2775879
vt 0.234375 0.2775879
vt 0.234375 0.2775879
vt 0.234375 0.2775879
vt 0.234375 0.2775879
vt 0.234375 0.2775879
vt 0.234375 0.2775879
vt 0.234375 0.2775879
vt 0.234375 0.2775879
vt 0.234375 0.2775879
vt 0.234375 0.2775879
vt 0.234375 0.2775879
vt 0.234375 0.2775879
vt 0.234375 0.2775879
vt 0.234375 0.2775879
vt 0.234375 0.2775879
vt 0.234375 0.2775879
vt 0.234375 0.2775879
vt 0.234375 0.2775879
vt 0.234375 0.2775879
vt 0.234375 0.2775879
vt 0.234375 0.2775879
vt 0.234375 0.2775879
vt 0.234375 0.2775879
vt 0.234375 0.2775879
vt 0.234375 0.2775879
vt 0.234375 0.2775879
vt 0.234375 0.2775879
vt 0.234375 0.2775879
vt 0.234375 0.2775879
vt 0.234375 0.2775879
vt 0.234375 0.2775879
vt 0.234375 0.2775879
vt 0.234375 0.2775879
vt 0.234375 0.2775879
vt 0.234375 0.2775879
vt 0.234375 0.2775879
vt 0.234375 0.2775879
vt 0.234375 0.2775879
vt 0.234375 0.2775879
vt 0.234375 0.2775879
vt 0.234375 0.2775879
vt 0.234375 0.2775879
vt 0.234375 0.2775879
vt 0.234375 0.2775879
vt 0.234375 0.2775879
vt 0.234375 0.2775879
vt 0.234375 0.2775879
vt 0.234375 0.2775879
vt 0.234375 0.2775879
vt 0.234375 0.2775879
vt 0.234375 0.2775879
vt 0.234375 0.2775879
vt 0.234375 0.2775879
vt 0.234375 0.2775879
vt 0.234375 0.2775879
vt 0.234375 0.2775879
vt 0.234375 0.2775879
vt 0.234375 0.2775879
vt 0.234375 0.2775879
vt 0.234375 0.2775879
vt 0.234375 0.2775879
vt 0.234375 0.2775879
vt 0.234375 0.2775879
vt 0.234375 0.2775879
vt 0.234375 0.2775879
vt 0.234375 0.2775879
vt 0.234375 0.2775879
vt 0.234375 0.2775879
vt 0.234375 0.2775879
vt 0.234375 0.2775879
vt 0.234375 0.2775879
vt 0.234375 0.2775879
vt 0.234375 0.2775879
vt 0.234375 0.2775879
vt 0.234375 0.2775879
vt 0.234375 0.2775879
vt 0.234375 0.2775879
vt 0.234375 0.2775879
vt 0.234375 0.2775879
vt 0.234375 0.2775879
vt 0.234375 0.2775879
vt 0.234375 0.2775879
vt 0.234375 0.2775879
vt 0.234375 0.2775879
vt 0.234375 0.2775879
vt 0.234375 0.2775879
vt 0.234375 0.2775879
vt 0.234375 0.2775879
vt 0.234375 0.2775879
vt 0.234375 0.2775879
vt 0.234375 0.2775879
vt 0.234375 0.2775879
vt 0.234375 0.2775879
vt 0.234375 0.2775879
vt 0.234375 0.2775879
vt 0.234375 0.2775879
vt 0.234375 0.2775879
vt 0.234375 0.2775879
vt 0.234375 0.2775879
vt 0.234375 0.2775879
vt 0.234375 0.2775879
vt 0.234375 0.2775879
vt 0.234375 0.2775879
vt 0.234375 0.2775879
vt 0.234375 0.2775879
vt 0.234375 0.2775879
vt 0.234375 0.2775879
vt 0.234375 0.2775879
vt 0.234375 0.2775879
vt 0.234375 0.2775879
vt 0.234375 0.2775879
vt 0.234375 0.2775879
vt 0.234375 0.2775879
vt 0.234375 0.2775879
vt 0.234375 0.2775879
vt 0.234375 0.2775879
vt 0.234375 0.2775879
vt 0.234375 0.2775879
vn 0.2692871 -0.2480469 -0.9306641
vn 0.2692871 -0.2480469 -0.9306641
vn 0.7358398 -0.6772461 0
vn 0.2692871 -0.2480469 0.9306641
vn -0.6303711 0.5810547 0.5146484
vn -0.5639648 0.8256836 -0.0003926754
vn -0.5634766 0.8261719 -0.0001174212
vn -0.5634766 0.8261719 0.0001174212
vn -0.5639648 0.8256836 0.0003926754
vn -0.5644531 0.8251953 0
vn -0.5639648 0.8256836 0
vn -0.407959 -0.1013184 0.9072266
vn -0.407959 -0.1013184 0.9072266
vn -0.9707031 -0.2410889 0
vn -0.407959 -0.1013184 -0.9072266
vn 0.8647461 0.2144775 -0.4541016
vn -0.3720703 -0.1660156 0.9130859
vn -0.3720703 -0.1660156 0.9130859
vn -0.9130859 -0.4082031 0
vn -0.3720703 -0.1660156 -0.9130859
vn 0.8081055 0.3586426 -0.4675293
vn -0.2504883 -0.2580566 0.9331055
vn -0.2504883 -0.2580566 0.9331055
vn -0.6958008 -0.7182617 0
vn -0.2504883 -0.2580566 -0.9331055
vn 0.5957031 0.6103516 -0.5219727
vn -0.08135986 -0.309082 0.9477539
vn -0.08135986 -0.309082 0.9477539
vn -0.2536621 -0.9672852 0
vn -0.08135986 -0.309082 -0.9477539
vn 0.2102051 0.7919922 -0.5732422
vn 0.2692871 -0.2480469 0.9306641
vn 0.7358398 -0.6772461 0
vn 0.2692871 -0.2480469 -0.9306641
vn 0.2692871 -0.2480469 -0.9306641
vn -0.6303711 0.5810547 0.5146484
vn 0.7358398 -0.6772461 0
vn 0.7358398 -0.6772461 0
vn 0.2692871 -0.2480469 0.9306641
vn 0.2692871 -0.2480469 0.9306641
vn -0.6303711 0.5810547 0.5146484
vn -0.6303711 0.5810547 0.5146484
vn -0.6303711 0.5810547 -0.5146484
vn -0.6303711 0.5810547 -0.5146484
vn -0.6303711 0.5810547 -0.5146484
vn -0.6303711 0.5810547 -0.5146484
vn -0.407959 -0.1013184 0.9072266
vn -0.407959 -0.1013184 0.9072266
vn -0.9707031 -0.2410889 0
vn -0.9707031 -0.2410889 0
vn -0.9707031 -0.2410889 0
vn -0.407959 -0.1013184 -0.9072266
vn -0.407959 -0.1013184 -0.9072266
vn -0.407959 -0.1013184 -0.9072266
vn 0.8647461 0.2144775 -0.4541016
vn 0.8647461 0.2144775 -0.4541016
vn 0.8647461 0.2144775 -0.4541016
vn 0.8647461 0.2144775 0.4541016
vn 0.8647461 0.2144775 0.4541016
vn 0.8647461 0.2144775 0.4541016
vn 0.8647461 0.2144775 0.4541016
vn -0.3720703 -0.1660156 0.9130859
vn -0.3720703 -0.1660156 0.9130859
vn -0.9130859 -0.4082031 0
vn -0.9130859 -0.4082031 0
vn -0.9130859 -0.4082031 0
vn -0.3720703 -0.1660156 -0.9130859
vn -0.3720703 -0.1660156 -0.9130859
vn -0.3720703 -0.1660156 -0.9130859
vn 0.8081055 0.3586426 -0.4675293
vn 0.8081055 0.3586426 -0.4675293
vn 0.8081055 0.3586426 -0.4675293
vn 0.8081055 0.3586426 0.4675293
vn 0.8081055 0.3586426 0.4675293
vn 0.8081055 0.3586426 0.4675293
vn 0.8081055 0.3586426 0.4675293
vn -0.2504883 -0.2580566 0.9331055
vn -0.2504883 -0.2580566 0.9331055
vn -0.6958008 -0.7182617 0
vn -0.6958008 -0.7182617 0
vn -0.6958008 -0.7182617 0
vn -0.2504883 -0.2580566 -0.9331055
vn -0.2504883 -0.2580566 -0.9331055
vn -0.2504883 -0.2580566 -0.9331055
vn 0.5957031 0.6103516 -0.5219727
vn 0.5957031 0.6103516 -0.5219727
vn 0.5957031 0.6103516 -0.5219727
vn 0.5957031 0.6103516 0.5219727
vn 0.5957031 0.6103516 0.5219727
vn 0.5957031 0.6103516 0.5219727
vn 0.5957031 0.6103516 0.5219727
vn -0.08135986 -0.309082 0.9477539
vn -0.08135986 -0.309082 0.9477539
vn -0.2536621 -0.9672852 0
vn -0.2536621 -0.9672852 0
vn -0.2536621 -0.9672852 0
vn -0.08135986 -0.309082 -0.9477539
vn -0.08135986 -0.309082 -0.9477539
vn -0.08135986 -0.309082 -0.9477539
vn 0.2102051 0.7919922 -0.5732422
vn 0.2102051 0.7919922 -0.5732422
vn 0.2102051 0.7919922 -0.5732422
vn 0.2102051 0.7919922 0.5732422
vn 0.2102051 0.7919922 0.5732422
vn 0.2102051 0.7919922 0.5732422
vn 0.2102051 0.7919922 0.5732422
vn 0.1049194 -0.3054199 0.9462891
vn 0.1049194 -0.3054199 0.9462891
vn 0.1049194 -0.3054199 0.9462891
vn 0.1049194 -0.3054199 0.9462891
vn 0.3254395 -0.9458008 0
vn 0.3254395 -0.9458008 0
vn 0.3254395 -0.9458008 0
vn 0.3254395 -0.9458008 0
vn 0.1049194 -0.3054199 -0.9462891
vn 0.1049194 -0.3054199 -0.9462891
vn 0.1049194 -0.3054199 -0.9462891
vn 0.1049194 -0.3054199 -0.9462891
vn -0.2661133 0.777832 -0.5693359
vn -0.2661133 0.777832 -0.5693359
vn -0.2661133 0.777832 -0.5693359
vn -0.2661133 0.777832 -0.5693359
vn -0.2661133 0.777832 0.5693359
vn -0.2661133 0.777832 0.5693359
vn -0.2661133 0.777832 0.5693359
vn -0.2661133 0.777832 0.5693359
g SM_Prop_Detail_Wire_04_0
f 34/34/34 35/35/35 1/1/1
f 2/2/2 34/34/34 1/1/1
f 33/33/33 38/38/38 37/37/37
f 3/3/3 33/33/33 37/37/37
f 4/4/4 32/32/32 39/39/39
f 40/40/40 4/4/4 39/39/39
f 36/36/36 42/42/42 41/41/41
f 5/5/5 36/36/36 41/41/41
f 45/45/45 44/44/44 43/43/43
f 46/46/46 45/45/45 43/43/43
f 12/12/12 48/48/48 47/47/47
f 13/13/13 12/12/12 47/47/47
f 50/50/50 49/49/49 14/14/14
f 51/51/51 50/50/50 14/14/14
f 53/53/53 52/52/52 15/15/15
f 54/54/54 53/53/53 15/15/15
f 56/56/56 55/55/55 16/16/16
f 57/57/57 56/56/56 16/16/16
f 60/60/60 59/59/59 58/58/58
f 61/61/61 60/60/60 58/58/58
f 17/17/17 63/63/63 62/62/62
f 18/18/18 17/17/17 62/62/62
f 65/65/65 64/64/64 19/19/19
f 66/66/66 65/65/65 19/19/19
f 68/68/68 67/67/67 20/20/20
f 69/69/69 68/68/68 20/20/20
f 71/71/71 70/70/70 21/21/21
f 72/72/72 71/71/71 21/21/21
f 75/75/75 74/74/74 73/73/73
f 76/76/76 75/75/75 73/73/73
f 22/22/22 78/78/78 77/77/77
f 23/23/23 22/22/22 77/77/77
f 80/80/80 79/79/79 24/24/24
f 81/81/81 80/80/80 24/24/24
f 83/83/83 82/82/82 25/25/25
f 84/84/84 83/83/83 25/25/25
f 86/86/86 85/85/85 26/26/26
f 87/87/87 86/86/86 26/26/26
f 90/90/90 89/89/89 88/88/88
f 91/91/91 90/90/90 88/88/88
f 27/27/27 93/93/93 92/92/92
f 28/28/28 27/27/27 92/92/92
f 95/95/95 94/94/94 29/29/29
f 96/96/96 95/95/95 29/29/29
f 98/98/98 97/97/97 30/30/30
f 99/99/99 98/98/98 30/30/30
f 101/101/101 100/100/100 31/31/31
f 102/102/102 101/101/101 31/31/31
f 105/105/105 104/104/104 103/103/103
f 106/106/106 105/105/105 103/103/103
f 109/109/109 108/108/108 107/107/107
f 110/110/110 109/109/109 107/107/107
f 113/113/113 112/112/112 111/111/111
f 114/114/114 113/113/113 111/111/111
f 117/117/117 116/116/116 115/115/115
f 118/118/118 117/117/117 115/115/115
f 121/121/121 120/120/120 119/119/119
f 122/122/122 121/121/121 119/119/119
f 125/125/125 124/124/124 123/123/123
f 126/126/126 125/125/125 123/123/123
f 7/7/7 11/11/11 6/6/6
f 6/6/6 11/11/11 10/10/10
f 8/8/8 11/11/11 7/7/7
f 10/10/10 11/11/11 9/9/9
f 9/9/9 11/11/11 8/8/8
