g SM_Prop_Overhang_02
v 2.407553 -0.8252651 -4.768372E-07
v 2.407553 0 0.1631136
v 2.407553 0 -4.768372E-07
v 2.407553 -0.3453438 0.3276791
v 2.407553 -0.854491 0.2461224
v 2.407553 -0.5235109 0.5253186
v 2.407553 -0.6871338 0.5253186
v -2.407553 -0.8252651 -4.768372E-07
v -2.407553 0 -4.768372E-07
v -2.407553 0 0.1631136
v -2.407553 -0.854491 0.2461224
v -2.407553 -0.3453438 0.3276791
v -2.407553 -0.6871338 0.5253186
v -2.407553 -0.5235109 0.5253186
v 2.407553 0 -4.768372E-07
v 2.320587 -0.8252651 -4.768372E-07
v 2.407553 -0.8252651 -4.768372E-07
v 2.320587 -0.06084251 -4.768372E-07
v 1.160295 -0.0936799 -9.536743E-07
v 1.20378 -0.03283739 -9.536743E-07
v 4.768372E-06 -0.06084251 -4.768372E-07
v 3.814697E-06 0 -4.768372E-07
v -1.160289 -0.0936799 -9.536743E-07
v -1.203773 -0.03283739 -9.536743E-07
v -2.407553 0 -4.768372E-07
v -2.320581 -0.06084251 -4.768372E-07
v -2.407553 -0.8252651 -4.768372E-07
v -2.320581 -0.8252651 -4.768372E-07
v 2.320587 -0.854491 0.2008224
v 2.320587 -0.6871338 0.4347181
v 2.407553 -0.6871338 0.5253186
v 2.407553 -0.854491 0.2461224
v -0.1311941 -0.8877733 0.4347181
v -1.034756 -0.8872368 0.4347181
v -1.068618 -0.8872368 0.5253186
v -0.1311941 -0.8877733 0.5253186
v -2.407553 -0.6871338 0.5253186
v -2.320581 -0.6871338 0.4347181
v -2.320581 -0.854491 0.2008224
v -2.407553 -0.854491 0.2461224
v 2.320587 -0.06084251 0.1492491
v 2.320587 -0.8252651 -4.768372E-07
v 2.320587 -0.06084251 -4.768372E-07
v 2.320587 -0.854491 0.2008224
v 2.320587 -0.6871338 0.4347181
v -2.320581 -0.6871338 0.4347181
v -2.320581 -0.06084251 0.1492491
v -2.320581 -0.854491 0.2008224
v -2.320581 -0.8252651 -4.768372E-07
v -2.320581 -0.06084251 -4.768372E-07
v 1.034764 -0.863424 0.4347181
v 0.1312027 -0.8872368 0.4347181
v 0.1312017 -0.8872368 0.5253186
v 1.068627 -0.863424 0.5253186
v -2.407553 0 0.1631136
v -2.407553 0 -4.768372E-07
v -1.203773 -0.03283739 -9.536743E-07
v -1.203773 -0.03283739 0.130722
v 3.814697E-06 0 0.1631136
v 3.814697E-06 0 -4.768372E-07
v 1.20378 -0.03283739 0.130722
v 1.20378 -0.03283739 -9.536743E-07
v 2.407553 0 0.1631136
v 2.407553 0 -4.768372E-07
v -1.203773 -0.5563483 0.4929271
v -2.407553 -0.5235109 0.5253186
v -2.407553 -0.3453438 0.3276791
v -1.203773 -0.3781812 0.2952876
v 3.814697E-06 -0.5235109 0.5253186
v 3.814697E-06 -0.3453438 0.3276791
v 1.20378 -0.5563483 0.4929271
v 1.20378 -0.3781812 0.2952876
v 2.407553 -0.3453438 0.3276791
v 2.407553 -0.5235109 0.5253186
v -2.407553 -0.6871338 0.5253186
v -2.407553 -0.5235109 0.5253186
v -1.203773 -0.5563483 0.4929271
v -1.203773 -0.7199714 0.4929271
v 3.814697E-06 -0.6871338 0.5253186
v 3.814697E-06 -0.5235109 0.5253186
v 1.20378 -0.7199714 0.4929271
v 1.20378 -0.5563483 0.4929271
v 0.1312017 -0.8872368 0.5253186
v 1.068627 -0.863424 0.5253186
v 2.407553 -0.6871338 0.5253186
v 2.407553 -0.5235109 0.5253186
v 1.330888 -0.8877733 0.5253195
v 2.268307 -0.863424 0.5253195
v -0.1311941 -0.8877733 0.5253186
v -1.068618 -0.8872368 0.5253186
v -1.203773 -0.7199714 0.4929271
v -1.330882 -0.863424 0.5253186
v -2.268309 -0.863424 0.5253186
v -2.407553 -0.6871338 0.5253186
v -1.297019 -0.863424 0.4347181
v -2.200582 -0.863424 0.4347181
v -2.268309 -0.863424 0.5253186
v -1.330882 -0.863424 0.5253186
v -2.320581 -0.06084251 0.1492491
v -2.320581 -0.6871338 0.4347181
v -1.160289 -0.7199714 0.4023265
v -1.160289 -0.0936799 0.1168575
v 4.768372E-06 -0.06084251 0.1492491
v 4.768372E-06 -0.6871338 0.4347181
v 1.160295 -0.0936799 0.1168575
v 1.160295 -0.7199714 0.4023265
v 2.320587 -0.06084251 0.1492491
v 2.320587 -0.6871338 0.4347181
v -2.320581 -0.06084251 -4.768372E-07
v -2.320581 -0.06084251 0.1492491
v -1.160289 -0.0936799 0.1168575
v -1.160289 -0.0936799 -9.536743E-07
v 4.768372E-06 -0.06084251 -4.768372E-07
v 4.768372E-06 -0.06084251 0.1492491
v 1.160295 -0.0936799 -9.536743E-07
v 1.160295 -0.0936799 0.1168575
v 2.320587 -0.06084251 -4.768372E-07
v 2.320587 -0.06084251 0.1492491
v 2.268307 -0.863424 0.5253195
v 2.200588 -0.863424 0.4347186
v 1.297025 -0.8877733 0.4347186
v 1.330888 -0.8877733 0.5253195
v -1.160289 -0.7199714 0.4023265
v -1.297019 -0.863424 0.4347181
v -1.330882 -0.863424 0.5253186
v -1.203773 -0.7199714 0.4929271
v -2.407553 -0.6871338 0.5253186
v -2.268309 -0.863424 0.5253186
v -2.200582 -0.863424 0.4347181
v -2.320581 -0.6871338 0.4347181
v -2.320581 -0.6871338 0.4347181
v -2.200582 -0.863424 0.4347181
v -1.297019 -0.863424 0.4347181
v -1.160289 -0.7199714 0.4023265
v -1.034756 -0.8872368 0.4347181
v -0.1311941 -0.8877733 0.4347181
v 4.768372E-06 -0.6871338 0.4347181
v 0.1312027 -0.8872368 0.4347181
v 1.034764 -0.863424 0.4347181
v 1.160295 -0.7199714 0.4023265
v 1.297025 -0.8877733 0.4347186
v 2.200588 -0.863424 0.4347186
v 2.320587 -0.6871338 0.4347181
v 1.20378 -0.7199714 0.4929271
v 1.330888 -0.8877733 0.5253195
v 1.297025 -0.8877733 0.4347186
v 1.160295 -0.7199714 0.4023265
v 2.320587 -0.6871338 0.4347181
v 2.200588 -0.863424 0.4347186
v 2.268307 -0.863424 0.5253195
v 2.407553 -0.6871338 0.5253186
v 4.768372E-06 -0.6871338 0.4347181
v -0.1311941 -0.8877733 0.4347181
v -0.1311941 -0.8877733 0.5253186
v 3.814697E-06 -0.6871338 0.5253186
v -1.203773 -0.7199714 0.4929271
v -1.068618 -0.8872368 0.5253186
v -1.034756 -0.8872368 0.4347181
v -1.160289 -0.7199714 0.4023265
v 1.160295 -0.7199714 0.4023265
v 1.034764 -0.863424 0.4347181
v 1.068627 -0.863424 0.5253186
v 1.20378 -0.7199714 0.4929271
v 3.814697E-06 -0.6871338 0.5253186
v 0.1312017 -0.8872368 0.5253186
v 0.1312027 -0.8872368 0.4347181
v 4.768372E-06 -0.6871338 0.4347181
v 2.407553 -0.8252651 -4.768372E-07
v 2.320587 -0.8252651 -4.768372E-07
v 2.320587 -0.854491 0.2008224
v 2.407553 -0.854491 0.2461224
v 2.407553 0 0.1631136
v 2.407553 -0.3453438 0.3276791
v 1.20378 -0.3781812 0.2952876
v 1.20378 -0.03283739 0.130722
v 3.814697E-06 -0.3453438 0.3276791
v 3.814697E-06 0 0.1631136
v -1.203773 -0.3781812 0.2952876
v -1.203773 -0.03283739 0.130722
v -2.407553 -0.3453438 0.3276791
v -2.407553 0 0.1631136
v -2.320581 -0.854491 0.2008224
v -2.320581 -0.8252651 -4.768372E-07
v -2.407553 -0.8252651 -4.768372E-07
v -2.407553 -0.854491 0.2461224
vt 0.145752 0.4443359
vt 0.145752 0.4443359
vt 0.145752 0.4443359
vt 0.145752 0.4443359
vt 0.145752 0.4443359
vt 0.145752 0.4443359
vt 0.145752 0.4443359
vt 0.145752 0.4443359
vt 0.145752 0.4443359
vt 0.145752 0.4443359
vt 0.145752 0.4443359
vt 0.145752 0.4443359
vt 0.145752 0.4443359
vt 0.145752 0.4443359
vt 0.145752 0.4443359
vt 0.145752 0.4443359
vt 0.145752 0.4443359
vt 0.145752 0.4443359
vt 0.145752 0.4443359
vt 0.145752 0.4443359
vt 0.145752 0.4443359
vt 0.145752 0.4443359
vt 0.145752 0.4443359
vt 0.145752 0.4443359
vt 0.145752 0.4443359
vt 0.145752 0.4443359
vt 0.145752 0.4443359
vt 0.145752 0.4443359
vt 0.145752 0.4443359
vt 0.145752 0.4443359
vt 0.145752 0.4443359
vt 0.145752 0.4443359
vt 0.145752 0.4443359
vt 0.145752 0.4443359
vt 0.145752 0.4443359
vt 0.145752 0.4443359
vt 0.145752 0.4443359
vt 0.145752 0.4443359
vt 0.145752 0.4443359
vt 0.145752 0.4443359
vt 0.145752 0.4443359
vt 0.145752 0.4443359
vt 0.145752 0.4443359
vt 0.145752 0.4443359
vt 0.145752 0.4443359
vt 0.145752 0.4443359
vt 0.145752 0.4443359
vt 0.145752 0.4443359
vt 0.145752 0.4443359
vt 0.145752 0.4443359
vt 0.145752 0.4443359
vt 0.145752 0.4443359
vt 0.145752 0.4443359
vt 0.145752 0.4443359
vt 0.145752 0.4443359
vt 0.145752 0.4443359
vt 0.145752 0.4443359
vt 0.145752 0.4443359
vt 0.145752 0.4443359
vt 0.145752 0.4443359
vt 0.145752 0.4443359
vt 0.145752 0.4443359
vt 0.145752 0.4443359
vt 0.145752 0.4443359
vt 0.145752 0.4443359
vt 0.145752 0.4443359
vt 0.145752 0.4443359
vt 0.145752 0.4443359
vt 0.145752 0.4443359
vt 0.145752 0.4443359
vt 0.145752 0.4443359
vt 0.145752 0.4443359
vt 0.145752 0.4443359
vt 0.145752 0.4443359
vt 0.145752 0.4443359
vt 0.145752 0.4443359
vt 0.145752 0.4443359
vt 0.145752 0.4443359
vt 0.145752 0.4443359
vt 0.145752 0.4443359
vt 0.145752 0.4443359
vt 0.145752 0.4443359
vt 0.145752 0.4443359
vt 0.145752 0.4443359
vt 0.145752 0.4443359
vt 0.145752 0.4443359
vt 0.145752 0.4443359
vt 0.145752 0.4443359
vt 0.145752 0.4443359
vt 0.145752 0.4443359
vt 0.145752 0.4443359
vt 0.145752 0.4443359
vt 0.145752 0.4443359
vt 0.145752 0.4443359
vt 0.145752 0.4443359
vt 0.145752 0.4443359
vt 0.145752 0.4443359
vt 0.145752 0.4443359
vt 0.145752 0.4443359
vt 0.145752 0.4443359
vt 0.145752 0.4443359
vt 0.145752 0.4443359
vt 0.145752 0.4443359
vt 0.145752 0.4443359
vt 0.145752 0.4443359
vt 0.145752 0.4443359
vt 0.145752 0.4443359
vt 0.145752 0.4443359
vt 0.145752 0.4443359
vt 0.145752 0.4443359
vt 0.145752 0.4443359
vt 0.145752 0.4443359
vt 0.145752 0.4443359
vt 0.145752 0.4443359
vt 0.145752 0.4443359
vt 0.145752 0.4443359
vt 0.145752 0.4443359
vt 0.145752 0.4443359
vt 0.145752 0.4443359
vt 0.145752 0.4443359
vt 0.145752 0.4443359
vt 0.145752 0.4443359
vt 0.145752 0.4443359
vt 0.145752 0.4443359
vt 0.145752 0.4443359
vt 0.145752 0.4443359
vt 0.145752 0.4443359
vt 0.145752 0.4443359
vt 0.145752 0.4443359
vt 0.145752 0.4443359
vt 0.145752 0.4443359
vt 0.145752 0.4443359
vt 0.145752 0.4443359
vt 0.145752 0.4443359
vt 0.145752 0.4443359
vt 0.145752 0.4443359
vt 0.145752 0.4443359
vt 0.145752 0.4443359
vt 0.145752 0.4443359
vt 0.145752 0.4443359
vt 0.145752 0.4443359
vt 0.145752 0.4443359
vt 0.145752 0.4443359
vt 0.145752 0.4443359
vt 0.145752 0.4443359
vt 0.145752 0.4443359
vt 0.145752 0.4443359
vt 0.145752 0.4443359
vt 0.145752 0.4443359
vt 0.145752 0.4443359
vt 0.145752 0.4443359
vt 0.145752 0.4443359
vt 0.145752 0.4443359
vt 0.145752 0.4443359
vt 0.145752 0.4443359
vt 0.145752 0.4443359
vt 0.145752 0.4443359
vt 0.145752 0.4443359
vt 0.145752 0.4443359
vt 0.145752 0.4443359
vt 0.145752 0.4443359
vt 0.145752 0.4443359
vt 0.145752 0.4443359
vt 0.145752 0.4443359
vt 0.145752 0.4443359
vt 0.145752 0.4443359
vt 0.145752 0.4443359
vt 0.145752 0.4443359
vt 0.145752 0.4443359
vt 0.145752 0.4443359
vt 0.145752 0.4443359
vt 0.145752 0.4443359
vt 0.145752 0.4443359
vt 0.145752 0.4443359
vt 0.145752 0.4443359
vt 0.145752 0.4443359
vt 0.145752 0.4443359
vt 0.145752 0.4443359
vt 0.145752 0.4443359
vt 0.145752 0.4443359
vt 0.145752 0.4443359
vt 0.145752 0.4443359
vt 0.145752 0.4443359
vt 0.145752 0.4443359
vt 0.145752 0.4443359
vn 1 0 0
vn 1 0 0
vn 1 0 0
vn 1 0 0
vn 1 0 0
vn 1 0 0
vn 1 0 0
vn -1 0 0
vn -1 0 0
vn -1 0 0
vn -1 0 0
vn -1 0 0
vn -1 0 0
vn -1 0 0
vn 0 0 -1
vn 0 0 -1
vn 0 0 -1
vn 0 0 -1
vn 0 0 -1
vn 0 0 -1
vn 0 0 -1
vn 0 0 -1
vn 0 0 -1
vn 0 0 -1
vn 0 0 -1
vn 0 0 -1
vn 0 0 -1
vn 0 0 -1
vn -0.3925781 -0.7705078 0.5024414
vn -0.3925781 -0.7705078 0.5024414
vn -0.3925781 -0.7705078 0.5024414
vn -0.3925781 -0.7705078 0.5024414
vn -0.000582695 -1 -0.0001088977
vn -0.000582695 -1 -0.0001088977
vn -0.000582695 -1 -0.0001088977
vn -0.000582695 -1 -0.0001088977
vn 0.3925781 -0.7705078 0.5024414
vn 0.3925781 -0.7705078 0.5024414
vn 0.3925781 -0.7705078 0.5024414
vn 0.3925781 -0.7705078 0.5024414
vn -1 0 0
vn -1 0 0
vn -1 0 0
vn -1 0 0
vn -1 0 0
vn 1 0 0
vn 1 0 0
vn 1 0 0
vn 1 0 0
vn 1 0 0
vn 0.02586365 -0.9995117 -0.004833221
vn 0.02586365 -0.9995117 -0.004833221
vn 0.02586365 -0.9995117 -0.004833221
vn 0.02586365 -0.9995117 -0.004833221
vn 0.02726746 0.9995117 0
vn 0.02726746 0.9995117 0
vn 0 1 0
vn 0 1 0
vn 0 1 0
vn 0 1 0
vn 0 1 0
vn 0 1 0
vn -0.02726746 0.9995117 0
vn -0.02726746 0.9995117 0
vn 0 0.7426758 0.6694336
vn 0.03823853 0.7421875 0.6689453
vn 0.03823853 0.7421875 0.6689453
vn 0 0.7426758 0.6694336
vn 0 0.7426758 0.6694336
vn 0 0.7426758 0.6694336
vn 0 0.7426758 0.6694336
vn 0 0.7426758 0.6694336
vn -0.03823853 0.7421875 0.6689453
vn -0.03823853 0.7421875 0.6689453
vn 0.02690125 0 0.9995117
vn 0.02690125 0 0.9995117
vn 0 0 1
vn -0.005470276 0.02920532 0.9995117
vn -0.005470276 0.02920532 0.9995117
vn 0 0 1
vn 0.005157471 0.03128052 0.9995117
vn 0 0 1
vn 0.01545715 0.09368896 0.9956055
vn 0.01545715 0.09368896 0.9956055
vn -0.02226257 0.04721069 0.9985352
vn -0.02690125 0 0.9995117
vn -0.01757813 0.09429932 0.9956055
vn -0.01757813 0.09429932 0.9956055
vn -0.01638794 0.08752441 0.9960938
vn -0.01638794 0.08752441 0.9960938
vn 0.0001074076 0.09448242 0.9956055
vn 0.01660156 0.1013794 0.9946289
vn 0.01660156 0.1013794 0.9946289
vn 0.01660156 0.1013794 0.9946289
vn 0 -1 0
vn 0 -1 0
vn 0 -1 0
vn 0 -1 0
vn -0.03710938 -0.4145508 -0.9091797
vn -0.03710938 -0.4145508 -0.9091797
vn 0 -0.4147949 -0.9101563
vn 0 -0.4147949 -0.9101563
vn 0 -0.4147949 -0.9101563
vn 0 -0.4147949 -0.9101563
vn 0 -0.4147949 -0.9101563
vn 0 -0.4147949 -0.9101563
vn 0.03710938 -0.4145508 -0.9091797
vn 0.03710938 -0.4145508 -0.9091797
vn -0.02828979 -0.9995117 0
vn -0.02828979 -0.9995117 0
vn 0 -1 0
vn 0 -1 0
vn 0 -1 0
vn 0 -1 0
vn 0 -1 0
vn 0 -1 0
vn 0.02828979 -0.9995117 0
vn 0.02828979 -0.9995117 0
vn 0.02644348 -0.9995117 -0.01482391
vn 0.02644348 -0.9995117 -0.01482391
vn 0.02644348 -0.9995117 -0.01482391
vn 0.02644348 -0.9995117 -0.01482391
vn 0.7333984 -0.6035156 0.3129883
vn 0.7333984 -0.6035156 0.3129883
vn 0.7333984 -0.6035156 0.3129883
vn 0.7333984 -0.6035156 0.3129883
vn -0.6635742 -0.4880371 -0.5668945
vn -0.6635742 -0.4880371 -0.5668945
vn -0.6635742 -0.4880371 -0.5668945
vn -0.6635742 -0.4880371 -0.5668945
vn -0.01719666 -0.09985352 -0.9946289
vn -0.01719666 -0.09985352 -0.9946289
vn -0.01719666 -0.09985352 -0.9946289
vn -9.75132E-05 -0.09393311 -0.9956055
vn 0.01701355 -0.08795166 -0.9960938
vn 0.01701355 -0.08795166 -0.9960938
vn 0.0004868507 -0.09106445 -0.9956055
vn -0.01603699 -0.09411621 -0.9956055
vn -0.01603699 -0.09411621 -0.9956055
vn 0.001081467 -0.09350586 -0.9956055
vn 0.01820374 -0.09283447 -0.9956055
vn 0.01820374 -0.09283447 -0.9956055
vn 0.01820374 -0.09283447 -0.9956055
vn -0.7719727 -0.543457 0.3295898
vn -0.7719727 -0.543457 0.3295898
vn -0.7719727 -0.543457 0.3295898
vn -0.7719727 -0.543457 0.3295898
vn 0.6635742 -0.4880371 -0.5668945
vn 0.6635742 -0.4880371 -0.5668945
vn 0.6635742 -0.4880371 -0.5668945
vn 0.6635742 -0.4880371 -0.5668945
vn 0.8369141 -0.5473633 0
vn 0.8369141 -0.5473633 0
vn 0.8369141 -0.5473633 0
vn 0.8369141 -0.5473633 0
vn -0.7207031 -0.6210938 -0.3076172
vn -0.7207031 -0.6210938 -0.3076172
vn -0.7207031 -0.6210938 -0.3076172
vn -0.7207031 -0.6210938 -0.3076172
vn 0.675293 -0.6787109 -0.2883301
vn 0.675293 -0.6787109 -0.2883301
vn 0.675293 -0.6787109 -0.2883301
vn 0.675293 -0.6787109 -0.2883301
vn -0.8364258 -0.5483398 0
vn -0.8364258 -0.5483398 0
vn -0.8364258 -0.5483398 0
vn -0.8364258 -0.5483398 0
vn 0.03375244 -0.9912109 -0.1296387
vn 0.03375244 -0.9912109 -0.1296387
vn 0.03375244 -0.9912109 -0.1296387
vn 0.03375244 -0.9912109 -0.1296387
vn -0.03601074 0.4299316 0.9023438
vn -0.03601074 0.4299316 0.9023438
vn 0 0.4301758 0.902832
vn 0 0.4301758 0.902832
vn 0 0.4301758 0.902832
vn 0 0.4301758 0.902832
vn 0 0.4301758 0.902832
vn 0 0.4301758 0.902832
vn 0.03601074 0.4299316 0.9023438
vn 0.03601074 0.4299316 0.9023438
vn -0.03375244 -0.9912109 -0.1296387
vn -0.03375244 -0.9912109 -0.1296387
vn -0.03375244 -0.9912109 -0.1296387
vn -0.03375244 -0.9912109 -0.1296387
g SM_Prop_Overhang_02_0
f 3/3/3 2/2/2 1/1/1
f 2/2/2 4/4/4 1/1/1
f 4/4/4 5/5/5 1/1/1
f 4/4/4 6/6/6 5/5/5
f 6/6/6 7/7/7 5/5/5
f 10/10/10 9/9/9 8/8/8
f 8/8/8 11/11/11 10/10/10
f 11/11/11 12/12/12 10/10/10
f 11/11/11 13/13/13 12/12/12
f 13/13/13 14/14/14 12/12/12
f 17/17/17 16/16/16 15/15/15
f 16/16/16 18/18/18 15/15/15
f 15/15/15 18/18/18 19/19/19
f 20/20/20 15/15/15 19/19/19
f 20/20/20 19/19/19 21/21/21
f 22/22/22 20/20/20 21/21/21
f 22/22/22 21/21/21 23/23/23
f 24/24/24 22/22/22 23/23/23
f 24/24/24 23/23/23 25/25/25
f 23/23/23 26/26/26 25/25/25
f 25/25/25 26/26/26 27/27/27
f 26/26/26 28/28/28 27/27/27
f 31/31/31 30/30/30 29/29/29
f 32/32/32 31/31/31 29/29/29
f 35/35/35 34/34/34 33/33/33
f 36/36/36 35/35/35 33/33/33
f 39/39/39 38/38/38 37/37/37
f 40/40/40 39/39/39 37/37/37
f 43/43/43 42/42/42 41/41/41
f 42/42/42 44/44/44 41/41/41
f 44/44/44 45/45/45 41/41/41
f 48/48/48 47/47/47 46/46/46
f 48/48/48 49/49/49 47/47/47
f 49/49/49 50/50/50 47/47/47
f 53/53/53 52/52/52 51/51/51
f 54/54/54 53/53/53 51/51/51
f 57/57/57 56/56/56 55/55/55
f 58/58/58 57/57/57 55/55/55
f 58/58/58 59/59/59 57/57/57
f 59/59/59 60/60/60 57/57/57
f 59/59/59 61/61/61 60/60/60
f 61/61/61 62/62/62 60/60/60
f 61/61/61 63/63/63 62/62/62
f 63/63/63 64/64/64 62/62/62
f 67/67/67 66/66/66 65/65/65
f 68/68/68 67/67/67 65/65/65
f 68/68/68 65/65/65 69/69/69
f 70/70/70 68/68/68 69/69/69
f 70/70/70 69/69/69 71/71/71
f 72/72/72 70/70/70 71/71/71
f 72/72/72 71/71/71 73/73/73
f 71/71/71 74/74/74 73/73/73
f 77/77/77 76/76/76 75/75/75
f 78/78/78 77/77/77 75/75/75
f 78/78/78 79/79/79 77/77/77
f 79/79/79 80/80/80 77/77/77
f 79/79/79 81/81/81 80/80/80
f 81/81/81 82/82/82 80/80/80
f 79/79/79 83/83/83 81/81/81
f 83/83/83 84/84/84 81/81/81
f 81/81/81 85/85/85 82/82/82
f 85/85/85 86/86/86 82/82/82
f 81/81/81 87/87/87 85/85/85
f 87/87/87 88/88/88 85/85/85
f 90/90/90 89/89/89 79/79/79
f 91/91/91 90/90/90 79/79/79
f 93/93/93 92/92/92 91/91/91
f 94/94/94 93/93/93 91/91/91
f 97/97/97 96/96/96 95/95/95
f 98/98/98 97/97/97 95/95/95
f 101/101/101 100/100/100 99/99/99
f 102/102/102 101/101/101 99/99/99
f 102/102/102 103/103/103 101/101/101
f 103/103/103 104/104/104 101/101/101
f 103/103/103 105/105/105 104/104/104
f 105/105/105 106/106/106 104/104/104
f 105/105/105 107/107/107 106/106/106
f 107/107/107 108/108/108 106/106/106
f 111/111/111 110/110/110 109/109/109
f 112/112/112 111/111/111 109/109/109
f 112/112/112 113/113/113 111/111/111
f 113/113/113 114/114/114 111/111/111
f 113/113/113 115/115/115 114/114/114
f 115/115/115 116/116/116 114/114/114
f 115/115/115 117/117/117 116/116/116
f 117/117/117 118/118/118 116/116/116
f 121/121/121 120/120/120 119/119/119
f 122/122/122 121/121/121 119/119/119
f 125/125/125 124/124/124 123/123/123
f 126/126/126 125/125/125 123/123/123
f 129/129/129 128/128/128 127/127/127
f 130/130/130 129/129/129 127/127/127
f 133/133/133 132/132/132 131/131/131
f 134/134/134 133/133/133 131/131/131
f 136/136/136 135/135/135 134/134/134
f 137/137/137 136/136/136 134/134/134
f 139/139/139 138/138/138 137/137/137
f 140/140/140 139/139/139 137/137/137
f 142/142/142 141/141/141 140/140/140
f 143/143/143 142/142/142 140/140/140
f 146/146/146 145/145/145 144/144/144
f 147/147/147 146/146/146 144/144/144
f 150/150/150 149/149/149 148/148/148
f 151/151/151 150/150/150 148/148/148
f 154/154/154 153/153/153 152/152/152
f 155/155/155 154/154/154 152/152/152
f 158/158/158 157/157/157 156/156/156
f 159/159/159 158/158/158 156/156/156
f 162/162/162 161/161/161 160/160/160
f 163/163/163 162/162/162 160/160/160
f 166/166/166 165/165/165 164/164/164
f 167/167/167 166/166/166 164/164/164
f 170/170/170 169/169/169 168/168/168
f 171/171/171 170/170/170 168/168/168
f 174/174/174 173/173/173 172/172/172
f 175/175/175 174/174/174 172/172/172
f 174/174/174 175/175/175 176/176/176
f 175/175/175 177/177/177 176/176/176
f 176/176/176 177/177/177 178/178/178
f 177/177/177 179/179/179 178/178/178
f 178/178/178 179/179/179 180/180/180
f 179/179/179 181/181/181 180/180/180
f 184/184/184 183/183/183 182/182/182
f 185/185/185 184/184/184 182/182/182
