g SM_Prop_Wall_Panel_Small_01
v -0.2369518 -0.2369516 0.1091664
v 0.2205482 -0.2123158 0.1091666
v -0.2369518 0.2369522 0.1091664
v 0.2369518 0.2369522 0.1091664
v -0.2502204 0.2502205 -3.814697E-07
v 0.2502204 0.2502205 -3.814697E-07
v -0.2502204 -0.2502203 -3.814697E-07
v 0.2502204 -0.2502203 -3.814697E-07
v 0.03680153 0.03680191 0.2022393
v -0.2502204 -0.2502203 0.08733337
v -0.2502204 0.2502205 0.08733337
v 0.2502204 0.2502205 0.0873332
v 0.2502204 -0.2502203 0.08733337
v 0.09062929 0.2369522 0.1091664
v 0.1934431 0.2369522 0.1091664
v 0.1637102 0.2502205 0.08733322
v 0.1465469 0.2229883 0.1156595
v -0.1246914 0.2502205 0.08733331
v 0.03363543 0.2502205 0.08733328
v -0.02092352 0.2369522 0.1091664
v -0.01997271 0.2502205 0.06311821
v 0.2369518 -0.1722429 0.1091664
v 0.1969932 -0.1969934 0.1277479
v 0.1486047 -0.2369516 0.1091664
v -0.0721179 -0.07211761 0.1858162
v -0.1142746 -0.0821024 0.1662124
v -0.1430242 -0.1430241 0.1528433
v -0.08073263 -0.1119587 0.1672903
v -0.2369518 -0.1741745 0.1091664
v -0.2369518 -0.04520073 0.1091664
v -0.2502204 -0.133098 0.08733337
v -0.2502204 -0.08955326 0.08733337
v -0.2502204 -0.1115774 0.07026916
v -0.2161436 -0.09925268 0.118842
v -0.2379909 -0.1095362 0.08733337
v -0.01966648 0.01966686 0.2102077
v -0.02269249 -0.0226923 0.2088005
v 0.03621206 -0.03621197 0.2025127
v -0.01966648 0.01966686 0.2102077
v -0.02269249 -0.0226923 0.2088005
v 0.03621206 -0.03621197 0.2025127
v 0.03680153 0.03680191 0.2022393
v 0.03680153 0.03680191 0.2022393
v -0.01966648 0.01966686 0.2102077
v -0.2502204 0.2502205 -3.814697E-07
v 0.2502204 0.2502205 -3.814697E-07
v -0.2502204 -0.2502203 -3.814697E-07
v 0.2502204 -0.2502203 -3.814697E-07
v 0.2502204 0.2502205 -3.814697E-07
v 0.2502204 -0.2502203 -3.814697E-07
v 0.2502204 -0.2502203 0.08733337
v -0.2502204 -0.2502203 -3.814697E-07
v -0.2502204 -0.2502203 0.08733337
v 0.1969932 -0.1969934 0.1277479
v 0.2205482 -0.2123158 0.1091666
v -0.2502204 -0.133098 0.08733337
v -0.01997271 0.2502205 0.06311821
v 0.2502204 -0.2502203 0.08733337
v 0.2205482 -0.2123158 0.1091666
v 0.2369518 -0.1722429 0.1091664
v 0.1486047 -0.2369516 0.1091664
v 0.2205482 -0.2123158 0.1091666
v 0.2502204 -0.2502203 0.08733337
v 0.2502204 0.2502205 0.0873332
v 0.1637102 0.2502205 0.08733322
v 0.1934431 0.2369522 0.1091664
v 0.1465469 0.2229883 0.1156595
v 0.1637102 0.2502205 0.08733322
v -0.02092352 0.2369522 0.1091664
v -0.1246914 0.2502205 0.08733331
v 0.09062929 0.2369522 0.1091664
v -0.02092352 0.2369522 0.1091664
v -0.01997271 0.2502205 0.06311821
v 0.03363543 0.2502205 0.08733328
v -0.2502204 -0.2502203 0.08733337
v 0.1486047 -0.2369516 0.1091664
v 0.2502204 -0.2502203 0.08733337
v 0.2502204 0.2502205 0.0873332
v 0.2502204 -0.2502203 0.08733337
v 0.2369518 -0.1722429 0.1091664
v 0.2369518 0.2369522 0.1091664
v -0.02269249 -0.0226923 0.2088005
v 0.03680153 0.03680191 0.2022393
v -0.2502204 0.2502205 0.08733337
v -0.2369518 0.2369522 0.1091664
v -0.2379909 -0.1095362 0.08733337
v -0.2502204 -0.133098 0.08733337
v -0.2502204 -0.1115774 0.07026916
v -0.2369518 -0.1741745 0.1091664
v -0.2369518 -0.2369516 0.1091664
v -0.2502204 -0.2502203 0.08733337
v -0.2502204 -0.133098 0.08733337
v -0.2161436 -0.09925268 0.118842
v -0.1142746 -0.0821024 0.1662124
v -0.1430242 -0.1430241 0.1528433
v -0.2369518 -0.2369516 0.1091664
v -0.2369518 -0.1741745 0.1091664
v -0.2369518 -0.04520073 0.1091664
v -0.2369518 0.2369522 0.1091664
v -0.2369518 -0.04520073 0.1091664
v -0.2161436 -0.09925268 0.118842
v -0.2379909 -0.1095362 0.08733337
v -0.2502204 -0.08955326 0.08733337
v -0.2502204 -0.08955326 0.08733337
v -0.2379909 -0.1095362 0.08733337
v -0.2502204 -0.1115774 0.07026916
v -0.2502204 0.2502205 -3.814697E-07
v -0.2502204 0.2502205 0.08733337
v -0.2502204 -0.08955326 0.08733337
v -0.2369518 -0.2369516 0.1091664
v -0.1430242 -0.1430241 0.1528433
v -0.08073263 -0.1119587 0.1672903
v 0.1486047 -0.2369516 0.1091664
v -0.02092352 0.2369522 0.1091664
v 0.09062929 0.2369522 0.1091664
v 0.1465469 0.2229883 0.1156595
v -0.1246914 0.2502205 0.08733331
v -0.2502204 0.2502205 0.08733337
v 0.2502204 0.2502205 0.0873332
v 0.1637102 0.2502205 0.08733322
v 0.03363543 0.2502205 0.08733328
v -0.1142746 -0.0821024 0.1662124
v -0.08073263 -0.1119587 0.1672903
v -0.01966648 0.01966686 0.2102077
v -0.02269249 -0.0226923 0.2088005
v 0.03621206 -0.03621197 0.2025127
v 0.03680153 0.03680191 0.2022393
v -0.01966648 0.01966686 0.2102077
v -0.02269249 -0.0226923 0.2088005
v -0.0721179 -0.07211761 0.1858162
v 0.03621206 -0.03621197 0.2025127
v 0.1969932 -0.1969934 0.1277479
v -0.02269249 -0.0226923 0.2088005
v -0.0721179 -0.07211761 0.1858162
v 0.03680153 0.03680191 0.2022393
v 0.2369518 0.2369522 0.1091664
v 0.2369518 -0.1722429 0.1091664
v 0.1969932 -0.1969934 0.1277479
v 0.03621206 -0.03621197 0.2025127
v 0.1934431 0.2369522 0.1091664
v 0.2369518 0.2369522 0.1091664
v 0.03680153 0.03680191 0.2022393
v -0.01966648 0.01966686 0.2102077
v -0.2369518 0.2369522 0.1091664
v -0.01966648 0.01966686 0.2102077
vt 0.2449951 0.3554688
vt 0.2449951 0.3554688
vt 0.2449951 0.3554688
vt 0.2449951 0.3554688
vt 0.2449951 0.3554688
vt 0.2449951 0.3554688
vt 0.2449951 0.3554688
vt 0.2449951 0.3554688
vt 0.2449951 0.3554688
vt 0.2449951 0.3554688
vt 0.2449951 0.3554688
vt 0.2449951 0.3554688
vt 0.2449951 0.3554688
vt 0.2449951 0.3554688
vt 0.2449951 0.3554688
vt 0.2449951 0.3554688
vt 0.2449951 0.3554688
vt 0.2449951 0.3554688
vt 0.2449951 0.3554688
vt 0.2449951 0.3554688
vt 0.2449951 0.3554688
vt 0.2449951 0.3554688
vt 0.2449951 0.3554688
vt 0.2449951 0.3554688
vt 0.2449951 0.3554688
vt 0.2449951 0.3554688
vt 0.2449951 0.3554688
vt 0.2449951 0.3554688
vt 0.2449951 0.3554688
vt 0.2449951 0.3554688
vt 0.2449951 0.3554688
vt 0.2449951 0.3554688
vt 0.2449951 0.3554688
vt 0.2449951 0.3554688
vt 0.2449951 0.3554688
vt 0.2449951 0.3554688
vt 0.2449951 0.3554688
vt 0.2449951 0.3554688
vt 0.2449951 0.3554688
vt 0.2449951 0.3554688
vt 0.2449951 0.3554688
vt 0.2449951 0.3554688
vt 0.2449951 0.3554688
vt 0.2449951 0.3554688
vt 0.2449951 0.3554688
vt 0.2449951 0.3554688
vt 0.2449951 0.3554688
vt 0.2449951 0.3554688
vt 0.2449951 0.3554688
vt 0.2449951 0.3554688
vt 0.2449951 0.3554688
vt 0.2449951 0.3554688
vt 0.2449951 0.3554688
vt 0.2449951 0.3554688
vt 0.2449951 0.3554688
vt 0.2449951 0.3554688
vt 0.2449951 0.3554688
vt 0.2449951 0.3554688
vt 0.2449951 0.3554688
vt 0.2449951 0.3554688
vt 0.2449951 0.3554688
vt 0.2449951 0.3554688
vt 0.2449951 0.3554688
vt 0.2449951 0.3554688
vt 0.2449951 0.3554688
vt 0.2449951 0.3554688
vt 0.2449951 0.3554688
vt 0.2449951 0.3554688
vt 0.2449951 0.3554688
vt 0.2449951 0.3554688
vt 0.2449951 0.3554688
vt 0.2449951 0.3554688
vt 0.2449951 0.3554688
vt 0.2449951 0.3554688
vt 0.2449951 0.3554688
vt 0.2449951 0.3554688
vt 0.2449951 0.3554688
vt 0.2449951 0.3554688
vt 0.2449951 0.3554688
vt 0.2449951 0.3554688
vt 0.2449951 0.3554688
vt 0.2449951 0.3554688
vt 0.2449951 0.3554688
vt 0.2449951 0.3554688
vt 0.2449951 0.3554688
vt 0.2449951 0.3554688
vt 0.2449951 0.3554688
vt 0.2449951 0.3554688
vt 0.2449951 0.3554688
vt 0.2449951 0.3554688
vt 0.2449951 0.3554688
vt 0.2449951 0.3554688
vt 0.2449951 0.3554688
vt 0.2449951 0.3554688
vt 0.2449951 0.3554688
vt 0.2449951 0.3554688
vt 0.2449951 0.3554688
vt 0.2449951 0.3554688
vt 0.2449951 0.3554688
vt 0.2449951 0.3554688
vt 0.2449951 0.3554688
vt 0.2449951 0.3554688
vt 0.2449951 0.3554688
vt 0.2449951 0.3554688
vt 0.2449951 0.3554688
vt 0.2449951 0.3554688
vt 0.2449951 0.3554688
vt 0.2449951 0.3554688
vt 0.2449951 0.3554688
vt 0.2449951 0.3554688
vt 0.2449951 0.3554688
vt 0.2449951 0.3554688
vt 0.2449951 0.3554688
vt 0.2449951 0.3554688
vt 0.2449951 0.3554688
vt 0.2449951 0.3554688
vt 0.2449951 0.3554688
vt 0.2449951 0.3554688
vt 0.2449951 0.3554688
vt 0.2449951 0.3554688
vt 0.2449951 0.3554688
vt 0.2449951 0.3554688
vt 0.2449951 0.3554688
vt 0.2449951 0.3554688
vt 0.2449951 0.3554688
vt 0.2449951 0.3554688
vt 0.2449951 0.3554688
vt 0.2449951 0.3554688
vt 0.2449951 0.3554688
vt 0.2449951 0.3554688
vt 0.2449951 0.3554688
vt 0.2449951 0.3554688
vt 0.2449951 0.3554688
vt 0.2449951 0.3554688
vt 0.2449951 0.3554688
vt 0.2449951 0.3554688
vt 0.2449951 0.3554688
vt 0.2449951 0.3554688
vt 0.2449951 0.3554688
vt 0.2449951 0.3554688
vt 0.2449951 0.3554688
vt 0.2449951 0.3554688
vt 0.2449951 0.3554688
vt 0.2449951 0.3554688
vt 0.2449951 0.3554688
vn 0 -0.8544922 0.5195313
vn 0.5166016 -0.2115479 0.8295898
vn 0 0.8544922 0.5195313
vn 0 0.8544922 0.5195313
vn 0 1 0
vn 0 1 0
vn 0 0 -1
vn 0 0 -1
vn 0.1525879 -0.04370117 0.9873047
vn 0 -1 0
vn 0 0.8544922 0.5195313
vn 1 0 0
vn 0 -1 0
vn 0.08911133 0.6904297 0.7177734
vn 0 0.8544922 0.5195313
vn 0 0.8544922 0.5195313
vn 0.08911133 0.6904297 0.7177734
vn 0.06414795 0.9584961 0.2775879
vn 0 0.8544922 0.5195313
vn 0.06414795 0.9584961 0.2775879
vn 0 1 0
vn 0.5166016 -0.2115479 0.8295898
vn 0.5166016 -0.2115479 0.8295898
vn 0.208374 -0.6083984 0.765625
vn -0.3295898 -0.338623 0.8813477
vn -0.1566162 -0.140625 0.9775391
vn -0.1566162 -0.140625 0.9775391
vn -0.1566162 -0.140625 0.9775391
vn -0.7636719 0.1956787 0.6157227
vn -0.8544922 0 0.5195313
vn -1 0 0
vn -0.8544922 0 0.5195313
vn -1 0 0
vn -0.7636719 0.1956787 0.6157227
vn -0.7636719 0.1956787 0.6157227
vn 0.1525879 -0.04370117 0.9873047
vn 0.1525879 -0.04370117 0.9873047
vn 0.1068115 0.002861023 0.9941406
vn 0 1 0
vn 0 1 0
vn 0 1 0
vn 0 1 0
vn 0 1 0
vn 0 1 0
vn 0 0 -1
vn 0 0 -1
vn 0 -1 0
vn 0 -1 0
vn 1 0 0
vn 1 0 0
vn 1 0 0
vn -1 0 0
vn -1 0 0
vn 0.208374 -0.6083984 0.765625
vn 0.208374 -0.6083984 0.765625
vn -0.7636719 0.1956787 0.6157227
vn 0.06414795 0.9584961 0.2775879
vn 0.4282227 -0.175293 0.8862305
vn 0.4282227 -0.175293 0.8862305
vn 0.4282227 -0.175293 0.8862305
vn 0.1402588 -0.4094238 0.9013672
vn 0.1402588 -0.4094238 0.9013672
vn 0.1402588 -0.4094238 0.9013672
vn 0 0.8544922 0.5195313
vn 0.08911133 0.6904297 0.7177734
vn -0.135498 0.7539063 0.6425781
vn -0.135498 0.7539063 0.6425781
vn -0.135498 0.7539063 0.6425781
vn 0 0.8544922 0.5195313
vn 0 0.8544922 0.5195313
vn 0 0.8544922 0.5195313
vn -0.1230469 0.9541016 0.2724609
vn -0.1230469 0.9541016 0.2724609
vn -0.1230469 0.9541016 0.2724609
vn 0 -0.8544922 0.5195313
vn 0 -0.8544922 0.5195313
vn 0 -0.8544922 0.5195313
vn 0.8544922 0 0.5195313
vn 0.8544922 0 0.5195313
vn 0.8544922 0 0.5195313
vn 0.8544922 0 0.5195313
vn 0.1068115 0.002861023 0.9941406
vn 0.1068115 0.002861023 0.9941406
vn -0.8544922 0 0.5195313
vn -0.8544922 0 0.5195313
vn -0.7675781 0.3984375 0.5024414
vn -0.7675781 0.3984375 0.5024414
vn -0.7675781 0.3984375 0.5024414
vn -0.8544922 0 0.5195313
vn -0.8544922 0 0.5195313
vn -0.8544922 0 0.5195313
vn -0.8544922 0 0.5195313
vn -0.4216309 0 0.9067383
vn -0.4216309 0 0.9067383
vn -0.4216309 0 0.9067383
vn -0.4216309 0 0.9067383
vn -0.4216309 0 0.9067383
vn -0.4216309 0 0.9067383
vn -0.4216309 -3.218651E-06 0.9067383
vn -0.6953125 -0.2208252 0.684082
vn -0.6953125 -0.2208252 0.684082
vn -0.6953125 -0.2208252 0.684082
vn -0.6953125 -0.2208252 0.684082
vn -0.7075195 -0.4328613 0.5585938
vn -0.7075195 -0.4328613 0.5585938
vn -0.7075195 -0.4328613 0.5585938
vn -1 0 0
vn -1 0 0
vn -1 0 0
vn 0 -0.4216309 0.9067383
vn 0 -0.4216309 0.9067383
vn -7.56979E-06 -0.4216309 0.9067383
vn 0 -0.4216309 0.9067383
vn 0 0.4216309 0.9067383
vn 0 0.4216309 0.9067383
vn 0 0.4216309 0.9067383
vn 0 1 0
vn 0 1 0
vn 0 1 0
vn 0 1 0
vn 0 1 0
vn -0.3295898 -0.338623 0.8813477
vn -0.3295898 -0.338623 0.8813477
vn 0 1 0
vn 0 1 0
vn 0 1 0
vn 0 1 0
vn -0.4216309 0 0.9067383
vn -0.4216309 0 0.9067383
vn -0.4216309 -5.245209E-06 0.9067383
vn 4.053116E-06 -0.4216309 0.9067383
vn 0 -0.4216309 0.9067383
vn -1.609325E-05 -0.4216309 0.9067383
vn -4.607439E-05 -0.4216309 0.9067383
vn 0.4216309 0 0.9067383
vn 0.4216309 0 0.9067383
vn 0.4216309 0 0.9067383
vn 0.4216309 0 0.9067383
vn 0.4216309 0 0.9067383
vn 0 0.4216309 0.9067383
vn 0 0.4216309 0.9067383
vn 0 0.4216309 0.9067383
vn 0 0.4216309 0.9067383
vn 0 0.4216309 0.9067383
vn 0 0.4216309 0.9067383
g SM_Prop_Wall_Panel_Small_01_0
f 23/23/23 2/2/2 22/22/22
f 24/24/24 55/55/55 54/54/54
f 57/57/57 18/18/18 20/20/20
f 60/60/60 59/59/59 58/58/58
f 63/63/63 62/62/62 61/61/61
f 65/65/65 14/14/14 17/17/17
f 68/68/68 67/67/67 66/66/66
f 74/74/74 73/73/73 72/72/72
f 28/28/28 26/26/26 27/27/27
f 37/37/37 9/9/9 36/36/36
f 38/38/38 83/83/83 82/82/82
f 88/88/88 87/87/87 86/86/86
f 106/106/106 105/105/105 104/104/104
f 123/123/123 25/25/25 122/122/122
f 8/8/8 7/7/7 45/45/45
f 46/46/46 8/8/8 45/45/45
f 13/13/13 10/10/10 47/47/47
f 48/48/48 13/13/13 47/47/47
f 51/51/51 50/50/50 49/49/49
f 12/12/12 51/51/51 49/49/49
f 53/53/53 31/31/31 52/52/52
f 31/31/31 33/33/33 52/52/52
f 33/33/33 107/107/107 52/52/52
f 33/33/33 109/109/109 107/107/107
f 109/109/109 108/108/108 107/107/107
f 56/56/56 29/29/29 34/34/34
f 35/35/35 56/56/56 34/34/34
f 15/15/15 4/4/4 64/64/64
f 16/16/16 15/15/15 64/64/64
f 16/16/16 19/19/19 71/71/71
f 19/19/19 69/69/69 71/71/71
f 11/11/11 3/3/3 69/69/69
f 70/70/70 11/11/11 69/69/69
f 76/76/76 1/1/1 75/75/75
f 77/77/77 76/76/76 75/75/75
f 80/80/80 79/79/79 78/78/78
f 81/81/81 80/80/80 78/78/78
f 30/30/30 85/85/85 84/84/84
f 32/32/32 30/30/30 84/84/84
f 91/91/91 90/90/90 89/89/89
f 92/92/92 91/91/91 89/89/89
f 93/93/93 97/97/97 96/96/96
f 93/93/93 96/96/96 95/95/95
f 95/95/95 94/94/94 93/93/93
f 94/94/94 99/99/99 93/93/93
f 99/99/99 98/98/98 93/93/93
f 99/99/99 94/94/94 130/130/130
f 99/99/99 130/130/130 129/129/129
f 129/129/129 128/128/128 99/99/99
f 102/102/102 101/101/101 100/100/100
f 103/103/103 102/102/102 100/100/100
f 112/112/112 111/111/111 110/110/110
f 113/113/113 112/112/112 110/110/110
f 131/131/131 112/112/112 113/113/113
f 113/113/113 132/132/132 131/131/131
f 131/131/131 133/133/133 112/112/112
f 133/133/133 134/134/134 112/112/112
f 116/116/116 115/115/115 114/114/114
f 142/142/142 116/116/116 114/114/114
f 140/140/140 116/116/116 142/142/142
f 142/142/142 141/141/141 140/140/140
f 143/143/143 142/142/142 114/114/114
f 143/143/143 114/114/114 144/144/144
f 145/145/145 143/143/143 144/144/144
f 118/118/118 117/117/117 21/21/21
f 5/5/5 118/118/118 21/21/21
f 6/6/6 5/5/5 21/21/21
f 6/6/6 21/21/21 120/120/120
f 6/6/6 120/120/120 119/119/119
f 21/21/21 121/121/121 120/120/120
f 137/137/137 136/136/136 135/135/135
f 135/135/135 138/138/138 137/137/137
f 135/135/135 139/139/139 138/138/138
f 42/42/42 127/127/127 41/41/41
f 43/43/43 127/127/127 42/42/42
f 127/127/127 126/126/126 41/41/41
f 41/41/41 126/126/126 40/40/40
f 126/126/126 125/125/125 40/40/40
f 40/40/40 125/125/125 39/39/39
f 124/124/124 127/127/127 43/43/43
f 125/125/125 124/124/124 39/39/39
f 44/44/44 124/124/124 43/43/43
f 39/39/39 124/124/124 44/44/44
