g SM_Veh_Retro_01_Door_R_Glass
v -0.9187118 1.522298 -0.7378848
v -1.127735 1.219246 -1.381736
v -0.9165999 1.525335 -1.388655
v -1.129847 1.216209 -0.6038685
v -1.131958 1.213172 0.3035513
vt 0.5498047 0.06451416
vt 0.5498047 0.06451416
vt 0.5498047 0.06451416
vt 0.5498047 0.06451416
vt 0.5498047 0.06451416
vn -0.8232422 0.5678711 -1.734495E-05
vn -0.8232422 0.5678711 -1.943111E-05
vn -0.8232422 0.5678711 -1.943111E-05
vn -0.8232422 0.5678711 -1.734495E-05
vn -0.8232422 0.5678711 -1.525879E-05
g SM_Veh_Retro_01_Door_R_Glass_0
f 3/3/3 2/2/2 1/1/1
f 2/2/2 4/4/4 1/1/1
f 1/1/1 4/4/4 5/5/5
