g SM_Veh_Future_Taxi_01_Glass
v 0.7220131 1.369336 -0.03912712
v 0.8916672 1.123598 -0.04158951
v 0.8654354 1.106925 0.627539
v 0.6837691 1.424384 -0.3550892
v 0.6400725 1.422682 -0.6728737
v 0.8843451 1.146047 -0.6920712
v 0.8843451 1.146047 -0.6920712
v 0.6400725 1.422682 -0.6728737
v 0.6217695 1.331363 -1.255874
v 0.6933628 1.262254 -1.258483
v 0.5185215 1.459067 -0.02319621
v 0.6240202 1.113768 0.8961461
v 0.2758688 1.114523 0.9574701
v 0.2589445 1.479255 -0.0141978
v 0 1.110392 0.972473
v 0 1.48942 -0.007075157
v -0.2589445 1.479255 -0.0141978
v -0.2758688 1.114523 0.9574701
v -0.5185215 1.459067 -0.02319621
v -0.6240202 1.113768 0.8961461
v 0.5185215 1.459067 -0.02319621
v 0.6212801 1.409573 -0.02256467
v 0.7548455 1.106992 0.7526835
v 0.6240202 1.113768 0.8961461
v 0 1.453382 -1.297508
v 0 1.191823 -2.115369
v 0.3707195 1.174297 -2.063782
v 0.1708951 1.443401 -1.28774
v 0.3445687 1.410626 -1.300852
v 0.3445687 1.410626 -1.300852
v 0.3707195 1.174297 -2.063782
v 0.4715422 1.184062 -1.888756
v 0.4943638 1.361891 -1.316996
v -0.7220131 1.369336 -0.03912712
v -0.8654354 1.106925 0.627539
v -0.8916672 1.123598 -0.04158951
v -0.6837691 1.424384 -0.3550892
v -0.6400725 1.422682 -0.6728737
v -0.8843451 1.146047 -0.6920712
v -0.8843451 1.146047 -0.6920712
v -0.6933628 1.262254 -1.258483
v -0.6217695 1.331363 -1.255874
v -0.6400725 1.422682 -0.6728737
v -0.5185215 1.459067 -0.02319621
v -0.6240202 1.113768 0.8961461
v -0.7548455 1.106992 0.7526835
v -0.6212801 1.409573 -0.02256467
v 0 1.453382 -1.297508
v -0.3707195 1.174297 -2.063782
v 0 1.191823 -2.115369
v -0.1708951 1.443401 -1.28774
v -0.3445687 1.410626 -1.300852
v -0.3445687 1.410626 -1.300852
v -0.4943638 1.361891 -1.316996
v -0.4715422 1.184062 -1.888756
v -0.3707195 1.174297 -2.063782
vt 0.5488281 0.06677246
vt 0.5488281 0.06677246
vt 0.5488281 0.06677246
vt 0.5488281 0.06677246
vt 0.5488281 0.06677246
vt 0.5488281 0.06677246
vt 0.5488281 0.06677246
vt 0.5488281 0.06677246
vt 0.5488281 0.06677246
vt 0.5488281 0.06677246
vt 0.5488281 0.06677246
vt 0.5488281 0.06677246
vt 0.5488281 0.06677246
vt 0.5488281 0.06677246
vt 0.5488281 0.06677246
vt 0.5488281 0.06677246
vt 0.5488281 0.06677246
vt 0.5488281 0.06677246
vt 0.5488281 0.06677246
vt 0.5488281 0.06677246
vt 0.5488281 0.06677246
vt 0.5488281 0.06677246
vt 0.5488281 0.06677246
vt 0.5488281 0.06677246
vt 0.5488281 0.06677246
vt 0.5488281 0.06677246
vt 0.5488281 0.06677246
vt 0.5488281 0.06677246
vt 0.5488281 0.06677246
vt 0.5488281 0.06677246
vt 0.5488281 0.06677246
vt 0.5488281 0.06677246
vt 0.5488281 0.06677246
vt 0.5488281 0.06677246
vt 0.5488281 0.06677246
vt 0.5488281 0.06677246
vt 0.5488281 0.06677246
vt 0.5488281 0.06677246
vt 0.5488281 0.06677246
vt 0.5488281 0.06677246
vt 0.5488281 0.06677246
vt 0.5488281 0.06677246
vt 0.5488281 0.06677246
vt 0.5488281 0.06677246
vt 0.5488281 0.06677246
vt 0.5488281 0.06677246
vt 0.5488281 0.06677246
vt 0.5488281 0.06677246
vt 0.5488281 0.06677246
vt 0.5488281 0.06677246
vt 0.5488281 0.06677246
vt 0.5488281 0.06677246
vt 0.5488281 0.06677246
vt 0.5488281 0.06677246
vt 0.5488281 0.06677246
vt 0.5488281 0.06677246
vn 0.8227539 0.5678711 0.02287292
vn 0.8134766 0.5810547 0.005641937
vn 0.8222656 0.5673828 0.0463562
vn 0.8085938 0.5878906 -0.01473236
vn 0.7939453 0.6069336 -0.02883911
vn 0.7939453 0.6069336 -0.02883911
vn 0.7294922 0.6738281 -0.1182251
vn 0.7294922 0.6738281 -0.1182251
vn 0.7294922 0.6738281 -0.1182251
vn 0.7294922 0.6738281 -0.1182251
vn 0.07232666 0.9350586 0.3464355
vn 0.07232666 0.9350586 0.3464355
vn 0.04879761 0.9350586 0.3513184
vn 0.04879761 0.9350586 0.3513184
vn 0 0.9345703 0.355957
vn 0 0.9345703 0.355957
vn -0.04879761 0.9350586 0.3513184
vn -0.04879761 0.9350586 0.3513184
vn -0.07232666 0.9350586 0.3464355
vn -0.07232666 0.9350586 0.3464355
vn 0.3842773 0.8793945 0.2819824
vn 0.3842773 0.8793945 0.2819824
vn 0.3842773 0.8793945 0.2819824
vn 0.3842773 0.8793945 0.2819824
vn 0.08276367 0.9487305 -0.3054199
vn 0.08276367 0.9487305 -0.3054199
vn 0.119812 0.9472656 -0.2966309
vn 0.119812 0.9472656 -0.2966309
vn 0.1566162 0.9448242 -0.2873535
vn 0.3183594 0.9057617 -0.2802734
vn 0.3183594 0.9057617 -0.2802734
vn 0.3183594 0.9057617 -0.2802734
vn 0.3183594 0.9057617 -0.2802734
vn -0.8227539 0.5678711 0.02287292
vn -0.8222656 0.5673828 0.0463562
vn -0.8134766 0.5810547 0.005641937
vn -0.8085938 0.5878906 -0.01473236
vn -0.7939453 0.6069336 -0.02883911
vn -0.7939453 0.6069336 -0.02883911
vn -0.7294922 0.6738281 -0.1182251
vn -0.7294922 0.6738281 -0.1182251
vn -0.7294922 0.6738281 -0.1182251
vn -0.7294922 0.6738281 -0.1182251
vn -0.3842773 0.8793945 0.2819824
vn -0.3842773 0.8793945 0.2819824
vn -0.3842773 0.8793945 0.2819824
vn -0.3842773 0.8793945 0.2819824
vn -0.08276367 0.9487305 -0.3054199
vn -0.119812 0.9472656 -0.2966309
vn -0.08276367 0.9487305 -0.3054199
vn -0.119812 0.9472656 -0.2966309
vn -0.1566162 0.9448242 -0.2873535
vn -0.3183594 0.9057617 -0.2802734
vn -0.3183594 0.9057617 -0.2802734
vn -0.3183594 0.9057617 -0.2802734
vn -0.3183594 0.9057617 -0.2802734
g SM_Veh_Future_Taxi_01_Glass_0
f 3/3/3 2/2/2 1/1/1
f 1/1/1 2/2/2 4/4/4
f 4/4/4 2/2/2 5/5/5
f 2/2/2 6/6/6 5/5/5
f 9/9/9 8/8/8 7/7/7
f 10/10/10 9/9/9 7/7/7
f 13/13/13 12/12/12 11/11/11
f 14/14/14 13/13/13 11/11/11
f 13/13/13 14/14/14 15/15/15
f 14/14/14 16/16/16 15/15/15
f 16/16/16 17/17/17 15/15/15
f 17/17/17 18/18/18 15/15/15
f 18/18/18 17/17/17 19/19/19
f 20/20/20 18/18/18 19/19/19
f 23/23/23 22/22/22 21/21/21
f 24/24/24 23/23/23 21/21/21
f 27/27/27 26/26/26 25/25/25
f 28/28/28 27/27/27 25/25/25
f 29/29/29 27/27/27 28/28/28
f 32/32/32 31/31/31 30/30/30
f 33/33/33 32/32/32 30/30/30
f 36/36/36 35/35/35 34/34/34
f 36/36/36 34/34/34 37/37/37
f 36/36/36 37/37/37 38/38/38
f 39/39/39 36/36/36 38/38/38
f 42/42/42 41/41/41 40/40/40
f 43/43/43 42/42/42 40/40/40
f 46/46/46 45/45/45 44/44/44
f 47/47/47 46/46/46 44/44/44
f 50/50/50 49/49/49 48/48/48
f 49/49/49 51/51/51 48/48/48
f 49/49/49 52/52/52 51/51/51
f 55/55/55 54/54/54 53/53/53
f 56/56/56 55/55/55 53/53/53
