g SM_Veh_Classic_01_R_Door_Glass_Hover
v -0.8827283 1.232682 -0.8319815
v -0.9240568 1.100363 -0.3440996
v -0.9004403 1.095405 -0.8319815
v -0.8421831 1.405609 -0.1619537
v -0.8827283 1.232682 -0.8319815
v -0.8462517 1.406463 -0.8319815
v -0.8911626 1.234453 -0.3176007
v -0.8914738 1.232971 0.1776144
v -0.9240568 1.100363 -0.3440996
v -0.9200872 1.096652 0.3291182
v -0.9475908 1.016554 0.3013454
v -0.9472797 1.018036 -0.2674648
vt 0.5444336 0.06451416
vt 0.5444336 0.06451416
vt 0.5444336 0.06451416
vt 0.5444336 0.06451416
vt 0.5444336 0.06451416
vt 0.5444336 0.06451416
vt 0.5444336 0.06451416
vt 0.5444336 0.06451416
vt 0.5444336 0.06451416
vt 0.5444336 0.06451416
vt 0.5444336 0.06451416
vt 0.5444336 0.06451416
vn -0.9907227 0.1278076 -0.04925537
vn -0.9907227 0.1278076 -0.04925537
vn -0.9907227 0.1278076 -0.04925537
vn -0.9658203 0.2585449 -0.001772881
vn -0.9702148 0.2416992 -0.01025391
vn -0.9702148 0.2420654 -0.003763199
vn -0.9692383 0.2454834 -0.004062653
vn -0.9682617 0.2493896 0.002132416
vn -0.9667969 0.2548828 -0.002880096
vn -0.965332 0.2617188 0.004055023
vn -0.9541016 0.2993164 0.004062653
vn -0.9541016 0.2993164 0.004062653
g SM_Veh_Classic_01_R_Door_Glass_Hover_0
f 3/3/3 2/2/2 1/1/1
f 6/6/6 5/5/5 4/4/4
f 5/5/5 7/7/7 4/4/4
f 8/8/8 4/4/4 7/7/7
f 9/9/9 7/7/7 5/5/5
f 8/8/8 7/7/7 9/9/9
f 10/10/10 8/8/8 9/9/9
f 11/11/11 10/10/10 9/9/9
f 12/12/12 11/11/11 9/9/9
