g SM_Veh_Armored_Truck_Cannon_01
v -0.228859 -3.576279E-09 -0.3963957
v -0.194196 0.1692292 -0.3363572
v -0.3363575 0.1692292 -0.1941958
v -0.3963954 -3.576279E-09 -0.228859
v -0.3963954 -3.576279E-09 -0.228859
v -0.3363575 0.1692292 -0.1941958
v -0.3883921 0.1692292 -7.450581E-08
v -0.4577179 -3.576279E-09 -7.510185E-08
v -0.4577179 -3.576279E-09 -7.510185E-08
v -0.3883921 0.1692292 -7.450581E-08
v -0.3363575 0.1692292 0.1941957
v -0.3963954 -3.576279E-09 0.2288589
v -0.3963954 -3.576279E-09 0.2288589
v -0.3363575 0.1692292 0.1941957
v -0.194196 0.1692292 0.336357
v -0.228859 -3.576279E-09 0.3963956
v -0.228859 -3.576279E-09 0.3963956
v -0.194196 0.1692292 0.336357
v 8.940696E-09 0.1692292 0.3883924
v 7.152557E-09 -3.576279E-09 0.4577178
v 7.152557E-09 -3.576279E-09 0.4577178
v 8.940696E-09 0.1692292 0.3883924
v 0.194196 0.1692292 0.336357
v 0.228859 -3.576279E-09 0.3963956
v 0.228859 -3.576279E-09 0.3963956
v 0.194196 0.1692292 0.336357
v 0.3363575 0.1692292 0.1941957
v 0.3963954 -3.576279E-09 0.2288589
v 0.3963954 -3.576279E-09 0.2288589
v 0.3363575 0.1692292 0.1941957
v 0.3883921 0.1692292 -7.450581E-08
v 0.457718 -3.576279E-09 -7.510185E-08
v 0.457718 -3.576279E-09 -7.510185E-08
v 0.3883921 0.1692292 -7.450581E-08
v 0.3363575 0.1692292 -0.1941958
v 0.3963954 -3.576279E-09 -0.228859
v 0.3963954 -3.576279E-09 -0.228859
v 0.3363575 0.1692292 -0.1941958
v 0.194196 0.1692292 -0.3363572
v 0.228859 -3.576279E-09 -0.3963957
v 0.228859 -3.576279E-09 -0.3963957
v 0.194196 0.1692292 -0.3363572
v 1.013279E-08 0.1692292 -0.3883925
v 1.192093E-08 -3.576279E-09 -0.457718
v 1.192093E-08 -3.576279E-09 -0.457718
v 1.013279E-08 0.1692292 -0.3883925
v -0.194196 0.1692292 -0.3363572
v -0.228859 -3.576279E-09 -0.3963957
v 0.1859589 0.2291557 0.1073636
v 9.536743E-09 0.2291557 -7.465481E-08
v 0.2147267 0.2291557 -7.480383E-08
v 0.1073634 0.2291557 0.1859588
v 8.046626E-09 0.2291557 0.2147264
v -0.1073634 0.2291557 0.1859588
v -0.1859589 0.2291557 0.1073636
v -0.2147267 0.2291557 -7.480383E-08
v -0.1859589 0.2291557 -0.1073638
v -0.1073634 0.2291557 -0.1859589
v 1.102686E-08 0.2291557 -0.2147265
v 0.1073634 0.2291557 -0.185959
v 0.2147267 0.2291557 -7.480383E-08
v 9.536743E-09 0.2291557 -7.465481E-08
v 0.1859589 0.2291557 -0.1073638
v 0.1073634 0.2291557 -0.185959
v -0.1641671 0.1692292 -0.2843457
v -0.1525241 0.0883761 -0.2641793
v -0.2641793 0.0883761 -0.1525241
v -0.2843459 0.1692292 -0.1641675
v -0.2843459 0.1692292 -0.1641675
v -0.2641793 0.0883761 -0.1525241
v -0.3050481 0.0883761 -7.450581E-08
v -0.3283343 0.1692292 -7.510185E-08
v -0.3283343 0.1692292 -7.510185E-08
v -0.3050481 0.0883761 -7.450581E-08
v -0.2641793 0.0883761 0.1525239
v -0.2843459 0.1692292 0.1641673
v -0.2843459 0.1692292 0.1641673
v -0.2641793 0.0883761 0.1525239
v -0.1525241 0.0883761 0.2641791
v -0.1641671 0.1692292 0.2843455
v -0.1641671 0.1692292 0.2843455
v -0.1525241 0.0883761 0.2641791
v 1.013279E-08 0.0883761 0.3050479
v 8.940696E-09 0.1692292 0.3283338
v 8.940696E-09 0.1692292 0.3283338
v 1.013279E-08 0.0883761 0.3050479
v 0.152524 0.0883761 0.2641791
v 0.1641671 0.1692292 0.2843455
v 0.1641671 0.1692292 0.2843455
v 0.152524 0.0883761 0.2641791
v 0.2641794 0.0883761 0.1525239
v 0.2843459 0.1692292 0.1641673
v 0.2843459 0.1692292 0.1641673
v 0.2641794 0.0883761 0.1525239
v 0.3050481 0.0883761 -7.450581E-08
v 0.3283343 0.1692292 -7.450581E-08
v 0.3283343 0.1692292 -7.450581E-08
v 0.3050481 0.0883761 -7.450581E-08
v 0.2641794 0.0883761 -0.1525241
v 0.2843459 0.1692292 -0.1641675
v 0.2843459 0.1692292 -0.1641675
v 0.2641794 0.0883761 -0.1525241
v 0.152524 0.0883761 -0.2641793
v 0.1641672 0.1692292 -0.2843457
v 0.1641672 0.1692292 -0.2843457
v 0.152524 0.0883761 -0.2641793
v 8.940696E-09 0.0883761 -0.305048
v 1.013279E-08 0.1692292 -0.3283339
v 1.013279E-08 0.1692292 -0.3283339
v 8.940696E-09 0.0883761 -0.305048
v -0.1525241 0.0883761 -0.2641793
v -0.1641671 0.1692292 -0.2843457
v -0.1525241 0.0883761 -0.2641793
v -0.1073634 0.2291557 -0.1859589
v -0.1859589 0.2291557 -0.1073638
v -0.2641793 0.0883761 -0.1525241
v -0.2641793 0.0883761 -0.1525241
v -0.1859589 0.2291557 -0.1073638
v -0.2147267 0.2291557 -7.480383E-08
v -0.3050481 0.0883761 -7.450581E-08
v -0.3050481 0.0883761 -7.450581E-08
v -0.2147267 0.2291557 -7.480383E-08
v -0.1859589 0.2291557 0.1073636
v -0.2641793 0.0883761 0.1525239
v -0.2641793 0.0883761 0.1525239
v -0.1859589 0.2291557 0.1073636
v -0.1073634 0.2291557 0.1859588
v -0.1525241 0.0883761 0.2641791
v -0.1525241 0.0883761 0.2641791
v -0.1073634 0.2291557 0.1859588
v 8.046626E-09 0.2291557 0.2147264
v 1.013279E-08 0.0883761 0.3050479
v 1.013279E-08 0.0883761 0.3050479
v 8.046626E-09 0.2291557 0.2147264
v 0.1073634 0.2291557 0.1859588
v 0.152524 0.0883761 0.2641791
v 0.152524 0.0883761 0.2641791
v 0.1073634 0.2291557 0.1859588
v 0.1859589 0.2291557 0.1073636
v 0.2641794 0.0883761 0.1525239
v 0.2641794 0.0883761 0.1525239
v 0.1859589 0.2291557 0.1073636
v 0.2147267 0.2291557 -7.480383E-08
v 0.3050481 0.0883761 -7.450581E-08
v 0.3050481 0.0883761 -7.450581E-08
v 0.2147267 0.2291557 -7.480383E-08
v 0.1859589 0.2291557 -0.1073638
v 0.2641794 0.0883761 -0.1525241
v 0.2641794 0.0883761 -0.1525241
v 0.1859589 0.2291557 -0.1073638
v 0.1073634 0.2291557 -0.185959
v 0.152524 0.0883761 -0.2641793
v 0.152524 0.0883761 -0.2641793
v 0.1073634 0.2291557 -0.185959
v 1.102686E-08 0.2291557 -0.2147265
v 8.940696E-09 0.0883761 -0.305048
v 8.940696E-09 0.0883761 -0.305048
v 1.102686E-08 0.2291557 -0.2147265
v -0.1073634 0.2291557 -0.1859589
v -0.1525241 0.0883761 -0.2641793
v -0.3963954 -3.576279E-09 -0.228859
v 9.536743E-09 -3.576279E-09 -7.465481E-08
v -0.228859 -3.576279E-09 -0.3963957
v -0.4577179 -3.576279E-09 -7.510185E-08
v 1.192093E-08 -3.576279E-09 -0.457718
v -0.3963954 -3.576279E-09 0.2288589
v 0.228859 -3.576279E-09 -0.3963957
v -0.228859 -3.576279E-09 0.3963956
v 0.3963954 -3.576279E-09 -0.228859
v 7.152557E-09 -3.576279E-09 0.4577178
v 0.457718 -3.576279E-09 -7.510185E-08
v 0.228859 -3.576279E-09 0.3963956
v 0.3963954 -3.576279E-09 0.2288589
v -0.194196 0.1692292 -0.3363572
v -0.1641671 0.1692292 -0.2843457
v -0.2843459 0.1692292 -0.1641675
v -0.3363575 0.1692292 -0.1941958
v 1.013279E-08 0.1692292 -0.3883925
v -0.3283343 0.1692292 -7.510185E-08
v 1.013279E-08 0.1692292 -0.3283339
v -0.3883921 0.1692292 -7.450581E-08
v 0.194196 0.1692292 -0.3363572
v -0.2843459 0.1692292 0.1641673
v 0.1641672 0.1692292 -0.2843457
v -0.3363575 0.1692292 0.1941957
v 0.3363575 0.1692292 -0.1941958
v -0.1641671 0.1692292 0.2843455
v 0.2843459 0.1692292 -0.1641675
v -0.194196 0.1692292 0.336357
v 0.3883921 0.1692292 -7.450581E-08
v 8.940696E-09 0.1692292 0.3283338
v 0.3283343 0.1692292 -7.450581E-08
v 8.940696E-09 0.1692292 0.3883924
v 0.3363575 0.1692292 0.1941957
v 0.1641671 0.1692292 0.2843455
v 0.2843459 0.1692292 0.1641673
v 0.194196 0.1692292 0.336357
vt 0.4274902 0.1778564
vt 0.4274902 0.1778564
vt 0.4274902 0.1778564
vt 0.4274902 0.1778564
vt 0.4274902 0.1778564
vt 0.4274902 0.1778564
vt 0.4274902 0.1778564
vt 0.4274902 0.1778564
vt 0.4274902 0.1778564
vt 0.4274902 0.1778564
vt 0.4274902 0.1778564
vt 0.4274902 0.1778564
vt 0.4274902 0.1778564
vt 0.4274902 0.1778564
vt 0.4274902 0.1778564
vt 0.4274902 0.1778564
vt 0.4274902 0.1778564
vt 0.4274902 0.1778564
vt 0.4274902 0.1778564
vt 0.4274902 0.1778564
vt 0.4274902 0.1778564
vt 0.4274902 0.1778564
vt 0.4274902 0.1778564
vt 0.4274902 0.1778564
vt 0.4274902 0.1778564
vt 0.4274902 0.1778564
vt 0.4274902 0.1778564
vt 0.4274902 0.1778564
vt 0.4274902 0.1778564
vt 0.4274902 0.1778564
vt 0.4274902 0.1778564
vt 0.4274902 0.1778564
vt 0.4274902 0.1778564
vt 0.4274902 0.1778564
vt 0.4274902 0.1778564
vt 0.4274902 0.1778564
vt 0.4274902 0.1778564
vt 0.4274902 0.1778564
vt 0.4274902 0.1778564
vt 0.4274902 0.1778564
vt 0.4274902 0.1778564
vt 0.4274902 0.1778564
vt 0.4274902 0.1778564
vt 0.4274902 0.1778564
vt 0.4274902 0.1778564
vt 0.4274902 0.1778564
vt 0.4274902 0.1778564
vt 0.4274902 0.1778564
vt 0.302002 0.2651367
vt 0.302002 0.2651367
vt 0.302002 0.2651367
vt 0.302002 0.2651367
vt 0.302002 0.2651367
vt 0.302002 0.2651367
vt 0.302002 0.2651367
vt 0.302002 0.2651367
vt 0.302002 0.2651367
vt 0.302002 0.2651367
vt 0.302002 0.2651367
vt 0.302002 0.2651367
vt 0.302002 0.2651367
vt 0.302002 0.2651367
vt 0.302002 0.2651367
vt 0.302002 0.2651367
vt 0.302002 0.2651367
vt 0.302002 0.2651367
vt 0.302002 0.2651367
vt 0.302002 0.2651367
vt 0.302002 0.2651367
vt 0.302002 0.2651367
vt 0.302002 0.2651367
vt 0.302002 0.2651367
vt 0.302002 0.2651367
vt 0.302002 0.2651367
vt 0.302002 0.2651367
vt 0.302002 0.2651367
vt 0.302002 0.2651367
vt 0.302002 0.2651367
vt 0.302002 0.2651367
vt 0.302002 0.2651367
vt 0.302002 0.2651367
vt 0.302002 0.2651367
vt 0.302002 0.2651367
vt 0.302002 0.2651367
vt 0.302002 0.2651367
vt 0.302002 0.2651367
vt 0.302002 0.2651367
vt 0.302002 0.2651367
vt 0.302002 0.2651367
vt 0.302002 0.2651367
vt 0.302002 0.2651367
vt 0.302002 0.2651367
vt 0.302002 0.2651367
vt 0.302002 0.2651367
vt 0.302002 0.2651367
vt 0.302002 0.2651367
vt 0.302002 0.2651367
vt 0.302002 0.2651367
vt 0.302002 0.2651367
vt 0.302002 0.2651367
vt 0.302002 0.2651367
vt 0.302002 0.2651367
vt 0.302002 0.2651367
vt 0.302002 0.2651367
vt 0.302002 0.2651367
vt 0.302002 0.2651367
vt 0.302002 0.2651367
vt 0.302002 0.2651367
vt 0.302002 0.2651367
vt 0.302002 0.2651367
vt 0.302002 0.2651367
vt 0.302002 0.2651367
vt 0.302002 0.2651367
vt 0.302002 0.2651367
vt 0.302002 0.2651367
vt 0.302002 0.2651367
vt 0.302002 0.2651367
vt 0.302002 0.2651367
vt 0.302002 0.2651367
vt 0.302002 0.2651367
vt 0.302002 0.2651367
vt 0.302002 0.2651367
vt 0.302002 0.2651367
vt 0.302002 0.2651367
vt 0.302002 0.2651367
vt 0.302002 0.2651367
vt 0.302002 0.2651367
vt 0.302002 0.2651367
vt 0.302002 0.2651367
vt 0.302002 0.2651367
vt 0.302002 0.2651367
vt 0.302002 0.2651367
vt 0.302002 0.2651367
vt 0.302002 0.2651367
vt 0.302002 0.2651367
vt 0.302002 0.2651367
vt 0.302002 0.2651367
vt 0.302002 0.2651367
vt 0.302002 0.2651367
vt 0.302002 0.2651367
vt 0.302002 0.2651367
vt 0.302002 0.2651367
vt 0.302002 0.2651367
vt 0.302002 0.2651367
vt 0.302002 0.2651367
vt 0.302002 0.2651367
vt 0.302002 0.2651367
vt 0.302002 0.2651367
vt 0.302002 0.2651367
vt 0.302002 0.2651367
vt 0.302002 0.2651367
vt 0.302002 0.2651367
vt 0.302002 0.2651367
vt 0.302002 0.2651367
vt 0.302002 0.2651367
vt 0.302002 0.2651367
vt 0.302002 0.2651367
vt 0.302002 0.2651367
vt 0.302002 0.2651367
vt 0.302002 0.2651367
vt 0.302002 0.2651367
vt 0.302002 0.2651367
vt 0.302002 0.2651367
vt 0.302002 0.2651367
vt 0.302002 0.2651367
vt 0.302002 0.2651367
vt 0.302002 0.2651367
vt 0.302002 0.2651367
vt 0.302002 0.2651367
vt 0.302002 0.2651367
vt 0.302002 0.2651367
vt 0.302002 0.2651367
vt 0.302002 0.2651367
vt 0.4274902 0.1778564
vt 0.4274902 0.1778564
vt 0.4274902 0.1778564
vt 0.4274902 0.1778564
vt 0.4274902 0.1778564
vt 0.4274902 0.1778564
vt 0.4274902 0.1778564
vt 0.4274902 0.1778564
vt 0.4274902 0.1778564
vt 0.4274902 0.1778564
vt 0.4274902 0.1778564
vt 0.4274902 0.1778564
vt 0.4274902 0.1778564
vt 0.4274902 0.1778564
vt 0.4274902 0.1778564
vt 0.4274902 0.1778564
vt 0.4274902 0.1778564
vt 0.4274902 0.1778564
vt 0.4274902 0.1778564
vt 0.4274902 0.1778564
vt 0.4274902 0.1778564
vt 0.4274902 0.1778564
vt 0.4274902 0.1778564
vt 0.4274902 0.1778564
vn -0.6577148 0.3679199 -0.6577148
vn -0.6577148 0.3679199 -0.6577148
vn -0.6577148 0.3679199 -0.6577148
vn -0.6577148 0.3679199 -0.6577148
vn -0.8979492 0.3679199 -0.2407227
vn -0.8979492 0.3679199 -0.2407227
vn -0.8979492 0.3679199 -0.2407227
vn -0.8979492 0.3679199 -0.2407227
vn -0.8979492 0.3679199 0.2407227
vn -0.8979492 0.3679199 0.2407227
vn -0.8979492 0.3679199 0.2407227
vn -0.8979492 0.3679199 0.2407227
vn -0.6577148 0.3679199 0.6577148
vn -0.6577148 0.3679199 0.6577148
vn -0.6577148 0.3679199 0.6577148
vn -0.6577148 0.3679199 0.6577148
vn -0.2407227 0.3679199 0.8979492
vn -0.2407227 0.3679199 0.8979492
vn -0.2407227 0.3679199 0.8979492
vn -0.2407227 0.3679199 0.8979492
vn 0.2407227 0.3679199 0.8979492
vn 0.2407227 0.3679199 0.8979492
vn 0.2407227 0.3679199 0.8979492
vn 0.2407227 0.3679199 0.8979492
vn 0.6577148 0.3679199 0.6577148
vn 0.6577148 0.3679199 0.6577148
vn 0.6577148 0.3679199 0.6577148
vn 0.6577148 0.3679199 0.6577148
vn 0.8979492 0.3679199 0.2407227
vn 0.8979492 0.3679199 0.2407227
vn 0.8979492 0.3679199 0.2407227
vn 0.8979492 0.3679199 0.2407227
vn 0.8979492 0.3679199 -0.2407227
vn 0.8979492 0.3679199 -0.2407227
vn 0.8979492 0.3679199 -0.2407227
vn 0.8979492 0.3679199 -0.2407227
vn 0.6577148 0.3679199 -0.6577148
vn 0.6577148 0.3679199 -0.6577148
vn 0.6577148 0.3679199 -0.6577148
vn 0.6577148 0.3679199 -0.6577148
vn 0.2407227 0.3679199 -0.8979492
vn 0.2407227 0.3679199 -0.8979492
vn 0.2407227 0.3679199 -0.8979492
vn 0.2407227 0.3679199 -0.8979492
vn -0.2407227 0.3679199 -0.8979492
vn -0.2407227 0.3679199 -0.8979492
vn -0.2407227 0.3679199 -0.8979492
vn -0.2407227 0.3679199 -0.8979492
vn 0 1 0
vn 0 1 0
vn 0 1 0
vn 0 1 0
vn 0 1 0
vn 0 1 0
vn 0 1 0
vn 0 1 0
vn 0 1 0
vn 0 1 0
vn 0 1 0
vn 0 1 0
vn 0 1 0
vn 0 1 0
vn 0 1 0
vn 0 1 0
vn 0.6811523 0.2680664 0.6811523
vn 0.6811523 0.2680664 0.6811523
vn 0.6811523 0.2680664 0.6811523
vn 0.6811523 0.2680664 0.6811523
vn 0.9306641 0.2680664 0.2493896
vn 0.9306641 0.2680664 0.2493896
vn 0.9306641 0.2680664 0.2493896
vn 0.9306641 0.2680664 0.2493896
vn 0.9306641 0.2680664 -0.2493896
vn 0.9306641 0.2680664 -0.2493896
vn 0.9306641 0.2680664 -0.2493896
vn 0.9306641 0.2680664 -0.2493896
vn 0.6811523 0.2680664 -0.6811523
vn 0.6811523 0.2680664 -0.6811523
vn 0.6811523 0.2680664 -0.6811523
vn 0.6811523 0.2680664 -0.6811523
vn 0.2493896 0.2680664 -0.9306641
vn 0.2493896 0.2680664 -0.9306641
vn 0.2493896 0.2680664 -0.9306641
vn 0.2493896 0.2680664 -0.9306641
vn -0.2493896 0.2680664 -0.9306641
vn -0.2493896 0.2680664 -0.9306641
vn -0.2493896 0.2680664 -0.9306641
vn -0.2493896 0.2680664 -0.9306641
vn -0.6811523 0.2680664 -0.6811523
vn -0.6811523 0.2680664 -0.6811523
vn -0.6811523 0.2680664 -0.6811523
vn -0.6811523 0.2680664 -0.6811523
vn -0.9306641 0.2680664 -0.2493896
vn -0.9306641 0.2680664 -0.2493896
vn -0.9306641 0.2680664 -0.2493896
vn -0.9306641 0.2680664 -0.2493896
vn -0.9306641 0.2680664 0.2493896
vn -0.9306641 0.2680664 0.2493896
vn -0.9306641 0.2680664 0.2493896
vn -0.9306641 0.2680664 0.2493896
vn -0.6811523 0.2680664 0.6811523
vn -0.6811523 0.2680664 0.6811523
vn -0.6811523 0.2680664 0.6811523
vn -0.6811523 0.2680664 0.6811523
vn -0.2493896 0.2680664 0.9306641
vn -0.2493896 0.2680664 0.9306641
vn -0.2493896 0.2680664 0.9306641
vn -0.2493896 0.2680664 0.9306641
vn 0.2493896 0.2680664 0.9306641
vn 0.2493896 0.2680664 0.9306641
vn 0.2493896 0.2680664 0.9306641
vn 0.2493896 0.2680664 0.9306641
vn -0.6010742 0.5268555 -0.6010742
vn -0.6010742 0.5268555 -0.6010742
vn -0.6010742 0.5268555 -0.6010742
vn -0.6010742 0.5268555 -0.6010742
vn -0.8212891 0.5268555 -0.2199707
vn -0.8212891 0.5268555 -0.2199707
vn -0.8212891 0.5268555 -0.2199707
vn -0.8212891 0.5268555 -0.2199707
vn -0.8212891 0.5268555 0.2199707
vn -0.8212891 0.5268555 0.2199707
vn -0.8212891 0.5268555 0.2199707
vn -0.8212891 0.5268555 0.2199707
vn -0.6010742 0.5268555 0.6010742
vn -0.6010742 0.5268555 0.6010742
vn -0.6010742 0.5268555 0.6010742
vn -0.6010742 0.5268555 0.6010742
vn -0.2199707 0.5268555 0.8212891
vn -0.2199707 0.5268555 0.8212891
vn -0.2199707 0.5268555 0.8212891
vn -0.2199707 0.5268555 0.8212891
vn 0.2199707 0.5268555 0.8212891
vn 0.2199707 0.5268555 0.8212891
vn 0.2199707 0.5268555 0.8212891
vn 0.2199707 0.5268555 0.8212891
vn 0.6010742 0.5268555 0.6010742
vn 0.6010742 0.5268555 0.6010742
vn 0.6010742 0.5268555 0.6010742
vn 0.6010742 0.5268555 0.6010742
vn 0.8212891 0.5268555 0.2199707
vn 0.8212891 0.5268555 0.2199707
vn 0.8212891 0.5268555 0.2199707
vn 0.8212891 0.5268555 0.2199707
vn 0.8212891 0.5268555 -0.2199707
vn 0.8212891 0.5268555 -0.2199707
vn 0.8212891 0.5268555 -0.2199707
vn 0.8212891 0.5268555 -0.2199707
vn 0.6010742 0.5268555 -0.6010742
vn 0.6010742 0.5268555 -0.6010742
vn 0.6010742 0.5268555 -0.6010742
vn 0.6010742 0.5268555 -0.6010742
vn 0.2199707 0.5268555 -0.8212891
vn 0.2199707 0.5268555 -0.8212891
vn 0.2199707 0.5268555 -0.8212891
vn 0.2199707 0.5268555 -0.8212891
vn -0.2199707 0.5268555 -0.8212891
vn -0.2199707 0.5268555 -0.8212891
vn -0.2199707 0.5268555 -0.8212891
vn -0.2199707 0.5268555 -0.8212891
vn 0 -1 0
vn 0 -1 0
vn 0 -1 0
vn 0 -1 0
vn 0 -1 0
vn 0 -1 0
vn 0 -1 0
vn 0 -1 0
vn 0 -1 0
vn 0 -1 0
vn 0 -1 0
vn 0 -1 0
vn 0 -1 0
vn 0 1 0
vn 0 1 0
vn 0 1 0
vn 0 1 0
vn 0 1 0
vn 0 1 0
vn 0 1 0
vn 0 1 0
vn 0 1 0
vn 0 1 0
vn 0 1 0
vn 0 1 0
vn 0 1 0
vn 0 1 0
vn 0 1 0
vn 0 1 0
vn 0 1 0
vn 0 1 0
vn 0 1 0
vn 0 1 0
vn 0 1 0
vn 0 1 0
vn 0 1 0
vn 0 1 0
g SM_Veh_Armored_Truck_Cannon_01_0
f 3/3/3 2/2/2 1/1/1
f 4/4/4 3/3/3 1/1/1
f 7/7/7 6/6/6 5/5/5
f 8/8/8 7/7/7 5/5/5
f 11/11/11 10/10/10 9/9/9
f 12/12/12 11/11/11 9/9/9
f 15/15/15 14/14/14 13/13/13
f 16/16/16 15/15/15 13/13/13
f 19/19/19 18/18/18 17/17/17
f 20/20/20 19/19/19 17/17/17
f 23/23/23 22/22/22 21/21/21
f 24/24/24 23/23/23 21/21/21
f 27/27/27 26/26/26 25/25/25
f 28/28/28 27/27/27 25/25/25
f 31/31/31 30/30/30 29/29/29
f 32/32/32 31/31/31 29/29/29
f 35/35/35 34/34/34 33/33/33
f 36/36/36 35/35/35 33/33/33
f 39/39/39 38/38/38 37/37/37
f 40/40/40 39/39/39 37/37/37
f 43/43/43 42/42/42 41/41/41
f 44/44/44 43/43/43 41/41/41
f 47/47/47 46/46/46 45/45/45
f 48/48/48 47/47/47 45/45/45
f 51/51/51 50/50/50 49/49/49
f 49/49/49 50/50/50 52/52/52
f 52/52/52 50/50/50 53/53/53
f 53/53/53 50/50/50 54/54/54
f 54/54/54 50/50/50 55/55/55
f 55/55/55 50/50/50 56/56/56
f 56/56/56 50/50/50 57/57/57
f 57/57/57 50/50/50 58/58/58
f 58/58/58 50/50/50 59/59/59
f 59/59/59 50/50/50 60/60/60
f 63/63/63 62/62/62 61/61/61
f 64/64/64 62/62/62 63/63/63
f 67/67/67 66/66/66 65/65/65
f 68/68/68 67/67/67 65/65/65
f 71/71/71 70/70/70 69/69/69
f 72/72/72 71/71/71 69/69/69
f 75/75/75 74/74/74 73/73/73
f 76/76/76 75/75/75 73/73/73
f 79/79/79 78/78/78 77/77/77
f 80/80/80 79/79/79 77/77/77
f 83/83/83 82/82/82 81/81/81
f 84/84/84 83/83/83 81/81/81
f 87/87/87 86/86/86 85/85/85
f 88/88/88 87/87/87 85/85/85
f 91/91/91 90/90/90 89/89/89
f 92/92/92 91/91/91 89/89/89
f 95/95/95 94/94/94 93/93/93
f 96/96/96 95/95/95 93/93/93
f 99/99/99 98/98/98 97/97/97
f 100/100/100 99/99/99 97/97/97
f 103/103/103 102/102/102 101/101/101
f 104/104/104 103/103/103 101/101/101
f 107/107/107 106/106/106 105/105/105
f 108/108/108 107/107/107 105/105/105
f 111/111/111 110/110/110 109/109/109
f 112/112/112 111/111/111 109/109/109
f 115/115/115 114/114/114 113/113/113
f 116/116/116 115/115/115 113/113/113
f 119/119/119 118/118/118 117/117/117
f 120/120/120 119/119/119 117/117/117
f 123/123/123 122/122/122 121/121/121
f 124/124/124 123/123/123 121/121/121
f 127/127/127 126/126/126 125/125/125
f 128/128/128 127/127/127 125/125/125
f 131/131/131 130/130/130 129/129/129
f 132/132/132 131/131/131 129/129/129
f 135/135/135 134/134/134 133/133/133
f 136/136/136 135/135/135 133/133/133
f 139/139/139 138/138/138 137/137/137
f 140/140/140 139/139/139 137/137/137
f 143/143/143 142/142/142 141/141/141
f 144/144/144 143/143/143 141/141/141
f 147/147/147 146/146/146 145/145/145
f 148/148/148 147/147/147 145/145/145
f 151/151/151 150/150/150 149/149/149
f 152/152/152 151/151/151 149/149/149
f 155/155/155 154/154/154 153/153/153
f 156/156/156 155/155/155 153/153/153
f 159/159/159 158/158/158 157/157/157
f 160/160/160 159/159/159 157/157/157
f 163/163/163 162/162/162 161/161/161
f 161/161/161 162/162/162 164/164/164
f 165/165/165 162/162/162 163/163/163
f 164/164/164 162/162/162 166/166/166
f 167/167/167 162/162/162 165/165/165
f 166/166/166 162/162/162 168/168/168
f 169/169/169 162/162/162 167/167/167
f 168/168/168 162/162/162 170/170/170
f 171/171/171 162/162/162 169/169/169
f 170/170/170 162/162/162 172/172/172
f 173/173/173 162/162/162 171/171/171
f 172/172/172 162/162/162 173/173/173
f 176/176/176 175/175/175 174/174/174
f 177/177/177 176/176/176 174/174/174
f 174/174/174 175/175/175 178/178/178
f 179/179/179 176/176/176 177/177/177
f 175/175/175 180/180/180 178/178/178
f 181/181/181 179/179/179 177/177/177
f 178/178/178 180/180/180 182/182/182
f 183/183/183 179/179/179 181/181/181
f 180/180/180 184/184/184 182/182/182
f 185/185/185 183/183/183 181/181/181
f 182/182/182 184/184/184 186/186/186
f 187/187/187 183/183/183 185/185/185
f 184/184/184 188/188/188 186/186/186
f 189/189/189 187/187/187 185/185/185
f 186/186/186 188/188/188 190/190/190
f 191/191/191 187/187/187 189/189/189
f 188/188/188 192/192/192 190/190/190
f 193/193/193 191/191/191 189/189/189
f 190/190/190 192/192/192 194/194/194
f 195/195/195 191/191/191 193/193/193
f 192/192/192 196/196/196 194/194/194
f 197/197/197 195/195/195 193/193/193
f 194/194/194 196/196/196 197/197/197
f 196/196/196 195/195/195 197/197/197
