g SM_Veh_Sweepo_01_Glass
v -0.5218616 0.75462 1.539246
v -0.6835563 0.7498039 0.9922265
v -0.5218616 0.9102255 1.539246
v -0.6835562 0.8439333 0.7478886
v -0.6835563 0.9010479 0.4500173
v -0.6835563 1.366057 0.4500173
v 0.5218616 0.75462 1.539246
v 0.5218616 0.9102255 1.539246
v 0.6835563 0.7498039 0.9922265
v 0.6835562 0.8439333 0.7478886
v 0.6835563 1.366057 0.4500173
v 0.6835563 0.9010479 0.4500173
v -0.6835563 1.988912 0.4500173
v -0.5218616 1.988956 1.155501
v -0.5218616 1.058663 1.493101
v -0.6835563 1.503147 0.4500173
v -0.6835563 0.7498039 0.9922265
v -0.6835562 0.8439333 0.7478886
v -0.6835563 1.366057 0.4500173
v -0.5218616 0.9102255 1.539246
v -0.4883006 0.9909854 1.547868
v -0.4883006 1.942741 1.209983
v -5.317915E-08 1.942741 1.209983
v -5.317915E-08 0.9909854 1.547868
v 0.4883007 0.9909854 1.547868
v 0.4883007 1.942741 1.209983
v 0.6835563 0.7498039 0.9922265
v 0.5218616 0.9102255 1.539246
v 0.6835563 1.366057 0.4500173
v 0.6835562 0.8439333 0.7478886
v 0.6835563 1.988912 0.4500173
v 0.6835563 1.503147 0.4500173
v 0.5218616 1.058663 1.493101
v 0.5218616 1.988956 1.155501
vt 0.5585938 0.06451416
vt 0.5585938 0.06451416
vt 0.5585938 0.06451416
vt 0.5585938 0.06451416
vt 0.5585938 0.06451416
vt 0.5585938 0.06451416
vt 0.5585938 0.06451416
vt 0.5585938 0.06451416
vt 0.5585938 0.06451416
vt 0.5585938 0.06451416
vt 0.5585938 0.06451416
vt 0.5585938 0.06451416
vt 0.5585938 0.06451416
vt 0.5585938 0.06451416
vt 0.5585938 0.06451416
vt 0.5585938 0.06451416
vt 0.5585938 0.06451416
vt 0.5585938 0.06451416
vt 0.5585938 0.06451416
vt 0.5585938 0.06451416
vt 0.5585938 0.06451416
vt 0.5585938 0.06451416
vt 0.5585938 0.06451416
vt 0.5585938 0.06451416
vt 0.5585938 0.06451416
vt 0.5585938 0.06451416
vt 0.5585938 0.06451416
vt 0.5585938 0.06451416
vt 0.5585938 0.06451416
vt 0.5585938 0.06451416
vt 0.5585938 0.06451416
vt 0.5585938 0.06451416
vt 0.5585938 0.06451416
vt 0.5585938 0.06451416
vn -0.9589844 0 0.2834473
vn -0.9589844 0 0.2834473
vn -0.9589844 0 0.2834473
vn -1 0 0
vn -1 0 0
vn -1 0 0
vn 0.9589844 0 0.2834473
vn 0.9589844 0 0.2834473
vn 0.9589844 0 0.2834473
vn 1 0 0
vn 1 0 0
vn 1 0 0
vn -0.9799805 0.04598999 0.1929932
vn -0.9799805 0.04598999 0.1929932
vn -0.9799805 0.04598999 0.1929932
vn -0.9799805 0.04598999 0.1929932
vn -0.9692383 0.1623535 0.1844482
vn -0.9692383 0.1623535 0.1844482
vn -0.9692383 0.1623535 0.1844482
vn -0.9692383 0.1623535 0.1844482
vn 0 0.3344727 0.9423828
vn 0 0.3344727 0.9423828
vn 0 0.3344727 0.9423828
vn 0 0.3344727 0.9423828
vn 0 0.3344727 0.9423828
vn 0 0.3344727 0.9423828
vn 0.9692383 0.1623535 0.1844482
vn 0.9692383 0.1623535 0.1844482
vn 0.9692383 0.1623535 0.1844482
vn 0.9692383 0.1623535 0.1844482
vn 0.9799805 0.04598999 0.1929932
vn 0.9799805 0.04598999 0.1929932
vn 0.9799805 0.04598999 0.1929932
vn 0.9799805 0.04598999 0.1929932
g SM_Veh_Sweepo_01_Glass_0
f 3/3/3 2/2/2 1/1/1
f 6/6/6 5/5/5 4/4/4
f 9/9/9 8/8/8 7/7/7
f 12/12/12 11/11/11 10/10/10
f 15/15/15 14/14/14 13/13/13
f 16/16/16 15/15/15 13/13/13
f 19/19/19 18/18/18 17/17/17
f 20/20/20 19/19/19 17/17/17
f 23/23/23 22/22/22 21/21/21
f 24/24/24 23/23/23 21/21/21
f 23/23/23 24/24/24 25/25/25
f 26/26/26 23/23/23 25/25/25
f 29/29/29 28/28/28 27/27/27
f 30/30/30 29/29/29 27/27/27
f 33/33/33 32/32/32 31/31/31
f 34/34/34 33/33/33 31/31/31
