g SM_Veh_Garbage_01_Glass_Hover
v -0.7362112 0.4214593 0.8462591
v -0.7608585 -0.1718291 0.6907476
v -1.018598 0.0369194 -0.05070535
v -0.9939516 0.4280028 -0.05070535
v -1.0815 0.05420852 -0.2181993
v -1.081348 0.05093719 -0.9349677
v -1.053469 0.4347958 -0.2123048
v -1.053469 0.4347958 -0.8286357
v 0.7362112 0.4214593 0.8462591
v 0.9939516 0.4280028 -0.05070535
v 1.018598 0.0369194 -0.05070535
v 0.7608585 -0.1718291 0.6907476
v 1.0815 0.05420852 -0.2181993
v 1.053469 0.4347958 -0.2123048
v 1.081348 0.05093719 -0.9349677
v 1.053469 0.4347958 -0.8286357
v 0 -0.4347958 0.7646285
v 0.7152231 -0.2469539 0.7646285
v 0.7360253 -0.4347958 0.7646285
v 0 -0.2469539 0.7646285
v -0.7152231 -0.2469539 0.7646285
v -0.7360253 -0.4347958 0.7646285
v 0 -0.2469539 0.7646285
v 0.6727819 0.4227075 0.9349676
v 0.7152231 -0.2469539 0.7646285
v 0 0.4227075 0.9349676
v -0.6727819 0.4227075 0.9349676
v -0.7152231 -0.2469539 0.7646285
vt 0.5429688 0.06192017
vt 0.5429688 0.06192017
vt 0.5429688 0.06192017
vt 0.5429688 0.06192017
vt 0.5429688 0.06192017
vt 0.5429688 0.06192017
vt 0.5429688 0.06192017
vt 0.5429688 0.06192017
vt 0.5429688 0.06192017
vt 0.5429688 0.06192017
vt 0.5429688 0.06192017
vt 0.5429688 0.06192017
vt 0.5429688 0.06192017
vt 0.5429688 0.06192017
vt 0.5429688 0.06192017
vt 0.5429688 0.06192017
vt 0.5429688 0.06192017
vt 0.5429688 0.06192017
vt 0.5429688 0.06192017
vt 0.5429688 0.06192017
vt 0.5429688 0.06192017
vt 0.5429688 0.06192017
vt 0.5429688 0.06192017
vt 0.5429688 0.06192017
vt 0.5429688 0.06192017
vt 0.5429688 0.06192017
vt 0.5429688 0.06192017
vt 0.5429688 0.06192017
vn -0.9541016 0.0003483295 0.3000488
vn -0.9541016 0.0003483295 0.3000488
vn -0.9541016 0.0003483295 0.3000488
vn -0.9541016 0.0003483295 0.3000488
vn -0.9970703 0.07348633 -0.0005474091
vn -0.9975586 0.07293701 -0.0002737045
vn -0.9975586 0.07293701 -0.0002737045
vn -0.9975586 0.07244873 0
vn 0.9541016 0.0003483295 0.3000488
vn 0.9541016 0.0003483295 0.3000488
vn 0.9541016 0.0003483295 0.3000488
vn 0.9541016 0.0003483295 0.3000488
vn 0.9970703 0.07348633 -0.0005474091
vn 0.9975586 0.07293701 -0.0002737045
vn 0.9975586 0.07293701 -0.0002737045
vn 0.9975586 0.07244873 0
vn 0 0 1
vn 0 0 1
vn 0 0 1
vn 0 0 1
vn 0 0 1
vn 0 0 1
vn 0 -0.24646 0.9692383
vn 0 -0.24646 0.9692383
vn 0 -0.24646 0.9692383
vn 0 -0.24646 0.9692383
vn 0 -0.24646 0.9692383
vn 0 -0.24646 0.9692383
g SM_Veh_Garbage_01_Glass_Hover_0
f 3/3/3 2/2/2 1/1/1
f 4/4/4 3/3/3 1/1/1
f 7/7/7 6/6/6 5/5/5
f 7/7/7 8/8/8 6/6/6
f 11/11/11 10/10/10 9/9/9
f 12/12/12 11/11/11 9/9/9
f 15/15/15 14/14/14 13/13/13
f 16/16/16 14/14/14 15/15/15
f 19/19/19 18/18/18 17/17/17
f 18/18/18 20/20/20 17/17/17
f 20/20/20 21/21/21 17/17/17
f 21/21/21 22/22/22 17/17/17
f 25/25/25 24/24/24 23/23/23
f 24/24/24 26/26/26 23/23/23
f 26/26/26 27/27/27 23/23/23
f 27/27/27 28/28/28 23/23/23
