g SM_Veh_Retro_01_Glass_Hover
v 0.5377097 -0.195053 1.776581
v 0.8188467 0.1577068 0.7082232
v 0.9984021 -0.100582 1.516207
v 0.4481765 0.1581715 0.7035095
v 0 0.1587157 0.6988145
v 0 -0.1945483 1.771877
v -0.5377097 -0.195053 1.776581
v -0.4481765 0.1581715 0.7035095
v -0.8188467 0.1577068 0.7082232
v -0.9984021 -0.100582 1.516207
v 0.7757462 0.195053 0.4926566
v 0.4179569 0.195053 -0.2115386
v 0.7757462 0.195053 -0.2115386
v 0.4179569 0.195053 0.4926566
v 0 0.195053 -0.2115386
v 0 0.195053 0.4926566
v -0.4179569 0.195053 0.4926566
v -0.4179569 0.195053 -0.2115386
v -0.7757462 0.195053 0.4926566
v -0.7757462 0.195053 -0.2115386
v 0.6852466 0.1484362 -0.4919252
v 0.4641099 -0.1920847 -1.771276
v 0.9214026 -0.1948937 -1.776582
v 0.4641613 0.1496471 -0.4866196
v 0 -0.1908737 -1.76597
v 0 0.1508581 -0.481314
v -0.4641613 0.1496471 -0.4866196
v -0.4641099 -0.1920847 -1.771276
v -0.6852466 0.1484362 -0.4919252
v -0.9214026 -0.1948937 -1.776582
vt 0.5561523 0.06292725
vt 0.5561523 0.06292725
vt 0.5561523 0.06292725
vt 0.5561523 0.06292725
vt 0.5561523 0.06292725
vt 0.5561523 0.06292725
vt 0.5561523 0.06292725
vt 0.5561523 0.06292725
vt 0.5561523 0.06292725
vt 0.5561523 0.06292725
vt 0.5561523 0.06292725
vt 0.5561523 0.06292725
vt 0.5561523 0.06292725
vt 0.5561523 0.06292725
vt 0.5561523 0.06292725
vt 0.5561523 0.06292725
vt 0.5561523 0.06292725
vt 0.5561523 0.06292725
vt 0.5561523 0.06292725
vt 0.5561523 0.06292725
vt 0.5561523 0.06292725
vt 0.5561523 0.06292725
vt 0.5561523 0.06292725
vt 0.5561523 0.06292725
vt 0.5561523 0.06292725
vt 0.5561523 0.06292725
vt 0.5561523 0.06292725
vt 0.5561523 0.06292725
vt 0.5561523 0.06292725
vt 0.5561523 0.06292725
vn -0.006950378 0.9501953 0.3117676
vn -0.01193237 0.9501953 0.310791
vn -0.01193237 0.9501953 0.310791
vn -0.006950378 0.9501953 0.3117676
vn 0 0.949707 0.3127441
vn 0 0.949707 0.3127441
vn 0.006950378 0.9501953 0.3117676
vn 0.006950378 0.9501953 0.3117676
vn 0.01193237 0.9501953 0.310791
vn 0.01193237 0.9501953 0.310791
vn 0 1 0
vn 0 1 0
vn 0 1 0
vn 0 1 0
vn 0 1 0
vn 0 1 0
vn 0 1 0
vn 0 1 0
vn 0 1 0
vn 0 1 0
vn 0.001698494 0.9663086 -0.2575684
vn 0.0006403923 0.9663086 -0.2573242
vn 0.001698494 0.9663086 -0.2575684
vn 0.0006403923 0.9663086 -0.2573242
vn 0 0.9663086 -0.2570801
vn 0 0.9663086 -0.2570801
vn -0.0006403923 0.9663086 -0.2573242
vn -0.0006403923 0.9663086 -0.2573242
vn -0.001698494 0.9663086 -0.2575684
vn -0.001698494 0.9663086 -0.2575684
g SM_Veh_Retro_01_Glass_Hover_0
f 3/3/3 2/2/2 1/1/1
f 2/2/2 4/4/4 1/1/1
f 4/4/4 5/5/5 1/1/1
f 5/5/5 6/6/6 1/1/1
f 6/6/6 5/5/5 7/7/7
f 5/5/5 8/8/8 7/7/7
f 8/8/8 9/9/9 7/7/7
f 9/9/9 10/10/10 7/7/7
f 13/13/13 12/12/12 11/11/11
f 12/12/12 14/14/14 11/11/11
f 12/12/12 15/15/15 14/14/14
f 15/15/15 16/16/16 14/14/14
f 16/16/16 15/15/15 17/17/17
f 15/15/15 18/18/18 17/17/17
f 17/17/17 18/18/18 19/19/19
f 18/18/18 20/20/20 19/19/19
f 23/23/23 22/22/22 21/21/21
f 22/22/22 24/24/24 21/21/21
f 22/22/22 25/25/25 24/24/24
f 25/25/25 26/26/26 24/24/24
f 26/26/26 25/25/25 27/27/27
f 25/25/25 28/28/28 27/27/27
f 27/27/27 28/28/28 29/29/29
f 28/28/28 30/30/30 29/29/29
