g SM_Wep_Grenade_HE_01_Clip
v 0.01705516 0.04703781 0.0198288
v -0.01705516 0.04703781 0.0198288
v -0.01705516 0.04703781 -0.02239319
v 0.01705516 0.04703781 -0.02239319
v -0.01705516 0.03565162 0.0198288
v 0.01705516 0.03565162 0.0198288
v 0.01705516 0.03565162 -0.01994881
v -0.01705516 0.03565162 -0.01994881
v 0.0008135513 -0.1248015 -0.06160141
v -0.01705516 -0.1113423 -0.06160141
v -0.01705516 -0.1126924 -0.05407989
v 0.000537258 -0.1261516 -0.05407989
v -0.01705516 0.03818939 0.02731758
v -0.01705516 0.04450012 0.02731758
v 0.01705516 0.04450012 0.02731758
v 0.01705516 0.03818939 0.02731758
v 0.01705516 0.03565162 -0.01994881
v 0.01705516 0.004216383 -0.05407989
v -0.01705516 0.004216383 -0.05407989
v -0.01705516 0.03565162 -0.01994881
v -0.01705516 0.04703781 -0.02239319
v -0.01705516 0.007993773 -0.06160141
v 0.01705516 0.007993773 -0.06160141
v 0.01705516 0.04703781 -0.02239319
v -0.01705516 0.004216383 -0.05407989
v -0.01705516 -0.1126924 -0.05407989
v -0.01705516 -0.1113423 -0.06160141
v -0.01705516 0.007993773 -0.06160141
v -0.01705516 0.03565162 -0.01994881
v -0.01705516 0.04703781 -0.02239319
v -0.01705516 0.04703781 0.0198288
v -0.01705516 0.03565162 0.0198288
v -0.01705516 0.03818939 0.02731758
v -0.01705516 0.04450012 0.02731758
v 0.01705516 0.007993773 -0.06160141
v 0.01705516 -0.1113423 -0.06160141
v 0.01705516 -0.1126924 -0.05407989
v 0.01705516 0.004216383 -0.05407989
v 0.01705516 0.04703781 -0.02239319
v 0.01705516 0.03565162 -0.01994881
v 0.01705516 0.03565162 0.0198288
v 0.01705516 0.04703781 0.0198288
v 0.01705516 0.04450012 0.02731758
v 0.01705516 0.03818939 0.02731758
v 0.01705516 -0.1126924 -0.05407989
v 0.01705516 -0.1113423 -0.06160141
v 0.0008135513 -0.1248015 -0.06160141
v 0.000537258 -0.1261516 -0.05407989
v 0.0008135513 -0.1248015 -0.06160141
v 0.01705516 -0.1113423 -0.06160141
v 0.01705516 0.007993773 -0.06160141
v -0.01705516 0.007993773 -0.06160141
v -0.01705516 -0.1113423 -0.06160141
v 0.000537258 -0.1261516 -0.05407989
v -0.01705516 -0.1126924 -0.05407989
v -0.01705516 0.004216383 -0.05407989
v 0.01705516 0.004216383 -0.05407989
v 0.01705516 -0.1126924 -0.05407989
v -0.01705516 0.03565162 0.0198288
v -0.01705516 0.03818939 0.02731758
v 0.01705516 0.03818939 0.02731758
v 0.01705516 0.03565162 0.0198288
v 0.01705516 0.04703781 0.0198288
v 0.01705516 0.04450012 0.02731758
v -0.01705516 0.04450012 0.02731758
v -0.01705516 0.04703781 0.0198288
vt 0.2462158 0.2285156
vt 0.2462158 0.2285156
vt 0.2462158 0.2285156
vt 0.2462158 0.2285156
vt 0.2462158 0.2285156
vt 0.2462158 0.2285156
vt 0.2462158 0.2285156
vt 0.2462158 0.2285156
vt 0.2462158 0.2285156
vt 0.2462158 0.2285156
vt 0.2462158 0.2285156
vt 0.2462158 0.2285156
vt 0.2462158 0.2285156
vt 0.2462158 0.2285156
vt 0.2462158 0.2285156
vt 0.2462158 0.2285156
vt 0.2462158 0.2285156
vt 0.2462158 0.2285156
vt 0.2462158 0.2285156
vt 0.2462158 0.2285156
vt 0.2462158 0.2285156
vt 0.2462158 0.2285156
vt 0.2462158 0.2285156
vt 0.2462158 0.2285156
vt 0.2462158 0.2285156
vt 0.2462158 0.2285156
vt 0.2462158 0.2285156
vt 0.2462158 0.2285156
vt 0.2462158 0.2285156
vt 0.2462158 0.2285156
vt 0.2462158 0.2285156
vt 0.2462158 0.2285156
vt 0.2462158 0.2285156
vt 0.2462158 0.2285156
vt 0.2462158 0.2285156
vt 0.2462158 0.2285156
vt 0.2462158 0.2285156
vt 0.2462158 0.2285156
vt 0.2462158 0.2285156
vt 0.2462158 0.2285156
vt 0.2462158 0.2285156
vt 0.2462158 0.2285156
vt 0.2462158 0.2285156
vt 0.2462158 0.2285156
vt 0.2462158 0.2285156
vt 0.2462158 0.2285156
vt 0.2462158 0.2285156
vt 0.2462158 0.2285156
vt 0.2462158 0.2285156
vt 0.2462158 0.2285156
vt 0.2462158 0.2285156
vt 0.2462158 0.2285156
vt 0.2462158 0.2285156
vt 0.2462158 0.2285156
vt 0.2462158 0.2285156
vt 0.2462158 0.2285156
vt 0.2462158 0.2285156
vt 0.2462158 0.2285156
vt 0.2462158 0.2285156
vt 0.2462158 0.2285156
vt 0.2462158 0.2285156
vt 0.2462158 0.2285156
vt 0.2462158 0.2285156
vt 0.2462158 0.2285156
vt 0.2462158 0.2285156
vt 0.2462158 0.2285156
vn 0 1 0
vn 0 1 0
vn 0 1 0
vn 0 1 0
vn 0 -1 0
vn 0 -1 0
vn 0 -1 0
vn 0 -1 0
vn -0.5976563 -0.7871094 -0.1522217
vn -0.5976563 -0.7871094 -0.1522217
vn -0.5976563 -0.7871094 -0.1522217
vn -0.5976563 -0.7871094 -0.1522217
vn 0 0 1
vn 0 0 1
vn 0 0 1
vn 0 0 1
vn 0 -0.7353516 0.6772461
vn 0 -0.7353516 0.6772461
vn 0 -0.7353516 0.6772461
vn 0 -0.7353516 0.6772461
vn 0 0.7084961 -0.7055664
vn 0 0.7084961 -0.7055664
vn 0 0.7084961 -0.7055664
vn 0 0.7084961 -0.7055664
vn -1 0 0
vn -1 0 0
vn -1 0 0
vn -1 0 0
vn -1 0 0
vn -1 0 0
vn -1 0 0
vn -1 0 0
vn -1 0 0
vn -1 0 0
vn 1 0 0
vn 1 0 0
vn 1 0 0
vn 1 0 0
vn 1 0 0
vn 1 0 0
vn 1 0 0
vn 1 0 0
vn 1 0 0
vn 1 0 0
vn 0.6298828 -0.7666016 -0.1259766
vn 0.6298828 -0.7666016 -0.1259766
vn 0.6298828 -0.7666016 -0.1259766
vn 0.6298828 -0.7666016 -0.1259766
vn 0 0 -1
vn 0 0 -1
vn 0 0 -1
vn 0 0 -1
vn 0 0 -1
vn 0 0 1
vn 0 0 1
vn 0 0 1
vn 0 0 1
vn 0 0 1
vn 0 -0.9472656 0.3210449
vn 0 -0.9472656 0.3210449
vn 0 -0.9472656 0.3210449
vn 0 -0.9472656 0.3210449
vn 0 0.9472656 0.3210449
vn 0 0.9472656 0.3210449
vn 0 0.9472656 0.3210449
vn 0 0.9472656 0.3210449
g SM_Wep_Grenade_HE_01_Clip_0
f 3/3/3 2/2/2 1/1/1
f 4/4/4 3/3/3 1/1/1
f 7/7/7 6/6/6 5/5/5
f 8/8/8 7/7/7 5/5/5
f 11/11/11 10/10/10 9/9/9
f 12/12/12 11/11/11 9/9/9
f 15/15/15 14/14/14 13/13/13
f 16/16/16 15/15/15 13/13/13
f 19/19/19 18/18/18 17/17/17
f 20/20/20 19/19/19 17/17/17
f 23/23/23 22/22/22 21/21/21
f 24/24/24 23/23/23 21/21/21
f 27/27/27 26/26/26 25/25/25
f 28/28/28 27/27/27 25/25/25
f 28/28/28 25/25/25 29/29/29
f 30/30/30 28/28/28 29/29/29
f 30/30/30 29/29/29 31/31/31
f 29/29/29 32/32/32 31/31/31
f 32/32/32 33/33/33 31/31/31
f 33/33/33 34/34/34 31/31/31
f 37/37/37 36/36/36 35/35/35
f 38/38/38 37/37/37 35/35/35
f 38/38/38 35/35/35 39/39/39
f 40/40/40 38/38/38 39/39/39
f 40/40/40 39/39/39 41/41/41
f 39/39/39 42/42/42 41/41/41
f 42/42/42 43/43/43 41/41/41
f 43/43/43 44/44/44 41/41/41
f 47/47/47 46/46/46 45/45/45
f 48/48/48 47/47/47 45/45/45
f 51/51/51 50/50/50 49/49/49
f 51/51/51 49/49/49 52/52/52
f 49/49/49 53/53/53 52/52/52
f 56/56/56 55/55/55 54/54/54
f 56/56/56 54/54/54 57/57/57
f 54/54/54 58/58/58 57/57/57
f 61/61/61 60/60/60 59/59/59
f 62/62/62 61/61/61 59/59/59
f 65/65/65 64/64/64 63/63/63
f 66/66/66 65/65/65 63/63/63
