g SM_Wep_SMG_Stock_01
v -0.01234797 -0.002898884 0.2551603
v -0.01234797 0.003749408 0.2551603
v 0.01234797 0.003749408 0.2551603
v 0.01234797 -0.002898884 0.2551603
v -0.01234797 0.003749408 0.2551603
v -0.01234797 0.003749408 -0.006221036
v 0.01234797 0.003749408 -0.006221036
v 0.01234797 0.003749408 0.2551603
v -0.01568712 0.006058225 -0.01263891
v -0.01568712 -0.09563376 -0.01263891
v 0.01568712 -0.09563376 -0.01263891
v 0.01568712 0.006058225 -0.01263891
v -0.009942933 0.009258908 -0.01263891
v 0.009942933 0.009258908 -0.01263891
v -0.01234797 -0.002898884 -0.006221036
v -0.01234797 -0.002898884 0.2551603
v 0.01234797 -0.002898884 0.2551603
v 0.01234797 -0.002898884 -0.006221036
v 0.01234797 -0.002898884 0.2551603
v 0.01234797 0.003749408 0.2551603
v 0.01234797 0.003749408 -0.006221036
v 0.01234797 -0.002898884 -0.006221036
v -0.01234797 -0.002898884 -0.006221036
v -0.01234797 0.003749408 -0.006221036
v -0.01234797 0.003749408 0.2551603
v -0.01234797 -0.002898884 0.2551603
v -0.009942933 0.009258908 -0.006221036
v -0.009942933 0.009258908 -0.01263891
v 0.009942933 0.009258908 -0.01263891
v 0.009942933 0.009258908 -0.006221036
v 0.01568712 0.006058225 -0.006221036
v 0.01568712 0.006058225 -0.01263891
v 0.01568712 -0.09563376 -0.01263891
v 0.01568712 -0.09955086 -0.006221036
v 0.01568712 -0.09907729 -0.01990285
v 0.01568712 -0.1051525 -0.01942029
v 0.01568712 -0.09393188 -0.02626281
v 0.01568712 -0.09773067 -0.03097684
v 0.01568712 0.07055348 -0.03097684
v 0.01568712 0.06539422 -0.02626281
v 0.01568712 0.07437144 -0.01751069
v 0.01568712 0.08048739 -0.0214682
v 0.01568712 0.08048739 0.04012178
v 0.01568712 0.07437144 0.04012178
v 0.02572009 0.08235297 0.04590425
v 0.02572009 0.07250603 0.04590425
v -0.02572009 0.07250603 0.04590425
v -0.02572009 0.08235297 0.04590425
v -0.01568712 -0.09563376 -0.01263891
v -0.01568712 0.006058225 -0.01263891
v -0.01568712 0.006058225 -0.006221036
v -0.01568712 -0.09955086 -0.006221036
v -0.01568712 -0.09907729 -0.01990285
v -0.01568712 -0.1051525 -0.01942029
v -0.01568712 -0.09393188 -0.02626281
v -0.01568712 -0.09773067 -0.03097684
v -0.01568712 0.06539422 -0.02626281
v -0.01568712 0.07055348 -0.03097684
v -0.01568712 0.07437144 -0.01751069
v -0.01568712 0.08048739 -0.0214682
v -0.01568712 0.07437144 0.04012178
v -0.01568712 0.08048739 0.04012178
v 0.01568712 -0.09773067 -0.03097684
v -0.01568712 -0.09773067 -0.03097684
v -0.01568712 -0.1051525 -0.01942029
v 0.01568712 -0.1051525 -0.01942029
v 0.01568712 0.08048739 -0.0214682
v -0.01568712 0.08048739 -0.0214682
v -0.01568712 0.07055348 -0.03097684
v 0.01568712 0.07055348 -0.03097684
v 0.01568712 0.08048739 -0.0214682
v 0.01568712 0.08048739 0.04012178
v -0.01568712 0.08048739 0.04012178
v -0.01568712 0.08048739 -0.0214682
v -0.01568712 0.07437144 -0.01751069
v -0.01568712 0.07437144 0.04012178
v 0.01568712 0.07437144 0.04012178
v 0.01568712 0.07437144 -0.01751069
v 0.02572009 0.08235297 0.04012178
v 0.02572009 0.08235297 0.04590425
v -0.02572009 0.08235297 0.04590425
v -0.02572009 0.08235297 0.04012178
v -0.02572009 0.08235297 0.04012178
v -0.02572009 0.08235297 0.04590425
v -0.02572009 0.07250603 0.04590425
v -0.02572009 0.07250603 0.04012178
v -0.02572009 0.07250603 0.04012178
v -0.02572009 0.07250603 0.04590425
v 0.02572009 0.07250603 0.04590425
v 0.02572009 0.07250603 0.04012178
v 0.02572009 0.07250603 0.04012178
v 0.02572009 0.07250603 0.04590425
v 0.02572009 0.08235297 0.04590425
v 0.02572009 0.08235297 0.04012178
v 0.01568712 0.07437144 -0.01751069
v 0.01568712 0.06539422 -0.02626281
v -0.01568712 0.06539422 -0.02626281
v -0.01568712 0.07437144 -0.01751069
v 0.01568712 -0.09773067 -0.03097684
v 0.01568712 0.07055348 -0.03097684
v -0.01568712 0.07055348 -0.03097684
v -0.01568712 -0.09773067 -0.03097684
v -0.01568712 -0.09393188 -0.02626281
v -0.01568712 0.06539422 -0.02626281
v 0.01568712 0.06539422 -0.02626281
v 0.01568712 -0.09393188 -0.02626281
v 0.01568712 -0.09393188 -0.02626281
v 0.01568712 -0.09907729 -0.01990285
v -0.01568712 -0.09907729 -0.01990285
v -0.01568712 -0.09393188 -0.02626281
v 0.01568712 -0.09907729 -0.01990285
v 0.01568712 -0.09563376 -0.01263891
v -0.01568712 -0.09563376 -0.01263891
v -0.01568712 -0.09907729 -0.01990285
v 0.01568712 -0.1051525 -0.01942029
v -0.01568712 -0.1051525 -0.01942029
v -0.01568712 -0.09955086 -0.006221036
v 0.01568712 -0.09955086 -0.006221036
v -0.01568712 0.006058225 -0.006221036
v -0.009942933 0.009258908 -0.006221036
v 0.009942933 0.009258908 -0.006221036
v 0.01568712 0.006058225 -0.006221036
v -0.01234797 0.003749408 -0.006221036
v -0.01568712 -0.09955086 -0.006221036
v 0.01234797 0.003749408 -0.006221036
v -0.01234797 -0.002898884 -0.006221036
v 0.01234797 -0.002898884 -0.006221036
v 0.01568712 -0.09955086 -0.006221036
v 0.01568712 0.006058225 -0.006221036
v 0.009942933 0.009258908 -0.006221036
v 0.009942933 0.009258908 -0.01263891
v 0.01568712 0.006058225 -0.01263891
v -0.01568712 0.006058225 -0.01263891
v -0.009942933 0.009258908 -0.01263891
v -0.009942933 0.009258908 -0.006221036
v -0.01568712 0.006058225 -0.006221036
v 0.01568712 0.08048739 0.04012178
v 0.02572009 0.08235297 0.04012178
v -0.02572009 0.08235297 0.04012178
v -0.01568712 0.08048739 0.04012178
v 0.01568712 0.07437144 0.04012178
v -0.02572009 0.07250603 0.04012178
v 0.02572009 0.07250603 0.04012178
v -0.01568712 0.07437144 0.04012178
vt 0.2424316 0.2307129
vt 0.2424316 0.2307129
vt 0.2424316 0.2307129
vt 0.2424316 0.2307129
vt 0.2424316 0.2307129
vt 0.2424316 0.2307129
vt 0.2424316 0.2307129
vt 0.2424316 0.2307129
vt 0.2424316 0.2307129
vt 0.2424316 0.2307129
vt 0.2424316 0.2307129
vt 0.2424316 0.2307129
vt 0.2424316 0.2307129
vt 0.2424316 0.2307129
vt 0.2424316 0.2307129
vt 0.2424316 0.2307129
vt 0.2424316 0.2307129
vt 0.2424316 0.2307129
vt 0.2424316 0.2307129
vt 0.2424316 0.2307129
vt 0.2424316 0.2307129
vt 0.2424316 0.2307129
vt 0.2424316 0.2307129
vt 0.2424316 0.2307129
vt 0.2424316 0.2307129
vt 0.2424316 0.2307129
vt 0.2424316 0.2307129
vt 0.2424316 0.2307129
vt 0.2424316 0.2307129
vt 0.2424316 0.2307129
vt 0.2424316 0.2307129
vt 0.2424316 0.2307129
vt 0.2424316 0.2307129
vt 0.2424316 0.2307129
vt 0.2424316 0.2307129
vt 0.2424316 0.2307129
vt 0.2424316 0.2307129
vt 0.2424316 0.2307129
vt 0.2424316 0.2307129
vt 0.2424316 0.2307129
vt 0.2424316 0.2307129
vt 0.2424316 0.2307129
vt 0.2424316 0.2307129
vt 0.2424316 0.2307129
vt 0.2424316 0.2307129
vt 0.2424316 0.2307129
vt 0.2424316 0.2307129
vt 0.2424316 0.2307129
vt 0.2424316 0.2307129
vt 0.2424316 0.2307129
vt 0.2424316 0.2307129
vt 0.2424316 0.2307129
vt 0.2424316 0.2307129
vt 0.2424316 0.2307129
vt 0.2424316 0.2307129
vt 0.2424316 0.2307129
vt 0.2424316 0.2307129
vt 0.2424316 0.2307129
vt 0.2424316 0.2307129
vt 0.2424316 0.2307129
vt 0.2424316 0.2307129
vt 0.2424316 0.2307129
vt 0.2424316 0.2307129
vt 0.2424316 0.2307129
vt 0.2424316 0.2307129
vt 0.2424316 0.2307129
vt 0.2424316 0.2307129
vt 0.2424316 0.2307129
vt 0.2424316 0.2307129
vt 0.2424316 0.2307129
vt 0.2424316 0.2307129
vt 0.2424316 0.2307129
vt 0.2424316 0.2307129
vt 0.2424316 0.2307129
vt 0.2424316 0.2307129
vt 0.2424316 0.2307129
vt 0.2424316 0.2307129
vt 0.2424316 0.2307129
vt 0.2424316 0.2307129
vt 0.2424316 0.2307129
vt 0.2424316 0.2307129
vt 0.2424316 0.2307129
vt 0.2424316 0.2307129
vt 0.2424316 0.2307129
vt 0.2424316 0.2307129
vt 0.2424316 0.2307129
vt 0.2424316 0.2307129
vt 0.2424316 0.2307129
vt 0.2424316 0.2307129
vt 0.2424316 0.2307129
vt 0.2424316 0.2307129
vt 0.2424316 0.2307129
vt 0.2424316 0.2307129
vt 0.2424316 0.2307129
vt 0.2424316 0.2307129
vt 0.2424316 0.2307129
vt 0.2424316 0.2307129
vt 0.2424316 0.2307129
vt 0.2424316 0.2307129
vt 0.2424316 0.2307129
vt 0.2424316 0.2307129
vt 0.2424316 0.2307129
vt 0.2424316 0.2307129
vt 0.2424316 0.2307129
vt 0.2424316 0.2307129
vt 0.2424316 0.2307129
vt 0.2424316 0.2307129
vt 0.2424316 0.2307129
vt 0.2424316 0.2307129
vt 0.2424316 0.2307129
vt 0.2424316 0.2307129
vt 0.2424316 0.2307129
vt 0.2424316 0.2307129
vt 0.2424316 0.2307129
vt 0.2424316 0.2307129
vt 0.2424316 0.2307129
vt 0.2424316 0.2307129
vt 0.2424316 0.2307129
vt 0.2424316 0.2307129
vt 0.2424316 0.2307129
vt 0.2424316 0.2307129
vt 0.2424316 0.2307129
vt 0.2424316 0.2307129
vt 0.2424316 0.2307129
vt 0.2424316 0.2307129
vt 0.2424316 0.2307129
vt 0.2424316 0.2307129
vt 0.2424316 0.2307129
vt 0.2424316 0.2307129
vt 0.2424316 0.2307129
vt 0.2424316 0.2307129
vt 0.2424316 0.2307129
vt 0.2424316 0.2307129
vt 0.2424316 0.2307129
vt 0.2424316 0.2307129
vt 0.2424316 0.2307129
vt 0.2424316 0.2307129
vt 0.2424316 0.2307129
vt 0.2424316 0.2307129
vt 0.2424316 0.2307129
vt 0.2424316 0.2307129
vt 0.2424316 0.2307129
vt 0.2424316 0.2307129
vt 0.2424316 0.2307129
vn 0 0 1
vn 0 0 1
vn 0 0 1
vn 0 0 1
vn 0 1 0
vn 0 1 0
vn 0 1 0
vn 0 1 0
vn 0 0 -1
vn 0 0 -1
vn 0 0 -1
vn 0 0 -1
vn 0 0 -1
vn 0 0 -1
vn 0 -1 0
vn 0 -1 0
vn 0 -1 0
vn 0 -1 0
vn 1 0 0
vn 1 0 0
vn 1 0 0
vn 1 0 0
vn -1 0 0
vn -1 0 0
vn -1 0 0
vn -1 0 0
vn 0 1 0
vn 0 1 0
vn 0 1 0
vn 0 1 0
vn 1 0 0
vn 1 0 0
vn 1 0 0
vn 1 0 0
vn 1 0 0
vn 1 0 0
vn 1 0 0
vn 1 0 0
vn 1 0 0
vn 1 0 0
vn 1 0 0
vn 1 0 0
vn 1 0 0
vn 1 0 0
vn 0 0 1
vn 0 0 1
vn 0 0 1
vn 0 0 1
vn -1 0 0
vn -1 0 0
vn -1 0 0
vn -1 0 0
vn -1 0 0
vn -1 0 0
vn -1 0 0
vn -1 0 0
vn -1 0 0
vn -1 0 0
vn -1 0 0
vn -1 0 0
vn -1 0 0
vn -1 0 0
vn 0 -0.8413086 -0.5405273
vn 0 -0.8413086 -0.5405273
vn 0 -0.8413086 -0.5405273
vn 0 -0.8413086 -0.5405273
vn 0 0.6914063 -0.722168
vn 0 0.6914063 -0.722168
vn 0 0.6914063 -0.722168
vn 0 0.6914063 -0.722168
vn 0 1 0
vn 0 1 0
vn 0 1 0
vn 0 1 0
vn 0 -1 0
vn 0 -1 0
vn 0 -1 0
vn 0 -1 0
vn 0 1 0
vn 0 1 0
vn 0 1 0
vn 0 1 0
vn -1 0 0
vn -1 0 0
vn -1 0 0
vn -1 0 0
vn 0 -1 0
vn 0 -1 0
vn 0 -1 0
vn 0 -1 0
vn 1 0 0
vn 1 0 0
vn 1 0 0
vn 1 0 0
vn 0 -0.6982422 0.7158203
vn 0 -0.6982422 0.7158203
vn 0 -0.6982422 0.7158203
vn 0 -0.6982422 0.7158203
vn 0 0 -1
vn 0 0 -1
vn 0 0 -1
vn 0 0 -1
vn 0 0 1
vn 0 0 1
vn 0 0 1
vn 0 0 1
vn 0 0.7773438 0.6289063
vn 0 0.7773438 0.6289063
vn 0 0.7773438 0.6289063
vn 0 0.7773438 0.6289063
vn 0 0.9038086 -0.4284668
vn 0 0.9038086 -0.4284668
vn 0 0.9038086 -0.4284668
vn 0 0.9038086 -0.4284668
vn 0 -0.9204102 0.390625
vn 0 -0.9204102 0.390625
vn 0 -0.9204102 0.390625
vn 0 -0.9204102 0.390625
vn 0 0 1
vn 0 0 1
vn 0 0 1
vn 0 0 1
vn 0 0 1
vn 0 0 1
vn 0 0 1
vn 0 0 1
vn 0 0 1
vn 0 0 1
vn 0.4868164 0.8735352 0
vn 0.4868164 0.8735352 0
vn 0.4868164 0.8735352 0
vn 0.4868164 0.8735352 0
vn -0.4868164 0.8735352 0
vn -0.4868164 0.8735352 0
vn -0.4868164 0.8735352 0
vn -0.4868164 0.8735352 0
vn 0 0 -1
vn 0 0 -1
vn 0 0 -1
vn 0 0 -1
vn 0 0 -1
vn 0 0 -1
vn 0 0 -1
vn 0 0 -1
g SM_Wep_SMG_Stock_01_0
f 3/3/3 2/2/2 1/1/1
f 4/4/4 3/3/3 1/1/1
f 7/7/7 6/6/6 5/5/5
f 8/8/8 7/7/7 5/5/5
f 11/11/11 10/10/10 9/9/9
f 12/12/12 11/11/11 9/9/9
f 9/9/9 13/13/13 12/12/12
f 13/13/13 14/14/14 12/12/12
f 17/17/17 16/16/16 15/15/15
f 18/18/18 17/17/17 15/15/15
f 21/21/21 20/20/20 19/19/19
f 22/22/22 21/21/21 19/19/19
f 25/25/25 24/24/24 23/23/23
f 26/26/26 25/25/25 23/23/23
f 29/29/29 28/28/28 27/27/27
f 30/30/30 29/29/29 27/27/27
f 33/33/33 32/32/32 31/31/31
f 34/34/34 33/33/33 31/31/31
f 33/33/33 34/34/34 35/35/35
f 34/34/34 36/36/36 35/35/35
f 35/35/35 36/36/36 37/37/37
f 36/36/36 38/38/38 37/37/37
f 38/38/38 39/39/39 37/37/37
f 39/39/39 40/40/40 37/37/37
f 40/40/40 39/39/39 41/41/41
f 39/39/39 42/42/42 41/41/41
f 42/42/42 43/43/43 41/41/41
f 43/43/43 44/44/44 41/41/41
f 47/47/47 46/46/46 45/45/45
f 48/48/48 47/47/47 45/45/45
f 51/51/51 50/50/50 49/49/49
f 52/52/52 51/51/51 49/49/49
f 52/52/52 49/49/49 53/53/53
f 54/54/54 52/52/52 53/53/53
f 54/54/54 53/53/53 55/55/55
f 56/56/56 54/54/54 55/55/55
f 55/55/55 57/57/57 56/56/56
f 57/57/57 58/58/58 56/56/56
f 58/58/58 57/57/57 59/59/59
f 60/60/60 58/58/58 59/59/59
f 59/59/59 61/61/61 60/60/60
f 61/61/61 62/62/62 60/60/60
f 65/65/65 64/64/64 63/63/63
f 66/66/66 65/65/65 63/63/63
f 69/69/69 68/68/68 67/67/67
f 70/70/70 69/69/69 67/67/67
f 73/73/73 72/72/72 71/71/71
f 74/74/74 73/73/73 71/71/71
f 77/77/77 76/76/76 75/75/75
f 78/78/78 77/77/77 75/75/75
f 81/81/81 80/80/80 79/79/79
f 82/82/82 81/81/81 79/79/79
f 85/85/85 84/84/84 83/83/83
f 86/86/86 85/85/85 83/83/83
f 89/89/89 88/88/88 87/87/87
f 90/90/90 89/89/89 87/87/87
f 93/93/93 92/92/92 91/91/91
f 94/94/94 93/93/93 91/91/91
f 97/97/97 96/96/96 95/95/95
f 98/98/98 97/97/97 95/95/95
f 101/101/101 100/100/100 99/99/99
f 102/102/102 101/101/101 99/99/99
f 105/105/105 104/104/104 103/103/103
f 106/106/106 105/105/105 103/103/103
f 109/109/109 108/108/108 107/107/107
f 110/110/110 109/109/109 107/107/107
f 113/113/113 112/112/112 111/111/111
f 114/114/114 113/113/113 111/111/111
f 117/117/117 116/116/116 115/115/115
f 118/118/118 117/117/117 115/115/115
f 121/121/121 120/120/120 119/119/119
f 122/122/122 121/121/121 119/119/119
f 122/122/122 119/119/119 123/123/123
f 123/123/123 119/119/119 124/124/124
f 125/125/125 122/122/122 123/123/123
f 126/126/126 123/123/123 124/124/124
f 122/122/122 125/125/125 127/127/127
f 127/127/127 126/126/126 124/124/124
f 128/128/128 122/122/122 127/127/127
f 128/128/128 127/127/127 124/124/124
f 131/131/131 130/130/130 129/129/129
f 132/132/132 131/131/131 129/129/129
f 135/135/135 134/134/134 133/133/133
f 136/136/136 135/135/135 133/133/133
f 139/139/139 138/138/138 137/137/137
f 140/140/140 139/139/139 137/137/137
f 137/137/137 138/138/138 141/141/141
f 142/142/142 139/139/139 140/140/140
f 138/138/138 143/143/143 141/141/141
f 144/144/144 142/142/142 140/140/140
f 141/141/141 143/143/143 144/144/144
f 143/143/143 142/142/142 144/144/144
