g SM_Wep_Syringe_Gun_Trigger_01
v -0.002932166 -0.02238542 -0.01899803
v -0.002932166 -0.01218424 0.01440239
v -0.002932166 -0.02238542 0.01899799
v -0.002932166 -0.00198305 0.01244484
v -0.002932166 0.02238546 -0.01899803
v -0.002932166 0.008218138 0.01440239
v -0.002932166 0.02238546 0.01899799
v 0.002932166 -0.02238542 -0.01899803
v 0.002932166 -0.02238542 0.01899799
v 0.002932166 -0.01218424 0.01440239
v 0.002932166 0.02238546 -0.01899803
v 0.002932166 -0.00198305 0.01244484
v 0.002932166 0.008218138 0.01440239
v 0.002932166 0.02238546 0.01899799
v -0.002932166 -0.02238542 0.01899799
v -0.002932166 -0.01218424 0.01440239
v 0.002932166 -0.01218424 0.01440239
v 0.002932166 -0.02238542 0.01899799
v -0.002932166 0.008218138 0.01440239
v -0.002932166 0.02238546 0.01899799
v 0.002932166 0.02238546 0.01899799
v 0.002932166 0.008218138 0.01440239
v -0.002932166 -0.00198305 0.01244484
v -0.002932166 0.008218138 0.01440239
v 0.002932166 0.008218138 0.01440239
v 0.002932166 -0.00198305 0.01244484
v -0.002932166 -0.01218424 0.01440239
v -0.002932166 -0.00198305 0.01244484
v 0.002932166 -0.00198305 0.01244484
v 0.002932166 -0.01218424 0.01440239
vt 0.2436523 0.2286377
vt 0.2436523 0.2286377
vt 0.2436523 0.2286377
vt 0.2436523 0.2286377
vt 0.2436523 0.2286377
vt 0.2436523 0.2286377
vt 0.2436523 0.2286377
vt 0.2436523 0.2286377
vt 0.2436523 0.2286377
vt 0.2436523 0.2286377
vt 0.2436523 0.2286377
vt 0.2436523 0.2286377
vt 0.2436523 0.2286377
vt 0.2436523 0.2286377
vt 0.2436523 0.2286377
vt 0.2436523 0.2286377
vt 0.2436523 0.2286377
vt 0.2436523 0.2286377
vt 0.2436523 0.2286377
vt 0.2436523 0.2286377
vt 0.2436523 0.2286377
vt 0.2436523 0.2286377
vt 0.2436523 0.2286377
vt 0.2436523 0.2286377
vt 0.2436523 0.2286377
vt 0.2436523 0.2286377
vt 0.2436523 0.2286377
vt 0.2436523 0.2286377
vt 0.2436523 0.2286377
vt 0.2436523 0.2286377
vn -1 0 0
vn -1 0 0
vn -1 0 0
vn -1 0 0
vn -1 0 0
vn -1 0 0
vn -1 0 0
vn 1 0 0
vn 1 0 0
vn 1 0 0
vn 1 0 0
vn 1 0 0
vn 1 0 0
vn 1 0 0
vn 0 0.4106445 0.9116211
vn 0 0.4106445 0.9116211
vn 0 0.4106445 0.9116211
vn 0 0.4106445 0.9116211
vn 0 -0.3085938 0.9511719
vn 0 -0.3085938 0.9511719
vn 0 -0.3085938 0.9511719
vn 0 -0.3085938 0.9511719
vn 0 -0.1884766 0.9819336
vn 0 -0.1884766 0.9819336
vn 0 -0.1884766 0.9819336
vn 0 -0.1884766 0.9819336
vn 0 0.1884766 0.9819336
vn 0 0.1884766 0.9819336
vn 0 0.1884766 0.9819336
vn 0 0.1884766 0.9819336
g SM_Wep_Syringe_Gun_Trigger_01_0
f 3/3/3 2/2/2 1/1/1
f 2/2/2 4/4/4 1/1/1
f 4/4/4 5/5/5 1/1/1
f 4/4/4 6/6/6 5/5/5
f 6/6/6 7/7/7 5/5/5
f 10/10/10 9/9/9 8/8/8
f 10/10/10 8/8/8 11/11/11
f 12/12/12 10/10/10 11/11/11
f 13/13/13 12/12/12 11/11/11
f 14/14/14 13/13/13 11/11/11
f 17/17/17 16/16/16 15/15/15
f 18/18/18 17/17/17 15/15/15
f 21/21/21 20/20/20 19/19/19
f 22/22/22 21/21/21 19/19/19
f 25/25/25 24/24/24 23/23/23
f 26/26/26 25/25/25 23/23/23
f 29/29/29 28/28/28 27/27/27
f 30/30/30 29/29/29 27/27/27
