g SM_Wep_MachinePistol_Gen2_Trigger_01
v -0.005487521 0.02796587 -0.01902181
v 0.005487521 0.02796587 -0.01902181
v 0.005487521 0.02796587 0.01902213
v -0.005487521 0.02796587 0.01902213
v 0.004334744 -0.02796623 0.006927148
v -0.004334743 -0.02796623 0.006927148
v -0.004334743 -0.02622272 0.00922544
v 0.004334744 -0.02622272 0.00922544
v -0.005487521 -0.008285152 -0.0007499118
v -0.005487521 0.003231991 -0.0001307483
v 0.005487521 0.003231991 -0.0001307483
v 0.005487521 -0.008285152 -0.0007499118
v 0.005487521 -0.008285152 -0.006585416
v 0.005487521 0.003231991 -0.005966253
v -0.005487521 0.003231991 -0.005966253
v -0.005487521 -0.008285152 -0.006585416
v -0.005487521 0.003231991 -0.0001307483
v 0.005487521 0.009192165 0.003852663
v 0.005487521 0.003231991 -0.0001307483
v -0.005487521 0.009192165 0.003852663
v 0.005487521 0.02796587 0.01902213
v -0.005487521 0.02796587 0.01902213
v 0.005487521 0.003231991 -0.005966253
v 0.005487521 0.009192165 -0.007567443
v -0.005487521 0.009192165 -0.007567443
v -0.005487521 0.003231991 -0.005966253
v -0.005487521 0.009192165 -0.007567443
v -0.005487521 0.02796587 -0.01902181
v -0.005487521 0.02796587 0.01902213
v -0.005487521 0.009192165 0.003852663
v -0.005487521 0.003231991 -0.005966253
v -0.005487521 0.003231991 -0.0001307483
v -0.005487521 -0.008285152 -0.006585416
v -0.005487521 -0.008285152 -0.0007499118
v -0.004780486 -0.0187892 -0.004011745
v -0.004780486 -0.01750625 0.0008447794
v -0.004334743 -0.02613472 0.001470228
v -0.004334743 -0.02325718 0.004764023
v -0.004334743 -0.02796623 0.006927148
v -0.004334743 -0.02622272 0.00922544
v 0.005487521 0.009192165 0.003852663
v 0.005487521 0.02796587 0.01902213
v 0.005487521 0.02796587 -0.01902181
v 0.005487521 0.009192165 -0.007567443
v 0.005487521 0.003231991 -0.0001307483
v 0.005487521 0.003231991 -0.005966253
v 0.005487521 -0.008285152 -0.0007499118
v 0.005487521 -0.008285152 -0.006585416
v 0.004780486 -0.01750625 0.0008447794
v 0.004780486 -0.0187892 -0.004011745
v 0.004334744 -0.02325718 0.004764023
v 0.004334744 -0.02613472 0.001470228
v 0.004334744 -0.02622272 0.00922544
v 0.004334744 -0.02796623 0.006927148
v 0.005487521 0.009192165 -0.007567443
v 0.005487521 0.02796587 -0.01902181
v -0.005487521 0.02796587 -0.01902181
v -0.005487521 0.009192165 -0.007567443
v 0.005487521 -0.008285152 -0.0007499118
v 0.004780486 -0.01750625 0.0008447794
v -0.004780486 -0.01750625 0.0008447794
v -0.005487521 -0.008285152 -0.0007499118
v -0.005487521 -0.008285152 -0.006585416
v -0.004780486 -0.0187892 -0.004011745
v 0.004780486 -0.0187892 -0.004011745
v 0.005487521 -0.008285152 -0.006585416
v 0.004780486 -0.01750625 0.0008447794
v 0.004334744 -0.02325718 0.004764023
v -0.004334743 -0.02325718 0.004764023
v -0.004780486 -0.01750625 0.0008447794
v -0.004780486 -0.0187892 -0.004011745
v -0.004334743 -0.02613472 0.001470228
v 0.004334744 -0.02613472 0.001470228
v 0.004780486 -0.0187892 -0.004011745
v 0.004334744 -0.02325718 0.004764023
v 0.004334744 -0.02622272 0.00922544
v -0.004334743 -0.02622272 0.00922544
v -0.004334743 -0.02325718 0.004764023
v -0.004334743 -0.02613472 0.001470228
v -0.004334743 -0.02796623 0.006927148
v 0.004334744 -0.02796623 0.006927148
v 0.004334744 -0.02613472 0.001470228
vt 0.2446289 0.230835
vt 0.2446289 0.230835
vt 0.2446289 0.230835
vt 0.2446289 0.230835
vt 0.2446289 0.230835
vt 0.2446289 0.230835
vt 0.2446289 0.230835
vt 0.2446289 0.230835
vt 0.2446289 0.230835
vt 0.2446289 0.230835
vt 0.2446289 0.230835
vt 0.2446289 0.230835
vt 0.2446289 0.230835
vt 0.2446289 0.230835
vt 0.2446289 0.230835
vt 0.2446289 0.230835
vt 0.2446289 0.230835
vt 0.2446289 0.230835
vt 0.2446289 0.230835
vt 0.2446289 0.230835
vt 0.2446289 0.230835
vt 0.2446289 0.230835
vt 0.2446289 0.230835
vt 0.2446289 0.230835
vt 0.2446289 0.230835
vt 0.2446289 0.230835
vt 0.2446289 0.230835
vt 0.2446289 0.230835
vt 0.2446289 0.230835
vt 0.2446289 0.230835
vt 0.2446289 0.230835
vt 0.2446289 0.230835
vt 0.2446289 0.230835
vt 0.2446289 0.230835
vt 0.2446289 0.230835
vt 0.2446289 0.230835
vt 0.2446289 0.230835
vt 0.2446289 0.230835
vt 0.2446289 0.230835
vt 0.2446289 0.230835
vt 0.2446289 0.230835
vt 0.2446289 0.230835
vt 0.2446289 0.230835
vt 0.2446289 0.230835
vt 0.2446289 0.230835
vt 0.2446289 0.230835
vt 0.2446289 0.230835
vt 0.2446289 0.230835
vt 0.2446289 0.230835
vt 0.2446289 0.230835
vt 0.2446289 0.230835
vt 0.2446289 0.230835
vt 0.2446289 0.230835
vt 0.2446289 0.230835
vt 0.2446289 0.230835
vt 0.2446289 0.230835
vt 0.2446289 0.230835
vt 0.2446289 0.230835
vt 0.2446289 0.230835
vt 0.2446289 0.230835
vt 0.2446289 0.230835
vt 0.2446289 0.230835
vt 0.2446289 0.230835
vt 0.2446289 0.230835
vt 0.2446289 0.230835
vt 0.2446289 0.230835
vt 0.2446289 0.230835
vt 0.2446289 0.230835
vt 0.2446289 0.230835
vt 0.2446289 0.230835
vt 0.2446289 0.230835
vt 0.2446289 0.230835
vt 0.2446289 0.230835
vt 0.2446289 0.230835
vt 0.2446289 0.230835
vt 0.2446289 0.230835
vt 0.2446289 0.230835
vt 0.2446289 0.230835
vt 0.2446289 0.230835
vt 0.2446289 0.230835
vt 0.2446289 0.230835
vt 0.2446289 0.230835
vn 0 1 0
vn 0 1 0
vn 0 1 0
vn 0 1 0
vn 0 -0.796875 0.6044922
vn 0 -0.796875 0.6044922
vn 0 -0.796875 0.6044922
vn 0 -0.796875 0.6044922
vn 0 -0.05368042 0.9985352
vn 0 -0.05368042 0.9985352
vn 0 -0.05368042 0.9985352
vn 0 -0.05368042 0.9985352
vn 0 0.05368042 -0.9985352
vn 0 0.05368042 -0.9985352
vn 0 0.05368042 -0.9985352
vn 0 0.05368042 -0.9985352
vn 0 -0.5556641 0.831543
vn 0 -0.5927734 0.8056641
vn 0 -0.5556641 0.831543
vn 0 -0.5927734 0.8056641
vn 0 -0.628418 0.777832
vn 0 -0.628418 0.777832
vn 0 -0.2595215 -0.9658203
vn 0 -0.2595215 -0.9658203
vn 0 -0.2595215 -0.9658203
vn 0 -0.2595215 -0.9658203
vn -1 0 0
vn -1 0 0
vn -1 0 0
vn -1 0 0
vn -1 0 0
vn -1 0 0
vn -0.9995117 -0.03488159 0.004188538
vn -0.9995117 -0.03488159 0.004188538
vn -0.9980469 -0.05975342 0.01687622
vn -0.9980469 -0.05975342 0.01687622
vn -0.9995117 -0.02487183 0.01270294
vn -0.9995117 -0.02487183 0.01270294
vn -1 0 0
vn -1 0 0
vn 1 0 0
vn 1 0 0
vn 1 0 0
vn 1 0 0
vn 1 0 0
vn 1 0 0
vn 0.9995117 -0.03488159 0.004188538
vn 0.9995117 -0.03488159 0.004188538
vn 0.9980469 -0.05975342 0.01687622
vn 0.9980469 -0.05975342 0.01687622
vn 0.9995117 -0.02487183 0.01270294
vn 0.9995117 -0.02487183 0.01270294
vn 1 0 0
vn 1 0 0
vn 0 -0.5209961 -0.8535156
vn 0 -0.5209961 -0.8535156
vn 0 -0.5209961 -0.8535156
vn 0 -0.5209961 -0.8535156
vn 0 0.1704102 0.9853516
vn 0 0.1704102 0.9853516
vn 0 0.1704102 0.9853516
vn 0 0.1704102 0.9853516
vn 0 -0.2380371 -0.9711914
vn 0 -0.2380371 -0.9711914
vn 0 -0.2380371 -0.9711914
vn 0 -0.2380371 -0.9711914
vn 0 0.5629883 0.8261719
vn 0 0.5629883 0.8261719
vn 0 0.5629883 0.8261719
vn 0 0.5629883 0.8261719
vn 0 -0.5981445 -0.8012695
vn 0 -0.5981445 -0.8012695
vn 0 -0.5981445 -0.8012695
vn 0 -0.5981445 -0.8012695
vn 0 0.8330078 0.5537109
vn 0 0.8330078 0.5537109
vn 0 0.8330078 0.5537109
vn 0 0.8330078 0.5537109
vn 0 -0.9482422 -0.3181152
vn 0 -0.9482422 -0.3181152
vn 0 -0.9482422 -0.3181152
vn 0 -0.9482422 -0.3181152
g SM_Wep_MachinePistol_Gen2_Trigger_01_0
f 3/3/3 2/2/2 1/1/1
f 4/4/4 3/3/3 1/1/1
f 7/7/7 6/6/6 5/5/5
f 8/8/8 7/7/7 5/5/5
f 11/11/11 10/10/10 9/9/9
f 12/12/12 11/11/11 9/9/9
f 15/15/15 14/14/14 13/13/13
f 16/16/16 15/15/15 13/13/13
f 19/19/19 18/18/18 17/17/17
f 18/18/18 20/20/20 17/17/17
f 18/18/18 21/21/21 20/20/20
f 21/21/21 22/22/22 20/20/20
f 25/25/25 24/24/24 23/23/23
f 26/26/26 25/25/25 23/23/23
f 29/29/29 28/28/28 27/27/27
f 30/30/30 29/29/29 27/27/27
f 30/30/30 27/27/27 31/31/31
f 32/32/32 30/30/30 31/31/31
f 32/32/32 31/31/31 33/33/33
f 34/34/34 32/32/32 33/33/33
f 33/33/33 35/35/35 34/34/34
f 35/35/35 36/36/36 34/34/34
f 35/35/35 37/37/37 36/36/36
f 37/37/37 38/38/38 36/36/36
f 37/37/37 39/39/39 38/38/38
f 39/39/39 40/40/40 38/38/38
f 43/43/43 42/42/42 41/41/41
f 44/44/44 43/43/43 41/41/41
f 44/44/44 41/41/41 45/45/45
f 46/46/46 44/44/44 45/45/45
f 45/45/45 47/47/47 46/46/46
f 47/47/47 48/48/48 46/46/46
f 47/47/47 49/49/49 48/48/48
f 49/49/49 50/50/50 48/48/48
f 49/49/49 51/51/51 50/50/50
f 51/51/51 52/52/52 50/50/50
f 51/51/51 53/53/53 52/52/52
f 53/53/53 54/54/54 52/52/52
f 57/57/57 56/56/56 55/55/55
f 58/58/58 57/57/57 55/55/55
f 61/61/61 60/60/60 59/59/59
f 62/62/62 61/61/61 59/59/59
f 65/65/65 64/64/64 63/63/63
f 66/66/66 65/65/65 63/63/63
f 69/69/69 68/68/68 67/67/67
f 70/70/70 69/69/69 67/67/67
f 73/73/73 72/72/72 71/71/71
f 74/74/74 73/73/73 71/71/71
f 77/77/77 76/76/76 75/75/75
f 78/78/78 77/77/77 75/75/75
f 81/81/81 80/80/80 79/79/79
f 82/82/82 81/81/81 79/79/79
