g SM_Wep_Sniper_Slide_01
v 0.002327064 0.01489682 -0.04668033
v 0.002327064 0.01489682 0.04668049
v -0.01387865 0.002148565 0.04668049
v -0.01387865 0.002148565 -0.04668033
v -0.01387865 0.002148565 -0.04668033
v -0.01387865 0.002148565 0.04668049
v -0.01487458 -0.01489729 0.04668049
v -0.01487458 -0.01489729 -0.04668033
v -0.01387865 0.002148565 -0.04668033
v 0.01487458 -0.0128704 -0.04668033
v 0.002327064 0.01489682 -0.04668033
v -0.01487458 -0.01489729 -0.04668033
v 0.002327064 0.01489682 0.04668049
v 0.01487458 -0.0128704 0.04668049
v -0.01387865 0.002148565 0.04668049
v -0.01487458 -0.01489729 0.04668049
vt 0.2438965 0.3027344
vt 0.2438965 0.3027344
vt 0.2438965 0.3027344
vt 0.2438965 0.3027344
vt 0.2438965 0.3027344
vt 0.2438965 0.3027344
vt 0.2438965 0.3027344
vt 0.2438965 0.3027344
vt 0.2438965 0.3027344
vt 0.2438965 0.3027344
vt 0.2438965 0.3027344
vt 0.2438965 0.3027344
vt 0.2438965 0.3027344
vt 0.2438965 0.3027344
vt 0.2438965 0.3027344
vt 0.2438965 0.3027344
vn -0.6181641 0.7861328 0
vn -0.6181641 0.7861328 0
vn -0.6181641 0.7861328 0
vn -0.6181641 0.7861328 0
vn -0.9985352 0.05831909 0
vn -0.9985352 0.05831909 0
vn -0.9985352 0.05831909 0
vn -0.9985352 0.05831909 0
vn 0 0 -1
vn 0 0 -1
vn 0 0 -1
vn 0 0 -1
vn 0 0 1
vn 0 0 1
vn 0 0 1
vn 0 0 1
g SM_Wep_Sniper_Slide_01_0
f 3/3/3 2/2/2 1/1/1
f 4/4/4 3/3/3 1/1/1
f 7/7/7 6/6/6 5/5/5
f 8/8/8 7/7/7 5/5/5
f 11/11/11 10/10/10 9/9/9
f 9/9/9 10/10/10 12/12/12
f 15/15/15 14/14/14 13/13/13
f 16/16/16 14/14/14 15/15/15
