g SM_Wep_SMG_Trigger_01
v -0.005798196 0.01110763 -0.01895082
v 0.005798195 0.01110763 -0.01895082
v 0.005798195 0.01110763 0.02096249
v -0.005798195 0.01110763 0.02096234
v 0.004580155 -0.04400045 0.007347791
v -0.004580155 -0.04400045 0.007347791
v -0.004580155 -0.03985234 0.01286709
v 0.004580155 -0.03985234 0.01286709
v -0.005798195 -0.02395497 0.004958627
v -0.005798195 -0.01235848 0.004958627
v 0.005798195 -0.01235848 0.004958627
v 0.005798195 -0.02395497 0.004958627
v 0.005798195 -0.02395497 -0.009981114
v 0.005798195 -0.01235848 -0.009981114
v -0.005798195 -0.01235848 -0.00998111
v -0.005798195 -0.02395497 -0.00998111
v -0.005798195 -0.01235848 0.004958627
v 0.005798195 -0.006060954 0.009758989
v 0.005798195 -0.01235848 0.004958627
v -0.005798195 -0.006060954 0.009758989
v 0.005798195 0.01110763 0.02096249
v -0.005798195 0.01110763 0.02096234
v 0.005798195 -0.01235848 -0.009981114
v 0.005798195 -0.006060954 -0.01167295
v -0.005798195 -0.006060954 -0.01167295
v -0.005798195 -0.01235848 -0.00998111
v -0.005798195 -0.006060954 -0.01167295
v -0.005798196 0.01110763 -0.01895082
v -0.005798195 0.01110763 0.02096234
v -0.005798195 -0.006060954 0.009758989
v -0.005798195 -0.01235848 -0.00998111
v -0.005798195 -0.01235848 0.004958627
v -0.005798195 -0.02395497 -0.00998111
v -0.005798195 -0.02395497 0.004958627
v -0.005051124 -0.0350104 -0.003740079
v -0.005051124 -0.03303153 0.008880794
v -0.004580155 -0.04400045 0.007347791
v -0.004580155 -0.03985234 0.01286709
v 0.005798195 -0.006060954 0.009758989
v 0.005798195 0.01110763 0.02096249
v 0.005798195 0.01110763 -0.01895082
v 0.005798195 -0.006060954 -0.01167295
v 0.005798195 -0.01235848 0.004958627
v 0.005798195 -0.01235848 -0.009981114
v 0.005798195 -0.02395497 0.004958627
v 0.005798195 -0.02395497 -0.009981114
v 0.005051124 -0.03303153 0.008880789
v 0.00505113 -0.0350104 -0.003740079
v 0.004580155 -0.04400045 0.007347791
v 0.004580155 -0.03985234 0.01286709
v 0.005798195 -0.006060954 -0.01167295
v 0.005798195 0.01110763 -0.01895082
v -0.005798196 0.01110763 -0.01895082
v -0.005798195 -0.006060954 -0.01167295
v 0.005798195 -0.02395497 0.004958627
v 0.005051124 -0.03303153 0.008880789
v -0.005051124 -0.03303153 0.008880794
v -0.005798195 -0.02395497 0.004958627
v -0.005798195 -0.02395497 -0.00998111
v -0.005051124 -0.0350104 -0.003740079
v 0.00505113 -0.0350104 -0.003740079
v 0.005798195 -0.02395497 -0.009981114
v -0.005051124 -0.0350104 -0.003740079
v -0.004580155 -0.04400045 0.007347791
v 0.004580155 -0.04400045 0.007347791
v 0.00505113 -0.0350104 -0.003740079
v -0.005051124 -0.03303153 0.008880794
v 0.005051124 -0.03303153 0.008880789
v 0.004580155 -0.03985234 0.01286709
v -0.004580155 -0.03985234 0.01286709
vt 0.2459717 0.2319336
vt 0.2459717 0.2319336
vt 0.2459717 0.2319336
vt 0.2459717 0.2319336
vt 0.2459717 0.2319336
vt 0.2459717 0.2319336
vt 0.2459717 0.2319336
vt 0.2459717 0.2319336
vt 0.2459717 0.2319336
vt 0.2459717 0.2319336
vt 0.2459717 0.2319336
vt 0.2459717 0.2319336
vt 0.2459717 0.2319336
vt 0.2459717 0.2319336
vt 0.2459717 0.2319336
vt 0.2459717 0.2319336
vt 0.2459717 0.2319336
vt 0.2459717 0.2319336
vt 0.2459717 0.2319336
vt 0.2459717 0.2319336
vt 0.2459717 0.2319336
vt 0.2459717 0.2319336
vt 0.2459717 0.2319336
vt 0.2459717 0.2319336
vt 0.2459717 0.2319336
vt 0.2459717 0.2319336
vt 0.2459717 0.2319336
vt 0.2459717 0.2319336
vt 0.2459717 0.2319336
vt 0.2459717 0.2319336
vt 0.2459717 0.2319336
vt 0.2459717 0.2319336
vt 0.2459717 0.2319336
vt 0.2459717 0.2319336
vt 0.2459717 0.2319336
vt 0.2459717 0.2319336
vt 0.2459717 0.2319336
vt 0.2459717 0.2319336
vt 0.2459717 0.2319336
vt 0.2459717 0.2319336
vt 0.2459717 0.2319336
vt 0.2459717 0.2319336
vt 0.2459717 0.2319336
vt 0.2459717 0.2319336
vt 0.2459717 0.2319336
vt 0.2459717 0.2319336
vt 0.2459717 0.2319336
vt 0.2459717 0.2319336
vt 0.2459717 0.2319336
vt 0.2459717 0.2319336
vt 0.2459717 0.2319336
vt 0.2459717 0.2319336
vt 0.2459717 0.2319336
vt 0.2459717 0.2319336
vt 0.2459717 0.2319336
vt 0.2459717 0.2319336
vt 0.2459717 0.2319336
vt 0.2459717 0.2319336
vt 0.2459717 0.2319336
vt 0.2459717 0.2319336
vt 0.2459717 0.2319336
vt 0.2459717 0.2319336
vt 0.2459717 0.2319336
vt 0.2459717 0.2319336
vt 0.2459717 0.2319336
vt 0.2459717 0.2319336
vt 0.2459717 0.2319336
vt 0.2459717 0.2319336
vt 0.2459717 0.2319336
vt 0.2459717 0.2319336
vn 0 1 0
vn 0 1 0
vn 0 1 0
vn 0 1 0
vn 0 -0.7993164 0.6005859
vn 0 -0.7993164 0.6005859
vn 0 -0.7993164 0.6005859
vn 0 -0.7993164 0.6005859
vn 0 0 1
vn 0 0 1
vn 0 0 1
vn 0 0 1
vn 0 0 -1
vn 0 0 -1
vn 0 0 -1
vn 0 0 -1
vn 0 -0.6064453 0.7954102
vn 0 -0.5766602 0.8168945
vn 0 -0.6064453 0.7954102
vn 0 -0.5766602 0.8168945
vn 0 -0.5463867 0.8374023
vn 0 -0.5463867 0.8374023
vn 0 -0.2595215 -0.9658203
vn 0 -0.2595215 -0.9658203
vn 0 -0.2595215 -0.9658203
vn 0 -0.2595215 -0.9658203
vn -1 0 0
vn -1 0 0
vn -1 0 0
vn -1 0 0
vn -1 0 0
vn -1 0 0
vn -0.9995117 -0.03573608 0.002565384
vn -0.9995117 -0.03573608 0.002565384
vn -0.9980469 -0.05822754 0.01016998
vn -0.9980469 -0.05822754 0.01016998
vn -0.9990234 -0.04501343 0.01520538
vn -0.9990234 -0.04501343 0.01520538
vn 1 0 0
vn 1 0 0
vn 1 0 0
vn 1 0 0
vn 1 0 0
vn 1 0 0
vn 0.9995117 -0.03573608 0.002567291
vn 0.9995117 -0.03573608 0.002567291
vn 0.9980469 -0.05822754 0.01016998
vn 0.9980469 -0.05822754 0.01016998
vn 0.9990234 -0.04501343 0.01520538
vn 0.9990234 -0.04501343 0.01520538
vn 0 -0.3903809 -0.9208984
vn 0 -0.3903809 -0.9208984
vn 0 -0.3903809 -0.9208984
vn 0 -0.3903809 -0.9208984
vn 0 0.3967285 0.9179688
vn 0 0.3967285 0.9179688
vn 0 0.3967285 0.9179688
vn 0 0.3967285 0.9179688
vn 0 -0.4916992 -0.8706055
vn 0 -0.4916992 -0.8706055
vn 0 -0.4916992 -0.8706055
vn 0 -0.4916992 -0.8706055
vn 0 -0.7768555 -0.6298828
vn 0 -0.7768555 -0.6298828
vn 0 -0.7768555 -0.6298828
vn 0 -0.7768555 -0.6298828
vn 0 0.5043945 0.8632813
vn 0 0.5043945 0.8632813
vn 0 0.5043945 0.8632813
vn 0 0.5043945 0.8632813
g SM_Wep_SMG_Trigger_01_0
f 3/3/3 2/2/2 1/1/1
f 4/4/4 3/3/3 1/1/1
f 7/7/7 6/6/6 5/5/5
f 8/8/8 7/7/7 5/5/5
f 11/11/11 10/10/10 9/9/9
f 12/12/12 11/11/11 9/9/9
f 15/15/15 14/14/14 13/13/13
f 16/16/16 15/15/15 13/13/13
f 19/19/19 18/18/18 17/17/17
f 18/18/18 20/20/20 17/17/17
f 18/18/18 21/21/21 20/20/20
f 21/21/21 22/22/22 20/20/20
f 25/25/25 24/24/24 23/23/23
f 26/26/26 25/25/25 23/23/23
f 29/29/29 28/28/28 27/27/27
f 30/30/30 29/29/29 27/27/27
f 30/30/30 27/27/27 31/31/31
f 32/32/32 30/30/30 31/31/31
f 32/32/32 31/31/31 33/33/33
f 34/34/34 32/32/32 33/33/33
f 33/33/33 35/35/35 34/34/34
f 35/35/35 36/36/36 34/34/34
f 35/35/35 37/37/37 36/36/36
f 37/37/37 38/38/38 36/36/36
f 41/41/41 40/40/40 39/39/39
f 42/42/42 41/41/41 39/39/39
f 42/42/42 39/39/39 43/43/43
f 44/44/44 42/42/42 43/43/43
f 43/43/43 45/45/45 44/44/44
f 45/45/45 46/46/46 44/44/44
f 45/45/45 47/47/47 46/46/46
f 47/47/47 48/48/48 46/46/46
f 49/49/49 48/48/48 47/47/47
f 50/50/50 49/49/49 47/47/47
f 53/53/53 52/52/52 51/51/51
f 54/54/54 53/53/53 51/51/51
f 57/57/57 56/56/56 55/55/55
f 58/58/58 57/57/57 55/55/55
f 61/61/61 60/60/60 59/59/59
f 62/62/62 61/61/61 59/59/59
f 65/65/65 64/64/64 63/63/63
f 66/66/66 65/65/65 63/63/63
f 69/69/69 68/68/68 67/67/67
f 70/70/70 69/69/69 67/67/67
