g SM_Wep_Rifle_Laser_Trigger_01
v -0.007407988 -0.001902714 -0.01181751
v 0.007407988 -0.001902714 -0.01181751
v 0.007407988 -0.001902714 0.01932034
v -0.007407988 -0.001902714 0.01932034
v -0.005851765 -0.05144644 0.01443752
v 0.005851765 -0.05144644 0.01443737
v 0.005851765 -0.05562338 0.01321102
v -0.005851765 -0.05562338 0.01321133
v -0.007407988 -0.03452091 0.004693565
v -0.007407988 -0.02136335 0.007469444
v 0.007407988 -0.02136335 0.007469597
v 0.007407988 -0.03452091 0.00469387
v 0.007407988 -0.03784725 -0.003487587
v 0.007407988 -0.02136335 -0.008846474
v -0.007407988 -0.02136335 -0.008846778
v -0.007407988 -0.03784725 -0.003487587
v -0.007407988 -0.02136335 -0.008846778
v -0.007407988 -0.001902714 -0.01181751
v -0.007407988 -0.001902714 0.01932034
v -0.007407988 -0.02136335 0.007469444
v -0.007407988 -0.03784725 -0.003487587
v -0.007407988 -0.03452091 0.004693565
v -0.006453491 -0.0439584 0.00626049
v -0.006453491 -0.05073204 0.003449668
v -0.005851765 -0.05144644 0.01443752
v -0.005851765 -0.05562338 0.01321133
v -0.007407988 -0.02136335 0.007469444
v -0.007407988 -0.001902714 0.01932034
v 0.007407988 -0.001902714 0.01932034
v 0.007407988 -0.02136335 0.007469597
v 0.007407988 -0.02136335 0.007469597
v 0.007407988 -0.001902714 0.01932034
v 0.007407988 -0.001902714 -0.01181751
v 0.007407988 -0.02136335 -0.008846474
v 0.007407988 -0.03452091 0.00469387
v 0.007407988 -0.03784725 -0.003487587
v 0.006453491 -0.0439584 0.00626049
v 0.006453491 -0.05073204 0.003449974
v 0.005851765 -0.05144644 0.01443737
v 0.005851765 -0.05562338 0.01321102
v 0.007407988 -0.02136335 -0.008846474
v 0.007407988 -0.001902714 -0.01181751
v -0.007407988 -0.001902714 -0.01181751
v -0.007407988 -0.02136335 -0.008846778
v 0.007407988 -0.03452091 0.00469387
v 0.006453491 -0.0439584 0.00626049
v -0.006453491 -0.0439584 0.00626049
v -0.007407988 -0.03452091 0.004693565
v -0.007407988 -0.03784725 -0.003487587
v -0.006453491 -0.05073204 0.003449668
v 0.006453491 -0.05073204 0.003449974
v 0.007407988 -0.03784725 -0.003487587
v 0.006453491 -0.05073204 0.003449974
v -0.006453491 -0.05073204 0.003449668
v -0.005851765 -0.05562338 0.01321133
v 0.005851765 -0.05562338 0.01321102
v -0.006453491 -0.0439584 0.00626049
v 0.006453491 -0.0439584 0.00626049
v 0.005851765 -0.05144644 0.01443737
v -0.005851765 -0.05144644 0.01443752
vt 0.2458496 0.230957
vt 0.2458496 0.230957
vt 0.2458496 0.230957
vt 0.2458496 0.230957
vt 0.2458496 0.230957
vt 0.2458496 0.230957
vt 0.2458496 0.230957
vt 0.2458496 0.230957
vt 0.2458496 0.230957
vt 0.2458496 0.230957
vt 0.2458496 0.230957
vt 0.2458496 0.230957
vt 0.2458496 0.230957
vt 0.2458496 0.230957
vt 0.2458496 0.230957
vt 0.2458496 0.230957
vt 0.2458496 0.230957
vt 0.2458496 0.230957
vt 0.2458496 0.230957
vt 0.2458496 0.230957
vt 0.2458496 0.230957
vt 0.2458496 0.230957
vt 0.2458496 0.230957
vt 0.2458496 0.230957
vt 0.2458496 0.230957
vt 0.2458496 0.230957
vt 0.2458496 0.230957
vt 0.2458496 0.230957
vt 0.2458496 0.230957
vt 0.2458496 0.230957
vt 0.2458496 0.230957
vt 0.2458496 0.230957
vt 0.2458496 0.230957
vt 0.2458496 0.230957
vt 0.2458496 0.230957
vt 0.2458496 0.230957
vt 0.2458496 0.230957
vt 0.2458496 0.230957
vt 0.2458496 0.230957
vt 0.2458496 0.230957
vt 0.2458496 0.230957
vt 0.2458496 0.230957
vt 0.2458496 0.230957
vt 0.2458496 0.230957
vt 0.2458496 0.230957
vt 0.2458496 0.230957
vt 0.2458496 0.230957
vt 0.2458496 0.230957
vt 0.2458496 0.230957
vt 0.2458496 0.230957
vt 0.2458496 0.230957
vt 0.2458496 0.230957
vt 0.2458496 0.230957
vt 0.2458496 0.230957
vt 0.2458496 0.230957
vt 0.2458496 0.230957
vt 0.2458496 0.230957
vt 0.2458496 0.230957
vt 0.2458496 0.230957
vt 0.2458496 0.230957
vn 0 1 0
vn 0 1 0
vn 0 1 0
vn 0 1 0
vn 1.877546E-05 -0.2817383 0.9594727
vn 1.877546E-05 -0.2817383 0.9594727
vn 1.877546E-05 -0.2817383 0.9594727
vn 1.877546E-05 -0.2817383 0.9594727
vn -1.513958E-05 -0.2064209 0.9785156
vn -1.513958E-05 -0.2064209 0.9785156
vn -1.513958E-05 -0.2064209 0.9785156
vn -1.513958E-05 -0.2064209 0.9785156
vn 0 -0.309082 -0.9511719
vn 0 -0.309082 -0.9511719
vn 0 -0.309082 -0.9511719
vn 0 -0.309082 -0.9511719
vn -1 0 0
vn -1 0 0
vn -1 0 0
vn -1 0 0
vn -0.9990234 -0.03158569 0.02902222
vn -0.9990234 -0.03158569 0.02902222
vn -0.9975586 -0.04141235 0.05569458
vn -0.9975586 -0.04141235 0.05569458
vn -0.9985352 -0.01968384 0.05340576
vn -0.9985352 -0.01968384 0.05340576
vn 0 -0.5200195 0.8540039
vn 0 -0.5200195 0.8540039
vn 0 -0.5200195 0.8540039
vn 0 -0.5200195 0.8540039
vn 1 0 0
vn 1 0 0
vn 1 0 0
vn 1 0 0
vn 0.9990234 -0.03158569 0.02902222
vn 0.9990234 -0.03158569 0.02902222
vn 0.9975586 -0.04141235 0.05569458
vn 0.9975586 -0.04141235 0.05569458
vn 0.9985352 -0.01968384 0.05340576
vn 0.9985352 -0.01968384 0.05340576
vn 1.019239E-05 -0.1508789 -0.9887695
vn 1.019239E-05 -0.1508789 -0.9887695
vn 1.019239E-05 -0.1508789 -0.9887695
vn 1.019239E-05 -0.1508789 -0.9887695
vn -1.084805E-05 0.1638184 0.9863281
vn -1.084805E-05 0.1638184 0.9863281
vn -1.084805E-05 0.1638184 0.9863281
vn -1.084805E-05 0.1638184 0.9863281
vn 0 -0.4741211 -0.8803711
vn 0 -0.4741211 -0.8803711
vn 0 -0.4741211 -0.8803711
vn 0 -0.4741211 -0.8803711
vn 0 -0.894043 -0.447998
vn 0 -0.894043 -0.447998
vn 0 -0.894043 -0.447998
vn 0 -0.894043 -0.447998
vn 0 0.7373047 0.675293
vn 0 0.7373047 0.675293
vn 0 0.7373047 0.675293
vn 0 0.7373047 0.675293
g SM_Wep_Rifle_Laser_Trigger_01_0
f 3/3/3 2/2/2 1/1/1
f 4/4/4 3/3/3 1/1/1
f 7/7/7 6/6/6 5/5/5
f 8/8/8 7/7/7 5/5/5
f 11/11/11 10/10/10 9/9/9
f 12/12/12 11/11/11 9/9/9
f 15/15/15 14/14/14 13/13/13
f 16/16/16 15/15/15 13/13/13
f 19/19/19 18/18/18 17/17/17
f 20/20/20 19/19/19 17/17/17
f 20/20/20 17/17/17 21/21/21
f 22/22/22 20/20/20 21/21/21
f 22/22/22 21/21/21 23/23/23
f 21/21/21 24/24/24 23/23/23
f 23/23/23 24/24/24 25/25/25
f 24/24/24 26/26/26 25/25/25
f 29/29/29 28/28/28 27/27/27
f 30/30/30 29/29/29 27/27/27
f 33/33/33 32/32/32 31/31/31
f 34/34/34 33/33/33 31/31/31
f 34/34/34 31/31/31 35/35/35
f 36/36/36 34/34/34 35/35/35
f 35/35/35 37/37/37 36/36/36
f 37/37/37 38/38/38 36/36/36
f 37/37/37 39/39/39 38/38/38
f 39/39/39 40/40/40 38/38/38
f 43/43/43 42/42/42 41/41/41
f 44/44/44 43/43/43 41/41/41
f 47/47/47 46/46/46 45/45/45
f 48/48/48 47/47/47 45/45/45
f 51/51/51 50/50/50 49/49/49
f 52/52/52 51/51/51 49/49/49
f 55/55/55 54/54/54 53/53/53
f 56/56/56 55/55/55 53/53/53
f 59/59/59 58/58/58 57/57/57
f 60/60/60 59/59/59 57/57/57
