g SM_Wep_Grenade_HE_01_Pin
v 0.02706639 0.03051147 -0.007878646
v 0.02706639 0.03481948 -0.01218651
v 0.02706639 0.03051147 -0.01649437
v 0.02706639 0.02620369 -0.01218651
v 0.02706639 0.03481948 -0.01218651
v 9.365725E-05 0.03481948 -0.01218651
v 9.365725E-05 0.03051147 -0.01649437
v 0.02706639 0.03051147 -0.01649437
v 9.365725E-05 0.03481948 -0.01218651
v 9.365588E-05 0.03051147 -0.007878646
v 9.365725E-05 0.02620369 -0.01218651
v 9.365725E-05 0.03051147 -0.01649437
v 9.365588E-05 0.03051147 -0.007878646
v 0.02706639 0.03051147 -0.007878646
v 0.02706639 0.02620369 -0.01218651
v 9.365725E-05 0.02620369 -0.01218651
v 0.02706639 0.02620369 -0.01218651
v 0.02706639 0.03051147 -0.01649437
v 9.365725E-05 0.03051147 -0.01649437
v 9.365725E-05 0.02620369 -0.01218651
v 9.365588E-05 0.03051147 -0.007878646
v 9.365725E-05 0.03481948 -0.01218651
v 0.02706639 0.03481948 -0.01218651
v 0.02706639 0.03051147 -0.007878646
v 0.01892107 0.02375908 -0.02858726
v 0.01975059 0.02667335 -0.03074295
v 0.02138912 0.03339348 -0.01177505
v 0.02039924 0.02982162 -0.0114756
v 0.02039924 0.02982162 -0.0114756
v 0.02138912 0.03339348 -0.01177505
v 0.03041088 0.02671615 0.005007324
v 0.02853809 0.0237978 0.003664398
v 0.02853809 0.0237978 0.003664398
v 0.03041088 0.02671615 0.005007324
v 0.04153109 0.01055271 0.009773178
v 0.03857001 0.009216307 0.007963791
v 0.03857001 0.009216307 0.007963791
v 0.04153109 0.01055271 0.009773178
v 0.04823569 -0.005628282 -0.0002690887
v 0.04461852 -0.005381433 -0.001095657
v 0.04461852 -0.005381433 -0.001095657
v 0.04823569 -0.005628282 -0.0002690887
v 0.04659716 -0.01234848 -0.01923706
v 0.04314035 -0.01144394 -0.01820732
v 0.04314035 -0.01144394 -0.01820732
v 0.04659716 -0.01234848 -0.01923706
v 0.03757535 -0.005670931 -0.03601936
v 0.0350015 -0.005420076 -0.03334732
v 0.0350015 -0.005420076 -0.03334732
v 0.03757535 -0.005670931 -0.03601936
v 0.02645514 0.01049232 -0.04078529
v 0.02496948 0.009161604 -0.03764679
v 0.02496948 0.009161604 -0.03764679
v 0.02645514 0.01049232 -0.04078529
v 0.01975059 0.02667335 -0.03074295
v 0.01892107 0.02375908 -0.02858726
v 0.02230312 0.02377884 -0.02801224
v 0.02364802 0.02929451 -0.0124437
v 0.0246722 0.03231651 -0.01275276
v 0.02319773 0.02626907 -0.02982185
v 0.02364802 0.02929451 -0.0124437
v 0.03105289 0.02381401 0.001331024
v 0.03279087 0.02630764 0.002349625
v 0.0246722 0.03231651 -0.01275276
v 0.03105289 0.02381401 0.001331024
v 0.04018012 0.01054741 0.005242615
v 0.04279788 0.01176224 0.006638336
v 0.03279087 0.02630764 0.002349625
v 0.04018012 0.01054741 0.005242615
v 0.04568316 -0.002733805 -0.002999878
v 0.04883131 -0.002798998 -0.002398529
v 0.04279788 0.01176224 0.006638336
v 0.04568316 -0.002733805 -0.002999878
v 0.04433832 -0.008249666 -0.01856834
v 0.04735683 -0.008846476 -0.01946777
v 0.04883131 -0.002798998 -0.002398529
v 0.04433832 -0.008249666 -0.01856834
v 0.03693333 -0.002768785 -0.03234306
v 0.0392381 -0.002837374 -0.03457016
v 0.04735683 -0.008846476 -0.01946777
v 0.03693333 -0.002768785 -0.03234306
v 0.0278061 0.01049759 -0.0362548
v 0.02923109 0.01170784 -0.03885902
v 0.0392381 -0.002837374 -0.03457016
v 0.0278061 0.01049759 -0.0362548
v 0.02230312 0.02377884 -0.02801224
v 0.02319773 0.02626907 -0.02982185
v 0.02923109 0.01170784 -0.03885902
v 0.02230312 0.02377884 -0.02801224
v 0.01892107 0.02375908 -0.02858726
v 0.02039924 0.02982162 -0.0114756
v 0.02364802 0.02929451 -0.0124437
v 0.0246722 0.03231651 -0.01275276
v 0.02138912 0.03339348 -0.01177505
v 0.01975059 0.02667335 -0.03074295
v 0.02319773 0.02626907 -0.02982185
v 0.02364802 0.02929451 -0.0124437
v 0.02039924 0.02982162 -0.0114756
v 0.02853809 0.0237978 0.003664398
v 0.03105289 0.02381401 0.001331024
v 0.03279087 0.02630764 0.002349625
v 0.03041088 0.02671615 0.005007324
v 0.02138912 0.03339348 -0.01177505
v 0.0246722 0.03231651 -0.01275276
v 0.03105289 0.02381401 0.001331024
v 0.02853809 0.0237978 0.003664398
v 0.03857001 0.009216307 0.007963791
v 0.04018012 0.01054741 0.005242615
v 0.04279788 0.01176224 0.006638336
v 0.04153109 0.01055271 0.009773178
v 0.03041088 0.02671615 0.005007324
v 0.03279087 0.02630764 0.002349625
v 0.04018012 0.01054741 0.005242615
v 0.03857001 0.009216307 0.007963791
v 0.04461852 -0.005381433 -0.001095657
v 0.04568316 -0.002733805 -0.002999878
v 0.04883131 -0.002798998 -0.002398529
v 0.04823569 -0.005628282 -0.0002690887
v 0.04153109 0.01055271 0.009773178
v 0.04279788 0.01176224 0.006638336
v 0.04568316 -0.002733805 -0.002999878
v 0.04461852 -0.005381433 -0.001095657
v 0.04314035 -0.01144394 -0.01820732
v 0.04433832 -0.008249666 -0.01856834
v 0.04735683 -0.008846476 -0.01946777
v 0.04659716 -0.01234848 -0.01923706
v 0.04823569 -0.005628282 -0.0002690887
v 0.04883131 -0.002798998 -0.002398529
v 0.04433832 -0.008249666 -0.01856834
v 0.04314035 -0.01144394 -0.01820732
v 0.0350015 -0.005420076 -0.03334732
v 0.03693333 -0.002768785 -0.03234306
v 0.0392381 -0.002837374 -0.03457016
v 0.03757535 -0.005670931 -0.03601936
v 0.04659716 -0.01234848 -0.01923706
v 0.04735683 -0.008846476 -0.01946777
v 0.03693333 -0.002768785 -0.03234306
v 0.0350015 -0.005420076 -0.03334732
v 0.02496948 0.009161604 -0.03764679
v 0.0278061 0.01049759 -0.0362548
v 0.02923109 0.01170784 -0.03885902
v 0.02645514 0.01049232 -0.04078529
v 0.03757535 -0.005670931 -0.03601936
v 0.0392381 -0.002837374 -0.03457016
v 0.0278061 0.01049759 -0.0362548
v 0.02496948 0.009161604 -0.03764679
v 0.01892107 0.02375908 -0.02858726
v 0.02230312 0.02377884 -0.02801224
v 0.02319773 0.02626907 -0.02982185
v 0.01975059 0.02667335 -0.03074295
v 0.02645514 0.01049232 -0.04078529
v 0.02923109 0.01170784 -0.03885902
vt 0.9936523 0.3024902
vt 0.9936523 0.3024902
vt 0.9936523 0.3024902
vt 0.9936523 0.3024902
vt 0.9936523 0.3024902
vt 0.9936523 0.3024902
vt 0.9936523 0.3024902
vt 0.9936523 0.3024902
vt 0.9936523 0.3024902
vt 0.9936523 0.3024902
vt 0.9936523 0.3024902
vt 0.9936523 0.3024902
vt 0.9936523 0.3024902
vt 0.9936523 0.3024902
vt 0.9936523 0.3024902
vt 0.9936523 0.3024902
vt 0.9936523 0.3024902
vt 0.9936523 0.3024902
vt 0.9936523 0.3024902
vt 0.9936523 0.3024902
vt 0.9936523 0.3024902
vt 0.9936523 0.3024902
vt 0.9936523 0.3024902
vt 0.9936523 0.3024902
vt 0.9936523 0.3024902
vt 0.9936523 0.3024902
vt 0.9936523 0.3024902
vt 0.9936523 0.3024902
vt 0.9936523 0.3024902
vt 0.9936523 0.3024902
vt 0.9936523 0.3024902
vt 0.9936523 0.3024902
vt 0.9936523 0.3024902
vt 0.9936523 0.3024902
vt 0.9936523 0.3024902
vt 0.9936523 0.3024902
vt 0.9936523 0.3024902
vt 0.9936523 0.3024902
vt 0.9936523 0.3024902
vt 0.9936523 0.3024902
vt 0.9936523 0.3024902
vt 0.9936523 0.3024902
vt 0.9936523 0.3024902
vt 0.9936523 0.3024902
vt 0.9936523 0.3024902
vt 0.9936523 0.3024902
vt 0.9936523 0.3024902
vt 0.9936523 0.3024902
vt 0.9936523 0.3024902
vt 0.9936523 0.3024902
vt 0.9936523 0.3024902
vt 0.9936523 0.3024902
vt 0.9936523 0.3024902
vt 0.9936523 0.3024902
vt 0.9936523 0.3024902
vt 0.9936523 0.3024902
vt 0.9936523 0.3024902
vt 0.9936523 0.3024902
vt 0.9936523 0.3024902
vt 0.9936523 0.3024902
vt 0.9936523 0.3024902
vt 0.9936523 0.3024902
vt 0.9936523 0.3024902
vt 0.9936523 0.3024902
vt 0.9936523 0.3024902
vt 0.9936523 0.3024902
vt 0.9936523 0.3024902
vt 0.9936523 0.3024902
vt 0.9936523 0.3024902
vt 0.9936523 0.3024902
vt 0.9936523 0.3024902
vt 0.9936523 0.3024902
vt 0.9936523 0.3024902
vt 0.9936523 0.3024902
vt 0.9936523 0.3024902
vt 0.9936523 0.3024902
vt 0.9936523 0.3024902
vt 0.9936523 0.3024902
vt 0.9936523 0.3024902
vt 0.9936523 0.3024902
vt 0.9936523 0.3024902
vt 0.9936523 0.3024902
vt 0.9936523 0.3024902
vt 0.9936523 0.3024902
vt 0.9936523 0.3024902
vt 0.9936523 0.3024902
vt 0.9936523 0.3024902
vt 0.9936523 0.3024902
vt 0.9936523 0.3024902
vt 0.9936523 0.3024902
vt 0.9936523 0.3024902
vt 0.9936523 0.3024902
vt 0.9936523 0.3024902
vt 0.9936523 0.3024902
vt 0.9936523 0.3024902
vt 0.9936523 0.3024902
vt 0.9936523 0.3024902
vt 0.9936523 0.3024902
vt 0.9936523 0.3024902
vt 0.9936523 0.3024902
vt 0.9936523 0.3024902
vt 0.9936523 0.3024902
vt 0.9936523 0.3024902
vt 0.9936523 0.3024902
vt 0.9936523 0.3024902
vt 0.9936523 0.3024902
vt 0.9936523 0.3024902
vt 0.9936523 0.3024902
vt 0.9936523 0.3024902
vt 0.9936523 0.3024902
vt 0.9936523 0.3024902
vt 0.9936523 0.3024902
vt 0.9936523 0.3024902
vt 0.9936523 0.3024902
vt 0.9936523 0.3024902
vt 0.9936523 0.3024902
vt 0.9936523 0.3024902
vt 0.9936523 0.3024902
vt 0.9936523 0.3024902
vt 0.9936523 0.3024902
vt 0.9936523 0.3024902
vt 0.9936523 0.3024902
vt 0.9936523 0.3024902
vt 0.9936523 0.3024902
vt 0.9936523 0.3024902
vt 0.9936523 0.3024902
vt 0.9936523 0.3024902
vt 0.9936523 0.3024902
vt 0.9936523 0.3024902
vt 0.9936523 0.3024902
vt 0.9936523 0.3024902
vt 0.9936523 0.3024902
vt 0.9936523 0.3024902
vt 0.9936523 0.3024902
vt 0.9936523 0.3024902
vt 0.9936523 0.3024902
vt 0.9936523 0.3024902
vt 0.9936523 0.3024902
vt 0.9936523 0.3024902
vt 0.9936523 0.3024902
vt 0.9936523 0.3024902
vt 0.9936523 0.3024902
vt 0.9936523 0.3024902
vt 0.9936523 0.3024902
vt 0.9936523 0.3024902
vt 0.9936523 0.3024902
vt 0.9936523 0.3024902
vt 0.9936523 0.3024902
vt 0.9936523 0.3024902
vt 0.9936523 0.3024902
vt 0.9936523 0.3024902
vt 0.9936523 0.3024902
vn 1 0 0
vn 1 0 0
vn 1 0 0
vn 1 0 0
vn 0 0.7070313 -0.7070313
vn 0 0.7070313 -0.7070313
vn 0 0.7070313 -0.7070313
vn 0 0.7070313 -0.7070313
vn -1 0 0
vn -1 0 0
vn -1 0 0
vn -1 0 0
vn 0 -0.7070313 0.7070313
vn 0 -0.7070313 0.7070313
vn 0 -0.7070313 0.7070313
vn 0 -0.7070313 0.7070313
vn 0 -0.7070313 -0.7070313
vn 0 -0.7070313 -0.7070313
vn 0 -0.7070313 -0.7070313
vn 0 -0.7070313 -0.7070313
vn 0 0.7070313 0.7070313
vn 0 0.7070313 0.7070313
vn 0 0.7070313 0.7070313
vn 0 0.7070313 0.7070313
vn -0.9638672 0.2661133 -0.01104736
vn -0.9638672 0.2661133 -0.01104736
vn -0.9638672 0.2661133 -0.01104736
vn -0.9638672 0.2661133 -0.01104736
vn -0.8007813 0.2668457 0.5366211
vn -0.8007813 0.2668457 0.5366211
vn -0.8007813 0.2668457 0.5366211
vn -0.8007813 0.2668457 0.5366211
vn -0.4919434 -0.08300781 0.8666992
vn -0.4919434 -0.08300781 0.8666992
vn -0.4919434 -0.08300781 0.8666992
vn -0.4919434 -0.08300781 0.8666992
vn -0.2191162 -0.5786133 0.7856445
vn -0.2191162 -0.5786133 0.7856445
vn -0.2191162 -0.5786133 0.7856445
vn -0.2191162 -0.5786133 0.7856445
vn -0.1414795 -0.9291992 0.3413086
vn -0.1414795 -0.9291992 0.3413086
vn -0.1414795 -0.9291992 0.3413086
vn -0.1414795 -0.9291992 0.3413086
vn -0.3046875 -0.9296875 -0.2061768
vn -0.3046875 -0.9296875 -0.2061768
vn -0.3046875 -0.9296875 -0.2061768
vn -0.3046875 -0.9296875 -0.2061768
vn -0.6132813 -0.5800781 -0.5361328
vn -0.6132813 -0.5800781 -0.5361328
vn -0.6132813 -0.5800781 -0.5361328
vn -0.6132813 -0.5800781 -0.5361328
vn -0.8862305 -0.08459473 -0.4553223
vn -0.8862305 -0.08459473 -0.4553223
vn -0.8862305 -0.08459473 -0.4553223
vn -0.8862305 -0.08459473 -0.4553223
vn 0.9477539 -0.3181152 0.0308075
vn 0.9477539 -0.3181152 0.0308075
vn 0.9477539 -0.3181152 0.0308075
vn 0.9477539 -0.3181152 0.0308075
vn 0.7763672 -0.3186035 -0.5439453
vn 0.7763672 -0.3186035 -0.5439453
vn 0.7763672 -0.3186035 -0.5439453
vn 0.7763672 -0.3186035 -0.5439453
vn 0.4521484 0.04858398 -0.890625
vn 0.4521484 0.04858398 -0.890625
vn 0.4521484 0.04858398 -0.890625
vn 0.4521484 0.04858398 -0.890625
vn 0.1656494 0.5688477 -0.8056641
vn 0.1656494 0.5688477 -0.8056641
vn 0.1656494 0.5688477 -0.8056641
vn 0.1656494 0.5688477 -0.8056641
vn 0.08416748 0.9370117 -0.3391113
vn 0.08416748 0.9370117 -0.3391113
vn 0.08416748 0.9370117 -0.3391113
vn 0.08416748 0.9370117 -0.3391113
vn 0.2556152 0.9375 0.2357178
vn 0.2556152 0.9375 0.2357178
vn 0.2556152 0.9375 0.2357178
vn 0.2556152 0.9375 0.2357178
vn 0.5795898 0.5703125 0.5820313
vn 0.5795898 0.5703125 0.5820313
vn 0.5795898 0.5703125 0.5820313
vn 0.5795898 0.5703125 0.5820313
vn 0.8662109 0.05023193 0.4973145
vn 0.8662109 0.05023193 0.4973145
vn 0.8662109 0.05023193 0.4973145
vn 0.8662109 0.05023193 0.4973145
vn -0.0519104 -0.9399414 0.3374023
vn -0.0519104 -0.9399414 0.3374023
vn -0.0519104 -0.9399414 0.3374023
vn -0.0519104 -0.9399414 0.3374023
vn 0.1992188 0.9179688 -0.3425293
vn 0.1992188 0.9179688 -0.3425293
vn 0.1992188 0.9179688 -0.3425293
vn 0.1992188 0.9179688 -0.3425293
vn -0.2276611 -0.9404297 -0.2519531
vn -0.2276611 -0.9404297 -0.2519531
vn -0.2276611 -0.9404297 -0.2519531
vn -0.2276611 -0.9404297 -0.2519531
vn 0.3535156 0.9189453 0.175415
vn 0.3535156 0.9189453 0.175415
vn 0.3535156 0.9189453 0.175415
vn 0.3535156 0.9189453 0.175415
vn -0.5595703 -0.5639648 -0.6069336
vn -0.5595703 -0.5639648 -0.6069336
vn -0.5595703 -0.5639648 -0.6069336
vn -0.5595703 -0.5639648 -0.6069336
vn 0.6455078 0.5878906 0.4875488
vn 0.6455078 0.5878906 0.4875488
vn 0.6455078 0.5878906 0.4875488
vn 0.6455078 0.5878906 0.4875488
vn -0.8535156 -0.03086853 -0.5200195
vn -0.8535156 -0.03086853 -0.5200195
vn -0.8535156 -0.03086853 -0.5200195
vn -0.8535156 -0.03086853 -0.5200195
vn 0.9038086 0.1192627 0.4111328
vn 0.9038086 0.1192627 0.4111328
vn 0.9038086 0.1192627 0.4111328
vn 0.9038086 0.1192627 0.4111328
vn -0.9370117 0.3466797 -0.04187012
vn -0.9370117 0.3466797 -0.04187012
vn -0.9370117 0.3466797 -0.04187012
vn -0.9370117 0.3466797 -0.04187012
vn 0.9770508 -0.2125244 -0.009101868
vn 0.9770508 -0.2125244 -0.009101868
vn 0.9770508 -0.2125244 -0.009101868
vn 0.9770508 -0.2125244 -0.009101868
vn -0.7612305 0.3474121 0.5473633
vn -0.7612305 0.3474121 0.5473633
vn -0.7612305 0.3474121 0.5473633
vn -0.7612305 0.3474121 0.5473633
vn 0.8227539 -0.2131348 -0.5268555
vn 0.8227539 -0.2131348 -0.5268555
vn 0.8227539 -0.2131348 -0.5268555
vn 0.8227539 -0.2131348 -0.5268555
vn -0.4291992 -0.02915955 0.902832
vn -0.4291992 -0.02915955 0.902832
vn -0.4291992 -0.02915955 0.902832
vn -0.4291992 -0.02915955 0.902832
vn 0.5307617 0.1177368 -0.8393555
vn 0.5307617 0.1177368 -0.8393555
vn 0.5307617 0.1177368 -0.8393555
vn 0.5307617 0.1177368 -0.8393555
vn -0.135376 -0.5625 0.815918
vn -0.135376 -0.5625 0.815918
vn -0.135376 -0.5625 0.815918
vn -0.135376 -0.5625 0.815918
vn 0.2727051 0.5864258 -0.7626953
vn 0.2727051 0.5864258 -0.7626953
vn 0.2727051 0.5864258 -0.7626953
vn 0.2727051 0.5864258 -0.7626953
g SM_Wep_Grenade_HE_01_Pin_0
f 3/3/3 2/2/2 1/1/1
f 4/4/4 3/3/3 1/1/1
f 7/7/7 6/6/6 5/5/5
f 8/8/8 7/7/7 5/5/5
f 11/11/11 10/10/10 9/9/9
f 12/12/12 11/11/11 9/9/9
f 15/15/15 14/14/14 13/13/13
f 16/16/16 15/15/15 13/13/13
f 19/19/19 18/18/18 17/17/17
f 20/20/20 19/19/19 17/17/17
f 23/23/23 22/22/22 21/21/21
f 24/24/24 23/23/23 21/21/21
f 27/27/27 26/26/26 25/25/25
f 28/28/28 27/27/27 25/25/25
f 31/31/31 30/30/30 29/29/29
f 32/32/32 31/31/31 29/29/29
f 35/35/35 34/34/34 33/33/33
f 36/36/36 35/35/35 33/33/33
f 39/39/39 38/38/38 37/37/37
f 40/40/40 39/39/39 37/37/37
f 43/43/43 42/42/42 41/41/41
f 44/44/44 43/43/43 41/41/41
f 47/47/47 46/46/46 45/45/45
f 48/48/48 47/47/47 45/45/45
f 51/51/51 50/50/50 49/49/49
f 52/52/52 51/51/51 49/49/49
f 55/55/55 54/54/54 53/53/53
f 56/56/56 55/55/55 53/53/53
f 59/59/59 58/58/58 57/57/57
f 60/60/60 59/59/59 57/57/57
f 63/63/63 62/62/62 61/61/61
f 64/64/64 63/63/63 61/61/61
f 67/67/67 66/66/66 65/65/65
f 68/68/68 67/67/67 65/65/65
f 71/71/71 70/70/70 69/69/69
f 72/72/72 71/71/71 69/69/69
f 75/75/75 74/74/74 73/73/73
f 76/76/76 75/75/75 73/73/73
f 79/79/79 78/78/78 77/77/77
f 80/80/80 79/79/79 77/77/77
f 83/83/83 82/82/82 81/81/81
f 84/84/84 83/83/83 81/81/81
f 87/87/87 86/86/86 85/85/85
f 88/88/88 87/87/87 85/85/85
f 91/91/91 90/90/90 89/89/89
f 92/92/92 91/91/91 89/89/89
f 95/95/95 94/94/94 93/93/93
f 96/96/96 95/95/95 93/93/93
f 99/99/99 98/98/98 97/97/97
f 100/100/100 99/99/99 97/97/97
f 103/103/103 102/102/102 101/101/101
f 104/104/104 103/103/103 101/101/101
f 107/107/107 106/106/106 105/105/105
f 108/108/108 107/107/107 105/105/105
f 111/111/111 110/110/110 109/109/109
f 112/112/112 111/111/111 109/109/109
f 115/115/115 114/114/114 113/113/113
f 116/116/116 115/115/115 113/113/113
f 119/119/119 118/118/118 117/117/117
f 120/120/120 119/119/119 117/117/117
f 123/123/123 122/122/122 121/121/121
f 124/124/124 123/123/123 121/121/121
f 127/127/127 126/126/126 125/125/125
f 128/128/128 127/127/127 125/125/125
f 131/131/131 130/130/130 129/129/129
f 132/132/132 131/131/131 129/129/129
f 135/135/135 134/134/134 133/133/133
f 136/136/136 135/135/135 133/133/133
f 139/139/139 138/138/138 137/137/137
f 140/140/140 139/139/139 137/137/137
f 143/143/143 142/142/142 141/141/141
f 144/144/144 143/143/143 141/141/141
f 147/147/147 146/146/146 145/145/145
f 148/148/148 147/147/147 145/145/145
f 151/151/151 150/150/150 149/149/149
f 152/152/152 151/151/151 149/149/149
