g SM_Wep_SMG_Mag_01
v 0.01213087 -0.2031113 0.001665259
v 0.01629111 -0.2032741 0.005326491
v 0.01243214 -0.2033679 0.007433081
v -0.01178116 0.1418528 0.01701713
v -0.01106871 -0.2031124 0.00168994
v -0.01268969 -0.2015264 -0.03397977
v -0.01178116 0.1433734 -0.01865537
v -0.003845855 0.148064 -0.0141649
v 0.003845855 0.148064 -0.0141649
v 0.003845855 0.1467314 0.0174282
v -0.003845855 0.1467314 0.0174282
v -0.001968669 0.1463245 0.02726069
v 0.001968669 0.1463245 0.02726069
v 0.01178116 0.1433734 -0.01865537
v 0.01050988 -0.2015252 -0.03400411
v 0.01213087 -0.2031113 0.001665259
v 0.01178116 0.1418528 0.01701713
v -0.01704155 -0.2108094 -0.04297261
v 0.01629112 -0.212938 0.004896994
v 0.01411424 -0.210808 -0.04300515
v -0.01486467 -0.2129396 0.004929991
v 0.01704158 -0.2137917 0.02409144
v -0.01411422 -0.213793 0.02412433
v 0.01178116 0.1412398 0.03131118
v 0.01268969 -0.2037469 0.01595832
v -0.01050988 -0.203748 0.01598262
v -0.01178116 0.1412398 0.03131118
v -0.01178116 0.1433734 -0.01865537
v -0.01268969 -0.2015264 -0.03397977
v 0.01050988 -0.2015252 -0.03400411
v 0.01178116 0.1433734 -0.01865537
v -0.006616018 0.1431764 -0.0143876
v -0.003845855 0.148064 -0.0141649
v -0.003845855 0.1467314 0.0174282
v -0.006616018 0.1418437 0.0172058
v -0.003386754 0.1414368 0.02703811
v -0.001968669 0.1463245 0.02726069
v 0.001968669 0.1463245 0.02726069
v 0.003386754 0.1414368 0.02703811
v 0.006616018 0.1418437 0.0172058
v 0.003845855 0.1467314 0.0174282
v 0.003845855 0.148064 -0.0141649
v 0.006616018 0.1431764 -0.0143876
v 0.006616018 0.1431764 -0.0143876
v 0.003845855 0.148064 -0.0141649
v -0.003845855 0.148064 -0.0141649
v -0.006616018 0.1431764 -0.0143876
v 0.003386754 0.1414368 0.02703811
v 0.001968669 0.1463245 0.02726069
v 0.003845855 0.1467314 0.0174282
v 0.006616018 0.1418437 0.0172058
v -0.003845855 0.1467314 0.0174282
v -0.001968669 0.1463245 0.02726069
v -0.003386754 0.1414368 0.02703811
v -0.006616018 0.1418437 0.0172058
v 0.01213087 -0.2031113 0.001665259
v 0.01243214 -0.2033679 0.007433081
v 0.01178116 0.1416084 0.02278548
v 0.01178116 0.1418528 0.01701713
v -0.01178116 0.1418528 0.01701713
v -0.01178116 0.1416084 0.02278548
v -0.01076735 -0.2033689 0.00745761
v -0.01106871 -0.2031124 0.00168994
v 0.01243214 -0.2033679 0.007433081
v 0.01268969 -0.2037469 0.01595832
v 0.01178116 0.1412398 0.03131118
v 0.01178116 0.1416084 0.02278548
v -0.01178116 0.1416084 0.02278548
v -0.01178116 0.1412398 0.03131118
v -0.01050988 -0.203748 0.01598262
v -0.01076735 -0.2033689 0.00745761
v 0.01050988 -0.2015252 -0.03400411
v 0.01629111 -0.2032741 0.005326491
v 0.01213087 -0.2031113 0.001665259
v 0.01411422 -0.201144 -0.0425755
v -0.01268969 -0.2015264 -0.03397977
v -0.01704158 -0.2011455 -0.04254277
v -0.01106871 -0.2031124 0.00168994
v -0.01486469 -0.2032756 0.005359526
v 0.01243214 -0.2033679 0.007433081
v 0.01704158 -0.2041277 0.02452124
v 0.01268969 -0.2037469 0.01595832
v -0.01411422 -0.2041293 0.0245542
v -0.01050988 -0.203748 0.01598262
v -0.01076735 -0.2033689 0.00745761
v -0.01486469 -0.2032756 0.005359526
v -0.01106871 -0.2031124 0.00168994
v -0.01050988 -0.203748 0.01598262
v -0.01411422 -0.2041293 0.0245542
v -0.01704158 -0.2011455 -0.04254277
v -0.01704155 -0.2108094 -0.04297261
v 0.01411424 -0.210808 -0.04300515
v 0.01411422 -0.201144 -0.0425755
v 0.01411422 -0.201144 -0.0425755
v 0.01411424 -0.210808 -0.04300515
v 0.01629112 -0.212938 0.004896994
v 0.01629111 -0.2032741 0.005326491
v 0.01704158 -0.2137917 0.02409144
v 0.01704158 -0.2041277 0.02452124
v -0.01486469 -0.2032756 0.005359526
v -0.01704155 -0.2108094 -0.04297261
v -0.01704158 -0.2011455 -0.04254277
v -0.01486467 -0.2129396 0.004929991
v -0.01411422 -0.2041293 0.0245542
v -0.01411422 -0.213793 0.02412433
v 0.01704158 -0.2041277 0.02452124
v 0.01704158 -0.2137917 0.02409144
v -0.01411422 -0.213793 0.02412433
v -0.01411422 -0.2041293 0.0245542
v 0.01178116 0.1433734 -0.01865537
v 0.006616018 0.1431764 -0.0143876
v -0.006616018 0.1431764 -0.0143876
v 0.006616018 0.1418437 0.0172058
v -0.01178116 0.1433734 -0.01865537
v 0.01178116 0.1418528 0.01701713
v -0.006616018 0.1418437 0.0172058
v -0.01178116 0.1418528 0.01701713
v 0.003386754 0.1414368 0.02703811
v -0.003386754 0.1414368 0.02703811
v -0.01178116 0.1416084 0.02278548
v -0.01178116 0.1412398 0.03131118
v 0.01178116 0.1416084 0.02278548
v 0.01178116 0.1412398 0.03131118
vt 0.2434082 0.2285156
vt 0.2434082 0.2285156
vt 0.2434082 0.2285156
vt 0.2452393 0.229248
vt 0.2452393 0.229248
vt 0.2452393 0.229248
vt 0.2452393 0.229248
vt 0.4567871 0.02766418
vt 0.4567871 0.02766418
vt 0.4567871 0.02766418
vt 0.4567871 0.02766418
vt 0.4567871 0.02766418
vt 0.4567871 0.02766418
vt 0.2452393 0.229248
vt 0.2452393 0.229248
vt 0.2452393 0.229248
vt 0.2452393 0.229248
vt 0.2452393 0.229248
vt 0.2452393 0.229248
vt 0.2452393 0.229248
vt 0.2452393 0.229248
vt 0.2452393 0.229248
vt 0.2452393 0.229248
vt 0.2452393 0.229248
vt 0.2452393 0.229248
vt 0.2452393 0.229248
vt 0.2452393 0.229248
vt 0.2452393 0.229248
vt 0.2452393 0.229248
vt 0.2452393 0.229248
vt 0.2452393 0.229248
vt 0.4567871 0.02766418
vt 0.4567871 0.02766418
vt 0.4567871 0.02766418
vt 0.4567871 0.02766418
vt 0.4567871 0.02766418
vt 0.4567871 0.02766418
vt 0.4567871 0.02766418
vt 0.4567871 0.02766418
vt 0.4567871 0.02766418
vt 0.4567871 0.02766418
vt 0.4567871 0.02766418
vt 0.4567871 0.02766418
vt 0.4567871 0.02766418
vt 0.4567871 0.02766418
vt 0.4567871 0.02766418
vt 0.4567871 0.02766418
vt 0.4567871 0.02766418
vt 0.4567871 0.02766418
vt 0.4567871 0.02766418
vt 0.4567871 0.02766418
vt 0.4567871 0.02766418
vt 0.4567871 0.02766418
vt 0.4567871 0.02766418
vt 0.4567871 0.02766418
vt 0.2331543 0.229248
vt 0.2331543 0.229248
vt 0.2331543 0.229248
vt 0.2331543 0.229248
vt 0.2331543 0.229248
vt 0.2331543 0.229248
vt 0.2331543 0.229248
vt 0.2331543 0.229248
vt 0.2452393 0.229248
vt 0.2452393 0.229248
vt 0.2452393 0.229248
vt 0.2452393 0.229248
vt 0.2452393 0.229248
vt 0.2452393 0.229248
vt 0.2452393 0.229248
vt 0.2452393 0.229248
vt 0.2452393 0.229248
vt 0.2452393 0.229248
vt 0.2452393 0.229248
vt 0.2452393 0.229248
vt 0.2452393 0.229248
vt 0.2452393 0.229248
vt 0.2452393 0.229248
vt 0.2452393 0.229248
vt 0.2452393 0.229248
vt 0.2452393 0.229248
vt 0.2452393 0.229248
vt 0.2452393 0.229248
vt 0.2452393 0.229248
vt 0.2434082 0.2285156
vt 0.2434082 0.2285156
vt 0.2434082 0.2285156
vt 0.2434082 0.2285156
vt 0.2434082 0.2285156
vt 0.2452393 0.229248
vt 0.2452393 0.229248
vt 0.2452393 0.229248
vt 0.2452393 0.229248
vt 0.2452393 0.229248
vt 0.2452393 0.229248
vt 0.2452393 0.229248
vt 0.2452393 0.229248
vt 0.2452393 0.229248
vt 0.2452393 0.229248
vt 0.2452393 0.229248
vt 0.2452393 0.229248
vt 0.2452393 0.229248
vt 0.2452393 0.229248
vt 0.2452393 0.229248
vt 0.2452393 0.229248
vt 0.2452393 0.229248
vt 0.2452393 0.229248
vt 0.2452393 0.229248
vt 0.2452393 0.229248
vt 0.2452393 0.229248
vt 0.2452393 0.229248
vt 0.2452393 0.229248
vt 0.2452393 0.229248
vt 0.2452393 0.229248
vt 0.2452393 0.229248
vt 0.2452393 0.229248
vt 0.2452393 0.229248
vt 0.2452393 0.229248
vt 0.2452393 0.229248
vt 0.2452393 0.229248
vt 0.2452393 0.229248
vt 0.2452393 0.229248
vt 0.2452393 0.229248
vn -5.185604E-06 0.9990234 0.04443359
vn -3.457069E-06 0.9990234 0.04443359
vn 0 0.9990234 0.04443359
vn -0.9995117 -0.002189636 0.02432251
vn -0.9995117 -0.002189636 0.02432251
vn -0.9995117 -0.0007238388 0.02268982
vn -0.9995117 -0.0007238388 0.02268982
vn 0 0.9990234 0.04214478
vn 0 0.9990234 0.04214478
vn 0 0.9990234 0.04174805
vn 0 0.9990234 0.04174805
vn 0 0.9990234 0.04135132
vn 0 0.9990234 0.04135132
vn 0.9995117 -0.0003240108 -0.0227356
vn 0.9995117 -0.0003240108 -0.0227356
vn 0.9995117 0.001141548 -0.02436829
vn 0.9995117 0.001141548 -0.02436829
vn 0 -0.9990234 -0.04443359
vn 0 -0.9990234 -0.04443359
vn 0 -0.9990234 -0.04443359
vn 0 -0.9990234 -0.04443359
vn 0 -0.9990234 -0.04443359
vn 0 -0.9990234 -0.04443359
vn 0.0005202293 -0.04443359 0.9990234
vn 0.0005202293 -0.04443359 0.9990234
vn 0.0005202293 -0.04443359 0.9990234
vn 0.0005202293 -0.04443359 0.9990234
vn -0.000521183 0.04443359 -0.9990234
vn -0.000521183 0.04443359 -0.9990234
vn -0.000521183 0.04443359 -0.9990234
vn -0.000521183 0.04443359 -0.9990234
vn -0.8701172 0.4921875 0.02076721
vn -0.8701172 0.4921875 0.02076721
vn -0.8701172 0.4921875 0.02076721
vn -0.8701172 0.4921875 0.02076721
vn 0 -0.04550171 0.9990234
vn 0 -0.04550171 0.9990234
vn 0 -0.04550171 0.9990234
vn 0 -0.04550171 0.9990234
vn 0.8701172 0.4921875 0.02076721
vn 0.8701172 0.4921875 0.02076721
vn 0.8701172 0.4921875 0.02076721
vn 0.8701172 0.4921875 0.02076721
vn 0 0.04553223 -0.9990234
vn 0 0.04553223 -0.9990234
vn 0 0.04553223 -0.9990234
vn 0 0.04553223 -0.9990234
vn 0.8945313 0.3720703 0.2476807
vn 0.8945313 0.3720703 0.2476807
vn 0.8945313 0.3720703 0.2476807
vn 0.8945313 0.3720703 0.2476807
vn -0.8945313 0.3720703 0.2476807
vn -0.8945313 0.3720703 0.2476807
vn -0.8945313 0.3720703 0.2476807
vn -0.8945313 0.3720703 0.2476807
vn 0.9995117 0.001141548 -0.02436829
vn 1 0.002765656 -0.02047729
vn 1 0.002765656 -0.02047729
vn 0.9995117 0.001141548 -0.02436829
vn -0.9995117 -0.002189636 0.02432251
vn -1 -0.003814697 0.02044678
vn -1 -0.003814697 0.02044678
vn -0.9995117 -0.002189636 0.02432251
vn 1 0.002765656 -0.02047729
vn 1 0.002925873 -0.0149765
vn 1 0.002925873 -0.0149765
vn 1 0.002765656 -0.02047729
vn -1 -0.003814697 0.02044678
vn -1 -0.003974915 0.0149231
vn -1 -0.003974915 0.0149231
vn -1 -0.003814697 0.02044678
vn -7.450581E-06 0.9990234 0.04443359
vn -3.457069E-06 0.9990234 0.04443359
vn -5.185604E-06 0.9990234 0.04443359
vn -7.450581E-06 0.9990234 0.04443359
vn 7.56979E-06 0.9990234 0.04443359
vn 7.56979E-06 0.9990234 0.04443359
vn 9.834766E-06 0.9990234 0.04443359
vn 6.556511E-06 0.9990234 0.04443359
vn 0 0.9990234 0.04443359
vn 0 0.9990234 0.04443359
vn 0 0.9990234 0.04443359
vn 0 0.9990234 0.04443359
vn 0 0.9990234 0.04443359
vn 0 0.9990234 0.04443359
vn 6.556511E-06 0.9990234 0.04443359
vn 9.834766E-06 0.9990234 0.04443359
vn 0 0.9990234 0.04443359
vn 0 0.9990234 0.04443359
vn -0.001048088 0.04443359 -0.9990234
vn -0.001048088 0.04443359 -0.9990234
vn -0.001048088 0.04443359 -0.9990234
vn -0.001048088 0.04443359 -0.9990234
vn 0.9990234 0.002016068 -0.0453186
vn 0.9990234 0.002016068 -0.0453186
vn 0.9990234 0.001874924 -0.04214478
vn 0.9990234 0.001874924 -0.04214478
vn 0.9990234 0.001734734 -0.03900146
vn 0.9990234 0.001734734 -0.03900146
vn -0.9990234 -0.001875877 0.04214478
vn -0.9990234 -0.002016068 0.0453186
vn -0.9990234 -0.002016068 0.0453186
vn -0.9990234 -0.001875877 0.04214478
vn -0.9990234 -0.001734734 0.03900146
vn -0.9990234 -0.001734734 0.03900146
vn 0.001057625 -0.04443359 0.9990234
vn 0.001057625 -0.04443359 0.9990234
vn 0.001057625 -0.04443359 0.9990234
vn 0.001057625 -0.04443359 0.9990234
vn -0.0008244514 0.9990234 0.04425049
vn -0.0008244514 0.9990234 0.04425049
vn 0.0008244514 0.9990234 0.04425049
vn -0.0009431839 0.9990234 0.0418396
vn 0.0008244514 0.9990234 0.04425049
vn -0.0002906322 0.9990234 0.04199219
vn 0.0009431839 0.9990234 0.0418396
vn 0.0002906322 0.9990234 0.04199219
vn 0.0005598068 0.9990234 0.04321289
vn -0.0005598068 0.9990234 0.04321289
vn -0.001237869 0.9990234 0.04275513
vn -0.0007309914 0.9990234 0.04464722
vn 0.001237869 0.9990234 0.04275513
vn 0.0007309914 0.9990234 0.04464722
g SM_Wep_SMG_Mag_01_0
f 3/3/3 2/2/2 1/1/1
f 6/6/6 5/5/5 4/4/4
f 7/7/7 6/6/6 4/4/4
f 10/10/10 9/9/9 8/8/8
f 11/11/11 10/10/10 8/8/8
f 11/11/11 12/12/12 10/10/10
f 12/12/12 13/13/13 10/10/10
f 16/16/16 15/15/15 14/14/14
f 17/17/17 16/16/16 14/14/14
f 20/20/20 19/19/19 18/18/18
f 19/19/19 21/21/21 18/18/18
f 19/19/19 22/22/22 21/21/21
f 22/22/22 23/23/23 21/21/21
f 26/26/26 25/25/25 24/24/24
f 27/27/27 26/26/26 24/24/24
f 30/30/30 29/29/29 28/28/28
f 31/31/31 30/30/30 28/28/28
f 34/34/34 33/33/33 32/32/32
f 35/35/35 34/34/34 32/32/32
f 38/38/38 37/37/37 36/36/36
f 39/39/39 38/38/38 36/36/36
f 42/42/42 41/41/41 40/40/40
f 43/43/43 42/42/42 40/40/40
f 46/46/46 45/45/45 44/44/44
f 47/47/47 46/46/46 44/44/44
f 50/50/50 49/49/49 48/48/48
f 51/51/51 50/50/50 48/48/48
f 54/54/54 53/53/53 52/52/52
f 55/55/55 54/54/54 52/52/52
f 58/58/58 57/57/57 56/56/56
f 59/59/59 58/58/58 56/56/56
f 62/62/62 61/61/61 60/60/60
f 63/63/63 62/62/62 60/60/60
f 66/66/66 65/65/65 64/64/64
f 67/67/67 66/66/66 64/64/64
f 70/70/70 69/69/69 68/68/68
f 71/71/71 70/70/70 68/68/68
f 74/74/74 73/73/73 72/72/72
f 73/73/73 75/75/75 72/72/72
f 72/72/72 75/75/75 76/76/76
f 75/75/75 77/77/77 76/76/76
f 76/76/76 77/77/77 78/78/78
f 77/77/77 79/79/79 78/78/78
f 81/81/81 73/73/73 80/80/80
f 82/82/82 81/81/81 80/80/80
f 83/83/83 81/81/81 82/82/82
f 84/84/84 83/83/83 82/82/82
f 87/87/87 86/86/86 85/85/85
f 85/85/85 86/86/86 88/88/88
f 86/86/86 89/89/89 88/88/88
f 92/92/92 91/91/91 90/90/90
f 93/93/93 92/92/92 90/90/90
f 96/96/96 95/95/95 94/94/94
f 97/97/97 96/96/96 94/94/94
f 98/98/98 96/96/96 97/97/97
f 99/99/99 98/98/98 97/97/97
f 102/102/102 101/101/101 100/100/100
f 101/101/101 103/103/103 100/100/100
f 100/100/100 103/103/103 104/104/104
f 103/103/103 105/105/105 104/104/104
f 108/108/108 107/107/107 106/106/106
f 109/109/109 108/108/108 106/106/106
f 112/112/112 111/111/111 110/110/110
f 111/111/111 113/113/113 110/110/110
f 114/114/114 112/112/112 110/110/110
f 113/113/113 115/115/115 110/110/110
f 112/112/112 114/114/114 116/116/116
f 114/114/114 117/117/117 116/116/116
f 113/113/113 118/118/118 115/115/115
f 117/117/117 119/119/119 116/116/116
f 117/117/117 120/120/120 119/119/119
f 120/120/120 121/121/121 119/119/119
f 118/118/118 119/119/119 121/121/121
f 118/118/118 122/122/122 115/115/115
f 123/123/123 118/118/118 121/121/121
f 118/118/118 123/123/123 122/122/122
