g SM_Wep_Crosshair_02
v 0.004232139 0.002443428 0.0004382992
v 0.004232139 -0.002443428 0.0004382992
v 0.004232139 -0.002443428 -0.0004382968
v 0.004232139 0.002443428 -0.0004382968
v 0.004232139 -0.002443428 0.0004382992
v 0 -0.004886856 0.0004382992
v 0 -0.004886856 -0.0004382968
v 0.004232139 -0.002443428 -0.0004382968
v 0 -0.004886856 0.0004382992
v -0.004232139 -0.002443428 0.0004382992
v -0.004232139 -0.002443428 -0.0004382968
v 0 -0.004886856 -0.0004382968
v -0.004232139 -0.002443428 0.0004382992
v -0.004232139 0.002443428 0.0004382992
v -0.004232139 0.002443428 -0.0004382968
v -0.004232139 -0.002443428 -0.0004382968
v -0.004232139 0.002443428 0.0004382992
v 0 0.004886856 0.0004382992
v 0 0.004886856 -0.0004382968
v -0.004232139 0.002443428 -0.0004382968
v 0 0.004886856 0.0004382992
v 0.004232139 0.002443428 0.0004382992
v 0.004232139 0.002443428 -0.0004382968
v 0 0.004886856 -0.0004382968
v 0.005028152 0.002903023 0.0004382992
v 0.005028152 0.002903023 -0.0004382968
v 0.005028152 -0.002903023 -0.0004382968
v 0.005028152 -0.002903023 0.0004382992
v 0.005028152 -0.002903023 0.0004382992
v 0.005028152 -0.002903023 -0.0004382968
v 0 -0.005806007 -0.0004382968
v 0 -0.005806007 0.0004382992
v 0 -0.005806007 0.0004382992
v 0 -0.005806007 -0.0004382968
v -0.005028152 -0.002903023 -0.0004382968
v -0.005028152 -0.002903023 0.0004382992
v -0.005028152 -0.002903023 0.0004382992
v -0.005028152 -0.002903023 -0.0004382968
v -0.005028152 0.002903023 -0.0004382968
v -0.005028152 0.002903023 0.0004382992
v -0.005028152 0.002903023 0.0004382992
v -0.005028152 0.002903023 -0.0004382968
v 0 0.005806007 -0.0004382968
v 0 0.005806007 0.0004382992
v 0 0.005806007 0.0004382992
v 0 0.005806007 -0.0004382968
v 0.005028152 0.002903023 -0.0004382968
v 0.005028152 0.002903023 0.0004382992
v 0.005028152 0.002903023 0.0004382992
v 0.005028152 -0.002903023 0.0004382992
v 0.004232139 -0.002443428 0.0004382992
v 0.004232139 0.002443428 0.0004382992
v 0 -0.004886856 0.0004382992
v 0 0.005806007 0.0004382992
v 0 -0.005806007 0.0004382992
v 0 0.004886856 0.0004382992
v -0.004232139 -0.002443428 0.0004382992
v -0.005028152 0.002903023 0.0004382992
v -0.005028152 -0.002903023 0.0004382992
v -0.004232139 0.002443428 0.0004382992
v 0.005028152 -0.002903023 -0.0004382968
v 0.005028152 0.002903023 -0.0004382968
v 0.004232139 0.002443428 -0.0004382968
v 0.004232139 -0.002443428 -0.0004382968
v 0 0.004886856 -0.0004382968
v 0 -0.005806007 -0.0004382968
v 0 0.005806007 -0.0004382968
v 0 -0.004886856 -0.0004382968
v -0.004232139 0.002443428 -0.0004382968
v -0.005028152 -0.002903023 -0.0004382968
v -0.005028152 0.002903023 -0.0004382968
v -0.004232139 -0.002443428 -0.0004382968
vt 0.3588867 0.2717285
vt 0.3588867 0.2717285
vt 0.3588867 0.2717285
vt 0.3588867 0.2717285
vt 0.3588867 0.2717285
vt 0.3588867 0.2717285
vt 0.3588867 0.2717285
vt 0.3588867 0.2717285
vt 0.3588867 0.2717285
vt 0.3588867 0.2717285
vt 0.3588867 0.2717285
vt 0.3588867 0.2717285
vt 0.3588867 0.2717285
vt 0.3588867 0.2717285
vt 0.3588867 0.2717285
vt 0.3588867 0.2717285
vt 0.3588867 0.2717285
vt 0.3588867 0.2717285
vt 0.3588867 0.2717285
vt 0.3588867 0.2717285
vt 0.3588867 0.2717285
vt 0.3588867 0.2717285
vt 0.3588867 0.2717285
vt 0.3588867 0.2717285
vt 0.3588867 0.2717285
vt 0.3588867 0.2717285
vt 0.3588867 0.2717285
vt 0.3588867 0.2717285
vt 0.3588867 0.2717285
vt 0.3588867 0.2717285
vt 0.3588867 0.2717285
vt 0.3588867 0.2717285
vt 0.3588867 0.2717285
vt 0.3588867 0.2717285
vt 0.3588867 0.2717285
vt 0.3588867 0.2717285
vt 0.3588867 0.2717285
vt 0.3588867 0.2717285
vt 0.3588867 0.2717285
vt 0.3588867 0.2717285
vt 0.3588867 0.2717285
vt 0.3588867 0.2717285
vt 0.3588867 0.2717285
vt 0.3588867 0.2717285
vt 0.3588867 0.2717285
vt 0.3588867 0.2717285
vt 0.3588867 0.2717285
vt 0.3588867 0.2717285
vt 0.3588867 0.2717285
vt 0.3588867 0.2717285
vt 0.3588867 0.2717285
vt 0.3588867 0.2717285
vt 0.3588867 0.2717285
vt 0.3588867 0.2717285
vt 0.3588867 0.2717285
vt 0.3588867 0.2717285
vt 0.3588867 0.2717285
vt 0.3588867 0.2717285
vt 0.3588867 0.2717285
vt 0.3588867 0.2717285
vt 0.3588867 0.2717285
vt 0.3588867 0.2717285
vt 0.3588867 0.2717285
vt 0.3588867 0.2717285
vt 0.3588867 0.2717285
vt 0.3588867 0.2717285
vt 0.3588867 0.2717285
vt 0.3588867 0.2717285
vt 0.3588867 0.2717285
vt 0.3588867 0.2717285
vt 0.3588867 0.2717285
vt 0.3588867 0.2717285
vn -1 0 0
vn -1 0 0
vn -1 0 0
vn -1 0 0
vn -0.5 0.8662109 0
vn -0.5 0.8662109 0
vn -0.5 0.8662109 0
vn -0.5 0.8662109 0
vn 0.5 0.8662109 0
vn 0.5 0.8662109 0
vn 0.5 0.8662109 0
vn 0.5 0.8662109 0
vn 1 0 0
vn 1 0 0
vn 1 0 0
vn 1 0 0
vn 0.5 -0.8662109 0
vn 0.5 -0.8662109 0
vn 0.5 -0.8662109 0
vn 0.5 -0.8662109 0
vn -0.5 -0.8662109 0
vn -0.5 -0.8662109 0
vn -0.5 -0.8662109 0
vn -0.5 -0.8662109 0
vn 1 0 0
vn 1 0 0
vn 1 0 0
vn 1 0 0
vn 0.5 -0.8662109 0
vn 0.5 -0.8662109 0
vn 0.5 -0.8662109 0
vn 0.5 -0.8662109 0
vn -0.5 -0.8662109 0
vn -0.5 -0.8662109 0
vn -0.5 -0.8662109 0
vn -0.5 -0.8662109 0
vn -1 0 0
vn -1 0 0
vn -1 0 0
vn -1 0 0
vn -0.5 0.8662109 0
vn -0.5 0.8662109 0
vn -0.5 0.8662109 0
vn -0.5 0.8662109 0
vn 0.5 0.8662109 0
vn 0.5 0.8662109 0
vn 0.5 0.8662109 0
vn 0.5 0.8662109 0
vn 0 0 1
vn 0 0 1
vn 0 0 1
vn 0 0 1
vn 0 0 1
vn 0 0 1
vn 0 0 1
vn 0 0 1
vn 0 0 1
vn 0 0 1
vn 0 0 1
vn 0 0 1
vn 0 0 -1
vn 0 0 -1
vn 0 0 -1
vn 0 0 -1
vn 0 0 -1
vn 0 0 -1
vn 0 0 -1
vn 0 0 -1
vn 0 0 -1
vn 0 0 -1
vn 0 0 -1
vn 0 0 -1
g SM_Wep_Crosshair_02_0
f 3/3/3 2/2/2 1/1/1
f 4/4/4 3/3/3 1/1/1
f 7/7/7 6/6/6 5/5/5
f 8/8/8 7/7/7 5/5/5
f 11/11/11 10/10/10 9/9/9
f 12/12/12 11/11/11 9/9/9
f 15/15/15 14/14/14 13/13/13
f 16/16/16 15/15/15 13/13/13
f 19/19/19 18/18/18 17/17/17
f 20/20/20 19/19/19 17/17/17
f 23/23/23 22/22/22 21/21/21
f 24/24/24 23/23/23 21/21/21
f 27/27/27 26/26/26 25/25/25
f 28/28/28 27/27/27 25/25/25
f 31/31/31 30/30/30 29/29/29
f 32/32/32 31/31/31 29/29/29
f 35/35/35 34/34/34 33/33/33
f 36/36/36 35/35/35 33/33/33
f 39/39/39 38/38/38 37/37/37
f 40/40/40 39/39/39 37/37/37
f 43/43/43 42/42/42 41/41/41
f 44/44/44 43/43/43 41/41/41
f 47/47/47 46/46/46 45/45/45
f 48/48/48 47/47/47 45/45/45
f 51/51/51 50/50/50 49/49/49
f 52/52/52 51/51/51 49/49/49
f 51/51/51 53/53/53 50/50/50
f 52/52/52 49/49/49 54/54/54
f 53/53/53 55/55/55 50/50/50
f 56/56/56 52/52/52 54/54/54
f 53/53/53 57/57/57 55/55/55
f 56/56/56 54/54/54 58/58/58
f 57/57/57 59/59/59 55/55/55
f 60/60/60 56/56/56 58/58/58
f 60/60/60 58/58/58 59/59/59
f 57/57/57 60/60/60 59/59/59
f 63/63/63 62/62/62 61/61/61
f 64/64/64 63/63/63 61/61/61
f 63/63/63 65/65/65 62/62/62
f 64/64/64 61/61/61 66/66/66
f 65/65/65 67/67/67 62/62/62
f 68/68/68 64/64/64 66/66/66
f 65/65/65 69/69/69 67/67/67
f 68/68/68 66/66/66 70/70/70
f 69/69/69 71/71/71 67/67/67
f 72/72/72 68/68/68 70/70/70
f 72/72/72 70/70/70 71/71/71
f 69/69/69 72/72/72 71/71/71
