g smalldoor_L
v 0.2473404 0.06157086 0.03929329
v 0.2473404 -0.3765279 0.03929329
v 0.1979804 -0.3765279 0.03929333
v 0.1979804 0.06157086 0.03929333
v 0.2473405 0.06157086 8.392334E-08
v 0.2473404 0.06157086 0.03929329
v 0.1979804 0.06157086 0.03929333
v 0.1979804 0.06157086 -4.196167E-08
v 0.2473405 -0.3765279 8.392334E-08
v 0.2473405 0.06157086 8.392334E-08
v 0.1979804 0.06157086 -4.196167E-08
v 0.1979804 -0.3765279 -4.196167E-08
v 0.2473404 -0.3765279 0.03929329
v 0.2473405 -0.3765279 8.392334E-08
v 0.1979804 -0.3765279 -4.196167E-08
v 0.1979804 -0.3765279 0.03929333
v 0.1979804 -0.3765279 0.03929333
v 0.1979804 -0.3765279 -4.196167E-08
v 0.1979804 0.06157086 -4.196167E-08
v 0.1979804 0.06157086 0.03929333
v 0.2473404 -0.3765279 0.03929329
v 0.2473404 0.06157086 0.03929329
v 0.2473405 0.06157086 8.392334E-08
v 0.2473405 -0.3765279 8.392334E-08
v -0.006052929 -0.3364252 -0.006052971
v 4.196167E-08 -0.3364252 -0.008560264
v 4.196167E-08 -0.1913667 -0.008560264
v -0.006052929 -0.1913667 -0.006052971
v 4.196167E-08 -0.3364252 -0.008560264
v 0.006053055 -0.3364252 -0.006052971
v 0.006053055 -0.1913667 -0.006052971
v 4.196167E-08 -0.1913667 -0.008560264
v 0.006053055 -0.3364252 -0.006052971
v 0.008560159 -0.1913667 4.196167E-08
v 0.006053055 -0.1913667 -0.006052971
v 0.008560159 -0.3364252 4.196167E-08
v 0.006053034 -0.1913667 0.006052929
v 0.006053034 -0.3364252 0.006052929
v 0.006053034 -0.3364252 0.006052929
v -2.098083E-08 -0.3364252 0.008560223
v -2.098083E-08 -0.1913667 0.008560223
v 0.006053034 -0.1913667 0.006052929
v -2.098083E-08 -0.3364252 0.008560223
v -0.006052929 -0.3364252 0.006052971
v -0.006052929 -0.1913667 0.006052971
v -2.098083E-08 -0.1913667 0.008560223
v -0.006052929 -0.3364252 0.006052971
v -0.008560264 -0.3364252 8.392334E-08
v -0.008560264 -0.1913667 8.392334E-08
v -0.006052929 -0.1913667 0.006052971
v -0.008560264 -0.3364252 8.392334E-08
v -0.006052929 -0.3364252 -0.006052971
v -0.006052929 -0.1913667 -0.006052971
v -0.008560264 -0.1913667 8.392334E-08
v 0.3427348 0.05173706 0.03640343
v 0.3427348 -0.3666938 0.03640343
v 0.006871496 -0.3666938 0.03640351
v 0.006871496 0.05173706 0.03640351
v 0.3427349 0.05173706 0.001937748
v 0.3427348 0.05173706 0.03640343
v 0.006871496 0.05173706 0.03640351
v 0.006871475 0.05173706 0.001937748
v 0.3427349 -0.3666938 0.001937748
v 0.3427349 0.05173706 0.001937748
v 0.006871475 0.05173706 0.001937748
v 0.006871475 -0.3666938 0.001937748
v 0.3427348 -0.3666938 0.03640343
v 0.3427349 -0.3666938 0.001937748
v 0.006871475 -0.3666938 0.001937748
v 0.006871496 -0.3666938 0.03640351
v 0.006871496 -0.3666938 0.03640351
v 0.006871475 -0.3666938 0.001937748
v 0.006871475 0.05173706 0.001937748
v 0.006871496 0.05173706 0.03640351
v 0.3427348 -0.3666938 0.03640343
v 0.3427348 0.05173706 0.03640343
v 0.3427349 0.05173706 0.001937748
v 0.3427349 -0.3666938 0.001937748
v 0.1465875 0.06157086 0.03929329
v 0.1465875 -0.3765279 0.03929329
v 0.09722752 -0.3765279 0.03929329
v 0.09722752 0.06157086 0.03929329
v 0.1465875 0.06157086 4.196167E-08
v 0.1465875 0.06157086 0.03929329
v 0.09722752 0.06157086 0.03929329
v 0.09722745 0.06157086 4.196167E-08
v 0.1465875 -0.3765279 4.196167E-08
v 0.1465875 0.06157086 4.196167E-08
v 0.09722745 0.06157086 4.196167E-08
v 0.09722745 -0.3765279 4.196167E-08
v 0.1465875 -0.3765279 0.03929329
v 0.1465875 -0.3765279 4.196167E-08
v 0.09722745 -0.3765279 4.196167E-08
v 0.09722752 -0.3765279 0.03929329
v 0.09722752 -0.3765279 0.03929329
v 0.09722745 -0.3765279 4.196167E-08
v 0.09722745 0.06157086 4.196167E-08
v 0.09722752 0.06157086 0.03929329
v 0.1465875 -0.3765279 0.03929329
v 0.1465875 0.06157086 0.03929329
v 0.1465875 0.06157086 4.196167E-08
v 0.1465875 -0.3765279 4.196167E-08
v 0.04936001 0.06157086 0.03929329
v 0.04936001 -0.3765279 0.03929329
v 2.098083E-08 -0.3765279 0.03929329
v 2.098083E-08 0.06157086 0.03929329
v 0.04936014 0.06157086 -4.196167E-08
v 0.04936001 0.06157086 0.03929329
v 2.098083E-08 0.06157086 0.03929329
v 0 0.06157086 -7.81597E-17
v 0.04936014 -0.3765279 -4.196167E-08
v 0.04936014 0.06157086 -4.196167E-08
v 0 0.06157086 -7.81597E-17
v 0 -0.3765279 -7.81597E-17
v 0.04936001 -0.3765279 0.03929329
v 0.04936014 -0.3765279 -4.196167E-08
v 0 -0.3765279 -7.81597E-17
v 2.098083E-08 -0.3765279 0.03929329
v 2.098083E-08 -0.3765279 0.03929329
v 0 -0.3765279 -7.81597E-17
v 0 0.06157086 -7.81597E-17
v 2.098083E-08 0.06157086 0.03929329
v 0.04936001 -0.3765279 0.03929329
v 0.04936001 0.06157086 0.03929329
v 0.04936014 0.06157086 -4.196167E-08
v 0.04936014 -0.3765279 -4.196167E-08
v -0.006052929 -0.1450585 -0.006052971
v 4.196167E-08 -0.1450585 -0.008560264
v 4.196167E-08 0 -0.008560264
v -0.006052929 0 -0.006052971
v 4.196167E-08 -0.1450585 -0.008560264
v 0.006053055 -0.1450585 -0.006052971
v 0.006053055 0 -0.006052971
v 4.196167E-08 0 -0.008560264
v 0.006053055 -0.1450585 -0.006052971
v 0.008560159 0 4.196167E-08
v 0.006053055 0 -0.006052971
v 0.008560159 -0.1450585 4.196167E-08
v 0.006053034 0 0.006052929
v 0.006053034 -0.1450585 0.006052929
v 0.006053034 -0.1450585 0.006052929
v -2.098083E-08 -0.1450585 0.008560223
v -2.098083E-08 0 0.008560223
v 0.006053034 0 0.006052929
v -2.098083E-08 -0.1450585 0.008560223
v -0.006052929 -0.1450585 0.006052971
v -0.006052929 0 0.006052971
v -2.098083E-08 0 0.008560223
v -0.006052929 -0.1450585 0.006052971
v -0.008560264 -0.1450585 8.392334E-08
v -0.008560264 0 8.392334E-08
v -0.006052929 0 0.006052971
v -0.008560264 -0.1450585 8.392334E-08
v -0.006052929 -0.1450585 -0.006052971
v -0.006052929 0 -0.006052971
v -0.008560264 0 8.392334E-08
v 0.3429034 0.06157086 0.03929329
v 0.3429034 -0.3765279 0.03929329
v 0.2950143 -0.3765279 0.03929337
v 0.2950143 0.06157086 0.03929337
v 0.2950143 0.06157086 0.03929337
v 0.2950144 0.06157086 4.196167E-08
v 0.3429034 0.06157086 0.03929329
v 0.3464977 0.06157086 0.01964662
v 0.3429034 0.06157086 -4.196167E-08
v 0.3429034 -0.3765279 -4.196167E-08
v 0.3429034 0.06157086 -4.196167E-08
v 0.2950144 0.06157086 4.196167E-08
v 0.2950144 -0.3765279 4.196167E-08
v 0.2950144 -0.3765279 4.196167E-08
v 0.2950143 -0.3765279 0.03929337
v 0.3429034 -0.3765279 -4.196167E-08
v 0.3464977 -0.3765279 0.01964662
v 0.3429034 -0.3765279 0.03929329
v 0.2950143 -0.3765279 0.03929337
v 0.2950144 -0.3765279 4.196167E-08
v 0.2950144 0.06157086 4.196167E-08
v 0.2950143 0.06157086 0.03929337
v 0.3464977 -0.3765279 0.01964662
v 0.3464977 0.06157086 0.01964662
v 0.3429034 0.06157086 -4.196167E-08
v 0.3429034 -0.3765279 -4.196167E-08
v 0.3429034 -0.3765279 0.03929329
v 0.3429034 0.06157086 0.03929329
v 0.3464977 0.06157086 0.01964662
v 0.3464977 -0.3765279 0.01964662
v 4.196167E-08 -0.3364252 -0.008560264
v -0.006052929 -0.3364252 -0.006052971
v 0 -0.3364252 -7.81597E-17
v 0.006053055 -0.3364252 -0.006052971
v -0.008560264 -0.3364252 8.392334E-08
v 0.008560159 -0.3364252 4.196167E-08
v -0.006052929 -0.3364252 0.006052971
v 0.006053034 -0.3364252 0.006052929
v -2.098083E-08 -0.3364252 0.008560223
v -0.006052929 -0.1913667 -0.006052971
v 4.196167E-08 -0.1913667 -0.008560264
v 0 -0.1913667 -7.81597E-17
v -0.008560264 -0.1913667 8.392334E-08
v 0.006053055 -0.1913667 -0.006052971
v -0.006052929 -0.1913667 0.006052971
v 0.008560159 -0.1913667 4.196167E-08
v -2.098083E-08 -0.1913667 0.008560223
v 0.006053034 -0.1913667 0.006052929
v 4.196167E-08 -0.1450585 -0.008560264
v -0.006052929 -0.1450585 -0.006052971
v 0 -0.1450585 -7.81597E-17
v 0.006053055 -0.1450585 -0.006052971
v -0.008560264 -0.1450585 8.392334E-08
v 0.008560159 -0.1450585 4.196167E-08
v -0.006052929 -0.1450585 0.006052971
v 0.006053034 -0.1450585 0.006052929
v -2.098083E-08 -0.1450585 0.008560223
v -0.006052929 0 -0.006052971
v 4.196167E-08 0 -0.008560264
v 0 0 -7.81597E-17
v -0.008560264 0 8.392334E-08
v 0.006053055 0 -0.006052971
v -0.006052929 0 0.006052971
v 0.008560159 0 4.196167E-08
v -2.098083E-08 0 0.008560223
v 0.006053034 0 0.006052929
vt 0.2478027 0.6591797
vt 0.2922363 0.6591797
vt 0.2922363 0.6640625
vt 0.2478027 0.6640625
vt 0.3381348 0.6079102
vt 0.3383789 0.6040039
vt 0.3432617 0.6040039
vt 0.3432617 0.6079102
vt 0.2478027 0.6171875
vt 0.2922363 0.6171875
vt 0.2922363 0.6220703
vt 0.2478027 0.6220703
vt 0.3212891 0.6210938
vt 0.3212891 0.625
vt 0.3164063 0.625
vt 0.3164063 0.6210938
vt 0.2878418 0.5561523
vt 0.2878418 0.5517578
vt 0.3322754 0.5517578
vt 0.3322754 0.5561523
vt 0.2890625 0.53125
vt 0.3334961 0.53125
vt 0.3334961 0.5356445
vt 0.2890625 0.5356445
vt 0.331543 0.6689453
vt 0.331543 0.6694336
vt 0.3164063 0.6694336
vt 0.3164063 0.6689453
vt 0.331543 0.6694336
vt 0.331543 0.6704102
vt 0.3164063 0.6704102
vt 0.3164063 0.6694336
vt 0.3095703 0.7202148
vt 0.2944336 0.7207031
vt 0.2944336 0.7202148
vt 0.3095703 0.7207031
vt 0.2944336 0.7216797
vt 0.3095703 0.7216797
vt 0.09259033 0.7114258
vt 0.09259033 0.7119141
vt 0.07727051 0.7119141
vt 0.07727051 0.7114258
vt 0.09259033 0.7119141
vt 0.09259033 0.7128906
vt 0.07727051 0.7128906
vt 0.07727051 0.7119141
vt 0.2246094 0.7280273
vt 0.2246094 0.7275391
vt 0.2398682 0.7275391
vt 0.2398682 0.7280273
vt 0.2246094 0.7275391
vt 0.2246094 0.7270508
vt 0.2398682 0.7270508
vt 0.2398682 0.7275391
vt 0.1328125 0.3967285
vt 0.175293 0.3967285
vt 0.175293 0.4309082
vt 0.1328125 0.4309082
vt 0.3310547 0.421875
vt 0.3310547 0.425293
vt 0.296875 0.425293
vt 0.296875 0.421875
vt 0.1328125 0.4399414
vt 0.175293 0.4399414
vt 0.175293 0.473877
vt 0.1328125 0.473877
vt 0.296875 0.4377441
vt 0.296875 0.4343262
vt 0.3310547 0.4343262
vt 0.3310547 0.4377441
vt 0.296875 0.4003906
vt 0.296875 0.3967285
vt 0.3393555 0.3967285
vt 0.3393555 0.4003906
vt 0.296875 0.4091797
vt 0.3393555 0.4091797
vt 0.3393555 0.4128418
vt 0.296875 0.4128418
vt 0.2478027 0.6308594
vt 0.2922363 0.6308594
vt 0.2922363 0.6362305
vt 0.2478027 0.6362305
vt 0.3071289 0.6171875
vt 0.3071289 0.6210938
vt 0.302002 0.6210938
vt 0.302002 0.6171875
vt 0.2478027 0.6450195
vt 0.2922363 0.6450195
vt 0.2922363 0.6499023
vt 0.2478027 0.6499023
vt 0.3212891 0.6469727
vt 0.3212891 0.6508789
vt 0.3164063 0.6508789
vt 0.3164063 0.6469727
vt 0.2302246 0.7104492
vt 0.2302246 0.7143555
vt 0.185791 0.7143555
vt 0.185791 0.7104492
vt 0.02302551 0.7124023
vt 0.06744385 0.7124023
vt 0.06744385 0.7163086
vt 0.02302551 0.7163086
vt 0.2478027 0.6728516
vt 0.2922363 0.6728516
vt 0.2922363 0.6782227
vt 0.2478027 0.6782227
vt 0.2929688 0.5649414
vt 0.2929688 0.5688477
vt 0.2878418 0.5688477
vt 0.2878418 0.5649414
vt 0.2478027 0.6030273
vt 0.2922363 0.6030273
vt 0.2922363 0.6079102
vt 0.2478027 0.6079102
vt 0.3381348 0.5688477
vt 0.3383789 0.5649414
vt 0.3432617 0.5649414
vt 0.3432617 0.5688477
vt 0.2844238 0.7138672
vt 0.2844238 0.7177734
vt 0.2401123 0.7177734
vt 0.2401123 0.7138672
vt 0.07727051 0.6982422
vt 0.1217041 0.6982422
vt 0.1217041 0.7021484
vt 0.07727051 0.7021484
vt 0.175415 0.5791016
vt 0.175415 0.5786133
vt 0.1907959 0.5786133
vt 0.1907959 0.5791016
vt 0.175415 0.5786133
vt 0.175415 0.578125
vt 0.1907959 0.578125
vt 0.1907959 0.5786133
vt 0.3408203 0.4333496
vt 0.3562012 0.4326172
vt 0.3562012 0.4333496
vt 0.3408203 0.4326172
vt 0.3562012 0.4321289
vt 0.3408203 0.4321289
vt 0.2000732 0.5791016
vt 0.2000732 0.5786133
vt 0.215332 0.5786133
vt 0.215332 0.5791016
vt 0.2000732 0.5786133
vt 0.2000732 0.578125
vt 0.215332 0.578125
vt 0.215332 0.5786133
vt 0.215332 0.7231445
vt 0.215332 0.7241211
vt 0.2000732 0.7241211
vt 0.2000732 0.7231445
vt 0.215332 0.7241211
vt 0.215332 0.7246094
vt 0.2000732 0.7246094
vt 0.2000732 0.7241211
vt 0.02302551 0.6982422
vt 0.06744385 0.6982422
vt 0.06744385 0.703125
vt 0.02302551 0.703125
vt 0.3435059 0.5170898
vt 0.3435059 0.5209961
vt 0.338623 0.5170898
vt 0.3381348 0.519043
vt 0.338623 0.5209961
vt 0.2452393 0.6870117
vt 0.2895508 0.6870117
vt 0.2895508 0.6918945
vt 0.2452393 0.6918945
vt 0.3435059 0.5039063
vt 0.3435059 0.5078125
vt 0.338623 0.5039063
vt 0.3381348 0.5058594
vt 0.338623 0.5078125
vt 0.1315918 0.7143555
vt 0.1315918 0.7104492
vt 0.1760254 0.7104492
vt 0.1760254 0.7143555
vt 0.2452393 0.703125
vt 0.2900391 0.703125
vt 0.2900391 0.7050781
vt 0.2452393 0.7050781
vt 0.2452393 0.7006836
vt 0.2900391 0.7006836
vt 0.2900391 0.703125
vt 0.2452393 0.703125
vt 0.3444824 0.4423828
vt 0.3449707 0.4428711
vt 0.3442383 0.4431152
vt 0.3439941 0.4423828
vt 0.3449707 0.4433594
vt 0.3435059 0.4428711
vt 0.3444824 0.4438477
vt 0.3435059 0.4433594
vt 0.3439941 0.4438477
vt 0.3537598 0.496582
vt 0.3537598 0.4958496
vt 0.3544922 0.4960938
vt 0.354248 0.4970703
vt 0.354248 0.4953613
vt 0.3549805 0.4970703
vt 0.3549805 0.4953613
vt 0.3554688 0.496582
vt 0.3554688 0.4958496
vt 0.3452148 0.463623
vt 0.3459473 0.463623
vt 0.345459 0.4643555
vt 0.3447266 0.4641113
vt 0.3464355 0.4641113
vt 0.3447266 0.4645996
vt 0.3464355 0.4645996
vt 0.3452148 0.4650879
vt 0.3459473 0.4650879
vt 0.3496094 0.3967285
vt 0.3500977 0.3972168
vt 0.3493652 0.3974609
vt 0.3491211 0.3967285
vt 0.3500977 0.3979492
vt 0.3486328 0.3972168
vt 0.3496094 0.3984375
vt 0.3486328 0.3979492
vt 0.3491211 0.3984375
vn 0 0 1
vn 0 0 1
vn 0 0 1
vn 0 0 1
vn 0 1 -2.682209E-06
vn 0 1 -2.682209E-06
vn 0 1 -2.682209E-06
vn 0 1 -2.682209E-06
vn 2.741814E-06 0 -1
vn 2.741814E-06 0 -1
vn 2.741814E-06 0 -1
vn 2.741814E-06 0 -1
vn 0 -1 -1.013279E-06
vn 0 -1 -1.013279E-06
vn 0 -1 -1.013279E-06
vn 0 -1 -1.013279E-06
vn -1 0 0
vn -1 0 0
vn -1 0 0
vn -1 0 0
vn 1 0 2.145767E-06
vn 1 0 2.145767E-06
vn 1 0 2.145767E-06
vn 1 0 2.145767E-06
vn -0.7070313 0 -0.7070313
vn 0 0 -1
vn 0 0 -1
vn -0.7070313 0 -0.7070313
vn 0 0 -1
vn 0.7070313 0 -0.7070313
vn 0.7070313 0 -0.7070313
vn 0 0 -1
vn 0.7070313 0 -0.7070313
vn 1 0 1.847744E-06
vn 0.7070313 0 -0.7070313
vn 1 0 1.847744E-06
vn 0.7070313 0 0.7070313
vn 0.7070313 0 0.7070313
vn 0.7070313 0 0.7070313
vn 4.23193E-06 0 1
vn 4.23193E-06 0 1
vn 0.7070313 0 0.7070313
vn 4.23193E-06 0 1
vn -0.7070313 0 0.7070313
vn -0.7070313 0 0.7070313
vn 4.23193E-06 0 1
vn -0.7070313 0 0.7070313
vn -1 0 0
vn -1 0 0
vn -0.7070313 0 0.7070313
vn -1 0 0
vn -0.7070313 0 -0.7070313
vn -0.7070313 0 -0.7070313
vn -1 0 0
vn 2.384186E-07 0 1
vn 2.384186E-07 0 1
vn 2.384186E-07 0 1
vn 2.384186E-07 0 1
vn 0 1 -1.490116E-06
vn 0 1 -1.490116E-06
vn 0 1 -1.490116E-06
vn 0 1 -1.490116E-06
vn 0 0 -1
vn 0 0 -1
vn 0 0 -1
vn 0 0 -1
vn 0 -1 0
vn 0 -1 0
vn 0 -1 0
vn 0 -1 0
vn -1 0 5.960464E-07
vn -1 0 5.960464E-07
vn -1 0 5.960464E-07
vn -1 0 5.960464E-07
vn 1 0 1.192093E-06
vn 1 0 1.192093E-06
vn 1 0 1.192093E-06
vn 1 0 1.192093E-06
vn 0 0 1
vn 0 0 1
vn 0 0 1
vn 0 0 1
vn 0 1 1.370907E-06
vn 0 1 1.370907E-06
vn 0 1 1.370907E-06
vn 0 1 1.370907E-06
vn 0 0 -1
vn 0 0 -1
vn 0 0 -1
vn 0 0 -1
vn 0 -1 5.364418E-07
vn 0 -1 5.364418E-07
vn 0 -1 5.364418E-07
vn 0 -1 5.364418E-07
vn -1 0 1.609325E-06
vn -1 0 1.609325E-06
vn -1 0 1.609325E-06
vn -1 0 1.609325E-06
vn 1 0 -1.072884E-06
vn 1 0 -1.072884E-06
vn 1 0 -1.072884E-06
vn 1 0 -1.072884E-06
vn 0 0 1
vn 0 0 1
vn 0 0 1
vn 0 0 1
vn 0 1 -4.053116E-06
vn 0 1 -4.053116E-06
vn 0 1 -4.053116E-06
vn 0 1 -4.053116E-06
vn -1.370907E-06 0 -1
vn -1.370907E-06 0 -1
vn -1.370907E-06 0 -1
vn -1.370907E-06 0 -1
vn 0 -1 -1.549721E-06
vn 0 -1 -1.549721E-06
vn 0 -1 -1.549721E-06
vn 0 -1 -1.549721E-06
vn -1 0 5.364418E-07
vn -1 0 5.364418E-07
vn -1 0 5.364418E-07
vn -1 0 5.364418E-07
vn 1 0 3.218651E-06
vn 1 0 3.218651E-06
vn 1 0 3.218651E-06
vn 1 0 3.218651E-06
vn -0.7070313 0 -0.7070313
vn 0 0 -1
vn 0 0 -1
vn -0.7070313 0 -0.7070313
vn 0 0 -1
vn 0.7070313 0 -0.7070313
vn 0.7070313 0 -0.7070313
vn 0 0 -1
vn 0.7070313 0 -0.7070313
vn 1 0 1.549721E-06
vn 0.7070313 0 -0.7070313
vn 1 0 1.549721E-06
vn 0.7070313 0 0.7070313
vn 0.7070313 0 0.7070313
vn 0.7070313 0 0.7070313
vn 4.23193E-06 0 1
vn 4.23193E-06 0 1
vn 0.7070313 0 0.7070313
vn 4.23193E-06 0 1
vn -0.7070313 0 0.7070313
vn -0.7070313 0 0.7070313
vn 4.23193E-06 0 1
vn -0.7070313 0 0.7070313
vn -1 0 0
vn -1 0 0
vn -0.7070313 0 0.7070313
vn -1 0 0
vn -0.7070313 0 -0.7070313
vn -0.7070313 0 -0.7070313
vn -1 0 0
vn 1.430511E-06 0 1
vn 1.430511E-06 0 1
vn 1.430511E-06 0 1
vn 1.430511E-06 0 1
vn 0 1 2.741814E-06
vn 0 1 3.159046E-06
vn 0 1 1.430511E-05
vn 0 1 1.15037E-05
vn 0 1 -1.960993E-05
vn -2.801418E-06 0 -1
vn -2.801418E-06 0 -1
vn -2.801418E-06 0 -1
vn -2.801418E-06 0 -1
vn 0 -1 1.072884E-06
vn 0 -1 2.205372E-06
vn 0 -1 1.341105E-05
vn 0 -1 1.215935E-05
vn 0 -1 -1.764297E-05
vn -1 0 -1.072884E-06
vn -1 0 -1.072884E-06
vn -1 0 -1.072884E-06
vn -1 0 -1.072884E-06
vn 0.9838867 0 -0.1799316
vn 0.9838867 0 -0.1799316
vn 0.9838867 0 -0.1799316
vn 0.9838867 0 -0.1799316
vn 0.9838867 0 0.1799316
vn 0.9838867 0 0.1799316
vn 0.9838867 0 0.1799316
vn 0.9838867 0 0.1799316
vn 0 -1 3.564358E-05
vn 0 -1 -8.881092E-06
vn 0 -1 8.881092E-06
vn 0 -1 2.670288E-05
vn 0 -1 0
vn 0 -1 0
vn 0 -1 8.881092E-06
vn 0 -1 8.881092E-06
vn 0 -1 0
vn 0 1 -8.881092E-06
vn 0 1 3.564358E-05
vn 0 1 2.205372E-06
vn 0 1 0
vn 0 1 2.670288E-05
vn 0 1 -2.670288E-05
vn 0 1 -2.670288E-05
vn 0 1 0
vn 0 1 1.782179E-05
vn 0 -1 3.564358E-05
vn 0 -1 1.782179E-05
vn 0 -1 4.470348E-06
vn 0 -1 -1.782179E-05
vn 0 -1 0
vn 0 -1 -1.782179E-05
vn 0 -1 -1.782179E-05
vn 0 -1 3.564358E-05
vn 0 -1 0
vn 0 1 -3.564358E-05
vn 0 1 0
vn 0 1 0
vn 0 1 0
vn 0 1 -3.564358E-05
vn 0 1 3.564358E-05
vn 0 1 0
vn 0 1 0
vn 0 1 3.564358E-05
g smalldoor_L_0
f 3/3/3 2/2/2 1/1/1
f 4/4/4 3/3/3 1/1/1
f 7/7/7 6/6/6 5/5/5
f 8/8/8 7/7/7 5/5/5
f 11/11/11 10/10/10 9/9/9
f 12/12/12 11/11/11 9/9/9
f 15/15/15 14/14/14 13/13/13
f 16/16/16 15/15/15 13/13/13
f 19/19/19 18/18/18 17/17/17
f 20/20/20 19/19/19 17/17/17
f 23/23/23 22/22/22 21/21/21
f 24/24/24 23/23/23 21/21/21
f 27/27/27 26/26/26 25/25/25
f 28/28/28 27/27/27 25/25/25
f 31/31/31 30/30/30 29/29/29
f 32/32/32 31/31/31 29/29/29
f 35/35/35 34/34/34 33/33/33
f 34/34/34 36/36/36 33/33/33
f 34/34/34 37/37/37 36/36/36
f 37/37/37 38/38/38 36/36/36
f 41/41/41 40/40/40 39/39/39
f 42/42/42 41/41/41 39/39/39
f 45/45/45 44/44/44 43/43/43
f 46/46/46 45/45/45 43/43/43
f 49/49/49 48/48/48 47/47/47
f 50/50/50 49/49/49 47/47/47
f 53/53/53 52/52/52 51/51/51
f 54/54/54 53/53/53 51/51/51
f 57/57/57 56/56/56 55/55/55
f 58/58/58 57/57/57 55/55/55
f 61/61/61 60/60/60 59/59/59
f 62/62/62 61/61/61 59/59/59
f 65/65/65 64/64/64 63/63/63
f 66/66/66 65/65/65 63/63/63
f 69/69/69 68/68/68 67/67/67
f 70/70/70 69/69/69 67/67/67
f 73/73/73 72/72/72 71/71/71
f 74/74/74 73/73/73 71/71/71
f 77/77/77 76/76/76 75/75/75
f 78/78/78 77/77/77 75/75/75
f 81/81/81 80/80/80 79/79/79
f 82/82/82 81/81/81 79/79/79
f 85/85/85 84/84/84 83/83/83
f 86/86/86 85/85/85 83/83/83
f 89/89/89 88/88/88 87/87/87
f 90/90/90 89/89/89 87/87/87
f 93/93/93 92/92/92 91/91/91
f 94/94/94 93/93/93 91/91/91
f 97/97/97 96/96/96 95/95/95
f 98/98/98 97/97/97 95/95/95
f 101/101/101 100/100/100 99/99/99
f 102/102/102 101/101/101 99/99/99
f 105/105/105 104/104/104 103/103/103
f 106/106/106 105/105/105 103/103/103
f 109/109/109 108/108/108 107/107/107
f 110/110/110 109/109/109 107/107/107
f 113/113/113 112/112/112 111/111/111
f 114/114/114 113/113/113 111/111/111
f 117/117/117 116/116/116 115/115/115
f 118/118/118 117/117/117 115/115/115
f 121/121/121 120/120/120 119/119/119
f 122/122/122 121/121/121 119/119/119
f 125/125/125 124/124/124 123/123/123
f 126/126/126 125/125/125 123/123/123
f 129/129/129 128/128/128 127/127/127
f 130/130/130 129/129/129 127/127/127
f 133/133/133 132/132/132 131/131/131
f 134/134/134 133/133/133 131/131/131
f 137/137/137 136/136/136 135/135/135
f 136/136/136 138/138/138 135/135/135
f 136/136/136 139/139/139 138/138/138
f 139/139/139 140/140/140 138/138/138
f 143/143/143 142/142/142 141/141/141
f 144/144/144 143/143/143 141/141/141
f 147/147/147 146/146/146 145/145/145
f 148/148/148 147/147/147 145/145/145
f 151/151/151 150/150/150 149/149/149
f 152/152/152 151/151/151 149/149/149
f 155/155/155 154/154/154 153/153/153
f 156/156/156 155/155/155 153/153/153
f 159/159/159 158/158/158 157/157/157
f 160/160/160 159/159/159 157/157/157
f 163/163/163 162/162/162 161/161/161
f 164/164/164 162/162/162 163/163/163
f 162/162/162 164/164/164 165/165/165
f 168/168/168 167/167/167 166/166/166
f 169/169/169 168/168/168 166/166/166
f 172/172/172 171/171/171 170/170/170
f 173/173/173 171/171/171 172/172/172
f 171/171/171 173/173/173 174/174/174
f 177/177/177 176/176/176 175/175/175
f 178/178/178 177/177/177 175/175/175
f 181/181/181 180/180/180 179/179/179
f 182/182/182 181/181/181 179/179/179
f 185/185/185 184/184/184 183/183/183
f 186/186/186 185/185/185 183/183/183
f 189/189/189 188/188/188 187/187/187
f 189/189/189 187/187/187 190/190/190
f 189/189/189 191/191/191 188/188/188
f 189/189/189 190/190/190 192/192/192
f 189/189/189 193/193/193 191/191/191
f 189/189/189 192/192/192 194/194/194
f 189/189/189 195/195/195 193/193/193
f 189/189/189 194/194/194 195/195/195
f 198/198/198 197/197/197 196/196/196
f 198/198/198 196/196/196 199/199/199
f 198/198/198 200/200/200 197/197/197
f 198/198/198 199/199/199 201/201/201
f 198/198/198 202/202/202 200/200/200
f 198/198/198 201/201/201 203/203/203
f 198/198/198 204/204/204 202/202/202
f 198/198/198 203/203/203 204/204/204
f 207/207/207 206/206/206 205/205/205
f 207/207/207 205/205/205 208/208/208
f 207/207/207 209/209/209 206/206/206
f 207/207/207 208/208/208 210/210/210
f 207/207/207 211/211/211 209/209/209
f 207/207/207 210/210/210 212/212/212
f 207/207/207 213/213/213 211/211/211
f 207/207/207 212/212/212 213/213/213
f 216/216/216 215/215/215 214/214/214
f 216/216/216 214/214/214 217/217/217
f 216/216/216 218/218/218 215/215/215
f 216/216/216 217/217/217 219/219/219
f 216/216/216 220/220/220 218/218/218
f 216/216/216 219/219/219 221/221/221
f 216/216/216 222/222/222 220/220/220
f 216/216/216 221/221/221 222/222/222
