g SnakeTeethLower
v 0.06839778 -0.7919436 0.5659963
v 0.07456937 -0.7820627 0.5462909
v 0.05023892 -0.7845443 0.5598516
v 0.09685134 -0.7842 0.5518827
v 0.08813918 -0.8145369 0.5630412
v 0.07378238 -0.8272268 0.5800238
v 0.08129286 -0.8338409 0.6036128
v 0.0783682 -0.8567019 0.6290174
v 0.08030556 -0.8483632 0.6621342
v 0.08576093 -0.8379208 0.5827011
v 0.09799577 -0.8406463 0.5911134
v 0.08591375 -0.8619304 0.6395842
v 0.09591811 -0.8556479 0.6410623
v 0.09371084 -0.8227525 0.6144912
v 0.08129286 -0.8338409 0.6036128
v 0.06839778 -0.7919436 0.5659963
v 0.10527 -0.776439 0.5683311
v 0.1136203 -0.7638477 0.5586905
v 0.1026706 -0.7701817 0.5888156
v 0.114087 -0.7462898 0.5605217
v 0.1077336 -0.718634 0.5677509
v 0.1018425 -0.8239173 0.6030661
v 0.08768404 -0.7806735 0.5945789
v 0.08784867 -0.752364 0.5875586
v 0.07009776 -0.7676393 0.5829382
v 0.05023892 -0.7845443 0.5598516
v 0.09805098 -0.7400445 0.5799674
v 0.04531485 -0.7454596 0.5747827
v 0.04688852 -0.7626497 0.5585369
v 0.0610664 -0.7355992 0.5824212
v 0.05957583 -0.721847 0.5719287
v 0.07964916 -0.721101 0.5820749
v 0.09330572 -0.7076404 0.5673923
v -0.04495995 -0.7477435 0.5735571
v -0.04873587 -0.7587525 0.5543538
v -0.04966199 -0.784766 0.5604525
v -0.05218981 -0.7684747 0.5722148
v -0.06203383 -0.7346367 0.5831605
v -0.05919178 -0.7225752 0.5727661
v -0.08185543 -0.7202527 0.5820447
v -0.06961875 -0.7791437 0.5716751
v -0.07519796 -0.7678263 0.5855809
v -0.1012045 -0.7692205 0.5915931
v -0.1043077 -0.7461294 0.5788552
v -0.09089027 -0.7853789 0.5976627
v -0.107812 -0.7184187 0.5669036
v -0.09316677 -0.7075703 0.5671208
v -0.1135326 -0.7435308 0.5616545
v -0.1135035 -0.7642201 0.5587238
v -0.06794746 -0.7920762 0.5662263
v -0.07463139 -0.7817597 0.5455737
v -0.09764361 -0.7839141 0.5525079
v -0.07231213 -0.8201573 0.579027
v -0.08674937 -0.8187958 0.5648172
v -0.09733669 -0.8411702 0.591169
v -0.1041453 -0.813098 0.5918212
v -0.09924705 -0.8317536 0.6110711
v -0.09300201 -0.8241409 0.6152853
v -0.08417017 -0.836708 0.5818086
v -0.095514 -0.856285 0.6352117
v -0.08997984 -0.8530587 0.6554403
v -0.08117913 -0.8606801 0.6358007
v -0.07595001 -0.8525779 0.6518982
v -0.0778572 -0.8409082 0.6000999
v -0.08211983 -0.8460708 0.6590642
v -0.08997984 -0.8530587 0.6554403
v -0.09924705 -0.8317536 0.6110711
v -0.1041453 -0.813098 0.5918212
v -0.1054058 -0.7770925 0.5696121
v -0.09764361 -0.7839141 0.5525079
vt 0.03271699 0.6384503
vt 0.04211899 0.6314437
vt 0.02811058 0.6294498
vt 0.0518857 0.6402642
vt 0.04042511 0.6507741
vt 0.02954603 0.6574806
vt 0.02118714 0.6662549
vt 0.02499033 0.6803465
vt 0.0220457 0.698103
vt 0.0347986 0.662784
vt 0.03901729 0.6682582
vt 0.0266612 0.68535
vt 0.03059845 0.6866608
vt 0.04896862 0.6800789
vt 0.05323803 0.6888808
vt 0.07859199 0.6823128
vt 0.06080316 0.6468278
vt 0.06569579 0.6394704
vt 0.06807284 0.6559067
vt 0.07405475 0.6371902
vt 0.08831713 0.6362302
vt 0.04739018 0.6728138
vt 0.06915289 0.6673627
vt 0.07969505 0.6565344
vt 0.0816475 0.6685443
vt 0.0876939 0.6848006
vt 0.08201206 0.6479355
vt 0.09851775 0.668872
vt 0.09661591 0.679645
vt 0.09513436 0.6601346
vt 0.1029164 0.6569082
vt 0.09525442 0.6493294
vt 0.09696683 0.6380534
vt 0.3636708 0.3871233
vt 0.3560127 0.3821834
vt 0.3480691 0.3903958
vt 0.3557603 0.3921914
vt 0.3706421 0.3935319
vt 0.3754704 0.3882776
vt 0.3801455 0.3975658
vt 0.3506922 0.3995268
vt 0.3585489 0.4039661
vt 0.3628764 0.4151782
vt 0.3745561 0.4116946
vt 0.3539524 0.4160387
vt 0.387605 0.4078965
vt 0.3896075 0.400375
vt 0.3816267 0.4167545
vt 0.3765709 0.4236099
vt 0.3441802 0.3985586
vt 0.3395836 0.3880666
vt 0.3302914 0.3891505
vt 0.336551 0.4103251
vt 0.3313793 0.404206
vt 0.3214086 0.4145245
vt 0.3165348 0.4040365
vt 0.3120003 0.4165559
vt 0.3383507 0.4292242
vt 0.3287399 0.413275
vt 0.3142924 0.4312681
vt 0.3099566 0.4397494
vt 0.3187027 0.4345116
vt 0.3192945 0.4419836
vt 0.3288184 0.4211771
vt 0.322716 0.4446107
vt 0.3249957 0.4481481
vt 0.3400345 0.4333904
vt 0.3518879 0.431421
vt 0.3686191 0.4246235
vt 0.3725371 0.4325216
vn -0.7367275 -0.6738622 -0.05605699
vn -0.04592529 -0.887135 -0.4592195
vn -0.622727 -0.6721687 0.4005002
vn 0.5417942 -0.5643131 -0.6229043
vn 0.06191396 -0.4858239 -0.8718611
vn -0.861487 -0.4038347 -0.3078277
vn -0.8208511 0.4316481 0.3740099
vn -0.7856078 -0.5940969 -0.1728273
vn -0.2524786 0.06832428 0.9651872
vn -0.1238063 -0.7816464 -0.6113109
vn 0.6625577 -0.6477502 -0.376081
vn -0.05293313 -0.9894843 0.1346073
vn 0.8646175 -0.3844348 0.3234911
vn 0.0647409 0.6445592 0.7618084
vn -0.8208511 0.4316481 0.3740099
vn -0.7367275 -0.6738622 -0.05605699
vn 0.9391746 -0.3428991 -0.01926901
vn 0.9351275 -0.2894945 0.2042777
vn 0.7560007 0.167001 0.6329088
vn 0.9145121 0.03978613 0.4025975
vn 0.5439557 0.3277653 0.7724521
vn 0.9785218 0.007245545 0.2060159
vn -0.7820016 0.07370767 0.6189027
vn 0.02609121 0.2831839 0.9587107
vn -0.4998182 -0.1890559 0.8452453
vn -0.622727 -0.6721687 0.4005002
vn 0.3103221 0.3002966 0.9019547
vn -0.6145458 -0.07027337 0.7857449
vn -0.9872255 -0.1474432 0.06038458
vn -0.356135 0.2401002 0.9030613
vn -0.4810472 0.4982349 0.7213567
vn 0.1075183 0.2465433 0.9631491
vn 0.3591762 0.4971367 0.7898402
vn 0.6792998 -0.09100959 0.7281957
vn 0.9856558 -0.0709869 -0.1531124
vn 0.6292942 -0.6702139 0.3934492
vn 0.552152 -0.3608072 0.7516291
vn 0.3671036 0.2356876 0.8998257
vn 0.5009963 0.4942186 0.7104582
vn -0.1697893 0.256935 0.9513969
vn 0.6011466 -0.346456 0.7201326
vn 0.4705965 -0.1551397 0.8686027
vn -0.5639113 0.2318492 0.7926221
vn -0.6200113 0.244697 0.7454591
vn 0.4529405 0.2839704 0.845107
vn -0.5715059 0.3324559 0.750236
vn -0.4005812 0.5257605 0.750407
vn -0.8974881 0.05708548 0.4373287
vn -0.9372861 -0.2758025 0.2131374
vn 0.7881159 -0.6014287 -0.1309842
vn 0.03106904 -0.890109 -0.4546874
vn -0.5631257 -0.5681068 -0.60012
vn 0.960499 -0.2559436 -0.1092454
vn -0.007482213 -0.5195373 -0.8544151
vn -0.6270486 -0.6809297 -0.3783449
vn -0.9954967 -0.09477677 0.001901235
vn -0.9676682 0.0489052 0.24744
vn 0.02934974 0.628 0.7776596
vn 0.2667036 -0.7566556 -0.5969434
vn -0.7854711 -0.6147371 0.07164801
vn -0.5770879 -0.3679214 0.7291114
vn 0.368019 -0.9283971 -0.05139041
vn 0.8480762 -0.2823738 0.4483656
vn 0.9566382 -0.2825098 -0.07093306
vn 0.1945867 0.3767169 0.9056602
vn -0.5770879 -0.3679214 0.7291114
vn -0.9676682 0.0489052 0.24744
vn -0.9954967 -0.09477677 0.001901235
vn -0.9545205 -0.2980012 0.009265707
vn -0.5631257 -0.5681068 -0.60012
g SnakeTeethLower_0
f 3/3/3 2/2/2 1/1/1
f 2/2/2 4/4/4 1/1/1
f 5/5/5 1/1/1 4/4/4
f 1/1/1 5/5/5 6/6/6
f 6/6/6 7/7/7 1/1/1
f 7/7/7 6/6/6 8/8/8
f 7/7/7 8/8/8 9/9/9
f 6/6/6 5/5/5 10/10/10
f 6/6/6 10/10/10 8/8/8
f 5/5/5 4/4/4 11/11/11
f 10/10/10 5/5/5 11/11/11
f 8/8/8 10/10/10 12/12/12
f 9/9/9 8/8/8 12/12/12
f 12/12/12 10/10/10 11/11/11
f 9/9/9 12/12/12 13/13/13
f 11/11/11 13/13/13 12/12/12
f 9/9/9 13/13/13 14/14/14
f 9/9/9 14/14/14 15/15/15
f 16/16/16 15/15/15 14/14/14
f 11/11/11 4/4/4 17/17/17
f 4/4/4 18/18/18 17/17/17
f 18/18/18 19/19/19 17/17/17
f 19/19/19 18/18/18 20/20/20
f 21/21/21 19/19/19 20/20/20
f 13/13/13 11/11/11 22/22/22
f 17/17/17 22/22/22 11/11/11
f 13/13/13 22/22/22 14/14/14
f 22/22/22 17/17/17 19/19/19
f 19/19/19 14/14/14 22/22/22
f 14/14/14 23/23/23 16/16/16
f 24/24/24 14/14/14 19/19/19
f 23/23/23 14/14/14 24/24/24
f 23/23/23 25/25/25 16/16/16
f 25/25/25 23/23/23 24/24/24
f 25/25/25 26/26/26 16/16/16
f 21/21/21 27/27/27 19/19/19
f 24/24/24 19/19/19 27/27/27
f 26/26/26 25/25/25 28/28/28
f 26/26/26 28/28/28 29/29/29
f 25/25/25 24/24/24 30/30/30
f 25/25/25 30/30/30 28/28/28
f 27/27/27 30/30/30 24/24/24
f 31/31/31 28/28/28 30/30/30
f 31/31/31 30/30/30 32/32/32
f 30/30/30 27/27/27 32/32/32
f 32/32/32 27/27/27 21/21/21
f 32/32/32 21/21/21 33/33/33
f 36/36/36 35/35/35 34/34/34
f 36/36/36 34/34/34 37/37/37
f 37/37/37 34/34/34 38/38/38
f 38/38/38 34/34/34 39/39/39
f 39/39/39 40/40/40 38/38/38
f 36/36/36 37/37/37 41/41/41
f 37/37/37 38/38/38 42/42/42
f 37/37/37 42/42/42 41/41/41
f 43/43/43 42/42/42 38/38/38
f 44/44/44 43/43/43 38/38/38
f 44/44/44 38/38/38 40/40/40
f 43/43/43 45/45/45 42/42/42
f 41/41/41 42/42/42 45/45/45
f 46/46/46 44/44/44 40/40/40
f 46/46/46 40/40/40 47/47/47
f 46/46/46 48/48/48 44/44/44
f 44/44/44 48/48/48 43/43/43
f 48/48/48 49/49/49 43/43/43
f 41/41/41 50/50/50 36/36/36
f 50/50/50 51/51/51 36/36/36
f 52/52/52 51/51/51 50/50/50
f 41/41/41 45/45/45 53/53/53
f 53/53/53 50/50/50 41/41/41
f 52/52/52 50/50/50 54/54/54
f 54/54/54 50/50/50 53/53/53
f 54/54/54 55/55/55 52/52/52
f 52/52/52 55/55/55 56/56/56
f 56/56/56 55/55/55 57/57/57
f 43/43/43 58/58/58 45/45/45
f 58/58/58 53/53/53 45/45/45
f 54/54/54 53/53/53 59/59/59
f 55/55/55 54/54/54 59/59/59
f 57/57/57 55/55/55 60/60/60
f 61/61/61 57/57/57 60/60/60
f 60/60/60 55/55/55 62/62/62
f 61/61/61 60/60/60 62/62/62
f 55/55/55 59/59/59 62/62/62
f 61/61/61 62/62/62 63/63/63
f 59/59/59 53/53/53 64/64/64
f 64/64/64 62/62/62 59/59/59
f 62/62/62 64/64/64 63/63/63
f 53/53/53 58/58/58 64/64/64
f 63/63/63 64/64/64 65/65/65
f 65/65/65 64/64/64 58/58/58
f 65/65/65 66/66/66 63/63/63
f 65/65/65 58/58/58 66/66/66
f 58/58/58 67/67/67 66/66/66
f 67/67/67 58/58/58 43/43/43
f 68/68/68 67/67/67 43/43/43
f 43/43/43 69/69/69 68/68/68
f 69/69/69 70/70/70 68/68/68
f 43/43/43 49/49/49 69/69/69
f 69/69/69 49/49/49 70/70/70
