g SnakeTonque
v -0.01280478 -0.5076714 0.7076147
v 0.002328355 -0.515352 0.7168242
v -0.0006283835 -0.4658201 0.7211558
v 4.971598E-06 -0.5410886 0.7079666
v -0.01607374 -0.5472467 0.6841288
v -0.007432506 -0.560503 0.7031882
v -0.01218772 -0.5895396 0.6663467
v -0.01198062 -0.6317106 0.6538487
v -0.000574975 -0.5354593 0.7173784
v 0.01259058 -0.5379956 0.7358001
v 0.007681881 -0.5616173 0.7032445
v 0.01545335 -0.6196349 0.6838289
v -0.01495669 -0.626258 0.6787779
v -0.01535787 -0.5711412 0.7164328
v -0.02315309 -0.6613431 0.650244
v -0.02197188 -0.6895183 0.6149969
v -0.03404966 -0.6335819 0.6800977
v -0.03993305 -0.6995964 0.6343768
v -0.03755488 -0.607561 0.7047918
v -0.03766438 -0.5668726 0.7304848
v -0.0153199 -0.5383398 0.7402392
v -0.02751693 -0.726047 0.6097643
v -0.0269647 -0.7302558 0.5861183
v -0.03916666 -0.7427896 0.602438
v -0.04129142 -0.7409008 0.5871574
v -0.05551429 -0.6485447 0.6651009
v -0.05126558 -0.6946437 0.6352869
v -0.04825705 -0.7279554 0.607415
v -0.05168841 -0.6930901 0.6101882
v -0.0472049 -0.6672921 0.6112909
v -0.0269647 -0.7302558 0.5861183
v -0.06152864 -0.6653957 0.624633
v -0.06882645 -0.6269095 0.6658812
v -0.06078522 -0.6188053 0.6915501
v -0.05994195 -0.5610428 0.729557
v -0.07286779 -0.5506334 0.7216505
v -0.07309783 -0.5707957 0.6864316
v -0.08049984 -0.5157889 0.7243965
v -0.05798169 -0.5239517 0.7493877
v -0.0644411 -0.577289 0.6714468
v -0.03209655 -0.5518992 0.677574
v -0.07510005 -0.5092164 0.7072722
v -0.03246053 -0.6687102 0.6090466
v -0.02197188 -0.6895183 0.6149969
v -0.01938088 -0.6355982 0.6315399
v -0.01198062 -0.6317106 0.6538487
v -0.01218772 -0.5895396 0.6663467
v -0.01607374 -0.5472467 0.6841288
v -0.04940853 -0.5064288 0.7057569
v -0.01280478 -0.5076714 0.7076147
v -0.0006283835 -0.4658201 0.7211558
v -0.05284704 -0.4668876 0.7153583
v -0.05049342 -0.4382662 0.7148011
v -0.07255437 -0.4068425 0.7190998
v -0.07265276 -0.4730211 0.7143871
v -0.08053537 -0.4803285 0.7220384
v -0.07907651 -0.4132294 0.7250265
v -0.0891575 -0.3217947 0.7215477
v -0.07894209 -0.3232226 0.7079653
v -0.08444604 -0.2714739 0.6948653
v -0.08652285 -0.3885808 0.7390018
v -0.09019943 -0.2625875 0.7043138
v -0.07827897 -0.2420556 0.6880585
v -0.08319531 -0.2357782 0.6997647
v -0.086292 -0.2663962 0.7190009
v -0.0695277 -0.2231011 0.7141022
v -0.07891299 -0.4626557 0.7521147
v -0.07922363 -0.3641126 0.7483712
v -0.06923142 -0.3008249 0.7399895
v -0.06835227 -0.2395563 0.7251246
v -0.05151765 -0.238067 0.7296109
v -0.03659956 -0.2221653 0.7270936
v -0.05891893 -0.2743401 0.7345928
v -0.0410596 -0.3223643 0.7580793
v -0.06669136 -0.3424968 0.755794
v -0.01897471 -0.3868084 0.7763937
v -0.02861638 -0.3270697 0.7682686
v -0.02208179 -0.2346038 0.7328032
v -0.0642658 -0.3825296 0.7630279
v -0.01445729 -0.3035091 0.7607164
v -0.0009390815 -0.2975865 0.7533244
v -0.0005933629 -0.4019226 0.7646281
v 0.0008144149 -0.2256617 0.7264234
v 0.0136208 -0.3067968 0.7620139
v 0.03626473 -0.2209751 0.7270872
v -0.06164997 -0.445156 0.7660557
v -0.03256425 -0.3915109 0.7712117
v -0.06113241 -0.4867292 0.7705202
v -0.03953714 -0.4850692 0.7710726
v -0.04641728 -0.5190158 0.7498265
v -0.02390617 -0.488466 0.7645097
v -0.01960336 -0.4315596 0.7709621
v -0.004302482 -0.5077481 0.7346779
v -0.02084347 -0.4813695 0.7680814
v -0.003328172 -0.4487083 0.7521854
v 0.006489384 -0.5064591 0.7371648
v 0.00246922 -0.4738187 0.7446896
v 0.02102813 -0.5266573 0.7472008
v 0.01610578 -0.4783037 0.7716741
v 0.02041083 -0.436513 0.7719815
v 0.03683394 -0.5681621 0.7305478
v 0.02319975 -0.3863677 0.7777843
v 0.0394926 -0.4837701 0.7733018
v 0.05196085 -0.48315 0.7691971
v 0.05484381 -0.426107 0.7651457
v 0.05119276 -0.5630963 0.7308688
v 0.06460994 -0.5395807 0.737396
v 0.02790892 -0.6179823 0.6931025
v 0.03670109 -0.6513463 0.6678094
v 0.04577886 -0.6067232 0.7057475
v 0.05844493 -0.6524226 0.657003
v 0.06246543 -0.6118528 0.6938183
v 0.05798639 -0.3336174 0.7553108
v 0.06839035 -0.3674742 0.7599292
v 0.02830535 -0.3161635 0.7646072
v 0.03698925 -0.2650445 0.7422745
v 0.07024012 -0.2943116 0.7370422
v 0.06939217 -0.2388321 0.7230152
v 0.06754587 -0.2207356 0.7098632
v 0.090797 -0.2562232 0.7062266
v 0.08148658 -0.2742876 0.7257392
v 0.08839907 -0.3411413 0.7277963
v 0.08492239 -0.2581133 0.6918117
v 0.08029514 -0.3296337 0.7100685
v 0.08521358 -0.3639144 0.7410198
v 0.08320533 -0.4098105 0.7309444
v 0.08500849 -0.4894455 0.7278018
v 0.07938943 -0.4336174 0.7512116
v 0.0724984 -0.4078428 0.7194573
v 0.06842067 -0.4668202 0.7592465
v 0.07437764 -0.468169 0.7145617
v 0.05393843 -0.4418649 0.7156844
v 0.0004517158 -0.4439553 0.7174878
v -0.0006283835 -0.4658201 0.7211558
v 0.07829416 -0.5317655 0.7191488
v 0.07580469 -0.5095029 0.7079672
v 0.04890307 -0.5069787 0.7055051
v 0.06982682 -0.5866097 0.7002667
v 0.01245937 -0.5067298 0.7081336
v 0.002328355 -0.515352 0.7168242
v 0.07298788 -0.5711895 0.6847843
v 0.07250171 -0.6117097 0.6687858
v 0.03364066 -0.5640867 0.6703441
v 0.0651548 -0.5731656 0.6740988
v 0.06260738 -0.6655832 0.625273
v 0.05185896 -0.6998304 0.6240795
v 0.02162598 -0.5802888 0.6646719
v 0.0429622 -0.6755341 0.605555
v 0.05289143 -0.6888133 0.6135948
v 0.04447393 -0.7482445 0.5950378
v 0.009451464 -0.5472986 0.6947858
v 4.971598E-06 -0.5410886 0.7079666
v 0.007681881 -0.5616173 0.7032445
v 0.02945799 -0.6592162 0.6141626
v 0.01492446 -0.6231315 0.6423467
v 0.03965563 -0.7527327 0.5809247
v 0.01231575 -0.6367574 0.6485671
v 0.01545335 -0.6196349 0.6838289
v 0.0244762 -0.6989365 0.6100941
v 0.02759552 -0.7312667 0.5878973
v 0.03114947 -0.7459687 0.6038839
v 0.02727805 -0.6975282 0.6216397
v 0.0421451 -0.6989105 0.6347317
v 0.05185896 -0.6998304 0.6240795
v 0.03670109 -0.6513463 0.6678094
v 0.05844493 -0.6524226 0.657003
vt 0.9316572 0.09811132
vt 0.9286166 0.102442
vt 0.945012 0.1041689
vt 0.922406 0.09370191
vt 0.9319996 0.08974804
vt 0.9276841 0.08531313
vt 0.9446421 0.0787185
vt 0.9554074 0.06602167
vt 0.9177115 0.09282224
vt 0.9120072 0.09989877
vt 0.9251807 0.1044265
vt 0.9370675 0.1241492
vt 0.9465737 0.06593771
vt 0.9259831 0.07924624
vt 0.9588575 0.05541278
vt 0.9737956 0.04746784
vt 0.9449056 0.05954069
vt 0.9659349 0.04253257
vt 0.9340711 0.06534716
vt 0.9204257 0.07237884
vt 0.9127613 0.08201848
vt 0.9755461 0.03539486
vt 0.9825354 0.03067033
vt 0.9757832 0.02947299
vt 0.9764418 0.02508296
vt 0.9469349 0.04959695
vt 0.9623238 0.04090674
vt 0.9710093 0.0310712
vt 0.9611716 0.03220062
vt 0.9534394 0.03108812
vt 0.9726081 0.0208448
vt 0.9527055 0.03707291
vt 0.9390483 0.04763586
vt 0.9354691 0.05581224
vt 0.9168174 0.06478395
vt 0.9135141 0.05924554
vt 0.9214051 0.0497363
vt 0.9028947 0.05574546
vt 0.9048164 0.06699015
vt 0.9241876 0.04463255
vt 0.9149194 0.03536288
vt 0.9017957 0.04983882
vt 0.9531588 0.02632272
vt 0.9571466 0.01982197
vt 0.9408497 0.02489003
vt 0.9355853 0.01969602
vt 0.923887 0.0258823
vt 0.9120784 0.03045673
vt 0.9002326 0.04161755
vt 0.8995985 0.02972278
vt 0.8866991 0.02576731
vt 0.8880041 0.04216025
vt 0.8792967 0.04027409
vt 0.8697188 0.04540799
vt 0.8901108 0.0485665
vt 0.8921143 0.05243025
vt 0.8714715 0.04850292
vt 0.8418984 0.04498583
vt 0.8423905 0.03961344
vt 0.8240366 0.03782515
vt 0.8634286 0.05191147
vt 0.8219575 0.04174584
vt 0.813281 0.03844244
vt 0.8129698 0.04311943
vt 0.8240681 0.04622182
vt 0.8097308 0.04998292
vt 0.8857957 0.06035964
vt 0.8557539 0.05455722
vt 0.8355343 0.0540436
vt 0.8157142 0.05211648
vt 0.8149037 0.05743064
vt 0.8091776 0.06132798
vt 0.826658 0.05632446
vt 0.8419204 0.06518152
vt 0.8489805 0.05855487
vt 0.8617573 0.0763291
vt 0.8433609 0.07019556
vt 0.8124313 0.06658719
vt 0.8612551 0.06186401
vt 0.8350314 0.07317872
vt 0.8319725 0.07721843
vt 0.865635 0.08368103
vt 0.8078913 0.07306342
vt 0.8345391 0.08265258
vt 0.8044686 0.08377071
vt 0.8803598 0.06616805
vt 0.8634812 0.07232931
vt 0.8927545 0.06844965
vt 0.8929129 0.07467322
vt 0.9043875 0.07093941
vt 0.8949078 0.07972048
vt 0.876165 0.07828312
vt 0.9045676 0.08947994
vt 0.8924063 0.08034255
vt 0.8824512 0.08588021
vt 0.9031576 0.09295954
vt 0.8914288 0.0890222
vt 0.9054869 0.1018192
vt 0.8885833 0.09620346
vt 0.8749734 0.09329276
vt 0.914462 0.1140436
vt 0.8590813 0.09065028
vt 0.887725 0.1023007
vt 0.8866224 0.1056639
vt 0.8684979 0.1029611
vt 0.9105879 0.1176051
vt 0.9016573 0.1178814
vt 0.9321725 0.1260303
vt 0.939162 0.139276
vt 0.9241127 0.126277
vt 0.9354784 0.1469078
vt 0.9227737 0.1333834
vt 0.8389977 0.09820211
vt 0.8489402 0.103283
vt 0.8366395 0.08760828
vt 0.8188427 0.08712088
vt 0.8246697 0.1001311
vt 0.8070002 0.09536047
vt 0.7998569 0.09400047
vt 0.8079803 0.1057381
vt 0.8165999 0.102207
vt 0.8363548 0.1115635
vt 0.806414 0.110542
vt 0.8303099 0.1160635
vt 0.8450697 0.1102406
vt 0.8588433 0.1161789
vt 0.8840239 0.1217026
vt 0.8682368 0.1115262
vt 0.8568375 0.1206901
vt 0.8797311 0.1100558
vt 0.8760344 0.1252366
vt 0.8655456 0.1283106
vt 0.8594625 0.1426634
vt 0.8656597 0.1456134
vt 0.8972477 0.1248388
vt 0.8894898 0.1284551
vt 0.8851054 0.1361442
vt 0.9144258 0.1315004
vt 0.879465 0.1464068
vt 0.8784128 0.1511429
vt 0.9088219 0.1364111
vt 0.9214439 0.1422761
vt 0.9016411 0.149267
vt 0.9087656 0.1407587
vt 0.9367883 0.1579919
vt 0.9479316 0.1652798
vt 0.9039965 0.1553549
vt 0.9372026 0.1667125
vt 0.9429613 0.1656983
vt 0.953003 0.1846112
vt 0.8899212 0.1540599
vt 0.8846852 0.155914
vt 0.8897755 0.1593673
vt 0.9299582 0.1674375
vt 0.9155229 0.1644845
vt 0.9521801 0.1842067
vt 0.9158925 0.1692003
vt 0.9038684 0.1716715
vt 0.936083 0.1771831
vt 0.9457357 0.180141
vt 0.9474037 0.1836271
vt 0.9334761 0.1798976
vt 0.9310403 0.1859149
vt 0.9335396 0.1898593
vt 0.9134374 0.1808454
vt 0.9145987 0.1889662
vn 0.3451092 0.3021199 -0.8886074
vn -0.1207695 0.2334855 -0.9648312
vn -0.011975 0.09205982 -0.9956814
vn 0.1125264 -0.5047556 -0.8558969
vn 0.5694245 0.3581336 -0.7399297
vn 0.9818408 -0.1884427 -0.02186668
vn 0.8163539 0.2844313 -0.5026581
vn 0.9906483 -0.12305 -0.05894543
vn 0.1369846 -0.6787084 0.7215193
vn -0.663304 -0.3631029 0.6543577
vn -0.9825052 -0.1737767 0.06697191
vn -0.7588814 -0.4234426 0.4947681
vn 0.7307436 -0.464425 0.5003231
vn 0.6820328 -0.4310855 0.5907595
vn 0.7234666 -0.4753542 0.5006341
vn 0.9959658 -0.07144896 -0.05428623
vn 0.1439747 -0.6547737 0.7419857
vn 0.2786401 -0.5582801 0.781462
vn 0.1177568 -0.5804662 0.8057246
vn 0.09264071 -0.5120476 0.8539466
vn 0.5428861 -0.3745681 0.7516472
vn 0.7701058 -0.4478663 0.4542608
vn 0.6156814 -0.2159503 -0.7578271
vn -0.0411368 -0.9504936 0.3080091
vn -0.3226156 -0.6498301 -0.6882152
vn -0.4528086 -0.5490668 0.7024885
vn -0.6839435 -0.4987532 0.5324159
vn -0.90729 -0.3795688 0.1809764
vn -0.92132 -0.01286806 -0.3885923
vn -0.3927628 0.3488372 -0.8509113
vn 0.6156814 -0.2159503 -0.7578271
vn -0.923498 0.005726312 -0.3835604
vn -0.9565818 -0.2515755 0.1471768
vn -0.5405664 -0.5470097 0.6391935
vn -0.4426087 -0.4457102 0.7781004
vn -0.8565807 -0.2814288 0.4325129
vn -0.9669862 0.03502367 -0.2524106
vn -0.9766846 -0.1431423 0.159992
vn -0.3463076 -0.4151883 0.8412428
vn -0.5366889 0.388645 -0.7489461
vn 0.05143898 0.4876469 -0.8715242
vn -0.6617289 0.2128178 -0.7189044
vn 0.3183229 0.3616199 -0.8762999
vn 0.9959658 -0.07144896 -0.05428623
vn 0.6646911 0.3186401 -0.6757619
vn 0.9906483 -0.12305 -0.05894543
vn 0.8163539 0.2844313 -0.5026581
vn 0.5694245 0.3581336 -0.7399297
vn -0.006190421 0.3735143 -0.9276038
vn 0.3451092 0.3021199 -0.8886074
vn -0.011975 0.09205982 -0.9956814
vn 0.03973703 0.1208777 -0.9918718
vn -0.09829459 -0.01128788 -0.9950933
vn -0.5796235 -0.04229676 -0.8137859
vn -0.4083312 0.1389375 -0.9021985
vn -0.9706131 0.06522226 -0.2316385
vn -0.7954266 -0.003401779 -0.6060404
vn -0.999442 -0.01716092 0.02865631
vn -0.7947209 -0.1841976 -0.578351
vn -0.8713041 -0.07926512 -0.4842997
vn -0.9866327 -0.03162372 0.1598616
vn -0.9872132 0.1104378 -0.1149502
vn -0.8685627 0.1245008 -0.4796857
vn -0.946979 0.3063113 0.0969751
vn -0.8159277 0.1881145 0.5466945
vn -0.5786731 0.4384499 0.6876767
vn -0.8673338 -0.05646739 0.4945135
vn -0.7700633 0.09915019 0.6302155
vn -0.5346337 0.2259516 0.8143173
vn -0.473615 0.3547843 0.8061123
vn -0.2632358 0.3390806 0.9031785
vn -0.2181334 0.3753634 0.9008441
vn -0.3116142 0.2383063 0.9198406
vn -0.4310703 0.233773 0.8715093
vn -0.5020537 0.2084375 0.8393425
vn 0.1342083 0.019038 0.9907703
vn -0.2437802 0.163245 0.9559928
vn 0.03025277 0.3582972 0.9331172
vn -0.4711351 0.06831578 0.8794115
vn 0.1778155 0.2897031 0.940454
vn -0.00752374 0.3000648 0.9538891
vn 0.01622249 -0.07736374 0.9968709
vn -0.007917724 0.3728451 0.9278598
vn -0.2017751 0.2545861 0.9457656
vn 0.1692139 0.4032021 0.8993303
vn -0.4275957 0.03183476 0.9034093
vn -0.2656589 -0.09740544 0.9591338
vn -0.4105825 -0.2334243 0.8814393
vn 0.1289436 -0.2108096 0.9689855
vn -0.1392396 -0.4428409 0.8857224
vn 0.3501773 -0.3694223 0.8607572
vn 0.2561187 -0.121722 0.958951
vn 0.4069706 -0.344967 0.845797
vn 0.142785 -0.2586333 0.9553645
vn 0.4481378 -0.2118415 0.868502
vn -0.5770617 -0.3277395 0.7480552
vn -0.4849585 -0.230827 0.8435248
vn -0.3964481 -0.391565 0.8303649
vn -0.5544311 -0.1612567 0.8164572
vn -0.2809056 -0.07958341 0.9564301
vn -0.1366524 -0.4803981 0.8663393
vn -0.05029769 0.05183992 0.9973879
vn 0.1236055 -0.2772994 0.9527994
vn 0.4253404 -0.2283663 0.8757479
vn 0.1810779 0.03817877 0.9827273
vn 0.2868603 -0.4577474 0.8415334
vn 0.6047475 -0.3569719 0.711935
vn -0.3335388 -0.5693628 0.751384
vn 0.009469645 -0.6167702 0.7870862
vn 0.1121162 -0.5824108 0.8051259
vn 0.6799169 -0.5006126 0.5358174
vn 0.6235633 -0.514818 0.5883292
vn 0.402723 0.2172235 0.8891727
vn 0.3818638 0.1184264 0.9165998
vn 0.2013737 0.2548039 0.9457926
vn 0.2792322 0.3014258 0.9116862
vn 0.5144877 0.2017875 0.8334172
vn 0.5379831 0.3956611 0.7443295
vn 0.5420836 0.5295214 0.6524971
vn 0.9636641 0.1396912 0.2276795
vn 0.6866101 0.1815504 0.7039929
vn 0.9975413 0.03103013 0.06283698
vn 0.91619 -0.1264469 -0.3802723
vn 0.8477148 -0.1589925 -0.5060642
vn 0.8984445 0.05106479 0.4361078
vn 0.8660905 -0.008562522 -0.4998139
vn 0.9963351 -0.07678824 0.03767925
vn 0.8008646 -0.03436358 0.5978587
vn 0.6591021 -0.04159319 -0.7509024
vn 0.6691618 -0.08650181 0.7380651
vn 0.4761744 0.1183632 -0.8713484
vn 0.006364175 0.04757842 -0.9988472
vn -0.07949878 -0.1231782 -0.9891951
vn -0.011975 0.09205982 -0.9956814
vn 0.9701551 -0.1598587 0.1823302
vn 0.6680146 0.1684131 -0.7248403
vn 0.0159582 0.3804812 -0.9246509
vn 0.8973609 -0.2618701 0.3552004
vn -0.412246 0.2862652 -0.8649309
vn -0.1207695 0.2334855 -0.9648312
vn 0.9529971 0.05194646 -0.2984928
vn 0.9938876 -0.08789581 -0.06679633
vn -0.01285411 0.4925025 -0.8702161
vn 0.5370523 0.3625551 -0.7616617
vn 0.9365108 0.007629592 -0.3505557
vn 0.8761607 -0.3686612 0.310534
vn -0.4115252 0.472003 -0.7796539
vn 0.2970497 0.3203031 -0.8995374
vn 0.893116 -0.04327619 -0.44774
vn 0.7343175 -0.651352 0.1910978
vn -0.862659 0.09764088 -0.4962717
vn 0.1125264 -0.5047556 -0.8558969
vn -0.9825052 -0.1737767 0.06697191
vn -0.4040432 0.3767308 -0.8335603
vn -0.7614219 0.2926413 -0.5784444
vn 0.1045961 -0.6901368 -0.7160802
vn -0.990301 -0.133194 -0.0395392
vn -0.7588814 -0.4234426 0.4947681
vn -0.9961596 -0.04054393 -0.07760288
vn -0.7453368 0.027631 -0.6661153
vn -0.4903391 -0.7170701 0.4953565
vn -0.8117115 -0.3601483 0.4598017
vn 0.0464428 -0.6005291 0.7982531
vn 0.8761607 -0.3686612 0.310534
vn 0.009469645 -0.6167702 0.7870862
vn 0.6799169 -0.5006126 0.5358174
g SnakeTonque_0
f 3/3/3 2/2/2 1/1/1
f 1/1/1 2/2/2 4/4/4
f 1/1/1 4/4/4 5/5/5
f 6/6/6 5/5/5 4/4/4
f 6/6/6 7/7/7 5/5/5
f 8/8/8 7/7/7 6/6/6
f 6/6/6 4/4/4 9/9/9
f 10/10/10 9/9/9 4/4/4
f 10/10/10 4/4/4 11/11/11
f 10/10/10 11/11/11 12/12/12
f 13/13/13 8/8/8 6/6/6
f 14/14/14 6/6/6 9/9/9
f 13/13/13 6/6/6 14/14/14
f 8/8/8 13/13/13 15/15/15
f 16/16/16 8/8/8 15/15/15
f 15/15/15 13/13/13 17/17/17
f 16/16/16 15/15/15 18/18/18
f 17/17/17 18/18/18 15/15/15
f 19/19/19 17/17/17 13/13/13
f 13/13/13 14/14/14 19/19/19
f 14/14/14 20/20/20 19/19/19
f 14/14/14 9/9/9 21/21/21
f 14/14/14 21/21/21 20/20/20
f 16/16/16 18/18/18 22/22/22
f 22/22/22 23/23/23 16/16/16
f 22/22/22 24/24/24 23/23/23
f 22/22/22 18/18/18 24/24/24
f 23/23/23 24/24/24 25/25/25
f 17/17/17 26/26/26 18/18/18
f 17/17/17 19/19/19 26/26/26
f 18/18/18 27/27/27 24/24/24
f 18/18/18 26/26/26 27/27/27
f 24/24/24 28/28/28 25/25/25
f 24/24/24 27/27/27 28/28/28
f 29/29/29 25/25/25 28/28/28
f 27/27/27 29/29/29 28/28/28
f 25/25/25 29/29/29 30/30/30
f 31/31/31 25/25/25 30/30/30
f 27/27/27 32/32/32 29/29/29
f 29/29/29 32/32/32 30/30/30
f 26/26/26 33/33/33 27/27/27
f 33/33/33 32/32/32 27/27/27
f 19/19/19 34/34/34 26/26/26
f 34/34/34 33/33/33 26/26/26
f 34/34/34 19/19/19 35/35/35
f 19/19/19 20/20/20 35/35/35
f 34/34/34 36/36/36 33/33/33
f 35/35/35 36/36/36 34/34/34
f 37/37/37 32/32/32 33/33/33
f 37/37/37 33/33/33 36/36/36
f 38/38/38 37/37/37 36/36/36
f 39/39/39 38/38/38 36/36/36
f 35/35/35 39/39/39 36/36/36
f 20/20/20 39/39/39 35/35/35
f 40/40/40 32/32/32 37/37/37
f 30/30/30 32/32/32 40/40/40
f 41/41/41 30/30/30 40/40/40
f 42/42/42 40/40/40 37/37/37
f 42/42/42 37/37/37 38/38/38
f 41/41/41 40/40/40 42/42/42
f 43/43/43 30/30/30 41/41/41
f 43/43/43 31/31/31 30/30/30
f 43/43/43 44/44/44 31/31/31
f 45/45/45 44/44/44 43/43/43
f 45/45/45 43/43/43 41/41/41
f 44/44/44 45/45/45 46/46/46
f 47/47/47 46/46/46 45/45/45
f 47/47/47 45/45/45 41/41/41
f 48/48/48 47/47/47 41/41/41
f 48/48/48 41/41/41 49/49/49
f 49/49/49 41/41/41 42/42/42
f 50/50/50 48/48/48 49/49/49
f 51/51/51 50/50/50 49/49/49
f 51/51/51 49/49/49 52/52/52
f 51/51/51 52/52/52 53/53/53
f 53/53/53 52/52/52 54/54/54
f 52/52/52 49/49/49 55/55/55
f 49/49/49 42/42/42 55/55/55
f 52/52/52 55/55/55 54/54/54
f 42/42/42 56/56/56 55/55/55
f 54/54/54 55/55/55 56/56/56
f 56/56/56 42/42/42 38/38/38
f 54/54/54 56/56/56 57/57/57
f 57/57/57 56/56/56 38/38/38
f 57/57/57 58/58/58 54/54/54
f 59/59/59 54/54/54 58/58/58
f 59/59/59 58/58/58 60/60/60
f 57/57/57 38/38/38 61/61/61
f 57/57/57 61/61/61 58/58/58
f 58/58/58 62/62/62 60/60/60
f 63/63/63 60/60/60 62/62/62
f 64/64/64 63/63/63 62/62/62
f 64/64/64 62/62/62 65/65/65
f 65/65/65 62/62/62 58/58/58
f 66/66/66 64/64/64 65/65/65
f 61/61/61 38/38/38 67/67/67
f 68/68/68 58/58/58 61/61/61
f 61/61/61 67/67/67 68/68/68
f 58/58/58 69/69/69 65/65/65
f 69/69/69 58/58/58 68/68/68
f 66/66/66 65/65/65 70/70/70
f 65/65/65 69/69/69 70/70/70
f 70/70/70 71/71/71 66/66/66
f 72/72/72 66/66/66 71/71/71
f 70/70/70 73/73/73 71/71/71
f 70/70/70 69/69/69 73/73/73
f 73/73/73 74/74/74 71/71/71
f 71/71/71 74/74/74 72/72/72
f 69/69/69 74/74/74 73/73/73
f 69/69/69 68/68/68 75/75/75
f 69/69/69 75/75/75 74/74/74
f 75/75/75 76/76/76 74/74/74
f 76/76/76 77/77/77 74/74/74
f 77/77/77 72/72/72 74/74/74
f 72/72/72 77/77/77 78/78/78
f 79/79/79 75/75/75 68/68/68
f 75/75/75 79/79/79 76/76/76
f 67/67/67 79/79/79 68/68/68
f 78/78/78 77/77/77 80/80/80
f 77/77/77 76/76/76 80/80/80
f 78/78/78 80/80/80 81/81/81
f 80/80/80 76/76/76 81/81/81
f 81/81/81 76/76/76 82/82/82
f 83/83/83 78/78/78 81/81/81
f 81/81/81 84/84/84 83/83/83
f 82/82/82 84/84/84 81/81/81
f 83/83/83 84/84/84 85/85/85
f 86/86/86 79/79/79 67/67/67
f 79/79/79 87/87/87 76/76/76
f 79/79/79 86/86/86 87/87/87
f 88/88/88 86/86/86 67/67/67
f 88/88/88 67/67/67 38/38/38
f 88/88/88 38/38/38 39/39/39
f 86/86/86 88/88/88 89/89/89
f 87/87/87 86/86/86 89/89/89
f 90/90/90 88/88/88 39/39/39
f 90/90/90 89/89/89 88/88/88
f 39/39/39 20/20/20 90/90/90
f 20/20/20 89/89/89 90/90/90
f 89/89/89 20/20/20 91/91/91
f 87/87/87 89/89/89 91/91/91
f 21/21/21 91/91/91 20/20/20
f 87/87/87 92/92/92 76/76/76
f 76/76/76 92/92/92 82/82/82
f 91/91/91 21/21/21 93/93/93
f 9/9/9 93/93/93 21/21/21
f 91/91/91 94/94/94 87/87/87
f 94/94/94 92/92/92 87/87/87
f 91/91/91 93/93/93 94/94/94
f 94/94/94 95/95/95 92/92/92
f 82/82/82 92/92/92 95/95/95
f 95/95/95 94/94/94 93/93/93
f 9/9/9 96/96/96 93/93/93
f 96/96/96 9/9/9 10/10/10
f 95/95/95 93/93/93 97/97/97
f 95/95/95 97/97/97 82/82/82
f 93/93/93 96/96/96 97/97/97
f 96/96/96 10/10/10 98/98/98
f 99/99/99 97/97/97 96/96/96
f 99/99/99 96/96/96 98/98/98
f 97/97/97 100/100/100 82/82/82
f 99/99/99 100/100/100 97/97/97
f 101/101/101 98/98/98 10/10/10
f 12/12/12 101/101/101 10/10/10
f 82/82/82 100/100/100 102/102/102
f 84/84/84 82/82/82 102/102/102
f 99/99/99 103/103/103 100/100/100
f 103/103/103 99/99/99 98/98/98
f 104/104/104 103/103/103 98/98/98
f 100/100/100 103/103/103 105/105/105
f 105/105/105 102/102/102 100/100/100
f 105/105/105 103/103/103 104/104/104
f 101/101/101 106/106/106 98/98/98
f 106/106/106 104/104/104 98/98/98
f 107/107/107 104/104/104 106/106/106
f 108/108/108 101/101/101 12/12/12
f 109/109/109 108/108/108 12/12/12
f 106/106/106 101/101/101 110/110/110
f 110/110/110 101/101/101 108/108/108
f 110/110/110 108/108/108 109/109/109
f 107/107/107 106/106/106 110/110/110
f 111/111/111 110/110/110 109/109/109
f 112/112/112 107/107/107 110/110/110
f 112/112/112 110/110/110 111/111/111
f 113/113/113 102/102/102 105/105/105
f 105/105/105 104/104/104 114/114/114
f 113/113/113 105/105/105 114/114/114
f 115/115/115 102/102/102 113/113/113
f 84/84/84 102/102/102 115/115/115
f 84/84/84 115/115/115 116/116/116
f 116/116/116 115/115/115 113/113/113
f 85/85/85 84/84/84 116/116/116
f 116/116/116 113/113/113 117/117/117
f 117/117/117 113/113/113 114/114/114
f 85/85/85 116/116/116 118/118/118
f 118/118/118 116/116/116 117/117/117
f 119/119/119 85/85/85 118/118/118
f 118/118/118 120/120/120 119/119/119
f 120/120/120 118/118/118 121/121/121
f 118/118/118 117/117/117 121/121/121
f 122/122/122 120/120/120 121/121/121
f 121/121/121 117/117/117 122/122/122
f 120/120/120 122/122/122 123/123/123
f 123/123/123 122/122/122 124/124/124
f 117/117/117 114/114/114 125/125/125
f 125/125/125 122/122/122 117/117/117
f 126/126/126 124/124/124 122/122/122
f 126/126/126 122/122/122 125/125/125
f 127/127/127 126/126/126 125/125/125
f 125/125/125 128/128/128 127/127/127
f 125/125/125 114/114/114 128/128/128
f 129/129/129 124/124/124 126/126/126
f 127/127/127 129/129/129 126/126/126
f 128/128/128 114/114/114 104/104/104
f 104/104/104 130/130/130 128/128/128
f 128/128/128 130/130/130 127/127/127
f 130/130/130 104/104/104 107/107/107
f 127/127/127 130/130/130 107/107/107
f 129/129/129 127/127/127 131/131/131
f 129/129/129 131/131/131 132/132/132
f 132/132/132 131/131/131 133/133/133
f 134/134/134 133/133/133 131/131/131
f 135/135/135 127/127/127 107/107/107
f 136/136/136 131/131/131 127/127/127
f 135/135/135 136/136/136 127/127/127
f 134/134/134 131/131/131 137/137/137
f 136/136/136 137/137/137 131/131/131
f 138/138/138 135/135/135 107/107/107
f 112/112/112 138/138/138 107/107/107
f 137/137/137 139/139/139 134/134/134
f 134/134/134 139/139/139 140/140/140
f 138/138/138 141/141/141 135/135/135
f 141/141/141 136/136/136 135/135/135
f 142/142/142 138/138/138 112/112/112
f 142/142/142 141/141/141 138/138/138
f 111/111/111 142/142/142 112/112/112
f 137/137/137 143/143/143 139/139/139
f 136/136/136 143/143/143 137/137/137
f 136/136/136 141/141/141 144/144/144
f 141/141/141 142/142/142 144/144/144
f 136/136/136 144/144/144 143/143/143
f 111/111/111 145/145/145 142/142/142
f 144/144/144 142/142/142 145/145/145
f 145/145/145 111/111/111 146/146/146
f 147/147/147 140/140/140 139/139/139
f 143/143/143 147/147/147 139/139/139
f 144/144/144 148/148/148 143/143/143
f 144/144/144 145/145/145 148/148/148
f 149/149/149 145/145/145 146/146/146
f 145/145/145 149/149/149 148/148/148
f 150/150/150 149/149/149 146/146/146
f 147/147/147 151/151/151 140/140/140
f 151/151/151 152/152/152 140/140/140
f 153/153/153 152/152/152 151/151/151
f 143/143/143 154/154/154 147/147/147
f 143/143/143 148/148/148 154/154/154
f 147/147/147 155/155/155 151/151/151
f 153/153/153 151/151/151 155/155/155
f 154/154/154 155/155/155 147/147/147
f 148/148/148 149/149/149 156/156/156
f 149/149/149 150/150/150 156/156/156
f 155/155/155 157/157/157 153/153/153
f 158/158/158 153/153/153 157/157/157
f 155/155/155 154/154/154 159/159/159
f 155/155/155 159/159/159 157/157/157
f 148/148/148 160/160/160 154/154/154
f 148/148/148 156/156/156 160/160/160
f 160/160/160 159/159/159 154/154/154
f 161/161/161 160/160/160 156/156/156
f 150/150/150 161/161/161 156/156/156
f 159/159/159 160/160/160 161/161/161
f 162/162/162 157/157/157 159/159/159
f 158/158/158 157/157/157 162/162/162
f 162/162/162 159/159/159 161/161/161
f 150/150/150 163/163/163 161/161/161
f 161/161/161 163/163/163 162/162/162
f 158/158/158 162/162/162 163/163/163
f 150/150/150 164/164/164 163/163/163
f 165/165/165 158/158/158 163/163/163
f 164/164/164 166/166/166 163/163/163
f 166/166/166 165/165/165 163/163/163
