g Sphere_Lines
v 0.08793397 -5.578929E-18 0.2405057
v 0.3985858 -5.578929E-18 0.3985855
v 0.1129714 -5.578929E-18 0.3985855
v 0.3595696 -5.578929E-18 0.1522459
v 0.01527258 -5.578929E-18 0.09790005
v 0.2463397 -5.578929E-18 -0.06998005
v -0.09790004 -5.578929E-18 -0.01527257
v 0.06998006 -5.578929E-18 -0.2463398
v -0.2405059 -5.578929E-18 -0.08793382
v -0.152246 -5.578929E-18 -0.3595698
v -0.3985855 -5.578929E-18 -0.1129712
v -0.3985855 -5.578929E-18 -0.3985858
vt 0.5097656 0.6606445
vt 0.4157715 0.6967773
vt 0.4978027 0.7050781
vt 0.4345703 0.6269531
vt 0.5351563 0.6220703
vt 0.473877 0.5668945
vt 0.5708008 0.5927734
vt 0.5297852 0.5214844
vt 0.6142578 0.5766602
vt 0.597168 0.4958496
vt 0.6601563 0.5742188
vt 0.6689453 0.4921875
vn 0 1 0
vn 0 1 0
vn 0 1 0
vn 0 1 0
vn 0 1 0
vn 0 1 0
vn 0 1 0
vn 0 1 0
vn 0 1 0
vn 0 1 0
vn 0 1 0
vn 0 1 0
g Sphere_Lines_0
f 3/3/3 2/2/2 1/1/1
f 2/2/2 4/4/4 1/1/1
f 1/1/1 4/4/4 5/5/5
f 4/4/4 6/6/6 5/5/5
f 5/5/5 6/6/6 7/7/7
f 6/6/6 8/8/8 7/7/7
f 7/7/7 8/8/8 9/9/9
f 8/8/8 10/10/10 9/9/9
f 9/9/9 10/10/10 11/11/11
f 10/10/10 12/12/12 11/11/11
