g SphereLeft
v -0.2007548 -1.635367E-08 -0.1003781
v -0.2134659 -0.06935829 1.12999E-08
v -0.1544647 -0.1122248 -0.118002
v -0.1180006 -3.11064E-08 -0.1909297
v -0.1319292 -0.1815847 2.95839E-08
v -0.1624143 -0.1179995 0.100379
v -0.03646342 -0.1122244 -0.1909302
v 0 -3.656771E-08 -0.224451
v -0.05900121 -0.1815836 0.1180025
v -0.09546418 -0.0693578 0.1909302
v -0.06203557 -0.1909291 -0.100379
v 0.09546418 -0.06935787 -0.1909302
v 0.09546418 0.0693578 -0.1909302
v 0 -0.224451 3.656771E-08
v 0.05900121 -0.1815836 -0.1180024
v 0.03646342 -0.1122244 0.1909302
v 0 3.656771E-08 0.224451
v 0.06203557 -0.190929 0.100379
v 0.1319292 -0.1815847 2.95839E-08
v 0.1624143 -0.1179995 -0.100379
v 0.1909288 -1.922496E-08 -0.118002
v 0.1544647 -0.1122248 0.118002
v 0.2134659 -0.06935829 1.12999E-08
v 0.1624143 0.1179995 -0.100379
v 0.05900121 0.1815836 -0.1180025
v 0.1180006 3.11064E-08 0.1909297
v 0.2007548 1.635367E-08 0.1003781
v 0.2134659 0.06935829 -1.12999E-08
v 0.1544647 0.1122248 0.118002
v 0.1319292 0.1815847 -2.95839E-08
v 0.03646342 0.1122244 0.1909302
v 0.06203557 0.1909291 0.100379
v -0.09546418 0.06935787 0.1909302
v -0.09546418 -0.0693578 0.1909302
v 0 0.224451 -3.656771E-08
v -0.05900121 0.1815836 0.1180024
v -0.1909288 1.922496E-08 0.118002
v -0.1624143 -0.1179995 0.100379
v -0.2134659 -0.06935829 1.12999E-08
v -0.1624143 0.1179995 0.100379
v -0.2134659 0.06935829 -1.12999E-08
v -0.2007548 -1.635367E-08 -0.1003781
v -0.1319292 0.1815847 -2.95839E-08
v -0.1544647 0.1122248 -0.118002
v -0.1180006 -3.11064E-08 -0.1909297
v -0.06203557 0.190929 -0.100379
v -0.03646342 0.1122244 -0.1909302
v 0 -3.656771E-08 -0.224451
v 0.09546418 0.0693578 -0.1909302
vt 0.7219971 0.004213003
vt 0.67734 0.01781276
vt 0.7175829 0.03340767
vt 0.7609408 0.02989897
vt 0.6804693 0.0524516
vt 0.6439881 0.05689815
vt 0.7477104 0.0616169
vt 0.7820406 0.07689717
vt 0.6575556 0.08521565
vt 0.6239699 0.1080961
vt 0.7133831 0.06026219
vt 0.7606596 0.09807886
vt 0.7870275 0.1344518
vt 0.6926031 0.07970068
vt 0.7273947 0.08368085
vt 0.6543787 0.1255273
vt 0.6404603 0.1629383
vt 0.6778064 0.1039642
vt 0.7063172 0.1046966
vt 0.7348219 0.1090522
vt 0.7528075 0.1319599
vt 0.686734 0.1274
vt 0.7196731 0.1292353
vt 0.7584813 0.1620287
vt 0.7678045 0.2005789
vt 0.6714861 0.1536627
vt 0.7016753 0.1473717
vt 0.7305584 0.1548403
vt 0.7024089 0.169468
vt 0.7353682 0.1826368
vt 0.6727255 0.1810575
vt 0.7053571 0.1911262
vt 0.6533093 0.2032114
vt 0.6186755 0.2062871
vt 0.7270861 0.2095652
vt 0.6892411 0.2095571
vt 0.6471134 0.2402025
vt 0.6186755 0.2509371
vt 0.6529562 0.2804454
vt 0.6751335 0.2305364
vt 0.6841308 0.2598626
vt 0.7010581 0.2886971
vt 0.7074867 0.235238
vt 0.7247753 0.2617364
vt 0.7483073 0.2883693
vt 0.7403196 0.2311921
vt 0.7635471 0.2480152
vt 0.7866096 0.26981
vt 0.7982486 0.2313903
vn -0.8944262 0 -0.4472155
vn -0.951057 -0.3090154 0
vn -0.6881892 -0.499999 -0.5257344
vn -0.5257297 0 -0.8506517
vn -0.5877862 -0.8090163 0
vn -0.7236077 -0.5257263 0.4472179
vn -0.1624573 -0.4999964 -0.8506534
vn -1.124823E-06 0 -1
vn -0.2628687 -0.8090128 0.525736
vn -0.4253234 -0.3090125 0.8506534
vn -0.2763895 -0.8506493 -0.4472188
vn 0.4253234 -0.3090128 -0.8506534
vn 0.4253235 0.3090125 -0.8506534
vn 0 -1 0
vn 0.2628687 -0.809013 -0.5257357
vn 0.1624574 -0.4999962 0.8506536
vn 1.11431E-06 0 1
vn 0.2763894 -0.8506492 0.447219
vn 0.5877862 -0.8090163 0
vn 0.7236076 -0.5257264 -0.4472177
vn 0.8506488 0 -0.5257344
vn 0.6881892 -0.4999989 0.5257345
vn 0.951057 -0.3090154 0
vn 0.7236076 0.5257263 -0.4472178
vn 0.2628687 0.8090128 -0.525736
vn 0.5257297 0 0.8506517
vn 0.8944262 0 0.4472155
vn 0.951057 0.3090154 0
vn 0.6881892 0.499999 0.5257344
vn 0.5877861 0.8090163 0
vn 0.1624573 0.4999964 0.8506534
vn 0.2763895 0.8506493 0.4472187
vn -0.4253234 0.3090128 0.8506534
vn -0.4253234 -0.3090125 0.8506534
vn 0 1 0
vn -0.2628687 0.809013 0.5257357
vn -0.8506488 0 0.5257344
vn -0.7236077 -0.5257263 0.4472179
vn -0.951057 -0.3090154 0
vn -0.7236076 0.5257265 0.4472177
vn -0.9510571 0.3090153 0
vn -0.8944262 0 -0.4472155
vn -0.5877863 0.8090163 0
vn -0.6881892 0.4999989 -0.5257345
vn -0.5257297 0 -0.8506517
vn -0.2763894 0.8506492 -0.447219
vn -0.1624574 0.4999961 -0.8506535
vn -1.124823E-06 0 -1
vn 0.4253235 0.3090125 -0.8506534
g SphereLeft_0
f 3/3/3 2/2/2 1/1/1
f 3/3/3 1/1/1 4/4/4
f 3/3/3 5/5/5 2/2/2
f 5/5/5 6/6/6 2/2/2
f 7/7/7 3/3/3 4/4/4
f 7/7/7 4/4/4 8/8/8
f 9/9/9 6/6/6 5/5/5
f 9/9/9 10/10/10 6/6/6
f 11/11/11 5/5/5 3/3/3
f 11/11/11 3/3/3 7/7/7
f 12/12/12 7/7/7 8/8/8
f 8/8/8 13/13/13 12/12/12
f 14/14/14 5/5/5 11/11/11
f 14/14/14 9/9/9 5/5/5
f 15/15/15 11/11/11 7/7/7
f 12/12/12 15/15/15 7/7/7
f 15/15/15 14/14/14 11/11/11
f 9/9/9 16/16/16 10/10/10
f 16/16/16 17/17/17 10/10/10
f 18/18/18 9/9/9 14/14/14
f 18/18/18 16/16/16 9/9/9
f 15/15/15 19/19/19 14/14/14
f 19/19/19 18/18/18 14/14/14
f 20/20/20 15/15/15 12/12/12
f 20/20/20 19/19/19 15/15/15
f 12/12/12 13/13/13 21/21/21
f 12/12/12 21/21/21 20/20/20
f 22/22/22 16/16/16 18/18/18
f 22/22/22 18/18/18 19/19/19
f 23/23/23 19/19/19 20/20/20
f 21/21/21 23/23/23 20/20/20
f 23/23/23 22/22/22 19/19/19
f 13/13/13 24/24/24 21/21/21
f 25/25/25 24/24/24 13/13/13
f 22/22/22 26/26/26 16/16/16
f 26/26/26 17/17/17 16/16/16
f 27/27/27 22/22/22 23/23/23
f 27/27/27 26/26/26 22/22/22
f 21/21/21 28/28/28 23/23/23
f 24/24/24 28/28/28 21/21/21
f 28/28/28 27/27/27 23/23/23
f 29/29/29 26/26/26 27/27/27
f 29/29/29 27/27/27 28/28/28
f 30/30/30 28/28/28 24/24/24
f 25/25/25 30/30/30 24/24/24
f 30/30/30 29/29/29 28/28/28
f 31/31/31 17/17/17 26/26/26
f 29/29/29 31/31/31 26/26/26
f 32/32/32 29/29/29 30/30/30
f 32/32/32 31/31/31 29/29/29
f 33/33/33 17/17/17 31/31/31
f 34/34/34 17/17/17 33/33/33
f 35/35/35 32/32/32 30/30/30
f 25/25/25 35/35/35 30/30/30
f 36/36/36 31/31/31 32/32/32
f 36/36/36 33/33/33 31/31/31
f 36/36/36 32/32/32 35/35/35
f 37/37/37 34/34/34 33/33/33
f 38/38/38 34/34/34 37/37/37
f 38/38/38 37/37/37 39/39/39
f 40/40/40 33/33/33 36/36/36
f 37/37/37 33/33/33 40/40/40
f 39/39/39 37/37/37 41/41/41
f 37/37/37 40/40/40 41/41/41
f 39/39/39 41/41/41 42/42/42
f 40/40/40 36/36/36 43/43/43
f 43/43/43 36/36/36 35/35/35
f 41/41/41 40/40/40 43/43/43
f 42/42/42 41/41/41 44/44/44
f 44/44/44 41/41/41 43/43/43
f 42/42/42 44/44/44 45/45/45
f 43/43/43 35/35/35 46/46/46
f 44/44/44 43/43/43 46/46/46
f 46/46/46 35/35/35 25/25/25
f 45/45/45 44/44/44 47/47/47
f 44/44/44 46/46/46 47/47/47
f 46/46/46 25/25/25 47/47/47
f 45/45/45 47/47/47 48/48/48
f 47/47/47 25/25/25 49/49/49
f 47/47/47 49/49/49 48/48/48
