g spokes_low
v 0.01318165 0.2973126 -0.01081151
v -0.01327038 0.2973126 -0.01081151
v -0.01327038 -0.2969183 -0.01081151
v 0.01318165 -0.2969183 -0.01081151
v 0.01533982 -0.2967351 -0.01008963
v 0.01533982 0.297157 -0.01008963
v 0.01603886 -0.2962961 -0.007923973
v 0.01603886 0.2966904 -0.007923973
v 0.01587538 -0.2932597 0.007539413
v 0.01587538 0.293654 0.007539413
v 0.01513055 -0.2928758 0.009705066
v 0.01513055 0.2932426 0.009705066
v 0.01295711 -0.2927478 0.01042695
v 0.01295711 0.2931422 0.01042695
v -0.01304584 -0.2927478 0.01042695
v -0.01304584 0.2931422 0.01042695
v -0.01521929 -0.2928483 0.009705066
v -0.01521929 0.2932701 0.009705066
v -0.01596412 -0.2932597 0.007539413
v -0.01596412 0.293654 0.007539413
v -0.0161276 -0.2962961 -0.007923973
v -0.0161276 0.2966904 -0.007923973
v -0.01542856 -0.2967627 -0.01008963
v -0.01542856 0.2971295 -0.01008963
v -0.01327038 -0.2969183 -0.01081151
v -0.01327038 0.2973126 -0.01081151
v 0.297071 -0.01302885 -0.01081151
v 0.297071 0.01342317 -0.01081151
v -0.2971598 0.01342317 -0.01081151
v -0.2971598 -0.01302885 -0.01081151
v -0.2969767 -0.01518703 -0.01008963
v 0.2969155 -0.01518703 -0.01008963
v -0.2965376 -0.01588607 -0.007923973
v 0.2964489 -0.01588607 -0.007923973
v -0.2935013 -0.01572259 0.007539413
v 0.2934125 -0.01572259 0.007539413
v -0.2931173 -0.01497776 0.009705066
v 0.2930011 -0.01497776 0.009705066
v -0.2929894 -0.01280432 0.01042695
v 0.2929006 -0.01280432 0.01042695
v -0.2929894 0.01319864 0.01042695
v 0.2929006 0.01319864 0.01042695
v -0.2930898 0.01537208 0.009705066
v 0.2930286 0.01537208 0.009705066
v -0.2935013 0.01611691 0.007539413
v 0.2934125 0.01611691 0.007539413
v -0.2965376 0.01628039 -0.007923973
v 0.2964489 0.01628039 -0.007923973
v -0.2970043 0.01558135 -0.01008963
v 0.2968879 0.01558135 -0.01008963
v -0.2971598 0.01342317 -0.01081151
v 0.297071 0.01342317 -0.01081151
v -0.2000381 0.008206015 0.4946322
v 0.1999494 -0.007811693 0.4946322
v 0.1999494 0.008206015 0.4946322
v -0.2000381 -0.007811693 0.4946322
v -0.199855 -0.00996987 0.4953541
v 0.1997938 -0.00996987 0.4953541
v -0.1994159 -0.01066891 0.4975198
v 0.1993272 -0.01066891 0.4975198
v -0.1963795 -0.01050543 0.5129831
v 0.1962908 -0.01050543 0.5129831
v -0.1959956 -0.009760598 0.5151488
v 0.1958793 -0.009760597 0.5151488
v -0.1958677 -0.007587156 0.5158707
v 0.1957789 -0.007587156 0.5158707
v -0.1958677 0.007981478 0.5158707
v 0.1957789 0.007981478 0.5158707
v -0.1959681 0.01015492 0.5151488
v 0.1959069 0.01015492 0.5151488
v -0.1963795 0.01089975 0.5129831
v 0.1962908 0.01089975 0.5129831
v -0.1994159 0.01106323 0.4975198
v 0.1993272 0.01106323 0.4975198
v -0.1998825 0.01036419 0.4953541
v 0.1997662 0.01036419 0.4953541
v -0.2000381 0.008206015 0.4946322
v 0.1999494 0.008206015 0.4946322
v 0.007964488 0.2001909 0.4946322
v -0.00805322 -0.1997966 0.4946322
v 0.007964488 -0.1997966 0.4946322
v -0.00805322 0.2001909 0.4946322
v -0.0102114 0.2000078 0.4953541
v -0.0102114 -0.199641 0.4953541
v -0.01091044 0.1995687 0.4975198
v -0.01091044 -0.1991744 0.4975198
v -0.01074696 0.1965323 0.5129831
v -0.01074696 -0.196138 0.5129831
v -0.01000213 0.1961484 0.5151488
v -0.01000212 -0.1957265 0.5151488
v -0.007828684 0.1960205 0.5158707
v -0.007828684 -0.1956261 0.5158707
v 0.007739951 0.1960205 0.5158707
v 0.007739951 -0.1956261 0.5158707
v 0.009913392 0.1961209 0.5151488
v 0.009913393 -0.1957541 0.5151488
v 0.01065823 0.1965323 0.5129831
v 0.01065823 -0.196138 0.5129831
v 0.01082171 0.1995687 0.4975198
v 0.01082171 -0.1991744 0.4975198
v 0.01012267 0.2000353 0.4953541
v 0.01012267 -0.1996134 0.4953541
v 0.007964488 0.2001909 0.4946322
v 0.007964488 -0.1997966 0.4946322
v 0.1832173 0.168444 0.2364654
v -0.183306 -0.1680496 0.2364654
v -0.1682912 -0.1830645 0.2364654
v 0.1682024 0.1834588 0.2364654
v 0.1665469 0.1848554 0.2371873
v -0.1847221 -0.1664136 0.2371873
v 0.1657421 0.1850393 0.2393529
v -0.1848865 -0.1655893 0.2393529
v 0.1637107 0.1827771 0.2548163
v -0.1826243 -0.1635579 0.2548163
v 0.1639659 0.181979 0.2569819
v -0.1818067 -0.1637936 0.2569819
v 0.1654122 0.1803516 0.2577038
v -0.1801989 -0.1652594 0.2577038
v 0.1801101 0.1656538 0.2577038
v -0.165501 -0.1799573 0.2577038
v 0.1817179 0.1641879 0.2569819
v -0.1640546 -0.1815847 0.2569819
v 0.1825355 0.1639522 0.2548163
v -0.1637994 -0.1823827 0.2548163
v 0.1847978 0.1659837 0.2393529
v -0.1658309 -0.184645 0.2393529
v 0.1846334 0.1668079 0.2371873
v -0.1666356 -0.1844611 0.2371873
v 0.1832173 0.168444 0.2364654
v -0.1682912 -0.1830645 0.2364654
v 0.1682024 -0.1830645 0.2364654
v 0.1832173 -0.1680496 0.2364654
v -0.1682912 0.1834588 0.2364654
v -0.183306 0.168444 0.2364654
v -0.1847026 0.1667884 0.2371873
v 0.1665664 -0.1844806 0.2371873
v -0.1848865 0.1659837 0.2393529
v 0.1657421 -0.184645 0.2393529
v -0.1826243 0.1639522 0.2548163
v 0.1637107 -0.1823827 0.2548163
v -0.1818262 0.1642074 0.2569819
v 0.1639464 -0.1815652 0.2569819
v -0.1801989 0.1656538 0.2577038
v 0.1654122 -0.1799573 0.2577038
v -0.165501 0.1803516 0.2577038
v 0.1801101 -0.1652594 0.2577038
v -0.1640351 0.1819595 0.2569819
v 0.1817374 -0.1638131 0.2569819
v -0.1637994 0.1827771 0.2548163
v 0.1825355 -0.1635579 0.2548163
v -0.1658309 0.1850393 0.2393529
v 0.1847978 -0.1655893 0.2393529
v -0.1666551 0.1848749 0.2371873
v 0.1846139 -0.1663941 0.2371873
v -0.1682912 0.1834588 0.2364654
v 0.1832173 -0.1680496 0.2364654
vt 0.05859375 0.5751953
vt 0.05252075 0.5751953
vt 0.0519104 0.7119141
vt 0.0579834 0.7119141
vt 0.06036377 0.7114258
vt 0.06097412 0.5751953
vt 0.06274414 0.7109375
vt 0.06335449 0.5756836
vt 0.06628418 0.7104492
vt 0.06689453 0.5761719
vt 0.06866455 0.7099609
vt 0.06921387 0.5761719
vt 0.07098389 0.7099609
vt 0.0715332 0.5761719
vt 0.0769043 0.7099609
vt 0.07745361 0.5766602
vt 0.07922363 0.7099609
vt 0.07983398 0.5761719
vt 0.08154297 0.7099609
vt 0.08215332 0.5761719
vt 0.08508301 0.7109375
vt 0.08569336 0.5751953
vt 0.08746338 0.7109375
vt 0.08807373 0.574707
vt 0.08984375 0.7109375
vt 0.0904541 0.574707
vt 0.08349609 0.5615234
vt 0.08959961 0.5615234
vt 0.09020996 0.425293
vt 0.08410645 0.425293
vt 0.08172607 0.425293
vt 0.08111572 0.5615234
vt 0.0793457 0.4257813
vt 0.07879639 0.5615234
vt 0.07580566 0.4265137
vt 0.07525635 0.5605469
vt 0.07348633 0.4267578
vt 0.07287598 0.5605469
vt 0.07116699 0.427002
vt 0.07055664 0.5605469
vt 0.06524658 0.427002
vt 0.06463623 0.5605469
vt 0.06286621 0.427002
vt 0.06228638 0.5605469
vt 0.06054688 0.4267578
vt 0.05996704 0.5610352
vt 0.05700684 0.4260254
vt 0.056427 0.5615234
vt 0.05465698 0.4260254
vt 0.05401611 0.5620117
vt 0.05227661 0.4260254
vt 0.05166626 0.5625
vt 0.03955078 0.3359375
vt 0.0352478 0.4277344
vt 0.03890991 0.4277344
vt 0.03588867 0.3359375
vt 0.03427124 0.3359375
vt 0.03363037 0.4277344
vt 0.03265381 0.3361816
vt 0.03204346 0.4274902
vt 0.02912903 0.3369141
vt 0.02850342 0.4267578
vt 0.02755737 0.3371582
vt 0.02694702 0.4267578
vt 0.02598572 0.3371582
vt 0.02537537 0.4267578
vt 0.02243042 0.3371582
vt 0.02182007 0.4265137
vt 0.02087402 0.3371582
vt 0.02026367 0.4267578
vt 0.01930237 0.3369141
vt 0.01869202 0.427002
vt 0.01576233 0.3364258
vt 0.01514435 0.4274902
vt 0.01416779 0.3361816
vt 0.01354218 0.4279785
vt 0.01256561 0.3361816
vt 0.01194 0.4279785
vt 0.01258087 0.5356445
vt 0.01689148 0.4438477
vt 0.01320648 0.4438477
vt 0.01626587 0.5356445
vt 0.01786804 0.5356445
vt 0.01849365 0.4438477
vt 0.01947021 0.5351563
vt 0.02008057 0.4440918
vt 0.02301025 0.534668
vt 0.02362061 0.4448242
vt 0.02458191 0.534668
vt 0.02519226 0.4448242
vt 0.02615356 0.5341797
vt 0.02674866 0.4448242
vt 0.02970886 0.5341797
vt 0.03030396 0.4448242
vt 0.03125 0.5341797
vt 0.03186035 0.4448242
vt 0.03283691 0.534668
vt 0.03344727 0.4445801
vt 0.03637695 0.5351563
vt 0.0369873 0.4438477
vt 0.03796387 0.5351563
vt 0.03860474 0.4436035
vt 0.03955078 0.5351563
vt 0.04019165 0.4436035
vt 0.04266357 0.6728516
vt 0.04238892 0.7871094
vt 0.04727173 0.7871094
vt 0.03781128 0.6733398
vt 0.03582764 0.6733398
vt 0.04040527 0.7871094
vt 0.03384399 0.6738281
vt 0.03842163 0.7871094
vt 0.03033447 0.6748047
vt 0.03485107 0.7866211
vt 0.02839661 0.675293
vt 0.03289795 0.7866211
vt 0.02645874 0.675293
vt 0.03096008 0.7866211
vt 0.02171326 0.6757813
vt 0.0262146 0.7871094
vt 0.01977539 0.6757813
vt 0.02427673 0.7871094
vt 0.01780701 0.6757813
vt 0.02233887 0.7875977
vt 0.01425171 0.6748047
vt 0.01882935 0.7885742
vt 0.01226044 0.6748047
vt 0.01686096 0.7890625
vt 0.01026917 0.675293
vt 0.01486969 0.7890625
vt 0.01245117 0.5522461
vt 0.007579803 0.5522461
vt 0.01124573 0.6665039
vt 0.01611328 0.6660156
vt 0.01809692 0.6660156
vt 0.01444244 0.5522461
vt 0.02008057 0.6655273
vt 0.01643372 0.5522461
vt 0.02359009 0.6645508
vt 0.01998901 0.5527344
vt 0.02554321 0.6640625
vt 0.02194214 0.5527344
vt 0.02748108 0.6640625
vt 0.02389526 0.5527344
vt 0.03222656 0.6640625
vt 0.02862549 0.5527344
vt 0.03417969 0.6640625
vt 0.03057861 0.5522461
vt 0.03613281 0.6640625
vt 0.03253174 0.5517578
vt 0.03967285 0.6645508
vt 0.03604126 0.5512695
vt 0.04168701 0.6645508
vt 0.0380249 0.5507813
vt 0.04367065 0.6645508
vt 0.04000854 0.550293
vn 0.1571045 0 -0.987793
vn -0.1564941 0 -0.987793
vn -0.1571045 0 -0.987793
vn 0.1564941 0 -0.987793
vn 0.6782227 0 -0.7348633
vn 0.6782227 0 -0.7348633
vn 0.9853516 0 -0.1699219
vn 0.9853516 0 -0.1704102
vn 0.9882813 0 0.1519775
vn 0.9882813 0 0.1512451
vn 0.7270508 0 0.6865234
vn 0.7265625 0 0.6870117
vn 0.1624756 0 0.9868164
vn 0.1618652 0 0.9868164
vn -0.1618652 0 0.9868164
vn -0.1624756 0 0.9868164
vn -0.7265625 0 0.6870117
vn -0.7270508 0 0.6865234
vn -0.9882813 0 0.1512451
vn -0.9882813 0 0.1519775
vn -0.9853516 0 -0.1704102
vn -0.9853516 0 -0.1699219
vn -0.6782227 0 -0.7348633
vn -0.6782227 0 -0.7348633
vn -0.1571045 0 -0.987793
vn -0.1564941 0 -0.987793
vn 0 -0.1571045 -0.987793
vn 0 0.1564941 -0.987793
vn 0 0.1571045 -0.987793
vn 0 -0.1564941 -0.987793
vn 0 -0.6782227 -0.7348633
vn 0 -0.6782227 -0.7348633
vn 0 -0.9853516 -0.1699219
vn 0 -0.9853516 -0.1704102
vn 0 -0.9882813 0.1519775
vn 0 -0.9882813 0.1512451
vn 0 -0.7270508 0.6865234
vn 0 -0.7265625 0.6870117
vn 0 -0.1624756 0.9868164
vn 0 -0.1618652 0.9868164
vn 0 0.1618652 0.9868164
vn 0 0.1624756 0.9868164
vn 0 0.7265625 0.6870117
vn 0 0.7270508 0.6865234
vn 0 0.9882813 0.1512451
vn 0 0.9882813 0.1519775
vn 0 0.9853516 -0.1704102
vn 0 0.9853516 -0.1699219
vn 0 0.6782227 -0.7348633
vn 0 0.6782227 -0.7348633
vn 0 0.1571045 -0.987793
vn 0 0.1564941 -0.987793
vn 0 0.1571045 -0.987793
vn 0 -0.1571045 -0.987793
vn 0 0.1564941 -0.987793
vn 0 -0.1564941 -0.987793
vn 0 -0.6782227 -0.7348633
vn 0 -0.6782227 -0.7348633
vn 0 -0.9853516 -0.1699219
vn 0 -0.9853516 -0.1704102
vn 0 -0.9882813 0.1519775
vn 0 -0.9882813 0.1512451
vn 0 -0.7270508 0.6865234
vn 0 -0.7265625 0.6870117
vn 0 -0.1624756 0.9868164
vn 0 -0.1618652 0.9868164
vn 0 0.1618652 0.9868164
vn 0 0.1624756 0.9868164
vn 0 0.7265625 0.6870117
vn 0 0.7270508 0.6865234
vn 0 0.9882813 0.1512451
vn 0 0.9882813 0.1519775
vn 0 0.9853516 -0.1704102
vn 0 0.9853516 -0.1699219
vn 0 0.6782227 -0.7348633
vn 0 0.6782227 -0.7348633
vn 0 0.1571045 -0.987793
vn 0 0.1564941 -0.987793
vn 0.1571045 0 -0.987793
vn -0.1571045 0 -0.987793
vn 0.1564941 0 -0.987793
vn -0.1564941 0 -0.987793
vn -0.6782227 0 -0.7348633
vn -0.6782227 0 -0.7348633
vn -0.9853516 0 -0.1699219
vn -0.9853516 0 -0.1704102
vn -0.9882813 0 0.1519775
vn -0.9882813 0 0.1512451
vn -0.7270508 0 0.6865234
vn -0.7265625 0 0.6870117
vn -0.1624756 0 0.9868164
vn -0.1618652 0 0.9868164
vn 0.1618652 0 0.9868164
vn 0.1624756 0 0.9868164
vn 0.7265625 0 0.6870117
vn 0.7270508 0 0.6865234
vn 0.9882813 0 0.1512451
vn 0.9882813 0 0.1519775
vn 0.9853516 0 -0.1704102
vn 0.9853516 0 -0.1699219
vn 0.6782227 0 -0.7348633
vn 0.6782227 0 -0.7348633
vn 0.1571045 0 -0.987793
vn 0.1564941 0 -0.987793
vn 0.111084 -0.111084 -0.987793
vn -0.111084 0.111084 -0.987793
vn 0.1106567 -0.1106567 -0.987793
vn -0.1106567 0.1106567 -0.987793
vn -0.4797363 0.4797363 -0.7348633
vn -0.4794922 0.4794922 -0.7348633
vn -0.6967773 0.6967773 -0.1699219
vn -0.6967773 0.6967773 -0.1705322
vn -0.6987305 0.6987305 0.1519775
vn -0.6987305 0.6987305 0.1512451
vn -0.5141602 0.5141602 0.6865234
vn -0.5136719 0.5136719 0.6870117
vn -0.1148682 0.1148682 0.9868164
vn -0.1144409 0.1144409 0.9868164
vn 0.1144409 -0.1144409 0.9868164
vn 0.1148682 -0.1148682 0.9868164
vn 0.5136719 -0.5136719 0.6870117
vn 0.5141602 -0.5141602 0.6865234
vn 0.6987305 -0.6987305 0.1512451
vn 0.6987305 -0.6987305 0.1519775
vn 0.6967773 -0.6967773 -0.1705322
vn 0.6967773 -0.6967773 -0.1699219
vn 0.4794922 -0.4794922 -0.7348633
vn 0.4797363 -0.4797363 -0.7348633
vn 0.111084 -0.111084 -0.987793
vn 0.1106567 -0.1106567 -0.987793
vn -0.111084 -0.111084 -0.987793
vn 0.1106567 0.1106567 -0.987793
vn 0.111084 0.111084 -0.987793
vn -0.1106567 -0.1106567 -0.987793
vn -0.4797363 -0.4797363 -0.7348633
vn -0.4794922 -0.4794922 -0.7348633
vn -0.6967773 -0.6967773 -0.1699219
vn -0.6967773 -0.6967773 -0.1705322
vn -0.6987305 -0.6987305 0.1519775
vn -0.6987305 -0.6987305 0.1512451
vn -0.5141602 -0.5141602 0.6865234
vn -0.5136719 -0.5136719 0.6870117
vn -0.1148682 -0.1148682 0.9868164
vn -0.1144409 -0.1144409 0.9868164
vn 0.1144409 0.1144409 0.9868164
vn 0.1148682 0.1148682 0.9868164
vn 0.5136719 0.5136719 0.6870117
vn 0.5141602 0.5141602 0.6865234
vn 0.6987305 0.6987305 0.1512451
vn 0.6987305 0.6987305 0.1519775
vn 0.6967773 0.6967773 -0.1705322
vn 0.6967773 0.6967773 -0.1699219
vn 0.4794922 0.4794922 -0.7348633
vn 0.4797363 0.4797363 -0.7348633
vn 0.111084 0.111084 -0.987793
vn 0.1106567 0.1106567 -0.987793
g spokes_low_0
f 3/3/3 2/2/2 1/1/1
f 4/4/4 3/3/3 1/1/1
f 5/5/5 4/4/4 1/1/1
f 6/6/6 5/5/5 1/1/1
f 7/7/7 5/5/5 6/6/6
f 8/8/8 7/7/7 6/6/6
f 7/7/7 8/8/8 9/9/9
f 8/8/8 10/10/10 9/9/9
f 9/9/9 10/10/10 11/11/11
f 10/10/10 12/12/12 11/11/11
f 11/11/11 12/12/12 13/13/13
f 12/12/12 14/14/14 13/13/13
f 13/13/13 14/14/14 15/15/15
f 14/14/14 16/16/16 15/15/15
f 17/17/17 15/15/15 16/16/16
f 18/18/18 17/17/17 16/16/16
f 19/19/19 17/17/17 18/18/18
f 20/20/20 19/19/19 18/18/18
f 21/21/21 19/19/19 20/20/20
f 22/22/22 21/21/21 20/20/20
f 21/21/21 22/22/22 23/23/23
f 22/22/22 24/24/24 23/23/23
f 23/23/23 24/24/24 25/25/25
f 24/24/24 26/26/26 25/25/25
f 29/29/29 28/28/28 27/27/27
f 30/30/30 29/29/29 27/27/27
f 31/31/31 30/30/30 27/27/27
f 32/32/32 31/31/31 27/27/27
f 33/33/33 31/31/31 32/32/32
f 34/34/34 33/33/33 32/32/32
f 33/33/33 34/34/34 35/35/35
f 34/34/34 36/36/36 35/35/35
f 35/35/35 36/36/36 37/37/37
f 36/36/36 38/38/38 37/37/37
f 37/37/37 38/38/38 39/39/39
f 38/38/38 40/40/40 39/39/39
f 39/39/39 40/40/40 41/41/41
f 40/40/40 42/42/42 41/41/41
f 43/43/43 41/41/41 42/42/42
f 44/44/44 43/43/43 42/42/42
f 45/45/45 43/43/43 44/44/44
f 46/46/46 45/45/45 44/44/44
f 47/47/47 45/45/45 46/46/46
f 48/48/48 47/47/47 46/46/46
f 47/47/47 48/48/48 49/49/49
f 48/48/48 50/50/50 49/49/49
f 49/49/49 50/50/50 51/51/51
f 50/50/50 52/52/52 51/51/51
f 55/55/55 54/54/54 53/53/53
f 54/54/54 56/56/56 53/53/53
f 57/57/57 56/56/56 54/54/54
f 58/58/58 57/57/57 54/54/54
f 59/59/59 57/57/57 58/58/58
f 60/60/60 59/59/59 58/58/58
f 59/59/59 60/60/60 61/61/61
f 60/60/60 62/62/62 61/61/61
f 61/61/61 62/62/62 63/63/63
f 62/62/62 64/64/64 63/63/63
f 63/63/63 64/64/64 65/65/65
f 64/64/64 66/66/66 65/65/65
f 67/67/67 65/65/65 66/66/66
f 68/68/68 67/67/67 66/66/66
f 69/69/69 67/67/67 68/68/68
f 70/70/70 69/69/69 68/68/68
f 71/71/71 69/69/69 70/70/70
f 72/72/72 71/71/71 70/70/70
f 73/73/73 71/71/71 72/72/72
f 74/74/74 73/73/73 72/72/72
f 73/73/73 74/74/74 75/75/75
f 74/74/74 76/76/76 75/75/75
f 75/75/75 76/76/76 77/77/77
f 76/76/76 78/78/78 77/77/77
f 81/81/81 80/80/80 79/79/79
f 80/80/80 82/82/82 79/79/79
f 83/83/83 82/82/82 80/80/80
f 84/84/84 83/83/83 80/80/80
f 85/85/85 83/83/83 84/84/84
f 86/86/86 85/85/85 84/84/84
f 85/85/85 86/86/86 87/87/87
f 86/86/86 88/88/88 87/87/87
f 87/87/87 88/88/88 89/89/89
f 88/88/88 90/90/90 89/89/89
f 89/89/89 90/90/90 91/91/91
f 90/90/90 92/92/92 91/91/91
f 93/93/93 91/91/91 92/92/92
f 94/94/94 93/93/93 92/92/92
f 95/95/95 93/93/93 94/94/94
f 96/96/96 95/95/95 94/94/94
f 97/97/97 95/95/95 96/96/96
f 98/98/98 97/97/97 96/96/96
f 99/99/99 97/97/97 98/98/98
f 100/100/100 99/99/99 98/98/98
f 99/99/99 100/100/100 101/101/101
f 100/100/100 102/102/102 101/101/101
f 101/101/101 102/102/102 103/103/103
f 102/102/102 104/104/104 103/103/103
f 107/107/107 106/106/106 105/105/105
f 106/106/106 108/108/108 105/105/105
f 109/109/109 108/108/108 106/106/106
f 110/110/110 109/109/109 106/106/106
f 111/111/111 109/109/109 110/110/110
f 112/112/112 111/111/111 110/110/110
f 111/111/111 112/112/112 113/113/113
f 112/112/112 114/114/114 113/113/113
f 113/113/113 114/114/114 115/115/115
f 114/114/114 116/116/116 115/115/115
f 115/115/115 116/116/116 117/117/117
f 116/116/116 118/118/118 117/117/117
f 119/119/119 117/117/117 118/118/118
f 120/120/120 119/119/119 118/118/118
f 121/121/121 119/119/119 120/120/120
f 122/122/122 121/121/121 120/120/120
f 123/123/123 121/121/121 122/122/122
f 124/124/124 123/123/123 122/122/122
f 125/125/125 123/123/123 124/124/124
f 126/126/126 125/125/125 124/124/124
f 125/125/125 126/126/126 127/127/127
f 126/126/126 128/128/128 127/127/127
f 127/127/127 128/128/128 129/129/129
f 128/128/128 130/130/130 129/129/129
f 133/133/133 132/132/132 131/131/131
f 134/134/134 133/133/133 131/131/131
f 135/135/135 134/134/134 131/131/131
f 136/136/136 135/135/135 131/131/131
f 137/137/137 135/135/135 136/136/136
f 138/138/138 137/137/137 136/136/136
f 137/137/137 138/138/138 139/139/139
f 138/138/138 140/140/140 139/139/139
f 139/139/139 140/140/140 141/141/141
f 140/140/140 142/142/142 141/141/141
f 141/141/141 142/142/142 143/143/143
f 142/142/142 144/144/144 143/143/143
f 143/143/143 144/144/144 145/145/145
f 144/144/144 146/146/146 145/145/145
f 147/147/147 145/145/145 146/146/146
f 148/148/148 147/147/147 146/146/146
f 149/149/149 147/147/147 148/148/148
f 150/150/150 149/149/149 148/148/148
f 151/151/151 149/149/149 150/150/150
f 152/152/152 151/151/151 150/150/150
f 151/151/151 152/152/152 153/153/153
f 152/152/152 154/154/154 153/153/153
f 153/153/153 154/154/154 155/155/155
f 154/154/154 156/156/156 155/155/155
