g square_marker_V1_P2_L0
v -0.108 0.108 -0.024
v -0.018 0.108 -0.024
v -0.018 0.108 0.024
v -0.108 0.108 0.024
v -0.07199998 0.07200001 -0.024
v -0.07199998 0.018 -0.024
v -0.07199998 0.018 0.024
v -0.07199998 0.07200001 0.024
v -0.07199998 0.018 -0.024
v -0.108 0.018 -0.024
v -0.108 0.018 0.024
v -0.07199998 0.018 0.024
v -0.018 0.108 -0.024
v -0.018 0.07200001 -0.024
v -0.018 0.07200001 0.024
v -0.018 0.108 0.024
v -0.018 0.07200001 -0.024
v -0.07199998 0.07200001 -0.024
v -0.07199998 0.07200001 0.024
v -0.018 0.07200001 0.024
v -0.108 0.018 0.024
v -0.102 0.024 0.03
v -0.07799998 0.024 0.03
v -0.07199998 0.018 0.024
v -0.07199998 0.018 0.024
v -0.07799998 0.024 0.03
v -0.07799998 0.07800001 0.03
v -0.07199998 0.07200001 0.024
v -0.07199998 0.07200001 0.024
v -0.07799998 0.07800001 0.03
v -0.024 0.07800001 0.03
v -0.018 0.07200001 0.024
v -0.018 0.07200001 0.024
v -0.024 0.07800001 0.03
v -0.024 0.102 0.03
v -0.018 0.108 0.024
v -0.018 0.108 0.024
v -0.024 0.102 0.03
v -0.102 0.102 0.03
v -0.108 0.108 0.024
v -0.108 0.108 0.024
v -0.102 0.102 0.03
v -0.102 0.024 0.03
v -0.108 0.018 0.024
v -0.07799998 0.07800001 0.03
v -0.024 0.102 0.03
v -0.024 0.07800001 0.03
v -0.102 0.102 0.03
v -0.102 0.024 0.03
v -0.07799998 0.024 0.03
v -0.108 0.018 -0.024
v -0.07199998 0.018 -0.024
v -0.07799998 0.024 -0.03
v -0.102 0.024 -0.03
v -0.07199998 0.018 -0.024
v -0.07199998 0.07200001 -0.024
v -0.07799998 0.07800001 -0.03
v -0.07799998 0.024 -0.03
v -0.07199998 0.07200001 -0.024
v -0.018 0.07200001 -0.024
v -0.024 0.07800001 -0.03
v -0.07799998 0.07800001 -0.03
v -0.018 0.07200001 -0.024
v -0.018 0.108 -0.024
v -0.024 0.102 -0.03
v -0.024 0.07800001 -0.03
v -0.018 0.108 -0.024
v -0.108 0.108 -0.024
v -0.102 0.102 -0.03
v -0.024 0.102 -0.03
v -0.108 0.108 -0.024
v -0.108 0.018 -0.024
v -0.102 0.024 -0.03
v -0.102 0.102 -0.03
v -0.07799998 0.07800001 -0.03
v -0.024 0.07800001 -0.03
v -0.024 0.102 -0.03
v -0.102 0.102 -0.03
v -0.102 0.024 -0.03
v -0.07799998 0.024 -0.03
v -0.108 0.018 -0.024
v -0.108 0.108 -0.024
v -0.108 0.108 0.024
v -0.108 0.018 0.024
vt 0.01094333 0.4466902
vt 0.01094321 0.8824323
vt 0.243339 0.8824323
vt 0.243339 0.4466902
vt 0.497629 0.4466902
vt 0.4976291 0.1852446
vt 0.2652334 0.1852447
vt 0.2652333 0.4466903
vt 0.4976291 0.1852446
vt 0.497629 0.01094768
vt 0.2652332 0.01094767
vt 0.2652334 0.1852447
vt 0.4976291 0.8824325
vt 0.4976289 0.7081357
vt 0.2652333 0.7081356
vt 0.2652332 0.8824325
vt 0.4976289 0.7081357
vt 0.497629 0.4466902
vt 0.2652333 0.4466903
vt 0.2652333 0.7081356
vt 0.5195226 0.6994172
vt 0.5508245 0.6681154
vt 0.5508245 0.5429078
vt 0.5195226 0.511606
vt 0.5195226 0.511606
vt 0.5508245 0.5429078
vt 0.832541 0.5429077
vt 0.8012394 0.511606
vt 0.8012394 0.511606
vt 0.832541 0.5429077
vt 0.8325411 0.261191
vt 0.8012394 0.2298894
vt 0.8012394 0.2298894
vt 0.8325411 0.261191
vt 0.9577488 0.261191
vt 0.9890506 0.2298892
vt 0.9890506 0.2298892
vt 0.9577488 0.261191
vt 0.9577488 0.6681153
vt 0.9890506 0.6994171
vt 0.9890506 0.6994171
vt 0.9577488 0.6681153
vt 0.5508245 0.6681154
vt 0.5195226 0.6994172
vt 0.832541 0.5429077
vt 0.9577488 0.261191
vt 0.8325411 0.261191
vt 0.9577488 0.6681153
vt 0.5508245 0.6681154
vt 0.5508245 0.5429078
vt 0.5195214 0.4859499
vt 0.7073327 0.4859499
vt 0.6760308 0.454648
vt 0.5508233 0.454648
vt 0.7073327 0.4859499
vt 0.7073327 0.2042328
vt 0.676031 0.1729313
vt 0.6760308 0.454648
vt 0.7073327 0.2042328
vt 0.9890493 0.204233
vt 0.9577476 0.1729311
vt 0.676031 0.1729313
vt 0.9890493 0.204233
vt 0.9890494 0.01642178
vt 0.9577476 0.04772362
vt 0.9577476 0.1729311
vt 0.9890494 0.01642178
vt 0.5195215 0.01642172
vt 0.5508235 0.04772368
vt 0.9577476 0.04772362
vt 0.5195215 0.01642172
vt 0.5195214 0.4859499
vt 0.5508233 0.454648
vt 0.5508235 0.04772368
vt 0.676031 0.1729313
vt 0.9577476 0.1729311
vt 0.9577476 0.04772362
vt 0.5508235 0.04772368
vt 0.5508233 0.454648
vt 0.6760308 0.454648
vt 0.01094316 0.01094767
vt 0.01094333 0.4466902
vt 0.243339 0.4466902
vt 0.243339 0.01094767
vn 0 1 0
vn 0 1 0
vn 0 1 0
vn 0 1 0
vn 1 0 0
vn 1 0 0
vn 1 0 0
vn 1 0 0
vn 0 -1 0
vn 0 -1 0
vn 0 -1 0
vn 0 -1 0
vn 1 0 0
vn 1 0 0
vn 1 0 0
vn 1 0 0
vn 0 -1 0
vn 0 -1 0
vn 0 -1 0
vn 0 -1 0
vn 0 -0.7071069 0.7071066
vn 0 -0.7071069 0.7071066
vn 0 -0.7071069 0.7071066
vn 0 -0.7071069 0.7071066
vn 0.7071066 0 0.7071069
vn 0.7071066 0 0.7071069
vn 0.7071066 0 0.7071069
vn 0.7071066 0 0.7071069
vn 0 -0.7071068 0.7071067
vn 0 -0.7071068 0.7071067
vn 0 -0.7071068 0.7071067
vn 0 -0.7071068 0.7071067
vn 0.7071068 0 0.7071068
vn 0.7071068 0 0.7071068
vn 0.7071068 0 0.7071068
vn 0.7071068 0 0.7071068
vn 0 0.7071069 0.7071065
vn 0 0.7071069 0.7071065
vn 0 0.7071069 0.7071065
vn 0 0.7071069 0.7071065
vn -0.7071061 0 0.7071075
vn -0.7071061 0 0.7071075
vn -0.7071061 0 0.7071075
vn -0.7071061 0 0.7071075
vn 0 0 1
vn 0 0 1
vn 0 0 1
vn 0 0 1
vn 0 0 1
vn 0 0 1
vn 0 -0.7071069 -0.7071066
vn 0 -0.7071069 -0.7071066
vn 0 -0.7071069 -0.7071066
vn 0 -0.7071069 -0.7071066
vn 0.7071066 0 -0.7071069
vn 0.7071066 0 -0.7071069
vn 0.7071066 0 -0.7071069
vn 0.7071066 0 -0.7071069
vn 0 -0.7071068 -0.7071067
vn 0 -0.7071068 -0.7071067
vn 0 -0.7071068 -0.7071067
vn 0 -0.7071068 -0.7071067
vn 0.7071067 0 -0.7071068
vn 0.7071067 0 -0.7071068
vn 0.7071067 0 -0.7071068
vn 0.7071067 0 -0.7071068
vn 0 0.7071069 -0.7071065
vn 0 0.7071069 -0.7071065
vn 0 0.7071069 -0.7071065
vn 0 0.7071069 -0.7071065
vn -0.7071062 0 -0.7071072
vn -0.7071062 0 -0.7071072
vn -0.7071062 0 -0.7071072
vn -0.7071062 0 -0.7071072
vn 0 0 -1
vn 0 0 -1
vn 0 0 -1
vn 0 0 -1
vn 0 0 -1
vn 0 0 -1
vn -1 0 0
vn -1 0 0
vn -1 0 0
vn -1 0 0
g square_marker_V1_P2_L0_0
f 3/3/3 2/2/2 1/1/1
f 4/4/4 3/3/3 1/1/1
f 7/7/7 6/6/6 5/5/5
f 8/8/8 7/7/7 5/5/5
f 11/11/11 10/10/10 9/9/9
f 12/12/12 11/11/11 9/9/9
f 15/15/15 14/14/14 13/13/13
f 16/16/16 15/15/15 13/13/13
f 19/19/19 18/18/18 17/17/17
f 20/20/20 19/19/19 17/17/17
f 23/23/23 22/22/22 21/21/21
f 24/24/24 23/23/23 21/21/21
f 27/27/27 26/26/26 25/25/25
f 28/28/28 27/27/27 25/25/25
f 31/31/31 30/30/30 29/29/29
f 32/32/32 31/31/31 29/29/29
f 35/35/35 34/34/34 33/33/33
f 36/36/36 35/35/35 33/33/33
f 39/39/39 38/38/38 37/37/37
f 40/40/40 39/39/39 37/37/37
f 43/43/43 42/42/42 41/41/41
f 44/44/44 43/43/43 41/41/41
f 47/47/47 46/46/46 45/45/45
f 46/46/46 48/48/48 45/45/45
f 45/45/45 48/48/48 49/49/49
f 50/50/50 45/45/45 49/49/49
f 53/53/53 52/52/52 51/51/51
f 54/54/54 53/53/53 51/51/51
f 57/57/57 56/56/56 55/55/55
f 58/58/58 57/57/57 55/55/55
f 61/61/61 60/60/60 59/59/59
f 62/62/62 61/61/61 59/59/59
f 65/65/65 64/64/64 63/63/63
f 66/66/66 65/65/65 63/63/63
f 69/69/69 68/68/68 67/67/67
f 70/70/70 69/69/69 67/67/67
f 73/73/73 72/72/72 71/71/71
f 74/74/74 73/73/73 71/71/71
f 77/77/77 76/76/76 75/75/75
f 78/78/78 77/77/77 75/75/75
f 78/78/78 75/75/75 79/79/79
f 75/75/75 80/80/80 79/79/79
f 83/83/83 82/82/82 81/81/81
f 84/84/84 83/83/83 81/81/81
