g square_marker_V1_P3_L0
v -0.144 0.018 -0.024
v -0.18 0.018 -0.024
v -0.18 0.018 0.024
v -0.144 0.018 0.024
v -0.018 0.18 -0.024
v -0.018 0.144 -0.024
v -0.018 0.144 0.024
v -0.018 0.18 0.024
v -0.144 0.144 -0.024
v -0.144 0.018 -0.024
v -0.144 0.018 0.024
v -0.144 0.144 0.024
v -0.18 0.018 -0.024
v -0.18 0.18 -0.024
v -0.18 0.18 0.024
v -0.18 0.018 0.024
v -0.018 0.144 -0.024
v -0.144 0.144 -0.024
v -0.144 0.144 0.024
v -0.018 0.144 0.024
v -0.18 0.018 0.024
v -0.174 0.024 0.03
v -0.15 0.024 0.03
v -0.144 0.018 0.024
v -0.144 0.018 0.024
v -0.15 0.024 0.03
v -0.15 0.15 0.03
v -0.144 0.144 0.024
v -0.144 0.144 0.024
v -0.15 0.15 0.03
v -0.024 0.15 0.03
v -0.018 0.144 0.024
v -0.018 0.144 0.024
v -0.024 0.15 0.03
v -0.024 0.174 0.03
v -0.018 0.18 0.024
v -0.018 0.18 0.024
v -0.024 0.174 0.03
v -0.174 0.174 0.03
v -0.18 0.18 0.024
v -0.18 0.18 0.024
v -0.174 0.174 0.03
v -0.174 0.024 0.03
v -0.18 0.018 0.024
v -0.15 0.15 0.03
v -0.024 0.174 0.03
v -0.024 0.15 0.03
v -0.174 0.174 0.03
v -0.174 0.024 0.03
v -0.15 0.024 0.03
v -0.18 0.018 -0.024
v -0.144 0.018 -0.024
v -0.15 0.024 -0.03
v -0.174 0.024 -0.03
v -0.144 0.018 -0.024
v -0.144 0.144 -0.024
v -0.15 0.15 -0.03
v -0.15 0.024 -0.03
v -0.144 0.144 -0.024
v -0.018 0.144 -0.024
v -0.024 0.15 -0.03
v -0.15 0.15 -0.03
v -0.018 0.144 -0.024
v -0.018 0.18 -0.024
v -0.024 0.174 -0.03
v -0.024 0.15 -0.03
v -0.018 0.18 -0.024
v -0.18 0.18 -0.024
v -0.174 0.174 -0.03
v -0.024 0.174 -0.03
v -0.18 0.18 -0.024
v -0.18 0.018 -0.024
v -0.174 0.024 -0.03
v -0.174 0.174 -0.03
v -0.15 0.15 -0.03
v -0.024 0.15 -0.03
v -0.024 0.174 -0.03
v -0.174 0.174 -0.03
v -0.174 0.024 -0.03
v -0.15 0.024 -0.03
v -0.18 0.18 -0.024
v -0.018 0.18 -0.024
v -0.018 0.18 0.024
v -0.18 0.18 0.024
vt 0.8809339 0.155345
vt 0.989773 0.155345
vt 0.989773 0.01022645
vt 0.8809339 0.01022625
vt 0.01022288 0.1553449
vt 0.1190616 0.155345
vt 0.1190616 0.01022625
vt 0.01022288 0.01022625
vt 0.4999979 0.155345
vt 0.8809339 0.155345
vt 0.8809339 0.01022625
vt 0.4999979 0.01022613
vt 0.9897734 0.1788853
vt 0.4999981 0.1788851
vt 0.4999981 0.324004
vt 0.9897734 0.3240039
vt 0.1190616 0.155345
vt 0.4999979 0.155345
vt 0.4999979 0.01022613
vt 0.1190616 0.01022625
vt 0.5353485 0.3475453
vt 0.5158992 0.3669944
vt 0.5158992 0.4447911
vt 0.5353485 0.4642403
vt 0.5353485 0.4642403
vt 0.5158992 0.4447911
vt 0.1074657 0.4447913
vt 0.1269149 0.4642405
vt 0.1269149 0.4642405
vt 0.1074657 0.4447913
vt 0.1074657 0.8532246
vt 0.126915 0.8726738
vt 0.126915 0.8726738
vt 0.1074657 0.8532246
vt 0.02966888 0.8532247
vt 0.01021964 0.8726737
vt 0.01021964 0.8726737
vt 0.02966888 0.8532247
vt 0.02966883 0.3669944
vt 0.01021959 0.3475453
vt 0.01021959 0.3475453
vt 0.02966883 0.3669944
vt 0.5158992 0.3669944
vt 0.5353485 0.3475453
vt 0.1074657 0.4447913
vt 0.02966888 0.8532247
vt 0.1074657 0.8532246
vt 0.02966883 0.3669944
vt 0.5158992 0.3669944
vt 0.5158992 0.4447911
vt 0.6724918 0.3475464
vt 0.5557965 0.3475464
vt 0.5752456 0.3669956
vt 0.6530426 0.3669956
vt 0.5557965 0.3475464
vt 0.5557966 0.7559798
vt 0.575246 0.7754291
vt 0.5752456 0.3669956
vt 0.5557966 0.7559798
vt 0.1473632 0.7559801
vt 0.1668124 0.7754293
vt 0.575246 0.7754291
vt 0.1473632 0.7559801
vt 0.1473632 0.8726754
vt 0.1668124 0.853226
vt 0.1668124 0.7754293
vt 0.1473632 0.8726754
vt 0.6724918 0.8726752
vt 0.6530427 0.8532259
vt 0.1668124 0.853226
vt 0.6724918 0.8726752
vt 0.6724918 0.3475464
vt 0.6530426 0.3669956
vt 0.6530427 0.8532259
vt 0.575246 0.7754291
vt 0.1668124 0.7754293
vt 0.1668124 0.853226
vt 0.6530427 0.8532259
vt 0.6530426 0.3669956
vt 0.5752456 0.3669956
vt 0.4999981 0.1788851
vt 0.01022288 0.1788851
vt 0.01022288 0.3240038
vt 0.4999981 0.324004
vn 0 -1 0
vn 0 -1 0
vn 0 -1 0
vn 0 -1 0
vn 1 0 0
vn 1 0 0
vn 1 0 0
vn 1 0 0
vn 1 0 0
vn 1 0 0
vn 1 0 0
vn 1 0 0
vn -1 0 0
vn -1 0 0
vn -1 0 0
vn -1 0 0
vn 0 -1 0
vn 0 -1 0
vn 0 -1 0
vn 0 -1 0
vn 0 -0.7071068 0.7071068
vn 0 -0.7071068 0.7071068
vn 0 -0.7071068 0.7071068
vn 0 -0.7071068 0.7071068
vn 0.7071071 0 0.7071064
vn 0.7071071 0 0.7071064
vn 0.7071071 0 0.7071064
vn 0.7071071 0 0.7071064
vn 0 -0.7071069 0.7071066
vn 0 -0.7071069 0.7071066
vn 0 -0.7071069 0.7071066
vn 0 -0.7071069 0.7071066
vn 0.7071068 0 0.7071068
vn 0.7071068 0 0.7071068
vn 0.7071068 0 0.7071068
vn 0.7071068 0 0.7071068
vn 0 0.7071069 0.7071065
vn 0 0.7071069 0.7071065
vn 0 0.7071069 0.7071065
vn 0 0.7071069 0.7071065
vn -0.7071068 0 0.7071066
vn -0.7071068 0 0.7071066
vn -0.7071068 0 0.7071066
vn -0.7071068 0 0.7071066
vn 0 0 1
vn 0 0 1
vn 0 0 1
vn 0 0 1
vn 0 0 1
vn 0 0 1
vn 0 -0.7071067 -0.7071068
vn 0 -0.7071067 -0.7071068
vn 0 -0.7071067 -0.7071068
vn 0 -0.7071067 -0.7071068
vn 0.7071069 0 -0.7071066
vn 0.7071069 0 -0.7071066
vn 0.7071069 0 -0.7071066
vn 0.7071069 0 -0.7071066
vn 0 -0.7071068 -0.7071066
vn 0 -0.7071068 -0.7071066
vn 0 -0.7071068 -0.7071066
vn 0 -0.7071068 -0.7071066
vn 0.7071067 0 -0.7071068
vn 0.7071067 0 -0.7071068
vn 0.7071067 0 -0.7071068
vn 0.7071067 0 -0.7071068
vn 0 0.707107 -0.7071065
vn 0 0.707107 -0.7071065
vn 0 0.707107 -0.7071065
vn 0 0.707107 -0.7071065
vn -0.7071068 0 -0.7071068
vn -0.7071068 0 -0.7071068
vn -0.7071068 0 -0.7071068
vn -0.7071068 0 -0.7071068
vn 0 0 -1
vn 0 0 -1
vn 0 0 -1
vn 0 0 -1
vn 0 0 -1
vn 0 0 -1
vn 0 1 0
vn 0 1 0
vn 0 1 0
vn 0 1 0
g square_marker_V1_P3_L0_0
f 3/3/3 2/2/2 1/1/1
f 4/4/4 3/3/3 1/1/1
f 7/7/7 6/6/6 5/5/5
f 8/8/8 7/7/7 5/5/5
f 11/11/11 10/10/10 9/9/9
f 12/12/12 11/11/11 9/9/9
f 15/15/15 14/14/14 13/13/13
f 16/16/16 15/15/15 13/13/13
f 19/19/19 18/18/18 17/17/17
f 20/20/20 19/19/19 17/17/17
f 23/23/23 22/22/22 21/21/21
f 24/24/24 23/23/23 21/21/21
f 27/27/27 26/26/26 25/25/25
f 28/28/28 27/27/27 25/25/25
f 31/31/31 30/30/30 29/29/29
f 32/32/32 31/31/31 29/29/29
f 35/35/35 34/34/34 33/33/33
f 36/36/36 35/35/35 33/33/33
f 39/39/39 38/38/38 37/37/37
f 40/40/40 39/39/39 37/37/37
f 43/43/43 42/42/42 41/41/41
f 44/44/44 43/43/43 41/41/41
f 47/47/47 46/46/46 45/45/45
f 46/46/46 48/48/48 45/45/45
f 45/45/45 48/48/48 49/49/49
f 50/50/50 45/45/45 49/49/49
f 53/53/53 52/52/52 51/51/51
f 54/54/54 53/53/53 51/51/51
f 57/57/57 56/56/56 55/55/55
f 58/58/58 57/57/57 55/55/55
f 61/61/61 60/60/60 59/59/59
f 62/62/62 61/61/61 59/59/59
f 65/65/65 64/64/64 63/63/63
f 66/66/66 65/65/65 63/63/63
f 69/69/69 68/68/68 67/67/67
f 70/70/70 69/69/69 67/67/67
f 73/73/73 72/72/72 71/71/71
f 74/74/74 73/73/73 71/71/71
f 77/77/77 76/76/76 75/75/75
f 78/78/78 77/77/77 75/75/75
f 78/78/78 75/75/75 79/79/79
f 75/75/75 80/80/80 79/79/79
f 83/83/83 82/82/82 81/81/81
f 84/84/84 83/83/83 81/81/81
