g square_marker_V2_P3_L1
v 0.1800001 0.1799999 0.03
v 0.18 0.01799999 0.02999998
v 0.144 0.01799999 0.02999998
v 0.144 0.144 0.03
v -0.18 0.18 0.03
v -0.144 0.144 0.03
v -0.18 0.018 0.03
v -0.144 0.018 0.03
v 0.1800001 0.1799999 -0.03
v 0.18 0.01799999 -0.02999998
v 0.18 0.01799999 0.02999998
v 0.1800001 0.1799999 0.03
v -0.144 0.144 -0.03
v -0.144 0.018 -0.03
v -0.144 0.018 0.03
v -0.144 0.144 0.03
v -0.18 0.18 -0.03
v 0.1800001 0.1799999 -0.03
v 0.1800001 0.1799999 0.03
v -0.18 0.18 0.03
v -0.144 0.018 -0.03
v -0.18 0.018 -0.03
v -0.18 0.018 0.03
v -0.144 0.018 0.03
v 0.18 0.01799999 -0.02999998
v 0.144 0.01799999 -0.02999998
v 0.144 0.01799999 0.02999998
v 0.18 0.01799999 0.02999998
v 0.144 0.144 -0.03
v -0.144 0.144 -0.03
v -0.144 0.144 0.03
v 0.144 0.144 0.03
v -0.18 0.018 -0.03
v -0.18 0.18 -0.03
v -0.18 0.18 0.03
v -0.18 0.018 0.03
v 0.1800001 0.1799999 -0.03
v 0.144 0.01799999 -0.02999998
v 0.18 0.01799999 -0.02999998
v 0.144 0.144 -0.03
v -0.18 0.18 -0.03
v -0.144 0.144 -0.03
v -0.18 0.018 -0.03
v -0.144 0.018 -0.03
v 0.144 0.01799999 -0.02999998
v 0.144 0.144 -0.03
v 0.144 0.144 0.03
v 0.144 0.01799999 0.02999998
vt 0.4537089 0.009924404
vt 0.2215703 0.009924271
vt 0.2215703 0.06151063
vt 0.4021224 0.06151082
vt 0.453709 0.52579
vt 0.4021223 0.4742034
vt 0.2215696 0.52579
vt 0.2215697 0.4742036
vt 0.009922629 0.7579327
vt 0.009922806 0.9900719
vt 0.09590015 0.9900719
vt 0.09590015 0.7579327
vt 0.201724 0.2420673
vt 0.2017241 0.06151477
vt 0.1157468 0.06151478
vt 0.1157466 0.2420673
vt 0.009922748 0.2420676
vt 0.009922629 0.7579327
vt 0.09590015 0.7579327
vt 0.09590015 0.2420674
vt 0.2017241 0.06151477
vt 0.2017241 0.009928243
vt 0.1157468 0.00992825
vt 0.1157468 0.06151478
vt 0.2017241 0.8868983
vt 0.2017241 0.8353118
vt 0.1157466 0.8353118
vt 0.1157466 0.8868983
vt 0.201724 0.654759
vt 0.201724 0.2420673
vt 0.1157466 0.2420673
vt 0.1157466 0.654759
vt 0.009922629 0.009928429
vt 0.009922748 0.2420676
vt 0.09590015 0.2420674
vt 0.09590003 0.009928243
vt 0.705704 0.5257899
vt 0.4735645 0.4742034
vt 0.4735645 0.5257899
vt 0.6541174 0.4742034
vt 0.7057039 0.009924271
vt 0.6541176 0.06151066
vt 0.4735655 0.00992433
vt 0.4735655 0.0615107
vt 0.2017241 0.8353118
vt 0.201724 0.654759
vt 0.1157466 0.654759
vt 0.1157466 0.8353118
vn 0 0 1
vn 0 0 1
vn 0 0 1
vn 0 0 1
vn 0 0 1
vn 0 0 1
vn 0 0 1
vn 0 0 1
vn 1 0 0
vn 1 0 0
vn 1 0 0
vn 1 0 0
vn 1 0 0
vn 1 0 0
vn 1 0 0
vn 1 0 0
vn 0 1 0
vn 0 1 0
vn 0 1 0
vn 0 1 0
vn 0 -1 0
vn 0 -1 0
vn 0 -1 0
vn 0 -1 0
vn 0 -1 0
vn 0 -1 0
vn 0 -1 0
vn 0 -1 0
vn 0 -1 0
vn 0 -1 0
vn 0 -1 0
vn 0 -1 0
vn -1 0 0
vn -1 0 0
vn -1 0 0
vn -1 0 0
vn 0 0 -1
vn 0 0 -1
vn 0 0 -1
vn 0 0 -1
vn 0 0 -1
vn 0 0 -1
vn 0 0 -1
vn 0 0 -1
vn -1 0 0
vn -1 0 0
vn -1 0 0
vn -1 0 0
g square_marker_V2_P3_L1_0
f 3/3/3 2/2/2 1/1/1
f 4/4/4 3/3/3 1/1/1
f 4/4/4 1/1/1 5/5/5
f 6/6/6 4/4/4 5/5/5
f 6/6/6 5/5/5 7/7/7
f 8/8/8 6/6/6 7/7/7
f 11/11/11 10/10/10 9/9/9
f 12/12/12 11/11/11 9/9/9
f 15/15/15 14/14/14 13/13/13
f 16/16/16 15/15/15 13/13/13
f 19/19/19 18/18/18 17/17/17
f 20/20/20 19/19/19 17/17/17
f 23/23/23 22/22/22 21/21/21
f 24/24/24 23/23/23 21/21/21
f 27/27/27 26/26/26 25/25/25
f 28/28/28 27/27/27 25/25/25
f 31/31/31 30/30/30 29/29/29
f 32/32/32 31/31/31 29/29/29
f 35/35/35 34/34/34 33/33/33
f 36/36/36 35/35/35 33/33/33
f 39/39/39 38/38/38 37/37/37
f 38/38/38 40/40/40 37/37/37
f 37/37/37 40/40/40 41/41/41
f 40/40/40 42/42/42 41/41/41
f 41/41/41 42/42/42 43/43/43
f 42/42/42 44/44/44 43/43/43
f 47/47/47 46/46/46 45/45/45
f 48/48/48 47/47/47 45/45/45
