g square_marker_V1_P2_L1
v -0.108 0.018 0.03
v -0.07199998 0.07200001 0.03
v -0.07199998 0.018 0.03
v -0.108 0.108 0.03
v -0.018 0.07200001 0.03
v -0.018 0.108 0.03
v -0.108 0.108 -0.03
v -0.018 0.108 -0.03
v -0.018 0.108 0.03
v -0.108 0.108 0.03
v -0.07199998 0.07200001 -0.03
v -0.07199998 0.018 -0.03
v -0.07199998 0.018 0.03
v -0.07199998 0.07200001 0.03
v -0.07199998 0.018 -0.03
v -0.108 0.018 -0.03
v -0.108 0.018 0.03
v -0.07199998 0.018 0.03
v -0.018 0.108 -0.03
v -0.018 0.07200001 -0.03
v -0.018 0.07200001 0.03
v -0.018 0.108 0.03
v -0.018 0.07200001 -0.03
v -0.07199998 0.07200001 -0.03
v -0.07199998 0.07200001 0.03
v -0.018 0.07200001 0.03
v -0.108 0.018 -0.03
v -0.07199998 0.018 -0.03
v -0.07199998 0.07200001 -0.03
v -0.108 0.108 -0.03
v -0.018 0.07200001 -0.03
v -0.018 0.108 -0.03
v -0.108 0.018 -0.03
v -0.108 0.108 -0.03
v -0.108 0.108 0.03
v -0.108 0.018 0.03
vt 0.5870253 0.3970234
vt 0.7482452 0.6388531
vt 0.7482452 0.3970234
vt 0.5870254 0.8000729
vt 0.9900746 0.6388531
vt 0.9900746 0.8000729
vt 0.009929395 0.4129748
vt 0.009929395 0.8160241
vt 0.2786289 0.8160241
vt 0.2786289 0.4129748
vt 0.5671807 0.4129747
vt 0.5671806 0.171145
vt 0.298481 0.171145
vt 0.298481 0.4129748
vt 0.5671806 0.171145
vt 0.5671806 0.009925232
vt 0.298481 0.009925232
vt 0.298481 0.171145
vt 0.5671807 0.8160241
vt 0.5671807 0.6548043
vt 0.2984811 0.6548043
vt 0.2984811 0.8160241
vt 0.5671807 0.6548043
vt 0.5671807 0.4129747
vt 0.298481 0.4129748
vt 0.2984811 0.6548043
vt 0.5870253 0.009925232
vt 0.5870253 0.171145
vt 0.828855 0.171145
vt 0.9900748 0.009925253
vt 0.8288551 0.4129745
vt 0.9900749 0.4129745
vt 0.009929306 0.009925232
vt 0.009929395 0.4129748
vt 0.2786289 0.4129748
vt 0.2786289 0.009925232
vn 0 0 1
vn 0 0 1
vn 0 0 1
vn 0 0 1
vn 0 0 1
vn 0 0 1
vn 0 1 0
vn 0 1 0
vn 0 1 0
vn 0 1 0
vn 1 0 0
vn 1 0 0
vn 1 0 0
vn 1 0 0
vn 0 -1 0
vn 0 -1 0
vn 0 -1 0
vn 0 -1 0
vn 1 0 0
vn 1 0 0
vn 1 0 0
vn 1 0 0
vn 0 -1 0
vn 0 -1 0
vn 0 -1 0
vn 0 -1 0
vn 0 0 -1
vn 0 0 -1
vn 0 0 -1
vn 0 0 -1
vn 0 0 -1
vn 0 0 -1
vn -1 0 0
vn -1 0 0
vn -1 0 0
vn -1 0 0
g square_marker_V1_P2_L1_0
f 3/3/3 2/2/2 1/1/1
f 2/2/2 4/4/4 1/1/1
f 2/2/2 5/5/5 4/4/4
f 5/5/5 6/6/6 4/4/4
f 9/9/9 8/8/8 7/7/7
f 10/10/10 9/9/9 7/7/7
f 13/13/13 12/12/12 11/11/11
f 14/14/14 13/13/13 11/11/11
f 17/17/17 16/16/16 15/15/15
f 18/18/18 17/17/17 15/15/15
f 21/21/21 20/20/20 19/19/19
f 22/22/22 21/21/21 19/19/19
f 25/25/25 24/24/24 23/23/23
f 26/26/26 25/25/25 23/23/23
f 29/29/29 28/28/28 27/27/27
f 30/30/30 29/29/29 27/27/27
f 31/31/31 29/29/29 30/30/30
f 32/32/32 31/31/31 30/30/30
f 35/35/35 34/34/34 33/33/33
f 36/36/36 35/35/35 33/33/33
