g square_marker_V2_P1_L1
v -0.03599999 -0.03600001 0.03
v 0.03599999 0.03600001 0.03
v 0.03599999 -0.03600001 0.03
v -0.03599999 0.03600001 0.03
v -0.03599999 0.03600001 -0.03
v 0.03599999 0.03600001 -0.03
v 0.03599999 0.03600001 0.03
v -0.03599999 0.03600001 0.03
v 0.03599999 -0.03600001 -0.03
v -0.03599999 -0.03600001 -0.03
v -0.03599999 -0.03600001 0.03
v 0.03599999 -0.03600001 0.03
v 0.03599999 0.03600001 -0.03
v 0.03599999 -0.03600001 -0.03
v 0.03599999 -0.03600001 0.03
v 0.03599999 0.03600001 0.03
v -0.03599999 -0.03600001 -0.03
v 0.03599999 -0.03600001 -0.03
v 0.03599999 0.03600001 -0.03
v -0.03599999 0.03600001 -0.03
v -0.03599999 -0.03600001 -0.03
v -0.03599999 0.03600001 -0.03
v -0.03599999 0.03600001 0.03
v -0.03599999 -0.03600001 0.03
vt 0.6385363 0.01625006
vt 0.9891674 0.3668812
vt 0.9891674 0.01625006
vt 0.6385363 0.3668813
vt 0.324684 0.36146
vt 0.3246841 0.712091
vt 0.6168767 0.712091
vt 0.6168767 0.3614599
vt 0.3030271 0.3614598
vt 0.3030269 0.01082873
vt 0.01083437 0.0108288
vt 0.01083444 0.3614598
vt 0.3030271 0.712091
vt 0.3030271 0.3614598
vt 0.01083444 0.3614598
vt 0.01083453 0.712091
vt 0.989171 0.7405491
vt 0.9891708 0.3899181
vt 0.6385397 0.3899182
vt 0.6385399 0.7405492
vt 0.3246841 0.01082877
vt 0.324684 0.36146
vt 0.6168767 0.3614599
vt 0.6168766 0.01082873
vn 0 0 1
vn 0 0 1
vn 0 0 1
vn 0 0 1
vn 0 1 0
vn 0 1 0
vn 0 1 0
vn 0 1 0
vn 0 -1 0
vn 0 -1 0
vn 0 -1 0
vn 0 -1 0
vn 1 0 0
vn 1 0 0
vn 1 0 0
vn 1 0 0
vn 0 0 -1
vn 0 0 -1
vn 0 0 -1
vn 0 0 -1
vn -1 0 0
vn -1 0 0
vn -1 0 0
vn -1 0 0
g square_marker_V2_P1_L1_0
f 3/3/3 2/2/2 1/1/1
f 1/1/1 2/2/2 4/4/4
f 7/7/7 6/6/6 5/5/5
f 8/8/8 7/7/7 5/5/5
f 11/11/11 10/10/10 9/9/9
f 12/12/12 11/11/11 9/9/9
f 15/15/15 14/14/14 13/13/13
f 16/16/16 15/15/15 13/13/13
f 19/19/19 18/18/18 17/17/17
f 19/19/19 17/17/17 20/20/20
f 23/23/23 22/22/22 21/21/21
f 24/24/24 23/23/23 21/21/21
