g SquirrelEyes
v 0.2505704 -0.01910724 0.1525976
v 0.2364209 -0.01042192 0.1234503
v 0.2803479 -0.01932088 0.1294924
v 0.2713971 -0.03138115 0.1685747
v 0.2641739 -0.01568052 0.09424847
v 0.2263123 -0.01982211 0.07896134
v 0.2005177 -0.02381041 0.09510223
v 0.1977911 -0.04573886 0.06163416
v 0.1761181 -0.05067341 0.08241517
v 0.1711745 -0.07368807 0.06804147
v 0.225731 -0.04742905 0.04542973
v 0.2060318 -0.07762131 0.03632882
v 0.2561917 -0.03715888 0.05291948
v 0.182276 -0.09487447 0.0506746
v 0.1719948 -0.1203042 0.06358769
v 0.195405 -0.1212116 0.04197315
v 0.2033037 -0.1617169 0.05983309
v 0.1706253 -0.1461321 0.08666041
v 0.2516989 -0.07845128 0.02924441
v 0.2272691 -0.1076976 0.02774663
v 0.2331396 -0.14065 0.03576592
v 0.1846239 -0.1696462 0.1053112
v 0.1629145 -0.1418761 0.1162085
v 0.2576695 -0.1158007 0.02897228
v 0.1797714 -0.16277 0.1373974
v 0.1655941 -0.1358853 0.1475675
v 0.192135 -0.1505591 0.1732308
v 0.1851523 -0.1272417 0.1811702
v 0.2086342 -0.1824204 0.1408582
v 0.2272924 -0.1419697 0.1977182
v 0.2103522 -0.1005304 0.2013374
v 0.2559992 -0.09632957 0.2070021
v 0.2268811 -0.08031632 0.2030016
v 0.2453347 -0.05796586 0.196357
v 0.2114091 -0.1836661 0.09976137
v 0.2280037 -0.1730503 0.1695917
v 0.2796414 -0.05754387 0.1872432
v 0.2522966 -0.1869652 0.09036618
v 0.24492 -0.1905072 0.1240813
v 0.252096 -0.1858003 0.1467346
v 0.2638818 -0.1633928 0.1778132
v 0.2843598 -0.1788197 0.121348
v 0.2740531 -0.1344001 0.1960992
v 0.2956643 -0.1583373 0.1585593
v 0.2909662 -0.1168456 0.1912846
v 0.2430498 -0.1641219 0.05284519
v 0.2640857 -0.1473042 0.04192267
v 0.2675464 -0.172247 0.06727108
v 0.2948882 -0.1692846 0.08665213
v 0.324974 -0.1343548 0.1140415
v 0.2859001 -0.1528085 0.05708586
v 0.2889918 -0.1248278 0.04276579
v 0.3073117 -0.133548 0.0641594
v 0.2798724 -0.096202 0.03493109
v 0.3222799 -0.1299788 0.08591498
v 0.3093158 -0.1017846 0.05513984
v 0.2768653 -0.06826036 0.04003634
v 0.3016999 -0.07732151 0.05226019
v 0.2838327 -0.04103129 0.0624641
v 0.3302339 -0.09137166 0.09664655
v 0.3153856 -0.06382759 0.07635631
v 0.2981448 -0.0308553 0.09972543
v 0.3163183 -0.05013173 0.1027549
v 0.3141896 -0.04796444 0.1360735
v 0.3275616 -0.08961036 0.1387525
v 0.3070736 -0.05362382 0.1583606
v 0.3144604 -0.1212655 0.1609249
v 0.3113559 -0.08717452 0.1747493
v 0.2877163 -0.08519797 0.1927957
v -0.2443319 -0.05466863 0.1940569
v -0.2444998 -0.02933933 0.1715918
v -0.2107826 -0.04733997 0.1824135
v -0.2085327 -0.07156906 0.1954994
v -0.281747 -0.03571324 0.1677215
v -0.2525067 -0.01304229 0.138556
v -0.2397797 -0.09268118 0.2073014
v -0.2054653 -0.1006062 0.1990031
v -0.2770202 -0.07135651 0.1954462
v -0.2257229 -0.1340677 0.1992731
v -0.1976153 -0.1419609 0.1843107
v -0.2944176 -0.02770244 0.130888
v -0.3092599 -0.06292669 0.1627109
v -0.2705922 -0.01589478 0.1038647
v -0.2259811 -0.01317945 0.09792436
v -0.2452209 -0.02374204 0.06894415
v -0.279234 -0.1134687 0.1986585
v -0.2616516 -0.1402109 0.1959327
v -0.2336168 -0.1558733 0.1876793
v -0.3027999 -0.1088349 0.1818829
v -0.2194739 -0.1713815 0.1678668
v -0.1852488 -0.1624396 0.1509047
v -0.2895247 -0.143643 0.1803555
v -0.268248 -0.1711536 0.1680937
v -0.2047899 -0.1815042 0.1337171
v -0.1681543 -0.1542093 0.1158235
v -0.2386864 -0.1851415 0.1454826
v -0.1931501 -0.1725712 0.09153419
v -0.1705925 -0.1431865 0.08180295
v -0.2389335 -0.19217 0.1169485
v -0.2863736 -0.1790636 0.1321424
v -0.301325 -0.1616237 0.1476988
v -0.3150774 -0.1305986 0.1613179
v -0.3302796 -0.1264745 0.1222482
v -0.3219648 -0.100867 0.157345
v -0.3290423 -0.07561865 0.1289645
v -0.20264 -0.1497153 0.05023759
v -0.1715025 -0.1137743 0.06107499
v -0.1977565 -0.09973998 0.03745111
v -0.3055651 -0.03816899 0.09901418
v -0.3137283 -0.1565146 0.114362
v -0.2199069 -0.1740612 0.06919715
v -0.3291383 -0.0782788 0.1013278
v -0.2814017 -0.02993846 0.07574039
v -0.3034441 -0.05333237 0.06852103
v -0.2653688 -0.04786162 0.04733847
v -0.2316189 -0.04581615 0.04557196
v -0.3162687 -0.1393604 0.08201131
v -0.3269476 -0.1090794 0.08448233
v -0.3098515 -0.08145587 0.05855687
v -0.2840281 -0.07732063 0.03961023
v -0.301331 -0.1131906 0.04840902
v -0.2478499 -0.07416159 0.03077423
v -0.2953297 -0.1648271 0.0797615
v -0.2209222 -0.08203175 0.03119267
v -0.2011209 -0.05819836 0.04919654
v -0.2605533 -0.1000752 0.02721011
v -0.2288489 -0.1265408 0.03040146
v -0.2819048 -0.1490995 0.05219909
v -0.2641325 -0.1353839 0.03533703
v -0.2446662 -0.1633964 0.05141272
v -0.2584186 -0.1756624 0.06779403
v -0.2674208 -0.1843693 0.09636591
vt 0.991508 0.05144469
vt 0.9775307 0.03060023
vt 0.979292 0.05386893
vt 0.9918795 0.07409934
vt 0.9650884 0.03884105
vt 0.9506752 0.02429823
vt 0.9477504 0.01224378
vt 0.9273258 0.02117971
vt 0.9214442 0.01125828
vt 0.9054953 0.02155129
vt 0.9320442 0.03114954
vt 0.914916 0.03580348
vt 0.9445349 0.03672437
vt 0.9013265 0.0380011
vt 0.8859921 0.05323831
vt 0.8988057 0.05154185
vt 0.8962204 0.07311372
vt 0.882744 0.08153204
vt 0.9276651 0.04418973
vt 0.9132515 0.04900483
vt 0.9089049 0.06109146
vt 0.8932633 0.09563843
vt 0.8840367 0.1062225
vt 0.9205877 0.05519335
vt 0.8996459 0.1125894
vt 0.8965273 0.1256292
vt 0.9175498 0.1268087
vt 0.9229468 0.137328
vt 0.9099392 0.1082586
vt 0.9394612 0.1246759
vt 0.9533896 0.136019
vt 0.9669145 0.1169844
vt 0.9704208 0.1276006
vt 0.9858685 0.1112644
vt 0.9028293 0.09211615
vt 0.9246921 0.114738
vt 0.9824752 0.09334437
vt 0.9144312 0.08694533
vt 0.917372 0.09815935
vt 0.9243526 0.1038958
vt 0.9380712 0.1096321
vt 0.9290224 0.09248797
vt 0.9520648 0.110537
vt 0.9422887 0.09908048
vt 0.9595299 0.1040572
vt 0.9099876 0.07172386
vt 0.9178244 0.06605224
vt 0.9179376 0.07744447
vt 0.9278427 0.08138684
vt 0.9452296 0.08188776
vt 0.9245305 0.07138482
vt 0.9284892 0.06261043
vt 0.9338538 0.06980113
vt 0.9312524 0.05369095
vt 0.9408829 0.07435779
vt 0.9393963 0.06162481
vt 0.9380712 0.04737274
vt 0.9429189 0.05504839
vt 0.9511274 0.0453047
vt 0.9527757 0.06959084
vt 0.9531635 0.05823139
vt 0.9660256 0.05260805
vt 0.9629717 0.0610594
vt 0.9723923 0.06921951
vt 0.9617277 0.07983545
vt 0.9765613 0.07818738
vt 0.9555225 0.09256867
vt 0.9679163 0.09092037
vt 0.9710996 0.1002601
vt 0.5800971 0.1014605
vt 0.5683174 0.08656234
vt 0.5703695 0.1117862
vt 0.5839913 0.1208511
vt 0.5795477 0.07780427
vt 0.5684303 0.05812341
vt 0.5976131 0.1136443
vt 0.6024929 0.1283326
vt 0.5907618 0.09535295
vt 0.6200414 0.1197522
vt 0.6350363 0.1281547
vt 0.5849931 0.05991692
vt 0.5925232 0.07767516
vt 0.5843306 0.04362899
vt 0.5753465 0.02847225
vt 0.5965952 0.02259034
vt 0.6066132 0.1012667
vt 0.6184578 0.1077949
vt 0.6303505 0.1139513
vt 0.6059024 0.09137815
vt 0.6441823 0.1114791
vt 0.6626678 0.1132243
vt 0.6184414 0.09725946
vt 0.6317886 0.1001032
vt 0.6602924 0.1001841
vt 0.6816216 0.09325224
vt 0.6467029 0.09913367
vt 0.6717814 0.08021218
vt 0.6843043 0.06846482
vt 0.6527463 0.08918029
vt 0.6359091 0.08699864
vt 0.626747 0.08787137
vt 0.6147251 0.08623928
vt 0.6176658 0.0733121
vt 0.6059671 0.08035749
vt 0.6024123 0.06751138
vt 0.6687272 0.05602247
vt 0.6823813 0.0455193
vt 0.6635726 0.02991027
vt 0.5961587 0.05046422
vt 0.6283791 0.07641488
vt 0.6630071 0.06962806
vt 0.6078576 0.05954534
vt 0.5988249 0.03700382
vt 0.6077769 0.04312808
vt 0.615032 0.02763182
vt 0.6238548 0.01538343
vt 0.6286215 0.06453794
vt 0.6192656 0.06009466
vt 0.6178761 0.04681236
vt 0.6239839 0.03731054
vt 0.6294616 0.04993076
vt 0.6334368 0.02774495
vt 0.6383812 0.06865865
vt 0.6464606 0.02501411
vt 0.6437137 0.01011593
vt 0.6380904 0.03734321
vt 0.6552994 0.04274029
vt 0.6416132 0.05775148
vt 0.6450548 0.04931659
vt 0.654847 0.06033689
vt 0.6509203 0.06788307
vt 0.6461859 0.07820839
vn 0.218784 0.9367171 0.2733031
vn 0.04640666 0.9986082 -0.02506204
vn 0.4180383 0.8948123 0.1566998
vn 0.4267959 0.7445889 0.513257
vn 0.2277988 0.9388556 -0.2581819
vn -0.1710458 0.8935221 -0.4151646
vn -0.3974221 0.848807 -0.3486868
vn -0.499164 0.614618 -0.6108028
vn -0.6210835 0.5989126 -0.5055284
vn -0.6784965 0.3279218 -0.6573505
vn -0.1854523 0.587545 -0.7876537
vn -0.4019038 0.2586273 -0.8783993
vn 0.1413927 0.7039889 -0.6959941
vn -0.6806175 0.07439207 -0.7288523
vn -0.7079452 -0.2671822 -0.6537791
vn -0.5103286 -0.2357626 -0.8270313
vn -0.4215812 -0.6747118 -0.6058326
vn -0.7196612 -0.5853231 -0.3734766
vn 0.08108292 0.2584094 -0.9626267
vn -0.1777429 -0.06847135 -0.981692
vn -0.1243792 -0.435067 -0.8917659
vn -0.6374847 -0.7578741 -0.1387082
vn -0.8188598 -0.5736726 0.01919393
vn 0.168852 -0.1624081 -0.972169
vn -0.697272 -0.6761789 0.2378946
vn -0.783332 -0.5065657 0.360253
vn -0.5512839 -0.5658495 0.6131071
vn -0.5633356 -0.3668093 0.7403403
vn -0.3680367 -0.8929027 0.2593719
vn -0.1644093 -0.4358462 0.8848773
vn -0.2320138 -0.1394951 0.9626582
vn 0.1430638 0.04091386 0.9888675
vn -0.06218666 0.1340038 0.9890277
vn 0.1650252 0.3860149 0.9076117
vn -0.313683 -0.9250401 -0.2142515
vn -0.159637 -0.7886834 0.5937126
vn 0.4132035 0.4680613 0.7811411
vn 0.09208655 -0.9538282 -0.2858878
vn 0.0394161 -0.9980591 0.0482116
vn 0.1614856 -0.9268472 0.338935
vn 0.261882 -0.7092625 0.6544957
vn 0.5194564 -0.8502624 0.08496454
vn 0.3553105 -0.3864895 0.8511053
vn 0.6454837 -0.6351838 0.4241373
vn 0.5904073 -0.1935973 0.7835428
vn -0.02417894 -0.7393752 -0.6728594
vn 0.235133 -0.5075907 -0.8288934
vn 0.2571421 -0.8008535 -0.5408435
vn 0.6082739 -0.7476619 -0.2664666
vn 0.9131172 -0.4032896 0.05978637
vn 0.5021626 -0.5722817 -0.6483258
vn 0.5112033 -0.2623249 -0.8184479
vn 0.7290761 -0.3797682 -0.5694069
vn 0.4135211 0.04863119 -0.9091948
vn 0.8890339 -0.3280353 -0.3193926
vn 0.7577044 -0.02036897 -0.6522799
vn 0.3743734 0.3797839 -0.8459367
vn 0.6452361 0.275365 -0.7126321
vn 0.4687531 0.6643379 -0.5821734
vn 0.9798452 0.0891723 -0.1787501
vn 0.8018078 0.4000079 -0.4439571
vn 0.5987448 0.7766392 -0.1957965
vn 0.8455299 0.5190153 -0.1253085
vn 0.8017057 0.5586953 0.2124321
vn 0.9686484 0.08647291 0.2329008
vn 0.7143617 0.5154914 0.4732398
vn 0.8447667 -0.2838753 0.4536342
vn 0.7865569 0.1272544 0.6042637
vn 0.4888082 0.1736989 0.8549241
vn -0.03060788 0.5133379 0.8576406
vn -0.1140195 0.7419683 0.6606683
vn 0.1608757 0.5574874 0.8144488
vn 0.1951287 0.3257692 0.9250942
vn -0.4378519 0.7018439 0.5618725
vn -0.2431697 0.9479841 0.2054133
vn 0.01143482 0.07583653 0.9970547
vn 0.2803226 -0.04706223 0.9587515
vn -0.4079751 0.3169794 0.8562011
vn 0.1740922 -0.3310642 0.9274095
vn 0.3849104 -0.5189235 0.7632577
vn -0.5982264 0.7836806 0.1672423
vn -0.7532889 0.4081886 0.5156919
vn -0.2959962 0.945182 -0.1379034
vn -0.08390147 0.9796593 -0.1822862
vn -0.1603867 0.8513891 -0.4994122
vn -0.4007968 -0.1187781 0.9084348
vn -0.2010542 -0.4264053 0.8819046
vn 0.08265656 -0.635518 0.7676489
vn -0.6872467 -0.04019113 0.7253113
vn 0.2431222 -0.792238 0.559688
vn 0.5310178 -0.7687523 0.3564265
vn -0.5357826 -0.4763221 0.697176
vn -0.2667318 -0.7858677 0.5579123
vn 0.4139709 -0.8953703 0.164134
vn 0.6641419 -0.7444481 -0.06864843
vn 0.00986971 -0.9377339 0.3472144
vn 0.5212704 -0.8093922 -0.270484
vn 0.6811966 -0.563952 -0.4668291
vn 0.03831916 -0.9990317 -0.02161964
vn -0.4564954 -0.8776349 0.1461816
vn -0.6709859 -0.6478968 0.3605655
vn -0.8064281 -0.3337392 0.4881515
vn -0.9606169 -0.2676449 0.07470863
vn -0.8857741 0.03027884 0.4631279
vn -0.9405149 0.2979756 0.1632245
vn 0.4464698 -0.5248874 -0.7246778
vn 0.6258351 -0.3289509 -0.7071929
vn 0.4223813 -0.06776538 -0.9038815
vn -0.7201393 0.6750907 -0.1601619
vn -0.7774055 -0.6285196 -0.02457345
vn 0.2402379 -0.8406751 -0.4853361
vn -0.9487572 0.2591873 -0.1807808
vn -0.4146677 0.7872131 -0.4564496
vn -0.6742674 0.5176352 -0.5267042
vn -0.2642136 0.5850502 -0.7667512
vn 0.05063234 0.5317764 -0.8453699
vn -0.809034 -0.4252414 -0.4057508
vn -0.9297434 -0.08895891 -0.3573003
vn -0.756757 0.2057831 -0.6204612
vn -0.4520377 0.2677779 -0.8508566
vn -0.6437389 -0.1654481 -0.7471461
vn -0.05629983 0.3136717 -0.947861
vn -0.580666 -0.7103699 -0.3977457
vn 0.2360502 0.2074869 -0.949331
vn 0.3394871 0.3709124 -0.8643914
vn -0.1969172 0.0001948266 -0.9804201
vn 0.1605966 -0.2780644 -0.9470422
vn -0.4666024 -0.5361785 -0.7034166
vn -0.2470643 -0.3839848 -0.8896713
vn -0.01548757 -0.6706093 -0.7416491
vn -0.1730678 -0.840555 -0.5133369
vn -0.2853935 -0.9348413 -0.2112396
g SquirrelEyes_0
f 3/3/3 2/2/2 1/1/1
f 3/3/3 1/1/1 4/4/4
f 5/5/5 2/2/2 3/3/3
f 6/6/6 2/2/2 5/5/5
f 7/7/7 2/2/2 6/6/6
f 8/8/8 7/7/7 6/6/6
f 9/9/9 7/7/7 8/8/8
f 10/10/10 9/9/9 8/8/8
f 8/8/8 6/6/6 11/11/11
f 10/10/10 8/8/8 12/12/12
f 12/12/12 8/8/8 11/11/11
f 11/11/11 6/6/6 13/13/13
f 13/13/13 6/6/6 5/5/5
f 14/14/14 10/10/10 12/12/12
f 15/15/15 10/10/10 14/14/14
f 15/15/15 14/14/14 16/16/16
f 14/14/14 12/12/12 16/16/16
f 17/17/17 15/15/15 16/16/16
f 18/18/18 15/15/15 17/17/17
f 12/12/12 11/11/11 19/19/19
f 11/11/11 13/13/13 19/19/19
f 16/16/16 12/12/12 20/20/20
f 20/20/20 12/12/12 19/19/19
f 16/16/16 20/20/20 21/21/21
f 17/17/17 16/16/16 21/21/21
f 22/22/22 18/18/18 17/17/17
f 22/22/22 23/23/23 18/18/18
f 20/20/20 19/19/19 24/24/24
f 21/21/21 20/20/20 24/24/24
f 25/25/25 23/23/23 22/22/22
f 25/25/25 26/26/26 23/23/23
f 27/27/27 26/26/26 25/25/25
f 28/28/28 26/26/26 27/27/27
f 25/25/25 22/22/22 29/29/29
f 27/27/27 25/25/25 29/29/29
f 30/30/30 28/28/28 27/27/27
f 30/30/30 31/31/31 28/28/28
f 32/32/32 31/31/31 30/30/30
f 32/32/32 33/33/33 31/31/31
f 32/32/32 34/34/34 33/33/33
f 29/29/29 22/22/22 35/35/35
f 22/22/22 17/17/17 35/35/35
f 30/30/30 27/27/27 36/36/36
f 36/36/36 27/27/27 29/29/29
f 37/37/37 34/34/34 32/32/32
f 4/4/4 34/34/34 37/37/37
f 35/35/35 17/17/17 38/38/38
f 29/29/29 35/35/35 39/39/39
f 39/39/39 35/35/35 38/38/38
f 40/40/40 36/36/36 29/29/29
f 40/40/40 29/29/29 39/39/39
f 41/41/41 30/30/30 36/36/36
f 41/41/41 36/36/36 40/40/40
f 42/42/42 40/40/40 39/39/39
f 39/39/39 38/38/38 42/42/42
f 41/41/41 43/43/43 30/30/30
f 32/32/32 30/30/30 43/43/43
f 44/44/44 41/41/41 40/40/40
f 43/43/43 41/41/41 44/44/44
f 44/44/44 40/40/40 42/42/42
f 45/45/45 32/32/32 43/43/43
f 45/45/45 43/43/43 44/44/44
f 38/38/38 17/17/17 46/46/46
f 17/17/17 21/21/21 46/46/46
f 46/46/46 21/21/21 47/47/47
f 21/21/21 24/24/24 47/47/47
f 38/38/38 46/46/46 48/48/48
f 46/46/46 47/47/47 48/48/48
f 42/42/42 38/38/38 49/49/49
f 49/49/49 38/38/38 48/48/48
f 50/50/50 44/44/44 42/42/42
f 49/49/49 50/50/50 42/42/42
f 47/47/47 51/51/51 48/48/48
f 48/48/48 51/51/51 49/49/49
f 47/47/47 24/24/24 52/52/52
f 47/47/47 52/52/52 51/51/51
f 51/51/51 53/53/53 49/49/49
f 52/52/52 53/53/53 51/51/51
f 24/24/24 54/54/54 52/52/52
f 24/24/24 19/19/19 54/54/54
f 53/53/53 55/55/55 49/49/49
f 49/49/49 55/55/55 50/50/50
f 52/52/52 56/56/56 53/53/53
f 53/53/53 56/56/56 55/55/55
f 52/52/52 54/54/54 56/56/56
f 19/19/19 57/57/57 54/54/54
f 19/19/19 13/13/13 57/57/57
f 54/54/54 57/57/57 58/58/58
f 54/54/54 58/58/58 56/56/56
f 57/57/57 13/13/13 59/59/59
f 57/57/57 59/59/59 58/58/58
f 13/13/13 5/5/5 59/59/59
f 56/56/56 60/60/60 55/55/55
f 55/55/55 60/60/60 50/50/50
f 56/56/56 58/58/58 61/61/61
f 58/58/58 59/59/59 61/61/61
f 56/56/56 61/61/61 60/60/60
f 59/59/59 5/5/5 62/62/62
f 59/59/59 62/62/62 61/61/61
f 5/5/5 3/3/3 62/62/62
f 61/61/61 62/62/62 63/63/63
f 61/61/61 63/63/63 60/60/60
f 62/62/62 3/3/3 64/64/64
f 63/63/63 62/62/62 64/64/64
f 63/63/63 64/64/64 60/60/60
f 3/3/3 4/4/4 64/64/64
f 60/60/60 65/65/65 50/50/50
f 60/60/60 64/64/64 65/65/65
f 64/64/64 4/4/4 66/66/66
f 64/64/64 66/66/66 65/65/65
f 66/66/66 4/4/4 37/37/37
f 50/50/50 65/65/65 67/67/67
f 50/50/50 67/67/67 44/44/44
f 67/67/67 45/45/45 44/44/44
f 65/65/65 66/66/66 68/68/68
f 65/65/65 68/68/68 67/67/67
f 68/68/68 66/66/66 37/37/37
f 68/68/68 45/45/45 67/67/67
f 68/68/68 37/37/37 69/69/69
f 68/68/68 69/69/69 45/45/45
f 69/69/69 37/37/37 32/32/32
f 69/69/69 32/32/32 45/45/45
f 72/72/72 71/71/71 70/70/70
f 72/72/72 70/70/70 73/73/73
f 71/71/71 74/74/74 70/70/70
f 75/75/75 74/74/74 71/71/71
f 73/73/73 70/70/70 76/76/76
f 73/73/73 76/76/76 77/77/77
f 70/70/70 74/74/74 78/78/78
f 70/70/70 78/78/78 76/76/76
f 77/77/77 76/76/76 79/79/79
f 80/80/80 77/77/77 79/79/79
f 75/75/75 81/81/81 74/74/74
f 74/74/74 82/82/82 78/78/78
f 74/74/74 81/81/81 82/82/82
f 75/75/75 83/83/83 81/81/81
f 84/84/84 83/83/83 75/75/75
f 84/84/84 85/85/85 83/83/83
f 76/76/76 78/78/78 86/86/86
f 76/76/76 87/87/87 79/79/79
f 76/76/76 86/86/86 87/87/87
f 79/79/79 88/88/88 80/80/80
f 79/79/79 87/87/87 88/88/88
f 78/78/78 89/89/89 86/86/86
f 78/78/78 82/82/82 89/89/89
f 80/80/80 88/88/88 90/90/90
f 80/80/80 90/90/90 91/91/91
f 87/87/87 86/86/86 92/92/92
f 86/86/86 89/89/89 92/92/92
f 88/88/88 87/87/87 93/93/93
f 88/88/88 93/93/93 90/90/90
f 87/87/87 92/92/92 93/93/93
f 91/91/91 90/90/90 94/94/94
f 95/95/95 91/91/91 94/94/94
f 90/90/90 93/93/93 96/96/96
f 94/94/94 90/90/90 96/96/96
f 95/95/95 94/94/94 97/97/97
f 98/98/98 95/95/95 97/97/97
f 94/94/94 96/96/96 99/99/99
f 97/97/97 94/94/94 99/99/99
f 93/93/93 100/100/100 96/96/96
f 96/96/96 100/100/100 99/99/99
f 92/92/92 101/101/101 93/93/93
f 93/93/93 101/101/101 100/100/100
f 89/89/89 102/102/102 92/92/92
f 92/92/92 102/102/102 101/101/101
f 102/102/102 103/103/103 101/101/101
f 104/104/104 102/102/102 89/89/89
f 104/104/104 103/103/103 102/102/102
f 82/82/82 104/104/104 89/89/89
f 82/82/82 105/105/105 104/104/104
f 105/105/105 103/103/103 104/104/104
f 81/81/81 105/105/105 82/82/82
f 98/98/98 97/97/97 106/106/106
f 107/107/107 98/98/98 106/106/106
f 107/107/107 106/106/106 108/108/108
f 81/81/81 109/109/109 105/105/105
f 83/83/83 109/109/109 81/81/81
f 103/103/103 110/110/110 101/101/101
f 101/101/101 110/110/110 100/100/100
f 106/106/106 97/97/97 111/111/111
f 111/111/111 97/97/97 99/99/99
f 109/109/109 112/112/112 105/105/105
f 105/105/105 112/112/112 103/103/103
f 113/113/113 109/109/109 83/83/83
f 83/83/83 85/85/85 113/113/113
f 113/113/113 114/114/114 109/109/109
f 109/109/109 114/114/114 112/112/112
f 85/85/85 115/115/115 113/113/113
f 113/113/113 115/115/115 114/114/114
f 85/85/85 116/116/116 115/115/115
f 103/103/103 117/117/117 110/110/110
f 112/112/112 118/118/118 103/103/103
f 118/118/118 117/117/117 103/103/103
f 114/114/114 119/119/119 112/112/112
f 112/112/112 119/119/119 118/118/118
f 115/115/115 120/120/120 114/114/114
f 114/114/114 120/120/120 119/119/119
f 119/119/119 121/121/121 118/118/118
f 118/118/118 121/121/121 117/117/117
f 120/120/120 121/121/121 119/119/119
f 116/116/116 122/122/122 115/115/115
f 115/115/115 122/122/122 120/120/120
f 117/117/117 123/123/123 110/110/110
f 110/110/110 123/123/123 100/100/100
f 116/116/116 124/124/124 122/122/122
f 125/125/125 124/124/124 116/116/116
f 125/125/125 108/108/108 124/124/124
f 120/120/120 122/122/122 126/126/126
f 122/122/122 124/124/124 126/126/126
f 120/120/120 126/126/126 121/121/121
f 124/124/124 108/108/108 127/127/127
f 124/124/124 127/127/127 126/126/126
f 108/108/108 106/106/106 127/127/127
f 121/121/121 128/128/128 117/117/117
f 117/117/117 128/128/128 123/123/123
f 126/126/126 129/129/129 121/121/121
f 126/126/126 127/127/127 129/129/129
f 129/129/129 128/128/128 121/121/121
f 127/127/127 106/106/106 130/130/130
f 127/127/127 130/130/130 129/129/129
f 129/129/129 130/130/130 128/128/128
f 106/106/106 111/111/111 130/130/130
f 130/130/130 131/131/131 128/128/128
f 130/130/130 111/111/111 131/131/131
f 128/128/128 131/131/131 123/123/123
f 111/111/111 99/99/99 131/131/131
f 131/131/131 132/132/132 123/123/123
f 131/131/131 99/99/99 132/132/132
f 123/123/123 132/132/132 100/100/100
f 132/132/132 99/99/99 100/100/100
