g Sticker02.001
v 0.09274821 0.5379627 -0.002263948
v -0.08708961 0.5723704 0.02009104
v 0.09466527 0.5596222 0.02028004
v -0.08938961 0.5487051 -0.002407585
v 0.09120641 0.5117264 -0.01320869
v -0.09230652 0.5185375 -0.01322494
v 0.0905629 0.4880364 -0.01865662
v -0.09411916 0.4912404 -0.0185351
v 0.08929925 0.4583606 -0.02028004
v -0.09466527 0.4588434 -0.02014685
v 0.08801848 -0.5723704 -0.02026543
v -0.09411322 -0.5615963 -0.02026543
vt 0.451921 0.5067923
vt 0.5008394 0.4986634
vt 0.4518736 0.4989597
vt 0.5008867 0.506496
vt 0.4519684 0.514625
vt 0.5009341 0.5143287
vt 0.4520159 0.5224577
vt 0.5009816 0.5221614
vt 0.4520632 0.5302904
vt 0.501029 0.5299941
vt 0.4535873 0.7821601
vt 0.5025531 0.7818638
vn -0.03258366 -0.5430275 0.8390824
vn -0.04596607 -0.7019958 0.7106962
vn -0.04596607 -0.7019958 0.7106962
vn -0.03219424 -0.5383087 0.8421326
vn -0.01153513 -0.2835995 0.9588734
vn -0.01134757 -0.2812736 0.9595605
vn -0.002618151 -0.1303747 0.9914614
vn -0.002545402 -0.1283352 0.9917276
vn 0.0002647796 -0.02637505 0.9996521
vn 0.0002662848 -0.02596915 0.9996626
vn 0.0003622729 -5.081459E-05 1
vn 0.0003622729 -5.081459E-05 1
g Sticker02.001_0
f 3/3/3 2/2/2 1/1/1
f 2/2/2 4/4/4 1/1/1
f 1/1/1 4/4/4 5/5/5
f 4/4/4 6/6/6 5/5/5
f 5/5/5 6/6/6 7/7/7
f 6/6/6 8/8/8 7/7/7
f 7/7/7 8/8/8 9/9/9
f 8/8/8 10/10/10 9/9/9
f 9/9/9 10/10/10 11/11/11
f 10/10/10 12/12/12 11/11/11
