g Sticker04.001
v -0.003047368 -0.5689622 -0.01199345
v -0.09411322 -0.5689622 -0.01199345
v -0.09466527 0.4835507 -0.01187486
v -0.002683 0.4634328 -0.01194146
v 0.08801848 -0.5689622 -0.01199345
v -0.09411916 0.516053 -0.01028179
v 0.08929925 0.4545895 -0.01200806
v -0.001778128 0.4945041 -0.0104782
v -0.09230652 0.5344517 -0.00715914
v 0.0905629 0.4842298 -0.0106746
v -0.001132696 0.5181572 -0.009137036
v -0.08938961 0.5540577 -0.0005892121
v 0.09120641 0.5061586 -0.009129485
v -0.009602586 0.5431346 -0.007144949
v -0.08708961 0.5689622 0.01200806
v 0.09274821 0.5416611 -0.007533567
v -0.007494058 0.5646625 -0.006827636
v 0.09466527 0.5603629 -0.009433044
vt 0.5793784 0.7828263
vt 0.6021363 0.7826887
vt 0.6007196 0.5485647
vt 0.5779617 0.5487025
vt 0.5566205 0.7829641
vt 0.6006755 0.541284
vt 0.5552038 0.5488402
vt 0.5779176 0.5414217
vt 0.6006314 0.5340031
vt 0.5551597 0.5415594
vt 0.5778735 0.5341409
vt 0.6005874 0.5267224
vt 0.5551156 0.5342786
vt 0.5778295 0.5268601
vt 0.6005433 0.5194416
vt 0.5550715 0.5269977
vt 0.5777854 0.5195793
vt 0.5550275 0.519717
vn 0.0003589002 -5.012874E-05 1
vn 0.0003548466 -8.177843E-05 1
vn -0.005160019 -0.02711439 0.999619
vn -0.002751342 -0.02253081 0.9997423
vn 0.0003629556 -1.846482E-05 1
vn -0.009654958 -0.07962058 0.9967785
vn -0.001400582 -0.02189876 0.9997593
vn -0.00731803 -0.06383031 0.9979339
vn 0.005309339 -0.1472637 0.9890831
vn -0.004879326 -0.05404554 0.9985266
vn -0.00164842 -0.09439589 0.9955333
vn 0.06859784 -0.2678187 0.9610242
vn -0.004499507 -0.06134191 0.9981067
vn 0.03814702 -0.1485903 0.9881628
vn 0.1155547 -0.3442654 0.9317342
vn 0.007099309 -0.009113773 0.9999332
vn 0.06545769 -0.1506157 0.986423
vn 0.01569264 0.037725 0.9991649
g Sticker04.001_0
f 3/3/3 2/2/2 1/1/1
f 4/4/4 3/3/3 1/1/1
f 4/4/4 1/1/1 5/5/5
f 6/6/6 3/3/3 4/4/4
f 7/7/7 4/4/4 5/5/5
f 8/8/8 6/6/6 4/4/4
f 8/8/8 4/4/4 7/7/7
f 9/9/9 6/6/6 8/8/8
f 10/10/10 8/8/8 7/7/7
f 11/11/11 9/9/9 8/8/8
f 11/11/11 8/8/8 10/10/10
f 12/12/12 9/9/9 11/11/11
f 13/13/13 11/11/11 10/10/10
f 14/14/14 12/12/12 11/11/11
f 14/14/14 11/11/11 13/13/13
f 15/15/15 12/12/12 14/14/14
f 16/16/16 14/14/14 13/13/13
f 17/17/17 15/15/15 14/14/14
f 17/17/17 14/14/14 16/16/16
f 18/18/18 17/17/17 16/16/16
