g Sticker07.001
v 0.0816522 0.519239 0.02408018
v -0.1001858 0.5158263 -0.001176256
v 0.08153156 0.5087991 -0.0009872533
v -0.1001796 0.5287063 0.02390252
v 0.08177285 0.5310665 0.03376674
v -0.1001735 0.542974 0.03360043
v 0.08820347 0.5644333 0.02991724
v -0.0938394 0.5763807 0.02977071
v 0.0933884 0.5832538 0.01340485
v -0.08871528 0.5949553 0.0132546
v 0.09774562 0.5917622 -0.001985044
v -0.08437183 0.6033041 -0.002132001
v 0.1001858 0.581768 -0.01714541
v -0.08195201 0.5931535 -0.01728902
v 0.09941491 0.5659786 -0.02254781
v -0.08341046 0.5752034 -0.02262486
v 0.09864401 0.5519578 -0.02801587
v -0.08486892 0.5591772 -0.02803212
v 0.09800051 0.5268478 -0.03346379
v -0.08668156 0.5302438 -0.03334228
v 0.09673687 0.4953932 -0.03508722
v -0.08722766 0.4959048 -0.03495403
v 0.09545609 -0.5971239 -0.03507261
v -0.08667561 -0.5857038 -0.0350726
vt 0.4518855 0.5009178
vt 0.5008394 0.4986634
vt 0.4518736 0.4989597
vt 0.5008513 0.5006216
vt 0.4518973 0.502876
vt 0.5008631 0.5025797
vt 0.4519093 0.5048504
vt 0.500875 0.504554
vt 0.4519143 0.5056461
vt 0.5008796 0.5053498
vt 0.4519176 0.5062192
vt 0.5008832 0.5059229
vt 0.451921 0.5067923
vt 0.5008867 0.506496
vt 0.4519447 0.5107086
vt 0.5009104 0.5104123
vt 0.4519684 0.514625
vt 0.5009341 0.5143287
vt 0.4520159 0.5224577
vt 0.5009816 0.5221614
vt 0.4520632 0.5302904
vt 0.501029 0.5299941
vt 0.4535873 0.7821601
vt 0.5025531 0.7818638
vn 0.03991258 0.7769693 -0.628272
vn 0.04152745 0.9059265 -0.4213939
vn 0.04152745 0.9059265 -0.4213939
vn 0.03980733 0.7713118 -0.6352113
vn 0.01514273 0.2501222 -0.9680959
vn 0.01622861 0.2683099 -0.9631959
vn -0.02699059 -0.4267776 -0.9039537
vn -0.02373227 -0.3768498 -0.9259704
vn -0.04995608 -0.7854934 -0.6168506
vn -0.04840056 -0.7601473 -0.6479456
vn -0.06293044 -0.9923456 0.1062544
vn -0.06322563 -0.9972088 -0.03971446
vn -0.03637577 -0.5867858 0.8089249
vn -0.03834399 -0.6164558 0.7864553
vn -0.01655911 -0.320772 0.9470117
vn -0.01653469 -0.3211893 0.9468706
vn -0.01043672 -0.2679226 0.963384
vn -0.01031797 -0.2662306 0.9638542
vn -0.002618347 -0.123058 0.992396
vn -0.002556606 -0.1214237 0.9925975
vn 0.0002648686 -0.02486512 0.9996908
vn 0.0002662518 -0.02451303 0.9996995
vn 0.0003622567 -4.793912E-05 1
vn 0.0003622567 -4.793912E-05 1
g Sticker07.001_0
f 3/3/3 2/2/2 1/1/1
f 2/2/2 4/4/4 1/1/1
f 1/1/1 4/4/4 5/5/5
f 4/4/4 6/6/6 5/5/5
f 5/5/5 6/6/6 7/7/7
f 6/6/6 8/8/8 7/7/7
f 7/7/7 8/8/8 9/9/9
f 8/8/8 10/10/10 9/9/9
f 9/9/9 10/10/10 11/11/11
f 10/10/10 12/12/12 11/11/11
f 11/11/11 12/12/12 13/13/13
f 12/12/12 14/14/14 13/13/13
f 13/13/13 14/14/14 15/15/15
f 14/14/14 16/16/16 15/15/15
f 15/15/15 16/16/16 17/17/17
f 16/16/16 18/18/18 17/17/17
f 17/17/17 18/18/18 19/19/19
f 18/18/18 20/20/20 19/19/19
f 19/19/19 20/20/20 21/21/21
f 20/20/20 22/22/22 21/21/21
f 21/21/21 22/22/22 23/23/23
f 22/22/22 24/24/24 23/23/23
