g swirBotR_low3
v 2.107028 -2.427887 0.069778
v 2.319675 -2.44217 0.069778
v 2.217128 -2.448168 0.069778
v 2.426973 -2.38859 0.069778
v 1.995093 -2.371307 0.069778
v 2.475595 -2.323568 0.069778
v 2.507425 -2.243412 0.069778
v 2.50525 -2.147855 0.069778
v 1.898793 -2.276875 0.069778
v 2.472525 -2.069318 0.069778
v 1.861278 -2.19929 0.069778
v 2.409883 -2.013222 0.069778
v 1.83241 -2.097368 0.069778
v 1.840712 -1.975528 0.069778
v 1.901543 -1.891878 0.069778
v 2.327608 -1.978875 0.069778
v 1.88655 -1.876557 -0.0261565
v 2.327608 -1.978875 0.069778
v 1.901543 -1.891878 0.069778
v 2.336417 -1.968508 -0.0261565
v 2.409883 -2.013222 0.069778
v 2.42329 -2.004773 -0.0261565
v 2.472525 -2.069318 0.069778
v 2.48943 -2.064005 -0.0261565
v 1.901543 -1.891878 0.069778
v 1.822322 -1.964972 -0.0261565
v 1.88655 -1.876557 -0.0261565
v 1.840712 -1.975528 0.069778
v 1.813555 -2.093617 -0.0261565
v 1.83241 -2.097368 0.069778
v 1.844035 -2.201237 -0.0261565
v 1.861278 -2.19929 0.069778
v 1.883645 -2.283158 -0.0261565
v 1.898793 -2.276875 0.069778
v 2.48943 -2.064005 -0.0261565
v 2.50525 -2.147855 0.069778
v 2.472525 -2.069318 0.069778
v 2.523975 -2.146928 -0.0261565
v 2.507425 -2.243412 0.069778
v 2.526275 -2.247825 -0.0261565
v 2.475595 -2.323568 0.069778
v 2.49267 -2.33246 -0.0261565
v 2.426973 -2.38859 0.069778
v 2.441333 -2.40111 -0.0261565
v 1.898793 -2.276875 0.069778
v 1.985325 -2.382863 -0.0261565
v 1.883645 -2.283158 -0.0261565
v 1.995093 -2.371307 0.069778
v 2.103515 -2.442605 -0.0261565
v 2.107028 -2.427887 0.069778
v 2.219765 -2.464018 -0.0261565
v 2.217128 -2.448168 0.069778
v 2.328043 -2.457685 -0.0261565
v 2.319675 -2.44217 0.069778
v 2.441333 -2.40111 -0.0261565
v 2.426973 -2.38859 0.069778
vt 1.78418 0.1673584
vt 1.833984 0.1743164
vt 1.810547 0.1679688
vt 1.854492 0.1911621
vt 1.755859 0.1749268
vt 1.862305 0.2076416
vt 1.866211 0.2266846
vt 1.861328 0.2475586
vt 1.730469 0.192627
vt 1.851563 0.2634277
vt 1.71875 0.2087402
vt 1.835938 0.2736816
vt 1.708984 0.230957
vt 1.708008 0.2585449
vt 1.716797 0.2805176
vt 1.816406 0.2783203
vt 1.704102 0.2993164
vt 1.816406 0.2783203
vt 1.716797 0.2805176
vt 1.822266 0.3024902
vt 1.835938 0.2736816
vt 1.853516 0.2907715
vt 1.851563 0.2634277
vt 1.875 0.2751465
vt 1.716797 0.2805176
vt 1.686523 0.2670898
vt 1.704102 0.2993164
vt 1.708008 0.2585449
vt 1.685547 0.2286377
vt 1.708984 0.230957
vt 1.698242 0.1984863
vt 1.71875 0.2087402
vt 1.713867 0.1774902
vt 1.730469 0.192627
vt 1.875 0.2751465
vt 1.861328 0.2475586
vt 1.851563 0.2634277
vt 1.882813 0.2556152
vt 1.866211 0.2266846
vt 1.887695 0.2272949
vt 1.862305 0.2076416
vt 1.884766 0.201416
vt 1.854492 0.1911621
vt 1.874023 0.178833
vt 1.730469 0.192627
vt 1.746094 0.1541748
vt 1.713867 0.1774902
vt 1.755859 0.1749268
vt 1.782227 0.1434326
vt 1.78418 0.1673584
vt 1.816406 0.1452637
vt 1.810547 0.1679688
vt 1.845703 0.1549072
vt 1.833984 0.1743164
vt 1.874023 0.178833
vt 1.854492 0.1911621
vn -0.1469727 -0.4228516 0.894043
vn 0.2092285 -0.7519531 0.625
vn -0.05340576 -0.7631836 0.644043
vn 0.2495117 -0.3308105 0.9101563
vn -0.1560059 -0.2155762 0.9638672
vn 0.3286133 -0.182251 0.9267578
vn 0.3820801 -0.06396484 0.921875
vn 0.2053223 0.04190063 0.9780273
vn -0.2216797 -0.1738281 0.9594727
vn 0.1644287 0.1184082 0.9794922
vn -0.2976074 -0.1109009 0.9482422
vn 0.1864014 0.3037109 0.9345703
vn -0.3376465 -0.03314209 0.9404297
vn -0.3393555 0.1118164 0.934082
vn 0.01631165 0.7641602 0.6450195
vn 0.1519775 0.6416016 0.7514648
vn -0.01080322 0.9873047 0.1589355
vn 0.1519775 0.6416016 0.7514648
vn 0.01631165 0.7641602 0.6450195
vn 0.2322998 0.9643555 0.1259766
vn 0.1864014 0.3037109 0.9345703
vn 0.5297852 0.8349609 0.147583
vn 0.1644287 0.1184082 0.9794922
vn 0.8081055 0.5625 0.173584
vn 0.01631165 0.7641602 0.6450195
vn -0.9243164 0.3178711 0.2122803
vn -0.01080322 0.9873047 0.1589355
vn -0.3393555 0.1118164 0.934082
vn -0.9785156 -0.08361816 0.1889648
vn -0.3376465 -0.03314209 0.9404297
vn -0.9248047 -0.3393555 0.1730957
vn -0.2976074 -0.1109009 0.9482422
vn -0.78125 -0.6025391 0.1628418
vn -0.2216797 -0.1738281 0.9594727
vn 0.8081055 0.5625 0.173584
vn 0.2053223 0.04190063 0.9780273
vn 0.1644287 0.1184082 0.9794922
vn 0.9633789 0.1894531 0.1899414
vn 0.3820801 -0.06396484 0.921875
vn 0.9663086 -0.1644287 0.1975098
vn 0.3286133 -0.182251 0.9267578
vn 0.8579102 -0.4748535 0.1966553
vn 0.2495117 -0.3308105 0.9101563
vn 0.5976563 -0.7788086 0.19104
vn -0.2216797 -0.1738281 0.9594727
vn -0.5810547 -0.7988281 0.1553955
vn -0.78125 -0.6025391 0.1628418
vn -0.1560059 -0.2155762 0.9638672
vn -0.3220215 -0.934082 0.1550293
vn -0.1469727 -0.4228516 0.894043
vn -0.06329346 -0.9848633 0.1610107
vn -0.05340576 -0.7631836 0.644043
vn 0.2739258 -0.9453125 0.1767578
vn 0.2092285 -0.7519531 0.625
vn 0.5976563 -0.7788086 0.19104
vn 0.2495117 -0.3308105 0.9101563
g swirBotR_low3_0
f 3/3/3 2/2/2 1/1/1
f 4/4/4 1/1/1 2/2/2
f 1/1/1 4/4/4 5/5/5
f 6/6/6 5/5/5 4/4/4
f 5/5/5 6/6/6 7/7/7
f 5/5/5 7/7/7 8/8/8
f 5/5/5 8/8/8 9/9/9
f 10/10/10 9/9/9 8/8/8
f 11/11/11 9/9/9 10/10/10
f 11/11/11 10/10/10 12/12/12
f 13/13/13 11/11/11 12/12/12
f 14/14/14 13/13/13 12/12/12
f 14/14/14 12/12/12 15/15/15
f 16/16/16 15/15/15 12/12/12
f 19/19/19 18/18/18 17/17/17
f 20/20/20 17/17/17 18/18/18
f 18/18/18 21/21/21 20/20/20
f 22/22/22 20/20/20 21/21/21
f 21/21/21 23/23/23 22/22/22
f 24/24/24 22/22/22 23/23/23
f 27/27/27 26/26/26 25/25/25
f 28/28/28 25/25/25 26/26/26
f 26/26/26 29/29/29 28/28/28
f 30/30/30 28/28/28 29/29/29
f 29/29/29 31/31/31 30/30/30
f 32/32/32 30/30/30 31/31/31
f 31/31/31 33/33/33 32/32/32
f 34/34/34 32/32/32 33/33/33
f 37/37/37 36/36/36 35/35/35
f 38/38/38 35/35/35 36/36/36
f 36/36/36 39/39/39 38/38/38
f 40/40/40 38/38/38 39/39/39
f 39/39/39 41/41/41 40/40/40
f 42/42/42 40/40/40 41/41/41
f 41/41/41 43/43/43 42/42/42
f 44/44/44 42/42/42 43/43/43
f 47/47/47 46/46/46 45/45/45
f 48/48/48 45/45/45 46/46/46
f 46/46/46 49/49/49 48/48/48
f 50/50/50 48/48/48 49/49/49
f 49/49/49 51/51/51 50/50/50
f 52/52/52 50/50/50 51/51/51
f 51/51/51 53/53/53 52/52/52
f 54/54/54 52/52/52 53/53/53
f 53/53/53 55/55/55 54/54/54
f 56/56/56 54/54/54 55/55/55
