g swirlTopL_low2
v 2.319675 2.450428 0.069778
v 2.107028 2.436145 0.069778
v 2.217128 2.456425 0.069778
v 2.426973 2.396847 0.069778
v 1.995093 2.379565 0.069778
v 2.475595 2.331825 0.069778
v 2.507425 2.25167 0.069778
v 2.50525 2.156112 0.069778
v 1.898793 2.285133 0.069778
v 2.472525 2.077575 0.069778
v 1.861278 2.207547 0.069778
v 2.409883 2.02148 0.069778
v 1.83241 2.105623 0.069778
v 1.840712 1.983785 0.069778
v 1.901543 1.900135 0.069778
v 2.327608 1.987132 0.069778
v 2.327608 1.987132 0.069778
v 1.88655 1.884815 -0.0261565
v 1.901543 1.900135 0.069778
v 2.336417 1.976765 -0.0261565
v 2.409883 2.02148 0.069778
v 2.42329 2.01303 -0.0261565
v 2.472525 2.077575 0.069778
v 2.48943 2.072263 -0.0261565
v 1.822322 1.97323 -0.0261565
v 1.901543 1.900135 0.069778
v 1.88655 1.884815 -0.0261565
v 1.840712 1.983785 0.069778
v 1.813555 2.101875 -0.0261565
v 1.83241 2.105623 0.069778
v 1.844035 2.209495 -0.0261565
v 1.861278 2.207547 0.069778
v 1.883645 2.291415 -0.0261565
v 1.898793 2.285133 0.069778
v 2.50525 2.156112 0.069778
v 2.48943 2.072263 -0.0261565
v 2.472525 2.077575 0.069778
v 2.523975 2.155185 -0.0261565
v 2.507425 2.25167 0.069778
v 2.526275 2.256083 -0.0261565
v 2.475595 2.331825 0.069778
v 2.49267 2.340718 -0.0261565
v 2.426973 2.396847 0.069778
v 2.441333 2.409368 -0.0261565
v 1.985325 2.39112 -0.0261565
v 1.898793 2.285133 0.069778
v 1.883645 2.291415 -0.0261565
v 1.995093 2.379565 0.069778
v 2.103515 2.45086 -0.0261565
v 2.107028 2.436145 0.069778
v 2.219765 2.472275 -0.0261565
v 2.217128 2.456425 0.069778
v 2.328043 2.465942 -0.0261565
v 2.319675 2.450428 0.069778
v 2.441333 2.409368 -0.0261565
v 2.426973 2.396847 0.069778
vt 1.598633 0.1374512
vt 1.552734 0.1553955
vt 1.576172 0.1431885
vt 1.625 0.1417236
vt 1.53125 0.1759033
vt 1.640625 0.1522217
vt 1.652344 0.1671143
vt 1.65918 0.1876221
vt 1.517578 0.2039795
vt 1.658203 0.206543
vt 1.515625 0.2237549
vt 1.649414 0.2230225
vt 1.517578 0.2478027
vt 1.530273 0.2724609
vt 1.548828 0.2875977
vt 1.634766 0.2365723
vt 1.634766 0.2365723
vt 1.547852 0.3095703
vt 1.548828 0.2875977
vt 1.651367 0.2548828
vt 1.649414 0.2230225
vt 1.673828 0.2290039
vt 1.658203 0.206543
vt 1.683594 0.2053223
vt 1.515625 0.2905273
vt 1.548828 0.2875977
vt 1.547852 0.3095703
vt 1.530273 0.2724609
vt 1.49707 0.2573242
vt 1.517578 0.2478027
vt 1.492188 0.2250977
vt 1.515625 0.2237549
vt 1.495117 0.1990967
vt 1.517578 0.2039795
vt 1.65918 0.1876221
vt 1.683594 0.2053223
vt 1.658203 0.206543
vt 1.681641 0.1844482
vt 1.652344 0.1671143
vt 1.671875 0.1571045
vt 1.640625 0.1522217
vt 1.65625 0.1361084
vt 1.625 0.1417236
vt 1.635742 0.1218262
vt 1.512695 0.1629639
vt 1.517578 0.2039795
vt 1.495117 0.1990967
vt 1.53125 0.1759033
vt 1.539063 0.1357422
vt 1.552734 0.1553955
vt 1.569336 0.1207275
vt 1.576172 0.1431885
vt 1.600586 0.114502
vt 1.598633 0.1374512
vt 1.635742 0.1218262
vt 1.625 0.1417236
vn 0.2092285 0.7519531 0.625
vn -0.1469727 0.4228516 0.894043
vn -0.05340576 0.7631836 0.644043
vn 0.2495117 0.3308105 0.9101563
vn -0.1560059 0.2155762 0.9638672
vn 0.3286133 0.182251 0.9267578
vn 0.3820801 0.06396484 0.921875
vn 0.2053223 -0.04190063 0.9780273
vn -0.2216797 0.1738281 0.9594727
vn 0.1644287 -0.1184082 0.9794922
vn -0.2976074 0.1109009 0.9482422
vn 0.1864014 -0.3037109 0.9345703
vn -0.3376465 0.03314209 0.9404297
vn -0.3393555 -0.1118164 0.934082
vn 0.01631165 -0.7641602 0.6450195
vn 0.1519775 -0.6416016 0.7514648
vn 0.1519775 -0.6416016 0.7514648
vn -0.01080322 -0.9873047 0.1588135
vn 0.01631165 -0.7641602 0.6450195
vn 0.2322998 -0.9643555 0.1259766
vn 0.1864014 -0.3037109 0.9345703
vn 0.5297852 -0.8349609 0.147583
vn 0.1644287 -0.1184082 0.9794922
vn 0.8081055 -0.5625 0.173584
vn -0.9243164 -0.3178711 0.2122803
vn 0.01631165 -0.7641602 0.6450195
vn -0.01080322 -0.9873047 0.1588135
vn -0.3393555 -0.1118164 0.934082
vn -0.9785156 0.08361816 0.1889648
vn -0.3376465 0.03314209 0.9404297
vn -0.9248047 0.3393555 0.1730957
vn -0.2976074 0.1109009 0.9482422
vn -0.78125 0.6025391 0.1628418
vn -0.2216797 0.1738281 0.9594727
vn 0.2053223 -0.04190063 0.9780273
vn 0.8081055 -0.5625 0.173584
vn 0.1644287 -0.1184082 0.9794922
vn 0.9633789 -0.1894531 0.1899414
vn 0.3820801 0.06396484 0.921875
vn 0.9663086 0.1644287 0.1975098
vn 0.3286133 0.182251 0.9267578
vn 0.8579102 0.4748535 0.1966553
vn 0.2495117 0.3308105 0.9101563
vn 0.5976563 0.7788086 0.19104
vn -0.5810547 0.7988281 0.1553955
vn -0.2216797 0.1738281 0.9594727
vn -0.78125 0.6025391 0.1628418
vn -0.1560059 0.2155762 0.9638672
vn -0.3220215 0.934082 0.1550293
vn -0.1469727 0.4228516 0.894043
vn -0.06329346 0.9848633 0.1610107
vn -0.05340576 0.7631836 0.644043
vn 0.2739258 0.9453125 0.1767578
vn 0.2092285 0.7519531 0.625
vn 0.5976563 0.7788086 0.19104
vn 0.2495117 0.3308105 0.9101563
g swirlTopL_low2_0
f 3/3/3 2/2/2 1/1/1
f 4/4/4 1/1/1 2/2/2
f 2/2/2 5/5/5 4/4/4
f 6/6/6 4/4/4 5/5/5
f 6/6/6 5/5/5 7/7/7
f 7/7/7 5/5/5 8/8/8
f 5/5/5 9/9/9 8/8/8
f 10/10/10 8/8/8 9/9/9
f 9/9/9 11/11/11 10/10/10
f 10/10/10 11/11/11 12/12/12
f 11/11/11 13/13/13 12/12/12
f 13/13/13 14/14/14 12/12/12
f 14/14/14 15/15/15 12/12/12
f 16/16/16 12/12/12 15/15/15
f 19/19/19 18/18/18 17/17/17
f 20/20/20 17/17/17 18/18/18
f 17/17/17 20/20/20 21/21/21
f 22/22/22 21/21/21 20/20/20
f 21/21/21 22/22/22 23/23/23
f 24/24/24 23/23/23 22/22/22
f 27/27/27 26/26/26 25/25/25
f 28/28/28 25/25/25 26/26/26
f 25/25/25 28/28/28 29/29/29
f 30/30/30 29/29/29 28/28/28
f 29/29/29 30/30/30 31/31/31
f 32/32/32 31/31/31 30/30/30
f 31/31/31 32/32/32 33/33/33
f 34/34/34 33/33/33 32/32/32
f 37/37/37 36/36/36 35/35/35
f 38/38/38 35/35/35 36/36/36
f 35/35/35 38/38/38 39/39/39
f 40/40/40 39/39/39 38/38/38
f 39/39/39 40/40/40 41/41/41
f 42/42/42 41/41/41 40/40/40
f 41/41/41 42/42/42 43/43/43
f 44/44/44 43/43/43 42/42/42
f 47/47/47 46/46/46 45/45/45
f 48/48/48 45/45/45 46/46/46
f 45/45/45 48/48/48 49/49/49
f 50/50/50 49/49/49 48/48/48
f 49/49/49 50/50/50 51/51/51
f 52/52/52 51/51/51 50/50/50
f 51/51/51 52/52/52 53/53/53
f 54/54/54 53/53/53 52/52/52
f 53/53/53 54/54/54 55/55/55
f 56/56/56 55/55/55 54/54/54
