g Table - Rectangular
v 4.000001 1.979999 3.22
v 3.980001 1.999999 3.22
v 3.980001 1.979998 3.2
v 3.979998 -2.000002 3.380235
v 3.980233 -1.980237 3.4
v 3.999998 -1.980002 3.380235
v -2.890281 -1.529719 0
v -3.10972 -1.529717 3.2
v -2.890283 -1.52972 3.2
v -3.109719 -1.529719 0
v -3.12972 -1.509717 3.2
v -3.129719 -1.509719 -1.953993E-14
v 3.98 -1.98 3.2
v -3.979999 1.980001 3.2
v -3.98 -1.98 3.2
v 3.980001 1.979998 3.2
v 4.000001 1.979999 3.22
v 4 -1.98 3.22
v -3.979999 2.000001 3.22
v 3.98 2 3.380235
v -3.979999 2.000002 3.380235
v 3.980001 1.999999 3.22
v 3.980001 1.979998 3.2
v -3.979999 1.980001 3.2
v 4 1.98 3.380235
v 4.000001 1.979999 3.22
v 3.980235 1.980235 3.4
v -4 -1.98 3.22
v -3.999999 1.980002 3.380235
v -4.000002 -1.979998 3.380235
v -3.999999 1.980001 3.22
v -3.979999 1.980001 3.2
v -3.98 -1.98 3.2
v -3.979999 2.000001 3.22
v -3.979999 2.000002 3.380235
v -3.980234 1.980237 3.4
v -2.870283 -1.50972 3.2
v -2.870281 -1.290281 3.2
v -2.87028 -1.290282 2.753353E-14
v -2.870281 -1.509719 0
v -2.890283 -1.52972 3.2
v -2.890281 -1.529719 0
v -2.890281 1.529719 0
v -3.10972 1.529717 3.2
v -3.109719 1.529719 -8.881784E-16
v -2.890283 1.52972 3.2
v -2.870283 1.50972 3.2
v -2.870281 1.509719 -3.28626E-14
v -2.870281 -1.509719 0
v -2.87028 -1.290282 2.753353E-14
v -2.89028 -1.270282 0
v -2.890281 -1.529719 0
v -3.109718 -1.270281 6.217249E-15
v -3.109719 -1.529719 0
v -3.129718 -1.290281 0
v -3.129719 -1.509719 -1.953993E-14
v -3.109718 -1.270281 6.217249E-15
v -2.890281 -1.270281 3.2
v -3.109718 -1.27028 3.2
v -2.89028 -1.270282 0
v -2.870281 -1.290281 3.2
v -2.87028 -1.290282 2.753353E-14
v -2.890281 -1.270281 3.2
v -2.870281 -1.290281 3.2
v -2.870283 -1.50972 3.2
v -2.890283 -1.52972 3.2
v -3.109718 -1.27028 3.2
v -3.10972 -1.529717 3.2
v -3.129718 -1.29028 3.2
v -3.12972 -1.509717 3.2
v -3.129719 -1.509719 -1.953993E-14
v -3.129718 -1.29028 3.2
v -3.12972 -1.509717 3.2
v -3.129718 -1.290281 0
v -3.109718 -1.27028 3.2
v -3.109718 -1.270281 6.217249E-15
v -2.870283 1.50972 3.2
v -2.870281 1.509719 -3.28626E-14
v -2.87028 1.290282 0
v -2.870281 1.290282 3.2
v -2.890281 1.270281 3.2
v -2.89028 1.270282 -7.105427E-15
v 2.890281 -1.529719 0
v 3.10972 -1.529717 3.2
v 3.109719 -1.529719 -8.881784E-16
v 2.890283 -1.52972 3.2
v 2.870283 -1.50972 3.2
v 2.870281 -1.509719 -3.28626E-14
v -2.89028 1.270282 -7.105427E-15
v -2.87028 1.290282 0
v -2.870281 1.509719 -3.28626E-14
v -2.890281 1.529719 0
v -3.109718 1.270281 0
v -3.109719 1.529719 -8.881784E-16
v -3.129718 1.290281 -5.329071E-15
v -3.129719 1.509719 0
v -3.109718 1.270281 0
v -2.890281 1.270281 3.2
v -2.89028 1.270282 -7.105427E-15
v -3.109718 1.270281 3.2
v -3.129718 1.29028 3.2
v -3.129718 1.290281 -5.329071E-15
v -2.870283 1.50972 3.2
v -2.870281 1.290282 3.2
v -2.890281 1.270281 3.2
v -2.890283 1.52972 3.2
v -3.109718 1.270281 3.2
v -3.10972 1.529717 3.2
v -3.129718 1.29028 3.2
v -3.12972 1.509717 3.2
v -3.129719 1.509719 0
v -3.129718 1.29028 3.2
v -3.129718 1.290281 -5.329071E-15
v -3.12972 1.509717 3.2
v -3.10972 1.529717 3.2
v -3.109719 1.529719 -8.881784E-16
v 2.870283 -1.50972 3.2
v 2.870281 -1.509719 -3.28626E-14
v 2.87028 -1.290282 0
v 2.870281 -1.290282 3.2
v 2.890281 -1.270281 3.2
v 2.89028 -1.270282 -7.105427E-15
v 2.890281 1.529719 0
v 3.10972 1.529717 3.2
v 2.890283 1.52972 3.2
v 3.109719 1.529719 0
v 3.12972 1.509717 3.2
v 3.129719 1.509719 -1.953993E-14
v 3.109719 -1.529719 -8.881784E-16
v 3.129719 -1.509719 0
v 3.129718 -1.290281 -5.329071E-15
v 3.109718 -1.270281 0
v 2.890281 -1.529719 0
v 2.89028 -1.270282 -7.105427E-15
v 2.870281 -1.509719 -3.28626E-14
v 2.87028 -1.290282 0
v 3.109718 -1.270281 0
v 2.890281 -1.270281 3.2
v 2.89028 -1.270282 -7.105427E-15
v 3.109718 -1.270281 3.2
v 3.129718 -1.29028 3.2
v 3.129718 -1.290281 -5.329071E-15
v 3.129718 -1.29028 3.2
v 3.12972 -1.509717 3.2
v 3.10972 -1.529717 3.2
v 3.109718 -1.270281 3.2
v 2.890283 -1.52972 3.2
v 2.890281 -1.270281 3.2
v 2.870283 -1.50972 3.2
v 2.870281 -1.290282 3.2
v 3.129719 -1.509719 0
v 3.129718 -1.29028 3.2
v 3.129718 -1.290281 -5.329071E-15
v 3.12972 -1.509717 3.2
v 3.10972 -1.529717 3.2
v 3.109719 -1.529719 -8.881784E-16
v 2.870283 1.50972 3.2
v 2.870281 1.290281 3.2
v 2.87028 1.290282 2.753353E-14
v 2.870281 1.509719 0
v 2.890283 1.52972 3.2
v 2.890281 1.529719 0
v 3.129718 1.290281 0
v 3.129719 1.509719 -1.953993E-14
v 3.109719 1.529719 0
v 3.109718 1.270281 6.217249E-15
v 2.890281 1.529719 0
v 2.89028 1.270282 0
v 2.870281 1.509719 0
v 2.87028 1.290282 2.753353E-14
v 3.109718 1.270281 6.217249E-15
v 2.890281 1.270281 3.2
v 3.109718 1.27028 3.2
v 2.89028 1.270282 0
v 2.870281 1.290281 3.2
v 2.87028 1.290282 2.753353E-14
v 3.10972 1.529717 3.2
v 3.12972 1.509717 3.2
v 3.129718 1.29028 3.2
v 3.109718 1.27028 3.2
v 2.890283 1.52972 3.2
v 2.890281 1.270281 3.2
v 2.870283 1.50972 3.2
v 2.870281 1.290281 3.2
v 3.129719 1.509719 -1.953993E-14
v 3.129718 1.29028 3.2
v 3.12972 1.509717 3.2
v 3.129718 1.290281 0
v 3.109718 1.27028 3.2
v 3.109718 1.270281 6.217249E-15
v 3.98 -2 3.22
v 4 -1.98 3.22
v 3.98 -1.98 3.2
v -3.98 -1.98 3.2
v -3.98 -2 3.22
v -4 -1.98 3.22
v -4.000002 -1.979998 3.380235
v -3.980002 -1.999997 3.380235
v 3.979998 -2.000002 3.380235
v -3.980238 -1.980233 3.4
v 4 -1.98 3.22
v 3.98 -2 3.22
v 3.979998 -2.000002 3.380235
v 3.999998 -1.980002 3.380235
v 4.000001 1.979999 3.22
v 4 1.98 3.380235
v 3.980235 1.980235 3.4
v 3.980233 -1.980237 3.4
v -3.980238 -1.980233 3.4
v -4.000002 -1.979998 3.380235
v -3.999999 1.980002 3.380235
v -3.980234 1.980237 3.4
v 3.980233 -1.980237 3.4
v -3.980002 -1.999997 3.380235
v 3.979998 -2.000002 3.380235
v 3.980235 1.980235 3.4
v 3.98 2 3.380235
v -3.979999 2.000002 3.380235
vt 0.9821733 0.3189005
vt 0.9821733 0.3169197
vt 0.9801925 0.3189005
vt 0.8140643 0.7903182
vt 0.8121068 0.7903414
vt 0.8140643 0.7922989
vt 0.8556277 0.6338392
vt 0.8338951 0.9507588
vt 0.8556277 0.9507588
vt 0.8338951 0.6338392
vt 0.8319144 0.9507588
vt 0.8319144 0.6338392
vt 0.3981306 0.7903183
vt 0.7903184 0.001980793
vt 0.3981304 0.001980746
vt 0.7903185 0.7903183
vt 0.7903184 0.792299
vt 0.3981305 0.792299
vt 0.810126 0.7903182
vt 0.7942567 0.001980863
vt 0.7942566 0.7903181
vt 0.8101261 0.001980771
vt 0.8121068 0.001980746
vt 0.8121068 0.7903183
vt 0.7942568 1.276734E-07
vt 0.8101261 1.416722E-08
vt 0.7922993 0.001957558
vt 0.9782119 0.7110885
vt 0.9623423 0.3189003
vt 0.9623425 0.7110882
vt 0.9782118 0.3189005
vt 0.9801925 0.3189005
vt 0.9801925 0.7110885
vt 0.9782117 0.3169197
vt 0.9623423 0.3169196
vt 0.9603849 0.3188771
vt 0.8338951 0.3169196
vt 0.8556277 0.3169197
vt 0.8556278 1.348661E-10
vt 0.8338954 1.614595E-09
vt 0.8319144 0.3169196
vt 0.8319147 1.749462E-09
vt 0.9840982 0.3169196
vt 0.9623657 0
vt 0.9623656 0.3169196
vt 0.9840982 0
vt 0.9860789 0
vt 0.9860789 0.3169196
vt 0.1798583 0.8160121
vt 0.1798583 0.7942798
vt 0.1778775 0.792299
vt 0.1778775 0.8179929
vt 0.156145 0.792299
vt 0.1561451 0.817993
vt 0.1541642 0.7942798
vt 0.1541643 0.8160123
vt 0.9584042 9.27313E-10
vt 0.9366717 0.3169196
vt 0.9584042 0.3169196
vt 0.9366716 1.110171E-08
vt 0.934691 0.3169196
vt 0.9346909 1.202902E-08
vt 0.0276749 0.792299
vt 0.02569415 0.7942797
vt 0.02569405 0.8160124
vt 0.02767478 0.8179931
vt 0.04940733 0.7922992
vt 0.04940733 0.8179931
vt 0.05138807 0.7942799
vt 0.05138807 0.8160123
vt 0.8813218 0.6338392
vt 0.8595895 0.9507588
vt 0.8813218 0.9507588
vt 0.8595893 0.6338392
vt 0.8576087 0.9507588
vt 0.8576086 0.6338392
vt 0.881322 0.3169197
vt 0.8813219 2.017748E-08
vt 0.8595896 1.685412E-09
vt 0.8595893 0.3169197
vt 0.8576086 0.3169196
vt 0.8576088 0
vt 0.8852835 0.6338392
vt 0.907016 0.9507588
vt 0.9070159 0.6338392
vt 0.8852835 0.9507588
vt 0.8833027 0.9507588
vt 0.8833027 0.6338392
vt 0.1541642 0.7942798
vt 0.1521835 0.792299
vt 0.1304511 0.792299
vt 0.1284703 0.7942797
vt 0.1541642 0.8160123
vt 0.1284702 0.8160122
vt 0.1521835 0.817993
vt 0.130451 0.817993
vt 0.8852834 1.091872E-08
vt 0.907016 0.3169196
vt 0.907016 9.12028E-10
vt 0.8852836 0.3169196
vt 0.8833029 0.3169196
vt 0.8833027 1.183074E-08
vt 0.1027761 0.8160124
vt 0.1027761 0.7942797
vt 0.1007954 0.792299
vt 0.1007954 0.8179932
vt 0.07906298 0.792299
vt 0.07906286 0.8179929
vt 0.07708222 0.7942797
vt 0.07708212 0.8160121
vt 0.9366715 0.6338392
vt 0.9584039 0.9507588
vt 0.9584039 0.6338392
vt 0.9366714 0.9507588
vt 0.9346907 0.9507588
vt 0.9346907 0.6338392
vt 0.881322 0.6338393
vt 0.8813218 0.3169196
vt 0.8595893 0.3169196
vt 0.8595893 0.6338392
vt 0.8576086 0.6338392
vt 0.8576086 0.3169196
vt 0.9109775 0.6338392
vt 0.9327101 0.3169196
vt 0.9109776 0.3169196
vt 0.9327101 0.6338392
vt 0.9346908 0.3169196
vt 0.9346908 0.6338392
vt 0.1264895 0.8179929
vt 0.1284702 0.8160122
vt 0.1284702 0.7942797
vt 0.1264895 0.792299
vt 0.104757 0.8179929
vt 0.1047569 0.792299
vt 0.1027762 0.8160121
vt 0.1027762 0.7942798
vt 0.9109775 0.6338392
vt 0.9327099 0.9507589
vt 0.93271 0.6338392
vt 0.9109775 0.9507589
vt 0.9089968 0.9507589
vt 0.9089967 0.6338392
vt 0.02569404 0.8160122
vt 0.02569404 0.7942798
vt 0.02371329 0.792299
vt 0.02371329 0.817993
vt 0.001980745 0.792299
vt 0.001980863 0.8179931
vt 9.101313E-09 0.7942797
vt 1.089604E-07 0.8160124
vt 0.8852835 0.3169196
vt 0.907016 0.6338392
vt 0.9070159 0.3169196
vt 0.8852836 0.6338392
vt 0.8833029 0.6338392
vt 0.8833027 0.3169196
vt 0.8338951 0.6338392
vt 0.8556277 0.6338393
vt 0.8556278 0.3169196
vt 0.8338953 0.3169196
vt 0.8319144 0.6338392
vt 0.8319146 0.3169196
vt 0.2055524 0.8160122
vt 0.2055524 0.7942797
vt 0.2035716 0.792299
vt 0.2035716 0.817993
vt 0.1818391 0.792299
vt 0.181839 0.8179929
vt 0.1798584 0.7942798
vt 0.1798583 0.8160121
vt 0.9109775 0.3169196
vt 0.9327099 0
vt 0.9109775 0
vt 0.9327101 0.3169196
vt 0.9346907 0
vt 0.9346908 0.3169196
vt 0.05336882 0.7922992
vt 0.05138808 0.7942799
vt 0.05138818 0.8160123
vt 0.05336894 0.817993
vt 0.07510137 0.792299
vt 0.07510137 0.8179932
vt 0.07708211 0.7942797
vt 0.07708211 0.8160124
vt 0.9584041 0.3169196
vt 0.9366717 0.6338392
vt 0.9584041 0.6338392
vt 0.9366717 0.3169197
vt 0.934691 0.6338392
vt 0.9346909 0.3169197
vt 0.8299336 0.7903183
vt 0.8299335 0.7922991
vt 0.8319143 0.7903183
vt 0.8319142 0.001980934
vt 0.8299335 0.001980898
vt 0.8299335 1.487576E-07
vt 0.8140641 1.633395E-08
vt 0.8140642 0.001980782
vt 0.8140643 0.7903182
vt 0.8121068 0.001957416
vt 0.9821734 0.7110884
vt 0.9821733 0.7130691
vt 0.9980426 0.7130693
vt 0.9980425 0.7110885
vt 0.9821733 0.3189005
vt 0.9980426 0.3189004
vt 1 0.318877
vt 1 0.7111119
vt 0.3941922 0.001957438
vt 0.3941689 4.722465E-10
vt 0.001981029 9.397714E-08
vt 0.001957711 0.001957536
vt 0.3941922 0.7903415
vt 0.3961497 0.001980769
vt 0.3961497 0.7903183
vt 0.001957441 0.7903414
vt 6.788545E-10 0.7903182
vt 2.708632E-07 0.00198084
vn 0.8755803 0.3415844 -0.3415835
vn 0.3415861 0.8755776 -0.3415885
vn 0.3415894 0.3415825 -0.8755787
vn 0.3411095 -0.8760439 0.3408687
vn 0.3427833 -0.3427913 0.8746392
vn 0.87604 -0.3411161 0.3408719
vn 0.3826789 -0.9238815 0
vn -0.3826903 -0.9238766 0
vn 0.3826787 -0.9238815 0
vn -0.3826901 -0.9238768 0
vn -0.9238824 -0.3826766 0
vn -0.9238822 -0.3826769 0
vn 0.3415868 -0.3415854 -0.8755786
vn -0.3415836 0.341588 -0.8755788
vn -0.3415868 -0.3415881 -0.8755776
vn 0.3415894 0.3415825 -0.8755787
vn 0.8755803 0.3415844 -0.3415835
vn 0.8755795 -0.3415864 -0.3415833
vn -0.3415839 0.8755789 -0.3415875
vn 0.3411091 0.8760445 0.3408674
vn -0.3411144 0.8760423 0.3408677
vn 0.3415861 0.8755776 -0.3415885
vn 0.3415894 0.3415825 -0.8755787
vn -0.3415836 0.341588 -0.8755788
vn 0.8760393 0.3411157 0.3408743
vn 0.8755803 0.3415844 -0.3415835
vn 0.3427843 0.3427883 0.87464
vn -0.8755779 -0.3415892 -0.341585
vn -0.8760439 0.3411103 0.3408678
vn -0.8760421 -0.3411125 0.3408702
vn -0.875577 0.3415881 -0.3415881
vn -0.3415836 0.341588 -0.8755788
vn -0.3415868 -0.3415881 -0.8755776
vn -0.3415839 0.8755789 -0.3415875
vn -0.3411144 0.8760423 0.3408677
vn -0.3427888 0.3427856 0.8746392
vn 0.9238774 -0.3826887 0
vn 0.9238811 0.3826797 0
vn 0.9238812 0.3826796 0
vn 0.9238775 -0.3826885 0
vn 0.3826787 -0.9238815 0
vn 0.3826789 -0.9238815 0
vn 0.3826789 0.9238815 0
vn -0.3826903 0.9238766 0
vn -0.3826901 0.9238768 0
vn 0.3826787 0.9238815 0
vn 0.9238774 0.3826887 0
vn 0.9238775 0.3826885 0
vn 0 0 -1
vn 0 0 -1
vn 0 0 -1
vn 0 0 -1
vn 0 0 -1
vn 0 0 -1
vn 0 0 -1
vn 0 0 -1
vn -0.3826796 0.9238812 0
vn 0.3826859 0.9238785 0
vn -0.3826794 0.9238812 0
vn 0.3826861 0.9238784 0
vn 0.9238811 0.3826797 0
vn 0.9238812 0.3826796 0
vn 0 0 1
vn 0 0 1
vn 0 0 1
vn 0 0 1
vn 0 0 1
vn 0 0 1
vn 0 0 1
vn 0 0 1
vn -0.9238822 -0.3826769 0
vn -0.9238776 0.382688 0
vn -0.9238824 -0.3826766 0
vn -0.9238777 0.382688 0
vn -0.3826794 0.9238812 0
vn -0.3826796 0.9238812 0
vn 0.9238774 0.3826887 0
vn 0.9238775 0.3826885 0
vn 0.9238812 -0.3826796 0
vn 0.9238811 -0.3826797 0
vn 0.3826859 -0.9238785 0
vn 0.3826861 -0.9238784 0
vn -0.3826789 -0.9238815 0
vn 0.3826903 -0.9238766 0
vn 0.3826901 -0.9238768 0
vn -0.3826787 -0.9238815 0
vn -0.9238774 -0.3826887 0
vn -0.9238775 -0.3826885 0
vn 0 0 -1
vn 0 0 -1
vn 0 0 -1
vn 0 0 -1
vn 0 0 -1
vn 0 0 -1
vn 0 0 -1
vn 0 0 -1
vn -0.3826796 -0.9238812 0
vn 0.3826859 -0.9238785 0
vn 0.3826861 -0.9238784 0
vn -0.3826794 -0.9238812 0
vn -0.9238776 -0.382688 0
vn -0.9238777 -0.382688 0
vn 0 0 1
vn 0 0 1
vn 0 0 1
vn 0 0 1
vn 0 0 1
vn 0 0 1
vn 0 0 1
vn 0 0 1
vn -0.9238822 0.3826769 0
vn -0.9238776 -0.382688 0
vn -0.9238777 -0.382688 0
vn -0.9238824 0.3826766 0
vn -0.3826903 0.9238766 0
vn -0.3826901 0.9238768 0
vn -0.9238774 -0.3826887 0
vn -0.9238775 -0.3826885 0
vn -0.9238812 0.3826796 0
vn -0.9238811 0.3826797 0
vn -0.3826859 0.9238785 0
vn -0.3826861 0.9238784 0
vn -0.3826789 0.9238815 0
vn 0.3826903 0.9238766 0
vn -0.3826787 0.9238815 0
vn 0.3826901 0.9238768 0
vn 0.9238824 0.3826766 0
vn 0.9238822 0.3826769 0
vn 0 0 -1
vn 0 0 -1
vn 0 0 -1
vn 0 0 -1
vn 0 0 -1
vn 0 0 -1
vn 0 0 -1
vn 0 0 -1
vn 0.3826796 0.9238812 0
vn -0.3826859 0.9238785 0
vn -0.3826861 0.9238784 0
vn 0.3826794 0.9238812 0
vn 0.9238776 0.382688 0
vn 0.9238777 0.382688 0
vn 0 0 1
vn 0 0 1
vn 0 0 1
vn 0 0 1
vn 0 0 1
vn 0 0 1
vn 0 0 1
vn 0 0 1
vn 0.9238822 -0.3826769 0
vn 0.9238776 0.382688 0
vn 0.9238777 0.382688 0
vn 0.9238824 -0.3826766 0
vn 0.3826903 -0.9238766 0
vn 0.3826901 -0.9238768 0
vn -0.9238774 0.3826887 0
vn -0.9238811 -0.3826797 0
vn -0.9238812 -0.3826796 0
vn -0.9238775 0.3826885 0
vn -0.3826787 0.9238815 0
vn -0.3826789 0.9238815 0
vn 0 0 -1
vn 0 0 -1
vn 0 0 -1
vn 0 0 -1
vn 0 0 -1
vn 0 0 -1
vn 0 0 -1
vn 0 0 -1
vn 0.3826796 -0.9238812 0
vn -0.3826859 -0.9238785 0
vn 0.3826794 -0.9238812 0
vn -0.3826861 -0.9238784 0
vn -0.9238811 -0.3826797 0
vn -0.9238812 -0.3826796 0
vn 0 0 1
vn 0 0 1
vn 0 0 1
vn 0 0 1
vn 0 0 1
vn 0 0 1
vn 0 0 1
vn 0 0 1
vn 0.9238822 0.3826769 0
vn 0.9238776 -0.382688 0
vn 0.9238824 0.3826766 0
vn 0.9238777 -0.382688 0
vn 0.3826794 -0.9238812 0
vn 0.3826796 -0.9238812 0
vn 0.3415857 -0.8755791 -0.3415854
vn 0.8755795 -0.3415864 -0.3415833
vn 0.3415868 -0.3415854 -0.8755786
vn -0.3415868 -0.3415881 -0.8755776
vn -0.3415842 -0.8755804 -0.3415831
vn -0.8755779 -0.3415892 -0.341585
vn -0.8760421 -0.3411125 0.3408702
vn -0.3411106 -0.8760421 0.3408718
vn 0.3411095 -0.8760439 0.3408687
vn -0.3427875 -0.3427844 0.8746402
vn 0.8755795 -0.3415864 -0.3415833
vn 0.3415857 -0.8755791 -0.3415854
vn 0.3411095 -0.8760439 0.3408687
vn 0.87604 -0.3411161 0.3408719
vn 0.8755803 0.3415844 -0.3415835
vn 0.8760393 0.3411157 0.3408743
vn 0.3427843 0.3427883 0.87464
vn 0.3427833 -0.3427913 0.8746392
vn -0.3427875 -0.3427844 0.8746402
vn -0.8760421 -0.3411125 0.3408702
vn -0.8760439 0.3411103 0.3408678
vn -0.3427888 0.3427856 0.8746392
vn 0.3427833 -0.3427913 0.8746392
vn -0.3411106 -0.8760421 0.3408718
vn 0.3411095 -0.8760439 0.3408687
vn 0.3427843 0.3427883 0.87464
vn 0.3411091 0.8760445 0.3408674
vn -0.3411144 0.8760423 0.3408677
g Table - Rectangular_0
f 3/3/3 2/2/2 1/1/1
f 6/6/6 5/5/5 4/4/4
f 9/9/9 8/8/8 7/7/7
f 8/8/8 10/10/10 7/7/7
f 8/8/8 11/11/11 10/10/10
f 11/11/11 12/12/12 10/10/10
f 15/15/15 14/14/14 13/13/13
f 14/14/14 16/16/16 13/13/13
f 16/16/16 17/17/17 13/13/13
f 17/17/17 18/18/18 13/13/13
f 21/21/21 20/20/20 19/19/19
f 20/20/20 22/22/22 19/19/19
f 22/22/22 23/23/23 19/19/19
f 23/23/23 24/24/24 19/19/19
f 20/20/20 25/25/25 22/22/22
f 25/25/25 26/26/26 22/22/22
f 27/27/27 25/25/25 20/20/20
f 30/30/30 29/29/29 28/28/28
f 29/29/29 31/31/31 28/28/28
f 31/31/31 32/32/32 28/28/28
f 32/32/32 33/33/33 28/28/28
f 34/34/34 32/32/32 31/31/31
f 35/35/35 34/34/34 31/31/31
f 29/29/29 35/35/35 31/31/31
f 36/36/36 35/35/35 29/29/29
f 39/39/39 38/38/38 37/37/37
f 40/40/40 39/39/39 37/37/37
f 37/37/37 41/41/41 40/40/40
f 41/41/41 42/42/42 40/40/40
f 45/45/45 44/44/44 43/43/43
f 44/44/44 46/46/46 43/43/43
f 46/46/46 47/47/47 43/43/43
f 47/47/47 48/48/48 43/43/43
f 51/51/51 50/50/50 49/49/49
f 49/49/49 52/52/52 51/51/51
f 52/52/52 53/53/53 51/51/51
f 52/52/52 54/54/54 53/53/53
f 54/54/54 55/55/55 53/53/53
f 54/54/54 56/56/56 55/55/55
f 59/59/59 58/58/58 57/57/57
f 58/58/58 60/60/60 57/57/57
f 58/58/58 61/61/61 60/60/60
f 61/61/61 62/62/62 60/60/60
f 65/65/65 64/64/64 63/63/63
f 63/63/63 66/66/66 65/65/65
f 63/63/63 67/67/67 66/66/66
f 67/67/67 68/68/68 66/66/66
f 67/67/67 69/69/69 68/68/68
f 69/69/69 70/70/70 68/68/68
f 73/73/73 72/72/72 71/71/71
f 72/72/72 74/74/74 71/71/71
f 72/72/72 75/75/75 74/74/74
f 75/75/75 76/76/76 74/74/74
f 79/79/79 78/78/78 77/77/77
f 80/80/80 79/79/79 77/77/77
f 80/80/80 81/81/81 79/79/79
f 81/81/81 82/82/82 79/79/79
f 85/85/85 84/84/84 83/83/83
f 84/84/84 86/86/86 83/83/83
f 86/86/86 87/87/87 83/83/83
f 87/87/87 88/88/88 83/83/83
f 91/91/91 90/90/90 89/89/89
f 89/89/89 92/92/92 91/91/91
f 89/89/89 93/93/93 92/92/92
f 93/93/93 94/94/94 92/92/92
f 93/93/93 95/95/95 94/94/94
f 95/95/95 96/96/96 94/94/94
f 99/99/99 98/98/98 97/97/97
f 98/98/98 100/100/100 97/97/97
f 100/100/100 101/101/101 97/97/97
f 101/101/101 102/102/102 97/97/97
f 105/105/105 104/104/104 103/103/103
f 103/103/103 106/106/106 105/105/105
f 106/106/106 107/107/107 105/105/105
f 106/106/106 108/108/108 107/107/107
f 108/108/108 109/109/109 107/107/107
f 108/108/108 110/110/110 109/109/109
f 113/113/113 112/112/112 111/111/111
f 112/112/112 114/114/114 111/111/111
f 114/114/114 115/115/115 111/111/111
f 115/115/115 116/116/116 111/111/111
f 119/119/119 118/118/118 117/117/117
f 120/120/120 119/119/119 117/117/117
f 120/120/120 121/121/121 119/119/119
f 121/121/121 122/122/122 119/119/119
f 125/125/125 124/124/124 123/123/123
f 124/124/124 126/126/126 123/123/123
f 124/124/124 127/127/127 126/126/126
f 127/127/127 128/128/128 126/126/126
f 131/131/131 130/130/130 129/129/129
f 129/129/129 132/132/132 131/131/131
f 129/129/129 133/133/133 132/132/132
f 133/133/133 134/134/134 132/132/132
f 133/133/133 135/135/135 134/134/134
f 135/135/135 136/136/136 134/134/134
f 139/139/139 138/138/138 137/137/137
f 138/138/138 140/140/140 137/137/137
f 140/140/140 141/141/141 137/137/137
f 141/141/141 142/142/142 137/137/137
f 145/145/145 144/144/144 143/143/143
f 143/143/143 146/146/146 145/145/145
f 146/146/146 147/147/147 145/145/145
f 146/146/146 148/148/148 147/147/147
f 148/148/148 149/149/149 147/147/147
f 148/148/148 150/150/150 149/149/149
f 153/153/153 152/152/152 151/151/151
f 152/152/152 154/154/154 151/151/151
f 154/154/154 155/155/155 151/151/151
f 155/155/155 156/156/156 151/151/151
f 159/159/159 158/158/158 157/157/157
f 160/160/160 159/159/159 157/157/157
f 157/157/157 161/161/161 160/160/160
f 161/161/161 162/162/162 160/160/160
f 165/165/165 164/164/164 163/163/163
f 163/163/163 166/166/166 165/165/165
f 166/166/166 167/167/167 165/165/165
f 166/166/166 168/168/168 167/167/167
f 168/168/168 169/169/169 167/167/167
f 168/168/168 170/170/170 169/169/169
f 173/173/173 172/172/172 171/171/171
f 172/172/172 174/174/174 171/171/171
f 172/172/172 175/175/175 174/174/174
f 175/175/175 176/176/176 174/174/174
f 179/179/179 178/178/178 177/177/177
f 177/177/177 180/180/180 179/179/179
f 177/177/177 181/181/181 180/180/180
f 181/181/181 182/182/182 180/180/180
f 181/181/181 183/183/183 182/182/182
f 183/183/183 184/184/184 182/182/182
f 187/187/187 186/186/186 185/185/185
f 186/186/186 188/188/188 185/185/185
f 186/186/186 189/189/189 188/188/188
f 189/189/189 190/190/190 188/188/188
f 193/193/193 192/192/192 191/191/191
f 194/194/194 193/193/193 191/191/191
f 195/195/195 194/194/194 191/191/191
f 196/196/196 194/194/194 195/195/195
f 197/197/197 196/196/196 195/195/195
f 198/198/198 195/195/195 191/191/191
f 198/198/198 197/197/197 195/195/195
f 199/199/199 198/198/198 191/191/191
f 200/200/200 197/197/197 198/198/198
f 203/203/203 202/202/202 201/201/201
f 204/204/204 203/203/203 201/201/201
f 201/201/201 205/205/205 204/204/204
f 205/205/205 206/206/206 204/204/204
f 206/206/206 207/207/207 204/204/204
f 207/207/207 208/208/208 204/204/204
f 211/211/211 210/210/210 209/209/209
f 212/212/212 211/211/211 209/209/209
f 212/212/212 209/209/209 213/213/213
f 209/209/209 214/214/214 213/213/213
f 214/214/214 215/215/215 213/213/213
f 216/216/216 212/212/212 213/213/213
f 216/216/216 217/217/217 212/212/212
f 217/217/217 218/218/218 212/212/212
