g Tapestry
v -1.493309 -0.08767367 -0.007486634
v -2.239976 -0.1177286 -0.03754164
v -2.239976 -0.08767377 -0.007486779
v -1.493309 -0.1177285 -0.03754149
v -0.7466424 -0.08767357 -0.007486489
v -0.7466424 -0.1177284 -0.03754096
v 2.423742E-05 -0.08767348 -0.007485962
v 2.424286E-05 -0.1177283 -0.03754082
v 0.7466909 -0.08767338 -0.007485817
v 0.7466909 -0.1177282 -0.03754067
v 1.493358 -0.08767328 -0.00748529
v 1.493358 -0.1177281 -0.03754053
v 2.240024 -0.08767319 -0.007485145
v 2.240024 -0.117728 -0.03754
v -0.7466425 -0.0466179 0.003514717
v 2.42372E-05 -0.0466178 0.003514862
v 0.7466909 -0.0466177 0.003515389
v 1.493358 -0.0466176 0.003515535
v 2.240024 -0.0466175 0.00351568
v 2.240024 -0.08767319 -0.007485145
v 2.24 5.267431E-07 8.176137E-07
v 1.493333 4.226877E-07 6.722324E-07
v 0.7466663 3.186322E-07 5.26851E-07
v -3.642752E-07 2.145767E-07 -7.0927E-14
v -0.7466671 1.224421E-07 -1.453814E-07
v -1.493309 -0.046618 0.00351419
v -2.239976 -0.08767377 -0.007486779
v -1.493334 3.030759E-08 -6.722325E-07
v -2.239976 -0.0466181 0.003514044
v -2.24 -7.374789E-08 -8.176139E-07
v 1.493358 -0.1177281 -0.03754053
v 2.240024 -0.117728 -0.03754
v 2.240024 -0.1287289 -0.07859568
v 1.866691 -0.1287289 -0.07859575
v 2.240026 -0.1287296 -5.70133
v 1.866692 -0.08478329 -6.371617
v 1.493358 -0.128729 -0.07859582
v 1.493359 -0.1287296 -6.816724
v 0.7466909 -0.1177282 -0.03754067
v 1.120024 -0.128729 -0.07859609
v 1.120026 -0.08478329 -7.30656
v 0.7466909 -0.128729 -0.07859635
v 0.7466928 -0.1287296 -7.679893
v 2.424286E-05 -0.1177283 -0.03754082
v 0.3733576 -0.1287291 -0.07859643
v 0.3733595 -0.08478329 -8.053226
v 2.425207E-05 -0.1287291 -0.0785965
v 2.625093E-05 -0.1287296 -8.426559
v -0.7466424 -0.1177284 -0.03754096
v -0.3733091 -0.1287292 -0.07859676
v -0.3733071 -0.08478329 -8.053226
v -0.7466424 -0.1287293 -0.07859702
v -0.7466406 -0.1287296 -7.679893
v -1.493309 -0.1177285 -0.03754149
v -1.119976 -0.1287293 -0.07859709
v -1.119974 -0.08478329 -7.30656
v -1.493309 -0.1287293 -0.07859717
v -2.239976 -0.1177286 -0.03754164
v -1.493307 -0.1287296 -6.816724
v -1.866642 -0.1287294 -0.07859724
v -2.239976 -0.1287294 -0.07859731
v -1.866641 -0.08478329 -6.371618
v -2.239974 -0.1287296 -5.701331
v -1.493309 -0.06767428 -0.04212758
v -2.239976 -0.06767438 -0.04212773
v -2.239976 -0.08308765 -0.05754103
v -1.493309 -0.08308756 -0.05754088
v -0.7466424 -0.06767417 -0.04212744
v -0.7466424 -0.08308746 -0.05754036
v 2.423742E-05 -0.06767409 -0.04212691
v 2.424286E-05 -0.08308737 -0.05754021
v 0.7466909 -0.06767399 -0.04212677
v 0.7466909 -0.08308727 -0.05754006
v 1.493358 -0.06767388 -0.04212624
v 1.493358 -0.08308718 -0.05753992
v 2.240024 -0.06767379 -0.04212609
v 2.240024 -0.08308707 -0.05753939
v -1.493309 -0.08308756 -0.05754088
v -2.239976 -0.08308765 -0.05754103
v -2.241095 -0.08907858 -0.0837464
v -1.86659 -0.08906387 -0.08375242
v -2.242192 -0.08879184 -5.701185
v -1.865014 -0.04481747 -6.371481
v -1.494543 -0.08874911 -6.816597
v -1.493269 -0.08906381 -0.08375724
v -1.118581 -0.04480892 -7.30644
v -0.7466424 -0.08308746 -0.05754036
v -1.11994 -0.089065 -0.08376204
v -0.7477551 -0.08874545 -7.67978
v -0.7466143 -0.08906496 -0.08376442
v -0.3720815 -0.04480282 -8.053117
v 2.424286E-05 -0.08308737 -0.05754021
v -0.3732822 -0.08906491 -0.0837666
v 2.625093E-05 -0.0887308 -8.426452
v 2.425207E-05 -0.08906607 -0.08376877
v 0.3721339 -0.04480282 -8.053117
v 0.3733307 -0.08906479 -0.08376627
v 0.7478073 -0.08874545 -7.67978
v 0.7466629 -0.08906475 -0.08376375
v 1.118633 -0.04480892 -7.30644
v 0.7466909 -0.08308727 -0.05754006
v 1.119989 -0.0890647 -0.08376104
v 1.494595 -0.08874911 -6.816597
v 1.493317 -0.08906344 -0.0837559
v 1.865065 -0.04481747 -6.37148
v 1.493358 -0.08308718 -0.05753992
v 1.866638 -0.08906338 -0.08375093
v 2.242244 -0.08879184 -5.701183
v 2.241144 -0.08907798 -0.08374476
v 2.240024 -0.08308707 -0.05753939
v 2.240024 -0.0428918 -0.03630976
v 1.493358 -0.06767388 -0.04212624
v 2.240024 -0.06767379 -0.04212609
v 1.493358 -0.04289313 -0.0363099
v 2.24 -0.003006157 -0.03988566
v 0.7466909 -0.06767399 -0.04212677
v 1.493333 -0.003006261 -0.0398858
v 0.7466909 -0.04289322 -0.03631005
v 2.423742E-05 -0.06767409 -0.04212691
v 0.7466663 -0.003006365 -0.03988595
v 2.42372E-05 -0.04289332 -0.03631057
v -0.7466424 -0.06767417 -0.04212744
v -3.642752E-07 -0.003006469 -0.03988647
v -0.7466425 -0.04289342 -0.03631072
v -1.493309 -0.06767428 -0.04212758
v -0.7466671 -0.003006561 -0.03988662
v -1.493309 -0.04289352 -0.03631125
v -2.239976 -0.06767438 -0.04212773
v -1.493334 -0.003006653 -0.03988714
v -2.239976 -0.04289484 -0.03631139
v -2.24 -0.003006757 -0.03988729
v 2.625093E-05 -0.1287296 -8.426559
v 2.625093E-05 -0.0887308 -8.426452
v -0.3720815 -0.04480282 -8.053117
v -0.3733071 -0.08478329 -8.053226
v -0.7477551 -0.08874545 -7.67978
v -0.7466406 -0.1287296 -7.679893
v -1.118581 -0.04480892 -7.30644
v -1.119974 -0.08478329 -7.30656
v -1.494543 -0.08874911 -6.816597
v -1.493307 -0.1287296 -6.816724
v -1.865014 -0.04481747 -6.371481
v -1.866641 -0.08478329 -6.371618
v -2.242192 -0.08879184 -5.701185
v -2.239974 -0.1287296 -5.701331
v -2.241095 -0.08907858 -0.0837464
v -2.239976 -0.1287294 -0.07859731
v -2.239976 -0.08308765 -0.05754103
v -2.239976 -0.1177286 -0.03754164
v -2.24 -7.374789E-08 -8.176139E-07
v -2.24 -0.003006757 -0.03988729
v -1.493334 -0.003006653 -0.03988714
v -1.493334 3.030759E-08 -6.722325E-07
v -0.7466671 -0.003006561 -0.03988662
v -0.7466671 1.224421E-07 -1.453814E-07
v -3.642752E-07 -0.003006469 -0.03988647
v -3.642752E-07 2.145767E-07 -7.0927E-14
v 0.7466663 -0.003006365 -0.03988595
v 0.7466663 3.186322E-07 5.26851E-07
v 1.493333 -0.003006261 -0.0398858
v 1.493333 4.226877E-07 6.722324E-07
v 2.24 -0.003006157 -0.03988566
v 2.24 5.267431E-07 8.176137E-07
v -2.239976 -0.1177286 -0.03754164
v -2.239976 -0.08308765 -0.05754103
v -2.239976 -0.06767438 -0.04212773
v -2.239976 -0.08767377 -0.007486779
v -2.239976 -0.04289484 -0.03631139
v -2.239976 -0.0466181 0.003514044
v -2.24 -0.003006757 -0.03988729
v -2.24 -7.374789E-08 -8.176139E-07
v 2.240024 -0.08767319 -0.007485145
v 2.240024 -0.08308707 -0.05753939
v 2.240024 -0.117728 -0.03754
v 2.240024 -0.06767379 -0.04212609
v 2.240024 -0.0466175 0.00351568
v 2.240024 -0.0428918 -0.03630976
v 2.24 5.267431E-07 8.176137E-07
v 2.24 -0.003006157 -0.03988566
v 2.240024 -0.117728 -0.03754
v 2.240024 -0.08308707 -0.05753939
v 2.241144 -0.08907798 -0.08374476
v 2.240024 -0.1287289 -0.07859568
v 2.242244 -0.08879184 -5.701183
v 2.240026 -0.1287296 -5.70133
v 1.865065 -0.04481747 -6.37148
v 1.866692 -0.08478329 -6.371617
v 1.494595 -0.08874911 -6.816597
v 1.493359 -0.1287296 -6.816724
v 1.118633 -0.04480892 -7.30644
v 1.120026 -0.08478329 -7.30656
v 0.7478073 -0.08874545 -7.67978
v 0.7466928 -0.1287296 -7.679893
v 0.3721339 -0.04480282 -8.053117
v 0.3733595 -0.08478329 -8.053226
v 2.625093E-05 -0.0887308 -8.426452
v 2.625093E-05 -0.1287296 -8.426559
vt 0.9808747 0.4465913
vt 0.973762 0.5359095
vt 0.9808747 0.5359095
vt 0.973762 0.4465913
vt 0.9808747 0.357273
vt 0.973762 0.357273
vt 0.9808747 0.2679548
vt 0.973762 0.2679548
vt 0.9808747 0.1786365
vt 0.973762 0.1786365
vt 0.9808747 0.0893183
vt 0.973762 0.08931828
vt 0.9808747 0
vt 0.973762 2.852025E-08
vt 0.9899824 0.357273
vt 0.9899824 0.2679548
vt 0.9899824 0.1786365
vt 0.9899824 0.08931827
vt 0.9899824 5.704051E-08
vt 0.9808747 0
vt 1 2.966106E-06
vt 0.9999999 0.08932123
vt 0.9999999 0.1786395
vt 0.9999999 0.2679577
vt 0.9999999 0.357276
vt 0.9899824 0.4465912
vt 0.9808747 0.5359095
vt 0.9999999 0.4465942
vt 0.9899823 0.5359095
vt 0.9999999 0.5359125
vt 0.8114682 1
vt 0.973762 1
vt 0.973762 0.9949948
vt 0.8926151 0.9949948
vt 0.973762 0.3248203
vt 0.8926151 0.2453753
vt 0.8114682 0.9949948
vt 0.8114682 0.1918764
vt 0.6491746 1
vt 0.7303215 0.9949948
vt 0.7303215 0.1339394
vt 0.6491746 0.9949948
vt 0.6491746 0.08899517
vt 0.486881 1
vt 0.5680278 0.9949948
vt 0.5680278 0.04494427
vt 0.486881 0.9949948
vt 0.486881 0
vt 0.3245873 1
vt 0.4057341 0.9949948
vt 0.4057342 0.04494427
vt 0.3245873 0.9949948
vt 0.3245873 0.08899517
vt 0.1622937 0.9999999
vt 0.2434405 0.9949948
vt 0.2434405 0.1339395
vt 0.1622937 0.9949948
vt 0 1
vt 0.1622937 0.1918765
vt 0.08114685 0.9949948
vt 0 0.9949948
vt 0.08114682 0.2453754
vt 0 0.3248203
vt 0.9808747 0.4465913
vt 0.9808747 0.5359095
vt 0.973762 0.5359095
vt 0.973762 0.4465913
vt 0.9808747 0.357273
vt 0.973762 0.357273
vt 0.9808747 0.2679548
vt 0.973762 0.2679548
vt 0.9808747 0.1786365
vt 0.973762 0.1786365
vt 0.9808747 0.0893183
vt 0.973762 0.08931828
vt 0.9808747 0
vt 0.973762 2.852025E-08
vt 0.1622937 0.9999999
vt 0 1
vt 0 0.9949948
vt 0.08114685 0.9949948
vt 0 0.3248203
vt 0.08114682 0.2453754
vt 0.1622937 0.1918765
vt 0.1622937 0.9949948
vt 0.2434405 0.1339395
vt 0.3245873 1
vt 0.2434405 0.9949948
vt 0.3245873 0.08899517
vt 0.3245873 0.9949948
vt 0.4057342 0.04494427
vt 0.486881 1
vt 0.4057341 0.9949948
vt 0.486881 0
vt 0.486881 0.9949948
vt 0.5680278 0.04494427
vt 0.5680278 0.9949948
vt 0.6491746 0.08899517
vt 0.6491746 0.9949948
vt 0.7303215 0.1339394
vt 0.6491746 1
vt 0.7303215 0.9949948
vt 0.8114682 0.1918764
vt 0.8114682 0.9949948
vt 0.8926151 0.2453753
vt 0.8114682 1
vt 0.8926151 0.9949948
vt 0.973762 0.3248203
vt 0.973762 0.9949948
vt 0.973762 1
vt 0.9899824 5.704051E-08
vt 0.9808747 0.0893183
vt 0.9808747 0
vt 0.9899824 0.08931827
vt 1 2.966106E-06
vt 0.9808747 0.1786365
vt 0.9999999 0.08932123
vt 0.9899824 0.1786365
vt 0.9808747 0.2679548
vt 0.9999999 0.1786395
vt 0.9899824 0.2679548
vt 0.9808747 0.357273
vt 0.9999999 0.2679577
vt 0.9899824 0.357273
vt 0.9808747 0.4465913
vt 0.9999999 0.357276
vt 0.9899824 0.4465912
vt 0.9808747 0.5359095
vt 0.9999999 0.4465942
vt 0.9899823 0.5359095
vt 0.9999999 0.5359125
vt 0.486881 0
vt 0.486881 0
vt 0.4057342 0.04494427
vt 0.4057342 0.04494427
vt 0.3245873 0.08899517
vt 0.3245873 0.08899517
vt 0.2434405 0.1339395
vt 0.2434405 0.1339395
vt 0.1622937 0.1918765
vt 0.1622937 0.1918765
vt 0.08114682 0.2453754
vt 0.08114682 0.2453754
vt 0 0.3248203
vt 0 0.3248203
vt 0 0.9949948
vt 0 0.9949948
vt 0 1
vt 0 1
vt 0.9999999 0.5359125
vt 0.9999999 0.5359125
vt 0.9999999 0.4465942
vt 0.9999999 0.4465942
vt 0.9999999 0.357276
vt 0.9999999 0.357276
vt 0.9999999 0.2679577
vt 0.9999999 0.2679577
vt 0.9999999 0.1786395
vt 0.9999999 0.1786395
vt 0.9999999 0.08932123
vt 0.9999999 0.08932123
vt 1 2.966106E-06
vt 1 2.966106E-06
vt 0.973762 0.5359095
vt 0.973762 0.5359095
vt 0.9808747 0.5359095
vt 0.9808747 0.5359095
vt 0.9899823 0.5359095
vt 0.9899823 0.5359095
vt 0.9999999 0.5359125
vt 0.9999999 0.5359125
vt 0.9808747 0
vt 0.973762 2.852025E-08
vt 0.973762 2.852025E-08
vt 0.9808747 0
vt 0.9899824 5.704051E-08
vt 0.9899824 5.704051E-08
vt 1 2.966106E-06
vt 1 2.966106E-06
vt 0.973762 1
vt 0.973762 1
vt 0.973762 0.9949948
vt 0.973762 0.9949948
vt 0.973762 0.3248203
vt 0.973762 0.3248203
vt 0.8926151 0.2453753
vt 0.8926151 0.2453753
vt 0.8114682 0.1918764
vt 0.8114682 0.1918764
vt 0.7303215 0.1339394
vt 0.7303215 0.1339394
vt 0.6491746 0.08899517
vt 0.6491746 0.08899517
vt 0.5680278 0.04494427
vt 0.5680278 0.04494427
vt 0.486881 0
vt 0.486881 0
vn 0 -0.5000003 0.8660253
vn 0 -0.8660256 0.4999998
vn 0 -0.707107 0.7071065
vn 0 -0.8660253 0.5000003
vn 0 -0.5000005 0.8660251
vn 0 -0.7071046 0.7071089
vn 0 -0.5000012 0.8660247
vn 0 -0.8660253 0.5000003
vn 0 -0.5000026 0.8660239
vn 0 -0.8660258 0.4999994
vn 0 -0.5000023 0.8660241
vn 0 -0.866026 0.4999989
vn 0 -0.7071093 0.7071042
vn 0 -0.866026 0.499999
vn 0 -0.09313924 0.995653
vn 0 -0.09313922 0.995653
vn 0 -0.09313919 0.995653
vn 0 -0.09313812 0.9956532
vn 0 -0.09316561 0.9956507
vn 0 -0.2588187 0.9659258
vn 0 0.07518365 0.9971697
vn 0 0.07518367 0.9971697
vn 0 0.07518367 0.9971697
vn 0 0.07518367 0.9971697
vn 0 0.07518367 0.9971697
vn 0 -0.09313813 0.9956532
vn 0 -0.2588187 0.9659258
vn 0 0.07518367 0.9971697
vn 0 -0.09310846 0.995656
vn 0 0.07518367 0.9971697
vn 0 -0.866026 0.4999989
vn 0 -0.866026 0.499999
vn -0.02798667 -0.9912821 0.1287498
vn 0.001336451 -0.9916582 0.1288885
vn -0.05545997 -0.9984541 -0.003682275
vn 0.04068739 -0.999166 -0.003424062
vn 0.001023246 -0.9916408 0.1290251
vn -0.03090164 -0.9995173 -0.00319467
vn 0 -0.8660258 0.4999994
vn 0.0008905112 -0.9916278 0.1291253
vn 0.03483357 -0.9993886 -0.003001411
vn 0.0007263639 -0.9916174 0.1292068
vn -0.02786366 -0.9996077 -0.002855908
vn 0 -0.8660253 0.5000003
vn 0.0006923717 -0.9916087 0.1292734
vn 0.03065518 -0.9995263 -0.002723402
vn 0 -0.9916041 0.1293105
vn 0 -0.9999964 -0.002692298
vn 0 -0.9659261 0.2588179
vn -0.0006922588 -0.9916088 0.1292728
vn -0.03065504 -0.9995263 -0.002723427
vn -0.0007262879 -0.9916175 0.1292059
vn 0.02786376 -0.9996077 -0.002855919
vn 0 -0.8660253 0.5000003
vn -0.0008904847 -0.9916281 0.1291242
vn -0.03483349 -0.9993886 -0.003001466
vn -0.001023158 -0.9916409 0.1290242
vn 0 -0.8660256 0.4999998
vn 0.03090173 -0.9995173 -0.003194705
vn -0.001336317 -0.9916583 0.1288879
vn 0.02798679 -0.9912821 0.1287492
vn -0.04068723 -0.999166 -0.003424153
vn 0.0554601 -0.9984541 -0.003682342
vn 0 0.7071049 -0.7071086
vn 0 0.7071071 -0.7071064
vn 0 0.7071071 -0.7071064
vn 0 0.7071049 -0.7071086
vn 0 0.7071026 -0.7071109
vn 0 0.7071027 -0.7071109
vn 0 0.7071049 -0.7071086
vn 0 0.7071049 -0.7071086
vn 0 0.7071092 -0.7071043
vn 0 0.7071092 -0.7071043
vn 0 0.7071114 -0.7071022
vn 0 0.7071114 -0.7071022
vn 0 0.7071114 -0.7071021
vn 0 0.7071114 -0.7071021
vn 0 0.9749689 -0.2223414
vn 0 0.9749489 -0.2224285
vn -0.0281214 0.9936911 -0.1085689
vn 0.001474325 0.9939045 -0.1102339
vn -0.05510282 0.9984737 0.00373273
vn 0.04084672 0.9991593 0.003475593
vn -0.03073576 0.9995223 0.003242394
vn 0.001136239 0.9938946 -0.110327
vn 0.03498574 0.9993832 0.003047316
vn 0 0.9749913 -0.2222429
vn 0.0009980228 0.9938885 -0.1103844
vn -0.02771598 0.9996117 0.002899144
vn 0.0008268298 0.99388 -0.1104617
vn 0.03071677 0.9995242 0.002768713
vn 0 0.9749938 -0.2222322
vn 0.0007646117 0.9938734 -0.1105228
vn 0 0.9999963 0.002738435
vn 0 0.9938695 -0.1105588
vn -0.03071691 0.9995242 0.002768686
vn -0.0007647359 0.9938732 -0.1105234
vn 0.02771586 0.9996117 0.002899132
vn -0.0008269362 0.9938799 -0.1104627
vn -0.03498584 0.9993832 0.003047261
vn 0 0.9749909 -0.2222448
vn -0.000998084 0.9938883 -0.1103859
vn 0.03073566 0.9995223 0.003242355
vn -0.001136338 0.9938945 -0.1103282
vn -0.04084684 0.9991593 0.003475504
vn 0 0.9749684 -0.2223435
vn -0.001474439 0.9939045 -0.1102348
vn 0.05510276 0.9984737 0.003732667
vn 0.0281213 0.993691 -0.1085697
vn 0 0.9749486 -0.2224301
vn 0 0.07053297 -0.9975095
vn 0 0.228503 -0.9735432
vn 0 0.2284967 -0.9735447
vn 0 0.07050504 -0.9975114
vn 0 -0.08929426 -0.9960052
vn 0 0.2285093 -0.9735417
vn 0 -0.08929359 -0.9960054
vn 0 0.07050852 -0.9975111
vn 0 0.2285093 -0.9735417
vn 0 -0.08929292 -0.9960054
vn 0 0.07050857 -0.9975111
vn 0 0.2285093 -0.9735417
vn 0 -0.08929292 -0.9960054
vn 0 0.07050856 -0.9975111
vn 0 0.2285084 -0.973542
vn 0 -0.0892929 -0.9960054
vn 0 0.07050836 -0.9975111
vn 0 0.2285075 -0.9735422
vn 0 -0.08929218 -0.9960055
vn 0 0.07047681 -0.9975134
vn 0 -0.08929146 -0.9960055
vn -0.7068808 0.01274643 -0.7072179
vn -0.7068808 0.01274643 -0.7072179
vn -0.7065391 0.007912423 -0.7076298
vn -0.7065302 0.007789468 -0.7076401
vn -0.7071105 0.003747133 -0.7070931
vn -0.7070846 0.003725182 -0.707119
vn -0.7524421 0.00399352 -0.6586463
vn -0.7532489 0.003983356 -0.6577236
vn -0.7807597 0.004674803 -0.6248139
vn -0.7811787 0.004637426 -0.6242903
vn -0.8229402 0.0006203557 -0.5681276
vn -0.823679 0.0005460589 -0.5670562
vn -0.966808 -0.02394813 -0.2543795
vn -0.9677747 -0.02423178 -0.2506494
vn -0.9996318 -0.02546579 0.009369748
vn -0.9996349 -0.02531431 0.009455247
vn -0.9999452 -0.004388405 0.009510831
vn -0.9999462 -0.004345302 0.009417415
vn 0 0.9971709 -0.07516778
vn 0 0.9971709 -0.07516778
vn 0 0.9971709 -0.07516778
vn 0 0.9971709 -0.07516778
vn 0 0.9971709 -0.07516778
vn 0 0.9971709 -0.07516778
vn 0 0.9971709 -0.07516778
vn 0 0.9971709 -0.07516778
vn 0 0.9971709 -0.07516778
vn 0 0.9971709 -0.07516778
vn 0 0.9971709 -0.07516778
vn 0 0.9971709 -0.07516778
vn 0 0.9971709 -0.07516778
vn 0 0.9971709 -0.07516778
vn -0.9999462 -0.004345302 0.009417415
vn -0.9999452 -0.004388405 0.009510831
vn -1 0 0
vn -1 0 0
vn -1 -0.0002921165 0
vn -1 -0.0002883092 0
vn -0.9999999 -0.0005801094 0
vn -0.9999999 -0.0005801094 0
vn 1 0 0
vn 0.9999452 -0.004387017 0.009510828
vn 0.9999462 -0.004343927 0.00941741
vn 1 0 0
vn 1 0.0002886559 0
vn 1 0.0002923917 0
vn 0.9999999 0.0005730987 0
vn 0.9999999 0.0005730987 0
vn 0.9999462 -0.004343927 0.00941741
vn 0.9999452 -0.004387017 0.009510828
vn 0.9996319 -0.02546228 0.009370002
vn 0.9996349 -0.0253108 0.009455497
vn 0.966808 -0.02394595 -0.2543795
vn 0.9677747 -0.02422956 -0.2506493
vn 0.8229407 0.0006203487 -0.5681269
vn 0.8236794 0.0005460525 -0.5670555
vn 0.7807607 0.004674797 -0.6248126
vn 0.7811796 0.00463742 -0.6242892
vn 0.752443 0.003992802 -0.6586454
vn 0.7532497 0.003982652 -0.6577227
vn 0.707111 0.003746067 -0.7070926
vn 0.7070852 0.003724127 -0.7071186
vn 0.7065396 0.007912247 -0.7076293
vn 0.7065306 0.007789281 -0.7076395
vn 0.7068816 0.01274677 -0.707217
vn 0.7068816 0.01274677 -0.707217
g Tapestry_0
f 3/3/3 2/2/2 1/1/1
f 2/2/2 4/4/4 1/1/1
f 1/1/1 4/4/4 5/5/5
f 4/4/4 6/6/6 5/5/5
f 5/5/5 6/6/6 7/7/7
f 6/6/6 8/8/8 7/7/7
f 7/7/7 8/8/8 9/9/9
f 8/8/8 10/10/10 9/9/9
f 9/9/9 10/10/10 11/11/11
f 10/10/10 12/12/12 11/11/11
f 11/11/11 12/12/12 13/13/13
f 12/12/12 14/14/14 13/13/13
f 1/1/1 5/5/5 15/15/15
f 5/5/5 7/7/7 16/16/16
f 15/15/15 5/5/5 16/16/16
f 7/7/7 9/9/9 17/17/17
f 16/16/16 7/7/7 17/17/17
f 9/9/9 11/11/11 18/18/18
f 17/17/17 9/9/9 18/18/18
f 18/18/18 11/11/11 19/19/19
f 11/11/11 20/20/20 19/19/19
f 19/19/19 21/21/21 18/18/18
f 21/21/21 22/22/22 18/18/18
f 18/18/18 22/22/22 17/17/17
f 22/22/22 23/23/23 17/17/17
f 17/17/17 23/23/23 16/16/16
f 23/23/23 24/24/24 16/16/16
f 16/16/16 24/24/24 15/15/15
f 24/24/24 25/25/25 15/15/15
f 26/26/26 1/1/1 15/15/15
f 15/15/15 25/25/25 26/26/26
f 27/27/27 1/1/1 26/26/26
f 25/25/25 28/28/28 26/26/26
f 29/29/29 27/27/27 26/26/26
f 26/26/26 28/28/28 29/29/29
f 28/28/28 30/30/30 29/29/29
f 33/33/33 32/32/32 31/31/31
f 34/34/34 33/33/33 31/31/31
f 35/35/35 33/33/33 34/34/34
f 36/36/36 35/35/35 34/34/34
f 31/31/31 37/37/37 34/34/34
f 36/36/36 34/34/34 37/37/37
f 38/38/38 36/36/36 37/37/37
f 37/37/37 31/31/31 39/39/39
f 38/38/38 37/37/37 40/40/40
f 40/40/40 37/37/37 39/39/39
f 41/41/41 38/38/38 40/40/40
f 39/39/39 42/42/42 40/40/40
f 41/41/41 40/40/40 42/42/42
f 43/43/43 41/41/41 42/42/42
f 42/42/42 39/39/39 44/44/44
f 43/43/43 42/42/42 45/45/45
f 45/45/45 42/42/42 44/44/44
f 46/46/46 43/43/43 45/45/45
f 44/44/44 47/47/47 45/45/45
f 46/46/46 45/45/45 47/47/47
f 48/48/48 46/46/46 47/47/47
f 47/47/47 44/44/44 49/49/49
f 48/48/48 47/47/47 50/50/50
f 50/50/50 47/47/47 49/49/49
f 51/51/51 48/48/48 50/50/50
f 49/49/49 52/52/52 50/50/50
f 51/51/51 50/50/50 52/52/52
f 53/53/53 51/51/51 52/52/52
f 52/52/52 49/49/49 54/54/54
f 53/53/53 52/52/52 55/55/55
f 55/55/55 52/52/52 54/54/54
f 56/56/56 53/53/53 55/55/55
f 54/54/54 57/57/57 55/55/55
f 56/56/56 55/55/55 57/57/57
f 57/57/57 54/54/54 58/58/58
f 59/59/59 56/56/56 57/57/57
f 60/60/60 57/57/57 58/58/58
f 59/59/59 57/57/57 60/60/60
f 58/58/58 61/61/61 60/60/60
f 62/62/62 59/59/59 60/60/60
f 60/60/60 61/61/61 63/63/63
f 62/62/62 60/60/60 63/63/63
f 66/66/66 65/65/65 64/64/64
f 67/67/67 66/66/66 64/64/64
f 67/67/67 64/64/64 68/68/68
f 69/69/69 67/67/67 68/68/68
f 69/69/69 68/68/68 70/70/70
f 71/71/71 69/69/69 70/70/70
f 71/71/71 70/70/70 72/72/72
f 73/73/73 71/71/71 72/72/72
f 73/73/73 72/72/72 74/74/74
f 75/75/75 73/73/73 74/74/74
f 75/75/75 74/74/74 76/76/76
f 77/77/77 75/75/75 76/76/76
f 80/80/80 79/79/79 78/78/78
f 81/81/81 80/80/80 78/78/78
f 80/80/80 81/81/81 82/82/82
f 81/81/81 83/83/83 82/82/82
f 84/84/84 83/83/83 81/81/81
f 78/78/78 85/85/85 81/81/81
f 85/85/85 84/84/84 81/81/81
f 86/86/86 84/84/84 85/85/85
f 85/85/85 78/78/78 87/87/87
f 88/88/88 86/86/86 85/85/85
f 88/88/88 85/85/85 87/87/87
f 89/89/89 86/86/86 88/88/88
f 87/87/87 90/90/90 88/88/88
f 90/90/90 89/89/89 88/88/88
f 91/91/91 89/89/89 90/90/90
f 90/90/90 87/87/87 92/92/92
f 93/93/93 91/91/91 90/90/90
f 93/93/93 90/90/90 92/92/92
f 94/94/94 91/91/91 93/93/93
f 95/95/95 94/94/94 93/93/93
f 92/92/92 95/95/95 93/93/93
f 96/96/96 94/94/94 95/95/95
f 97/97/97 96/96/96 95/95/95
f 97/97/97 95/95/95 92/92/92
f 98/98/98 96/96/96 97/97/97
f 92/92/92 99/99/99 97/97/97
f 99/99/99 98/98/98 97/97/97
f 100/100/100 98/98/98 99/99/99
f 92/92/92 101/101/101 99/99/99
f 102/102/102 100/100/100 99/99/99
f 102/102/102 99/99/99 101/101/101
f 103/103/103 100/100/100 102/102/102
f 101/101/101 104/104/104 102/102/102
f 104/104/104 103/103/103 102/102/102
f 105/105/105 103/103/103 104/104/104
f 101/101/101 106/106/106 104/104/104
f 107/107/107 105/105/105 104/104/104
f 107/107/107 104/104/104 106/106/106
f 108/108/108 105/105/105 107/107/107
f 109/109/109 108/108/108 107/107/107
f 106/106/106 109/109/109 107/107/107
f 106/106/106 110/110/110 109/109/109
f 113/113/113 112/112/112 111/111/111
f 112/112/112 114/114/114 111/111/111
f 115/115/115 111/111/111 114/114/114
f 112/112/112 116/116/116 114/114/114
f 117/117/117 115/115/115 114/114/114
f 116/116/116 118/118/118 114/114/114
f 117/117/117 114/114/114 118/118/118
f 116/116/116 119/119/119 118/118/118
f 120/120/120 117/117/117 118/118/118
f 119/119/119 121/121/121 118/118/118
f 120/120/120 118/118/118 121/121/121
f 119/119/119 122/122/122 121/121/121
f 123/123/123 120/120/120 121/121/121
f 122/122/122 124/124/124 121/121/121
f 123/123/123 121/121/121 124/124/124
f 122/122/122 125/125/125 124/124/124
f 126/126/126 123/123/123 124/124/124
f 125/125/125 127/127/127 124/124/124
f 126/126/126 124/124/124 127/127/127
f 125/125/125 128/128/128 127/127/127
f 129/129/129 126/126/126 127/127/127
f 128/128/128 130/130/130 127/127/127
f 129/129/129 127/127/127 130/130/130
f 131/131/131 129/129/129 130/130/130
f 134/134/134 133/133/133 132/132/132
f 135/135/135 134/134/134 132/132/132
f 136/136/136 134/134/134 135/135/135
f 137/137/137 136/136/136 135/135/135
f 138/138/138 136/136/136 137/137/137
f 139/139/139 138/138/138 137/137/137
f 140/140/140 138/138/138 139/139/139
f 141/141/141 140/140/140 139/139/139
f 142/142/142 140/140/140 141/141/141
f 143/143/143 142/142/142 141/141/141
f 144/144/144 142/142/142 143/143/143
f 145/145/145 144/144/144 143/143/143
f 146/146/146 144/144/144 145/145/145
f 147/147/147 146/146/146 145/145/145
f 148/148/148 146/146/146 147/147/147
f 149/149/149 148/148/148 147/147/147
f 152/152/152 151/151/151 150/150/150
f 153/153/153 152/152/152 150/150/150
f 154/154/154 152/152/152 153/153/153
f 155/155/155 154/154/154 153/153/153
f 156/156/156 154/154/154 155/155/155
f 157/157/157 156/156/156 155/155/155
f 158/158/158 156/156/156 157/157/157
f 159/159/159 158/158/158 157/157/157
f 160/160/160 158/158/158 159/159/159
f 161/161/161 160/160/160 159/159/159
f 162/162/162 160/160/160 161/161/161
f 163/163/163 162/162/162 161/161/161
f 166/166/166 165/165/165 164/164/164
f 167/167/167 166/166/166 164/164/164
f 168/168/168 166/166/166 167/167/167
f 169/169/169 168/168/168 167/167/167
f 170/170/170 168/168/168 169/169/169
f 171/171/171 170/170/170 169/169/169
f 174/174/174 173/173/173 172/172/172
f 173/173/173 175/175/175 172/172/172
f 172/172/172 175/175/175 176/176/176
f 175/175/175 177/177/177 176/176/176
f 176/176/176 177/177/177 178/178/178
f 177/177/177 179/179/179 178/178/178
f 182/182/182 181/181/181 180/180/180
f 183/183/183 182/182/182 180/180/180
f 184/184/184 182/182/182 183/183/183
f 185/185/185 184/184/184 183/183/183
f 186/186/186 184/184/184 185/185/185
f 187/187/187 186/186/186 185/185/185
f 188/188/188 186/186/186 187/187/187
f 189/189/189 188/188/188 187/187/187
f 190/190/190 188/188/188 189/189/189
f 191/191/191 190/190/190 189/189/189
f 192/192/192 190/190/190 191/191/191
f 193/193/193 192/192/192 191/191/191
f 194/194/194 192/192/192 193/193/193
f 195/195/195 194/194/194 193/193/193
f 196/196/196 194/194/194 195/195/195
f 197/197/197 196/196/196 195/195/195
