g Tombstone
v 0.892139 0.2642612 0.3185438
v 0.6828136 0.5775388 0.3185438
v 0.8029039 0.4312083 0.3185438
v 0.3695361 0.7868642 0.3185438
v 0.5364832 0.6976291 0.3185438
v 0.9656443 -2.024407 0.318544
v 0.9656443 -0.1052748 0.3185438
v 0.9470897 0.0831131 0.3185438
v -0.8921391 0.264261 0.3185438
v -0.3695359 0.7868642 0.3185438
v 7.290412E-08 0.8603694 0.3185438
v 0.1883879 0.8418147 0.3185438
v -0.1883878 0.841815 0.3185438
v -0.6828136 0.5775388 0.3185438
v -0.5364832 0.6976291 0.3185438
v -0.802904 0.4312083 0.3185438
v -0.9656443 -0.1052753 0.3185438
v -0.9470899 0.08311264 0.3185438
v -0.9656443 -2.024407 0.318544
v -0.9656443 -2.024407 2.57492E-07
v 0.9656443 -2.024407 2.57492E-07
v -0.9656443 -0.1052753 3.814697E-08
v -0.8921391 0.264261 3.814697E-08
v -0.9470899 0.08311287 3.814697E-08
v 0.892139 0.2642612 3.814697E-08
v 0.9470897 0.0831131 3.814697E-08
v 0.9656443 -0.1052748 3.814697E-08
v -0.3695359 0.7868642 3.814697E-08
v -0.6828136 0.5775388 4.768371E-08
v -0.802904 0.4312083 3.814697E-08
v -0.5364832 0.6976291 4.768371E-08
v 0.3695361 0.7868642 3.814697E-08
v 7.290412E-08 0.8603694 5.722046E-08
v -0.1883878 0.841815 1.907349E-08
v 0.1883879 0.8418147 1.907349E-08
v 0.6828136 0.5775388 4.768371E-08
v 0.5364832 0.6976291 4.768371E-08
v 0.8029039 0.4312083 3.814697E-08
v 0.9656443 -2.024407 2.57492E-07
v 0.9656443 -0.1052748 0.3185438
v 0.9656443 -0.1052748 3.814697E-08
v 0.9656443 -2.024407 0.318544
v 0.9470897 0.0831131 0.3185438
v 0.9656443 -0.1052748 3.814697E-08
v 0.9656443 -0.1052748 0.3185438
v 0.9470897 0.0831131 3.814697E-08
v 0.892139 0.2642612 0.3185438
v 0.892139 0.2642612 3.814697E-08
v 0.8029039 0.4312083 0.3185438
v 0.8029039 0.4312083 3.814697E-08
v 0.6828136 0.5775388 0.3185438
v 0.6828136 0.5775388 4.768371E-08
v 0.5364832 0.6976291 0.3185438
v 0.5364832 0.6976291 4.768371E-08
v 0.3695361 0.7868642 0.3185438
v 0.3695361 0.7868642 3.814697E-08
v 0.1883879 0.8418147 0.3185438
v 0.1883879 0.8418147 1.907349E-08
v 7.290412E-08 0.8603694 0.3185438
v 7.290412E-08 0.8603694 5.722046E-08
v -0.1883878 0.841815 0.3185438
v -0.1883878 0.841815 1.907349E-08
v -0.3695359 0.7868642 0.3185438
v -0.3695359 0.7868642 3.814697E-08
v -0.5364832 0.6976291 0.3185438
v -0.5364832 0.6976291 4.768371E-08
v -0.6828136 0.5775388 0.3185438
v -0.6828136 0.5775388 4.768371E-08
v -0.802904 0.4312083 0.3185438
v -0.802904 0.4312083 3.814697E-08
v -0.8921391 0.264261 0.3185438
v -0.8921391 0.264261 3.814697E-08
v -0.9470899 0.08311264 0.3185438
v -0.9470899 0.08311287 3.814697E-08
v -0.9656443 -0.1052753 0.3185438
v -0.9656443 -0.1052753 3.814697E-08
v -0.9656443 -0.1052753 3.814697E-08
v -0.9656443 -2.024407 0.318544
v -0.9656443 -2.024407 2.57492E-07
v -0.9656443 -0.1052753 0.3185438
vt 0.3081055 0.9013672
vt 0.2739258 0.953125
vt 0.2937012 0.9287109
vt 0.2226563 0.987793
vt 0.25 0.9726563
vt 0.3188477 0.5253906
vt 0.3200684 0.8408203
vt 0.3171387 0.871582
vt 0.01513672 0.902832
vt 0.1013184 0.9882813
vt 0.1619873 1
vt 0.1929932 0.996582
vt 0.1311035 0.9970703
vt 0.04971313 0.9541016
vt 0.07385254 0.9736328
vt 0.02990723 0.9301758
vt 0.002826691 0.8417969
vt 0.005996704 0.8730469
vt 0.001566887 0.5268555
vt 0.001358032 0.4743652
vt 0.3186035 0.4731445
vt 9.912252E-05 0.1593018
vt 0.01192474 0.09857178
vt 0.003023148 0.128418
vt 0.3049316 0.09741211
vt 0.314209 0.1270752
vt 0.3200684 0.1580811
vt 0.09741211 0.01241302
vt 0.04611206 0.04699707
vt 0.026474 0.07110596
vt 0.07006836 0.0271759
vt 0.21875 0.01192474
vt 0.1580811 9.912252E-05
vt 0.1270752 0.003269196
vt 0.1889648 0.003023148
vt 0.2702637 0.04611206
vt 0.2462158 0.026474
vt 0.2902832 0.07006836
vt 0.425293 0.3154297
vt 0.4775391 9.912252E-05
vt 0.425293 9.912252E-05
vt 0.4775391 0.3154297
vt 0.3725586 0.4667969
vt 0.3200684 0.4978027
vt 0.3725586 0.4978027
vt 0.3200684 0.4667969
vt 0.3725586 0.435791
vt 0.3200684 0.435791
vt 0.3725586 0.404541
vt 0.3200684 0.404541
vt 0.3725586 0.3735352
vt 0.3200684 0.3735352
vt 0.3725586 0.3422852
vt 0.3200684 0.3422852
vt 0.3725586 0.3112793
vt 0.3200684 0.3112793
vt 0.3725586 0.2800293
vt 0.3200684 0.2800293
vt 0.3725586 0.2490234
vt 0.3200684 0.2490234
vt 0.3725586 0.2178955
vt 0.3200684 0.2178955
vt 0.3725586 0.1867676
vt 0.3200684 0.1867676
vt 0.3725586 0.1556396
vt 0.3200684 0.1556396
vt 0.3725586 0.1245728
vt 0.3200684 0.1245728
vt 0.3725586 0.09344482
vt 0.3200684 0.09344482
vt 0.3725586 0.06231689
vt 0.3200684 0.06231689
vt 0.3725586 0.03120422
vt 0.3200684 0.03120422
vt 0.3725586 9.912252E-05
vt 0.3200684 9.912252E-05
vt 0.3728027 0.3154297
vt 0.4250488 9.912252E-05
vt 0.3728027 9.912252E-05
vt 0.4250488 0.3154297
vn 0.1222534 0.04598999 0.9912109
vn 0.6826172 0.6391602 0.3544922
vn 0.8486328 0.527832 0.03878784
vn 0.01345062 0.02967834 0.9995117
vn 0.5820313 0.8120117 0.03878784
vn 0.06228638 -0.1253662 0.9902344
vn 0.9931641 0.004577637 0.1146851
vn 0.9858398 0.1627197 0.03878784
vn -0.03173828 0.01438141 0.9995117
vn -0.1174927 0.3122559 0.9428711
vn 0.03068542 0.9345703 0.3544922
vn 0.2270508 0.9731445 0.03878784
vn -0.1627197 0.9858398 0.03878784
vn -0.6391602 0.6826172 0.3544922
vn -0.527832 0.8486328 0.03878784
vn -0.8120117 0.5820313 0.03878784
vn -0.1580811 0.002555847 0.9873047
vn -0.9731445 0.2270508 0.03878784
vn -0.3095703 -0.1557617 0.9379883
vn -0.1546631 -0.3112793 -0.9375
vn 0.1374512 -0.06915283 -0.9882813
vn -0.2702637 0.001245499 -0.9628906
vn -0.02836609 0.01067352 -0.9995117
vn -0.9858398 0.1627197 -0.03878784
vn 0.02940369 0.01332855 -0.9995117
vn 0.7524414 0.1755371 -0.6347656
vn 0.9985352 0.0161438 -0.0486145
vn -0.05117798 0.1129761 -0.9921875
vn -0.6826172 0.6391602 -0.3544922
vn -0.8486328 0.527832 -0.03878784
vn -0.5820313 0.8120117 -0.03878784
vn 0.1174927 0.3122559 -0.9428711
vn -0.03068542 0.9345703 -0.3544922
vn -0.2270508 0.9731445 -0.03878784
vn 0.1627197 0.9858398 -0.03878784
vn 0.6391602 0.6826172 -0.3544922
vn 0.527832 0.8486328 -0.03878784
vn 0.8120117 0.5820313 -0.03878784
vn 0.1374512 -0.06915283 -0.9882813
vn 0.9931641 0.004577637 0.1146851
vn 0.9985352 0.0161438 -0.0486145
vn 0.06228638 -0.1253662 0.9902344
vn 0.9858398 0.1627197 0.03878784
vn 0.9985352 0.0161438 -0.0486145
vn 0.9931641 0.004577637 0.1146851
vn 0.7524414 0.1755371 -0.6347656
vn 0.1222534 0.04598999 0.9912109
vn 0.02940369 0.01332855 -0.9995117
vn 0.8486328 0.527832 0.03878784
vn 0.8120117 0.5820313 -0.03878784
vn 0.6826172 0.6391602 0.3544922
vn 0.6391602 0.6826172 -0.3544922
vn 0.5820313 0.8120117 0.03878784
vn 0.527832 0.8486328 -0.03878784
vn 0.01345062 0.02967834 0.9995117
vn 0.1174927 0.3122559 -0.9428711
vn 0.2270508 0.9731445 0.03878784
vn 0.1627197 0.9858398 -0.03878784
vn 0.03068542 0.9345703 0.3544922
vn -0.03068542 0.9345703 -0.3544922
vn -0.1627197 0.9858398 0.03878784
vn -0.2270508 0.9731445 -0.03878784
vn -0.1174927 0.3122559 0.9428711
vn -0.05117798 0.1129761 -0.9921875
vn -0.527832 0.8486328 0.03878784
vn -0.5820313 0.8120117 -0.03878784
vn -0.6391602 0.6826172 0.3544922
vn -0.6826172 0.6391602 -0.3544922
vn -0.8120117 0.5820313 0.03878784
vn -0.8486328 0.527832 -0.03878784
vn -0.03173828 0.01438141 0.9995117
vn -0.02836609 0.01067352 -0.9995117
vn -0.9731445 0.2270508 0.03878784
vn -0.9858398 0.1627197 -0.03878784
vn -0.1580811 0.002555847 0.9873047
vn -0.2702637 0.001245499 -0.9628906
vn -0.2702637 0.001245499 -0.9628906
vn -0.3095703 -0.1557617 0.9379883
vn -0.1546631 -0.3112793 -0.9375
vn -0.1580811 0.002555847 0.9873047
g Tombstone_0
f 3/3/3 2/2/2 1/1/1
f 2/2/2 4/4/4 1/1/1
f 5/5/5 4/4/4 2/2/2
f 4/4/4 6/6/6 1/1/1
f 6/6/6 7/7/7 1/1/1
f 1/1/1 7/7/7 8/8/8
f 9/9/9 6/6/6 4/4/4
f 10/10/10 9/9/9 4/4/4
f 11/11/11 10/10/10 4/4/4
f 12/12/12 11/11/11 4/4/4
f 13/13/13 10/10/10 11/11/11
f 14/14/14 9/9/9 10/10/10
f 15/15/15 14/14/14 10/10/10
f 16/16/16 9/9/9 14/14/14
f 17/17/17 6/6/6 9/9/9
f 18/18/18 17/17/17 9/9/9
f 19/19/19 6/6/6 17/17/17
f 19/19/19 20/20/20 6/6/6
f 21/21/21 6/6/6 20/20/20
f 20/20/20 22/22/22 21/21/21
f 22/22/22 23/23/23 21/21/21
f 24/24/24 23/23/23 22/22/22
f 23/23/23 25/25/25 21/21/21
f 25/25/25 26/26/26 21/21/21
f 21/21/21 26/26/26 27/27/27
f 28/28/28 25/25/25 23/23/23
f 29/29/29 28/28/28 23/23/23
f 30/30/30 29/29/29 23/23/23
f 31/31/31 28/28/28 29/29/29
f 32/32/32 25/25/25 28/28/28
f 33/33/33 32/32/32 28/28/28
f 34/34/34 33/33/33 28/28/28
f 35/35/35 32/32/32 33/33/33
f 36/36/36 25/25/25 32/32/32
f 37/37/37 36/36/36 32/32/32
f 38/38/38 25/25/25 36/36/36
f 41/41/41 40/40/40 39/39/39
f 42/42/42 39/39/39 40/40/40
f 45/45/45 44/44/44 43/43/43
f 46/46/46 43/43/43 44/44/44
f 43/43/43 46/46/46 47/47/47
f 48/48/48 47/47/47 46/46/46
f 47/47/47 48/48/48 49/49/49
f 50/50/50 49/49/49 48/48/48
f 49/49/49 50/50/50 51/51/51
f 52/52/52 51/51/51 50/50/50
f 51/51/51 52/52/52 53/53/53
f 54/54/54 53/53/53 52/52/52
f 53/53/53 54/54/54 55/55/55
f 56/56/56 55/55/55 54/54/54
f 55/55/55 56/56/56 57/57/57
f 58/58/58 57/57/57 56/56/56
f 57/57/57 58/58/58 59/59/59
f 60/60/60 59/59/59 58/58/58
f 59/59/59 60/60/60 61/61/61
f 62/62/62 61/61/61 60/60/60
f 61/61/61 62/62/62 63/63/63
f 64/64/64 63/63/63 62/62/62
f 63/63/63 64/64/64 65/65/65
f 66/66/66 65/65/65 64/64/64
f 65/65/65 66/66/66 67/67/67
f 68/68/68 67/67/67 66/66/66
f 67/67/67 68/68/68 69/69/69
f 70/70/70 69/69/69 68/68/68
f 69/69/69 70/70/70 71/71/71
f 72/72/72 71/71/71 70/70/70
f 71/71/71 72/72/72 73/73/73
f 74/74/74 73/73/73 72/72/72
f 73/73/73 74/74/74 75/75/75
f 76/76/76 75/75/75 74/74/74
f 79/79/79 78/78/78 77/77/77
f 80/80/80 77/77/77 78/78/78
