g Tooth3Low02
v 0.4092455 0.1188487 0.9486897
v 0.820641 0.5016445 1.117688
v 1.070438 0.09014901 0.6405929
v 0.07414915 0.7648417 1.000489
v -0.1088488 0.0007499903 0.6427929
v 0.727042 0.9328398 1.042489
v 1.066938 0.4245453 0.9017901
v 1.070438 0.09014901 0.6405929
v 1.093938 0.7681416 0.6522928
v 0.3728459 1.137738 0.07429919
v 1.188537 0.08704904 0.1802981
v 1.042639 0.5869436 -0.1931979
v 0.640143 0.1724481 -0.8644905
v 0.9900392 -0.2331474 0.9811894
v 0.4092455 0.1188487 0.9486897
v 0.4981445 0.7693416 -0.8441907
v 0.5180443 -0.4739448 1.144688
v -0.1088488 0.0007499903 0.6427929
v -0.3039467 -0.3492462 0.9477897
v 0.5049444 -1.038539 1.074288
v -0.3180465 -1.068438 0.6745926
v -0.06184936 -1.232936 0.1359985
v 1.157437 -0.632843 0.5757937
v 0.5833436 -1.222537 0.6081934
v 0.2381473 -0.9874392 -0.3509961
v 0.9734393 -0.2020478 -0.9183899
v 0.8665405 -0.6469429 -0.9399897
v 0.5793436 -0.8967402 -0.7541918
v 0.456145 -0.6478429 -1.170387
v 0.1513483 -0.367246 -1.217287
v -0.05204947 -0.186748 -1.019489
v 0.1513483 -0.367246 -1.217287
v -0.05204947 -0.186748 -1.019489
v 0.178648 0.09314898 -1.065688
v -0.05204947 -0.186748 -1.019489
v -0.09004905 0.1039489 -1.244186
v -0.07744917 0.7129422 -0.7274921
v -0.6680427 0.7425418 -0.7689915
v -0.5262443 1.232936 0.5238943
v -0.3288464 1.003939 1.197287
v -0.9579396 0.9696394 0.8123913
v -1.188537 0.08094911 0.05199942
v -0.7990413 0.272247 -0.7209921
v -0.09004905 0.1039489 -1.244186
v -0.5317442 -0.07334919 -0.8856903
v -0.05204947 -0.186748 -1.019489
v -0.2602472 0.4962446 1.244186
v -0.1088488 0.0007499903 0.6427929
v -0.9079401 0.4280453 1.118788
v -0.3986457 0.04334953 0.833391
v -0.1088488 0.0007499903 0.6427929
v -0.91004 0.091149 0.7816914
v -1.153937 0.2869469 0.5099944
v -0.7149422 -0.5741437 -0.9423897
v -0.2961468 -0.2960468 -1.192687
v -0.05204947 -0.186748 -1.019489
v -1.160237 -0.6840425 0.8112912
v -0.8921402 -0.4907447 1.105588
v -0.91004 0.091149 0.7816914
v -0.3986457 0.04334953 0.833391
v -0.3039467 -0.3492462 0.9477897
v -0.1088488 0.0007499903 0.6427929
v -0.641243 -0.9768394 0.9726893
v -0.3180465 -1.068438 0.6745926
v -0.8617406 -1.055238 0.6482929
v -0.06184936 -1.232936 0.1359985
v -0.731142 -0.8563406 -0.7032923
v -0.2525473 -0.8765404 -0.7651916
v 0.2381473 -0.9874392 -0.3509961
v -0.2961468 -0.2960468 -1.192687
v -0.05204947 -0.186748 -1.019489
vt 0.2702381 0.6083252
vt 0.3310162 0.6246889
vt 0.3250445 0.5851263
vt 0.2274135 0.6595154
vt 0.2323872 0.5784776
vt 0.2843139 0.6609414
vt 0.3312179 0.6545333
vt 0.3921351 0.6597666
vt 0.3218654 0.6799942
vt 0.2776854 0.7328942
vt 0.3871204 0.70271
vt 0.3458071 0.7372462
vt 0.3696054 0.8045403
vt 0.4495618 0.6513255
vt 0.4635501 0.5983931
vt 0.3201928 0.7969497
vt 0.4901736 0.6401184
vt 0.5096201 0.5823805
vt 0.5516511 0.6070333
vt 0.506831 0.6730451
vt 0.5516708 0.6709849
vt 0.5517014 0.7312976
vt 0.4541304 0.6940413
vt 0.499706 0.7167026
vt 0.5516402 0.7936826
vt 0.4103461 0.7959167
vt 0.4444547 0.8060314
vt 0.4756694 0.8029997
vt 0.4511501 0.8428869
vt 0.4969543 0.8621164
vt 0.5514796 0.8557102
vt 0.4190552 0.8618017
vt 0.3927799 0.8713544
vt 0.3478507 0.8459794
vt 0.3626861 0.8701212
vt 0.3342877 0.8689806
vt 0.2839596 0.819456
vt 0.2420688 0.8473619
vt 0.2107025 0.7385221
vt 0.1989441 0.6816981
vt 0.1709797 0.7340044
vt 0.1465043 0.8143957
vt 0.2034451 0.8643764
vt 0.2370425 0.9277894
vt 0.1951349 0.9047363
vt 0.2138229 0.9439953
vt 0.1749654 0.6599013
vt 0.185519 0.5962579
vt 0.1433969 0.7097058
vt 0.1165731 0.6714323
vt 0.1024846 0.6462868
vt 0.1149719 0.7245932
vt 0.1324991 0.7706285
vt 0.1546317 0.9278294
vt 0.1897373 0.9418368
vt 0.2141459 0.9474662
vt 0.07326401 0.813769
vt 0.0525718 0.7931049
vt 0.08898512 0.7647671
vt 0.02910556 0.7534673
vt 0.009169256 0.7880947
vt 0.009033894 0.7491367
vt 0.03881987 0.8326134
vt 0.00948604 0.8592715
vt 0.06525787 0.8578324
vt 0.009396991 0.9085889
vt 0.1275451 0.9178903
vt 0.1060127 0.9462785
vt 0.009424245 0.9557179
vt 0.1468486 0.9836159
vt 0.0954571 0.9941689
vn -0.1828356 -0.05064902 0.981838
vn 0.3182319 -0.1320067 0.9387773
vn 0.8918971 -0.01468826 0.4519999
vn 0.3135438 0.3397471 0.8867143
vn 0.08947186 0.02693975 0.995625
vn 0.2398659 0.7052497 0.6671485
vn 0.8233222 -0.1380395 0.5505321
vn 0.8918971 -0.01468826 0.4519999
vn 0.8374944 0.5279419 0.140998
vn 0.2303382 0.9642529 -0.1309981
vn 0.9965838 0.0471442 -0.06780846
vn 0.8483014 0.3939193 -0.3538536
vn 0.5550463 0.2898756 -0.7796766
vn 0.6438381 0.1759342 0.7446607
vn -0.1828356 -0.05064902 0.981838
vn 0.3078169 0.6236474 -0.718549
vn 0.02016212 0.08572177 0.9961151
vn 0.08947186 0.02693975 0.995625
vn 0.1122279 0.1847151 0.9763633
vn 0.1567938 -0.6115019 0.7755522
vn -0.01776586 -0.8423648 0.5386148
vn -0.03443054 -0.9931911 -0.1112922
vn 0.9096455 -0.3637399 0.2005949
vn 0.3261882 -0.9342429 0.1441923
vn 0.03080963 -0.9147379 -0.4028713
vn 0.7532256 0.2151028 -0.6215962
vn 0.6950964 -0.4705286 -0.5435474
vn 0.1706634 -0.9108588 -0.3757794
vn -0.001648746 -0.4695643 -0.8828967
vn -0.3848932 -0.07187021 -0.9201587
vn -0.0002450168 -0.242266 -0.9702098
vn -0.3848932 -0.07187021 -0.9201587
vn -0.0002450168 -0.242266 -0.9702098
vn 0.41608 -0.06450127 -0.9070374
vn -0.0002450168 -0.242266 -0.9702098
vn 0.05288474 -0.01908569 -0.9984182
vn -0.03263704 0.7713259 -0.635603
vn -0.47369 0.6309775 -0.6143982
vn -0.2119576 0.9772761 0.002305574
vn 0.08746819 0.6104644 0.7871992
vn -0.7425371 0.6024579 0.2927167
vn -0.9731512 0.04969957 -0.2247372
vn -0.7961379 -0.04711893 -0.6032779
vn 0.05288474 -0.01908569 -0.9984182
vn -0.6510668 0.09554754 -0.7529825
vn -0.0002450168 -0.242266 -0.9702098
vn 0.2801518 -0.2979014 0.9125621
vn 0.08947186 0.02693975 0.995625
vn -0.5776985 -0.2014292 0.7910062
vn 0.2343374 -0.2118661 0.948788
vn 0.08947186 0.02693975 0.995625
vn -0.5103467 -0.02502703 0.8596045
vn -0.9707153 0.1348593 0.1988086
vn -0.6233011 -0.2322997 -0.746681
vn 0.07024395 0.1075227 -0.9917181
vn -0.0002450168 -0.242266 -0.9702098
vn -0.8959424 -0.3501715 0.2732531
vn -0.3078596 0.03329489 0.9508491
vn -0.5103467 -0.02502703 0.8596045
vn 0.2343374 -0.2118661 0.948788
vn 0.1122279 0.1847151 0.9763633
vn 0.08947186 0.02693975 0.995625
vn 0.04167188 -0.6397094 0.7674865
vn -0.01776586 -0.8423648 0.5386148
vn -0.5544981 -0.825541 0.1049465
vn -0.03443054 -0.9931911 -0.1112922
vn -0.5776463 -0.6782001 -0.454279
vn 0.1768285 -0.7329506 -0.6568981
vn 0.03080963 -0.9147379 -0.4028713
vn 0.07024395 0.1075227 -0.9917181
vn -0.0002450168 -0.242266 -0.9702098
g Tooth3Low02_0
f 3/3/3 2/2/2 1/1/1
f 1/1/1 2/2/2 4/4/4
f 5/5/5 1/1/1 4/4/4
f 4/4/4 2/2/2 6/6/6
f 6/6/6 2/2/2 7/7/7
f 7/7/7 2/2/2 8/8/8
f 6/6/6 7/7/7 9/9/9
f 8/8/8 9/9/9 7/7/7
f 4/4/4 6/6/6 10/10/10
f 9/9/9 10/10/10 6/6/6
f 8/8/8 11/11/11 9/9/9
f 9/9/9 12/12/12 10/10/10
f 11/11/11 12/12/12 9/9/9
f 13/13/13 12/12/12 11/11/11
f 8/8/8 14/14/14 11/11/11
f 15/15/15 14/14/14 8/8/8
f 10/10/10 12/12/12 16/16/16
f 16/16/16 12/12/12 13/13/13
f 17/17/17 14/14/14 15/15/15
f 17/17/17 15/15/15 18/18/18
f 17/17/17 18/18/18 19/19/19
f 20/20/20 17/17/17 19/19/19
f 17/17/17 20/20/20 14/14/14
f 21/21/21 20/20/20 19/19/19
f 21/21/21 22/22/22 20/20/20
f 11/11/11 14/14/14 23/23/23
f 23/23/23 14/14/14 20/20/20
f 22/22/22 24/24/24 20/20/20
f 24/24/24 23/23/23 20/20/20
f 25/25/25 24/24/24 22/22/22
f 23/23/23 26/26/26 11/11/11
f 26/26/26 13/13/13 11/11/11
f 27/27/27 23/23/23 24/24/24
f 26/26/26 23/23/23 27/27/27
f 24/24/24 28/28/28 27/27/27
f 25/25/25 28/28/28 24/24/24
f 27/27/27 29/29/29 26/26/26
f 27/27/27 28/28/28 29/29/29
f 29/29/29 28/28/28 25/25/25
f 26/26/26 29/29/29 13/13/13
f 25/25/25 30/30/30 29/29/29
f 31/31/31 30/30/30 25/25/25
f 29/29/29 32/32/32 13/13/13
f 13/13/13 32/32/32 33/33/33
f 13/13/13 35/35/35 34/34/34
f 34/34/34 35/35/35 36/36/36
f 13/13/13 34/34/34 16/16/16
f 37/37/37 34/34/34 36/36/36
f 37/37/37 16/16/16 34/34/34
f 36/36/36 38/38/38 37/37/37
f 39/39/39 16/16/16 37/37/37
f 37/37/37 38/38/38 39/39/39
f 10/10/10 16/16/16 39/39/39
f 39/39/39 40/40/40 10/10/10
f 40/40/40 4/4/4 10/10/10
f 38/38/38 41/41/41 39/39/39
f 40/40/40 39/39/39 41/41/41
f 41/41/41 38/38/38 42/42/42
f 38/38/38 43/43/43 42/42/42
f 38/38/38 44/44/44 43/43/43
f 43/43/43 44/44/44 45/45/45
f 42/42/42 43/43/43 45/45/45
f 45/45/45 44/44/44 46/46/46
f 40/40/40 47/47/47 4/4/4
f 47/47/47 48/48/48 4/4/4
f 41/41/41 49/49/49 40/40/40
f 49/49/49 47/47/47 40/40/40
f 47/47/47 49/49/49 50/50/50
f 51/51/51 47/47/47 50/50/50
f 49/49/49 52/52/52 50/50/50
f 49/49/49 53/53/53 52/52/52
f 53/53/53 49/49/49 41/41/41
f 41/41/41 42/42/42 53/53/53
f 45/45/45 54/54/54 42/42/42
f 45/45/45 55/55/55 54/54/54
f 45/45/45 56/56/56 55/55/55
f 53/53/53 42/42/42 57/57/57
f 57/57/57 58/58/58 53/53/53
f 53/53/53 58/58/58 59/59/59
f 59/59/59 58/58/58 60/60/60
f 58/58/58 61/61/61 60/60/60
f 62/62/62 60/60/60 61/61/61
f 61/61/61 58/58/58 63/63/63
f 57/57/57 63/63/63 58/58/58
f 61/61/61 63/63/63 64/64/64
f 57/57/57 65/65/65 63/63/63
f 64/64/64 63/63/63 65/65/65
f 65/65/65 57/57/57 42/42/42
f 65/65/65 66/66/66 64/64/64
f 65/65/65 42/42/42 67/67/67
f 65/65/65 67/67/67 66/66/66
f 67/67/67 42/42/42 54/54/54
f 66/66/66 67/67/67 68/68/68
f 67/67/67 54/54/54 68/68/68
f 66/66/66 68/68/68 69/69/69
f 54/54/54 70/70/70 68/68/68
f 68/68/68 71/71/71 69/69/69
f 70/70/70 71/71/71 68/68/68
