g Top-Crystal
v 0.001390247 0.001605324 -0.001309857
v 0.001075557 0.001615701 -0.00129212
v 0.001164328 0.001022094 -0.0007208477
v 0.001622991 0.001173687 -0.0005382615
v 0.002089192 0.001671874 -0.0006390844
v 0.002020807 0.001195085 0.0001333759
v 0.002086024 0.001345953 0.0001359929
v 0.001951506 0.00125914 0.0003578294
v 0.002082977 0.002101857 9.628579E-05
v 0.001841818 0.002392708 0.000162449
v 0.001365323 0.002416838 -0.0004904169
v 0.001407843 0.001717841 -0.001314499
v 0.001092809 0.001748177 -0.00129491
v 0.001075557 0.001615701 -0.00129212
v 0.0008901273 0.003076556 0.0002683979
v 0.0012103 0.003140947 0.0003980726
v 0.001162708 0.00314492 0.0005127621
v 0.0008374855 0.003079588 0.0003980383
v 0.0004398538 0.002547457 0.0009353014
v 0.0005899294 0.002402238 0.001313668
v -0.0001875923 0.001722945 0.001622742
v 0.001487931 0.003082217 0.0006274858
v 0.001530473 0.003077303 0.0005277472
v 0.0014177 0.002409237 0.001175578
v 0.00196957 0.002639297 0.000781228
v 0.002124271 0.002244784 0.0008504853
v 0.001951506 0.00125914 0.0003578294
v 0.001594562 0.001289962 0.001117323
v 0.002125379 0.001273893 0.0008508135
v 0.00160262 -1.227075E-11 0.001114578
v 0.002126833 -3.97882E-11 0.000851244
v 0.001949993 -4.884891E-11 0.0003566262
v 0.001951506 -0.00125914 0.0003578295
v 0.002125379 -0.001273893 0.0008508136
v 0.001594562 -0.001289962 0.001117323
v 0.00212427 -0.002244784 0.0008504855
v 0.001841817 -0.002392708 0.0001624492
v 0.001417699 -0.002409237 0.001175578
v 0.001969569 -0.002639297 0.0007812281
v 0.001530472 -0.003077303 0.0005277474
v 0.001487931 -0.003082217 0.0006274859
v 0.0012103 -0.003140947 0.0003980728
v 0.001162708 -0.00314492 0.0005127623
v 0.001365323 -0.002416838 -0.0004904167
v 0.0008901271 -0.003076556 0.0002683981
v 0.0008374853 -0.003079588 0.0003980385
v 0.001092809 -0.001748177 -0.00129491
v 0.0004398536 -0.002547457 0.0009353015
v 0.001407843 -0.001717841 -0.001314499
v 0.0005899293 -0.002402238 0.001313668
v -0.0001875924 -0.001722945 0.001622742
v -5.510628E-05 -0.00171393 0.001843157
v 0.0009320369 -0.001726575 0.001920145
v 0.001515584 -0.002050829 0.00147414
v 0.001594562 -0.001289962 0.001117323
v 0.002082977 -0.002101857 9.628593E-05
v 0.001951506 -0.00125914 0.0003578295
v 0.002089192 -0.001671874 -0.0006390844
v 0.002086024 -0.001345953 0.0001359929
v 0.002020807 -0.001195085 0.000133376
v 0.001622991 -0.001173688 -0.0005382614
v 0.001390247 -0.001605324 -0.001309856
v 0.001092809 -0.001748177 -0.00129491
v 0.001164328 -0.001022095 -0.0007208477
v 0.001075557 -0.001615701 -0.00129212
v 0.001528471 -0.001299993 0.001431397
v 0.001508559 -0.001202172 0.001322275
v 0.000744105 -0.001166473 0.001523698
v 0.0009537122 -0.001656224 0.001930245
v -6.936777E-05 -0.001620086 0.001837898
v 0.0002862611 -0.0009974898 0.00132974
v -5.510628E-05 -0.00171393 0.001843157
v -0.0001894959 -0.001606593 0.001629813
v -0.0001875924 -0.001722945 0.001622742
v -6.93677E-05 0.001620086 0.001837897
v 0.0002862611 0.0009974899 0.00132974
v -0.0001894959 0.001606593 0.001629813
v 0.0007441051 0.001166473 0.001523698
v 0.0009537124 0.001656224 0.001930245
v 0.001528471 0.001299993 0.001431397
v 0.001508559 0.001202172 0.001322275
v 0.001594562 0.001289962 0.001117323
v 0.001515584 0.002050829 0.00147414
v 0.0009320371 0.001726575 0.001920145
v -6.93677E-05 0.001620086 0.001837897
v -5.510617E-05 0.001713931 0.001843157
v -0.0001894959 0.001606593 0.001629813
v -0.0004404416 9.470521E-11 0.00213692
v -0.0004391853 -5.858986E-05 0.002117624
v 0.0002862611 -0.0009974898 0.00132974
v 0.0009615081 -9.721102E-12 0.0004473067
v -0.0004404416 9.470521E-11 0.00213692
v 0.0002862611 0.0009974899 0.00132974
v -0.0004391853 5.859005E-05 0.002117624
v 0.001280943 -9.343098E-11 -0.001842373
v 0.001279268 -7.18694E-05 -0.00180616
v 0.001650871 -6.174291E-05 -0.001861149
v 0.001651376 -1.086127E-10 -0.001892851
v 0.001650871 6.174269E-05 -0.001861149
v 0.001279268 7.186922E-05 -0.00180616
v 0.001164328 0.001022094 -0.0007208477
v 0.001622991 0.001173687 -0.0005382615
v 0.002699683 -1.143724E-10 -0.000852364
v 0.002696235 2.720461E-05 -0.0008492775
v 0.002617046 0.0005745774 0.0001323171
v 0.002020807 0.001195085 0.0001333759
v 0.001951506 0.00125914 0.0003578294
v 0.001949993 -4.884891E-11 0.0003566262
v 0.00262676 -8.10845E-11 0.0001212989
v 0.00240964 -7.059409E-11 0.0002015225
v 0.002617046 -0.0005745775 0.0001323171
v 0.001951506 -0.00125914 0.0003578295
v 0.002020807 -0.001195085 0.000133376
v 0.001622991 -0.001173688 -0.0005382614
v 0.002696235 -2.720483E-05 -0.0008492775
v 0.001164328 -0.001022095 -0.0007208477
v 0.001279268 -7.18694E-05 -0.00180616
v 0.0008901273 0.003076556 0.0002683979
v 0.001075557 0.001615701 -0.00129212
v 0.001092809 0.001748177 -0.00129491
v 0.0008578799 0.0003144912 0.000378593
v 0.001164328 0.001022094 -0.0007208477
v 0.0009697947 -1.062864E-11 0.0004281135
v 0.0008370883 0.003077924 0.0003918536
v 0.0008374855 0.003079588 0.0003980383
v 0.0004398538 0.002547457 0.0009353014
v -0.0001875923 0.001722945 0.001622742
v -0.0001894959 0.001606593 0.001629813
v 0.0009611332 -9.751723E-12 0.0004458951
v 0.0002862611 0.0009974899 0.00132974
v 0.0009615081 -9.721102E-12 0.0004473067
v 0.0002862611 -0.0009974898 0.00132974
v -0.0001894959 -0.001606593 0.001629813
v 0.0008578799 -0.0003144912 0.0003785931
v -0.0001875924 -0.001722945 0.001622742
v 0.0009647299 -1.016095E-11 0.0004370773
v 0.001164328 -0.001022095 -0.0007208477
v 0.001075557 -0.001615701 -0.00129212
v 0.000837088 -0.003077924 0.0003918538
v 0.0004398536 -0.002547457 0.0009353015
v 0.0008374853 -0.003079588 0.0003980385
v 0.0008901271 -0.003076556 0.0002683981
v 0.001092809 -0.001748177 -0.00129491
v 0.001164328 0.001022094 -0.0007208477
v 0.001280943 -9.343098E-11 -0.001842373
v 0.001279268 7.186922E-05 -0.00180616
v 0.0009697947 -1.062864E-11 0.0004281135
v 0.001164328 -0.001022095 -0.0007208477
v 0.001279268 -7.18694E-05 -0.00180616
v 0.001508559 0.001202172 0.001322275
v 0.001594562 0.001289962 0.001117323
v 0.001903298 0.000490045 0.001848774
v 0.0007441051 0.001166473 0.001523698
v 0.00160262 -1.227075E-11 0.001114578
v 0.001184048 3.947093E-05 0.002510502
v 0.001904551 -7.707878E-13 0.0018328
v -0.0002595116 4.318601E-05 0.002414989
v 0.0002862611 0.0009974899 0.00132974
v -0.0004391853 5.859005E-05 0.002117624
v -0.0004404416 9.470521E-11 0.00213692
v -0.0002595893 9.736973E-11 0.002428155
v 0.001184225 4.742489E-11 0.002524922
v 0.001903298 -0.000490045 0.001848774
v 0.001594562 -0.001289962 0.001117323
v 0.001508559 -0.001202172 0.001322275
v 0.000744105 -0.001166473 0.001523698
v 0.001184048 -3.947083E-05 0.002510502
v -0.0002595893 9.736973E-11 0.002428155
v -0.0002595116 -4.318582E-05 0.002414989
v 0.0002862611 -0.0009974898 0.00132974
v -0.0004404416 9.470521E-11 0.00213692
v -0.0004391853 -5.858986E-05 0.002117624
vt 0.2430379 0.475916
vt 0.2372909 0.4766624
vt 0.2354658 0.4604794
vt 0.244774 0.457548
vt 0.2545005 0.4638436
vt 0.2590003 0.4482101
vt 0.2611055 0.4505984
vt 0.264268 0.4462076
vt 0.2686548 0.4622872
vt 0.2745409 0.4662799
vt 0.2649357 0.4789523
vt 0.2450255 0.4768904
vt 0.2448351 0.4828127
vt 0.2422981 0.4823427
vt 0.2838085 0.4886004
vt 0.2852106 0.4828911
vt 0.2872645 0.4830736
vt 0.2873446 0.4888539
vt 0.3040444 0.4900544
vt 0.3091801 0.4835149
vt 0.3280168 0.4915325
vt 0.2875459 0.4770463
vt 0.285727 0.4768002
vt 0.3009337 0.4692558
vt 0.2875865 0.4673407
vt 0.2883321 0.4611439
vt 0.2792358 0.4443179
vt 0.3003961 0.4456016
vt 0.2889743 0.4443998
vt 0.3006331 0.4214361
vt 0.289746 0.4211528
vt 0.2799423 0.420897
vt 0.2804681 0.3974753
vt 0.2901872 0.3978964
vt 0.30165 0.3972882
vt 0.2904224 0.3811441
vt 0.2770116 0.3753475
vt 0.3033428 0.3736425
vt 0.2899883 0.3749173
vt 0.2885694 0.3653895
vt 0.2904034 0.3652311
vt 0.2882885 0.3593358
vt 0.2903837 0.3592731
vt 0.2679089 0.3624051
vt 0.2871909 0.353593
vt 0.2907452 0.3535398
vt 0.2480804 0.3576963
vt 0.3075158 0.3533747
vt 0.2471708 0.3638097
vt 0.3125529 0.3600363
vt 0.3309023 0.3523917
vt 0.3324247 0.3569767
vt 0.3247737 0.3740295
vt 0.3108725 0.3775413
vt 0.3130691 0.3930797
vt 0.2710869 0.3791656
vt 0.2664116 0.3950804
vt 0.2570848 0.3770905
vt 0.2633478 0.3906221
vt 0.2612018 0.3929513
vt 0.2472191 0.3835741
vt 0.2457194 0.3655069
vt 0.2412419 0.3617581
vt 0.2379469 0.3803648
vt 0.2400939 0.3641552
vt 0.3175365 0.3887277
vt 0.3181679 0.3914641
vt 0.3325678 0.3853409
vt 0.3251199 0.3753649
vt 0.3416961 0.3696401
vt 0.3428092 0.385397
vt 0.3410799 0.368044
vt 0.3459054 0.3700688
vt 0.3458701 0.3678711
vt 0.342005 0.4725676
vt 0.339498 0.4565129
vt 0.3459054 0.4704336
vt 0.3300948 0.4588516
vt 0.323249 0.4693709
vt 0.3161843 0.4552962
vt 0.3169241 0.4526459
vt 0.3120704 0.4505339
vt 0.3087836 0.4657619
vt 0.3222663 0.4704342
vt 0.3306586 0.4869591
vt 0.3289165 0.4870861
vt 0.330335 0.4915246
vt 0.8934111 0.1079688
vt 0.8925642 0.1084129
vt 0.8668314 0.105013
vt 0.8671632 0.07780267
vt 0.893514 0.1078256
vt 0.8941891 0.0809832
vt 0.8941891 0.1069396
vt 0.6488479 0.8393192
vt 0.6477953 0.8381191
vt 0.6526852 0.8328562
vt 0.6530663 0.8341864
vt 0.6538869 0.8353629
vt 0.6498808 0.840766
vt 0.6742338 0.8593711
vt 0.6838068 0.8552519
vt 0.6758209 0.826692
vt 0.6760343 0.8271066
vt 0.6931249 0.8315098
vt 0.6986405 0.84499
vt 0.7039723 0.8442127
vt 0.7039723 0.817978
vt 0.6915775 0.8218887
vt 0.6960486 0.8205253
vt 0.6874087 0.8131174
vt 0.6890482 0.796507
vt 0.6842338 0.7989191
vt 0.6663643 0.7990968
vt 0.6756542 0.8262618
vt 0.6562974 0.800697
vt 0.6466778 0.8292083
vt 0.8716337 0.2655865
vt 0.8938775 0.2333253
vt 0.8944864 0.2357062
vt 0.860281 0.2136719
vt 0.8832746 0.222758
vt 0.85924 0.2076188
vt 0.869262 0.2659902
vt 0.8691705 0.266061
vt 0.8556838 0.2584008
vt 0.8371782 0.245428
vt 0.8367664 0.2433314
vt 0.8588833 0.2076181
vt 0.8423535 0.2293579
vt 0.8588556 0.2076181
vt 0.8423501 0.1858413
vt 0.8367664 0.1718567
vt 0.8603042 0.2015764
vt 0.8374012 0.1698591
vt 0.8590558 0.2076184
vt 0.8833953 0.1926772
vt 0.8940924 0.1822041
vt 0.869495 0.1493264
vt 0.855914 0.156903
vt 0.8694037 0.1492553
vt 0.8718604 0.1497463
vt 0.8944829 0.1798323
vt 0.5108767 0.0327936
vt 0.5103205 0.005064187
vt 0.5108767 0.006421632
vt 0.4828789 0.03654825
vt 0.4827749 0.008300064
vt 0.5088998 0.004698632
vt 0.3176087 0.5035399
vt 0.31702 0.4989091
vt 0.3327647 0.5101369
vt 0.3093353 0.5173871
vt 0.3429407 0.4963272
vt 0.3369029 0.5286229
vt 0.3405483 0.5109998
vt 0.320332 0.5483796
vt 0.3033265 0.5252206
vt 0.3142334 0.5499317
vt 0.3148315 0.5507392
vt 0.3209316 0.5489575
vt 0.3376101 0.5290151
vt 0.3482037 0.5126517
vt 0.3667014 0.5070042
vt 0.3646724 0.5112079
vt 0.3681218 0.5269617
vt 0.3384052 0.5288669
vt 0.3471111 0.5532104
vt 0.3478608 0.552845
vt 0.371328 0.5363035
vt 0.3501097 0.5554198
vt 0.3531348 0.556271
vn 0.2961099 -0.4064408 -0.8643638
vn -0.6197679 -0.2655885 -0.7384785
vn -0.5397769 -0.2773351 -0.794812
vn 0.7084628 -0.03443256 -0.7049077
vn 0.8754551 9.838576E-05 -0.4832996
vn 0.973462 0.1938572 -0.121619
vn 0.9611011 -0.192413 0.1981468
vn 0.9899932 0.09216795 0.1068582
vn 0.8625854 0.4291567 0.2679008
vn 0.7937235 0.5092597 -0.3326522
vn 0.3445781 0.7460498 -0.5698031
vn 0.3540204 0.322374 -0.8779206
vn -0.5162089 0.3772718 -0.7688916
vn -0.6197679 -0.2655885 -0.7384785
vn -0.5534702 0.6895665 -0.4670854
vn 0.178385 0.9242924 -0.3374349
vn -0.08847729 0.9413123 0.3257344
vn -0.5262067 0.8434204 0.1083912
vn -0.6131574 0.7395445 0.2776905
vn -0.1841699 0.7525626 0.6322429
vn -0.9399256 0.3411804 -0.01165577
vn 0.232593 0.8478754 0.4764532
vn 0.5169463 0.8172495 -0.2546954
vn 0.3444687 0.5232949 0.7794253
vn 0.7718106 0.5635613 0.2944605
vn 0.9152889 0.1746449 0.3629676
vn 0.9899932 0.09216795 0.1068582
vn 0.798766 0.07666613 0.5967373
vn 0.9274834 0.00120651 0.3738624
vn 0.9368845 0 0.3496389
vn 0.9281284 0 0.3722602
vn 0.8999478 0 0.4359976
vn 0.9899932 -0.09216804 0.1068583
vn 0.9274833 -0.001206604 0.3738626
vn 0.798766 -0.0766662 0.5967373
vn 0.9152887 -0.1746452 0.3629677
vn 0.7937235 -0.5092598 -0.3326522
vn 0.3444686 -0.5232948 0.7794254
vn 0.7718105 -0.5635615 0.2944606
vn 0.5169464 -0.8172495 -0.2546952
vn 0.2325933 -0.8478752 0.4764534
vn 0.1783848 -0.9242925 -0.3374348
vn -0.08847732 -0.9413124 0.3257343
vn 0.3445782 -0.7460499 -0.5698029
vn -0.5534697 -0.6895663 -0.4670862
vn -0.5262058 -0.8434217 0.1083853
vn -0.5162089 -0.377271 -0.7688921
vn -0.6131591 -0.7395436 0.2776889
vn 0.3540204 -0.322374 -0.8779206
vn -0.18417 -0.7525625 0.6322429
vn -0.9399256 -0.3411805 -0.01165482
vn -0.4724012 -0.3835047 0.793575
vn 0.1431777 -0.4048541 0.903102
vn 0.765269 -0.3918813 0.5106784
vn 0.798766 -0.0766662 0.5967373
vn 0.8625854 -0.4291569 0.2679008
vn 0.9899932 -0.09216804 0.1068583
vn 0.875455 -9.834979E-05 -0.4832997
vn 0.9611008 0.1924137 0.1981469
vn 0.973462 -0.1938571 -0.1216192
vn 0.7084628 0.03443239 -0.7049078
vn 0.29611 0.4064406 -0.8643638
vn -0.5162089 -0.377271 -0.7688921
vn -0.539777 0.2773351 -0.7948119
vn -0.619768 0.2655891 -0.7384782
vn 0.7103317 0.4025047 0.5774243
vn 0.6678898 -0.1353565 0.7318482
vn -0.02289719 0.02390974 0.9994518
vn 0.2495485 0.2051851 0.9463744
vn -0.5190871 0.3247714 0.790615
vn -0.9086972 0.2809085 0.3088036
vn -0.4724012 -0.3835047 0.793575
vn -0.9597271 0.2806557 0.01249789
vn -0.9399256 -0.3411805 -0.01165482
vn -0.5190859 -0.324771 0.7906159
vn -0.9086949 -0.2809189 0.3088013
vn -0.9597268 -0.2806569 0.01249867
vn -0.02289736 -0.02390997 0.9994518
vn 0.249548 -0.2051849 0.9463747
vn 0.7103317 -0.4025052 0.577424
vn 0.6678898 0.1353567 0.7318482
vn 0.798766 0.07666613 0.5967373
vn 0.7652692 0.3918814 0.5106781
vn 0.1431774 0.4048543 0.903102
vn -0.5190859 -0.324771 0.7906159
vn -0.4724009 0.383505 0.793575
vn -0.9597268 -0.2806569 0.01249867
vn -0.9784741 -0.0717288 -0.1935028
vn -0.9424628 -0.2701826 -0.1968892
vn -0.9086972 0.2809085 0.3088036
vn -0.9993502 0 -0.03604264
vn -0.9784741 -0.0717288 -0.1935028
vn -0.9086949 -0.2809189 0.3088013
vn -0.95011 0.2564261 -0.1775862
vn -0.6227968 0 -0.7823836
vn -0.6455408 -0.4521867 -0.6154708
vn 0.2757294 -0.5749521 -0.7703267
vn 0.2860008 0 -0.9582294
vn 0.2757296 0.5749521 -0.7703269
vn -0.6455414 0.4521866 -0.6154702
vn -0.5397769 -0.2773351 -0.794812
vn 0.7084628 -0.03443256 -0.7049077
vn 0.9299037 9.330921E-07 -0.3678032
vn 0.8579454 0.3618863 -0.364648
vn 0.827855 0.3830048 0.4098336
vn 0.973462 0.1938572 -0.121619
vn 0.9899932 0.09216795 0.1068582
vn 0.8999478 0 0.4359976
vn 0.8046998 0 0.5936818
vn 0.3300816 0 0.9439523
vn 0.827855 -0.3830048 0.4098335
vn 0.9899932 -0.09216804 0.1068583
vn 0.973462 -0.1938571 -0.1216192
vn 0.7084628 0.03443239 -0.7049078
vn 0.8579456 -0.3618854 -0.364648
vn -0.539777 0.2773351 -0.7948119
vn -0.6455408 -0.4521867 -0.6154708
vn -0.5534702 0.6895665 -0.4670854
vn -0.6197679 -0.2655885 -0.7384785
vn -0.5162089 0.3772718 -0.7688916
vn -0.8684566 -0.2716757 -0.4146993
vn -0.5397769 -0.2773351 -0.794812
vn -0.9123429 0 -0.4094269
vn -0.781433 0.5295743 -0.3300205
vn -0.5262067 0.8434204 0.1083912
vn -0.6131574 0.7395445 0.2776905
vn -0.9399256 0.3411804 -0.01165577
vn -0.9597268 -0.2806569 0.01249867
vn -0.9799216 -8.195296E-07 -0.1993832
vn -0.9086949 -0.2809189 0.3088013
vn -0.9993502 0 -0.03604264
vn -0.9086972 0.2809085 0.3088036
vn -0.9597271 0.2806557 0.01249789
vn -0.8684566 0.2716757 -0.4146992
vn -0.9399256 -0.3411805 -0.01165482
vn -0.9004241 -5.92528E-07 -0.4350131
vn -0.539777 0.2773351 -0.7948119
vn -0.619768 0.2655891 -0.7384782
vn -0.7814281 -0.5295666 -0.3300446
vn -0.6131591 -0.7395436 0.2776889
vn -0.5262058 -0.8434217 0.1083853
vn -0.5534697 -0.6895663 -0.4670862
vn -0.5162089 -0.377271 -0.7688921
vn -0.5397769 -0.2773351 -0.794812
vn -0.6227968 0 -0.7823836
vn -0.6455414 0.4521866 -0.6154702
vn -0.9123429 0 -0.4094269
vn -0.539777 0.2773351 -0.7948119
vn -0.6455408 -0.4521867 -0.6154708
vn 0.6678898 0.1353567 0.7318482
vn 0.798766 0.07666613 0.5967373
vn 0.8609941 0.3605427 0.3587452
vn -0.02289736 -0.02390997 0.9994518
vn 0.9368845 0 0.3496389
vn 0.2792421 0.4494195 0.8485552
vn 0.9805571 0 0.196234
vn -0.4824415 0.4737636 0.7367485
vn -0.9086949 -0.2809189 0.3088013
vn -0.95011 0.2564261 -0.1775862
vn -0.9784741 -0.0717288 -0.1935028
vn -0.4800893 0.002193682 0.8772168
vn 0.3175965 0 0.948226
vn 0.8609941 -0.3605427 0.3587452
vn 0.798766 -0.0766662 0.5967373
vn 0.6678898 -0.1353565 0.7318482
vn -0.02289719 0.02390974 0.9994518
vn 0.279242 -0.4494195 0.8485553
vn -0.4800893 0.002193682 0.8772168
vn -0.486625 -0.4786857 0.7307914
vn -0.9086972 0.2809085 0.3088036
vn -0.9784741 -0.0717288 -0.1935028
vn -0.9424628 -0.2701826 -0.1968892
g Top-Crystal_0
f 3/3/3 2/2/2 1/1/1
f 4/4/4 3/3/3 1/1/1
f 1/1/1 5/5/5 4/4/4
f 6/6/6 4/4/4 5/5/5
f 7/7/7 6/6/6 5/5/5
f 7/7/7 8/8/8 6/6/6
f 7/7/7 9/9/9 8/8/8
f 7/7/7 5/5/5 9/9/9
f 9/9/9 10/10/10 8/8/8
f 5/5/5 11/11/11 9/9/9
f 11/11/11 10/10/10 9/9/9
f 1/1/1 12/12/12 5/5/5
f 12/12/12 11/11/11 5/5/5
f 13/13/13 12/12/12 1/1/1
f 12/12/12 13/13/13 11/11/11
f 14/14/14 13/13/13 1/1/1
f 11/11/11 13/13/13 15/15/15
f 16/16/16 11/11/11 15/15/15
f 10/10/10 11/11/11 16/16/16
f 16/16/16 15/15/15 17/17/17
f 15/15/15 18/18/18 17/17/17
f 17/17/17 18/18/18 19/19/19
f 20/20/20 17/17/17 19/19/19
f 20/20/20 19/19/19 21/21/21
f 16/16/16 17/17/17 22/22/22
f 23/23/23 10/10/10 16/16/16
f 23/23/23 16/16/16 22/22/22
f 24/24/24 22/22/22 17/17/17
f 20/20/20 24/24/24 17/17/17
f 25/25/25 23/23/23 22/22/22
f 10/10/10 23/23/23 25/25/25
f 25/25/25 22/22/22 24/24/24
f 26/26/26 10/10/10 25/25/25
f 26/26/26 25/25/25 24/24/24
f 10/10/10 26/26/26 27/27/27
f 26/26/26 24/24/24 28/28/28
f 29/29/29 26/26/26 28/28/28
f 26/26/26 29/29/29 27/27/27
f 29/29/29 28/28/28 30/30/30
f 29/29/29 31/31/31 27/27/27
f 31/31/31 29/29/29 30/30/30
f 31/31/31 32/32/32 27/27/27
f 32/32/32 31/31/31 33/33/33
f 34/34/34 31/31/31 30/30/30
f 31/31/31 34/34/34 33/33/33
f 35/35/35 34/34/34 30/30/30
f 34/34/34 36/36/36 33/33/33
f 34/34/34 35/35/35 36/36/36
f 36/36/36 37/37/37 33/33/33
f 35/35/35 38/38/38 36/36/36
f 37/37/37 36/36/36 39/39/39
f 39/39/39 36/36/36 38/38/38
f 40/40/40 37/37/37 39/39/39
f 40/40/40 39/39/39 41/41/41
f 41/41/41 39/39/39 38/38/38
f 42/42/42 40/40/40 41/41/41
f 37/37/37 40/40/40 42/42/42
f 41/41/41 38/38/38 43/43/43
f 43/43/43 42/42/42 41/41/41
f 44/44/44 37/37/37 42/42/42
f 45/45/45 42/42/42 43/43/43
f 44/44/44 42/42/42 45/45/45
f 46/46/46 45/45/45 43/43/43
f 47/47/47 44/44/44 45/45/45
f 48/48/48 46/46/46 43/43/43
f 47/47/47 49/49/49 44/44/44
f 50/50/50 48/48/48 43/43/43
f 38/38/38 50/50/50 43/43/43
f 48/48/48 50/50/50 51/51/51
f 50/50/50 52/52/52 51/51/51
f 53/53/53 52/52/52 50/50/50
f 38/38/38 54/54/54 50/50/50
f 54/54/54 53/53/53 50/50/50
f 54/54/54 38/38/38 55/55/55
f 56/56/56 37/37/37 44/44/44
f 37/37/37 56/56/56 57/57/57
f 44/44/44 49/49/49 58/58/58
f 58/58/58 56/56/56 44/44/44
f 56/56/56 59/59/59 57/57/57
f 58/58/58 59/59/59 56/56/56
f 57/57/57 59/59/59 60/60/60
f 60/60/60 59/59/59 58/58/58
f 61/61/61 60/60/60 58/58/58
f 49/49/49 62/62/62 58/58/58
f 58/58/58 62/62/62 61/61/61
f 62/62/62 49/49/49 63/63/63
f 64/64/64 61/61/61 62/62/62
f 65/65/65 62/62/62 63/63/63
f 65/65/65 64/64/64 62/62/62
f 55/55/55 66/66/66 54/54/54
f 67/67/67 66/66/66 55/55/55
f 66/66/66 67/67/67 68/68/68
f 54/54/54 66/66/66 69/69/69
f 69/69/69 66/66/66 68/68/68
f 53/53/53 54/54/54 69/69/69
f 70/70/70 69/69/69 68/68/68
f 53/53/53 69/69/69 70/70/70
f 71/71/71 70/70/70 68/68/68
f 72/72/72 53/53/53 70/70/70
f 71/71/71 73/73/73 70/70/70
f 74/74/74 72/72/72 70/70/70
f 73/73/73 74/74/74 70/70/70
f 77/77/77 76/76/76 75/75/75
f 76/76/76 78/78/78 75/75/75
f 78/78/78 79/79/79 75/75/75
f 80/80/80 79/79/79 78/78/78
f 81/81/81 80/80/80 78/78/78
f 80/80/80 81/81/81 82/82/82
f 80/80/80 82/82/82 83/83/83
f 80/80/80 83/83/83 79/79/79
f 24/24/24 83/83/83 82/82/82
f 24/24/24 20/20/20 83/83/83
f 83/83/83 84/84/84 79/79/79
f 20/20/20 84/84/84 83/83/83
f 85/85/85 79/79/79 84/84/84
f 86/86/86 84/84/84 20/20/20
f 86/86/86 85/85/85 84/84/84
f 86/86/86 20/20/20 21/21/21
f 86/86/86 21/21/21 85/85/85
f 21/21/21 87/87/87 85/85/85
f 90/90/90 89/89/89 88/88/88
f 91/91/91 90/90/90 88/88/88
f 93/93/93 91/91/91 92/92/92
f 94/94/94 93/93/93 92/92/92
f 97/97/97 96/96/96 95/95/95
f 98/98/98 97/97/97 95/95/95
f 99/99/99 98/98/98 95/95/95
f 100/100/100 99/99/99 95/95/95
f 99/99/99 100/100/100 101/101/101
f 102/102/102 99/99/99 101/101/101
f 103/103/103 98/98/98 99/99/99
f 98/98/98 103/103/103 97/97/97
f 102/102/102 104/104/104 99/99/99
f 104/104/104 103/103/103 99/99/99
f 105/105/105 104/104/104 102/102/102
f 106/106/106 105/105/105 102/102/102
f 105/105/105 106/106/106 107/107/107
f 105/105/105 107/107/107 108/108/108
f 109/109/109 103/103/103 104/104/104
f 105/105/105 109/109/109 104/104/104
f 110/110/110 105/105/105 108/108/108
f 109/109/109 105/105/105 110/110/110
f 111/111/111 110/110/110 108/108/108
f 111/111/111 109/109/109 110/110/110
f 112/112/112 111/111/111 108/108/108
f 113/113/113 111/111/111 112/112/112
f 113/113/113 114/114/114 111/111/111
f 115/115/115 103/103/103 109/109/109
f 111/111/111 115/115/115 109/109/109
f 114/114/114 115/115/115 111/111/111
f 103/103/103 115/115/115 97/97/97
f 115/115/115 114/114/114 97/97/97
f 97/97/97 114/114/114 116/116/116
f 117/117/117 97/97/97 116/116/116
f 120/120/120 119/119/119 118/118/118
f 118/118/118 119/119/119 121/121/121
f 121/121/121 119/119/119 122/122/122
f 121/121/121 122/122/122 123/123/123
f 118/118/118 121/121/121 124/124/124
f 124/124/124 125/125/125 118/118/118
f 126/126/126 125/125/125 124/124/124
f 127/127/127 126/126/126 124/124/124
f 124/124/124 121/121/121 127/127/127
f 128/128/128 127/127/127 121/121/121
f 129/129/129 128/128/128 121/121/121
f 130/130/130 128/128/128 129/129/129
f 131/131/131 130/130/130 129/129/129
f 132/132/132 131/131/131 129/129/129
f 133/133/133 132/132/132 129/129/129
f 134/134/134 133/133/133 129/129/129
f 133/133/133 134/134/134 135/135/135
f 136/136/136 129/129/129 121/121/121
f 136/136/136 134/134/134 129/129/129
f 136/136/136 121/121/121 123/123/123
f 136/136/136 123/123/123 134/134/134
f 123/123/123 137/137/137 134/134/134
f 138/138/138 134/134/134 137/137/137
f 135/135/135 134/134/134 139/139/139
f 140/140/140 135/135/135 139/139/139
f 141/141/141 140/140/140 139/139/139
f 141/141/141 139/139/139 142/142/142
f 139/139/139 134/134/134 142/142/142
f 142/142/142 134/134/134 138/138/138
f 142/142/142 138/138/138 143/143/143
f 146/146/146 145/145/145 144/144/144
f 145/145/145 147/147/147 144/144/144
f 148/148/148 147/147/147 145/145/145
f 149/149/149 148/148/148 145/145/145
f 152/152/152 151/151/151 150/150/150
f 150/150/150 153/153/153 152/152/152
f 154/154/154 151/151/151 152/152/152
f 153/153/153 155/155/155 152/152/152
f 156/156/156 154/154/154 152/152/152
f 152/152/152 155/155/155 156/156/156
f 157/157/157 155/155/155 153/153/153
f 153/153/153 158/158/158 157/157/157
f 158/158/158 159/159/159 157/157/157
f 157/157/157 159/159/159 160/160/160
f 161/161/161 157/157/157 160/160/160
f 157/157/157 161/161/161 155/155/155
f 161/161/161 162/162/162 155/155/155
f 155/155/155 162/162/162 156/156/156
f 156/156/156 163/163/163 154/154/154
f 163/163/163 164/164/164 154/154/154
f 164/164/164 163/163/163 165/165/165
f 165/165/165 163/163/163 166/166/166
f 162/162/162 167/167/167 156/156/156
f 167/167/167 163/163/163 156/156/156
f 163/163/163 167/167/167 166/166/166
f 167/167/167 162/162/162 168/168/168
f 167/167/167 169/169/169 166/166/166
f 169/169/169 167/167/167 168/168/168
f 170/170/170 166/166/166 169/169/169
f 169/169/169 168/168/168 171/171/171
f 172/172/172 170/170/170 169/169/169
f 172/172/172 169/169/169 171/171/171
