g top_strap
v 0.7282456 -0.1445719 -0.004459959
v 0.8035157 -0.3681538 -0.1408659
v 0.9683409 -0.2713998 -0.1673009
v 0.8371977 -0.04277302 -0.03171853
v 0.610221 0.1451544 0.04432961
v 0.5466138 0.04794548 0.101709
v 0.329405 0.1802064 0.1688361
v 0.3330281 0.2909516 0.06598384
v 0.1477795 0.3346901 0.05736035
v 0.1410974 0.2562765 0.1797854
v -0.04127796 0.3521511 0.04862684
v -0.04731388 0.2843691 0.1749707
v -0.193651 0.2712112 0.1597454
v -0.2438866 0.3423044 0.03933784
v -0.4620497 0.2840828 0.0188602
v -0.4137068 0.2145538 0.1379883
v -0.569642 0.1025649 0.04333099
v -0.6690937 0.2011506 -0.004532191
v -0.6684678 0.005542104 -0.01109896
v -0.8471119 0.009274365 -0.06523318
v -0.9336832 -0.146785 -0.1248271
v -0.7658948 -0.1449884 -0.08919854
v -0.818163 -0.2872117 -0.1584703
v -0.9707035 -0.2872117 -0.1856299
v -0.4593185 0.2960003 0.03423839
v -0.6640971 0.2020467 0.01544504
v -0.6690937 0.2046455 0.005973056
v -0.4620032 0.2928133 0.02377727
v -0.2410721 0.3575138 0.05592146
v -0.2438129 0.3543976 0.04576822
v -0.04149479 0.3681536 0.06408253
v -0.04120853 0.3647949 0.05428584
v 0.1473277 0.3482381 0.07309923
v 0.1477197 0.3455712 0.06308778
v 0.3330527 0.2984137 0.0828616
v 0.3331434 0.2982626 0.07249121
v 0.6090354 0.1478938 0.06230812
v 0.6116694 0.1498375 0.05220309
v 0.8346406 -0.0451198 -0.01376845
v 0.8388597 -0.04119141 -0.02284736
v 0.9663414 -0.2748049 -0.1499745
v 0.9707548 -0.2710991 -0.1591858
v -0.4136539 0.2238285 0.1432114
v -0.5696041 0.1059224 0.05342401
v -0.5750087 0.1138278 0.05839755
v -0.4160486 0.2340165 0.1409844
v -0.193572 0.2838441 0.1664628
v -0.1959742 0.2937319 0.1640281
v -0.04735554 0.2974164 0.1809271
v -0.04702442 0.307285 0.1776353
v 0.1409948 0.2674976 0.18563
v 0.1412704 0.27806 0.1829858
v 0.3295375 0.1877353 0.1754855
v 0.3298205 0.1990592 0.175213
v 0.548123 0.05286548 0.1100646
v 0.552922 0.06217745 0.1130964
v 0.73007 -0.1429311 0.004562877
v 0.737252 -0.1362675 0.01068084
v 0.8061454 -0.3678264 -0.1319772
v 0.8143614 -0.3640201 -0.1255244
v -0.5696041 0.1059224 0.05342401
v -0.678131 0.006744535 0.006804517
v -0.5750087 0.1138278 0.05839755
v -0.6691994 0.006152265 0.0007809483
v -0.7739223 -0.1449254 -0.0675863
v -0.7658596 -0.1448921 -0.07413165
v -0.8260425 -0.2872117 -0.1367237
v -0.818163 -0.2872117 -0.1434534
v -0.6640971 0.2020467 0.01544504
v -0.847663 0.009645802 -0.05156758
v -0.6690937 0.2046455 0.005973056
v -0.8404963 0.00972017 -0.04156588
v -0.933676 -0.1466843 -0.1092891
v -0.9263257 -0.1465559 -0.1000503
v -0.970754 -0.2872117 -0.1702488
v -0.9634556 -0.2872117 -0.1612483
v -0.5696041 0.1059224 0.05342401
v -0.4137068 0.2145538 0.1379883
v -0.569642 0.1025649 0.04333099
v -0.4136539 0.2238285 0.1432114
v -0.193572 0.2838441 0.1664628
v -0.193651 0.2712112 0.1597454
v -0.04731388 0.2843691 0.1749707
v -0.04735554 0.2974164 0.1809271
v 0.1409948 0.2674976 0.18563
v 0.1410974 0.2562765 0.1797854
v 0.3295375 0.1877353 0.1754855
v 0.329405 0.1802064 0.1688361
v 0.5466138 0.04794548 0.101709
v 0.548123 0.05286548 0.1100646
v 0.73007 -0.1429311 0.004562877
v 0.7282456 -0.1445719 -0.004459959
v 0.8035157 -0.3681538 -0.1408659
v 0.8061454 -0.3678264 -0.1319772
v -0.6690937 0.2011506 -0.004532191
v -0.4620032 0.2928133 0.02377727
v -0.6690937 0.2046455 0.005973056
v -0.4620497 0.2840828 0.0188602
v -0.2438866 0.3423044 0.03933784
v -0.2438129 0.3543976 0.04576822
v -0.04120853 0.3647949 0.05428584
v -0.04127796 0.3521511 0.04862684
v 0.1477795 0.3346901 0.05736035
v 0.1477197 0.3455712 0.06308778
v 0.3330281 0.2909516 0.06598384
v 0.3331434 0.2982626 0.07249121
v 0.6116694 0.1498375 0.05220309
v 0.610221 0.1451544 0.04432961
v 0.8371977 -0.04277302 -0.03171853
v 0.8388597 -0.04119141 -0.02284736
v 0.9707548 -0.2710991 -0.1591858
v 0.9683409 -0.2713998 -0.1673009
v 0.8346406 -0.0451198 -0.01376845
v 0.9663414 -0.2748049 -0.1499745
v 0.8143614 -0.3640201 -0.1255244
v 0.737252 -0.1362675 0.01068084
v 0.552922 0.06217745 0.1130964
v 0.6090354 0.1478938 0.06230812
v 0.3330527 0.2984137 0.0828616
v 0.3298205 0.1990592 0.175213
v 0.1412704 0.27806 0.1829858
v 0.1473277 0.3482381 0.07309923
v -0.04702442 0.307285 0.1776353
v -0.04149479 0.3681536 0.06408253
v -0.2410721 0.3575138 0.05592146
v -0.1959742 0.2937319 0.1640281
v -0.4160486 0.2340165 0.1409844
v -0.4593185 0.2960003 0.03423839
v -0.6640971 0.2020467 0.01544504
v -0.5750087 0.1138278 0.05839755
v -0.8404963 0.00972017 -0.04156588
v -0.678131 0.006744535 0.006804517
v -0.7739223 -0.1449254 -0.0675863
v -0.9263257 -0.1465559 -0.1000503
v -0.8260425 -0.2872117 -0.1367237
v -0.9634556 -0.2872117 -0.1612483
v -0.7658596 -0.1448921 -0.07413165
v -0.818163 -0.2872117 -0.1584703
v -0.818163 -0.2872117 -0.1434534
v -0.7658948 -0.1449884 -0.08919854
v -0.6691994 0.006152265 0.0007809483
v -0.6684678 0.005542104 -0.01109896
v -0.569642 0.1025649 0.04333099
v -0.5696041 0.1059224 0.05342401
v -0.9707035 -0.2872117 -0.1856299
v -0.933676 -0.1466843 -0.1092891
v -0.970754 -0.2872117 -0.1702488
v -0.9336832 -0.146785 -0.1248271
v -0.8471119 0.009274365 -0.06523318
v -0.847663 0.009645802 -0.05156758
v -0.6690937 0.2046455 0.005973056
v -0.6690937 0.2011506 -0.004532191
vt 0.6842681 0.4308171
vt 0.6902075 0.3904082
vt 0.6613333 0.389279
vt 0.6625512 0.4312353
vt 0.6649604 0.475182
vt 0.6853974 0.4748777
vt 0.6916952 0.5177713
vt 0.6677864 0.525659
vt 0.6703331 0.5574189
vt 0.6956087 0.5535156
vt 0.6715201 0.5910139
vt 0.6981061 0.5896118
vt 0.6984029 0.6189952
vt 0.6727622 0.6287203
vt 0.6740228 0.6685717
vt 0.6984971 0.661388
vt 0.6940645 0.6970441
vt 0.6734098 0.7021798
vt 0.6934279 0.7201324
vt 0.6742078 0.7368101
vt 0.674791 0.7599853
vt 0.6945238 0.7484143
vt 0.6961087 0.7719709
vt 0.6759354 0.7807253
vt 0.670619 0.6673852
vt 0.6706963 0.7011566
vt 0.6720505 0.7016837
vt 0.6724 0.6680662
vt 0.6685798 0.6277475
vt 0.6703888 0.6284238
vt 0.6672359 0.5911232
vt 0.6690248 0.5910321
vt 0.6666529 0.557995
vt 0.6683538 0.5578271
vt 0.6646186 0.5263462
vt 0.6662966 0.5262044
vt 0.6620336 0.4761214
vt 0.6636081 0.4756471
vt 0.6600693 0.4322235
vt 0.6614362 0.4317507
vt 0.6585976 0.3902448
vt 0.6601442 0.3897257
vt 0.6470995 0.6627281
vt 0.6503956 0.6978863
vt 0.6520376 0.6973074
vt 0.6488627 0.6623176
vt 0.6434768 0.6208526
vt 0.6454427 0.6208616
vt 0.6423807 0.591638
vt 0.6443079 0.5916529
vt 0.6426828 0.5568272
vt 0.644562 0.5571759
vt 0.6409718 0.5204582
vt 0.6426792 0.5212999
vt 0.6425395 0.4770431
vt 0.6442024 0.4774865
vt 0.639227 0.4328372
vt 0.640898 0.4332802
vt 0.6304749 0.3928018
vt 0.6321169 0.393064
vt 0.6503956 0.6978863
vt 0.6531545 0.7213998
vt 0.6520376 0.6973074
vt 0.6515925 0.7210663
vt 0.6533124 0.7493212
vt 0.6518335 0.7492223
vt 0.6533425 0.7729449
vt 0.6518594 0.7729939
vt 0.6706963 0.7011566
vt 0.6725231 0.7364078
vt 0.6720505 0.7016837
vt 0.6712024 0.7355849
vt 0.6730086 0.7593454
vt 0.6717577 0.7586291
vt 0.6738029 0.7800412
vt 0.6722482 0.7794061
vt 0.6503956 0.6978863
vt 0.6456527 0.6637812
vt 0.6490738 0.6989686
vt 0.6470995 0.6627281
vt 0.6434768 0.6208526
vt 0.6408684 0.6216381
vt 0.6396779 0.5916269
vt 0.6423807 0.591638
vt 0.6426828 0.5568272
vt 0.6404822 0.5563637
vt 0.6409718 0.5204582
vt 0.6394705 0.5196794
vt 0.6411425 0.4763584
vt 0.6425395 0.4770431
vt 0.639227 0.4328372
vt 0.6378905 0.4323616
vt 0.6291232 0.3924864
vt 0.6304749 0.3928018
vt 0.6734098 0.7021798
vt 0.6724 0.6680662
vt 0.6720505 0.7016837
vt 0.6740228 0.6685717
vt 0.6727622 0.6287203
vt 0.6703888 0.6284238
vt 0.6690248 0.5910321
vt 0.6715201 0.5910139
vt 0.6703331 0.5574189
vt 0.6683538 0.5578271
vt 0.6677864 0.525659
vt 0.6662966 0.5262044
vt 0.6636081 0.4756471
vt 0.6649604 0.475182
vt 0.6625512 0.4312353
vt 0.6614362 0.4317507
vt 0.6601442 0.3897257
vt 0.6613333 0.389279
vt 0.6600693 0.4322235
vt 0.6585976 0.3902448
vt 0.6321169 0.393064
vt 0.640898 0.4332802
vt 0.6442024 0.4774865
vt 0.6620336 0.4761214
vt 0.6646186 0.5263462
vt 0.6426792 0.5212999
vt 0.644562 0.5571759
vt 0.6666529 0.557995
vt 0.6443079 0.5916529
vt 0.6672359 0.5911232
vt 0.6685798 0.6277475
vt 0.6454427 0.6208616
vt 0.6488627 0.6623176
vt 0.670619 0.6673852
vt 0.6706963 0.7011566
vt 0.6520376 0.6973074
vt 0.6712024 0.7355849
vt 0.6531545 0.7213998
vt 0.6533124 0.7493212
vt 0.6717577 0.7586291
vt 0.6533425 0.7729449
vt 0.6722482 0.7794061
vt 0.6518335 0.7492223
vt 0.6499119 0.7738873
vt 0.6518594 0.7729939
vt 0.6498582 0.7501136
vt 0.6515925 0.7210663
vt 0.6499659 0.7217692
vt 0.6490738 0.6989686
vt 0.6503956 0.6978863
vt 0.6759354 0.7807253
vt 0.6730086 0.7593454
vt 0.6738029 0.7800412
vt 0.674791 0.7599853
vt 0.6742078 0.7368101
vt 0.6725231 0.7364078
vt 0.6720505 0.7016837
vt 0.6734098 0.7021798
vn -0.4189714 0.1819101 -0.8895907
vn -0.4053385 0.3281715 -0.8532316
vn -0.4053385 0.3281715 -0.8532316
vn -0.4193604 0.1752137 -0.8907508
vn -0.4264363 -0.2376676 -0.872735
vn -0.4258452 -0.2555067 -0.8679702
vn -0.3508924 -0.5764918 -0.7379239
vn -0.3286531 -0.6136205 -0.7179534
vn -0.1613964 -0.8048517 -0.5711085
vn -0.1696035 -0.7985296 -0.5775684
vn -0.0008008807 -0.8621749 -0.5066102
vn -0.002897571 -0.8621235 -0.5066899
vn 0.1700552 -0.8285257 -0.5335039
vn 0.2044581 -0.812009 -0.546661
vn 0.3843383 -0.583195 -0.7156588
vn 0.3447332 -0.6570381 -0.6704177
vn 0.4270358 -0.2037072 -0.8809903
vn 0.4101093 -0.1408896 -0.9010885
vn 0.3253623 0.1010539 -0.9401742
vn 0.2762707 0.2062938 -0.9386784
vn 0.2026119 0.3298484 -0.9220349
vn 0.2224939 0.3018113 -0.9270418
vn 0.1771319 0.3647172 -0.9141148
vn 0.1771319 0.3647172 -0.9141148
vn -0.3084894 0.9459709 -0.09986653
vn -0.4106508 0.902245 0.131605
vn -0.4106508 0.902245 0.131605
vn -0.3533226 0.9354895 -0.004738437
vn -0.1215249 0.9541383 -0.2735904
vn -0.1693391 0.9519992 -0.2549938
vn 0.03549317 0.9544935 -0.2961123
vn 0.03492343 0.9544925 -0.2961832
vn 0.1841844 0.9604241 -0.2089539
vn 0.1875419 0.9605688 -0.2052698
vn 0.3989235 0.9162114 0.03763894
vn 0.4016415 0.9148785 0.04100356
vn 0.5659559 0.781808 0.2616678
vn 0.5965898 0.7408661 0.3085418
vn 0.7600689 0.4571347 0.4618693
vn 0.7940745 0.3820243 0.4727611
vn 0.8510779 0.2003391 0.4853151
vn 0.8510779 0.2003391 0.4853151
vn -0.2332635 -0.0417913 0.9715152
vn -0.2988452 -0.267857 0.915939
vn -0.2988452 -0.267857 0.915939
vn -0.2188634 0.002653197 0.9757519
vn -0.1378628 0.2203711 0.9656244
vn -0.1397106 0.2166092 0.9662099
vn -0.03908549 0.2734595 0.9610891
vn -0.04059681 0.2733149 0.9610676
vn 0.06682143 0.1918281 0.9791511
vn 0.05399355 0.2149441 0.9751326
vn 0.1528343 -0.0796154 0.9850396
vn 0.1327392 0.004431199 0.9911411
vn 0.05470201 -0.3679789 0.9282237
vn 0.09040097 -0.3119991 0.9457718
vn -0.1637934 -0.5337676 0.8296166
vn -0.1030887 -0.5133939 0.8519387
vn -0.2597736 -0.5613628 0.7857414
vn -0.2597736 -0.5613627 0.7857414
vn 0.2260038 -0.6058584 0.7627962
vn 0.3790778 -0.6133343 0.6929078
vn 0.2260037 -0.6058583 0.762796
vn 0.344329 -0.6131495 0.7109748
vn 0.5020138 -0.5678318 0.6523414
vn 0.4983318 -0.5715277 0.6519367
vn 0.5472615 -0.5198919 0.6559095
vn 0.5472615 -0.5198919 0.6559095
vn -0.7054842 0.4971647 0.5050935
vn -0.7596701 0.3291937 0.5608324
vn -0.7054841 0.4971647 0.5050935
vn -0.7304602 0.4308909 0.529869
vn -0.7862151 0.03508747 0.6169561
vn -0.7868007 0.1276912 0.6038539
vn -0.7777272 -0.06631374 0.6250944
vn -0.7777272 -0.06631374 0.6250944
vn 0.189684 -0.7580096 0.6240526
vn 0.1165446 -0.6327564 0.7655303
vn 0.189684 -0.7580096 0.6240526
vn 0.06864649 -0.5417814 0.8377115
vn -0.00704486 -0.4605756 0.8875926
vn 0.004381036 -0.4652987 0.8851429
vn -0.07209144 -0.4387434 0.8957159
vn -0.07196572 -0.4387626 0.8957166
vn -0.123419 -0.4779058 0.8696976
vn -0.138087 -0.4958083 0.8573833
vn -0.2088208 -0.617911 0.7580103
vn -0.230102 -0.6702356 0.7055758
vn -0.4604702 -0.7459749 0.4811327
vn -0.3669782 -0.7447468 0.5573862
vn -0.665873 -0.6572558 0.353027
vn -0.760304 -0.5681142 0.314935
vn -0.8549241 -0.4478432 0.2618036
vn -0.8549241 -0.4478432 0.2618036
vn -0.2536094 0.7584054 -0.6004194
vn -0.1191772 0.5865927 -0.8010655
vn -0.2536094 0.7584054 -0.6004193
vn -0.1646029 0.6489028 -0.7428533
vn -0.01630984 0.4602108 -0.8876598
vn -0.009070679 0.4557258 -0.8900741
vn 0.04872862 0.4369025 -0.898188
vn 0.048644 0.4369085 -0.8981897
vn 0.1290043 0.4925384 -0.8606765
vn 0.121379 0.4828508 -0.8672499
vn 0.277081 0.6590658 -0.6991842
vn 0.2517453 0.6331443 -0.7319512
vn 0.4030754 0.7392908 -0.5394251
vn 0.4378685 0.7508565 -0.4944549
vn 0.6712066 0.6734403 -0.3097739
vn 0.6100112 0.7152528 -0.3410277
vn 0.7686011 0.5889815 -0.2497063
vn 0.7686011 0.5889815 -0.2497063
vn 0.4161773 -0.1724413 0.8927823
vn 0.4030775 -0.3253882 0.8553659
vn 0.4030775 -0.3253882 0.8553659
vn 0.4157311 -0.1808898 0.8913172
vn 0.4223844 0.257653 0.8690261
vn 0.4227888 0.2440699 0.8727425
vn 0.33087 0.6158196 0.7150462
vn 0.3533463 0.5761089 0.7370514
vn 0.1788341 0.7970353 0.5768476
vn 0.1691824 0.8044385 0.5694348
vn 0.006891554 0.8623751 0.5062229
vn 0.004975687 0.8624275 0.5061562
vn -0.2129144 0.8092817 0.5474766
vn -0.1762945 0.8266969 0.5343149
vn -0.3520579 0.6493932 0.6740503
vn -0.3833221 0.5857952 0.7140785
vn -0.4020859 0.1603228 0.9014563
vn -0.4160032 0.2125661 0.8841703
vn -0.2734217 -0.1923019 0.9424759
vn -0.3190019 -0.08659624 0.9437897
vn -0.2215728 -0.2941967 0.9297063
vn -0.2024667 -0.3255561 0.923591
vn -0.1776567 -0.3649516 0.9139193
vn -0.1776567 -0.3649516 0.9139193
vn 0.8751382 -0.4833026 0.02349101
vn 0.9386205 -0.3449515 5.402601E-06
vn 0.9386205 -0.3449515 5.402601E-06
vn 0.9042657 -0.4267496 0.01372129
vn 0.7489502 -0.6555037 0.0968944
vn 0.7893432 -0.6100676 0.06895583
vn 0.6524243 -0.7419251 0.1545632
vn 0.6524242 -0.7419251 0.1545632
vn -0.9667001 0.2559023 -0.002187198
vn -0.9110698 0.411916 -0.01664238
vn -0.9667001 0.2559022 -0.002187198
vn -0.9337698 0.3576876 -0.01154951
vn -0.8044473 0.5896028 -0.07234045
vn -0.7764136 0.6237876 -0.08983875
vn -0.7096987 0.6929591 -0.1270255
vn -0.7096987 0.692959 -0.1270255
g top_strap_0
f 3/3/3 2/2/2 1/1/1
f 4/4/4 3/3/3 1/1/1
f 5/5/5 4/4/4 1/1/1
f 6/6/6 5/5/5 1/1/1
f 5/5/5 6/6/6 7/7/7
f 8/8/8 5/5/5 7/7/7
f 9/9/9 8/8/8 7/7/7
f 10/10/10 9/9/9 7/7/7
f 9/9/9 10/10/10 11/11/11
f 10/10/10 12/12/12 11/11/11
f 11/11/11 12/12/12 13/13/13
f 14/14/14 11/11/11 13/13/13
f 15/15/15 14/14/14 13/13/13
f 16/16/16 15/15/15 13/13/13
f 15/15/15 16/16/16 17/17/17
f 18/18/18 15/15/15 17/17/17
f 18/18/18 17/17/17 19/19/19
f 20/20/20 18/18/18 19/19/19
f 20/20/20 19/19/19 21/21/21
f 19/19/19 22/22/22 21/21/21
f 22/22/22 23/23/23 21/21/21
f 23/23/23 24/24/24 21/21/21
f 27/27/27 26/26/26 25/25/25
f 28/28/28 27/27/27 25/25/25
f 25/25/25 29/29/29 28/28/28
f 29/29/29 30/30/30 28/28/28
f 29/29/29 31/31/31 30/30/30
f 31/31/31 32/32/32 30/30/30
f 32/32/32 31/31/31 33/33/33
f 34/34/34 32/32/32 33/33/33
f 34/34/34 33/33/33 35/35/35
f 36/36/36 34/34/34 35/35/35
f 36/36/36 35/35/35 37/37/37
f 38/38/38 36/36/36 37/37/37
f 38/38/38 37/37/37 39/39/39
f 40/40/40 38/38/38 39/39/39
f 39/39/39 41/41/41 40/40/40
f 41/41/41 42/42/42 40/40/40
f 45/45/45 44/44/44 43/43/43
f 46/46/46 45/45/45 43/43/43
f 43/43/43 47/47/47 46/46/46
f 47/47/47 48/48/48 46/46/46
f 47/47/47 49/49/49 48/48/48
f 49/49/49 50/50/50 48/48/48
f 50/50/50 49/49/49 51/51/51
f 52/52/52 50/50/50 51/51/51
f 52/52/52 51/51/51 53/53/53
f 54/54/54 52/52/52 53/53/53
f 54/54/54 53/53/53 55/55/55
f 56/56/56 54/54/54 55/55/55
f 56/56/56 55/55/55 57/57/57
f 58/58/58 56/56/56 57/57/57
f 57/57/57 59/59/59 58/58/58
f 59/59/59 60/60/60 58/58/58
f 63/63/63 62/62/62 61/61/61
f 62/62/62 64/64/64 61/61/61
f 64/64/64 62/62/62 65/65/65
f 66/66/66 64/64/64 65/65/65
f 65/65/65 67/67/67 66/66/66
f 67/67/67 68/68/68 66/66/66
f 71/71/71 70/70/70 69/69/69
f 70/70/70 72/72/72 69/69/69
f 72/72/72 70/70/70 73/73/73
f 74/74/74 72/72/72 73/73/73
f 73/73/73 75/75/75 74/74/74
f 75/75/75 76/76/76 74/74/74
f 79/79/79 78/78/78 77/77/77
f 78/78/78 80/80/80 77/77/77
f 80/80/80 78/78/78 81/81/81
f 78/78/78 82/82/82 81/81/81
f 82/82/82 83/83/83 81/81/81
f 83/83/83 84/84/84 81/81/81
f 84/84/84 83/83/83 85/85/85
f 83/83/83 86/86/86 85/85/85
f 85/85/85 86/86/86 87/87/87
f 86/86/86 88/88/88 87/87/87
f 88/88/88 89/89/89 87/87/87
f 89/89/89 90/90/90 87/87/87
f 90/90/90 89/89/89 91/91/91
f 89/89/89 92/92/92 91/91/91
f 92/92/92 93/93/93 91/91/91
f 93/93/93 94/94/94 91/91/91
f 97/97/97 96/96/96 95/95/95
f 96/96/96 98/98/98 95/95/95
f 99/99/99 98/98/98 96/96/96
f 100/100/100 99/99/99 96/96/96
f 100/100/100 101/101/101 99/99/99
f 101/101/101 102/102/102 99/99/99
f 103/103/103 102/102/102 101/101/101
f 104/104/104 103/103/103 101/101/101
f 105/105/105 103/103/103 104/104/104
f 106/106/106 105/105/105 104/104/104
f 106/106/106 107/107/107 105/105/105
f 107/107/107 108/108/108 105/105/105
f 109/109/109 108/108/108 107/107/107
f 110/110/110 109/109/109 107/107/107
f 110/110/110 111/111/111 109/109/109
f 111/111/111 112/112/112 109/109/109
f 115/115/115 114/114/114 113/113/113
f 116/116/116 115/115/115 113/113/113
f 117/117/117 116/116/116 113/113/113
f 118/118/118 117/117/117 113/113/113
f 117/117/117 118/118/118 119/119/119
f 120/120/120 117/117/117 119/119/119
f 121/121/121 120/120/120 119/119/119
f 122/122/122 121/121/121 119/119/119
f 123/123/123 121/121/121 122/122/122
f 124/124/124 123/123/123 122/122/122
f 123/123/123 124/124/124 125/125/125
f 126/126/126 123/123/123 125/125/125
f 127/127/127 126/126/126 125/125/125
f 128/128/128 127/127/127 125/125/125
f 127/127/127 128/128/128 129/129/129
f 130/130/130 127/127/127 129/129/129
f 130/130/130 129/129/129 131/131/131
f 132/132/132 130/130/130 131/131/131
f 133/133/133 132/132/132 131/131/131
f 134/134/134 133/133/133 131/131/131
f 135/135/135 133/133/133 134/134/134
f 136/136/136 135/135/135 134/134/134
f 139/139/139 138/138/138 137/137/137
f 138/138/138 140/140/140 137/137/137
f 137/137/137 140/140/140 141/141/141
f 140/140/140 142/142/142 141/141/141
f 142/142/142 143/143/143 141/141/141
f 143/143/143 144/144/144 141/141/141
f 147/147/147 146/146/146 145/145/145
f 146/146/146 148/148/148 145/145/145
f 149/149/149 148/148/148 146/146/146
f 150/150/150 149/149/149 146/146/146
f 150/150/150 151/151/151 149/149/149
f 151/151/151 152/152/152 149/149/149
