g tornillo_uv.004
v 1.343431 -1.209142 1.969142
v 1.343431 -1.223284 1.983285
v 1.371715 -1.203284 2.003284
v 1.371715 -1.189142 1.989142
v 1.456568 -1.249142 1.929143
v 1.371715 -1.203284 2.003284
v 1.456568 -1.263284 1.943285
v 1.428284 -1.269142 1.909142
v 1.343431 -1.223284 1.983285
v 1.428284 -1.283284 1.923285
v 1.428284 -1.283284 1.923285
v 1.456568 -1.263284 1.943285
v 1.515484 -1.181175 1.968825
v 1.524999 -1.215 1.935
v 1.524999 -1.243284 1.963285
v 1.515484 -1.20946 1.99711
v 1.488388 -1.180784 2.025784
v 1.488388 -1.1525 1.9975
v 1.447835 -1.161624 2.044945
v 1.447835 -1.13334 2.01666
v 1.399999 -1.126612 2.023388
v 1.399999 -1.154896 2.051673
v 1.352164 -1.161624 2.044945
v 1.352164 -1.13334 2.01666
v 1.311611 -1.180784 2.025784
v 1.311611 -1.1525 1.9975
v 1.284514 -1.181175 1.968825
v 1.284514 -1.20946 1.99711
v 1.274999 -1.215 1.935
v 1.274999 -1.243284 1.963285
v 1.284514 -1.277109 1.92946
v 1.284514 -1.248825 1.901175
v 1.311611 -1.2775 1.8725
v 1.311611 -1.305784 1.900784
v 1.352164 -1.324945 1.881624
v 1.352164 -1.29666 1.85334
v 1.399999 -1.331673 1.874896
v 1.399999 -1.303388 1.846612
v 1.447835 -1.29666 1.85334
v 1.447835 -1.324945 1.881624
v 1.488388 -1.305784 1.900784
v 1.488388 -1.2775 1.8725
v 1.515484 -1.277109 1.92946
v 1.515484 -1.248825 1.901175
v 1.524999 -1.215 1.935
v 1.524999 -1.243284 1.963285
v 1.399999 -1.303388 1.846612
v 1.311611 -1.2775 1.8725
v 1.352164 -1.29666 1.85334
v 1.399999 -1.126612 2.023388
v 1.524999 -1.215 1.935
v 1.447835 -1.29666 1.85334
v 1.488388 -1.2775 1.8725
v 1.515484 -1.248825 1.901175
v 1.447835 -1.13334 2.01666
v 1.488388 -1.1525 1.9975
v 1.515484 -1.181175 1.968825
v 1.274999 -1.215 1.935
v 1.284514 -1.248825 1.901175
v 1.352164 -1.13334 2.01666
v 1.311611 -1.1525 1.9975
v 1.284514 -1.181175 1.968825
v -1.343431 -1.209142 1.969142
v -1.371715 -1.203284 2.003284
v -1.343431 -1.223284 1.983285
v -1.371715 -1.189142 1.989142
v -1.456568 -1.249142 1.929143
v -1.371715 -1.203284 2.003284
v -1.456568 -1.263284 1.943285
v -1.428284 -1.269142 1.909142
v -1.343431 -1.223284 1.983285
v -1.428284 -1.283284 1.923285
v -1.428284 -1.283284 1.923285
v -1.456568 -1.263284 1.943285
v -1.515484 -1.181175 1.968825
v -1.524999 -1.243284 1.963285
v -1.524999 -1.215 1.935
v -1.515484 -1.20946 1.99711
v -1.488388 -1.180784 2.025784
v -1.488388 -1.1525 1.9975
v -1.447835 -1.161624 2.044945
v -1.447835 -1.13334 2.01666
v -1.399999 -1.126612 2.023388
v -1.399999 -1.154896 2.051673
v -1.352164 -1.161624 2.044945
v -1.352164 -1.13334 2.01666
v -1.311611 -1.180784 2.025784
v -1.311611 -1.1525 1.9975
v -1.284514 -1.181175 1.968825
v -1.284514 -1.20946 1.99711
v -1.274999 -1.215 1.935
v -1.274999 -1.243284 1.963285
v -1.284514 -1.277109 1.92946
v -1.284514 -1.248825 1.901175
v -1.311611 -1.2775 1.8725
v -1.311611 -1.305784 1.900784
v -1.352164 -1.324945 1.881624
v -1.352164 -1.29666 1.85334
v -1.399999 -1.331673 1.874896
v -1.399999 -1.303388 1.846612
v -1.447835 -1.29666 1.85334
v -1.447835 -1.324945 1.881624
v -1.488388 -1.305784 1.900784
v -1.488388 -1.2775 1.8725
v -1.515484 -1.277109 1.92946
v -1.515484 -1.248825 1.901175
v -1.524999 -1.215 1.935
v -1.524999 -1.243284 1.963285
v -1.399999 -1.303388 1.846612
v -1.352164 -1.29666 1.85334
v -1.311611 -1.2775 1.8725
v -1.399999 -1.126612 2.023388
v -1.524999 -1.215 1.935
v -1.447835 -1.29666 1.85334
v -1.488388 -1.2775 1.8725
v -1.515484 -1.248825 1.901175
v -1.447835 -1.13334 2.01666
v -1.488388 -1.1525 1.9975
v -1.515484 -1.181175 1.968825
v -1.274999 -1.215 1.935
v -1.284514 -1.248825 1.901175
v -1.352164 -1.13334 2.01666
v -1.311611 -1.1525 1.9975
v -1.284514 -1.181175 1.968825
v 1.343431 -1.223284 1.983285
v 1.311611 -1.305784 1.900784
v 1.284514 -1.277109 1.92946
v 1.274999 -1.243284 1.963285
v 1.284514 -1.20946 1.99711
v 1.311611 -1.180784 2.025784
v 1.428284 -1.283284 1.923285
v 1.371715 -1.203284 2.003284
v 1.352164 -1.324945 1.881624
v 1.352164 -1.161624 2.044945
v 1.399999 -1.331673 1.874896
v 1.447835 -1.324945 1.881624
v 1.488388 -1.305784 1.900784
v 1.399999 -1.154896 2.051673
v 1.447835 -1.161624 2.044945
v 1.488388 -1.180784 2.025784
v 1.456568 -1.263284 1.943285
v 1.515484 -1.277109 1.92946
v 1.515484 -1.20946 1.99711
v 1.524999 -1.243284 1.963285
v -1.343431 -1.223284 1.983285
v -1.284514 -1.277109 1.92946
v -1.311611 -1.305784 1.900784
v -1.274999 -1.243284 1.963285
v -1.284514 -1.20946 1.99711
v -1.311611 -1.180784 2.025784
v -1.428284 -1.283284 1.923285
v -1.371715 -1.203284 2.003284
v -1.352164 -1.324945 1.881624
v -1.352164 -1.161624 2.044945
v -1.399999 -1.331673 1.874896
v -1.447835 -1.324945 1.881624
v -1.488388 -1.305784 1.900784
v -1.399999 -1.154896 2.051673
v -1.447835 -1.161624 2.044945
v -1.488388 -1.180784 2.025784
v -1.456568 -1.263284 1.943285
v -1.515484 -1.277109 1.92946
v -1.515484 -1.20946 1.99711
v -1.524999 -1.243284 1.963285
vt 0.9238281 0.3266602
vt 0.9238281 0.3234863
vt 0.9174805 0.3234863
vt 0.9174805 0.3266602
vt 0.9174805 0.3457031
vt 0.9145508 0.3266602
vt 0.9145508 0.3457031
vt 0.9238281 0.3457031
vt 0.9272461 0.3266602
vt 0.9272461 0.3457031
vt 0.9238281 0.348877
vt 0.9174805 0.348877
vt 0.9462891 0.6123047
vt 0.9462891 0.6044922
vt 0.9399414 0.6044922
vt 0.9399414 0.6123047
vt 0.9399414 0.6196289
vt 0.9462891 0.6196289
vt 0.9399414 0.6274414
vt 0.9462891 0.6274414
vt 0.9462891 0.6352539
vt 0.9399414 0.6352539
vt 0.9399414 0.6430664
vt 0.9462891 0.6430664
vt 0.9399414 0.6508789
vt 0.9462891 0.6508789
vt 0.9462891 0.6586914
vt 0.9399414 0.6586914
vt 0.9462891 0.6665039
vt 0.9399414 0.6665039
vt 0.9399414 0.6743164
vt 0.9462891 0.6743164
vt 0.9462891 0.6821289
vt 0.9399414 0.6821289
vt 0.9399414 0.6899414
vt 0.9462891 0.6899414
vt 0.9399414 0.6977539
vt 0.9462891 0.6977539
vt 0.9462891 0.7055664
vt 0.9399414 0.7055664
vt 0.9399414 0.7133789
vt 0.9462891 0.7133789
vt 0.9399414 0.7211914
vt 0.9462891 0.7211914
vt 0.9462891 0.7285156
vt 0.9399414 0.7285156
vt 0.4208984 0.8984375
vt 0.435791 0.8955078
vt 0.4279785 0.8955078
vt 0.4428711 0.9316406
vt 0.4152832 0.9257813
vt 0.4152832 0.9038086
vt 0.4123535 0.9111328
vt 0.4123535 0.9189453
vt 0.435791 0.9345703
vt 0.4279785 0.9345703
vt 0.4208984 0.9316406
vt 0.4484863 0.9038086
vt 0.4428711 0.8984375
vt 0.4484863 0.9257813
vt 0.451416 0.9189453
vt 0.451416 0.9111328
vt 0.9238281 0.3266602
vt 0.9174805 0.3234863
vt 0.9238281 0.3234863
vt 0.9174805 0.3266602
vt 0.9174805 0.3457031
vt 0.9145508 0.3266602
vt 0.9145508 0.3457031
vt 0.9238281 0.3457031
vt 0.9272461 0.3266602
vt 0.9272461 0.3457031
vt 0.9238281 0.348877
vt 0.9174805 0.348877
vt 0.9462891 0.6123047
vt 0.9399414 0.6044922
vt 0.9462891 0.6044922
vt 0.9399414 0.6123047
vt 0.9399414 0.6196289
vt 0.9462891 0.6196289
vt 0.9399414 0.6274414
vt 0.9462891 0.6274414
vt 0.9462891 0.6352539
vt 0.9399414 0.6352539
vt 0.9399414 0.6430664
vt 0.9462891 0.6430664
vt 0.9399414 0.6508789
vt 0.9462891 0.6508789
vt 0.9462891 0.6586914
vt 0.9399414 0.6586914
vt 0.9462891 0.6665039
vt 0.9399414 0.6665039
vt 0.9399414 0.6743164
vt 0.9462891 0.6743164
vt 0.9462891 0.6821289
vt 0.9399414 0.6821289
vt 0.9399414 0.6899414
vt 0.9462891 0.6899414
vt 0.9399414 0.6977539
vt 0.9462891 0.6977539
vt 0.9462891 0.7055664
vt 0.9399414 0.7055664
vt 0.9399414 0.7133789
vt 0.9462891 0.7133789
vt 0.9399414 0.7211914
vt 0.9462891 0.7211914
vt 0.9462891 0.7285156
vt 0.9399414 0.7285156
vt 0.4208984 0.8984375
vt 0.4279785 0.8955078
vt 0.435791 0.8955078
vt 0.4428711 0.9316406
vt 0.4152832 0.9257813
vt 0.4152832 0.9038086
vt 0.4123535 0.9111328
vt 0.4123535 0.9189453
vt 0.435791 0.9345703
vt 0.4279785 0.9345703
vt 0.4208984 0.9316406
vt 0.4484863 0.9038086
vt 0.4428711 0.8984375
vt 0.4484863 0.9257813
vt 0.451416 0.9189453
vt 0.451416 0.9111328
vt 0.4865723 0.9121094
vt 0.4880371 0.9316406
vt 0.4934082 0.9257813
vt 0.4963379 0.9189453
vt 0.4963379 0.9111328
vt 0.4934082 0.9038086
vt 0.4707031 0.9228516
vt 0.4831543 0.9067383
vt 0.4807129 0.9345703
vt 0.4880371 0.8984375
vt 0.4729004 0.9345703
vt 0.4658203 0.9316406
vt 0.4602051 0.9257813
vt 0.4807129 0.8955078
vt 0.4729004 0.8955078
vt 0.4658203 0.8984375
vt 0.467041 0.9174805
vt 0.4572754 0.9189453
vt 0.4602051 0.9038086
vt 0.4572754 0.9111328
vt 0.4865723 0.9121094
vt 0.4934082 0.9257813
vt 0.4880371 0.9316406
vt 0.4963379 0.9189453
vt 0.4963379 0.9111328
vt 0.4934082 0.9038086
vt 0.4707031 0.9228516
vt 0.4831543 0.9067383
vt 0.4807129 0.9345703
vt 0.4880371 0.8984375
vt 0.4729004 0.9345703
vt 0.4658203 0.9316406
vt 0.4602051 0.9257813
vt 0.4807129 0.8955078
vt 0.4729004 0.8955078
vt 0.4658203 0.8984375
vt 0.467041 0.9174805
vt 0.4572754 0.9189453
vt 0.4602051 0.9038086
vt 0.4572754 0.9111328
vn 0.8164063 -0.4082031 0.4082031
vn 0.4265137 -0.6396484 0.6396484
vn 0 -0.940918 0.3381348
vn 0 -0.9858398 -0.1690674
vn -0.8164063 -0.4082031 0.4082031
vn 0 -0.940918 0.3381348
vn -0.4265137 -0.6396484 0.6396484
vn 0 0.1690674 0.9858398
vn 0.4265137 -0.6396484 0.6396484
vn 0 -0.3381348 0.940918
vn 0 -0.3381348 0.940918
vn -0.4265137 -0.6396484 0.6396484
vn 0.6894531 0.6728516 -0.2687988
vn 0.7460938 0.4707031 -0.4707031
vn 0.7460938 -0.4707031 0.4707031
vn 0.6894531 -0.2687988 0.6728516
vn 0.527832 -0.09765625 0.84375
vn 0.527832 0.84375 -0.09765625
vn 0.2856445 0.01672363 0.9580078
vn 0.2856445 0.9580078 0.01672363
vn 0 0.9985352 0.05688477
vn 0 0.05688477 0.9985352
vn -0.2856445 0.01672363 0.9580078
vn -0.2856445 0.9580078 0.01672363
vn -0.527832 -0.09765625 0.84375
vn -0.527832 0.84375 -0.09765625
vn -0.6894531 0.6728516 -0.2687988
vn -0.6894531 -0.2687988 0.6728516
vn -0.7460938 0.4707031 -0.4707031
vn -0.7460938 -0.4707031 0.4707031
vn -0.6894531 -0.6728516 0.2687988
vn -0.6894531 0.2687988 -0.6728516
vn -0.527832 0.09765625 -0.84375
vn -0.527832 -0.84375 0.09765625
vn -0.2856445 -0.9580078 -0.01672363
vn -0.2856445 -0.01672363 -0.9580078
vn 0 -0.9985352 -0.05688477
vn 0 -0.05688477 -0.9985352
vn 0.2856445 -0.01672363 -0.9580078
vn 0.2856445 -0.9580078 -0.01672363
vn 0.527832 -0.84375 0.09765625
vn 0.527832 0.09765625 -0.84375
vn 0.6894531 -0.6728516 0.2687988
vn 0.6894531 0.2687988 -0.6728516
vn 0.7460938 0.4707031 -0.4707031
vn 0.7460938 -0.4707031 0.4707031
vn 0 -0.05688477 -0.9985352
vn -0.527832 0.09765625 -0.84375
vn -0.2856445 -0.01672363 -0.9580078
vn 0 0.9985352 0.05688477
vn 0.7460938 0.4707031 -0.4707031
vn 0.2856445 -0.01672363 -0.9580078
vn 0.527832 0.09765625 -0.84375
vn 0.6894531 0.2687988 -0.6728516
vn 0.2856445 0.9580078 0.01672363
vn 0.527832 0.84375 -0.09765625
vn 0.6894531 0.6728516 -0.2687988
vn -0.7460938 0.4707031 -0.4707031
vn -0.6894531 0.2687988 -0.6728516
vn -0.2856445 0.9580078 0.01672363
vn -0.527832 0.84375 -0.09765625
vn -0.6894531 0.6728516 -0.2687988
vn -0.8164063 -0.4082031 0.4082031
vn 0 -0.940918 0.3381348
vn -0.4265137 -0.6396484 0.6396484
vn 0 -0.9858398 -0.1690674
vn 0.8164063 -0.4082031 0.4082031
vn 0 -0.940918 0.3381348
vn 0.4265137 -0.6396484 0.6396484
vn 0 0.1690674 0.9858398
vn -0.4265137 -0.6396484 0.6396484
vn 0 -0.3381348 0.940918
vn 0 -0.3381348 0.940918
vn 0.4265137 -0.6396484 0.6396484
vn -0.6894531 0.6728516 -0.2687988
vn -0.7460938 -0.4707031 0.4707031
vn -0.7460938 0.4707031 -0.4707031
vn -0.6894531 -0.2687988 0.6728516
vn -0.527832 -0.09765625 0.84375
vn -0.527832 0.84375 -0.09765625
vn -0.2856445 0.01672363 0.9580078
vn -0.2856445 0.9580078 0.01672363
vn 0 0.9985352 0.05688477
vn 0 0.05688477 0.9985352
vn 0.2856445 0.01672363 0.9580078
vn 0.2856445 0.9580078 0.01672363
vn 0.527832 -0.09765625 0.84375
vn 0.527832 0.84375 -0.09765625
vn 0.6894531 0.6728516 -0.2687988
vn 0.6894531 -0.2687988 0.6728516
vn 0.7460938 0.4707031 -0.4707031
vn 0.7460938 -0.4707031 0.4707031
vn 0.6894531 -0.6728516 0.2687988
vn 0.6894531 0.2687988 -0.6728516
vn 0.527832 0.09765625 -0.84375
vn 0.527832 -0.84375 0.09765625
vn 0.2856445 -0.9580078 -0.01672363
vn 0.2856445 -0.01672363 -0.9580078
vn 0 -0.9985352 -0.05688477
vn 0 -0.05688477 -0.9985352
vn -0.2856445 -0.01672363 -0.9580078
vn -0.2856445 -0.9580078 -0.01672363
vn -0.527832 -0.84375 0.09765625
vn -0.527832 0.09765625 -0.84375
vn -0.6894531 -0.6728516 0.2687988
vn -0.6894531 0.2687988 -0.6728516
vn -0.7460938 0.4707031 -0.4707031
vn -0.7460938 -0.4707031 0.4707031
vn 0 -0.05688477 -0.9985352
vn 0.2856445 -0.01672363 -0.9580078
vn 0.527832 0.09765625 -0.84375
vn 0 0.9985352 0.05688477
vn -0.7460938 0.4707031 -0.4707031
vn -0.2856445 -0.01672363 -0.9580078
vn -0.527832 0.09765625 -0.84375
vn -0.6894531 0.2687988 -0.6728516
vn -0.2856445 0.9580078 0.01672363
vn -0.527832 0.84375 -0.09765625
vn -0.6894531 0.6728516 -0.2687988
vn 0.7460938 0.4707031 -0.4707031
vn 0.6894531 0.2687988 -0.6728516
vn 0.2856445 0.9580078 0.01672363
vn 0.527832 0.84375 -0.09765625
vn 0.6894531 0.6728516 -0.2687988
vn 0.4265137 -0.6396484 0.6396484
vn -0.527832 -0.84375 0.09765625
vn -0.6894531 -0.6728516 0.2687988
vn -0.7460938 -0.4707031 0.4707031
vn -0.6894531 -0.2687988 0.6728516
vn -0.527832 -0.09765625 0.84375
vn 0 -0.3381348 0.940918
vn 0 -0.940918 0.3381348
vn -0.2856445 -0.9580078 -0.01672363
vn -0.2856445 0.01672363 0.9580078
vn 0 -0.9985352 -0.05688477
vn 0.2856445 -0.9580078 -0.01672363
vn 0.527832 -0.84375 0.09765625
vn 0 0.05688477 0.9985352
vn 0.2856445 0.01672363 0.9580078
vn 0.527832 -0.09765625 0.84375
vn -0.4265137 -0.6396484 0.6396484
vn 0.6894531 -0.6728516 0.2687988
vn 0.6894531 -0.2687988 0.6728516
vn 0.7460938 -0.4707031 0.4707031
vn -0.4265137 -0.6396484 0.6396484
vn 0.6894531 -0.6728516 0.2687988
vn 0.527832 -0.84375 0.09765625
vn 0.7460938 -0.4707031 0.4707031
vn 0.6894531 -0.2687988 0.6728516
vn 0.527832 -0.09765625 0.84375
vn 0 -0.3381348 0.940918
vn 0 -0.940918 0.3381348
vn 0.2856445 -0.9580078 -0.01672363
vn 0.2856445 0.01672363 0.9580078
vn 0 -0.9985352 -0.05688477
vn -0.2856445 -0.9580078 -0.01672363
vn -0.527832 -0.84375 0.09765625
vn 0 0.05688477 0.9985352
vn -0.2856445 0.01672363 0.9580078
vn -0.527832 -0.09765625 0.84375
vn 0.4265137 -0.6396484 0.6396484
vn -0.6894531 -0.6728516 0.2687988
vn -0.6894531 -0.2687988 0.6728516
vn -0.7460938 -0.4707031 0.4707031
g tornillo_uv.004_0
f 3/3/3 2/2/2 1/1/1
f 4/4/4 3/3/3 1/1/1
f 5/5/5 4/4/4 1/1/1
f 6/6/6 4/4/4 5/5/5
f 7/7/7 6/6/6 5/5/5
f 8/8/8 5/5/5 1/1/1
f 1/1/1 9/9/9 8/8/8
f 9/9/9 10/10/10 8/8/8
f 8/8/8 11/11/11 5/5/5
f 11/11/11 12/12/12 5/5/5
f 15/15/15 14/14/14 13/13/13
f 16/16/16 15/15/15 13/13/13
f 17/17/17 16/16/16 13/13/13
f 18/18/18 17/17/17 13/13/13
f 19/19/19 17/17/17 18/18/18
f 20/20/20 19/19/19 18/18/18
f 19/19/19 20/20/20 21/21/21
f 22/22/22 19/19/19 21/21/21
f 23/23/23 22/22/22 21/21/21
f 24/24/24 23/23/23 21/21/21
f 25/25/25 23/23/23 24/24/24
f 26/26/26 25/25/25 24/24/24
f 25/25/25 26/26/26 27/27/27
f 28/28/28 25/25/25 27/27/27
f 28/28/28 27/27/27 29/29/29
f 30/30/30 28/28/28 29/29/29
f 31/31/31 30/30/30 29/29/29
f 32/32/32 31/31/31 29/29/29
f 31/31/31 32/32/32 33/33/33
f 34/34/34 31/31/31 33/33/33
f 35/35/35 34/34/34 33/33/33
f 36/36/36 35/35/35 33/33/33
f 37/37/37 35/35/35 36/36/36
f 38/38/38 37/37/37 36/36/36
f 37/37/37 38/38/38 39/39/39
f 40/40/40 37/37/37 39/39/39
f 41/41/41 40/40/40 39/39/39
f 42/42/42 41/41/41 39/39/39
f 43/43/43 41/41/41 42/42/42
f 44/44/44 43/43/43 42/42/42
f 43/43/43 44/44/44 45/45/45
f 46/46/46 43/43/43 45/45/45
f 49/49/49 48/48/48 47/47/47
f 48/48/48 50/50/50 47/47/47
f 51/51/51 47/47/47 50/50/50
f 52/52/52 47/47/47 51/51/51
f 52/52/52 51/51/51 53/53/53
f 54/54/54 53/53/53 51/51/51
f 55/55/55 51/51/51 50/50/50
f 56/56/56 51/51/51 55/55/55
f 57/57/57 51/51/51 56/56/56
f 58/58/58 50/50/50 48/48/48
f 59/59/59 58/58/58 48/48/48
f 60/60/60 50/50/50 58/58/58
f 60/60/60 58/58/58 61/61/61
f 62/62/62 61/61/61 58/58/58
f 65/65/65 64/64/64 63/63/63
f 64/64/64 66/66/66 63/63/63
f 66/66/66 67/67/67 63/63/63
f 66/66/66 68/68/68 67/67/67
f 68/68/68 69/69/69 67/67/67
f 67/67/67 70/70/70 63/63/63
f 71/71/71 63/63/63 70/70/70
f 72/72/72 71/71/71 70/70/70
f 73/73/73 70/70/70 67/67/67
f 74/74/74 73/73/73 67/67/67
f 77/77/77 76/76/76 75/75/75
f 76/76/76 78/78/78 75/75/75
f 78/78/78 79/79/79 75/75/75
f 79/79/79 80/80/80 75/75/75
f 79/79/79 81/81/81 80/80/80
f 81/81/81 82/82/82 80/80/80
f 82/82/82 81/81/81 83/83/83
f 81/81/81 84/84/84 83/83/83
f 84/84/84 85/85/85 83/83/83
f 85/85/85 86/86/86 83/83/83
f 85/85/85 87/87/87 86/86/86
f 87/87/87 88/88/88 86/86/86
f 88/88/88 87/87/87 89/89/89
f 87/87/87 90/90/90 89/89/89
f 89/89/89 90/90/90 91/91/91
f 90/90/90 92/92/92 91/91/91
f 92/92/92 93/93/93 91/91/91
f 93/93/93 94/94/94 91/91/91
f 94/94/94 93/93/93 95/95/95
f 93/93/93 96/96/96 95/95/95
f 96/96/96 97/97/97 95/95/95
f 97/97/97 98/98/98 95/95/95
f 97/97/97 99/99/99 98/98/98
f 99/99/99 100/100/100 98/98/98
f 100/100/100 99/99/99 101/101/101
f 99/99/99 102/102/102 101/101/101
f 102/102/102 103/103/103 101/101/101
f 103/103/103 104/104/104 101/101/101
f 103/103/103 105/105/105 104/104/104
f 105/105/105 106/106/106 104/104/104
f 106/106/106 105/105/105 107/107/107
f 105/105/105 108/108/108 107/107/107
f 111/111/111 110/110/110 109/109/109
f 112/112/112 111/111/111 109/109/109
f 109/109/109 113/113/113 112/112/112
f 109/109/109 114/114/114 113/113/113
f 113/113/113 114/114/114 115/115/115
f 115/115/115 116/116/116 113/113/113
f 113/113/113 117/117/117 112/112/112
f 113/113/113 118/118/118 117/117/117
f 113/113/113 119/119/119 118/118/118
f 112/112/112 120/120/120 111/111/111
f 120/120/120 121/121/121 111/111/111
f 112/112/112 122/122/122 120/120/120
f 120/120/120 122/122/122 123/123/123
f 123/123/123 124/124/124 120/120/120
f 127/127/127 126/126/126 125/125/125
f 127/127/127 125/125/125 128/128/128
f 129/129/129 128/128/128 125/125/125
f 129/129/129 125/125/125 130/130/130
f 125/125/125 126/126/126 131/131/131
f 125/125/125 132/132/132 130/130/130
f 133/133/133 131/131/131 126/126/126
f 130/130/130 132/132/132 134/134/134
f 135/135/135 131/131/131 133/133/133
f 136/136/136 131/131/131 135/135/135
f 137/137/137 131/131/131 136/136/136
f 134/134/134 132/132/132 138/138/138
f 139/139/139 138/138/138 132/132/132
f 139/139/139 132/132/132 140/140/140
f 141/141/141 131/131/131 137/137/137
f 141/141/141 140/140/140 132/132/132
f 142/142/142 141/141/141 137/137/137
f 140/140/140 141/141/141 143/143/143
f 142/142/142 144/144/144 141/141/141
f 143/143/143 141/141/141 144/144/144
f 147/147/147 146/146/146 145/145/145
f 145/145/145 146/146/146 148/148/148
f 148/148/148 149/149/149 145/145/145
f 145/145/145 149/149/149 150/150/150
f 147/147/147 145/145/145 151/151/151
f 152/152/152 145/145/145 150/150/150
f 151/151/151 153/153/153 147/147/147
f 152/152/152 150/150/150 154/154/154
f 151/151/151 155/155/155 153/153/153
f 151/151/151 156/156/156 155/155/155
f 151/151/151 157/157/157 156/156/156
f 152/152/152 154/154/154 158/158/158
f 158/158/158 159/159/159 152/152/152
f 152/152/152 159/159/159 160/160/160
f 151/151/151 161/161/161 157/157/157
f 160/160/160 161/161/161 152/152/152
f 161/161/161 162/162/162 157/157/157
f 161/161/161 160/160/160 163/163/163
f 164/164/164 162/162/162 161/161/161
f 161/161/161 163/163/163 164/164/164
