g Tree_2
v 0.323843 2.834436 -0.03705597
v 0.3123453 1.471891 -0.05644512
v 0.313989 0.1066265 -0.0426178
v 0.323843 2.834436 -0.03705597
v 0.313989 0.1066265 -0.0426178
v 0.2669902 2.828086 0.02779102
v 0.1172905 5.590545 0.02528381
v 0.1882925 4.324168 0.02282238
v 0.1665086 2.876298 -0.001960754
v 0.1172905 5.590545 0.02528381
v 0.1665086 2.876298 -0.001960754
v 0.1615412 2.875144 -0.06170082
v 0.2203306 2.705181 -0.1153212
v 0.2882843 2.777452 -0.0980463
v 0.1659427 5.446433 -0.1578064
v 0.2203306 2.705181 -0.1153212
v 0.1659427 5.446433 -0.1578064
v 0.1615412 2.875144 -0.06170082
v 0.2882843 2.777452 -0.0980463
v 0.323843 2.834436 -0.03705597
v 0.331508 4.191978 -0.05174065
v 0.2669902 2.828086 0.02779102
v 0.1894052 1.548606 -0.01580238
v 0.1665086 2.876298 -0.001960754
v 0.3424727 5.545784 -0.01699543
v 0.1882925 4.324168 0.02282238
v 0.1172905 5.590545 0.02528381
v 0.3123453 1.471891 -0.05644512
v 0.2203306 2.705181 -0.1153212
v 0.2309072 1.352776 -0.1178808
v 0.1172905 5.590545 0.02528381
v 0.1615412 2.875144 -0.06170082
v 0.1659427 5.446433 -0.1578064
v 0.3424727 5.545784 -0.01699543
v 0.331508 4.191978 -0.05174065
v 0.2701889 4.127131 0.05970955
v 0.3424727 5.545784 -0.01699543
v 0.2701889 4.127131 0.05970955
v 0.1882925 4.324168 0.02282238
v 0.1894052 1.548606 -0.01580238
v 0.1793951 0.1655385 -0.03291035
v 0.1733738 1.517928 -0.08125401
v 0.2669902 2.828086 0.02779102
v 0.313989 0.1066265 -0.0426178
v 0.2364668 0.2293503 0.02302074
v 0.4229066 6.120203 0.8474216
v 0.1726612 6.499395 0.8727551
v 0.5615844 5.964964 0.3998594
v 1.641537 5.537851 -0.5318298
v 1.314252 7.46874 -0.09908867
v 0.9381702 6.219021 -0.7598944
v 1.641537 5.537851 -0.5318298
v 0.9381702 6.219021 -0.7598944
v 0.5972667 5.558012 -0.4041691
v 1.314252 7.46874 -0.09908867
v 0.7896121 8.355635 -0.4773226
v 0.7343115 8.187221 -0.7131462
v -0.6763872 6.084956 -0.5766087
v -0.6512638 5.673984 -0.4751329
v -0.2193633 5.630073 -1.004481
v -0.6763872 6.084956 -0.5766087
v -0.2193633 5.630073 -1.004481
v -0.2448475 5.90857 -0.5786467
v -0.1818939 8.12372 -1.020495
v -0.1808501 8.881011 -0.8959541
v -0.6967171 8.148801 0.1602421
v -0.1818939 8.12372 -1.020495
v -0.6967171 8.148801 0.1602421
v -0.1547327 8.299907 0.3097382
v 0.9381702 6.219021 -0.7598944
v 0.5690347 7.006972 -1.21895
v 0.3311232 6.41049 -1.328714
v -0.6763872 6.084956 -0.5766087
v -0.7249798 6.13716 -0.0253706
v -0.6512638 5.673984 -0.4751329
v 0.05814171 4.077483 0.7023697
v -0.7249798 6.13716 -0.0253706
v 0.4229066 6.120203 0.8474216
v 0.05814171 4.077483 0.7023697
v 0.4229066 6.120203 0.8474216
v 0.8530075 4.765471 0.4380083
v -0.2448475 5.90857 -0.5786467
v -0.2193633 5.630073 -1.004481
v 0.3311232 6.41049 -1.328714
v -0.2448475 5.90857 -0.5786467
v 0.3311232 6.41049 -1.328714
v -0.498697 6.516693 -1.315224
v -0.8235291 7.41117 -0.6161127
v -0.3705345 7.32539 -1.047477
v -0.1818939 8.12372 -1.020495
v 0.3754324 9.799773 -0.1853065
v -0.1808501 8.881011 -0.8959541
v 0.7896121 8.355635 -0.4773226
v 0.3754324 9.799773 -0.1853065
v 0.7896121 8.355635 -0.4773226
v 0.527719 8.769982 0.2296963
v 0.4229066 6.120203 0.8474216
v 0.5615844 5.964964 0.3998594
v 1.038104 5.330889 0.9571962
v 0.4229066 6.120203 0.8474216
v 1.038104 5.330889 0.9571962
v 0.8530075 4.765471 0.4380083
v 0.8530075 4.765471 0.4380083
v 1.038104 5.330889 0.9571962
v 1.641537 5.537851 -0.5318298
v 0.8530075 4.765471 0.4380083
v 1.641537 5.537851 -0.5318298
v 0.5972667 5.558012 -0.4041691
v 1.314252 7.46874 -0.09908867
v 1.641537 5.537851 -0.5318298
v 1.038104 5.330889 0.9571962
v 1.314252 7.46874 -0.09908867
v 1.038104 5.330889 0.9571962
v 0.5615844 5.964964 0.3998594
v 0.3754324 9.799773 -0.1853065
v 0.527719 8.769982 0.2296963
v -0.6967171 8.148801 0.1602421
v 0.3754324 9.799773 -0.1853065
v -0.6967171 8.148801 0.1602421
v -0.1808501 8.881011 -0.8959541
v -0.2193633 5.630073 -1.004481
v -0.6512638 5.673984 -0.4751329
v -0.2435862 4.657014 -0.8485384
v -0.2193633 5.630073 -1.004481
v -0.2435862 4.657014 -0.8485384
v 0.8107635 5.250946 -0.8928843
v -0.6763872 6.084956 -0.5766087
v -0.2448475 5.90857 -0.5786467
v -0.498697 6.516693 -1.315224
v 0.2669902 2.828086 0.02779102
v 0.2364668 0.2293503 0.02302074
v 0.1793951 0.1655385 -0.03291035
v 0.1894052 1.548606 -0.01580238
v 0.2882843 2.777452 -0.0980463
v 0.331508 4.191978 -0.05174065
v 0.3424727 5.545784 -0.01699543
v 0.1659427 5.446433 -0.1578064
v 0.2882843 2.777452 -0.0980463
v 0.2203306 2.705181 -0.1153212
v 0.3123453 1.471891 -0.05644512
v 0.323843 2.834436 -0.03705597
v 0.1615412 2.875144 -0.06170082
v 0.1733738 1.517928 -0.08125401
v 0.2309072 1.352776 -0.1178808
v 0.2203306 2.705181 -0.1153212
v 0.1665086 2.876298 -0.001960754
v 0.1882925 4.324168 0.02282238
v 0.2701889 4.127131 0.05970955
v 0.2669902 2.828086 0.02779102
v 0.2309072 1.352776 -0.1178808
v 0.244867 1.639128E-07 -0.1115818
v 0.313989 0.1066265 -0.0426178
v 0.3123453 1.471891 -0.05644512
v 0.323843 2.834436 -0.03705597
v 0.2669902 2.828086 0.02779102
v 0.2701889 4.127131 0.05970955
v 0.331508 4.191978 -0.05174065
v 0.1733738 1.517928 -0.08125401
v 0.1615412 2.875144 -0.06170082
v 0.1665086 2.876298 -0.001960754
v 0.1894052 1.548606 -0.01580238
v 0.244867 1.639128E-07 -0.1115818
v 0.2309072 1.352776 -0.1178808
v 0.1733738 1.517928 -0.08125401
v 0.1793951 0.1655385 -0.03291035
v -0.6169766 7.440392 0.3813
v -0.7249798 6.13716 -0.0253706
v -0.6763872 6.084956 -0.5766087
v -0.8235291 7.41117 -0.6161127
v 0.5690347 7.006972 -1.21895
v 0.9381702 6.219021 -0.7598944
v 1.314252 7.46874 -0.09908867
v 0.7343115 8.187221 -0.7131462
v 0.527719 8.769982 0.2296963
v 0.4603333 8.545378 0.5775652
v -0.1547327 8.299907 0.3097382
v -0.6967171 8.148801 0.1602421
v 0.4603333 8.545378 0.5775652
v 1.314252 7.46874 -0.09908867
v 0.5615844 5.964964 0.3998594
v 0.1726612 6.499395 0.8727551
v 0.1726612 6.499395 0.8727551
v 0.4229066 6.120203 0.8474216
v -0.7249798 6.13716 -0.0253706
v -0.6169766 7.440392 0.3813
v 0.5972667 5.558012 -0.4041691
v 0.9381702 6.219021 -0.7598944
v 0.8107635 5.250946 -0.8928843
v 0.8530075 4.765471 0.4380083
v -0.1547327 8.299907 0.3097382
v -0.6169766 7.440392 0.3813
v -0.8235291 7.41117 -0.6161127
v -0.1818939 8.12372 -1.020495
v -0.1547327 8.299907 0.3097382
v 0.4603333 8.545378 0.5775652
v 0.1726612 6.499395 0.8727551
v -0.6169766 7.440392 0.3813
v -0.1818939 8.12372 -1.020495
v -0.3705345 7.32539 -1.047477
v 0.5690347 7.006972 -1.21895
v 0.7343115 8.187221 -0.7131462
v 0.05814171 4.077483 0.7023697
v 0.8530075 4.765471 0.4380083
v 0.8107635 5.250946 -0.8928843
v -0.2435862 4.657014 -0.8485384
v -0.6512638 5.673984 -0.4751329
v -0.7249798 6.13716 -0.0253706
v 0.05814171 4.077483 0.7023697
v -0.2435862 4.657014 -0.8485384
v 0.7896121 8.355635 -0.4773226
v 1.314252 7.46874 -0.09908867
v 0.4603333 8.545378 0.5775652
v 0.527719 8.769982 0.2296963
v -0.6763872 6.084956 -0.5766087
v -0.498697 6.516693 -1.315224
v -0.3705345 7.32539 -1.047477
v -0.8235291 7.41117 -0.6161127
v -0.2193633 5.630073 -1.004481
v 0.8107635 5.250946 -0.8928843
v 0.9381702 6.219021 -0.7598944
v 0.3311232 6.41049 -1.328714
v 0.3311232 6.41049 -1.328714
v 0.5690347 7.006972 -1.21895
v -0.3705345 7.32539 -1.047477
v -0.498697 6.516693 -1.315224
v 0.7343115 8.187221 -0.7131462
v 0.7896121 8.355635 -0.4773226
v -0.1808501 8.881011 -0.8959541
v -0.1818939 8.12372 -1.020495
vt 0.5856348 0.6130785
vt 0.5118256 0.6125117
vt 0.4378758 0.6131024
vt 0.5856348 0.6130785
vt 0.4378758 0.6131024
vt 0.5852875 0.6176848
vt 0.7366417 0.6147246
vt 0.668108 0.6125117
vt 0.5898287 0.6142913
vt 0.7366417 0.6147246
vt 0.5898287 0.6142913
vt 0.5897307 0.6170285
vt 0.4277052 0.3268966
vt 0.4316984 0.3302479
vt 0.5808177 0.3246789
vt 0.4277052 0.3268966
vt 0.5808177 0.3246789
vt 0.437155 0.3228858
vt 0.7295042 0.8284982
vt 0.7325991 0.8320519
vt 0.8030509 0.8289537
vt 0.6507846 0.8922114
vt 0.5843185 0.8967254
vt 0.6532892 0.8976544
vt 0.5713499 0.7431889
vt 0.5082471 0.753807
vt 0.5741178 0.7549945
vt 0.8243098 0.9462588
vt 0.7600766 0.9494032
vt 0.8302845 0.9517959
vt 0.968931 0.002
vt 0.8278838 0.00695052
vt 0.9614454 0.01183989
vt 0.6082975 0.4686202
vt 0.5374466 0.4682538
vt 0.533968 0.4738676
vt 0.6082975 0.4686202
vt 0.533968 0.4738676
vt 0.5443727 0.4767098
vt 0.9816113 0.7349842
vt 0.9097714 0.7359703
vt 0.9800178 0.7384844
vt 0.9706555 0.56731
vt 0.8292926 0.563097
vt 0.8356673 0.5683729
vt 0.9159164 0.1334556
vt 0.9355801 0.1203426
vt 0.8933756 0.1212387
vt 0.1195451 0.2941371
vt 0.2260928 0.281047
vt 0.1554954 0.2520886
vt 0.1195451 0.2941371
vt 0.1554954 0.2520886
vt 0.1193893 0.2422183
vt 0.9919749 0.3791412
vt 0.9352547 0.3733471
vt 0.9351714 0.3886706
vt 0.9515554 0.1149973
vt 0.9547654 0.1345661
vt 0.9913015 0.1343028
vt 0.9515554 0.1149973
vt 0.9913015 0.1343028
vt 0.9742598 0.1152575
vt 0.1799053 0.3521366
vt 0.1804171 0.3900382
vt 0.2649883 0.3709657
vt 0.1799053 0.3521366
vt 0.2649883 0.3709657
vt 0.263451 0.3539263
vt 0.1248902 0.9256182
vt 0.08613095 0.8923169
vt 0.08054984 0.9256931
vt 0.1859646 0.933319
vt 0.1573577 0.9372155
vt 0.1858277 0.9553452
vt 0.1750766 0.06476258
vt 0.3012047 0.07178635
vt 0.2725364 0.002
vt 0.1750766 0.06476258
vt 0.2725364 0.002
vt 0.1960506 0.01534101
vt 0.2242852 0.4863387
vt 0.2241567 0.5052088
vt 0.2772306 0.5260351
vt 0.2242852 0.4863387
vt 0.2772306 0.5260351
vt 0.2796666 0.4809458
vt 0.2004673 0.8314536
vt 0.1999891 0.7986621
vt 0.1573577 0.798845
vt 0.6757279 0.02696473
vt 0.6086833 0.01787382
vt 0.608747 0.07919136
vt 0.6757279 0.02696473
vt 0.608747 0.07919136
vt 0.650567 0.07896738
vt 0.1573577 0.4462849
vt 0.1694517 0.4469886
vt 0.2223217 0.4768498
vt 0.1573577 0.4462849
vt 0.2223217 0.4768498
vt 0.2575186 0.4478695
vt 0.4135621 0.1882837
vt 0.4232113 0.1546853
vt 0.3307997 0.1558969
vt 0.4135621 0.1882837
vt 0.3307997 0.1558969
vt 0.352305 0.2061868
vt 0.002 0.2166753
vt 0.1074754 0.2222473
vt 0.1079207 0.1388115
vt 0.002 0.2166753
vt 0.1079207 0.1388115
vt 0.0662271 0.1519134
vt 0.3053007 0.06954118
vt 0.3638296 0.06791815
vt 0.3980893 0.002
vt 0.3053007 0.06954118
vt 0.3980893 0.002
vt 0.3231898 0.002937069
vt 0.7138048 0.06363276
vt 0.7417768 0.07830071
vt 0.7430475 0.01817313
vt 0.7138048 0.06363276
vt 0.7430475 0.01817313
vt 0.6798238 0.01787382
vt 0.3366155 0.6996832
vt 0.3356708 0.7238802
vt 0.3819583 0.7016801
vt 0.8710806 0.5811005
vt 0.7349183 0.5825242
vt 0.7315758 0.5866787
vt 0.804041 0.5857183
vt 0.6625377 0.1457575
vt 0.7360207 0.1489975
vt 0.8063558 0.1505368
vt 0.801191 0.1388115
vt 0.7484409 0.4381511
vt 0.7445219 0.4346857
vt 0.6780078 0.4405535
vt 0.7514951 0.4416853
vt 0.6006083 0.8721914
vt 0.5299357 0.873301
vt 0.5213365 0.8768381
vt 0.5917577 0.8763205
vt 0.8329878 0.7027112
vt 0.9082953 0.7011884
vt 0.8980526 0.6965233
vt 0.8304735 0.6972795
vt 0.982726 0.6965233
vt 0.9123912 0.6972858
vt 0.9179345 0.7023506
vt 0.9889199 0.7018144
vt 0.427642 0.2151435
vt 0.4273072 0.2195966
vt 0.4949771 0.2208874
vt 0.4983508 0.2142856
vt 0.5345188 0.8582714
vt 0.6051414 0.8573727
vt 0.6052055 0.8542655
vt 0.5361111 0.8547738
vt 0.4378758 0.8775224
vt 0.5085933 0.8772436
vt 0.5172405 0.8737677
vt 0.4465187 0.8721914
vt 0.07106487 0.4755577
vt 0.003827735 0.4998454
vt 0.002 0.5283763
vt 0.07167524 0.5286242
vt 0.3719516 0.1213888
vt 0.3915231 0.07421036
vt 0.3155362 0.07363713
vt 0.3053007 0.1303032
vt 0.5298721 0.4675832
vt 0.5222746 0.4462849
vt 0.4855928 0.4585599
vt 0.4553016 0.4671506
vt 0.1152934 0.3029147
vt 0.09322554 0.2263432
vt 0.002 0.2297393
vt 0.01150009 0.2707718
vt 0.5393806 0.06539357
vt 0.5295564 0.08651198
vt 0.6045874 0.08742656
vt 0.5891603 0.01787382
vt 0.45132 0.02115756
vt 0.4021853 0.01994739
vt 0.4465367 0.06111341
vt 0.5254605 0.01787382
vt 0.8169672 0.06888443
vt 0.8140221 0.01823781
vt 0.7611625 0.01787382
vt 0.7471434 0.07002237
vt 0.1914388 0.09107443
vt 0.1750766 0.124317
vt 0.2835442 0.1290919
vt 0.2399497 0.0758823
vt 0.7642885 0.1254092
vt 0.8066247 0.1258673
vt 0.8148871 0.07411832
vt 0.7471434 0.07808026
vt 0.3267038 0.2184905
vt 0.309802 0.1647895
vt 0.2368382 0.1546853
vt 0.2392193 0.2175526
vt 0.2184333 0.1693343
vt 0.2327423 0.1388115
vt 0.1120167 0.1427301
vt 0.171487 0.2070161
vt 0.8587071 0.01787382
vt 0.8210632 0.0610154
vt 0.9010864 0.05853895
vt 0.8990244 0.03730544
vt 0.07253533 0.6773779
vt 0.0514474 0.6371363
vt 0.007373399 0.644904
vt 0.002 0.6763994
vt 0.6798238 0.1343136
vt 0.7376661 0.1343738
vt 0.7309302 0.0836736
vt 0.6873876 0.08239666
vt 0.394247 0.3977195
vt 0.387049 0.4307559
vt 0.438381 0.4408991
vt 0.4376839 0.3961494
vt 0.8622956 0.159941
vt 0.855158 0.1722108
vt 0.9134908 0.1950974
vt 0.9132931 0.1546853
vn 0.8510992 -0.004144936 0.5249887
vn 0.8510992 -0.004144936 0.5249887
vn 0.8510992 -0.004144935 0.5249886
vn 0.8510992 -0.004144936 0.5249887
vn 0.8510992 -0.004144935 0.5249886
vn 0.8510992 -0.004144935 0.5249886
vn -0.7968543 -0.02051049 0.6038233
vn -0.7968543 -0.02051049 0.6038234
vn -0.7968543 -0.02051049 0.6038234
vn -0.7968543 -0.02051049 0.6038233
vn -0.7968543 -0.02051049 0.6038234
vn -0.7968543 -0.02051049 0.6038232
vn -0.2902262 -0.02058621 -0.9567366
vn -0.2902262 -0.02058621 -0.9567366
vn -0.2902262 -0.02058621 -0.9567367
vn -0.2902262 -0.02058621 -0.9567366
vn -0.2902262 -0.02058621 -0.9567367
vn -0.2902262 -0.02058621 -0.9567367
vn 0.8679963 -0.01027124 -0.4964643
vn 0.8679963 -0.01027124 -0.4964643
vn 0.8679963 -0.01027124 -0.4964643
vn -0.2904794 -0.01498403 0.956764
vn -0.2904793 -0.01498403 0.956764
vn -0.2904793 -0.01498403 0.956764
vn 0.1861617 0.008527908 0.9824821
vn 0.1861617 0.008527908 0.9824821
vn 0.1861618 0.008527908 0.9824821
vn 0.5964469 0.006183684 -0.8026287
vn 0.596447 0.006183685 -0.8026286
vn 0.5964469 0.006183684 -0.8026287
vn -0.9679249 -0.007729141 -0.251121
vn -0.9679249 -0.00772914 -0.2511209
vn -0.9679249 -0.007729141 -0.251121
vn 0.4783588 0.02309142 0.8778608
vn 0.4783588 0.02309142 0.8778608
vn 0.4783588 0.02309142 0.8778608
vn 0.4783588 0.02309142 0.8778608
vn 0.4783588 0.02309142 0.8778608
vn 0.4783588 0.02309142 0.8778608
vn -0.9717245 0.004112747 0.2360815
vn -0.9717245 0.004112747 0.2360815
vn -0.9717245 0.004112747 0.2360815
vn 0.6379127 -0.008906124 0.7700572
vn 0.6379127 -0.008906124 0.7700572
vn 0.6379126 -0.008906124 0.7700572
vn 0.8347496 0.5462674 0.06917274
vn 0.8347498 0.5462674 0.06917275
vn 0.8347498 0.5462674 0.06917275
vn 0.3312747 0.02628468 -0.9431681
vn 0.3312747 0.02628468 -0.9431681
vn 0.3312747 0.02628468 -0.9431681
vn 0.3312747 0.02628468 -0.9431681
vn 0.3312747 0.02628468 -0.9431681
vn 0.3312747 0.02628468 -0.9431681
vn 0.8464969 0.3189473 -0.4262809
vn 0.8464969 0.3189473 -0.4262809
vn 0.8464969 0.3189473 -0.4262809
vn -0.4203172 0.3608201 -0.8325517
vn -0.4203172 0.3608201 -0.8325517
vn -0.4203173 0.3608201 -0.8325517
vn -0.4203172 0.3608201 -0.8325517
vn -0.4203173 0.3608201 -0.8325517
vn -0.4203172 0.3608201 -0.8325517
vn -0.706953 -0.6429902 -0.2945864
vn -0.7069529 -0.6429902 -0.2945863
vn -0.706953 -0.6429902 -0.2945864
vn -0.706953 -0.6429902 -0.2945864
vn -0.706953 -0.6429902 -0.2945864
vn -0.706953 -0.6429902 -0.2945864
vn 0.6570453 -0.1252734 -0.7433693
vn 0.6570453 -0.1252734 -0.7433693
vn 0.6570454 -0.1252734 -0.7433693
vn -0.9935437 -0.08048049 -0.07996078
vn -0.9935437 -0.08048048 -0.07996078
vn -0.9935437 -0.08048049 -0.07996078
vn -0.2939941 -0.01536437 0.9556838
vn -0.2939941 -0.01536437 0.9556838
vn -0.2939941 -0.01536437 0.9556838
vn -0.2939941 -0.01536437 0.9556838
vn -0.2939941 -0.01536437 0.9556838
vn -0.2939941 -0.01536437 0.9556838
vn -0.557521 -0.4254836 -0.7128353
vn -0.557521 -0.4254836 -0.7128353
vn -0.557521 -0.4254836 -0.7128352
vn -0.557521 -0.4254836 -0.7128353
vn -0.557521 -0.4254836 -0.7128352
vn -0.557521 -0.4254836 -0.7128352
vn -0.6601105 0.1806228 -0.7291293
vn -0.6601105 0.1806228 -0.7291293
vn -0.6601104 0.1806228 -0.7291293
vn 0.8131816 0.330142 -0.4793141
vn 0.8131816 0.330142 -0.4793141
vn 0.8131816 0.330142 -0.4793141
vn 0.8131816 0.330142 -0.4793141
vn 0.8131816 0.330142 -0.4793141
vn 0.8131816 0.330142 -0.4793141
vn -0.1960566 -0.01645042 0.9804546
vn -0.1960566 -0.01645042 0.9804546
vn -0.1960566 -0.01645042 0.9804546
vn -0.1960566 -0.01645042 0.9804546
vn -0.1960566 -0.01645042 0.9804546
vn -0.1960566 -0.01645042 0.9804546
vn 0.463656 -0.8372713 -0.2898273
vn 0.463656 -0.8372713 -0.2898273
vn 0.463656 -0.8372713 -0.2898273
vn 0.463656 -0.8372713 -0.2898273
vn 0.463656 -0.8372713 -0.2898273
vn 0.4636561 -0.8372713 -0.2898273
vn 0.6872043 0.2485145 0.6826352
vn 0.6872042 0.2485145 0.6826352
vn 0.6872042 0.2485145 0.6826352
vn 0.6872043 0.2485145 0.6826352
vn 0.6872042 0.2485145 0.6826352
vn 0.6872042 0.2485145 0.6826352
vn -0.6839579 0.5455388 0.4843438
vn -0.6839579 0.5455388 0.4843439
vn -0.6839579 0.5455388 0.4843439
vn -0.6839579 0.5455388 0.4843438
vn -0.6839579 0.5455388 0.4843439
vn -0.6839579 0.5455388 0.4843439
vn -0.3099319 -0.1429224 -0.9399549
vn -0.3099319 -0.1429224 -0.9399549
vn -0.3099319 -0.1429224 -0.9399549
vn -0.3099319 -0.1429224 -0.9399549
vn -0.3099319 -0.1429224 -0.9399549
vn -0.309932 -0.1429224 -0.9399549
vn -0.3219795 -0.7815684 -0.5343034
vn -0.3219795 -0.7815684 -0.5343034
vn -0.3219794 -0.7815684 -0.5343034
vn -0.6059035 0.001796795 0.7955362
vn -0.6059035 0.001796795 0.7955362
vn -0.6059035 0.001796795 0.7955362
vn -0.6059035 0.001796795 0.7955362
vn 0.6005058 0.01165417 -0.7995355
vn 0.6005058 0.01165417 -0.7995355
vn 0.6005058 0.01165417 -0.7995355
vn 0.6005058 0.01165417 -0.7995355
vn 0.6139815 -0.01383209 -0.7891992
vn 0.6139815 -0.01383209 -0.7891992
vn 0.6139814 -0.01383209 -0.7891992
vn 0.6139815 -0.01383209 -0.7891992
vn -0.6104339 0.001415512 -0.792066
vn -0.6104339 0.001415512 -0.792066
vn -0.6104338 0.001415512 -0.7920659
vn -0.6104338 0.001415512 -0.7920659
vn -0.3620017 -0.0159468 0.932041
vn -0.3620017 -0.0159468 0.932041
vn -0.3620017 -0.0159468 0.932041
vn -0.3620017 -0.0159468 0.932041
vn 0.6562413 -0.001819921 -0.7545488
vn 0.6562413 -0.001819921 -0.7545488
vn 0.6562412 -0.001819921 -0.7545488
vn 0.6562414 -0.001819921 -0.7545488
vn 0.83194 -0.007001362 0.5548216
vn 0.8319399 -0.007001361 0.5548216
vn 0.83194 -0.007001362 0.5548216
vn 0.83194 -0.007001362 0.5548216
vn -0.9854914 -0.01485027 0.169075
vn -0.9854914 -0.01485027 0.169075
vn -0.9854914 -0.01485027 0.169075
vn -0.9854914 -0.01485027 0.169075
vn -0.7110863 -0.01944911 -0.7028356
vn -0.7110863 -0.01944911 -0.7028357
vn -0.7110863 -0.01944911 -0.7028357
vn -0.7110863 -0.01944911 -0.7028357
vn -0.9942589 -0.02917448 0.1029468
vn -0.9942589 -0.02917448 0.1029468
vn -0.9942589 -0.02917448 0.1029468
vn -0.9942589 -0.02917448 0.1029468
vn 0.8095106 0.09759681 -0.5789364
vn 0.8095106 0.09759681 -0.5789364
vn 0.8095106 0.09759682 -0.5789364
vn 0.8095106 0.09759681 -0.5789364
vn -0.4393926 0.7276074 0.5268031
vn -0.4393926 0.7276075 0.5268031
vn -0.4393926 0.7276075 0.5268031
vn -0.4393926 0.7276075 0.5268031
vn 0.6605983 -0.02575016 0.7502979
vn 0.6605983 -0.02575016 0.7502979
vn 0.6605982 -0.02575016 0.7502979
vn 0.6605982 -0.02575016 0.7502979
vn -0.6357468 -0.2419641 0.7329934
vn -0.6357468 -0.2419641 0.7329934
vn -0.6357468 -0.2419641 0.7329934
vn -0.6357468 -0.2419641 0.7329934
vn 0.9378908 0.1862618 0.2926901
vn 0.9378908 0.1862618 0.2926901
vn 0.9378908 0.1862618 0.2926901
vn 0.9378908 0.1862618 0.2926901
vn -0.8136505 0.5805556 0.03046411
vn -0.8136505 0.5805556 0.03046411
vn -0.8136505 0.5805556 0.03046411
vn -0.8136505 0.5805556 0.03046411
vn -0.38138 0.2120113 0.899778
vn -0.38138 0.2120112 0.899778
vn -0.38138 0.2120113 0.899778
vn -0.3813799 0.2120112 0.899778
vn 0.1037879 0.2412589 -0.9648949
vn 0.1037879 0.2412589 -0.9648949
vn 0.1037879 0.2412589 -0.9648949
vn 0.1037879 0.2412589 -0.9648949
vn 0.492592 -0.7955416 -0.3527983
vn 0.492592 -0.7955416 -0.3527983
vn 0.492592 -0.7955416 -0.3527983
vn 0.492592 -0.7955416 -0.3527983
vn -0.9324299 -0.3510041 0.08585336
vn -0.9324299 -0.3510041 0.08585337
vn -0.9324299 -0.3510041 0.08585336
vn -0.9324299 -0.3510041 0.08585337
vn 0.8611166 0.4741325 0.1835115
vn 0.8611166 0.4741324 0.1835115
vn 0.8611166 0.4741325 0.1835115
vn 0.8611166 0.4741325 0.1835115
vn -0.884593 0.04179417 -0.4644872
vn -0.884593 0.04179417 -0.4644872
vn -0.884593 0.04179417 -0.4644872
vn -0.884593 0.04179417 -0.4644872
vn 0.3077868 -0.2205611 -0.9255377
vn 0.3077868 -0.2205611 -0.9255377
vn 0.3077868 -0.2205611 -0.9255377
vn 0.3077868 -0.2205611 -0.9255377
vn -0.03629945 0.2680948 -0.9627084
vn -0.03629944 0.2680948 -0.9627084
vn -0.03629944 0.2680948 -0.9627084
vn -0.03629945 0.2680948 -0.9627084
vn 0.4065735 0.3098362 -0.8594763
vn 0.4065735 0.3098363 -0.8594763
vn 0.4065736 0.3098363 -0.8594763
vn 0.4065736 0.3098363 -0.8594763
g Tree_2_0
f 3/3/3 2/2/2 1/1/1
f 6/6/6 5/5/5 4/4/4
f 9/9/9 8/8/8 7/7/7
f 12/12/12 11/11/11 10/10/10
f 15/15/15 14/14/14 13/13/13
f 18/18/18 17/17/17 16/16/16
f 21/21/21 20/20/20 19/19/19
f 24/24/24 23/23/23 22/22/22
f 27/27/27 26/26/26 25/25/25
f 30/30/30 29/29/29 28/28/28
f 33/33/33 32/32/32 31/31/31
f 36/36/36 35/35/35 34/34/34
f 39/39/39 38/38/38 37/37/37
f 42/42/42 41/41/41 40/40/40
f 45/45/45 44/44/44 43/43/43
f 48/48/48 47/47/47 46/46/46
f 51/51/51 50/50/50 49/49/49
f 54/54/54 53/53/53 52/52/52
f 57/57/57 56/56/56 55/55/55
f 60/60/60 59/59/59 58/58/58
f 63/63/63 62/62/62 61/61/61
f 66/66/66 65/65/65 64/64/64
f 69/69/69 68/68/68 67/67/67
f 72/72/72 71/71/71 70/70/70
f 75/75/75 74/74/74 73/73/73
f 78/78/78 77/77/77 76/76/76
f 81/81/81 80/80/80 79/79/79
f 84/84/84 83/83/83 82/82/82
f 87/87/87 86/86/86 85/85/85
f 90/90/90 89/89/89 88/88/88
f 93/93/93 92/92/92 91/91/91
f 96/96/96 95/95/95 94/94/94
f 99/99/99 98/98/98 97/97/97
f 102/102/102 101/101/101 100/100/100
f 105/105/105 104/104/104 103/103/103
f 108/108/108 107/107/107 106/106/106
f 111/111/111 110/110/110 109/109/109
f 114/114/114 113/113/113 112/112/112
f 117/117/117 116/116/116 115/115/115
f 120/120/120 119/119/119 118/118/118
f 123/123/123 122/122/122 121/121/121
f 126/126/126 125/125/125 124/124/124
f 129/129/129 128/128/128 127/127/127
f 132/132/132 131/131/131 130/130/130
f 133/133/133 132/132/132 130/130/130
f 136/136/136 135/135/135 134/134/134
f 137/137/137 136/136/136 134/134/134
f 140/140/140 139/139/139 138/138/138
f 141/141/141 140/140/140 138/138/138
f 144/144/144 143/143/143 142/142/142
f 145/145/145 144/144/144 142/142/142
f 148/148/148 147/147/147 146/146/146
f 149/149/149 148/148/148 146/146/146
f 152/152/152 151/151/151 150/150/150
f 153/153/153 152/152/152 150/150/150
f 156/156/156 155/155/155 154/154/154
f 157/157/157 156/156/156 154/154/154
f 160/160/160 159/159/159 158/158/158
f 161/161/161 160/160/160 158/158/158
f 164/164/164 163/163/163 162/162/162
f 165/165/165 164/164/164 162/162/162
f 168/168/168 167/167/167 166/166/166
f 169/169/169 168/168/168 166/166/166
f 172/172/172 171/171/171 170/170/170
f 173/173/173 172/172/172 170/170/170
f 176/176/176 175/175/175 174/174/174
f 177/177/177 176/176/176 174/174/174
f 180/180/180 179/179/179 178/178/178
f 181/181/181 180/180/180 178/178/178
f 184/184/184 183/183/183 182/182/182
f 185/185/185 184/184/184 182/182/182
f 188/188/188 187/187/187 186/186/186
f 189/189/189 188/188/188 186/186/186
f 192/192/192 191/191/191 190/190/190
f 193/193/193 192/192/192 190/190/190
f 196/196/196 195/195/195 194/194/194
f 197/197/197 196/196/196 194/194/194
f 200/200/200 199/199/199 198/198/198
f 201/201/201 200/200/200 198/198/198
f 204/204/204 203/203/203 202/202/202
f 205/205/205 204/204/204 202/202/202
f 208/208/208 207/207/207 206/206/206
f 209/209/209 208/208/208 206/206/206
f 212/212/212 211/211/211 210/210/210
f 213/213/213 212/212/212 210/210/210
f 216/216/216 215/215/215 214/214/214
f 217/217/217 216/216/216 214/214/214
f 220/220/220 219/219/219 218/218/218
f 221/221/221 220/220/220 218/218/218
f 224/224/224 223/223/223 222/222/222
f 225/225/225 224/224/224 222/222/222
f 228/228/228 227/227/227 226/226/226
f 229/229/229 228/228/228 226/226/226
