g triangle_marker_V1_P3_L1
v -0.2674173 -0.133609 0.03
v -0.01800005 0.2983945 0.03000002
v -0.01799997 0.2263946 0.03000001
v -0.2050635 -0.09760896 0.03
v -0.01799997 0.2263946 -0.03000001
v -0.2050635 -0.09760896 -0.03
v -0.2050635 -0.09760896 0.03
v -0.01799997 0.2263946 0.03000001
v -0.01800005 0.2983945 -0.03000002
v -0.01799997 0.2263946 -0.03000001
v -0.01799997 0.2263946 0.03000001
v -0.01800005 0.2983945 0.03000002
v -0.2674173 -0.133609 -0.03
v -0.01800005 0.2983945 -0.03000002
v -0.01800005 0.2983945 0.03000002
v -0.2674173 -0.133609 0.03
v -0.2674173 -0.133609 -0.03
v -0.2050635 -0.09760896 -0.03
v -0.01799997 0.2263946 -0.03000001
v -0.01800005 0.2983945 -0.03000002
v -0.2050635 -0.09760896 -0.03
v -0.2674173 -0.133609 -0.03
v -0.2674173 -0.133609 0.03
v -0.2050635 -0.09760896 0.03
vt 0.2766092 0.01154768
vt 0.2766093 0.95522
vt 0.344712 0.8372632
vt 0.3447125 0.1295061
vt 0.1234212 0.8538781
vt 0.1234212 0.1461217
vt 0.009916193 0.1461216
vt 0.009915764 0.8538781
vt 0.1234212 0.9900842
vt 0.1234212 0.8538781
vt 0.009915764 0.8538781
vt 0.009915764 0.9900842
vt 0.1432626 0.009915821
vt 0.1432626 0.9535877
vt 0.2567678 0.9535877
vt 0.2567677 0.009915764
vt 0.4326569 0.01154762
vt 0.3645541 0.1295053
vt 0.3645538 0.837263
vt 0.4326569 0.9552207
vt 0.1234212 0.1461217
vt 0.1234212 0.009915821
vt 0.00991625 0.009915764
vt 0.009916193 0.1461216
vn 0 0 1
vn 0 0 1
vn 0 0 1
vn 0 0 1
vn 0.8660254 -0.5 0
vn 0.8660254 -0.5 0
vn 0.8660254 -0.5 0
vn 0.8660254 -0.5 0
vn 1 0 0
vn 1 0 0
vn 1 0 0
vn 1 0 0
vn -0.8660255 0.4999999 0
vn -0.8660255 0.4999999 0
vn -0.8660255 0.4999999 0
vn -0.8660255 0.4999999 0
vn 0 0 -1
vn 0 0 -1
vn 0 0 -1
vn 0 0 -1
vn 0.5000004 -0.8660253 0
vn 0.5000004 -0.8660253 0
vn 0.5000004 -0.8660253 0
vn 0.5000004 -0.8660253 0
g triangle_marker_V1_P3_L1_0
f 3/3/3 2/2/2 1/1/1
f 4/4/4 3/3/3 1/1/1
f 7/7/7 6/6/6 5/5/5
f 8/8/8 7/7/7 5/5/5
f 11/11/11 10/10/10 9/9/9
f 12/12/12 11/11/11 9/9/9
f 15/15/15 14/14/14 13/13/13
f 16/16/16 15/15/15 13/13/13
f 19/19/19 18/18/18 17/17/17
f 20/20/20 19/19/19 17/17/17
f 23/23/23 22/22/22 21/21/21
f 24/24/24 23/23/23 21/21/21
