g triangle_marker_V2_P5_L0
v -0.1799999 -0.1647857 -0.02399996
v -0.1799999 -0.1287857 -0.02399997
v -0.1799999 -0.1287857 0.02399997
v -0.1799999 -0.1647857 0.02399996
v 0.1799999 -0.1647857 -0.02399999
v -0.1799999 -0.1647857 -0.02399996
v -0.1799999 -0.1647857 0.02399996
v 0.1799999 -0.1647857 0.02399999
v 0.1799999 -0.1287858 -0.02399999
v 0.1799999 -0.1647857 -0.02399999
v 0.1799999 -0.1647857 0.02399999
v 0.1799999 -0.1287858 0.02399999
v 0.1799999 -0.1647857 0.02399999
v 0.1739999 -0.1587857 0.02999999
v 0.1739999 -0.1347858 0.02999999
v 0.1799999 -0.1287858 0.02399999
v 0.1799999 -0.1287858 0.02399999
v 0.1739999 -0.1347858 0.02999999
v -0.1739999 -0.1347857 0.02999997
v -0.1799999 -0.1287857 0.02399997
v -0.1799999 -0.1287857 0.02399997
v -0.1739999 -0.1347857 0.02999997
v -0.1739999 -0.1587857 0.02999996
v -0.1799999 -0.1647857 0.02399996
v -0.1799999 -0.1647857 0.02399996
v -0.1739999 -0.1587857 0.02999996
v 0.1739999 -0.1587857 0.02999999
v 0.1799999 -0.1647857 0.02399999
v 0.1739999 -0.1587857 0.02999999
v -0.1739999 -0.1587857 0.02999996
v -0.1739999 -0.1347857 0.02999997
v 0.1739999 -0.1347858 0.02999999
v 0.1799999 -0.1647857 -0.02399999
v 0.1799999 -0.1287858 -0.02399999
v 0.1739999 -0.1347858 -0.02999999
v 0.1739999 -0.1587857 -0.02999999
v 0.1799999 -0.1287858 -0.02399999
v -0.1799999 -0.1287857 -0.02399997
v -0.1739999 -0.1347857 -0.02999997
v 0.1739999 -0.1347858 -0.02999999
v -0.1799999 -0.1287857 -0.02399997
v -0.1799999 -0.1647857 -0.02399996
v -0.1739999 -0.1587857 -0.02999996
v -0.1739999 -0.1347857 -0.02999997
v -0.1799999 -0.1647857 -0.02399996
v 0.1799999 -0.1647857 -0.02399999
v 0.1739999 -0.1587857 -0.02999999
v -0.1739999 -0.1587857 -0.02999996
v 0.1739999 -0.1587857 -0.02999999
v 0.1739999 -0.1347858 -0.02999999
v -0.1739999 -0.1347857 -0.02999997
v -0.1739999 -0.1587857 -0.02999996
v -0.1799999 -0.1287857 -0.02399997
v 0.1799999 -0.1287858 -0.02399999
v 0.1799999 -0.1287858 0.02399999
v -0.1799999 -0.1287857 0.02399997
vt 0.009918727 0.118827
vt 0.09159907 0.118827
vt 0.0915991 0.00992005
vt 0.009918787 0.00992005
vt 0.826724 0.1388457
vt 0.009922068 0.1388456
vt 0.009922068 0.2477528
vt 0.826724 0.2477527
vt 0.908401 0.1188272
vt 0.9900813 0.1188272
vt 0.9900813 0.009920013
vt 0.908401 0.009920013
vt 0.8848025 0.2677841
vt 0.8702211 0.2823656
vt 0.8702213 0.3406911
vt 0.8848026 0.3552725
vt 0.8848026 0.3552725
vt 0.8702213 0.3406911
vt 0.02449874 0.3406911
vt 0.009917279 0.3552726
vt 0.009917279 0.3552726
vt 0.02449874 0.3406911
vt 0.02449866 0.2823654
vt 0.00991722 0.267784
vt 0.00991722 0.267784
vt 0.02449866 0.2823654
vt 0.8702211 0.2823656
vt 0.8848025 0.2677841
vt 0.8702211 0.2823656
vt 0.02449866 0.2823654
vt 0.02449874 0.3406911
vt 0.8702213 0.3406911
vt 0.009917259 0.3768808
vt 0.0099172 0.4643691
vt 0.02449852 0.4497878
vt 0.0244987 0.3914622
vt 0.0099172 0.4643691
vt 0.8848025 0.4643693
vt 0.870221 0.4497878
vt 0.02449852 0.4497878
vt 0.8848025 0.4643693
vt 0.8848026 0.3768807
vt 0.8702211 0.3914621
vt 0.870221 0.4497878
vt 0.8848026 0.3768807
vt 0.009917259 0.3768808
vt 0.0244987 0.3914622
vt 0.8702211 0.3914621
vt 0.0244987 0.3914622
vt 0.02449852 0.4497878
vt 0.870221 0.4497878
vt 0.8702211 0.3914621
vt 0.09159907 0.118827
vt 0.908401 0.1188272
vt 0.908401 0.009920013
vt 0.0915991 0.00992005
vn -1 0 0
vn -1 0 0
vn -1 0 0
vn -1 0 0
vn 0 -1 0
vn 0 -1 0
vn 0 -1 0
vn 0 -1 0
vn 1 0 0
vn 1 0 0
vn 1 0 0
vn 1 0 0
vn 0.7071061 0 0.7071074
vn 0.7071061 0 0.7071074
vn 0.7071061 0 0.7071074
vn 0.7071061 0 0.7071074
vn 0 0.7071068 0.7071066
vn 0 0.7071068 0.7071066
vn 0 0.7071068 0.7071066
vn 0 0.7071068 0.7071066
vn -0.7071059 0 0.7071076
vn -0.7071059 0 0.7071076
vn -0.7071059 0 0.7071076
vn -0.7071059 0 0.7071076
vn 0 -0.7071068 0.7071066
vn 0 -0.7071068 0.7071066
vn 0 -0.7071068 0.7071066
vn 0 -0.7071068 0.7071066
vn 0 0 1
vn 0 0 1
vn 0 0 1
vn 0 0 1
vn 0.7071058 0 -0.7071077
vn 0.7071058 0 -0.7071077
vn 0.7071058 0 -0.7071077
vn 0.7071058 0 -0.7071077
vn 0 0.7071068 -0.7071066
vn 0 0.7071068 -0.7071066
vn 0 0.7071068 -0.7071066
vn 0 0.7071068 -0.7071066
vn -0.7071056 0 -0.7071079
vn -0.7071056 0 -0.7071079
vn -0.7071056 0 -0.7071079
vn -0.7071056 0 -0.7071079
vn 0 -0.7071068 -0.7071066
vn 0 -0.7071068 -0.7071066
vn 0 -0.7071068 -0.7071066
vn 0 -0.7071068 -0.7071066
vn 0 0 -1
vn 0 0 -1
vn 0 0 -1
vn 0 0 -1
vn 0 1 0
vn 0 1 0
vn 0 1 0
vn 0 1 0
g triangle_marker_V2_P5_L0_0
f 3/3/3 2/2/2 1/1/1
f 4/4/4 3/3/3 1/1/1
f 7/7/7 6/6/6 5/5/5
f 8/8/8 7/7/7 5/5/5
f 11/11/11 10/10/10 9/9/9
f 12/12/12 11/11/11 9/9/9
f 15/15/15 14/14/14 13/13/13
f 16/16/16 15/15/15 13/13/13
f 19/19/19 18/18/18 17/17/17
f 20/20/20 19/19/19 17/17/17
f 23/23/23 22/22/22 21/21/21
f 24/24/24 23/23/23 21/21/21
f 27/27/27 26/26/26 25/25/25
f 28/28/28 27/27/27 25/25/25
f 31/31/31 30/30/30 29/29/29
f 32/32/32 31/31/31 29/29/29
f 35/35/35 34/34/34 33/33/33
f 36/36/36 35/35/35 33/33/33
f 39/39/39 38/38/38 37/37/37
f 40/40/40 39/39/39 37/37/37
f 43/43/43 42/42/42 41/41/41
f 44/44/44 43/43/43 41/41/41
f 47/47/47 46/46/46 45/45/45
f 48/48/48 47/47/47 45/45/45
f 51/51/51 50/50/50 49/49/49
f 52/52/52 51/51/51 49/49/49
f 55/55/55 54/54/54 53/53/53
f 56/56/56 55/55/55 53/53/53
