g triangle_marker_V2_P3_L1
v -0.1799999 0.01780239 0.03
v -0.08635511 0.18 0.03000001
v -0.04478587 0.1800001 0.03000001
v -0.1799999 -0.05419757 0.03
v -0.1799999 -0.05419757 -0.03
v -0.1799999 0.01780239 -0.03
v -0.1799999 0.01780239 0.03
v -0.1799999 -0.05419757 0.03
v -0.1799999 0.01780239 -0.03
v -0.08635511 0.18 -0.03000001
v -0.08635511 0.18 0.03000001
v -0.1799999 0.01780239 0.03
v -0.08635511 0.18 -0.03000001
v -0.04478587 0.1800001 -0.03000001
v -0.04478587 0.1800001 0.03000001
v -0.08635511 0.18 0.03000001
v -0.1799999 0.01780239 -0.03
v -0.1799999 -0.05419757 -0.03
v -0.04478587 0.1800001 -0.03000001
v -0.08635511 0.18 -0.03000001
v -0.04478587 0.1800001 -0.03000001
v -0.1799999 -0.05419757 -0.03
v -0.1799999 -0.05419757 0.03
v -0.04478587 0.1800001 0.03000001
vt 0.4406716 0.2147185
vt 0.4406714 0.8248405
vt 0.5579464 0.8925496
vt 0.5579466 0.01159229
vt 0.009955272 0.009955171
vt 0.009955272 0.2445051
vt 0.2054137 0.2445051
vt 0.2054137 0.009955171
vt 0.009955272 0.2445051
vt 0.009955222 0.8546272
vt 0.2054138 0.8546273
vt 0.2054137 0.2445051
vt 0.009955222 0.8546272
vt 0.009955171 0.990045
vt 0.2054138 0.990045
vt 0.2054138 0.8546273
vt 0.6951244 0.2147176
vt 0.5778497 0.01159229
vt 0.5778497 0.8925498
vt 0.6951249 0.8248405
vt 0.4207726 0.8909128
vt 0.4207726 0.009955272
vt 0.2253143 0.009955171
vt 0.2253141 0.8909127
vn 0 0 1
vn 0 0 1
vn 0 0 1
vn 0 0 1
vn -1 0 0
vn -1 0 0
vn -1 0 0
vn -1 0 0
vn -0.8660254 0.4999999 0
vn -0.8660254 0.4999999 0
vn -0.8660254 0.4999999 0
vn -0.8660254 0.4999999 0
vn 0 1 0
vn 0 1 0
vn 0 1 0
vn 0 1 0
vn 0 0 -1
vn 0 0 -1
vn 0 0 -1
vn 0 0 -1
vn 0.8660254 -0.4999999 0
vn 0.8660254 -0.4999999 0
vn 0.8660254 -0.4999999 0
vn 0.8660254 -0.4999999 0
g triangle_marker_V2_P3_L1_0
f 3/3/3 2/2/2 1/1/1
f 4/4/4 3/3/3 1/1/1
f 7/7/7 6/6/6 5/5/5
f 8/8/8 7/7/7 5/5/5
f 11/11/11 10/10/10 9/9/9
f 12/12/12 11/11/11 9/9/9
f 15/15/15 14/14/14 13/13/13
f 16/16/16 15/15/15 13/13/13
f 19/19/19 18/18/18 17/17/17
f 20/20/20 19/19/19 17/17/17
f 23/23/23 22/22/22 21/21/21
f 24/24/24 23/23/23 21/21/21
