g triangle_marker_V2_P5_L1
v 0.1799999 -0.1647857 0.02999999
v -0.1799999 -0.1647857 0.02999996
v -0.1799999 -0.1287857 0.02999997
v 0.1799999 -0.1287858 0.02999999
v -0.1799999 -0.1647857 -0.02999996
v -0.1799999 -0.1287857 -0.02999997
v -0.1799999 -0.1287857 0.02999997
v -0.1799999 -0.1647857 0.02999996
v 0.1799999 -0.1647857 -0.02999999
v -0.1799999 -0.1647857 -0.02999996
v -0.1799999 -0.1647857 0.02999996
v 0.1799999 -0.1647857 0.02999999
v 0.1799999 -0.1287858 -0.02999999
v 0.1799999 -0.1647857 -0.02999999
v 0.1799999 -0.1647857 0.02999999
v 0.1799999 -0.1287858 0.02999999
v 0.1799999 -0.1647857 -0.02999999
v 0.1799999 -0.1287858 -0.02999999
v -0.1799999 -0.1287857 -0.02999997
v -0.1799999 -0.1647857 -0.02999996
v -0.1799999 -0.1287857 -0.02999997
v 0.1799999 -0.1287858 -0.02999999
v 0.1799999 -0.1287858 0.02999999
v -0.1799999 -0.1287857 0.02999997
vt 0.8267162 0.3274639
vt 0.009926729 0.3274645
vt 0.009926867 0.4091434
vt 0.8267164 0.4091427
vt 0.009926729 0.1460584
vt 0.09160569 0.1460584
vt 0.09160569 0.009927006
vt 0.009926729 0.009927006
vt 0.8267154 0.1686904
vt 0.009926729 0.1686903
vt 0.009926729 0.3048221
vt 0.8267154 0.3048219
vt 0.9083945 0.1460585
vt 0.9900733 0.1460584
vt 0.9900733 0.009926729
vt 0.9083945 0.009926762
vt 0.8267158 0.5133252
vt 0.8267158 0.4316463
vt 0.009926729 0.4316462
vt 0.009926729 0.5133252
vt 0.09160569 0.1460584
vt 0.9083945 0.1460585
vt 0.9083945 0.009926762
vt 0.09160569 0.009927006
vn 0 0 1
vn 0 0 1
vn 0 0 1
vn 0 0 1
vn -1 0 0
vn -1 0 0
vn -1 0 0
vn -1 0 0
vn 0 -1 0
vn 0 -1 0
vn 0 -1 0
vn 0 -1 0
vn 1 0 0
vn 1 0 0
vn 1 0 0
vn 1 0 0
vn 0 0 -1
vn 0 0 -1
vn 0 0 -1
vn 0 0 -1
vn 0 1 0
vn 0 1 0
vn 0 1 0
vn 0 1 0
g triangle_marker_V2_P5_L1_0
f 3/3/3 2/2/2 1/1/1
f 4/4/4 3/3/3 1/1/1
f 7/7/7 6/6/6 5/5/5
f 8/8/8 7/7/7 5/5/5
f 11/11/11 10/10/10 9/9/9
f 12/12/12 11/11/11 9/9/9
f 15/15/15 14/14/14 13/13/13
f 16/16/16 15/15/15 13/13/13
f 19/19/19 18/18/18 17/17/17
f 20/20/20 19/19/19 17/17/17
f 23/23/23 22/22/22 21/21/21
f 24/24/24 23/23/23 21/21/21
