g triangle_marker_V2_P1_L0
v -4.328109E-09 0.02957139 0.03
v 0.02560958 -0.01478569 0.03
v -0.02560958 -0.0147857 0.03
v -4.328109E-09 0.02957139 -0.03
v -0.02560958 -0.0147857 -0.03
v 0.02560958 -0.01478569 -0.03
v -5.602331E-09 0.04157139 -0.024
v 0.03600188 -0.02078569 -0.024
v 0.03600188 -0.02078569 0.024
v -5.602331E-09 0.04157139 0.024
v -0.03600188 -0.0207857 -0.024
v -5.602331E-09 0.04157139 -0.024
v -5.602331E-09 0.04157139 0.024
v -0.03600188 -0.0207857 0.024
v -5.602331E-09 0.04157139 0.024
v -4.328109E-09 0.02957139 0.03
v -0.02560958 -0.0147857 0.03
v -0.03600188 -0.0207857 0.024
v -0.03600188 -0.0207857 0.024
v -0.02560958 -0.0147857 0.03
v 0.02560958 -0.01478569 0.03
v 0.03600188 -0.02078569 0.024
v 0.03600188 -0.02078569 0.024
v 0.02560958 -0.01478569 0.03
v -4.328109E-09 0.02957139 0.03
v -5.602331E-09 0.04157139 0.024
v -5.602331E-09 0.04157139 -0.024
v -0.03600188 -0.0207857 -0.024
v -0.02560958 -0.0147857 -0.03
v -4.328109E-09 0.02957139 -0.03
v -0.03600188 -0.0207857 -0.024
v 0.03600188 -0.02078569 -0.024
v 0.02560958 -0.01478569 -0.03
v -0.02560958 -0.0147857 -0.03
v 0.03600188 -0.02078569 -0.024
v -5.602331E-09 0.04157139 -0.024
v -4.328109E-09 0.02957139 -0.03
v 0.02560958 -0.01478569 -0.03
v 0.03600188 -0.02078569 -0.024
v -0.03600188 -0.0207857 -0.024
v -0.03600188 -0.0207857 0.024
v 0.03600188 -0.02078569 0.024
vt 0.190719 0.4977002
vt 0.3182716 0.2767726
vt 0.06316639 0.2767725
vt 0.5710168 0.4977002
vt 0.6985695 0.2767725
vt 0.4434643 0.2767725
vt 0.3366244 0.2277002
vt 0.6633757 0.2277002
vt 0.6633757 0.00987748
vt 0.3366244 0.009877427
vt 0.009873058 0.2277002
vt 0.3366244 0.2277002
vt 0.3366244 0.009877427
vt 0.009873058 0.009877457
vt 0.190719 0.5574682
vt 0.190719 0.4977002
vt 0.06316639 0.2767725
vt 0.01140582 0.2468885
vt 0.01140582 0.2468885
vt 0.06316639 0.2767725
vt 0.3182716 0.2767726
vt 0.3700322 0.2468886
vt 0.3700322 0.2468886
vt 0.3182716 0.2767726
vt 0.190719 0.4977002
vt 0.190719 0.5574682
vt 0.5710168 0.5574682
vt 0.75033 0.2468885
vt 0.6985695 0.2767725
vt 0.5710168 0.4977002
vt 0.75033 0.2468885
vt 0.3917037 0.2468885
vt 0.4434643 0.2767725
vt 0.6985695 0.2767725
vt 0.3917037 0.2468885
vt 0.5710168 0.5574682
vt 0.5710168 0.4977002
vt 0.4434643 0.2767725
vt 0.6633757 0.2277002
vt 0.9901268 0.2277003
vt 0.990127 0.009877575
vt 0.6633757 0.00987748
vn 0 0 1
vn 0 0 1
vn 0 0 1
vn 0 0 -1
vn 0 0 -1
vn 0 0 -1
vn 0.8660253 0.5000001 0
vn 0.8660253 0.5000001 0
vn 0.8660253 0.5000001 0
vn 0.8660253 0.5000001 0
vn -0.8660254 0.4999999 0
vn -0.8660254 0.4999999 0
vn -0.8660254 0.4999999 0
vn -0.8660254 0.4999999 0
vn -0.6123725 0.3535534 0.7071066
vn -0.6123725 0.3535534 0.7071066
vn -0.6123725 0.3535534 0.7071066
vn -0.6123725 0.3535534 0.7071066
vn 0 -0.7071067 0.7071068
vn 0 -0.7071067 0.7071068
vn 0 -0.7071067 0.7071068
vn 0 -0.7071067 0.7071068
vn 0.6123725 0.3535534 0.7071067
vn 0.6123725 0.3535534 0.7071067
vn 0.6123725 0.3535534 0.7071067
vn 0.6123725 0.3535534 0.7071067
vn -0.6123725 0.3535534 -0.7071067
vn -0.6123725 0.3535534 -0.7071067
vn -0.6123725 0.3535534 -0.7071067
vn -0.6123725 0.3535534 -0.7071067
vn 0 -0.7071067 -0.7071068
vn 0 -0.7071067 -0.7071068
vn 0 -0.7071067 -0.7071068
vn 0 -0.7071067 -0.7071068
vn 0.6123725 0.3535533 -0.7071068
vn 0.6123725 0.3535533 -0.7071068
vn 0.6123725 0.3535533 -0.7071068
vn 0.6123725 0.3535533 -0.7071068
vn 0 -1 0
vn 0 -1 0
vn 0 -1 0
vn 0 -1 0
g triangle_marker_V2_P1_L0_0
f 3/3/3 2/2/2 1/1/1
f 6/6/6 5/5/5 4/4/4
f 9/9/9 8/8/8 7/7/7
f 10/10/10 9/9/9 7/7/7
f 13/13/13 12/12/12 11/11/11
f 14/14/14 13/13/13 11/11/11
f 17/17/17 16/16/16 15/15/15
f 18/18/18 17/17/17 15/15/15
f 21/21/21 20/20/20 19/19/19
f 22/22/22 21/21/21 19/19/19
f 25/25/25 24/24/24 23/23/23
f 26/26/26 25/25/25 23/23/23
f 29/29/29 28/28/28 27/27/27
f 30/30/30 29/29/29 27/27/27
f 33/33/33 32/32/32 31/31/31
f 34/34/34 33/33/33 31/31/31
f 37/37/37 36/36/36 35/35/35
f 38/38/38 37/37/37 35/35/35
f 41/41/41 40/40/40 39/39/39
f 42/42/42 41/41/41 39/39/39
