g triangle_marker_V2_P1_L1
v -5.602331E-09 0.04157139 0.03
v 0.03600188 -0.02078569 0.03
v -0.03600188 -0.0207857 0.03
v -5.602331E-09 0.04157139 -0.03
v -0.03600188 -0.0207857 -0.03
v 0.03600188 -0.02078569 -0.03
v -5.602331E-09 0.04157139 -0.03
v 0.03600188 -0.02078569 -0.03
v 0.03600188 -0.02078569 0.03
v -5.602331E-09 0.04157139 0.03
v -0.03600188 -0.0207857 -0.03
v -5.602331E-09 0.04157139 -0.03
v -5.602331E-09 0.04157139 0.03
v -0.03600188 -0.0207857 0.03
v 0.03600188 -0.02078569 -0.03
v -0.03600188 -0.0207857 -0.03
v -0.03600188 -0.0207857 0.03
v 0.03600188 -0.02078569 0.03
vt 0.3126888 0.6306362
vt 0.5956387 0.467275
vt 0.3126888 0.3039138
vt 0.2928663 0.3039138
vt 0.009916318 0.467275
vt 0.2928663 0.6306363
vt 0.3366388 0.2821709
vt 0.6633613 0.2821708
vt 0.6633613 0.009916353
vt 0.3366389 0.009916259
vt 0.009916306 0.282171
vt 0.3366388 0.2821709
vt 0.3366389 0.009916259
vt 0.009916259 0.009916306
vt 0.6633613 0.2821708
vt 0.9900836 0.2821709
vt 0.9900838 0.009916457
vt 0.6633613 0.009916353
vn 0 0 1
vn 0 0 1
vn 0 0 1
vn 0 0 -1
vn 0 0 -1
vn 0 0 -1
vn 0.8660253 0.5000001 0
vn 0.8660253 0.5000001 0
vn 0.8660253 0.5000001 0
vn 0.8660253 0.5000001 0
vn -0.8660255 0.4999999 0
vn -0.8660255 0.4999999 0
vn -0.8660255 0.4999999 0
vn -0.8660255 0.4999999 0
vn 0 -1 0
vn 0 -1 0
vn 0 -1 0
vn 0 -1 0
g triangle_marker_V2_P1_L1_0
f 3/3/3 2/2/2 1/1/1
f 6/6/6 5/5/5 4/4/4
f 9/9/9 8/8/8 7/7/7
f 10/10/10 9/9/9 7/7/7
f 13/13/13 12/12/12 11/11/11
f 14/14/14 13/13/13 11/11/11
f 17/17/17 16/16/16 15/15/15
f 18/18/18 17/17/17 15/15/15
