g WheelFrontLeft003
v -0.1999994 -0.3 -1.220703E-06
v -0.1999994 -1.907349E-08 0.2999988
v -0.1999994 -0.2121321 0.2121307
v -0.1999994 -7.105427E-17 -0.3000012
v -0.1999994 -0.2121321 -0.2121332
v -0.1999994 0.3 -1.220703E-06
v -0.1999994 0.212132 0.2121307
v -0.1999994 0.212132 -0.2121332
v -0.1999994 -7.105427E-17 -0.3000012
v 0.2000006 0.212132 -0.2121332
v -0.1999994 0.212132 -0.2121332
v 0.2000006 -1.907349E-08 -0.3000012
v -0.1999994 0.212132 -0.2121332
v 0.2000006 0.3 -1.220703E-06
v -0.1999994 0.3 -1.220703E-06
v 0.2000006 0.212132 -0.2121332
v -0.1999994 0.3 -1.220703E-06
v 0.2000006 0.212132 0.2121307
v -0.1999994 0.212132 0.2121307
v 0.2000006 0.3 -1.220703E-06
v -0.1999994 0.212132 0.2121307
v 0.2000006 -3.814697E-08 0.2999988
v -0.1999994 -1.907349E-08 0.2999988
v 0.2000006 0.212132 0.2121307
v -0.1999994 -1.907349E-08 0.2999988
v 0.2000006 -0.2121321 0.2121307
v -0.1999994 -0.2121321 0.2121307
v 0.2000006 -3.814697E-08 0.2999988
v -0.1999994 -0.2121321 0.2121307
v 0.2000006 -0.3 -1.220703E-06
v -0.1999994 -0.3 -1.220703E-06
v 0.2000006 -0.2121321 0.2121307
v -0.1999994 -0.3 -1.220703E-06
v 0.2000006 -0.2121321 -0.2121332
v -0.1999994 -0.2121321 -0.2121332
v 0.2000006 -0.3 -1.220703E-06
v -0.1999994 -0.2121321 -0.2121332
v 0.2000006 -1.907349E-08 -0.3000012
v -0.1999994 -7.105427E-17 -0.3000012
v 0.2000006 -0.2121321 -0.2121332
v 0.1000006 -1.907349E-08 -0.191762
v 0.1000006 0.1917608 -1.220703E-06
v 0.1000006 0.1355953 -0.1355966
v 0.1000006 -0.1917608 -1.220703E-06
v 0.1000006 -0.1355954 -0.1355965
v 0.1000006 -3.814697E-08 0.1917595
v 0.1000006 0.1355954 0.1355942
v 0.1000006 -0.1355954 0.135594
v 0.2000006 -1.907349E-08 -0.191762
v 0.1000006 0.1355953 -0.1355966
v 0.2000006 0.1355953 -0.1355966
v 0.1000006 -1.907349E-08 -0.191762
v 0.2000006 0.1355953 -0.1355966
v 0.1000006 0.1917608 -1.220703E-06
v 0.2000006 0.1917608 -1.220703E-06
v 0.1000006 0.1355953 -0.1355966
v 0.2000006 0.1917608 -1.220703E-06
v 0.1000006 0.1355954 0.1355942
v 0.2000006 0.1355953 0.1355942
v 0.1000006 0.1917608 -1.220703E-06
v 0.2000006 0.1355953 0.1355942
v 0.1000006 -3.814697E-08 0.1917595
v 0.2000006 -3.814697E-08 0.1917595
v 0.1000006 0.1355954 0.1355942
v 0.2000006 -3.814697E-08 0.1917595
v 0.1000006 -0.1355954 0.135594
v 0.2000006 -0.1355954 0.135594
v 0.1000006 -3.814697E-08 0.1917595
v 0.2000006 -0.1355954 0.135594
v 0.1000006 -0.1917608 -1.220703E-06
v 0.2000006 -0.1917608 -1.220703E-06
v 0.1000006 -0.1355954 0.135594
v 0.2000006 -0.1917608 -1.220703E-06
v 0.1000006 -0.1355954 -0.1355965
v 0.2000006 -0.1355954 -0.1355965
v 0.1000006 -0.1917608 -1.220703E-06
v 0.2000006 -0.1355954 -0.1355965
v 0.1000006 -1.907349E-08 -0.191762
v 0.2000006 -1.907349E-08 -0.191762
v 0.1000006 -0.1355954 -0.1355965
v 0.2000006 0.1355953 -0.1355966
v 0.2000006 -1.907349E-08 -0.3000012
v 0.2000006 -1.907349E-08 -0.191762
v 0.2000006 0.212132 -0.2121332
v 0.2000006 -0.2121321 -0.2121332
v 0.2000006 0.1917608 -1.220703E-06
v 0.2000006 -0.1355954 -0.1355965
v 0.2000006 0.3 -1.220703E-06
v 0.2000006 -0.3 -1.220703E-06
v 0.2000006 0.1355953 0.1355942
v 0.2000006 -0.1917608 -1.220703E-06
v 0.2000006 0.212132 0.2121307
v 0.2000006 -0.2121321 0.2121307
v 0.2000006 -3.814697E-08 0.1917595
v 0.2000006 -0.1355954 0.135594
v 0.2000006 -3.814697E-08 0.2999988
vt 0.4451268 0.63147
vt 0.434448 0.6565524
vt 0.4449822 0.6462229
vt 0.4200444 0.6207913
vt 0.4347973 0.6209359
vt 0.4093657 0.6458737
vt 0.4196953 0.6564078
vt 0.4095104 0.6311209
vt 0.403897 0.8694373
vt 0.4295989 0.8546838
vt 0.403897 0.8546838
vt 0.4295989 0.8694373
vt 0.3501862 0.8694372
vt 0.375888 0.8546838
vt 0.3501862 0.8546838
vt 0.375888 0.8694372
vt 0.4564544 0.8546839
vt 0.4307525 0.8694375
vt 0.4564544 0.8694375
vt 0.4307525 0.8546839
vt 0.6981537 0.8546838
vt 0.6724518 0.8694372
vt 0.6981537 0.8694372
vt 0.6724518 0.8546838
vt 0.7518646 0.8707972
vt 0.7261627 0.8855506
vt 0.7518646 0.8855506
vt 0.7261627 0.8707972
vt 0.4833099 0.8869103
vt 0.457608 0.9016639
vt 0.4833099 0.9016639
vt 0.457608 0.8869103
vt 0.967862 0.8855506
vt 0.9935638 0.870797
vt 0.967862 0.870797
vt 0.9935638 0.8855506
vt 0.8872955 0.8855506
vt 0.9129975 0.8707972
vt 0.8872955 0.8707972
vt 0.9129975 0.8855506
vt 0.2905626 0.2690883
vt 0.3065953 0.2759143
vt 0.2999927 0.2691808
vt 0.2837367 0.285121
vt 0.2838292 0.275691
vt 0.2997694 0.2919469
vt 0.3065028 0.2853443
vt 0.2903394 0.2918544
vt 0.3854215 0.9284278
vt 0.394852 0.9348533
vt 0.394852 0.9284278
vt 0.3854215 0.9348533
vt 0.5153042 0.9284278
vt 0.5247348 0.9348533
vt 0.5247348 0.9284278
vt 0.5153042 0.9348533
vt 0.9529574 0.6833886
vt 0.9435269 0.676963
vt 0.9435269 0.6833886
vt 0.9529574 0.676963
vt 0.9422152 0.6833886
vt 0.9327848 0.676963
vt 0.9327848 0.6833886
vt 0.9422152 0.676963
vt 0.9651645 0.4910058
vt 0.9557339 0.4845802
vt 0.9557339 0.4910058
vt 0.9651645 0.4845802
vt 0.993973 0.5090721
vt 0.9845426 0.5026467
vt 0.9845426 0.5090721
vt 0.993973 0.5026467
vt 0.988937 0.5421973
vt 0.9983675 0.548623
vt 0.9983675 0.5421973
vt 0.988937 0.548623
vt 0.9664761 0.4845802
vt 0.9759066 0.4910057
vt 0.9759066 0.4845802
vt 0.9664761 0.4910057
vt 0.4966382 0.6500087
vt 0.5086666 0.6565524
vt 0.5060682 0.6501012
vt 0.4939138 0.6564078
vt 0.5192007 0.6462228
vt 0.4900354 0.6432753
vt 0.5128015 0.6434985
vt 0.4835843 0.6458737
vt 0.5193454 0.6314701
vt 0.4901279 0.6338452
vt 0.512894 0.6340685
vt 0.4837289 0.6311209
vt 0.5090158 0.620936
vt 0.4968613 0.6272426
vt 0.5062914 0.6273351
vt 0.4942629 0.6207913
vn -1 0 0
vn -1 0 0
vn -1 0 0
vn -1 0 0
vn -1 0 0
vn -1 0 0
vn -1 0 0
vn -1 0 0
vn 0 0.3826834 -0.9238795
vn 0 0.3826834 -0.9238795
vn 0 0.3826834 -0.9238795
vn 0 0.3826834 -0.9238795
vn 0 0.9238795 -0.3826834
vn 0 0.9238795 -0.3826834
vn 0 0.9238795 -0.3826834
vn 0 0.9238795 -0.3826834
vn 0 0.9238794 0.3826835
vn 0 0.9238794 0.3826835
vn 0 0.9238794 0.3826835
vn 0 0.9238794 0.3826835
vn 0 0.3826837 0.9238794
vn 0 0.3826837 0.9238794
vn 0 0.3826837 0.9238794
vn 0 0.3826836 0.9238794
vn 0 -0.3826837 0.9238794
vn 0 -0.3826837 0.9238794
vn 0 -0.3826837 0.9238794
vn 0 -0.3826837 0.9238794
vn 0 -0.9238795 0.3826834
vn 0 -0.9238795 0.3826834
vn 0 -0.9238795 0.3826834
vn 0 -0.9238795 0.3826834
vn 0 -0.9238796 -0.3826833
vn 0 -0.9238796 -0.3826833
vn 0 -0.9238795 -0.3826833
vn 0 -0.9238795 -0.3826833
vn 0 -0.3826833 -0.9238795
vn 0 -0.3826834 -0.9238795
vn 0 -0.3826834 -0.9238795
vn 0 -0.3826834 -0.9238795
vn 1 0 0
vn 1 0 0
vn 1 0 0
vn 1 0 0
vn 1 0 0
vn 1 0 0
vn 1 0 0
vn 1 0 0
vn 0 -0.3826832 0.9238796
vn 0 -0.3826832 0.9238796
vn 0 -0.3826832 0.9238796
vn 0 -0.3826832 0.9238796
vn 0 -0.9238795 0.3826835
vn 0 -0.9238795 0.3826835
vn 0 -0.9238795 0.3826835
vn 0 -0.9238795 0.3826835
vn -3.524321E-07 -0.9238794 -0.3826835
vn -3.524321E-07 -0.9238795 -0.3826835
vn -3.524321E-07 -0.9238795 -0.3826835
vn 0 -0.9238796 -0.3826833
vn 0 -0.3826827 -0.9238798
vn 0 -0.3826827 -0.9238798
vn 0 -0.3826827 -0.9238798
vn -1.459819E-07 -0.3826826 -0.9238799
vn 0 0.3826836 -0.9238794
vn 0 0.3826835 -0.9238794
vn 0 0.3826835 -0.9238794
vn 0 0.3826835 -0.9238794
vn 0 0.9238795 -0.3826835
vn 0 0.9238794 -0.3826835
vn 0 0.9238794 -0.3826835
vn 0 0.9238794 -0.3826835
vn 0 0.9238795 0.3826833
vn 0 0.9238795 0.3826833
vn 0 0.9238795 0.3826833
vn 0 0.9238795 0.3826833
vn 0 0.3826835 0.9238794
vn 0 0.3826835 0.9238794
vn 0 0.3826835 0.9238794
vn 0 0.3826835 0.9238794
vn 1 0 0
vn 1 0 0
vn 1 0 0
vn 1 0 0
vn 1 0 0
vn 1 0 0
vn 1 0 0
vn 1 0 0
vn 1 0 0
vn 1 0 0
vn 1 0 0
vn 1 0 0
vn 1 0 0
vn 1 0 0
vn 1 0 0
vn 1 0 0
g WheelFrontLeft003_0
f 3/3/3 2/2/2 1/1/1
f 2/2/2 4/4/4 1/1/1
f 1/1/1 4/4/4 5/5/5
f 6/6/6 4/4/4 2/2/2
f 7/7/7 6/6/6 2/2/2
f 8/8/8 4/4/4 6/6/6
f 11/11/11 10/10/10 9/9/9
f 12/12/12 9/9/9 10/10/10
f 15/15/15 14/14/14 13/13/13
f 16/16/16 13/13/13 14/14/14
f 19/19/19 18/18/18 17/17/17
f 20/20/20 17/17/17 18/18/18
f 23/23/23 22/22/22 21/21/21
f 24/24/24 21/21/21 22/22/22
f 27/27/27 26/26/26 25/25/25
f 28/28/28 25/25/25 26/26/26
f 31/31/31 30/30/30 29/29/29
f 32/32/32 29/29/29 30/30/30
f 35/35/35 34/34/34 33/33/33
f 36/36/36 33/33/33 34/34/34
f 39/39/39 38/38/38 37/37/37
f 40/40/40 37/37/37 38/38/38
f 43/43/43 42/42/42 41/41/41
f 42/42/42 44/44/44 41/41/41
f 41/41/41 44/44/44 45/45/45
f 46/46/46 44/44/44 42/42/42
f 47/47/47 46/46/46 42/42/42
f 48/48/48 44/44/44 46/46/46
f 51/51/51 50/50/50 49/49/49
f 52/52/52 49/49/49 50/50/50
f 55/55/55 54/54/54 53/53/53
f 56/56/56 53/53/53 54/54/54
f 59/59/59 58/58/58 57/57/57
f 60/60/60 57/57/57 58/58/58
f 63/63/63 62/62/62 61/61/61
f 64/64/64 61/61/61 62/62/62
f 67/67/67 66/66/66 65/65/65
f 68/68/68 65/65/65 66/66/66
f 71/71/71 70/70/70 69/69/69
f 72/72/72 69/69/69 70/70/70
f 75/75/75 74/74/74 73/73/73
f 76/76/76 73/73/73 74/74/74
f 79/79/79 78/78/78 77/77/77
f 80/80/80 77/77/77 78/78/78
f 83/83/83 82/82/82 81/81/81
f 84/84/84 81/81/81 82/82/82
f 82/82/82 83/83/83 85/85/85
f 81/81/81 84/84/84 86/86/86
f 87/87/87 85/85/85 83/83/83
f 88/88/88 86/86/86 84/84/84
f 85/85/85 87/87/87 89/89/89
f 86/86/86 88/88/88 90/90/90
f 91/91/91 89/89/89 87/87/87
f 92/92/92 90/90/90 88/88/88
f 89/89/89 91/91/91 93/93/93
f 90/90/90 92/92/92 94/94/94
f 95/95/95 93/93/93 91/91/91
f 96/96/96 94/94/94 92/92/92
f 93/93/93 95/95/95 96/96/96
f 94/94/94 96/96/96 95/95/95
