g WheelBack006
v 0.6367638 -0.3 0
v 0.6367638 -1.907349E-08 0.3
v 0.6367638 -0.2121321 0.2121319
v 0.6367638 7.105427E-17 -0.3
v 0.6367638 -0.2121321 -0.2121319
v 0.6367638 0.3 0
v 0.6367638 0.212132 0.2121319
v 0.6367638 0.212132 -0.2121319
v 0.6367638 7.105427E-17 -0.3
v 1.036764 0.212132 -0.2121319
v 0.6367638 0.212132 -0.2121319
v 1.036764 -1.907349E-08 -0.3
v 0.6367638 0.212132 -0.2121319
v 1.036764 0.3 0
v 0.6367638 0.3 0
v 1.036764 0.212132 -0.2121319
v 0.6367638 0.3 0
v 1.036764 0.212132 0.2121319
v 0.6367638 0.212132 0.2121319
v 1.036764 0.3 0
v 0.6367638 0.212132 0.2121319
v 1.036764 -3.814697E-08 0.3
v 0.6367638 -1.907349E-08 0.3
v 1.036764 0.212132 0.2121319
v 0.6367638 -1.907349E-08 0.3
v 1.036764 -0.2121321 0.2121319
v 0.6367638 -0.2121321 0.2121319
v 1.036764 -3.814697E-08 0.3
v 0.6367638 -0.2121321 0.2121319
v 1.036764 -0.3 0
v 0.6367638 -0.3 0
v 1.036764 -0.2121321 0.2121319
v 0.6367638 -0.3 0
v 1.036764 -0.2121321 -0.2121319
v 0.6367638 -0.2121321 -0.2121319
v 1.036764 -0.3 0
v 0.6367638 -0.2121321 -0.2121319
v 1.036764 -1.907349E-08 -0.3
v 0.6367638 7.105427E-17 -0.3
v 1.036764 -0.2121321 -0.2121319
v 0.9367638 -1.907349E-08 -0.1917607
v 0.9367638 0.1917607 0
v 0.9367638 0.1355953 -0.1355952
v 0.9367638 -0.1917608 0
v 0.9367638 -0.1355954 -0.1355952
v 0.9367638 -3.814697E-08 0.1917607
v 0.9367638 0.1355953 0.1355952
v 0.9367638 -0.1355954 0.1355952
v -0.6367629 0.3 0
v -0.6367629 3.552714E-17 0.3
v -0.6367629 0.212132 0.2121319
v -0.6367629 1.907349E-08 -0.3
v -0.6367629 0.212132 -0.2121319
v -0.6367629 -0.3 0
v -0.6367629 -0.2121321 0.2121319
v -0.6367629 -0.2121321 -0.2121319
v -1.036763 0.212132 -0.2121319
v -0.6367629 1.907349E-08 -0.3
v -0.6367629 0.212132 -0.2121319
v -1.036763 7.105427E-17 -0.3
v -1.036763 0.3 0
v -0.6367629 0.212132 -0.2121319
v -0.6367629 0.3 0
v -1.036763 0.212132 -0.2121319
v -1.036763 0.212132 0.2121319
v -0.6367629 0.3 0
v -0.6367629 0.212132 0.2121319
v -1.036763 0.3 0
v -1.036763 -1.907349E-08 0.3
v -0.6367629 0.212132 0.2121319
v -0.6367629 3.552714E-17 0.3
v -1.036763 0.212132 0.2121319
v -1.036763 -0.2121321 0.2121319
v -0.6367629 3.552714E-17 0.3
v -0.6367629 -0.2121321 0.2121319
v -1.036763 -1.907349E-08 0.3
v -1.036763 -0.3 0
v -0.6367629 -0.2121321 0.2121319
v -0.6367629 -0.3 0
v -1.036763 -0.2121321 0.2121319
v -1.036763 -0.2121321 -0.2121319
v -0.6367629 -0.3 0
v -0.6367629 -0.2121321 -0.2121319
v -1.036763 -0.3 0
v -1.036763 7.105427E-17 -0.3
v -0.6367629 -0.2121321 -0.2121319
v -0.6367629 1.907349E-08 -0.3
v -1.036763 -0.2121321 -0.2121319
v -0.9367628 -0.1355954 -0.1355952
v -0.9367628 -0.1355954 0.1355952
v -0.9367628 -0.1917608 0
v -0.9367628 0.1355953 -0.1355952
v -0.9367628 7.105427E-17 -0.1917607
v -0.9367628 0.1355953 0.1355952
v -0.9367628 -1.907349E-08 0.1917607
v -0.9367628 0.1917608 0
v 1.036764 -1.907349E-08 -0.1917607
v 0.9367638 0.1355953 -0.1355952
v 1.036764 0.1355953 -0.1355952
v 0.9367638 -1.907349E-08 -0.1917607
v 1.036764 0.1355953 -0.1355952
v 0.9367638 0.1917607 0
v 1.036764 0.1917607 0
v 0.9367638 0.1355953 -0.1355952
v 1.036764 0.1917607 0
v 0.9367638 0.1355953 0.1355952
v 1.036764 0.1355953 0.1355952
v 0.9367638 0.1917607 0
v 1.036764 0.1355953 0.1355952
v 0.9367638 -3.814697E-08 0.1917607
v 1.036764 -3.814697E-08 0.1917607
v 0.9367638 0.1355953 0.1355952
v 1.036764 -3.814697E-08 0.1917607
v 0.9367638 -0.1355954 0.1355952
v 1.036764 -0.1355954 0.1355952
v 0.9367638 -3.814697E-08 0.1917607
v 1.036764 -0.1355954 0.1355952
v 0.9367638 -0.1917608 0
v 1.036764 -0.1917608 0
v 0.9367638 -0.1355954 0.1355952
v 1.036764 -0.1917608 0
v 0.9367638 -0.1355954 -0.1355952
v 1.036764 -0.1355954 -0.1355952
v 0.9367638 -0.1917608 0
v 1.036764 -0.1355954 -0.1355952
v 0.9367638 -1.907349E-08 -0.1917607
v 1.036764 -1.907349E-08 -0.1917607
v 0.9367638 -0.1355954 -0.1355952
v -1.036763 0.1355954 -0.1355952
v -0.9367628 7.105427E-17 -0.1917607
v -1.036763 7.105427E-17 -0.1917607
v -0.9367628 0.1355953 -0.1355952
v -1.036763 7.105427E-17 -0.1917607
v -0.9367628 -0.1355954 -0.1355952
v -1.036763 -0.1355954 -0.1355952
v -0.9367628 7.105427E-17 -0.1917607
v -1.036763 -0.1355954 -0.1355952
v -0.9367628 -0.1917608 0
v -1.036763 -0.1917608 0
v -0.9367628 -0.1355954 -0.1355952
v -1.036763 -0.1917608 0
v -0.9367628 -0.1355954 0.1355952
v -1.036763 -0.1355954 0.1355952
v -0.9367628 -0.1917608 0
v -1.036763 -0.1355954 0.1355952
v -0.9367628 -1.907349E-08 0.1917607
v -1.036763 -1.907349E-08 0.1917607
v -0.9367628 -0.1355954 0.1355952
v -1.036763 -1.907349E-08 0.1917607
v -0.9367628 0.1355953 0.1355952
v -1.036763 0.1355954 0.1355952
v -0.9367628 -1.907349E-08 0.1917607
v -1.036763 0.1355954 0.1355952
v -0.9367628 0.1917608 0
v -1.036763 0.1917608 0
v -0.9367628 0.1355953 0.1355952
v -1.036763 0.1917608 0
v -0.9367628 0.1355953 -0.1355952
v -1.036763 0.1355954 -0.1355952
v -0.9367628 0.1917608 0
v 1.036764 0.1355953 -0.1355952
v 1.036764 -1.907349E-08 -0.3
v 1.036764 -1.907349E-08 -0.1917607
v 1.036764 0.212132 -0.2121319
v 1.036764 -0.2121321 -0.2121319
v 1.036764 0.1917607 0
v 1.036764 -0.1355954 -0.1355952
v 1.036764 0.3 0
v 1.036764 -0.3 0
v 1.036764 0.1355953 0.1355952
v 1.036764 -0.1917608 0
v 1.036764 0.212132 0.2121319
v 1.036764 -0.2121321 0.2121319
v 1.036764 -3.814697E-08 0.1917607
v 1.036764 -0.1355954 0.1355952
v 1.036764 -3.814697E-08 0.3
v -1.036763 7.105427E-17 -0.1917607
v -1.036763 0.212132 -0.2121319
v -1.036763 0.1355954 -0.1355952
v -1.036763 7.105427E-17 -0.3
v -1.036763 0.3 0
v -1.036763 -0.1355954 -0.1355952
v -1.036763 0.1917608 0
v -1.036763 -0.2121321 -0.2121319
v -1.036763 0.212132 0.2121319
v -1.036763 -0.1917608 0
v -1.036763 0.1355954 0.1355952
v -1.036763 -0.3 0
v -1.036763 -1.907349E-08 0.3
v -1.036763 -0.1355954 0.1355952
v -1.036763 -1.907349E-08 0.1917607
v -1.036763 -0.2121321 0.2121319
vt 0.482236 0.6314701
vt 0.4715574 0.6565525
vt 0.4820914 0.6462229
vt 0.4571536 0.6207913
vt 0.4719064 0.620936
vt 0.4464748 0.6458737
vt 0.4568045 0.6564078
vt 0.4466195 0.6311209
vt 0.1353424 0.8694372
vt 0.1610443 0.8546838
vt 0.1353424 0.8546838
vt 0.1610443 0.8694372
vt 0.667569 0.8523474
vt 0.6932709 0.8375939
vt 0.667569 0.8375939
vt 0.6932709 0.8523474
vt 0.6127045 0.837594
vt 0.5870026 0.8523475
vt 0.6127045 0.8523475
vt 0.5870026 0.837594
vt 0.7787201 0.8546838
vt 0.7530183 0.8694373
vt 0.7787201 0.8694373
vt 0.7530183 0.8546838
vt 0.6444427 0.8546838
vt 0.6187409 0.8694373
vt 0.6444427 0.8694373
vt 0.6187409 0.8546838
vt 0.7518646 0.8546838
vt 0.7261627 0.8694373
vt 0.7518646 0.8694373
vt 0.7261627 0.8546838
vt 0.6993073 0.8694373
vt 0.7250092 0.8546839
vt 0.6993073 0.8546839
vt 0.7250092 0.8694373
vt 0.5918854 0.8694372
vt 0.6175873 0.8546838
vt 0.5918854 0.8546838
vt 0.6175873 0.8694372
vt 0.3862657 0.2690883
vt 0.4022984 0.2759141
vt 0.3956957 0.2691807
vt 0.3794398 0.2851208
vt 0.3795323 0.2756908
vt 0.3954726 0.2919468
vt 0.402206 0.285344
vt 0.3860425 0.2918543
vt 0.5578029 0.6458737
vt 0.5684817 0.6207913
vt 0.5579476 0.6311209
vt 0.5828854 0.6565524
vt 0.5681325 0.6564078
vt 0.5935642 0.63147
vt 0.5832345 0.6209359
vt 0.5934193 0.6462229
vt 0.6455963 0.8546839
vt 0.6712982 0.8694373
vt 0.6712982 0.8546839
vt 0.6455963 0.8694373
vt 0.5650299 0.8546839
vt 0.5907318 0.8694373
vt 0.5907318 0.8546839
vt 0.5650299 0.8694373
vt 0.5638763 0.8694372
vt 0.5381745 0.8546838
vt 0.5381745 0.8694372
vt 0.5638763 0.8546838
vt 0.5370208 0.8694373
vt 0.511319 0.8546839
vt 0.511319 0.8694373
vt 0.5370208 0.8546839
vt 0.4833101 0.8694373
vt 0.4576081 0.8546839
vt 0.4576081 0.8694373
vt 0.4833101 0.8546839
vt 0.08047791 0.8855506
vt 0.054776 0.8707972
vt 0.054776 0.8855506
vt 0.08047791 0.8707972
vt 0.4844635 0.8546838
vt 0.5101654 0.8694372
vt 0.5101654 0.8546838
vt 0.4844635 0.8694372
vt 0.3770416 0.8546839
vt 0.4027435 0.8694373
vt 0.4027435 0.8546839
vt 0.3770416 0.8694373
vt 0.3142652 0.2918544
vt 0.307755 0.2756909
vt 0.3076625 0.285121
vt 0.3304287 0.2853442
vt 0.3236952 0.2919468
vt 0.3239184 0.2691807
vt 0.3144884 0.2690883
vt 0.3305211 0.2759141
vt 0.8693084 0.6491309
vt 0.8787388 0.6555564
vt 0.8787388 0.6491309
vt 0.8693084 0.6555564
vt 0.9767302 0.6491311
vt 0.9861606 0.6555564
vt 0.9861606 0.6491311
vt 0.9767302 0.6555564
vt 0.8894808 0.6555566
vt 0.8800503 0.6491311
vt 0.8800503 0.6555566
vt 0.8894808 0.6491311
vt 0.5462191 0.9348534
vt 0.5367886 0.9284279
vt 0.5367886 0.9348534
vt 0.5462191 0.9284279
vt 0.4378207 0.9348534
vt 0.4283903 0.9284278
vt 0.4283903 0.9348534
vt 0.4378207 0.9284278
vt 0.9431918 0.6555564
vt 0.9337613 0.6491311
vt 0.9337613 0.6555564
vt 0.9431918 0.6491311
vt 0.9445034 0.6491311
vt 0.953934 0.6555564
vt 0.953934 0.6491311
vt 0.9445034 0.6555564
vt 0.6012418 0.9284278
vt 0.6106723 0.9348534
vt 0.6106723 0.9284278
vt 0.6012418 0.9348534
vt 0.4593051 0.9348534
vt 0.4498746 0.9284279
vt 0.4498746 0.9348534
vt 0.4593051 0.9284279
vt 0.9959262 0.6643455
vt 0.9864957 0.6579201
vt 0.9864957 0.6643455
vt 0.9959262 0.6579201
vt 0.9314731 0.6833886
vt 0.9220426 0.6769631
vt 0.9220426 0.6833886
vt 0.9314731 0.6769631
vt 0.9230191 0.6491311
vt 0.9324496 0.6555564
vt 0.9324496 0.6491311
vt 0.9230191 0.6555564
vt 0.912277 0.6491311
vt 0.9217075 0.6555566
vt 0.9217075 0.6491311
vt 0.912277 0.6555566
vt 0.9860076 0.9030372
vt 0.995438 0.9094628
vt 0.995438 0.9030372
vt 0.9860076 0.9094628
vt 0.8585659 0.6491311
vt 0.8679965 0.6555566
vt 0.8679965 0.6491311
vt 0.8585659 0.6555566
vt 0.9002231 0.6555566
vt 0.8907925 0.6491309
vt 0.8907925 0.6555566
vt 0.9002231 0.6491309
vt 0.6079662 0.6500087
vt 0.6199948 0.6565524
vt 0.6173964 0.6501012
vt 0.6052419 0.6564078
vt 0.6305288 0.6462228
vt 0.6013637 0.6432753
vt 0.6241297 0.6434985
vt 0.5949123 0.6458737
vt 0.6306734 0.63147
vt 0.6014559 0.6338453
vt 0.6242223 0.6340685
vt 0.5950569 0.6311209
vt 0.6203439 0.6209359
vt 0.6081895 0.6272426
vt 0.6176194 0.6273351
vt 0.6055911 0.6207913
vt 0.3855333 0.6272426
vt 0.3724008 0.6311209
vt 0.3788 0.6338453
vt 0.3829348 0.6207913
vt 0.372256 0.6458737
vt 0.3949634 0.6273351
vt 0.3787074 0.6432753
vt 0.3976877 0.620936
vt 0.3825858 0.6564078
vt 0.401566 0.6340685
vt 0.3853101 0.6500087
vt 0.4080173 0.63147
vt 0.3973386 0.6565525
vt 0.4014735 0.6434985
vt 0.3947401 0.6501012
vt 0.4078727 0.6462229
vn -1 2.170699E-07 0
vn -1 2.170699E-07 0
vn -1 2.170699E-07 0
vn -1 0 2.1707E-07
vn -1 0 0
vn -1 0 0
vn -1 0 0
vn -1 0 2.1707E-07
vn 0 0.3826837 -0.9238794
vn 0 0.3826837 -0.9238794
vn 0 0.3826837 -0.9238794
vn 0 0.3826837 -0.9238794
vn 0 0.9238794 -0.3826835
vn 0 0.9238794 -0.3826835
vn 0 0.9238794 -0.3826835
vn 0 0.9238794 -0.3826835
vn 0 0.9238794 0.3826835
vn 0 0.9238794 0.3826835
vn 0 0.9238794 0.3826835
vn 0 0.9238794 0.3826835
vn 0 0.3826837 0.9238794
vn 0 0.3826837 0.9238794
vn 0 0.3826837 0.9238794
vn 0 0.3826836 0.9238794
vn 0 -0.3826837 0.9238794
vn 0 -0.3826837 0.9238794
vn 0 -0.3826837 0.9238794
vn 0 -0.3826837 0.9238794
vn 0 -0.9238795 0.3826834
vn 0 -0.9238795 0.3826834
vn 0 -0.9238795 0.3826834
vn 0 -0.9238795 0.3826834
vn 0 -0.9238795 -0.3826834
vn 0 -0.9238795 -0.3826834
vn 0 -0.9238795 -0.3826834
vn 0 -0.9238795 -0.3826834
vn 0 -0.3826837 -0.9238794
vn 0 -0.3826836 -0.9238794
vn 0 -0.3826837 -0.9238794
vn 0 -0.3826837 -0.9238794
vn 1 -6.791897E-07 2.813298E-07
vn 1 -6.791897E-07 2.813298E-07
vn 1 -6.791897E-07 2.813298E-07
vn 1 2.8133E-07 -6.791903E-07
vn 1 0 0
vn 1 0 0
vn 1 0 0
vn 1 2.813299E-07 -6.791902E-07
vn 1 4.341398E-07 1.798267E-07
vn 1 4.341398E-07 1.798267E-07
vn 1 4.341398E-07 1.798267E-07
vn 1 -4.341397E-07 -1.798266E-07
vn 1 4.341399E-07 -1.798267E-07
vn 1 1.798268E-07 -4.341399E-07
vn 1 1.798268E-07 -4.341399E-07
vn 1 -4.341397E-07 -1.798265E-07
vn 0 0.3826838 -0.9238794
vn 0 0.3826838 -0.9238794
vn 0 0.3826838 -0.9238794
vn 0 0.3826837 -0.9238794
vn 0 0.9238794 -0.3826835
vn 0 0.9238794 -0.3826835
vn 0 0.9238794 -0.3826835
vn 0 0.9238794 -0.3826835
vn 0 0.9238794 0.3826835
vn 0 0.9238794 0.3826835
vn 0 0.9238794 0.3826835
vn 0 0.9238794 0.3826835
vn 0 0.3826837 0.9238794
vn 0 0.3826837 0.9238794
vn 0 0.3826837 0.9238794
vn 0 0.3826837 0.9238794
vn 0 -0.3826837 0.9238794
vn 0 -0.3826837 0.9238794
vn 0 -0.3826837 0.9238794
vn 0 -0.3826837 0.9238794
vn 0 -0.9238795 0.3826834
vn 0 -0.9238795 0.3826834
vn 0 -0.9238795 0.3826834
vn 0 -0.9238795 0.3826834
vn 0 -0.9238795 -0.3826834
vn 0 -0.9238795 -0.3826834
vn 0 -0.9238795 -0.3826834
vn 0 -0.9238795 -0.3826834
vn 0 -0.3826836 -0.9238794
vn 0 -0.3826836 -0.9238794
vn 0 -0.3826836 -0.9238794
vn 0 -0.3826837 -0.9238794
vn -1 0 0
vn -1 0 0
vn -1 0 0
vn -1 0 0
vn -1 0 0
vn -1 0 0
vn -1 0 0
vn -1 0 0
vn 0 -0.3826837 0.9238794
vn 0 -0.3826837 0.9238794
vn 0 -0.3826836 0.9238794
vn 0 -0.3826837 0.9238794
vn 0 -0.9238794 0.3826836
vn 0 -0.9238794 0.3826836
vn 0 -0.9238794 0.3826836
vn 0 -0.9238794 0.3826836
vn 0 -0.9238794 -0.3826836
vn 0 -0.9238794 -0.3826836
vn 0 -0.9238794 -0.3826836
vn 0 -0.9238794 -0.3826836
vn 0 -0.3826836 -0.9238794
vn 0 -0.3826835 -0.9238794
vn 0 -0.3826835 -0.9238794
vn 0 -0.3826835 -0.9238794
vn 0 0.3826836 -0.9238794
vn 0 0.3826835 -0.9238794
vn 0 0.3826836 -0.9238794
vn 0 0.3826835 -0.9238794
vn 0 0.9238795 -0.3826835
vn 0 0.9238794 -0.3826835
vn 0 0.9238794 -0.3826835
vn 0 0.9238794 -0.3826835
vn 0 0.9238795 0.3826835
vn 0 0.9238794 0.3826835
vn 0 0.9238794 0.3826835
vn 0 0.9238794 0.3826835
vn 0 0.3826835 0.9238794
vn 0 0.3826835 0.9238794
vn 0 0.3826835 0.9238794
vn 0 0.3826835 0.9238794
vn 0 -0.3826836 0.9238794
vn 0 -0.3826835 0.9238794
vn 0 -0.3826835 0.9238794
vn -1.459822E-07 -0.3826837 0.9238794
vn 0 0.3826835 0.9238794
vn 0 0.3826835 0.9238794
vn 0 0.3826835 0.9238794
vn 0 0.3826835 0.9238795
vn 0 0.9238795 0.3826835
vn 0 0.9238794 0.3826835
vn 0 0.9238794 0.3826835
vn 1.76216E-07 0.9238795 0.3826834
vn 1.76216E-07 0.9238795 -0.3826835
vn 1.76216E-07 0.9238794 -0.3826835
vn 1.76216E-07 0.9238795 -0.3826835
vn 0 0.9238795 -0.3826834
vn 0 0.3826836 -0.9238794
vn 0 0.3826835 -0.9238794
vn 0 0.3826835 -0.9238794
vn 0 0.3826835 -0.9238794
vn -1.459822E-07 -0.3826835 -0.9238794
vn -1.459822E-07 -0.3826835 -0.9238794
vn -1.459822E-07 -0.3826835 -0.9238794
vn 0 -0.3826836 -0.9238794
vn 0 -0.9238794 -0.3826836
vn 0 -0.9238794 -0.3826836
vn 0 -0.9238794 -0.3826836
vn -3.52432E-07 -0.9238793 -0.3826839
vn -3.52432E-07 -0.9238794 0.3826836
vn -3.52432E-07 -0.9238794 0.3826837
vn -3.52432E-07 -0.9238794 0.3826836
vn 0 -0.9238793 0.3826839
vn 1 0 0
vn 1 0 0
vn 1 0 0
vn 1 0 0
vn 1 0 0
vn 1 0 -3.596532E-07
vn 1 0 0
vn 1 0 -3.596532E-07
vn 1 0 0
vn 1 0 0
vn 1 0 0
vn 1 0 0
vn 1 -2.543131E-07 -2.543131E-07
vn 1 0 0
vn 1 -2.543131E-07 -2.543131E-07
vn 1 0 0
vn -1 0 0
vn -1 0 0
vn -1 0 0
vn -1 0 0
vn -1 0 0
vn -1 0 0
vn -1 0 0
vn -1 0 0
vn -1 0 0
vn -1 0 0
vn -1 0 0
vn -1 0 0
vn -1 0 0
vn -1 0 0
vn -1 0 0
vn -1 0 0
g WheelBack006_0
f 3/3/3 2/2/2 1/1/1
f 2/2/2 4/4/4 1/1/1
f 1/1/1 4/4/4 5/5/5
f 6/6/6 4/4/4 2/2/2
f 7/7/7 6/6/6 2/2/2
f 8/8/8 4/4/4 6/6/6
f 11/11/11 10/10/10 9/9/9
f 12/12/12 9/9/9 10/10/10
f 15/15/15 14/14/14 13/13/13
f 16/16/16 13/13/13 14/14/14
f 19/19/19 18/18/18 17/17/17
f 20/20/20 17/17/17 18/18/18
f 23/23/23 22/22/22 21/21/21
f 24/24/24 21/21/21 22/22/22
f 27/27/27 26/26/26 25/25/25
f 28/28/28 25/25/25 26/26/26
f 31/31/31 30/30/30 29/29/29
f 32/32/32 29/29/29 30/30/30
f 35/35/35 34/34/34 33/33/33
f 36/36/36 33/33/33 34/34/34
f 39/39/39 38/38/38 37/37/37
f 40/40/40 37/37/37 38/38/38
f 43/43/43 42/42/42 41/41/41
f 42/42/42 44/44/44 41/41/41
f 41/41/41 44/44/44 45/45/45
f 46/46/46 44/44/44 42/42/42
f 47/47/47 46/46/46 42/42/42
f 48/48/48 44/44/44 46/46/46
f 51/51/51 50/50/50 49/49/49
f 50/50/50 52/52/52 49/49/49
f 49/49/49 52/52/52 53/53/53
f 54/54/54 52/52/52 50/50/50
f 55/55/55 54/54/54 50/50/50
f 56/56/56 52/52/52 54/54/54
f 59/59/59 58/58/58 57/57/57
f 60/60/60 57/57/57 58/58/58
f 63/63/63 62/62/62 61/61/61
f 64/64/64 61/61/61 62/62/62
f 67/67/67 66/66/66 65/65/65
f 68/68/68 65/65/65 66/66/66
f 71/71/71 70/70/70 69/69/69
f 72/72/72 69/69/69 70/70/70
f 75/75/75 74/74/74 73/73/73
f 76/76/76 73/73/73 74/74/74
f 79/79/79 78/78/78 77/77/77
f 80/80/80 77/77/77 78/78/78
f 83/83/83 82/82/82 81/81/81
f 84/84/84 81/81/81 82/82/82
f 87/87/87 86/86/86 85/85/85
f 88/88/88 85/85/85 86/86/86
f 91/91/91 90/90/90 89/89/89
f 90/90/90 92/92/92 89/89/89
f 89/89/89 92/92/92 93/93/93
f 94/94/94 92/92/92 90/90/90
f 95/95/95 94/94/94 90/90/90
f 96/96/96 92/92/92 94/94/94
f 99/99/99 98/98/98 97/97/97
f 100/100/100 97/97/97 98/98/98
f 103/103/103 102/102/102 101/101/101
f 104/104/104 101/101/101 102/102/102
f 107/107/107 106/106/106 105/105/105
f 108/108/108 105/105/105 106/106/106
f 111/111/111 110/110/110 109/109/109
f 112/112/112 109/109/109 110/110/110
f 115/115/115 114/114/114 113/113/113
f 116/116/116 113/113/113 114/114/114
f 119/119/119 118/118/118 117/117/117
f 120/120/120 117/117/117 118/118/118
f 123/123/123 122/122/122 121/121/121
f 124/124/124 121/121/121 122/122/122
f 127/127/127 126/126/126 125/125/125
f 128/128/128 125/125/125 126/126/126
f 131/131/131 130/130/130 129/129/129
f 132/132/132 129/129/129 130/130/130
f 135/135/135 134/134/134 133/133/133
f 136/136/136 133/133/133 134/134/134
f 139/139/139 138/138/138 137/137/137
f 140/140/140 137/137/137 138/138/138
f 143/143/143 142/142/142 141/141/141
f 144/144/144 141/141/141 142/142/142
f 147/147/147 146/146/146 145/145/145
f 148/148/148 145/145/145 146/146/146
f 151/151/151 150/150/150 149/149/149
f 152/152/152 149/149/149 150/150/150
f 155/155/155 154/154/154 153/153/153
f 156/156/156 153/153/153 154/154/154
f 159/159/159 158/158/158 157/157/157
f 160/160/160 157/157/157 158/158/158
f 163/163/163 162/162/162 161/161/161
f 164/164/164 161/161/161 162/162/162
f 162/162/162 163/163/163 165/165/165
f 161/161/161 164/164/164 166/166/166
f 167/167/167 165/165/165 163/163/163
f 168/168/168 166/166/166 164/164/164
f 165/165/165 167/167/167 169/169/169
f 166/166/166 168/168/168 170/170/170
f 171/171/171 169/169/169 167/167/167
f 172/172/172 170/170/170 168/168/168
f 169/169/169 171/171/171 173/173/173
f 170/170/170 172/172/172 174/174/174
f 175/175/175 173/173/173 171/171/171
f 176/176/176 174/174/174 172/172/172
f 173/173/173 175/175/175 176/176/176
f 174/174/174 176/176/176 175/175/175
f 179/179/179 178/178/178 177/177/177
f 180/180/180 177/177/177 178/178/178
f 178/178/178 179/179/179 181/181/181
f 177/177/177 180/180/180 182/182/182
f 183/183/183 181/181/181 179/179/179
f 184/184/184 182/182/182 180/180/180
f 181/181/181 183/183/183 185/185/185
f 182/182/182 184/184/184 186/186/186
f 187/187/187 185/185/185 183/183/183
f 188/188/188 186/186/186 184/184/184
f 185/185/185 187/187/187 189/189/189
f 186/186/186 188/188/188 190/190/190
f 191/191/191 189/189/189 187/187/187
f 192/192/192 190/190/190 188/188/188
f 189/189/189 191/191/191 192/192/192
f 190/190/190 192/192/192 191/191/191
