g WheelFrontLeft005
v -0.1583636 -0.3684733 -9.155273E-07
v -0.1583636 7.629394E-08 0.3684726
v -0.1583636 -0.26055 0.260549
v -0.1583636 7.629394E-08 -0.3684744
v -0.1583636 -0.26055 -0.2605508
v -0.1583636 0.3684734 -9.155273E-07
v -0.1583636 0.2605501 0.260549
v -0.1583636 0.26055 -0.2605508
v -0.1583636 7.629394E-08 -0.3684744
v 0.1583628 0.26055 -0.2605508
v -0.1583636 0.26055 -0.2605508
v 0.1583628 7.629394E-08 -0.3684744
v -0.1583636 0.26055 -0.2605508
v 0.1583628 0.3684734 -9.155273E-07
v -0.1583636 0.3684734 -9.155273E-07
v 0.1583628 0.26055 -0.2605508
v -0.1583636 0.3684734 -9.155273E-07
v 0.1583628 0.2605501 0.260549
v -0.1583636 0.2605501 0.260549
v 0.1583628 0.3684734 -9.155273E-07
v -0.1583636 0.2605501 0.260549
v 0.1583628 7.629394E-08 0.3684726
v -0.1583636 7.629394E-08 0.3684726
v 0.1583628 0.2605501 0.260549
v -0.1583636 7.629394E-08 0.3684726
v 0.1583628 -0.26055 0.260549
v -0.1583636 -0.26055 0.260549
v 0.1583628 7.629394E-08 0.3684726
v -0.1583636 -0.26055 0.260549
v 0.1583628 -0.3684733 -9.155273E-07
v -0.1583636 -0.3684733 -9.155273E-07
v 0.1583628 -0.26055 0.260549
v -0.1583636 -0.3684733 -9.155273E-07
v 0.1583628 -0.26055 -0.2605508
v -0.1583636 -0.26055 -0.2605508
v 0.1583628 -0.3684733 -9.155273E-07
v -0.1583636 -0.26055 -0.2605508
v 0.1583628 7.629394E-08 -0.3684744
v -0.1583636 7.629394E-08 -0.3684744
v 0.1583628 -0.26055 -0.2605508
v 0.06639488 7.629394E-08 -0.2355301
v 0.06639488 0.2355292 -9.155273E-07
v 0.06639488 0.1665442 -0.1665451
v 0.06639488 -0.2355291 -9.155273E-07
v 0.06639488 -0.1665443 -0.1665451
v 0.06639488 7.629394E-08 0.2355279
v 0.06639488 0.1665443 0.1665433
v 0.06639488 -0.1665443 0.166543
v 0.1583628 7.629394E-08 -0.2355301
v 0.06639488 0.1665442 -0.1665451
v 0.1583628 0.1665442 -0.1665451
v 0.06639488 7.629394E-08 -0.2355301
v 0.1583628 0.1665442 -0.1665451
v 0.06639488 0.2355292 -9.155273E-07
v 0.1583628 0.2355292 -9.155273E-07
v 0.06639488 0.1665442 -0.1665451
v 0.1583628 0.2355292 -9.155273E-07
v 0.06639488 0.1665443 0.1665433
v 0.1583628 0.1665443 0.1665433
v 0.06639488 0.2355292 -9.155273E-07
v 0.1583628 0.1665443 0.1665433
v 0.06639488 7.629394E-08 0.2355279
v 0.1583628 7.629394E-08 0.2355279
v 0.06639488 0.1665443 0.1665433
v 0.1583628 7.629394E-08 0.2355279
v 0.06639488 -0.1665443 0.166543
v 0.1583628 -0.1665443 0.166543
v 0.06639488 7.629394E-08 0.2355279
v 0.1583628 -0.1665443 0.166543
v 0.06639488 -0.2355291 -9.155273E-07
v 0.1583628 -0.2355291 -9.155273E-07
v 0.06639488 -0.1665443 0.166543
v 0.1583628 -0.2355291 -9.155273E-07
v 0.06639488 -0.1665443 -0.1665451
v 0.1583628 -0.1665443 -0.1665451
v 0.06639488 -0.2355291 -9.155273E-07
v 0.1583628 -0.1665443 -0.1665451
v 0.06639488 7.629394E-08 -0.2355301
v 0.1583628 7.629394E-08 -0.2355301
v 0.06639488 -0.1665443 -0.1665451
v 0.1583628 0.1665442 -0.1665451
v 0.1583628 7.629394E-08 -0.3684744
v 0.1583628 7.629394E-08 -0.2355301
v 0.1583628 0.26055 -0.2605508
v 0.1583628 -0.26055 -0.2605508
v 0.1583628 0.2355292 -9.155273E-07
v 0.1583628 -0.1665443 -0.1665451
v 0.1583628 0.3684734 -9.155273E-07
v 0.1583628 -0.3684733 -9.155273E-07
v 0.1583628 0.1665443 0.1665433
v 0.1583628 -0.2355291 -9.155273E-07
v 0.1583628 0.2605501 0.260549
v 0.1583628 -0.26055 0.260549
v 0.1583628 7.629394E-08 0.2355279
v 0.1583628 -0.1665443 0.166543
v 0.1583628 7.629394E-08 0.3684726
vt 0.7576795 0.4672942
vt 0.7364761 0.458267
vt 0.7452083 0.4671722
vt 0.7667069 0.4460909
vt 0.7665846 0.4585623
vt 0.7455034 0.4370637
vt 0.7365984 0.4457955
vt 0.7579747 0.4371857
vt 0.2072387 0.9566607
vt 0.193232 0.9691328
vt 0.2072387 0.9691328
vt 0.193232 0.9566607
vt 0.3326979 0.7878913
vt 0.318691 0.8003633
vt 0.3326979 0.8003633
vt 0.318691 0.7878913
vt 0.5308972 0.8430687
vt 0.5449041 0.8305967
vt 0.5308972 0.8305967
vt 0.5449041 0.8430687
vt 0.2353319 0.8685951
vt 0.2493389 0.8561233
vt 0.2353319 0.8561233
vt 0.2493389 0.8685951
vt 0.2559925 0.8494694
vt 0.2699995 0.8369975
vt 0.2559925 0.8369975
vt 0.2699995 0.8494694
vt 0.4689152 0.8813207
vt 0.4829219 0.8688486
vt 0.4689152 0.8688486
vt 0.4829219 0.8813207
vt 0.5035825 0.8879739
vt 0.4895758 0.9004459
vt 0.5035825 0.9004459
vt 0.4895758 0.8879739
vt 0.2278992 0.9375347
vt 0.2138925 0.9500069
vt 0.2278992 0.9500069
vt 0.2138925 0.9375347
vt 0.5665746 0.2933371
vt 0.5608044 0.3068904
vt 0.5664967 0.3013089
vt 0.5530214 0.2875668
vt 0.5609932 0.2876451
vt 0.547251 0.3011202
vt 0.5528328 0.3068123
vt 0.5473293 0.2931484
vt 0.2270181 0.611438
vt 0.2190458 0.6073709
vt 0.2190458 0.611438
vt 0.2270181 0.6073709
vt 0.6008512 0.9418015
vt 0.592879 0.9377344
vt 0.592879 0.9418015
vt 0.6008512 0.9377344
vt 0.3789473 0.876202
vt 0.3869194 0.8802692
vt 0.3869197 0.876202
vt 0.3789473 0.8802692
vt 0.7927639 0.9862504
vt 0.8007363 0.9903174
vt 0.8007363 0.9862504
vt 0.7927639 0.9903174
vt 0.3393517 0.8452685
vt 0.3473241 0.8493356
vt 0.3473241 0.8452685
vt 0.3393517 0.8493356
vt 0.6162511 0.927013
vt 0.6242233 0.9310802
vt 0.6242233 0.927013
vt 0.6162511 0.9310802
vt 0.6242233 0.952522
vt 0.6162511 0.9484549
vt 0.6162511 0.952522
vt 0.6242233 0.9484549
vt 0.8452725 0.959968
vt 0.8372999 0.955901
vt 0.8372999 0.959968
vt 0.8452725 0.955901
vt 0.04441656 0.8312945
vt 0.03888474 0.8414627
vt 0.04433838 0.8392662
vt 0.039007 0.8289914
vt 0.04761691 0.8503677
vt 0.05010869 0.8257127
vt 0.04992 0.8449584
vt 0.04791211 0.8202593
vt 0.06008823 0.85049
vt 0.05808042 0.825791
vt 0.05789176 0.8450364
vt 0.0603835 0.8203815
vt 0.06899326 0.8417579
vt 0.06366199 0.8314832
vt 0.06358382 0.8394549
vt 0.06911555 0.8292866
vn -1 0 0
vn -1 0 0
vn -1 0 0
vn -1 0 0
vn -1 0 0
vn -1 0 0
vn -1 0 0
vn -1 0 0
vn 0 0.3826842 -0.9238792
vn 0 0.3826842 -0.9238792
vn 0 0.3826841 -0.9238792
vn 0 0.3826841 -0.9238792
vn 0 0.9238795 -0.3826834
vn 0 0.9238795 -0.3826835
vn 0 0.9238795 -0.3826834
vn 0 0.9238795 -0.3826834
vn 0 0.9238795 0.3826833
vn 0 0.9238795 0.3826833
vn 0 0.9238795 0.3826833
vn 0 0.9238795 0.3826833
vn 0 0.3826841 0.9238792
vn 0 0.3826841 0.9238792
vn 0 0.3826841 0.9238792
vn 0 0.3826841 0.9238792
vn 0 -0.3826841 0.9238793
vn 0 -0.3826841 0.9238793
vn 0 -0.3826841 0.9238793
vn 0 -0.3826841 0.9238793
vn 0 -0.9238795 0.3826833
vn 0 -0.9238795 0.3826833
vn 0 -0.9238795 0.3826833
vn 0 -0.9238795 0.3826833
vn 0 -0.9238795 -0.3826833
vn 0 -0.9238795 -0.3826833
vn 0 -0.9238795 -0.3826833
vn 0 -0.9238795 -0.3826833
vn 0 -0.3826841 -0.9238793
vn 0 -0.3826841 -0.9238793
vn 0 -0.3826841 -0.9238793
vn 0 -0.3826841 -0.9238793
vn 1 0 0
vn 1 0 0
vn 1 0 0
vn 1 0 0
vn 1 0 0
vn 1 0 0
vn 1 0 0
vn 1 0 0
vn 0 -0.3826841 0.9238793
vn 0 -0.3826841 0.9238793
vn 0 -0.3826841 0.9238793
vn 0 -0.3826841 0.9238793
vn 0 -0.9238793 0.3826841
vn 0 -0.9238793 0.3826841
vn 0 -0.9238793 0.3826841
vn 0 -0.9238793 0.3826841
vn -7.664239E-07 -0.9238794 -0.3826839
vn -7.664239E-07 -0.9238794 -0.3826839
vn -7.664238E-07 -0.9238794 -0.3826839
vn 0 -0.9238795 -0.3826835
vn 0 -0.3826826 -0.9238799
vn 0 -0.3826826 -0.9238799
vn 0 -0.3826826 -0.9238799
vn -3.174623E-07 -0.3826824 -0.92388
vn 0 0.3826837 -0.9238794
vn 0 0.3826837 -0.9238794
vn 0 0.3826838 -0.9238794
vn 0 0.3826838 -0.9238794
vn 0 0.9238793 -0.3826839
vn 0 0.9238793 -0.3826839
vn 0 0.9238793 -0.3826839
vn 0 0.9238793 -0.3826839
vn 0 0.9238796 0.3826833
vn 0 0.9238796 0.3826833
vn 0 0.9238796 0.3826833
vn 0 0.9238796 0.3826833
vn 0 0.3826837 0.9238794
vn 0 0.3826837 0.9238794
vn 0 0.3826838 0.9238794
vn 0 0.3826838 0.9238794
vn 1 0 0
vn 1 0 0
vn 1 0 0
vn 1 0 0
vn 1 0 0
vn 1 0 0
vn 1 0 0
vn 1 0 0
vn 1 0 0
vn 1 0 0
vn 1 0 0
vn 1 0 0
vn 1 0 0
vn 1 0 0
vn 1 0 0
vn 1 0 0
g WheelFrontLeft005_0
f 3/3/3 2/2/2 1/1/1
f 2/2/2 4/4/4 1/1/1
f 1/1/1 4/4/4 5/5/5
f 6/6/6 4/4/4 2/2/2
f 7/7/7 6/6/6 2/2/2
f 8/8/8 4/4/4 6/6/6
f 11/11/11 10/10/10 9/9/9
f 12/12/12 9/9/9 10/10/10
f 15/15/15 14/14/14 13/13/13
f 16/16/16 13/13/13 14/14/14
f 19/19/19 18/18/18 17/17/17
f 20/20/20 17/17/17 18/18/18
f 23/23/23 22/22/22 21/21/21
f 24/24/24 21/21/21 22/22/22
f 27/27/27 26/26/26 25/25/25
f 28/28/28 25/25/25 26/26/26
f 31/31/31 30/30/30 29/29/29
f 32/32/32 29/29/29 30/30/30
f 35/35/35 34/34/34 33/33/33
f 36/36/36 33/33/33 34/34/34
f 39/39/39 38/38/38 37/37/37
f 40/40/40 37/37/37 38/38/38
f 43/43/43 42/42/42 41/41/41
f 42/42/42 44/44/44 41/41/41
f 41/41/41 44/44/44 45/45/45
f 46/46/46 44/44/44 42/42/42
f 47/47/47 46/46/46 42/42/42
f 48/48/48 44/44/44 46/46/46
f 51/51/51 50/50/50 49/49/49
f 52/52/52 49/49/49 50/50/50
f 55/55/55 54/54/54 53/53/53
f 56/56/56 53/53/53 54/54/54
f 59/59/59 58/58/58 57/57/57
f 60/60/60 57/57/57 58/58/58
f 63/63/63 62/62/62 61/61/61
f 64/64/64 61/61/61 62/62/62
f 67/67/67 66/66/66 65/65/65
f 68/68/68 65/65/65 66/66/66
f 71/71/71 70/70/70 69/69/69
f 72/72/72 69/69/69 70/70/70
f 75/75/75 74/74/74 73/73/73
f 76/76/76 73/73/73 74/74/74
f 79/79/79 78/78/78 77/77/77
f 80/80/80 77/77/77 78/78/78
f 83/83/83 82/82/82 81/81/81
f 84/84/84 81/81/81 82/82/82
f 82/82/82 83/83/83 85/85/85
f 81/81/81 84/84/84 86/86/86
f 87/87/87 85/85/85 83/83/83
f 88/88/88 86/86/86 84/84/84
f 85/85/85 87/87/87 89/89/89
f 86/86/86 88/88/88 90/90/90
f 91/91/91 89/89/89 87/87/87
f 92/92/92 90/90/90 88/88/88
f 89/89/89 91/91/91 93/93/93
f 90/90/90 92/92/92 94/94/94
f 95/95/95 93/93/93 91/91/91
f 96/96/96 94/94/94 92/92/92
f 93/93/93 95/95/95 96/96/96
f 94/94/94 96/96/96 95/95/95
