g WheelFrontRight003
v 0.1999994 8.119417E-08 0.2999975
v 0.1999994 -0.2999999 -2.536346E-06
v 0.1999994 -0.2121319 0.2121295
v 0.1999994 0.3 -2.445747E-06
v 0.1999994 0.2121321 0.2121295
v 0.1999994 1.527197E-07 -0.3000025
v 0.1999994 -0.2121318 -0.2121346
v 0.1999994 0.2121321 -0.2121345
v -0.2000006 0.2121321 0.2121295
v 0.1999994 0.3 -2.445747E-06
v 0.1999994 0.2121321 0.2121295
v -0.2000006 0.3000001 -2.464821E-06
v -0.2000006 8.119417E-08 0.2999975
v 0.1999994 0.2121321 0.2121295
v 0.1999994 8.119417E-08 0.2999975
v -0.2000006 0.2121321 0.2121295
v -0.2000006 -0.2121319 0.2121295
v 0.1999994 8.119417E-08 0.2999975
v 0.1999994 -0.2121319 0.2121295
v -0.2000006 8.119417E-08 0.2999975
v -0.2000006 -0.2999999 -2.55542E-06
v 0.1999994 -0.2121319 0.2121295
v 0.1999994 -0.2999999 -2.536346E-06
v -0.2000006 -0.2121319 0.2121295
v -0.2000006 -0.2121318 -0.2121346
v 0.1999994 -0.2999999 -2.536346E-06
v 0.1999994 -0.2121318 -0.2121346
v -0.2000006 -0.2999999 -2.55542E-06
v -0.2000006 1.527197E-07 -0.3000025
v 0.1999994 -0.2121318 -0.2121346
v 0.1999994 1.527197E-07 -0.3000025
v -0.2000006 -0.2121318 -0.2121346
v -0.2000006 0.2121322 -0.2121345
v 0.1999994 1.527197E-07 -0.3000025
v 0.1999994 0.2121321 -0.2121345
v -0.2000006 1.527197E-07 -0.3000025
v -0.2000006 0.3000001 -2.464821E-06
v 0.1999994 0.2121321 -0.2121345
v 0.1999994 0.3 -2.445747E-06
v -0.2000006 0.2121322 -0.2121345
v -0.1000006 0.1355955 -0.1355979
v -0.1000006 -0.1355953 -0.1355979
v -0.1000006 1.398166E-07 -0.1917633
v -0.1000006 0.1355955 0.1355928
v -0.1000006 0.1917609 -2.477724E-06
v -0.1000006 -0.1355953 0.1355928
v -0.1000006 -0.1917607 -2.542517E-06
v -0.1000006 9.409728E-08 0.1917583
v -0.2000006 0.1355954 0.1355928
v -0.1000006 0.1917609 -2.477724E-06
v -0.2000006 0.1917609 -2.477724E-06
v -0.1000006 0.1355955 0.1355928
v -0.2000006 0.1917609 -2.477724E-06
v -0.1000006 0.1355955 -0.1355979
v -0.2000006 0.1355955 -0.1355979
v -0.1000006 0.1917609 -2.477724E-06
v -0.2000006 0.1355955 -0.1355979
v -0.1000006 1.398166E-07 -0.1917633
v -0.2000006 1.398166E-07 -0.1917633
v -0.1000006 0.1355955 -0.1355979
v -0.2000006 1.398166E-07 -0.1917633
v -0.1000006 -0.1355953 -0.1355979
v -0.2000006 -0.1355953 -0.1355979
v -0.1000006 1.398166E-07 -0.1917633
v -0.2000006 -0.1355953 -0.1355979
v -0.1000006 -0.1917607 -2.542517E-06
v -0.2000006 -0.1917607 -2.542517E-06
v -0.1000006 -0.1355953 -0.1355979
v -0.2000006 -0.1917607 -2.542517E-06
v -0.1000006 -0.1355953 0.1355928
v -0.2000006 -0.1355953 0.1355928
v -0.1000006 -0.1917607 -2.542517E-06
v -0.2000006 -0.1355953 0.1355928
v -0.1000006 9.409728E-08 0.1917583
v -0.2000006 9.409728E-08 0.1917583
v -0.1000006 -0.1355953 0.1355928
v -0.2000006 9.409728E-08 0.1917583
v -0.1000006 0.1355955 0.1355928
v -0.2000006 0.1355954 0.1355928
v -0.1000006 9.409728E-08 0.1917583
v -0.2000006 0.1917609 -2.477724E-06
v -0.2000006 0.2121321 0.2121295
v -0.2000006 0.1355954 0.1355928
v -0.2000006 0.3000001 -2.464821E-06
v -0.2000006 8.119417E-08 0.2999975
v -0.2000006 0.1355955 -0.1355979
v -0.2000006 9.409728E-08 0.1917583
v -0.2000006 0.2121322 -0.2121345
v -0.2000006 -0.2121319 0.2121295
v -0.2000006 1.398166E-07 -0.1917633
v -0.2000006 -0.1355953 0.1355928
v -0.2000006 1.527197E-07 -0.3000025
v -0.2000006 -0.2999999 -2.55542E-06
v -0.2000006 -0.1355953 -0.1355979
v -0.2000006 -0.1917607 -2.542517E-06
v -0.2000006 -0.2121318 -0.2121346
vt 0.370908 0.63147
vt 0.3602293 0.6565524
vt 0.3707633 0.6462228
vt 0.3458256 0.6207913
vt 0.3605785 0.6209359
vt 0.3351468 0.6458737
vt 0.3454764 0.6564077
vt 0.3352915 0.6311208
vt 0.2696198 0.8546838
vt 0.2953216 0.8694372
vt 0.2953216 0.8546838
vt 0.2696198 0.8694372
vt 0.00106506 0.8546838
vt 0.02676697 0.8694373
vt 0.02676697 0.8546838
vt 0.00106506 0.8694373
vt 0.9618255 0.8523475
vt 0.9361236 0.837594
vt 0.9361236 0.8523475
vt 0.9618255 0.837594
vt 0.832431 0.8694372
vt 0.8067291 0.8546838
vt 0.8067291 0.8694372
vt 0.832431 0.8546838
vt 0.8055756 0.8694373
vt 0.7798737 0.8546838
vt 0.7798737 0.8694373
vt 0.8055756 0.8546838
vt 0.2147552 0.8855506
vt 0.1890534 0.8707972
vt 0.1890534 0.8855506
vt 0.2147552 0.8707972
vt 0.1621979 0.8707972
vt 0.1878998 0.8855506
vt 0.1878998 0.8707972
vt 0.1621979 0.8855506
vt 0.8604401 0.8546838
vt 0.8861421 0.8694373
vt 0.8861421 0.8546838
vt 0.8604401 0.8694373
vt 0.3556065 0.275691
vt 0.37177 0.2691808
vt 0.36234 0.2690883
vt 0.3621167 0.2918544
vt 0.355514 0.285121
vt 0.3782802 0.2853442
vt 0.3783727 0.2759142
vt 0.3715468 0.2919469
vt 0.7390902 0.6555564
vt 0.7296597 0.6491311
vt 0.7296597 0.6555564
vt 0.7390902 0.6491311
vt 0.990555 0.9348533
vt 0.9811245 0.9284279
vt 0.9811245 0.9348533
vt 0.990555 0.9284279
vt 0.8616489 0.9348533
vt 0.8522184 0.9284279
vt 0.8522184 0.9348533
vt 0.8616489 0.9284279
vt 0.9381558 0.9284278
vt 0.9475864 0.9348533
vt 0.9475864 0.9284278
vt 0.9381558 0.9348533
vt 0.6227261 0.9284279
vt 0.6321566 0.9348534
vt 0.6321566 0.9284279
vt 0.6227261 0.9348534
vt 0.1739956 0.9401467
vt 0.1834262 0.9465722
vt 0.1834262 0.9401467
vt 0.1739956 0.9465722
vt 0.8629606 0.9284278
vt 0.872391 0.9348534
vt 0.872391 0.9284278
vt 0.8629606 0.9348534
vt 0.7498326 0.6555566
vt 0.7404019 0.6491311
vt 0.7404019 0.6555566
vt 0.7498326 0.6491311
vt 0.3113147 0.6272426
vt 0.298182 0.6311209
vt 0.3045812 0.6338453
vt 0.3087162 0.6207913
vt 0.2980374 0.6458737
vt 0.3207446 0.627335
vt 0.3044887 0.6432753
vt 0.3234692 0.6209359
vt 0.308367 0.6564078
vt 0.3273473 0.6340685
vt 0.3110913 0.6500087
vt 0.3337985 0.63147
vt 0.3231198 0.6565524
vt 0.3272548 0.6434985
vt 0.3205215 0.6501012
vt 0.3336539 0.6462228
vn 1 0 0
vn 1 0 0
vn 1 0 0
vn 1 0 0
vn 1 0 0
vn 1 0 0
vn 1 0 0
vn 1 0 0
vn 1.76216E-07 0.9238794 0.3826835
vn 1.76216E-07 0.9238794 0.3826836
vn 1.76216E-07 0.9238794 0.3826835
vn 1.579683E-07 0.9238794 0.3826835
vn 0 0.3826834 0.9238795
vn 0 0.3826834 0.9238795
vn 0 0.3826834 0.9238795
vn 0 0.3826833 0.9238795
vn 0 -0.3826837 0.9238794
vn 0 -0.3826837 0.9238794
vn 0 -0.3826837 0.9238794
vn 0 -0.3826837 0.9238794
vn 0 -0.9238794 0.3826836
vn 0 -0.9238794 0.3826836
vn 0 -0.9238794 0.3826836
vn 0 -0.9238794 0.3826836
vn 0 -0.9238794 -0.3826839
vn 0 -0.9238794 -0.3826839
vn 0 -0.9238794 -0.3826838
vn 0 -0.9238794 -0.3826838
vn 0 -0.3826833 -0.9238796
vn 0 -0.3826833 -0.9238796
vn 0 -0.3826833 -0.9238796
vn 0 -0.3826833 -0.9238796
vn 1.170451E-07 0.3826835 -0.9238795
vn 1.170451E-07 0.3826835 -0.9238795
vn 1.170451E-07 0.3826835 -0.9238795
vn 0 0.3826834 -0.9238795
vn 1.944638E-07 0.9238796 -0.3826833
vn 1.944638E-07 0.9238796 -0.3826832
vn 1.944638E-07 0.9238796 -0.3826832
vn 1.944638E-07 0.9238796 -0.3826832
vn -1 0 0
vn -1 0 0
vn -1 0 0
vn -1 0 0
vn -1 0 0
vn -1 0 0
vn -1 0 0
vn -1 0 0
vn 0 -0.9238794 -0.3826839
vn 0 -0.9238794 -0.3826838
vn 0 -0.9238794 -0.3826838
vn 7.048642E-07 -0.9238795 -0.3826834
vn 0 -0.9238797 0.382683
vn 0 -0.9238797 0.382683
vn 0 -0.9238797 0.382683
vn 0 -0.9238797 0.3826829
vn 0 -0.3826833 0.9238796
vn 0 -0.3826833 0.9238796
vn 0 -0.3826833 0.9238796
vn 1.762161E-07 -0.3826832 0.9238796
vn 1.762161E-07 0.3826831 0.9238797
vn 1.762161E-07 0.3826831 0.9238797
vn 1.762161E-07 0.3826831 0.9238797
vn 0 0.3826829 0.9238797
vn 0 0.9238794 0.3826837
vn 0 0.9238794 0.3826837
vn 0 0.9238794 0.3826837
vn 0 0.9238794 0.3826837
vn -1.459822E-07 0.9238795 -0.3826834
vn -1.459822E-07 0.9238795 -0.3826834
vn -1.459822E-07 0.9238795 -0.3826835
vn 0 0.9238795 -0.3826835
vn 0 0.3826834 -0.9238795
vn 0 0.3826834 -0.9238795
vn 0 0.3826834 -0.9238795
vn -3.524321E-07 0.3826836 -0.9238794
vn 2.919645E-07 -0.3826835 -0.9238794
vn 2.919645E-07 -0.3826836 -0.9238794
vn 2.919645E-07 -0.3826835 -0.9238794
vn 0 -0.3826834 -0.9238795
vn -1 0 0
vn -1 0 0
vn -1 0 0
vn -1 0 0
vn -1 0 0
vn -1 0 0
vn -1 0 0
vn -1 0 0
vn -1 0 0
vn -1 0 0
vn -1 0 0
vn -1 0 0
vn -1 0 0
vn -1 0 0
vn -1 0 0
vn -1 0 0
g WheelFrontRight003_0
f 3/3/3 2/2/2 1/1/1
f 2/2/2 4/4/4 1/1/1
f 1/1/1 4/4/4 5/5/5
f 6/6/6 4/4/4 2/2/2
f 7/7/7 6/6/6 2/2/2
f 8/8/8 4/4/4 6/6/6
f 11/11/11 10/10/10 9/9/9
f 12/12/12 9/9/9 10/10/10
f 15/15/15 14/14/14 13/13/13
f 16/16/16 13/13/13 14/14/14
f 19/19/19 18/18/18 17/17/17
f 20/20/20 17/17/17 18/18/18
f 23/23/23 22/22/22 21/21/21
f 24/24/24 21/21/21 22/22/22
f 27/27/27 26/26/26 25/25/25
f 28/28/28 25/25/25 26/26/26
f 31/31/31 30/30/30 29/29/29
f 32/32/32 29/29/29 30/30/30
f 35/35/35 34/34/34 33/33/33
f 36/36/36 33/33/33 34/34/34
f 39/39/39 38/38/38 37/37/37
f 40/40/40 37/37/37 38/38/38
f 43/43/43 42/42/42 41/41/41
f 42/42/42 44/44/44 41/41/41
f 41/41/41 44/44/44 45/45/45
f 46/46/46 44/44/44 42/42/42
f 47/47/47 46/46/46 42/42/42
f 48/48/48 44/44/44 46/46/46
f 51/51/51 50/50/50 49/49/49
f 52/52/52 49/49/49 50/50/50
f 55/55/55 54/54/54 53/53/53
f 56/56/56 53/53/53 54/54/54
f 59/59/59 58/58/58 57/57/57
f 60/60/60 57/57/57 58/58/58
f 63/63/63 62/62/62 61/61/61
f 64/64/64 61/61/61 62/62/62
f 67/67/67 66/66/66 65/65/65
f 68/68/68 65/65/65 66/66/66
f 71/71/71 70/70/70 69/69/69
f 72/72/72 69/69/69 70/70/70
f 75/75/75 74/74/74 73/73/73
f 76/76/76 73/73/73 74/74/74
f 79/79/79 78/78/78 77/77/77
f 80/80/80 77/77/77 78/78/78
f 83/83/83 82/82/82 81/81/81
f 84/84/84 81/81/81 82/82/82
f 82/82/82 83/83/83 85/85/85
f 81/81/81 84/84/84 86/86/86
f 87/87/87 85/85/85 83/83/83
f 88/88/88 86/86/86 84/84/84
f 85/85/85 87/87/87 89/89/89
f 86/86/86 88/88/88 90/90/90
f 91/91/91 89/89/89 87/87/87
f 92/92/92 90/90/90 88/88/88
f 89/89/89 91/91/91 93/93/93
f 90/90/90 92/92/92 94/94/94
f 95/95/95 93/93/93 91/91/91
f 96/96/96 94/94/94 92/92/92
f 93/93/93 95/95/95 96/96/96
f 94/94/94 96/96/96 95/95/95
