g WheelFront002
v 0.08789003 -3.841688E-09 -0.3000009
v -0.0878906 0.212132 -0.2121332
v -0.0878906 3.841929E-09 -0.3000009
v 0.08789004 0.212132 -0.2121332
v -0.0878906 0.212132 -0.2121332
v 0.08789003 0.3 -9.116856E-07
v -0.0878906 0.3 -9.193693E-07
v 0.08789004 0.212132 -0.2121332
v -0.0878906 0.3 -9.193693E-07
v 0.08789002 0.212132 0.212131
v -0.08789061 0.212132 0.212131
v 0.08789003 0.3 -9.116856E-07
v 0.08789001 -0.3 -9.116856E-07
v -0.08789061 -0.2121321 -0.2121332
v -0.08789063 -0.3 -9.193693E-07
v 0.08789002 -0.2121321 -0.2121332
v -0.08789063 3.841929E-09 0.2999991
v 0.08789002 0.212132 0.212131
v 0.08789001 -3.841687E-09 0.2999991
v -0.08789061 0.212132 0.212131
v -0.08789063 -0.2121321 0.212131
v 0.08789001 -3.841687E-09 0.2999991
v 0.08789001 -0.2121321 0.212131
v -0.08789063 3.841929E-09 0.2999991
v -0.08789063 -0.3 -9.193693E-07
v 0.08789001 -0.2121321 0.212131
v 0.08789001 -0.3 -9.116856E-07
v -0.08789063 -0.2121321 0.212131
v -0.08789061 -0.2121321 -0.2121332
v 0.08789003 -3.841688E-09 -0.3000009
v -0.0878906 3.841929E-09 -0.3000009
v 0.08789002 -0.2121321 -0.2121332
v 0.08789002 -0.2121321 -0.2121332
v 0.08789003 -3.841688E-09 -0.1941159
v 0.08789003 -3.841688E-09 -0.3000009
v 0.08789002 -0.1372601 -0.137261
v 0.08789001 -0.3 -9.116856E-07
v 0.08789001 -0.1941151 -9.116856E-07
v 0.08789001 -0.2121321 0.212131
v 0.08789001 -0.1372601 0.1372592
v 0.08789001 -3.841687E-09 0.2999991
v 0.08789001 -3.841687E-09 0.1941141
v 0.08789002 0.212132 0.212131
v 0.08789003 0.13726 -0.137261
v 0.08789004 0.212132 -0.2121332
v 0.08789003 0.1941151 -9.116856E-07
v 0.08789003 0.3 -9.116856E-07
v 0.08789002 0.1372601 0.1372592
v -0.0878906 3.841929E-09 -0.3000009
v -0.08789061 -0.1372601 -0.137261
v -0.08789061 -0.2121321 -0.2121332
v -0.0878906 3.841929E-09 -0.1941159
v -0.0878906 0.212132 -0.2121332
v -0.08789063 -0.1941151 -9.193693E-07
v -0.08789063 -0.3 -9.193693E-07
v -0.08789063 -0.1372601 0.1372592
v -0.08789063 -0.2121321 0.212131
v -0.08789063 3.841929E-09 0.1941141
v -0.08789063 3.841929E-09 0.2999991
v -0.0878906 0.13726 -0.137261
v -0.0878906 0.3 -9.193693E-07
v -0.0878906 0.1941151 -9.193693E-07
v -0.08789061 0.212132 0.212131
v -0.08789061 0.1372601 0.1372592
vt 0.4113747 0.7635008
vt 0.4440941 0.7384521
vt 0.4113747 0.7384521
vt 0.4440941 0.7635008
vt 0.6164528 0.7384523
vt 0.6491722 0.763501
vt 0.6491722 0.7384523
vt 0.6164528 0.763501
vt 0.6149925 0.763501
vt 0.5822731 0.7384522
vt 0.5822731 0.763501
vt 0.6149925 0.7384522
vt 0.5480934 0.763501
vt 0.5808128 0.7384522
vt 0.5480934 0.7384522
vt 0.5808128 0.763501
vt 0.1379371 0.7898682
vt 0.1706566 0.7648195
vt 0.1379371 0.7648195
vt 0.1706566 0.7898682
vt 0.2746559 0.763501
vt 0.3073753 0.7384522
vt 0.2746559 0.7384522
vt 0.3073753 0.763501
vt 0.9616676 0.7337159
vt 0.994387 0.708667
vt 0.9616676 0.708667
vt 0.994387 0.7337159
vt 0.8933083 0.7086672
vt 0.9260277 0.7337159
vt 0.9260277 0.7086672
vt 0.8933083 0.7337159
vt 0.9804956 0.1581035
vt 0.9514966 0.1670157
vt 0.9571338 0.1810117
vt 0.9666129 0.152193
vt 0.9808164 0.1253856
vt 0.9668204 0.1310229
vt 0.9579083 0.1020238
vt 0.9519976 0.1159067
vt 0.9251904 0.1017031
vt 0.9308276 0.1156991
vt 0.9018286 0.1246113
vt 0.9303265 0.1668081
vt 0.9244161 0.1806909
vt 0.9155038 0.1516919
vt 0.9015079 0.1573291
vt 0.9157113 0.1305218
vt 0.266499 0.2809024
vt 0.2933063 0.2951059
vt 0.2992168 0.2812231
vt 0.2721362 0.2948984
vt 0.2431372 0.3038105
vt 0.308129 0.3102221
vt 0.322125 0.3045849
vt 0.3079215 0.3313922
vt 0.3218042 0.3373027
vt 0.2928052 0.3462151
vt 0.2984424 0.360211
vt 0.2570199 0.3097211
vt 0.2428164 0.3365284
vt 0.2568124 0.3308912
vt 0.2657246 0.3598902
vt 0.2716351 0.3460075
vn 0 0.3826826 -0.9238799
vn 0 0.3826826 -0.9238799
vn 0 0.3826826 -0.9238799
vn 0 0.3826826 -0.9238799
vn 0 0.9238796 -0.3826831
vn 0 0.9238796 -0.3826831
vn 0 0.9238797 -0.3826831
vn 0 0.9238797 -0.3826831
vn 0 0.9238794 0.3826835
vn 0 0.9238794 0.3826836
vn 0 0.9238794 0.3826835
vn 0 0.9238794 0.3826835
vn 0 -0.9238797 -0.3826829
vn 0 -0.9238797 -0.3826829
vn 0 -0.9238797 -0.3826829
vn 0 -0.9238797 -0.3826829
vn 0 0.3826837 0.9238794
vn 0 0.3826837 0.9238794
vn 0 0.3826837 0.9238794
vn 0 0.3826837 0.9238794
vn 0 -0.3826837 0.9238794
vn 0 -0.3826836 0.9238794
vn 0 -0.3826836 0.9238794
vn 0 -0.3826836 0.9238794
vn 0 -0.9238795 0.3826834
vn 0 -0.9238795 0.3826834
vn 0 -0.9238795 0.3826834
vn 0 -0.9238795 0.3826834
vn 0 -0.3826825 -0.9238799
vn 0 -0.3826826 -0.9238799
vn 0 -0.3826825 -0.9238799
vn 0 -0.3826825 -0.9238799
vn 1 0 0
vn 1 0 0
vn 1 0 0
vn 1 0 0
vn 1 0 0
vn 1 0 0
vn 1 0 0
vn 1 0 0
vn 1 0 0
vn 1 0 0
vn 1 0 0
vn 1 0 0
vn 1 0 0
vn 1 0 0
vn 1 0 0
vn 1 0 0
vn -1 0 0
vn -1 0 0
vn -1 0 0
vn -1 0 0
vn -1 0 0
vn -1 0 0
vn -1 0 0
vn -1 0 0
vn -1 0 0
vn -1 0 0
vn -1 0 0
vn -1 0 0
vn -1 0 0
vn -1 0 0
vn -1 0 0
vn -1 0 0
g WheelFront002_0
f 3/3/3 2/2/2 1/1/1
f 4/4/4 1/1/1 2/2/2
f 7/7/7 6/6/6 5/5/5
f 8/8/8 5/5/5 6/6/6
f 11/11/11 10/10/10 9/9/9
f 12/12/12 9/9/9 10/10/10
f 15/15/15 14/14/14 13/13/13
f 16/16/16 13/13/13 14/14/14
f 19/19/19 18/18/18 17/17/17
f 20/20/20 17/17/17 18/18/18
f 23/23/23 22/22/22 21/21/21
f 24/24/24 21/21/21 22/22/22
f 27/27/27 26/26/26 25/25/25
f 28/28/28 25/25/25 26/26/26
f 31/31/31 30/30/30 29/29/29
f 32/32/32 29/29/29 30/30/30
f 35/35/35 34/34/34 33/33/33
f 36/36/36 33/33/33 34/34/34
f 33/33/33 36/36/36 37/37/37
f 38/38/38 37/37/37 36/36/36
f 34/34/34 38/38/38 36/36/36
f 37/37/37 38/38/38 39/39/39
f 40/40/40 39/39/39 38/38/38
f 39/39/39 40/40/40 41/41/41
f 40/40/40 38/38/38 42/42/42
f 42/42/42 41/41/41 40/40/40
f 42/42/42 38/38/38 34/34/34
f 41/41/41 42/42/42 43/43/43
f 34/34/34 35/35/35 44/44/44
f 45/45/45 44/44/44 35/35/35
f 44/44/44 46/46/46 34/34/34
f 44/44/44 45/45/45 46/46/46
f 46/46/46 42/42/42 34/34/34
f 47/47/47 46/46/46 45/45/45
f 43/43/43 48/48/48 47/47/47
f 48/48/48 43/43/43 42/42/42
f 48/48/48 42/42/42 46/46/46
f 46/46/46 47/47/47 48/48/48
f 51/51/51 50/50/50 49/49/49
f 52/52/52 49/49/49 50/50/50
f 49/49/49 52/52/52 53/53/53
f 50/50/50 51/51/51 54/54/54
f 54/54/54 52/52/52 50/50/50
f 55/55/55 54/54/54 51/51/51
f 54/54/54 55/55/55 56/56/56
f 57/57/57 56/56/56 55/55/55
f 56/56/56 58/58/58 54/54/54
f 56/56/56 57/57/57 58/58/58
f 58/58/58 52/52/52 54/54/54
f 59/59/59 58/58/58 57/57/57
f 60/60/60 53/53/53 52/52/52
f 53/53/53 60/60/60 61/61/61
f 60/60/60 52/52/52 62/62/62
f 62/62/62 61/61/61 60/60/60
f 62/62/62 52/52/52 58/58/58
f 61/61/61 62/62/62 63/63/63
f 63/63/63 64/64/64 59/59/59
f 58/58/58 59/59/59 64/64/64
f 64/64/64 62/62/62 58/58/58
f 64/64/64 63/63/63 62/62/62
