g Wimpern01
v 0.4348799 -0.5544462 -0.001735487
v 0.48924 -0.5516562 0.002314511
v 0.4898532 -0.59312 -0.02780712
v 0.4354931 -0.5898724 -0.03185713
v 0.48924 -0.5516562 0.002314511
v 0.5331597 -0.5375263 -0.007225484
v 0.533773 -0.5952292 -0.03734711
v 0.4898532 -0.59312 -0.02780712
v 0.5331597 -0.5375263 -0.007225484
v 0.5710495 -0.5217765 -0.02378548
v 0.5716629 -0.5794793 -0.05390712
v 0.533773 -0.5952292 -0.03734711
v 0.5710495 -0.5217765 -0.02378548
v 0.6029993 -0.5003566 -0.04421547
v 0.6036128 -0.5580593 -0.07433711
v 0.5716629 -0.5794793 -0.05390712
v 0.6029993 -0.5003566 -0.04421547
v 0.6226193 -0.4668767 -0.07580547
v 0.6232327 -0.5245795 -0.1059271
v 0.6036128 -0.5580593 -0.07433711
v 0.6226193 -0.4668767 -0.07580547
v 0.6363893 -0.4432966 -0.1053255
v 0.6370027 -0.5009995 -0.1354471
v 0.6232327 -0.5245795 -0.1059271
v 0.6363893 -0.4432966 -0.1053255
v 0.6488096 -0.4204365 -0.1362855
v 0.6587878 -0.4781394 -0.1697811
v 0.6370027 -0.5009995 -0.1354471
v 0.6488096 -0.4204365 -0.1362855
v 0.6550199 -0.4017163 -0.1766055
v 0.6867636 -0.4594193 -0.2155354
v 0.6587878 -0.4781394 -0.1697811
v 0.3871799 -0.5539063 -0.01334548
v 0.4348799 -0.5544462 -0.001735487
v 0.4354931 -0.5898724 -0.03185713
v 0.3877931 -0.5823525 -0.04346712
v 0.3420898 -0.5513862 -0.03206548
v 0.3871799 -0.5539063 -0.01334548
v 0.3877931 -0.5823525 -0.04346712
v 0.3427031 -0.5598611 -0.06218712
v 0.2933098 -0.5386962 -0.06554547
v 0.3420898 -0.5513862 -0.03206548
v 0.3427031 -0.5598611 -0.06218712
v 0.2939231 -0.5289638 -0.09566712
v -0.4348799 -0.5544463 -0.001735062
v -0.4354931 -0.5898724 -0.03185677
v -0.4898532 -0.5931199 -0.0278071
v -0.48924 -0.5516562 0.002314529
v -0.48924 -0.5516562 0.002314529
v -0.4898532 -0.5931199 -0.0278071
v -0.5337732 -0.5952291 -0.0373471
v -0.53316 -0.5375262 -0.007225483
v -0.53316 -0.5375262 -0.007225483
v -0.5337732 -0.5952291 -0.0373471
v -0.5716633 -0.5794792 -0.05390712
v -0.5710502 -0.5217762 -0.02378548
v -0.5710502 -0.5217762 -0.02378548
v -0.5716633 -0.5794792 -0.05390712
v -0.6036133 -0.5580591 -0.0743371
v -0.6030003 -0.5003561 -0.04421546
v -0.6030003 -0.5003561 -0.04421546
v -0.6036133 -0.5580591 -0.0743371
v -0.6232334 -0.5245792 -0.1059271
v -0.6226203 -0.4668762 -0.07580546
v -0.6226203 -0.4668762 -0.07580546
v -0.6232334 -0.5245792 -0.1059271
v -0.6370033 -0.5009991 -0.1354471
v -0.6363902 -0.4432962 -0.1053255
v -0.6363902 -0.4432962 -0.1053255
v -0.6370033 -0.5009991 -0.1354471
v -0.6587882 -0.4781392 -0.1697811
v -0.6488101 -0.4204363 -0.1362855
v -0.6488101 -0.4204363 -0.1362855
v -0.6587882 -0.4781392 -0.1697811
v -0.6867639 -0.4594192 -0.2155354
v -0.6550199 -0.4017163 -0.1766055
v -0.3871798 -0.5539063 -0.01334485
v -0.3877931 -0.5823526 -0.0434665
v -0.4354931 -0.5898724 -0.03185677
v -0.4348799 -0.5544463 -0.001735062
v -0.3420897 -0.5513864 -0.03206434
v -0.342703 -0.5598612 -0.06218637
v -0.3877931 -0.5823526 -0.0434665
v -0.3871798 -0.5539063 -0.01334485
v -0.2933097 -0.5386964 -0.06554451
v -0.2939231 -0.5289638 -0.09566685
v -0.342703 -0.5598612 -0.06218637
v -0.3420897 -0.5513864 -0.03206434
vt 0.3884535 0.09233659
vt 0.4323144 0.09233659
vt 0.4323144 0.003268197
vt 0.3884535 0.003268197
vt 0.4323144 0.09233659
vt 0.4761754 0.09233659
vt 0.4761754 0.003268197
vt 0.4323144 0.003268197
vt 0.4761754 0.09233659
vt 0.5200364 0.09233659
vt 0.5200364 0.003268197
vt 0.4761754 0.003268197
vt 0.5200364 0.09233659
vt 0.5638974 0.09233659
vt 0.5638974 0.003268197
vt 0.5200364 0.003268197
vt 0.5638974 0.09233659
vt 0.6077583 0.09233659
vt 0.6077583 0.003268197
vt 0.5638974 0.003268197
vt 0.6077583 0.09233659
vt 0.6516193 0.09233659
vt 0.6516193 0.003268197
vt 0.6077583 0.003268197
vt 0.6516193 0.09233659
vt 0.6954803 0.09233659
vt 0.6954803 0.003268197
vt 0.6516193 0.003268197
vt 0.6954803 0.09233659
vt 0.7393414 0.09233659
vt 0.7393414 0.003268197
vt 0.6954803 0.003268197
vt 0.3445925 0.09233659
vt 0.3884535 0.09233659
vt 0.3884535 0.003268197
vt 0.3445925 0.003268197
vt 0.3007315 0.09233659
vt 0.3445925 0.09233659
vt 0.3445925 0.003268197
vt 0.3007315 0.003268197
vt 0.2568705 0.09233659
vt 0.3007315 0.09233659
vt 0.3007315 0.003268197
vt 0.2568705 0.003268197
vt 0.6077584 0.09233659
vt 0.6077584 0.003268197
vt 0.5638975 0.003268197
vt 0.5638975 0.09233659
vt 0.5638975 0.09233659
vt 0.5638975 0.003268197
vt 0.5200365 0.003268197
vt 0.5200365 0.09233659
vt 0.5200365 0.09233659
vt 0.5200365 0.003268197
vt 0.4761755 0.003268197
vt 0.4761755 0.09233659
vt 0.4761755 0.09233659
vt 0.4761755 0.003268197
vt 0.4323145 0.003268197
vt 0.4323145 0.09233659
vt 0.4323145 0.09233659
vt 0.4323145 0.003268197
vt 0.3884535 0.003268197
vt 0.3884535 0.09233659
vt 0.3884535 0.09233659
vt 0.3884535 0.003268197
vt 0.3445926 0.003268197
vt 0.3445926 0.09233659
vt 0.3445926 0.09233659
vt 0.3445926 0.003268197
vt 0.3007315 0.003268197
vt 0.3007315 0.09233659
vt 0.3007315 0.09233659
vt 0.3007315 0.003268197
vt 0.2568705 0.003268197
vt 0.2568705 0.09233659
vt 0.6516194 0.09233659
vt 0.6516194 0.003268197
vt 0.6077584 0.003268197
vt 0.6077584 0.09233659
vt 0.6954804 0.09233659
vt 0.6954804 0.003268197
vt 0.6516194 0.003268197
vt 0.6516194 0.09233659
vt 0.7393414 0.09233659
vt 0.7393414 0.003268197
vt 0.6954804 0.003268197
vt 0.6954804 0.09233659
vn -0.06109507 -0.6161945 0.7852207
vn -0.06109508 -0.6161945 0.7852208
vn -0.06109507 -0.6161946 0.7852207
vn -0.06109507 -0.6161945 0.7852207
vn 0.2486219 -0.5006476 0.8291798
vn 0.2486219 -0.5006477 0.8291798
vn 0.2486219 -0.5006476 0.8291798
vn 0.2486219 -0.5006475 0.8291798
vn 0.5009955 -0.3963019 0.7693818
vn 0.5009955 -0.3963019 0.7693818
vn 0.5009955 -0.3963019 0.7693818
vn 0.5009955 -0.3963019 0.7693818
vn 0.6583375 -0.342816 0.6701261
vn 0.6583375 -0.342816 0.6701261
vn 0.6583375 -0.342816 0.670126
vn 0.6583375 -0.342816 0.6701261
vn 0.9104083 -0.1838009 0.3706398
vn 0.9104083 -0.1838009 0.3706399
vn 0.9104083 -0.1838009 0.3706399
vn 0.9104083 -0.1838008 0.3706398
vn 0.9368485 -0.1539653 0.3140218
vn 0.9368485 -0.1539653 0.3140218
vn 0.9368485 -0.1539653 0.3140218
vn 0.9368485 -0.1539653 0.3140218
vn 0.9127695 -0.1297404 0.3873234
vn 0.9127695 -0.1297404 0.3873234
vn 0.9127695 -0.1297404 0.3873234
vn 0.9127695 -0.1297404 0.3873234
vn 0.913836 0.08059541 0.3980052
vn 0.913836 0.08059541 0.3980052
vn 0.913836 0.0805954 0.3980052
vn 0.913836 0.08059541 0.3980052
vn -0.2284762 -0.6703069 0.7060363
vn -0.2284762 -0.6703069 0.7060363
vn -0.2284762 -0.670307 0.7060363
vn -0.2284763 -0.670307 0.7060363
vn -0.4117001 -0.7807149 0.4700929
vn -0.4117001 -0.7807149 0.470093
vn -0.4117001 -0.7807148 0.470093
vn -0.4117 -0.7807149 0.4700929
vn -0.3921533 -0.9194983 -0.02717944
vn -0.3921534 -0.9194983 -0.02717944
vn -0.3921534 -0.9194983 -0.02717944
vn -0.3921534 -0.9194983 -0.02717944
vn 0.06108864 -0.6161959 0.7852203
vn 0.06108864 -0.6161959 0.7852202
vn 0.06108864 -0.6161959 0.7852202
vn 0.06108864 -0.6161959 0.7852203
vn -0.2486217 -0.5006478 0.8291798
vn -0.2486217 -0.5006477 0.8291798
vn -0.2486217 -0.5006478 0.8291798
vn -0.2486217 -0.5006477 0.8291798
vn -0.5009944 -0.3963028 0.769382
vn -0.5009944 -0.3963028 0.769382
vn -0.5009944 -0.3963027 0.7693821
vn -0.5009944 -0.3963028 0.769382
vn -0.6583355 -0.3428192 0.6701263
vn -0.6583355 -0.3428192 0.6701263
vn -0.6583355 -0.3428192 0.6701263
vn -0.6583355 -0.3428192 0.6701263
vn -0.910408 -0.1838052 0.3706385
vn -0.910408 -0.1838052 0.3706385
vn -0.910408 -0.1838052 0.3706385
vn -0.910408 -0.1838052 0.3706386
vn -0.9368498 -0.1539664 0.3140169
vn -0.9368498 -0.1539664 0.3140169
vn -0.9368498 -0.1539664 0.3140169
vn -0.9368498 -0.1539664 0.3140169
vn -0.9127719 -0.1297396 0.3873177
vn -0.9127719 -0.1297396 0.3873176
vn -0.9127719 -0.1297396 0.3873176
vn -0.9127719 -0.1297396 0.3873177
vn -0.9138372 0.08059996 0.3980014
vn -0.9138372 0.08059995 0.3980014
vn -0.9138372 0.08059996 0.3980015
vn -0.9138372 0.08059996 0.3980015
vn 0.2284725 -0.6703086 0.706036
vn 0.2284725 -0.6703085 0.706036
vn 0.2284725 -0.6703086 0.706036
vn 0.2284725 -0.6703086 0.706036
vn 0.4116957 -0.7807187 0.4700904
vn 0.4116957 -0.7807187 0.4700904
vn 0.4116956 -0.7807186 0.4700904
vn 0.4116956 -0.7807186 0.4700905
vn 0.3921524 -0.9194985 -0.02718213
vn 0.3921525 -0.9194985 -0.02718213
vn 0.3921525 -0.9194985 -0.02718214
vn 0.3921524 -0.9194985 -0.02718213
g Wimpern01_0
f 3/3/3 2/2/2 1/1/1
f 4/4/4 3/3/3 1/1/1
f 7/7/7 6/6/6 5/5/5
f 8/8/8 7/7/7 5/5/5
f 11/11/11 10/10/10 9/9/9
f 12/12/12 11/11/11 9/9/9
f 15/15/15 14/14/14 13/13/13
f 16/16/16 15/15/15 13/13/13
f 19/19/19 18/18/18 17/17/17
f 20/20/20 19/19/19 17/17/17
f 23/23/23 22/22/22 21/21/21
f 24/24/24 23/23/23 21/21/21
f 27/27/27 26/26/26 25/25/25
f 28/28/28 27/27/27 25/25/25
f 31/31/31 30/30/30 29/29/29
f 32/32/32 31/31/31 29/29/29
f 35/35/35 34/34/34 33/33/33
f 36/36/36 35/35/35 33/33/33
f 39/39/39 38/38/38 37/37/37
f 40/40/40 39/39/39 37/37/37
f 43/43/43 42/42/42 41/41/41
f 44/44/44 43/43/43 41/41/41
f 47/47/47 46/46/46 45/45/45
f 48/48/48 47/47/47 45/45/45
f 51/51/51 50/50/50 49/49/49
f 52/52/52 51/51/51 49/49/49
f 55/55/55 54/54/54 53/53/53
f 56/56/56 55/55/55 53/53/53
f 59/59/59 58/58/58 57/57/57
f 60/60/60 59/59/59 57/57/57
f 63/63/63 62/62/62 61/61/61
f 64/64/64 63/63/63 61/61/61
f 67/67/67 66/66/66 65/65/65
f 68/68/68 67/67/67 65/65/65
f 71/71/71 70/70/70 69/69/69
f 72/72/72 71/71/71 69/69/69
f 75/75/75 74/74/74 73/73/73
f 76/76/76 75/75/75 73/73/73
f 79/79/79 78/78/78 77/77/77
f 80/80/80 79/79/79 77/77/77
f 83/83/83 82/82/82 81/81/81
f 84/84/84 83/83/83 81/81/81
f 87/87/87 86/86/86 85/85/85
f 88/88/88 87/87/87 85/85/85
