g Wooden_Part_bot
v -2.2111 27.4495 -38.1783
v -0.4491 27.3799 -59.4228
v -0.4395 27.3693 -38.2021
v -2.2111 27.4633 -59.4228
v -4.0562 27.3693 -38.2021
v -0.4395 27.3693 -80.6435
v -4.0467 27.3799 -59.4228
v -2.2111 27.4495 -80.6673
v -4.0562 27.3693 -80.6435
v -0.4678 5.9912 -59.4228
v -2.2111 5.8811 -38.2362
v -0.4322 5.9284 -38.2374
v -2.2111 5.8804 -59.4228
v -0.4322 5.9284 -80.6082
v -4.0636 5.9284 -38.2374
v -2.2111 5.8811 -80.6094
v -4.0279 5.9912 -59.4228
v -4.0636 5.9284 -80.6082
v -0.4436 22.3351 -38.2157
v -2.2111 27.4495 -38.1783
v -0.4395 27.3693 -38.2021
v -2.2111 22.3626 -38.1711
v -4.0562 27.3693 -38.2021
v -0.4589 21.8547 -38.2315
v -4.0522 22.3351 -38.2157
v -2.2111 21.8792 -38.1714
v -0.5587 16.8872 -38.3358
v -4.0368 21.8547 -38.2315
v -2.2111 16.8759 -38.1858
v -0.5327 16.376 -38.3128
v -3.937 16.8872 -38.3358
v -2.2111 16.3737 -38.1861
v -0.4544 11.459 -38.2495
v -3.963 16.376 -38.3128
v -2.2111 11.4708 -38.1812
v -0.4948 10.9949 -38.2882
v -4.0414 11.459 -38.2495
v -2.2111 10.9894 -38.1784
v -0.4322 5.9284 -38.2374
v -4.0009 10.9949 -38.2882
v -2.2111 5.8811 -38.2362
v -4.0636 5.9284 -38.2374
v -0.4948 10.9949 -38.2882
v -0.4678 5.9912 -59.4228
v -0.4322 5.9284 -38.2374
v -0.4307 10.9124 -59.4228
v -0.4322 5.9284 -80.6082
v -0.4544 11.459 -38.2495
v -0.4948 10.9949 -80.5574
v -0.4321 11.5027 -59.4228
v -0.5327 16.376 -38.3128
v -0.4544 11.459 -80.5961
v -0.4275 16.3832 -59.4228
v -0.5587 16.8872 -38.3358
v -0.5327 16.376 -80.5328
v -0.4232 16.9611 -59.4228
v -0.4589 21.8547 -38.2315
v -0.5587 16.8872 -80.5098
v -0.5274 21.9717 -59.4228
v -0.4436 22.3351 -38.2157
v -0.4589 21.8547 -80.6141
v -0.4438 22.4632 -59.4228
v -0.4395 27.3693 -38.2021
v -0.4436 22.3351 -80.6299
v -0.4491 27.3799 -59.4228
v -0.4395 27.3693 -80.6435
v -4.0522 22.3351 -38.2157
v -4.0467 27.3799 -59.4228
v -4.0562 27.3693 -38.2021
v -4.0519 22.4632 -59.4228
v -4.0562 27.3693 -80.6435
v -4.0368 21.8547 -38.2315
v -4.0522 22.3351 -80.6299
v -3.9683 21.9717 -59.4228
v -3.937 16.8872 -38.3358
v -4.0368 21.8547 -80.6141
v -4.0726 16.9611 -59.4228
v -3.963 16.376 -38.3128
v -3.937 16.8872 -80.5098
v -4.0683 16.3832 -59.4228
v -4.0414 11.459 -38.2495
v -3.963 16.376 -80.5328
v -4.0637 11.5027 -59.4228
v -4.0009 10.9949 -38.2882
v -4.0414 11.459 -80.5961
v -4.065 10.9124 -59.4228
v -4.0636 5.9284 -38.2374
v -4.0009 10.9949 -80.5574
v -4.0279 5.9912 -59.4228
v -4.0636 5.9284 -80.6082
v -4.0522 22.3351 -80.6299
v -2.2111 27.4495 -80.6673
v -4.0562 27.3693 -80.6435
v -2.2111 22.3626 -80.6745
v -0.4395 27.3693 -80.6435
v -4.0368 21.8547 -80.6141
v -0.4436 22.3351 -80.6299
v -2.2111 21.8792 -80.6742
v -3.937 16.8872 -80.5098
v -0.4589 21.8547 -80.6141
v -2.2111 16.8759 -80.6599
v -3.963 16.376 -80.5328
v -0.5587 16.8872 -80.5098
v -2.2111 16.3737 -80.6595
v -4.0414 11.459 -80.5961
v -0.5327 16.376 -80.5328
v -2.2111 11.4708 -80.6644
v -4.0009 10.9949 -80.5574
v -0.4544 11.459 -80.5961
v -2.2111 10.9894 -80.6672
v -4.0636 5.9284 -80.6082
v -0.4948 10.9949 -80.5574
v -2.2111 5.8811 -80.6094
v -0.4322 5.9284 -80.6082
vt 0.005298615 0.02360535
vt 0.4528809 0.0005998611
vt 0.00579834 0.0005002022
vt 0.4528809 0.02349854
vt 0.00579834 0.04660034
vt 0.8999023 0.0005002022
vt 0.4528809 0.04629517
vt 0.9003906 0.02360535
vt 0.8999023 0.04660034
vt 0.4467773 0.9990234
vt 0.0005002022 0.9760742
vt 0.0005002022 0.9995117
vt 0.4467773 0.9760742
vt 0.8930664 0.9995117
vt 0.0005002022 0.953125
vt 0.8930664 0.9760742
vt 0.4467773 0.9536133
vt 0.8930664 0.953125
vt 0.9555664 0.347168
vt 0.9326172 0.454834
vt 0.9555664 0.453125
vt 0.9326172 0.3476563
vt 0.909668 0.453125
vt 0.9555664 0.3369141
vt 0.909668 0.347168
vt 0.9326172 0.3374023
vt 0.9536133 0.2322998
vt 0.9101563 0.3369141
vt 0.9326172 0.2320557
vt 0.9541016 0.2215576
vt 0.9121094 0.2322998
vt 0.9326172 0.2215576
vt 0.9555664 0.117981
vt 0.9116211 0.2215576
vt 0.9326172 0.1182251
vt 0.9545898 0.1082153
vt 0.9101563 0.117981
vt 0.9326172 0.1080933
vt 0.9560547 0.00150013
vt 0.9106445 0.1082153
vt 0.9326172 0.0005002022
vt 0.909668 0.00150013
vt 0.3457031 0.05059814
vt 0.4511719 0.4958496
vt 0.4523926 0.04959106
vt 0.3474121 0.4958496
vt 0.4523926 0.9418945
vt 0.3359375 0.04980469
vt 0.3457031 0.940918
vt 0.3349609 0.4958496
vt 0.2322998 0.0512085
vt 0.3359375 0.9418945
vt 0.2321777 0.4958496
vt 0.2215576 0.05160522
vt 0.2322998 0.9404297
vt 0.2200928 0.4958496
vt 0.1168823 0.04949951
vt 0.2215576 0.9399414
vt 0.114624 0.4958496
vt 0.1068115 0.04910278
vt 0.1168823 0.9418945
vt 0.104126 0.4958496
vt 0.0006999969 0.04888916
vt 0.1068115 0.9423828
vt 0.0005002022 0.4958496
vt 0.0006999969 0.9428711
vt 0.5615234 0.9521484
vt 0.4550781 0.5053711
vt 0.4553223 0.9526367
vt 0.5585938 0.5053711
vt 0.4553223 0.0585022
vt 0.5712891 0.9516602
vt 0.5615234 0.05880737
vt 0.5693359 0.5053711
vt 0.6762695 0.949707
vt 0.5712891 0.0592041
vt 0.6748047 0.5053711
vt 0.6870117 0.9501953
vt 0.6762695 0.06140137
vt 0.6870117 0.5053711
vt 0.7905273 0.9516602
vt 0.6870117 0.06091309
vt 0.7895508 0.5053711
vt 0.800293 0.9506836
vt 0.7905273 0.05960083
vt 0.8017578 0.5053711
vt 0.9072266 0.9516602
vt 0.800293 0.06039429
vt 0.9057617 0.5053711
vt 0.9072266 0.05929565
vt 0.909668 0.5722656
vt 0.9326172 0.4645996
vt 0.909668 0.4663086
vt 0.9326172 0.5717773
vt 0.9555664 0.4663086
vt 0.9101563 0.5825195
vt 0.9555664 0.5722656
vt 0.9326172 0.5820313
vt 0.9121094 0.6870117
vt 0.9555664 0.5825195
vt 0.9326172 0.6875
vt 0.9116211 0.6982422
vt 0.9536133 0.6870117
vt 0.9326172 0.6982422
vt 0.9101563 0.8012695
vt 0.9541016 0.6982422
vt 0.9326172 0.8012695
vt 0.9106445 0.8115234
vt 0.9555664 0.8012695
vt 0.9326172 0.8115234
vt 0.909668 0.9179688
vt 0.9545898 0.8115234
vt 0.9326172 0.9189453
vt 0.9560547 0.9179688
vn 0 0.7182617 0.6958008
vn 0.7333984 0.6801758 0
vn 0.6020508 0.5537109 0.5751953
vn 0 1 0
vn -0.6020508 0.5537109 0.5751953
vn 0.6020508 0.5537109 -0.5751953
vn -0.7333984 0.6801758 0
vn 0 0.7182617 -0.6958008
vn -0.6020508 0.5537109 -0.5751953
vn 0.7407227 -0.671875 0
vn 0 -0.7202148 0.6938477
vn 0.5922852 -0.5585938 0.5805664
vn 0 -1 0
vn 0.5922852 -0.5585938 -0.5805664
vn -0.5922852 -0.5585938 0.5805664
vn 0 -0.7202148 -0.6938477
vn -0.7407227 -0.671875 0
vn -0.5922852 -0.5585938 -0.5805664
vn 0.7211914 -0.02409363 0.6923828
vn 0 0.7182617 0.6958008
vn 0.6020508 0.5537109 0.5751953
vn 0 0.0004000664 1
vn -0.6020508 0.5537109 0.5751953
vn 0.7270508 -0.0375061 0.6855469
vn -0.7211914 -0.02409363 0.6923828
vn 0 -0.001700401 1
vn 0.7573242 0.0196991 0.652832
vn -0.7270508 -0.0375061 0.6855469
vn 0 -0.001799583 1
vn 0.7475586 0.04370117 0.6625977
vn -0.7573242 0.0196991 0.652832
vn 0 0.0002000332 1
vn 0.7280273 -0.0486145 0.684082
vn -0.7475586 0.04370117 0.6625977
vn 0 0.003299713 1
vn 0.7416992 -0.05380249 0.668457
vn -0.7280273 -0.0486145 0.684082
vn 0 -0.002799988 1
vn 0.5922852 -0.5585938 0.5805664
vn -0.7416992 -0.05380249 0.668457
vn 0 -0.7202148 0.6938477
vn -0.5922852 -0.5585938 0.5805664
vn 0.7416992 -0.05380249 0.668457
vn 0.7407227 -0.671875 0
vn 0.5922852 -0.5585938 0.5805664
vn 1 -0.002599716 0
vn 0.5922852 -0.5585938 -0.5805664
vn 0.7280273 -0.0486145 0.684082
vn 0.7416992 -0.05380249 -0.668457
vn 1 0.0006999969 0
vn 0.7475586 0.04370117 0.6625977
vn 0.7280273 -0.0486145 -0.684082
vn 1 -0.004199982 0
vn 0.7573242 0.0196991 0.652832
vn 0.7475586 0.04370117 -0.6625977
vn 1 0.006698608 0
vn 0.7270508 -0.0375061 0.6855469
vn 0.7573242 0.0196991 -0.652832
vn 0.9970703 -0.07409668 0
vn 0.7211914 -0.02409363 0.6923828
vn 0.7270508 -0.0375061 -0.6855469
vn 0.996582 -0.08331299 0
vn 0.6020508 0.5537109 0.5751953
vn 0.7211914 -0.02409363 -0.6923828
vn 0.7333984 0.6801758 0
vn 0.6020508 0.5537109 -0.5751953
vn -0.7211914 -0.02409363 0.6923828
vn -0.7333984 0.6801758 0
vn -0.6020508 0.5537109 0.5751953
vn -0.996582 -0.08331299 0
vn -0.6020508 0.5537109 -0.5751953
vn -0.7270508 -0.0375061 0.6855469
vn -0.7211914 -0.02409363 -0.6923828
vn -0.9970703 -0.07409668 0
vn -0.7573242 0.0196991 0.652832
vn -0.7270508 -0.0375061 -0.6855469
vn -1 0.006698608 0
vn -0.7475586 0.04370117 0.6625977
vn -0.7573242 0.0196991 -0.652832
vn -1 -0.004199982 0
vn -0.7280273 -0.0486145 0.684082
vn -0.7475586 0.04370117 -0.6625977
vn -1 0.0006999969 0
vn -0.7416992 -0.05380249 0.668457
vn -0.7280273 -0.0486145 -0.684082
vn -1 -0.002599716 0
vn -0.5922852 -0.5585938 0.5805664
vn -0.7416992 -0.05380249 -0.668457
vn -0.7407227 -0.671875 0
vn -0.5922852 -0.5585938 -0.5805664
vn -0.7211914 -0.02409363 -0.6923828
vn 0 0.7182617 -0.6958008
vn -0.6020508 0.5537109 -0.5751953
vn 0 0.0004000664 -1
vn 0.6020508 0.5537109 -0.5751953
vn -0.7270508 -0.0375061 -0.6855469
vn 0.7211914 -0.02409363 -0.6923828
vn 0 -0.001700401 -1
vn -0.7573242 0.0196991 -0.652832
vn 0.7270508 -0.0375061 -0.6855469
vn 0 -0.001799583 -1
vn -0.7475586 0.04370117 -0.6625977
vn 0.7573242 0.0196991 -0.652832
vn 0 0.0002000332 -1
vn -0.7280273 -0.0486145 -0.684082
vn 0.7475586 0.04370117 -0.6625977
vn 0 0.003299713 -1
vn -0.7416992 -0.05380249 -0.668457
vn 0.7280273 -0.0486145 -0.684082
vn 0 -0.002799988 -1
vn -0.5922852 -0.5585938 -0.5805664
vn 0.7416992 -0.05380249 -0.668457
vn 0 -0.7202148 -0.6938477
vn 0.5922852 -0.5585938 -0.5805664
g Wooden_Part_bot_0
f 3/3/3 2/2/2 1/1/1
f 2/2/2 4/4/4 1/1/1
f 5/5/5 1/1/1 4/4/4
f 2/2/2 6/6/6 4/4/4
f 7/7/7 5/5/5 4/4/4
f 6/6/6 8/8/8 4/4/4
f 7/7/7 4/4/4 8/8/8
f 9/9/9 7/7/7 8/8/8
f 12/12/12 11/11/11 10/10/10
f 11/11/11 13/13/13 10/10/10
f 14/14/14 10/10/10 13/13/13
f 11/11/11 15/15/15 13/13/13
f 16/16/16 14/14/14 13/13/13
f 15/15/15 17/17/17 13/13/13
f 16/16/16 13/13/13 17/17/17
f 18/18/18 16/16/16 17/17/17
f 21/21/21 20/20/20 19/19/19
f 20/20/20 22/22/22 19/19/19
f 20/20/20 23/23/23 22/22/22
f 19/19/19 22/22/22 24/24/24
f 23/23/23 25/25/25 22/22/22
f 22/22/22 26/26/26 24/24/24
f 22/22/22 25/25/25 26/26/26
f 24/24/24 26/26/26 27/27/27
f 25/25/25 28/28/28 26/26/26
f 26/26/26 29/29/29 27/27/27
f 26/26/26 28/28/28 29/29/29
f 27/27/27 29/29/29 30/30/30
f 28/28/28 31/31/31 29/29/29
f 29/29/29 32/32/32 30/30/30
f 29/29/29 31/31/31 32/32/32
f 30/30/30 32/32/32 33/33/33
f 31/31/31 34/34/34 32/32/32
f 32/32/32 35/35/35 33/33/33
f 32/32/32 34/34/34 35/35/35
f 33/33/33 35/35/35 36/36/36
f 34/34/34 37/37/37 35/35/35
f 35/35/35 38/38/38 36/36/36
f 35/35/35 37/37/37 38/38/38
f 39/39/39 36/36/36 38/38/38
f 37/37/37 40/40/40 38/38/38
f 41/41/41 39/39/39 38/38/38
f 41/41/41 38/38/38 40/40/40
f 42/42/42 41/41/41 40/40/40
f 45/45/45 44/44/44 43/43/43
f 44/44/44 46/46/46 43/43/43
f 44/44/44 47/47/47 46/46/46
f 48/48/48 43/43/43 46/46/46
f 47/47/47 49/49/49 46/46/46
f 50/50/50 48/48/48 46/46/46
f 50/50/50 46/46/46 49/49/49
f 51/51/51 48/48/48 50/50/50
f 52/52/52 50/50/50 49/49/49
f 53/53/53 51/51/51 50/50/50
f 53/53/53 50/50/50 52/52/52
f 54/54/54 51/51/51 53/53/53
f 55/55/55 53/53/53 52/52/52
f 56/56/56 54/54/54 53/53/53
f 56/56/56 53/53/53 55/55/55
f 57/57/57 54/54/54 56/56/56
f 58/58/58 56/56/56 55/55/55
f 59/59/59 57/57/57 56/56/56
f 59/59/59 56/56/56 58/58/58
f 60/60/60 57/57/57 59/59/59
f 61/61/61 59/59/59 58/58/58
f 62/62/62 60/60/60 59/59/59
f 62/62/62 59/59/59 61/61/61
f 63/63/63 60/60/60 62/62/62
f 64/64/64 62/62/62 61/61/61
f 65/65/65 63/63/63 62/62/62
f 65/65/65 62/62/62 64/64/64
f 66/66/66 65/65/65 64/64/64
f 69/69/69 68/68/68 67/67/67
f 68/68/68 70/70/70 67/67/67
f 68/68/68 71/71/71 70/70/70
f 67/67/67 70/70/70 72/72/72
f 71/71/71 73/73/73 70/70/70
f 70/70/70 74/74/74 72/72/72
f 70/70/70 73/73/73 74/74/74
f 72/72/72 74/74/74 75/75/75
f 73/73/73 76/76/76 74/74/74
f 74/74/74 77/77/77 75/75/75
f 74/74/74 76/76/76 77/77/77
f 75/75/75 77/77/77 78/78/78
f 76/76/76 79/79/79 77/77/77
f 77/77/77 80/80/80 78/78/78
f 77/77/77 79/79/79 80/80/80
f 78/78/78 80/80/80 81/81/81
f 79/79/79 82/82/82 80/80/80
f 80/80/80 83/83/83 81/81/81
f 80/80/80 82/82/82 83/83/83
f 81/81/81 83/83/83 84/84/84
f 82/82/82 85/85/85 83/83/83
f 83/83/83 86/86/86 84/84/84
f 83/83/83 85/85/85 86/86/86
f 87/87/87 84/84/84 86/86/86
f 85/85/85 88/88/88 86/86/86
f 89/89/89 87/87/87 86/86/86
f 89/89/89 86/86/86 88/88/88
f 90/90/90 89/89/89 88/88/88
f 93/93/93 92/92/92 91/91/91
f 92/92/92 94/94/94 91/91/91
f 92/92/92 95/95/95 94/94/94
f 91/91/91 94/94/94 96/96/96
f 95/95/95 97/97/97 94/94/94
f 94/94/94 98/98/98 96/96/96
f 94/94/94 97/97/97 98/98/98
f 96/96/96 98/98/98 99/99/99
f 97/97/97 100/100/100 98/98/98
f 98/98/98 101/101/101 99/99/99
f 98/98/98 100/100/100 101/101/101
f 99/99/99 101/101/101 102/102/102
f 100/100/100 103/103/103 101/101/101
f 101/101/101 104/104/104 102/102/102
f 101/101/101 103/103/103 104/104/104
f 102/102/102 104/104/104 105/105/105
f 103/103/103 106/106/106 104/104/104
f 104/104/104 107/107/107 105/105/105
f 104/104/104 106/106/106 107/107/107
f 105/105/105 107/107/107 108/108/108
f 106/106/106 109/109/109 107/107/107
f 107/107/107 110/110/110 108/108/108
f 107/107/107 109/109/109 110/110/110
f 111/111/111 108/108/108 110/110/110
f 109/109/109 112/112/112 110/110/110
f 113/113/113 111/111/111 110/110/110
f 113/113/113 110/110/110 112/112/112
f 114/114/114 113/113/113 112/112/112
